<?xml version='1.0' encoding='utf-8'?>
<svg xmlns:xlink="http://www.w3.org/1999/xlink" xmlns="http://www.w3.org/2000/svg" id="chart-879f5493-d2b3-4414-b180-992495765ab1" class="pygal-chart" viewBox="0 0 800 600"><!--Generated with pygal 2.4.0 (lxml) ©Kozea 2012-2016 on 2020-05-04--><!--http://pygal.org--><!--http://github.com/Kozea/pygal--><defs><style type="text/css">#chart-879f5493-d2b3-4414-b180-992495765ab1{-webkit-user-select:none;-webkit-font-smoothing:antialiased;font-family:Helvetica,Arial,sans-serif}#chart-879f5493-d2b3-4414-b180-992495765ab1 .title{font-family:Helvetica,Arial,sans-serif;font-size:18px}#chart-879f5493-d2b3-4414-b180-992495765ab1 .legends .legend text{font-family:Helvetica,Arial,sans-serif;font-size:15px}#chart-879f5493-d2b3-4414-b180-992495765ab1 .axis text{font-family:Helvetica,Arial,sans-serif;font-size:15px}#chart-879f5493-d2b3-4414-b180-992495765ab1 .axis text.major{font-family:Helvetica,Arial,sans-serif;font-size:15px}#chart-879f5493-d2b3-4414-b180-992495765ab1 .text-overlay text.value{font-family:Helvetica,Arial,sans-serif;font-size:15px}#chart-879f5493-d2b3-4414-b180-992495765ab1 .text-overlay text.label{font-family:Helvetica,Arial,sans-serif;font-size:15px}#chart-879f5493-d2b3-4414-b180-992495765ab1 .tooltip{font-family:Helvetica,Arial,sans-serif;font-size:14px}#chart-879f5493-d2b3-4414-b180-992495765ab1 text.no_data{font-family:Helvetica,Arial,sans-serif;font-size:64px}
#chart-879f5493-d2b3-4414-b180-992495765ab1{background-color:transparent}#chart-879f5493-d2b3-4414-b180-992495765ab1 path,#chart-879f5493-d2b3-4414-b180-992495765ab1 line,#chart-879f5493-d2b3-4414-b180-992495765ab1 rect,#chart-879f5493-d2b3-4414-b180-992495765ab1 circle{-webkit-transition:150ms;-moz-transition:150ms;transition:150ms}#chart-879f5493-d2b3-4414-b180-992495765ab1 .graph &gt; .background{fill:transparent}#chart-879f5493-d2b3-4414-b180-992495765ab1 .plot &gt; .background{fill:white}#chart-879f5493-d2b3-4414-b180-992495765ab1 .graph{fill:rgba(0,0,0,.87)}#chart-879f5493-d2b3-4414-b180-992495765ab1 text.no_data{fill:rgba(0,0,0,1)}#chart-879f5493-d2b3-4414-b180-992495765ab1 .title{fill:rgba(0,0,0,1)}#chart-879f5493-d2b3-4414-b180-992495765ab1 .legends .legend text{fill:rgba(0,0,0,.87)}#chart-879f5493-d2b3-4414-b180-992495765ab1 .legends .legend:hover text{fill:rgba(0,0,0,1)}#chart-879f5493-d2b3-4414-b180-992495765ab1 .axis .line{stroke:rgba(0,0,0,1)}#chart-879f5493-d2b3-4414-b180-992495765ab1 .axis .guide.line{stroke:rgba(0,0,0,.54)}#chart-879f5493-d2b3-4414-b180-992495765ab1 .axis .major.line{stroke:rgba(0,0,0,.87)}#chart-879f5493-d2b3-4414-b180-992495765ab1 .axis text.major{fill:rgba(0,0,0,1)}#chart-879f5493-d2b3-4414-b180-992495765ab1 .axis.y .guides:hover .guide.line,#chart-879f5493-d2b3-4414-b180-992495765ab1 .line-graph .axis.x .guides:hover .guide.line,#chart-879f5493-d2b3-4414-b180-992495765ab1 .stackedline-graph .axis.x .guides:hover .guide.line,#chart-879f5493-d2b3-4414-b180-992495765ab1 .xy-graph .axis.x .guides:hover .guide.line{stroke:rgba(0,0,0,1)}#chart-879f5493-d2b3-4414-b180-992495765ab1 .axis .guides:hover text{fill:rgba(0,0,0,1)}#chart-879f5493-d2b3-4414-b180-992495765ab1 .reactive{fill-opacity:.7;stroke-opacity:.8}#chart-879f5493-d2b3-4414-b180-992495765ab1 .ci{stroke:rgba(0,0,0,.87)}#chart-879f5493-d2b3-4414-b180-992495765ab1 .reactive.active,#chart-879f5493-d2b3-4414-b180-992495765ab1 .active .reactive{fill-opacity:.8;stroke-opacity:.9;stroke-width:4}#chart-879f5493-d2b3-4414-b180-992495765ab1 .ci .reactive.active{stroke-width:1.5}#chart-879f5493-d2b3-4414-b180-992495765ab1 .series text{fill:rgba(0,0,0,1)}#chart-879f5493-d2b3-4414-b180-992495765ab1 .tooltip rect{fill:white;stroke:rgba(0,0,0,1);-webkit-transition:opacity 150ms;-moz-transition:opacity 150ms;transition:opacity 150ms}#chart-879f5493-d2b3-4414-b180-992495765ab1 .tooltip .label{fill:rgba(0,0,0,.87)}#chart-879f5493-d2b3-4414-b180-992495765ab1 .tooltip .label{fill:rgba(0,0,0,.87)}#chart-879f5493-d2b3-4414-b180-992495765ab1 .tooltip .legend{font-size:.8em;fill:rgba(0,0,0,.54)}#chart-879f5493-d2b3-4414-b180-992495765ab1 .tooltip .x_label{font-size:.6em;fill:rgba(0,0,0,1)}#chart-879f5493-d2b3-4414-b180-992495765ab1 .tooltip .xlink{font-size:.5em;text-decoration:underline}#chart-879f5493-d2b3-4414-b180-992495765ab1 .tooltip .value{font-size:1.5em}#chart-879f5493-d2b3-4414-b180-992495765ab1 .bound{font-size:.5em}#chart-879f5493-d2b3-4414-b180-992495765ab1 .max-value{font-size:.75em;fill:rgba(0,0,0,.54)}#chart-879f5493-d2b3-4414-b180-992495765ab1 .map-element{fill:white;stroke:rgba(0,0,0,.54) !important}#chart-879f5493-d2b3-4414-b180-992495765ab1 .map-element .reactive{fill-opacity:inherit;stroke-opacity:inherit}#chart-879f5493-d2b3-4414-b180-992495765ab1 .color-0,#chart-879f5493-d2b3-4414-b180-992495765ab1 .color-0 a:visited{stroke:#F44336;fill:#F44336}#chart-879f5493-d2b3-4414-b180-992495765ab1 .color-1,#chart-879f5493-d2b3-4414-b180-992495765ab1 .color-1 a:visited{stroke:#3F51B5;fill:#3F51B5}#chart-879f5493-d2b3-4414-b180-992495765ab1 .color-2,#chart-879f5493-d2b3-4414-b180-992495765ab1 .color-2 a:visited{stroke:#009688;fill:#009688}#chart-879f5493-d2b3-4414-b180-992495765ab1 .color-3,#chart-879f5493-d2b3-4414-b180-992495765ab1 .color-3 a:visited{stroke:#FFC107;fill:#FFC107}#chart-879f5493-d2b3-4414-b180-992495765ab1 .color-4,#chart-879f5493-d2b3-4414-b180-992495765ab1 .color-4 a:visited{stroke:#FF5722;fill:#FF5722}#chart-879f5493-d2b3-4414-b180-992495765ab1 .color-5,#chart-879f5493-d2b3-4414-b180-992495765ab1 .color-5 a:visited{stroke:#9C27B0;fill:#9C27B0}#chart-879f5493-d2b3-4414-b180-992495765ab1 .text-overlay .color-0 text{fill:black}#chart-879f5493-d2b3-4414-b180-992495765ab1 .text-overlay .color-1 text{fill:black}#chart-879f5493-d2b3-4414-b180-992495765ab1 .text-overlay .color-2 text{fill:black}#chart-879f5493-d2b3-4414-b180-992495765ab1 .text-overlay .color-3 text{fill:black}#chart-879f5493-d2b3-4414-b180-992495765ab1 .text-overlay .color-4 text{fill:black}#chart-879f5493-d2b3-4414-b180-992495765ab1 .text-overlay .color-5 text{fill:black}
#chart-879f5493-d2b3-4414-b180-992495765ab1 text.no_data{text-anchor:middle}#chart-879f5493-d2b3-4414-b180-992495765ab1 .guide.line{fill:none}#chart-879f5493-d2b3-4414-b180-992495765ab1 .centered{text-anchor:middle}#chart-879f5493-d2b3-4414-b180-992495765ab1 .title{text-anchor:middle}#chart-879f5493-d2b3-4414-b180-992495765ab1 .legends .legend text{fill-opacity:1}#chart-879f5493-d2b3-4414-b180-992495765ab1 .axis.x text{text-anchor:middle}#chart-879f5493-d2b3-4414-b180-992495765ab1 .axis.x:not(.web) text[transform]{text-anchor:start}#chart-879f5493-d2b3-4414-b180-992495765ab1 .axis.x:not(.web) text[transform].backwards{text-anchor:end}#chart-879f5493-d2b3-4414-b180-992495765ab1 .axis.y text{text-anchor:end}#chart-879f5493-d2b3-4414-b180-992495765ab1 .axis.y text[transform].backwards{text-anchor:start}#chart-879f5493-d2b3-4414-b180-992495765ab1 .axis.y2 text{text-anchor:start}#chart-879f5493-d2b3-4414-b180-992495765ab1 .axis.y2 text[transform].backwards{text-anchor:end}#chart-879f5493-d2b3-4414-b180-992495765ab1 .axis .guide.line{stroke-dasharray:1}#chart-879f5493-d2b3-4414-b180-992495765ab1 .axis .major.guide.line{stroke-dasharray:1}#chart-879f5493-d2b3-4414-b180-992495765ab1 .horizontal .axis.y .guide.line,#chart-879f5493-d2b3-4414-b180-992495765ab1 .horizontal .axis.y2 .guide.line,#chart-879f5493-d2b3-4414-b180-992495765ab1 .vertical .axis.x .guide.line{opacity:0}#chart-879f5493-d2b3-4414-b180-992495765ab1 .horizontal .axis.always_show .guide.line,#chart-879f5493-d2b3-4414-b180-992495765ab1 .vertical .axis.always_show .guide.line{opacity:1 !important}#chart-879f5493-d2b3-4414-b180-992495765ab1 .axis.y .guides:hover .guide.line,#chart-879f5493-d2b3-4414-b180-992495765ab1 .axis.y2 .guides:hover .guide.line,#chart-879f5493-d2b3-4414-b180-992495765ab1 .axis.x .guides:hover .guide.line{opacity:1}#chart-879f5493-d2b3-4414-b180-992495765ab1 .axis .guides:hover text{opacity:1}#chart-879f5493-d2b3-4414-b180-992495765ab1 .nofill{fill:none}#chart-879f5493-d2b3-4414-b180-992495765ab1 .subtle-fill{fill-opacity:.2}#chart-879f5493-d2b3-4414-b180-992495765ab1 .dot{stroke-width:1px;fill-opacity:1}#chart-879f5493-d2b3-4414-b180-992495765ab1 .dot.active{stroke-width:5px}#chart-879f5493-d2b3-4414-b180-992495765ab1 .dot.negative{fill:transparent}#chart-879f5493-d2b3-4414-b180-992495765ab1 text,#chart-879f5493-d2b3-4414-b180-992495765ab1 tspan{stroke:none !important}#chart-879f5493-d2b3-4414-b180-992495765ab1 .series text.active{opacity:1}#chart-879f5493-d2b3-4414-b180-992495765ab1 .tooltip rect{fill-opacity:.95;stroke-width:.5}#chart-879f5493-d2b3-4414-b180-992495765ab1 .tooltip text{fill-opacity:1}#chart-879f5493-d2b3-4414-b180-992495765ab1 .showable{visibility:hidden}#chart-879f5493-d2b3-4414-b180-992495765ab1 .showable.shown{visibility:visible}#chart-879f5493-d2b3-4414-b180-992495765ab1 .gauge-background{fill:rgba(229,229,229,1);stroke:none}#chart-879f5493-d2b3-4414-b180-992495765ab1 .bg-lines{stroke:transparent;stroke-width:2px}</style><script type="text/javascript">window.pygal = window.pygal || {};window.pygal.config = window.pygal.config || {};window.pygal.config['879f5493-d2b3-4414-b180-992495765ab1'] = {"allow_interruptions": false, "box_mode": "extremes", "classes": ["pygal-chart"], "css": ["file://style.css", "file://graph.css"], "defs": [], "disable_xml_declaration": false, "dots_size": 2.5, "dynamic_print_values": false, "explicit_size": false, "fill": false, "force_uri_protocol": "https", "formatter": null, "half_pie": false, "height": 600, "include_x_axis": false, "inner_radius": 0, "interpolate": null, "interpolation_parameters": {}, "interpolation_precision": 250, "inverse_y_axis": false, "js": ["//kozea.github.io/pygal.js/2.0.x/pygal-tooltips.min.js"], "legend_at_bottom": true, "legend_at_bottom_columns": 2, "legend_box_size": 12, "logarithmic": false, "margin": 20, "margin_bottom": 65, "margin_left": null, "margin_right": null, "margin_top": null, "max_scale": 16, "min_scale": 4, "missing_value_fill_truncation": "x", "no_data_text": "No data", "no_prefix": false, "order_min": null, "pretty_print": false, "print_labels": false, "print_values": false, "print_values_position": "center", "print_zeroes": true, "range": [0.0, 30.0], "rounded_bars": null, "secondary_range": null, "show_dots": true, "show_legend": true, "show_minor_x_labels": false, "show_minor_y_labels": true, "show_only_major_dots": true, "show_x_guides": true, "show_x_labels": true, "show_y_guides": true, "show_y_labels": true, "spacing": 10, "stack_from_top": false, "strict": false, "stroke": true, "stroke_style": null, "style": {"background": "transparent", "ci_colors": [], "colors": ["#F44336", "#3F51B5", "#009688", "#FFC107", "#FF5722", "#9C27B0", "#03A9F4", "#8BC34A", "#FF9800", "#E91E63", "#2196F3", "#4CAF50", "#FFEB3B", "#673AB7", "#00BCD4", "#CDDC39", "#9E9E9E", "#607D8B"], "font_family": "Helvetica, Arial, sans-serif", "foreground": "rgba(0, 0, 0, .87)", "foreground_strong": "rgba(0, 0, 0, 1)", "foreground_subtle": "rgba(0, 0, 0, .54)", "guide_stroke_dasharray": 1, "label_font_family": "Helvetica, Arial, sans-serif", "label_font_size": 15, "legend_font_family": "Helvetica, Arial, sans-serif", "legend_font_size": 15, "major_guide_stroke_dasharray": 1, "major_label_font_family": "Helvetica, Arial, sans-serif", "major_label_font_size": 15, "no_data_font_family": "Helvetica, Arial, sans-serif", "no_data_font_size": 64, "opacity": ".7", "opacity_hover": ".8", "plot_background": "white", "stroke_opacity": ".8", "stroke_opacity_hover": ".9", "title_font_family": "Helvetica, Arial, sans-serif", "title_font_size": 18, "tooltip_font_family": "Helvetica, Arial, sans-serif", "tooltip_font_size": 14, "transition": "150ms", "value_background": "rgba(229, 229, 229, 1)", "value_colors": [], "value_font_family": "Helvetica, Arial, sans-serif", "value_font_size": 15, "value_label_font_family": "Helvetica, Arial, sans-serif", "value_label_font_size": 15}, "title": "Percentage of Annotations for T \u00b15.0 BPM", "tooltip_border_radius": 0, "tooltip_fancy_mode": true, "truncate_label": null, "truncate_legend": -1, "width": 800, "x_label_rotation": 90, "x_labels": ["0.0", "1.0", "2.0", "3.0", "4.0", "5.0", "6.0", "7.0", "8.0", "9.0", "10.0", "11.0", "12.0", "13.0", "14.0", "15.0", "16.0", "17.0", "18.0", "19.0", "20.0", "21.0", "22.0", "23.0", "24.0", "25.0", "26.0", "27.0", "28.0", "29.0", "30.0", "31.0", "32.0", "33.0", "34.0", "35.0", "36.0", "37.0", "38.0", "39.0", "40.0", "41.0", "42.0", "43.0", "44.0", "45.0", "46.0", "47.0", "48.0", "49.0", "50.0", "51.0", "52.0", "53.0", "54.0", "55.0", "56.0", "57.0", "58.0", "59.0", "60.0", "61.0", "62.0", "63.0", "64.0", "65.0", "66.0", "67.0", "68.0", "69.0", "70.0", "71.0", "72.0", "73.0", "74.0", "75.0", "76.0", "77.0", "78.0", "79.0", "80.0", "81.0", "82.0", "83.0", "84.0", "85.0", "86.0", "87.0", "88.0", "89.0", "90.0", "91.0", "92.0", "93.0", "94.0", "95.0", "96.0", "97.0", "98.0", "99.0", "100.0", "101.0", "102.0", "103.0", "104.0", "105.0", "106.0", "107.0", "108.0", "109.0", "110.0", "111.0", "112.0", "113.0", "114.0", "115.0", "116.0", "117.0", "118.0", "119.0", "120.0", "121.0", "122.0", "123.0", "124.0", "125.0", "126.0", "127.0", "128.0", "129.0", "130.0", "131.0", "132.0", "133.0", "134.0", "135.0", "136.0", "137.0", "138.0", "139.0", "140.0", "141.0", "142.0", "143.0", "144.0", "145.0", "146.0", "147.0", "148.0", "149.0", "150.0", "151.0", "152.0", "153.0", "154.0", "155.0", "156.0", "157.0", "158.0", "159.0", "160.0", "161.0", "162.0", "163.0", "164.0", "165.0", "166.0", "167.0", "168.0", "169.0", "170.0", "171.0", "172.0", "173.0", "174.0", "175.0", "176.0", "177.0", "178.0", "179.0", "180.0", "181.0", "182.0", "183.0", "184.0", "185.0", "186.0", "187.0", "188.0", "189.0", "190.0", "191.0", "192.0", "193.0", "194.0", "195.0", "196.0", "197.0", "198.0", "199.0", "200.0", "201.0", "202.0", "203.0", "204.0", "205.0", "206.0", "207.0", "208.0", "209.0", "210.0", "211.0", "212.0", "213.0", "214.0", "215.0", "216.0", "217.0", "218.0", "219.0", "220.0", "221.0", "222.0", "223.0", "224.0", "225.0", "226.0", "227.0", "228.0", "229.0", "230.0", "231.0", "232.0", "233.0", "234.0", "235.0", "236.0", "237.0", "238.0", "239.0", "240.0", "241.0", "242.0", "243.0", "244.0", "245.0", "246.0", "247.0", "248.0", "249.0", "250.0", "251.0", "252.0", "253.0", "254.0", "255.0", "256.0", "257.0", "258.0", "259.0", "260.0", "261.0", "262.0", "263.0", "264.0", "265.0", "266.0", "267.0", "268.0", "269.0", "270.0", "271.0", "272.0", "273.0", "274.0", "275.0", "276.0", "277.0", "278.0", "279.0", "280.0", "281.0", "282.0", "283.0", "284.0", "285.0", "286.0", "287.0", "288.0", "289.0", "290.0", "291.0", "292.0", "293.0", "294.0", "295.0", "296.0", "297.0", "298.0", "299.0", "300.0"], "x_labels_major": null, "x_labels_major_count": 11, "x_labels_major_every": null, "x_title": "T (BPM)", "xrange": null, "y_label_rotation": 0, "y_labels": null, "y_labels_major": null, "y_labels_major_count": null, "y_labels_major_every": null, "y_title": "Values (%)", "zero": 0, "legends": ["1.0", "2.0", "2.0-no-dupes", "3.0", "3.0-no-dupes", "4.0"]}</script><script type="text/javascript" xlink:href="https://kozea.github.io/pygal.js/2.0.x/pygal-tooltips.min.js"/></defs><title>Percentage of Annotations for T ±5.0 BPM</title><g class="graph line-graph vertical"><rect class="background" height="600" width="800" x="0" y="0"/><g class="plot" transform="translate(94, 48)"><rect class="background" height="334.0" width="686.0" x="0" y="0"/><g class="axis y always_show"><g class="guides"><path class="major line" d="M0.000000 327.576923 h686.000000"/><text class="major" x="-5" y="332.8269230769231">0.0</text><title>0.0</title></g><g class="guides"><path class="guide line" d="M0.000000 306.166667 h686.000000"/><text class="" x="-5" y="311.4166666666667">2.0</text><title>2.0</title></g><g class="guides"><path class="guide line" d="M0.000000 284.756410 h686.000000"/><text class="" x="-5" y="290.0064102564103">4.0</text><title>4.0</title></g><g class="guides"><path class="guide line" d="M0.000000 263.346154 h686.000000"/><text class="" x="-5" y="268.59615384615387">6.0</text><title>6.0</title></g><g class="guides"><path class="guide line" d="M0.000000 241.935897 h686.000000"/><text class="" x="-5" y="247.18589743589746">8.0</text><title>8.0</title></g><g class="guides"><path class="major guide line" d="M0.000000 220.525641 h686.000000"/><text class="major" x="-5" y="225.77564102564105">10.0</text><title>10.0</title></g><g class="guides"><path class="guide line" d="M0.000000 199.115385 h686.000000"/><text class="" x="-5" y="204.36538461538464">12.0</text><title>12.0</title></g><g class="guides"><path class="guide line" d="M0.000000 177.705128 h686.000000"/><text class="" x="-5" y="182.95512820512823">14.0</text><title>14.0</title></g><g class="guides"><path class="guide line" d="M0.000000 156.294872 h686.000000"/><text class="" x="-5" y="161.5448717948718">16.0</text><title>16.0</title></g><g class="guides"><path class="guide line" d="M0.000000 134.884615 h686.000000"/><text class="" x="-5" y="140.1346153846154">18.0</text><title>18.0</title></g><g class="guides"><path class="major guide line" d="M0.000000 113.474359 h686.000000"/><text class="major" x="-5" y="118.72435897435898">20.0</text><title>20.0</title></g><g class="guides"><path class="guide line" d="M0.000000 92.064103 h686.000000"/><text class="" x="-5" y="97.31410256410257">22.0</text><title>22.0</title></g><g class="guides"><path class="guide line" d="M0.000000 70.653846 h686.000000"/><text class="" x="-5" y="75.90384615384619">24.0</text><title>24.0</title></g><g class="guides"><path class="guide line" d="M0.000000 49.243590 h686.000000"/><text class="" x="-5" y="54.49358974358978">26.0</text><title>26.0</title></g><g class="guides"><path class="guide line" d="M0.000000 27.833333 h686.000000"/><text class="" x="-5" y="33.08333333333337">28.0</text><title>28.0</title></g><g class="guides"><path class="major guide line" d="M0.000000 6.423077 h686.000000"/><text class="major" x="-5" y="11.673076923076962">30.0</text><title>30.0</title></g></g><g class="axis x always_show"><g class="guides"><path class="major line" d="M13.192308 0.000000 v334.000000"/><text class="major" x="13.192307692307692" y="351.5" transform="rotate(90 13.192308 351.500000)">0.0</text></g><g class="guides"><path class="major guide line" d="M79.153846 0.000000 v334.000000"/><text class="major" x="79.15384615384616" y="351.5" transform="rotate(90 79.153846 351.500000)">30.0</text></g><g class="guides"><path class="major guide line" d="M145.115385 0.000000 v334.000000"/><text class="major" x="145.11538461538458" y="351.5" transform="rotate(90 145.115385 351.500000)">60.0</text></g><g class="guides"><path class="major guide line" d="M211.076923 0.000000 v334.000000"/><text class="major" x="211.07692307692307" y="351.5" transform="rotate(90 211.076923 351.500000)">90.0</text></g><g class="guides"><path class="major guide line" d="M277.038462 0.000000 v334.000000"/><text class="major" x="277.03846153846155" y="351.5" transform="rotate(90 277.038462 351.500000)">120.0</text></g><g class="guides"><path class="major guide line" d="M343.000000 0.000000 v334.000000"/><text class="major" x="343.0" y="351.5" transform="rotate(90 343.000000 351.500000)">150.0</text></g><g class="guides"><path class="major guide line" d="M408.961538 0.000000 v334.000000"/><text class="major" x="408.96153846153845" y="351.5" transform="rotate(90 408.961538 351.500000)">180.0</text></g><g class="guides"><path class="major guide line" d="M474.923077 0.000000 v334.000000"/><text class="major" x="474.92307692307685" y="351.5" transform="rotate(90 474.923077 351.500000)">210.0</text></g><g class="guides"><path class="major guide line" d="M540.884615 0.000000 v334.000000"/><text class="major" x="540.8846153846155" y="351.5" transform="rotate(90 540.884615 351.500000)">240.0</text></g><g class="guides"><path class="major guide line" d="M606.846154 0.000000 v334.000000"/><text class="major" x="606.8461538461538" y="351.5" transform="rotate(90 606.846154 351.500000)">270.0</text></g><g class="guides"><path class="major guide line" d="M672.807692 0.000000 v334.000000"/><text class="major" x="672.8076923076923" y="351.5" transform="rotate(90 672.807692 351.500000)">300.0</text></g></g><g class="series serie-0 color-0"><path class="line reactive nofill" d="M13.192308 327.576923 L15.391026 327.576923 17.589744 327.576923 19.788462 327.576923 21.987179 327.576923 24.185897 327.576923 26.384615 327.576923 28.583333 327.576923 30.782051 327.576923 32.980769 327.576923 35.179487 327.576923 37.378205 327.576923 39.576923 327.576923 41.775641 327.576923 43.974359 327.576923 46.173077 327.576923 48.371795 327.576923 50.570513 327.576923 52.769231 327.576923 54.967949 327.576923 57.166667 327.576923 59.365385 327.576923 61.564103 327.576923 63.762821 327.576923 65.961538 327.576923 68.160256 327.576923 70.358974 327.576923 72.557692 327.576923 74.756410 327.576923 76.955128 327.576923 79.153846 327.576923 81.352564 327.576923 83.551282 327.576923 85.750000 327.576923 87.948718 327.576923 90.147436 327.576923 92.346154 327.576923 94.544872 327.576923 96.743590 327.576923 98.942308 327.576923 101.141026 327.576923 103.339744 327.576923 105.538462 327.576923 107.737179 327.576923 109.935897 327.576923 112.134615 327.576923 114.333333 327.576923 116.532051 327.576923 118.730769 327.576923 120.929487 327.576923 123.128205 327.576923 125.326923 327.576923 127.525641 327.576923 129.724359 327.576923 131.923077 327.576923 134.121795 326.043237 136.320513 326.043237 138.519231 326.043237 140.717949 326.043237 142.916667 326.043237 145.115385 326.043237 147.314103 326.043237 149.512821 326.043237 151.711538 324.509551 153.910256 324.509551 156.108974 324.509551 158.307692 326.043237 160.506410 324.509551 162.705128 324.509551 164.903846 322.975865 167.102564 322.975865 169.301282 315.307435 171.500000 315.307435 173.698718 315.307435 175.897436 316.841121 178.096154 313.773749 180.294872 312.240063 182.493590 312.240063 184.692308 313.773749 186.891026 255.493682 189.089744 257.027368 191.288462 255.493682 193.487179 171.140952 195.685897 161.938836 197.884615 161.938836 200.083333 157.337778 202.282051 158.871464 204.480769 146.601976 206.679487 146.601976 208.878205 143.534604 211.076923 201.814672 213.275641 180.343068 215.474359 181.876754 217.673077 272.364227 219.871795 281.566343 222.070513 177.275696 224.269231 181.876754 226.467949 142.000918 228.666667 155.804092 230.865385 95.990339 233.064103 99.057711 235.262821 97.524025 237.461538 118.995629 239.660256 114.394571 241.858974 114.394571 244.057692 114.394571 246.256410 218.685218 248.455128 214.084160 250.653846 255.493682 252.852564 255.493682 255.051282 312.240063 257.250000 299.970575 259.448718 298.436889 261.647436 296.903203 263.846154 301.504261 266.044872 286.167401 268.243590 286.167401 270.442308 281.566343 272.641026 284.633715 274.839744 155.804092 277.038462 155.804092 279.237179 158.871464 281.435897 171.140952 283.634615 57.648189 285.833333 59.181875 288.032051 57.648189 290.230769 74.518735 292.429487 56.114503 294.628205 60.715561 296.826923 62.249247 299.025641 189.545184 301.224359 183.410440 303.423077 183.410440 305.621795 183.410440 307.820513 299.970575 310.019231 299.970575 312.217949 299.970575 314.416667 299.970575 316.615385 318.374807 318.814103 316.841121 321.012821 316.841121 323.211538 318.374807 325.410256 324.509551 327.608974 324.509551 329.807692 324.509551 332.006410 324.509551 334.205128 324.509551 336.403846 326.043237 338.602564 319.908493 340.801282 319.908493 343.000000 321.442179 345.198718 321.442179 347.397436 321.442179 349.596154 321.442179 351.794872 321.442179 353.993590 316.841121 356.192308 316.841121 358.391026 316.841121 360.589744 316.841121 362.788462 318.374807 364.987179 318.374807 367.185897 318.374807 369.384615 318.374807 371.583333 307.639005 373.782051 307.639005 375.980769 307.639005 378.179487 312.240063 380.378205 280.032657 382.576923 280.032657 384.775641 263.162112 386.974359 267.763169 389.173077 241.690508 391.371795 214.084160 393.570513 214.084160 395.769231 224.819962 397.967949 168.073580 400.166667 168.073580 402.365385 168.073580 404.564103 200.280986 406.762821 200.280986 408.961538 217.151532 411.160256 217.151532 413.358974 243.224194 415.557692 270.830541 417.756410 270.830541 419.955128 270.830541 422.153846 327.576923 424.352564 327.576923 426.551282 327.576923 428.750000 327.576923 430.948718 327.576923 433.147436 327.576923 435.346154 327.576923 437.544872 327.576923 439.743590 327.576923 441.942308 296.903203 444.141026 296.903203 446.339744 295.369517 448.538462 295.369517 450.737179 235.555764 452.935897 235.555764 455.134615 235.555764 457.333333 235.555764 459.532051 209.483102 461.730769 209.483102 463.929487 209.483102 466.128205 240.156822 468.326923 240.156822 470.525641 241.690508 472.724359 240.156822 474.923077 299.970575 477.121795 299.970575 479.320513 299.970575 481.519231 299.970575 483.717949 324.509551 485.916667 324.509551 488.115385 324.509551 490.314103 324.509551 492.512821 324.509551 494.711538 322.975865 496.910256 324.509551 499.108974 324.509551 501.307692 324.509551 503.506410 324.509551 505.705128 324.509551 507.903846 326.043237 510.102564 326.043237 512.301282 326.043237 514.500000 326.043237 516.698718 326.043237 518.897436 327.576923 521.096154 327.576923 523.294872 327.576923 525.493590 327.576923 527.692308 327.576923 529.891026 327.576923 532.089744 327.576923 534.288462 327.576923 536.487179 327.576923 538.685897 327.576923 540.884615 327.576923 543.083333 327.576923 545.282051 327.576923 547.480769 327.576923 549.679487 327.576923 551.878205 327.576923 554.076923 327.576923 556.275641 327.576923 558.474359 327.576923 560.673077 327.576923 562.871795 327.576923 565.070513 327.576923 567.269231 327.576923 569.467949 327.576923 571.666667 327.576923 573.865385 327.576923 576.064103 327.576923 578.262821 327.576923 580.461538 327.576923 582.660256 327.576923 584.858974 327.576923 587.057692 327.576923 589.256410 327.576923 591.455128 327.576923 593.653846 327.576923 595.852564 327.576923 598.051282 327.576923 600.250000 327.576923 602.448718 327.576923 604.647436 327.576923 606.846154 327.576923 609.044872 327.576923 611.243590 327.576923 613.442308 327.576923 615.641026 327.576923 617.839744 327.576923 620.038462 327.576923 622.237179 327.576923 624.435897 327.576923 626.634615 327.576923 628.833333 327.576923 631.032051 327.576923 633.230769 327.576923 635.429487 327.576923 637.628205 327.576923 639.826923 327.576923 642.025641 327.576923 644.224359 327.576923 646.423077 327.576923 648.621795 327.576923 650.820513 327.576923 653.019231 327.576923 655.217949 327.576923 657.416667 327.576923 659.615385 327.576923 661.814103 327.576923 664.012821 327.576923 666.211538 327.576923 668.410256 327.576923 670.608974 327.576923 672.807692 327.576923"/></g><g class="series serie-1 color-1"><path class="line reactive nofill" d="M13.192308 327.576923 L15.391026 327.576923 17.589744 327.576923 19.788462 327.576923 21.987179 327.576923 24.185897 327.576923 26.384615 327.576923 28.583333 327.576923 30.782051 327.576923 32.980769 327.576923 35.179487 327.576923 37.378205 327.576923 39.576923 327.576923 41.775641 327.576923 43.974359 327.576923 46.173077 327.576923 48.371795 327.576923 50.570513 327.576923 52.769231 327.576923 54.967949 327.576923 57.166667 327.576923 59.365385 327.576923 61.564103 327.576923 63.762821 327.576923 65.961538 327.576923 68.160256 327.576923 70.358974 327.576923 72.557692 327.576923 74.756410 327.576923 76.955128 327.576923 79.153846 327.576923 81.352564 327.576923 83.551282 327.576923 85.750000 327.576923 87.948718 327.576923 90.147436 327.576923 92.346154 327.576923 94.544872 327.576923 96.743590 327.576923 98.942308 327.576923 101.141026 327.576923 103.339744 327.576923 105.538462 327.576923 107.737179 327.576923 109.935897 327.576923 112.134615 327.576923 114.333333 327.576923 116.532051 327.576923 118.730769 327.576923 120.929487 327.576923 123.128205 327.576923 125.326923 327.576923 127.525641 327.576923 129.724359 327.576923 131.923077 327.576923 134.121795 327.576923 136.320513 327.576923 138.519231 327.576923 140.717949 327.576923 142.916667 327.576923 145.115385 327.576923 147.314103 327.576923 149.512821 327.576923 151.711538 327.576923 153.910256 326.043237 156.108974 326.043237 158.307692 326.043237 160.506410 326.043237 162.705128 326.043237 164.903846 324.509551 167.102564 321.442179 169.301282 315.307435 171.500000 315.307435 173.698718 315.307435 175.897436 313.773749 178.096154 310.706377 180.294872 309.172691 182.493590 306.105319 184.692308 299.970575 186.891026 275.431599 189.089744 253.959996 191.288462 240.156822 193.487179 181.876754 195.685897 166.539894 197.884615 158.871464 200.083333 152.736720 202.282051 154.270406 204.480769 155.804092 206.679487 149.669348 208.878205 174.208324 211.076923 198.747300 213.275641 207.949416 215.474359 255.493682 217.673077 270.830541 219.871795 275.431599 222.070513 224.819962 224.269231 184.944126 226.467949 161.938836 228.666667 158.871464 230.865385 100.591397 233.064103 99.057711 235.262821 105.192455 237.461538 117.461943 239.660256 114.394571 241.858974 120.529315 244.057692 175.742010 246.256410 218.685218 248.455128 240.156822 250.653846 253.959996 252.852564 312.240063 255.051282 312.240063 257.250000 304.571633 259.448718 301.504261 261.647436 299.970575 263.846154 298.436889 266.044872 286.167401 268.243590 284.633715 270.442308 284.633715 272.641026 270.830541 274.839744 246.291566 277.038462 155.804092 279.237179 163.472522 281.435897 163.472522 283.634615 94.456653 285.833333 80.653479 288.032051 83.720851 290.230769 76.052421 292.429487 76.052421 294.628205 85.254537 296.826923 102.125083 299.025641 191.078870 301.224359 197.213614 303.423077 195.679928 305.621795 269.296855 307.820513 284.633715 310.019231 286.167401 312.217949 303.037947 314.416667 306.105319 316.615385 310.706377 318.814103 319.908493 321.012821 319.908493 323.211538 319.908493 325.410256 324.509551 327.608974 324.509551 329.807692 324.509551 332.006410 324.509551 334.205128 326.043237 336.403846 326.043237 338.602564 327.576923 340.801282 327.576923 343.000000 327.576923 345.198718 327.576923 347.397436 327.576923 349.596154 324.509551 351.794872 324.509551 353.993590 324.509551 356.192308 324.509551 358.391026 324.509551 360.589744 319.908493 362.788462 318.374807 364.987179 318.374807 367.185897 318.374807 369.384615 312.240063 371.583333 313.773749 373.782051 309.172691 375.980769 307.639005 378.179487 307.639005 380.378205 272.364227 382.576923 272.364227 384.775641 272.364227 386.974359 253.959996 389.173077 250.892624 391.371795 217.151532 393.570513 215.617846 395.769231 215.617846 397.967949 200.280986 400.166667 181.876754 402.365385 207.949416 404.564103 212.550474 406.762821 214.084160 408.961538 230.954706 411.160256 234.022078 413.358974 273.897913 415.557692 276.965285 417.756410 281.566343 419.955128 298.436889 422.153846 316.841121 424.352564 326.043237 426.551282 326.043237 428.750000 326.043237 430.948718 327.576923 433.147436 327.576923 435.346154 327.576923 437.544872 326.043237 439.743590 324.509551 441.942308 303.037947 444.141026 292.302145 446.339744 292.302145 448.538462 284.633715 450.737179 278.498971 452.935897 244.757880 455.134615 241.690508 457.333333 217.151532 459.532051 212.550474 461.730769 211.016788 463.929487 227.887334 466.128205 240.156822 468.326923 240.156822 470.525641 246.291566 472.724359 252.426310 474.923077 284.633715 477.121795 287.701087 479.320513 312.240063 481.519231 318.374807 483.717949 321.442179 485.916667 322.975865 488.115385 324.509551 490.314103 324.509551 492.512821 326.043237 494.711538 326.043237 496.910256 327.576923 499.108974 327.576923 501.307692 327.576923 503.506410 327.576923 505.705128 327.576923 507.903846 327.576923 510.102564 327.576923 512.301282 327.576923 514.500000 327.576923 516.698718 327.576923 518.897436 327.576923 521.096154 327.576923 523.294872 327.576923 525.493590 327.576923 527.692308 327.576923 529.891026 327.576923 532.089744 327.576923 534.288462 327.576923 536.487179 327.576923 538.685897 327.576923 540.884615 327.576923 543.083333 327.576923 545.282051 327.576923 547.480769 327.576923 549.679487 327.576923 551.878205 327.576923 554.076923 327.576923 556.275641 327.576923 558.474359 327.576923 560.673077 327.576923 562.871795 327.576923 565.070513 327.576923 567.269231 327.576923 569.467949 327.576923 571.666667 327.576923 573.865385 327.576923 576.064103 327.576923 578.262821 327.576923 580.461538 327.576923 582.660256 327.576923 584.858974 327.576923 587.057692 327.576923 589.256410 327.576923 591.455128 327.576923 593.653846 327.576923 595.852564 327.576923 598.051282 327.576923 600.250000 327.576923 602.448718 327.576923 604.647436 327.576923 606.846154 327.576923 609.044872 327.576923 611.243590 327.576923 613.442308 327.576923 615.641026 327.576923 617.839744 327.576923 620.038462 327.576923 622.237179 327.576923 624.435897 327.576923 626.634615 327.576923 628.833333 327.576923 631.032051 327.576923 633.230769 327.576923 635.429487 327.576923 637.628205 327.576923 639.826923 327.576923 642.025641 327.576923 644.224359 327.576923 646.423077 327.576923 648.621795 327.576923 650.820513 327.576923 653.019231 327.576923 655.217949 327.576923 657.416667 327.576923 659.615385 327.576923 661.814103 327.576923 664.012821 327.576923 666.211538 327.576923 668.410256 327.576923 670.608974 327.576923 672.807692 327.576923"/></g><g class="series serie-2 color-2"><path class="line reactive nofill" d="M13.192308 327.576923 L15.391026 327.576923 17.589744 327.576923 19.788462 327.576923 21.987179 327.576923 24.185897 327.576923 26.384615 327.576923 28.583333 327.576923 30.782051 327.576923 32.980769 327.576923 35.179487 327.576923 37.378205 327.576923 39.576923 327.576923 41.775641 327.576923 43.974359 327.576923 46.173077 327.576923 48.371795 327.576923 50.570513 327.576923 52.769231 327.576923 54.967949 327.576923 57.166667 327.576923 59.365385 327.576923 61.564103 327.576923 63.762821 327.576923 65.961538 327.576923 68.160256 327.576923 70.358974 327.576923 72.557692 327.576923 74.756410 327.576923 76.955128 327.576923 79.153846 327.576923 81.352564 327.576923 83.551282 327.576923 85.750000 327.576923 87.948718 327.576923 90.147436 327.576923 92.346154 327.576923 94.544872 327.576923 96.743590 327.576923 98.942308 327.576923 101.141026 327.576923 103.339744 327.576923 105.538462 327.576923 107.737179 327.576923 109.935897 327.576923 112.134615 327.576923 114.333333 327.576923 116.532051 327.576923 118.730769 327.576923 120.929487 327.576923 123.128205 327.576923 125.326923 327.576923 127.525641 327.576923 129.724359 327.576923 131.923077 327.576923 134.121795 327.576923 136.320513 327.576923 138.519231 327.576923 140.717949 327.576923 142.916667 327.576923 145.115385 327.576923 147.314103 327.576923 149.512821 327.576923 151.711538 327.576923 153.910256 326.014131 156.108974 326.014131 158.307692 326.014131 160.506410 326.014131 162.705128 326.014131 164.903846 324.451338 167.102564 321.325753 169.301282 315.074584 171.500000 315.074584 173.698718 315.074584 175.897436 315.074584 178.096154 311.948999 180.294872 310.386206 182.493590 307.260621 184.692308 301.009452 186.891026 276.004773 189.089744 254.125678 191.288462 240.060547 193.487179 180.674434 195.685897 165.046509 197.884615 155.669755 200.083333 150.981378 202.282051 152.544170 204.480769 154.106962 206.679487 147.855793 208.878205 172.860472 211.076923 197.865151 213.275641 207.241905 215.474359 255.688471 217.673077 271.316395 219.871795 276.004773 222.070513 222.869830 224.269231 182.237226 226.467949 158.795340 228.666667 155.669755 230.865385 102.534812 233.064103 100.972019 235.262821 107.223189 237.461538 119.725529 239.660256 116.599944 241.858974 122.851114 244.057692 179.111641 246.256410 222.869830 248.455128 244.748924 250.653846 258.814056 252.852564 311.948999 255.051282 311.948999 257.250000 304.135036 259.448718 301.009452 261.647436 299.446659 263.846154 297.883867 266.044872 288.507112 268.243590 286.944320 270.442308 286.944320 272.641026 272.879188 274.839744 249.437301 277.038462 158.795340 279.237179 166.609302 281.435897 166.609302 283.634615 99.409227 285.833333 85.344095 288.032051 88.469680 290.230769 77.530133 292.429487 77.530133 294.628205 86.906888 296.826923 102.534812 299.025641 191.613981 301.224359 197.865151 303.423077 196.302358 305.621795 268.190810 307.820513 283.818735 310.019231 285.381527 312.217949 302.572244 314.416667 305.697829 316.615385 310.386206 318.814103 319.762961 321.012821 319.762961 323.211538 319.762961 325.410256 324.451338 327.608974 324.451338 329.807692 324.451338 332.006410 324.451338 334.205128 326.014131 336.403846 326.014131 338.602564 327.576923 340.801282 327.576923 343.000000 327.576923 345.198718 327.576923 347.397436 327.576923 349.596154 324.451338 351.794872 324.451338 353.993590 324.451338 356.192308 324.451338 358.391026 324.451338 360.589744 319.762961 362.788462 318.200168 364.987179 318.200168 367.185897 318.200168 369.384615 311.948999 371.583333 313.511791 373.782051 308.823414 375.980769 307.260621 378.179487 307.260621 380.378205 271.316395 382.576923 271.316395 384.775641 271.316395 386.974359 252.562886 389.173077 249.437301 391.371795 215.055867 393.570513 213.493075 395.769231 213.493075 397.967949 197.865151 400.166667 179.111641 402.365385 205.679113 404.564103 210.367490 406.762821 211.930283 408.961538 229.120999 411.160256 232.246584 413.358974 272.879188 415.557692 276.004773 417.756410 280.693150 419.955128 297.883867 422.153846 316.637376 424.352564 326.014131 426.551282 326.014131 428.750000 326.014131 430.948718 327.576923 433.147436 327.576923 435.346154 327.576923 437.544872 326.014131 439.743590 324.451338 441.942308 302.572244 444.141026 291.632697 446.339744 291.632697 448.538462 283.818735 450.737179 277.567565 452.935897 243.186131 455.134615 240.060547 457.333333 216.618660 459.532051 211.930283 461.730769 210.367490 463.929487 227.558207 466.128205 240.060547 468.326923 240.060547 470.525641 246.311716 472.724359 252.562886 474.923077 285.381527 477.121795 288.507112 479.320513 311.948999 481.519231 318.200168 483.717949 321.325753 485.916667 322.888546 488.115385 324.451338 490.314103 324.451338 492.512821 326.014131 494.711538 326.014131 496.910256 327.576923 499.108974 327.576923 501.307692 327.576923 503.506410 327.576923 505.705128 327.576923 507.903846 327.576923 510.102564 327.576923 512.301282 327.576923 514.500000 327.576923 516.698718 327.576923 518.897436 327.576923 521.096154 327.576923 523.294872 327.576923 525.493590 327.576923 527.692308 327.576923 529.891026 327.576923 532.089744 327.576923 534.288462 327.576923 536.487179 327.576923 538.685897 327.576923 540.884615 327.576923 543.083333 327.576923 545.282051 327.576923 547.480769 327.576923 549.679487 327.576923 551.878205 327.576923 554.076923 327.576923 556.275641 327.576923 558.474359 327.576923 560.673077 327.576923 562.871795 327.576923 565.070513 327.576923 567.269231 327.576923 569.467949 327.576923 571.666667 327.576923 573.865385 327.576923 576.064103 327.576923 578.262821 327.576923 580.461538 327.576923 582.660256 327.576923 584.858974 327.576923 587.057692 327.576923 589.256410 327.576923 591.455128 327.576923 593.653846 327.576923 595.852564 327.576923 598.051282 327.576923 600.250000 327.576923 602.448718 327.576923 604.647436 327.576923 606.846154 327.576923 609.044872 327.576923 611.243590 327.576923 613.442308 327.576923 615.641026 327.576923 617.839744 327.576923 620.038462 327.576923 622.237179 327.576923 624.435897 327.576923 626.634615 327.576923 628.833333 327.576923 631.032051 327.576923 633.230769 327.576923 635.429487 327.576923 637.628205 327.576923 639.826923 327.576923 642.025641 327.576923 644.224359 327.576923 646.423077 327.576923 648.621795 327.576923 650.820513 327.576923 653.019231 327.576923 655.217949 327.576923 657.416667 327.576923 659.615385 327.576923 661.814103 327.576923 664.012821 327.576923 666.211538 327.576923 668.410256 327.576923 670.608974 327.576923 672.807692 327.576923"/></g><g class="series serie-3 color-3"><path class="line reactive nofill" d="M13.192308 327.576923 L15.391026 327.576923 17.589744 327.576923 19.788462 327.576923 21.987179 327.576923 24.185897 327.576923 26.384615 327.576923 28.583333 327.576923 30.782051 327.576923 32.980769 327.576923 35.179487 327.576923 37.378205 327.576923 39.576923 327.576923 41.775641 327.576923 43.974359 327.576923 46.173077 327.576923 48.371795 327.576923 50.570513 327.576923 52.769231 327.576923 54.967949 327.576923 57.166667 327.576923 59.365385 327.576923 61.564103 327.576923 63.762821 327.576923 65.961538 327.576923 68.160256 327.576923 70.358974 327.576923 72.557692 327.576923 74.756410 327.576923 76.955128 327.576923 79.153846 327.576923 81.352564 327.576923 83.551282 327.576923 85.750000 327.576923 87.948718 327.576923 90.147436 327.576923 92.346154 327.576923 94.544872 327.576923 96.743590 327.576923 98.942308 327.576923 101.141026 327.576923 103.339744 327.576923 105.538462 327.576923 107.737179 327.576923 109.935897 327.576923 112.134615 327.576923 114.333333 327.576923 116.532051 327.576923 118.730769 327.576923 120.929487 327.576923 123.128205 327.576923 125.326923 327.576923 127.525641 327.576923 129.724359 327.576923 131.923077 327.576923 134.121795 327.576923 136.320513 327.576923 138.519231 327.576923 140.717949 327.576923 142.916667 327.576923 145.115385 327.576923 147.314103 327.576923 149.512821 327.576923 151.711538 327.576923 153.910256 326.043237 156.108974 326.043237 158.307692 326.043237 160.506410 326.043237 162.705128 326.043237 164.903846 324.509551 167.102564 322.975865 169.301282 316.841121 171.500000 315.307435 173.698718 315.307435 175.897436 313.773749 178.096154 312.240063 180.294872 309.172691 182.493590 306.105319 184.692308 299.970575 186.891026 278.498971 189.089744 252.426310 191.288462 247.825252 193.487179 183.410440 195.685897 165.006208 197.884615 157.337778 200.083333 152.736720 202.282051 154.270406 204.480769 149.669348 206.679487 149.669348 208.878205 171.140952 211.076923 198.747300 213.275641 195.679928 215.474359 253.959996 217.673077 269.296855 219.871795 280.032657 222.070513 203.348358 224.269231 184.944126 226.467949 165.006208 228.666667 155.804092 230.865385 103.658769 233.064103 97.524025 235.262821 102.125083 237.461538 117.461943 239.660256 120.529315 241.858974 117.461943 244.057692 194.146242 246.256410 218.685218 248.455128 244.757880 250.653846 257.027368 252.852564 309.172691 255.051282 309.172691 257.250000 303.037947 259.448718 299.970575 261.647436 296.903203 263.846154 296.903203 266.044872 287.701087 268.243590 286.167401 270.442308 281.566343 272.641026 280.032657 274.839744 191.078870 277.038462 166.539894 279.237179 166.539894 281.435897 157.337778 283.634615 112.860885 285.833333 82.187165 288.032051 86.788223 290.230769 83.720851 292.429487 76.052421 294.628205 72.985049 296.826923 161.938836 299.025641 184.944126 301.224359 194.146242 303.423077 203.348358 305.621795 249.358938 307.820513 284.633715 310.019231 287.701087 312.217949 293.835831 314.416667 307.639005 316.615385 313.773749 318.814103 315.307435 321.012821 319.908493 323.211538 321.442179 325.410256 324.509551 327.608974 324.509551 329.807692 324.509551 332.006410 324.509551 334.205128 326.043237 336.403846 326.043237 338.602564 327.576923 340.801282 327.576923 343.000000 327.576923 345.198718 327.576923 347.397436 327.576923 349.596154 327.576923 351.794872 327.576923 353.993590 322.975865 356.192308 322.975865 358.391026 319.908493 360.589744 319.908493 362.788462 318.374807 364.987179 318.374807 367.185897 318.374807 369.384615 315.307435 371.583333 309.172691 373.782051 306.105319 375.980769 306.105319 378.179487 307.639005 380.378205 292.302145 382.576923 280.032657 384.775641 272.364227 386.974359 261.628426 389.173077 243.224194 391.371795 221.752590 393.570513 220.218904 395.769231 215.617846 397.967949 183.410440 400.166667 177.275696 402.365385 192.612556 404.564103 204.882044 406.762821 212.550474 408.961538 223.286276 411.160256 241.690508 413.358974 266.229484 415.557692 273.897913 417.756410 281.566343 419.955128 301.504261 422.153846 322.975865 424.352564 326.043237 426.551282 326.043237 428.750000 327.576923 430.948718 327.576923 433.147436 327.576923 435.346154 326.043237 437.544872 326.043237 439.743590 326.043237 441.942308 316.841121 444.141026 299.970575 446.339744 293.835831 448.538462 289.234773 450.737179 263.162112 452.935897 243.224194 455.134615 232.488392 457.333333 227.887334 459.532051 217.151532 461.730769 207.949416 463.929487 215.617846 466.128205 232.488392 468.326923 238.623136 470.525641 241.690508 472.724359 267.763169 474.923077 286.167401 477.121795 296.903203 479.320513 303.037947 481.519231 313.773749 483.717949 322.975865 485.916667 322.975865 488.115385 324.509551 490.314103 324.509551 492.512821 326.043237 494.711538 326.043237 496.910256 327.576923 499.108974 327.576923 501.307692 327.576923 503.506410 327.576923 505.705128 327.576923 507.903846 327.576923 510.102564 327.576923 512.301282 327.576923 514.500000 327.576923 516.698718 327.576923 518.897436 327.576923 521.096154 327.576923 523.294872 327.576923 525.493590 327.576923 527.692308 327.576923 529.891026 327.576923 532.089744 327.576923 534.288462 327.576923 536.487179 327.576923 538.685897 327.576923 540.884615 327.576923 543.083333 327.576923 545.282051 327.576923 547.480769 327.576923 549.679487 327.576923 551.878205 327.576923 554.076923 327.576923 556.275641 327.576923 558.474359 327.576923 560.673077 327.576923 562.871795 327.576923 565.070513 327.576923 567.269231 327.576923 569.467949 327.576923 571.666667 327.576923 573.865385 327.576923 576.064103 327.576923 578.262821 327.576923 580.461538 327.576923 582.660256 327.576923 584.858974 327.576923 587.057692 327.576923 589.256410 327.576923 591.455128 327.576923 593.653846 327.576923 595.852564 327.576923 598.051282 327.576923 600.250000 327.576923 602.448718 327.576923 604.647436 327.576923 606.846154 327.576923 609.044872 327.576923 611.243590 327.576923 613.442308 327.576923 615.641026 327.576923 617.839744 327.576923 620.038462 327.576923 622.237179 327.576923 624.435897 327.576923 626.634615 327.576923 628.833333 327.576923 631.032051 327.576923 633.230769 327.576923 635.429487 327.576923 637.628205 327.576923 639.826923 327.576923 642.025641 327.576923 644.224359 327.576923 646.423077 327.576923 648.621795 327.576923 650.820513 327.576923 653.019231 327.576923 655.217949 327.576923 657.416667 327.576923 659.615385 327.576923 661.814103 327.576923 664.012821 327.576923 666.211538 327.576923 668.410256 327.576923 670.608974 327.576923 672.807692 327.576923"/></g><g class="series serie-4 color-4"><path class="line reactive nofill" d="M13.192308 327.576923 L15.391026 327.576923 17.589744 327.576923 19.788462 327.576923 21.987179 327.576923 24.185897 327.576923 26.384615 327.576923 28.583333 327.576923 30.782051 327.576923 32.980769 327.576923 35.179487 327.576923 37.378205 327.576923 39.576923 327.576923 41.775641 327.576923 43.974359 327.576923 46.173077 327.576923 48.371795 327.576923 50.570513 327.576923 52.769231 327.576923 54.967949 327.576923 57.166667 327.576923 59.365385 327.576923 61.564103 327.576923 63.762821 327.576923 65.961538 327.576923 68.160256 327.576923 70.358974 327.576923 72.557692 327.576923 74.756410 327.576923 76.955128 327.576923 79.153846 327.576923 81.352564 327.576923 83.551282 327.576923 85.750000 327.576923 87.948718 327.576923 90.147436 327.576923 92.346154 327.576923 94.544872 327.576923 96.743590 327.576923 98.942308 327.576923 101.141026 327.576923 103.339744 327.576923 105.538462 327.576923 107.737179 327.576923 109.935897 327.576923 112.134615 327.576923 114.333333 327.576923 116.532051 327.576923 118.730769 327.576923 120.929487 327.576923 123.128205 327.576923 125.326923 327.576923 127.525641 327.576923 129.724359 327.576923 131.923077 327.576923 134.121795 327.576923 136.320513 327.576923 138.519231 327.576923 140.717949 327.576923 142.916667 327.576923 145.115385 327.576923 147.314103 327.576923 149.512821 327.576923 151.711538 327.576923 153.910256 326.014131 156.108974 326.014131 158.307692 326.014131 160.506410 326.014131 162.705128 326.014131 164.903846 324.451338 167.102564 322.888546 169.301282 316.637376 171.500000 315.074584 173.698718 315.074584 175.897436 313.511791 178.096154 313.511791 180.294872 310.386206 182.493590 307.260621 184.692308 301.009452 186.891026 279.130357 189.089744 252.562886 191.288462 247.874509 193.487179 182.237226 195.685897 163.483717 197.884615 155.669755 200.083333 150.981378 202.282051 152.544170 204.480769 147.855793 206.679487 147.855793 208.878205 169.734887 211.076923 197.865151 213.275641 194.739566 215.474359 254.125678 217.673077 269.753603 219.871795 280.693150 222.070513 200.990736 224.269231 182.237226 226.467949 161.920925 228.666667 152.544170 230.865385 105.660397 233.064103 99.409227 235.262821 104.097604 237.461538 119.725529 239.660256 122.851114 241.858974 119.725529 244.057692 197.865151 246.256410 222.869830 248.455128 249.437301 250.653846 261.939641 252.852564 308.823414 255.051282 308.823414 257.250000 302.572244 259.448718 299.446659 261.647436 296.321074 263.846154 296.321074 266.044872 290.069905 268.243590 288.507112 270.442308 283.818735 272.641026 282.255942 274.839744 193.176773 277.038462 169.734887 279.237179 169.734887 281.435897 161.920925 283.634615 118.162736 285.833333 86.906888 288.032051 90.032472 290.230769 85.344095 292.429487 77.530133 294.628205 74.404548 296.826923 163.483717 299.025641 185.362811 301.224359 194.739566 303.423077 202.553528 305.621795 247.874509 307.820513 283.818735 310.019231 286.944320 312.217949 293.195489 314.416667 307.260621 316.615385 313.511791 318.814103 315.074584 321.012821 319.762961 323.211538 321.325753 325.410256 324.451338 327.608974 324.451338 329.807692 324.451338 332.006410 324.451338 334.205128 326.014131 336.403846 326.014131 338.602564 327.576923 340.801282 327.576923 343.000000 327.576923 345.198718 327.576923 347.397436 327.576923 349.596154 327.576923 351.794872 327.576923 353.993590 322.888546 356.192308 322.888546 358.391026 319.762961 360.589744 319.762961 362.788462 318.200168 364.987179 318.200168 367.185897 318.200168 369.384615 315.074584 371.583333 308.823414 373.782051 305.697829 375.980769 305.697829 378.179487 307.260621 380.378205 291.632697 382.576923 279.130357 384.775641 271.316395 386.974359 260.376848 389.173077 241.623339 391.371795 219.744245 393.570513 218.181452 395.769231 213.493075 397.967949 180.674434 400.166667 174.423264 402.365385 190.051188 404.564103 202.553528 406.762821 210.367490 408.961538 221.307037 411.160256 240.060547 413.358974 265.065226 415.557692 272.879188 417.756410 280.693150 419.955128 301.009452 422.153846 322.888546 424.352564 326.014131 426.551282 326.014131 428.750000 327.576923 430.948718 327.576923 433.147436 327.576923 435.346154 326.014131 437.544872 326.014131 439.743590 326.014131 441.942308 316.637376 444.141026 299.446659 446.339744 293.195489 448.538462 288.507112 450.737179 263.502433 452.935897 243.186131 455.134615 232.246584 457.333333 227.558207 459.532051 216.618660 461.730769 207.241905 463.929487 215.055867 466.128205 232.246584 468.326923 238.497754 470.525641 241.623339 472.724359 266.628018 474.923077 285.381527 477.121795 296.321074 479.320513 302.572244 481.519231 313.511791 483.717949 322.888546 485.916667 322.888546 488.115385 324.451338 490.314103 324.451338 492.512821 326.014131 494.711538 326.014131 496.910256 327.576923 499.108974 327.576923 501.307692 327.576923 503.506410 327.576923 505.705128 327.576923 507.903846 327.576923 510.102564 327.576923 512.301282 327.576923 514.500000 327.576923 516.698718 327.576923 518.897436 327.576923 521.096154 327.576923 523.294872 327.576923 525.493590 327.576923 527.692308 327.576923 529.891026 327.576923 532.089744 327.576923 534.288462 327.576923 536.487179 327.576923 538.685897 327.576923 540.884615 327.576923 543.083333 327.576923 545.282051 327.576923 547.480769 327.576923 549.679487 327.576923 551.878205 327.576923 554.076923 327.576923 556.275641 327.576923 558.474359 327.576923 560.673077 327.576923 562.871795 327.576923 565.070513 327.576923 567.269231 327.576923 569.467949 327.576923 571.666667 327.576923 573.865385 327.576923 576.064103 327.576923 578.262821 327.576923 580.461538 327.576923 582.660256 327.576923 584.858974 327.576923 587.057692 327.576923 589.256410 327.576923 591.455128 327.576923 593.653846 327.576923 595.852564 327.576923 598.051282 327.576923 600.250000 327.576923 602.448718 327.576923 604.647436 327.576923 606.846154 327.576923 609.044872 327.576923 611.243590 327.576923 613.442308 327.576923 615.641026 327.576923 617.839744 327.576923 620.038462 327.576923 622.237179 327.576923 624.435897 327.576923 626.634615 327.576923 628.833333 327.576923 631.032051 327.576923 633.230769 327.576923 635.429487 327.576923 637.628205 327.576923 639.826923 327.576923 642.025641 327.576923 644.224359 327.576923 646.423077 327.576923 648.621795 327.576923 650.820513 327.576923 653.019231 327.576923 655.217949 327.576923 657.416667 327.576923 659.615385 327.576923 661.814103 327.576923 664.012821 327.576923 666.211538 327.576923 668.410256 327.576923 670.608974 327.576923 672.807692 327.576923"/></g><g class="series serie-5 color-5"><path class="line reactive nofill" d="M13.192308 327.576923 L15.391026 327.576923 17.589744 327.576923 19.788462 327.576923 21.987179 327.576923 24.185897 327.576923 26.384615 327.576923 28.583333 327.576923 30.782051 327.576923 32.980769 327.576923 35.179487 327.576923 37.378205 327.576923 39.576923 327.576923 41.775641 327.576923 43.974359 327.576923 46.173077 327.576923 48.371795 327.576923 50.570513 327.576923 52.769231 327.576923 54.967949 327.576923 57.166667 327.576923 59.365385 327.576923 61.564103 327.576923 63.762821 327.576923 65.961538 327.576923 68.160256 327.576923 70.358974 327.576923 72.557692 327.576923 74.756410 327.576923 76.955128 327.576923 79.153846 327.576923 81.352564 327.576923 83.551282 327.576923 85.750000 327.576923 87.948718 327.576923 90.147436 327.576923 92.346154 327.576923 94.544872 327.576923 96.743590 327.576923 98.942308 327.576923 101.141026 327.576923 103.339744 327.576923 105.538462 327.576923 107.737179 327.576923 109.935897 327.576923 112.134615 327.576923 114.333333 327.576923 116.532051 327.576923 118.730769 327.576923 120.929487 327.576923 123.128205 327.576923 125.326923 327.576923 127.525641 327.576923 129.724359 326.043237 131.923077 326.043237 134.121795 324.509551 136.320513 324.509551 138.519231 324.509551 140.717949 324.509551 142.916667 324.509551 145.115385 324.509551 147.314103 324.509551 149.512821 324.509551 151.711538 322.975865 153.910256 324.509551 156.108974 324.509551 158.307692 326.043237 160.506410 324.509551 162.705128 324.509551 164.903846 322.975865 167.102564 322.975865 169.301282 315.307435 171.500000 315.307435 173.698718 313.773749 175.897436 315.307435 178.096154 313.773749 180.294872 310.706377 182.493590 309.172691 184.692308 310.706377 186.891026 255.493682 189.089744 255.493682 191.288462 255.493682 193.487179 171.140952 195.685897 163.472522 197.884615 161.938836 200.083333 155.804092 202.282051 155.804092 204.480769 145.068290 206.679487 146.601976 208.878205 145.068290 211.076923 200.280986 213.275641 180.343068 215.474359 178.809382 217.673077 269.296855 219.871795 276.965285 222.070513 177.275696 224.269231 183.410440 226.467949 137.399860 228.666667 151.203034 230.865385 92.922967 233.064103 94.456653 235.262821 92.922967 237.461538 114.394571 239.660256 112.860885 241.858974 112.860885 244.057692 112.860885 246.256410 215.617846 248.455128 207.949416 250.653846 255.493682 252.852564 255.493682 255.051282 312.240063 257.250000 299.970575 259.448718 298.436889 261.647436 296.903203 263.846154 299.970575 266.044872 289.234773 268.243590 289.234773 270.442308 283.100029 272.641026 289.234773 274.839744 161.938836 277.038462 161.938836 279.237179 161.938836 281.435897 174.208324 283.634615 62.249247 285.833333 63.782933 288.032051 62.249247 290.230769 74.518735 292.429487 56.114503 294.628205 60.715561 296.826923 62.249247 299.025641 188.011498 301.224359 181.876754 303.423077 183.410440 305.621795 183.410440 307.820513 298.436889 310.019231 298.436889 312.217949 298.436889 314.416667 298.436889 316.615385 316.841121 318.814103 316.841121 321.012821 316.841121 323.211538 318.374807 325.410256 324.509551 327.608974 324.509551 329.807692 324.509551 332.006410 324.509551 334.205128 324.509551 336.403846 326.043237 338.602564 326.043237 340.801282 326.043237 343.000000 327.576923 345.198718 327.576923 347.397436 327.576923 349.596154 327.576923 351.794872 327.576923 353.993590 322.975865 356.192308 321.442179 358.391026 321.442179 360.589744 321.442179 362.788462 316.841121 364.987179 316.841121 367.185897 316.841121 369.384615 316.841121 371.583333 306.105319 373.782051 306.105319 375.980769 306.105319 378.179487 310.706377 380.378205 280.032657 382.576923 280.032657 384.775641 263.162112 386.974359 267.763169 389.173077 241.690508 391.371795 214.084160 393.570513 214.084160 395.769231 224.819962 397.967949 168.073580 400.166667 168.073580 402.365385 168.073580 404.564103 200.280986 406.762821 200.280986 408.961538 217.151532 411.160256 217.151532 413.358974 243.224194 415.557692 270.830541 417.756410 270.830541 419.955128 270.830541 422.153846 327.576923 424.352564 327.576923 426.551282 327.576923 428.750000 327.576923 430.948718 327.576923 433.147436 327.576923 435.346154 327.576923 437.544872 327.576923 439.743590 327.576923 441.942308 295.369517 444.141026 293.835831 446.339744 292.302145 448.538462 292.302145 450.737179 235.555764 452.935897 235.555764 455.134615 235.555764 457.333333 235.555764 459.532051 209.483102 461.730769 209.483102 463.929487 209.483102 466.128205 241.690508 468.326923 241.690508 470.525641 243.224194 472.724359 241.690508 474.923077 298.436889 477.121795 298.436889 479.320513 298.436889 481.519231 298.436889 483.717949 322.975865 485.916667 322.975865 488.115385 322.975865 490.314103 322.975865 492.512821 324.509551 494.711538 324.509551 496.910256 326.043237 499.108974 326.043237 501.307692 326.043237 503.506410 326.043237 505.705128 326.043237 507.903846 327.576923 510.102564 327.576923 512.301282 327.576923 514.500000 327.576923 516.698718 327.576923 518.897436 327.576923 521.096154 327.576923 523.294872 327.576923 525.493590 327.576923 527.692308 327.576923 529.891026 327.576923 532.089744 327.576923 534.288462 327.576923 536.487179 327.576923 538.685897 327.576923 540.884615 327.576923 543.083333 327.576923 545.282051 327.576923 547.480769 327.576923 549.679487 327.576923 551.878205 327.576923 554.076923 327.576923 556.275641 327.576923 558.474359 327.576923 560.673077 327.576923 562.871795 327.576923 565.070513 327.576923 567.269231 327.576923 569.467949 327.576923 571.666667 327.576923 573.865385 327.576923 576.064103 327.576923 578.262821 327.576923 580.461538 327.576923 582.660256 327.576923 584.858974 327.576923 587.057692 327.576923 589.256410 327.576923 591.455128 327.576923 593.653846 327.576923 595.852564 327.576923 598.051282 327.576923 600.250000 327.576923 602.448718 327.576923 604.647436 327.576923 606.846154 327.576923 609.044872 327.576923 611.243590 327.576923 613.442308 327.576923 615.641026 327.576923 617.839744 327.576923 620.038462 327.576923 622.237179 327.576923 624.435897 327.576923 626.634615 327.576923 628.833333 327.576923 631.032051 327.576923 633.230769 327.576923 635.429487 327.576923 637.628205 327.576923 639.826923 327.576923 642.025641 327.576923 644.224359 327.576923 646.423077 327.576923 648.621795 327.576923 650.820513 327.576923 653.019231 327.576923 655.217949 327.576923 657.416667 327.576923 659.615385 327.576923 661.814103 327.576923 664.012821 327.576923 666.211538 327.576923 668.410256 327.576923 670.608974 327.576923 672.807692 327.576923"/></g></g><g class="titles"><text class="title plot_title" x="400.0" y="28">Percentage of Annotations for T ±5.0 BPM</text><text class="title" x="437.0" y="465.0">T (BPM)</text><text class="title" x="0" y="243.0" transform="rotate(-90 0.000000 215.000000)">Values (%)</text></g><g class="plot overlay" transform="translate(94, 48)"><g class="series serie-0 color-0"><g class="dots"><circle class="dot reactive tooltip-trigger" cx="13.192307692307692" cy="327.5769230769231" r="2.5"/><desc class="value">0.0</desc><desc class="x top">13.192307692307692</desc><desc class="y top">327.5769230769231</desc><desc class="x_label">0.0</desc></g><g class="dots"><circle class="dot reactive tooltip-trigger" cx="79.15384615384616" cy="327.5769230769231" r="2.5"/><desc class="value">0.0</desc><desc class="x top">79.15384615384616</desc><desc class="y top">327.5769230769231</desc><desc class="x_label">30.0</desc></g><g class="dots"><circle class="dot reactive tooltip-trigger" cx="145.11538461538458" cy="326.0432370876497" r="2.5"/><desc class="value">0.1</desc><desc class="x top">145.11538461538458</desc><desc class="y top">326.0432370876497</desc><desc class="x_label">60.0</desc></g><g class="dots"><circle class="dot reactive tooltip-trigger" cx="211.07692307692307" cy="201.81467195650578" r="2.5"/><desc class="value">11.7</desc><desc class="x top">211.07692307692307</desc><desc class="y top">201.81467195650578</desc><desc class="x_label">90.0</desc></g><g class="dots"><circle class="dot reactive tooltip-trigger" cx="277.03846153846155" cy="155.80409227830432" r="2.5"/><desc class="value">16.0</desc><desc class="x ">277.03846153846155</desc><desc class="y ">155.80409227830432</desc><desc class="x_label">120.0</desc></g><g class="dots"><circle class="dot reactive tooltip-trigger" cx="343.0" cy="321.4421791198296" r="2.5"/><desc class="value">0.6</desc><desc class="x top">343.0</desc><desc class="y top">321.4421791198296</desc><desc class="x_label">150.0</desc></g><g class="dots"><circle class="dot reactive tooltip-trigger" cx="408.96153846153845" cy="217.15153184923957" r="2.5"/><desc class="value">10.3</desc><desc class="x left top">408.96153846153845</desc><desc class="y left top">217.15153184923957</desc><desc class="x_label">180.0</desc></g><g class="dots"><circle class="dot reactive tooltip-trigger" cx="474.92307692307685" cy="299.9705752700022" r="2.5"/><desc class="value">2.6</desc><desc class="x left top">474.92307692307685</desc><desc class="y left top">299.9705752700022</desc><desc class="x_label">210.0</desc></g><g class="dots"><circle class="dot reactive tooltip-trigger" cx="540.8846153846155" cy="327.5769230769231" r="2.5"/><desc class="value">0.0</desc><desc class="x left top">540.8846153846155</desc><desc class="y left top">327.5769230769231</desc><desc class="x_label">240.0</desc></g><g class="dots"><circle class="dot reactive tooltip-trigger" cx="606.8461538461538" cy="327.5769230769231" r="2.5"/><desc class="value">0.0</desc><desc class="x left top">606.8461538461538</desc><desc class="y left top">327.5769230769231</desc><desc class="x_label">270.0</desc></g><g class="dots"><circle class="dot reactive tooltip-trigger" cx="672.8076923076923" cy="327.5769230769231" r="2.5"/><desc class="value">0.0</desc><desc class="x left top">672.8076923076923</desc><desc class="y left top">327.5769230769231</desc><desc class="x_label">300.0</desc></g></g><g class="series serie-1 color-1"><g class="dots"><circle class="dot reactive tooltip-trigger" cx="13.192307692307692" cy="327.5769230769231" r="2.5"/><desc class="value">0.0</desc><desc class="x top">13.192307692307692</desc><desc class="y top">327.5769230769231</desc><desc class="x_label">0.0</desc></g><g class="dots"><circle class="dot reactive tooltip-trigger" cx="79.15384615384616" cy="327.5769230769231" r="2.5"/><desc class="value">0.0</desc><desc class="x top">79.15384615384616</desc><desc class="y top">327.5769230769231</desc><desc class="x_label">30.0</desc></g><g class="dots"><circle class="dot reactive tooltip-trigger" cx="145.11538461538458" cy="327.5769230769231" r="2.5"/><desc class="value">0.0</desc><desc class="x top">145.11538461538458</desc><desc class="y top">327.5769230769231</desc><desc class="x_label">60.0</desc></g><g class="dots"><circle class="dot reactive tooltip-trigger" cx="211.07692307692307" cy="198.74729997795905" r="2.5"/><desc class="value">12.0</desc><desc class="x top">211.07692307692307</desc><desc class="y top">198.74729997795905</desc><desc class="x_label">90.0</desc></g><g class="dots"><circle class="dot reactive tooltip-trigger" cx="277.03846153846155" cy="155.80409227830432" r="2.5"/><desc class="value">16.0</desc><desc class="x ">277.03846153846155</desc><desc class="y ">155.80409227830432</desc><desc class="x_label">120.0</desc></g><g class="dots"><circle class="dot reactive tooltip-trigger" cx="343.0" cy="327.5769230769231" r="2.5"/><desc class="value">0.0</desc><desc class="x top">343.0</desc><desc class="y top">327.5769230769231</desc><desc class="x_label">150.0</desc></g><g class="dots"><circle class="dot reactive tooltip-trigger" cx="408.96153846153845" cy="230.95470575270005" r="2.5"/><desc class="value">9.0</desc><desc class="x left top">408.96153846153845</desc><desc class="y left top">230.95470575270005</desc><desc class="x_label">180.0</desc></g><g class="dots"><circle class="dot reactive tooltip-trigger" cx="474.92307692307685" cy="284.6337153772684" r="2.5"/><desc class="value">4.0</desc><desc class="x left top">474.92307692307685</desc><desc class="y left top">284.6337153772684</desc><desc class="x_label">210.0</desc></g><g class="dots"><circle class="dot reactive tooltip-trigger" cx="540.8846153846155" cy="327.5769230769231" r="2.5"/><desc class="value">0.0</desc><desc class="x left top">540.8846153846155</desc><desc class="y left top">327.5769230769231</desc><desc class="x_label">240.0</desc></g><g class="dots"><circle class="dot reactive tooltip-trigger" cx="606.8461538461538" cy="327.5769230769231" r="2.5"/><desc class="value">0.0</desc><desc class="x left top">606.8461538461538</desc><desc class="y left top">327.5769230769231</desc><desc class="x_label">270.0</desc></g><g class="dots"><circle class="dot reactive tooltip-trigger" cx="672.8076923076923" cy="327.5769230769231" r="2.5"/><desc class="value">0.0</desc><desc class="x left top">672.8076923076923</desc><desc class="y left top">327.5769230769231</desc><desc class="x_label">300.0</desc></g></g><g class="series serie-2 color-2"><g class="dots"><circle class="dot reactive tooltip-trigger" cx="13.192307692307692" cy="327.5769230769231" r="2.5"/><desc class="value">0.0</desc><desc class="x top">13.192307692307692</desc><desc class="y top">327.5769230769231</desc><desc class="x_label">0.0</desc></g><g class="dots"><circle class="dot reactive tooltip-trigger" cx="79.15384615384616" cy="327.5769230769231" r="2.5"/><desc class="value">0.0</desc><desc class="x top">79.15384615384616</desc><desc class="y top">327.5769230769231</desc><desc class="x_label">30.0</desc></g><g class="dots"><circle class="dot reactive tooltip-trigger" cx="145.11538461538458" cy="327.5769230769231" r="2.5"/><desc class="value">0.0</desc><desc class="x top">145.11538461538458</desc><desc class="y top">327.5769230769231</desc><desc class="x_label">60.0</desc></g><g class="dots"><circle class="dot reactive tooltip-trigger" cx="211.07692307692307" cy="197.86515066442075" r="2.5"/><desc class="value">12.1</desc><desc class="x top">211.07692307692307</desc><desc class="y top">197.86515066442075</desc><desc class="x_label">90.0</desc></g><g class="dots"><circle class="dot reactive tooltip-trigger" cx="277.03846153846155" cy="158.79533969679954" r="2.5"/><desc class="value">15.8</desc><desc class="x ">277.03846153846155</desc><desc class="y ">158.79533969679954</desc><desc class="x_label">120.0</desc></g><g class="dots"><circle class="dot reactive tooltip-trigger" cx="343.0" cy="327.5769230769231" r="2.5"/><desc class="value">0.0</desc><desc class="x top">343.0</desc><desc class="y top">327.5769230769231</desc><desc class="x_label">150.0</desc></g><g class="dots"><circle class="dot reactive tooltip-trigger" cx="408.96153846153845" cy="229.12099943851769" r="2.5"/><desc class="value">9.2</desc><desc class="x left top">408.96153846153845</desc><desc class="y left top">229.12099943851769</desc><desc class="x_label">180.0</desc></g><g class="dots"><circle class="dot reactive tooltip-trigger" cx="474.92307692307685" cy="285.3815272318922" r="2.5"/><desc class="value">3.9</desc><desc class="x left top">474.92307692307685</desc><desc class="y left top">285.3815272318922</desc><desc class="x_label">210.0</desc></g><g class="dots"><circle class="dot reactive tooltip-trigger" cx="540.8846153846155" cy="327.5769230769231" r="2.5"/><desc class="value">0.0</desc><desc class="x left top">540.8846153846155</desc><desc class="y left top">327.5769230769231</desc><desc class="x_label">240.0</desc></g><g class="dots"><circle class="dot reactive tooltip-trigger" cx="606.8461538461538" cy="327.5769230769231" r="2.5"/><desc class="value">0.0</desc><desc class="x left top">606.8461538461538</desc><desc class="y left top">327.5769230769231</desc><desc class="x_label">270.0</desc></g><g class="dots"><circle class="dot reactive tooltip-trigger" cx="672.8076923076923" cy="327.5769230769231" r="2.5"/><desc class="value">0.0</desc><desc class="x left top">672.8076923076923</desc><desc class="y left top">327.5769230769231</desc><desc class="x_label">300.0</desc></g></g><g class="series serie-3 color-3"><g class="dots"><circle class="dot reactive tooltip-trigger" cx="13.192307692307692" cy="327.5769230769231" r="2.5"/><desc class="value">0.0</desc><desc class="x top">13.192307692307692</desc><desc class="y top">327.5769230769231</desc><desc class="x_label">0.0</desc></g><g class="dots"><circle class="dot reactive tooltip-trigger" cx="79.15384615384616" cy="327.5769230769231" r="2.5"/><desc class="value">0.0</desc><desc class="x top">79.15384615384616</desc><desc class="y top">327.5769230769231</desc><desc class="x_label">30.0</desc></g><g class="dots"><circle class="dot reactive tooltip-trigger" cx="145.11538461538458" cy="327.5769230769231" r="2.5"/><desc class="value">0.0</desc><desc class="x top">145.11538461538458</desc><desc class="y top">327.5769230769231</desc><desc class="x_label">60.0</desc></g><g class="dots"><circle class="dot reactive tooltip-trigger" cx="211.07692307692307" cy="198.74729997795905" r="2.5"/><desc class="value">12.0</desc><desc class="x top">211.07692307692307</desc><desc class="y top">198.74729997795905</desc><desc class="x_label">90.0</desc></g><g class="dots"><circle class="dot reactive tooltip-trigger" cx="277.03846153846155" cy="166.539894203218" r="2.5"/><desc class="value">15.0</desc><desc class="x ">277.03846153846155</desc><desc class="y ">166.539894203218</desc><desc class="x_label">120.0</desc></g><g class="dots"><circle class="dot reactive tooltip-trigger" cx="343.0" cy="327.5769230769231" r="2.5"/><desc class="value">0.0</desc><desc class="x top">343.0</desc><desc class="y top">327.5769230769231</desc><desc class="x_label">150.0</desc></g><g class="dots"><circle class="dot reactive tooltip-trigger" cx="408.96153846153845" cy="223.28627580633312" r="2.5"/><desc class="value">9.7</desc><desc class="x left top">408.96153846153845</desc><desc class="y left top">223.28627580633312</desc><desc class="x_label">180.0</desc></g><g class="dots"><circle class="dot reactive tooltip-trigger" cx="474.92307692307685" cy="286.16740136654175" r="2.5"/><desc class="value">3.9</desc><desc class="x left top">474.92307692307685</desc><desc class="y left top">286.16740136654175</desc><desc class="x_label">210.0</desc></g><g class="dots"><circle class="dot reactive tooltip-trigger" cx="540.8846153846155" cy="327.5769230769231" r="2.5"/><desc class="value">0.0</desc><desc class="x left top">540.8846153846155</desc><desc class="y left top">327.5769230769231</desc><desc class="x_label">240.0</desc></g><g class="dots"><circle class="dot reactive tooltip-trigger" cx="606.8461538461538" cy="327.5769230769231" r="2.5"/><desc class="value">0.0</desc><desc class="x left top">606.8461538461538</desc><desc class="y left top">327.5769230769231</desc><desc class="x_label">270.0</desc></g><g class="dots"><circle class="dot reactive tooltip-trigger" cx="672.8076923076923" cy="327.5769230769231" r="2.5"/><desc class="value">0.0</desc><desc class="x left top">672.8076923076923</desc><desc class="y left top">327.5769230769231</desc><desc class="x_label">300.0</desc></g></g><g class="series serie-4 color-4"><g class="dots"><circle class="dot reactive tooltip-trigger" cx="13.192307692307692" cy="327.5769230769231" r="2.5"/><desc class="value">0.0</desc><desc class="x top">13.192307692307692</desc><desc class="y top">327.5769230769231</desc><desc class="x_label">0.0</desc></g><g class="dots"><circle class="dot reactive tooltip-trigger" cx="79.15384615384616" cy="327.5769230769231" r="2.5"/><desc class="value">0.0</desc><desc class="x top">79.15384615384616</desc><desc class="y top">327.5769230769231</desc><desc class="x_label">30.0</desc></g><g class="dots"><circle class="dot reactive tooltip-trigger" cx="145.11538461538458" cy="327.5769230769231" r="2.5"/><desc class="value">0.0</desc><desc class="x top">145.11538461538458</desc><desc class="y top">327.5769230769231</desc><desc class="x_label">60.0</desc></g><g class="dots"><circle class="dot reactive tooltip-trigger" cx="211.07692307692307" cy="197.86515066442075" r="2.5"/><desc class="value">12.1</desc><desc class="x top">211.07692307692307</desc><desc class="y top">197.86515066442075</desc><desc class="x_label">90.0</desc></g><g class="dots"><circle class="dot reactive tooltip-trigger" cx="277.03846153846155" cy="169.73488676773349" r="2.5"/><desc class="value">14.7</desc><desc class="x top">277.03846153846155</desc><desc class="y top">169.73488676773349</desc><desc class="x_label">120.0</desc></g><g class="dots"><circle class="dot reactive tooltip-trigger" cx="343.0" cy="327.5769230769231" r="2.5"/><desc class="value">0.0</desc><desc class="x top">343.0</desc><desc class="y top">327.5769230769231</desc><desc class="x_label">150.0</desc></g><g class="dots"><circle class="dot reactive tooltip-trigger" cx="408.96153846153845" cy="221.30703724499347" r="2.5"/><desc class="value">9.9</desc><desc class="x left top">408.96153846153845</desc><desc class="y left top">221.30703724499347</desc><desc class="x_label">180.0</desc></g><g class="dots"><circle class="dot reactive tooltip-trigger" cx="474.92307692307685" cy="285.3815272318922" r="2.5"/><desc class="value">3.9</desc><desc class="x left top">474.92307692307685</desc><desc class="y left top">285.3815272318922</desc><desc class="x_label">210.0</desc></g><g class="dots"><circle class="dot reactive tooltip-trigger" cx="540.8846153846155" cy="327.5769230769231" r="2.5"/><desc class="value">0.0</desc><desc class="x left top">540.8846153846155</desc><desc class="y left top">327.5769230769231</desc><desc class="x_label">240.0</desc></g><g class="dots"><circle class="dot reactive tooltip-trigger" cx="606.8461538461538" cy="327.5769230769231" r="2.5"/><desc class="value">0.0</desc><desc class="x left top">606.8461538461538</desc><desc class="y left top">327.5769230769231</desc><desc class="x_label">270.0</desc></g><g class="dots"><circle class="dot reactive tooltip-trigger" cx="672.8076923076923" cy="327.5769230769231" r="2.5"/><desc class="value">0.0</desc><desc class="x left top">672.8076923076923</desc><desc class="y left top">327.5769230769231</desc><desc class="x_label">300.0</desc></g></g><g class="series serie-5 color-5"><g class="dots"><circle class="dot reactive tooltip-trigger" cx="13.192307692307692" cy="327.5769230769231" r="2.5"/><desc class="value">0.0</desc><desc class="x top">13.192307692307692</desc><desc class="y top">327.5769230769231</desc><desc class="x_label">0.0</desc></g><g class="dots"><circle class="dot reactive tooltip-trigger" cx="79.15384615384616" cy="327.5769230769231" r="2.5"/><desc class="value">0.0</desc><desc class="x top">79.15384615384616</desc><desc class="y top">327.5769230769231</desc><desc class="x_label">30.0</desc></g><g class="dots"><circle class="dot reactive tooltip-trigger" cx="145.11538461538458" cy="324.50955109837633" r="2.5"/><desc class="value">0.3</desc><desc class="x top">145.11538461538458</desc><desc class="y top">324.50955109837633</desc><desc class="x_label">60.0</desc></g><g class="dots"><circle class="dot reactive tooltip-trigger" cx="211.07692307692307" cy="200.2809859672324" r="2.5"/><desc class="value">11.9</desc><desc class="x top">211.07692307692307</desc><desc class="y top">200.2809859672324</desc><desc class="x_label">90.0</desc></g><g class="dots"><circle class="dot reactive tooltip-trigger" cx="277.03846153846155" cy="161.93883623539784" r="2.5"/><desc class="value">15.5</desc><desc class="x ">277.03846153846155</desc><desc class="y ">161.93883623539784</desc><desc class="x_label">120.0</desc></g><g class="dots"><circle class="dot reactive tooltip-trigger" cx="343.0" cy="327.5769230769231" r="2.5"/><desc class="value">0.0</desc><desc class="x top">343.0</desc><desc class="y top">327.5769230769231</desc><desc class="x_label">150.0</desc></g><g class="dots"><circle class="dot reactive tooltip-trigger" cx="408.96153846153845" cy="217.15153184923957" r="2.5"/><desc class="value">10.3</desc><desc class="x left top">408.96153846153845</desc><desc class="y left top">217.15153184923957</desc><desc class="x_label">180.0</desc></g><g class="dots"><circle class="dot reactive tooltip-trigger" cx="474.92307692307685" cy="298.4368892807288" r="2.5"/><desc class="value">2.7</desc><desc class="x left top">474.92307692307685</desc><desc class="y left top">298.4368892807288</desc><desc class="x_label">210.0</desc></g><g class="dots"><circle class="dot reactive tooltip-trigger" cx="540.8846153846155" cy="327.5769230769231" r="2.5"/><desc class="value">0.0</desc><desc class="x left top">540.8846153846155</desc><desc class="y left top">327.5769230769231</desc><desc class="x_label">240.0</desc></g><g class="dots"><circle class="dot reactive tooltip-trigger" cx="606.8461538461538" cy="327.5769230769231" r="2.5"/><desc class="value">0.0</desc><desc class="x left top">606.8461538461538</desc><desc class="y left top">327.5769230769231</desc><desc class="x_label">270.0</desc></g><g class="dots"><circle class="dot reactive tooltip-trigger" cx="672.8076923076923" cy="327.5769230769231" r="2.5"/><desc class="value">0.0</desc><desc class="x left top">672.8076923076923</desc><desc class="y left top">327.5769230769231</desc><desc class="x_label">300.0</desc></g></g></g><g class="plot text-overlay" transform="translate(94, 48)"><g class="series serie-0 color-0"/><g class="series serie-1 color-1"/><g class="series serie-2 color-2"/><g class="series serie-3 color-3"/><g class="series serie-4 color-4"/><g class="series serie-5 color-5"/></g><g class="plot tooltip-overlay" transform="translate(94, 48)"><g class="tooltip" style="opacity: 0" transform="translate(0 0)"><rect class="tooltip-box" height="0" rx="0" ry="0" width="0"/><g class="text"/></g></g><g class="legends" transform="translate(104, 485)"><g class="legend reactive activate-serie" id="activate-serie-0"><rect class="color-0 reactive" height="12" width="12" x="0.0" y="1.5"/><text x="17.0" y="12.0">1.0</text></g><g class="legend reactive activate-serie" id="activate-serie-1"><rect class="color-1 reactive" height="12" width="12" x="343.0" y="1.5"/><text x="360.0" y="12.0">2.0</text></g><g class="legend reactive activate-serie" id="activate-serie-2"><rect class="color-2 reactive" height="12" width="12" x="0.0" y="24.0"/><text x="17.0" y="34.5">2.0-no-dupes</text></g><g class="legend reactive activate-serie" id="activate-serie-3"><rect class="color-3 reactive" height="12" width="12" x="343.0" y="24.0"/><text x="360.0" y="34.5">3.0</text></g><g class="legend reactive activate-serie" id="activate-serie-4"><rect class="color-4 reactive" height="12" width="12" x="0.0" y="46.5"/><text x="17.0" y="57.0">3.0-no-dupes</text></g><g class="legend reactive activate-serie" id="activate-serie-5"><rect class="color-5 reactive" height="12" width="12" x="343.0" y="46.5"/><text x="360.0" y="57.0">4.0</text></g></g></g></svg>