<?xml version='1.0' encoding='utf-8'?>
<svg xmlns:xlink="http://www.w3.org/1999/xlink" xmlns="http://www.w3.org/2000/svg" id="chart-55d0c7fc-dd26-414c-a14a-71eacb34fe7b" class="pygal-chart" viewBox="0 0 800 600"><!--Generated with pygal 2.4.0 (lxml) ©Kozea 2012-2016 on 2019-10-13--><!--http://pygal.org--><!--http://github.com/Kozea/pygal--><defs><style type="text/css">#chart-55d0c7fc-dd26-414c-a14a-71eacb34fe7b{-webkit-user-select:none;-webkit-font-smoothing:antialiased;font-family:Helvetica,Arial,sans-serif}#chart-55d0c7fc-dd26-414c-a14a-71eacb34fe7b .title{font-family:Helvetica,Arial,sans-serif;font-size:18px}#chart-55d0c7fc-dd26-414c-a14a-71eacb34fe7b .legends .legend text{font-family:Helvetica,Arial,sans-serif;font-size:15px}#chart-55d0c7fc-dd26-414c-a14a-71eacb34fe7b .axis text{font-family:Helvetica,Arial,sans-serif;font-size:15px}#chart-55d0c7fc-dd26-414c-a14a-71eacb34fe7b .axis text.major{font-family:Helvetica,Arial,sans-serif;font-size:15px}#chart-55d0c7fc-dd26-414c-a14a-71eacb34fe7b .text-overlay text.value{font-family:Helvetica,Arial,sans-serif;font-size:15px}#chart-55d0c7fc-dd26-414c-a14a-71eacb34fe7b .text-overlay text.label{font-family:Helvetica,Arial,sans-serif;font-size:15px}#chart-55d0c7fc-dd26-414c-a14a-71eacb34fe7b .tooltip{font-family:Helvetica,Arial,sans-serif;font-size:14px}#chart-55d0c7fc-dd26-414c-a14a-71eacb34fe7b text.no_data{font-family:Helvetica,Arial,sans-serif;font-size:64px}
#chart-55d0c7fc-dd26-414c-a14a-71eacb34fe7b{background-color:transparent}#chart-55d0c7fc-dd26-414c-a14a-71eacb34fe7b path,#chart-55d0c7fc-dd26-414c-a14a-71eacb34fe7b line,#chart-55d0c7fc-dd26-414c-a14a-71eacb34fe7b rect,#chart-55d0c7fc-dd26-414c-a14a-71eacb34fe7b circle{-webkit-transition:150ms;-moz-transition:150ms;transition:150ms}#chart-55d0c7fc-dd26-414c-a14a-71eacb34fe7b .graph &gt; .background{fill:transparent}#chart-55d0c7fc-dd26-414c-a14a-71eacb34fe7b .plot &gt; .background{fill:white}#chart-55d0c7fc-dd26-414c-a14a-71eacb34fe7b .graph{fill:rgba(0,0,0,.87)}#chart-55d0c7fc-dd26-414c-a14a-71eacb34fe7b text.no_data{fill:rgba(0,0,0,1)}#chart-55d0c7fc-dd26-414c-a14a-71eacb34fe7b .title{fill:rgba(0,0,0,1)}#chart-55d0c7fc-dd26-414c-a14a-71eacb34fe7b .legends .legend text{fill:rgba(0,0,0,.87)}#chart-55d0c7fc-dd26-414c-a14a-71eacb34fe7b .legends .legend:hover text{fill:rgba(0,0,0,1)}#chart-55d0c7fc-dd26-414c-a14a-71eacb34fe7b .axis .line{stroke:rgba(0,0,0,1)}#chart-55d0c7fc-dd26-414c-a14a-71eacb34fe7b .axis .guide.line{stroke:rgba(0,0,0,.54)}#chart-55d0c7fc-dd26-414c-a14a-71eacb34fe7b .axis .major.line{stroke:rgba(0,0,0,.87)}#chart-55d0c7fc-dd26-414c-a14a-71eacb34fe7b .axis text.major{fill:rgba(0,0,0,1)}#chart-55d0c7fc-dd26-414c-a14a-71eacb34fe7b .axis.y .guides:hover .guide.line,#chart-55d0c7fc-dd26-414c-a14a-71eacb34fe7b .line-graph .axis.x .guides:hover .guide.line,#chart-55d0c7fc-dd26-414c-a14a-71eacb34fe7b .stackedline-graph .axis.x .guides:hover .guide.line,#chart-55d0c7fc-dd26-414c-a14a-71eacb34fe7b .xy-graph .axis.x .guides:hover .guide.line{stroke:rgba(0,0,0,1)}#chart-55d0c7fc-dd26-414c-a14a-71eacb34fe7b .axis .guides:hover text{fill:rgba(0,0,0,1)}#chart-55d0c7fc-dd26-414c-a14a-71eacb34fe7b .reactive{fill-opacity:.7;stroke-opacity:.8}#chart-55d0c7fc-dd26-414c-a14a-71eacb34fe7b .ci{stroke:rgba(0,0,0,.87)}#chart-55d0c7fc-dd26-414c-a14a-71eacb34fe7b .reactive.active,#chart-55d0c7fc-dd26-414c-a14a-71eacb34fe7b .active .reactive{fill-opacity:.8;stroke-opacity:.9;stroke-width:4}#chart-55d0c7fc-dd26-414c-a14a-71eacb34fe7b .ci .reactive.active{stroke-width:1.5}#chart-55d0c7fc-dd26-414c-a14a-71eacb34fe7b .series text{fill:rgba(0,0,0,1)}#chart-55d0c7fc-dd26-414c-a14a-71eacb34fe7b .tooltip rect{fill:white;stroke:rgba(0,0,0,1);-webkit-transition:opacity 150ms;-moz-transition:opacity 150ms;transition:opacity 150ms}#chart-55d0c7fc-dd26-414c-a14a-71eacb34fe7b .tooltip .label{fill:rgba(0,0,0,.87)}#chart-55d0c7fc-dd26-414c-a14a-71eacb34fe7b .tooltip .label{fill:rgba(0,0,0,.87)}#chart-55d0c7fc-dd26-414c-a14a-71eacb34fe7b .tooltip .legend{font-size:.8em;fill:rgba(0,0,0,.54)}#chart-55d0c7fc-dd26-414c-a14a-71eacb34fe7b .tooltip .x_label{font-size:.6em;fill:rgba(0,0,0,1)}#chart-55d0c7fc-dd26-414c-a14a-71eacb34fe7b .tooltip .xlink{font-size:.5em;text-decoration:underline}#chart-55d0c7fc-dd26-414c-a14a-71eacb34fe7b .tooltip .value{font-size:1.5em}#chart-55d0c7fc-dd26-414c-a14a-71eacb34fe7b .bound{font-size:.5em}#chart-55d0c7fc-dd26-414c-a14a-71eacb34fe7b .max-value{font-size:.75em;fill:rgba(0,0,0,.54)}#chart-55d0c7fc-dd26-414c-a14a-71eacb34fe7b .map-element{fill:white;stroke:rgba(0,0,0,.54) !important}#chart-55d0c7fc-dd26-414c-a14a-71eacb34fe7b .map-element .reactive{fill-opacity:inherit;stroke-opacity:inherit}#chart-55d0c7fc-dd26-414c-a14a-71eacb34fe7b .color-0,#chart-55d0c7fc-dd26-414c-a14a-71eacb34fe7b .color-0 a:visited{stroke:#F44336;fill:#F44336}#chart-55d0c7fc-dd26-414c-a14a-71eacb34fe7b .color-1,#chart-55d0c7fc-dd26-414c-a14a-71eacb34fe7b .color-1 a:visited{stroke:#3F51B5;fill:#3F51B5}#chart-55d0c7fc-dd26-414c-a14a-71eacb34fe7b .color-2,#chart-55d0c7fc-dd26-414c-a14a-71eacb34fe7b .color-2 a:visited{stroke:#009688;fill:#009688}#chart-55d0c7fc-dd26-414c-a14a-71eacb34fe7b .text-overlay .color-0 text{fill:black}#chart-55d0c7fc-dd26-414c-a14a-71eacb34fe7b .text-overlay .color-1 text{fill:black}#chart-55d0c7fc-dd26-414c-a14a-71eacb34fe7b .text-overlay .color-2 text{fill:black}
#chart-55d0c7fc-dd26-414c-a14a-71eacb34fe7b text.no_data{text-anchor:middle}#chart-55d0c7fc-dd26-414c-a14a-71eacb34fe7b .guide.line{fill:none}#chart-55d0c7fc-dd26-414c-a14a-71eacb34fe7b .centered{text-anchor:middle}#chart-55d0c7fc-dd26-414c-a14a-71eacb34fe7b .title{text-anchor:middle}#chart-55d0c7fc-dd26-414c-a14a-71eacb34fe7b .legends .legend text{fill-opacity:1}#chart-55d0c7fc-dd26-414c-a14a-71eacb34fe7b .axis.x text{text-anchor:middle}#chart-55d0c7fc-dd26-414c-a14a-71eacb34fe7b .axis.x:not(.web) text[transform]{text-anchor:start}#chart-55d0c7fc-dd26-414c-a14a-71eacb34fe7b .axis.x:not(.web) text[transform].backwards{text-anchor:end}#chart-55d0c7fc-dd26-414c-a14a-71eacb34fe7b .axis.y text{text-anchor:end}#chart-55d0c7fc-dd26-414c-a14a-71eacb34fe7b .axis.y text[transform].backwards{text-anchor:start}#chart-55d0c7fc-dd26-414c-a14a-71eacb34fe7b .axis.y2 text{text-anchor:start}#chart-55d0c7fc-dd26-414c-a14a-71eacb34fe7b .axis.y2 text[transform].backwards{text-anchor:end}#chart-55d0c7fc-dd26-414c-a14a-71eacb34fe7b .axis .guide.line{stroke-dasharray:1}#chart-55d0c7fc-dd26-414c-a14a-71eacb34fe7b .axis .major.guide.line{stroke-dasharray:1}#chart-55d0c7fc-dd26-414c-a14a-71eacb34fe7b .horizontal .axis.y .guide.line,#chart-55d0c7fc-dd26-414c-a14a-71eacb34fe7b .horizontal .axis.y2 .guide.line,#chart-55d0c7fc-dd26-414c-a14a-71eacb34fe7b .vertical .axis.x .guide.line{opacity:0}#chart-55d0c7fc-dd26-414c-a14a-71eacb34fe7b .horizontal .axis.always_show .guide.line,#chart-55d0c7fc-dd26-414c-a14a-71eacb34fe7b .vertical .axis.always_show .guide.line{opacity:1 !important}#chart-55d0c7fc-dd26-414c-a14a-71eacb34fe7b .axis.y .guides:hover .guide.line,#chart-55d0c7fc-dd26-414c-a14a-71eacb34fe7b .axis.y2 .guides:hover .guide.line,#chart-55d0c7fc-dd26-414c-a14a-71eacb34fe7b .axis.x .guides:hover .guide.line{opacity:1}#chart-55d0c7fc-dd26-414c-a14a-71eacb34fe7b .axis .guides:hover text{opacity:1}#chart-55d0c7fc-dd26-414c-a14a-71eacb34fe7b .nofill{fill:none}#chart-55d0c7fc-dd26-414c-a14a-71eacb34fe7b .subtle-fill{fill-opacity:.2}#chart-55d0c7fc-dd26-414c-a14a-71eacb34fe7b .dot{stroke-width:1px;fill-opacity:1}#chart-55d0c7fc-dd26-414c-a14a-71eacb34fe7b .dot.active{stroke-width:5px}#chart-55d0c7fc-dd26-414c-a14a-71eacb34fe7b .dot.negative{fill:transparent}#chart-55d0c7fc-dd26-414c-a14a-71eacb34fe7b text,#chart-55d0c7fc-dd26-414c-a14a-71eacb34fe7b tspan{stroke:none !important}#chart-55d0c7fc-dd26-414c-a14a-71eacb34fe7b .series text.active{opacity:1}#chart-55d0c7fc-dd26-414c-a14a-71eacb34fe7b .tooltip rect{fill-opacity:.95;stroke-width:.5}#chart-55d0c7fc-dd26-414c-a14a-71eacb34fe7b .tooltip text{fill-opacity:1}#chart-55d0c7fc-dd26-414c-a14a-71eacb34fe7b .showable{visibility:hidden}#chart-55d0c7fc-dd26-414c-a14a-71eacb34fe7b .showable.shown{visibility:visible}#chart-55d0c7fc-dd26-414c-a14a-71eacb34fe7b .gauge-background{fill:rgba(229,229,229,1);stroke:none}#chart-55d0c7fc-dd26-414c-a14a-71eacb34fe7b .bg-lines{stroke:transparent;stroke-width:2px}</style><script type="text/javascript">window.pygal = window.pygal || {};window.pygal.config = window.pygal.config || {};window.pygal.config['55d0c7fc-dd26-414c-a14a-71eacb34fe7b'] = {"allow_interruptions": false, "box_mode": "extremes", "classes": ["pygal-chart"], "css": ["file://style.css", "file://graph.css"], "defs": [], "disable_xml_declaration": false, "dots_size": 2.5, "dynamic_print_values": false, "explicit_size": false, "fill": false, "force_uri_protocol": "https", "formatter": null, "half_pie": false, "height": 600, "include_x_axis": false, "inner_radius": 0, "interpolate": null, "interpolation_parameters": {}, "interpolation_precision": 250, "inverse_y_axis": false, "js": ["//kozea.github.io/pygal.js/2.0.x/pygal-tooltips.min.js"], "legend_at_bottom": true, "legend_at_bottom_columns": 2, "legend_box_size": 12, "logarithmic": false, "margin": 20, "margin_bottom": 55, "margin_left": null, "margin_right": null, "margin_top": null, "max_scale": 16, "min_scale": 4, "missing_value_fill_truncation": "x", "no_data_text": "No data", "no_prefix": false, "order_min": null, "pretty_print": false, "print_labels": false, "print_values": false, "print_values_position": "center", "print_zeroes": true, "range": [0.0, 30.0], "rounded_bars": null, "secondary_range": null, "show_dots": true, "show_legend": true, "show_minor_x_labels": false, "show_minor_y_labels": true, "show_only_major_dots": true, "show_x_guides": true, "show_x_labels": true, "show_y_guides": true, "show_y_labels": true, "spacing": 10, "stack_from_top": false, "strict": false, "stroke": true, "stroke_style": null, "style": {"background": "transparent", "ci_colors": [], "colors": ["#F44336", "#3F51B5", "#009688", "#FFC107", "#FF5722", "#9C27B0", "#03A9F4", "#8BC34A", "#FF9800", "#E91E63", "#2196F3", "#4CAF50", "#FFEB3B", "#673AB7", "#00BCD4", "#CDDC39", "#9E9E9E", "#607D8B"], "font_family": "Helvetica, Arial, sans-serif", "foreground": "rgba(0, 0, 0, .87)", "foreground_strong": "rgba(0, 0, 0, 1)", "foreground_subtle": "rgba(0, 0, 0, .54)", "guide_stroke_dasharray": 1, "label_font_family": "Helvetica, Arial, sans-serif", "label_font_size": 15, "legend_font_family": "Helvetica, Arial, sans-serif", "legend_font_size": 15, "major_guide_stroke_dasharray": 1, "major_label_font_family": "Helvetica, Arial, sans-serif", "major_label_font_size": 15, "no_data_font_family": "Helvetica, Arial, sans-serif", "no_data_font_size": 64, "opacity": ".7", "opacity_hover": ".8", "plot_background": "white", "stroke_opacity": ".8", "stroke_opacity_hover": ".9", "title_font_family": "Helvetica, Arial, sans-serif", "title_font_size": 18, "tooltip_font_family": "Helvetica, Arial, sans-serif", "tooltip_font_size": 14, "transition": "150ms", "value_background": "rgba(229, 229, 229, 1)", "value_colors": [], "value_font_family": "Helvetica, Arial, sans-serif", "value_font_size": 15, "value_label_font_family": "Helvetica, Arial, sans-serif", "value_label_font_size": 15}, "title": "Percentage of Annotations for T \u00b15.0 BPM", "tooltip_border_radius": 0, "tooltip_fancy_mode": true, "truncate_label": null, "truncate_legend": -1, "width": 800, "x_label_rotation": 90, "x_labels": ["0.0", "1.0", "2.0", "3.0", "4.0", "5.0", "6.0", "7.0", "8.0", "9.0", "10.0", "11.0", "12.0", "13.0", "14.0", "15.0", "16.0", "17.0", "18.0", "19.0", "20.0", "21.0", "22.0", "23.0", "24.0", "25.0", "26.0", "27.0", "28.0", "29.0", "30.0", "31.0", "32.0", "33.0", "34.0", "35.0", "36.0", "37.0", "38.0", "39.0", "40.0", "41.0", "42.0", "43.0", "44.0", "45.0", "46.0", "47.0", "48.0", "49.0", "50.0", "51.0", "52.0", "53.0", "54.0", "55.0", "56.0", "57.0", "58.0", "59.0", "60.0", "61.0", "62.0", "63.0", "64.0", "65.0", "66.0", "67.0", "68.0", "69.0", "70.0", "71.0", "72.0", "73.0", "74.0", "75.0", "76.0", "77.0", "78.0", "79.0", "80.0", "81.0", "82.0", "83.0", "84.0", "85.0", "86.0", "87.0", "88.0", "89.0", "90.0", "91.0", "92.0", "93.0", "94.0", "95.0", "96.0", "97.0", "98.0", "99.0", "100.0", "101.0", "102.0", "103.0", "104.0", "105.0", "106.0", "107.0", "108.0", "109.0", "110.0", "111.0", "112.0", "113.0", "114.0", "115.0", "116.0", "117.0", "118.0", "119.0", "120.0", "121.0", "122.0", "123.0", "124.0", "125.0", "126.0", "127.0", "128.0", "129.0", "130.0", "131.0", "132.0", "133.0", "134.0", "135.0", "136.0", "137.0", "138.0", "139.0", "140.0", "141.0", "142.0", "143.0", "144.0", "145.0", "146.0", "147.0", "148.0", "149.0", "150.0", "151.0", "152.0", "153.0", "154.0", "155.0", "156.0", "157.0", "158.0", "159.0", "160.0", "161.0", "162.0", "163.0", "164.0", "165.0", "166.0", "167.0", "168.0", "169.0", "170.0", "171.0", "172.0", "173.0", "174.0", "175.0", "176.0", "177.0", "178.0", "179.0", "180.0", "181.0", "182.0", "183.0", "184.0", "185.0", "186.0", "187.0", "188.0", "189.0", "190.0", "191.0", "192.0", "193.0", "194.0", "195.0", "196.0", "197.0", "198.0", "199.0", "200.0", "201.0", "202.0", "203.0", "204.0", "205.0", "206.0", "207.0", "208.0", "209.0", "210.0", "211.0", "212.0", "213.0", "214.0", "215.0", "216.0", "217.0", "218.0", "219.0", "220.0", "221.0", "222.0", "223.0", "224.0", "225.0", "226.0", "227.0", "228.0", "229.0", "230.0", "231.0", "232.0", "233.0", "234.0", "235.0", "236.0", "237.0", "238.0", "239.0", "240.0", "241.0", "242.0", "243.0", "244.0", "245.0", "246.0", "247.0", "248.0", "249.0", "250.0", "251.0", "252.0", "253.0", "254.0", "255.0", "256.0", "257.0", "258.0", "259.0", "260.0", "261.0", "262.0", "263.0", "264.0", "265.0", "266.0", "267.0", "268.0", "269.0", "270.0", "271.0", "272.0", "273.0", "274.0", "275.0", "276.0", "277.0", "278.0", "279.0", "280.0", "281.0", "282.0", "283.0", "284.0", "285.0", "286.0", "287.0", "288.0", "289.0", "290.0", "291.0", "292.0", "293.0", "294.0", "295.0", "296.0", "297.0", "298.0", "299.0", "300.0"], "x_labels_major": null, "x_labels_major_count": 11, "x_labels_major_every": null, "x_title": "T (BPM)", "xrange": null, "y_label_rotation": 0, "y_labels": null, "y_labels_major": null, "y_labels_major_count": null, "y_labels_major_every": null, "y_title": "Values (%)", "zero": 0, "legends": ["1.0", "2.0", "3.0"]}</script><script type="text/javascript" xlink:href="https://kozea.github.io/pygal.js/2.0.x/pygal-tooltips.min.js"/></defs><title>Percentage of Annotations for T ±5.0 BPM</title><g class="graph line-graph vertical"><rect class="background" height="600" width="800" x="0" y="0"/><g class="plot" transform="translate(94, 48)"><rect class="background" height="389.0" width="686.0" x="0" y="0"/><g class="axis y always_show"><g class="guides"><path class="major line" d="M0.000000 381.519231 h686.000000"/><text class="major" x="-5" y="386.7692307692308">0.0</text><title>0.0</title></g><g class="guides"><path class="guide line" d="M0.000000 356.583333 h686.000000"/><text class="" x="-5" y="361.8333333333333">2.0</text><title>2.0</title></g><g class="guides"><path class="guide line" d="M0.000000 331.647436 h686.000000"/><text class="" x="-5" y="336.8974358974359">4.0</text><title>4.0</title></g><g class="guides"><path class="guide line" d="M0.000000 306.711538 h686.000000"/><text class="" x="-5" y="311.96153846153845">6.0</text><title>6.0</title></g><g class="guides"><path class="guide line" d="M0.000000 281.775641 h686.000000"/><text class="" x="-5" y="287.02564102564105">8.0</text><title>8.0</title></g><g class="guides"><path class="major guide line" d="M0.000000 256.839744 h686.000000"/><text class="major" x="-5" y="262.08974358974365">10.0</text><title>10.0</title></g><g class="guides"><path class="guide line" d="M0.000000 231.903846 h686.000000"/><text class="" x="-5" y="237.1538461538462">12.0</text><title>12.0</title></g><g class="guides"><path class="guide line" d="M0.000000 206.967949 h686.000000"/><text class="" x="-5" y="212.21794871794876">14.0</text><title>14.0</title></g><g class="guides"><path class="guide line" d="M0.000000 182.032051 h686.000000"/><text class="" x="-5" y="187.28205128205127">16.0</text><title>16.0</title></g><g class="guides"><path class="guide line" d="M0.000000 157.096154 h686.000000"/><text class="" x="-5" y="162.34615384615384">18.0</text><title>18.0</title></g><g class="guides"><path class="major guide line" d="M0.000000 132.160256 h686.000000"/><text class="major" x="-5" y="137.4102564102564">20.0</text><title>20.0</title></g><g class="guides"><path class="guide line" d="M0.000000 107.224359 h686.000000"/><text class="" x="-5" y="112.47435897435895">22.0</text><title>22.0</title></g><g class="guides"><path class="guide line" d="M0.000000 82.288462 h686.000000"/><text class="" x="-5" y="87.53846153846155">24.0</text><title>24.0</title></g><g class="guides"><path class="guide line" d="M0.000000 57.352564 h686.000000"/><text class="" x="-5" y="62.60256410256409">26.0</text><title>26.0</title></g><g class="guides"><path class="guide line" d="M0.000000 32.416667 h686.000000"/><text class="" x="-5" y="37.66666666666663">28.0</text><title>28.0</title></g><g class="guides"><path class="major guide line" d="M0.000000 7.480769 h686.000000"/><text class="major" x="-5" y="12.730769230769226">30.0</text><title>30.0</title></g></g><g class="axis x always_show"><g class="guides"><path class="major line" d="M13.192308 0.000000 v389.000000"/><text class="major" x="13.192307692307692" y="406.5" transform="rotate(90 13.192308 406.500000)">0.0</text></g><g class="guides"><path class="major guide line" d="M79.153846 0.000000 v389.000000"/><text class="major" x="79.15384615384616" y="406.5" transform="rotate(90 79.153846 406.500000)">30.0</text></g><g class="guides"><path class="major guide line" d="M145.115385 0.000000 v389.000000"/><text class="major" x="145.11538461538458" y="406.5" transform="rotate(90 145.115385 406.500000)">60.0</text></g><g class="guides"><path class="major guide line" d="M211.076923 0.000000 v389.000000"/><text class="major" x="211.07692307692307" y="406.5" transform="rotate(90 211.076923 406.500000)">90.0</text></g><g class="guides"><path class="major guide line" d="M277.038462 0.000000 v389.000000"/><text class="major" x="277.03846153846155" y="406.5" transform="rotate(90 277.038462 406.500000)">120.0</text></g><g class="guides"><path class="major guide line" d="M343.000000 0.000000 v389.000000"/><text class="major" x="343.0" y="406.5" transform="rotate(90 343.000000 406.500000)">150.0</text></g><g class="guides"><path class="major guide line" d="M408.961538 0.000000 v389.000000"/><text class="major" x="408.96153846153845" y="406.5" transform="rotate(90 408.961538 406.500000)">180.0</text></g><g class="guides"><path class="major guide line" d="M474.923077 0.000000 v389.000000"/><text class="major" x="474.92307692307685" y="406.5" transform="rotate(90 474.923077 406.500000)">210.0</text></g><g class="guides"><path class="major guide line" d="M540.884615 0.000000 v389.000000"/><text class="major" x="540.8846153846155" y="406.5" transform="rotate(90 540.884615 406.500000)">240.0</text></g><g class="guides"><path class="major guide line" d="M606.846154 0.000000 v389.000000"/><text class="major" x="606.8461538461538" y="406.5" transform="rotate(90 606.846154 406.500000)">270.0</text></g><g class="guides"><path class="major guide line" d="M672.807692 0.000000 v389.000000"/><text class="major" x="672.8076923076923" y="406.5" transform="rotate(90 672.807692 406.500000)">300.0</text></g></g><g class="series serie-0 color-0"><path class="line reactive nofill" d="M13.192308 381.519231 L15.391026 381.519231 17.589744 381.519231 19.788462 381.519231 21.987179 381.519231 24.185897 381.519231 26.384615 381.519231 28.583333 381.519231 30.782051 381.519231 32.980769 381.519231 35.179487 381.519231 37.378205 381.519231 39.576923 381.519231 41.775641 381.519231 43.974359 381.519231 46.173077 381.519231 48.371795 381.519231 50.570513 381.519231 52.769231 381.519231 54.967949 381.519231 57.166667 381.519231 59.365385 381.519231 61.564103 381.519231 63.762821 381.519231 65.961538 381.519231 68.160256 381.519231 70.358974 381.519231 72.557692 381.519231 74.756410 381.519231 76.955128 381.519231 79.153846 381.519231 81.352564 381.519231 83.551282 381.519231 85.750000 381.519231 87.948718 381.519231 90.147436 381.519231 92.346154 381.519231 94.544872 381.519231 96.743590 381.519231 98.942308 381.519231 101.141026 381.519231 103.339744 381.519231 105.538462 381.519231 107.737179 381.519231 109.935897 381.519231 112.134615 381.519231 114.333333 381.519231 116.532051 381.519231 118.730769 381.519231 120.929487 381.519231 123.128205 381.519231 125.326923 381.519231 127.525641 381.519231 129.724359 381.519231 131.923077 381.519231 134.121795 379.732992 136.320513 379.732992 138.519231 379.732992 140.717949 379.732992 142.916667 379.732992 145.115385 379.732992 147.314103 379.732992 149.512821 379.732992 151.711538 377.946753 153.910256 377.946753 156.108974 377.946753 158.307692 379.732992 160.506410 377.946753 162.705128 377.946753 164.903846 376.160514 167.102564 376.160514 169.301282 367.229318 171.500000 367.229318 173.698718 367.229318 175.897436 369.015557 178.096154 365.443079 180.294872 363.656840 182.493590 363.656840 184.692308 365.443079 186.891026 297.565994 189.089744 299.352233 191.288462 297.565994 193.487179 199.322845 195.685897 188.605411 197.884615 188.605411 200.083333 183.246694 202.282051 185.032933 204.480769 170.743020 206.679487 170.743020 208.878205 167.170542 211.076923 235.047627 213.275641 210.040280 215.474359 211.826519 217.673077 317.214624 219.871795 327.932059 222.070513 206.467802 224.269231 211.826519 226.467949 165.384303 228.666667 181.460455 230.865385 111.797131 233.064103 115.369609 235.262821 113.583370 237.461538 138.590717 239.660256 133.232000 241.858974 133.232000 244.057692 133.232000 246.256410 254.696257 248.455128 249.337539 250.653846 297.565994 252.852564 297.565994 255.051282 363.656840 257.250000 349.366927 259.448718 347.580688 261.647436 345.794449 263.846154 351.153167 266.044872 333.290776 268.243590 333.290776 270.442308 327.932059 272.641026 331.504537 274.839744 181.460455 277.038462 181.460455 279.237179 185.032933 281.435897 199.322845 283.634615 67.141154 285.833333 68.927393 288.032051 67.141154 290.230769 86.789784 292.429487 65.354915 294.628205 70.713632 296.826923 72.499871 299.025641 220.757714 301.224359 213.612758 303.423077 213.612758 305.621795 213.612758 307.820513 349.366927 310.019231 349.366927 312.217949 349.366927 314.416667 349.366927 316.615385 370.801796 318.814103 369.015557 321.012821 369.015557 323.211538 370.801796 325.410256 377.946753 327.608974 377.946753 329.807692 377.946753 332.006410 377.946753 334.205128 377.946753 336.403846 379.732992 338.602564 372.588035 340.801282 372.588035 343.000000 374.374274 345.198718 374.374274 347.397436 374.374274 349.596154 374.374274 351.794872 374.374274 353.993590 369.015557 356.192308 369.015557 358.391026 369.015557 360.589744 369.015557 362.788462 370.801796 364.987179 370.801796 367.185897 370.801796 369.384615 370.801796 371.583333 358.298123 373.782051 358.298123 375.980769 358.298123 378.179487 363.656840 380.378205 326.145820 382.576923 326.145820 384.775641 306.497190 386.974359 311.855907 389.173077 281.489843 391.371795 249.337539 393.570513 249.337539 395.769231 261.841213 397.967949 195.750367 400.166667 195.750367 402.365385 195.750367 404.564103 233.261388 406.762821 233.261388 408.961538 252.910018 411.160256 252.910018 413.358974 283.276082 415.557692 315.428385 417.756410 315.428385 419.955128 315.428385 422.153846 381.519231 424.352564 381.519231 426.551282 381.519231 428.750000 381.519231 430.948718 381.519231 433.147436 381.519231 435.346154 381.519231 437.544872 381.519231 439.743590 381.519231 441.942308 345.794449 444.141026 345.794449 446.339744 344.008210 448.538462 344.008210 450.737179 274.344886 452.935897 274.344886 455.134615 274.344886 457.333333 274.344886 459.532051 243.978822 461.730769 243.978822 463.929487 243.978822 466.128205 279.703604 468.326923 279.703604 470.525641 281.489843 472.724359 279.703604 474.923077 349.366927 477.121795 349.366927 479.320513 349.366927 481.519231 349.366927 483.717949 377.946753 485.916667 377.946753 488.115385 377.946753 490.314103 377.946753 492.512821 377.946753 494.711538 376.160514 496.910256 377.946753 499.108974 377.946753 501.307692 377.946753 503.506410 377.946753 505.705128 377.946753 507.903846 379.732992 510.102564 379.732992 512.301282 379.732992 514.500000 379.732992 516.698718 379.732992 518.897436 381.519231 521.096154 381.519231 523.294872 381.519231 525.493590 381.519231 527.692308 381.519231 529.891026 381.519231 532.089744 381.519231 534.288462 381.519231 536.487179 381.519231 538.685897 381.519231 540.884615 381.519231 543.083333 381.519231 545.282051 381.519231 547.480769 381.519231 549.679487 381.519231 551.878205 381.519231 554.076923 381.519231 556.275641 381.519231 558.474359 381.519231 560.673077 381.519231 562.871795 381.519231 565.070513 381.519231 567.269231 381.519231 569.467949 381.519231 571.666667 381.519231 573.865385 381.519231 576.064103 381.519231 578.262821 381.519231 580.461538 381.519231 582.660256 381.519231 584.858974 381.519231 587.057692 381.519231 589.256410 381.519231 591.455128 381.519231 593.653846 381.519231 595.852564 381.519231 598.051282 381.519231 600.250000 381.519231 602.448718 381.519231 604.647436 381.519231 606.846154 381.519231 609.044872 381.519231 611.243590 381.519231 613.442308 381.519231 615.641026 381.519231 617.839744 381.519231 620.038462 381.519231 622.237179 381.519231 624.435897 381.519231 626.634615 381.519231 628.833333 381.519231 631.032051 381.519231 633.230769 381.519231 635.429487 381.519231 637.628205 381.519231 639.826923 381.519231 642.025641 381.519231 644.224359 381.519231 646.423077 381.519231 648.621795 381.519231 650.820513 381.519231 653.019231 381.519231 655.217949 381.519231 657.416667 381.519231 659.615385 381.519231 661.814103 381.519231 664.012821 381.519231 666.211538 381.519231 668.410256 381.519231 670.608974 381.519231 672.807692 381.519231"/></g><g class="series serie-1 color-1"><path class="line reactive nofill" d="M13.192308 381.519231 L15.391026 381.519231 17.589744 381.519231 19.788462 381.519231 21.987179 381.519231 24.185897 381.519231 26.384615 381.519231 28.583333 381.519231 30.782051 381.519231 32.980769 381.519231 35.179487 381.519231 37.378205 381.519231 39.576923 381.519231 41.775641 381.519231 43.974359 381.519231 46.173077 381.519231 48.371795 381.519231 50.570513 381.519231 52.769231 381.519231 54.967949 381.519231 57.166667 381.519231 59.365385 381.519231 61.564103 381.519231 63.762821 381.519231 65.961538 381.519231 68.160256 381.519231 70.358974 381.519231 72.557692 381.519231 74.756410 381.519231 76.955128 381.519231 79.153846 381.519231 81.352564 381.519231 83.551282 381.519231 85.750000 381.519231 87.948718 381.519231 90.147436 381.519231 92.346154 381.519231 94.544872 381.519231 96.743590 381.519231 98.942308 381.519231 101.141026 381.519231 103.339744 381.519231 105.538462 381.519231 107.737179 381.519231 109.935897 381.519231 112.134615 381.519231 114.333333 381.519231 116.532051 381.519231 118.730769 381.519231 120.929487 381.519231 123.128205 381.519231 125.326923 381.519231 127.525641 381.519231 129.724359 381.519231 131.923077 381.519231 134.121795 381.519231 136.320513 381.519231 138.519231 381.519231 140.717949 381.519231 142.916667 381.519231 145.115385 381.519231 147.314103 381.519231 149.512821 381.519231 151.711538 381.519231 153.910256 379.732992 156.108974 379.732992 158.307692 379.732992 160.506410 379.732992 162.705128 379.732992 164.903846 377.946753 167.102564 376.160514 169.301282 369.015557 171.500000 367.229318 173.698718 367.229318 175.897436 365.443079 178.096154 363.656840 180.294872 360.084362 182.493590 356.511884 184.692308 349.366927 186.891026 324.359580 189.089744 293.993516 191.288462 288.634799 193.487179 213.612758 195.685897 192.177889 197.884615 183.246694 200.083333 177.887977 202.282051 179.674216 204.480769 174.315498 206.679487 174.315498 208.878205 199.322845 211.076923 231.475149 213.275641 227.902671 215.474359 295.779755 217.673077 313.642146 219.871795 326.145820 222.070513 236.833866 224.269231 215.398997 226.467949 192.177889 228.666667 181.460455 230.865385 120.728326 233.064103 113.583370 235.262821 118.942087 237.461538 136.804478 239.660256 140.376956 241.858974 136.804478 244.057692 226.116432 246.256410 254.696257 248.455128 285.062321 250.653846 299.352233 252.852564 360.084362 255.051282 360.084362 257.250000 352.939406 259.448718 349.366927 261.647436 345.794449 263.846154 345.794449 266.044872 335.077015 268.243590 333.290776 270.442308 327.932059 272.641026 326.145820 274.839744 222.543953 277.038462 193.964128 279.237179 193.964128 281.435897 183.246694 283.634615 131.445761 285.833333 95.720979 288.032051 101.079697 290.230769 97.507218 292.429487 88.576023 294.628205 85.003545 296.826923 188.605411 299.025641 215.398997 301.224359 226.116432 303.423077 236.833866 305.621795 290.421038 307.820513 331.504537 310.019231 335.077015 312.217949 342.221971 314.416667 358.298123 316.615385 365.443079 318.814103 367.229318 321.012821 372.588035 323.211538 374.374274 325.410256 377.946753 327.608974 377.946753 329.807692 377.946753 332.006410 377.946753 334.205128 379.732992 336.403846 379.732992 338.602564 381.519231 340.801282 381.519231 343.000000 381.519231 345.198718 381.519231 347.397436 381.519231 349.596154 381.519231 351.794872 381.519231 353.993590 376.160514 356.192308 376.160514 358.391026 372.588035 360.589744 372.588035 362.788462 370.801796 364.987179 370.801796 367.185897 370.801796 369.384615 367.229318 371.583333 360.084362 373.782051 356.511884 375.980769 356.511884 378.179487 358.298123 380.378205 340.435732 382.576923 326.145820 384.775641 317.214624 386.974359 304.710951 389.173077 283.276082 391.371795 258.268735 393.570513 256.482496 395.769231 251.123779 397.967949 213.612758 400.166667 206.467802 402.365385 224.330192 404.564103 238.620105 406.762821 247.551300 408.961538 260.054974 411.160256 281.489843 413.358974 310.069668 415.557692 319.000863 417.756410 327.932059 419.955128 351.153167 422.153846 376.160514 424.352564 379.732992 426.551282 379.732992 428.750000 381.519231 430.948718 381.519231 433.147436 381.519231 435.346154 379.732992 437.544872 379.732992 439.743590 379.732992 441.942308 369.015557 444.141026 349.366927 446.339744 342.221971 448.538462 336.863254 450.737179 306.497190 452.935897 283.276082 455.134615 270.772408 457.333333 265.413691 459.532051 252.910018 461.730769 242.192583 463.929487 251.123779 466.128205 270.772408 468.326923 277.917365 470.525641 281.489843 472.724359 311.855907 474.923077 333.290776 477.121795 345.794449 479.320513 352.939406 481.519231 365.443079 483.717949 376.160514 485.916667 376.160514 488.115385 377.946753 490.314103 377.946753 492.512821 379.732992 494.711538 379.732992 496.910256 381.519231 499.108974 381.519231 501.307692 381.519231 503.506410 381.519231 505.705128 381.519231 507.903846 381.519231 510.102564 381.519231 512.301282 381.519231 514.500000 381.519231 516.698718 381.519231 518.897436 381.519231 521.096154 381.519231 523.294872 381.519231 525.493590 381.519231 527.692308 381.519231 529.891026 381.519231 532.089744 381.519231 534.288462 381.519231 536.487179 381.519231 538.685897 381.519231 540.884615 381.519231 543.083333 381.519231 545.282051 381.519231 547.480769 381.519231 549.679487 381.519231 551.878205 381.519231 554.076923 381.519231 556.275641 381.519231 558.474359 381.519231 560.673077 381.519231 562.871795 381.519231 565.070513 381.519231 567.269231 381.519231 569.467949 381.519231 571.666667 381.519231 573.865385 381.519231 576.064103 381.519231 578.262821 381.519231 580.461538 381.519231 582.660256 381.519231 584.858974 381.519231 587.057692 381.519231 589.256410 381.519231 591.455128 381.519231 593.653846 381.519231 595.852564 381.519231 598.051282 381.519231 600.250000 381.519231 602.448718 381.519231 604.647436 381.519231 606.846154 381.519231 609.044872 381.519231 611.243590 381.519231 613.442308 381.519231 615.641026 381.519231 617.839744 381.519231 620.038462 381.519231 622.237179 381.519231 624.435897 381.519231 626.634615 381.519231 628.833333 381.519231 631.032051 381.519231 633.230769 381.519231 635.429487 381.519231 637.628205 381.519231 639.826923 381.519231 642.025641 381.519231 644.224359 381.519231 646.423077 381.519231 648.621795 381.519231 650.820513 381.519231 653.019231 381.519231 655.217949 381.519231 657.416667 381.519231 659.615385 381.519231 661.814103 381.519231 664.012821 381.519231 666.211538 381.519231 668.410256 381.519231 670.608974 381.519231 672.807692 381.519231"/></g><g class="series serie-2 color-2"><path class="line reactive nofill" d="M13.192308 381.519231 L15.391026 381.519231 17.589744 381.519231 19.788462 381.519231 21.987179 381.519231 24.185897 381.519231 26.384615 381.519231 28.583333 381.519231 30.782051 381.519231 32.980769 381.519231 35.179487 381.519231 37.378205 381.519231 39.576923 381.519231 41.775641 381.519231 43.974359 381.519231 46.173077 381.519231 48.371795 381.519231 50.570513 381.519231 52.769231 381.519231 54.967949 381.519231 57.166667 381.519231 59.365385 381.519231 61.564103 381.519231 63.762821 381.519231 65.961538 381.519231 68.160256 381.519231 70.358974 381.519231 72.557692 381.519231 74.756410 381.519231 76.955128 381.519231 79.153846 381.519231 81.352564 381.519231 83.551282 381.519231 85.750000 381.519231 87.948718 381.519231 90.147436 381.519231 92.346154 381.519231 94.544872 381.519231 96.743590 381.519231 98.942308 381.519231 101.141026 381.519231 103.339744 381.519231 105.538462 381.519231 107.737179 381.519231 109.935897 381.519231 112.134615 381.519231 114.333333 381.519231 116.532051 381.519231 118.730769 381.519231 120.929487 381.519231 123.128205 381.519231 125.326923 381.519231 127.525641 381.519231 129.724359 379.732992 131.923077 379.732992 134.121795 377.946753 136.320513 377.946753 138.519231 377.946753 140.717949 377.946753 142.916667 377.946753 145.115385 377.946753 147.314103 377.946753 149.512821 377.946753 151.711538 376.160514 153.910256 377.946753 156.108974 377.946753 158.307692 379.732992 160.506410 377.946753 162.705128 377.946753 164.903846 376.160514 167.102564 376.160514 169.301282 367.229318 171.500000 367.229318 173.698718 365.443079 175.897436 367.229318 178.096154 365.443079 180.294872 361.870601 182.493590 360.084362 184.692308 361.870601 186.891026 297.565994 189.089744 297.565994 191.288462 297.565994 193.487179 199.322845 195.685897 190.391650 197.884615 188.605411 200.083333 181.460455 202.282051 181.460455 204.480769 168.956781 206.679487 170.743020 208.878205 168.956781 211.076923 233.261388 213.275641 210.040280 215.474359 208.254041 217.673077 313.642146 219.871795 322.573341 222.070513 206.467802 224.269231 213.612758 226.467949 160.025586 228.666667 176.101738 230.865385 108.224653 233.064103 110.010892 235.262821 108.224653 237.461538 133.232000 239.660256 131.445761 241.858974 131.445761 244.057692 131.445761 246.256410 251.123779 248.455128 242.192583 250.653846 297.565994 252.852564 297.565994 255.051282 363.656840 257.250000 349.366927 259.448718 347.580688 261.647436 345.794449 263.846154 349.366927 266.044872 336.863254 268.243590 336.863254 270.442308 329.718298 272.641026 336.863254 274.839744 188.605411 277.038462 188.605411 279.237179 188.605411 281.435897 202.895324 283.634615 72.499871 285.833333 74.286110 288.032051 72.499871 290.230769 86.789784 292.429487 65.354915 294.628205 70.713632 296.826923 72.499871 299.025641 218.971475 301.224359 211.826519 303.423077 213.612758 305.621795 213.612758 307.820513 347.580688 310.019231 347.580688 312.217949 347.580688 314.416667 347.580688 316.615385 369.015557 318.814103 369.015557 321.012821 369.015557 323.211538 370.801796 325.410256 377.946753 327.608974 377.946753 329.807692 377.946753 332.006410 377.946753 334.205128 377.946753 336.403846 379.732992 338.602564 379.732992 340.801282 379.732992 343.000000 381.519231 345.198718 381.519231 347.397436 381.519231 349.596154 381.519231 351.794872 381.519231 353.993590 376.160514 356.192308 374.374274 358.391026 374.374274 360.589744 374.374274 362.788462 369.015557 364.987179 369.015557 367.185897 369.015557 369.384615 369.015557 371.583333 356.511884 373.782051 356.511884 375.980769 356.511884 378.179487 361.870601 380.378205 326.145820 382.576923 326.145820 384.775641 306.497190 386.974359 311.855907 389.173077 281.489843 391.371795 249.337539 393.570513 249.337539 395.769231 261.841213 397.967949 195.750367 400.166667 195.750367 402.365385 195.750367 404.564103 233.261388 406.762821 233.261388 408.961538 252.910018 411.160256 252.910018 413.358974 283.276082 415.557692 315.428385 417.756410 315.428385 419.955128 315.428385 422.153846 381.519231 424.352564 381.519231 426.551282 381.519231 428.750000 381.519231 430.948718 381.519231 433.147436 381.519231 435.346154 381.519231 437.544872 381.519231 439.743590 381.519231 441.942308 344.008210 444.141026 342.221971 446.339744 340.435732 448.538462 340.435732 450.737179 274.344886 452.935897 274.344886 455.134615 274.344886 457.333333 274.344886 459.532051 243.978822 461.730769 243.978822 463.929487 243.978822 466.128205 281.489843 468.326923 281.489843 470.525641 283.276082 472.724359 281.489843 474.923077 347.580688 477.121795 347.580688 479.320513 347.580688 481.519231 347.580688 483.717949 376.160514 485.916667 376.160514 488.115385 376.160514 490.314103 376.160514 492.512821 377.946753 494.711538 377.946753 496.910256 379.732992 499.108974 379.732992 501.307692 379.732992 503.506410 379.732992 505.705128 379.732992 507.903846 381.519231 510.102564 381.519231 512.301282 381.519231 514.500000 381.519231 516.698718 381.519231 518.897436 381.519231 521.096154 381.519231 523.294872 381.519231 525.493590 381.519231 527.692308 381.519231 529.891026 381.519231 532.089744 381.519231 534.288462 381.519231 536.487179 381.519231 538.685897 381.519231 540.884615 381.519231 543.083333 381.519231 545.282051 381.519231 547.480769 381.519231 549.679487 381.519231 551.878205 381.519231 554.076923 381.519231 556.275641 381.519231 558.474359 381.519231 560.673077 381.519231 562.871795 381.519231 565.070513 381.519231 567.269231 381.519231 569.467949 381.519231 571.666667 381.519231 573.865385 381.519231 576.064103 381.519231 578.262821 381.519231 580.461538 381.519231 582.660256 381.519231 584.858974 381.519231 587.057692 381.519231 589.256410 381.519231 591.455128 381.519231 593.653846 381.519231 595.852564 381.519231 598.051282 381.519231 600.250000 381.519231 602.448718 381.519231 604.647436 381.519231 606.846154 381.519231 609.044872 381.519231 611.243590 381.519231 613.442308 381.519231 615.641026 381.519231 617.839744 381.519231 620.038462 381.519231 622.237179 381.519231 624.435897 381.519231 626.634615 381.519231 628.833333 381.519231 631.032051 381.519231 633.230769 381.519231 635.429487 381.519231 637.628205 381.519231 639.826923 381.519231 642.025641 381.519231 644.224359 381.519231 646.423077 381.519231 648.621795 381.519231 650.820513 381.519231 653.019231 381.519231 655.217949 381.519231 657.416667 381.519231 659.615385 381.519231 661.814103 381.519231 664.012821 381.519231 666.211538 381.519231 668.410256 381.519231 670.608974 381.519231 672.807692 381.519231"/></g></g><g class="titles"><text class="title plot_title" x="400.0" y="28">Percentage of Annotations for T ±5.0 BPM</text><text class="title" x="437.0" y="520.0">T (BPM)</text><text class="title" x="0" y="270.5" transform="rotate(-90 0.000000 242.500000)">Values (%)</text></g><g class="plot overlay" transform="translate(94, 48)"><g class="series serie-0 color-0"><g class="dots"><circle class="dot reactive tooltip-trigger" cx="13.192307692307692" cy="381.5192307692308" r="2.5"/><desc class="value">0.0</desc><desc class="x top">13.192307692307692</desc><desc class="y top">381.5192307692308</desc><desc class="x_label">0.0</desc></g><g class="dots"><circle class="dot reactive tooltip-trigger" cx="79.15384615384616" cy="381.5192307692308" r="2.5"/><desc class="value">0.0</desc><desc class="x top">79.15384615384616</desc><desc class="y top">381.5192307692308</desc><desc class="x_label">30.0</desc></g><g class="dots"><circle class="dot reactive tooltip-trigger" cx="145.11538461538458" cy="379.7329916978914" r="2.5"/><desc class="value">0.1</desc><desc class="x top">145.11538461538458</desc><desc class="y top">379.7329916978914</desc><desc class="x_label">60.0</desc></g><g class="dots"><circle class="dot reactive tooltip-trigger" cx="211.07692307692307" cy="235.04762691940346" r="2.5"/><desc class="value">11.7</desc><desc class="x top">211.07692307692307</desc><desc class="y top">235.04762691940346</desc><desc class="x_label">90.0</desc></g><g class="dots"><circle class="dot reactive tooltip-trigger" cx="277.03846153846155" cy="181.46045477922272" r="2.5"/><desc class="value">16.0</desc><desc class="x ">277.03846153846155</desc><desc class="y ">181.46045477922272</desc><desc class="x_label">120.0</desc></g><g class="dots"><circle class="dot reactive tooltip-trigger" cx="343.0" cy="374.37427448387336" r="2.5"/><desc class="value">0.6</desc><desc class="x top">343.0</desc><desc class="y top">374.37427448387336</desc><desc class="x_label">150.0</desc></g><g class="dots"><circle class="dot reactive tooltip-trigger" cx="408.96153846153845" cy="252.910017632797" r="2.5"/><desc class="value">10.3</desc><desc class="x left top">408.96153846153845</desc><desc class="y left top">252.910017632797</desc><desc class="x_label">180.0</desc></g><g class="dots"><circle class="dot reactive tooltip-trigger" cx="474.92307692307685" cy="349.36692748512235" r="2.5"/><desc class="value">2.6</desc><desc class="x left top">474.92307692307685</desc><desc class="y left top">349.36692748512235</desc><desc class="x_label">210.0</desc></g><g class="dots"><circle class="dot reactive tooltip-trigger" cx="540.8846153846155" cy="381.5192307692308" r="2.5"/><desc class="value">0.0</desc><desc class="x left top">540.8846153846155</desc><desc class="y left top">381.5192307692308</desc><desc class="x_label">240.0</desc></g><g class="dots"><circle class="dot reactive tooltip-trigger" cx="606.8461538461538" cy="381.5192307692308" r="2.5"/><desc class="value">0.0</desc><desc class="x left top">606.8461538461538</desc><desc class="y left top">381.5192307692308</desc><desc class="x_label">270.0</desc></g><g class="dots"><circle class="dot reactive tooltip-trigger" cx="672.8076923076923" cy="381.5192307692308" r="2.5"/><desc class="value">0.0</desc><desc class="x left top">672.8076923076923</desc><desc class="y left top">381.5192307692308</desc><desc class="x_label">300.0</desc></g></g><g class="series serie-1 color-1"><g class="dots"><circle class="dot reactive tooltip-trigger" cx="13.192307692307692" cy="381.5192307692308" r="2.5"/><desc class="value">0.0</desc><desc class="x top">13.192307692307692</desc><desc class="y top">381.5192307692308</desc><desc class="x_label">0.0</desc></g><g class="dots"><circle class="dot reactive tooltip-trigger" cx="79.15384615384616" cy="381.5192307692308" r="2.5"/><desc class="value">0.0</desc><desc class="x top">79.15384615384616</desc><desc class="y top">381.5192307692308</desc><desc class="x_label">30.0</desc></g><g class="dots"><circle class="dot reactive tooltip-trigger" cx="145.11538461538458" cy="381.5192307692308" r="2.5"/><desc class="value">0.0</desc><desc class="x top">145.11538461538458</desc><desc class="y top">381.5192307692308</desc><desc class="x_label">60.0</desc></g><g class="dots"><circle class="dot reactive tooltip-trigger" cx="211.07692307692307" cy="231.47514877672475" r="2.5"/><desc class="value">12.0</desc><desc class="x top">211.07692307692307</desc><desc class="y top">231.47514877672475</desc><desc class="x_label">90.0</desc></g><g class="dots"><circle class="dot reactive tooltip-trigger" cx="277.03846153846155" cy="193.9641282785982" r="2.5"/><desc class="value">15.0</desc><desc class="x ">277.03846153846155</desc><desc class="y ">193.9641282785982</desc><desc class="x_label">120.0</desc></g><g class="dots"><circle class="dot reactive tooltip-trigger" cx="343.0" cy="381.5192307692308" r="2.5"/><desc class="value">0.0</desc><desc class="x top">343.0</desc><desc class="y top">381.5192307692308</desc><desc class="x_label">150.0</desc></g><g class="dots"><circle class="dot reactive tooltip-trigger" cx="408.96153846153845" cy="260.0549739181545" r="2.5"/><desc class="value">9.7</desc><desc class="x left top">408.96153846153845</desc><desc class="y left top">260.0549739181545</desc><desc class="x_label">180.0</desc></g><g class="dots"><circle class="dot reactive tooltip-trigger" cx="474.92307692307685" cy="333.2907758430681" r="2.5"/><desc class="value">3.9</desc><desc class="x left top">474.92307692307685</desc><desc class="y left top">333.2907758430681</desc><desc class="x_label">210.0</desc></g><g class="dots"><circle class="dot reactive tooltip-trigger" cx="540.8846153846155" cy="381.5192307692308" r="2.5"/><desc class="value">0.0</desc><desc class="x left top">540.8846153846155</desc><desc class="y left top">381.5192307692308</desc><desc class="x_label">240.0</desc></g><g class="dots"><circle class="dot reactive tooltip-trigger" cx="606.8461538461538" cy="381.5192307692308" r="2.5"/><desc class="value">0.0</desc><desc class="x left top">606.8461538461538</desc><desc class="y left top">381.5192307692308</desc><desc class="x_label">270.0</desc></g><g class="dots"><circle class="dot reactive tooltip-trigger" cx="672.8076923076923" cy="381.5192307692308" r="2.5"/><desc class="value">0.0</desc><desc class="x left top">672.8076923076923</desc><desc class="y left top">381.5192307692308</desc><desc class="x_label">300.0</desc></g></g><g class="series serie-2 color-2"><g class="dots"><circle class="dot reactive tooltip-trigger" cx="13.192307692307692" cy="381.5192307692308" r="2.5"/><desc class="value">0.0</desc><desc class="x top">13.192307692307692</desc><desc class="y top">381.5192307692308</desc><desc class="x_label">0.0</desc></g><g class="dots"><circle class="dot reactive tooltip-trigger" cx="79.15384615384616" cy="381.5192307692308" r="2.5"/><desc class="value">0.0</desc><desc class="x top">79.15384615384616</desc><desc class="y top">381.5192307692308</desc><desc class="x_label">30.0</desc></g><g class="dots"><circle class="dot reactive tooltip-trigger" cx="145.11538461538458" cy="377.94675262655204" r="2.5"/><desc class="value">0.3</desc><desc class="x top">145.11538461538458</desc><desc class="y top">377.94675262655204</desc><desc class="x_label">60.0</desc></g><g class="dots"><circle class="dot reactive tooltip-trigger" cx="211.07692307692307" cy="233.26138784806406" r="2.5"/><desc class="value">11.9</desc><desc class="x top">211.07692307692307</desc><desc class="y top">233.26138784806406</desc><desc class="x_label">90.0</desc></g><g class="dots"><circle class="dot reactive tooltip-trigger" cx="277.03846153846155" cy="188.60541106458012" r="2.5"/><desc class="value">15.5</desc><desc class="x ">277.03846153846155</desc><desc class="y ">188.60541106458012</desc><desc class="x_label">120.0</desc></g><g class="dots"><circle class="dot reactive tooltip-trigger" cx="343.0" cy="381.5192307692308" r="2.5"/><desc class="value">0.0</desc><desc class="x top">343.0</desc><desc class="y top">381.5192307692308</desc><desc class="x_label">150.0</desc></g><g class="dots"><circle class="dot reactive tooltip-trigger" cx="408.96153846153845" cy="252.910017632797" r="2.5"/><desc class="value">10.3</desc><desc class="x left top">408.96153846153845</desc><desc class="y left top">252.910017632797</desc><desc class="x_label">180.0</desc></g><g class="dots"><circle class="dot reactive tooltip-trigger" cx="474.92307692307685" cy="347.580688413783" r="2.5"/><desc class="value">2.7</desc><desc class="x left top">474.92307692307685</desc><desc class="y left top">347.580688413783</desc><desc class="x_label">210.0</desc></g><g class="dots"><circle class="dot reactive tooltip-trigger" cx="540.8846153846155" cy="381.5192307692308" r="2.5"/><desc class="value">0.0</desc><desc class="x left top">540.8846153846155</desc><desc class="y left top">381.5192307692308</desc><desc class="x_label">240.0</desc></g><g class="dots"><circle class="dot reactive tooltip-trigger" cx="606.8461538461538" cy="381.5192307692308" r="2.5"/><desc class="value">0.0</desc><desc class="x left top">606.8461538461538</desc><desc class="y left top">381.5192307692308</desc><desc class="x_label">270.0</desc></g><g class="dots"><circle class="dot reactive tooltip-trigger" cx="672.8076923076923" cy="381.5192307692308" r="2.5"/><desc class="value">0.0</desc><desc class="x left top">672.8076923076923</desc><desc class="y left top">381.5192307692308</desc><desc class="x_label">300.0</desc></g></g></g><g class="plot text-overlay" transform="translate(94, 48)"><g class="series serie-0 color-0"/><g class="series serie-1 color-1"/><g class="series serie-2 color-2"/></g><g class="plot tooltip-overlay" transform="translate(94, 48)"><g class="tooltip" style="opacity: 0" transform="translate(0 0)"><rect class="tooltip-box" height="0" rx="0" ry="0" width="0"/><g class="text"/></g></g><g class="legends" transform="translate(104, 540)"><g class="legend reactive activate-serie" id="activate-serie-0"><rect class="color-0 reactive" height="12" width="12" x="0.0" y="1.5"/><text x="17.0" y="12.0">1.0</text></g><g class="legend reactive activate-serie" id="activate-serie-1"><rect class="color-1 reactive" height="12" width="12" x="343.0" y="1.5"/><text x="360.0" y="12.0">2.0</text></g><g class="legend reactive activate-serie" id="activate-serie-2"><rect class="color-2 reactive" height="12" width="12" x="0.0" y="24.0"/><text x="17.0" y="34.5">3.0</text></g></g></g></svg>