<?xml version="1.0" encoding="utf-8" standalone="no"?>
<!DOCTYPE svg PUBLIC "-//W3C//DTD SVG 1.1//EN"
  "http://www.w3.org/Graphics/SVG/1.1/DTD/svg11.dtd">
<!-- Created with matplotlib (http://matplotlib.org/) -->
<svg height="381.426375pt" version="1.1" viewBox="0 0 635.679688 381.426375" width="635.679688pt" xmlns="http://www.w3.org/2000/svg" xmlns:xlink="http://www.w3.org/1999/xlink">
 <defs>
  <style type="text/css">
*{stroke-linecap:butt;stroke-linejoin:round;}
  </style>
 </defs>
 <g id="figure_1">
  <g id="patch_1">
   <path d="M -0 381.426375 
L 635.679688 381.426375 
L 635.679688 0 
L -0 0 
z
" style="fill:#ffffff;"/>
  </g>
  <g id="axes_1">
   <g id="patch_2">
    <path d="M 226.746875 343.870125 
L 617.346875 343.870125 
L 617.346875 22.318125 
L 226.746875 22.318125 
z
" style="fill:#ffffff;"/>
   </g>
   <g id="matplotlib.axis_1">
    <g id="xtick_1">
     <g id="line2d_1">
      <path clip-path="url(#pb656bd6438)" d="M 226.746875 343.870125 
L 226.746875 22.318125 
" style="fill:none;stroke:#b0b0b0;stroke-linecap:square;stroke-width:0.8;"/>
     </g>
     <g id="line2d_2">
      <defs>
       <path d="M 0 0 
L 0 3.5 
" id="m2644ac7f5c" style="stroke:#000000;stroke-width:0.8;"/>
      </defs>
      <g>
       <use style="stroke:#000000;stroke-width:0.8;" x="226.746875" xlink:href="#m2644ac7f5c" y="343.870125"/>
      </g>
     </g>
     <g id="text_1">
      <!-- 0.00 -->
      <defs>
       <path d="M 31.78125 66.40625 
Q 24.171875 66.40625 20.328125 58.90625 
Q 16.5 51.421875 16.5 36.375 
Q 16.5 21.390625 20.328125 13.890625 
Q 24.171875 6.390625 31.78125 6.390625 
Q 39.453125 6.390625 43.28125 13.890625 
Q 47.125 21.390625 47.125 36.375 
Q 47.125 51.421875 43.28125 58.90625 
Q 39.453125 66.40625 31.78125 66.40625 
z
M 31.78125 74.21875 
Q 44.046875 74.21875 50.515625 64.515625 
Q 56.984375 54.828125 56.984375 36.375 
Q 56.984375 17.96875 50.515625 8.265625 
Q 44.046875 -1.421875 31.78125 -1.421875 
Q 19.53125 -1.421875 13.0625 8.265625 
Q 6.59375 17.96875 6.59375 36.375 
Q 6.59375 54.828125 13.0625 64.515625 
Q 19.53125 74.21875 31.78125 74.21875 
z
" id="DejaVuSans-30"/>
       <path d="M 10.6875 12.40625 
L 21 12.40625 
L 21 0 
L 10.6875 0 
z
" id="DejaVuSans-2e"/>
      </defs>
      <g transform="translate(215.614062 358.468563)scale(0.1 -0.1)">
       <use xlink:href="#DejaVuSans-30"/>
       <use x="63.623047" xlink:href="#DejaVuSans-2e"/>
       <use x="95.410156" xlink:href="#DejaVuSans-30"/>
       <use x="159.033203" xlink:href="#DejaVuSans-30"/>
      </g>
     </g>
    </g>
    <g id="xtick_2">
     <g id="line2d_3">
      <path clip-path="url(#pb656bd6438)" d="M 275.571875 343.870125 
L 275.571875 22.318125 
" style="fill:none;stroke:#b0b0b0;stroke-linecap:square;stroke-width:0.8;"/>
     </g>
     <g id="line2d_4">
      <g>
       <use style="stroke:#000000;stroke-width:0.8;" x="275.571875" xlink:href="#m2644ac7f5c" y="343.870125"/>
      </g>
     </g>
     <g id="text_2">
      <!-- 0.25 -->
      <defs>
       <path d="M 19.1875 8.296875 
L 53.609375 8.296875 
L 53.609375 0 
L 7.328125 0 
L 7.328125 8.296875 
Q 12.9375 14.109375 22.625 23.890625 
Q 32.328125 33.6875 34.8125 36.53125 
Q 39.546875 41.84375 41.421875 45.53125 
Q 43.3125 49.21875 43.3125 52.78125 
Q 43.3125 58.59375 39.234375 62.25 
Q 35.15625 65.921875 28.609375 65.921875 
Q 23.96875 65.921875 18.8125 64.3125 
Q 13.671875 62.703125 7.8125 59.421875 
L 7.8125 69.390625 
Q 13.765625 71.78125 18.9375 73 
Q 24.125 74.21875 28.421875 74.21875 
Q 39.75 74.21875 46.484375 68.546875 
Q 53.21875 62.890625 53.21875 53.421875 
Q 53.21875 48.921875 51.53125 44.890625 
Q 49.859375 40.875 45.40625 35.40625 
Q 44.1875 33.984375 37.640625 27.21875 
Q 31.109375 20.453125 19.1875 8.296875 
z
" id="DejaVuSans-32"/>
       <path d="M 10.796875 72.90625 
L 49.515625 72.90625 
L 49.515625 64.59375 
L 19.828125 64.59375 
L 19.828125 46.734375 
Q 21.96875 47.46875 24.109375 47.828125 
Q 26.265625 48.1875 28.421875 48.1875 
Q 40.625 48.1875 47.75 41.5 
Q 54.890625 34.8125 54.890625 23.390625 
Q 54.890625 11.625 47.5625 5.09375 
Q 40.234375 -1.421875 26.90625 -1.421875 
Q 22.3125 -1.421875 17.546875 -0.640625 
Q 12.796875 0.140625 7.71875 1.703125 
L 7.71875 11.625 
Q 12.109375 9.234375 16.796875 8.0625 
Q 21.484375 6.890625 26.703125 6.890625 
Q 35.15625 6.890625 40.078125 11.328125 
Q 45.015625 15.765625 45.015625 23.390625 
Q 45.015625 31 40.078125 35.4375 
Q 35.15625 39.890625 26.703125 39.890625 
Q 22.75 39.890625 18.8125 39.015625 
Q 14.890625 38.140625 10.796875 36.28125 
z
" id="DejaVuSans-35"/>
      </defs>
      <g transform="translate(264.439062 358.468563)scale(0.1 -0.1)">
       <use xlink:href="#DejaVuSans-30"/>
       <use x="63.623047" xlink:href="#DejaVuSans-2e"/>
       <use x="95.410156" xlink:href="#DejaVuSans-32"/>
       <use x="159.033203" xlink:href="#DejaVuSans-35"/>
      </g>
     </g>
    </g>
    <g id="xtick_3">
     <g id="line2d_5">
      <path clip-path="url(#pb656bd6438)" d="M 324.396875 343.870125 
L 324.396875 22.318125 
" style="fill:none;stroke:#b0b0b0;stroke-linecap:square;stroke-width:0.8;"/>
     </g>
     <g id="line2d_6">
      <g>
       <use style="stroke:#000000;stroke-width:0.8;" x="324.396875" xlink:href="#m2644ac7f5c" y="343.870125"/>
      </g>
     </g>
     <g id="text_3">
      <!-- 0.50 -->
      <g transform="translate(313.264063 358.468563)scale(0.1 -0.1)">
       <use xlink:href="#DejaVuSans-30"/>
       <use x="63.623047" xlink:href="#DejaVuSans-2e"/>
       <use x="95.410156" xlink:href="#DejaVuSans-35"/>
       <use x="159.033203" xlink:href="#DejaVuSans-30"/>
      </g>
     </g>
    </g>
    <g id="xtick_4">
     <g id="line2d_7">
      <path clip-path="url(#pb656bd6438)" d="M 373.221875 343.870125 
L 373.221875 22.318125 
" style="fill:none;stroke:#b0b0b0;stroke-linecap:square;stroke-width:0.8;"/>
     </g>
     <g id="line2d_8">
      <g>
       <use style="stroke:#000000;stroke-width:0.8;" x="373.221875" xlink:href="#m2644ac7f5c" y="343.870125"/>
      </g>
     </g>
     <g id="text_4">
      <!-- 0.75 -->
      <defs>
       <path d="M 8.203125 72.90625 
L 55.078125 72.90625 
L 55.078125 68.703125 
L 28.609375 0 
L 18.3125 0 
L 43.21875 64.59375 
L 8.203125 64.59375 
z
" id="DejaVuSans-37"/>
      </defs>
      <g transform="translate(362.089063 358.468563)scale(0.1 -0.1)">
       <use xlink:href="#DejaVuSans-30"/>
       <use x="63.623047" xlink:href="#DejaVuSans-2e"/>
       <use x="95.410156" xlink:href="#DejaVuSans-37"/>
       <use x="159.033203" xlink:href="#DejaVuSans-35"/>
      </g>
     </g>
    </g>
    <g id="xtick_5">
     <g id="line2d_9">
      <path clip-path="url(#pb656bd6438)" d="M 422.046875 343.870125 
L 422.046875 22.318125 
" style="fill:none;stroke:#b0b0b0;stroke-linecap:square;stroke-width:0.8;"/>
     </g>
     <g id="line2d_10">
      <g>
       <use style="stroke:#000000;stroke-width:0.8;" x="422.046875" xlink:href="#m2644ac7f5c" y="343.870125"/>
      </g>
     </g>
     <g id="text_5">
      <!-- 1.00 -->
      <defs>
       <path d="M 12.40625 8.296875 
L 28.515625 8.296875 
L 28.515625 63.921875 
L 10.984375 60.40625 
L 10.984375 69.390625 
L 28.421875 72.90625 
L 38.28125 72.90625 
L 38.28125 8.296875 
L 54.390625 8.296875 
L 54.390625 0 
L 12.40625 0 
z
" id="DejaVuSans-31"/>
      </defs>
      <g transform="translate(410.914062 358.468563)scale(0.1 -0.1)">
       <use xlink:href="#DejaVuSans-31"/>
       <use x="63.623047" xlink:href="#DejaVuSans-2e"/>
       <use x="95.410156" xlink:href="#DejaVuSans-30"/>
       <use x="159.033203" xlink:href="#DejaVuSans-30"/>
      </g>
     </g>
    </g>
    <g id="xtick_6">
     <g id="line2d_11">
      <path clip-path="url(#pb656bd6438)" d="M 470.871875 343.870125 
L 470.871875 22.318125 
" style="fill:none;stroke:#b0b0b0;stroke-linecap:square;stroke-width:0.8;"/>
     </g>
     <g id="line2d_12">
      <g>
       <use style="stroke:#000000;stroke-width:0.8;" x="470.871875" xlink:href="#m2644ac7f5c" y="343.870125"/>
      </g>
     </g>
     <g id="text_6">
      <!-- 1.25 -->
      <g transform="translate(459.739063 358.468563)scale(0.1 -0.1)">
       <use xlink:href="#DejaVuSans-31"/>
       <use x="63.623047" xlink:href="#DejaVuSans-2e"/>
       <use x="95.410156" xlink:href="#DejaVuSans-32"/>
       <use x="159.033203" xlink:href="#DejaVuSans-35"/>
      </g>
     </g>
    </g>
    <g id="xtick_7">
     <g id="line2d_13">
      <path clip-path="url(#pb656bd6438)" d="M 519.696875 343.870125 
L 519.696875 22.318125 
" style="fill:none;stroke:#b0b0b0;stroke-linecap:square;stroke-width:0.8;"/>
     </g>
     <g id="line2d_14">
      <g>
       <use style="stroke:#000000;stroke-width:0.8;" x="519.696875" xlink:href="#m2644ac7f5c" y="343.870125"/>
      </g>
     </g>
     <g id="text_7">
      <!-- 1.50 -->
      <g transform="translate(508.564063 358.468563)scale(0.1 -0.1)">
       <use xlink:href="#DejaVuSans-31"/>
       <use x="63.623047" xlink:href="#DejaVuSans-2e"/>
       <use x="95.410156" xlink:href="#DejaVuSans-35"/>
       <use x="159.033203" xlink:href="#DejaVuSans-30"/>
      </g>
     </g>
    </g>
    <g id="xtick_8">
     <g id="line2d_15">
      <path clip-path="url(#pb656bd6438)" d="M 568.521875 343.870125 
L 568.521875 22.318125 
" style="fill:none;stroke:#b0b0b0;stroke-linecap:square;stroke-width:0.8;"/>
     </g>
     <g id="line2d_16">
      <g>
       <use style="stroke:#000000;stroke-width:0.8;" x="568.521875" xlink:href="#m2644ac7f5c" y="343.870125"/>
      </g>
     </g>
     <g id="text_8">
      <!-- 1.75 -->
      <g transform="translate(557.389063 358.468563)scale(0.1 -0.1)">
       <use xlink:href="#DejaVuSans-31"/>
       <use x="63.623047" xlink:href="#DejaVuSans-2e"/>
       <use x="95.410156" xlink:href="#DejaVuSans-37"/>
       <use x="159.033203" xlink:href="#DejaVuSans-35"/>
      </g>
     </g>
    </g>
    <g id="xtick_9">
     <g id="line2d_17">
      <path clip-path="url(#pb656bd6438)" d="M 617.346875 343.870125 
L 617.346875 22.318125 
" style="fill:none;stroke:#b0b0b0;stroke-linecap:square;stroke-width:0.8;"/>
     </g>
     <g id="line2d_18">
      <g>
       <use style="stroke:#000000;stroke-width:0.8;" x="617.346875" xlink:href="#m2644ac7f5c" y="343.870125"/>
      </g>
     </g>
     <g id="text_9">
      <!-- 2.00 -->
      <g transform="translate(606.214063 358.468563)scale(0.1 -0.1)">
       <use xlink:href="#DejaVuSans-32"/>
       <use x="63.623047" xlink:href="#DejaVuSans-2e"/>
       <use x="95.410156" xlink:href="#DejaVuSans-30"/>
       <use x="159.033203" xlink:href="#DejaVuSans-30"/>
      </g>
     </g>
    </g>
    <g id="text_10">
     <!-- AOE1 (TO) -->
     <defs>
      <path d="M 34.1875 63.1875 
L 20.796875 26.90625 
L 47.609375 26.90625 
z
M 28.609375 72.90625 
L 39.796875 72.90625 
L 67.578125 0 
L 57.328125 0 
L 50.6875 18.703125 
L 17.828125 18.703125 
L 11.1875 0 
L 0.78125 0 
z
" id="DejaVuSans-41"/>
      <path d="M 39.40625 66.21875 
Q 28.65625 66.21875 22.328125 58.203125 
Q 16.015625 50.203125 16.015625 36.375 
Q 16.015625 22.609375 22.328125 14.59375 
Q 28.65625 6.59375 39.40625 6.59375 
Q 50.140625 6.59375 56.421875 14.59375 
Q 62.703125 22.609375 62.703125 36.375 
Q 62.703125 50.203125 56.421875 58.203125 
Q 50.140625 66.21875 39.40625 66.21875 
z
M 39.40625 74.21875 
Q 54.734375 74.21875 63.90625 63.9375 
Q 73.09375 53.65625 73.09375 36.375 
Q 73.09375 19.140625 63.90625 8.859375 
Q 54.734375 -1.421875 39.40625 -1.421875 
Q 24.03125 -1.421875 14.8125 8.828125 
Q 5.609375 19.09375 5.609375 36.375 
Q 5.609375 53.65625 14.8125 63.9375 
Q 24.03125 74.21875 39.40625 74.21875 
z
" id="DejaVuSans-4f"/>
      <path d="M 9.8125 72.90625 
L 55.90625 72.90625 
L 55.90625 64.59375 
L 19.671875 64.59375 
L 19.671875 43.015625 
L 54.390625 43.015625 
L 54.390625 34.71875 
L 19.671875 34.71875 
L 19.671875 8.296875 
L 56.78125 8.296875 
L 56.78125 0 
L 9.8125 0 
z
" id="DejaVuSans-45"/>
      <path id="DejaVuSans-20"/>
      <path d="M 31 75.875 
Q 24.46875 64.65625 21.28125 53.65625 
Q 18.109375 42.671875 18.109375 31.390625 
Q 18.109375 20.125 21.3125 9.0625 
Q 24.515625 -2 31 -13.1875 
L 23.1875 -13.1875 
Q 15.875 -1.703125 12.234375 9.375 
Q 8.59375 20.453125 8.59375 31.390625 
Q 8.59375 42.28125 12.203125 53.3125 
Q 15.828125 64.359375 23.1875 75.875 
z
" id="DejaVuSans-28"/>
      <path d="M -0.296875 72.90625 
L 61.375 72.90625 
L 61.375 64.59375 
L 35.5 64.59375 
L 35.5 0 
L 25.59375 0 
L 25.59375 64.59375 
L -0.296875 64.59375 
z
" id="DejaVuSans-54"/>
      <path d="M 8.015625 75.875 
L 15.828125 75.875 
Q 23.140625 64.359375 26.78125 53.3125 
Q 30.421875 42.28125 30.421875 31.390625 
Q 30.421875 20.453125 26.78125 9.375 
Q 23.140625 -1.703125 15.828125 -13.1875 
L 8.015625 -13.1875 
Q 14.5 -2 17.703125 9.0625 
Q 20.90625 20.125 20.90625 31.390625 
Q 20.90625 42.671875 17.703125 53.65625 
Q 14.5 64.65625 8.015625 75.875 
z
" id="DejaVuSans-29"/>
     </defs>
     <g transform="translate(395.870313 372.146687)scale(0.1 -0.1)">
      <use xlink:href="#DejaVuSans-41"/>
      <use x="68.392578" xlink:href="#DejaVuSans-4f"/>
      <use x="147.103516" xlink:href="#DejaVuSans-45"/>
      <use x="210.287109" xlink:href="#DejaVuSans-31"/>
      <use x="273.910156" xlink:href="#DejaVuSans-20"/>
      <use x="305.697266" xlink:href="#DejaVuSans-28"/>
      <use x="344.710938" xlink:href="#DejaVuSans-54"/>
      <use x="405.794922" xlink:href="#DejaVuSans-4f"/>
      <use x="484.505859" xlink:href="#DejaVuSans-29"/>
     </g>
    </g>
   </g>
   <g id="matplotlib.axis_2">
    <g id="ytick_1">
     <g id="line2d_19">
      <path clip-path="url(#pb656bd6438)" d="M 226.746875 320.656478 
L 617.346875 320.656478 
" style="fill:none;stroke:#b0b0b0;stroke-linecap:square;stroke-width:0.8;"/>
     </g>
     <g id="line2d_20">
      <defs>
       <path d="M 0 0 
L -3.5 0 
" id="m91096df72a" style="stroke:#000000;stroke-width:0.8;"/>
      </defs>
      <g>
       <use style="stroke:#000000;stroke-width:0.8;" x="226.746875" xlink:href="#m91096df72a" y="320.656478"/>
      </g>
     </g>
     <g id="text_11">
      <!-- schreiber2018/ismir2018 -->
      <defs>
       <path d="M 44.28125 53.078125 
L 44.28125 44.578125 
Q 40.484375 46.53125 36.375 47.5 
Q 32.28125 48.484375 27.875 48.484375 
Q 21.1875 48.484375 17.84375 46.4375 
Q 14.5 44.390625 14.5 40.28125 
Q 14.5 37.15625 16.890625 35.375 
Q 19.28125 33.59375 26.515625 31.984375 
L 29.59375 31.296875 
Q 39.15625 29.25 43.1875 25.515625 
Q 47.21875 21.78125 47.21875 15.09375 
Q 47.21875 7.46875 41.1875 3.015625 
Q 35.15625 -1.421875 24.609375 -1.421875 
Q 20.21875 -1.421875 15.453125 -0.5625 
Q 10.6875 0.296875 5.421875 2 
L 5.421875 11.28125 
Q 10.40625 8.6875 15.234375 7.390625 
Q 20.0625 6.109375 24.8125 6.109375 
Q 31.15625 6.109375 34.5625 8.28125 
Q 37.984375 10.453125 37.984375 14.40625 
Q 37.984375 18.0625 35.515625 20.015625 
Q 33.0625 21.96875 24.703125 23.78125 
L 21.578125 24.515625 
Q 13.234375 26.265625 9.515625 29.90625 
Q 5.8125 33.546875 5.8125 39.890625 
Q 5.8125 47.609375 11.28125 51.796875 
Q 16.75 56 26.8125 56 
Q 31.78125 56 36.171875 55.265625 
Q 40.578125 54.546875 44.28125 53.078125 
z
" id="DejaVuSans-73"/>
       <path d="M 48.78125 52.59375 
L 48.78125 44.1875 
Q 44.96875 46.296875 41.140625 47.34375 
Q 37.3125 48.390625 33.40625 48.390625 
Q 24.65625 48.390625 19.8125 42.84375 
Q 14.984375 37.3125 14.984375 27.296875 
Q 14.984375 17.28125 19.8125 11.734375 
Q 24.65625 6.203125 33.40625 6.203125 
Q 37.3125 6.203125 41.140625 7.25 
Q 44.96875 8.296875 48.78125 10.40625 
L 48.78125 2.09375 
Q 45.015625 0.34375 40.984375 -0.53125 
Q 36.96875 -1.421875 32.421875 -1.421875 
Q 20.0625 -1.421875 12.78125 6.34375 
Q 5.515625 14.109375 5.515625 27.296875 
Q 5.515625 40.671875 12.859375 48.328125 
Q 20.21875 56 33.015625 56 
Q 37.15625 56 41.109375 55.140625 
Q 45.0625 54.296875 48.78125 52.59375 
z
" id="DejaVuSans-63"/>
       <path d="M 54.890625 33.015625 
L 54.890625 0 
L 45.90625 0 
L 45.90625 32.71875 
Q 45.90625 40.484375 42.875 44.328125 
Q 39.84375 48.1875 33.796875 48.1875 
Q 26.515625 48.1875 22.3125 43.546875 
Q 18.109375 38.921875 18.109375 30.90625 
L 18.109375 0 
L 9.078125 0 
L 9.078125 75.984375 
L 18.109375 75.984375 
L 18.109375 46.1875 
Q 21.34375 51.125 25.703125 53.5625 
Q 30.078125 56 35.796875 56 
Q 45.21875 56 50.046875 50.171875 
Q 54.890625 44.34375 54.890625 33.015625 
z
" id="DejaVuSans-68"/>
       <path d="M 41.109375 46.296875 
Q 39.59375 47.171875 37.8125 47.578125 
Q 36.03125 48 33.890625 48 
Q 26.265625 48 22.1875 43.046875 
Q 18.109375 38.09375 18.109375 28.8125 
L 18.109375 0 
L 9.078125 0 
L 9.078125 54.6875 
L 18.109375 54.6875 
L 18.109375 46.1875 
Q 20.953125 51.171875 25.484375 53.578125 
Q 30.03125 56 36.53125 56 
Q 37.453125 56 38.578125 55.875 
Q 39.703125 55.765625 41.0625 55.515625 
z
" id="DejaVuSans-72"/>
       <path d="M 56.203125 29.59375 
L 56.203125 25.203125 
L 14.890625 25.203125 
Q 15.484375 15.921875 20.484375 11.0625 
Q 25.484375 6.203125 34.421875 6.203125 
Q 39.59375 6.203125 44.453125 7.46875 
Q 49.3125 8.734375 54.109375 11.28125 
L 54.109375 2.78125 
Q 49.265625 0.734375 44.1875 -0.34375 
Q 39.109375 -1.421875 33.890625 -1.421875 
Q 20.796875 -1.421875 13.15625 6.1875 
Q 5.515625 13.8125 5.515625 26.8125 
Q 5.515625 40.234375 12.765625 48.109375 
Q 20.015625 56 32.328125 56 
Q 43.359375 56 49.78125 48.890625 
Q 56.203125 41.796875 56.203125 29.59375 
z
M 47.21875 32.234375 
Q 47.125 39.59375 43.09375 43.984375 
Q 39.0625 48.390625 32.421875 48.390625 
Q 24.90625 48.390625 20.390625 44.140625 
Q 15.875 39.890625 15.1875 32.171875 
z
" id="DejaVuSans-65"/>
       <path d="M 9.421875 54.6875 
L 18.40625 54.6875 
L 18.40625 0 
L 9.421875 0 
z
M 9.421875 75.984375 
L 18.40625 75.984375 
L 18.40625 64.59375 
L 9.421875 64.59375 
z
" id="DejaVuSans-69"/>
       <path d="M 48.6875 27.296875 
Q 48.6875 37.203125 44.609375 42.84375 
Q 40.53125 48.484375 33.40625 48.484375 
Q 26.265625 48.484375 22.1875 42.84375 
Q 18.109375 37.203125 18.109375 27.296875 
Q 18.109375 17.390625 22.1875 11.75 
Q 26.265625 6.109375 33.40625 6.109375 
Q 40.53125 6.109375 44.609375 11.75 
Q 48.6875 17.390625 48.6875 27.296875 
z
M 18.109375 46.390625 
Q 20.953125 51.265625 25.265625 53.625 
Q 29.59375 56 35.59375 56 
Q 45.5625 56 51.78125 48.09375 
Q 58.015625 40.1875 58.015625 27.296875 
Q 58.015625 14.40625 51.78125 6.484375 
Q 45.5625 -1.421875 35.59375 -1.421875 
Q 29.59375 -1.421875 25.265625 0.953125 
Q 20.953125 3.328125 18.109375 8.203125 
L 18.109375 0 
L 9.078125 0 
L 9.078125 75.984375 
L 18.109375 75.984375 
z
" id="DejaVuSans-62"/>
       <path d="M 31.78125 34.625 
Q 24.75 34.625 20.71875 30.859375 
Q 16.703125 27.09375 16.703125 20.515625 
Q 16.703125 13.921875 20.71875 10.15625 
Q 24.75 6.390625 31.78125 6.390625 
Q 38.8125 6.390625 42.859375 10.171875 
Q 46.921875 13.96875 46.921875 20.515625 
Q 46.921875 27.09375 42.890625 30.859375 
Q 38.875 34.625 31.78125 34.625 
z
M 21.921875 38.8125 
Q 15.578125 40.375 12.03125 44.71875 
Q 8.5 49.078125 8.5 55.328125 
Q 8.5 64.0625 14.71875 69.140625 
Q 20.953125 74.21875 31.78125 74.21875 
Q 42.671875 74.21875 48.875 69.140625 
Q 55.078125 64.0625 55.078125 55.328125 
Q 55.078125 49.078125 51.53125 44.71875 
Q 48 40.375 41.703125 38.8125 
Q 48.828125 37.15625 52.796875 32.3125 
Q 56.78125 27.484375 56.78125 20.515625 
Q 56.78125 9.90625 50.3125 4.234375 
Q 43.84375 -1.421875 31.78125 -1.421875 
Q 19.734375 -1.421875 13.25 4.234375 
Q 6.78125 9.90625 6.78125 20.515625 
Q 6.78125 27.484375 10.78125 32.3125 
Q 14.796875 37.15625 21.921875 38.8125 
z
M 18.3125 54.390625 
Q 18.3125 48.734375 21.84375 45.5625 
Q 25.390625 42.390625 31.78125 42.390625 
Q 38.140625 42.390625 41.71875 45.5625 
Q 45.3125 48.734375 45.3125 54.390625 
Q 45.3125 60.0625 41.71875 63.234375 
Q 38.140625 66.40625 31.78125 66.40625 
Q 25.390625 66.40625 21.84375 63.234375 
Q 18.3125 60.0625 18.3125 54.390625 
z
" id="DejaVuSans-38"/>
       <path d="M 25.390625 72.90625 
L 33.6875 72.90625 
L 8.296875 -9.28125 
L 0 -9.28125 
z
" id="DejaVuSans-2f"/>
       <path d="M 52 44.1875 
Q 55.375 50.25 60.0625 53.125 
Q 64.75 56 71.09375 56 
Q 79.640625 56 84.28125 50.015625 
Q 88.921875 44.046875 88.921875 33.015625 
L 88.921875 0 
L 79.890625 0 
L 79.890625 32.71875 
Q 79.890625 40.578125 77.09375 44.375 
Q 74.3125 48.1875 68.609375 48.1875 
Q 61.625 48.1875 57.5625 43.546875 
Q 53.515625 38.921875 53.515625 30.90625 
L 53.515625 0 
L 44.484375 0 
L 44.484375 32.71875 
Q 44.484375 40.625 41.703125 44.40625 
Q 38.921875 48.1875 33.109375 48.1875 
Q 26.21875 48.1875 22.15625 43.53125 
Q 18.109375 38.875 18.109375 30.90625 
L 18.109375 0 
L 9.078125 0 
L 9.078125 54.6875 
L 18.109375 54.6875 
L 18.109375 46.1875 
Q 21.1875 51.21875 25.484375 53.609375 
Q 29.78125 56 35.6875 56 
Q 41.65625 56 45.828125 52.96875 
Q 50 49.953125 52 44.1875 
z
" id="DejaVuSans-6d"/>
      </defs>
      <g transform="translate(94.164062 324.455697)scale(0.1 -0.1)">
       <use xlink:href="#DejaVuSans-73"/>
       <use x="52.099609" xlink:href="#DejaVuSans-63"/>
       <use x="107.080078" xlink:href="#DejaVuSans-68"/>
       <use x="170.458984" xlink:href="#DejaVuSans-72"/>
       <use x="211.541016" xlink:href="#DejaVuSans-65"/>
       <use x="273.064453" xlink:href="#DejaVuSans-69"/>
       <use x="300.847656" xlink:href="#DejaVuSans-62"/>
       <use x="364.324219" xlink:href="#DejaVuSans-65"/>
       <use x="425.847656" xlink:href="#DejaVuSans-72"/>
       <use x="466.960938" xlink:href="#DejaVuSans-32"/>
       <use x="530.583984" xlink:href="#DejaVuSans-30"/>
       <use x="594.207031" xlink:href="#DejaVuSans-31"/>
       <use x="657.830078" xlink:href="#DejaVuSans-38"/>
       <use x="721.453125" xlink:href="#DejaVuSans-2f"/>
       <use x="755.144531" xlink:href="#DejaVuSans-69"/>
       <use x="782.927734" xlink:href="#DejaVuSans-73"/>
       <use x="835.027344" xlink:href="#DejaVuSans-6d"/>
       <use x="932.439453" xlink:href="#DejaVuSans-69"/>
       <use x="960.222656" xlink:href="#DejaVuSans-72"/>
       <use x="1001.335938" xlink:href="#DejaVuSans-32"/>
       <use x="1064.958984" xlink:href="#DejaVuSans-30"/>
       <use x="1128.582031" xlink:href="#DejaVuSans-31"/>
       <use x="1192.205078" xlink:href="#DejaVuSans-38"/>
      </g>
     </g>
    </g>
    <g id="ytick_2">
     <g id="line2d_21">
      <path clip-path="url(#pb656bd6438)" d="M 226.746875 286.26589 
L 617.346875 286.26589 
" style="fill:none;stroke:#b0b0b0;stroke-linecap:square;stroke-width:0.8;"/>
     </g>
     <g id="line2d_22">
      <g>
       <use style="stroke:#000000;stroke-width:0.8;" x="226.746875" xlink:href="#m91096df72a" y="286.26589"/>
      </g>
     </g>
     <g id="text_12">
      <!-- schreiber2018/fcn -->
      <defs>
       <path d="M 37.109375 75.984375 
L 37.109375 68.5 
L 28.515625 68.5 
Q 23.6875 68.5 21.796875 66.546875 
Q 19.921875 64.59375 19.921875 59.515625 
L 19.921875 54.6875 
L 34.71875 54.6875 
L 34.71875 47.703125 
L 19.921875 47.703125 
L 19.921875 0 
L 10.890625 0 
L 10.890625 47.703125 
L 2.296875 47.703125 
L 2.296875 54.6875 
L 10.890625 54.6875 
L 10.890625 58.5 
Q 10.890625 67.625 15.140625 71.796875 
Q 19.390625 75.984375 28.609375 75.984375 
z
" id="DejaVuSans-66"/>
       <path d="M 54.890625 33.015625 
L 54.890625 0 
L 45.90625 0 
L 45.90625 32.71875 
Q 45.90625 40.484375 42.875 44.328125 
Q 39.84375 48.1875 33.796875 48.1875 
Q 26.515625 48.1875 22.3125 43.546875 
Q 18.109375 38.921875 18.109375 30.90625 
L 18.109375 0 
L 9.078125 0 
L 9.078125 54.6875 
L 18.109375 54.6875 
L 18.109375 46.1875 
Q 21.34375 51.125 25.703125 53.5625 
Q 30.078125 56 35.796875 56 
Q 45.21875 56 50.046875 50.171875 
Q 54.890625 44.34375 54.890625 33.015625 
z
" id="DejaVuSans-6e"/>
      </defs>
      <g transform="translate(128.875 290.065108)scale(0.1 -0.1)">
       <use xlink:href="#DejaVuSans-73"/>
       <use x="52.099609" xlink:href="#DejaVuSans-63"/>
       <use x="107.080078" xlink:href="#DejaVuSans-68"/>
       <use x="170.458984" xlink:href="#DejaVuSans-72"/>
       <use x="211.541016" xlink:href="#DejaVuSans-65"/>
       <use x="273.064453" xlink:href="#DejaVuSans-69"/>
       <use x="300.847656" xlink:href="#DejaVuSans-62"/>
       <use x="364.324219" xlink:href="#DejaVuSans-65"/>
       <use x="425.847656" xlink:href="#DejaVuSans-72"/>
       <use x="466.960938" xlink:href="#DejaVuSans-32"/>
       <use x="530.583984" xlink:href="#DejaVuSans-30"/>
       <use x="594.207031" xlink:href="#DejaVuSans-31"/>
       <use x="657.830078" xlink:href="#DejaVuSans-38"/>
       <use x="721.453125" xlink:href="#DejaVuSans-2f"/>
       <use x="755.144531" xlink:href="#DejaVuSans-66"/>
       <use x="790.349609" xlink:href="#DejaVuSans-63"/>
       <use x="845.330078" xlink:href="#DejaVuSans-6e"/>
      </g>
     </g>
    </g>
    <g id="ytick_3">
     <g id="line2d_23">
      <path clip-path="url(#pb656bd6438)" d="M 226.746875 251.875301 
L 617.346875 251.875301 
" style="fill:none;stroke:#b0b0b0;stroke-linecap:square;stroke-width:0.8;"/>
     </g>
     <g id="line2d_24">
      <g>
       <use style="stroke:#000000;stroke-width:0.8;" x="226.746875" xlink:href="#m91096df72a" y="251.875301"/>
      </g>
     </g>
     <g id="text_13">
      <!-- schreiber2018/cnn -->
      <g transform="translate(126.057812 255.67452)scale(0.1 -0.1)">
       <use xlink:href="#DejaVuSans-73"/>
       <use x="52.099609" xlink:href="#DejaVuSans-63"/>
       <use x="107.080078" xlink:href="#DejaVuSans-68"/>
       <use x="170.458984" xlink:href="#DejaVuSans-72"/>
       <use x="211.541016" xlink:href="#DejaVuSans-65"/>
       <use x="273.064453" xlink:href="#DejaVuSans-69"/>
       <use x="300.847656" xlink:href="#DejaVuSans-62"/>
       <use x="364.324219" xlink:href="#DejaVuSans-65"/>
       <use x="425.847656" xlink:href="#DejaVuSans-72"/>
       <use x="466.960938" xlink:href="#DejaVuSans-32"/>
       <use x="530.583984" xlink:href="#DejaVuSans-30"/>
       <use x="594.207031" xlink:href="#DejaVuSans-31"/>
       <use x="657.830078" xlink:href="#DejaVuSans-38"/>
       <use x="721.453125" xlink:href="#DejaVuSans-2f"/>
       <use x="755.144531" xlink:href="#DejaVuSans-63"/>
       <use x="810.125" xlink:href="#DejaVuSans-6e"/>
       <use x="873.503906" xlink:href="#DejaVuSans-6e"/>
      </g>
     </g>
    </g>
    <g id="ytick_4">
     <g id="line2d_25">
      <path clip-path="url(#pb656bd6438)" d="M 226.746875 217.484713 
L 617.346875 217.484713 
" style="fill:none;stroke:#b0b0b0;stroke-linecap:square;stroke-width:0.8;"/>
     </g>
     <g id="line2d_26">
      <g>
       <use style="stroke:#000000;stroke-width:0.8;" x="226.746875" xlink:href="#m91096df72a" y="217.484713"/>
      </g>
     </g>
     <g id="text_14">
      <!-- schreiber2017/mirex2017 -->
      <defs>
       <path d="M 54.890625 54.6875 
L 35.109375 28.078125 
L 55.90625 0 
L 45.3125 0 
L 29.390625 21.484375 
L 13.484375 0 
L 2.875 0 
L 24.125 28.609375 
L 4.6875 54.6875 
L 15.28125 54.6875 
L 29.78125 35.203125 
L 44.28125 54.6875 
z
" id="DejaVuSans-78"/>
      </defs>
      <g transform="translate(90.084375 221.283932)scale(0.1 -0.1)">
       <use xlink:href="#DejaVuSans-73"/>
       <use x="52.099609" xlink:href="#DejaVuSans-63"/>
       <use x="107.080078" xlink:href="#DejaVuSans-68"/>
       <use x="170.458984" xlink:href="#DejaVuSans-72"/>
       <use x="211.541016" xlink:href="#DejaVuSans-65"/>
       <use x="273.064453" xlink:href="#DejaVuSans-69"/>
       <use x="300.847656" xlink:href="#DejaVuSans-62"/>
       <use x="364.324219" xlink:href="#DejaVuSans-65"/>
       <use x="425.847656" xlink:href="#DejaVuSans-72"/>
       <use x="466.960938" xlink:href="#DejaVuSans-32"/>
       <use x="530.583984" xlink:href="#DejaVuSans-30"/>
       <use x="594.207031" xlink:href="#DejaVuSans-31"/>
       <use x="657.830078" xlink:href="#DejaVuSans-37"/>
       <use x="721.453125" xlink:href="#DejaVuSans-2f"/>
       <use x="755.144531" xlink:href="#DejaVuSans-6d"/>
       <use x="852.556641" xlink:href="#DejaVuSans-69"/>
       <use x="880.339844" xlink:href="#DejaVuSans-72"/>
       <use x="921.421875" xlink:href="#DejaVuSans-65"/>
       <use x="982.929688" xlink:href="#DejaVuSans-78"/>
       <use x="1042.109375" xlink:href="#DejaVuSans-32"/>
       <use x="1105.732422" xlink:href="#DejaVuSans-30"/>
       <use x="1169.355469" xlink:href="#DejaVuSans-31"/>
       <use x="1232.978516" xlink:href="#DejaVuSans-37"/>
      </g>
     </g>
    </g>
    <g id="ytick_5">
     <g id="line2d_27">
      <path clip-path="url(#pb656bd6438)" d="M 226.746875 183.094125 
L 617.346875 183.094125 
" style="fill:none;stroke:#b0b0b0;stroke-linecap:square;stroke-width:0.8;"/>
     </g>
     <g id="line2d_28">
      <g>
       <use style="stroke:#000000;stroke-width:0.8;" x="226.746875" xlink:href="#m91096df72a" y="183.094125"/>
      </g>
     </g>
     <g id="text_15">
      <!-- schreiber2017/ismir2017 -->
      <g transform="translate(94.164062 186.893344)scale(0.1 -0.1)">
       <use xlink:href="#DejaVuSans-73"/>
       <use x="52.099609" xlink:href="#DejaVuSans-63"/>
       <use x="107.080078" xlink:href="#DejaVuSans-68"/>
       <use x="170.458984" xlink:href="#DejaVuSans-72"/>
       <use x="211.541016" xlink:href="#DejaVuSans-65"/>
       <use x="273.064453" xlink:href="#DejaVuSans-69"/>
       <use x="300.847656" xlink:href="#DejaVuSans-62"/>
       <use x="364.324219" xlink:href="#DejaVuSans-65"/>
       <use x="425.847656" xlink:href="#DejaVuSans-72"/>
       <use x="466.960938" xlink:href="#DejaVuSans-32"/>
       <use x="530.583984" xlink:href="#DejaVuSans-30"/>
       <use x="594.207031" xlink:href="#DejaVuSans-31"/>
       <use x="657.830078" xlink:href="#DejaVuSans-37"/>
       <use x="721.453125" xlink:href="#DejaVuSans-2f"/>
       <use x="755.144531" xlink:href="#DejaVuSans-69"/>
       <use x="782.927734" xlink:href="#DejaVuSans-73"/>
       <use x="835.027344" xlink:href="#DejaVuSans-6d"/>
       <use x="932.439453" xlink:href="#DejaVuSans-69"/>
       <use x="960.222656" xlink:href="#DejaVuSans-72"/>
       <use x="1001.335938" xlink:href="#DejaVuSans-32"/>
       <use x="1064.958984" xlink:href="#DejaVuSans-30"/>
       <use x="1128.582031" xlink:href="#DejaVuSans-31"/>
       <use x="1192.205078" xlink:href="#DejaVuSans-37"/>
      </g>
     </g>
    </g>
    <g id="ytick_6">
     <g id="line2d_29">
      <path clip-path="url(#pb656bd6438)" d="M 226.746875 148.703537 
L 617.346875 148.703537 
" style="fill:none;stroke:#b0b0b0;stroke-linecap:square;stroke-width:0.8;"/>
     </g>
     <g id="line2d_30">
      <g>
       <use style="stroke:#000000;stroke-width:0.8;" x="226.746875" xlink:href="#m91096df72a" y="148.703537"/>
      </g>
     </g>
     <g id="text_16">
      <!-- schreiber2014/default -->
      <defs>
       <path d="M 37.796875 64.3125 
L 12.890625 25.390625 
L 37.796875 25.390625 
z
M 35.203125 72.90625 
L 47.609375 72.90625 
L 47.609375 25.390625 
L 58.015625 25.390625 
L 58.015625 17.1875 
L 47.609375 17.1875 
L 47.609375 0 
L 37.796875 0 
L 37.796875 17.1875 
L 4.890625 17.1875 
L 4.890625 26.703125 
z
" id="DejaVuSans-34"/>
       <path d="M 45.40625 46.390625 
L 45.40625 75.984375 
L 54.390625 75.984375 
L 54.390625 0 
L 45.40625 0 
L 45.40625 8.203125 
Q 42.578125 3.328125 38.25 0.953125 
Q 33.9375 -1.421875 27.875 -1.421875 
Q 17.96875 -1.421875 11.734375 6.484375 
Q 5.515625 14.40625 5.515625 27.296875 
Q 5.515625 40.1875 11.734375 48.09375 
Q 17.96875 56 27.875 56 
Q 33.9375 56 38.25 53.625 
Q 42.578125 51.265625 45.40625 46.390625 
z
M 14.796875 27.296875 
Q 14.796875 17.390625 18.875 11.75 
Q 22.953125 6.109375 30.078125 6.109375 
Q 37.203125 6.109375 41.296875 11.75 
Q 45.40625 17.390625 45.40625 27.296875 
Q 45.40625 37.203125 41.296875 42.84375 
Q 37.203125 48.484375 30.078125 48.484375 
Q 22.953125 48.484375 18.875 42.84375 
Q 14.796875 37.203125 14.796875 27.296875 
z
" id="DejaVuSans-64"/>
       <path d="M 34.28125 27.484375 
Q 23.390625 27.484375 19.1875 25 
Q 14.984375 22.515625 14.984375 16.5 
Q 14.984375 11.71875 18.140625 8.90625 
Q 21.296875 6.109375 26.703125 6.109375 
Q 34.1875 6.109375 38.703125 11.40625 
Q 43.21875 16.703125 43.21875 25.484375 
L 43.21875 27.484375 
z
M 52.203125 31.203125 
L 52.203125 0 
L 43.21875 0 
L 43.21875 8.296875 
Q 40.140625 3.328125 35.546875 0.953125 
Q 30.953125 -1.421875 24.3125 -1.421875 
Q 15.921875 -1.421875 10.953125 3.296875 
Q 6 8.015625 6 15.921875 
Q 6 25.140625 12.171875 29.828125 
Q 18.359375 34.515625 30.609375 34.515625 
L 43.21875 34.515625 
L 43.21875 35.40625 
Q 43.21875 41.609375 39.140625 45 
Q 35.0625 48.390625 27.6875 48.390625 
Q 23 48.390625 18.546875 47.265625 
Q 14.109375 46.140625 10.015625 43.890625 
L 10.015625 52.203125 
Q 14.9375 54.109375 19.578125 55.046875 
Q 24.21875 56 28.609375 56 
Q 40.484375 56 46.34375 49.84375 
Q 52.203125 43.703125 52.203125 31.203125 
z
" id="DejaVuSans-61"/>
       <path d="M 8.5 21.578125 
L 8.5 54.6875 
L 17.484375 54.6875 
L 17.484375 21.921875 
Q 17.484375 14.15625 20.5 10.265625 
Q 23.53125 6.390625 29.59375 6.390625 
Q 36.859375 6.390625 41.078125 11.03125 
Q 45.3125 15.671875 45.3125 23.6875 
L 45.3125 54.6875 
L 54.296875 54.6875 
L 54.296875 0 
L 45.3125 0 
L 45.3125 8.40625 
Q 42.046875 3.421875 37.71875 1 
Q 33.40625 -1.421875 27.6875 -1.421875 
Q 18.265625 -1.421875 13.375 4.4375 
Q 8.5 10.296875 8.5 21.578125 
z
M 31.109375 56 
z
" id="DejaVuSans-75"/>
       <path d="M 9.421875 75.984375 
L 18.40625 75.984375 
L 18.40625 0 
L 9.421875 0 
z
" id="DejaVuSans-6c"/>
       <path d="M 18.3125 70.21875 
L 18.3125 54.6875 
L 36.8125 54.6875 
L 36.8125 47.703125 
L 18.3125 47.703125 
L 18.3125 18.015625 
Q 18.3125 11.328125 20.140625 9.421875 
Q 21.96875 7.515625 27.59375 7.515625 
L 36.8125 7.515625 
L 36.8125 0 
L 27.59375 0 
Q 17.1875 0 13.234375 3.875 
Q 9.28125 7.765625 9.28125 18.015625 
L 9.28125 47.703125 
L 2.6875 47.703125 
L 2.6875 54.6875 
L 9.28125 54.6875 
L 9.28125 70.21875 
z
" id="DejaVuSans-74"/>
      </defs>
      <g transform="translate(109.045312 152.502756)scale(0.1 -0.1)">
       <use xlink:href="#DejaVuSans-73"/>
       <use x="52.099609" xlink:href="#DejaVuSans-63"/>
       <use x="107.080078" xlink:href="#DejaVuSans-68"/>
       <use x="170.458984" xlink:href="#DejaVuSans-72"/>
       <use x="211.541016" xlink:href="#DejaVuSans-65"/>
       <use x="273.064453" xlink:href="#DejaVuSans-69"/>
       <use x="300.847656" xlink:href="#DejaVuSans-62"/>
       <use x="364.324219" xlink:href="#DejaVuSans-65"/>
       <use x="425.847656" xlink:href="#DejaVuSans-72"/>
       <use x="466.960938" xlink:href="#DejaVuSans-32"/>
       <use x="530.583984" xlink:href="#DejaVuSans-30"/>
       <use x="594.207031" xlink:href="#DejaVuSans-31"/>
       <use x="657.830078" xlink:href="#DejaVuSans-34"/>
       <use x="721.453125" xlink:href="#DejaVuSans-2f"/>
       <use x="755.144531" xlink:href="#DejaVuSans-64"/>
       <use x="818.621094" xlink:href="#DejaVuSans-65"/>
       <use x="880.144531" xlink:href="#DejaVuSans-66"/>
       <use x="915.349609" xlink:href="#DejaVuSans-61"/>
       <use x="976.628906" xlink:href="#DejaVuSans-75"/>
       <use x="1040.007812" xlink:href="#DejaVuSans-6c"/>
       <use x="1067.791016" xlink:href="#DejaVuSans-74"/>
      </g>
     </g>
    </g>
    <g id="ytick_7">
     <g id="line2d_31">
      <path clip-path="url(#pb656bd6438)" d="M 226.746875 114.312949 
L 617.346875 114.312949 
" style="fill:none;stroke:#b0b0b0;stroke-linecap:square;stroke-width:0.8;"/>
     </g>
     <g id="line2d_32">
      <g>
       <use style="stroke:#000000;stroke-width:0.8;" x="226.746875" xlink:href="#m91096df72a" y="114.312949"/>
      </g>
     </g>
     <g id="text_17">
      <!-- percival2014/stem -->
      <defs>
       <path d="M 18.109375 8.203125 
L 18.109375 -20.796875 
L 9.078125 -20.796875 
L 9.078125 54.6875 
L 18.109375 54.6875 
L 18.109375 46.390625 
Q 20.953125 51.265625 25.265625 53.625 
Q 29.59375 56 35.59375 56 
Q 45.5625 56 51.78125 48.09375 
Q 58.015625 40.1875 58.015625 27.296875 
Q 58.015625 14.40625 51.78125 6.484375 
Q 45.5625 -1.421875 35.59375 -1.421875 
Q 29.59375 -1.421875 25.265625 0.953125 
Q 20.953125 3.328125 18.109375 8.203125 
z
M 48.6875 27.296875 
Q 48.6875 37.203125 44.609375 42.84375 
Q 40.53125 48.484375 33.40625 48.484375 
Q 26.265625 48.484375 22.1875 42.84375 
Q 18.109375 37.203125 18.109375 27.296875 
Q 18.109375 17.390625 22.1875 11.75 
Q 26.265625 6.109375 33.40625 6.109375 
Q 40.53125 6.109375 44.609375 11.75 
Q 48.6875 17.390625 48.6875 27.296875 
z
" id="DejaVuSans-70"/>
       <path d="M 2.984375 54.6875 
L 12.5 54.6875 
L 29.59375 8.796875 
L 46.6875 54.6875 
L 56.203125 54.6875 
L 35.6875 0 
L 23.484375 0 
z
" id="DejaVuSans-76"/>
      </defs>
      <g transform="translate(126.19375 118.112167)scale(0.1 -0.1)">
       <use xlink:href="#DejaVuSans-70"/>
       <use x="63.476562" xlink:href="#DejaVuSans-65"/>
       <use x="125" xlink:href="#DejaVuSans-72"/>
       <use x="166.082031" xlink:href="#DejaVuSans-63"/>
       <use x="221.0625" xlink:href="#DejaVuSans-69"/>
       <use x="248.845703" xlink:href="#DejaVuSans-76"/>
       <use x="308.025391" xlink:href="#DejaVuSans-61"/>
       <use x="369.304688" xlink:href="#DejaVuSans-6c"/>
       <use x="397.087891" xlink:href="#DejaVuSans-32"/>
       <use x="460.710938" xlink:href="#DejaVuSans-30"/>
       <use x="524.333984" xlink:href="#DejaVuSans-31"/>
       <use x="587.957031" xlink:href="#DejaVuSans-34"/>
       <use x="651.580078" xlink:href="#DejaVuSans-2f"/>
       <use x="685.271484" xlink:href="#DejaVuSans-73"/>
       <use x="737.371094" xlink:href="#DejaVuSans-74"/>
       <use x="776.580078" xlink:href="#DejaVuSans-65"/>
       <use x="838.103516" xlink:href="#DejaVuSans-6d"/>
      </g>
     </g>
    </g>
    <g id="ytick_8">
     <g id="line2d_33">
      <path clip-path="url(#pb656bd6438)" d="M 226.746875 79.92236 
L 617.346875 79.92236 
" style="fill:none;stroke:#b0b0b0;stroke-linecap:square;stroke-width:0.8;"/>
     </g>
     <g id="line2d_34">
      <g>
       <use style="stroke:#000000;stroke-width:0.8;" x="226.746875" xlink:href="#m91096df72a" y="79.92236"/>
      </g>
     </g>
     <g id="text_18">
      <!-- davies2009/mirex_qm_tempotracker -->
      <defs>
       <path d="M 10.984375 1.515625 
L 10.984375 10.5 
Q 14.703125 8.734375 18.5 7.8125 
Q 22.3125 6.890625 25.984375 6.890625 
Q 35.75 6.890625 40.890625 13.453125 
Q 46.046875 20.015625 46.78125 33.40625 
Q 43.953125 29.203125 39.59375 26.953125 
Q 35.25 24.703125 29.984375 24.703125 
Q 19.046875 24.703125 12.671875 31.3125 
Q 6.296875 37.9375 6.296875 49.421875 
Q 6.296875 60.640625 12.9375 67.421875 
Q 19.578125 74.21875 30.609375 74.21875 
Q 43.265625 74.21875 49.921875 64.515625 
Q 56.59375 54.828125 56.59375 36.375 
Q 56.59375 19.140625 48.40625 8.859375 
Q 40.234375 -1.421875 26.421875 -1.421875 
Q 22.703125 -1.421875 18.890625 -0.6875 
Q 15.09375 0.046875 10.984375 1.515625 
z
M 30.609375 32.421875 
Q 37.25 32.421875 41.125 36.953125 
Q 45.015625 41.5 45.015625 49.421875 
Q 45.015625 57.28125 41.125 61.84375 
Q 37.25 66.40625 30.609375 66.40625 
Q 23.96875 66.40625 20.09375 61.84375 
Q 16.21875 57.28125 16.21875 49.421875 
Q 16.21875 41.5 20.09375 36.953125 
Q 23.96875 32.421875 30.609375 32.421875 
z
" id="DejaVuSans-39"/>
       <path d="M 50.984375 -16.609375 
L 50.984375 -23.578125 
L -0.984375 -23.578125 
L -0.984375 -16.609375 
z
" id="DejaVuSans-5f"/>
       <path d="M 14.796875 27.296875 
Q 14.796875 17.390625 18.875 11.75 
Q 22.953125 6.109375 30.078125 6.109375 
Q 37.203125 6.109375 41.296875 11.75 
Q 45.40625 17.390625 45.40625 27.296875 
Q 45.40625 37.203125 41.296875 42.84375 
Q 37.203125 48.484375 30.078125 48.484375 
Q 22.953125 48.484375 18.875 42.84375 
Q 14.796875 37.203125 14.796875 27.296875 
z
M 45.40625 8.203125 
Q 42.578125 3.328125 38.25 0.953125 
Q 33.9375 -1.421875 27.875 -1.421875 
Q 17.96875 -1.421875 11.734375 6.484375 
Q 5.515625 14.40625 5.515625 27.296875 
Q 5.515625 40.1875 11.734375 48.09375 
Q 17.96875 56 27.875 56 
Q 33.9375 56 38.25 53.625 
Q 42.578125 51.265625 45.40625 46.390625 
L 45.40625 54.6875 
L 54.390625 54.6875 
L 54.390625 -20.796875 
L 45.40625 -20.796875 
z
" id="DejaVuSans-71"/>
       <path d="M 30.609375 48.390625 
Q 23.390625 48.390625 19.1875 42.75 
Q 14.984375 37.109375 14.984375 27.296875 
Q 14.984375 17.484375 19.15625 11.84375 
Q 23.34375 6.203125 30.609375 6.203125 
Q 37.796875 6.203125 41.984375 11.859375 
Q 46.1875 17.53125 46.1875 27.296875 
Q 46.1875 37.015625 41.984375 42.703125 
Q 37.796875 48.390625 30.609375 48.390625 
z
M 30.609375 56 
Q 42.328125 56 49.015625 48.375 
Q 55.71875 40.765625 55.71875 27.296875 
Q 55.71875 13.875 49.015625 6.21875 
Q 42.328125 -1.421875 30.609375 -1.421875 
Q 18.84375 -1.421875 12.171875 6.21875 
Q 5.515625 13.875 5.515625 27.296875 
Q 5.515625 40.765625 12.171875 48.375 
Q 18.84375 56 30.609375 56 
z
" id="DejaVuSans-6f"/>
       <path d="M 9.078125 75.984375 
L 18.109375 75.984375 
L 18.109375 31.109375 
L 44.921875 54.6875 
L 56.390625 54.6875 
L 27.390625 29.109375 
L 57.625 0 
L 45.90625 0 
L 18.109375 26.703125 
L 18.109375 0 
L 9.078125 0 
z
" id="DejaVuSans-6b"/>
      </defs>
      <g transform="translate(35.617187 83.721579)scale(0.1 -0.1)">
       <use xlink:href="#DejaVuSans-64"/>
       <use x="63.476562" xlink:href="#DejaVuSans-61"/>
       <use x="124.755859" xlink:href="#DejaVuSans-76"/>
       <use x="183.935547" xlink:href="#DejaVuSans-69"/>
       <use x="211.71875" xlink:href="#DejaVuSans-65"/>
       <use x="273.242188" xlink:href="#DejaVuSans-73"/>
       <use x="325.341797" xlink:href="#DejaVuSans-32"/>
       <use x="388.964844" xlink:href="#DejaVuSans-30"/>
       <use x="452.587891" xlink:href="#DejaVuSans-30"/>
       <use x="516.210938" xlink:href="#DejaVuSans-39"/>
       <use x="579.833984" xlink:href="#DejaVuSans-2f"/>
       <use x="613.525391" xlink:href="#DejaVuSans-6d"/>
       <use x="710.9375" xlink:href="#DejaVuSans-69"/>
       <use x="738.720703" xlink:href="#DejaVuSans-72"/>
       <use x="779.802734" xlink:href="#DejaVuSans-65"/>
       <use x="841.310547" xlink:href="#DejaVuSans-78"/>
       <use x="900.490234" xlink:href="#DejaVuSans-5f"/>
       <use x="950.490234" xlink:href="#DejaVuSans-71"/>
       <use x="1013.966797" xlink:href="#DejaVuSans-6d"/>
       <use x="1111.378906" xlink:href="#DejaVuSans-5f"/>
       <use x="1161.378906" xlink:href="#DejaVuSans-74"/>
       <use x="1200.587891" xlink:href="#DejaVuSans-65"/>
       <use x="1262.111328" xlink:href="#DejaVuSans-6d"/>
       <use x="1359.523438" xlink:href="#DejaVuSans-70"/>
       <use x="1423" xlink:href="#DejaVuSans-6f"/>
       <use x="1484.181641" xlink:href="#DejaVuSans-74"/>
       <use x="1523.390625" xlink:href="#DejaVuSans-72"/>
       <use x="1564.503906" xlink:href="#DejaVuSans-61"/>
       <use x="1625.783203" xlink:href="#DejaVuSans-63"/>
       <use x="1680.763672" xlink:href="#DejaVuSans-6b"/>
       <use x="1738.626953" xlink:href="#DejaVuSans-65"/>
       <use x="1800.150391" xlink:href="#DejaVuSans-72"/>
      </g>
     </g>
    </g>
    <g id="ytick_9">
     <g id="line2d_35">
      <path clip-path="url(#pb656bd6438)" d="M 226.746875 45.531772 
L 617.346875 45.531772 
" style="fill:none;stroke:#b0b0b0;stroke-linecap:square;stroke-width:0.8;"/>
     </g>
     <g id="line2d_36">
      <g>
       <use style="stroke:#000000;stroke-width:0.8;" x="226.746875" xlink:href="#m91096df72a" y="45.531772"/>
      </g>
     </g>
     <g id="text_19">
      <!-- boeck2015/tempodetector2016_default -->
      <defs>
       <path d="M 33.015625 40.375 
Q 26.375 40.375 22.484375 35.828125 
Q 18.609375 31.296875 18.609375 23.390625 
Q 18.609375 15.53125 22.484375 10.953125 
Q 26.375 6.390625 33.015625 6.390625 
Q 39.65625 6.390625 43.53125 10.953125 
Q 47.40625 15.53125 47.40625 23.390625 
Q 47.40625 31.296875 43.53125 35.828125 
Q 39.65625 40.375 33.015625 40.375 
z
M 52.59375 71.296875 
L 52.59375 62.3125 
Q 48.875 64.0625 45.09375 64.984375 
Q 41.3125 65.921875 37.59375 65.921875 
Q 27.828125 65.921875 22.671875 59.328125 
Q 17.53125 52.734375 16.796875 39.40625 
Q 19.671875 43.65625 24.015625 45.921875 
Q 28.375 48.1875 33.59375 48.1875 
Q 44.578125 48.1875 50.953125 41.515625 
Q 57.328125 34.859375 57.328125 23.390625 
Q 57.328125 12.15625 50.6875 5.359375 
Q 44.046875 -1.421875 33.015625 -1.421875 
Q 20.359375 -1.421875 13.671875 8.265625 
Q 6.984375 17.96875 6.984375 36.375 
Q 6.984375 53.65625 15.1875 63.9375 
Q 23.390625 74.21875 37.203125 74.21875 
Q 40.921875 74.21875 44.703125 73.484375 
Q 48.484375 72.75 52.59375 71.296875 
z
" id="DejaVuSans-36"/>
      </defs>
      <g transform="translate(20.878125 49.330991)scale(0.1 -0.1)">
       <use xlink:href="#DejaVuSans-62"/>
       <use x="63.476562" xlink:href="#DejaVuSans-6f"/>
       <use x="124.658203" xlink:href="#DejaVuSans-65"/>
       <use x="186.181641" xlink:href="#DejaVuSans-63"/>
       <use x="241.162109" xlink:href="#DejaVuSans-6b"/>
       <use x="299.072266" xlink:href="#DejaVuSans-32"/>
       <use x="362.695312" xlink:href="#DejaVuSans-30"/>
       <use x="426.318359" xlink:href="#DejaVuSans-31"/>
       <use x="489.941406" xlink:href="#DejaVuSans-35"/>
       <use x="553.564453" xlink:href="#DejaVuSans-2f"/>
       <use x="587.255859" xlink:href="#DejaVuSans-74"/>
       <use x="626.464844" xlink:href="#DejaVuSans-65"/>
       <use x="687.988281" xlink:href="#DejaVuSans-6d"/>
       <use x="785.400391" xlink:href="#DejaVuSans-70"/>
       <use x="848.876953" xlink:href="#DejaVuSans-6f"/>
       <use x="910.058594" xlink:href="#DejaVuSans-64"/>
       <use x="973.535156" xlink:href="#DejaVuSans-65"/>
       <use x="1035.058594" xlink:href="#DejaVuSans-74"/>
       <use x="1074.267578" xlink:href="#DejaVuSans-65"/>
       <use x="1135.791016" xlink:href="#DejaVuSans-63"/>
       <use x="1190.771484" xlink:href="#DejaVuSans-74"/>
       <use x="1229.980469" xlink:href="#DejaVuSans-6f"/>
       <use x="1291.162109" xlink:href="#DejaVuSans-72"/>
       <use x="1332.275391" xlink:href="#DejaVuSans-32"/>
       <use x="1395.898438" xlink:href="#DejaVuSans-30"/>
       <use x="1459.521484" xlink:href="#DejaVuSans-31"/>
       <use x="1523.144531" xlink:href="#DejaVuSans-36"/>
       <use x="1586.767578" xlink:href="#DejaVuSans-5f"/>
       <use x="1636.767578" xlink:href="#DejaVuSans-64"/>
       <use x="1700.244141" xlink:href="#DejaVuSans-65"/>
       <use x="1761.767578" xlink:href="#DejaVuSans-66"/>
       <use x="1796.972656" xlink:href="#DejaVuSans-61"/>
       <use x="1858.251953" xlink:href="#DejaVuSans-75"/>
       <use x="1921.630859" xlink:href="#DejaVuSans-6c"/>
       <use x="1949.414062" xlink:href="#DejaVuSans-74"/>
      </g>
     </g>
    </g>
    <g id="text_20">
     <!-- Estimator -->
     <g transform="translate(14.798437 207.216781)rotate(-90)scale(0.1 -0.1)">
      <use xlink:href="#DejaVuSans-45"/>
      <use x="63.183594" xlink:href="#DejaVuSans-73"/>
      <use x="115.283203" xlink:href="#DejaVuSans-74"/>
      <use x="154.492188" xlink:href="#DejaVuSans-69"/>
      <use x="182.275391" xlink:href="#DejaVuSans-6d"/>
      <use x="279.6875" xlink:href="#DejaVuSans-61"/>
      <use x="340.966797" xlink:href="#DejaVuSans-74"/>
      <use x="380.175781" xlink:href="#DejaVuSans-6f"/>
      <use x="441.357422" xlink:href="#DejaVuSans-72"/>
     </g>
    </g>
   </g>
   <g id="PolyCollection_1">
    <path clip-path="url(#pb656bd6438)" d="M 226.758615 312.094809 
L 226.758615 329.218146 
L 228.769102 329.254125 
L 230.779589 329.217858 
L 232.790075 329.110293 
L 234.800562 328.934159 
L 236.811049 328.693847 
L 238.821535 328.395234 
L 240.832022 328.045442 
L 242.842509 327.652558 
L 244.852995 327.225328 
L 246.863482 326.772834 
L 248.873969 326.304183 
L 250.884455 325.82821 
L 252.894942 325.353218 
L 254.905429 324.886755 
L 256.915915 324.43545 
L 258.926402 324.004893 
L 260.936889 323.599573 
L 262.947375 323.222862 
L 264.957862 322.877053 
L 266.968349 322.563421 
L 268.978836 322.28233 
L 270.989322 322.033347 
L 272.999809 321.815382 
L 275.010296 321.626813 
L 277.020782 321.465631 
L 279.031269 321.329556 
L 281.041756 321.216158 
L 283.052242 321.122944 
L 285.062729 321.047448 
L 287.073216 320.987288 
L 289.083702 320.940215 
L 291.094189 320.904146 
L 293.104676 320.877182 
L 295.115162 320.85762 
L 297.125649 320.843948 
L 299.136136 320.834848 
L 301.146622 320.829176 
L 303.157109 320.825959 
L 305.167596 320.824376 
L 307.178083 320.823747 
L 309.188569 320.823515 
L 311.199056 320.82324 
L 313.209543 320.822579 
L 315.220029 320.821281 
L 317.230516 320.819173 
L 319.241003 320.816154 
L 321.251489 320.812182 
L 323.261976 320.807266 
L 325.272463 320.80146 
L 327.282949 320.794854 
L 329.293436 320.787563 
L 331.303923 320.779727 
L 333.314409 320.771496 
L 335.324896 320.76303 
L 337.335383 320.754492 
L 339.345869 320.746042 
L 341.356356 320.737838 
L 343.366843 320.730029 
L 345.37733 320.72276 
L 347.387816 320.716168 
L 349.398303 320.710386 
L 351.40879 320.705545 
L 353.419276 320.701776 
L 355.429763 320.699217 
L 357.44025 320.698015 
L 359.450736 320.698329 
L 361.461223 320.700337 
L 363.47171 320.704235 
L 365.482196 320.710239 
L 367.492683 320.718586 
L 369.50317 320.729533 
L 371.513656 320.743347 
L 373.524143 320.760303 
L 375.53463 320.780672 
L 377.545116 320.80471 
L 379.555603 320.832642 
L 381.56609 320.864647 
L 383.576576 320.900842 
L 385.587063 320.941259 
L 387.59755 320.985834 
L 389.608037 321.034386 
L 391.618523 321.086607 
L 393.62901 321.142053 
L 395.639497 321.200136 
L 397.649983 321.260131 
L 399.66047 321.321179 
L 401.670957 321.382306 
L 403.681443 321.442443 
L 405.69193 321.500455 
L 407.702417 321.555173 
L 409.712903 321.605434 
L 411.72339 321.650119 
L 413.733877 321.688198 
L 415.744363 321.718764 
L 417.75485 321.741072 
L 419.765337 321.754569 
L 421.775823 321.758914 
L 423.78631 321.753997 
L 425.796797 321.739939 
L 425.796797 319.573017 
L 425.796797 319.573017 
L 423.78631 319.558959 
L 421.775823 319.554042 
L 419.765337 319.558387 
L 417.75485 319.571884 
L 415.744363 319.594192 
L 413.733877 319.624758 
L 411.72339 319.662837 
L 409.712903 319.707522 
L 407.702417 319.757783 
L 405.69193 319.812501 
L 403.681443 319.870512 
L 401.670957 319.93065 
L 399.66047 319.991777 
L 397.649983 320.052825 
L 395.639497 320.11282 
L 393.62901 320.170903 
L 391.618523 320.226349 
L 389.608037 320.27857 
L 387.59755 320.327122 
L 385.587063 320.371697 
L 383.576576 320.412114 
L 381.56609 320.448309 
L 379.555603 320.480314 
L 377.545116 320.508246 
L 375.53463 320.532284 
L 373.524143 320.552653 
L 371.513656 320.569609 
L 369.50317 320.583423 
L 367.492683 320.59437 
L 365.482196 320.602717 
L 363.47171 320.608721 
L 361.461223 320.612619 
L 359.450736 320.614626 
L 357.44025 320.614941 
L 355.429763 320.613739 
L 353.419276 320.61118 
L 351.40879 320.607411 
L 349.398303 320.60257 
L 347.387816 320.596788 
L 345.37733 320.590196 
L 343.366843 320.582927 
L 341.356356 320.575118 
L 339.345869 320.566914 
L 337.335383 320.558464 
L 335.324896 320.549926 
L 333.314409 320.54146 
L 331.303923 320.533229 
L 329.293436 320.525393 
L 327.282949 320.518102 
L 325.272463 320.511496 
L 323.261976 320.50569 
L 321.251489 320.500774 
L 319.241003 320.496802 
L 317.230516 320.493783 
L 315.220029 320.491675 
L 313.209543 320.490377 
L 311.199056 320.489716 
L 309.188569 320.489441 
L 307.178083 320.489209 
L 305.167596 320.48858 
L 303.157109 320.486997 
L 301.146622 320.48378 
L 299.136136 320.478108 
L 297.125649 320.469007 
L 295.115162 320.455336 
L 293.104676 320.435774 
L 291.094189 320.40881 
L 289.083702 320.372741 
L 287.073216 320.325668 
L 285.062729 320.265508 
L 283.052242 320.190012 
L 281.041756 320.096798 
L 279.031269 319.9834 
L 277.020782 319.847325 
L 275.010296 319.686143 
L 272.999809 319.497574 
L 270.989322 319.279608 
L 268.978836 319.030626 
L 266.968349 318.749535 
L 264.957862 318.435903 
L 262.947375 318.090093 
L 260.936889 317.713383 
L 258.926402 317.308063 
L 256.915915 316.877506 
L 254.905429 316.426201 
L 252.894942 315.959738 
L 250.884455 315.484745 
L 248.873969 315.008773 
L 246.863482 314.540122 
L 244.852995 314.087628 
L 242.842509 313.660398 
L 240.832022 313.267514 
L 238.821535 312.917722 
L 236.811049 312.619108 
L 234.800562 312.378797 
L 232.790075 312.202662 
L 230.779589 312.095098 
L 228.769102 312.058831 
L 226.758615 312.094809 
z
" style="fill:#ff0000;fill-opacity:0.75;"/>
   </g>
   <g id="PolyCollection_2">
    <path clip-path="url(#pb656bd6438)" d="M 226.760963 277.706833 
L 226.760963 294.824946 
L 228.76426 294.863537 
L 230.767558 294.837597 
L 232.770855 294.747779 
L 234.774153 294.596168 
L 236.777451 294.386202 
L 238.780748 294.122542 
L 240.784046 293.810905 
L 242.787344 293.457855 
L 244.790641 293.070578 
L 246.793939 292.656638 
L 248.797237 292.223737 
L 250.800534 291.779482 
L 252.803832 291.331171 
L 254.807129 290.885604 
L 256.810427 290.448932 
L 258.813725 290.026538 
L 260.817022 289.622957 
L 262.82032 289.241839 
L 264.823618 288.885941 
L 266.826915 288.557156 
L 268.830213 288.256563 
L 270.83351 287.98451 
L 272.836808 287.740698 
L 274.840106 287.524284 
L 276.843403 287.333988 
L 278.846701 287.16819 
L 280.849999 287.025034 
L 282.853296 286.902515 
L 284.856594 286.798561 
L 286.859892 286.711096 
L 288.863189 286.638101 
L 290.866487 286.577651 
L 292.869784 286.527953 
L 294.873082 286.487362 
L 296.87638 286.454393 
L 298.879677 286.427731 
L 300.882975 286.406222 
L 302.886273 286.388873 
L 304.88957 286.374837 
L 306.892868 286.363405 
L 308.896165 286.353991 
L 310.899463 286.346119 
L 312.902761 286.339407 
L 314.906058 286.333558 
L 316.909356 286.328344 
L 318.912654 286.323596 
L 320.915951 286.319194 
L 322.919249 286.315056 
L 324.922547 286.311134 
L 326.925844 286.307404 
L 328.929142 286.303862 
L 330.932439 286.300517 
L 332.935737 286.297393 
L 334.939035 286.29452 
L 336.942332 286.291938 
L 338.94563 286.289693 
L 340.948928 286.287838 
L 342.952225 286.286437 
L 344.955523 286.285559 
L 346.958821 286.285288 
L 348.962118 286.285721 
L 350.965416 286.286972 
L 352.968713 286.289171 
L 354.972011 286.292472 
L 356.975309 286.29705 
L 358.978606 286.303105 
L 360.981904 286.31086 
L 362.985202 286.320562 
L 364.988499 286.332479 
L 366.991797 286.346895 
L 368.995094 286.364106 
L 370.998392 286.384411 
L 373.00169 286.408103 
L 375.004987 286.435457 
L 377.008285 286.466718 
L 379.011583 286.502083 
L 381.01488 286.541692 
L 383.018178 286.585604 
L 385.021476 286.633789 
L 387.024773 286.68611 
L 389.028071 286.742312 
L 391.031368 286.802012 
L 393.034666 286.864696 
L 395.037964 286.929718 
L 397.041261 286.996303 
L 399.044559 287.063557 
L 401.047857 287.130488 
L 403.051154 287.196023 
L 405.054452 287.259034 
L 407.057749 287.318374 
L 409.061047 287.372905 
L 411.064345 287.421538 
L 413.067642 287.463267 
L 415.07094 287.497204 
L 417.074238 287.52261 
L 419.077535 287.538923 
L 421.080833 287.545775 
L 423.084131 287.543012 
L 425.087428 287.530694 
L 425.087428 285.001086 
L 425.087428 285.001086 
L 423.084131 284.988767 
L 421.080833 284.986004 
L 419.077535 284.992857 
L 417.074238 285.00917 
L 415.07094 285.034576 
L 413.067642 285.068513 
L 411.064345 285.110242 
L 409.061047 285.158875 
L 407.057749 285.213406 
L 405.054452 285.272745 
L 403.051154 285.335756 
L 401.047857 285.401291 
L 399.044559 285.468222 
L 397.041261 285.535477 
L 395.037964 285.602061 
L 393.034666 285.667083 
L 391.031368 285.729767 
L 389.028071 285.789468 
L 387.024773 285.845669 
L 385.021476 285.89799 
L 383.018178 285.946176 
L 381.01488 285.990088 
L 379.011583 286.029696 
L 377.008285 286.065062 
L 375.004987 286.096322 
L 373.00169 286.123676 
L 370.998392 286.147368 
L 368.995094 286.167673 
L 366.991797 286.184885 
L 364.988499 286.199301 
L 362.985202 286.211218 
L 360.981904 286.22092 
L 358.978606 286.228675 
L 356.975309 286.23473 
L 354.972011 286.239308 
L 352.968713 286.242609 
L 350.965416 286.244808 
L 348.962118 286.246058 
L 346.958821 286.246491 
L 344.955523 286.246221 
L 342.952225 286.245343 
L 340.948928 286.243941 
L 338.94563 286.242087 
L 336.942332 286.239841 
L 334.939035 286.237259 
L 332.935737 286.234386 
L 330.932439 286.231262 
L 328.929142 286.227918 
L 326.925844 286.224375 
L 324.922547 286.220645 
L 322.919249 286.216724 
L 320.915951 286.212586 
L 318.912654 286.208183 
L 316.909356 286.203435 
L 314.906058 286.198221 
L 312.902761 286.192372 
L 310.899463 286.18566 
L 308.896165 286.177788 
L 306.892868 286.168374 
L 304.88957 286.156942 
L 302.886273 286.142906 
L 300.882975 286.125557 
L 298.879677 286.104048 
L 296.87638 286.077386 
L 294.873082 286.044418 
L 292.869784 286.003826 
L 290.866487 285.954128 
L 288.863189 285.893679 
L 286.859892 285.820683 
L 284.856594 285.733219 
L 282.853296 285.629264 
L 280.849999 285.506746 
L 278.846701 285.36359 
L 276.843403 285.197792 
L 274.840106 285.007495 
L 272.836808 284.791082 
L 270.83351 284.547269 
L 268.830213 284.275216 
L 266.826915 283.974624 
L 264.823618 283.645838 
L 262.82032 283.28994 
L 260.817022 282.908822 
L 258.813725 282.505242 
L 256.810427 282.082847 
L 254.807129 281.646175 
L 252.803832 281.200608 
L 250.800534 280.752297 
L 248.797237 280.308042 
L 246.793939 279.875142 
L 244.790641 279.461202 
L 242.787344 279.073924 
L 240.784046 278.720875 
L 238.780748 278.409237 
L 236.777451 278.145578 
L 234.774153 277.935611 
L 232.770855 277.784 
L 230.767558 277.694183 
L 228.76426 277.668243 
L 226.760963 277.706833 
z
" style="fill:#ff0000;fill-opacity:0.75;"/>
   </g>
   <g id="PolyCollection_3">
    <path clip-path="url(#pb656bd6438)" d="M 226.758615 243.310407 
L 226.758615 260.440196 
L 229.88033 260.472949 
L 233.002044 260.366056 
L 236.123759 260.124951 
L 239.245473 259.761439 
L 242.367188 259.292754 
L 245.488902 258.74022 
L 248.610617 258.127659 
L 251.732331 257.479716 
L 254.854046 256.820257 
L 257.975761 256.170985 
L 261.097475 255.550378 
L 264.21919 254.973006 
L 267.340904 254.449235 
L 270.462619 253.985289 
L 273.584333 253.583604 
L 276.706048 253.2434 
L 279.827762 252.961362 
L 282.949477 252.732369 
L 286.071191 252.550184 
L 289.192906 252.408068 
L 292.31462 252.299269 
L 295.436335 252.217398 
L 298.558049 252.156677 
L 301.679764 252.112079 
L 304.801479 252.079383 
L 307.923193 252.055162 
L 311.044908 252.036729 
L 314.166622 252.022057 
L 317.288337 252.009681 
L 320.410051 251.998605 
L 323.531766 251.988211 
L 326.65348 251.978176 
L 329.775195 251.968403 
L 332.896909 251.95896 
L 336.018624 251.950038 
L 339.140338 251.941919 
L 342.262053 251.934951 
L 345.383768 251.929545 
L 348.505482 251.92617 
L 351.627197 251.925361 
L 354.748911 251.927732 
L 357.870626 251.93398 
L 360.99234 251.944888 
L 364.114055 251.961324 
L 367.235769 251.984212 
L 370.357484 252.014492 
L 373.479198 252.053061 
L 376.600913 252.100687 
L 379.722627 252.157912 
L 382.844342 252.224945 
L 385.966056 252.301549 
L 389.087771 252.386947 
L 392.209486 252.479755 
L 395.3312 252.577948 
L 398.452915 252.678888 
L 401.574629 252.779402 
L 404.696344 252.875924 
L 407.818058 252.964692 
L 410.939773 253.041978 
L 414.061487 253.104347 
L 417.183202 253.148907 
L 420.304916 253.173528 
L 423.426631 253.177012 
L 426.548345 253.159189 
L 429.67006 253.12093 
L 432.791775 253.064076 
L 435.913489 252.991292 
L 439.035204 252.905862 
L 442.156918 252.811439 
L 445.278633 252.711793 
L 448.400347 252.610569 
L 451.522062 252.511071 
L 454.643776 252.416106 
L 457.765491 252.327882 
L 460.887205 252.247966 
L 464.00892 252.177298 
L 467.130634 252.116246 
L 470.252349 252.064698 
L 473.374063 252.022168 
L 476.495778 251.987906 
L 479.617493 251.961006 
L 482.739207 251.940496 
L 485.860922 251.925408 
L 488.982636 251.914832 
L 492.104351 251.907948 
L 495.226065 251.904035 
L 498.34778 251.90248 
L 501.469494 251.90276 
L 504.591209 251.904434 
L 507.712923 251.907123 
L 510.834638 251.910498 
L 513.956352 251.914261 
L 517.078067 251.918146 
L 520.199782 251.921907 
L 523.321496 251.925321 
L 526.443211 251.928196 
L 529.564925 251.93037 
L 532.68664 251.93172 
L 535.808354 251.932169 
L 535.808354 251.818434 
L 535.808354 251.818434 
L 532.68664 251.818883 
L 529.564925 251.820233 
L 526.443211 251.822407 
L 523.321496 251.825282 
L 520.199782 251.828696 
L 517.078067 251.832457 
L 513.956352 251.836342 
L 510.834638 251.840105 
L 507.712923 251.84348 
L 504.591209 251.846169 
L 501.469494 251.847843 
L 498.34778 251.848123 
L 495.226065 251.846568 
L 492.104351 251.842655 
L 488.982636 251.835771 
L 485.860922 251.825195 
L 482.739207 251.810107 
L 479.617493 251.789597 
L 476.495778 251.762697 
L 473.374063 251.728435 
L 470.252349 251.685905 
L 467.130634 251.634357 
L 464.00892 251.573305 
L 460.887205 251.502637 
L 457.765491 251.422721 
L 454.643776 251.334497 
L 451.522062 251.239532 
L 448.400347 251.140034 
L 445.278633 251.038809 
L 442.156918 250.939164 
L 439.035204 250.844741 
L 435.913489 250.759311 
L 432.791775 250.686527 
L 429.67006 250.629673 
L 426.548345 250.591414 
L 423.426631 250.573591 
L 420.304916 250.577075 
L 417.183202 250.601696 
L 414.061487 250.646256 
L 410.939773 250.708625 
L 407.818058 250.785911 
L 404.696344 250.874679 
L 401.574629 250.971201 
L 398.452915 251.071715 
L 395.3312 251.172655 
L 392.209486 251.270848 
L 389.087771 251.363655 
L 385.966056 251.449054 
L 382.844342 251.525657 
L 379.722627 251.59269 
L 376.600913 251.649916 
L 373.479198 251.697542 
L 370.357484 251.736111 
L 367.235769 251.766391 
L 364.114055 251.789279 
L 360.99234 251.805715 
L 357.870626 251.816623 
L 354.748911 251.822871 
L 351.627197 251.825242 
L 348.505482 251.824433 
L 345.383768 251.821058 
L 342.262053 251.815652 
L 339.140338 251.808684 
L 336.018624 251.800565 
L 332.896909 251.791643 
L 329.775195 251.7822 
L 326.65348 251.772426 
L 323.531766 251.762392 
L 320.410051 251.751998 
L 317.288337 251.740922 
L 314.166622 251.728546 
L 311.044908 251.713873 
L 307.923193 251.695441 
L 304.801479 251.67122 
L 301.679764 251.638524 
L 298.558049 251.593926 
L 295.436335 251.533205 
L 292.31462 251.451334 
L 289.192906 251.342535 
L 286.071191 251.200419 
L 282.949477 251.018234 
L 279.827762 250.789241 
L 276.706048 250.507203 
L 273.584333 250.166998 
L 270.462619 249.765314 
L 267.340904 249.301367 
L 264.21919 248.777597 
L 261.097475 248.200225 
L 257.975761 247.579618 
L 254.854046 246.930346 
L 251.732331 246.270887 
L 248.610617 245.622944 
L 245.488902 245.010383 
L 242.367188 244.457849 
L 239.245473 243.989164 
L 236.123759 243.625652 
L 233.002044 243.384547 
L 229.88033 243.277654 
L 226.758615 243.310407 
z
" style="fill:#ff0000;fill-opacity:0.75;"/>
   </g>
   <g id="PolyCollection_4">
    <path clip-path="url(#pb656bd6438)" d="M 226.759015 208.889059 
L 226.759015 226.080368 
L 229.89823 226.08236 
L 233.037445 226.003848 
L 236.17666 225.847093 
L 239.315876 225.616521 
L 242.455091 225.318516 
L 245.594306 224.961128 
L 248.733521 224.553722 
L 251.872736 224.106567 
L 255.011952 223.630416 
L 258.151167 223.136086 
L 261.290382 222.634058 
L 264.429597 222.134127 
L 267.568812 221.645116 
L 270.708028 221.174647 
L 273.847243 220.729008 
L 276.986458 220.313075 
L 280.125673 219.930315 
L 283.264888 219.582853 
L 286.404104 219.27158 
L 289.543319 218.996309 
L 292.682534 218.755952 
L 295.821749 218.548703 
L 298.960964 218.372236 
L 302.10018 218.22388 
L 305.239395 218.100791 
L 308.37861 218.00009 
L 311.517825 217.918991 
L 314.65704 217.8549 
L 317.796256 217.80548 
L 320.935471 217.768716 
L 324.074686 217.742934 
L 327.213901 217.72683 
L 330.353116 217.719459 
L 333.492332 217.720235 
L 336.631547 217.728901 
L 339.770762 217.745505 
L 342.909977 217.770362 
L 346.049192 217.804006 
L 349.188408 217.847139 
L 352.327623 217.900571 
L 355.466838 217.965156 
L 358.606053 218.041717 
L 361.745269 218.130968 
L 364.884484 218.233438 
L 368.023699 218.34939 
L 371.162914 218.478744 
L 374.302129 218.621011 
L 377.441345 218.775237 
L 380.58056 218.939965 
L 383.719775 219.113215 
L 386.85899 219.292497 
L 389.998205 219.47484 
L 393.137421 219.65686 
L 396.276636 219.834848 
L 399.415851 220.004885 
L 402.555066 220.162982 
L 405.694281 220.305228 
L 408.833497 220.427944 
L 411.972712 220.527842 
L 415.111927 220.602167 
L 418.251142 220.648819 
L 421.390357 220.66645 
L 424.529573 220.654528 
L 427.668788 220.61336 
L 430.808003 220.544079 
L 433.947218 220.448592 
L 437.086433 220.329494 
L 440.225649 220.189952 
L 443.364864 220.033567 
L 446.504079 219.864223 
L 449.643294 219.685932 
L 452.782509 219.502681 
L 455.921725 219.318293 
L 459.06094 219.136305 
L 462.200155 218.95987 
L 465.33937 218.791683 
L 468.478585 218.633936 
L 471.617801 218.488298 
L 474.757016 218.355922 
L 477.896231 218.237467 
L 481.035446 218.133142 
L 484.174662 218.042759 
L 487.313877 217.965796 
L 490.453092 217.901459 
L 493.592307 217.84875 
L 496.731522 217.806524 
L 499.870738 217.77355 
L 503.009953 217.748558 
L 506.149168 217.730279 
L 509.288383 217.717486 
L 512.427598 217.709015 
L 515.566814 217.70379 
L 518.706029 217.700841 
L 521.845244 217.699305 
L 524.984459 217.698445 
L 528.123674 217.69764 
L 531.26289 217.696393 
L 534.402105 217.694323 
L 537.54132 217.691162 
L 537.54132 217.278265 
L 537.54132 217.278265 
L 534.402105 217.275103 
L 531.26289 217.273034 
L 528.123674 217.271787 
L 524.984459 217.270982 
L 521.845244 217.270121 
L 518.706029 217.268586 
L 515.566814 217.265636 
L 512.427598 217.260412 
L 509.288383 217.251941 
L 506.149168 217.239147 
L 503.009953 217.220869 
L 499.870738 217.195876 
L 496.731522 217.162902 
L 493.592307 217.120677 
L 490.453092 217.067967 
L 487.313877 217.00363 
L 484.174662 216.926667 
L 481.035446 216.836284 
L 477.896231 216.731959 
L 474.757016 216.613504 
L 471.617801 216.481128 
L 468.478585 216.335491 
L 465.33937 216.177743 
L 462.200155 216.009556 
L 459.06094 215.833122 
L 455.921725 215.651134 
L 452.782509 215.466746 
L 449.643294 215.283495 
L 446.504079 215.105203 
L 443.364864 214.935859 
L 440.225649 214.779474 
L 437.086433 214.639933 
L 433.947218 214.520835 
L 430.808003 214.425348 
L 427.668788 214.356067 
L 424.529573 214.314898 
L 421.390357 214.302976 
L 418.251142 214.320607 
L 415.111927 214.367259 
L 411.972712 214.441584 
L 408.833497 214.541483 
L 405.694281 214.664199 
L 402.555066 214.806444 
L 399.415851 214.964541 
L 396.276636 215.134579 
L 393.137421 215.312566 
L 389.998205 215.494586 
L 386.85899 215.67693 
L 383.719775 215.856211 
L 380.58056 216.029462 
L 377.441345 216.194189 
L 374.302129 216.348415 
L 371.162914 216.490682 
L 368.023699 216.620036 
L 364.884484 216.735988 
L 361.745269 216.838459 
L 358.606053 216.92771 
L 355.466838 217.00427 
L 352.327623 217.068855 
L 349.188408 217.122288 
L 346.049192 217.16542 
L 342.909977 217.199064 
L 339.770762 217.223921 
L 336.631547 217.240526 
L 333.492332 217.249192 
L 330.353116 217.249967 
L 327.213901 217.242597 
L 324.074686 217.226492 
L 320.935471 217.200711 
L 317.796256 217.163946 
L 314.65704 217.114527 
L 311.517825 217.050435 
L 308.37861 216.969337 
L 305.239395 216.868636 
L 302.10018 216.745546 
L 298.960964 216.597191 
L 295.821749 216.420723 
L 292.682534 216.213475 
L 289.543319 215.973117 
L 286.404104 215.697847 
L 283.264888 215.386574 
L 280.125673 215.039111 
L 276.986458 214.656352 
L 273.847243 214.240418 
L 270.708028 213.794779 
L 267.568812 213.324311 
L 264.429597 212.835299 
L 261.290382 212.335369 
L 258.151167 211.83334 
L 255.011952 211.33901 
L 251.872736 210.86286 
L 248.733521 210.415705 
L 245.594306 210.008298 
L 242.455091 209.650911 
L 239.315876 209.352905 
L 236.17666 209.122333 
L 233.037445 208.965579 
L 229.89823 208.887066 
L 226.759015 208.889059 
z
" style="fill:#ff0000;fill-opacity:0.75;"/>
   </g>
   <g id="PolyCollection_5">
    <path clip-path="url(#pb656bd6438)" d="M 226.759015 174.49847 
L 226.759015 191.68978 
L 229.89823 191.691772 
L 233.037445 191.61326 
L 236.17666 191.456505 
L 239.315876 191.225933 
L 242.455091 190.927928 
L 245.594306 190.57054 
L 248.733521 190.163134 
L 251.872736 189.715978 
L 255.011952 189.239828 
L 258.151167 188.745498 
L 261.290382 188.24347 
L 264.429597 187.743539 
L 267.568812 187.254527 
L 270.708028 186.784059 
L 273.847243 186.33842 
L 276.986458 185.922487 
L 280.125673 185.539727 
L 283.264888 185.192264 
L 286.404104 184.880992 
L 289.543319 184.605721 
L 292.682534 184.365364 
L 295.821749 184.158115 
L 298.960964 183.981648 
L 302.10018 183.833292 
L 305.239395 183.710202 
L 308.37861 183.609501 
L 311.517825 183.528403 
L 314.65704 183.464311 
L 317.796256 183.414892 
L 320.935471 183.378127 
L 324.074686 183.352346 
L 327.213901 183.336242 
L 330.353116 183.328871 
L 333.492332 183.329647 
L 336.631547 183.338313 
L 339.770762 183.354917 
L 342.909977 183.379774 
L 346.049192 183.413418 
L 349.188408 183.45655 
L 352.327623 183.509983 
L 355.466838 183.574568 
L 358.606053 183.651129 
L 361.745269 183.74038 
L 364.884484 183.84285 
L 368.023699 183.958802 
L 371.162914 184.088156 
L 374.302129 184.230423 
L 377.441345 184.384649 
L 380.58056 184.549376 
L 383.719775 184.722627 
L 386.85899 184.901909 
L 389.998205 185.084252 
L 393.137421 185.266272 
L 396.276636 185.444259 
L 399.415851 185.614297 
L 402.555066 185.772394 
L 405.694281 185.91464 
L 408.833497 186.037355 
L 411.972712 186.137254 
L 415.111927 186.211579 
L 418.251142 186.258231 
L 421.390357 186.275862 
L 424.529573 186.26394 
L 427.668788 186.222772 
L 430.808003 186.15349 
L 433.947218 186.058003 
L 437.086433 185.938906 
L 440.225649 185.799364 
L 443.364864 185.642979 
L 446.504079 185.473635 
L 449.643294 185.295344 
L 452.782509 185.112092 
L 455.921725 184.927704 
L 459.06094 184.745717 
L 462.200155 184.569282 
L 465.33937 184.401095 
L 468.478585 184.243348 
L 471.617801 184.09771 
L 474.757016 183.965334 
L 477.896231 183.846879 
L 481.035446 183.742554 
L 484.174662 183.652171 
L 487.313877 183.575208 
L 490.453092 183.510871 
L 493.592307 183.458162 
L 496.731522 183.415936 
L 499.870738 183.382962 
L 503.009953 183.357969 
L 506.149168 183.339691 
L 509.288383 183.326897 
L 512.427598 183.318426 
L 515.566814 183.313202 
L 518.706029 183.310252 
L 521.845244 183.308717 
L 524.984459 183.307856 
L 528.123674 183.307052 
L 531.26289 183.305805 
L 534.402105 183.303735 
L 537.54132 183.300574 
L 537.54132 182.887676 
L 537.54132 182.887676 
L 534.402105 182.884515 
L 531.26289 182.882445 
L 528.123674 182.881198 
L 524.984459 182.880394 
L 521.845244 182.879533 
L 518.706029 182.877998 
L 515.566814 182.875048 
L 512.427598 182.869824 
L 509.288383 182.861353 
L 506.149168 182.848559 
L 503.009953 182.830281 
L 499.870738 182.805288 
L 496.731522 182.772314 
L 493.592307 182.730088 
L 490.453092 182.677379 
L 487.313877 182.613042 
L 484.174662 182.536079 
L 481.035446 182.445696 
L 477.896231 182.341371 
L 474.757016 182.222916 
L 471.617801 182.09054 
L 468.478585 181.944902 
L 465.33937 181.787155 
L 462.200155 181.618968 
L 459.06094 181.442533 
L 455.921725 181.260546 
L 452.782509 181.076158 
L 449.643294 180.892906 
L 446.504079 180.714615 
L 443.364864 180.545271 
L 440.225649 180.388886 
L 437.086433 180.249344 
L 433.947218 180.130247 
L 430.808003 180.03476 
L 427.668788 179.965478 
L 424.529573 179.92431 
L 421.390357 179.912388 
L 418.251142 179.930019 
L 415.111927 179.976671 
L 411.972712 180.050996 
L 408.833497 180.150895 
L 405.694281 180.27361 
L 402.555066 180.415856 
L 399.415851 180.573953 
L 396.276636 180.743991 
L 393.137421 180.921978 
L 389.998205 181.103998 
L 386.85899 181.286341 
L 383.719775 181.465623 
L 380.58056 181.638874 
L 377.441345 181.803601 
L 374.302129 181.957827 
L 371.162914 182.100094 
L 368.023699 182.229448 
L 364.884484 182.3454 
L 361.745269 182.44787 
L 358.606053 182.537121 
L 355.466838 182.613682 
L 352.327623 182.678267 
L 349.188408 182.7317 
L 346.049192 182.774832 
L 342.909977 182.808476 
L 339.770762 182.833333 
L 336.631547 182.849937 
L 333.492332 182.858603 
L 330.353116 182.859379 
L 327.213901 182.852008 
L 324.074686 182.835904 
L 320.935471 182.810123 
L 317.796256 182.773358 
L 314.65704 182.723939 
L 311.517825 182.659847 
L 308.37861 182.578749 
L 305.239395 182.478048 
L 302.10018 182.354958 
L 298.960964 182.206602 
L 295.821749 182.030135 
L 292.682534 181.822886 
L 289.543319 181.582529 
L 286.404104 181.307258 
L 283.264888 180.995986 
L 280.125673 180.648523 
L 276.986458 180.265763 
L 273.847243 179.84983 
L 270.708028 179.404191 
L 267.568812 178.933723 
L 264.429597 178.444711 
L 261.290382 177.94478 
L 258.151167 177.442752 
L 255.011952 176.948422 
L 251.872736 176.472272 
L 248.733521 176.025116 
L 245.594306 175.61771 
L 242.455091 175.260322 
L 239.315876 174.962317 
L 236.17666 174.731745 
L 233.037445 174.57499 
L 229.89823 174.496478 
L 226.759015 174.49847 
z
" style="fill:#ff0000;fill-opacity:0.75;"/>
   </g>
   <g id="PolyCollection_6">
    <path clip-path="url(#pb656bd6438)" d="M 226.750663 140.187481 
L 226.750663 157.219593 
L 229.869606 157.301184 
L 232.988549 157.294271 
L 236.107493 157.199339 
L 239.226436 157.019607 
L 242.345379 156.760857 
L 245.464322 156.43114 
L 248.583265 156.040359 
L 251.702209 155.599795 
L 254.821152 155.121568 
L 257.940095 154.6181 
L 261.059038 154.101602 
L 264.177981 153.583597 
L 267.296924 153.074544 
L 270.415868 152.583527 
L 273.534811 152.118063 
L 276.653754 151.684 
L 279.772697 151.28551 
L 282.89164 150.925166 
L 286.010584 150.604078 
L 289.129527 150.322084 
L 292.24847 150.077962 
L 295.367413 149.869661 
L 298.486356 149.694523 
L 301.6053 149.549496 
L 304.724243 149.431321 
L 307.843186 149.336691 
L 310.962129 149.262383 
L 314.081072 149.205362 
L 317.200015 149.162855 
L 320.318959 149.132407 
L 323.437902 149.111918 
L 326.556845 149.099664 
L 329.675788 149.094307 
L 332.794731 149.094897 
L 335.913675 149.100869 
L 339.032618 149.112028 
L 342.151561 149.128526 
L 345.270504 149.150837 
L 348.389447 149.179715 
L 351.50839 149.21614 
L 354.627334 149.261256 
L 357.746277 149.316291 
L 360.86522 149.382469 
L 363.984163 149.460908 
L 367.103106 149.552514 
L 370.22205 149.657876 
L 373.340993 149.777156 
L 376.459936 149.910004 
L 379.578879 150.055477 
L 382.697822 150.211993 
L 385.816766 150.377315 
L 388.935709 150.548568 
L 392.054652 150.7223 
L 395.173595 150.894578 
L 398.292538 151.061123 
L 401.411481 151.217476 
L 404.530425 151.35919 
L 407.649368 151.482025 
L 410.768311 151.582156 
L 413.887254 151.656354 
L 417.006197 151.702151 
L 420.125141 151.717967 
L 423.244084 151.703185 
L 426.363027 151.658185 
L 429.48197 151.584316 
L 432.600913 151.483821 
L 435.719857 151.359719 
L 438.8388 151.215646 
L 441.957743 151.055676 
L 445.076686 150.884121 
L 448.195629 150.705344 
L 451.314572 150.52357 
L 454.433516 150.34273 
L 457.552459 150.166327 
L 460.671402 149.997343 
L 463.790345 149.83818 
L 466.909288 149.690639 
L 470.028232 149.55593 
L 473.147175 149.434708 
L 476.266118 149.327136 
L 479.385061 149.23296 
L 482.504004 149.15159 
L 485.622948 149.08218 
L 488.741891 149.023715 
L 491.860834 148.975074 
L 494.979777 148.935099 
L 498.09872 148.902642 
L 501.217663 148.876598 
L 504.336607 148.855938 
L 507.45555 148.839724 
L 510.574493 148.827111 
L 513.693436 148.817359 
L 516.812379 148.809823 
L 519.931323 148.80395 
L 523.050266 148.799274 
L 526.169209 148.795407 
L 529.288152 148.792031 
L 532.407095 148.788894 
L 535.526039 148.785801 
L 535.526039 148.621272 
L 535.526039 148.621272 
L 532.407095 148.61818 
L 529.288152 148.615042 
L 526.169209 148.611666 
L 523.050266 148.607799 
L 519.931323 148.603123 
L 516.812379 148.59725 
L 513.693436 148.589714 
L 510.574493 148.579962 
L 507.45555 148.56735 
L 504.336607 148.551135 
L 501.217663 148.530476 
L 498.09872 148.504432 
L 494.979777 148.471974 
L 491.860834 148.432 
L 488.741891 148.383359 
L 485.622948 148.324893 
L 482.504004 148.255484 
L 479.385061 148.174113 
L 476.266118 148.079938 
L 473.147175 147.972366 
L 470.028232 147.851144 
L 466.909288 147.716434 
L 463.790345 147.568893 
L 460.671402 147.409731 
L 457.552459 147.240747 
L 454.433516 147.064344 
L 451.314572 146.883503 
L 448.195629 146.701729 
L 445.076686 146.522952 
L 441.957743 146.351398 
L 438.8388 146.191427 
L 435.719857 146.047355 
L 432.600913 145.923253 
L 429.48197 145.822758 
L 426.363027 145.748889 
L 423.244084 145.703889 
L 420.125141 145.689107 
L 417.006197 145.704923 
L 413.887254 145.75072 
L 410.768311 145.824917 
L 407.649368 145.925048 
L 404.530425 146.047884 
L 401.411481 146.189598 
L 398.292538 146.345951 
L 395.173595 146.512495 
L 392.054652 146.684773 
L 388.935709 146.858505 
L 385.816766 147.029759 
L 382.697822 147.195081 
L 379.578879 147.351597 
L 376.459936 147.497069 
L 373.340993 147.629917 
L 370.22205 147.749198 
L 367.103106 147.854559 
L 363.984163 147.946166 
L 360.86522 148.024605 
L 357.746277 148.090782 
L 354.627334 148.145818 
L 351.50839 148.190933 
L 348.389447 148.227359 
L 345.270504 148.256236 
L 342.151561 148.278548 
L 339.032618 148.295046 
L 335.913675 148.306204 
L 332.794731 148.312177 
L 329.675788 148.312767 
L 326.556845 148.30741 
L 323.437902 148.295155 
L 320.318959 148.274666 
L 317.200015 148.244219 
L 314.081072 148.201711 
L 310.962129 148.14469 
L 307.843186 148.070383 
L 304.724243 147.975752 
L 301.6053 147.857578 
L 298.486356 147.712551 
L 295.367413 147.537413 
L 292.24847 147.329112 
L 289.129527 147.084989 
L 286.010584 146.802995 
L 282.89164 146.481907 
L 279.772697 146.121563 
L 276.653754 145.723073 
L 273.534811 145.28901 
L 270.415868 144.823546 
L 267.296924 144.332529 
L 264.177981 143.823476 
L 261.059038 143.305472 
L 257.940095 142.788973 
L 254.821152 142.285506 
L 251.702209 141.807279 
L 248.583265 141.366714 
L 245.464322 140.975934 
L 242.345379 140.646216 
L 239.226436 140.387467 
L 236.107493 140.207734 
L 232.988549 140.112802 
L 229.869606 140.10589 
L 226.750663 140.187481 
z
" style="fill:#ff0000;fill-opacity:0.75;"/>
   </g>
   <g id="PolyCollection_7">
    <path clip-path="url(#pb656bd6438)" d="M 226.747347 105.715301 
L 226.747347 122.910596 
L 229.811892 122.881909 
L 232.876437 122.744841 
L 235.940982 122.504607 
L 239.005528 122.170199 
L 242.070073 121.753828 
L 245.134618 121.270192 
L 248.199163 120.735614 
L 251.263708 120.167144 
L 254.328253 119.581671 
L 257.392798 118.995117 
L 260.457344 118.421773 
L 263.521889 117.873791 
L 266.586434 117.360869 
L 269.650979 116.890118 
L 272.715524 116.4661 
L 275.780069 116.091005 
L 278.844614 115.764939 
L 281.90916 115.486282 
L 284.973705 115.252079 
L 288.03825 115.058435 
L 291.102795 114.900876 
L 294.16734 114.774681 
L 297.231885 114.67514 
L 300.29643 114.597765 
L 303.360976 114.538438 
L 306.425521 114.493495 
L 309.490066 114.459783 
L 312.554611 114.43466 
L 315.619156 114.415981 
L 318.683701 114.402061 
L 321.748246 114.391631 
L 324.812792 114.383781 
L 327.877337 114.377919 
L 330.941882 114.373718 
L 334.006427 114.371081 
L 337.070972 114.37011 
L 340.135517 114.371076 
L 343.200063 114.374403 
L 346.264608 114.380652 
L 349.329153 114.390506 
L 352.393698 114.404754 
L 355.458243 114.424276 
L 358.522788 114.450012 
L 361.587333 114.482935 
L 364.651879 114.523997 
L 367.716424 114.574082 
L 370.780969 114.633931 
L 373.845514 114.704072 
L 376.910059 114.784737 
L 379.974604 114.875784 
L 383.039149 114.976628 
L 386.103695 115.086184 
L 389.16824 115.202836 
L 392.232785 115.324435 
L 395.29733 115.448335 
L 398.361875 115.571461 
L 401.42642 115.690428 
L 404.490965 115.801675 
L 407.555511 115.901643 
L 410.620056 115.986957 
L 413.684601 116.05461 
L 416.749146 116.102145 
L 419.813691 116.127794 
L 422.878236 116.130592 
L 425.942781 116.110437 
L 429.007327 116.068093 
L 432.071872 116.005143 
L 435.136417 115.923893 
L 438.200962 115.827233 
L 441.265507 115.718463 
L 444.330052 115.601114 
L 447.394597 115.478756 
L 450.459143 115.354829 
L 453.523688 115.232487 
L 456.588233 115.114483 
L 459.652778 115.003087 
L 462.717323 114.900041 
L 465.781868 114.806554 
L 468.846413 114.723328 
L 471.910959 114.650606 
L 474.975504 114.588241 
L 478.040049 114.535769 
L 481.104594 114.492497 
L 484.169139 114.457567 
L 487.233684 114.430036 
L 490.29823 114.408925 
L 493.362775 114.393267 
L 496.42732 114.382139 
L 499.491865 114.374687 
L 502.55641 114.370136 
L 505.620955 114.367796 
L 508.6855 114.367064 
L 511.750046 114.36742 
L 514.814591 114.368423 
L 517.879136 114.369704 
L 520.943681 114.370964 
L 524.008226 114.371967 
L 527.072771 114.372536 
L 530.137316 114.372548 
L 530.137316 114.253349 
L 530.137316 114.253349 
L 527.072771 114.253361 
L 524.008226 114.25393 
L 520.943681 114.254933 
L 517.879136 114.256193 
L 514.814591 114.257474 
L 511.750046 114.258477 
L 508.6855 114.258833 
L 505.620955 114.258101 
L 502.55641 114.255761 
L 499.491865 114.25121 
L 496.42732 114.243758 
L 493.362775 114.23263 
L 490.29823 114.216972 
L 487.233684 114.195861 
L 484.169139 114.16833 
L 481.104594 114.133401 
L 478.040049 114.090128 
L 474.975504 114.037656 
L 471.910959 113.975291 
L 468.846413 113.902569 
L 465.781868 113.819343 
L 462.717323 113.725856 
L 459.652778 113.62281 
L 456.588233 113.511414 
L 453.523688 113.39341 
L 450.459143 113.271068 
L 447.394597 113.147141 
L 444.330052 113.024784 
L 441.265507 112.907434 
L 438.200962 112.798664 
L 435.136417 112.702004 
L 432.071872 112.620754 
L 429.007327 112.557804 
L 425.942781 112.51546 
L 422.878236 112.495305 
L 419.813691 112.498103 
L 416.749146 112.523753 
L 413.684601 112.571287 
L 410.620056 112.638941 
L 407.555511 112.724254 
L 404.490965 112.824222 
L 401.42642 112.935469 
L 398.361875 113.054436 
L 395.29733 113.177562 
L 392.232785 113.301462 
L 389.16824 113.423061 
L 386.103695 113.539713 
L 383.039149 113.649269 
L 379.974604 113.750113 
L 376.910059 113.84116 
L 373.845514 113.921825 
L 370.780969 113.991966 
L 367.716424 114.051815 
L 364.651879 114.1019 
L 361.587333 114.142962 
L 358.522788 114.175885 
L 355.458243 114.201621 
L 352.393698 114.221143 
L 349.329153 114.235391 
L 346.264608 114.245245 
L 343.200063 114.251494 
L 340.135517 114.254821 
L 337.070972 114.255787 
L 334.006427 114.254816 
L 330.941882 114.252179 
L 327.877337 114.247978 
L 324.812792 114.242116 
L 321.748246 114.234266 
L 318.683701 114.223836 
L 315.619156 114.209916 
L 312.554611 114.191237 
L 309.490066 114.166114 
L 306.425521 114.132402 
L 303.360976 114.087459 
L 300.29643 114.028132 
L 297.231885 113.950757 
L 294.16734 113.851216 
L 291.102795 113.725021 
L 288.03825 113.567463 
L 284.973705 113.373818 
L 281.90916 113.139615 
L 278.844614 112.860958 
L 275.780069 112.534892 
L 272.715524 112.159797 
L 269.650979 111.735779 
L 266.586434 111.265028 
L 263.521889 110.752106 
L 260.457344 110.204124 
L 257.392798 109.63078 
L 254.328253 109.044226 
L 251.263708 108.458753 
L 248.199163 107.890283 
L 245.134618 107.355705 
L 242.070073 106.872069 
L 239.005528 106.455698 
L 235.940982 106.12129 
L 232.876437 105.881056 
L 229.811892 105.743988 
L 226.747347 105.715301 
z
" style="fill:#ff0000;fill-opacity:0.75;"/>
   </g>
   <g id="PolyCollection_8">
    <path clip-path="url(#pb656bd6438)" d="M 226.754413 71.427188 
L 226.754413 88.417533 
L 228.836298 88.495695 
L 230.918183 88.520007 
L 233.000068 88.490026 
L 235.081953 88.406337 
L 237.163838 88.270536 
L 239.245723 88.085185 
L 241.327608 87.853723 
L 243.409493 87.580372 
L 245.491378 87.269999 
L 247.573263 86.927984 
L 249.655148 86.560058 
L 251.737033 86.172149 
L 253.818918 85.770228 
L 255.900803 85.360157 
L 257.982688 84.947556 
L 260.064573 84.53768 
L 262.146458 84.135322 
L 264.228343 83.744735 
L 266.310228 83.369576 
L 268.392113 83.012872 
L 270.473998 82.677013 
L 272.555883 82.363759 
L 274.637768 82.074267 
L 276.719653 81.809136 
L 278.801538 81.568456 
L 280.883423 81.351876 
L 282.965308 81.158663 
L 285.047193 80.987776 
L 287.129078 80.837933 
L 289.210963 80.707675 
L 291.292848 80.595427 
L 293.374733 80.499553 
L 295.456618 80.418401 
L 297.538502 80.350345 
L 299.620387 80.293814 
L 301.702272 80.247321 
L 303.784157 80.209477 
L 305.866042 80.179004 
L 307.947927 80.154742 
L 310.029812 80.135651 
L 312.111697 80.120809 
L 314.193582 80.109406 
L 316.275467 80.100741 
L 318.357352 80.094214 
L 320.439237 80.089314 
L 322.521122 80.085616 
L 324.603007 80.08277 
L 326.684892 80.080494 
L 328.766777 80.07857 
L 330.848662 80.076833 
L 332.930547 80.075173 
L 335.012432 80.073524 
L 337.094317 80.071865 
L 339.176202 80.070217 
L 341.258087 80.06864 
L 343.339972 80.067233 
L 345.421857 80.06613 
L 347.503742 80.0655 
L 349.585627 80.06555 
L 351.667512 80.066515 
L 353.749397 80.068665 
L 355.831282 80.072296 
L 357.913167 80.077731 
L 359.995052 80.085315 
L 362.076937 80.095409 
L 364.158822 80.108385 
L 366.240707 80.124621 
L 368.322592 80.144488 
L 370.404477 80.168344 
L 372.486362 80.196524 
L 374.568247 80.229326 
L 376.650132 80.266998 
L 378.732017 80.309729 
L 380.813902 80.357631 
L 382.895787 80.410731 
L 384.977672 80.468955 
L 387.059557 80.53212 
L 389.141442 80.599923 
L 391.223327 80.671938 
L 393.305212 80.747612 
L 395.387097 80.826263 
L 397.468982 80.90709 
L 399.550867 80.989177 
L 401.632752 81.071509 
L 403.714637 81.152988 
L 405.796522 81.232457 
L 407.878407 81.308722 
L 409.960292 81.380582 
L 412.042177 81.446859 
L 414.124061 81.506426 
L 416.205946 81.55824 
L 418.287831 81.601371 
L 420.369716 81.635029 
L 422.451601 81.658583 
L 424.533486 81.671588 
L 426.615371 81.67379 
L 428.697256 81.665139 
L 430.779141 81.645786 
L 432.861026 81.616082 
L 432.861026 78.228639 
L 432.861026 78.228639 
L 430.779141 78.198935 
L 428.697256 78.179582 
L 426.615371 78.17093 
L 424.533486 78.173132 
L 422.451601 78.186137 
L 420.369716 78.209692 
L 418.287831 78.243349 
L 416.205946 78.286481 
L 414.124061 78.338295 
L 412.042177 78.397862 
L 409.960292 78.464138 
L 407.878407 78.535998 
L 405.796522 78.612264 
L 403.714637 78.691732 
L 401.632752 78.773212 
L 399.550867 78.855543 
L 397.468982 78.93763 
L 395.387097 79.018457 
L 393.305212 79.097109 
L 391.223327 79.172783 
L 389.141442 79.244798 
L 387.059557 79.312601 
L 384.977672 79.375765 
L 382.895787 79.433989 
L 380.813902 79.487089 
L 378.732017 79.534992 
L 376.650132 79.577722 
L 374.568247 79.615395 
L 372.486362 79.648196 
L 370.404477 79.676376 
L 368.322592 79.700233 
L 366.240707 79.7201 
L 364.158822 79.736335 
L 362.076937 79.749312 
L 359.995052 79.759405 
L 357.913167 79.766989 
L 355.831282 79.772424 
L 353.749397 79.776055 
L 351.667512 79.778205 
L 349.585627 79.779171 
L 347.503742 79.77922 
L 345.421857 79.778591 
L 343.339972 79.777488 
L 341.258087 79.77608 
L 339.176202 79.774504 
L 337.094317 79.772856 
L 335.012432 79.771197 
L 332.930547 79.769548 
L 330.848662 79.767887 
L 328.766777 79.766151 
L 326.684892 79.764226 
L 324.603007 79.761951 
L 322.521122 79.759105 
L 320.439237 79.755407 
L 318.357352 79.750507 
L 316.275467 79.743979 
L 314.193582 79.735315 
L 312.111697 79.723912 
L 310.029812 79.70907 
L 307.947927 79.689979 
L 305.866042 79.665717 
L 303.784157 79.635244 
L 301.702272 79.5974 
L 299.620387 79.550907 
L 297.538502 79.494376 
L 295.456618 79.42632 
L 293.374733 79.345168 
L 291.292848 79.249294 
L 289.210963 79.137046 
L 287.129078 79.006788 
L 285.047193 78.856944 
L 282.965308 78.686058 
L 280.883423 78.492844 
L 278.801538 78.276264 
L 276.719653 78.035585 
L 274.637768 77.770454 
L 272.555883 77.480962 
L 270.473998 77.167707 
L 268.392113 76.831848 
L 266.310228 76.475144 
L 264.228343 76.099985 
L 262.146458 75.709398 
L 260.064573 75.307041 
L 257.982688 74.897165 
L 255.900803 74.484563 
L 253.818918 74.074492 
L 251.737033 73.672571 
L 249.655148 73.284663 
L 247.573263 72.916737 
L 245.491378 72.574721 
L 243.409493 72.264349 
L 241.327608 71.990997 
L 239.245723 71.759536 
L 237.163838 71.574184 
L 235.081953 71.438384 
L 233.000068 71.354695 
L 230.918183 71.324713 
L 228.836298 71.349026 
L 226.754413 71.427188 
z
" style="fill:#ff0000;fill-opacity:0.75;"/>
   </g>
   <g id="PolyCollection_9">
    <path clip-path="url(#pb656bd6438)" d="M 226.750162 36.934125 
L 226.750162 54.129419 
L 229.891594 54.12893 
L 233.033026 53.910556 
L 236.174458 53.490786 
L 239.31589 52.900478 
L 242.457322 52.181116 
L 245.598755 51.380001 
L 248.740187 50.545161 
L 251.881619 49.720725 
L 255.023051 48.943358 
L 258.164483 48.240105 
L 261.305915 47.627708 
L 264.447347 47.113216 
L 267.588779 46.695547 
L 270.730211 46.367575 
L 273.871643 46.118343 
L 277.013075 45.935084 
L 280.154507 45.804834 
L 283.295939 45.715572 
L 286.437371 45.656871 
L 289.578803 45.620169 
L 292.720236 45.598735 
L 295.861668 45.587476 
L 299.0031 45.582649 
L 302.144532 45.581569 
L 305.285964 45.582352 
L 308.427396 45.583704 
L 311.568828 45.584768 
L 314.71026 45.585014 
L 317.851692 45.584168 
L 320.993124 45.582151 
L 324.134556 45.57904 
L 327.275988 45.57502 
L 330.41742 45.570352 
L 333.558852 45.565326 
L 336.700284 45.560233 
L 339.841717 45.555339 
L 342.983149 45.550866 
L 346.124581 45.546989 
L 349.266013 45.543845 
L 352.407445 45.541556 
L 355.548877 45.540247 
L 358.690309 45.540092 
L 361.831741 45.54134 
L 364.973173 45.544361 
L 368.114605 45.549667 
L 371.256037 45.55793 
L 374.397469 45.569978 
L 377.538901 45.586758 
L 380.680333 45.609266 
L 383.821765 45.638436 
L 386.963198 45.674996 
L 390.10463 45.719293 
L 393.246062 45.771128 
L 396.387494 45.829595 
L 399.528926 45.892998 
L 402.670358 45.958845 
L 405.81179 46.023955 
L 408.953222 46.084678 
L 412.094654 46.137222 
L 415.236086 46.178031 
L 418.377518 46.204189 
L 421.51895 46.213758 
L 424.660382 46.206016 
L 427.801814 46.181551 
L 430.943246 46.142182 
L 434.084679 46.090739 
L 437.226111 46.030726 
L 440.367543 45.965928 
L 443.508975 45.900022 
L 446.650407 45.836248 
L 449.791839 45.777173 
L 452.933271 45.724578 
L 456.074703 45.67944 
L 459.216135 45.642026 
L 462.357567 45.612029 
L 465.498999 45.588743 
L 468.640431 45.571233 
L 471.781863 45.558483 
L 474.923295 45.549511 
L 478.064727 45.543442 
L 481.20616 45.539554 
L 484.347592 45.537286 
L 487.489024 45.536233 
L 490.630456 45.536125 
L 493.771888 45.536803 
L 496.91332 45.538186 
L 500.054752 45.540244 
L 503.196184 45.542971 
L 506.337616 45.546352 
L 509.479048 45.550351 
L 512.62048 45.55488 
L 515.761912 45.559801 
L 518.903344 45.564912 
L 522.044776 45.56996 
L 525.186208 45.574659 
L 528.327641 45.578711 
L 531.469073 45.581837 
L 534.610505 45.583812 
L 537.751937 45.584487 
L 537.751937 45.479057 
L 537.751937 45.479057 
L 534.610505 45.479732 
L 531.469073 45.481707 
L 528.327641 45.484834 
L 525.186208 45.488885 
L 522.044776 45.493584 
L 518.903344 45.498632 
L 515.761912 45.503743 
L 512.62048 45.508664 
L 509.479048 45.513194 
L 506.337616 45.517192 
L 503.196184 45.520574 
L 500.054752 45.5233 
L 496.91332 45.525358 
L 493.771888 45.526741 
L 490.630456 45.527419 
L 487.489024 45.527311 
L 484.347592 45.526258 
L 481.20616 45.52399 
L 478.064727 45.520102 
L 474.923295 45.514033 
L 471.781863 45.505061 
L 468.640431 45.492311 
L 465.498999 45.474801 
L 462.357567 45.451515 
L 459.216135 45.421518 
L 456.074703 45.384104 
L 452.933271 45.338966 
L 449.791839 45.286371 
L 446.650407 45.227297 
L 443.508975 45.163522 
L 440.367543 45.097616 
L 437.226111 45.032818 
L 434.084679 44.972805 
L 430.943246 44.921362 
L 427.801814 44.881993 
L 424.660382 44.857528 
L 421.51895 44.849786 
L 418.377518 44.859355 
L 415.236086 44.885513 
L 412.094654 44.926323 
L 408.953222 44.978866 
L 405.81179 45.039589 
L 402.670358 45.104699 
L 399.528926 45.170546 
L 396.387494 45.23395 
L 393.246062 45.292416 
L 390.10463 45.344251 
L 386.963198 45.388549 
L 383.821765 45.425108 
L 380.680333 45.454278 
L 377.538901 45.476786 
L 374.397469 45.493566 
L 371.256037 45.505614 
L 368.114605 45.513877 
L 364.973173 45.519183 
L 361.831741 45.522204 
L 358.690309 45.523453 
L 355.548877 45.523297 
L 352.407445 45.521988 
L 349.266013 45.519699 
L 346.124581 45.516556 
L 342.983149 45.512678 
L 339.841717 45.508205 
L 336.700284 45.503311 
L 333.558852 45.498218 
L 330.41742 45.493193 
L 327.275988 45.488524 
L 324.134556 45.484505 
L 320.993124 45.481393 
L 317.851692 45.479376 
L 314.71026 45.47853 
L 311.568828 45.478776 
L 308.427396 45.47984 
L 305.285964 45.481192 
L 302.144532 45.481975 
L 299.0031 45.480896 
L 295.861668 45.476068 
L 292.720236 45.464809 
L 289.578803 45.443376 
L 286.437371 45.406673 
L 283.295939 45.347972 
L 280.154507 45.25871 
L 277.013075 45.128461 
L 273.871643 44.945201 
L 270.730211 44.69597 
L 267.588779 44.367997 
L 264.447347 43.950328 
L 261.305915 43.435836 
L 258.164483 42.823439 
L 255.023051 42.120186 
L 251.881619 41.342819 
L 248.740187 40.518383 
L 245.598755 39.683543 
L 242.457322 38.882428 
L 239.31589 38.163066 
L 236.174458 37.572758 
L 233.033026 37.152988 
L 229.891594 36.934614 
L 226.750162 36.934125 
z
" style="fill:#ff0000;fill-opacity:0.75;"/>
   </g>
   <g id="LineCollection_1">
    <path clip-path="url(#pb656bd6438)" d="M 251.809433 324.955301 
L 251.809433 316.357654 
" style="fill:none;stroke:#000000;stroke-width:1.5;"/>
    <path clip-path="url(#pb656bd6438)" d="M 254.328716 290.564713 
L 254.328716 281.967066 
" style="fill:none;stroke:#000000;stroke-width:1.5;"/>
    <path clip-path="url(#pb656bd6438)" d="M 256.778185 256.174125 
L 256.778185 247.576478 
" style="fill:none;stroke:#000000;stroke-width:1.5;"/>
    <path clip-path="url(#pb656bd6438)" d="M 285.369494 221.783537 
L 285.369494 213.18589 
" style="fill:none;stroke:#000000;stroke-width:1.5;"/>
    <path clip-path="url(#pb656bd6438)" d="M 285.369494 187.392949 
L 285.369494 178.795301 
" style="fill:none;stroke:#000000;stroke-width:1.5;"/>
    <path clip-path="url(#pb656bd6438)" d="M 283.883951 153.00236 
L 283.883951 144.404713 
" style="fill:none;stroke:#000000;stroke-width:1.5;"/>
    <path clip-path="url(#pb656bd6438)" d="M 263.290376 118.611772 
L 263.290376 110.014125 
" style="fill:none;stroke:#000000;stroke-width:1.5;"/>
    <path clip-path="url(#pb656bd6438)" d="M 265.111151 84.221184 
L 265.111151 75.623537 
" style="fill:none;stroke:#000000;stroke-width:1.5;"/>
    <path clip-path="url(#pb656bd6438)" d="M 244.576961 49.830596 
L 244.576961 41.232949 
" style="fill:none;stroke:#000000;stroke-width:1.5;"/>
   </g>
   <g id="patch_3">
    <path d="M 226.746875 343.870125 
L 226.746875 22.318125 
" style="fill:none;stroke:#000000;stroke-linecap:square;stroke-linejoin:miter;stroke-width:0.8;"/>
   </g>
   <g id="patch_4">
    <path d="M 617.346875 343.870125 
L 617.346875 22.318125 
" style="fill:none;stroke:#000000;stroke-linecap:square;stroke-linejoin:miter;stroke-width:0.8;"/>
   </g>
   <g id="patch_5">
    <path d="M 226.746875 343.870125 
L 617.346875 343.870125 
" style="fill:none;stroke:#000000;stroke-linecap:square;stroke-linejoin:miter;stroke-width:0.8;"/>
   </g>
   <g id="patch_6">
    <path d="M 226.746875 22.318125 
L 617.346875 22.318125 
" style="fill:none;stroke:#000000;stroke-linecap:square;stroke-linejoin:miter;stroke-width:0.8;"/>
   </g>
   <g id="text_21">
    <!-- AOE1 for 1.2 -->
    <g transform="translate(384.005938 16.318125)scale(0.12 -0.12)">
     <use xlink:href="#DejaVuSans-41"/>
     <use x="68.392578" xlink:href="#DejaVuSans-4f"/>
     <use x="147.103516" xlink:href="#DejaVuSans-45"/>
     <use x="210.287109" xlink:href="#DejaVuSans-31"/>
     <use x="273.910156" xlink:href="#DejaVuSans-20"/>
     <use x="305.697266" xlink:href="#DejaVuSans-66"/>
     <use x="340.902344" xlink:href="#DejaVuSans-6f"/>
     <use x="402.083984" xlink:href="#DejaVuSans-72"/>
     <use x="443.197266" xlink:href="#DejaVuSans-20"/>
     <use x="474.984375" xlink:href="#DejaVuSans-31"/>
     <use x="538.607422" xlink:href="#DejaVuSans-2e"/>
     <use x="570.394531" xlink:href="#DejaVuSans-32"/>
    </g>
   </g>
  </g>
 </g>
 <defs>
  <clipPath id="pb656bd6438">
   <rect height="321.552" width="390.6" x="226.746875" y="22.318125"/>
  </clipPath>
 </defs>
</svg>
