<?xml version='1.0' encoding='utf-8'?>
<svg xmlns:xlink="http://www.w3.org/1999/xlink" xmlns="http://www.w3.org/2000/svg" id="chart-d5e29556-d398-4412-92e8-bb0326f82a4b" class="pygal-chart" viewBox="0 0 800 600"><!--Generated with pygal 2.4.0 (lxml) ©Kozea 2012-2016 on 2019-10-13--><!--http://pygal.org--><!--http://github.com/Kozea/pygal--><defs><style type="text/css">#chart-d5e29556-d398-4412-92e8-bb0326f82a4b{-webkit-user-select:none;-webkit-font-smoothing:antialiased;font-family:Helvetica,Arial,sans-serif}#chart-d5e29556-d398-4412-92e8-bb0326f82a4b .title{font-family:Helvetica,Arial,sans-serif;font-size:18px}#chart-d5e29556-d398-4412-92e8-bb0326f82a4b .legends .legend text{font-family:Helvetica,Arial,sans-serif;font-size:15px}#chart-d5e29556-d398-4412-92e8-bb0326f82a4b .axis text{font-family:Helvetica,Arial,sans-serif;font-size:15px}#chart-d5e29556-d398-4412-92e8-bb0326f82a4b .axis text.major{font-family:Helvetica,Arial,sans-serif;font-size:15px}#chart-d5e29556-d398-4412-92e8-bb0326f82a4b .text-overlay text.value{font-family:Helvetica,Arial,sans-serif;font-size:15px}#chart-d5e29556-d398-4412-92e8-bb0326f82a4b .text-overlay text.label{font-family:Helvetica,Arial,sans-serif;font-size:15px}#chart-d5e29556-d398-4412-92e8-bb0326f82a4b .tooltip{font-family:Helvetica,Arial,sans-serif;font-size:14px}#chart-d5e29556-d398-4412-92e8-bb0326f82a4b text.no_data{font-family:Helvetica,Arial,sans-serif;font-size:64px}
#chart-d5e29556-d398-4412-92e8-bb0326f82a4b{background-color:transparent}#chart-d5e29556-d398-4412-92e8-bb0326f82a4b path,#chart-d5e29556-d398-4412-92e8-bb0326f82a4b line,#chart-d5e29556-d398-4412-92e8-bb0326f82a4b rect,#chart-d5e29556-d398-4412-92e8-bb0326f82a4b circle{-webkit-transition:150ms;-moz-transition:150ms;transition:150ms}#chart-d5e29556-d398-4412-92e8-bb0326f82a4b .graph &gt; .background{fill:transparent}#chart-d5e29556-d398-4412-92e8-bb0326f82a4b .plot &gt; .background{fill:white}#chart-d5e29556-d398-4412-92e8-bb0326f82a4b .graph{fill:rgba(0,0,0,.87)}#chart-d5e29556-d398-4412-92e8-bb0326f82a4b text.no_data{fill:rgba(0,0,0,1)}#chart-d5e29556-d398-4412-92e8-bb0326f82a4b .title{fill:rgba(0,0,0,1)}#chart-d5e29556-d398-4412-92e8-bb0326f82a4b .legends .legend text{fill:rgba(0,0,0,.87)}#chart-d5e29556-d398-4412-92e8-bb0326f82a4b .legends .legend:hover text{fill:rgba(0,0,0,1)}#chart-d5e29556-d398-4412-92e8-bb0326f82a4b .axis .line{stroke:rgba(0,0,0,1)}#chart-d5e29556-d398-4412-92e8-bb0326f82a4b .axis .guide.line{stroke:rgba(0,0,0,.54)}#chart-d5e29556-d398-4412-92e8-bb0326f82a4b .axis .major.line{stroke:rgba(0,0,0,.87)}#chart-d5e29556-d398-4412-92e8-bb0326f82a4b .axis text.major{fill:rgba(0,0,0,1)}#chart-d5e29556-d398-4412-92e8-bb0326f82a4b .axis.y .guides:hover .guide.line,#chart-d5e29556-d398-4412-92e8-bb0326f82a4b .line-graph .axis.x .guides:hover .guide.line,#chart-d5e29556-d398-4412-92e8-bb0326f82a4b .stackedline-graph .axis.x .guides:hover .guide.line,#chart-d5e29556-d398-4412-92e8-bb0326f82a4b .xy-graph .axis.x .guides:hover .guide.line{stroke:rgba(0,0,0,1)}#chart-d5e29556-d398-4412-92e8-bb0326f82a4b .axis .guides:hover text{fill:rgba(0,0,0,1)}#chart-d5e29556-d398-4412-92e8-bb0326f82a4b .reactive{fill-opacity:.7;stroke-opacity:.8}#chart-d5e29556-d398-4412-92e8-bb0326f82a4b .ci{stroke:rgba(0,0,0,.87)}#chart-d5e29556-d398-4412-92e8-bb0326f82a4b .reactive.active,#chart-d5e29556-d398-4412-92e8-bb0326f82a4b .active .reactive{fill-opacity:.8;stroke-opacity:.9;stroke-width:4}#chart-d5e29556-d398-4412-92e8-bb0326f82a4b .ci .reactive.active{stroke-width:1.5}#chart-d5e29556-d398-4412-92e8-bb0326f82a4b .series text{fill:rgba(0,0,0,1)}#chart-d5e29556-d398-4412-92e8-bb0326f82a4b .tooltip rect{fill:white;stroke:rgba(0,0,0,1);-webkit-transition:opacity 150ms;-moz-transition:opacity 150ms;transition:opacity 150ms}#chart-d5e29556-d398-4412-92e8-bb0326f82a4b .tooltip .label{fill:rgba(0,0,0,.87)}#chart-d5e29556-d398-4412-92e8-bb0326f82a4b .tooltip .label{fill:rgba(0,0,0,.87)}#chart-d5e29556-d398-4412-92e8-bb0326f82a4b .tooltip .legend{font-size:.8em;fill:rgba(0,0,0,.54)}#chart-d5e29556-d398-4412-92e8-bb0326f82a4b .tooltip .x_label{font-size:.6em;fill:rgba(0,0,0,1)}#chart-d5e29556-d398-4412-92e8-bb0326f82a4b .tooltip .xlink{font-size:.5em;text-decoration:underline}#chart-d5e29556-d398-4412-92e8-bb0326f82a4b .tooltip .value{font-size:1.5em}#chart-d5e29556-d398-4412-92e8-bb0326f82a4b .bound{font-size:.5em}#chart-d5e29556-d398-4412-92e8-bb0326f82a4b .max-value{font-size:.75em;fill:rgba(0,0,0,.54)}#chart-d5e29556-d398-4412-92e8-bb0326f82a4b .map-element{fill:white;stroke:rgba(0,0,0,.54) !important}#chart-d5e29556-d398-4412-92e8-bb0326f82a4b .map-element .reactive{fill-opacity:inherit;stroke-opacity:inherit}#chart-d5e29556-d398-4412-92e8-bb0326f82a4b .color-0,#chart-d5e29556-d398-4412-92e8-bb0326f82a4b .color-0 a:visited{stroke:#F44336;fill:#F44336}#chart-d5e29556-d398-4412-92e8-bb0326f82a4b .color-1,#chart-d5e29556-d398-4412-92e8-bb0326f82a4b .color-1 a:visited{stroke:#3F51B5;fill:#3F51B5}#chart-d5e29556-d398-4412-92e8-bb0326f82a4b .color-2,#chart-d5e29556-d398-4412-92e8-bb0326f82a4b .color-2 a:visited{stroke:#009688;fill:#009688}#chart-d5e29556-d398-4412-92e8-bb0326f82a4b .color-3,#chart-d5e29556-d398-4412-92e8-bb0326f82a4b .color-3 a:visited{stroke:#FFC107;fill:#FFC107}#chart-d5e29556-d398-4412-92e8-bb0326f82a4b .color-4,#chart-d5e29556-d398-4412-92e8-bb0326f82a4b .color-4 a:visited{stroke:#FF5722;fill:#FF5722}#chart-d5e29556-d398-4412-92e8-bb0326f82a4b .color-5,#chart-d5e29556-d398-4412-92e8-bb0326f82a4b .color-5 a:visited{stroke:#9C27B0;fill:#9C27B0}#chart-d5e29556-d398-4412-92e8-bb0326f82a4b .text-overlay .color-0 text{fill:black}#chart-d5e29556-d398-4412-92e8-bb0326f82a4b .text-overlay .color-1 text{fill:black}#chart-d5e29556-d398-4412-92e8-bb0326f82a4b .text-overlay .color-2 text{fill:black}#chart-d5e29556-d398-4412-92e8-bb0326f82a4b .text-overlay .color-3 text{fill:black}#chart-d5e29556-d398-4412-92e8-bb0326f82a4b .text-overlay .color-4 text{fill:black}#chart-d5e29556-d398-4412-92e8-bb0326f82a4b .text-overlay .color-5 text{fill:black}
#chart-d5e29556-d398-4412-92e8-bb0326f82a4b text.no_data{text-anchor:middle}#chart-d5e29556-d398-4412-92e8-bb0326f82a4b .guide.line{fill:none}#chart-d5e29556-d398-4412-92e8-bb0326f82a4b .centered{text-anchor:middle}#chart-d5e29556-d398-4412-92e8-bb0326f82a4b .title{text-anchor:middle}#chart-d5e29556-d398-4412-92e8-bb0326f82a4b .legends .legend text{fill-opacity:1}#chart-d5e29556-d398-4412-92e8-bb0326f82a4b .axis.x text{text-anchor:middle}#chart-d5e29556-d398-4412-92e8-bb0326f82a4b .axis.x:not(.web) text[transform]{text-anchor:start}#chart-d5e29556-d398-4412-92e8-bb0326f82a4b .axis.x:not(.web) text[transform].backwards{text-anchor:end}#chart-d5e29556-d398-4412-92e8-bb0326f82a4b .axis.y text{text-anchor:end}#chart-d5e29556-d398-4412-92e8-bb0326f82a4b .axis.y text[transform].backwards{text-anchor:start}#chart-d5e29556-d398-4412-92e8-bb0326f82a4b .axis.y2 text{text-anchor:start}#chart-d5e29556-d398-4412-92e8-bb0326f82a4b .axis.y2 text[transform].backwards{text-anchor:end}#chart-d5e29556-d398-4412-92e8-bb0326f82a4b .axis .guide.line{stroke-dasharray:1}#chart-d5e29556-d398-4412-92e8-bb0326f82a4b .axis .major.guide.line{stroke-dasharray:1}#chart-d5e29556-d398-4412-92e8-bb0326f82a4b .horizontal .axis.y .guide.line,#chart-d5e29556-d398-4412-92e8-bb0326f82a4b .horizontal .axis.y2 .guide.line,#chart-d5e29556-d398-4412-92e8-bb0326f82a4b .vertical .axis.x .guide.line{opacity:0}#chart-d5e29556-d398-4412-92e8-bb0326f82a4b .horizontal .axis.always_show .guide.line,#chart-d5e29556-d398-4412-92e8-bb0326f82a4b .vertical .axis.always_show .guide.line{opacity:1 !important}#chart-d5e29556-d398-4412-92e8-bb0326f82a4b .axis.y .guides:hover .guide.line,#chart-d5e29556-d398-4412-92e8-bb0326f82a4b .axis.y2 .guides:hover .guide.line,#chart-d5e29556-d398-4412-92e8-bb0326f82a4b .axis.x .guides:hover .guide.line{opacity:1}#chart-d5e29556-d398-4412-92e8-bb0326f82a4b .axis .guides:hover text{opacity:1}#chart-d5e29556-d398-4412-92e8-bb0326f82a4b .nofill{fill:none}#chart-d5e29556-d398-4412-92e8-bb0326f82a4b .subtle-fill{fill-opacity:.2}#chart-d5e29556-d398-4412-92e8-bb0326f82a4b .dot{stroke-width:1px;fill-opacity:1}#chart-d5e29556-d398-4412-92e8-bb0326f82a4b .dot.active{stroke-width:5px}#chart-d5e29556-d398-4412-92e8-bb0326f82a4b .dot.negative{fill:transparent}#chart-d5e29556-d398-4412-92e8-bb0326f82a4b text,#chart-d5e29556-d398-4412-92e8-bb0326f82a4b tspan{stroke:none !important}#chart-d5e29556-d398-4412-92e8-bb0326f82a4b .series text.active{opacity:1}#chart-d5e29556-d398-4412-92e8-bb0326f82a4b .tooltip rect{fill-opacity:.95;stroke-width:.5}#chart-d5e29556-d398-4412-92e8-bb0326f82a4b .tooltip text{fill-opacity:1}#chart-d5e29556-d398-4412-92e8-bb0326f82a4b .showable{visibility:hidden}#chart-d5e29556-d398-4412-92e8-bb0326f82a4b .showable.shown{visibility:visible}#chart-d5e29556-d398-4412-92e8-bb0326f82a4b .gauge-background{fill:rgba(229,229,229,1);stroke:none}#chart-d5e29556-d398-4412-92e8-bb0326f82a4b .bg-lines{stroke:transparent;stroke-width:2px}</style><script type="text/javascript">window.pygal = window.pygal || {};window.pygal.config = window.pygal.config || {};window.pygal.config['d5e29556-d398-4412-92e8-bb0326f82a4b'] = {"allow_interruptions": false, "box_mode": "extremes", "classes": ["pygal-chart"], "css": ["file://style.css", "file://graph.css"], "defs": [], "disable_xml_declaration": false, "dots_size": 2.5, "dynamic_print_values": false, "explicit_size": false, "fill": false, "force_uri_protocol": "https", "formatter": null, "half_pie": false, "height": 600, "include_x_axis": false, "inner_radius": 0, "interpolate": null, "interpolation_parameters": {}, "interpolation_precision": 250, "inverse_y_axis": false, "js": ["//kozea.github.io/pygal.js/2.0.x/pygal-tooltips.min.js"], "legend_at_bottom": true, "legend_at_bottom_columns": 2, "legend_box_size": 12, "logarithmic": false, "margin": 20, "margin_bottom": 65, "margin_left": null, "margin_right": null, "margin_top": null, "max_scale": 16, "min_scale": 4, "missing_value_fill_truncation": "x", "no_data_text": "No data", "no_prefix": false, "order_min": null, "pretty_print": false, "print_labels": false, "print_values": false, "print_values_position": "center", "print_zeroes": true, "range": [0.0, 1.0], "rounded_bars": null, "secondary_range": null, "show_dots": true, "show_legend": true, "show_minor_x_labels": false, "show_minor_y_labels": true, "show_only_major_dots": true, "show_x_guides": true, "show_x_labels": true, "show_y_guides": true, "show_y_labels": true, "spacing": 10, "stack_from_top": false, "strict": false, "stroke": true, "stroke_style": null, "style": {"background": "transparent", "ci_colors": [], "colors": ["#F44336", "#3F51B5", "#009688", "#FFC107", "#FF5722", "#9C27B0", "#03A9F4", "#8BC34A", "#FF9800", "#E91E63", "#2196F3", "#4CAF50", "#FFEB3B", "#673AB7", "#00BCD4", "#CDDC39", "#9E9E9E", "#607D8B"], "font_family": "Helvetica, Arial, sans-serif", "foreground": "rgba(0, 0, 0, .87)", "foreground_strong": "rgba(0, 0, 0, 1)", "foreground_subtle": "rgba(0, 0, 0, .54)", "guide_stroke_dasharray": 1, "label_font_family": "Helvetica, Arial, sans-serif", "label_font_size": 15, "legend_font_family": "Helvetica, Arial, sans-serif", "legend_font_size": 15, "major_guide_stroke_dasharray": 1, "major_label_font_family": "Helvetica, Arial, sans-serif", "major_label_font_size": 15, "no_data_font_family": "Helvetica, Arial, sans-serif", "no_data_font_size": 64, "opacity": ".7", "opacity_hover": ".8", "plot_background": "white", "stroke_opacity": ".8", "stroke_opacity_hover": ".9", "title_font_family": "Helvetica, Arial, sans-serif", "title_font_size": 18, "tooltip_font_family": "Helvetica, Arial, sans-serif", "tooltip_font_size": 14, "transition": "150ms", "value_background": "rgba(229, 229, 229, 1)", "value_colors": [], "value_font_family": "Helvetica, Arial, sans-serif", "value_font_size": 15, "value_label_font_family": "Helvetica, Arial, sans-serif", "value_label_font_size": 15}, "title": "Mean Both Correct for Tempo T \u00b110.0 BPM", "tooltip_border_radius": 0, "tooltip_fancy_mode": true, "truncate_label": null, "truncate_legend": -1, "width": 800, "x_label_rotation": 90, "x_labels": ["0.0", "1.0", "2.0", "3.0", "4.0", "5.0", "6.0", "7.0", "8.0", "9.0", "10.0", "11.0", "12.0", "13.0", "14.0", "15.0", "16.0", "17.0", "18.0", "19.0", "20.0", "21.0", "22.0", "23.0", "24.0", "25.0", "26.0", "27.0", "28.0", "29.0", "30.0", "31.0", "32.0", "33.0", "34.0", "35.0", "36.0", "37.0", "38.0", "39.0", "40.0", "41.0", "42.0", "43.0", "44.0", "45.0", "46.0", "47.0", "48.0", "49.0", "50.0", "51.0", "52.0", "53.0", "54.0", "55.0", "56.0", "57.0", "58.0", "59.0", "60.0", "61.0", "62.0", "63.0", "64.0", "65.0", "66.0", "67.0", "68.0", "69.0", "70.0", "71.0", "72.0", "73.0", "74.0", "75.0", "76.0", "77.0", "78.0", "79.0", "80.0", "81.0", "82.0", "83.0", "84.0", "85.0", "86.0", "87.0", "88.0", "89.0", "90.0", "91.0", "92.0", "93.0", "94.0", "95.0", "96.0", "97.0", "98.0", "99.0", "100.0", "101.0", "102.0", "103.0", "104.0", "105.0", "106.0", "107.0", "108.0", "109.0", "110.0", "111.0", "112.0", "113.0", "114.0", "115.0", "116.0", "117.0", "118.0", "119.0", "120.0", "121.0", "122.0", "123.0", "124.0", "125.0", "126.0", "127.0", "128.0", "129.0", "130.0", "131.0", "132.0", "133.0", "134.0", "135.0", "136.0", "137.0", "138.0", "139.0", "140.0", "141.0", "142.0", "143.0", "144.0", "145.0", "146.0", "147.0", "148.0", "149.0", "150.0", "151.0", "152.0", "153.0", "154.0", "155.0", "156.0", "157.0", "158.0", "159.0", "160.0", "161.0", "162.0", "163.0", "164.0", "165.0", "166.0", "167.0", "168.0", "169.0", "170.0", "171.0", "172.0", "173.0", "174.0", "175.0", "176.0", "177.0", "178.0", "179.0", "180.0", "181.0", "182.0", "183.0", "184.0", "185.0", "186.0", "187.0", "188.0", "189.0", "190.0", "191.0", "192.0", "193.0", "194.0", "195.0", "196.0", "197.0", "198.0", "199.0", "200.0", "201.0", "202.0", "203.0", "204.0", "205.0", "206.0", "207.0", "208.0", "209.0", "210.0", "211.0", "212.0", "213.0", "214.0", "215.0", "216.0", "217.0", "218.0", "219.0", "220.0", "221.0", "222.0", "223.0", "224.0", "225.0", "226.0", "227.0", "228.0", "229.0", "230.0", "231.0", "232.0", "233.0", "234.0", "235.0", "236.0", "237.0", "238.0", "239.0", "240.0", "241.0", "242.0", "243.0", "244.0", "245.0", "246.0", "247.0", "248.0", "249.0", "250.0", "251.0", "252.0", "253.0", "254.0", "255.0", "256.0", "257.0", "258.0", "259.0", "260.0", "261.0", "262.0", "263.0", "264.0", "265.0", "266.0", "267.0", "268.0", "269.0", "270.0", "271.0", "272.0", "273.0", "274.0", "275.0", "276.0", "277.0", "278.0", "279.0", "280.0", "281.0", "282.0", "283.0", "284.0", "285.0", "286.0", "287.0", "288.0", "289.0", "290.0", "291.0", "292.0", "293.0", "294.0", "295.0", "296.0", "297.0", "298.0", "299.0", "300.0"], "x_labels_major": null, "x_labels_major_count": 11, "x_labels_major_every": null, "x_title": "T (BPM)", "xrange": null, "y_label_rotation": 0, "y_labels": null, "y_labels_major": null, "y_labels_major_count": null, "y_labels_major_every": null, "y_title": "Mean Both Correct", "zero": 0, "legends": ["boeck2015/tempodetector2016_default", "davies2009/mirex_qm_tempotracker", "percival2014/stem", "schreiber2014/default", "schreiber2017/ismir2017", "schreiber2017/mirex2017"]}</script><script type="text/javascript" xlink:href="https://kozea.github.io/pygal.js/2.0.x/pygal-tooltips.min.js"/></defs><title>Mean Both Correct for Tempo T ±10.0 BPM</title><g class="graph line-graph vertical"><rect class="background" height="600" width="800" x="0" y="0"/><g class="plot" transform="translate(112, 48)"><rect class="background" height="334.0" width="668.0" x="0" y="0"/><g class="axis y always_show"><g class="guides"><path class="major line" d="M0.000000 327.576923 h668.000000"/><text class="major" x="-5" y="332.8269230769231">0.0000</text><title>0.0000</title></g><g class="guides"><path class="guide line" d="M0.000000 295.461538 h668.000000"/><text class="" x="-5" y="300.71153846153845">0.1000</text><title>0.1000</title></g><g class="guides"><path class="guide line" d="M0.000000 263.346154 h668.000000"/><text class="" x="-5" y="268.5961538461538">0.2000</text><title>0.2000</title></g><g class="guides"><path class="guide line" d="M0.000000 231.230769 h668.000000"/><text class="" x="-5" y="236.48076923076923">0.3000</text><title>0.3000</title></g><g class="guides"><path class="guide line" d="M0.000000 199.115385 h668.000000"/><text class="" x="-5" y="204.3653846153846">0.4000</text><title>0.4000</title></g><g class="guides"><path class="major guide line" d="M0.000000 167.000000 h668.000000"/><text class="major" x="-5" y="172.25">0.5000</text><title>0.5000</title></g><g class="guides"><path class="guide line" d="M0.000000 134.884615 h668.000000"/><text class="" x="-5" y="140.1346153846154">0.6000</text><title>0.6000</title></g><g class="guides"><path class="guide line" d="M0.000000 102.769231 h668.000000"/><text class="" x="-5" y="108.01923076923077">0.7000</text><title>0.7000</title></g><g class="guides"><path class="guide line" d="M0.000000 70.653846 h668.000000"/><text class="" x="-5" y="75.90384615384619">0.8000</text><title>0.8000</title></g><g class="guides"><path class="guide line" d="M0.000000 38.538462 h668.000000"/><text class="" x="-5" y="43.78846153846155">0.9000</text><title>0.9000</title></g><g class="guides"><path class="major guide line" d="M0.000000 6.423077 h668.000000"/><text class="major" x="-5" y="11.673076923076906">1.0000</text><title>1.0000</title></g></g><g class="axis x always_show"><g class="guides"><path class="major line" d="M12.846154 0.000000 v334.000000"/><text class="major" x="12.846153846153845" y="351.5" transform="rotate(90 12.846154 351.500000)">0.0</text></g><g class="guides"><path class="major guide line" d="M77.076923 0.000000 v334.000000"/><text class="major" x="77.07692307692308" y="351.5" transform="rotate(90 77.076923 351.500000)">30.0</text></g><g class="guides"><path class="major guide line" d="M141.307692 0.000000 v334.000000"/><text class="major" x="141.30769230769232" y="351.5" transform="rotate(90 141.307692 351.500000)">60.0</text></g><g class="guides"><path class="major guide line" d="M205.538462 0.000000 v334.000000"/><text class="major" x="205.53846153846152" y="351.5" transform="rotate(90 205.538462 351.500000)">90.0</text></g><g class="guides"><path class="major guide line" d="M269.769231 0.000000 v334.000000"/><text class="major" x="269.7692307692308" y="351.5" transform="rotate(90 269.769231 351.500000)">120.0</text></g><g class="guides"><path class="major guide line" d="M334.000000 0.000000 v334.000000"/><text class="major" x="334.0" y="351.5" transform="rotate(90 334.000000 351.500000)">150.0</text></g><g class="guides"><path class="major guide line" d="M398.230769 0.000000 v334.000000"/><text class="major" x="398.2307692307692" y="351.5" transform="rotate(90 398.230769 351.500000)">180.0</text></g><g class="guides"><path class="major guide line" d="M462.461538 0.000000 v334.000000"/><text class="major" x="462.46153846153845" y="351.5" transform="rotate(90 462.461538 351.500000)">210.0</text></g><g class="guides"><path class="major guide line" d="M526.692308 0.000000 v334.000000"/><text class="major" x="526.6923076923076" y="351.5" transform="rotate(90 526.692308 351.500000)">240.0</text></g><g class="guides"><path class="major guide line" d="M590.923077 0.000000 v334.000000"/><text class="major" x="590.9230769230769" y="351.5" transform="rotate(90 590.923077 351.500000)">270.0</text></g><g class="guides"><path class="major guide line" d="M655.153846 0.000000 v334.000000"/><text class="major" x="655.1538461538462" y="351.5" transform="rotate(90 655.153846 351.500000)">300.0</text></g></g><g class="series serie-0 color-0"><path class="line reactive nofill" d="M12.846154 6.423077 L14.987179 6.423077 17.128205 6.423077 19.269231 6.423077 21.410256 6.423077 23.551282 6.423077 25.692308 6.423077 27.833333 6.423077 29.974359 6.423077 32.115385 6.423077 34.256410 6.423077 36.397436 6.423077 38.538462 6.423077 40.679487 6.423077 42.820513 6.423077 44.961538 6.423077 47.102564 6.423077 49.243590 6.423077 51.384615 6.423077 53.525641 6.423077 55.666667 6.423077 57.807692 6.423077 59.948718 6.423077 62.089744 6.423077 64.230769 6.423077 66.371795 6.423077 68.512821 6.423077 70.653846 6.423077 72.794872 6.423077 74.935897 6.423077 77.076923 6.423077 79.217949 6.423077 81.358974 6.423077 83.500000 6.423077 85.641026 6.423077 87.782051 6.423077 89.923077 6.423077 92.064103 6.423077 94.205128 327.576923 96.346154 327.576923 98.487179 327.576923 100.628205 327.576923 102.769231 220.525641 104.910256 208.631054 107.051282 216.834218 109.192308 170.734347 111.333333 153.837957 113.474359 157.824176 115.615385 162.539530 117.756410 160.400948 119.897436 155.925729 122.038462 144.060440 124.179487 133.136839 126.320513 131.844106 128.461538 138.662896 130.602564 128.643569 132.743590 121.035602 134.884615 147.547689 137.025641 141.609632 139.166667 137.479798 141.307692 125.645943 143.448718 126.804760 145.589744 124.166908 147.730769 133.075298 149.871795 143.818120 152.012821 133.277629 154.153846 132.531840 156.294872 151.201159 158.435897 140.975196 160.576923 137.116686 162.717949 148.191735 164.858974 147.941497 167.000000 144.329733 169.141026 141.730588 171.282051 146.761916 173.423077 145.587235 175.564103 143.894886 177.705128 146.023132 179.846154 143.528805 181.987179 143.656784 184.128205 148.237598 186.269231 149.857328 188.410256 149.392994 190.551282 150.459351 192.692308 150.457787 194.833333 148.482935 196.974359 159.217597 199.115385 159.996045 201.256410 157.839276 203.397436 161.697404 205.538462 163.907650 207.679487 163.431624 209.820513 164.621247 211.961538 166.508256 214.102564 169.232384 216.243590 168.232290 218.384615 170.903738 220.525641 174.182124 222.666667 175.797734 224.807692 177.558002 226.948718 177.064446 229.089744 178.440244 231.230769 177.181063 233.371795 179.461498 235.512821 179.887578 237.653846 179.451230 239.794872 181.581866 241.935897 173.741119 244.076923 172.314444 246.217949 172.335353 248.358974 176.115949 250.500000 181.916982 252.641026 182.015200 254.782051 182.708027 256.923077 181.254593 259.064103 180.177262 261.205128 181.053361 263.346154 179.765529 265.487179 178.943738 267.628205 176.774686 269.769231 179.605335 271.910256 181.444216 274.051282 180.010600 276.192308 183.704311 278.333333 182.446132 280.474359 180.555351 282.615385 181.484164 284.756410 181.597902 286.897436 179.995081 289.038462 181.647219 291.179487 180.472440 293.320513 177.177820 295.461538 170.356462 297.602564 172.543301 299.743590 169.528068 301.884615 170.338460 304.025641 170.546634 306.166667 169.992899 308.307692 168.772372 310.448718 166.895752 312.589744 166.593476 314.730769 161.958168 316.871795 160.427957 319.012821 161.069389 321.153846 157.121323 323.294872 158.183372 325.435897 159.730378 327.576923 158.643171 329.717949 157.349835 331.858974 159.044813 334.000000 153.318977 336.141026 148.462981 338.282051 146.529548 340.423077 147.695061 342.564103 136.210538 344.705128 132.427388 346.846154 131.970387 348.987179 124.823962 351.128205 124.055009 353.269231 124.697008 355.410256 122.830101 357.551282 121.165022 359.692308 109.766955 361.833333 111.079476 363.974359 103.533296 366.115385 103.688272 368.256410 103.481814 370.397436 106.196750 372.538462 105.822204 374.679487 103.824205 376.820513 102.368415 378.961538 102.677560 381.102564 103.451218 383.243590 96.882853 385.384615 94.762143 387.525641 93.430715 389.666667 90.328136 391.807692 91.648369 393.948718 91.698399 396.089744 91.921605 398.230769 93.699344 400.371795 95.455826 402.512821 94.930042 404.653846 95.476654 406.794872 95.476654 408.935897 102.606209 411.076923 104.314891 413.217949 104.165552 415.358974 96.015352 417.500000 96.015352 419.641026 93.351938 421.782051 93.351938 423.923077 92.937991 426.064103 92.937991 428.205128 91.809219 430.346154 93.537683 432.487179 93.537683 434.628205 102.614084 436.769231 101.742712 438.910256 87.243250 441.051282 87.243250 443.192308 86.172690 445.333333 78.289672 447.474359 74.309256 449.615385 80.976648 451.756410 80.976648 453.897436 85.072998 456.038462 85.072998 458.179487 85.072998 460.320513 80.251547 462.461538 87.593829 464.602564 106.337607 466.743590 106.337607 468.884615 110.984794 471.025641 108.918985 473.166667 118.826923 475.307692 116.532967 477.448718 116.532967 479.589744 121.709073 481.730769 137.263533 483.871795 137.263533 486.012821 137.263533 488.153846 162.134033 490.294872 183.611406 492.435897 183.611406 494.576923 183.611406 496.717949 183.611406 498.858974 202.683761 501.000000 202.683761 503.141026 202.683761 505.282051 202.683761 507.423077 189.939560 509.564103 189.939560 511.705128 189.939560 513.846154 189.939560 515.987179 231.230769 518.128205 231.230769 520.269231 231.230769 522.410256 231.230769 524.551282 274.051282 526.692308 274.051282 528.833333 274.051282 530.974359 274.051282 533.115385 6.423077 535.256410 6.423077 537.397436 6.423077 539.538462 6.423077 541.679487 6.423077 543.820513 6.423077 545.961538 6.423077 548.102564 6.423077 550.243590 6.423077 552.384615 6.423077 554.525641 6.423077 556.666667 6.423077 558.807692 6.423077 560.948718 6.423077 563.089744 6.423077 565.230769 6.423077 567.371795 6.423077 569.512821 6.423077 571.653846 6.423077 573.794872 6.423077 575.935897 6.423077 578.076923 6.423077 580.217949 6.423077 582.358974 6.423077 584.500000 6.423077 586.641026 6.423077 588.782051 6.423077 590.923077 6.423077 593.064103 6.423077 595.205128 6.423077 597.346154 6.423077 599.487179 6.423077 601.628205 6.423077 603.769231 6.423077 605.910256 6.423077 608.051282 6.423077 610.192308 6.423077 612.333333 6.423077 614.474359 6.423077 616.615385 6.423077 618.756410 6.423077 620.897436 6.423077 623.038462 6.423077 625.179487 6.423077 627.320513 6.423077 629.461538 6.423077 631.602564 6.423077 633.743590 6.423077 635.884615 6.423077 638.025641 6.423077 640.166667 6.423077 642.307692 6.423077 644.448718 6.423077 646.589744 6.423077 648.730769 6.423077 650.871795 6.423077 653.012821 6.423077 655.153846 6.423077"/></g><g class="series serie-1 color-1"><path class="line reactive nofill" d="M12.846154 6.423077 L14.987179 6.423077 17.128205 6.423077 19.269231 6.423077 21.410256 6.423077 23.551282 6.423077 25.692308 6.423077 27.833333 6.423077 29.974359 6.423077 32.115385 6.423077 34.256410 6.423077 36.397436 6.423077 38.538462 6.423077 40.679487 6.423077 42.820513 6.423077 44.961538 6.423077 47.102564 6.423077 49.243590 6.423077 51.384615 6.423077 53.525641 6.423077 55.666667 6.423077 57.807692 6.423077 59.948718 6.423077 62.089744 6.423077 64.230769 6.423077 66.371795 6.423077 68.512821 6.423077 70.653846 6.423077 72.794872 6.423077 74.935897 6.423077 77.076923 6.423077 79.217949 6.423077 81.358974 6.423077 83.500000 6.423077 85.641026 6.423077 87.782051 6.423077 89.923077 6.423077 92.064103 6.423077 94.205128 327.576923 96.346154 327.576923 98.487179 327.576923 100.628205 327.576923 102.769231 220.525641 104.910256 208.631054 107.051282 216.834218 109.192308 170.734347 111.333333 159.102774 113.474359 157.824176 115.615385 162.539530 117.756410 160.400948 119.897436 150.388594 122.038462 148.889821 124.179487 139.690999 126.320513 137.545061 128.461538 138.662896 130.602564 123.442697 132.743590 117.453961 134.884615 160.515896 137.025641 154.647929 139.166667 148.509324 141.307692 149.402529 143.448718 150.064950 145.589744 148.696872 147.730769 160.861244 149.871795 168.978941 152.012821 158.112877 154.153846 160.529868 156.294872 176.193676 158.435897 170.029753 160.576923 164.723875 162.717949 181.350815 164.858974 184.405733 167.000000 182.030833 169.141026 183.546013 171.282051 190.376395 173.423077 194.509194 175.564103 198.362114 177.705128 202.720993 179.846154 205.683402 181.987179 209.480158 184.128205 222.474982 186.269231 227.975832 188.410256 231.730880 190.551282 235.439751 192.692308 238.014055 194.833333 240.924716 196.974359 251.914668 199.115385 252.996578 201.256410 257.153857 203.397436 263.229810 205.538462 271.300251 207.679487 276.245501 209.820513 277.645348 211.961538 279.967117 214.102564 281.293637 216.243590 281.982177 218.384615 279.922758 220.525641 279.535959 222.666667 278.543569 224.807692 277.018891 226.948718 268.433361 229.089744 264.614229 231.230769 256.336779 233.371795 252.068214 235.512821 246.856958 237.653846 240.857767 239.794872 236.793046 241.935897 223.383415 244.076923 215.502707 246.217949 207.789636 248.358974 175.068139 250.500000 158.554356 252.641026 152.095409 254.782051 145.159387 256.923077 140.405611 259.064103 129.943787 261.205128 131.444230 263.346154 128.031542 265.487179 120.945339 267.628205 115.708093 269.769231 111.028548 271.910256 107.159676 274.051282 106.348355 276.192308 105.914148 278.333333 105.336334 280.474359 103.205881 282.615385 100.882921 284.756410 94.998503 286.897436 94.193919 289.038462 93.665269 291.179487 91.581644 293.320513 90.695428 295.461538 78.759546 297.602564 87.009565 299.743590 89.403187 301.884615 91.538771 304.025641 96.006166 306.166667 94.886879 308.307692 94.977238 310.448718 97.674970 312.589744 96.400357 314.730769 103.995230 316.871795 104.638612 319.012821 104.991333 321.153846 104.435047 323.294872 104.385613 325.435897 104.928610 327.576923 107.423895 329.717949 108.412977 331.858974 108.956598 334.000000 113.443230 336.141026 121.352592 338.282051 123.520544 340.423077 126.269926 342.564103 117.214142 344.705128 115.712531 346.846154 118.282345 348.987179 120.375374 351.128205 121.678606 353.269231 121.208102 355.410256 128.947317 357.551282 142.177012 359.692308 139.426185 361.833333 141.255005 363.974359 148.144843 366.115385 152.193225 368.256410 154.345506 370.397436 163.009053 372.538462 163.095034 374.679487 166.631986 376.820513 167.501020 378.961538 169.902913 381.102564 170.719929 383.243590 185.611341 385.384615 187.452887 387.525641 193.648936 389.666667 206.541465 391.807692 207.533981 393.948718 211.383063 396.089744 214.825739 398.230769 222.617229 400.371795 226.461158 402.512821 226.426105 404.653846 236.419718 406.794872 236.419718 408.935897 245.250683 411.076923 251.152612 413.217949 257.760870 415.358974 265.551502 417.500000 265.551502 419.641026 270.831695 421.782051 270.831695 423.923077 271.211146 426.064103 271.211146 428.205128 272.776862 430.346154 276.868421 432.487179 276.868421 434.628205 279.481420 436.769231 280.650334 438.910256 287.166836 441.051282 287.166836 443.192308 288.779814 445.333333 287.151963 447.474359 296.244841 449.615385 293.167582 451.756410 293.167582 453.897436 304.637363 456.038462 304.637363 458.179487 304.637363 460.320513 305.428382 462.461538 306.401944 464.602564 320.440171 466.743590 320.440171 468.884615 320.108229 471.025641 320.743863 473.166667 319.548077 475.307692 318.401099 477.448718 318.401099 479.589744 319.342209 481.730769 327.576923 483.871795 327.576923 486.012821 327.576923 488.153846 327.576923 490.294872 327.576923 492.435897 327.576923 494.576923 327.576923 496.717949 327.576923 498.858974 327.576923 501.000000 327.576923 503.141026 327.576923 505.282051 327.576923 507.423077 327.576923 509.564103 327.576923 511.705128 327.576923 513.846154 327.576923 515.987179 327.576923 518.128205 327.576923 520.269231 327.576923 522.410256 327.576923 524.551282 327.576923 526.692308 327.576923 528.833333 327.576923 530.974359 327.576923 533.115385 6.423077 535.256410 6.423077 537.397436 6.423077 539.538462 6.423077 541.679487 6.423077 543.820513 6.423077 545.961538 6.423077 548.102564 6.423077 550.243590 6.423077 552.384615 6.423077 554.525641 6.423077 556.666667 6.423077 558.807692 6.423077 560.948718 6.423077 563.089744 6.423077 565.230769 6.423077 567.371795 6.423077 569.512821 6.423077 571.653846 6.423077 573.794872 6.423077 575.935897 6.423077 578.076923 6.423077 580.217949 6.423077 582.358974 6.423077 584.500000 6.423077 586.641026 6.423077 588.782051 6.423077 590.923077 6.423077 593.064103 6.423077 595.205128 6.423077 597.346154 6.423077 599.487179 6.423077 601.628205 6.423077 603.769231 6.423077 605.910256 6.423077 608.051282 6.423077 610.192308 6.423077 612.333333 6.423077 614.474359 6.423077 616.615385 6.423077 618.756410 6.423077 620.897436 6.423077 623.038462 6.423077 625.179487 6.423077 627.320513 6.423077 629.461538 6.423077 631.602564 6.423077 633.743590 6.423077 635.884615 6.423077 638.025641 6.423077 640.166667 6.423077 642.307692 6.423077 644.448718 6.423077 646.589744 6.423077 648.730769 6.423077 650.871795 6.423077 653.012821 6.423077 655.153846 6.423077"/></g><g class="series serie-2 color-2"><path class="line reactive nofill" d="M12.846154 6.423077 L14.987179 6.423077 17.128205 6.423077 19.269231 6.423077 21.410256 6.423077 23.551282 6.423077 25.692308 6.423077 27.833333 6.423077 29.974359 6.423077 32.115385 6.423077 34.256410 6.423077 36.397436 6.423077 38.538462 6.423077 40.679487 6.423077 42.820513 6.423077 44.961538 6.423077 47.102564 6.423077 49.243590 6.423077 51.384615 6.423077 53.525641 6.423077 55.666667 6.423077 57.807692 6.423077 59.948718 6.423077 62.089744 6.423077 64.230769 6.423077 66.371795 6.423077 68.512821 6.423077 70.653846 6.423077 72.794872 6.423077 74.935897 6.423077 77.076923 6.423077 79.217949 6.423077 81.358974 6.423077 83.500000 6.423077 85.641026 6.423077 87.782051 6.423077 89.923077 6.423077 92.064103 6.423077 94.205128 327.576923 96.346154 327.576923 98.487179 327.576923 100.628205 327.576923 102.769231 327.576923 104.910256 327.576923 107.051282 327.576923 109.192308 327.576923 111.333333 327.576923 113.474359 327.576923 115.615385 327.576923 117.756410 327.576923 119.897436 327.576923 122.038462 325.162233 124.179487 325.392203 126.320513 325.676604 128.461538 325.859523 130.602564 326.276705 132.743590 326.383043 134.884615 321.474237 137.025641 322.087114 139.166667 322.386558 141.307692 323.177555 143.448718 323.496188 145.589744 323.803082 147.730769 323.053629 149.871795 322.770924 152.012821 323.437715 154.153846 323.341927 156.294872 322.042866 158.435897 322.760392 160.576923 323.024674 162.717949 323.336910 164.858974 323.135104 167.000000 323.409959 169.141026 323.594502 171.282051 322.990161 173.423077 323.211579 175.564103 323.158704 177.705128 322.952629 179.846154 323.398463 181.987179 323.466976 184.128205 323.299204 186.269231 323.399753 188.410256 323.503853 190.551282 323.573135 192.692308 323.710548 194.833333 323.844802 196.974359 323.469544 199.115385 323.421671 201.256410 323.833358 203.397436 323.728626 205.538462 323.767803 207.679487 323.631762 209.820513 323.797596 211.961538 323.687671 214.102564 323.598417 216.243590 323.974843 218.384615 323.673185 220.525641 323.445400 222.666667 323.238982 224.807692 323.213283 226.948718 323.226022 229.089744 323.276494 231.230769 322.882170 233.371795 322.740269 235.512821 322.456412 237.653846 322.362055 239.794872 322.049925 241.935897 322.114888 244.076923 321.993394 246.217949 321.518715 248.358974 322.233091 250.500000 321.160427 252.641026 321.327503 254.782051 321.013980 256.923077 320.715571 259.064103 320.356506 261.205128 320.204668 263.346154 320.289718 265.487179 320.499152 267.628205 320.774951 269.769231 321.133151 271.910256 320.963908 274.051282 320.757241 276.192308 320.963780 278.333333 320.131839 280.474359 320.379392 282.615385 320.407022 284.756410 320.463225 286.897436 320.418819 289.038462 320.475241 291.179487 321.113793 293.320513 320.016257 295.461538 320.675786 297.602564 320.245460 299.743590 320.498333 301.884615 320.839850 304.025641 321.217441 306.166667 321.339091 308.307692 321.454183 310.448718 321.530530 312.589744 321.817835 314.730769 321.338109 316.871795 321.296971 319.012821 321.721383 321.153846 321.688457 323.294872 323.005338 325.435897 322.759185 327.576923 322.724571 329.717949 322.820443 331.858974 323.157375 334.000000 323.561333 336.141026 323.058525 338.282051 323.688077 340.423077 323.782889 342.564103 324.899579 344.705128 325.291131 346.846154 325.516358 348.987179 326.208127 351.128205 326.218979 353.269231 326.181360 355.410256 326.497414 357.551282 326.340924 359.692308 326.881785 361.833333 326.858458 363.974359 327.330450 366.115385 327.321634 368.256410 327.331205 370.397436 327.576923 372.538462 327.576923 374.679487 327.576923 376.820513 327.576923 378.961538 327.576923 381.102564 327.576923 383.243590 327.576923 385.384615 327.576923 387.525641 327.576923 389.666667 327.576923 391.807692 327.576923 393.948718 327.576923 396.089744 327.576923 398.230769 327.576923 400.371795 327.576923 402.512821 327.576923 404.653846 327.576923 406.794872 327.576923 408.935897 327.576923 411.076923 327.576923 413.217949 327.576923 415.358974 327.576923 417.500000 327.576923 419.641026 327.576923 421.782051 327.576923 423.923077 327.576923 426.064103 327.576923 428.205128 327.576923 430.346154 327.576923 432.487179 327.576923 434.628205 327.576923 436.769231 327.576923 438.910256 327.576923 441.051282 327.576923 443.192308 327.576923 445.333333 327.576923 447.474359 327.576923 449.615385 327.576923 451.756410 327.576923 453.897436 327.576923 456.038462 327.576923 458.179487 327.576923 460.320513 327.576923 462.461538 327.576923 464.602564 327.576923 466.743590 327.576923 468.884615 327.576923 471.025641 327.576923 473.166667 327.576923 475.307692 327.576923 477.448718 327.576923 479.589744 327.576923 481.730769 327.576923 483.871795 327.576923 486.012821 327.576923 488.153846 327.576923 490.294872 327.576923 492.435897 327.576923 494.576923 327.576923 496.717949 327.576923 498.858974 327.576923 501.000000 327.576923 503.141026 327.576923 505.282051 327.576923 507.423077 327.576923 509.564103 327.576923 511.705128 327.576923 513.846154 327.576923 515.987179 327.576923 518.128205 327.576923 520.269231 327.576923 522.410256 327.576923 524.551282 327.576923 526.692308 327.576923 528.833333 327.576923 530.974359 327.576923 533.115385 6.423077 535.256410 6.423077 537.397436 6.423077 539.538462 6.423077 541.679487 6.423077 543.820513 6.423077 545.961538 6.423077 548.102564 6.423077 550.243590 6.423077 552.384615 6.423077 554.525641 6.423077 556.666667 6.423077 558.807692 6.423077 560.948718 6.423077 563.089744 6.423077 565.230769 6.423077 567.371795 6.423077 569.512821 6.423077 571.653846 6.423077 573.794872 6.423077 575.935897 6.423077 578.076923 6.423077 580.217949 6.423077 582.358974 6.423077 584.500000 6.423077 586.641026 6.423077 588.782051 6.423077 590.923077 6.423077 593.064103 6.423077 595.205128 6.423077 597.346154 6.423077 599.487179 6.423077 601.628205 6.423077 603.769231 6.423077 605.910256 6.423077 608.051282 6.423077 610.192308 6.423077 612.333333 6.423077 614.474359 6.423077 616.615385 6.423077 618.756410 6.423077 620.897436 6.423077 623.038462 6.423077 625.179487 6.423077 627.320513 6.423077 629.461538 6.423077 631.602564 6.423077 633.743590 6.423077 635.884615 6.423077 638.025641 6.423077 640.166667 6.423077 642.307692 6.423077 644.448718 6.423077 646.589744 6.423077 648.730769 6.423077 650.871795 6.423077 653.012821 6.423077 655.153846 6.423077"/></g><g class="series serie-3 color-3"><path class="line reactive nofill" d="M12.846154 6.423077 L14.987179 6.423077 17.128205 6.423077 19.269231 6.423077 21.410256 6.423077 23.551282 6.423077 25.692308 6.423077 27.833333 6.423077 29.974359 6.423077 32.115385 6.423077 34.256410 6.423077 36.397436 6.423077 38.538462 6.423077 40.679487 6.423077 42.820513 6.423077 44.961538 6.423077 47.102564 6.423077 49.243590 6.423077 51.384615 6.423077 53.525641 6.423077 55.666667 6.423077 57.807692 6.423077 59.948718 6.423077 62.089744 6.423077 64.230769 6.423077 66.371795 6.423077 68.512821 6.423077 70.653846 6.423077 72.794872 6.423077 74.935897 6.423077 77.076923 6.423077 79.217949 6.423077 81.358974 6.423077 83.500000 6.423077 85.641026 6.423077 87.782051 6.423077 89.923077 6.423077 92.064103 6.423077 94.205128 327.576923 96.346154 327.576923 98.487179 327.576923 100.628205 327.576923 102.769231 220.525641 104.910256 220.525641 107.051282 227.908488 109.192308 163.265653 111.333333 143.308323 113.474359 144.060440 115.615385 149.158120 117.756410 147.202845 119.897436 131.008621 122.038462 124.742915 124.179487 117.843799 126.320513 120.442194 128.461538 126.641094 130.602564 111.740735 132.743590 105.515156 134.884615 146.022017 137.025641 138.178501 139.166667 130.343046 141.307692 115.967334 143.448718 119.051364 145.589744 116.241842 147.730769 125.644173 149.871795 135.336945 152.012821 122.077419 154.153846 121.003240 156.294872 142.275260 158.435897 131.031391 160.576923 125.368946 162.717949 137.428624 164.858974 136.372108 167.000000 132.225696 169.141026 127.507654 171.282051 130.828952 173.423077 126.168980 175.564103 123.397245 177.705128 123.973963 179.846154 118.196890 181.987179 116.556819 184.128205 115.802738 186.269231 116.548467 188.410256 114.746119 190.551282 113.324217 192.692308 111.989801 194.833333 108.147314 196.974359 118.749099 199.115385 119.642980 201.256410 113.180746 203.397436 115.070358 205.538462 116.805632 207.679487 111.612598 209.820513 112.288688 211.961538 114.740974 214.102564 118.219096 216.243590 117.945361 218.384615 124.487343 220.525641 128.831454 222.666667 132.223362 224.807692 135.777406 226.948718 140.201320 229.089744 145.690822 231.230769 147.211071 233.371795 151.067492 235.512821 154.745294 237.653846 156.833937 239.794872 163.119342 241.935897 160.051461 244.076923 158.860156 246.217949 162.697296 248.358974 157.936441 250.500000 166.561265 252.641026 165.755646 254.782051 162.857815 256.923077 159.925892 259.064103 154.596355 261.205128 151.513145 263.346154 146.740536 265.487179 138.492312 267.628205 133.897070 269.769231 126.455973 271.910256 122.275138 274.051282 120.906684 276.192308 119.042463 278.333333 117.277475 280.474359 114.673948 282.615385 111.758074 284.756410 107.595678 286.897436 105.963955 289.038462 104.416426 291.179487 96.087629 293.320513 83.134762 295.461538 70.478181 297.602564 77.532308 299.743590 78.101237 301.884615 78.425541 304.025641 79.557121 306.166667 77.937618 308.307692 76.415667 310.448718 77.798320 312.589744 76.412934 314.730769 82.522102 316.871795 82.658778 319.012821 81.569173 321.153846 80.261344 323.294872 79.894979 325.435897 79.979610 327.576923 81.364965 329.717949 80.880277 331.858974 79.984004 334.000000 80.478035 336.141026 92.967782 338.282051 90.357331 340.423077 92.793152 342.564103 78.838871 344.705128 72.139611 346.846154 71.183706 348.987179 65.281320 351.128205 65.154171 353.269231 64.862261 355.410256 65.616139 357.551282 70.077046 359.692308 59.253580 361.833333 60.068462 363.974359 57.442913 366.115385 58.757368 368.256410 59.989671 370.397436 64.409188 372.538462 64.642566 374.679487 65.060028 376.820513 64.040382 378.961538 60.203359 381.102564 60.672037 383.243590 60.525814 385.384615 59.948718 387.525641 62.454173 389.666667 65.253061 391.807692 66.704381 393.948718 70.254897 396.089744 72.684436 398.230769 75.445484 400.371795 80.829018 402.512821 84.182768 404.653846 84.257306 406.794872 84.257306 408.935897 96.085318 411.076923 98.303990 413.217949 98.181319 415.358974 97.393694 417.500000 97.393694 419.641026 95.766628 421.782051 95.766628 423.923077 95.559655 426.064103 95.559655 428.205128 95.632479 430.346154 100.038773 432.487179 100.038773 434.628205 111.922891 436.769231 110.541447 438.910256 117.019103 441.051282 117.019103 443.192308 118.503614 445.333333 111.977138 447.474359 105.641338 449.615385 112.518544 451.756410 112.518544 453.897436 121.120879 456.038462 121.120879 458.179487 121.120879 460.320513 109.782935 462.461538 108.768808 464.602564 142.021368 466.743590 142.021368 468.884615 140.859571 471.025641 136.251227 473.166667 142.913462 475.307692 125.708791 477.448718 125.708791 479.589744 138.178501 481.730769 161.052707 483.871795 161.052707 486.012821 161.052707 488.153846 162.134033 490.294872 172.537135 492.435897 172.537135 494.576923 172.537135 496.717949 172.537135 498.858974 149.158120 501.000000 149.158120 503.141026 149.158120 505.282051 149.158120 507.423077 167.000000 509.564103 167.000000 511.705128 167.000000 513.846154 167.000000 515.987179 199.115385 518.128205 199.115385 520.269231 199.115385 522.410256 199.115385 524.551282 167.000000 526.692308 167.000000 528.833333 167.000000 530.974359 167.000000 533.115385 6.423077 535.256410 6.423077 537.397436 6.423077 539.538462 6.423077 541.679487 6.423077 543.820513 6.423077 545.961538 6.423077 548.102564 6.423077 550.243590 6.423077 552.384615 6.423077 554.525641 6.423077 556.666667 6.423077 558.807692 6.423077 560.948718 6.423077 563.089744 6.423077 565.230769 6.423077 567.371795 6.423077 569.512821 6.423077 571.653846 6.423077 573.794872 6.423077 575.935897 6.423077 578.076923 6.423077 580.217949 6.423077 582.358974 6.423077 584.500000 6.423077 586.641026 6.423077 588.782051 6.423077 590.923077 6.423077 593.064103 6.423077 595.205128 6.423077 597.346154 6.423077 599.487179 6.423077 601.628205 6.423077 603.769231 6.423077 605.910256 6.423077 608.051282 6.423077 610.192308 6.423077 612.333333 6.423077 614.474359 6.423077 616.615385 6.423077 618.756410 6.423077 620.897436 6.423077 623.038462 6.423077 625.179487 6.423077 627.320513 6.423077 629.461538 6.423077 631.602564 6.423077 633.743590 6.423077 635.884615 6.423077 638.025641 6.423077 640.166667 6.423077 642.307692 6.423077 644.448718 6.423077 646.589744 6.423077 648.730769 6.423077 650.871795 6.423077 653.012821 6.423077 655.153846 6.423077"/></g><g class="series serie-4 color-4"><path class="line reactive nofill" d="M12.846154 6.423077 L14.987179 6.423077 17.128205 6.423077 19.269231 6.423077 21.410256 6.423077 23.551282 6.423077 25.692308 6.423077 27.833333 6.423077 29.974359 6.423077 32.115385 6.423077 34.256410 6.423077 36.397436 6.423077 38.538462 6.423077 40.679487 6.423077 42.820513 6.423077 44.961538 6.423077 47.102564 6.423077 49.243590 6.423077 51.384615 6.423077 53.525641 6.423077 55.666667 6.423077 57.807692 6.423077 59.948718 6.423077 62.089744 6.423077 64.230769 6.423077 66.371795 6.423077 68.512821 6.423077 70.653846 6.423077 72.794872 6.423077 74.935897 6.423077 77.076923 6.423077 79.217949 6.423077 81.358974 6.423077 83.500000 6.423077 85.641026 6.423077 87.782051 6.423077 89.923077 6.423077 92.064103 6.423077 94.205128 327.576923 96.346154 327.576923 98.487179 327.576923 100.628205 327.576923 102.769231 113.474359 104.910256 208.631054 107.051282 216.834218 109.192308 155.796959 111.333333 132.778689 113.474359 134.884615 115.615385 140.237179 117.756410 138.404110 119.897436 128.240053 122.038462 122.328224 124.179487 113.474359 126.320513 116.641557 128.461538 123.206294 130.602564 109.140299 132.743590 103.127395 134.884615 143.733510 137.025641 137.492275 139.166667 130.343046 141.307692 117.287144 143.448718 119.459437 145.589744 116.996610 147.730769 125.644173 149.871795 135.902356 152.012821 122.320902 154.153846 121.238518 156.294872 143.703404 158.435897 132.740482 160.576923 127.865341 162.717949 141.342482 164.858974 140.710629 167.000000 137.285580 169.141026 133.576105 171.282051 137.668861 173.423077 132.641732 175.564103 129.915929 177.705128 130.675838 179.846154 125.966214 181.987179 131.262724 184.128205 162.045426 186.269231 170.797427 188.410256 178.729411 190.551282 185.342354 192.692308 191.666495 194.833333 196.426343 196.974359 214.559132 199.115385 217.355655 201.256410 221.479883 203.397436 229.758572 205.538462 241.318793 207.679487 249.205633 209.820513 253.146418 211.961538 256.631607 214.102564 261.843163 216.243590 267.147296 218.384615 272.686561 220.525641 278.479058 222.666667 284.148774 224.807692 290.661535 226.948718 281.916372 229.089744 274.703698 231.230769 264.743662 233.371795 259.294745 235.512821 252.898010 237.653846 245.252319 239.794872 240.556108 241.935897 225.665024 244.076923 216.915407 246.217949 209.166502 248.358974 173.129690 250.500000 155.812264 252.641026 148.998351 254.782051 141.824121 256.923077 137.267473 259.064103 126.282004 261.205128 127.553318 263.346154 124.362098 265.487179 116.865791 267.628205 111.123060 269.769231 105.807681 271.910256 101.143324 274.051282 100.350904 276.192308 100.133771 278.333333 99.148213 280.474359 96.536169 282.615385 93.905500 284.756410 88.082407 286.897436 86.987774 289.038462 86.070414 291.179487 79.383623 293.320513 77.900454 295.461538 65.020008 297.602564 73.717563 299.743590 75.127039 301.884615 76.440510 304.025641 79.679419 306.166667 78.000626 308.307692 76.415667 310.448718 77.937318 312.589744 76.345180 314.730769 82.594646 316.871795 82.585756 319.012821 81.494102 321.153846 80.106384 323.294872 79.813343 325.435897 79.807548 327.576923 81.544682 329.717949 80.788807 331.858974 79.689367 334.000000 80.104491 336.141026 92.388500 338.282051 91.113496 340.423077 93.685866 342.564103 80.241289 344.705128 74.568266 346.846154 74.127371 348.987179 69.045510 351.128205 69.058262 353.269231 69.048949 355.410256 70.833764 357.551282 76.669043 359.692308 65.278111 361.833333 66.295159 363.974359 63.851201 366.115385 65.394888 368.256410 66.624066 370.397436 79.433929 372.538462 79.789099 374.679487 83.215402 376.820513 82.578123 378.961538 87.399070 381.102564 88.261509 383.243590 94.285922 385.384615 96.937982 387.525641 100.263775 389.666667 121.189767 391.807692 126.985686 393.948718 151.540731 396.089744 159.251696 398.230769 168.426083 400.371795 183.216679 402.512821 192.919897 404.653846 213.279812 406.794872 213.279812 408.935897 257.477353 411.076923 268.326615 413.217949 294.663641 415.358974 324.820238 417.500000 324.820238 419.641026 326.369578 421.782051 326.369578 423.923077 326.266091 426.064103 326.266091 428.205128 326.302503 430.346154 326.276705 432.487179 326.276705 434.628205 326.025455 436.769231 326.110467 438.910256 327.576923 441.051282 327.576923 443.192308 327.576923 445.333333 327.576923 447.474359 327.576923 449.615385 327.576923 451.756410 327.576923 453.897436 327.576923 456.038462 327.576923 458.179487 327.576923 460.320513 327.576923 462.461538 327.576923 464.602564 327.576923 466.743590 327.576923 468.884615 327.576923 471.025641 327.576923 473.166667 327.576923 475.307692 327.576923 477.448718 327.576923 479.589744 327.576923 481.730769 327.576923 483.871795 327.576923 486.012821 327.576923 488.153846 327.576923 490.294872 327.576923 492.435897 327.576923 494.576923 327.576923 496.717949 327.576923 498.858974 327.576923 501.000000 327.576923 503.141026 327.576923 505.282051 327.576923 507.423077 327.576923 509.564103 327.576923 511.705128 327.576923 513.846154 327.576923 515.987179 327.576923 518.128205 327.576923 520.269231 327.576923 522.410256 327.576923 524.551282 327.576923 526.692308 327.576923 528.833333 327.576923 530.974359 327.576923 533.115385 6.423077 535.256410 6.423077 537.397436 6.423077 539.538462 6.423077 541.679487 6.423077 543.820513 6.423077 545.961538 6.423077 548.102564 6.423077 550.243590 6.423077 552.384615 6.423077 554.525641 6.423077 556.666667 6.423077 558.807692 6.423077 560.948718 6.423077 563.089744 6.423077 565.230769 6.423077 567.371795 6.423077 569.512821 6.423077 571.653846 6.423077 573.794872 6.423077 575.935897 6.423077 578.076923 6.423077 580.217949 6.423077 582.358974 6.423077 584.500000 6.423077 586.641026 6.423077 588.782051 6.423077 590.923077 6.423077 593.064103 6.423077 595.205128 6.423077 597.346154 6.423077 599.487179 6.423077 601.628205 6.423077 603.769231 6.423077 605.910256 6.423077 608.051282 6.423077 610.192308 6.423077 612.333333 6.423077 614.474359 6.423077 616.615385 6.423077 618.756410 6.423077 620.897436 6.423077 623.038462 6.423077 625.179487 6.423077 627.320513 6.423077 629.461538 6.423077 631.602564 6.423077 633.743590 6.423077 635.884615 6.423077 638.025641 6.423077 640.166667 6.423077 642.307692 6.423077 644.448718 6.423077 646.589744 6.423077 648.730769 6.423077 650.871795 6.423077 653.012821 6.423077 655.153846 6.423077"/></g><g class="series serie-5 color-5"><path class="line reactive nofill" d="M12.846154 6.423077 L14.987179 6.423077 17.128205 6.423077 19.269231 6.423077 21.410256 6.423077 23.551282 6.423077 25.692308 6.423077 27.833333 6.423077 29.974359 6.423077 32.115385 6.423077 34.256410 6.423077 36.397436 6.423077 38.538462 6.423077 40.679487 6.423077 42.820513 6.423077 44.961538 6.423077 47.102564 6.423077 49.243590 6.423077 51.384615 6.423077 53.525641 6.423077 55.666667 6.423077 57.807692 6.423077 59.948718 6.423077 62.089744 6.423077 64.230769 6.423077 66.371795 6.423077 68.512821 6.423077 70.653846 6.423077 72.794872 6.423077 74.935897 6.423077 77.076923 6.423077 79.217949 6.423077 81.358974 6.423077 83.500000 6.423077 85.641026 6.423077 87.782051 6.423077 89.923077 6.423077 92.064103 6.423077 94.205128 327.576923 96.346154 327.576923 98.487179 327.576923 100.628205 327.576923 102.769231 113.474359 104.910256 208.631054 107.051282 216.834218 109.192308 155.796959 111.333333 132.778689 113.474359 134.884615 115.615385 140.237179 117.756410 138.404110 119.897436 128.240053 122.038462 122.328224 124.179487 113.474359 126.320513 118.541875 128.461538 124.923694 130.602564 111.740735 132.743590 105.515156 134.884615 149.836196 137.025641 145.726989 139.166667 139.426185 141.307692 127.845627 143.448718 132.109716 145.589744 133.601510 147.730769 142.444978 149.871795 153.430119 152.012821 141.556045 154.153846 141.472387 156.294872 163.518899 158.435897 154.958673 160.576923 150.920281 162.717949 164.282043 164.858974 167.051649 167.000000 168.537808 169.141026 169.417899 171.282051 177.098925 173.423077 176.219908 175.564103 175.474290 177.705128 176.248587 179.846154 172.386296 181.987179 172.554851 184.128205 174.932733 186.269231 182.515203 188.410256 189.144096 190.551282 194.751256 192.692308 200.475957 194.833333 204.560454 196.974359 221.174175 199.115385 223.609952 201.256410 226.808958 203.397436 233.741112 205.538462 244.390663 207.679487 250.136513 209.820513 252.123777 211.961538 252.921171 214.102564 255.389142 216.243590 254.871787 218.384615 256.119478 220.525641 259.310713 222.666667 262.215365 224.807692 266.235184 226.948718 261.691855 229.089744 273.601023 231.230769 264.306940 233.371795 259.294745 235.512821 252.955544 237.653846 245.310913 239.794872 240.614906 241.935897 225.734164 244.076923 217.049950 246.217949 209.304188 248.358974 173.391643 250.500000 156.196156 252.641026 149.385483 254.782051 142.308272 256.923077 137.746172 259.064103 126.797748 261.205128 128.065280 263.346154 124.930603 265.487179 117.603059 267.628205 111.878835 269.769231 106.701343 271.910256 102.187484 274.051282 101.366601 276.192308 101.407413 278.333333 100.743588 280.474359 98.215593 282.615385 95.685945 284.756410 90.009034 286.897436 89.245699 289.038462 88.388325 291.179487 81.841433 293.320513 81.215516 295.461538 68.847003 297.602564 77.830335 299.743590 80.064207 301.884615 81.493315 304.025641 85.305115 306.166667 83.923416 308.307692 82.667307 310.448718 84.470203 312.589744 82.917316 314.730769 89.849082 316.871795 89.815003 319.012821 89.226418 321.153846 87.776886 323.294872 87.242169 325.435897 87.550341 327.576923 89.452219 329.717949 89.112646 331.858974 87.840979 334.000000 88.789373 336.141026 102.468004 338.282051 105.588644 340.423077 108.080879 342.564103 96.942819 344.705128 93.997502 346.846154 96.204858 348.987179 94.539343 351.128205 95.538177 353.269231 97.134647 355.410256 102.679272 357.551282 113.337026 359.692308 107.449828 361.833333 109.642546 363.974359 112.899256 366.115385 117.729179 368.256410 117.979195 370.397436 123.803869 372.538462 124.518706 374.679487 126.886437 376.820513 127.168907 378.961538 135.373527 381.102564 136.620582 383.243590 138.866577 385.384615 141.325099 387.525641 142.173213 389.666667 155.426888 391.807692 156.087005 393.948718 175.477664 396.089744 180.091962 398.230769 185.539076 400.371795 191.484006 402.512821 197.345245 404.653846 210.474975 406.794872 210.474975 408.935897 236.284459 411.076923 239.989510 413.217949 257.760870 415.358974 300.010069 417.500000 300.010069 419.641026 311.881434 421.782051 311.881434 423.923077 323.644427 426.064103 323.644427 428.205128 323.753663 430.346154 323.676269 432.487179 323.676269 434.628205 322.922520 436.769231 323.177555 438.910256 323.323230 441.051282 323.323230 443.192308 323.266133 445.333333 323.085261 447.474359 327.576923 449.615385 327.576923 451.756410 327.576923 453.897436 327.576923 456.038462 327.576923 458.179487 327.576923 460.320513 327.576923 462.461538 327.576923 464.602564 327.576923 466.743590 327.576923 468.884615 327.576923 471.025641 327.576923 473.166667 327.576923 475.307692 327.576923 477.448718 327.576923 479.589744 327.576923 481.730769 327.576923 483.871795 327.576923 486.012821 327.576923 488.153846 327.576923 490.294872 327.576923 492.435897 327.576923 494.576923 327.576923 496.717949 327.576923 498.858974 327.576923 501.000000 327.576923 503.141026 327.576923 505.282051 327.576923 507.423077 327.576923 509.564103 327.576923 511.705128 327.576923 513.846154 327.576923 515.987179 327.576923 518.128205 327.576923 520.269231 327.576923 522.410256 327.576923 524.551282 327.576923 526.692308 327.576923 528.833333 327.576923 530.974359 327.576923 533.115385 6.423077 535.256410 6.423077 537.397436 6.423077 539.538462 6.423077 541.679487 6.423077 543.820513 6.423077 545.961538 6.423077 548.102564 6.423077 550.243590 6.423077 552.384615 6.423077 554.525641 6.423077 556.666667 6.423077 558.807692 6.423077 560.948718 6.423077 563.089744 6.423077 565.230769 6.423077 567.371795 6.423077 569.512821 6.423077 571.653846 6.423077 573.794872 6.423077 575.935897 6.423077 578.076923 6.423077 580.217949 6.423077 582.358974 6.423077 584.500000 6.423077 586.641026 6.423077 588.782051 6.423077 590.923077 6.423077 593.064103 6.423077 595.205128 6.423077 597.346154 6.423077 599.487179 6.423077 601.628205 6.423077 603.769231 6.423077 605.910256 6.423077 608.051282 6.423077 610.192308 6.423077 612.333333 6.423077 614.474359 6.423077 616.615385 6.423077 618.756410 6.423077 620.897436 6.423077 623.038462 6.423077 625.179487 6.423077 627.320513 6.423077 629.461538 6.423077 631.602564 6.423077 633.743590 6.423077 635.884615 6.423077 638.025641 6.423077 640.166667 6.423077 642.307692 6.423077 644.448718 6.423077 646.589744 6.423077 648.730769 6.423077 650.871795 6.423077 653.012821 6.423077 655.153846 6.423077"/></g></g><g class="titles"><text class="title plot_title" x="400.0" y="28">Mean Both Correct for Tempo T ±10.0 BPM</text><text class="title" x="446.0" y="465.0">T (BPM)</text><text class="title" x="0" y="243.0" transform="rotate(-90 0.000000 215.000000)">Mean Both Correct</text></g><g class="plot overlay" transform="translate(112, 48)"><g class="series serie-0 color-0"><g class="dots"><circle class="dot reactive tooltip-trigger" cx="12.846153846153845" cy="6.423076923076906" r="2.5"/><desc class="value">1.0000</desc><desc class="x ">12.846153846153845</desc><desc class="y ">6.423076923076906</desc><desc class="x_label">0.0</desc></g><g class="dots"><circle class="dot reactive tooltip-trigger" cx="77.07692307692308" cy="6.423076923076906" r="2.5"/><desc class="value">1.0000</desc><desc class="x ">77.07692307692308</desc><desc class="y ">6.423076923076906</desc><desc class="x_label">30.0</desc></g><g class="dots"><circle class="dot reactive tooltip-trigger" cx="141.30769230769232" cy="125.6459430979979" r="2.5"/><desc class="value">0.6288</desc><desc class="x ">141.30769230769232</desc><desc class="y ">125.6459430979979</desc><desc class="x_label">60.0</desc></g><g class="dots"><circle class="dot reactive tooltip-trigger" cx="205.53846153846152" cy="163.9076501231201" r="2.5"/><desc class="value">0.5096</desc><desc class="x ">205.53846153846152</desc><desc class="y ">163.9076501231201</desc><desc class="x_label">90.0</desc></g><g class="dots"><circle class="dot reactive tooltip-trigger" cx="269.7692307692308" cy="179.60533549637242" r="2.5"/><desc class="value">0.4607</desc><desc class="x top">269.7692307692308</desc><desc class="y top">179.60533549637242</desc><desc class="x_label">120.0</desc></g><g class="dots"><circle class="dot reactive tooltip-trigger" cx="334.0" cy="153.3189768939987" r="2.5"/><desc class="value">0.5426</desc><desc class="x ">334.0</desc><desc class="y ">153.3189768939987</desc><desc class="x_label">150.0</desc></g><g class="dots"><circle class="dot reactive tooltip-trigger" cx="398.2307692307692" cy="93.69934417270119" r="2.5"/><desc class="value">0.7282</desc><desc class="x left">398.2307692307692</desc><desc class="y left">93.69934417270119</desc><desc class="x_label">180.0</desc></g><g class="dots"><circle class="dot reactive tooltip-trigger" cx="462.46153846153845" cy="87.59382924767542" r="2.5"/><desc class="value">0.7473</desc><desc class="x left">462.46153846153845</desc><desc class="y left">87.59382924767542</desc><desc class="x_label">210.0</desc></g><g class="dots"><circle class="dot reactive tooltip-trigger" cx="526.6923076923076" cy="274.05128205128204" r="2.5"/><desc class="value">0.1667</desc><desc class="x left top">526.6923076923076</desc><desc class="y left top">274.05128205128204</desc><desc class="x_label">240.0</desc></g><g class="dots"><circle class="dot reactive tooltip-trigger" cx="590.9230769230769" cy="6.423076923076906" r="2.5"/><desc class="value">1.0000</desc><desc class="x left">590.9230769230769</desc><desc class="y left">6.423076923076906</desc><desc class="x_label">270.0</desc></g><g class="dots"><circle class="dot reactive tooltip-trigger" cx="655.1538461538462" cy="6.423076923076906" r="2.5"/><desc class="value">1.0000</desc><desc class="x left">655.1538461538462</desc><desc class="y left">6.423076923076906</desc><desc class="x_label">300.0</desc></g></g><g class="series serie-1 color-1"><g class="dots"><circle class="dot reactive tooltip-trigger" cx="12.846153846153845" cy="6.423076923076906" r="2.5"/><desc class="value">1.0000</desc><desc class="x ">12.846153846153845</desc><desc class="y ">6.423076923076906</desc><desc class="x_label">0.0</desc></g><g class="dots"><circle class="dot reactive tooltip-trigger" cx="77.07692307692308" cy="6.423076923076906" r="2.5"/><desc class="value">1.0000</desc><desc class="x ">77.07692307692308</desc><desc class="y ">6.423076923076906</desc><desc class="x_label">30.0</desc></g><g class="dots"><circle class="dot reactive tooltip-trigger" cx="141.30769230769232" cy="149.40252897787144" r="2.5"/><desc class="value">0.5548</desc><desc class="x ">141.30769230769232</desc><desc class="y ">149.40252897787144</desc><desc class="x_label">60.0</desc></g><g class="dots"><circle class="dot reactive tooltip-trigger" cx="205.53846153846152" cy="271.3002511453602" r="2.5"/><desc class="value">0.1752</desc><desc class="x top">205.53846153846152</desc><desc class="y top">271.3002511453602</desc><desc class="x_label">90.0</desc></g><g class="dots"><circle class="dot reactive tooltip-trigger" cx="269.7692307692308" cy="111.02854760939118" r="2.5"/><desc class="value">0.6743</desc><desc class="x ">269.7692307692308</desc><desc class="y ">111.02854760939118</desc><desc class="x_label">120.0</desc></g><g class="dots"><circle class="dot reactive tooltip-trigger" cx="334.0" cy="113.44323036660924" r="2.5"/><desc class="value">0.6668</desc><desc class="x ">334.0</desc><desc class="y ">113.44323036660924</desc><desc class="x_label">150.0</desc></g><g class="dots"><circle class="dot reactive tooltip-trigger" cx="398.2307692307692" cy="222.61722912966252" r="2.5"/><desc class="value">0.3268</desc><desc class="x left top">398.2307692307692</desc><desc class="y left top">222.61722912966252</desc><desc class="x_label">180.0</desc></g><g class="dots"><circle class="dot reactive tooltip-trigger" cx="462.46153846153845" cy="306.4019442096365" r="2.5"/><desc class="value">0.0659</desc><desc class="x left top">462.46153846153845</desc><desc class="y left top">306.4019442096365</desc><desc class="x_label">210.0</desc></g><g class="dots"><circle class="dot reactive tooltip-trigger" cx="526.6923076923076" cy="327.5769230769231" r="2.5"/><desc class="value">0.0000</desc><desc class="x left top">526.6923076923076</desc><desc class="y left top">327.5769230769231</desc><desc class="x_label">240.0</desc></g><g class="dots"><circle class="dot reactive tooltip-trigger" cx="590.9230769230769" cy="6.423076923076906" r="2.5"/><desc class="value">1.0000</desc><desc class="x left">590.9230769230769</desc><desc class="y left">6.423076923076906</desc><desc class="x_label">270.0</desc></g><g class="dots"><circle class="dot reactive tooltip-trigger" cx="655.1538461538462" cy="6.423076923076906" r="2.5"/><desc class="value">1.0000</desc><desc class="x left">655.1538461538462</desc><desc class="y left">6.423076923076906</desc><desc class="x_label">300.0</desc></g></g><g class="series serie-2 color-2"><g class="dots"><circle class="dot reactive tooltip-trigger" cx="12.846153846153845" cy="6.423076923076906" r="2.5"/><desc class="value">1.0000</desc><desc class="x ">12.846153846153845</desc><desc class="y ">6.423076923076906</desc><desc class="x_label">0.0</desc></g><g class="dots"><circle class="dot reactive tooltip-trigger" cx="77.07692307692308" cy="6.423076923076906" r="2.5"/><desc class="value">1.0000</desc><desc class="x ">77.07692307692308</desc><desc class="y ">6.423076923076906</desc><desc class="x_label">30.0</desc></g><g class="dots"><circle class="dot reactive tooltip-trigger" cx="141.30769230769232" cy="323.1775553213909" r="2.5"/><desc class="value">0.0137</desc><desc class="x top">141.30769230769232</desc><desc class="y top">323.1775553213909</desc><desc class="x_label">60.0</desc></g><g class="dots"><circle class="dot reactive tooltip-trigger" cx="205.53846153846152" cy="323.76780336103127" r="2.5"/><desc class="value">0.0119</desc><desc class="x top">205.53846153846152</desc><desc class="y top">323.76780336103127</desc><desc class="x_label">90.0</desc></g><g class="dots"><circle class="dot reactive tooltip-trigger" cx="269.7692307692308" cy="321.1331508269118" r="2.5"/><desc class="value">0.0201</desc><desc class="x top">269.7692307692308</desc><desc class="y top">321.1331508269118</desc><desc class="x_label">120.0</desc></g><g class="dots"><circle class="dot reactive tooltip-trigger" cx="334.0" cy="323.5613326772094" r="2.5"/><desc class="value">0.0125</desc><desc class="x top">334.0</desc><desc class="y top">323.5613326772094</desc><desc class="x_label">150.0</desc></g><g class="dots"><circle class="dot reactive tooltip-trigger" cx="398.2307692307692" cy="327.5769230769231" r="2.5"/><desc class="value">0.0000</desc><desc class="x left top">398.2307692307692</desc><desc class="y left top">327.5769230769231</desc><desc class="x_label">180.0</desc></g><g class="dots"><circle class="dot reactive tooltip-trigger" cx="462.46153846153845" cy="327.5769230769231" r="2.5"/><desc class="value">0.0000</desc><desc class="x left top">462.46153846153845</desc><desc class="y left top">327.5769230769231</desc><desc class="x_label">210.0</desc></g><g class="dots"><circle class="dot reactive tooltip-trigger" cx="526.6923076923076" cy="327.5769230769231" r="2.5"/><desc class="value">0.0000</desc><desc class="x left top">526.6923076923076</desc><desc class="y left top">327.5769230769231</desc><desc class="x_label">240.0</desc></g><g class="dots"><circle class="dot reactive tooltip-trigger" cx="590.9230769230769" cy="6.423076923076906" r="2.5"/><desc class="value">1.0000</desc><desc class="x left">590.9230769230769</desc><desc class="y left">6.423076923076906</desc><desc class="x_label">270.0</desc></g><g class="dots"><circle class="dot reactive tooltip-trigger" cx="655.1538461538462" cy="6.423076923076906" r="2.5"/><desc class="value">1.0000</desc><desc class="x left">655.1538461538462</desc><desc class="y left">6.423076923076906</desc><desc class="x_label">300.0</desc></g></g><g class="series serie-3 color-3"><g class="dots"><circle class="dot reactive tooltip-trigger" cx="12.846153846153845" cy="6.423076923076906" r="2.5"/><desc class="value">1.0000</desc><desc class="x ">12.846153846153845</desc><desc class="y ">6.423076923076906</desc><desc class="x_label">0.0</desc></g><g class="dots"><circle class="dot reactive tooltip-trigger" cx="77.07692307692308" cy="6.423076923076906" r="2.5"/><desc class="value">1.0000</desc><desc class="x ">77.07692307692308</desc><desc class="y ">6.423076923076906</desc><desc class="x_label">30.0</desc></g><g class="dots"><circle class="dot reactive tooltip-trigger" cx="141.30769230769232" cy="115.96733403582718" r="2.5"/><desc class="value">0.6589</desc><desc class="x ">141.30769230769232</desc><desc class="y ">115.96733403582718</desc><desc class="x_label">60.0</desc></g><g class="dots"><circle class="dot reactive tooltip-trigger" cx="205.53846153846152" cy="116.80563213090954" r="2.5"/><desc class="value">0.6563</desc><desc class="x ">205.53846153846152</desc><desc class="y ">116.80563213090954</desc><desc class="x_label">90.0</desc></g><g class="dots"><circle class="dot reactive tooltip-trigger" cx="269.7692307692308" cy="126.45597314226487" r="2.5"/><desc class="value">0.6262</desc><desc class="x ">269.7692307692308</desc><desc class="y ">126.45597314226487</desc><desc class="x_label">120.0</desc></g><g class="dots"><circle class="dot reactive tooltip-trigger" cx="334.0" cy="80.4780347596573" r="2.5"/><desc class="value">0.7694</desc><desc class="x ">334.0</desc><desc class="y ">80.4780347596573</desc><desc class="x_label">150.0</desc></g><g class="dots"><circle class="dot reactive tooltip-trigger" cx="398.2307692307692" cy="75.44548435578633" r="2.5"/><desc class="value">0.7851</desc><desc class="x left">398.2307692307692</desc><desc class="y left">75.44548435578633</desc><desc class="x_label">180.0</desc></g><g class="dots"><circle class="dot reactive tooltip-trigger" cx="462.46153846153845" cy="108.76880811496196" r="2.5"/><desc class="value">0.6813</desc><desc class="x left">462.46153846153845</desc><desc class="y left">108.76880811496196</desc><desc class="x_label">210.0</desc></g><g class="dots"><circle class="dot reactive tooltip-trigger" cx="526.6923076923076" cy="167.0" r="2.5"/><desc class="value">0.5000</desc><desc class="x left">526.6923076923076</desc><desc class="y left">167.0</desc><desc class="x_label">240.0</desc></g><g class="dots"><circle class="dot reactive tooltip-trigger" cx="590.9230769230769" cy="6.423076923076906" r="2.5"/><desc class="value">1.0000</desc><desc class="x left">590.9230769230769</desc><desc class="y left">6.423076923076906</desc><desc class="x_label">270.0</desc></g><g class="dots"><circle class="dot reactive tooltip-trigger" cx="655.1538461538462" cy="6.423076923076906" r="2.5"/><desc class="value">1.0000</desc><desc class="x left">655.1538461538462</desc><desc class="y left">6.423076923076906</desc><desc class="x_label">300.0</desc></g></g><g class="series serie-4 color-4"><g class="dots"><circle class="dot reactive tooltip-trigger" cx="12.846153846153845" cy="6.423076923076906" r="2.5"/><desc class="value">1.0000</desc><desc class="x ">12.846153846153845</desc><desc class="y ">6.423076923076906</desc><desc class="x_label">0.0</desc></g><g class="dots"><circle class="dot reactive tooltip-trigger" cx="77.07692307692308" cy="6.423076923076906" r="2.5"/><desc class="value">1.0000</desc><desc class="x ">77.07692307692308</desc><desc class="y ">6.423076923076906</desc><desc class="x_label">30.0</desc></g><g class="dots"><circle class="dot reactive tooltip-trigger" cx="141.30769230769232" cy="117.28714436248683" r="2.5"/><desc class="value">0.6548</desc><desc class="x ">141.30769230769232</desc><desc class="y ">117.28714436248683</desc><desc class="x_label">60.0</desc></g><g class="dots"><circle class="dot reactive tooltip-trigger" cx="205.53846153846152" cy="241.31879273640527" r="2.5"/><desc class="value">0.2686</desc><desc class="x top">205.53846153846152</desc><desc class="y top">241.31879273640527</desc><desc class="x_label">90.0</desc></g><g class="dots"><circle class="dot reactive tooltip-trigger" cx="269.7692307692308" cy="105.80768104186382" r="2.5"/><desc class="value">0.6905</desc><desc class="x ">269.7692307692308</desc><desc class="y ">105.80768104186382</desc><desc class="x_label">120.0</desc></g><g class="dots"><circle class="dot reactive tooltip-trigger" cx="334.0" cy="80.10449146666073" r="2.5"/><desc class="value">0.7706</desc><desc class="x ">334.0</desc><desc class="y ">80.10449146666073</desc><desc class="x_label">150.0</desc></g><g class="dots"><circle class="dot reactive tooltip-trigger" cx="398.2307692307692" cy="168.4260827981965" r="2.5"/><desc class="value">0.4956</desc><desc class="x left top">398.2307692307692</desc><desc class="y left top">168.4260827981965</desc><desc class="x_label">180.0</desc></g><g class="dots"><circle class="dot reactive tooltip-trigger" cx="462.46153846153845" cy="327.5769230769231" r="2.5"/><desc class="value">0.0000</desc><desc class="x left top">462.46153846153845</desc><desc class="y left top">327.5769230769231</desc><desc class="x_label">210.0</desc></g><g class="dots"><circle class="dot reactive tooltip-trigger" cx="526.6923076923076" cy="327.5769230769231" r="2.5"/><desc class="value">0.0000</desc><desc class="x left top">526.6923076923076</desc><desc class="y left top">327.5769230769231</desc><desc class="x_label">240.0</desc></g><g class="dots"><circle class="dot reactive tooltip-trigger" cx="590.9230769230769" cy="6.423076923076906" r="2.5"/><desc class="value">1.0000</desc><desc class="x left">590.9230769230769</desc><desc class="y left">6.423076923076906</desc><desc class="x_label">270.0</desc></g><g class="dots"><circle class="dot reactive tooltip-trigger" cx="655.1538461538462" cy="6.423076923076906" r="2.5"/><desc class="value">1.0000</desc><desc class="x left">655.1538461538462</desc><desc class="y left">6.423076923076906</desc><desc class="x_label">300.0</desc></g></g><g class="series serie-5 color-5"><g class="dots"><circle class="dot reactive tooltip-trigger" cx="12.846153846153845" cy="6.423076923076906" r="2.5"/><desc class="value">1.0000</desc><desc class="x ">12.846153846153845</desc><desc class="y ">6.423076923076906</desc><desc class="x_label">0.0</desc></g><g class="dots"><circle class="dot reactive tooltip-trigger" cx="77.07692307692308" cy="6.423076923076906" r="2.5"/><desc class="value">1.0000</desc><desc class="x ">77.07692307692308</desc><desc class="y ">6.423076923076906</desc><desc class="x_label">30.0</desc></g><g class="dots"><circle class="dot reactive tooltip-trigger" cx="141.30769230769232" cy="127.84562697576396" r="2.5"/><desc class="value">0.6219</desc><desc class="x ">141.30769230769232</desc><desc class="y ">127.84562697576396</desc><desc class="x_label">60.0</desc></g><g class="dots"><circle class="dot reactive tooltip-trigger" cx="205.53846153846152" cy="244.3906634750277" r="2.5"/><desc class="value">0.2590</desc><desc class="x top">205.53846153846152</desc><desc class="y top">244.3906634750277</desc><desc class="x_label">90.0</desc></g><g class="dots"><circle class="dot reactive tooltip-trigger" cx="269.7692307692308" cy="106.70134288675587" r="2.5"/><desc class="value">0.6878</desc><desc class="x ">269.7692307692308</desc><desc class="y ">106.70134288675587</desc><desc class="x_label">120.0</desc></g><g class="dots"><circle class="dot reactive tooltip-trigger" cx="334.0" cy="88.78937302883216" r="2.5"/><desc class="value">0.7435</desc><desc class="x ">334.0</desc><desc class="y ">88.78937302883216</desc><desc class="x_label">150.0</desc></g><g class="dots"><circle class="dot reactive tooltip-trigger" cx="398.2307692307692" cy="185.5390763765542" r="2.5"/><desc class="value">0.4423</desc><desc class="x left top">398.2307692307692</desc><desc class="y left top">185.5390763765542</desc><desc class="x_label">180.0</desc></g><g class="dots"><circle class="dot reactive tooltip-trigger" cx="462.46153846153845" cy="327.5769230769231" r="2.5"/><desc class="value">0.0000</desc><desc class="x left top">462.46153846153845</desc><desc class="y left top">327.5769230769231</desc><desc class="x_label">210.0</desc></g><g class="dots"><circle class="dot reactive tooltip-trigger" cx="526.6923076923076" cy="327.5769230769231" r="2.5"/><desc class="value">0.0000</desc><desc class="x left top">526.6923076923076</desc><desc class="y left top">327.5769230769231</desc><desc class="x_label">240.0</desc></g><g class="dots"><circle class="dot reactive tooltip-trigger" cx="590.9230769230769" cy="6.423076923076906" r="2.5"/><desc class="value">1.0000</desc><desc class="x left">590.9230769230769</desc><desc class="y left">6.423076923076906</desc><desc class="x_label">270.0</desc></g><g class="dots"><circle class="dot reactive tooltip-trigger" cx="655.1538461538462" cy="6.423076923076906" r="2.5"/><desc class="value">1.0000</desc><desc class="x left">655.1538461538462</desc><desc class="y left">6.423076923076906</desc><desc class="x_label">300.0</desc></g></g></g><g class="plot text-overlay" transform="translate(112, 48)"><g class="series serie-0 color-0"/><g class="series serie-1 color-1"/><g class="series serie-2 color-2"/><g class="series serie-3 color-3"/><g class="series serie-4 color-4"/><g class="series serie-5 color-5"/></g><g class="plot tooltip-overlay" transform="translate(112, 48)"><g class="tooltip" style="opacity: 0" transform="translate(0 0)"><rect class="tooltip-box" height="0" rx="0" ry="0" width="0"/><g class="text"/></g></g><g class="legends" transform="translate(122, 485)"><g class="legend reactive activate-serie" id="activate-serie-0"><rect class="color-0 reactive" height="12" width="12" x="0.0" y="1.5"/><text x="17.0" y="12.0">boeck2015/tempodetector2016_default</text></g><g class="legend reactive activate-serie" id="activate-serie-1"><rect class="color-1 reactive" height="12" width="12" x="334.0" y="1.5"/><text x="351.0" y="12.0">davies2009/mirex_qm_tempotracker</text></g><g class="legend reactive activate-serie" id="activate-serie-2"><rect class="color-2 reactive" height="12" width="12" x="0.0" y="24.0"/><text x="17.0" y="34.5">percival2014/stem</text></g><g class="legend reactive activate-serie" id="activate-serie-3"><rect class="color-3 reactive" height="12" width="12" x="334.0" y="24.0"/><text x="351.0" y="34.5">schreiber2014/default</text></g><g class="legend reactive activate-serie" id="activate-serie-4"><rect class="color-4 reactive" height="12" width="12" x="0.0" y="46.5"/><text x="17.0" y="57.0">schreiber2017/ismir2017</text></g><g class="legend reactive activate-serie" id="activate-serie-5"><rect class="color-5 reactive" height="12" width="12" x="334.0" y="46.5"/><text x="351.0" y="57.0">schreiber2017/mirex2017</text></g></g></g></svg>