<?xml version='1.0' encoding='utf-8'?>
<svg xmlns:xlink="http://www.w3.org/1999/xlink" xmlns="http://www.w3.org/2000/svg" id="chart-b205bf61-ae61-4916-8051-c77acbd2a1ec" class="pygal-chart" viewBox="0 0 800 600"><!--Generated with pygal 2.4.0 (lxml) ©Kozea 2012-2016 on 2019-10-13--><!--http://pygal.org--><!--http://github.com/Kozea/pygal--><defs><style type="text/css">#chart-b205bf61-ae61-4916-8051-c77acbd2a1ec{-webkit-user-select:none;-webkit-font-smoothing:antialiased;font-family:Helvetica,Arial,sans-serif}#chart-b205bf61-ae61-4916-8051-c77acbd2a1ec .title{font-family:Helvetica,Arial,sans-serif;font-size:18px}#chart-b205bf61-ae61-4916-8051-c77acbd2a1ec .legends .legend text{font-family:Helvetica,Arial,sans-serif;font-size:15px}#chart-b205bf61-ae61-4916-8051-c77acbd2a1ec .axis text{font-family:Helvetica,Arial,sans-serif;font-size:15px}#chart-b205bf61-ae61-4916-8051-c77acbd2a1ec .axis text.major{font-family:Helvetica,Arial,sans-serif;font-size:15px}#chart-b205bf61-ae61-4916-8051-c77acbd2a1ec .text-overlay text.value{font-family:Helvetica,Arial,sans-serif;font-size:15px}#chart-b205bf61-ae61-4916-8051-c77acbd2a1ec .text-overlay text.label{font-family:Helvetica,Arial,sans-serif;font-size:15px}#chart-b205bf61-ae61-4916-8051-c77acbd2a1ec .tooltip{font-family:Helvetica,Arial,sans-serif;font-size:14px}#chart-b205bf61-ae61-4916-8051-c77acbd2a1ec text.no_data{font-family:Helvetica,Arial,sans-serif;font-size:64px}
#chart-b205bf61-ae61-4916-8051-c77acbd2a1ec{background-color:transparent}#chart-b205bf61-ae61-4916-8051-c77acbd2a1ec path,#chart-b205bf61-ae61-4916-8051-c77acbd2a1ec line,#chart-b205bf61-ae61-4916-8051-c77acbd2a1ec rect,#chart-b205bf61-ae61-4916-8051-c77acbd2a1ec circle{-webkit-transition:150ms;-moz-transition:150ms;transition:150ms}#chart-b205bf61-ae61-4916-8051-c77acbd2a1ec .graph &gt; .background{fill:transparent}#chart-b205bf61-ae61-4916-8051-c77acbd2a1ec .plot &gt; .background{fill:white}#chart-b205bf61-ae61-4916-8051-c77acbd2a1ec .graph{fill:rgba(0,0,0,.87)}#chart-b205bf61-ae61-4916-8051-c77acbd2a1ec text.no_data{fill:rgba(0,0,0,1)}#chart-b205bf61-ae61-4916-8051-c77acbd2a1ec .title{fill:rgba(0,0,0,1)}#chart-b205bf61-ae61-4916-8051-c77acbd2a1ec .legends .legend text{fill:rgba(0,0,0,.87)}#chart-b205bf61-ae61-4916-8051-c77acbd2a1ec .legends .legend:hover text{fill:rgba(0,0,0,1)}#chart-b205bf61-ae61-4916-8051-c77acbd2a1ec .axis .line{stroke:rgba(0,0,0,1)}#chart-b205bf61-ae61-4916-8051-c77acbd2a1ec .axis .guide.line{stroke:rgba(0,0,0,.54)}#chart-b205bf61-ae61-4916-8051-c77acbd2a1ec .axis .major.line{stroke:rgba(0,0,0,.87)}#chart-b205bf61-ae61-4916-8051-c77acbd2a1ec .axis text.major{fill:rgba(0,0,0,1)}#chart-b205bf61-ae61-4916-8051-c77acbd2a1ec .axis.y .guides:hover .guide.line,#chart-b205bf61-ae61-4916-8051-c77acbd2a1ec .line-graph .axis.x .guides:hover .guide.line,#chart-b205bf61-ae61-4916-8051-c77acbd2a1ec .stackedline-graph .axis.x .guides:hover .guide.line,#chart-b205bf61-ae61-4916-8051-c77acbd2a1ec .xy-graph .axis.x .guides:hover .guide.line{stroke:rgba(0,0,0,1)}#chart-b205bf61-ae61-4916-8051-c77acbd2a1ec .axis .guides:hover text{fill:rgba(0,0,0,1)}#chart-b205bf61-ae61-4916-8051-c77acbd2a1ec .reactive{fill-opacity:.7;stroke-opacity:.8}#chart-b205bf61-ae61-4916-8051-c77acbd2a1ec .ci{stroke:rgba(0,0,0,.87)}#chart-b205bf61-ae61-4916-8051-c77acbd2a1ec .reactive.active,#chart-b205bf61-ae61-4916-8051-c77acbd2a1ec .active .reactive{fill-opacity:.8;stroke-opacity:.9;stroke-width:4}#chart-b205bf61-ae61-4916-8051-c77acbd2a1ec .ci .reactive.active{stroke-width:1.5}#chart-b205bf61-ae61-4916-8051-c77acbd2a1ec .series text{fill:rgba(0,0,0,1)}#chart-b205bf61-ae61-4916-8051-c77acbd2a1ec .tooltip rect{fill:white;stroke:rgba(0,0,0,1);-webkit-transition:opacity 150ms;-moz-transition:opacity 150ms;transition:opacity 150ms}#chart-b205bf61-ae61-4916-8051-c77acbd2a1ec .tooltip .label{fill:rgba(0,0,0,.87)}#chart-b205bf61-ae61-4916-8051-c77acbd2a1ec .tooltip .label{fill:rgba(0,0,0,.87)}#chart-b205bf61-ae61-4916-8051-c77acbd2a1ec .tooltip .legend{font-size:.8em;fill:rgba(0,0,0,.54)}#chart-b205bf61-ae61-4916-8051-c77acbd2a1ec .tooltip .x_label{font-size:.6em;fill:rgba(0,0,0,1)}#chart-b205bf61-ae61-4916-8051-c77acbd2a1ec .tooltip .xlink{font-size:.5em;text-decoration:underline}#chart-b205bf61-ae61-4916-8051-c77acbd2a1ec .tooltip .value{font-size:1.5em}#chart-b205bf61-ae61-4916-8051-c77acbd2a1ec .bound{font-size:.5em}#chart-b205bf61-ae61-4916-8051-c77acbd2a1ec .max-value{font-size:.75em;fill:rgba(0,0,0,.54)}#chart-b205bf61-ae61-4916-8051-c77acbd2a1ec .map-element{fill:white;stroke:rgba(0,0,0,.54) !important}#chart-b205bf61-ae61-4916-8051-c77acbd2a1ec .map-element .reactive{fill-opacity:inherit;stroke-opacity:inherit}#chart-b205bf61-ae61-4916-8051-c77acbd2a1ec .color-0,#chart-b205bf61-ae61-4916-8051-c77acbd2a1ec .color-0 a:visited{stroke:#F44336;fill:#F44336}#chart-b205bf61-ae61-4916-8051-c77acbd2a1ec .color-1,#chart-b205bf61-ae61-4916-8051-c77acbd2a1ec .color-1 a:visited{stroke:#3F51B5;fill:#3F51B5}#chart-b205bf61-ae61-4916-8051-c77acbd2a1ec .color-2,#chart-b205bf61-ae61-4916-8051-c77acbd2a1ec .color-2 a:visited{stroke:#009688;fill:#009688}#chart-b205bf61-ae61-4916-8051-c77acbd2a1ec .color-3,#chart-b205bf61-ae61-4916-8051-c77acbd2a1ec .color-3 a:visited{stroke:#FFC107;fill:#FFC107}#chart-b205bf61-ae61-4916-8051-c77acbd2a1ec .color-4,#chart-b205bf61-ae61-4916-8051-c77acbd2a1ec .color-4 a:visited{stroke:#FF5722;fill:#FF5722}#chart-b205bf61-ae61-4916-8051-c77acbd2a1ec .color-5,#chart-b205bf61-ae61-4916-8051-c77acbd2a1ec .color-5 a:visited{stroke:#9C27B0;fill:#9C27B0}#chart-b205bf61-ae61-4916-8051-c77acbd2a1ec .text-overlay .color-0 text{fill:black}#chart-b205bf61-ae61-4916-8051-c77acbd2a1ec .text-overlay .color-1 text{fill:black}#chart-b205bf61-ae61-4916-8051-c77acbd2a1ec .text-overlay .color-2 text{fill:black}#chart-b205bf61-ae61-4916-8051-c77acbd2a1ec .text-overlay .color-3 text{fill:black}#chart-b205bf61-ae61-4916-8051-c77acbd2a1ec .text-overlay .color-4 text{fill:black}#chart-b205bf61-ae61-4916-8051-c77acbd2a1ec .text-overlay .color-5 text{fill:black}
#chart-b205bf61-ae61-4916-8051-c77acbd2a1ec text.no_data{text-anchor:middle}#chart-b205bf61-ae61-4916-8051-c77acbd2a1ec .guide.line{fill:none}#chart-b205bf61-ae61-4916-8051-c77acbd2a1ec .centered{text-anchor:middle}#chart-b205bf61-ae61-4916-8051-c77acbd2a1ec .title{text-anchor:middle}#chart-b205bf61-ae61-4916-8051-c77acbd2a1ec .legends .legend text{fill-opacity:1}#chart-b205bf61-ae61-4916-8051-c77acbd2a1ec .axis.x text{text-anchor:middle}#chart-b205bf61-ae61-4916-8051-c77acbd2a1ec .axis.x:not(.web) text[transform]{text-anchor:start}#chart-b205bf61-ae61-4916-8051-c77acbd2a1ec .axis.x:not(.web) text[transform].backwards{text-anchor:end}#chart-b205bf61-ae61-4916-8051-c77acbd2a1ec .axis.y text{text-anchor:end}#chart-b205bf61-ae61-4916-8051-c77acbd2a1ec .axis.y text[transform].backwards{text-anchor:start}#chart-b205bf61-ae61-4916-8051-c77acbd2a1ec .axis.y2 text{text-anchor:start}#chart-b205bf61-ae61-4916-8051-c77acbd2a1ec .axis.y2 text[transform].backwards{text-anchor:end}#chart-b205bf61-ae61-4916-8051-c77acbd2a1ec .axis .guide.line{stroke-dasharray:1}#chart-b205bf61-ae61-4916-8051-c77acbd2a1ec .axis .major.guide.line{stroke-dasharray:1}#chart-b205bf61-ae61-4916-8051-c77acbd2a1ec .horizontal .axis.y .guide.line,#chart-b205bf61-ae61-4916-8051-c77acbd2a1ec .horizontal .axis.y2 .guide.line,#chart-b205bf61-ae61-4916-8051-c77acbd2a1ec .vertical .axis.x .guide.line{opacity:0}#chart-b205bf61-ae61-4916-8051-c77acbd2a1ec .horizontal .axis.always_show .guide.line,#chart-b205bf61-ae61-4916-8051-c77acbd2a1ec .vertical .axis.always_show .guide.line{opacity:1 !important}#chart-b205bf61-ae61-4916-8051-c77acbd2a1ec .axis.y .guides:hover .guide.line,#chart-b205bf61-ae61-4916-8051-c77acbd2a1ec .axis.y2 .guides:hover .guide.line,#chart-b205bf61-ae61-4916-8051-c77acbd2a1ec .axis.x .guides:hover .guide.line{opacity:1}#chart-b205bf61-ae61-4916-8051-c77acbd2a1ec .axis .guides:hover text{opacity:1}#chart-b205bf61-ae61-4916-8051-c77acbd2a1ec .nofill{fill:none}#chart-b205bf61-ae61-4916-8051-c77acbd2a1ec .subtle-fill{fill-opacity:.2}#chart-b205bf61-ae61-4916-8051-c77acbd2a1ec .dot{stroke-width:1px;fill-opacity:1}#chart-b205bf61-ae61-4916-8051-c77acbd2a1ec .dot.active{stroke-width:5px}#chart-b205bf61-ae61-4916-8051-c77acbd2a1ec .dot.negative{fill:transparent}#chart-b205bf61-ae61-4916-8051-c77acbd2a1ec text,#chart-b205bf61-ae61-4916-8051-c77acbd2a1ec tspan{stroke:none !important}#chart-b205bf61-ae61-4916-8051-c77acbd2a1ec .series text.active{opacity:1}#chart-b205bf61-ae61-4916-8051-c77acbd2a1ec .tooltip rect{fill-opacity:.95;stroke-width:.5}#chart-b205bf61-ae61-4916-8051-c77acbd2a1ec .tooltip text{fill-opacity:1}#chart-b205bf61-ae61-4916-8051-c77acbd2a1ec .showable{visibility:hidden}#chart-b205bf61-ae61-4916-8051-c77acbd2a1ec .showable.shown{visibility:visible}#chart-b205bf61-ae61-4916-8051-c77acbd2a1ec .gauge-background{fill:rgba(229,229,229,1);stroke:none}#chart-b205bf61-ae61-4916-8051-c77acbd2a1ec .bg-lines{stroke:transparent;stroke-width:2px}</style><script type="text/javascript">window.pygal = window.pygal || {};window.pygal.config = window.pygal.config || {};window.pygal.config['b205bf61-ae61-4916-8051-c77acbd2a1ec'] = {"allow_interruptions": false, "box_mode": "extremes", "classes": ["pygal-chart"], "css": ["file://style.css", "file://graph.css"], "defs": [], "disable_xml_declaration": false, "dots_size": 2.5, "dynamic_print_values": false, "explicit_size": false, "fill": false, "force_uri_protocol": "https", "formatter": null, "half_pie": false, "height": 600, "include_x_axis": false, "inner_radius": 0, "interpolate": null, "interpolation_parameters": {}, "interpolation_precision": 250, "inverse_y_axis": false, "js": ["//kozea.github.io/pygal.js/2.0.x/pygal-tooltips.min.js"], "legend_at_bottom": true, "legend_at_bottom_columns": 2, "legend_box_size": 12, "logarithmic": false, "margin": 20, "margin_bottom": 65, "margin_left": null, "margin_right": null, "margin_top": null, "max_scale": 16, "min_scale": 4, "missing_value_fill_truncation": "x", "no_data_text": "No data", "no_prefix": false, "order_min": null, "pretty_print": false, "print_labels": false, "print_values": false, "print_values_position": "center", "print_zeroes": true, "range": [0.0, 30.0], "rounded_bars": null, "secondary_range": null, "show_dots": true, "show_legend": true, "show_minor_x_labels": false, "show_minor_y_labels": true, "show_only_major_dots": true, "show_x_guides": true, "show_x_labels": true, "show_y_guides": true, "show_y_labels": true, "spacing": 10, "stack_from_top": false, "strict": false, "stroke": true, "stroke_style": null, "style": {"background": "transparent", "ci_colors": [], "colors": ["#F44336", "#3F51B5", "#009688", "#FFC107", "#FF5722", "#9C27B0", "#03A9F4", "#8BC34A", "#FF9800", "#E91E63", "#2196F3", "#4CAF50", "#FFEB3B", "#673AB7", "#00BCD4", "#CDDC39", "#9E9E9E", "#607D8B"], "font_family": "Helvetica, Arial, sans-serif", "foreground": "rgba(0, 0, 0, .87)", "foreground_strong": "rgba(0, 0, 0, 1)", "foreground_subtle": "rgba(0, 0, 0, .54)", "guide_stroke_dasharray": 1, "label_font_family": "Helvetica, Arial, sans-serif", "label_font_size": 15, "legend_font_family": "Helvetica, Arial, sans-serif", "legend_font_size": 15, "major_guide_stroke_dasharray": 1, "major_label_font_family": "Helvetica, Arial, sans-serif", "major_label_font_size": 15, "no_data_font_family": "Helvetica, Arial, sans-serif", "no_data_font_size": 64, "opacity": ".7", "opacity_hover": ".8", "plot_background": "white", "stroke_opacity": ".8", "stroke_opacity_hover": ".9", "title_font_family": "Helvetica, Arial, sans-serif", "title_font_size": 18, "tooltip_font_family": "Helvetica, Arial, sans-serif", "tooltip_font_size": 14, "transition": "150ms", "value_background": "rgba(229, 229, 229, 1)", "value_colors": [], "value_font_family": "Helvetica, Arial, sans-serif", "value_font_size": 15, "value_label_font_family": "Helvetica, Arial, sans-serif", "value_label_font_size": 15}, "title": "Percentage of Annotations for T \u00b15.0 BPM", "tooltip_border_radius": 0, "tooltip_fancy_mode": true, "truncate_label": null, "truncate_legend": -1, "width": 800, "x_label_rotation": 90, "x_labels": ["0.0", "1.0", "2.0", "3.0", "4.0", "5.0", "6.0", "7.0", "8.0", "9.0", "10.0", "11.0", "12.0", "13.0", "14.0", "15.0", "16.0", "17.0", "18.0", "19.0", "20.0", "21.0", "22.0", "23.0", "24.0", "25.0", "26.0", "27.0", "28.0", "29.0", "30.0", "31.0", "32.0", "33.0", "34.0", "35.0", "36.0", "37.0", "38.0", "39.0", "40.0", "41.0", "42.0", "43.0", "44.0", "45.0", "46.0", "47.0", "48.0", "49.0", "50.0", "51.0", "52.0", "53.0", "54.0", "55.0", "56.0", "57.0", "58.0", "59.0", "60.0", "61.0", "62.0", "63.0", "64.0", "65.0", "66.0", "67.0", "68.0", "69.0", "70.0", "71.0", "72.0", "73.0", "74.0", "75.0", "76.0", "77.0", "78.0", "79.0", "80.0", "81.0", "82.0", "83.0", "84.0", "85.0", "86.0", "87.0", "88.0", "89.0", "90.0", "91.0", "92.0", "93.0", "94.0", "95.0", "96.0", "97.0", "98.0", "99.0", "100.0", "101.0", "102.0", "103.0", "104.0", "105.0", "106.0", "107.0", "108.0", "109.0", "110.0", "111.0", "112.0", "113.0", "114.0", "115.0", "116.0", "117.0", "118.0", "119.0", "120.0", "121.0", "122.0", "123.0", "124.0", "125.0", "126.0", "127.0", "128.0", "129.0", "130.0", "131.0", "132.0", "133.0", "134.0", "135.0", "136.0", "137.0", "138.0", "139.0", "140.0", "141.0", "142.0", "143.0", "144.0", "145.0", "146.0", "147.0", "148.0", "149.0", "150.0", "151.0", "152.0", "153.0", "154.0", "155.0", "156.0", "157.0", "158.0", "159.0", "160.0", "161.0", "162.0", "163.0", "164.0", "165.0", "166.0", "167.0", "168.0", "169.0", "170.0", "171.0", "172.0", "173.0", "174.0", "175.0", "176.0", "177.0", "178.0", "179.0", "180.0", "181.0", "182.0", "183.0", "184.0", "185.0", "186.0", "187.0", "188.0", "189.0", "190.0", "191.0", "192.0", "193.0", "194.0", "195.0", "196.0", "197.0", "198.0", "199.0", "200.0", "201.0", "202.0", "203.0", "204.0", "205.0", "206.0", "207.0", "208.0", "209.0", "210.0", "211.0", "212.0", "213.0", "214.0", "215.0", "216.0", "217.0", "218.0", "219.0", "220.0", "221.0", "222.0", "223.0", "224.0", "225.0", "226.0", "227.0", "228.0", "229.0", "230.0", "231.0", "232.0", "233.0", "234.0", "235.0", "236.0", "237.0", "238.0", "239.0", "240.0", "241.0", "242.0", "243.0", "244.0", "245.0", "246.0", "247.0", "248.0", "249.0", "250.0", "251.0", "252.0", "253.0", "254.0", "255.0", "256.0", "257.0", "258.0", "259.0", "260.0", "261.0", "262.0", "263.0", "264.0", "265.0", "266.0", "267.0", "268.0", "269.0", "270.0", "271.0", "272.0", "273.0", "274.0", "275.0", "276.0", "277.0", "278.0", "279.0", "280.0", "281.0", "282.0", "283.0", "284.0", "285.0", "286.0", "287.0", "288.0", "289.0", "290.0", "291.0", "292.0", "293.0", "294.0", "295.0", "296.0", "297.0", "298.0", "299.0", "300.0"], "x_labels_major": null, "x_labels_major_count": 11, "x_labels_major_every": null, "x_title": "T (BPM)", "xrange": null, "y_label_rotation": 0, "y_labels": null, "y_labels_major": null, "y_labels_major_count": null, "y_labels_major_every": null, "y_title": "Values (%)", "zero": 0, "legends": ["boeck2015/tempodetector2016_default", "davies2009/mirex_qm_tempotracker", "percival2014/stem", "schreiber2014/default", "schreiber2017/ismir2017", "schreiber2017/mirex2017"]}</script><script type="text/javascript" xlink:href="https://kozea.github.io/pygal.js/2.0.x/pygal-tooltips.min.js"/></defs><title>Percentage of Annotations for T ±5.0 BPM</title><g class="graph line-graph vertical"><rect class="background" height="600" width="800" x="0" y="0"/><g class="plot" transform="translate(94, 48)"><rect class="background" height="334.0" width="686.0" x="0" y="0"/><g class="axis y always_show"><g class="guides"><path class="major line" d="M0.000000 327.576923 h686.000000"/><text class="major" x="-5" y="332.8269230769231">0.0</text><title>0.0</title></g><g class="guides"><path class="guide line" d="M0.000000 306.166667 h686.000000"/><text class="" x="-5" y="311.4166666666667">2.0</text><title>2.0</title></g><g class="guides"><path class="guide line" d="M0.000000 284.756410 h686.000000"/><text class="" x="-5" y="290.0064102564103">4.0</text><title>4.0</title></g><g class="guides"><path class="guide line" d="M0.000000 263.346154 h686.000000"/><text class="" x="-5" y="268.59615384615387">6.0</text><title>6.0</title></g><g class="guides"><path class="guide line" d="M0.000000 241.935897 h686.000000"/><text class="" x="-5" y="247.18589743589746">8.0</text><title>8.0</title></g><g class="guides"><path class="major guide line" d="M0.000000 220.525641 h686.000000"/><text class="major" x="-5" y="225.77564102564105">10.0</text><title>10.0</title></g><g class="guides"><path class="guide line" d="M0.000000 199.115385 h686.000000"/><text class="" x="-5" y="204.36538461538464">12.0</text><title>12.0</title></g><g class="guides"><path class="guide line" d="M0.000000 177.705128 h686.000000"/><text class="" x="-5" y="182.95512820512823">14.0</text><title>14.0</title></g><g class="guides"><path class="guide line" d="M0.000000 156.294872 h686.000000"/><text class="" x="-5" y="161.5448717948718">16.0</text><title>16.0</title></g><g class="guides"><path class="guide line" d="M0.000000 134.884615 h686.000000"/><text class="" x="-5" y="140.1346153846154">18.0</text><title>18.0</title></g><g class="guides"><path class="major guide line" d="M0.000000 113.474359 h686.000000"/><text class="major" x="-5" y="118.72435897435898">20.0</text><title>20.0</title></g><g class="guides"><path class="guide line" d="M0.000000 92.064103 h686.000000"/><text class="" x="-5" y="97.31410256410257">22.0</text><title>22.0</title></g><g class="guides"><path class="guide line" d="M0.000000 70.653846 h686.000000"/><text class="" x="-5" y="75.90384615384619">24.0</text><title>24.0</title></g><g class="guides"><path class="guide line" d="M0.000000 49.243590 h686.000000"/><text class="" x="-5" y="54.49358974358978">26.0</text><title>26.0</title></g><g class="guides"><path class="guide line" d="M0.000000 27.833333 h686.000000"/><text class="" x="-5" y="33.08333333333337">28.0</text><title>28.0</title></g><g class="guides"><path class="major guide line" d="M0.000000 6.423077 h686.000000"/><text class="major" x="-5" y="11.673076923076962">30.0</text><title>30.0</title></g></g><g class="axis x always_show"><g class="guides"><path class="major line" d="M13.192308 0.000000 v334.000000"/><text class="major" x="13.192307692307692" y="351.5" transform="rotate(90 13.192308 351.500000)">0.0</text></g><g class="guides"><path class="major guide line" d="M79.153846 0.000000 v334.000000"/><text class="major" x="79.15384615384616" y="351.5" transform="rotate(90 79.153846 351.500000)">30.0</text></g><g class="guides"><path class="major guide line" d="M145.115385 0.000000 v334.000000"/><text class="major" x="145.11538461538458" y="351.5" transform="rotate(90 145.115385 351.500000)">60.0</text></g><g class="guides"><path class="major guide line" d="M211.076923 0.000000 v334.000000"/><text class="major" x="211.07692307692307" y="351.5" transform="rotate(90 211.076923 351.500000)">90.0</text></g><g class="guides"><path class="major guide line" d="M277.038462 0.000000 v334.000000"/><text class="major" x="277.03846153846155" y="351.5" transform="rotate(90 277.038462 351.500000)">120.0</text></g><g class="guides"><path class="major guide line" d="M343.000000 0.000000 v334.000000"/><text class="major" x="343.0" y="351.5" transform="rotate(90 343.000000 351.500000)">150.0</text></g><g class="guides"><path class="major guide line" d="M408.961538 0.000000 v334.000000"/><text class="major" x="408.96153846153845" y="351.5" transform="rotate(90 408.961538 351.500000)">180.0</text></g><g class="guides"><path class="major guide line" d="M474.923077 0.000000 v334.000000"/><text class="major" x="474.92307692307685" y="351.5" transform="rotate(90 474.923077 351.500000)">210.0</text></g><g class="guides"><path class="major guide line" d="M540.884615 0.000000 v334.000000"/><text class="major" x="540.8846153846155" y="351.5" transform="rotate(90 540.884615 351.500000)">240.0</text></g><g class="guides"><path class="major guide line" d="M606.846154 0.000000 v334.000000"/><text class="major" x="606.8461538461538" y="351.5" transform="rotate(90 606.846154 351.500000)">270.0</text></g><g class="guides"><path class="major guide line" d="M672.807692 0.000000 v334.000000"/><text class="major" x="672.8076923076923" y="351.5" transform="rotate(90 672.807692 351.500000)">300.0</text></g></g><g class="series serie-0 color-0"><path class="line reactive nofill" d="M13.192308 327.576923 L15.391026 327.576923 17.589744 327.576923 19.788462 327.576923 21.987179 327.576923 24.185897 327.576923 26.384615 327.576923 28.583333 327.576923 30.782051 327.576923 32.980769 327.576923 35.179487 327.576923 37.378205 327.576923 39.576923 327.576923 41.775641 327.576923 43.974359 327.576923 46.173077 327.576923 48.371795 327.576923 50.570513 327.576923 52.769231 327.576923 54.967949 327.576923 57.166667 327.576923 59.365385 327.576923 61.564103 327.576923 63.762821 327.576923 65.961538 327.576923 68.160256 327.576923 70.358974 327.576923 72.557692 327.576923 74.756410 327.576923 76.955128 327.576923 79.153846 327.576923 81.352564 327.576923 83.551282 327.576923 85.750000 327.576923 87.948718 327.576923 90.147436 327.405538 92.346154 326.377229 94.544872 325.477458 96.743590 324.791919 98.942308 323.849302 101.141026 322.735300 103.339744 321.192836 105.538462 320.164527 107.737179 318.964833 109.935897 318.407832 112.134615 316.779675 114.333333 317.422369 116.532051 317.550907 118.730769 317.165291 120.929487 317.036753 123.128205 317.293830 125.326923 317.122445 127.525641 316.908214 129.724359 316.179828 131.923077 315.794212 134.121795 309.238741 136.320513 310.009973 138.519231 308.039047 140.717949 307.224968 142.916667 304.482810 145.115385 304.182887 147.314103 300.412419 149.512821 299.341264 151.711538 297.670261 153.910256 293.085716 156.108974 283.445316 158.307692 286.915860 160.506410 286.101782 162.705128 282.845469 164.903846 282.588391 167.102564 269.948756 169.301282 270.077295 171.500000 267.292291 173.698718 262.236437 175.897436 262.193591 178.096154 255.252503 180.294872 258.551662 182.493590 257.480506 184.692308 255.680965 186.891026 253.367269 189.089744 241.241789 191.288462 246.554720 193.487179 240.599095 195.685897 248.739877 197.884615 243.384100 200.083333 213.477438 202.282051 221.146911 204.480769 225.774303 206.679487 216.262442 208.878205 207.093351 211.076923 223.760531 213.275641 212.363436 215.474359 208.592969 217.673077 208.592969 219.871795 205.422348 222.070513 204.436885 224.269231 214.548593 226.467949 201.523342 228.666667 217.976291 230.865385 221.875297 233.064103 221.875297 235.262821 227.016843 237.461538 241.841636 239.660256 229.373386 241.858974 243.983947 244.057692 222.775068 246.256410 253.667193 248.455128 252.167575 250.653846 252.167575 252.852564 249.082647 255.051282 249.082647 257.250000 244.455255 259.448718 244.455255 261.647436 240.641942 263.846154 240.641942 266.044872 201.737573 268.243590 201.737573 270.442308 216.262442 272.641026 196.638873 274.839744 211.377973 277.038462 178.129306 279.237179 198.309876 281.435897 198.309876 283.634615 184.684778 285.833333 184.684778 288.032051 184.684778 290.230769 210.221125 292.429487 210.221125 294.628205 229.844694 296.826923 206.364965 299.025641 206.364965 301.224359 239.613632 303.423077 213.734515 305.621795 243.641177 307.820513 243.641177 310.019231 204.008423 312.217949 238.585323 314.416667 238.585323 316.615385 217.076520 318.814103 240.556249 321.012821 240.556249 323.211538 240.556249 325.410256 243.041330 327.608974 243.041330 329.807692 243.041330 332.006410 255.338195 334.205128 255.338195 336.403846 255.338195 338.602564 276.846998 340.801282 256.966352 343.000000 256.966352 345.198718 256.966352 347.397436 280.360388 349.596154 255.809504 351.794872 255.809504 353.993590 255.809504 356.192308 283.145392 358.391026 283.145392 360.589744 261.079589 362.788462 280.960235 364.987179 280.960235 367.185897 280.960235 369.384615 259.237201 371.583333 283.788086 373.782051 283.788086 375.980769 283.788086 378.179487 283.788086 380.378205 261.293820 382.576923 283.359623 384.775641 283.359623 386.974359 283.359623 389.173077 283.359623 391.371795 287.601399 393.570513 287.601399 395.769231 287.601399 397.967949 287.601399 400.166667 287.601399 402.365385 288.715401 404.564103 288.715401 406.762821 288.715401 408.961538 288.715401 411.160256 288.715401 413.358974 306.196659 415.557692 290.300711 417.756410 290.300711 419.955128 290.300711 422.153846 290.300711 424.352564 311.680975 426.551282 311.680975 428.750000 300.026803 430.948718 300.026803 433.147436 300.026803 435.346154 300.026803 437.544872 315.922751 439.743590 315.922751 441.942308 304.525656 444.141026 304.525656 446.339744 304.525656 448.538462 304.525656 450.737179 316.179828 452.935897 316.179828 455.134615 316.179828 457.333333 307.610584 459.532051 307.610584 461.730769 307.610584 463.929487 307.610584 466.128205 319.007679 468.326923 319.007679 470.525641 319.007679 472.724359 319.007679 474.923077 311.123974 477.121795 311.123974 479.320513 319.693218 481.519231 319.693218 483.717949 319.693218 485.916667 319.693218 488.115385 319.693218 490.314103 319.693218 492.512821 312.537900 494.711538 312.537900 496.910256 320.421604 499.108974 320.421604 501.307692 320.421604 503.506410 320.421604 505.705128 320.421604 507.903846 320.421604 510.102564 308.381816 512.301282 308.381816 514.500000 315.537135 516.698718 315.537135 518.897436 315.537135 521.096154 315.537135 523.294872 315.537135 525.493590 315.537135 527.692308 315.537135 529.891026 305.639658 532.089744 317.679446 534.288462 317.679446 536.487179 317.679446 538.685897 317.679446 540.884615 317.679446 543.083333 317.679446 545.282051 317.679446 547.480769 317.679446 549.679487 317.679446 551.878205 317.636600 554.076923 327.534077 556.275641 327.534077 558.474359 327.534077 560.673077 327.534077 562.871795 327.534077 565.070513 327.534077 567.269231 327.534077 569.467949 327.534077 571.666667 327.534077 573.865385 327.534077 576.064103 327.576923 578.262821 327.576923 580.461538 327.576923 582.660256 327.576923 584.858974 327.576923 587.057692 327.576923 589.256410 327.576923 591.455128 327.576923 593.653846 327.576923 595.852564 327.576923 598.051282 327.576923 600.250000 327.576923 602.448718 327.576923 604.647436 327.576923 606.846154 327.576923 609.044872 327.576923 611.243590 327.576923 613.442308 327.576923 615.641026 327.576923 617.839744 327.576923 620.038462 327.576923 622.237179 327.576923 624.435897 327.576923 626.634615 327.576923 628.833333 327.576923 631.032051 327.576923 633.230769 327.576923 635.429487 327.576923 637.628205 327.576923 639.826923 327.576923 642.025641 327.576923 644.224359 327.576923 646.423077 327.576923 648.621795 327.576923 650.820513 327.576923 653.019231 327.576923 655.217949 327.576923 657.416667 327.576923 659.615385 327.576923 661.814103 327.576923 664.012821 327.576923 666.211538 327.576923 668.410256 327.576923 670.608974 327.576923 672.807692 327.576923"/></g><g class="series serie-1 color-1"><path class="line reactive nofill" d="M13.192308 327.576923 L15.391026 327.576923 17.589744 327.576923 19.788462 327.576923 21.987179 327.576923 24.185897 327.576923 26.384615 327.576923 28.583333 327.576923 30.782051 327.576923 32.980769 327.576923 35.179487 327.576923 37.378205 327.576923 39.576923 327.576923 41.775641 327.576923 43.974359 327.576923 46.173077 327.576923 48.371795 327.576923 50.570513 327.576923 52.769231 327.576923 54.967949 327.576923 57.166667 327.576923 59.365385 327.576923 61.564103 327.576923 63.762821 327.576923 65.961538 327.576923 68.160256 327.576923 70.358974 327.576923 72.557692 327.576923 74.756410 327.576923 76.955128 327.576923 79.153846 327.576923 81.352564 327.576923 83.551282 327.576923 85.750000 327.576923 87.948718 327.576923 90.147436 327.576923 92.346154 327.576923 94.544872 327.576923 96.743590 327.576923 98.942308 327.576923 101.141026 327.576923 103.339744 327.576923 105.538462 327.576923 107.737179 327.576923 109.935897 327.576923 112.134615 327.576923 114.333333 327.576923 116.532051 327.576923 118.730769 327.576923 120.929487 327.576923 123.128205 327.576923 125.326923 327.576923 127.525641 327.576923 129.724359 327.576923 131.923077 327.534010 134.121795 327.534010 136.320513 326.976138 138.519231 326.890312 140.717949 326.761572 142.916667 326.461180 145.115385 326.246614 147.314103 325.560002 149.512821 325.130870 151.711538 324.015127 153.910256 323.543082 156.108974 322.856470 158.307692 319.766720 160.506410 318.779716 162.705128 317.277754 164.903846 316.419490 167.102564 315.260833 169.301282 313.458479 171.500000 313.887611 173.698718 313.372652 175.897436 310.583294 178.096154 309.338811 180.294872 302.129392 182.493590 303.202222 184.692308 300.069558 186.891026 294.018796 189.089744 287.839295 191.288462 290.328261 193.487179 275.995250 195.685897 265.438602 197.884615 268.742919 200.083333 256.770134 202.282051 232.223781 204.480769 232.223781 206.679487 218.148249 208.878205 202.484929 211.076923 210.037654 213.275641 183.560206 215.474359 197.893217 217.673077 187.164915 219.871795 187.164915 222.070513 179.655104 224.269231 215.058499 226.467949 174.290954 228.666667 193.129851 230.865385 197.120779 233.064103 197.120779 235.262821 199.695571 237.461538 199.695571 239.660256 199.781398 241.858974 199.781398 244.057692 200.167616 246.256410 200.167616 248.455128 240.935161 250.653846 205.403027 252.852564 224.284838 255.051282 198.494001 257.250000 222.396657 259.448718 222.396657 261.647436 213.642363 263.846154 213.642363 266.044872 234.669834 268.243590 180.942500 270.442308 180.942500 272.641026 216.474634 274.839744 164.678396 277.038462 190.469232 279.237179 190.469232 281.435897 144.895408 283.634615 176.479527 285.833333 176.479527 288.032051 133.909627 290.230769 187.636960 292.429487 187.636960 294.628205 138.372601 296.826923 190.168840 299.025641 190.168840 301.224359 154.379226 303.423077 199.953050 305.621795 199.953050 307.820513 199.953050 310.019231 208.707344 312.217949 208.707344 314.416667 208.707344 316.615385 257.971704 318.814103 208.664431 321.012821 208.664431 323.211538 244.454044 325.410256 244.454044 327.608974 210.295133 329.807692 210.295133 332.006410 244.110739 334.205128 244.110739 336.403846 204.888069 338.602564 204.888069 340.801282 254.195342 343.000000 254.195342 345.198718 254.195342 347.397436 223.297834 349.596154 257.456746 351.794872 257.456746 353.993590 257.456746 356.192308 257.456746 358.391026 259.387840 360.589744 259.387840 362.788462 259.387840 364.987179 259.387840 367.185897 259.387840 369.384615 264.408685 371.583333 264.408685 373.782051 264.408685 375.980769 264.408685 378.179487 264.408685 380.378205 301.700260 382.576923 278.097997 384.775641 278.097997 386.974359 278.097997 389.173077 278.097997 391.371795 303.974660 393.570513 303.974660 395.769231 284.792457 397.967949 284.792457 400.166667 284.792457 402.365385 284.792457 404.564103 308.394720 406.762821 308.394720 408.961538 295.520759 411.160256 295.520759 413.358974 295.520759 415.557692 295.520759 417.756410 314.702961 419.955128 314.702961 422.153846 314.702961 424.352564 306.377800 426.551282 306.377800 428.750000 306.377800 430.948718 319.251761 433.147436 319.251761 435.346154 319.251761 437.544872 319.251761 439.743590 313.715958 441.942308 313.715958 444.141026 313.715958 446.339744 322.041120 448.538462 322.041120 450.737179 322.041120 452.935897 322.041120 455.134615 322.041120 457.333333 318.736803 459.532051 318.736803 461.730769 324.272606 463.929487 324.272606 466.128205 324.272606 468.326923 324.272606 470.525641 324.272606 472.724359 324.272606 474.923077 324.272606 477.121795 322.084033 479.320513 325.388350 481.519231 325.388350 483.717949 325.388350 485.916667 325.388350 488.115385 325.388350 490.314103 325.388350 492.512821 325.388350 494.711538 325.388350 496.910256 323.671821 499.108974 325.860395 501.307692 325.860395 503.506410 325.860395 505.705128 325.860395 507.903846 325.860395 510.102564 325.860395 512.301282 325.860395 514.500000 325.860395 516.698718 325.860395 518.897436 326.547006 521.096154 326.547006 523.294872 326.547006 525.493590 326.547006 527.692308 326.547006 529.891026 326.547006 532.089744 326.547006 534.288462 326.547006 536.487179 326.547006 538.685897 326.547006 540.884615 327.576923 543.083333 327.576923 545.282051 326.375353 547.480769 326.375353 549.679487 326.375353 551.878205 326.375353 554.076923 326.375353 556.275641 326.375353 558.474359 326.375353 560.673077 326.375353 562.871795 326.375353 565.070513 326.375353 567.269231 327.576923 569.467949 327.576923 571.666667 327.362357 573.865385 327.362357 576.064103 327.362357 578.262821 327.362357 580.461538 327.362357 582.660256 327.362357 584.858974 327.362357 587.057692 327.362357 589.256410 327.362357 591.455128 327.362357 593.653846 327.576923 595.852564 327.576923 598.051282 327.576923 600.250000 327.576923 602.448718 327.576923 604.647436 327.576923 606.846154 327.576923 609.044872 327.576923 611.243590 327.576923 613.442308 327.576923 615.641026 327.576923 617.839744 327.576923 620.038462 327.576923 622.237179 327.576923 624.435897 327.576923 626.634615 327.576923 628.833333 327.576923 631.032051 327.576923 633.230769 327.576923 635.429487 327.576923 637.628205 327.576923 639.826923 327.576923 642.025641 327.576923 644.224359 327.576923 646.423077 327.576923 648.621795 327.576923 650.820513 327.576923 653.019231 327.576923 655.217949 327.576923 657.416667 327.576923 659.615385 327.576923 661.814103 327.576923 664.012821 327.576923 666.211538 327.576923 668.410256 327.576923 670.608974 327.576923 672.807692 327.576923"/></g><g class="series serie-2 color-2"><path class="line reactive nofill" d="M13.192308 327.576923 L15.391026 327.576923 17.589744 327.576923 19.788462 327.576923 21.987179 327.576923 24.185897 327.576923 26.384615 327.576923 28.583333 327.576923 30.782051 327.576923 32.980769 327.576923 35.179487 327.576923 37.378205 327.576923 39.576923 327.576923 41.775641 327.576923 43.974359 327.576923 46.173077 327.576923 48.371795 327.576923 50.570513 327.576923 52.769231 327.576923 54.967949 327.576923 57.166667 327.576923 59.365385 327.576923 61.564103 327.576923 63.762821 327.576923 65.961538 327.576923 68.160256 327.576923 70.358974 327.576923 72.557692 327.576923 74.756410 327.576923 76.955128 327.576923 79.153846 327.576923 81.352564 327.576923 83.551282 327.576923 85.750000 327.576923 87.948718 327.576923 90.147436 327.576923 92.346154 327.576923 94.544872 327.576923 96.743590 327.576923 98.942308 327.576923 101.141026 327.576923 103.339744 327.576923 105.538462 327.576923 107.737179 327.576923 109.935897 327.576923 112.134615 327.576923 114.333333 325.563151 116.532051 324.234918 118.730769 322.735300 120.929487 320.635835 123.128205 318.964833 125.326923 317.979370 127.525641 315.879905 129.724359 314.208902 131.923077 312.323669 134.121795 308.938817 136.320513 306.667967 138.519231 305.468273 140.717949 303.325962 142.916667 300.369573 145.115385 298.955648 147.314103 294.499641 149.512821 290.814866 151.711538 286.144628 153.910256 282.545545 156.108974 279.374925 158.307692 264.850056 160.506410 259.280048 162.705128 250.325187 164.903846 244.626640 167.102564 227.188228 169.301282 219.690140 171.500000 218.019137 173.698718 210.906665 175.897436 199.038261 178.096154 191.240249 180.294872 177.786536 182.493590 172.773528 184.692308 166.817904 186.891026 163.004590 189.089744 164.932670 191.288462 152.250189 193.487179 136.311395 195.685897 130.184385 197.884615 138.068090 200.083333 110.732201 202.282051 131.041309 204.480769 122.686296 206.679487 131.426925 208.878205 119.558522 211.076923 119.772753 213.275641 134.254776 215.474359 142.652635 217.673077 143.723791 219.871795 142.095634 222.070513 160.733740 224.269231 158.591429 226.467949 171.145372 228.666667 173.330529 230.865385 190.897480 233.064103 197.924260 235.262821 205.679426 237.461538 211.763589 239.660256 220.247141 241.858974 224.617455 244.057692 228.730692 246.256410 238.156861 248.455128 238.585323 250.653846 236.314473 252.852564 238.756708 255.051282 238.371092 257.250000 236.185935 259.448718 234.257855 261.647436 238.456784 263.846154 235.114779 266.044872 227.016843 268.243590 195.353486 270.442308 195.267794 272.641026 199.895186 274.839744 194.153792 277.038462 188.026783 279.237179 186.312934 281.435897 182.713851 283.634615 174.273146 285.833333 177.915075 288.032051 199.166800 290.230769 211.849281 292.429487 215.148440 294.628205 210.006894 296.826923 216.433827 299.025641 229.501924 301.224359 221.575373 303.423077 231.344312 305.621795 239.270863 307.820513 241.713097 310.019231 241.627405 312.217949 246.554720 314.416667 248.097184 316.615385 253.667193 318.814103 255.680965 321.012821 256.366505 323.211538 267.120906 325.410256 268.449139 327.608974 271.619759 329.807692 272.305299 332.006410 272.176760 334.205128 288.672555 336.403846 290.257865 338.602564 294.713872 340.801282 296.813337 343.000000 299.512649 345.198718 302.854654 347.397436 305.082657 349.596154 307.267815 351.794872 310.395589 353.993590 316.051290 356.192308 317.208138 358.391026 319.307603 360.589744 319.564680 362.788462 321.192836 364.987179 322.563915 367.185897 323.677917 369.384615 324.791919 371.583333 325.777382 373.782051 325.948767 375.980769 326.291536 378.179487 327.362692 380.378205 327.405538 382.576923 327.534077 384.775641 327.534077 386.974359 327.576923 389.173077 327.576923 391.371795 327.576923 393.570513 327.576923 395.769231 327.576923 397.967949 327.576923 400.166667 327.576923 402.365385 327.576923 404.564103 327.576923 406.762821 327.576923 408.961538 327.576923 411.160256 327.576923 413.358974 327.576923 415.557692 327.576923 417.756410 327.576923 419.955128 327.576923 422.153846 327.576923 424.352564 327.576923 426.551282 327.576923 428.750000 327.576923 430.948718 327.576923 433.147436 327.576923 435.346154 327.576923 437.544872 327.576923 439.743590 327.576923 441.942308 327.576923 444.141026 327.576923 446.339744 327.576923 448.538462 327.576923 450.737179 327.576923 452.935897 327.576923 455.134615 327.576923 457.333333 327.576923 459.532051 327.576923 461.730769 327.576923 463.929487 327.576923 466.128205 327.576923 468.326923 327.576923 470.525641 327.576923 472.724359 327.576923 474.923077 327.576923 477.121795 327.576923 479.320513 327.576923 481.519231 327.576923 483.717949 327.576923 485.916667 327.576923 488.115385 327.576923 490.314103 327.576923 492.512821 327.576923 494.711538 327.576923 496.910256 327.576923 499.108974 327.576923 501.307692 327.576923 503.506410 327.576923 505.705128 327.576923 507.903846 327.576923 510.102564 327.576923 512.301282 327.576923 514.500000 327.576923 516.698718 327.576923 518.897436 327.576923 521.096154 327.576923 523.294872 327.576923 525.493590 327.576923 527.692308 327.576923 529.891026 327.576923 532.089744 327.576923 534.288462 327.576923 536.487179 327.576923 538.685897 327.576923 540.884615 327.576923 543.083333 327.576923 545.282051 327.576923 547.480769 327.576923 549.679487 327.576923 551.878205 327.576923 554.076923 327.576923 556.275641 327.576923 558.474359 327.576923 560.673077 327.576923 562.871795 327.576923 565.070513 327.576923 567.269231 327.576923 569.467949 327.576923 571.666667 327.576923 573.865385 327.576923 576.064103 327.576923 578.262821 327.576923 580.461538 327.576923 582.660256 327.576923 584.858974 327.576923 587.057692 327.576923 589.256410 327.576923 591.455128 327.576923 593.653846 327.576923 595.852564 327.576923 598.051282 327.576923 600.250000 327.576923 602.448718 327.576923 604.647436 327.576923 606.846154 327.576923 609.044872 327.576923 611.243590 327.576923 613.442308 327.576923 615.641026 327.576923 617.839744 327.576923 620.038462 327.576923 622.237179 327.576923 624.435897 327.576923 626.634615 327.576923 628.833333 327.576923 631.032051 327.576923 633.230769 327.576923 635.429487 327.576923 637.628205 327.576923 639.826923 327.576923 642.025641 327.576923 644.224359 327.576923 646.423077 327.576923 648.621795 327.576923 650.820513 327.576923 653.019231 327.576923 655.217949 327.576923 657.416667 327.576923 659.615385 327.576923 661.814103 327.576923 664.012821 327.576923 666.211538 327.576923 668.410256 327.576923 670.608974 327.576923 672.807692 327.576923"/></g><g class="series serie-3 color-3"><path class="line reactive nofill" d="M13.192308 327.576923 L15.391026 327.576923 17.589744 327.576923 19.788462 327.576923 21.987179 327.576923 24.185897 327.576923 26.384615 327.576923 28.583333 327.576923 30.782051 327.576923 32.980769 327.576923 35.179487 327.576923 37.378205 327.576923 39.576923 327.576923 41.775641 327.576923 43.974359 327.576923 46.173077 327.576923 48.371795 327.576923 50.570513 327.576923 52.769231 327.576923 54.967949 327.576923 57.166667 327.576923 59.365385 327.576923 61.564103 327.576923 63.762821 327.576923 65.961538 327.576923 68.160256 327.576923 70.358974 327.576923 72.557692 327.576923 74.756410 327.576923 76.955128 327.576923 79.153846 327.576923 81.352564 327.576923 83.551282 327.576923 85.750000 327.576923 87.948718 327.576923 90.147436 327.576923 92.346154 327.534018 94.544872 327.491114 96.743590 327.491114 98.942308 327.491114 101.141026 327.448209 103.339744 327.405305 105.538462 327.405305 107.737179 327.319495 109.935897 327.276591 112.134615 326.933354 114.333333 326.976259 116.532051 326.847545 118.730769 326.418499 120.929487 325.989453 123.128205 325.431693 125.326923 324.359078 127.525641 323.887127 129.724359 322.299657 131.923077 320.840900 134.121795 317.665959 136.320513 313.418403 138.519231 311.401887 140.717949 308.484373 142.916667 305.566860 145.115385 300.976067 147.314103 297.844031 149.512821 293.553571 151.711538 289.220205 153.910256 284.071653 156.108974 277.035297 158.307692 269.655705 160.506410 263.434537 162.705128 256.913037 164.903846 250.477346 167.102564 241.724807 169.301282 233.186790 171.500000 227.909524 173.698718 220.015076 175.897436 214.952333 178.096154 205.170083 180.294872 193.070984 182.493590 190.282184 184.692308 180.027984 186.891026 177.282089 189.089744 175.351382 191.288462 162.308381 193.487179 158.747299 195.685897 158.575681 197.884615 153.941983 200.083333 151.067375 202.282051 149.437000 204.480769 143.902305 206.679487 148.836335 208.878205 142.271930 211.076923 142.271930 213.275641 152.268704 215.474359 151.281898 217.673077 153.169700 219.871795 157.760493 222.070513 152.139990 224.269231 163.509710 226.467949 169.902497 228.666667 175.394286 230.865385 185.991724 233.064103 189.252474 235.262821 195.816879 237.461538 202.295474 239.660256 204.397800 241.858974 208.516642 244.057692 226.107530 246.256410 222.503543 248.455128 225.592675 250.653846 226.879813 252.852564 225.421057 255.051282 228.295665 257.250000 225.034915 259.448718 224.348441 261.647436 226.279149 263.846154 225.506866 266.044872 203.410994 268.243590 190.325089 270.442308 187.235957 272.641026 186.077533 274.839744 186.034628 277.038462 178.225990 279.237179 179.041178 281.435897 177.110470 283.634615 172.562582 285.833333 171.232539 288.032051 186.721102 290.230769 206.886267 292.429487 210.533158 294.628205 211.777392 296.826923 214.437477 299.025641 225.206534 301.224359 225.978816 303.423077 231.170274 305.621795 236.662063 307.820513 241.467379 310.019231 246.015267 312.217949 242.068044 314.416667 244.771034 316.615385 248.117593 318.814103 250.005396 321.012821 252.408054 323.211538 258.500508 325.410256 260.946070 327.608974 264.550057 329.807692 266.652383 332.006410 272.701932 334.205128 282.183850 336.403846 283.642607 338.602564 286.216883 340.801282 289.520538 343.000000 292.009005 345.198718 294.797804 347.397436 296.471084 349.596154 298.444696 351.794872 300.032166 353.993590 305.395242 356.192308 307.068521 358.391026 308.784706 360.589744 310.672508 362.788462 312.431597 364.987179 313.332594 367.185897 313.933258 369.384615 314.791351 371.583333 316.164298 373.782051 317.322722 375.980769 319.038907 378.179487 321.870610 380.378205 322.385466 382.576923 322.857416 384.775641 323.157749 386.974359 324.101650 389.173077 325.431693 391.371795 325.860739 393.570513 326.032357 395.769231 326.118166 397.967949 326.203976 400.166667 326.675926 402.365385 326.976259 404.564103 326.976259 406.762821 327.062068 408.961538 327.104972 411.160256 327.233686 413.358974 327.362400 415.557692 327.448209 417.756410 327.448209 419.955128 327.534018 422.153846 327.534018 424.352564 327.534018 426.551282 327.576923 428.750000 327.576923 430.948718 327.576923 433.147436 327.576923 435.346154 327.576923 437.544872 327.576923 439.743590 327.576923 441.942308 327.576923 444.141026 327.576923 446.339744 327.576923 448.538462 327.576923 450.737179 327.576923 452.935897 327.576923 455.134615 327.576923 457.333333 327.576923 459.532051 327.576923 461.730769 327.576923 463.929487 327.576923 466.128205 327.576923 468.326923 327.576923 470.525641 327.576923 472.724359 327.576923 474.923077 327.576923 477.121795 327.576923 479.320513 327.576923 481.519231 327.576923 483.717949 327.576923 485.916667 327.576923 488.115385 327.576923 490.314103 327.576923 492.512821 327.576923 494.711538 327.576923 496.910256 327.576923 499.108974 327.576923 501.307692 327.576923 503.506410 327.576923 505.705128 327.576923 507.903846 327.576923 510.102564 327.576923 512.301282 327.576923 514.500000 327.576923 516.698718 327.576923 518.897436 327.576923 521.096154 327.576923 523.294872 327.576923 525.493590 327.576923 527.692308 327.576923 529.891026 327.576923 532.089744 327.576923 534.288462 327.576923 536.487179 327.576923 538.685897 327.576923 540.884615 327.576923 543.083333 327.576923 545.282051 327.576923 547.480769 327.576923 549.679487 327.576923 551.878205 327.576923 554.076923 327.576923 556.275641 327.576923 558.474359 327.576923 560.673077 327.576923 562.871795 327.576923 565.070513 327.576923 567.269231 327.576923 569.467949 327.576923 571.666667 327.576923 573.865385 327.576923 576.064103 327.576923 578.262821 327.576923 580.461538 327.576923 582.660256 327.576923 584.858974 327.576923 587.057692 327.576923 589.256410 327.576923 591.455128 327.576923 593.653846 327.576923 595.852564 327.576923 598.051282 327.576923 600.250000 327.576923 602.448718 327.576923 604.647436 327.576923 606.846154 327.576923 609.044872 327.576923 611.243590 327.576923 613.442308 327.576923 615.641026 327.576923 617.839744 327.576923 620.038462 327.576923 622.237179 327.576923 624.435897 327.576923 626.634615 327.576923 628.833333 327.576923 631.032051 327.576923 633.230769 327.576923 635.429487 327.576923 637.628205 327.576923 639.826923 327.576923 642.025641 327.576923 644.224359 327.576923 646.423077 327.576923 648.621795 327.576923 650.820513 327.576923 653.019231 327.576923 655.217949 327.576923 657.416667 327.576923 659.615385 327.576923 661.814103 327.576923 664.012821 327.576923 666.211538 327.576923 668.410256 327.576923 670.608974 327.576923 672.807692 327.576923"/></g><g class="series serie-4 color-4"><path class="line reactive nofill" d="M13.192308 327.576923 L15.391026 327.576923 17.589744 327.576923 19.788462 327.576923 21.987179 327.576923 24.185897 327.576923 26.384615 327.491224 28.583333 327.491224 30.782051 327.491224 32.980769 327.405524 35.179487 327.362675 37.378205 327.319825 39.576923 327.276976 41.775641 327.276976 43.974359 327.276976 46.173077 327.148427 48.371795 326.120035 50.570513 325.605839 52.769231 325.134493 54.967949 325.005944 57.166667 324.877395 59.365385 324.534598 61.564103 324.363199 63.762821 324.234650 65.961538 323.977552 68.160256 323.977552 70.358974 325.005944 72.557692 325.391591 74.756410 325.820087 76.955128 325.948636 79.153846 326.077185 81.352564 326.419983 83.551282 327.276976 85.750000 327.319825 87.948718 327.319825 90.147436 326.805629 92.346154 326.120035 94.544872 324.963094 96.743590 323.934703 98.942308 323.549056 101.141026 322.906311 103.339744 322.263566 105.538462 321.320874 107.737179 320.549580 109.935897 319.821136 112.134615 319.264091 114.333333 319.521189 116.532051 320.292482 118.730769 320.378182 120.929487 320.163934 123.128205 320.292482 125.326923 319.992535 127.525641 320.035385 129.724359 319.478339 131.923077 319.178392 134.121795 319.435489 136.320513 318.407098 138.519231 318.064301 140.717949 318.321399 142.916667 317.935752 145.115385 317.507255 147.314103 317.507255 149.512821 317.550105 151.711538 317.935752 153.910256 317.935752 156.108974 316.778811 158.307692 316.993059 160.506410 316.564563 162.705128 315.878968 164.903846 315.836119 167.102564 315.836119 169.301282 315.964668 171.500000 316.007517 173.698718 316.007517 175.897436 316.307465 178.096154 316.821661 180.294872 315.921818 182.493590 314.764878 184.692308 310.094266 186.891026 307.051940 189.089744 304.909458 191.288462 300.324545 193.487179 298.053514 195.685897 296.039580 197.884615 292.911556 200.083333 289.397884 202.282051 285.541416 204.480769 284.298776 206.679487 285.370017 208.878205 284.598724 211.076923 284.427325 213.275641 285.755664 215.474359 284.855821 217.673077 285.070070 219.871795 286.698356 222.070513 285.155769 224.269231 287.983846 226.467949 290.254877 228.666667 291.497517 230.865385 293.640000 233.064103 294.668391 235.262821 296.682325 237.461538 298.524860 239.660256 299.424703 241.858974 300.581643 244.057692 305.380804 246.256410 304.652360 248.455128 305.080857 250.653846 305.252255 252.852564 305.295105 255.051282 306.537745 257.250000 306.194947 259.448718 306.152098 261.647436 306.194947 263.846154 305.895000 266.044872 299.810349 268.243590 295.439685 270.442308 293.982797 272.641026 294.539842 274.839744 294.668391 277.038462 292.225961 279.237179 292.268811 281.435897 291.754615 283.634615 290.297727 285.833333 289.826381 288.032051 292.911556 290.230769 298.224912 292.429487 299.296154 294.628205 298.524860 296.826923 298.781958 299.025641 301.395787 301.224359 300.324545 303.423077 300.453094 305.621795 301.181538 307.820513 302.209930 310.019231 302.295629 312.217949 300.281696 314.416667 300.710192 316.615385 301.181538 318.814103 300.581643 321.012821 299.981748 323.211538 301.224388 325.410256 301.995682 327.608974 302.938374 329.807692 302.724126 332.006410 303.666818 334.205128 305.895000 336.403846 305.552203 338.602564 306.194947 340.801282 307.009091 343.000000 307.051940 345.198718 307.094790 347.397436 307.394738 349.596154 306.837692 351.794872 306.580594 353.993590 307.009091 356.192308 304.609510 358.391026 305.295105 360.589744 306.452045 362.788462 307.866084 364.987179 309.965717 367.185897 312.108199 369.384615 313.307989 371.583333 315.536171 373.782051 317.250157 375.980769 320.892378 378.179487 325.691538 380.378205 326.719930 382.576923 326.719930 384.775641 326.719930 386.974359 326.505682 389.173077 326.548531 391.371795 326.505682 393.570513 326.548531 395.769231 326.591381 397.967949 326.591381 400.166667 326.677080 402.365385 326.848479 404.564103 326.977028 406.762821 327.105577 408.961538 327.319825 411.160256 327.448374 413.358974 327.576923 415.557692 327.576923 417.756410 327.576923 419.955128 327.576923 422.153846 327.576923 424.352564 327.576923 426.551282 327.576923 428.750000 327.576923 430.948718 327.576923 433.147436 327.576923 435.346154 327.576923 437.544872 327.576923 439.743590 327.576923 441.942308 327.576923 444.141026 327.576923 446.339744 327.576923 448.538462 327.576923 450.737179 327.576923 452.935897 327.576923 455.134615 327.576923 457.333333 327.576923 459.532051 327.576923 461.730769 327.576923 463.929487 327.576923 466.128205 327.576923 468.326923 327.576923 470.525641 327.576923 472.724359 327.576923 474.923077 327.576923 477.121795 327.576923 479.320513 327.576923 481.519231 327.576923 483.717949 327.576923 485.916667 327.576923 488.115385 327.576923 490.314103 327.576923 492.512821 327.576923 494.711538 327.576923 496.910256 327.576923 499.108974 327.576923 501.307692 327.576923 503.506410 327.576923 505.705128 327.576923 507.903846 327.576923 510.102564 327.576923 512.301282 327.576923 514.500000 327.576923 516.698718 327.576923 518.897436 327.576923 521.096154 327.576923 523.294872 327.576923 525.493590 327.576923 527.692308 327.576923 529.891026 327.576923 532.089744 327.576923 534.288462 327.576923 536.487179 327.576923 538.685897 327.576923 540.884615 327.576923 543.083333 327.576923 545.282051 327.576923 547.480769 327.576923 549.679487 327.576923 551.878205 327.576923 554.076923 327.576923 556.275641 327.576923 558.474359 327.576923 560.673077 327.576923 562.871795 327.576923 565.070513 327.576923 567.269231 327.576923 569.467949 327.576923 571.666667 327.576923 573.865385 327.576923 576.064103 327.576923 578.262821 327.576923 580.461538 327.576923 582.660256 327.576923 584.858974 327.576923 587.057692 327.576923 589.256410 327.576923 591.455128 327.576923 593.653846 327.576923 595.852564 327.576923 598.051282 327.576923 600.250000 327.576923 602.448718 327.576923 604.647436 327.576923 606.846154 327.576923 609.044872 327.576923 611.243590 327.576923 613.442308 327.576923 615.641026 327.576923 617.839744 327.576923 620.038462 327.576923 622.237179 327.576923 624.435897 327.576923 626.634615 327.576923 628.833333 327.576923 631.032051 327.576923 633.230769 327.576923 635.429487 327.576923 637.628205 327.576923 639.826923 327.576923 642.025641 327.576923 644.224359 327.576923 646.423077 327.576923 648.621795 327.576923 650.820513 327.576923 653.019231 327.576923 655.217949 327.576923 657.416667 327.576923 659.615385 327.576923 661.814103 327.576923 664.012821 327.576923 666.211538 327.576923 668.410256 327.576923 670.608974 327.576923 672.807692 327.576923"/></g><g class="series serie-5 color-5"><path class="line reactive nofill" d="M13.192308 327.576923 L15.391026 327.576923 17.589744 327.576923 19.788462 327.576923 21.987179 327.576923 24.185897 327.576923 26.384615 327.362666 28.583333 327.319815 30.782051 327.319815 32.980769 327.319815 35.179487 327.319815 37.378205 327.319815 39.576923 327.319815 41.775641 327.319815 43.974359 327.319815 46.173077 327.319815 48.371795 327.448369 50.570513 327.448369 52.769231 327.448369 54.967949 327.405518 57.166667 327.405518 59.365385 327.405518 61.564103 327.362666 63.762821 327.362666 65.961538 327.362666 68.160256 319.820826 70.358974 321.577732 72.557692 322.349056 74.756410 323.334638 76.955128 323.806003 79.153846 324.491625 81.352564 325.005841 83.551282 325.305801 85.750000 325.648612 87.948718 325.991423 90.147436 323.677449 92.346154 319.863677 94.544872 313.607378 96.743590 307.608187 98.942308 304.180077 101.141026 300.751968 103.339744 295.995466 105.538462 292.053141 107.737179 288.539329 109.935897 285.539733 112.134615 283.011503 114.333333 283.225759 116.532051 287.125234 118.730769 290.596194 120.929487 290.853303 123.128205 290.081978 125.326923 290.810451 127.525641 291.538924 129.724359 291.153262 131.923077 289.953424 134.121795 291.067559 136.320513 288.282221 138.519231 286.910977 140.717949 285.711139 142.916667 284.854111 145.115385 284.425598 147.314103 284.168490 149.512821 282.968651 151.711538 283.011503 153.910256 282.368732 156.108974 279.926204 158.307692 281.040340 160.506410 280.483272 162.705128 279.154880 164.903846 279.240582 167.102564 278.640663 169.301282 278.940623 171.500000 279.797650 173.698718 278.726366 175.897436 279.626245 178.096154 280.097610 180.294872 277.869339 182.493590 272.384364 184.692308 262.399996 186.891026 254.943858 189.089744 247.316315 191.288462 229.575849 193.487179 221.176982 195.685897 212.692411 197.884615 201.593908 200.083333 186.810186 202.282051 172.883493 204.480769 168.341248 206.679487 171.255141 208.878205 166.712896 211.076923 165.341652 213.275641 173.312006 215.474359 171.426546 217.673077 174.897507 219.871795 180.425333 222.070513 175.540277 224.269231 184.239104 226.467949 191.181026 228.666667 195.123351 230.865385 204.079287 233.064103 207.036031 235.262821 212.906668 237.461538 220.877022 239.660256 222.591077 241.858974 226.233443 244.057692 243.031178 246.256410 240.545799 248.455128 242.131300 250.653846 242.431259 252.852564 241.574232 255.051282 244.488125 257.250000 241.488529 259.448718 240.845759 261.647436 242.474111 263.846154 240.417245 266.044872 218.563048 268.243590 203.565070 270.442308 200.865434 272.641026 201.336799 274.839744 200.779732 277.038462 191.823796 279.237179 192.595121 281.435897 189.038457 283.634615 183.382077 285.833333 182.139388 288.032051 194.223473 290.230769 214.106506 292.429487 216.291926 294.628205 215.649156 296.826923 217.620318 299.025641 228.290309 301.224359 225.976335 303.423077 230.261471 305.621795 234.332351 307.820513 238.788893 310.019231 240.588650 312.217949 232.404040 314.416667 234.246648 316.615385 236.389217 318.814103 235.875000 321.012821 235.403635 323.211538 241.402826 325.410256 241.445678 327.608974 244.530976 329.807692 244.616679 332.006410 247.659126 334.205128 257.557791 336.403846 256.529359 338.602564 258.329116 340.801282 260.643090 343.000000 261.671522 345.198718 262.357144 347.397436 264.285456 349.596154 264.242604 351.794872 263.514131 353.993590 267.027943 356.192308 261.243009 358.391026 263.128469 360.589744 267.456457 362.788462 272.170107 364.987179 278.426406 367.185897 284.254192 369.384615 288.196518 371.583333 293.424385 373.782051 298.823657 375.980769 309.107984 378.179487 323.677449 380.378205 327.576923 382.576923 327.576923 384.775641 327.576923 386.974359 327.576923 389.173077 327.576923 391.371795 327.576923 393.570513 327.576923 395.769231 327.576923 397.967949 327.576923 400.166667 327.576923 402.365385 327.576923 404.564103 327.576923 406.762821 327.576923 408.961538 327.576923 411.160256 327.576923 413.358974 327.576923 415.557692 327.576923 417.756410 327.576923 419.955128 327.576923 422.153846 327.576923 424.352564 327.576923 426.551282 327.576923 428.750000 327.576923 430.948718 327.576923 433.147436 327.576923 435.346154 327.576923 437.544872 327.576923 439.743590 327.576923 441.942308 327.576923 444.141026 327.576923 446.339744 327.576923 448.538462 327.576923 450.737179 327.576923 452.935897 327.576923 455.134615 327.576923 457.333333 327.576923 459.532051 327.576923 461.730769 327.576923 463.929487 327.576923 466.128205 327.576923 468.326923 327.576923 470.525641 327.576923 472.724359 327.576923 474.923077 327.576923 477.121795 327.576923 479.320513 327.576923 481.519231 327.576923 483.717949 327.576923 485.916667 327.576923 488.115385 327.576923 490.314103 327.576923 492.512821 327.576923 494.711538 327.576923 496.910256 327.576923 499.108974 327.576923 501.307692 327.576923 503.506410 327.576923 505.705128 327.576923 507.903846 327.576923 510.102564 327.576923 512.301282 327.576923 514.500000 327.576923 516.698718 327.576923 518.897436 327.576923 521.096154 327.576923 523.294872 327.576923 525.493590 327.576923 527.692308 327.576923 529.891026 327.576923 532.089744 327.576923 534.288462 327.576923 536.487179 327.576923 538.685897 327.576923 540.884615 327.576923 543.083333 327.576923 545.282051 327.576923 547.480769 327.576923 549.679487 327.576923 551.878205 327.576923 554.076923 327.576923 556.275641 327.576923 558.474359 327.576923 560.673077 327.576923 562.871795 327.576923 565.070513 327.576923 567.269231 327.576923 569.467949 327.576923 571.666667 327.576923 573.865385 327.576923 576.064103 327.576923 578.262821 327.576923 580.461538 327.576923 582.660256 327.576923 584.858974 327.576923 587.057692 327.576923 589.256410 327.576923 591.455128 327.576923 593.653846 327.576923 595.852564 327.576923 598.051282 327.576923 600.250000 327.576923 602.448718 327.576923 604.647436 327.576923 606.846154 327.576923 609.044872 327.576923 611.243590 327.576923 613.442308 327.576923 615.641026 327.576923 617.839744 327.576923 620.038462 327.576923 622.237179 327.576923 624.435897 327.576923 626.634615 327.576923 628.833333 327.576923 631.032051 327.576923 633.230769 327.576923 635.429487 327.576923 637.628205 327.576923 639.826923 327.576923 642.025641 327.576923 644.224359 327.576923 646.423077 327.576923 648.621795 327.576923 650.820513 327.576923 653.019231 327.576923 655.217949 327.576923 657.416667 327.576923 659.615385 327.576923 661.814103 327.576923 664.012821 327.576923 666.211538 327.576923 668.410256 327.576923 670.608974 327.576923 672.807692 327.576923"/></g></g><g class="titles"><text class="title plot_title" x="400.0" y="28">Percentage of Annotations for T ±5.0 BPM</text><text class="title" x="437.0" y="465.0">T (BPM)</text><text class="title" x="0" y="243.0" transform="rotate(-90 0.000000 215.000000)">Values (%)</text></g><g class="plot overlay" transform="translate(94, 48)"><g class="series serie-0 color-0"><g class="dots"><circle class="dot reactive tooltip-trigger" cx="13.192307692307692" cy="327.5769230769231" r="2.5"/><desc class="value">0.0</desc><desc class="x top">13.192307692307692</desc><desc class="y top">327.5769230769231</desc><desc class="x_label">0.0</desc></g><g class="dots"><circle class="dot reactive tooltip-trigger" cx="79.15384615384616" cy="327.5769230769231" r="2.5"/><desc class="value">0.0</desc><desc class="x top">79.15384615384616</desc><desc class="y top">327.5769230769231</desc><desc class="x_label">30.0</desc></g><g class="dots"><circle class="dot reactive tooltip-trigger" cx="145.11538461538458" cy="304.18288665507" r="2.5"/><desc class="value">2.2</desc><desc class="x top">145.11538461538458</desc><desc class="y top">304.18288665507</desc><desc class="x_label">60.0</desc></g><g class="dots"><circle class="dot reactive tooltip-trigger" cx="211.07692307692307" cy="223.7605306773808" r="2.5"/><desc class="value">9.7</desc><desc class="x top">211.07692307692307</desc><desc class="y top">223.7605306773808</desc><desc class="x_label">90.0</desc></g><g class="dots"><circle class="dot reactive tooltip-trigger" cx="277.03846153846155" cy="178.12930578860139" r="2.5"/><desc class="value">14.0</desc><desc class="x top">277.03846153846155</desc><desc class="y top">178.12930578860139</desc><desc class="x_label">120.0</desc></g><g class="dots"><circle class="dot reactive tooltip-trigger" cx="343.0" cy="256.9663516058353" r="2.5"/><desc class="value">6.6</desc><desc class="x top">343.0</desc><desc class="y top">256.9663516058353</desc><desc class="x_label">150.0</desc></g><g class="dots"><circle class="dot reactive tooltip-trigger" cx="408.96153846153845" cy="288.7154010354931" r="2.5"/><desc class="value">3.6</desc><desc class="x left top">408.96153846153845</desc><desc class="y left top">288.7154010354931</desc><desc class="x_label">180.0</desc></g><g class="dots"><circle class="dot reactive tooltip-trigger" cx="474.92307692307685" cy="311.1239743846308" r="2.5"/><desc class="value">1.5</desc><desc class="x left top">474.92307692307685</desc><desc class="y left top">311.1239743846308</desc><desc class="x_label">210.0</desc></g><g class="dots"><circle class="dot reactive tooltip-trigger" cx="540.8846153846155" cy="317.679446129216" r="2.5"/><desc class="value">0.9</desc><desc class="x left top">540.8846153846155</desc><desc class="y left top">317.679446129216</desc><desc class="x_label">240.0</desc></g><g class="dots"><circle class="dot reactive tooltip-trigger" cx="606.8461538461538" cy="327.5769230769231" r="2.5"/><desc class="value">0.0</desc><desc class="x left top">606.8461538461538</desc><desc class="y left top">327.5769230769231</desc><desc class="x_label">270.0</desc></g><g class="dots"><circle class="dot reactive tooltip-trigger" cx="672.8076923076923" cy="327.5769230769231" r="2.5"/><desc class="value">0.0</desc><desc class="x left top">672.8076923076923</desc><desc class="y left top">327.5769230769231</desc><desc class="x_label">300.0</desc></g></g><g class="series serie-1 color-1"><g class="dots"><circle class="dot reactive tooltip-trigger" cx="13.192307692307692" cy="327.5769230769231" r="2.5"/><desc class="value">0.0</desc><desc class="x top">13.192307692307692</desc><desc class="y top">327.5769230769231</desc><desc class="x_label">0.0</desc></g><g class="dots"><circle class="dot reactive tooltip-trigger" cx="79.15384615384616" cy="327.5769230769231" r="2.5"/><desc class="value">0.0</desc><desc class="x top">79.15384615384616</desc><desc class="y top">327.5769230769231</desc><desc class="x_label">30.0</desc></g><g class="dots"><circle class="dot reactive tooltip-trigger" cx="145.11538461538458" cy="326.24661371125734" r="2.5"/><desc class="value">0.1</desc><desc class="x top">145.11538461538458</desc><desc class="y top">326.24661371125734</desc><desc class="x_label">60.0</desc></g><g class="dots"><circle class="dot reactive tooltip-trigger" cx="211.07692307692307" cy="210.03765363955375" r="2.5"/><desc class="value">11.0</desc><desc class="x top">211.07692307692307</desc><desc class="y top">210.03765363955375</desc><desc class="x_label">90.0</desc></g><g class="dots"><circle class="dot reactive tooltip-trigger" cx="277.03846153846155" cy="190.46923200266423" r="2.5"/><desc class="value">12.8</desc><desc class="x top">277.03846153846155</desc><desc class="y top">190.46923200266423</desc><desc class="x_label">120.0</desc></g><g class="dots"><circle class="dot reactive tooltip-trigger" cx="343.0" cy="254.19534193858738" r="2.5"/><desc class="value">6.9</desc><desc class="x top">343.0</desc><desc class="y top">254.19534193858738</desc><desc class="x_label">150.0</desc></g><g class="dots"><circle class="dot reactive tooltip-trigger" cx="408.96153846153845" cy="295.5207586849133" r="2.5"/><desc class="value">3.0</desc><desc class="x left top">408.96153846153845</desc><desc class="y left top">295.5207586849133</desc><desc class="x_label">180.0</desc></g><g class="dots"><circle class="dot reactive tooltip-trigger" cx="474.92307692307685" cy="324.2726062654308" r="2.5"/><desc class="value">0.3</desc><desc class="x left top">474.92307692307685</desc><desc class="y left top">324.2726062654308</desc><desc class="x_label">210.0</desc></g><g class="dots"><circle class="dot reactive tooltip-trigger" cx="540.8846153846155" cy="327.5769230769231" r="2.5"/><desc class="value">0.0</desc><desc class="x left top">540.8846153846155</desc><desc class="y left top">327.5769230769231</desc><desc class="x_label">240.0</desc></g><g class="dots"><circle class="dot reactive tooltip-trigger" cx="606.8461538461538" cy="327.5769230769231" r="2.5"/><desc class="value">0.0</desc><desc class="x left top">606.8461538461538</desc><desc class="y left top">327.5769230769231</desc><desc class="x_label">270.0</desc></g><g class="dots"><circle class="dot reactive tooltip-trigger" cx="672.8076923076923" cy="327.5769230769231" r="2.5"/><desc class="value">0.0</desc><desc class="x left top">672.8076923076923</desc><desc class="y left top">327.5769230769231</desc><desc class="x_label">300.0</desc></g></g><g class="series serie-2 color-2"><g class="dots"><circle class="dot reactive tooltip-trigger" cx="13.192307692307692" cy="327.5769230769231" r="2.5"/><desc class="value">0.0</desc><desc class="x top">13.192307692307692</desc><desc class="y top">327.5769230769231</desc><desc class="x_label">0.0</desc></g><g class="dots"><circle class="dot reactive tooltip-trigger" cx="79.15384615384616" cy="327.5769230769231" r="2.5"/><desc class="value">0.0</desc><desc class="x top">79.15384615384616</desc><desc class="y top">327.5769230769231</desc><desc class="x_label">30.0</desc></g><g class="dots"><circle class="dot reactive tooltip-trigger" cx="145.11538461538458" cy="298.95564774762295" r="2.5"/><desc class="value">2.7</desc><desc class="x top">145.11538461538458</desc><desc class="y top">298.95564774762295</desc><desc class="x_label">60.0</desc></g><g class="dots"><circle class="dot reactive tooltip-trigger" cx="211.07692307692307" cy="119.77275339562712" r="2.5"/><desc class="value">19.4</desc><desc class="x ">211.07692307692307</desc><desc class="y ">119.77275339562712</desc><desc class="x_label">90.0</desc></g><g class="dots"><circle class="dot reactive tooltip-trigger" cx="277.03846153846155" cy="188.02678273630843" r="2.5"/><desc class="value">13.0</desc><desc class="x top">277.03846153846155</desc><desc class="y top">188.02678273630843</desc><desc class="x_label">120.0</desc></g><g class="dots"><circle class="dot reactive tooltip-trigger" cx="343.0" cy="299.5126486148099" r="2.5"/><desc class="value">2.6</desc><desc class="x top">343.0</desc><desc class="y top">299.5126486148099</desc><desc class="x_label">150.0</desc></g><g class="dots"><circle class="dot reactive tooltip-trigger" cx="408.96153846153845" cy="327.5769230769231" r="2.5"/><desc class="value">0.0</desc><desc class="x left top">408.96153846153845</desc><desc class="y left top">327.5769230769231</desc><desc class="x_label">180.0</desc></g><g class="dots"><circle class="dot reactive tooltip-trigger" cx="474.92307692307685" cy="327.5769230769231" r="2.5"/><desc class="value">0.0</desc><desc class="x left top">474.92307692307685</desc><desc class="y left top">327.5769230769231</desc><desc class="x_label">210.0</desc></g><g class="dots"><circle class="dot reactive tooltip-trigger" cx="540.8846153846155" cy="327.5769230769231" r="2.5"/><desc class="value">0.0</desc><desc class="x left top">540.8846153846155</desc><desc class="y left top">327.5769230769231</desc><desc class="x_label">240.0</desc></g><g class="dots"><circle class="dot reactive tooltip-trigger" cx="606.8461538461538" cy="327.5769230769231" r="2.5"/><desc class="value">0.0</desc><desc class="x left top">606.8461538461538</desc><desc class="y left top">327.5769230769231</desc><desc class="x_label">270.0</desc></g><g class="dots"><circle class="dot reactive tooltip-trigger" cx="672.8076923076923" cy="327.5769230769231" r="2.5"/><desc class="value">0.0</desc><desc class="x left top">672.8076923076923</desc><desc class="y left top">327.5769230769231</desc><desc class="x_label">300.0</desc></g></g><g class="series serie-3 color-3"><g class="dots"><circle class="dot reactive tooltip-trigger" cx="13.192307692307692" cy="327.5769230769231" r="2.5"/><desc class="value">0.0</desc><desc class="x top">13.192307692307692</desc><desc class="y top">327.5769230769231</desc><desc class="x_label">0.0</desc></g><g class="dots"><circle class="dot reactive tooltip-trigger" cx="79.15384615384616" cy="327.5769230769231" r="2.5"/><desc class="value">0.0</desc><desc class="x top">79.15384615384616</desc><desc class="y top">327.5769230769231</desc><desc class="x_label">30.0</desc></g><g class="dots"><circle class="dot reactive tooltip-trigger" cx="145.11538461538458" cy="300.97606745117866" r="2.5"/><desc class="value">2.5</desc><desc class="x top">145.11538461538458</desc><desc class="y top">300.97606745117866</desc><desc class="x_label">60.0</desc></g><g class="dots"><circle class="dot reactive tooltip-trigger" cx="211.07692307692307" cy="142.27193041951966" r="2.5"/><desc class="value">17.3</desc><desc class="x ">211.07692307692307</desc><desc class="y ">142.27193041951966</desc><desc class="x_label">90.0</desc></g><g class="dots"><circle class="dot reactive tooltip-trigger" cx="277.03846153846155" cy="178.22599012012265" r="2.5"/><desc class="value">14.0</desc><desc class="x top">277.03846153846155</desc><desc class="y top">178.22599012012265</desc><desc class="x_label">120.0</desc></g><g class="dots"><circle class="dot reactive tooltip-trigger" cx="343.0" cy="292.0090048289519" r="2.5"/><desc class="value">3.3</desc><desc class="x top">343.0</desc><desc class="y top">292.0090048289519</desc><desc class="x_label">150.0</desc></g><g class="dots"><circle class="dot reactive tooltip-trigger" cx="408.96153846153845" cy="327.1049724125954" r="2.5"/><desc class="value">0.0</desc><desc class="x left top">408.96153846153845</desc><desc class="y left top">327.1049724125954</desc><desc class="x_label">180.0</desc></g><g class="dots"><circle class="dot reactive tooltip-trigger" cx="474.92307692307685" cy="327.5769230769231" r="2.5"/><desc class="value">0.0</desc><desc class="x left top">474.92307692307685</desc><desc class="y left top">327.5769230769231</desc><desc class="x_label">210.0</desc></g><g class="dots"><circle class="dot reactive tooltip-trigger" cx="540.8846153846155" cy="327.5769230769231" r="2.5"/><desc class="value">0.0</desc><desc class="x left top">540.8846153846155</desc><desc class="y left top">327.5769230769231</desc><desc class="x_label">240.0</desc></g><g class="dots"><circle class="dot reactive tooltip-trigger" cx="606.8461538461538" cy="327.5769230769231" r="2.5"/><desc class="value">0.0</desc><desc class="x left top">606.8461538461538</desc><desc class="y left top">327.5769230769231</desc><desc class="x_label">270.0</desc></g><g class="dots"><circle class="dot reactive tooltip-trigger" cx="672.8076923076923" cy="327.5769230769231" r="2.5"/><desc class="value">0.0</desc><desc class="x left top">672.8076923076923</desc><desc class="y left top">327.5769230769231</desc><desc class="x_label">300.0</desc></g></g><g class="series serie-4 color-4"><g class="dots"><circle class="dot reactive tooltip-trigger" cx="13.192307692307692" cy="327.5769230769231" r="2.5"/><desc class="value">0.0</desc><desc class="x top">13.192307692307692</desc><desc class="y top">327.5769230769231</desc><desc class="x_label">0.0</desc></g><g class="dots"><circle class="dot reactive tooltip-trigger" cx="79.15384615384616" cy="326.07718530652124" r="2.5"/><desc class="value">0.1</desc><desc class="x top">79.15384615384616</desc><desc class="y top">326.07718530652124</desc><desc class="x_label">30.0</desc></g><g class="dots"><circle class="dot reactive tooltip-trigger" cx="145.11538461538458" cy="317.5072551899394" r="2.5"/><desc class="value">0.9</desc><desc class="x top">145.11538461538458</desc><desc class="y top">317.5072551899394</desc><desc class="x_label">60.0</desc></g><g class="dots"><circle class="dot reactive tooltip-trigger" cx="211.07692307692307" cy="284.42732493993356" r="2.5"/><desc class="value">4.0</desc><desc class="x top">211.07692307692307</desc><desc class="y top">284.42732493993356</desc><desc class="x_label">90.0</desc></g><g class="dots"><circle class="dot reactive tooltip-trigger" cx="277.03846153846155" cy="292.225961346023" r="2.5"/><desc class="value">3.3</desc><desc class="x top">277.03846153846155</desc><desc class="y top">292.225961346023</desc><desc class="x_label">120.0</desc></g><g class="dots"><circle class="dot reactive tooltip-trigger" cx="343.0" cy="307.05194044770957" r="2.5"/><desc class="value">1.9</desc><desc class="x top">343.0</desc><desc class="y top">307.05194044770957</desc><desc class="x_label">150.0</desc></g><g class="dots"><circle class="dot reactive tooltip-trigger" cx="408.96153846153845" cy="327.3198251734256" r="2.5"/><desc class="value">0.0</desc><desc class="x left top">408.96153846153845</desc><desc class="y left top">327.3198251734256</desc><desc class="x_label">180.0</desc></g><g class="dots"><circle class="dot reactive tooltip-trigger" cx="474.92307692307685" cy="327.5769230769231" r="2.5"/><desc class="value">0.0</desc><desc class="x left top">474.92307692307685</desc><desc class="y left top">327.5769230769231</desc><desc class="x_label">210.0</desc></g><g class="dots"><circle class="dot reactive tooltip-trigger" cx="540.8846153846155" cy="327.5769230769231" r="2.5"/><desc class="value">0.0</desc><desc class="x left top">540.8846153846155</desc><desc class="y left top">327.5769230769231</desc><desc class="x_label">240.0</desc></g><g class="dots"><circle class="dot reactive tooltip-trigger" cx="606.8461538461538" cy="327.5769230769231" r="2.5"/><desc class="value">0.0</desc><desc class="x left top">606.8461538461538</desc><desc class="y left top">327.5769230769231</desc><desc class="x_label">270.0</desc></g><g class="dots"><circle class="dot reactive tooltip-trigger" cx="672.8076923076923" cy="327.5769230769231" r="2.5"/><desc class="value">0.0</desc><desc class="x left top">672.8076923076923</desc><desc class="y left top">327.5769230769231</desc><desc class="x_label">300.0</desc></g></g><g class="series serie-5 color-5"><g class="dots"><circle class="dot reactive tooltip-trigger" cx="13.192307692307692" cy="327.5769230769231" r="2.5"/><desc class="value">0.0</desc><desc class="x top">13.192307692307692</desc><desc class="y top">327.5769230769231</desc><desc class="x_label">0.0</desc></g><g class="dots"><circle class="dot reactive tooltip-trigger" cx="79.15384615384616" cy="324.4916247390429" r="2.5"/><desc class="value">0.3</desc><desc class="x top">79.15384615384616</desc><desc class="y top">324.4916247390429</desc><desc class="x_label">30.0</desc></g><g class="dots"><circle class="dot reactive tooltip-trigger" cx="145.11538461538458" cy="284.4255977124042" r="2.5"/><desc class="value">4.0</desc><desc class="x top">145.11538461538458</desc><desc class="y top">284.4255977124042</desc><desc class="x_label">60.0</desc></g><g class="dots"><circle class="dot reactive tooltip-trigger" cx="211.07692307692307" cy="165.3416521433894" r="2.5"/><desc class="value">15.2</desc><desc class="x ">211.07692307692307</desc><desc class="y ">165.3416521433894</desc><desc class="x_label">90.0</desc></g><g class="dots"><circle class="dot reactive tooltip-trigger" cx="277.03846153846155" cy="191.82379621019442" r="2.5"/><desc class="value">12.7</desc><desc class="x top">277.03846153846155</desc><desc class="y top">191.82379621019442</desc><desc class="x_label">120.0</desc></g><g class="dots"><circle class="dot reactive tooltip-trigger" cx="343.0" cy="261.67152247053775" r="2.5"/><desc class="value">6.2</desc><desc class="x top">343.0</desc><desc class="y top">261.67152247053775</desc><desc class="x_label">150.0</desc></g><g class="dots"><circle class="dot reactive tooltip-trigger" cx="408.96153846153845" cy="327.5769230769231" r="2.5"/><desc class="value">0.0</desc><desc class="x left top">408.96153846153845</desc><desc class="y left top">327.5769230769231</desc><desc class="x_label">180.0</desc></g><g class="dots"><circle class="dot reactive tooltip-trigger" cx="474.92307692307685" cy="327.5769230769231" r="2.5"/><desc class="value">0.0</desc><desc class="x left top">474.92307692307685</desc><desc class="y left top">327.5769230769231</desc><desc class="x_label">210.0</desc></g><g class="dots"><circle class="dot reactive tooltip-trigger" cx="540.8846153846155" cy="327.5769230769231" r="2.5"/><desc class="value">0.0</desc><desc class="x left top">540.8846153846155</desc><desc class="y left top">327.5769230769231</desc><desc class="x_label">240.0</desc></g><g class="dots"><circle class="dot reactive tooltip-trigger" cx="606.8461538461538" cy="327.5769230769231" r="2.5"/><desc class="value">0.0</desc><desc class="x left top">606.8461538461538</desc><desc class="y left top">327.5769230769231</desc><desc class="x_label">270.0</desc></g><g class="dots"><circle class="dot reactive tooltip-trigger" cx="672.8076923076923" cy="327.5769230769231" r="2.5"/><desc class="value">0.0</desc><desc class="x left top">672.8076923076923</desc><desc class="y left top">327.5769230769231</desc><desc class="x_label">300.0</desc></g></g></g><g class="plot text-overlay" transform="translate(94, 48)"><g class="series serie-0 color-0"/><g class="series serie-1 color-1"/><g class="series serie-2 color-2"/><g class="series serie-3 color-3"/><g class="series serie-4 color-4"/><g class="series serie-5 color-5"/></g><g class="plot tooltip-overlay" transform="translate(94, 48)"><g class="tooltip" style="opacity: 0" transform="translate(0 0)"><rect class="tooltip-box" height="0" rx="0" ry="0" width="0"/><g class="text"/></g></g><g class="legends" transform="translate(104, 485)"><g class="legend reactive activate-serie" id="activate-serie-0"><rect class="color-0 reactive" height="12" width="12" x="0.0" y="1.5"/><text x="17.0" y="12.0">boeck2015/tempodetector2016_default</text></g><g class="legend reactive activate-serie" id="activate-serie-1"><rect class="color-1 reactive" height="12" width="12" x="343.0" y="1.5"/><text x="360.0" y="12.0">davies2009/mirex_qm_tempotracker</text></g><g class="legend reactive activate-serie" id="activate-serie-2"><rect class="color-2 reactive" height="12" width="12" x="0.0" y="24.0"/><text x="17.0" y="34.5">percival2014/stem</text></g><g class="legend reactive activate-serie" id="activate-serie-3"><rect class="color-3 reactive" height="12" width="12" x="343.0" y="24.0"/><text x="360.0" y="34.5">schreiber2014/default</text></g><g class="legend reactive activate-serie" id="activate-serie-4"><rect class="color-4 reactive" height="12" width="12" x="0.0" y="46.5"/><text x="17.0" y="57.0">schreiber2017/ismir2017</text></g><g class="legend reactive activate-serie" id="activate-serie-5"><rect class="color-5 reactive" height="12" width="12" x="343.0" y="46.5"/><text x="360.0" y="57.0">schreiber2017/mirex2017</text></g></g></g></svg>