<?xml version='1.0' encoding='utf-8'?>
<svg xmlns:xlink="http://www.w3.org/1999/xlink" xmlns="http://www.w3.org/2000/svg" id="chart-99039002-d11c-4fea-bcb0-313098914301" class="pygal-chart" viewBox="0 0 800 600"><!--Generated with pygal 2.4.0 (lxml) ©Kozea 2012-2016 on 2019-10-13--><!--http://pygal.org--><!--http://github.com/Kozea/pygal--><defs><style type="text/css">#chart-99039002-d11c-4fea-bcb0-313098914301{-webkit-user-select:none;-webkit-font-smoothing:antialiased;font-family:Helvetica,Arial,sans-serif}#chart-99039002-d11c-4fea-bcb0-313098914301 .title{font-family:Helvetica,Arial,sans-serif;font-size:18px}#chart-99039002-d11c-4fea-bcb0-313098914301 .legends .legend text{font-family:Helvetica,Arial,sans-serif;font-size:15px}#chart-99039002-d11c-4fea-bcb0-313098914301 .axis text{font-family:Helvetica,Arial,sans-serif;font-size:15px}#chart-99039002-d11c-4fea-bcb0-313098914301 .axis text.major{font-family:Helvetica,Arial,sans-serif;font-size:15px}#chart-99039002-d11c-4fea-bcb0-313098914301 .text-overlay text.value{font-family:Helvetica,Arial,sans-serif;font-size:15px}#chart-99039002-d11c-4fea-bcb0-313098914301 .text-overlay text.label{font-family:Helvetica,Arial,sans-serif;font-size:15px}#chart-99039002-d11c-4fea-bcb0-313098914301 .tooltip{font-family:Helvetica,Arial,sans-serif;font-size:14px}#chart-99039002-d11c-4fea-bcb0-313098914301 text.no_data{font-family:Helvetica,Arial,sans-serif;font-size:64px}
#chart-99039002-d11c-4fea-bcb0-313098914301{background-color:transparent}#chart-99039002-d11c-4fea-bcb0-313098914301 path,#chart-99039002-d11c-4fea-bcb0-313098914301 line,#chart-99039002-d11c-4fea-bcb0-313098914301 rect,#chart-99039002-d11c-4fea-bcb0-313098914301 circle{-webkit-transition:150ms;-moz-transition:150ms;transition:150ms}#chart-99039002-d11c-4fea-bcb0-313098914301 .graph &gt; .background{fill:transparent}#chart-99039002-d11c-4fea-bcb0-313098914301 .plot &gt; .background{fill:white}#chart-99039002-d11c-4fea-bcb0-313098914301 .graph{fill:rgba(0,0,0,.87)}#chart-99039002-d11c-4fea-bcb0-313098914301 text.no_data{fill:rgba(0,0,0,1)}#chart-99039002-d11c-4fea-bcb0-313098914301 .title{fill:rgba(0,0,0,1)}#chart-99039002-d11c-4fea-bcb0-313098914301 .legends .legend text{fill:rgba(0,0,0,.87)}#chart-99039002-d11c-4fea-bcb0-313098914301 .legends .legend:hover text{fill:rgba(0,0,0,1)}#chart-99039002-d11c-4fea-bcb0-313098914301 .axis .line{stroke:rgba(0,0,0,1)}#chart-99039002-d11c-4fea-bcb0-313098914301 .axis .guide.line{stroke:rgba(0,0,0,.54)}#chart-99039002-d11c-4fea-bcb0-313098914301 .axis .major.line{stroke:rgba(0,0,0,.87)}#chart-99039002-d11c-4fea-bcb0-313098914301 .axis text.major{fill:rgba(0,0,0,1)}#chart-99039002-d11c-4fea-bcb0-313098914301 .axis.y .guides:hover .guide.line,#chart-99039002-d11c-4fea-bcb0-313098914301 .line-graph .axis.x .guides:hover .guide.line,#chart-99039002-d11c-4fea-bcb0-313098914301 .stackedline-graph .axis.x .guides:hover .guide.line,#chart-99039002-d11c-4fea-bcb0-313098914301 .xy-graph .axis.x .guides:hover .guide.line{stroke:rgba(0,0,0,1)}#chart-99039002-d11c-4fea-bcb0-313098914301 .axis .guides:hover text{fill:rgba(0,0,0,1)}#chart-99039002-d11c-4fea-bcb0-313098914301 .reactive{fill-opacity:.7;stroke-opacity:.8}#chart-99039002-d11c-4fea-bcb0-313098914301 .ci{stroke:rgba(0,0,0,.87)}#chart-99039002-d11c-4fea-bcb0-313098914301 .reactive.active,#chart-99039002-d11c-4fea-bcb0-313098914301 .active .reactive{fill-opacity:.8;stroke-opacity:.9;stroke-width:4}#chart-99039002-d11c-4fea-bcb0-313098914301 .ci .reactive.active{stroke-width:1.5}#chart-99039002-d11c-4fea-bcb0-313098914301 .series text{fill:rgba(0,0,0,1)}#chart-99039002-d11c-4fea-bcb0-313098914301 .tooltip rect{fill:white;stroke:rgba(0,0,0,1);-webkit-transition:opacity 150ms;-moz-transition:opacity 150ms;transition:opacity 150ms}#chart-99039002-d11c-4fea-bcb0-313098914301 .tooltip .label{fill:rgba(0,0,0,.87)}#chart-99039002-d11c-4fea-bcb0-313098914301 .tooltip .label{fill:rgba(0,0,0,.87)}#chart-99039002-d11c-4fea-bcb0-313098914301 .tooltip .legend{font-size:.8em;fill:rgba(0,0,0,.54)}#chart-99039002-d11c-4fea-bcb0-313098914301 .tooltip .x_label{font-size:.6em;fill:rgba(0,0,0,1)}#chart-99039002-d11c-4fea-bcb0-313098914301 .tooltip .xlink{font-size:.5em;text-decoration:underline}#chart-99039002-d11c-4fea-bcb0-313098914301 .tooltip .value{font-size:1.5em}#chart-99039002-d11c-4fea-bcb0-313098914301 .bound{font-size:.5em}#chart-99039002-d11c-4fea-bcb0-313098914301 .max-value{font-size:.75em;fill:rgba(0,0,0,.54)}#chart-99039002-d11c-4fea-bcb0-313098914301 .map-element{fill:white;stroke:rgba(0,0,0,.54) !important}#chart-99039002-d11c-4fea-bcb0-313098914301 .map-element .reactive{fill-opacity:inherit;stroke-opacity:inherit}#chart-99039002-d11c-4fea-bcb0-313098914301 .color-0,#chart-99039002-d11c-4fea-bcb0-313098914301 .color-0 a:visited{stroke:#F44336;fill:#F44336}#chart-99039002-d11c-4fea-bcb0-313098914301 .color-1,#chart-99039002-d11c-4fea-bcb0-313098914301 .color-1 a:visited{stroke:#3F51B5;fill:#3F51B5}#chart-99039002-d11c-4fea-bcb0-313098914301 .color-2,#chart-99039002-d11c-4fea-bcb0-313098914301 .color-2 a:visited{stroke:#009688;fill:#009688}#chart-99039002-d11c-4fea-bcb0-313098914301 .color-3,#chart-99039002-d11c-4fea-bcb0-313098914301 .color-3 a:visited{stroke:#FFC107;fill:#FFC107}#chart-99039002-d11c-4fea-bcb0-313098914301 .color-4,#chart-99039002-d11c-4fea-bcb0-313098914301 .color-4 a:visited{stroke:#FF5722;fill:#FF5722}#chart-99039002-d11c-4fea-bcb0-313098914301 .color-5,#chart-99039002-d11c-4fea-bcb0-313098914301 .color-5 a:visited{stroke:#9C27B0;fill:#9C27B0}#chart-99039002-d11c-4fea-bcb0-313098914301 .text-overlay .color-0 text{fill:black}#chart-99039002-d11c-4fea-bcb0-313098914301 .text-overlay .color-1 text{fill:black}#chart-99039002-d11c-4fea-bcb0-313098914301 .text-overlay .color-2 text{fill:black}#chart-99039002-d11c-4fea-bcb0-313098914301 .text-overlay .color-3 text{fill:black}#chart-99039002-d11c-4fea-bcb0-313098914301 .text-overlay .color-4 text{fill:black}#chart-99039002-d11c-4fea-bcb0-313098914301 .text-overlay .color-5 text{fill:black}
#chart-99039002-d11c-4fea-bcb0-313098914301 text.no_data{text-anchor:middle}#chart-99039002-d11c-4fea-bcb0-313098914301 .guide.line{fill:none}#chart-99039002-d11c-4fea-bcb0-313098914301 .centered{text-anchor:middle}#chart-99039002-d11c-4fea-bcb0-313098914301 .title{text-anchor:middle}#chart-99039002-d11c-4fea-bcb0-313098914301 .legends .legend text{fill-opacity:1}#chart-99039002-d11c-4fea-bcb0-313098914301 .axis.x text{text-anchor:middle}#chart-99039002-d11c-4fea-bcb0-313098914301 .axis.x:not(.web) text[transform]{text-anchor:start}#chart-99039002-d11c-4fea-bcb0-313098914301 .axis.x:not(.web) text[transform].backwards{text-anchor:end}#chart-99039002-d11c-4fea-bcb0-313098914301 .axis.y text{text-anchor:end}#chart-99039002-d11c-4fea-bcb0-313098914301 .axis.y text[transform].backwards{text-anchor:start}#chart-99039002-d11c-4fea-bcb0-313098914301 .axis.y2 text{text-anchor:start}#chart-99039002-d11c-4fea-bcb0-313098914301 .axis.y2 text[transform].backwards{text-anchor:end}#chart-99039002-d11c-4fea-bcb0-313098914301 .axis .guide.line{stroke-dasharray:1}#chart-99039002-d11c-4fea-bcb0-313098914301 .axis .major.guide.line{stroke-dasharray:1}#chart-99039002-d11c-4fea-bcb0-313098914301 .horizontal .axis.y .guide.line,#chart-99039002-d11c-4fea-bcb0-313098914301 .horizontal .axis.y2 .guide.line,#chart-99039002-d11c-4fea-bcb0-313098914301 .vertical .axis.x .guide.line{opacity:0}#chart-99039002-d11c-4fea-bcb0-313098914301 .horizontal .axis.always_show .guide.line,#chart-99039002-d11c-4fea-bcb0-313098914301 .vertical .axis.always_show .guide.line{opacity:1 !important}#chart-99039002-d11c-4fea-bcb0-313098914301 .axis.y .guides:hover .guide.line,#chart-99039002-d11c-4fea-bcb0-313098914301 .axis.y2 .guides:hover .guide.line,#chart-99039002-d11c-4fea-bcb0-313098914301 .axis.x .guides:hover .guide.line{opacity:1}#chart-99039002-d11c-4fea-bcb0-313098914301 .axis .guides:hover text{opacity:1}#chart-99039002-d11c-4fea-bcb0-313098914301 .nofill{fill:none}#chart-99039002-d11c-4fea-bcb0-313098914301 .subtle-fill{fill-opacity:.2}#chart-99039002-d11c-4fea-bcb0-313098914301 .dot{stroke-width:1px;fill-opacity:1}#chart-99039002-d11c-4fea-bcb0-313098914301 .dot.active{stroke-width:5px}#chart-99039002-d11c-4fea-bcb0-313098914301 .dot.negative{fill:transparent}#chart-99039002-d11c-4fea-bcb0-313098914301 text,#chart-99039002-d11c-4fea-bcb0-313098914301 tspan{stroke:none !important}#chart-99039002-d11c-4fea-bcb0-313098914301 .series text.active{opacity:1}#chart-99039002-d11c-4fea-bcb0-313098914301 .tooltip rect{fill-opacity:.95;stroke-width:.5}#chart-99039002-d11c-4fea-bcb0-313098914301 .tooltip text{fill-opacity:1}#chart-99039002-d11c-4fea-bcb0-313098914301 .showable{visibility:hidden}#chart-99039002-d11c-4fea-bcb0-313098914301 .showable.shown{visibility:visible}#chart-99039002-d11c-4fea-bcb0-313098914301 .gauge-background{fill:rgba(229,229,229,1);stroke:none}#chart-99039002-d11c-4fea-bcb0-313098914301 .bg-lines{stroke:transparent;stroke-width:2px}</style><script type="text/javascript">window.pygal = window.pygal || {};window.pygal.config = window.pygal.config || {};window.pygal.config['99039002-d11c-4fea-bcb0-313098914301'] = {"allow_interruptions": false, "box_mode": "extremes", "classes": ["pygal-chart"], "css": ["file://style.css", "file://graph.css"], "defs": [], "disable_xml_declaration": false, "dots_size": 2.5, "dynamic_print_values": false, "explicit_size": false, "fill": false, "force_uri_protocol": "https", "formatter": null, "half_pie": false, "height": 600, "include_x_axis": false, "inner_radius": 0, "interpolate": null, "interpolation_parameters": {}, "interpolation_precision": 250, "inverse_y_axis": false, "js": ["//kozea.github.io/pygal.js/2.0.x/pygal-tooltips.min.js"], "legend_at_bottom": true, "legend_at_bottom_columns": 2, "legend_box_size": 12, "logarithmic": false, "margin": 20, "margin_bottom": 65, "margin_left": null, "margin_right": null, "margin_top": null, "max_scale": 16, "min_scale": 4, "missing_value_fill_truncation": "x", "no_data_text": "No data", "no_prefix": false, "order_min": null, "pretty_print": false, "print_labels": false, "print_values": false, "print_values_position": "center", "print_zeroes": true, "range": [0.0, 1.0], "rounded_bars": null, "secondary_range": null, "show_dots": true, "show_legend": true, "show_minor_x_labels": false, "show_minor_y_labels": true, "show_only_major_dots": true, "show_x_guides": true, "show_x_labels": true, "show_y_guides": true, "show_y_labels": true, "spacing": 10, "stack_from_top": false, "strict": false, "stroke": true, "stroke_style": null, "style": {"background": "transparent", "ci_colors": [], "colors": ["#F44336", "#3F51B5", "#009688", "#FFC107", "#FF5722", "#9C27B0", "#03A9F4", "#8BC34A", "#FF9800", "#E91E63", "#2196F3", "#4CAF50", "#FFEB3B", "#673AB7", "#00BCD4", "#CDDC39", "#9E9E9E", "#607D8B"], "font_family": "Helvetica, Arial, sans-serif", "foreground": "rgba(0, 0, 0, .87)", "foreground_strong": "rgba(0, 0, 0, 1)", "foreground_subtle": "rgba(0, 0, 0, .54)", "guide_stroke_dasharray": 1, "label_font_family": "Helvetica, Arial, sans-serif", "label_font_size": 15, "legend_font_family": "Helvetica, Arial, sans-serif", "legend_font_size": 15, "major_guide_stroke_dasharray": 1, "major_label_font_family": "Helvetica, Arial, sans-serif", "major_label_font_size": 15, "no_data_font_family": "Helvetica, Arial, sans-serif", "no_data_font_size": 64, "opacity": ".7", "opacity_hover": ".8", "plot_background": "white", "stroke_opacity": ".8", "stroke_opacity_hover": ".9", "title_font_family": "Helvetica, Arial, sans-serif", "title_font_size": 18, "tooltip_font_family": "Helvetica, Arial, sans-serif", "tooltip_font_size": 14, "transition": "150ms", "value_background": "rgba(229, 229, 229, 1)", "value_colors": [], "value_font_family": "Helvetica, Arial, sans-serif", "value_font_size": 15, "value_label_font_family": "Helvetica, Arial, sans-serif", "value_label_font_size": 15}, "title": "Mean P-Score for Tempo T \u00b110.0 BPM", "tooltip_border_radius": 0, "tooltip_fancy_mode": true, "truncate_label": null, "truncate_legend": -1, "width": 800, "x_label_rotation": 90, "x_labels": ["0.0", "1.0", "2.0", "3.0", "4.0", "5.0", "6.0", "7.0", "8.0", "9.0", "10.0", "11.0", "12.0", "13.0", "14.0", "15.0", "16.0", "17.0", "18.0", "19.0", "20.0", "21.0", "22.0", "23.0", "24.0", "25.0", "26.0", "27.0", "28.0", "29.0", "30.0", "31.0", "32.0", "33.0", "34.0", "35.0", "36.0", "37.0", "38.0", "39.0", "40.0", "41.0", "42.0", "43.0", "44.0", "45.0", "46.0", "47.0", "48.0", "49.0", "50.0", "51.0", "52.0", "53.0", "54.0", "55.0", "56.0", "57.0", "58.0", "59.0", "60.0", "61.0", "62.0", "63.0", "64.0", "65.0", "66.0", "67.0", "68.0", "69.0", "70.0", "71.0", "72.0", "73.0", "74.0", "75.0", "76.0", "77.0", "78.0", "79.0", "80.0", "81.0", "82.0", "83.0", "84.0", "85.0", "86.0", "87.0", "88.0", "89.0", "90.0", "91.0", "92.0", "93.0", "94.0", "95.0", "96.0", "97.0", "98.0", "99.0", "100.0", "101.0", "102.0", "103.0", "104.0", "105.0", "106.0", "107.0", "108.0", "109.0", "110.0", "111.0", "112.0", "113.0", "114.0", "115.0", "116.0", "117.0", "118.0", "119.0", "120.0", "121.0", "122.0", "123.0", "124.0", "125.0", "126.0", "127.0", "128.0", "129.0", "130.0", "131.0", "132.0", "133.0", "134.0", "135.0", "136.0", "137.0", "138.0", "139.0", "140.0", "141.0", "142.0", "143.0", "144.0", "145.0", "146.0", "147.0", "148.0", "149.0", "150.0", "151.0", "152.0", "153.0", "154.0", "155.0", "156.0", "157.0", "158.0", "159.0", "160.0", "161.0", "162.0", "163.0", "164.0", "165.0", "166.0", "167.0", "168.0", "169.0", "170.0", "171.0", "172.0", "173.0", "174.0", "175.0", "176.0", "177.0", "178.0", "179.0", "180.0", "181.0", "182.0", "183.0", "184.0", "185.0", "186.0", "187.0", "188.0", "189.0", "190.0", "191.0", "192.0", "193.0", "194.0", "195.0", "196.0", "197.0", "198.0", "199.0", "200.0", "201.0", "202.0", "203.0", "204.0", "205.0", "206.0", "207.0", "208.0", "209.0", "210.0", "211.0", "212.0", "213.0", "214.0", "215.0", "216.0", "217.0", "218.0", "219.0", "220.0", "221.0", "222.0", "223.0", "224.0", "225.0", "226.0", "227.0", "228.0", "229.0", "230.0", "231.0", "232.0", "233.0", "234.0", "235.0", "236.0", "237.0", "238.0", "239.0", "240.0", "241.0", "242.0", "243.0", "244.0", "245.0", "246.0", "247.0", "248.0", "249.0", "250.0", "251.0", "252.0", "253.0", "254.0", "255.0", "256.0", "257.0", "258.0", "259.0", "260.0", "261.0", "262.0", "263.0", "264.0", "265.0", "266.0", "267.0", "268.0", "269.0", "270.0", "271.0", "272.0", "273.0", "274.0", "275.0", "276.0", "277.0", "278.0", "279.0", "280.0", "281.0", "282.0", "283.0", "284.0", "285.0", "286.0", "287.0", "288.0", "289.0", "290.0", "291.0", "292.0", "293.0", "294.0", "295.0", "296.0", "297.0", "298.0", "299.0", "300.0"], "x_labels_major": null, "x_labels_major_count": 11, "x_labels_major_every": null, "x_title": "T (BPM)", "xrange": null, "y_label_rotation": 0, "y_labels": null, "y_labels_major": null, "y_labels_major_count": null, "y_labels_major_every": null, "y_title": "Mean P-Score", "zero": 0, "legends": ["boeck2015/tempodetector2016_default", "davies2009/mirex_qm_tempotracker", "percival2014/stem", "schreiber2014/default", "schreiber2017/ismir2017", "schreiber2017/mirex2017"]}</script><script type="text/javascript" xlink:href="https://kozea.github.io/pygal.js/2.0.x/pygal-tooltips.min.js"/></defs><title>Mean P-Score for Tempo T ±10.0 BPM</title><g class="graph line-graph vertical"><rect class="background" height="600" width="800" x="0" y="0"/><g class="plot" transform="translate(112, 48)"><rect class="background" height="334.0" width="668.0" x="0" y="0"/><g class="axis y always_show"><g class="guides"><path class="major line" d="M0.000000 327.576923 h668.000000"/><text class="major" x="-5" y="332.8269230769231">0.0000</text><title>0.0000</title></g><g class="guides"><path class="guide line" d="M0.000000 295.461538 h668.000000"/><text class="" x="-5" y="300.71153846153845">0.1000</text><title>0.1000</title></g><g class="guides"><path class="guide line" d="M0.000000 263.346154 h668.000000"/><text class="" x="-5" y="268.5961538461538">0.2000</text><title>0.2000</title></g><g class="guides"><path class="guide line" d="M0.000000 231.230769 h668.000000"/><text class="" x="-5" y="236.48076923076923">0.3000</text><title>0.3000</title></g><g class="guides"><path class="guide line" d="M0.000000 199.115385 h668.000000"/><text class="" x="-5" y="204.3653846153846">0.4000</text><title>0.4000</title></g><g class="guides"><path class="major guide line" d="M0.000000 167.000000 h668.000000"/><text class="major" x="-5" y="172.25">0.5000</text><title>0.5000</title></g><g class="guides"><path class="guide line" d="M0.000000 134.884615 h668.000000"/><text class="" x="-5" y="140.1346153846154">0.6000</text><title>0.6000</title></g><g class="guides"><path class="guide line" d="M0.000000 102.769231 h668.000000"/><text class="" x="-5" y="108.01923076923077">0.7000</text><title>0.7000</title></g><g class="guides"><path class="guide line" d="M0.000000 70.653846 h668.000000"/><text class="" x="-5" y="75.90384615384619">0.8000</text><title>0.8000</title></g><g class="guides"><path class="guide line" d="M0.000000 38.538462 h668.000000"/><text class="" x="-5" y="43.78846153846155">0.9000</text><title>0.9000</title></g><g class="guides"><path class="major guide line" d="M0.000000 6.423077 h668.000000"/><text class="major" x="-5" y="11.673076923076906">1.0000</text><title>1.0000</title></g></g><g class="axis x always_show"><g class="guides"><path class="major line" d="M12.846154 0.000000 v334.000000"/><text class="major" x="12.846153846153845" y="351.5" transform="rotate(90 12.846154 351.500000)">0.0</text></g><g class="guides"><path class="major guide line" d="M77.076923 0.000000 v334.000000"/><text class="major" x="77.07692307692308" y="351.5" transform="rotate(90 77.076923 351.500000)">30.0</text></g><g class="guides"><path class="major guide line" d="M141.307692 0.000000 v334.000000"/><text class="major" x="141.30769230769232" y="351.5" transform="rotate(90 141.307692 351.500000)">60.0</text></g><g class="guides"><path class="major guide line" d="M205.538462 0.000000 v334.000000"/><text class="major" x="205.53846153846152" y="351.5" transform="rotate(90 205.538462 351.500000)">90.0</text></g><g class="guides"><path class="major guide line" d="M269.769231 0.000000 v334.000000"/><text class="major" x="269.7692307692308" y="351.5" transform="rotate(90 269.769231 351.500000)">120.0</text></g><g class="guides"><path class="major guide line" d="M334.000000 0.000000 v334.000000"/><text class="major" x="334.0" y="351.5" transform="rotate(90 334.000000 351.500000)">150.0</text></g><g class="guides"><path class="major guide line" d="M398.230769 0.000000 v334.000000"/><text class="major" x="398.2307692307692" y="351.5" transform="rotate(90 398.230769 351.500000)">180.0</text></g><g class="guides"><path class="major guide line" d="M462.461538 0.000000 v334.000000"/><text class="major" x="462.46153846153845" y="351.5" transform="rotate(90 462.461538 351.500000)">210.0</text></g><g class="guides"><path class="major guide line" d="M526.692308 0.000000 v334.000000"/><text class="major" x="526.6923076923076" y="351.5" transform="rotate(90 526.692308 351.500000)">240.0</text></g><g class="guides"><path class="major guide line" d="M590.923077 0.000000 v334.000000"/><text class="major" x="590.9230769230769" y="351.5" transform="rotate(90 590.923077 351.500000)">270.0</text></g><g class="guides"><path class="major guide line" d="M655.153846 0.000000 v334.000000"/><text class="major" x="655.1538461538462" y="351.5" transform="rotate(90 655.153846 351.500000)">300.0</text></g></g><g class="series serie-0 color-0"><path class="line reactive nofill" d="M12.846154 6.423077 L14.987179 6.423077 17.128205 6.423077 19.269231 6.423077 21.410256 6.423077 23.551282 6.423077 25.692308 6.423077 27.833333 6.423077 29.974359 6.423077 32.115385 6.423077 34.256410 6.423077 36.397436 6.423077 38.538462 6.423077 40.679487 6.423077 42.820513 6.423077 44.961538 6.423077 47.102564 6.423077 49.243590 6.423077 51.384615 6.423077 53.525641 6.423077 55.666667 6.423077 57.807692 6.423077 59.948718 6.423077 62.089744 6.423077 64.230769 6.423077 66.371795 6.423077 68.512821 6.423077 70.653846 6.423077 72.794872 6.423077 74.935897 6.423077 77.076923 6.423077 79.217949 6.423077 81.358974 6.423077 83.500000 6.423077 85.641026 6.423077 87.782051 6.423077 89.923077 6.423077 92.064103 6.423077 94.205128 327.576923 96.346154 327.576923 98.487179 327.576923 100.628205 327.576923 102.769231 220.525641 104.910256 141.351665 107.051282 147.000453 109.192308 113.599111 111.333333 101.961150 113.474359 107.624212 115.615385 108.855397 117.756410 107.452214 119.897436 105.712315 122.038462 96.316019 124.179487 89.082343 126.320513 84.412928 128.461538 84.987751 130.602564 78.675608 132.743590 73.895267 134.884615 87.426410 137.025641 83.562035 139.166667 81.025761 141.307692 75.750053 143.448718 77.059807 145.589744 74.875355 147.730769 82.756631 149.871795 93.238474 152.012821 85.199287 154.153846 85.354219 156.294872 98.388216 158.435897 89.441279 160.576923 87.232626 162.717949 96.657022 164.858974 94.806446 167.000000 92.323229 169.141026 89.632178 171.282051 90.882188 173.423077 86.478180 175.564103 84.429271 177.705128 84.356146 179.846154 81.394190 181.987179 80.584449 184.128205 75.052668 186.269231 74.429595 188.410256 71.889941 190.551282 70.581926 192.692308 68.810625 194.833333 64.376313 196.974359 70.730740 199.115385 70.231426 201.256410 64.699540 203.397436 65.350173 205.538462 62.962477 207.679487 55.909982 209.820513 55.084954 211.961538 55.102963 214.102564 55.493277 216.243590 50.986208 218.384615 52.397928 220.525641 52.821872 222.666667 50.967158 224.807692 50.732530 226.948718 49.670204 229.089744 50.173338 231.230769 49.641893 233.371795 50.751379 235.512821 51.453649 237.653846 49.961549 239.794872 51.069336 241.935897 38.938041 244.076923 38.514941 246.217949 40.079584 248.358974 44.485902 250.500000 51.763889 252.641026 51.559759 254.782051 51.943403 256.923077 51.385448 259.064103 50.142655 261.205128 50.079651 263.346154 49.251910 265.487179 47.759564 267.628205 47.365964 269.769231 46.362677 271.910256 47.315841 274.051282 47.266065 276.192308 47.608529 278.333333 46.846035 280.474359 46.577157 282.615385 47.082773 284.756410 47.269735 286.897436 48.409690 289.038462 48.984851 291.179487 46.810955 293.320513 43.745583 295.461538 35.730814 297.602564 42.165281 299.743590 43.672784 301.884615 44.240184 304.025641 46.348714 306.166667 46.951580 308.307692 46.941052 310.448718 48.334670 312.589744 48.087973 314.730769 52.660404 316.871795 52.530157 319.012821 53.302060 321.153846 53.380315 323.294872 54.787530 325.435897 55.504202 327.576923 56.256620 329.717949 56.872326 331.858974 56.258591 334.000000 56.722491 336.141026 62.764462 338.282051 62.061252 340.423077 63.585355 342.564103 54.784626 344.705128 51.028688 346.846154 51.810951 348.987179 49.689178 351.128205 49.840386 353.269231 50.429885 355.410256 51.029919 357.551282 54.058062 359.692308 46.251458 361.833333 47.305108 363.974359 45.036094 366.115385 45.498396 368.256410 45.750091 370.397436 47.242425 372.538462 47.282905 374.679487 45.943311 376.820513 44.780524 378.961538 40.855769 381.102564 41.046796 383.243590 38.529941 385.384615 37.967174 387.525641 37.340031 389.666667 37.288523 391.807692 37.698108 393.948718 41.008138 396.089744 41.525000 398.230769 42.934571 400.371795 45.215277 402.512821 46.099301 404.653846 47.438695 406.794872 47.438695 408.935897 51.595784 411.076923 52.953396 413.217949 52.706369 415.358974 50.800140 417.500000 50.800140 419.641026 50.933094 421.782051 50.933094 423.923077 51.690002 426.064103 51.690002 428.205128 51.068943 430.346154 51.088051 432.487179 51.088051 434.628205 56.251492 436.769231 56.310676 438.910256 49.596810 441.051282 49.596810 443.192308 49.133624 445.333333 45.078648 447.474359 42.379308 449.615385 45.910723 451.756410 45.910723 453.897436 54.688970 456.038462 54.688970 458.179487 54.688970 460.320513 51.590862 462.461538 56.185841 464.602564 72.507966 466.743590 72.507966 468.884615 75.581682 471.025641 74.615650 473.166667 82.540315 475.307692 85.152108 477.448718 85.152108 479.589744 89.362043 481.730769 103.597798 483.871795 103.597798 486.012821 103.597798 488.153846 111.270604 490.294872 125.732332 492.435897 125.732332 494.576923 125.732332 496.717949 125.732332 498.858974 125.611949 501.000000 125.611949 503.141026 125.611949 505.282051 125.611949 507.423077 116.893465 509.564103 116.893465 511.705128 116.893465 513.846154 116.893465 515.987179 137.958527 518.128205 137.958527 520.269231 137.958527 522.410256 137.958527 524.551282 145.798230 526.692308 145.798230 528.833333 145.798230 530.974359 145.798230 533.115385 6.423077 535.256410 6.423077 537.397436 6.423077 539.538462 6.423077 541.679487 6.423077 543.820513 6.423077 545.961538 6.423077 548.102564 6.423077 550.243590 6.423077 552.384615 6.423077 554.525641 6.423077 556.666667 6.423077 558.807692 6.423077 560.948718 6.423077 563.089744 6.423077 565.230769 6.423077 567.371795 6.423077 569.512821 6.423077 571.653846 6.423077 573.794872 6.423077 575.935897 6.423077 578.076923 6.423077 580.217949 6.423077 582.358974 6.423077 584.500000 6.423077 586.641026 6.423077 588.782051 6.423077 590.923077 6.423077 593.064103 6.423077 595.205128 6.423077 597.346154 6.423077 599.487179 6.423077 601.628205 6.423077 603.769231 6.423077 605.910256 6.423077 608.051282 6.423077 610.192308 6.423077 612.333333 6.423077 614.474359 6.423077 616.615385 6.423077 618.756410 6.423077 620.897436 6.423077 623.038462 6.423077 625.179487 6.423077 627.320513 6.423077 629.461538 6.423077 631.602564 6.423077 633.743590 6.423077 635.884615 6.423077 638.025641 6.423077 640.166667 6.423077 642.307692 6.423077 644.448718 6.423077 646.589744 6.423077 648.730769 6.423077 650.871795 6.423077 653.012821 6.423077 655.153846 6.423077"/></g><g class="series serie-1 color-1"><path class="line reactive nofill" d="M12.846154 6.423077 L14.987179 6.423077 17.128205 6.423077 19.269231 6.423077 21.410256 6.423077 23.551282 6.423077 25.692308 6.423077 27.833333 6.423077 29.974359 6.423077 32.115385 6.423077 34.256410 6.423077 36.397436 6.423077 38.538462 6.423077 40.679487 6.423077 42.820513 6.423077 44.961538 6.423077 47.102564 6.423077 49.243590 6.423077 51.384615 6.423077 53.525641 6.423077 55.666667 6.423077 57.807692 6.423077 59.948718 6.423077 62.089744 6.423077 64.230769 6.423077 66.371795 6.423077 68.512821 6.423077 70.653846 6.423077 72.794872 6.423077 74.935897 6.423077 77.076923 6.423077 79.217949 6.423077 81.358974 6.423077 83.500000 6.423077 85.641026 6.423077 87.782051 6.423077 89.923077 6.423077 92.064103 6.423077 94.205128 190.078886 96.346154 190.078886 98.487179 190.078886 100.628205 190.078886 102.769231 174.692962 104.910256 165.555871 107.051282 170.551953 109.192308 135.290927 111.333333 122.361225 113.474359 121.019035 115.615385 121.878141 117.756410 120.296564 119.897436 115.398242 122.038462 114.053199 124.179487 106.558108 126.320513 99.366037 128.461538 96.551980 130.602564 82.282528 132.743590 77.952479 134.884615 101.398476 137.025641 96.801050 139.166667 93.256604 141.307692 92.108965 143.448718 91.479690 145.589744 88.079418 147.730769 97.505752 149.871795 106.414079 152.012821 97.221793 154.153846 98.870048 156.294872 114.498509 158.435897 105.955419 160.576923 101.795459 162.717949 111.655717 164.858974 110.347211 167.000000 107.747898 169.141026 105.969000 171.282051 107.669541 173.423077 104.700536 175.564103 103.534813 177.705128 103.917771 179.846154 101.243282 181.987179 101.684256 184.128205 95.419749 186.269231 95.157749 188.410256 93.600190 190.551282 92.883264 192.692308 92.450791 194.833333 88.612894 196.974359 93.797426 199.115385 93.331757 201.256410 87.817493 203.397436 88.664885 205.538462 85.643633 207.679487 79.051779 209.820513 77.827420 211.961538 78.102644 214.102564 77.558516 216.243590 72.921760 218.384615 73.015151 220.525641 72.612480 222.666667 69.674803 224.807692 68.841191 226.948718 65.743446 229.089744 66.106020 231.230769 64.421728 233.371795 64.222587 235.512821 63.623144 237.653846 59.824465 239.794872 59.755225 241.935897 47.115656 244.076923 45.660806 246.217949 45.855058 248.358974 49.779547 250.500000 56.449199 252.641026 55.854632 254.782051 56.164215 256.923077 54.854902 259.064103 53.330135 261.205128 53.722827 263.346154 52.926325 265.487179 51.677391 267.628205 51.574430 269.769231 50.249580 271.910256 51.287282 274.051282 51.153676 276.192308 51.414477 278.333333 50.618592 280.474359 50.766347 282.615385 51.064108 284.756410 50.980061 286.897436 52.276629 289.038462 53.032820 291.179487 54.308468 293.320513 51.808190 295.461538 44.109228 297.602564 51.213955 299.743590 53.837493 301.884615 54.989253 304.025641 58.973686 306.166667 59.799935 308.307692 61.210870 310.448718 63.493166 312.589744 63.016422 314.730769 70.027017 316.871795 70.654240 319.012821 72.659462 321.153846 73.338916 323.294872 75.581738 325.435897 77.061473 327.576923 78.962721 329.717949 80.300626 331.858974 80.862184 334.000000 85.546479 336.141026 89.735696 338.282051 92.883962 340.423077 94.848004 342.564103 88.278669 344.705128 87.252865 346.846154 90.790551 348.987179 94.717070 351.128205 95.358328 353.269231 95.075910 355.410256 102.758909 357.551282 113.785155 359.692308 112.383028 361.833333 114.052751 363.974359 120.554316 366.115385 123.867321 368.256410 124.860920 370.397436 130.363106 372.538462 130.500313 374.679487 133.339379 376.820513 133.976328 378.961538 134.012698 381.102564 134.349081 383.243590 145.084734 385.384615 146.629849 387.525641 151.028757 389.666667 161.641275 391.807692 162.499558 393.948718 161.999643 396.089744 164.942700 398.230769 170.240188 400.371795 169.947864 402.512821 168.602008 404.653846 177.347374 406.794872 177.347374 408.935897 181.490410 411.076923 186.621761 413.217949 192.415316 415.358974 201.491639 417.500000 201.491639 419.641026 207.209697 421.782051 207.209697 423.923077 208.730211 426.064103 208.730211 428.205128 209.253156 430.346154 212.086157 432.487179 212.086157 434.628205 214.957917 436.769231 215.739211 438.910256 222.811997 441.051282 222.811997 443.192308 224.603970 445.333333 219.075188 447.474359 227.195519 449.615385 221.904647 451.756410 221.904647 453.897436 229.704688 456.038462 229.704688 458.179487 229.704688 460.320513 228.694925 462.461538 230.206053 464.602564 232.878542 466.743590 232.878542 468.884615 232.705084 471.025641 232.109193 473.166667 232.905959 475.307692 229.757259 477.448718 229.757259 479.589744 230.224577 481.730769 230.672601 483.871795 230.672601 486.012821 230.672601 488.153846 238.265765 490.294872 242.402240 492.435897 242.402240 494.576923 242.402240 496.717949 242.402240 498.858974 251.498352 501.000000 251.498352 503.141026 251.498352 505.282051 251.498352 507.423077 248.191283 509.564103 248.191283 511.705128 248.191283 513.846154 248.191283 515.987179 257.186448 518.128205 257.186448 520.269231 257.186448 522.410256 257.186448 524.551282 272.435004 526.692308 272.435004 528.833333 272.435004 530.974359 272.435004 533.115385 6.423077 535.256410 6.423077 537.397436 6.423077 539.538462 6.423077 541.679487 6.423077 543.820513 6.423077 545.961538 6.423077 548.102564 6.423077 550.243590 6.423077 552.384615 6.423077 554.525641 6.423077 556.666667 6.423077 558.807692 6.423077 560.948718 6.423077 563.089744 6.423077 565.230769 6.423077 567.371795 6.423077 569.512821 6.423077 571.653846 6.423077 573.794872 6.423077 575.935897 6.423077 578.076923 6.423077 580.217949 6.423077 582.358974 6.423077 584.500000 6.423077 586.641026 6.423077 588.782051 6.423077 590.923077 6.423077 593.064103 6.423077 595.205128 6.423077 597.346154 6.423077 599.487179 6.423077 601.628205 6.423077 603.769231 6.423077 605.910256 6.423077 608.051282 6.423077 610.192308 6.423077 612.333333 6.423077 614.474359 6.423077 616.615385 6.423077 618.756410 6.423077 620.897436 6.423077 623.038462 6.423077 625.179487 6.423077 627.320513 6.423077 629.461538 6.423077 631.602564 6.423077 633.743590 6.423077 635.884615 6.423077 638.025641 6.423077 640.166667 6.423077 642.307692 6.423077 644.448718 6.423077 646.589744 6.423077 648.730769 6.423077 650.871795 6.423077 653.012821 6.423077 655.153846 6.423077"/></g><g class="series serie-2 color-2"><path class="line reactive nofill" d="M12.846154 6.423077 L14.987179 6.423077 17.128205 6.423077 19.269231 6.423077 21.410256 6.423077 23.551282 6.423077 25.692308 6.423077 27.833333 6.423077 29.974359 6.423077 32.115385 6.423077 34.256410 6.423077 36.397436 6.423077 38.538462 6.423077 40.679487 6.423077 42.820513 6.423077 44.961538 6.423077 47.102564 6.423077 49.243590 6.423077 51.384615 6.423077 53.525641 6.423077 55.666667 6.423077 57.807692 6.423077 59.948718 6.423077 62.089744 6.423077 64.230769 6.423077 66.371795 6.423077 68.512821 6.423077 70.653846 6.423077 72.794872 6.423077 74.935897 6.423077 77.076923 6.423077 79.217949 6.423077 81.358974 6.423077 83.500000 6.423077 85.641026 6.423077 87.782051 6.423077 89.923077 6.423077 92.064103 6.423077 94.205128 190.078886 96.346154 190.078886 98.487179 190.078886 100.628205 190.078886 102.769231 241.354367 104.910256 243.218016 107.051282 242.858088 109.192308 239.730597 111.333333 232.050672 113.474359 229.676778 115.615385 232.396226 117.756410 231.364300 119.897436 225.769213 122.038462 220.993720 124.179487 220.796174 126.320513 220.949646 128.461538 218.623336 130.602564 220.491294 132.743590 221.716792 134.884615 214.226383 137.025641 210.402606 139.166667 209.534479 141.307692 196.069834 143.448718 192.985029 145.589744 189.448481 147.730769 186.794825 149.871795 186.384088 152.012821 177.357282 154.153846 175.533924 156.294872 175.547730 158.435897 164.894732 160.576923 161.502103 162.717949 158.623487 164.858974 154.250166 167.000000 151.262326 169.141026 147.630769 171.282051 142.705777 173.423077 136.501741 175.564103 131.891056 177.705128 129.678606 179.846154 125.035475 181.987179 123.462774 184.128205 112.667265 186.269231 108.749118 188.410256 105.091999 190.551282 102.988235 192.692308 101.436528 194.833333 96.309791 196.974359 97.739657 199.115385 97.117341 201.256410 90.415794 203.397436 89.273339 205.538462 86.024604 207.679487 78.699176 209.820513 77.502078 211.961538 76.667827 214.102564 76.254873 216.243590 71.537869 218.384615 72.499908 220.525641 72.563720 222.666667 70.153411 224.807692 69.105841 226.948718 66.888958 229.089744 67.981794 231.230769 67.582786 233.371795 68.611485 235.512821 68.988135 237.653846 65.926205 239.794872 68.241244 241.935897 59.211835 244.076923 58.693853 246.217949 60.533692 248.358974 65.604405 250.500000 74.960246 252.641026 74.679548 254.782051 75.224341 256.923077 74.708552 259.064103 74.092869 261.205128 73.895430 263.346154 73.359344 265.487179 73.033488 267.628205 73.339038 269.769231 73.214971 271.910256 75.549530 274.051282 76.419257 276.192308 77.310431 278.333333 77.572636 280.474359 78.248247 282.615385 80.102854 284.756410 80.930299 286.897436 83.615680 289.038462 85.009203 291.179487 89.958158 293.320513 94.450068 295.461538 88.554987 297.602564 98.350930 299.743590 106.212326 301.884615 110.250787 304.025641 120.022984 306.166667 123.578435 308.307692 127.311417 310.448718 134.408590 312.589744 139.176043 314.730769 153.684739 316.871795 155.456105 319.012821 161.467133 321.153846 165.862483 323.294872 170.461010 325.435897 175.767272 327.576923 179.427358 329.717949 182.156965 331.858974 186.091521 334.000000 191.854943 336.141026 205.407523 338.282051 212.166191 340.423077 214.938171 342.564103 215.455177 344.705128 219.703373 346.846154 221.726876 348.987179 227.315948 351.128205 227.421284 353.269231 229.380523 355.410256 234.670791 357.551282 240.707554 359.692308 239.853356 361.833333 241.286483 363.974359 242.087980 366.115385 244.700481 368.256410 244.161534 370.397436 246.223566 372.538462 246.735899 374.679487 247.490318 376.820513 247.732938 378.961538 248.534170 381.102564 248.052462 383.243590 243.498609 385.384615 243.489911 387.525641 245.496311 389.666667 244.396146 391.807692 244.990248 393.948718 243.686787 396.089744 243.745759 398.230769 243.702813 400.371795 244.780861 402.512821 245.634272 404.653846 247.079884 406.794872 247.079884 408.935897 249.297143 411.076923 248.907391 413.217949 251.611114 415.358974 252.373396 417.500000 252.373396 419.641026 255.082747 421.782051 255.082747 423.923077 255.719850 426.064103 255.719850 428.205128 254.937528 430.346154 257.529345 432.487179 257.529345 434.628205 260.352170 436.769231 260.112563 438.910256 264.161590 441.051282 264.161590 443.192308 265.395895 445.333333 261.395643 447.474359 260.436289 449.615385 258.410136 451.756410 258.410136 453.897436 260.241942 456.038462 260.241942 458.179487 260.241942 460.320513 259.899296 462.461538 260.038804 464.602564 257.135629 466.743590 257.135629 468.884615 258.090408 471.025641 255.334064 473.166667 260.195182 475.307692 251.481397 477.448718 251.481397 479.589744 249.720599 481.730769 246.938934 483.871795 246.938934 486.012821 246.938934 488.153846 251.574583 490.294872 257.546757 492.435897 257.546757 494.576923 257.546757 496.717949 257.546757 498.858974 251.498352 501.000000 251.498352 503.141026 251.498352 505.282051 251.498352 507.423077 248.191283 509.564103 248.191283 511.705128 248.191283 513.846154 248.191283 515.987179 257.186448 518.128205 257.186448 520.269231 257.186448 522.410256 257.186448 524.551282 272.435004 526.692308 272.435004 528.833333 272.435004 530.974359 272.435004 533.115385 6.423077 535.256410 6.423077 537.397436 6.423077 539.538462 6.423077 541.679487 6.423077 543.820513 6.423077 545.961538 6.423077 548.102564 6.423077 550.243590 6.423077 552.384615 6.423077 554.525641 6.423077 556.666667 6.423077 558.807692 6.423077 560.948718 6.423077 563.089744 6.423077 565.230769 6.423077 567.371795 6.423077 569.512821 6.423077 571.653846 6.423077 573.794872 6.423077 575.935897 6.423077 578.076923 6.423077 580.217949 6.423077 582.358974 6.423077 584.500000 6.423077 586.641026 6.423077 588.782051 6.423077 590.923077 6.423077 593.064103 6.423077 595.205128 6.423077 597.346154 6.423077 599.487179 6.423077 601.628205 6.423077 603.769231 6.423077 605.910256 6.423077 608.051282 6.423077 610.192308 6.423077 612.333333 6.423077 614.474359 6.423077 616.615385 6.423077 618.756410 6.423077 620.897436 6.423077 623.038462 6.423077 625.179487 6.423077 627.320513 6.423077 629.461538 6.423077 631.602564 6.423077 633.743590 6.423077 635.884615 6.423077 638.025641 6.423077 640.166667 6.423077 642.307692 6.423077 644.448718 6.423077 646.589744 6.423077 648.730769 6.423077 650.871795 6.423077 653.012821 6.423077 655.153846 6.423077"/></g><g class="series serie-3 color-3"><path class="line reactive nofill" d="M12.846154 6.423077 L14.987179 6.423077 17.128205 6.423077 19.269231 6.423077 21.410256 6.423077 23.551282 6.423077 25.692308 6.423077 27.833333 6.423077 29.974359 6.423077 32.115385 6.423077 34.256410 6.423077 36.397436 6.423077 38.538462 6.423077 40.679487 6.423077 42.820513 6.423077 44.961538 6.423077 47.102564 6.423077 49.243590 6.423077 51.384615 6.423077 53.525641 6.423077 55.666667 6.423077 57.807692 6.423077 59.948718 6.423077 62.089744 6.423077 64.230769 6.423077 66.371795 6.423077 68.512821 6.423077 70.653846 6.423077 72.794872 6.423077 74.935897 6.423077 77.076923 6.423077 79.217949 6.423077 81.358974 6.423077 83.500000 6.423077 85.641026 6.423077 87.782051 6.423077 89.923077 6.423077 92.064103 6.423077 94.205128 327.576923 96.346154 327.576923 98.487179 327.576923 100.628205 327.576923 102.769231 220.525641 104.910256 148.741722 107.051282 154.897401 109.192308 109.795818 111.333333 102.540419 113.474359 101.605916 115.615385 103.004276 117.756410 101.681245 119.897436 91.319869 122.038462 86.208143 124.179487 82.408329 126.320513 81.712949 128.461538 84.624958 130.602564 70.907273 132.743590 66.762261 134.884615 88.522283 137.025641 83.648297 139.166667 78.787216 141.307692 73.432259 143.448718 74.302821 145.589744 72.545345 147.730769 80.141351 149.871795 89.310709 152.012821 79.640393 154.153846 79.651108 156.294872 93.118301 158.435897 83.097822 160.576923 79.307816 162.717949 88.887533 164.858974 87.132268 167.000000 84.400563 169.141026 81.060660 171.282051 81.558543 173.423077 77.187882 175.564103 75.239319 177.705128 75.280269 179.846154 71.187982 181.987179 70.078077 184.128205 65.738891 186.269231 65.006599 188.410256 62.811340 190.551282 61.409901 192.692308 59.429097 194.833333 55.550786 196.974359 62.125417 199.115385 61.960997 201.256410 56.252413 203.397436 57.103040 205.538462 55.346042 207.679487 48.336408 209.820513 47.763021 211.961538 47.897091 214.102564 48.683157 216.243590 44.964125 218.384615 46.295868 220.525641 46.983189 222.666667 45.274110 224.807692 45.716939 226.948718 44.937648 229.089744 45.288364 231.230769 44.415801 233.371795 45.128023 235.512821 45.593194 237.653846 44.338204 239.794872 45.272275 241.935897 33.705324 244.076923 32.903569 246.217949 34.333960 248.358974 38.671789 250.500000 45.115349 252.641026 44.834238 254.782051 45.013849 256.923077 44.580608 259.064103 43.227428 261.205128 42.908015 263.346154 42.291359 265.487179 41.146950 267.628205 40.792655 269.769231 39.239833 271.910256 39.932764 274.051282 39.831346 276.192308 40.347937 278.333333 39.746249 280.474359 39.679336 282.615385 40.079573 284.756410 39.952074 286.897436 41.126707 289.038462 41.495743 291.179487 38.699235 293.320513 35.179066 295.461538 27.901528 297.602564 35.601061 299.743590 37.873612 301.884615 38.295128 304.025641 40.752207 306.166667 41.339179 308.307692 41.211366 310.448718 42.056727 312.589744 41.278219 314.730769 46.768892 316.871795 46.877990 319.012821 47.262692 321.153846 47.314193 323.294872 48.853802 325.435897 49.704251 327.576923 50.656012 329.717949 50.823636 331.858974 49.869146 334.000000 51.062087 336.141026 59.196031 338.282051 57.525604 340.423077 59.156253 342.564103 47.619360 344.705128 41.758057 346.846154 42.596703 348.987179 38.922689 351.128205 39.134175 353.269231 39.554644 355.410256 40.783673 357.551282 44.639720 359.692308 36.591379 361.833333 37.516082 363.974359 37.404812 366.115385 38.555101 368.256410 40.292251 370.397436 42.720552 372.538462 42.995226 374.679487 43.204524 376.820513 42.715522 378.961538 38.813423 381.102564 38.972401 383.243590 41.265897 385.384615 40.539227 387.525641 42.136153 389.666667 44.298952 391.807692 44.858787 393.948718 46.929705 396.089744 48.156133 398.230769 50.405925 400.371795 54.165429 402.512821 55.028103 404.653846 53.881309 406.794872 53.881309 408.935897 60.594894 411.076923 61.767529 413.217949 57.971018 415.358974 58.644762 417.500000 58.644762 419.641026 59.729114 421.782051 59.729114 423.923077 60.242634 426.064103 60.242634 428.205128 60.326823 430.346154 63.862681 432.487179 63.862681 434.628205 71.163292 436.769231 70.712583 438.910256 77.584016 441.051282 77.584016 443.192308 78.539197 445.333333 72.318079 447.474359 70.472330 449.615385 74.680086 451.756410 74.680086 453.897436 82.118375 456.038462 82.118375 458.179487 82.118375 460.320513 74.733436 462.461538 73.377616 464.602564 95.897019 466.743590 95.897019 468.884615 95.626068 471.025641 94.038705 473.166667 99.422625 475.307692 87.006706 477.448718 87.006706 479.589744 97.954763 481.730769 113.517833 483.871795 113.517833 486.012821 113.517833 488.153846 123.241864 490.294872 128.280529 492.435897 128.280529 494.576923 128.280529 496.717949 128.280529 498.858974 125.580748 501.000000 125.580748 503.141026 125.580748 505.282051 125.580748 507.423077 148.921377 509.564103 148.921377 511.705128 148.921377 513.846154 148.921377 515.987179 177.700106 518.128205 177.700106 520.269231 177.700106 522.410256 177.700106 524.551282 167.000000 526.692308 167.000000 528.833333 167.000000 530.974359 167.000000 533.115385 6.423077 535.256410 6.423077 537.397436 6.423077 539.538462 6.423077 541.679487 6.423077 543.820513 6.423077 545.961538 6.423077 548.102564 6.423077 550.243590 6.423077 552.384615 6.423077 554.525641 6.423077 556.666667 6.423077 558.807692 6.423077 560.948718 6.423077 563.089744 6.423077 565.230769 6.423077 567.371795 6.423077 569.512821 6.423077 571.653846 6.423077 573.794872 6.423077 575.935897 6.423077 578.076923 6.423077 580.217949 6.423077 582.358974 6.423077 584.500000 6.423077 586.641026 6.423077 588.782051 6.423077 590.923077 6.423077 593.064103 6.423077 595.205128 6.423077 597.346154 6.423077 599.487179 6.423077 601.628205 6.423077 603.769231 6.423077 605.910256 6.423077 608.051282 6.423077 610.192308 6.423077 612.333333 6.423077 614.474359 6.423077 616.615385 6.423077 618.756410 6.423077 620.897436 6.423077 623.038462 6.423077 625.179487 6.423077 627.320513 6.423077 629.461538 6.423077 631.602564 6.423077 633.743590 6.423077 635.884615 6.423077 638.025641 6.423077 640.166667 6.423077 642.307692 6.423077 644.448718 6.423077 646.589744 6.423077 648.730769 6.423077 650.871795 6.423077 653.012821 6.423077 655.153846 6.423077"/></g><g class="series serie-4 color-4"><path class="line reactive nofill" d="M12.846154 6.423077 L14.987179 6.423077 17.128205 6.423077 19.269231 6.423077 21.410256 6.423077 23.551282 6.423077 25.692308 6.423077 27.833333 6.423077 29.974359 6.423077 32.115385 6.423077 34.256410 6.423077 36.397436 6.423077 38.538462 6.423077 40.679487 6.423077 42.820513 6.423077 44.961538 6.423077 47.102564 6.423077 49.243590 6.423077 51.384615 6.423077 53.525641 6.423077 55.666667 6.423077 57.807692 6.423077 59.948718 6.423077 62.089744 6.423077 64.230769 6.423077 66.371795 6.423077 68.512821 6.423077 70.653846 6.423077 72.794872 6.423077 74.935897 6.423077 77.076923 6.423077 79.217949 6.423077 81.358974 6.423077 83.500000 6.423077 85.641026 6.423077 87.782051 6.423077 89.923077 6.423077 92.064103 6.423077 94.205128 327.576923 96.346154 327.576923 98.487179 327.576923 100.628205 327.576923 102.769231 113.474359 104.910256 153.781292 107.051282 159.589414 109.192308 112.960199 111.333333 99.506231 113.474359 98.655329 115.615385 100.135649 117.756410 98.851915 119.897436 91.890630 122.038462 85.093316 124.179487 79.785632 126.320513 79.431668 128.461538 81.349998 130.602564 68.474146 132.743590 64.528126 134.884615 86.446108 137.025641 82.210585 139.166667 77.736587 141.307692 73.416250 143.448718 75.392416 145.589744 74.002872 147.730769 81.391108 149.871795 91.128627 152.012821 81.079079 154.153846 80.816730 156.294872 97.074609 158.435897 86.610936 160.576923 82.893708 162.717949 93.862518 164.858974 91.692685 167.000000 88.958715 169.141026 85.690369 171.282051 86.179418 173.423077 81.354175 175.564103 79.195891 177.705128 79.461589 179.846154 75.617797 181.987179 75.853907 184.128205 73.670092 186.269231 73.624153 188.410256 71.857439 190.551282 71.507254 192.692308 71.210543 194.833333 67.684118 196.974359 74.682317 199.115385 74.876025 201.256410 69.277896 203.397436 70.647198 205.538462 68.819291 207.679487 62.316529 209.820513 61.902905 211.961538 62.147702 214.102564 62.917277 216.243590 59.609320 218.384615 61.049202 220.525641 61.933729 222.666667 60.175384 224.807692 60.877235 226.948718 58.329010 229.089744 57.588509 231.230769 55.829675 233.371795 55.970644 235.512821 55.007148 237.653846 51.692382 239.794872 51.605383 241.935897 38.641269 244.076923 37.010455 246.217949 37.956806 248.358974 41.336158 250.500000 47.311622 252.641026 46.659240 254.782051 46.658475 256.923077 46.105385 259.064103 44.389119 261.205128 44.329445 263.346154 44.029768 265.487179 42.671600 267.628205 42.224009 269.769231 40.553758 271.910256 41.394213 274.051282 41.347734 276.192308 42.013633 278.333333 41.325016 280.474359 41.214753 282.615385 41.501646 284.756410 41.629882 286.897436 43.025908 289.038462 43.612669 291.179487 40.566660 293.320513 37.209914 295.461538 29.008674 297.602564 36.765372 299.743590 39.160156 301.884615 39.452726 304.025641 42.000166 306.166667 42.572347 308.307692 42.214915 310.448718 43.364754 312.589744 42.396694 314.730769 48.322956 316.871795 48.296256 319.012821 48.824398 321.153846 48.724487 323.294872 50.386303 325.435897 51.308800 327.576923 52.564231 329.717949 52.497603 331.858974 51.268118 334.000000 52.491833 336.141026 60.952323 338.282051 60.855857 340.423077 62.667479 342.564103 51.448511 344.705128 46.257315 346.846154 47.568549 348.987179 44.734444 351.128205 45.058659 353.269231 45.812704 355.410256 47.787801 357.551282 53.203038 359.692308 44.556144 361.833333 45.748120 363.974359 45.724548 366.115385 47.172442 368.256410 48.758955 370.397436 57.542872 372.538462 57.937698 374.679487 60.366331 376.820513 59.857888 378.961538 62.131904 381.102564 62.628505 383.243590 67.759400 385.384615 69.215581 387.525641 71.617841 389.666667 87.287910 391.807692 91.247044 393.948718 110.622784 396.089744 115.906354 398.230769 122.763800 400.371795 133.704160 402.512821 141.323330 404.653846 156.814420 406.794872 156.814420 408.935897 188.925299 411.076923 196.960522 413.217949 214.296524 415.358974 240.116580 417.500000 240.116580 419.641026 245.371978 421.782051 245.371978 423.923077 247.036359 426.064103 247.036359 428.205128 246.495245 430.346154 249.115938 432.487179 249.115938 434.628205 249.656225 436.769231 250.667507 438.910256 255.565495 441.051282 255.565495 443.192308 256.684417 445.333333 255.675238 447.474359 253.798815 449.615385 251.120767 451.756410 251.120767 453.897436 250.647680 456.038462 250.647680 458.179487 250.647680 460.320513 252.052236 462.461538 252.536669 464.602564 248.148330 466.743590 248.148330 468.884615 248.685095 471.025641 246.729203 473.166667 250.084471 475.307692 243.404594 477.448718 243.404594 479.589744 239.671668 481.730769 227.031466 483.871795 227.031466 486.012821 227.031466 488.153846 235.286655 490.294872 239.012218 492.435897 239.012218 494.576923 239.012218 496.717949 239.012218 498.858974 245.430563 501.000000 245.430563 503.141026 245.430563 505.282051 245.430563 507.423077 240.389840 509.564103 240.389840 511.705128 240.389840 513.846154 240.389840 515.987179 246.264428 518.128205 246.264428 520.269231 246.264428 522.410256 246.264428 524.551282 272.435004 526.692308 272.435004 528.833333 272.435004 530.974359 272.435004 533.115385 6.423077 535.256410 6.423077 537.397436 6.423077 539.538462 6.423077 541.679487 6.423077 543.820513 6.423077 545.961538 6.423077 548.102564 6.423077 550.243590 6.423077 552.384615 6.423077 554.525641 6.423077 556.666667 6.423077 558.807692 6.423077 560.948718 6.423077 563.089744 6.423077 565.230769 6.423077 567.371795 6.423077 569.512821 6.423077 571.653846 6.423077 573.794872 6.423077 575.935897 6.423077 578.076923 6.423077 580.217949 6.423077 582.358974 6.423077 584.500000 6.423077 586.641026 6.423077 588.782051 6.423077 590.923077 6.423077 593.064103 6.423077 595.205128 6.423077 597.346154 6.423077 599.487179 6.423077 601.628205 6.423077 603.769231 6.423077 605.910256 6.423077 608.051282 6.423077 610.192308 6.423077 612.333333 6.423077 614.474359 6.423077 616.615385 6.423077 618.756410 6.423077 620.897436 6.423077 623.038462 6.423077 625.179487 6.423077 627.320513 6.423077 629.461538 6.423077 631.602564 6.423077 633.743590 6.423077 635.884615 6.423077 638.025641 6.423077 640.166667 6.423077 642.307692 6.423077 644.448718 6.423077 646.589744 6.423077 648.730769 6.423077 650.871795 6.423077 653.012821 6.423077 655.153846 6.423077"/></g><g class="series serie-5 color-5"><path class="line reactive nofill" d="M12.846154 6.423077 L14.987179 6.423077 17.128205 6.423077 19.269231 6.423077 21.410256 6.423077 23.551282 6.423077 25.692308 6.423077 27.833333 6.423077 29.974359 6.423077 32.115385 6.423077 34.256410 6.423077 36.397436 6.423077 38.538462 6.423077 40.679487 6.423077 42.820513 6.423077 44.961538 6.423077 47.102564 6.423077 49.243590 6.423077 51.384615 6.423077 53.525641 6.423077 55.666667 6.423077 57.807692 6.423077 59.948718 6.423077 62.089744 6.423077 64.230769 6.423077 66.371795 6.423077 68.512821 6.423077 70.653846 6.423077 72.794872 6.423077 74.935897 6.423077 77.076923 6.423077 79.217949 6.423077 81.358974 6.423077 83.500000 6.423077 85.641026 6.423077 87.782051 6.423077 89.923077 6.423077 92.064103 6.423077 94.205128 327.576923 96.346154 327.576923 98.487179 327.576923 100.628205 327.576923 102.769231 113.474359 104.910256 153.781292 107.051282 159.589414 109.192308 112.960199 111.333333 99.506231 113.474359 98.655329 115.615385 100.135649 117.756410 98.851915 119.897436 91.890630 122.038462 85.093316 124.179487 79.785632 126.320513 79.911341 128.461538 81.783499 130.602564 69.163498 132.743590 65.161099 134.884615 88.220084 137.025641 84.428576 139.166667 80.253121 141.307692 75.671822 143.448718 78.120316 145.589744 77.420691 147.730769 84.794958 149.871795 94.847184 152.012821 84.727325 154.153846 84.693675 156.294872 100.729232 158.435897 90.533807 160.576923 86.950350 162.717949 97.767783 164.858974 96.430578 167.000000 94.893749 169.141026 92.690082 171.282051 93.755730 173.423077 89.314026 175.564103 87.620757 177.705128 88.082314 179.846154 84.441288 181.987179 83.640415 184.128205 78.196707 186.269231 77.962376 188.410256 75.840904 190.551282 75.247989 192.692308 74.815498 194.833333 71.083233 196.974359 77.718596 199.115385 77.820336 201.256410 72.129083 203.397436 73.330345 205.538462 71.177874 207.679487 64.501397 209.820513 63.652236 211.961538 63.282699 214.102564 63.420717 216.243590 59.173575 218.384615 60.089535 220.525641 60.444681 222.666667 58.064451 224.807692 58.305773 226.948718 56.498756 229.089744 57.518378 231.230769 55.890134 233.371795 56.161160 235.512821 55.208200 237.653846 51.874098 239.794872 51.787731 241.935897 38.785425 244.076923 37.215132 246.217949 38.174315 248.358974 41.600010 250.500000 47.659567 252.641026 47.010120 254.782051 47.120630 256.923077 46.562335 259.064103 44.861321 261.205128 44.798185 263.346154 44.543575 265.487179 43.330360 267.628205 42.899305 269.769231 41.339362 271.910256 42.306590 274.051282 42.260407 276.192308 43.155685 278.333333 42.744353 280.474359 42.726081 282.615385 43.088001 284.756410 43.352294 286.897436 45.053323 289.038462 45.695790 291.179487 42.792167 293.320513 40.251646 295.461538 32.530437 297.602564 40.538463 299.743590 43.596350 301.884615 43.997371 304.025641 46.995298 306.166667 47.826834 308.307692 47.677968 310.448718 49.146393 312.589744 48.168901 314.730769 54.676153 316.871795 54.642061 319.012821 55.517026 321.153846 55.326721 323.294872 56.760046 325.435897 57.894792 327.576923 59.311152 329.717949 59.495392 331.858974 58.061196 334.000000 59.537115 336.141026 69.006804 338.282051 72.317988 340.423077 74.018776 342.564103 64.288854 344.705128 61.031717 346.846154 64.264452 348.987179 64.001477 351.128205 64.977649 353.269231 66.963918 355.410256 71.373184 357.551282 80.407852 359.692308 75.707303 361.833333 77.711820 363.974359 81.699485 366.115385 85.607978 368.256410 86.544622 370.397436 89.888085 372.538462 90.545104 374.679487 92.403826 376.820513 92.570118 378.961538 97.532925 381.102564 98.277856 383.243590 99.412816 385.384615 100.710300 387.525641 101.782099 389.666667 111.394024 391.807692 111.512773 393.948718 127.142274 396.089744 130.163189 398.230769 134.161157 400.371795 138.951847 402.512821 143.394343 404.653846 153.214159 406.794872 153.214159 408.935897 172.300263 411.076923 175.064356 413.217949 185.653268 415.358974 221.732938 417.500000 221.732938 419.641026 233.950823 421.782051 233.950823 423.923077 244.414695 426.064103 244.414695 428.205128 243.946405 430.346154 246.515502 432.487179 246.515502 434.628205 246.553289 436.769231 247.734595 438.910256 251.311802 441.051282 251.311802 443.192308 252.373627 445.333333 251.183576 447.474359 253.798815 449.615385 251.120767 451.756410 251.120767 453.897436 250.647680 456.038462 250.647680 458.179487 250.647680 460.320513 252.052236 462.461538 252.536669 464.602564 248.148330 466.743590 248.148330 468.884615 248.685095 471.025641 246.729203 473.166667 250.084471 475.307692 243.404594 477.448718 243.404594 479.589744 239.671668 481.730769 227.031466 483.871795 227.031466 486.012821 227.031466 488.153846 231.192187 490.294872 234.352996 492.435897 234.352996 494.576923 234.352996 496.717949 234.352996 498.858974 237.924039 501.000000 237.924039 503.141026 237.924039 505.282051 237.924039 507.423077 230.738595 509.564103 230.738595 511.705128 230.738595 513.846154 230.738595 515.987179 232.752684 518.128205 232.752684 520.269231 232.752684 522.410256 232.752684 524.551282 249.915431 526.692308 249.915431 528.833333 249.915431 530.974359 249.915431 533.115385 6.423077 535.256410 6.423077 537.397436 6.423077 539.538462 6.423077 541.679487 6.423077 543.820513 6.423077 545.961538 6.423077 548.102564 6.423077 550.243590 6.423077 552.384615 6.423077 554.525641 6.423077 556.666667 6.423077 558.807692 6.423077 560.948718 6.423077 563.089744 6.423077 565.230769 6.423077 567.371795 6.423077 569.512821 6.423077 571.653846 6.423077 573.794872 6.423077 575.935897 6.423077 578.076923 6.423077 580.217949 6.423077 582.358974 6.423077 584.500000 6.423077 586.641026 6.423077 588.782051 6.423077 590.923077 6.423077 593.064103 6.423077 595.205128 6.423077 597.346154 6.423077 599.487179 6.423077 601.628205 6.423077 603.769231 6.423077 605.910256 6.423077 608.051282 6.423077 610.192308 6.423077 612.333333 6.423077 614.474359 6.423077 616.615385 6.423077 618.756410 6.423077 620.897436 6.423077 623.038462 6.423077 625.179487 6.423077 627.320513 6.423077 629.461538 6.423077 631.602564 6.423077 633.743590 6.423077 635.884615 6.423077 638.025641 6.423077 640.166667 6.423077 642.307692 6.423077 644.448718 6.423077 646.589744 6.423077 648.730769 6.423077 650.871795 6.423077 653.012821 6.423077 655.153846 6.423077"/></g></g><g class="titles"><text class="title plot_title" x="400.0" y="28">Mean P-Score for Tempo T ±10.0 BPM</text><text class="title" x="446.0" y="465.0">T (BPM)</text><text class="title" x="0" y="243.0" transform="rotate(-90 0.000000 215.000000)">Mean P-Score</text></g><g class="plot overlay" transform="translate(112, 48)"><g class="series serie-0 color-0"><g class="dots"><circle class="dot reactive tooltip-trigger" cx="12.846153846153845" cy="6.423076923076906" r="2.5"/><desc class="value">1.0000</desc><desc class="x ">12.846153846153845</desc><desc class="y ">6.423076923076906</desc><desc class="x_label">0.0</desc></g><g class="dots"><circle class="dot reactive tooltip-trigger" cx="77.07692307692308" cy="6.423076923076906" r="2.5"/><desc class="value">1.0000</desc><desc class="x ">77.07692307692308</desc><desc class="y ">6.423076923076906</desc><desc class="x_label">30.0</desc></g><g class="dots"><circle class="dot reactive tooltip-trigger" cx="141.30769230769232" cy="75.75005305661665" r="2.5"/><desc class="value">0.7841</desc><desc class="x ">141.30769230769232</desc><desc class="y ">75.75005305661665</desc><desc class="x_label">60.0</desc></g><g class="dots"><circle class="dot reactive tooltip-trigger" cx="205.53846153846152" cy="62.96247711508221" r="2.5"/><desc class="value">0.8239</desc><desc class="x ">205.53846153846152</desc><desc class="y ">62.96247711508221</desc><desc class="x_label">90.0</desc></g><g class="dots"><circle class="dot reactive tooltip-trigger" cx="269.7692307692308" cy="46.36267712896705" r="2.5"/><desc class="value">0.8756</desc><desc class="x ">269.7692307692308</desc><desc class="y ">46.36267712896705</desc><desc class="x_label">120.0</desc></g><g class="dots"><circle class="dot reactive tooltip-trigger" cx="334.0" cy="56.722491487219884" r="2.5"/><desc class="value">0.8434</desc><desc class="x ">334.0</desc><desc class="y ">56.722491487219884</desc><desc class="x_label">150.0</desc></g><g class="dots"><circle class="dot reactive tooltip-trigger" cx="398.2307692307692" cy="42.934571400453365" r="2.5"/><desc class="value">0.8863</desc><desc class="x left">398.2307692307692</desc><desc class="y left">42.934571400453365</desc><desc class="x_label">180.0</desc></g><g class="dots"><circle class="dot reactive tooltip-trigger" cx="462.46153846153845" cy="56.1858412785769" r="2.5"/><desc class="value">0.8451</desc><desc class="x left">462.46153846153845</desc><desc class="y left">56.1858412785769</desc><desc class="x_label">210.0</desc></g><g class="dots"><circle class="dot reactive tooltip-trigger" cx="526.6923076923076" cy="145.79823040790282" r="2.5"/><desc class="value">0.5660</desc><desc class="x left">526.6923076923076</desc><desc class="y left">145.79823040790282</desc><desc class="x_label">240.0</desc></g><g class="dots"><circle class="dot reactive tooltip-trigger" cx="590.9230769230769" cy="6.423076923076906" r="2.5"/><desc class="value">1.0000</desc><desc class="x left">590.9230769230769</desc><desc class="y left">6.423076923076906</desc><desc class="x_label">270.0</desc></g><g class="dots"><circle class="dot reactive tooltip-trigger" cx="655.1538461538462" cy="6.423076923076906" r="2.5"/><desc class="value">1.0000</desc><desc class="x left">655.1538461538462</desc><desc class="y left">6.423076923076906</desc><desc class="x_label">300.0</desc></g></g><g class="series serie-1 color-1"><g class="dots"><circle class="dot reactive tooltip-trigger" cx="12.846153846153845" cy="6.423076923076906" r="2.5"/><desc class="value">1.0000</desc><desc class="x ">12.846153846153845</desc><desc class="y ">6.423076923076906</desc><desc class="x_label">0.0</desc></g><g class="dots"><circle class="dot reactive tooltip-trigger" cx="77.07692307692308" cy="6.423076923076906" r="2.5"/><desc class="value">1.0000</desc><desc class="x ">77.07692307692308</desc><desc class="y ">6.423076923076906</desc><desc class="x_label">30.0</desc></g><g class="dots"><circle class="dot reactive tooltip-trigger" cx="141.30769230769232" cy="92.10896477111893" r="2.5"/><desc class="value">0.7332</desc><desc class="x ">141.30769230769232</desc><desc class="y ">92.10896477111893</desc><desc class="x_label">60.0</desc></g><g class="dots"><circle class="dot reactive tooltip-trigger" cx="205.53846153846152" cy="85.64363326017931" r="2.5"/><desc class="value">0.7533</desc><desc class="x ">205.53846153846152</desc><desc class="y ">85.64363326017931</desc><desc class="x_label">90.0</desc></g><g class="dots"><circle class="dot reactive tooltip-trigger" cx="269.7692307692308" cy="50.24957971182221" r="2.5"/><desc class="value">0.8635</desc><desc class="x ">269.7692307692308</desc><desc class="y ">50.24957971182221</desc><desc class="x_label">120.0</desc></g><g class="dots"><circle class="dot reactive tooltip-trigger" cx="334.0" cy="85.54647905146555" r="2.5"/><desc class="value">0.7536</desc><desc class="x ">334.0</desc><desc class="y ">85.54647905146555</desc><desc class="x_label">150.0</desc></g><g class="dots"><circle class="dot reactive tooltip-trigger" cx="398.2307692307692" cy="170.24018800635685" r="2.5"/><desc class="value">0.4899</desc><desc class="x left top">398.2307692307692</desc><desc class="y left top">170.24018800635685</desc><desc class="x_label">180.0</desc></g><g class="dots"><circle class="dot reactive tooltip-trigger" cx="462.46153846153845" cy="230.20605285351616" r="2.5"/><desc class="value">0.3032</desc><desc class="x left top">462.46153846153845</desc><desc class="y left top">230.20605285351616</desc><desc class="x_label">210.0</desc></g><g class="dots"><circle class="dot reactive tooltip-trigger" cx="526.6923076923076" cy="272.4350044530554" r="2.5"/><desc class="value">0.1717</desc><desc class="x left top">526.6923076923076</desc><desc class="y left top">272.4350044530554</desc><desc class="x_label">240.0</desc></g><g class="dots"><circle class="dot reactive tooltip-trigger" cx="590.9230769230769" cy="6.423076923076906" r="2.5"/><desc class="value">1.0000</desc><desc class="x left">590.9230769230769</desc><desc class="y left">6.423076923076906</desc><desc class="x_label">270.0</desc></g><g class="dots"><circle class="dot reactive tooltip-trigger" cx="655.1538461538462" cy="6.423076923076906" r="2.5"/><desc class="value">1.0000</desc><desc class="x left">655.1538461538462</desc><desc class="y left">6.423076923076906</desc><desc class="x_label">300.0</desc></g></g><g class="series serie-2 color-2"><g class="dots"><circle class="dot reactive tooltip-trigger" cx="12.846153846153845" cy="6.423076923076906" r="2.5"/><desc class="value">1.0000</desc><desc class="x ">12.846153846153845</desc><desc class="y ">6.423076923076906</desc><desc class="x_label">0.0</desc></g><g class="dots"><circle class="dot reactive tooltip-trigger" cx="77.07692307692308" cy="6.423076923076906" r="2.5"/><desc class="value">1.0000</desc><desc class="x ">77.07692307692308</desc><desc class="y ">6.423076923076906</desc><desc class="x_label">30.0</desc></g><g class="dots"><circle class="dot reactive tooltip-trigger" cx="141.30769230769232" cy="196.0698335382038" r="2.5"/><desc class="value">0.4095</desc><desc class="x top">141.30769230769232</desc><desc class="y top">196.0698335382038</desc><desc class="x_label">60.0</desc></g><g class="dots"><circle class="dot reactive tooltip-trigger" cx="205.53846153846152" cy="86.02460409267115" r="2.5"/><desc class="value">0.7521</desc><desc class="x ">205.53846153846152</desc><desc class="y ">86.02460409267115</desc><desc class="x_label">90.0</desc></g><g class="dots"><circle class="dot reactive tooltip-trigger" cx="269.7692307692308" cy="73.21497086787292" r="2.5"/><desc class="value">0.7920</desc><desc class="x ">269.7692307692308</desc><desc class="y ">73.21497086787292</desc><desc class="x_label">120.0</desc></g><g class="dots"><circle class="dot reactive tooltip-trigger" cx="334.0" cy="191.85494257889584" r="2.5"/><desc class="value">0.4226</desc><desc class="x top">334.0</desc><desc class="y top">191.85494257889584</desc><desc class="x_label">150.0</desc></g><g class="dots"><circle class="dot reactive tooltip-trigger" cx="398.2307692307692" cy="243.70281260158683" r="2.5"/><desc class="value">0.2612</desc><desc class="x left top">398.2307692307692</desc><desc class="y left top">243.70281260158683</desc><desc class="x_label">180.0</desc></g><g class="dots"><circle class="dot reactive tooltip-trigger" cx="462.46153846153845" cy="260.03880371467517" r="2.5"/><desc class="value">0.2103</desc><desc class="x left top">462.46153846153845</desc><desc class="y left top">260.03880371467517</desc><desc class="x_label">210.0</desc></g><g class="dots"><circle class="dot reactive tooltip-trigger" cx="526.6923076923076" cy="272.4350044530554" r="2.5"/><desc class="value">0.1717</desc><desc class="x left top">526.6923076923076</desc><desc class="y left top">272.4350044530554</desc><desc class="x_label">240.0</desc></g><g class="dots"><circle class="dot reactive tooltip-trigger" cx="590.9230769230769" cy="6.423076923076906" r="2.5"/><desc class="value">1.0000</desc><desc class="x left">590.9230769230769</desc><desc class="y left">6.423076923076906</desc><desc class="x_label">270.0</desc></g><g class="dots"><circle class="dot reactive tooltip-trigger" cx="655.1538461538462" cy="6.423076923076906" r="2.5"/><desc class="value">1.0000</desc><desc class="x left">655.1538461538462</desc><desc class="y left">6.423076923076906</desc><desc class="x_label">300.0</desc></g></g><g class="series serie-3 color-3"><g class="dots"><circle class="dot reactive tooltip-trigger" cx="12.846153846153845" cy="6.423076923076906" r="2.5"/><desc class="value">1.0000</desc><desc class="x ">12.846153846153845</desc><desc class="y ">6.423076923076906</desc><desc class="x_label">0.0</desc></g><g class="dots"><circle class="dot reactive tooltip-trigger" cx="77.07692307692308" cy="6.423076923076906" r="2.5"/><desc class="value">1.0000</desc><desc class="x ">77.07692307692308</desc><desc class="y ">6.423076923076906</desc><desc class="x_label">30.0</desc></g><g class="dots"><circle class="dot reactive tooltip-trigger" cx="141.30769230769232" cy="73.43225910954271" r="2.5"/><desc class="value">0.7913</desc><desc class="x ">141.30769230769232</desc><desc class="y ">73.43225910954271</desc><desc class="x_label">60.0</desc></g><g class="dots"><circle class="dot reactive tooltip-trigger" cx="205.53846153846152" cy="55.34604172109158" r="2.5"/><desc class="value">0.8477</desc><desc class="x ">205.53846153846152</desc><desc class="y ">55.34604172109158</desc><desc class="x_label">90.0</desc></g><g class="dots"><circle class="dot reactive tooltip-trigger" cx="269.7692307692308" cy="39.239833208299615" r="2.5"/><desc class="value">0.8978</desc><desc class="x ">269.7692307692308</desc><desc class="y ">39.239833208299615</desc><desc class="x_label">120.0</desc></g><g class="dots"><circle class="dot reactive tooltip-trigger" cx="334.0" cy="51.06208696453302" r="2.5"/><desc class="value">0.8610</desc><desc class="x ">334.0</desc><desc class="y ">51.06208696453302</desc><desc class="x_label">150.0</desc></g><g class="dots"><circle class="dot reactive tooltip-trigger" cx="398.2307692307692" cy="50.40592516398431" r="2.5"/><desc class="value">0.8630</desc><desc class="x left">398.2307692307692</desc><desc class="y left">50.40592516398431</desc><desc class="x_label">180.0</desc></g><g class="dots"><circle class="dot reactive tooltip-trigger" cx="462.46153846153845" cy="73.37761637684986" r="2.5"/><desc class="value">0.7915</desc><desc class="x left">462.46153846153845</desc><desc class="y left">73.37761637684986</desc><desc class="x_label">210.0</desc></g><g class="dots"><circle class="dot reactive tooltip-trigger" cx="526.6923076923076" cy="167.0" r="2.5"/><desc class="value">0.5000</desc><desc class="x left">526.6923076923076</desc><desc class="y left">167.0</desc><desc class="x_label">240.0</desc></g><g class="dots"><circle class="dot reactive tooltip-trigger" cx="590.9230769230769" cy="6.423076923076906" r="2.5"/><desc class="value">1.0000</desc><desc class="x left">590.9230769230769</desc><desc class="y left">6.423076923076906</desc><desc class="x_label">270.0</desc></g><g class="dots"><circle class="dot reactive tooltip-trigger" cx="655.1538461538462" cy="6.423076923076906" r="2.5"/><desc class="value">1.0000</desc><desc class="x left">655.1538461538462</desc><desc class="y left">6.423076923076906</desc><desc class="x_label">300.0</desc></g></g><g class="series serie-4 color-4"><g class="dots"><circle class="dot reactive tooltip-trigger" cx="12.846153846153845" cy="6.423076923076906" r="2.5"/><desc class="value">1.0000</desc><desc class="x ">12.846153846153845</desc><desc class="y ">6.423076923076906</desc><desc class="x_label">0.0</desc></g><g class="dots"><circle class="dot reactive tooltip-trigger" cx="77.07692307692308" cy="6.423076923076906" r="2.5"/><desc class="value">1.0000</desc><desc class="x ">77.07692307692308</desc><desc class="y ">6.423076923076906</desc><desc class="x_label">30.0</desc></g><g class="dots"><circle class="dot reactive tooltip-trigger" cx="141.30769230769232" cy="73.41625042690345" r="2.5"/><desc class="value">0.7914</desc><desc class="x ">141.30769230769232</desc><desc class="y ">73.41625042690345</desc><desc class="x_label">60.0</desc></g><g class="dots"><circle class="dot reactive tooltip-trigger" cx="205.53846153846152" cy="68.81929098446454" r="2.5"/><desc class="value">0.8057</desc><desc class="x ">205.53846153846152</desc><desc class="y ">68.81929098446454</desc><desc class="x_label">90.0</desc></g><g class="dots"><circle class="dot reactive tooltip-trigger" cx="269.7692307692308" cy="40.55375816146034" r="2.5"/><desc class="value">0.8937</desc><desc class="x ">269.7692307692308</desc><desc class="y ">40.55375816146034</desc><desc class="x_label">120.0</desc></g><g class="dots"><circle class="dot reactive tooltip-trigger" cx="334.0" cy="52.49183318699312" r="2.5"/><desc class="value">0.8566</desc><desc class="x ">334.0</desc><desc class="y ">52.49183318699312</desc><desc class="x_label">150.0</desc></g><g class="dots"><circle class="dot reactive tooltip-trigger" cx="398.2307692307692" cy="122.76380019578858" r="2.5"/><desc class="value">0.6377</desc><desc class="x left">398.2307692307692</desc><desc class="y left">122.76380019578858</desc><desc class="x_label">180.0</desc></g><g class="dots"><circle class="dot reactive tooltip-trigger" cx="462.46153846153845" cy="252.5366689443439" r="2.5"/><desc class="value">0.2337</desc><desc class="x left top">462.46153846153845</desc><desc class="y left top">252.5366689443439</desc><desc class="x_label">210.0</desc></g><g class="dots"><circle class="dot reactive tooltip-trigger" cx="526.6923076923076" cy="272.4350044530554" r="2.5"/><desc class="value">0.1717</desc><desc class="x left top">526.6923076923076</desc><desc class="y left top">272.4350044530554</desc><desc class="x_label">240.0</desc></g><g class="dots"><circle class="dot reactive tooltip-trigger" cx="590.9230769230769" cy="6.423076923076906" r="2.5"/><desc class="value">1.0000</desc><desc class="x left">590.9230769230769</desc><desc class="y left">6.423076923076906</desc><desc class="x_label">270.0</desc></g><g class="dots"><circle class="dot reactive tooltip-trigger" cx="655.1538461538462" cy="6.423076923076906" r="2.5"/><desc class="value">1.0000</desc><desc class="x left">655.1538461538462</desc><desc class="y left">6.423076923076906</desc><desc class="x_label">300.0</desc></g></g><g class="series serie-5 color-5"><g class="dots"><circle class="dot reactive tooltip-trigger" cx="12.846153846153845" cy="6.423076923076906" r="2.5"/><desc class="value">1.0000</desc><desc class="x ">12.846153846153845</desc><desc class="y ">6.423076923076906</desc><desc class="x_label">0.0</desc></g><g class="dots"><circle class="dot reactive tooltip-trigger" cx="77.07692307692308" cy="6.423076923076906" r="2.5"/><desc class="value">1.0000</desc><desc class="x ">77.07692307692308</desc><desc class="y ">6.423076923076906</desc><desc class="x_label">30.0</desc></g><g class="dots"><circle class="dot reactive tooltip-trigger" cx="141.30769230769232" cy="75.67182194475737" r="2.5"/><desc class="value">0.7844</desc><desc class="x ">141.30769230769232</desc><desc class="y ">75.67182194475737</desc><desc class="x_label">60.0</desc></g><g class="dots"><circle class="dot reactive tooltip-trigger" cx="205.53846153846152" cy="71.17787374886069" r="2.5"/><desc class="value">0.7984</desc><desc class="x ">205.53846153846152</desc><desc class="y ">71.17787374886069</desc><desc class="x_label">90.0</desc></g><g class="dots"><circle class="dot reactive tooltip-trigger" cx="269.7692307692308" cy="41.339361654468064" r="2.5"/><desc class="value">0.8913</desc><desc class="x ">269.7692307692308</desc><desc class="y ">41.339361654468064</desc><desc class="x_label">120.0</desc></g><g class="dots"><circle class="dot reactive tooltip-trigger" cx="334.0" cy="59.537114643513405" r="2.5"/><desc class="value">0.8346</desc><desc class="x ">334.0</desc><desc class="y ">59.537114643513405</desc><desc class="x_label">150.0</desc></g><g class="dots"><circle class="dot reactive tooltip-trigger" cx="398.2307692307692" cy="134.16115733588944" r="2.5"/><desc class="value">0.6023</desc><desc class="x left">398.2307692307692</desc><desc class="y left">134.16115733588944</desc><desc class="x_label">180.0</desc></g><g class="dots"><circle class="dot reactive tooltip-trigger" cx="462.46153846153845" cy="252.5366689443439" r="2.5"/><desc class="value">0.2337</desc><desc class="x left top">462.46153846153845</desc><desc class="y left top">252.5366689443439</desc><desc class="x_label">210.0</desc></g><g class="dots"><circle class="dot reactive tooltip-trigger" cx="526.6923076923076" cy="249.91543137091094" r="2.5"/><desc class="value">0.2418</desc><desc class="x left top">526.6923076923076</desc><desc class="y left top">249.91543137091094</desc><desc class="x_label">240.0</desc></g><g class="dots"><circle class="dot reactive tooltip-trigger" cx="590.9230769230769" cy="6.423076923076906" r="2.5"/><desc class="value">1.0000</desc><desc class="x left">590.9230769230769</desc><desc class="y left">6.423076923076906</desc><desc class="x_label">270.0</desc></g><g class="dots"><circle class="dot reactive tooltip-trigger" cx="655.1538461538462" cy="6.423076923076906" r="2.5"/><desc class="value">1.0000</desc><desc class="x left">655.1538461538462</desc><desc class="y left">6.423076923076906</desc><desc class="x_label">300.0</desc></g></g></g><g class="plot text-overlay" transform="translate(112, 48)"><g class="series serie-0 color-0"/><g class="series serie-1 color-1"/><g class="series serie-2 color-2"/><g class="series serie-3 color-3"/><g class="series serie-4 color-4"/><g class="series serie-5 color-5"/></g><g class="plot tooltip-overlay" transform="translate(112, 48)"><g class="tooltip" style="opacity: 0" transform="translate(0 0)"><rect class="tooltip-box" height="0" rx="0" ry="0" width="0"/><g class="text"/></g></g><g class="legends" transform="translate(122, 485)"><g class="legend reactive activate-serie" id="activate-serie-0"><rect class="color-0 reactive" height="12" width="12" x="0.0" y="1.5"/><text x="17.0" y="12.0">boeck2015/tempodetector2016_default</text></g><g class="legend reactive activate-serie" id="activate-serie-1"><rect class="color-1 reactive" height="12" width="12" x="334.0" y="1.5"/><text x="351.0" y="12.0">davies2009/mirex_qm_tempotracker</text></g><g class="legend reactive activate-serie" id="activate-serie-2"><rect class="color-2 reactive" height="12" width="12" x="0.0" y="24.0"/><text x="17.0" y="34.5">percival2014/stem</text></g><g class="legend reactive activate-serie" id="activate-serie-3"><rect class="color-3 reactive" height="12" width="12" x="334.0" y="24.0"/><text x="351.0" y="34.5">schreiber2014/default</text></g><g class="legend reactive activate-serie" id="activate-serie-4"><rect class="color-4 reactive" height="12" width="12" x="0.0" y="46.5"/><text x="17.0" y="57.0">schreiber2017/ismir2017</text></g><g class="legend reactive activate-serie" id="activate-serie-5"><rect class="color-5 reactive" height="12" width="12" x="334.0" y="46.5"/><text x="351.0" y="57.0">schreiber2017/mirex2017</text></g></g></g></svg>