<?xml version='1.0' encoding='utf-8'?>
<svg xmlns:xlink="http://www.w3.org/1999/xlink" xmlns="http://www.w3.org/2000/svg" id="chart-df16387c-38d6-494a-af4f-854a46884a86" class="pygal-chart" viewBox="0 0 800 600"><!--Generated with pygal 2.4.0 (lxml) ©Kozea 2012-2016 on 2020-05-05--><!--http://pygal.org--><!--http://github.com/Kozea/pygal--><defs><style type="text/css">#chart-df16387c-38d6-494a-af4f-854a46884a86{-webkit-user-select:none;-webkit-font-smoothing:antialiased;font-family:Helvetica,Arial,sans-serif}#chart-df16387c-38d6-494a-af4f-854a46884a86 .title{font-family:Helvetica,Arial,sans-serif;font-size:18px}#chart-df16387c-38d6-494a-af4f-854a46884a86 .legends .legend text{font-family:Helvetica,Arial,sans-serif;font-size:15px}#chart-df16387c-38d6-494a-af4f-854a46884a86 .axis text{font-family:Helvetica,Arial,sans-serif;font-size:15px}#chart-df16387c-38d6-494a-af4f-854a46884a86 .axis text.major{font-family:Helvetica,Arial,sans-serif;font-size:15px}#chart-df16387c-38d6-494a-af4f-854a46884a86 .text-overlay text.value{font-family:Helvetica,Arial,sans-serif;font-size:15px}#chart-df16387c-38d6-494a-af4f-854a46884a86 .text-overlay text.label{font-family:Helvetica,Arial,sans-serif;font-size:15px}#chart-df16387c-38d6-494a-af4f-854a46884a86 .tooltip{font-family:Helvetica,Arial,sans-serif;font-size:14px}#chart-df16387c-38d6-494a-af4f-854a46884a86 text.no_data{font-family:Helvetica,Arial,sans-serif;font-size:64px}
#chart-df16387c-38d6-494a-af4f-854a46884a86{background-color:transparent}#chart-df16387c-38d6-494a-af4f-854a46884a86 path,#chart-df16387c-38d6-494a-af4f-854a46884a86 line,#chart-df16387c-38d6-494a-af4f-854a46884a86 rect,#chart-df16387c-38d6-494a-af4f-854a46884a86 circle{-webkit-transition:150ms;-moz-transition:150ms;transition:150ms}#chart-df16387c-38d6-494a-af4f-854a46884a86 .graph &gt; .background{fill:transparent}#chart-df16387c-38d6-494a-af4f-854a46884a86 .plot &gt; .background{fill:white}#chart-df16387c-38d6-494a-af4f-854a46884a86 .graph{fill:rgba(0,0,0,.87)}#chart-df16387c-38d6-494a-af4f-854a46884a86 text.no_data{fill:rgba(0,0,0,1)}#chart-df16387c-38d6-494a-af4f-854a46884a86 .title{fill:rgba(0,0,0,1)}#chart-df16387c-38d6-494a-af4f-854a46884a86 .legends .legend text{fill:rgba(0,0,0,.87)}#chart-df16387c-38d6-494a-af4f-854a46884a86 .legends .legend:hover text{fill:rgba(0,0,0,1)}#chart-df16387c-38d6-494a-af4f-854a46884a86 .axis .line{stroke:rgba(0,0,0,1)}#chart-df16387c-38d6-494a-af4f-854a46884a86 .axis .guide.line{stroke:rgba(0,0,0,.54)}#chart-df16387c-38d6-494a-af4f-854a46884a86 .axis .major.line{stroke:rgba(0,0,0,.87)}#chart-df16387c-38d6-494a-af4f-854a46884a86 .axis text.major{fill:rgba(0,0,0,1)}#chart-df16387c-38d6-494a-af4f-854a46884a86 .axis.y .guides:hover .guide.line,#chart-df16387c-38d6-494a-af4f-854a46884a86 .line-graph .axis.x .guides:hover .guide.line,#chart-df16387c-38d6-494a-af4f-854a46884a86 .stackedline-graph .axis.x .guides:hover .guide.line,#chart-df16387c-38d6-494a-af4f-854a46884a86 .xy-graph .axis.x .guides:hover .guide.line{stroke:rgba(0,0,0,1)}#chart-df16387c-38d6-494a-af4f-854a46884a86 .axis .guides:hover text{fill:rgba(0,0,0,1)}#chart-df16387c-38d6-494a-af4f-854a46884a86 .reactive{fill-opacity:.7;stroke-opacity:.8}#chart-df16387c-38d6-494a-af4f-854a46884a86 .ci{stroke:rgba(0,0,0,.87)}#chart-df16387c-38d6-494a-af4f-854a46884a86 .reactive.active,#chart-df16387c-38d6-494a-af4f-854a46884a86 .active .reactive{fill-opacity:.8;stroke-opacity:.9;stroke-width:4}#chart-df16387c-38d6-494a-af4f-854a46884a86 .ci .reactive.active{stroke-width:1.5}#chart-df16387c-38d6-494a-af4f-854a46884a86 .series text{fill:rgba(0,0,0,1)}#chart-df16387c-38d6-494a-af4f-854a46884a86 .tooltip rect{fill:white;stroke:rgba(0,0,0,1);-webkit-transition:opacity 150ms;-moz-transition:opacity 150ms;transition:opacity 150ms}#chart-df16387c-38d6-494a-af4f-854a46884a86 .tooltip .label{fill:rgba(0,0,0,.87)}#chart-df16387c-38d6-494a-af4f-854a46884a86 .tooltip .label{fill:rgba(0,0,0,.87)}#chart-df16387c-38d6-494a-af4f-854a46884a86 .tooltip .legend{font-size:.8em;fill:rgba(0,0,0,.54)}#chart-df16387c-38d6-494a-af4f-854a46884a86 .tooltip .x_label{font-size:.6em;fill:rgba(0,0,0,1)}#chart-df16387c-38d6-494a-af4f-854a46884a86 .tooltip .xlink{font-size:.5em;text-decoration:underline}#chart-df16387c-38d6-494a-af4f-854a46884a86 .tooltip .value{font-size:1.5em}#chart-df16387c-38d6-494a-af4f-854a46884a86 .bound{font-size:.5em}#chart-df16387c-38d6-494a-af4f-854a46884a86 .max-value{font-size:.75em;fill:rgba(0,0,0,.54)}#chart-df16387c-38d6-494a-af4f-854a46884a86 .map-element{fill:white;stroke:rgba(0,0,0,.54) !important}#chart-df16387c-38d6-494a-af4f-854a46884a86 .map-element .reactive{fill-opacity:inherit;stroke-opacity:inherit}#chart-df16387c-38d6-494a-af4f-854a46884a86 .color-0,#chart-df16387c-38d6-494a-af4f-854a46884a86 .color-0 a:visited{stroke:#F44336;fill:#F44336}#chart-df16387c-38d6-494a-af4f-854a46884a86 .color-1,#chart-df16387c-38d6-494a-af4f-854a46884a86 .color-1 a:visited{stroke:#3F51B5;fill:#3F51B5}#chart-df16387c-38d6-494a-af4f-854a46884a86 .color-2,#chart-df16387c-38d6-494a-af4f-854a46884a86 .color-2 a:visited{stroke:#009688;fill:#009688}#chart-df16387c-38d6-494a-af4f-854a46884a86 .color-3,#chart-df16387c-38d6-494a-af4f-854a46884a86 .color-3 a:visited{stroke:#FFC107;fill:#FFC107}#chart-df16387c-38d6-494a-af4f-854a46884a86 .color-4,#chart-df16387c-38d6-494a-af4f-854a46884a86 .color-4 a:visited{stroke:#FF5722;fill:#FF5722}#chart-df16387c-38d6-494a-af4f-854a46884a86 .color-5,#chart-df16387c-38d6-494a-af4f-854a46884a86 .color-5 a:visited{stroke:#9C27B0;fill:#9C27B0}#chart-df16387c-38d6-494a-af4f-854a46884a86 .text-overlay .color-0 text{fill:black}#chart-df16387c-38d6-494a-af4f-854a46884a86 .text-overlay .color-1 text{fill:black}#chart-df16387c-38d6-494a-af4f-854a46884a86 .text-overlay .color-2 text{fill:black}#chart-df16387c-38d6-494a-af4f-854a46884a86 .text-overlay .color-3 text{fill:black}#chart-df16387c-38d6-494a-af4f-854a46884a86 .text-overlay .color-4 text{fill:black}#chart-df16387c-38d6-494a-af4f-854a46884a86 .text-overlay .color-5 text{fill:black}
#chart-df16387c-38d6-494a-af4f-854a46884a86 text.no_data{text-anchor:middle}#chart-df16387c-38d6-494a-af4f-854a46884a86 .guide.line{fill:none}#chart-df16387c-38d6-494a-af4f-854a46884a86 .centered{text-anchor:middle}#chart-df16387c-38d6-494a-af4f-854a46884a86 .title{text-anchor:middle}#chart-df16387c-38d6-494a-af4f-854a46884a86 .legends .legend text{fill-opacity:1}#chart-df16387c-38d6-494a-af4f-854a46884a86 .axis.x text{text-anchor:middle}#chart-df16387c-38d6-494a-af4f-854a46884a86 .axis.x:not(.web) text[transform]{text-anchor:start}#chart-df16387c-38d6-494a-af4f-854a46884a86 .axis.x:not(.web) text[transform].backwards{text-anchor:end}#chart-df16387c-38d6-494a-af4f-854a46884a86 .axis.y text{text-anchor:end}#chart-df16387c-38d6-494a-af4f-854a46884a86 .axis.y text[transform].backwards{text-anchor:start}#chart-df16387c-38d6-494a-af4f-854a46884a86 .axis.y2 text{text-anchor:start}#chart-df16387c-38d6-494a-af4f-854a46884a86 .axis.y2 text[transform].backwards{text-anchor:end}#chart-df16387c-38d6-494a-af4f-854a46884a86 .axis .guide.line{stroke-dasharray:1}#chart-df16387c-38d6-494a-af4f-854a46884a86 .axis .major.guide.line{stroke-dasharray:1}#chart-df16387c-38d6-494a-af4f-854a46884a86 .horizontal .axis.y .guide.line,#chart-df16387c-38d6-494a-af4f-854a46884a86 .horizontal .axis.y2 .guide.line,#chart-df16387c-38d6-494a-af4f-854a46884a86 .vertical .axis.x .guide.line{opacity:0}#chart-df16387c-38d6-494a-af4f-854a46884a86 .horizontal .axis.always_show .guide.line,#chart-df16387c-38d6-494a-af4f-854a46884a86 .vertical .axis.always_show .guide.line{opacity:1 !important}#chart-df16387c-38d6-494a-af4f-854a46884a86 .axis.y .guides:hover .guide.line,#chart-df16387c-38d6-494a-af4f-854a46884a86 .axis.y2 .guides:hover .guide.line,#chart-df16387c-38d6-494a-af4f-854a46884a86 .axis.x .guides:hover .guide.line{opacity:1}#chart-df16387c-38d6-494a-af4f-854a46884a86 .axis .guides:hover text{opacity:1}#chart-df16387c-38d6-494a-af4f-854a46884a86 .nofill{fill:none}#chart-df16387c-38d6-494a-af4f-854a46884a86 .subtle-fill{fill-opacity:.2}#chart-df16387c-38d6-494a-af4f-854a46884a86 .dot{stroke-width:1px;fill-opacity:1}#chart-df16387c-38d6-494a-af4f-854a46884a86 .dot.active{stroke-width:5px}#chart-df16387c-38d6-494a-af4f-854a46884a86 .dot.negative{fill:transparent}#chart-df16387c-38d6-494a-af4f-854a46884a86 text,#chart-df16387c-38d6-494a-af4f-854a46884a86 tspan{stroke:none !important}#chart-df16387c-38d6-494a-af4f-854a46884a86 .series text.active{opacity:1}#chart-df16387c-38d6-494a-af4f-854a46884a86 .tooltip rect{fill-opacity:.95;stroke-width:.5}#chart-df16387c-38d6-494a-af4f-854a46884a86 .tooltip text{fill-opacity:1}#chart-df16387c-38d6-494a-af4f-854a46884a86 .showable{visibility:hidden}#chart-df16387c-38d6-494a-af4f-854a46884a86 .showable.shown{visibility:visible}#chart-df16387c-38d6-494a-af4f-854a46884a86 .gauge-background{fill:rgba(229,229,229,1);stroke:none}#chart-df16387c-38d6-494a-af4f-854a46884a86 .bg-lines{stroke:transparent;stroke-width:2px}</style><script type="text/javascript">window.pygal = window.pygal || {};window.pygal.config = window.pygal.config || {};window.pygal.config['df16387c-38d6-494a-af4f-854a46884a86'] = {"allow_interruptions": false, "box_mode": "extremes", "classes": ["pygal-chart"], "css": ["file://style.css", "file://graph.css"], "defs": [], "disable_xml_declaration": false, "dots_size": 2.5, "dynamic_print_values": false, "explicit_size": false, "fill": false, "force_uri_protocol": "https", "formatter": null, "half_pie": false, "height": 600, "include_x_axis": false, "inner_radius": 0, "interpolate": null, "interpolation_parameters": {}, "interpolation_precision": 250, "inverse_y_axis": false, "js": ["//kozea.github.io/pygal.js/2.0.x/pygal-tooltips.min.js"], "legend_at_bottom": true, "legend_at_bottom_columns": 2, "legend_box_size": 12, "logarithmic": false, "margin": 20, "margin_bottom": 65, "margin_left": null, "margin_right": null, "margin_top": null, "max_scale": 16, "min_scale": 4, "missing_value_fill_truncation": "x", "no_data_text": "No data", "no_prefix": false, "order_min": null, "pretty_print": false, "print_labels": false, "print_values": false, "print_values_position": "center", "print_zeroes": true, "range": [0.0, 1.0], "rounded_bars": null, "secondary_range": null, "show_dots": true, "show_legend": true, "show_minor_x_labels": false, "show_minor_y_labels": true, "show_only_major_dots": true, "show_x_guides": true, "show_x_labels": true, "show_y_guides": true, "show_y_labels": true, "spacing": 10, "stack_from_top": false, "strict": false, "stroke": true, "stroke_style": null, "style": {"background": "transparent", "ci_colors": [], "colors": ["#F44336", "#3F51B5", "#009688", "#FFC107", "#FF5722", "#9C27B0", "#03A9F4", "#8BC34A", "#FF9800", "#E91E63", "#2196F3", "#4CAF50", "#FFEB3B", "#673AB7", "#00BCD4", "#CDDC39", "#9E9E9E", "#607D8B"], "font_family": "Helvetica, Arial, sans-serif", "foreground": "rgba(0, 0, 0, .87)", "foreground_strong": "rgba(0, 0, 0, 1)", "foreground_subtle": "rgba(0, 0, 0, .54)", "guide_stroke_dasharray": 1, "label_font_family": "Helvetica, Arial, sans-serif", "label_font_size": 15, "legend_font_family": "Helvetica, Arial, sans-serif", "legend_font_size": 15, "major_guide_stroke_dasharray": 1, "major_label_font_family": "Helvetica, Arial, sans-serif", "major_label_font_size": 15, "no_data_font_family": "Helvetica, Arial, sans-serif", "no_data_font_size": 64, "opacity": ".7", "opacity_hover": ".8", "plot_background": "white", "stroke_opacity": ".8", "stroke_opacity_hover": ".9", "title_font_family": "Helvetica, Arial, sans-serif", "title_font_size": 18, "tooltip_font_family": "Helvetica, Arial, sans-serif", "tooltip_font_size": 14, "transition": "150ms", "value_background": "rgba(229, 229, 229, 1)", "value_colors": [], "value_font_family": "Helvetica, Arial, sans-serif", "value_font_size": 15, "value_label_font_family": "Helvetica, Arial, sans-serif", "value_label_font_size": 15}, "title": "Mean One Correct for Tempo T \u00b110.0 BPM", "tooltip_border_radius": 0, "tooltip_fancy_mode": true, "truncate_label": null, "truncate_legend": -1, "width": 800, "x_label_rotation": 90, "x_labels": ["0.0", "1.0", "2.0", "3.0", "4.0", "5.0", "6.0", "7.0", "8.0", "9.0", "10.0", "11.0", "12.0", "13.0", "14.0", "15.0", "16.0", "17.0", "18.0", "19.0", "20.0", "21.0", "22.0", "23.0", "24.0", "25.0", "26.0", "27.0", "28.0", "29.0", "30.0", "31.0", "32.0", "33.0", "34.0", "35.0", "36.0", "37.0", "38.0", "39.0", "40.0", "41.0", "42.0", "43.0", "44.0", "45.0", "46.0", "47.0", "48.0", "49.0", "50.0", "51.0", "52.0", "53.0", "54.0", "55.0", "56.0", "57.0", "58.0", "59.0", "60.0", "61.0", "62.0", "63.0", "64.0", "65.0", "66.0", "67.0", "68.0", "69.0", "70.0", "71.0", "72.0", "73.0", "74.0", "75.0", "76.0", "77.0", "78.0", "79.0", "80.0", "81.0", "82.0", "83.0", "84.0", "85.0", "86.0", "87.0", "88.0", "89.0", "90.0", "91.0", "92.0", "93.0", "94.0", "95.0", "96.0", "97.0", "98.0", "99.0", "100.0", "101.0", "102.0", "103.0", "104.0", "105.0", "106.0", "107.0", "108.0", "109.0", "110.0", "111.0", "112.0", "113.0", "114.0", "115.0", "116.0", "117.0", "118.0", "119.0", "120.0", "121.0", "122.0", "123.0", "124.0", "125.0", "126.0", "127.0", "128.0", "129.0", "130.0", "131.0", "132.0", "133.0", "134.0", "135.0", "136.0", "137.0", "138.0", "139.0", "140.0", "141.0", "142.0", "143.0", "144.0", "145.0", "146.0", "147.0", "148.0", "149.0", "150.0", "151.0", "152.0", "153.0", "154.0", "155.0", "156.0", "157.0", "158.0", "159.0", "160.0", "161.0", "162.0", "163.0", "164.0", "165.0", "166.0", "167.0", "168.0", "169.0", "170.0", "171.0", "172.0", "173.0", "174.0", "175.0", "176.0", "177.0", "178.0", "179.0", "180.0", "181.0", "182.0", "183.0", "184.0", "185.0", "186.0", "187.0", "188.0", "189.0", "190.0", "191.0", "192.0", "193.0", "194.0", "195.0", "196.0", "197.0", "198.0", "199.0", "200.0", "201.0", "202.0", "203.0", "204.0", "205.0", "206.0", "207.0", "208.0", "209.0", "210.0", "211.0", "212.0", "213.0", "214.0", "215.0", "216.0", "217.0", "218.0", "219.0", "220.0", "221.0", "222.0", "223.0", "224.0", "225.0", "226.0", "227.0", "228.0", "229.0", "230.0", "231.0", "232.0", "233.0", "234.0", "235.0", "236.0", "237.0", "238.0", "239.0", "240.0", "241.0", "242.0", "243.0", "244.0", "245.0", "246.0", "247.0", "248.0", "249.0", "250.0", "251.0", "252.0", "253.0", "254.0", "255.0", "256.0", "257.0", "258.0", "259.0", "260.0", "261.0", "262.0", "263.0", "264.0", "265.0", "266.0", "267.0", "268.0", "269.0", "270.0", "271.0", "272.0", "273.0", "274.0", "275.0", "276.0", "277.0", "278.0", "279.0", "280.0", "281.0", "282.0", "283.0", "284.0", "285.0", "286.0", "287.0", "288.0", "289.0", "290.0", "291.0", "292.0", "293.0", "294.0", "295.0", "296.0", "297.0", "298.0", "299.0", "300.0"], "x_labels_major": null, "x_labels_major_count": 11, "x_labels_major_every": null, "x_title": "T (BPM)", "xrange": null, "y_label_rotation": 0, "y_labels": null, "y_labels_major": null, "y_labels_major_count": null, "y_labels_major_every": null, "y_title": "Mean One Correct", "zero": 0, "legends": ["boeck2015/tempodetector2016_default", "davies2009/mirex_qm_tempotracker", "percival2014/stem", "schreiber2014/default", "schreiber2017/ismir2017", "schreiber2017/mirex2017"]}</script><script type="text/javascript" xlink:href="https://kozea.github.io/pygal.js/2.0.x/pygal-tooltips.min.js"/></defs><title>Mean One Correct for Tempo T ±10.0 BPM</title><g class="graph line-graph vertical"><rect class="background" height="600" width="800" x="0" y="0"/><g class="plot" transform="translate(112, 48)"><rect class="background" height="334.0" width="668.0" x="0" y="0"/><g class="axis y always_show"><g class="guides"><path class="major line" d="M0.000000 327.576923 h668.000000"/><text class="major" x="-5" y="332.8269230769231">0.0000</text><title>0.0000</title></g><g class="guides"><path class="guide line" d="M0.000000 295.461538 h668.000000"/><text class="" x="-5" y="300.71153846153845">0.1000</text><title>0.1000</title></g><g class="guides"><path class="guide line" d="M0.000000 263.346154 h668.000000"/><text class="" x="-5" y="268.5961538461538">0.2000</text><title>0.2000</title></g><g class="guides"><path class="guide line" d="M0.000000 231.230769 h668.000000"/><text class="" x="-5" y="236.48076923076923">0.3000</text><title>0.3000</title></g><g class="guides"><path class="guide line" d="M0.000000 199.115385 h668.000000"/><text class="" x="-5" y="204.3653846153846">0.4000</text><title>0.4000</title></g><g class="guides"><path class="major guide line" d="M0.000000 167.000000 h668.000000"/><text class="major" x="-5" y="172.25">0.5000</text><title>0.5000</title></g><g class="guides"><path class="guide line" d="M0.000000 134.884615 h668.000000"/><text class="" x="-5" y="140.1346153846154">0.6000</text><title>0.6000</title></g><g class="guides"><path class="guide line" d="M0.000000 102.769231 h668.000000"/><text class="" x="-5" y="108.01923076923077">0.7000</text><title>0.7000</title></g><g class="guides"><path class="guide line" d="M0.000000 70.653846 h668.000000"/><text class="" x="-5" y="75.90384615384619">0.8000</text><title>0.8000</title></g><g class="guides"><path class="guide line" d="M0.000000 38.538462 h668.000000"/><text class="" x="-5" y="43.78846153846155">0.9000</text><title>0.9000</title></g><g class="guides"><path class="major guide line" d="M0.000000 6.423077 h668.000000"/><text class="major" x="-5" y="11.673076923076906">1.0000</text><title>1.0000</title></g></g><g class="axis x always_show"><g class="guides"><path class="major line" d="M12.846154 0.000000 v334.000000"/><text class="major" x="12.846153846153845" y="351.5" transform="rotate(90 12.846154 351.500000)">0.0</text></g><g class="guides"><path class="major guide line" d="M77.076923 0.000000 v334.000000"/><text class="major" x="77.07692307692308" y="351.5" transform="rotate(90 77.076923 351.500000)">30.0</text></g><g class="guides"><path class="major guide line" d="M141.307692 0.000000 v334.000000"/><text class="major" x="141.30769230769232" y="351.5" transform="rotate(90 141.307692 351.500000)">60.0</text></g><g class="guides"><path class="major guide line" d="M205.538462 0.000000 v334.000000"/><text class="major" x="205.53846153846152" y="351.5" transform="rotate(90 205.538462 351.500000)">90.0</text></g><g class="guides"><path class="major guide line" d="M269.769231 0.000000 v334.000000"/><text class="major" x="269.7692307692308" y="351.5" transform="rotate(90 269.769231 351.500000)">120.0</text></g><g class="guides"><path class="major guide line" d="M334.000000 0.000000 v334.000000"/><text class="major" x="334.0" y="351.5" transform="rotate(90 334.000000 351.500000)">150.0</text></g><g class="guides"><path class="major guide line" d="M398.230769 0.000000 v334.000000"/><text class="major" x="398.2307692307692" y="351.5" transform="rotate(90 398.230769 351.500000)">180.0</text></g><g class="guides"><path class="major guide line" d="M462.461538 0.000000 v334.000000"/><text class="major" x="462.46153846153845" y="351.5" transform="rotate(90 462.461538 351.500000)">210.0</text></g><g class="guides"><path class="major guide line" d="M526.692308 0.000000 v334.000000"/><text class="major" x="526.6923076923076" y="351.5" transform="rotate(90 526.692308 351.500000)">240.0</text></g><g class="guides"><path class="major guide line" d="M590.923077 0.000000 v334.000000"/><text class="major" x="590.9230769230769" y="351.5" transform="rotate(90 590.923077 351.500000)">270.0</text></g><g class="guides"><path class="major guide line" d="M655.153846 0.000000 v334.000000"/><text class="major" x="655.1538461538462" y="351.5" transform="rotate(90 655.153846 351.500000)">300.0</text></g></g><g class="series serie-0 color-0"><path class="line reactive nofill" d="M12.846154 6.423077 L14.987179 6.423077 17.128205 6.423077 19.269231 6.423077 21.410256 6.423077 23.551282 6.423077 25.692308 6.423077 27.833333 6.423077 29.974359 6.423077 32.115385 6.423077 34.256410 6.423077 36.397436 6.423077 38.538462 6.423077 40.679487 6.423077 42.820513 6.423077 44.961538 6.423077 47.102564 6.423077 49.243590 6.423077 51.384615 6.423077 53.525641 6.423077 55.666667 6.423077 57.807692 6.423077 59.948718 6.423077 62.089744 6.423077 64.230769 6.423077 66.371795 6.423077 68.512821 6.423077 70.653846 6.423077 72.794872 6.423077 74.935897 6.423077 77.076923 6.423077 79.217949 6.423077 81.358974 6.423077 83.500000 6.423077 85.641026 6.423077 87.782051 6.423077 89.923077 6.423077 92.064103 6.423077 94.205128 327.576923 96.346154 327.576923 98.487179 327.576923 100.628205 327.576923 102.769231 220.525641 104.910256 89.685185 107.051282 95.017241 109.192308 66.172630 111.333333 64.336066 113.474359 70.653846 115.615385 68.869658 117.756410 68.014226 119.897436 64.562997 122.038462 57.131579 124.179487 52.302198 126.320513 48.230086 128.461538 44.205882 130.602564 36.328091 132.743590 33.882328 134.884615 47.616207 137.025641 43.479290 139.166667 41.458042 141.307692 39.418335 143.448718 41.109325 145.589744 39.632875 147.730769 45.517257 149.871795 55.613895 152.012821 49.032571 154.153846 49.714145 156.294872 60.335507 158.435897 53.345410 160.576923 51.211336 162.717949 59.477605 164.858974 57.245751 167.000000 55.533721 169.141026 53.453578 171.282051 53.900093 173.423077 51.205486 175.564103 49.880972 177.705128 49.784208 179.846154 47.424218 181.987179 47.073024 184.128205 43.027360 186.269231 42.444387 188.410256 40.605931 190.551282 39.604470 192.692308 38.137142 194.833333 34.701075 196.974359 40.233296 199.115385 39.793605 201.256410 35.622885 203.397436 36.046018 205.538462 34.356622 207.679487 28.719886 209.820513 28.432097 211.961538 28.462170 214.102564 28.746916 216.243590 25.902745 218.384615 26.608258 220.525641 27.080692 222.666667 25.529513 224.807692 25.482652 226.948718 25.165418 229.089744 25.664741 231.230769 25.693399 233.371795 26.395614 235.512821 27.077722 237.653846 26.638015 239.794872 27.178717 241.935897 17.623706 244.076923 17.455593 246.217949 18.746022 248.358974 23.345213 250.500000 28.304973 252.641026 28.379005 254.782051 29.016815 256.923077 28.709175 259.064103 28.290626 261.205128 28.283860 263.346154 28.129645 265.487179 27.115726 267.628205 27.282458 269.769231 26.459916 271.910256 26.908506 274.051282 26.833758 276.192308 26.899329 278.333333 26.534472 280.474359 26.528181 282.615385 26.537297 284.756410 26.874960 286.897436 27.849347 289.038462 28.171978 291.179487 25.857982 293.320513 22.940225 295.461538 18.029536 297.602564 22.397322 299.743590 23.197551 301.884615 23.686826 304.025641 24.645439 306.166667 24.947548 308.307692 24.791298 310.448718 25.535240 312.589744 24.919912 314.730769 27.751116 316.871795 27.672683 319.012821 28.043532 321.153846 28.117426 323.294872 28.872825 325.435897 28.963208 327.576923 29.606539 329.717949 29.839592 331.858974 28.815455 334.000000 29.676147 336.141026 34.576174 338.282051 33.861044 340.423077 34.878334 342.564103 28.096818 344.705128 24.995141 346.846154 24.968166 348.987179 23.019733 351.128205 22.888153 353.269231 22.995383 355.410256 22.975544 357.551282 25.375068 359.692308 20.094128 361.833333 20.552888 363.974359 18.993181 366.115385 19.187538 368.256410 19.446148 370.397436 20.039249 372.538462 20.149623 374.679487 19.916936 376.820513 18.698068 378.961538 14.062322 381.102564 14.172928 383.243590 11.184118 385.384615 11.209923 387.525641 11.433988 389.666667 11.727420 391.807692 11.619741 393.948718 12.905996 396.089744 13.369832 398.230769 13.838707 400.371795 15.326352 402.512821 16.538159 404.653846 17.642425 406.794872 17.642425 408.935897 19.464857 411.076923 20.162279 413.217949 19.388915 415.358974 17.449818 417.500000 17.449818 419.641026 17.289184 421.782051 17.289184 423.923077 18.220565 426.064103 18.220565 428.205128 17.892857 430.346154 16.824821 432.487179 16.824821 434.628205 18.834820 436.769231 18.154724 438.910256 17.057310 441.051282 17.057310 443.192308 17.200052 445.333333 15.406401 447.474359 11.645091 449.615385 12.157967 451.756410 12.157967 453.897436 22.808477 456.038462 22.808477 458.179487 22.808477 460.320513 21.188771 462.461538 20.539730 464.602564 27.833333 466.743590 27.833333 468.884615 28.829159 471.025641 26.922259 473.166667 30.509615 475.307692 33.950549 477.448718 33.950549 479.589744 39.361933 481.730769 54.001425 483.871795 54.001425 486.012821 54.001425 488.153846 45.350816 490.294872 50.720159 492.435897 50.720159 494.576923 50.720159 496.717949 50.720159 498.858974 24.264957 501.000000 24.264957 503.141026 24.264957 505.282051 24.264957 507.423077 29.362637 509.564103 29.362637 511.705128 29.362637 513.846154 29.362637 515.987179 38.538462 518.128205 38.538462 520.269231 38.538462 522.410256 38.538462 524.551282 6.423077 526.692308 6.423077 528.833333 6.423077 530.974359 6.423077 533.115385 6.423077 535.256410 6.423077 537.397436 6.423077 539.538462 6.423077 541.679487 6.423077 543.820513 6.423077 545.961538 6.423077 548.102564 6.423077 550.243590 6.423077 552.384615 6.423077 554.525641 6.423077 556.666667 6.423077 558.807692 6.423077 560.948718 6.423077 563.089744 6.423077 565.230769 6.423077 567.371795 6.423077 569.512821 6.423077 571.653846 6.423077 573.794872 6.423077 575.935897 6.423077 578.076923 6.423077 580.217949 6.423077 582.358974 6.423077 584.500000 6.423077 586.641026 6.423077 588.782051 6.423077 590.923077 6.423077 593.064103 6.423077 595.205128 6.423077 597.346154 6.423077 599.487179 6.423077 601.628205 6.423077 603.769231 6.423077 605.910256 6.423077 608.051282 6.423077 610.192308 6.423077 612.333333 6.423077 614.474359 6.423077 616.615385 6.423077 618.756410 6.423077 620.897436 6.423077 623.038462 6.423077 625.179487 6.423077 627.320513 6.423077 629.461538 6.423077 631.602564 6.423077 633.743590 6.423077 635.884615 6.423077 638.025641 6.423077 640.166667 6.423077 642.307692 6.423077 644.448718 6.423077 646.589744 6.423077 648.730769 6.423077 650.871795 6.423077 653.012821 6.423077 655.153846 6.423077"/></g><g class="series serie-1 color-1"><path class="line reactive nofill" d="M12.846154 6.423077 L14.987179 6.423077 17.128205 6.423077 19.269231 6.423077 21.410256 6.423077 23.551282 6.423077 25.692308 6.423077 27.833333 6.423077 29.974359 6.423077 32.115385 6.423077 34.256410 6.423077 36.397436 6.423077 38.538462 6.423077 40.679487 6.423077 42.820513 6.423077 44.961538 6.423077 47.102564 6.423077 49.243590 6.423077 51.384615 6.423077 53.525641 6.423077 55.666667 6.423077 57.807692 6.423077 59.948718 6.423077 62.089744 6.423077 64.230769 6.423077 66.371795 6.423077 68.512821 6.423077 70.653846 6.423077 72.794872 6.423077 74.935897 6.423077 77.076923 6.423077 79.217949 6.423077 81.358974 6.423077 83.500000 6.423077 85.641026 6.423077 87.782051 6.423077 89.923077 6.423077 92.064103 6.423077 94.205128 6.423077 96.346154 6.423077 98.487179 6.423077 100.628205 6.423077 102.769231 113.474359 104.910256 125.368946 107.051282 128.240053 109.192308 103.516100 111.333333 90.660151 113.474359 89.005495 115.615385 86.711538 117.756410 85.611697 119.897436 86.711538 122.038462 83.693175 124.179487 78.518838 126.320513 71.033910 128.461538 68.249486 130.602564 55.831361 132.743590 52.984415 134.884615 68.975608 137.025641 65.438527 139.166667 63.517094 141.307692 65.374605 143.448718 64.777588 145.589744 61.521152 147.730769 68.779910 149.871795 77.382245 152.012821 70.459060 154.153846 71.830234 156.294872 83.721362 158.435897 77.272692 160.576923 74.119429 162.717949 81.003828 164.858974 78.628461 167.000000 76.566966 169.141026 74.598340 171.282051 74.339350 173.423077 72.053767 175.564103 70.813192 177.705128 70.493001 179.846154 67.337193 181.987179 67.109017 184.128205 61.654391 186.269231 60.834784 188.410256 59.682336 190.551282 58.572416 192.692308 57.517959 194.833333 54.222942 196.974359 57.354583 199.115385 56.800151 201.256410 52.226697 203.397436 52.468403 205.538462 50.125558 207.679487 44.012927 209.820513 43.371553 211.961538 43.482729 214.102564 42.936921 216.243590 39.694919 218.384615 39.462029 220.525641 39.235056 222.666667 37.178590 224.807692 37.219338 226.948718 35.970952 229.089744 36.305546 231.230769 35.628807 233.371795 35.215396 235.512821 35.535196 237.653846 33.669298 239.794872 33.646481 241.935897 25.298211 244.076923 24.586365 246.217949 24.597700 248.358974 28.898607 250.500000 34.502102 252.641026 34.517817 254.782051 35.041812 256.923077 34.293997 259.064103 34.015386 261.205128 34.427406 263.346154 34.073110 265.487179 33.456229 267.628205 33.630965 269.769231 32.997758 271.910256 33.670686 274.051282 33.508341 276.192308 33.414500 278.333333 33.109352 280.474359 33.245877 282.615385 33.418478 284.756410 33.593453 286.897436 34.767246 289.038462 35.273660 291.179487 37.054673 293.320513 35.560722 295.461538 30.263370 297.602564 34.795243 299.743590 36.224536 301.884615 36.980513 304.025641 39.321167 306.166667 39.754524 308.307692 40.903773 310.448718 42.562441 312.589744 42.603700 314.730769 47.265547 316.871795 47.753927 319.012821 49.213561 321.153846 49.889255 323.294872 51.404208 325.435897 52.707773 327.576923 54.048018 329.717949 54.811110 331.858974 54.841684 334.000000 58.252209 336.141026 59.021867 338.282051 60.110753 340.423077 61.548164 342.564103 57.420115 344.705128 56.710512 346.846154 58.525947 348.987179 62.543728 351.128205 62.098797 353.269231 62.071136 355.410256 67.775156 357.551282 73.991045 359.692308 71.302642 361.833333 72.042878 363.974359 74.203052 366.115385 76.372325 368.256410 75.469925 370.397436 76.382029 372.538462 76.239130 374.679487 77.327173 376.820513 77.317413 378.961538 73.037290 381.102564 73.071800 383.243590 77.838690 385.384615 78.660934 387.525641 80.220131 389.666667 82.130515 391.807692 82.814040 393.948718 75.241758 396.089744 77.493728 398.230769 78.297650 400.371795 71.925743 402.512821 69.642338 404.653846 70.233121 406.794872 70.233121 408.935897 69.186646 411.076923 69.966886 413.217949 72.249642 415.358974 72.583526 417.500000 72.583526 419.641026 69.205032 421.782051 69.205032 423.923077 69.343014 426.064103 69.343014 428.205128 68.869658 430.346154 68.833541 432.487179 68.833541 434.628205 76.239130 436.769231 75.346505 438.910256 72.355323 441.051282 72.355323 443.192308 73.240320 445.333333 60.323023 447.474359 58.643215 449.615385 63.771978 451.756410 63.771978 453.897436 68.687598 456.038462 68.687598 458.179487 68.687598 460.320513 58.103006 462.461538 59.360524 464.602564 70.653846 466.743590 70.653846 468.884615 73.641324 471.025641 67.920622 473.166667 70.653846 475.307692 61.478022 477.448718 61.478022 479.589744 64.066075 481.730769 65.896011 483.871795 65.896011 486.012821 65.896011 488.153846 84.278555 490.294872 95.017241 492.435897 95.017241 494.576923 95.017241 496.717949 95.017241 498.858974 95.632479 501.000000 95.632479 503.141026 95.632479 505.282051 95.632479 507.423077 98.181319 509.564103 98.181319 511.705128 98.181319 513.846154 98.181319 515.987179 134.884615 518.128205 134.884615 520.269231 134.884615 522.410256 134.884615 524.551282 167.000000 526.692308 167.000000 528.833333 167.000000 530.974359 167.000000 533.115385 6.423077 535.256410 6.423077 537.397436 6.423077 539.538462 6.423077 541.679487 6.423077 543.820513 6.423077 545.961538 6.423077 548.102564 6.423077 550.243590 6.423077 552.384615 6.423077 554.525641 6.423077 556.666667 6.423077 558.807692 6.423077 560.948718 6.423077 563.089744 6.423077 565.230769 6.423077 567.371795 6.423077 569.512821 6.423077 571.653846 6.423077 573.794872 6.423077 575.935897 6.423077 578.076923 6.423077 580.217949 6.423077 582.358974 6.423077 584.500000 6.423077 586.641026 6.423077 588.782051 6.423077 590.923077 6.423077 593.064103 6.423077 595.205128 6.423077 597.346154 6.423077 599.487179 6.423077 601.628205 6.423077 603.769231 6.423077 605.910256 6.423077 608.051282 6.423077 610.192308 6.423077 612.333333 6.423077 614.474359 6.423077 616.615385 6.423077 618.756410 6.423077 620.897436 6.423077 623.038462 6.423077 625.179487 6.423077 627.320513 6.423077 629.461538 6.423077 631.602564 6.423077 633.743590 6.423077 635.884615 6.423077 638.025641 6.423077 640.166667 6.423077 642.307692 6.423077 644.448718 6.423077 646.589744 6.423077 648.730769 6.423077 650.871795 6.423077 653.012821 6.423077 655.153846 6.423077"/></g><g class="series serie-2 color-2"><path class="line reactive nofill" d="M12.846154 6.423077 L14.987179 6.423077 17.128205 6.423077 19.269231 6.423077 21.410256 6.423077 23.551282 6.423077 25.692308 6.423077 27.833333 6.423077 29.974359 6.423077 32.115385 6.423077 34.256410 6.423077 36.397436 6.423077 38.538462 6.423077 40.679487 6.423077 42.820513 6.423077 44.961538 6.423077 47.102564 6.423077 49.243590 6.423077 51.384615 6.423077 53.525641 6.423077 55.666667 6.423077 57.807692 6.423077 59.948718 6.423077 62.089744 6.423077 64.230769 6.423077 66.371795 6.423077 68.512821 6.423077 70.653846 6.423077 72.794872 6.423077 74.935897 6.423077 77.076923 6.423077 79.217949 6.423077 81.358974 6.423077 83.500000 6.423077 85.641026 6.423077 87.782051 6.423077 89.923077 6.423077 92.064103 6.423077 94.205128 6.423077 96.346154 6.423077 98.487179 6.423077 100.628205 6.423077 102.769231 113.474359 104.910256 137.263533 107.051282 139.314324 109.192308 110.984794 111.333333 90.660151 113.474359 89.005495 115.615385 95.632479 117.756410 94.410432 119.897436 92.248674 122.038462 81.278485 124.179487 76.334118 126.320513 74.834547 128.461538 75.119087 130.602564 66.233105 132.743590 63.729339 134.884615 84.232322 137.025641 77.790598 139.166667 74.546620 141.307692 64.054795 143.448718 63.961441 145.589744 62.275920 147.730769 68.133725 149.871795 73.989775 152.012821 65.589403 154.153846 64.301352 156.294872 74.973981 158.435897 67.173514 160.576923 63.987004 162.717949 68.392506 164.858974 65.509600 167.000000 63.768435 169.141026 61.418421 171.282051 61.061880 173.423077 57.753502 175.564103 55.747788 177.705128 55.279745 179.846154 51.537390 181.987179 50.990317 184.128205 46.817744 186.269231 46.241814 188.410256 45.039906 190.551282 43.958590 192.692308 42.688697 194.833333 39.485846 196.974359 43.519200 199.115385 43.691831 201.256410 39.234324 203.397436 39.760072 205.538462 39.926947 207.679487 35.369034 209.820513 35.501661 211.961538 35.570113 214.102564 36.040844 216.243590 33.391279 218.384615 34.796586 220.525641 35.776106 222.666667 35.180213 224.807692 35.463851 226.948718 34.919086 229.089744 36.526081 231.230769 36.775200 233.371795 37.150057 235.512821 38.009150 237.653846 36.950563 239.794872 38.938287 241.935897 33.318415 244.076923 33.129838 246.217949 34.511130 248.358974 37.909775 250.500000 44.154266 252.641026 44.140818 254.782051 44.509664 256.923077 44.027544 259.064103 43.711375 261.205128 43.847509 263.346154 43.530972 265.487179 43.040710 267.628205 42.801031 269.769231 42.122516 271.910256 43.316738 274.051282 43.520215 276.192308 43.897557 278.333333 43.745186 280.474359 43.754273 282.615385 44.149270 284.756410 44.016997 286.897436 44.759766 289.038462 44.939839 291.179487 41.879263 293.320513 40.969507 295.461538 33.776677 297.602564 40.398150 299.743590 42.708286 301.884615 44.018348 304.025641 47.515115 306.166667 48.197650 308.307692 48.379961 310.448718 48.817331 312.589744 48.498296 314.730769 54.302349 316.871795 54.618061 319.012821 55.594598 321.153846 55.932681 323.294872 57.363595 325.435897 58.385821 327.576923 59.619237 329.717949 59.933473 331.858974 60.145142 334.000000 61.707484 336.141026 72.577062 338.282051 72.749502 340.423077 74.827284 342.564103 66.599582 344.705128 64.425062 346.846154 64.266093 348.987179 60.661633 351.128205 60.910595 353.269231 61.896691 355.410256 64.536630 357.551282 69.871047 359.692308 61.570707 361.833333 62.223857 363.974359 60.647057 366.115385 61.820839 368.256410 61.709699 370.397436 65.817758 372.538462 66.062553 374.679487 66.286743 376.820513 65.793952 378.961538 64.786906 381.102564 64.701960 383.243590 61.824279 385.384615 61.254221 387.525641 63.820786 389.666667 61.877570 391.807692 63.586383 393.948718 66.764095 396.089744 68.409510 398.230769 69.170720 400.371795 74.469535 402.512821 78.493035 404.653846 78.647632 406.794872 78.647632 408.935897 89.564428 411.076923 91.434389 413.217949 96.186574 415.358974 96.015352 417.500000 96.015352 419.641026 95.766628 421.782051 95.766628 423.923077 94.248823 426.064103 94.248823 428.205128 93.083639 430.346154 97.438337 432.487179 97.438337 434.628205 110.371423 436.769231 109.074991 438.910256 114.892257 441.051282 114.892257 443.192308 116.348219 445.333333 102.993814 447.474359 95.197311 449.615385 103.916209 451.756410 103.916209 453.897436 108.012559 456.038462 108.012559 458.179487 108.012559 460.320513 98.708665 462.461538 98.181319 464.602564 113.474359 466.743590 113.474359 468.884615 118.453488 471.025641 108.918985 473.166667 118.826923 475.307692 98.181319 477.448718 98.181319 479.589744 97.004931 481.730769 101.579772 483.871795 101.579772 486.012821 101.579772 488.153846 113.474359 490.294872 128.240053 492.435897 128.240053 494.576923 128.240053 496.717949 128.240053 498.858974 95.632479 501.000000 95.632479 503.141026 95.632479 505.282051 95.632479 507.423077 98.181319 509.564103 98.181319 511.705128 98.181319 513.846154 98.181319 515.987179 134.884615 518.128205 134.884615 520.269231 134.884615 522.410256 134.884615 524.551282 167.000000 526.692308 167.000000 528.833333 167.000000 530.974359 167.000000 533.115385 6.423077 535.256410 6.423077 537.397436 6.423077 539.538462 6.423077 541.679487 6.423077 543.820513 6.423077 545.961538 6.423077 548.102564 6.423077 550.243590 6.423077 552.384615 6.423077 554.525641 6.423077 556.666667 6.423077 558.807692 6.423077 560.948718 6.423077 563.089744 6.423077 565.230769 6.423077 567.371795 6.423077 569.512821 6.423077 571.653846 6.423077 573.794872 6.423077 575.935897 6.423077 578.076923 6.423077 580.217949 6.423077 582.358974 6.423077 584.500000 6.423077 586.641026 6.423077 588.782051 6.423077 590.923077 6.423077 593.064103 6.423077 595.205128 6.423077 597.346154 6.423077 599.487179 6.423077 601.628205 6.423077 603.769231 6.423077 605.910256 6.423077 608.051282 6.423077 610.192308 6.423077 612.333333 6.423077 614.474359 6.423077 616.615385 6.423077 618.756410 6.423077 620.897436 6.423077 623.038462 6.423077 625.179487 6.423077 627.320513 6.423077 629.461538 6.423077 631.602564 6.423077 633.743590 6.423077 635.884615 6.423077 638.025641 6.423077 640.166667 6.423077 642.307692 6.423077 644.448718 6.423077 646.589744 6.423077 648.730769 6.423077 650.871795 6.423077 653.012821 6.423077 655.153846 6.423077"/></g><g class="series serie-3 color-3"><path class="line reactive nofill" d="M12.846154 6.423077 L14.987179 6.423077 17.128205 6.423077 19.269231 6.423077 21.410256 6.423077 23.551282 6.423077 25.692308 6.423077 27.833333 6.423077 29.974359 6.423077 32.115385 6.423077 34.256410 6.423077 36.397436 6.423077 38.538462 6.423077 40.679487 6.423077 42.820513 6.423077 44.961538 6.423077 47.102564 6.423077 49.243590 6.423077 51.384615 6.423077 53.525641 6.423077 55.666667 6.423077 57.807692 6.423077 59.948718 6.423077 62.089744 6.423077 64.230769 6.423077 66.371795 6.423077 68.512821 6.423077 70.653846 6.423077 72.794872 6.423077 74.935897 6.423077 77.076923 6.423077 79.217949 6.423077 81.358974 6.423077 83.500000 6.423077 85.641026 6.423077 87.782051 6.423077 89.923077 6.423077 92.064103 6.423077 94.205128 327.576923 96.346154 327.576923 98.487179 327.576923 100.628205 327.576923 102.769231 220.525641 104.910256 89.685185 107.051282 95.017241 109.192308 66.172630 111.333333 69.600883 113.474359 66.065934 115.615385 64.409188 117.756410 63.614858 119.897436 59.025862 122.038462 54.716888 124.179487 52.302198 126.320513 52.030724 128.461538 54.510284 130.602564 42.829181 132.743590 39.851730 134.884615 56.007400 137.025641 53.086456 139.166667 49.892385 141.307692 49.536881 143.448718 50.495015 145.589744 49.067477 147.730769 53.271475 149.871795 60.985306 152.012821 54.389193 154.153846 54.890251 156.294872 62.656241 158.435897 55.520617 160.576923 52.826650 162.717949 59.368887 164.858974 57.658943 167.000000 55.930574 169.141026 53.738037 171.282051 53.256336 173.423077 50.528105 175.564103 49.301534 177.705128 49.449114 179.846154 46.575469 181.987179 45.788665 184.128205 41.727799 186.269231 40.491424 188.410256 38.956080 190.551282 37.902860 192.692308 36.424191 194.833333 33.744121 196.974359 37.941811 199.115385 37.608885 201.256410 33.861207 203.397436 34.390355 205.538462 32.841165 207.679487 27.523040 209.820513 27.187143 211.961538 27.121049 214.102564 27.199719 216.243590 24.717850 218.384615 25.132455 220.525641 25.303176 222.666667 23.579877 224.807692 23.727165 226.948718 23.300747 229.089744 23.735061 231.230769 23.400613 233.371795 23.436720 235.512821 23.740760 237.653846 23.122374 239.794872 23.298059 241.935897 15.065538 244.076923 14.832007 246.217949 15.510388 248.358974 19.363534 250.500000 23.094998 252.641026 23.125068 254.782051 23.583559 256.923077 23.443486 259.064103 23.184760 261.205128 23.113042 263.346154 22.754685 265.487179 22.495515 267.628205 22.596655 269.769231 21.756433 271.910256 22.234646 274.051282 22.093837 276.192308 22.392594 278.333333 22.280139 280.474359 22.401596 282.615385 22.639566 284.756410 22.774703 286.897436 23.813906 289.038462 23.980013 291.179487 22.535387 293.320513 20.206753 295.461538 16.523833 297.602564 22.278111 299.743590 24.089810 301.884615 24.528960 304.025641 25.684970 306.166667 26.081700 308.307692 26.273646 310.448718 26.855717 312.589744 26.342746 314.730769 30.290169 316.871795 30.374523 319.012821 30.746089 321.153846 31.061659 323.294872 32.138243 325.435897 32.748573 327.576923 33.470449 329.717949 33.498423 331.858974 32.547518 334.000000 33.971895 336.141026 39.210428 338.282051 37.965937 340.423077 39.118726 342.564103 30.391685 344.705128 25.709451 346.846154 26.145632 348.987179 24.901828 351.128205 25.094812 353.269231 25.437618 355.410256 26.214070 357.551282 29.083066 359.692308 23.569819 361.833333 24.145213 363.974359 24.662052 366.115385 25.825058 368.256410 27.554853 370.397436 28.255904 372.538462 28.432884 374.679487 28.749280 376.820513 28.718469 378.961538 24.451694 381.102564 24.402732 383.243590 26.765706 385.384615 26.005629 387.525641 26.922259 389.666667 28.122661 391.807692 27.729400 393.948718 27.367893 396.089744 27.797709 398.230769 29.240402 400.371795 31.225057 402.512821 29.814204 404.653846 27.459355 406.794872 27.459355 408.935897 30.061304 411.076923 29.607980 413.217949 23.378404 415.358974 21.584846 417.500000 21.584846 419.641026 20.911220 421.782051 20.911220 423.923077 20.842229 426.064103 20.842229 428.205128 20.441697 430.346154 22.025693 432.487179 22.025693 434.628205 23.489223 436.769231 24.020548 438.910256 27.691544 441.051282 27.691544 443.192308 27.977026 445.333333 24.389726 447.474359 24.700125 449.615385 26.495192 451.756410 26.495192 453.897436 29.362637 456.038462 29.362637 458.179487 29.362637 460.320513 24.880195 462.461538 24.068893 464.602564 34.970085 466.743590 34.970085 468.884615 36.297853 471.025641 33.755319 473.166667 38.538462 475.307692 33.950549 477.448718 33.950549 479.589744 39.361933 481.730769 42.106838 483.871795 42.106838 486.012821 42.106838 488.153846 64.814685 490.294872 61.794430 492.435897 61.794430 494.576923 61.794430 496.717949 61.794430 498.858974 77.790598 501.000000 77.790598 503.141026 77.790598 505.282051 77.790598 507.423077 98.181319 509.564103 98.181319 511.705128 98.181319 513.846154 98.181319 515.987179 134.884615 518.128205 134.884615 520.269231 134.884615 522.410256 134.884615 524.551282 167.000000 526.692308 167.000000 528.833333 167.000000 530.974359 167.000000 533.115385 6.423077 535.256410 6.423077 537.397436 6.423077 539.538462 6.423077 541.679487 6.423077 543.820513 6.423077 545.961538 6.423077 548.102564 6.423077 550.243590 6.423077 552.384615 6.423077 554.525641 6.423077 556.666667 6.423077 558.807692 6.423077 560.948718 6.423077 563.089744 6.423077 565.230769 6.423077 567.371795 6.423077 569.512821 6.423077 571.653846 6.423077 573.794872 6.423077 575.935897 6.423077 578.076923 6.423077 580.217949 6.423077 582.358974 6.423077 584.500000 6.423077 586.641026 6.423077 588.782051 6.423077 590.923077 6.423077 593.064103 6.423077 595.205128 6.423077 597.346154 6.423077 599.487179 6.423077 601.628205 6.423077 603.769231 6.423077 605.910256 6.423077 608.051282 6.423077 610.192308 6.423077 612.333333 6.423077 614.474359 6.423077 616.615385 6.423077 618.756410 6.423077 620.897436 6.423077 623.038462 6.423077 625.179487 6.423077 627.320513 6.423077 629.461538 6.423077 631.602564 6.423077 633.743590 6.423077 635.884615 6.423077 638.025641 6.423077 640.166667 6.423077 642.307692 6.423077 644.448718 6.423077 646.589744 6.423077 648.730769 6.423077 650.871795 6.423077 653.012821 6.423077 655.153846 6.423077"/></g><g class="series serie-4 color-4"><path class="line reactive nofill" d="M12.846154 6.423077 L14.987179 6.423077 17.128205 6.423077 19.269231 6.423077 21.410256 6.423077 23.551282 6.423077 25.692308 6.423077 27.833333 6.423077 29.974359 6.423077 32.115385 6.423077 34.256410 6.423077 36.397436 6.423077 38.538462 6.423077 40.679487 6.423077 42.820513 6.423077 44.961538 6.423077 47.102564 6.423077 49.243590 6.423077 51.384615 6.423077 53.525641 6.423077 55.666667 6.423077 57.807692 6.423077 59.948718 6.423077 62.089744 6.423077 64.230769 6.423077 66.371795 6.423077 68.512821 6.423077 70.653846 6.423077 72.794872 6.423077 74.935897 6.423077 77.076923 6.423077 79.217949 6.423077 81.358974 6.423077 83.500000 6.423077 85.641026 6.423077 87.782051 6.423077 89.923077 6.423077 92.064103 6.423077 94.205128 327.576923 96.346154 327.576923 98.487179 327.576923 100.628205 327.576923 102.769231 220.525641 104.910256 149.158120 107.051282 150.388594 109.192308 110.984794 111.333333 95.924968 113.474359 93.593407 115.615385 91.172009 117.756410 90.011064 119.897436 83.942971 122.038462 76.449104 124.179487 69.779958 126.320513 67.233273 128.461538 66.532086 130.602564 51.930707 132.743590 48.208893 134.884615 53.718893 137.025641 51.027778 139.166667 47.945998 141.307692 46.897260 143.448718 48.046574 145.589744 47.180557 147.730769 51.656013 149.871795 60.137189 152.012821 53.658745 154.153846 53.243308 156.294872 61.406615 158.435897 54.277641 160.576923 51.798723 162.717949 58.390422 164.858974 55.902875 167.000000 54.045519 169.141026 52.031285 171.282051 51.566476 173.423077 49.098078 175.564103 47.925367 177.705128 47.572589 179.846154 45.334988 181.987179 44.568525 184.128205 40.807277 186.269231 39.894686 188.410256 38.285828 190.551282 37.202197 192.692308 35.543244 194.833333 32.260842 196.974359 35.909739 199.115385 35.852541 201.256410 32.055488 203.397436 32.510954 205.538462 30.998043 207.679487 25.616951 209.820513 25.364173 211.961538 25.377591 214.102564 25.608317 216.243590 23.106394 218.384615 23.418618 220.525641 23.573701 222.666667 22.263872 224.807692 22.372932 226.948718 21.962008 229.089744 22.081050 231.230769 21.544548 233.371795 21.729665 235.512821 22.129813 237.653846 21.716117 239.794872 22.180900 241.935897 14.927258 244.076923 14.361107 246.217949 15.303859 248.358974 18.839629 250.500000 23.314365 252.641026 23.346286 254.782051 24.121505 256.923077 24.028563 259.064103 23.700504 261.205128 23.625005 263.346154 23.581602 265.487179 23.429387 267.628205 23.503584 269.769231 22.603060 271.910256 23.278806 274.051282 23.206267 276.192308 23.519278 278.333333 23.440412 280.474359 23.361267 282.615385 23.505728 284.756410 23.861518 286.897436 24.966889 289.038462 25.410213 291.179487 23.764292 293.320513 22.184158 295.461538 17.904060 297.602564 23.112586 299.743590 24.684650 301.884615 24.889874 304.025641 25.868416 306.166667 26.333733 308.307692 26.209196 310.448718 26.577722 312.589744 26.274992 314.730769 30.870524 316.871795 30.885682 319.012821 31.496799 321.153846 31.913937 323.294872 32.791326 325.435897 33.780945 327.576923 34.728466 329.717949 34.779013 331.858974 33.922489 334.000000 34.718981 336.141026 40.021423 338.282051 39.262219 340.423077 40.346207 342.564103 32.814044 344.705128 28.709554 346.846154 29.678030 348.987179 29.008217 351.128205 29.168645 353.269231 29.624305 355.410256 30.352187 357.551282 33.409064 359.692308 26.350372 361.833333 26.779585 363.974359 26.387361 366.115385 27.612083 368.256410 29.520599 370.397436 29.664474 372.538462 29.852871 374.679487 29.485309 376.820513 28.718469 378.961538 25.062834 381.102564 25.022721 383.243590 25.900062 385.384615 25.570461 387.525641 26.466721 389.666667 27.158235 391.807692 26.690067 393.948718 27.866579 396.089744 28.332075 398.230769 29.810835 400.371795 32.496954 402.512821 31.078589 404.653846 29.562983 406.794872 29.562983 408.935897 30.876415 411.076923 30.466680 413.217949 23.378404 415.358974 20.206504 417.500000 20.206504 419.641026 19.703875 421.782051 19.703875 423.923077 20.842229 426.064103 20.842229 428.205128 20.441697 430.346154 23.325911 432.487179 23.325911 434.628205 25.040691 436.769231 25.487004 438.910256 25.564697 441.051282 25.564697 443.192308 25.821631 445.333333 22.143895 447.474359 22.089118 449.615385 23.627747 451.756410 23.627747 453.897436 35.916797 456.038462 35.916797 458.179487 35.916797 460.320513 35.954465 462.461538 38.185545 464.602564 63.517094 466.743590 63.517094 468.884615 66.172630 471.025641 61.087561 473.166667 70.653846 475.307692 61.478022 477.448718 61.478022 479.589744 64.066075 481.730769 77.790598 483.871795 77.790598 486.012821 77.790598 488.153846 94.010490 490.294872 95.017241 492.435897 95.017241 494.576923 95.017241 496.717949 95.017241 498.858974 95.632479 501.000000 95.632479 503.141026 95.632479 505.282051 95.632479 507.423077 98.181319 509.564103 98.181319 511.705128 98.181319 513.846154 98.181319 515.987179 134.884615 518.128205 134.884615 520.269231 134.884615 522.410256 134.884615 524.551282 167.000000 526.692308 167.000000 528.833333 167.000000 530.974359 167.000000 533.115385 6.423077 535.256410 6.423077 537.397436 6.423077 539.538462 6.423077 541.679487 6.423077 543.820513 6.423077 545.961538 6.423077 548.102564 6.423077 550.243590 6.423077 552.384615 6.423077 554.525641 6.423077 556.666667 6.423077 558.807692 6.423077 560.948718 6.423077 563.089744 6.423077 565.230769 6.423077 567.371795 6.423077 569.512821 6.423077 571.653846 6.423077 573.794872 6.423077 575.935897 6.423077 578.076923 6.423077 580.217949 6.423077 582.358974 6.423077 584.500000 6.423077 586.641026 6.423077 588.782051 6.423077 590.923077 6.423077 593.064103 6.423077 595.205128 6.423077 597.346154 6.423077 599.487179 6.423077 601.628205 6.423077 603.769231 6.423077 605.910256 6.423077 608.051282 6.423077 610.192308 6.423077 612.333333 6.423077 614.474359 6.423077 616.615385 6.423077 618.756410 6.423077 620.897436 6.423077 623.038462 6.423077 625.179487 6.423077 627.320513 6.423077 629.461538 6.423077 631.602564 6.423077 633.743590 6.423077 635.884615 6.423077 638.025641 6.423077 640.166667 6.423077 642.307692 6.423077 644.448718 6.423077 646.589744 6.423077 648.730769 6.423077 650.871795 6.423077 653.012821 6.423077 655.153846 6.423077"/></g><g class="series serie-5 color-5"><path class="line reactive nofill" d="M12.846154 6.423077 L14.987179 6.423077 17.128205 6.423077 19.269231 6.423077 21.410256 6.423077 23.551282 6.423077 25.692308 6.423077 27.833333 6.423077 29.974359 6.423077 32.115385 6.423077 34.256410 6.423077 36.397436 6.423077 38.538462 6.423077 40.679487 6.423077 42.820513 6.423077 44.961538 6.423077 47.102564 6.423077 49.243590 6.423077 51.384615 6.423077 53.525641 6.423077 55.666667 6.423077 57.807692 6.423077 59.948718 6.423077 62.089744 6.423077 64.230769 6.423077 66.371795 6.423077 68.512821 6.423077 70.653846 6.423077 72.794872 6.423077 74.935897 6.423077 77.076923 6.423077 79.217949 6.423077 81.358974 6.423077 83.500000 6.423077 85.641026 6.423077 87.782051 6.423077 89.923077 6.423077 92.064103 6.423077 94.205128 327.576923 96.346154 327.576923 98.487179 327.576923 100.628205 327.576923 102.769231 327.576923 104.910256 149.158120 107.051282 150.388594 109.192308 103.516100 111.333333 85.395334 113.474359 84.417582 115.615385 82.251068 117.756410 81.212329 119.897436 72.868700 122.038462 66.790341 124.179487 61.041078 126.320513 59.631998 128.461538 59.662485 130.602564 46.729835 132.743590 44.627252 134.884615 55.244564 137.025641 52.400230 139.166667 49.243590 141.307692 49.096944 143.448718 50.495015 145.589744 49.444861 147.730769 52.948383 149.871795 63.812365 152.012821 57.067505 154.153846 57.243026 156.294872 70.332514 158.435897 62.046239 160.576923 59.141061 162.717949 67.740196 164.858974 65.303004 167.000000 63.073941 169.141026 60.659865 171.282051 60.418123 173.423077 57.301915 175.564103 55.747788 177.705128 55.748876 179.846154 52.908448 181.987179 52.017804 184.128205 47.196782 186.269231 46.187565 188.410256 44.214981 190.551282 42.957643 192.692308 41.514102 194.833333 37.811176 196.974359 41.833012 199.115385 41.764136 201.256410 36.723933 203.397436 37.343699 205.538462 35.667286 207.679487 29.118835 209.820513 28.743336 211.961538 28.775099 214.102564 28.967944 216.243590 25.807953 218.384615 26.370225 220.525641 26.744405 222.666667 24.798399 224.807692 25.031241 226.948718 24.496049 229.089744 24.892869 231.230769 24.274056 233.371795 24.802363 235.512821 25.294174 237.653846 24.587224 239.794872 25.061995 241.935897 16.724890 244.076923 16.110164 246.217949 17.024940 248.358974 20.725687 250.500000 25.398355 252.641026 25.447861 254.782051 26.219495 256.923077 26.156114 259.064103 25.660332 261.205128 25.570461 263.346154 25.390483 265.487179 25.051376 267.628205 25.166289 269.769231 24.202244 271.910256 24.969351 274.051282 24.947463 276.192308 25.331769 278.333333 25.035787 280.474359 24.944724 282.615385 25.093693 284.756410 25.491741 286.897436 26.696364 289.038462 27.037682 291.179487 25.220772 293.320513 23.289179 295.461538 18.594174 297.602564 24.662327 299.743590 26.409684 301.884615 26.574142 304.025641 27.947478 306.166667 28.476019 308.307692 28.336043 310.448718 28.801683 312.589744 28.375365 314.730769 33.191943 316.871795 33.222409 319.012821 33.748930 321.153846 34.160852 323.294872 35.158754 325.435897 36.189814 327.576923 37.244501 329.717949 37.157253 331.858974 36.181369 334.000000 37.333784 336.141026 43.497114 338.282051 42.718971 340.423077 44.028652 342.564103 34.981418 344.705128 30.709622 346.846154 31.738596 348.987179 30.719212 351.128205 30.866076 353.269231 31.368759 355.410256 32.151368 357.551282 35.469063 359.692308 28.204074 361.833333 28.695491 363.974359 28.112669 366.115385 29.399107 368.256410 30.994909 370.397436 30.838282 372.538462 31.036194 374.679487 30.712023 376.820513 30.221529 378.961538 25.368404 381.102564 25.332715 383.243590 25.467240 385.384615 24.700125 387.525641 25.555646 389.666667 25.711596 391.807692 25.131068 393.948718 26.370521 396.089744 26.728977 398.230769 28.099535 400.371795 30.589109 402.512821 29.814204 404.653846 28.160564 406.794872 28.160564 408.935897 30.061304 411.076923 29.607980 413.217949 23.378404 415.358974 22.963189 417.500000 22.963189 419.641026 23.325911 421.782051 23.325911 423.923077 24.774725 426.064103 24.774725 428.205128 24.264957 430.346154 27.226565 432.487179 27.226565 434.628205 29.695095 436.769231 29.886372 438.910256 31.945237 441.051282 31.945237 443.192308 32.287816 445.333333 28.881388 447.474359 27.311132 449.615385 29.362637 451.756410 29.362637 453.897436 45.748038 456.038462 45.748038 458.179487 45.748038 460.320513 43.337312 462.461538 45.243872 464.602564 70.653846 466.743590 70.653846 468.884615 73.641324 471.025641 67.920622 473.166667 78.682692 475.307692 70.653846 477.448718 70.653846 479.589744 72.300789 481.730769 89.685185 483.871795 89.685185 486.012821 89.685185 488.153846 103.742424 490.294872 106.091512 492.435897 106.091512 494.576923 106.091512 496.717949 106.091512 498.858974 95.632479 501.000000 95.632479 503.141026 95.632479 505.282051 95.632479 507.423077 98.181319 509.564103 98.181319 511.705128 98.181319 513.846154 98.181319 515.987179 134.884615 518.128205 134.884615 520.269231 134.884615 522.410256 134.884615 524.551282 167.000000 526.692308 167.000000 528.833333 167.000000 530.974359 167.000000 533.115385 6.423077 535.256410 6.423077 537.397436 6.423077 539.538462 6.423077 541.679487 6.423077 543.820513 6.423077 545.961538 6.423077 548.102564 6.423077 550.243590 6.423077 552.384615 6.423077 554.525641 6.423077 556.666667 6.423077 558.807692 6.423077 560.948718 6.423077 563.089744 6.423077 565.230769 6.423077 567.371795 6.423077 569.512821 6.423077 571.653846 6.423077 573.794872 6.423077 575.935897 6.423077 578.076923 6.423077 580.217949 6.423077 582.358974 6.423077 584.500000 6.423077 586.641026 6.423077 588.782051 6.423077 590.923077 6.423077 593.064103 6.423077 595.205128 6.423077 597.346154 6.423077 599.487179 6.423077 601.628205 6.423077 603.769231 6.423077 605.910256 6.423077 608.051282 6.423077 610.192308 6.423077 612.333333 6.423077 614.474359 6.423077 616.615385 6.423077 618.756410 6.423077 620.897436 6.423077 623.038462 6.423077 625.179487 6.423077 627.320513 6.423077 629.461538 6.423077 631.602564 6.423077 633.743590 6.423077 635.884615 6.423077 638.025641 6.423077 640.166667 6.423077 642.307692 6.423077 644.448718 6.423077 646.589744 6.423077 648.730769 6.423077 650.871795 6.423077 653.012821 6.423077 655.153846 6.423077"/></g></g><g class="titles"><text class="title plot_title" x="400.0" y="28">Mean One Correct for Tempo T ±10.0 BPM</text><text class="title" x="446.0" y="465.0">T (BPM)</text><text class="title" x="0" y="243.0" transform="rotate(-90 0.000000 215.000000)">Mean One Correct</text></g><g class="plot overlay" transform="translate(112, 48)"><g class="series serie-0 color-0"><g class="dots"><circle class="dot reactive tooltip-trigger" cx="12.846153846153845" cy="6.423076923076906" r="2.5"/><desc class="value">1.0000</desc><desc class="x ">12.846153846153845</desc><desc class="y ">6.423076923076906</desc><desc class="x_label">0.0</desc></g><g class="dots"><circle class="dot reactive tooltip-trigger" cx="77.07692307692308" cy="6.423076923076906" r="2.5"/><desc class="value">1.0000</desc><desc class="x ">77.07692307692308</desc><desc class="y ">6.423076923076906</desc><desc class="x_label">30.0</desc></g><g class="dots"><circle class="dot reactive tooltip-trigger" cx="141.30769230769232" cy="39.41833508956796" r="2.5"/><desc class="value">0.8973</desc><desc class="x ">141.30769230769232</desc><desc class="y ">39.41833508956796</desc><desc class="x_label">60.0</desc></g><g class="dots"><circle class="dot reactive tooltip-trigger" cx="205.53846153846152" cy="34.356621506283545" r="2.5"/><desc class="value">0.9130</desc><desc class="x ">205.53846153846152</desc><desc class="y ">34.356621506283545</desc><desc class="x_label">90.0</desc></g><g class="dots"><circle class="dot reactive tooltip-trigger" cx="269.7692307692308" cy="26.459916182236043" r="2.5"/><desc class="value">0.9376</desc><desc class="x ">269.7692307692308</desc><desc class="y ">26.459916182236043</desc><desc class="x_label">120.0</desc></g><g class="dots"><circle class="dot reactive tooltip-trigger" cx="334.0" cy="29.67614691211668" r="2.5"/><desc class="value">0.9276</desc><desc class="x ">334.0</desc><desc class="y ">29.67614691211668</desc><desc class="x_label">150.0</desc></g><g class="dots"><circle class="dot reactive tooltip-trigger" cx="398.2307692307692" cy="13.838707473698605" r="2.5"/><desc class="value">0.9769</desc><desc class="x left">398.2307692307692</desc><desc class="y left">13.838707473698605</desc><desc class="x_label">180.0</desc></g><g class="dots"><circle class="dot reactive tooltip-trigger" cx="462.46153846153845" cy="20.53972950126797" r="2.5"/><desc class="value">0.9560</desc><desc class="x left">462.46153846153845</desc><desc class="y left">20.53972950126797</desc><desc class="x_label">210.0</desc></g><g class="dots"><circle class="dot reactive tooltip-trigger" cx="526.6923076923076" cy="6.423076923076906" r="2.5"/><desc class="value">1.0000</desc><desc class="x left">526.6923076923076</desc><desc class="y left">6.423076923076906</desc><desc class="x_label">240.0</desc></g><g class="dots"><circle class="dot reactive tooltip-trigger" cx="590.9230769230769" cy="6.423076923076906" r="2.5"/><desc class="value">1.0000</desc><desc class="x left">590.9230769230769</desc><desc class="y left">6.423076923076906</desc><desc class="x_label">270.0</desc></g><g class="dots"><circle class="dot reactive tooltip-trigger" cx="655.1538461538462" cy="6.423076923076906" r="2.5"/><desc class="value">1.0000</desc><desc class="x left">655.1538461538462</desc><desc class="y left">6.423076923076906</desc><desc class="x_label">300.0</desc></g></g><g class="series serie-1 color-1"><g class="dots"><circle class="dot reactive tooltip-trigger" cx="12.846153846153845" cy="6.423076923076906" r="2.5"/><desc class="value">1.0000</desc><desc class="x ">12.846153846153845</desc><desc class="y ">6.423076923076906</desc><desc class="x_label">0.0</desc></g><g class="dots"><circle class="dot reactive tooltip-trigger" cx="77.07692307692308" cy="6.423076923076906" r="2.5"/><desc class="value">1.0000</desc><desc class="x ">77.07692307692308</desc><desc class="y ">6.423076923076906</desc><desc class="x_label">30.0</desc></g><g class="dots"><circle class="dot reactive tooltip-trigger" cx="141.30769230769232" cy="65.37460484720759" r="2.5"/><desc class="value">0.8164</desc><desc class="x ">141.30769230769232</desc><desc class="y ">65.37460484720759</desc><desc class="x_label">60.0</desc></g><g class="dots"><circle class="dot reactive tooltip-trigger" cx="205.53846153846152" cy="50.125557964545294" r="2.5"/><desc class="value">0.8639</desc><desc class="x ">205.53846153846152</desc><desc class="y ">50.125557964545294</desc><desc class="x_label">90.0</desc></g><g class="dots"><circle class="dot reactive tooltip-trigger" cx="269.7692307692308" cy="32.99775810013074" r="2.5"/><desc class="value">0.9173</desc><desc class="x ">269.7692307692308</desc><desc class="y ">32.99775810013074</desc><desc class="x_label">120.0</desc></g><g class="dots"><circle class="dot reactive tooltip-trigger" cx="334.0" cy="58.25220882635824" r="2.5"/><desc class="value">0.8386</desc><desc class="x ">334.0</desc><desc class="y ">58.25220882635824</desc><desc class="x_label">150.0</desc></g><g class="dots"><circle class="dot reactive tooltip-trigger" cx="398.2307692307692" cy="78.29764995217926" r="2.5"/><desc class="value">0.7762</desc><desc class="x left">398.2307692307692</desc><desc class="y left">78.29764995217926</desc><desc class="x_label">180.0</desc></g><g class="dots"><circle class="dot reactive tooltip-trigger" cx="462.46153846153845" cy="59.360524091293314" r="2.5"/><desc class="value">0.8352</desc><desc class="x left">462.46153846153845</desc><desc class="y left">59.360524091293314</desc><desc class="x_label">210.0</desc></g><g class="dots"><circle class="dot reactive tooltip-trigger" cx="526.6923076923076" cy="167.0" r="2.5"/><desc class="value">0.5000</desc><desc class="x left">526.6923076923076</desc><desc class="y left">167.0</desc><desc class="x_label">240.0</desc></g><g class="dots"><circle class="dot reactive tooltip-trigger" cx="590.9230769230769" cy="6.423076923076906" r="2.5"/><desc class="value">1.0000</desc><desc class="x left">590.9230769230769</desc><desc class="y left">6.423076923076906</desc><desc class="x_label">270.0</desc></g><g class="dots"><circle class="dot reactive tooltip-trigger" cx="655.1538461538462" cy="6.423076923076906" r="2.5"/><desc class="value">1.0000</desc><desc class="x left">655.1538461538462</desc><desc class="y left">6.423076923076906</desc><desc class="x_label">300.0</desc></g></g><g class="series serie-2 color-2"><g class="dots"><circle class="dot reactive tooltip-trigger" cx="12.846153846153845" cy="6.423076923076906" r="2.5"/><desc class="value">1.0000</desc><desc class="x ">12.846153846153845</desc><desc class="y ">6.423076923076906</desc><desc class="x_label">0.0</desc></g><g class="dots"><circle class="dot reactive tooltip-trigger" cx="77.07692307692308" cy="6.423076923076906" r="2.5"/><desc class="value">1.0000</desc><desc class="x ">77.07692307692308</desc><desc class="y ">6.423076923076906</desc><desc class="x_label">30.0</desc></g><g class="dots"><circle class="dot reactive tooltip-trigger" cx="141.30769230769232" cy="64.05479452054794" r="2.5"/><desc class="value">0.8205</desc><desc class="x ">141.30769230769232</desc><desc class="y ">64.05479452054794</desc><desc class="x_label">60.0</desc></g><g class="dots"><circle class="dot reactive tooltip-trigger" cx="205.53846153846152" cy="39.926947112318885" r="2.5"/><desc class="value">0.8957</desc><desc class="x ">205.53846153846152</desc><desc class="y ">39.926947112318885</desc><desc class="x_label">90.0</desc></g><g class="dots"><circle class="dot reactive tooltip-trigger" cx="269.7692307692308" cy="42.12251588481814" r="2.5"/><desc class="value">0.8888</desc><desc class="x ">269.7692307692308</desc><desc class="y ">42.12251588481814</desc><desc class="x_label">120.0</desc></g><g class="dots"><circle class="dot reactive tooltip-trigger" cx="334.0" cy="61.70748428657703" r="2.5"/><desc class="value">0.8279</desc><desc class="x ">334.0</desc><desc class="y ">61.70748428657703</desc><desc class="x_label">150.0</desc></g><g class="dots"><circle class="dot reactive tooltip-trigger" cx="398.2307692307692" cy="69.17072004372181" r="2.5"/><desc class="value">0.8046</desc><desc class="x left">398.2307692307692</desc><desc class="y left">69.17072004372181</desc><desc class="x_label">180.0</desc></g><g class="dots"><circle class="dot reactive tooltip-trigger" cx="462.46153846153845" cy="98.18131868131866" r="2.5"/><desc class="value">0.7143</desc><desc class="x left">462.46153846153845</desc><desc class="y left">98.18131868131866</desc><desc class="x_label">210.0</desc></g><g class="dots"><circle class="dot reactive tooltip-trigger" cx="526.6923076923076" cy="167.0" r="2.5"/><desc class="value">0.5000</desc><desc class="x left">526.6923076923076</desc><desc class="y left">167.0</desc><desc class="x_label">240.0</desc></g><g class="dots"><circle class="dot reactive tooltip-trigger" cx="590.9230769230769" cy="6.423076923076906" r="2.5"/><desc class="value">1.0000</desc><desc class="x left">590.9230769230769</desc><desc class="y left">6.423076923076906</desc><desc class="x_label">270.0</desc></g><g class="dots"><circle class="dot reactive tooltip-trigger" cx="655.1538461538462" cy="6.423076923076906" r="2.5"/><desc class="value">1.0000</desc><desc class="x left">655.1538461538462</desc><desc class="y left">6.423076923076906</desc><desc class="x_label">300.0</desc></g></g><g class="series serie-3 color-3"><g class="dots"><circle class="dot reactive tooltip-trigger" cx="12.846153846153845" cy="6.423076923076906" r="2.5"/><desc class="value">1.0000</desc><desc class="x ">12.846153846153845</desc><desc class="y ">6.423076923076906</desc><desc class="x_label">0.0</desc></g><g class="dots"><circle class="dot reactive tooltip-trigger" cx="77.07692307692308" cy="6.423076923076906" r="2.5"/><desc class="value">1.0000</desc><desc class="x ">77.07692307692308</desc><desc class="y ">6.423076923076906</desc><desc class="x_label">30.0</desc></g><g class="dots"><circle class="dot reactive tooltip-trigger" cx="141.30769230769232" cy="49.53688092729192" r="2.5"/><desc class="value">0.8658</desc><desc class="x ">141.30769230769232</desc><desc class="y ">49.53688092729192</desc><desc class="x_label">60.0</desc></g><g class="dots"><circle class="dot reactive tooltip-trigger" cx="205.53846153846152" cy="32.8411652752298" r="2.5"/><desc class="value">0.9177</desc><desc class="x ">205.53846153846152</desc><desc class="y ">32.8411652752298</desc><desc class="x_label">90.0</desc></g><g class="dots"><circle class="dot reactive tooltip-trigger" cx="269.7692307692308" cy="21.75643278806723" r="2.5"/><desc class="value">0.9523</desc><desc class="x ">269.7692307692308</desc><desc class="y ">21.75643278806723</desc><desc class="x_label">120.0</desc></g><g class="dots"><circle class="dot reactive tooltip-trigger" cx="334.0" cy="33.97189478157782" r="2.5"/><desc class="value">0.9142</desc><desc class="x ">334.0</desc><desc class="y ">33.97189478157782</desc><desc class="x_label">150.0</desc></g><g class="dots"><circle class="dot reactive tooltip-trigger" cx="398.2307692307692" cy="29.240401694220566" r="2.5"/><desc class="value">0.9290</desc><desc class="x left">398.2307692307692</desc><desc class="y left">29.240401694220566</desc><desc class="x_label">180.0</desc></g><g class="dots"><circle class="dot reactive tooltip-trigger" cx="462.46153846153845" cy="24.06889264581571" r="2.5"/><desc class="value">0.9451</desc><desc class="x left">462.46153846153845</desc><desc class="y left">24.06889264581571</desc><desc class="x_label">210.0</desc></g><g class="dots"><circle class="dot reactive tooltip-trigger" cx="526.6923076923076" cy="167.0" r="2.5"/><desc class="value">0.5000</desc><desc class="x left">526.6923076923076</desc><desc class="y left">167.0</desc><desc class="x_label">240.0</desc></g><g class="dots"><circle class="dot reactive tooltip-trigger" cx="590.9230769230769" cy="6.423076923076906" r="2.5"/><desc class="value">1.0000</desc><desc class="x left">590.9230769230769</desc><desc class="y left">6.423076923076906</desc><desc class="x_label">270.0</desc></g><g class="dots"><circle class="dot reactive tooltip-trigger" cx="655.1538461538462" cy="6.423076923076906" r="2.5"/><desc class="value">1.0000</desc><desc class="x left">655.1538461538462</desc><desc class="y left">6.423076923076906</desc><desc class="x_label">300.0</desc></g></g><g class="series serie-4 color-4"><g class="dots"><circle class="dot reactive tooltip-trigger" cx="12.846153846153845" cy="6.423076923076906" r="2.5"/><desc class="value">1.0000</desc><desc class="x ">12.846153846153845</desc><desc class="y ">6.423076923076906</desc><desc class="x_label">0.0</desc></g><g class="dots"><circle class="dot reactive tooltip-trigger" cx="77.07692307692308" cy="6.423076923076906" r="2.5"/><desc class="value">1.0000</desc><desc class="x ">77.07692307692308</desc><desc class="y ">6.423076923076906</desc><desc class="x_label">30.0</desc></g><g class="dots"><circle class="dot reactive tooltip-trigger" cx="141.30769230769232" cy="46.89726027397262" r="2.5"/><desc class="value">0.8740</desc><desc class="x ">141.30769230769232</desc><desc class="y ">46.89726027397262</desc><desc class="x_label">60.0</desc></g><g class="dots"><circle class="dot reactive tooltip-trigger" cx="205.53846153846152" cy="30.998042832056342" r="2.5"/><desc class="value">0.9235</desc><desc class="x ">205.53846153846152</desc><desc class="y ">30.998042832056342</desc><desc class="x_label">90.0</desc></g><g class="dots"><circle class="dot reactive tooltip-trigger" cx="269.7692307692308" cy="22.603059799017615" r="2.5"/><desc class="value">0.9496</desc><desc class="x ">269.7692307692308</desc><desc class="y ">22.603059799017615</desc><desc class="x_label">120.0</desc></g><g class="dots"><circle class="dot reactive tooltip-trigger" cx="334.0" cy="34.718981367571075" r="2.5"/><desc class="value">0.9119</desc><desc class="x ">334.0</desc><desc class="y ">34.718981367571075</desc><desc class="x_label">150.0</desc></g><g class="dots"><circle class="dot reactive tooltip-trigger" cx="398.2307692307692" cy="29.810834813499127" r="2.5"/><desc class="value">0.9272</desc><desc class="x left">398.2307692307692</desc><desc class="y left">29.810834813499127</desc><desc class="x_label">180.0</desc></g><g class="dots"><circle class="dot reactive tooltip-trigger" cx="462.46153846153845" cy="38.18554522400672" r="2.5"/><desc class="value">0.9011</desc><desc class="x left">462.46153846153845</desc><desc class="y left">38.18554522400672</desc><desc class="x_label">210.0</desc></g><g class="dots"><circle class="dot reactive tooltip-trigger" cx="526.6923076923076" cy="167.0" r="2.5"/><desc class="value">0.5000</desc><desc class="x left">526.6923076923076</desc><desc class="y left">167.0</desc><desc class="x_label">240.0</desc></g><g class="dots"><circle class="dot reactive tooltip-trigger" cx="590.9230769230769" cy="6.423076923076906" r="2.5"/><desc class="value">1.0000</desc><desc class="x left">590.9230769230769</desc><desc class="y left">6.423076923076906</desc><desc class="x_label">270.0</desc></g><g class="dots"><circle class="dot reactive tooltip-trigger" cx="655.1538461538462" cy="6.423076923076906" r="2.5"/><desc class="value">1.0000</desc><desc class="x left">655.1538461538462</desc><desc class="y left">6.423076923076906</desc><desc class="x_label">300.0</desc></g></g><g class="series serie-5 color-5"><g class="dots"><circle class="dot reactive tooltip-trigger" cx="12.846153846153845" cy="6.423076923076906" r="2.5"/><desc class="value">1.0000</desc><desc class="x ">12.846153846153845</desc><desc class="y ">6.423076923076906</desc><desc class="x_label">0.0</desc></g><g class="dots"><circle class="dot reactive tooltip-trigger" cx="77.07692307692308" cy="6.423076923076906" r="2.5"/><desc class="value">1.0000</desc><desc class="x ">77.07692307692308</desc><desc class="y ">6.423076923076906</desc><desc class="x_label">30.0</desc></g><g class="dots"><circle class="dot reactive tooltip-trigger" cx="141.30769230769232" cy="49.096944151738626" r="2.5"/><desc class="value">0.8671</desc><desc class="x ">141.30769230769232</desc><desc class="y ">49.096944151738626</desc><desc class="x_label">60.0</desc></g><g class="dots"><circle class="dot reactive tooltip-trigger" cx="205.53846153846152" cy="35.66728635476244" r="2.5"/><desc class="value">0.9089</desc><desc class="x ">205.53846153846152</desc><desc class="y ">35.66728635476244</desc><desc class="x_label">90.0</desc></g><g class="dots"><circle class="dot reactive tooltip-trigger" cx="269.7692307692308" cy="24.202244153034997" r="2.5"/><desc class="value">0.9446</desc><desc class="x ">269.7692307692308</desc><desc class="y ">24.202244153034997</desc><desc class="x_label">120.0</desc></g><g class="dots"><circle class="dot reactive tooltip-trigger" cx="334.0" cy="37.33378441854745" r="2.5"/><desc class="value">0.9038</desc><desc class="x ">334.0</desc><desc class="y ">37.33378441854745</desc><desc class="x_label">150.0</desc></g><g class="dots"><circle class="dot reactive tooltip-trigger" cx="398.2307692307692" cy="28.09953545566333" r="2.5"/><desc class="value">0.9325</desc><desc class="x left">398.2307692307692</desc><desc class="y left">28.09953545566333</desc><desc class="x_label">180.0</desc></g><g class="dots"><circle class="dot reactive tooltip-trigger" cx="462.46153846153845" cy="45.243871513102306" r="2.5"/><desc class="value">0.8791</desc><desc class="x left">462.46153846153845</desc><desc class="y left">45.243871513102306</desc><desc class="x_label">210.0</desc></g><g class="dots"><circle class="dot reactive tooltip-trigger" cx="526.6923076923076" cy="167.0" r="2.5"/><desc class="value">0.5000</desc><desc class="x left">526.6923076923076</desc><desc class="y left">167.0</desc><desc class="x_label">240.0</desc></g><g class="dots"><circle class="dot reactive tooltip-trigger" cx="590.9230769230769" cy="6.423076923076906" r="2.5"/><desc class="value">1.0000</desc><desc class="x left">590.9230769230769</desc><desc class="y left">6.423076923076906</desc><desc class="x_label">270.0</desc></g><g class="dots"><circle class="dot reactive tooltip-trigger" cx="655.1538461538462" cy="6.423076923076906" r="2.5"/><desc class="value">1.0000</desc><desc class="x left">655.1538461538462</desc><desc class="y left">6.423076923076906</desc><desc class="x_label">300.0</desc></g></g></g><g class="plot text-overlay" transform="translate(112, 48)"><g class="series serie-0 color-0"/><g class="series serie-1 color-1"/><g class="series serie-2 color-2"/><g class="series serie-3 color-3"/><g class="series serie-4 color-4"/><g class="series serie-5 color-5"/></g><g class="plot tooltip-overlay" transform="translate(112, 48)"><g class="tooltip" style="opacity: 0" transform="translate(0 0)"><rect class="tooltip-box" height="0" rx="0" ry="0" width="0"/><g class="text"/></g></g><g class="legends" transform="translate(122, 485)"><g class="legend reactive activate-serie" id="activate-serie-0"><rect class="color-0 reactive" height="12" width="12" x="0.0" y="1.5"/><text x="17.0" y="12.0">boeck2015/tempodetector2016_default</text></g><g class="legend reactive activate-serie" id="activate-serie-1"><rect class="color-1 reactive" height="12" width="12" x="334.0" y="1.5"/><text x="351.0" y="12.0">davies2009/mirex_qm_tempotracker</text></g><g class="legend reactive activate-serie" id="activate-serie-2"><rect class="color-2 reactive" height="12" width="12" x="0.0" y="24.0"/><text x="17.0" y="34.5">percival2014/stem</text></g><g class="legend reactive activate-serie" id="activate-serie-3"><rect class="color-3 reactive" height="12" width="12" x="334.0" y="24.0"/><text x="351.0" y="34.5">schreiber2014/default</text></g><g class="legend reactive activate-serie" id="activate-serie-4"><rect class="color-4 reactive" height="12" width="12" x="0.0" y="46.5"/><text x="17.0" y="57.0">schreiber2017/ismir2017</text></g><g class="legend reactive activate-serie" id="activate-serie-5"><rect class="color-5 reactive" height="12" width="12" x="334.0" y="46.5"/><text x="351.0" y="57.0">schreiber2017/mirex2017</text></g></g></g></svg>