<?xml version='1.0' encoding='utf-8'?>
<svg xmlns:xlink="http://www.w3.org/1999/xlink" xmlns="http://www.w3.org/2000/svg" id="chart-e599a847-cede-4868-9223-57e4cd80c4af" class="pygal-chart" viewBox="0 0 800 600"><!--Generated with pygal 2.4.0 (lxml) ©Kozea 2012-2016 on 2020-05-05--><!--http://pygal.org--><!--http://github.com/Kozea/pygal--><defs><style type="text/css">#chart-e599a847-cede-4868-9223-57e4cd80c4af{-webkit-user-select:none;-webkit-font-smoothing:antialiased;font-family:Helvetica,Arial,sans-serif}#chart-e599a847-cede-4868-9223-57e4cd80c4af .title{font-family:Helvetica,Arial,sans-serif;font-size:18px}#chart-e599a847-cede-4868-9223-57e4cd80c4af .legends .legend text{font-family:Helvetica,Arial,sans-serif;font-size:15px}#chart-e599a847-cede-4868-9223-57e4cd80c4af .axis text{font-family:Helvetica,Arial,sans-serif;font-size:15px}#chart-e599a847-cede-4868-9223-57e4cd80c4af .axis text.major{font-family:Helvetica,Arial,sans-serif;font-size:15px}#chart-e599a847-cede-4868-9223-57e4cd80c4af .text-overlay text.value{font-family:Helvetica,Arial,sans-serif;font-size:15px}#chart-e599a847-cede-4868-9223-57e4cd80c4af .text-overlay text.label{font-family:Helvetica,Arial,sans-serif;font-size:15px}#chart-e599a847-cede-4868-9223-57e4cd80c4af .tooltip{font-family:Helvetica,Arial,sans-serif;font-size:14px}#chart-e599a847-cede-4868-9223-57e4cd80c4af text.no_data{font-family:Helvetica,Arial,sans-serif;font-size:64px}
#chart-e599a847-cede-4868-9223-57e4cd80c4af{background-color:transparent}#chart-e599a847-cede-4868-9223-57e4cd80c4af path,#chart-e599a847-cede-4868-9223-57e4cd80c4af line,#chart-e599a847-cede-4868-9223-57e4cd80c4af rect,#chart-e599a847-cede-4868-9223-57e4cd80c4af circle{-webkit-transition:150ms;-moz-transition:150ms;transition:150ms}#chart-e599a847-cede-4868-9223-57e4cd80c4af .graph &gt; .background{fill:transparent}#chart-e599a847-cede-4868-9223-57e4cd80c4af .plot &gt; .background{fill:white}#chart-e599a847-cede-4868-9223-57e4cd80c4af .graph{fill:rgba(0,0,0,.87)}#chart-e599a847-cede-4868-9223-57e4cd80c4af text.no_data{fill:rgba(0,0,0,1)}#chart-e599a847-cede-4868-9223-57e4cd80c4af .title{fill:rgba(0,0,0,1)}#chart-e599a847-cede-4868-9223-57e4cd80c4af .legends .legend text{fill:rgba(0,0,0,.87)}#chart-e599a847-cede-4868-9223-57e4cd80c4af .legends .legend:hover text{fill:rgba(0,0,0,1)}#chart-e599a847-cede-4868-9223-57e4cd80c4af .axis .line{stroke:rgba(0,0,0,1)}#chart-e599a847-cede-4868-9223-57e4cd80c4af .axis .guide.line{stroke:rgba(0,0,0,.54)}#chart-e599a847-cede-4868-9223-57e4cd80c4af .axis .major.line{stroke:rgba(0,0,0,.87)}#chart-e599a847-cede-4868-9223-57e4cd80c4af .axis text.major{fill:rgba(0,0,0,1)}#chart-e599a847-cede-4868-9223-57e4cd80c4af .axis.y .guides:hover .guide.line,#chart-e599a847-cede-4868-9223-57e4cd80c4af .line-graph .axis.x .guides:hover .guide.line,#chart-e599a847-cede-4868-9223-57e4cd80c4af .stackedline-graph .axis.x .guides:hover .guide.line,#chart-e599a847-cede-4868-9223-57e4cd80c4af .xy-graph .axis.x .guides:hover .guide.line{stroke:rgba(0,0,0,1)}#chart-e599a847-cede-4868-9223-57e4cd80c4af .axis .guides:hover text{fill:rgba(0,0,0,1)}#chart-e599a847-cede-4868-9223-57e4cd80c4af .reactive{fill-opacity:.7;stroke-opacity:.8}#chart-e599a847-cede-4868-9223-57e4cd80c4af .ci{stroke:rgba(0,0,0,.87)}#chart-e599a847-cede-4868-9223-57e4cd80c4af .reactive.active,#chart-e599a847-cede-4868-9223-57e4cd80c4af .active .reactive{fill-opacity:.8;stroke-opacity:.9;stroke-width:4}#chart-e599a847-cede-4868-9223-57e4cd80c4af .ci .reactive.active{stroke-width:1.5}#chart-e599a847-cede-4868-9223-57e4cd80c4af .series text{fill:rgba(0,0,0,1)}#chart-e599a847-cede-4868-9223-57e4cd80c4af .tooltip rect{fill:white;stroke:rgba(0,0,0,1);-webkit-transition:opacity 150ms;-moz-transition:opacity 150ms;transition:opacity 150ms}#chart-e599a847-cede-4868-9223-57e4cd80c4af .tooltip .label{fill:rgba(0,0,0,.87)}#chart-e599a847-cede-4868-9223-57e4cd80c4af .tooltip .label{fill:rgba(0,0,0,.87)}#chart-e599a847-cede-4868-9223-57e4cd80c4af .tooltip .legend{font-size:.8em;fill:rgba(0,0,0,.54)}#chart-e599a847-cede-4868-9223-57e4cd80c4af .tooltip .x_label{font-size:.6em;fill:rgba(0,0,0,1)}#chart-e599a847-cede-4868-9223-57e4cd80c4af .tooltip .xlink{font-size:.5em;text-decoration:underline}#chart-e599a847-cede-4868-9223-57e4cd80c4af .tooltip .value{font-size:1.5em}#chart-e599a847-cede-4868-9223-57e4cd80c4af .bound{font-size:.5em}#chart-e599a847-cede-4868-9223-57e4cd80c4af .max-value{font-size:.75em;fill:rgba(0,0,0,.54)}#chart-e599a847-cede-4868-9223-57e4cd80c4af .map-element{fill:white;stroke:rgba(0,0,0,.54) !important}#chart-e599a847-cede-4868-9223-57e4cd80c4af .map-element .reactive{fill-opacity:inherit;stroke-opacity:inherit}#chart-e599a847-cede-4868-9223-57e4cd80c4af .color-0,#chart-e599a847-cede-4868-9223-57e4cd80c4af .color-0 a:visited{stroke:#F44336;fill:#F44336}#chart-e599a847-cede-4868-9223-57e4cd80c4af .color-1,#chart-e599a847-cede-4868-9223-57e4cd80c4af .color-1 a:visited{stroke:#3F51B5;fill:#3F51B5}#chart-e599a847-cede-4868-9223-57e4cd80c4af .color-2,#chart-e599a847-cede-4868-9223-57e4cd80c4af .color-2 a:visited{stroke:#009688;fill:#009688}#chart-e599a847-cede-4868-9223-57e4cd80c4af .color-3,#chart-e599a847-cede-4868-9223-57e4cd80c4af .color-3 a:visited{stroke:#FFC107;fill:#FFC107}#chart-e599a847-cede-4868-9223-57e4cd80c4af .color-4,#chart-e599a847-cede-4868-9223-57e4cd80c4af .color-4 a:visited{stroke:#FF5722;fill:#FF5722}#chart-e599a847-cede-4868-9223-57e4cd80c4af .color-5,#chart-e599a847-cede-4868-9223-57e4cd80c4af .color-5 a:visited{stroke:#9C27B0;fill:#9C27B0}#chart-e599a847-cede-4868-9223-57e4cd80c4af .color-6,#chart-e599a847-cede-4868-9223-57e4cd80c4af .color-6 a:visited{stroke:#03A9F4;fill:#03A9F4}#chart-e599a847-cede-4868-9223-57e4cd80c4af .color-7,#chart-e599a847-cede-4868-9223-57e4cd80c4af .color-7 a:visited{stroke:#8BC34A;fill:#8BC34A}#chart-e599a847-cede-4868-9223-57e4cd80c4af .text-overlay .color-0 text{fill:black}#chart-e599a847-cede-4868-9223-57e4cd80c4af .text-overlay .color-1 text{fill:black}#chart-e599a847-cede-4868-9223-57e4cd80c4af .text-overlay .color-2 text{fill:black}#chart-e599a847-cede-4868-9223-57e4cd80c4af .text-overlay .color-3 text{fill:black}#chart-e599a847-cede-4868-9223-57e4cd80c4af .text-overlay .color-4 text{fill:black}#chart-e599a847-cede-4868-9223-57e4cd80c4af .text-overlay .color-5 text{fill:black}#chart-e599a847-cede-4868-9223-57e4cd80c4af .text-overlay .color-6 text{fill:black}#chart-e599a847-cede-4868-9223-57e4cd80c4af .text-overlay .color-7 text{fill:black}
#chart-e599a847-cede-4868-9223-57e4cd80c4af text.no_data{text-anchor:middle}#chart-e599a847-cede-4868-9223-57e4cd80c4af .guide.line{fill:none}#chart-e599a847-cede-4868-9223-57e4cd80c4af .centered{text-anchor:middle}#chart-e599a847-cede-4868-9223-57e4cd80c4af .title{text-anchor:middle}#chart-e599a847-cede-4868-9223-57e4cd80c4af .legends .legend text{fill-opacity:1}#chart-e599a847-cede-4868-9223-57e4cd80c4af .axis.x text{text-anchor:middle}#chart-e599a847-cede-4868-9223-57e4cd80c4af .axis.x:not(.web) text[transform]{text-anchor:start}#chart-e599a847-cede-4868-9223-57e4cd80c4af .axis.x:not(.web) text[transform].backwards{text-anchor:end}#chart-e599a847-cede-4868-9223-57e4cd80c4af .axis.y text{text-anchor:end}#chart-e599a847-cede-4868-9223-57e4cd80c4af .axis.y text[transform].backwards{text-anchor:start}#chart-e599a847-cede-4868-9223-57e4cd80c4af .axis.y2 text{text-anchor:start}#chart-e599a847-cede-4868-9223-57e4cd80c4af .axis.y2 text[transform].backwards{text-anchor:end}#chart-e599a847-cede-4868-9223-57e4cd80c4af .axis .guide.line{stroke-dasharray:1}#chart-e599a847-cede-4868-9223-57e4cd80c4af .axis .major.guide.line{stroke-dasharray:1}#chart-e599a847-cede-4868-9223-57e4cd80c4af .horizontal .axis.y .guide.line,#chart-e599a847-cede-4868-9223-57e4cd80c4af .horizontal .axis.y2 .guide.line,#chart-e599a847-cede-4868-9223-57e4cd80c4af .vertical .axis.x .guide.line{opacity:0}#chart-e599a847-cede-4868-9223-57e4cd80c4af .horizontal .axis.always_show .guide.line,#chart-e599a847-cede-4868-9223-57e4cd80c4af .vertical .axis.always_show .guide.line{opacity:1 !important}#chart-e599a847-cede-4868-9223-57e4cd80c4af .axis.y .guides:hover .guide.line,#chart-e599a847-cede-4868-9223-57e4cd80c4af .axis.y2 .guides:hover .guide.line,#chart-e599a847-cede-4868-9223-57e4cd80c4af .axis.x .guides:hover .guide.line{opacity:1}#chart-e599a847-cede-4868-9223-57e4cd80c4af .axis .guides:hover text{opacity:1}#chart-e599a847-cede-4868-9223-57e4cd80c4af .nofill{fill:none}#chart-e599a847-cede-4868-9223-57e4cd80c4af .subtle-fill{fill-opacity:.2}#chart-e599a847-cede-4868-9223-57e4cd80c4af .dot{stroke-width:1px;fill-opacity:1}#chart-e599a847-cede-4868-9223-57e4cd80c4af .dot.active{stroke-width:5px}#chart-e599a847-cede-4868-9223-57e4cd80c4af .dot.negative{fill:transparent}#chart-e599a847-cede-4868-9223-57e4cd80c4af text,#chart-e599a847-cede-4868-9223-57e4cd80c4af tspan{stroke:none !important}#chart-e599a847-cede-4868-9223-57e4cd80c4af .series text.active{opacity:1}#chart-e599a847-cede-4868-9223-57e4cd80c4af .tooltip rect{fill-opacity:.95;stroke-width:.5}#chart-e599a847-cede-4868-9223-57e4cd80c4af .tooltip text{fill-opacity:1}#chart-e599a847-cede-4868-9223-57e4cd80c4af .showable{visibility:hidden}#chart-e599a847-cede-4868-9223-57e4cd80c4af .showable.shown{visibility:visible}#chart-e599a847-cede-4868-9223-57e4cd80c4af .gauge-background{fill:rgba(229,229,229,1);stroke:none}#chart-e599a847-cede-4868-9223-57e4cd80c4af .bg-lines{stroke:transparent;stroke-width:2px}</style><script type="text/javascript">window.pygal = window.pygal || {};window.pygal.config = window.pygal.config || {};window.pygal.config['e599a847-cede-4868-9223-57e4cd80c4af'] = {"allow_interruptions": false, "box_mode": "extremes", "classes": ["pygal-chart"], "css": ["file://style.css", "file://graph.css"], "defs": [], "disable_xml_declaration": false, "dots_size": 2.5, "dynamic_print_values": false, "explicit_size": false, "fill": false, "force_uri_protocol": "https", "formatter": null, "half_pie": false, "height": 600, "include_x_axis": false, "inner_radius": 0, "interpolate": null, "interpolation_parameters": {}, "interpolation_precision": 250, "inverse_y_axis": false, "js": ["//kozea.github.io/pygal.js/2.0.x/pygal-tooltips.min.js"], "legend_at_bottom": true, "legend_at_bottom_columns": 2, "legend_box_size": 12, "logarithmic": false, "margin": 20, "margin_bottom": 70, "margin_left": null, "margin_right": null, "margin_top": null, "max_scale": 16, "min_scale": 4, "missing_value_fill_truncation": "x", "no_data_text": "No data", "no_prefix": false, "order_min": null, "pretty_print": false, "print_labels": false, "print_values": false, "print_values_position": "center", "print_zeroes": true, "range": [0.0, 100.0], "rounded_bars": null, "secondary_range": null, "show_dots": true, "show_legend": true, "show_minor_x_labels": false, "show_minor_y_labels": true, "show_only_major_dots": true, "show_x_guides": true, "show_x_labels": true, "show_y_guides": true, "show_y_labels": true, "spacing": 10, "stack_from_top": false, "strict": false, "stroke": true, "stroke_style": null, "style": {"background": "transparent", "ci_colors": [], "colors": ["#F44336", "#3F51B5", "#009688", "#FFC107", "#FF5722", "#9C27B0", "#03A9F4", "#8BC34A", "#FF9800", "#E91E63", "#2196F3", "#4CAF50", "#FFEB3B", "#673AB7", "#00BCD4", "#CDDC39", "#9E9E9E", "#607D8B"], "font_family": "Helvetica, Arial, sans-serif", "foreground": "rgba(0, 0, 0, .87)", "foreground_strong": "rgba(0, 0, 0, 1)", "foreground_subtle": "rgba(0, 0, 0, .54)", "guide_stroke_dasharray": 1, "label_font_family": "Helvetica, Arial, sans-serif", "label_font_size": 15, "legend_font_family": "Helvetica, Arial, sans-serif", "legend_font_size": 15, "major_guide_stroke_dasharray": 1, "major_label_font_family": "Helvetica, Arial, sans-serif", "major_label_font_size": 15, "no_data_font_family": "Helvetica, Arial, sans-serif", "no_data_font_size": 64, "opacity": ".7", "opacity_hover": ".8", "plot_background": "white", "stroke_opacity": ".8", "stroke_opacity_hover": ".9", "title_font_family": "Helvetica, Arial, sans-serif", "title_font_size": 18, "tooltip_font_family": "Helvetica, Arial, sans-serif", "tooltip_font_size": 14, "transition": "150ms", "value_background": "rgba(229, 229, 229, 1)", "value_colors": [], "value_font_family": "Helvetica, Arial, sans-serif", "value_font_size": 15, "value_label_font_family": "Helvetica, Arial, sans-serif", "value_label_font_size": 15}, "title": "Mean Accuracy2 for Tempo T \u00b110.0 BPM", "tooltip_border_radius": 0, "tooltip_fancy_mode": true, "truncate_label": null, "truncate_legend": -1, "width": 800, "x_label_rotation": 90, "x_labels": ["0.0", "1.0", "2.0", "3.0", "4.0", "5.0", "6.0", "7.0", "8.0", "9.0", "10.0", "11.0", "12.0", "13.0", "14.0", "15.0", "16.0", "17.0", "18.0", "19.0", "20.0", "21.0", "22.0", "23.0", "24.0", "25.0", "26.0", "27.0", "28.0", "29.0", "30.0", "31.0", "32.0", "33.0", "34.0", "35.0", "36.0", "37.0", "38.0", "39.0", "40.0", "41.0", "42.0", "43.0", "44.0", "45.0", "46.0", "47.0", "48.0", "49.0", "50.0", "51.0", "52.0", "53.0", "54.0", "55.0", "56.0", "57.0", "58.0", "59.0", "60.0", "61.0", "62.0", "63.0", "64.0", "65.0", "66.0", "67.0", "68.0", "69.0", "70.0", "71.0", "72.0", "73.0", "74.0", "75.0", "76.0", "77.0", "78.0", "79.0", "80.0", "81.0", "82.0", "83.0", "84.0", "85.0", "86.0", "87.0", "88.0", "89.0", "90.0", "91.0", "92.0", "93.0", "94.0", "95.0", "96.0", "97.0", "98.0", "99.0", "100.0", "101.0", "102.0", "103.0", "104.0", "105.0", "106.0", "107.0", "108.0", "109.0", "110.0", "111.0", "112.0", "113.0", "114.0", "115.0", "116.0", "117.0", "118.0", "119.0", "120.0", "121.0", "122.0", "123.0", "124.0", "125.0", "126.0", "127.0", "128.0", "129.0", "130.0", "131.0", "132.0", "133.0", "134.0", "135.0", "136.0", "137.0", "138.0", "139.0", "140.0", "141.0", "142.0", "143.0", "144.0", "145.0", "146.0", "147.0", "148.0", "149.0", "150.0", "151.0", "152.0", "153.0", "154.0", "155.0", "156.0", "157.0", "158.0", "159.0", "160.0", "161.0", "162.0", "163.0", "164.0", "165.0", "166.0", "167.0", "168.0", "169.0", "170.0", "171.0", "172.0", "173.0", "174.0", "175.0", "176.0", "177.0", "178.0", "179.0", "180.0", "181.0", "182.0", "183.0", "184.0", "185.0", "186.0", "187.0", "188.0", "189.0", "190.0", "191.0", "192.0", "193.0", "194.0", "195.0", "196.0", "197.0", "198.0", "199.0", "200.0", "201.0", "202.0", "203.0", "204.0", "205.0", "206.0", "207.0", "208.0", "209.0", "210.0", "211.0", "212.0", "213.0", "214.0", "215.0", "216.0", "217.0", "218.0", "219.0", "220.0", "221.0", "222.0", "223.0", "224.0", "225.0", "226.0", "227.0", "228.0", "229.0", "230.0", "231.0", "232.0", "233.0", "234.0", "235.0", "236.0", "237.0", "238.0", "239.0", "240.0", "241.0", "242.0", "243.0", "244.0", "245.0", "246.0", "247.0", "248.0", "249.0", "250.0", "251.0", "252.0", "253.0", "254.0", "255.0", "256.0", "257.0", "258.0", "259.0", "260.0", "261.0", "262.0", "263.0", "264.0", "265.0", "266.0", "267.0", "268.0", "269.0", "270.0", "271.0", "272.0", "273.0", "274.0", "275.0", "276.0", "277.0", "278.0", "279.0", "280.0", "281.0", "282.0", "283.0", "284.0", "285.0", "286.0", "287.0", "288.0", "289.0", "290.0", "291.0", "292.0", "293.0", "294.0", "295.0", "296.0", "297.0", "298.0", "299.0", "300.0"], "x_labels_major": null, "x_labels_major_count": 11, "x_labels_major_every": null, "x_title": "T (BPM)", "xrange": null, "y_label_rotation": 0, "y_labels": null, "y_labels_major": null, "y_labels_major_count": null, "y_labels_major_every": null, "y_title": "Mean Accuracy2 (%)", "zero": 0, "legends": ["boeck2015/tempodetector2016_default", "davies2009/mirex_qm_tempotracker", "percival2014/stem", "schreiber2014/default", "schreiber2017/ismir2017", "schreiber2017/mirex2017", "schreiber2018/cnn", "schreiber2018/fcn"]}</script><script type="text/javascript" xlink:href="https://kozea.github.io/pygal.js/2.0.x/pygal-tooltips.min.js"/></defs><title>Mean Accuracy2 for Tempo T ±10.0 BPM</title><g class="graph line-graph vertical"><rect class="background" height="600" width="800" x="0" y="0"/><g class="plot" transform="translate(103, 48)"><rect class="background" height="306.5" width="677.0" x="0" y="0"/><g class="axis y always_show"><g class="guides"><path class="major line" d="M0.000000 300.605769 h677.000000"/><text class="major" x="-5" y="305.8557692307692">0.0</text><title>0.0</title></g><g class="guides"><path class="guide line" d="M0.000000 271.134615 h677.000000"/><text class="" x="-5" y="276.38461538461536">10.0</text><title>10.0</title></g><g class="guides"><path class="guide line" d="M0.000000 241.663462 h677.000000"/><text class="" x="-5" y="246.91346153846155">20.0</text><title>20.0</title></g><g class="guides"><path class="guide line" d="M0.000000 212.192308 h677.000000"/><text class="" x="-5" y="217.44230769230768">30.0</text><title>30.0</title></g><g class="guides"><path class="guide line" d="M0.000000 182.721154 h677.000000"/><text class="" x="-5" y="187.97115384615384">40.0</text><title>40.0</title></g><g class="guides"><path class="major guide line" d="M0.000000 153.250000 h677.000000"/><text class="major" x="-5" y="158.5">50.0</text><title>50.0</title></g><g class="guides"><path class="guide line" d="M0.000000 123.778846 h677.000000"/><text class="" x="-5" y="129.02884615384616">60.0</text><title>60.0</title></g><g class="guides"><path class="guide line" d="M0.000000 94.307692 h677.000000"/><text class="" x="-5" y="99.55769230769232">70.0</text><title>70.0</title></g><g class="guides"><path class="guide line" d="M0.000000 64.836538 h677.000000"/><text class="" x="-5" y="70.08653846153845">80.0</text><title>80.0</title></g><g class="guides"><path class="guide line" d="M0.000000 35.365385 h677.000000"/><text class="" x="-5" y="40.61538461538464">90.0</text><title>90.0</title></g><g class="guides"><path class="major guide line" d="M0.000000 5.894231 h677.000000"/><text class="major" x="-5" y="11.144230769230774">100.0</text><title>100.0</title></g></g><g class="axis x always_show"><g class="guides"><path class="major line" d="M13.019231 0.000000 v306.500000"/><text class="major" x="13.01923076923077" y="324.0" transform="rotate(90 13.019231 324.000000)">0.0</text></g><g class="guides"><path class="major guide line" d="M78.115385 0.000000 v306.500000"/><text class="major" x="78.11538461538463" y="324.0" transform="rotate(90 78.115385 324.000000)">30.0</text></g><g class="guides"><path class="major guide line" d="M143.211538 0.000000 v306.500000"/><text class="major" x="143.21153846153845" y="324.0" transform="rotate(90 143.211538 324.000000)">60.0</text></g><g class="guides"><path class="major guide line" d="M208.307692 0.000000 v306.500000"/><text class="major" x="208.30769230769232" y="324.0" transform="rotate(90 208.307692 324.000000)">90.0</text></g><g class="guides"><path class="major guide line" d="M273.403846 0.000000 v306.500000"/><text class="major" x="273.4038461538462" y="324.0" transform="rotate(90 273.403846 324.000000)">120.0</text></g><g class="guides"><path class="major guide line" d="M338.500000 0.000000 v306.500000"/><text class="major" x="338.5" y="324.0" transform="rotate(90 338.500000 324.000000)">150.0</text></g><g class="guides"><path class="major guide line" d="M403.596154 0.000000 v306.500000"/><text class="major" x="403.59615384615387" y="324.0" transform="rotate(90 403.596154 324.000000)">180.0</text></g><g class="guides"><path class="major guide line" d="M468.692308 0.000000 v306.500000"/><text class="major" x="468.6923076923077" y="324.0" transform="rotate(90 468.692308 324.000000)">210.0</text></g><g class="guides"><path class="major guide line" d="M533.788462 0.000000 v306.500000"/><text class="major" x="533.7884615384615" y="324.0" transform="rotate(90 533.788462 324.000000)">240.0</text></g><g class="guides"><path class="major guide line" d="M598.884615 0.000000 v306.500000"/><text class="major" x="598.8846153846154" y="324.0" transform="rotate(90 598.884615 324.000000)">270.0</text></g><g class="guides"><path class="major guide line" d="M663.980769 0.000000 v306.500000"/><text class="major" x="663.9807692307692" y="324.0" transform="rotate(90 663.980769 324.000000)">300.0</text></g></g><g class="series serie-0 color-0"><path class="line reactive nofill" d="M13.019231 5.894231 L15.189103 5.894231 17.358974 5.894231 19.528846 5.894231 21.698718 5.894231 23.868590 5.894231 26.038462 5.894231 28.208333 5.894231 30.378205 5.894231 32.548077 5.894231 34.717949 5.894231 36.887821 5.894231 39.057692 5.894231 41.227564 5.894231 43.397436 5.894231 45.567308 5.894231 47.737179 5.894231 49.907051 5.894231 52.076923 5.894231 54.246795 5.894231 56.416667 5.894231 58.586538 5.894231 60.756410 5.894231 62.926282 5.894231 65.096154 5.894231 67.266026 5.894231 69.435897 5.894231 71.605769 5.894231 73.775641 5.894231 75.945513 5.894231 78.115385 5.894231 80.285256 5.894231 82.455128 5.894231 84.625000 5.894231 86.794872 5.894231 88.964744 5.894231 91.134615 5.894231 93.304487 5.894231 95.474359 300.605769 97.644231 300.605769 99.814103 300.605769 101.983974 300.605769 104.153846 153.250000 106.323718 104.131410 108.493590 139.854021 110.663462 104.131410 112.833333 100.201923 115.003205 111.148352 117.173077 104.131410 119.342949 100.962469 121.512821 102.345280 123.682692 102.520965 125.852564 93.867824 128.022436 78.662512 130.192308 75.238122 132.362179 61.152644 134.532051 57.042514 136.701923 72.495708 138.871795 66.613693 141.041667 62.890330 143.211538 60.105383 145.381410 59.726989 147.551282 60.094054 149.721154 70.024614 151.891026 73.405244 154.060897 65.766595 156.230769 65.284769 158.400641 75.899024 160.570513 68.140996 162.740385 65.866741 164.910256 74.483671 167.080128 72.304342 169.250000 69.816855 171.419872 66.995957 173.589744 66.772600 175.759615 62.247856 177.929487 60.876292 180.099359 63.539519 182.269231 60.150748 184.439103 59.541485 186.608974 55.481556 188.778846 54.391066 190.948718 52.270878 193.118590 50.789540 195.288462 47.494210 197.458333 44.352104 199.628205 51.592417 201.798077 51.471851 203.967949 46.311111 206.137821 46.979017 208.307692 45.333905 210.477564 38.462437 212.647436 37.351511 214.817308 37.479349 216.987179 38.174508 219.157051 35.718568 221.326923 37.711941 223.496795 38.313834 225.666667 35.016455 227.836538 34.841576 230.006410 34.062283 232.176282 34.156312 234.346154 34.076209 236.516026 34.846138 238.685897 35.412996 240.855769 35.121821 243.025641 37.121943 245.195513 25.197645 247.365385 24.629866 249.535256 26.205949 251.705128 32.048601 253.875000 41.058676 256.044872 41.358730 258.214744 41.644152 260.384615 41.188134 262.554487 40.446618 264.724359 40.532218 266.894231 39.629793 269.064103 38.857227 271.233974 38.927200 273.403846 37.590895 275.573718 38.845111 277.743590 38.701742 279.913462 39.029973 282.083333 38.778710 284.253205 38.408375 286.423077 39.057988 288.592949 38.943306 290.762821 40.077956 292.932692 40.574641 295.102564 36.958420 297.272436 33.201419 299.442308 22.868123 301.612179 30.438596 303.782051 34.791038 305.951923 35.347315 308.121795 37.044121 310.291667 37.635356 312.461538 38.223791 314.631410 39.143738 316.801282 37.845838 318.971154 43.736568 321.141026 43.868919 323.310897 44.564612 325.480769 45.306251 327.650641 46.562310 329.820513 48.155809 331.990385 48.922115 334.160256 49.533059 336.330128 48.087206 338.500000 51.281018 340.669872 63.370696 342.839744 62.583503 345.009615 64.761068 347.179487 53.204330 349.349359 44.201623 351.519231 44.939498 353.689103 42.580314 355.858974 43.568695 358.028846 43.278358 360.198718 42.733173 362.368590 49.611032 364.538462 39.458600 366.708333 40.615992 368.878205 38.261394 371.048077 38.251284 373.217949 39.479591 375.387821 38.728940 377.557692 38.998815 379.727564 37.138721 381.897436 36.736136 384.067308 22.917280 386.237179 22.206678 388.407051 17.682692 390.576923 16.419643 392.746795 16.809473 394.916667 17.167350 397.086538 17.818975 399.256410 24.907878 401.426282 22.734890 403.596154 23.864447 405.766026 25.411551 407.935897 27.363283 410.105769 27.887629 412.275641 27.887629 414.445513 33.841015 416.615385 34.839114 418.785256 30.200337 420.955128 35.738437 423.125000 35.738437 425.294872 37.928094 427.464744 37.928094 429.634615 40.566176 431.804487 40.566176 433.974359 40.163014 436.144231 47.016771 438.314103 47.016771 440.483974 53.048077 442.653846 50.100962 444.823718 43.402972 446.993590 43.402972 449.163462 43.402972 451.333333 47.995879 453.503205 46.082168 455.673077 49.022749 457.842949 49.022749 460.012821 62.935174 462.182692 62.935174 464.352564 62.935174 466.522436 60.470442 468.692308 66.869032 470.862179 96.574704 473.032051 96.574704 475.201923 104.131410 477.371795 104.131410 479.541667 113.062063 481.711538 79.572115 483.881410 79.572115 486.051282 79.572115 488.221154 202.368590 490.391026 202.368590 492.560897 202.368590 494.730769 226.927885 496.900641 226.927885 499.070513 226.927885 501.240385 226.927885 503.410256 226.927885 505.580128 202.368590 507.750000 202.368590 509.919872 202.368590 512.089744 202.368590 514.259615 300.605769 516.429487 300.605769 518.599359 300.605769 520.769231 300.605769 522.939103 300.605769 525.108974 300.605769 527.278846 300.605769 529.448718 300.605769 531.618590 300.605769 533.788462 300.605769 535.958333 300.605769 538.128205 300.605769 540.298077 5.894231 542.467949 5.894231 544.637821 5.894231 546.807692 5.894231 548.977564 5.894231 551.147436 5.894231 553.317308 5.894231 555.487179 5.894231 557.657051 5.894231 559.826923 5.894231 561.996795 5.894231 564.166667 5.894231 566.336538 5.894231 568.506410 5.894231 570.676282 5.894231 572.846154 5.894231 575.016026 5.894231 577.185897 5.894231 579.355769 5.894231 581.525641 5.894231 583.695513 5.894231 585.865385 5.894231 588.035256 5.894231 590.205128 5.894231 592.375000 5.894231 594.544872 5.894231 596.714744 5.894231 598.884615 5.894231 601.054487 5.894231 603.224359 5.894231 605.394231 5.894231 607.564103 5.894231 609.733974 5.894231 611.903846 5.894231 614.073718 5.894231 616.243590 5.894231 618.413462 5.894231 620.583333 5.894231 622.753205 5.894231 624.923077 5.894231 627.092949 5.894231 629.262821 5.894231 631.432692 5.894231 633.602564 5.894231 635.772436 5.894231 637.942308 5.894231 640.112179 5.894231 642.282051 5.894231 644.451923 5.894231 646.621795 5.894231 648.791667 5.894231 650.961538 5.894231 653.131410 5.894231 655.301282 5.894231 657.471154 5.894231 659.641026 5.894231 661.810897 5.894231 663.980769 5.894231"/></g><g class="series serie-1 color-1"><path class="line reactive nofill" d="M13.019231 5.894231 L15.189103 5.894231 17.358974 5.894231 19.528846 5.894231 21.698718 5.894231 23.868590 5.894231 26.038462 5.894231 28.208333 5.894231 30.378205 5.894231 32.548077 5.894231 34.717949 5.894231 36.887821 5.894231 39.057692 5.894231 41.227564 5.894231 43.397436 5.894231 45.567308 5.894231 47.737179 5.894231 49.907051 5.894231 52.076923 5.894231 54.246795 5.894231 56.416667 5.894231 58.586538 5.894231 60.756410 5.894231 62.926282 5.894231 65.096154 5.894231 67.266026 5.894231 69.435897 5.894231 71.605769 5.894231 73.775641 5.894231 75.945513 5.894231 78.115385 5.894231 80.285256 5.894231 82.455128 5.894231 84.625000 5.894231 86.794872 5.894231 88.964744 5.894231 91.134615 5.894231 93.304487 5.894231 95.474359 300.605769 97.644231 300.605769 99.814103 300.605769 101.983974 300.605769 104.153846 153.250000 106.323718 104.131410 108.493590 113.062063 110.663462 87.758547 112.833333 88.413462 115.003205 90.097527 117.173077 84.483974 119.342949 81.948821 121.512821 96.986888 123.682692 102.520965 125.852564 102.665184 128.022436 85.939340 130.192308 82.172511 132.362179 66.415350 134.532051 64.349412 136.701923 99.136299 138.871795 94.751981 141.041667 89.303157 143.211538 86.718131 145.381410 85.274738 147.551282 81.265860 149.721154 94.523862 151.891026 101.967596 154.060897 94.830849 156.230769 94.419750 158.400641 113.926320 160.570513 106.949165 162.740385 103.395551 164.910256 107.384297 167.080128 106.976288 169.250000 103.960265 171.419872 100.368787 173.589744 101.406583 175.759615 96.498116 177.929487 94.519162 180.099359 95.964994 182.269231 91.154473 184.439103 90.371238 186.608974 82.865602 188.778846 81.996957 190.948718 80.777625 193.118590 78.883537 195.288462 76.127961 197.458333 72.237366 199.628205 79.035192 201.798077 79.008330 203.967949 71.249186 206.137821 71.455060 208.307692 68.654756 210.477564 62.796417 212.647436 60.790269 214.817308 60.981662 216.987179 60.598212 219.157051 56.386310 221.326923 57.995731 223.496795 58.592763 225.666667 55.818043 227.836538 55.380406 230.006410 53.542992 232.176282 55.163955 234.346154 54.912884 236.516026 54.514554 238.685897 55.409578 240.855769 52.820751 243.025641 53.874310 245.195513 40.678602 247.365385 40.555156 249.535256 40.769068 251.705128 46.513868 253.875000 56.585833 256.044872 55.606477 258.214744 55.914079 260.384615 55.186560 262.554487 54.238537 264.724359 54.243087 266.894231 53.211643 269.064103 52.265904 271.233974 51.565902 273.403846 49.999802 275.573718 51.627780 277.743590 51.769140 279.913462 51.666485 282.083333 51.405240 284.253205 51.330663 286.423077 52.434965 288.592949 52.162936 290.762821 54.145332 292.932692 54.245343 295.102564 53.154279 297.272436 49.517034 299.442308 38.349805 301.612179 45.129384 303.782051 48.431767 305.951923 48.718654 308.121795 55.883277 310.291667 57.449513 312.461538 58.528332 314.631410 60.950232 316.801282 60.127881 318.971154 67.130013 321.141026 67.865195 323.310897 70.504992 325.480769 71.664608 327.650641 73.234233 329.820513 76.143610 331.990385 77.803846 334.160256 79.721563 336.330128 76.855144 338.500000 80.933719 340.669872 91.530306 342.839744 90.928140 345.009615 94.571838 347.179487 88.795415 349.349359 86.084372 351.519231 90.403166 353.689103 81.712137 355.858974 80.635508 358.028846 80.039417 360.198718 84.653349 362.368590 94.835309 364.538462 87.758547 366.708333 88.887710 368.878205 84.256836 371.048077 85.475091 373.217949 87.338730 375.387821 88.381428 377.557692 88.251976 379.727564 86.961015 381.897436 88.139311 384.067308 77.178249 386.237179 77.668997 388.407051 83.992788 390.576923 82.579376 392.746795 82.300926 394.916667 83.195618 397.086538 82.553301 399.256410 81.948821 401.426282 83.361264 403.596154 84.963180 405.766026 82.011780 407.935897 83.963512 410.105769 87.269805 412.275641 87.269805 414.445513 94.815816 416.615385 95.360234 418.785256 90.965603 420.955128 80.504747 423.125000 80.504747 425.294872 73.165343 427.464744 73.165343 429.634615 71.770928 431.804487 71.770928 433.974359 71.004919 436.144231 74.431798 438.314103 74.431798 440.483974 80.554487 442.653846 75.888221 444.823718 64.836538 446.993590 64.836538 449.163462 64.836538 451.333333 41.981358 453.503205 39.384178 455.673077 41.834662 457.842949 41.834662 460.012821 34.414702 462.182692 34.414702 464.352564 34.414702 466.522436 38.639957 468.692308 36.381631 470.862179 51.234467 473.032051 51.234467 475.201923 55.012821 477.371795 55.012821 479.541667 59.478147 481.711538 42.733173 483.881410 42.733173 486.051282 42.733173 488.221154 104.131410 490.391026 104.131410 492.560897 104.131410 494.730769 153.250000 496.900641 153.250000 499.070513 153.250000 501.240385 153.250000 503.410256 153.250000 505.580128 104.131410 507.750000 104.131410 509.919872 104.131410 512.089744 104.131410 514.259615 300.605769 516.429487 300.605769 518.599359 300.605769 520.769231 300.605769 522.939103 300.605769 525.108974 300.605769 527.278846 300.605769 529.448718 300.605769 531.618590 300.605769 533.788462 300.605769 535.958333 300.605769 538.128205 300.605769 540.298077 5.894231 542.467949 5.894231 544.637821 5.894231 546.807692 5.894231 548.977564 5.894231 551.147436 5.894231 553.317308 5.894231 555.487179 5.894231 557.657051 5.894231 559.826923 5.894231 561.996795 5.894231 564.166667 5.894231 566.336538 5.894231 568.506410 5.894231 570.676282 5.894231 572.846154 5.894231 575.016026 5.894231 577.185897 5.894231 579.355769 5.894231 581.525641 5.894231 583.695513 5.894231 585.865385 5.894231 588.035256 5.894231 590.205128 5.894231 592.375000 5.894231 594.544872 5.894231 596.714744 5.894231 598.884615 5.894231 601.054487 5.894231 603.224359 5.894231 605.394231 5.894231 607.564103 5.894231 609.733974 5.894231 611.903846 5.894231 614.073718 5.894231 616.243590 5.894231 618.413462 5.894231 620.583333 5.894231 622.753205 5.894231 624.923077 5.894231 627.092949 5.894231 629.262821 5.894231 631.432692 5.894231 633.602564 5.894231 635.772436 5.894231 637.942308 5.894231 640.112179 5.894231 642.282051 5.894231 644.451923 5.894231 646.621795 5.894231 648.791667 5.894231 650.961538 5.894231 653.131410 5.894231 655.301282 5.894231 657.471154 5.894231 659.641026 5.894231 661.810897 5.894231 663.980769 5.894231"/></g><g class="series serie-2 color-2"><path class="line reactive nofill" d="M13.019231 5.894231 L15.189103 5.894231 17.358974 5.894231 19.528846 5.894231 21.698718 5.894231 23.868590 5.894231 26.038462 5.894231 28.208333 5.894231 30.378205 5.894231 32.548077 5.894231 34.717949 5.894231 36.887821 5.894231 39.057692 5.894231 41.227564 5.894231 43.397436 5.894231 45.567308 5.894231 47.737179 5.894231 49.907051 5.894231 52.076923 5.894231 54.246795 5.894231 56.416667 5.894231 58.586538 5.894231 60.756410 5.894231 62.926282 5.894231 65.096154 5.894231 67.266026 5.894231 69.435897 5.894231 71.605769 5.894231 73.775641 5.894231 75.945513 5.894231 78.115385 5.894231 80.285256 5.894231 82.455128 5.894231 84.625000 5.894231 86.794872 5.894231 88.964744 5.894231 91.134615 5.894231 93.304487 5.894231 95.474359 300.605769 97.644231 300.605769 99.814103 300.605769 101.983974 300.605769 104.153846 153.250000 106.323718 104.131410 108.493590 113.062063 110.663462 87.758547 112.833333 76.625000 115.003205 79.572115 117.173077 84.483974 119.342949 81.948821 121.512821 86.270105 123.682692 88.026955 125.852564 89.469145 128.022436 78.662512 130.192308 75.238122 132.362179 61.152644 134.532051 57.042514 136.701923 79.155856 138.871795 71.056581 141.041667 67.060776 143.211538 64.048013 145.381410 63.376667 147.551282 62.634671 149.721154 68.583482 151.891026 78.598399 154.060897 71.579445 156.230769 70.327362 158.400641 87.134362 160.570513 80.436654 162.740385 77.272556 164.910256 84.521150 167.080128 81.639097 169.250000 78.545246 171.419872 75.584553 173.589744 77.313377 175.759615 73.598233 177.929487 72.026500 180.099359 74.348011 182.269231 70.367885 184.439103 69.643890 186.608974 64.066825 188.778846 63.344328 190.948718 61.773127 193.118590 60.567353 195.288462 59.920177 197.458333 55.189031 199.628205 63.046792 201.798077 63.697098 203.967949 57.244553 206.137821 57.718506 208.307692 56.194105 210.477564 50.137831 212.647436 49.440975 214.817308 50.038786 216.987179 50.864846 219.157051 47.229715 221.326923 48.980713 223.496795 50.321095 225.666667 46.960593 227.836538 47.247580 230.006410 46.303540 232.176282 48.362919 234.346154 48.167198 236.516026 48.535356 238.685897 48.585348 240.855769 46.163356 243.025641 48.669691 245.195513 36.282775 247.365385 35.121821 249.535256 36.553429 251.705128 42.130454 253.875000 50.648979 256.044872 50.341005 258.214744 51.557996 260.384615 50.718977 262.554487 49.302482 264.724359 49.191714 266.894231 48.100194 269.064103 46.818629 271.233974 46.970010 273.403846 45.009263 275.573718 46.656742 277.743590 46.764604 279.913462 46.892692 282.083333 46.687636 284.253205 47.023234 286.423077 47.697286 288.592949 47.133729 290.762821 48.096360 292.932692 48.345356 295.102564 44.392585 297.272436 40.071152 299.442308 29.583070 301.612179 36.350742 303.782051 39.098637 305.951923 39.503272 308.121795 42.080331 310.291667 43.021729 312.461538 43.152077 314.631410 43.677761 316.801282 42.260205 318.971154 47.864823 321.141026 47.596496 323.310897 47.687065 325.480769 48.318635 327.650641 49.467173 329.820513 50.394833 331.990385 50.985096 334.160256 52.522020 336.330128 50.644356 338.500000 53.399068 340.669872 64.913688 342.839744 63.310289 345.009615 66.270474 347.179487 56.242594 349.349359 47.776980 351.519231 49.753298 353.689103 44.414619 355.858974 44.784001 358.028846 44.524496 360.198718 43.368327 362.368590 50.364770 364.538462 40.277244 366.708333 41.462865 368.878205 39.113161 371.048077 39.125799 373.217949 41.158859 375.387821 38.728940 377.557692 38.998815 379.727564 36.294275 381.897436 35.879416 384.067308 23.981220 386.237179 24.381670 388.407051 22.103365 390.576923 19.426903 392.746795 19.928114 394.916667 20.388241 397.086538 19.522510 399.256410 26.492349 401.426282 26.103022 403.596154 27.458490 405.766026 29.315015 407.935897 33.218479 410.105769 36.684989 412.275641 36.684989 414.445513 38.922248 416.615385 40.101820 418.785256 33.238600 420.955128 43.199489 423.125000 43.199489 425.294872 47.538253 427.464744 47.538253 429.634615 44.033371 431.804487 44.033371 433.974359 43.589893 436.144231 47.016771 438.314103 47.016771 440.483974 53.048077 442.653846 50.100962 444.823718 43.402972 446.993590 43.402972 449.163462 43.402972 451.333333 47.995879 453.503205 39.384178 455.673077 41.834662 457.842949 41.834662 460.012821 62.935174 462.182692 62.935174 464.352564 62.935174 466.522436 60.470442 468.692308 56.706565 470.862179 51.234467 473.032051 51.234467 475.201923 55.012821 477.371795 55.012821 479.541667 59.478147 481.711538 42.733173 483.881410 42.733173 486.051282 42.733173 488.221154 104.131410 490.391026 104.131410 492.560897 104.131410 494.730769 153.250000 496.900641 153.250000 499.070513 153.250000 501.240385 153.250000 503.410256 153.250000 505.580128 104.131410 507.750000 104.131410 509.919872 104.131410 512.089744 104.131410 514.259615 300.605769 516.429487 300.605769 518.599359 300.605769 520.769231 300.605769 522.939103 300.605769 525.108974 300.605769 527.278846 300.605769 529.448718 300.605769 531.618590 300.605769 533.788462 300.605769 535.958333 300.605769 538.128205 300.605769 540.298077 5.894231 542.467949 5.894231 544.637821 5.894231 546.807692 5.894231 548.977564 5.894231 551.147436 5.894231 553.317308 5.894231 555.487179 5.894231 557.657051 5.894231 559.826923 5.894231 561.996795 5.894231 564.166667 5.894231 566.336538 5.894231 568.506410 5.894231 570.676282 5.894231 572.846154 5.894231 575.016026 5.894231 577.185897 5.894231 579.355769 5.894231 581.525641 5.894231 583.695513 5.894231 585.865385 5.894231 588.035256 5.894231 590.205128 5.894231 592.375000 5.894231 594.544872 5.894231 596.714744 5.894231 598.884615 5.894231 601.054487 5.894231 603.224359 5.894231 605.394231 5.894231 607.564103 5.894231 609.733974 5.894231 611.903846 5.894231 614.073718 5.894231 616.243590 5.894231 618.413462 5.894231 620.583333 5.894231 622.753205 5.894231 624.923077 5.894231 627.092949 5.894231 629.262821 5.894231 631.432692 5.894231 633.602564 5.894231 635.772436 5.894231 637.942308 5.894231 640.112179 5.894231 642.282051 5.894231 644.451923 5.894231 646.621795 5.894231 648.791667 5.894231 650.961538 5.894231 653.131410 5.894231 655.301282 5.894231 657.471154 5.894231 659.641026 5.894231 661.810897 5.894231 663.980769 5.894231"/></g><g class="series serie-3 color-3"><path class="line reactive nofill" d="M13.019231 5.894231 L15.189103 5.894231 17.358974 5.894231 19.528846 5.894231 21.698718 5.894231 23.868590 5.894231 26.038462 5.894231 28.208333 5.894231 30.378205 5.894231 32.548077 5.894231 34.717949 5.894231 36.887821 5.894231 39.057692 5.894231 41.227564 5.894231 43.397436 5.894231 45.567308 5.894231 47.737179 5.894231 49.907051 5.894231 52.076923 5.894231 54.246795 5.894231 56.416667 5.894231 58.586538 5.894231 60.756410 5.894231 62.926282 5.894231 65.096154 5.894231 67.266026 5.894231 69.435897 5.894231 71.605769 5.894231 73.775641 5.894231 75.945513 5.894231 78.115385 5.894231 80.285256 5.894231 82.455128 5.894231 84.625000 5.894231 86.794872 5.894231 88.964744 5.894231 91.134615 5.894231 93.304487 5.894231 95.474359 5.894231 97.644231 5.894231 99.814103 5.894231 101.983974 5.894231 104.153846 5.894231 106.323718 104.131410 108.493590 113.062063 110.663462 71.385684 112.833333 76.625000 115.003205 69.046703 117.173077 64.836538 119.342949 62.935174 121.512821 64.836538 123.682692 63.870271 125.852564 58.678387 128.022436 53.193613 130.192308 50.967760 132.362179 42.733173 134.532051 39.993086 136.701923 65.835561 138.871795 60.689843 141.041667 57.329735 143.211538 57.148411 145.381410 56.989730 147.551282 58.400309 149.721154 67.862916 151.891026 74.703533 154.060897 67.510450 156.230769 66.965633 158.400641 84.109463 160.570513 76.594261 162.740385 73.961190 164.910256 82.848237 167.080128 82.439219 169.250000 79.572115 171.419872 76.566107 173.589744 75.592434 175.759615 71.208680 177.929487 69.719561 180.099359 71.645888 182.269231 67.901679 184.439103 67.031199 186.608974 63.178694 188.778846 63.045886 190.948718 60.354881 193.118590 58.501618 195.288462 55.733166 197.458333 51.885090 199.628205 59.109351 201.798077 59.068121 203.967949 52.330647 206.137821 52.973150 208.307692 51.278436 210.477564 44.238684 212.647436 42.532710 214.817308 42.826436 216.987179 42.979587 219.157051 40.427673 221.326923 42.219450 223.496795 42.716496 225.666667 39.445180 227.836538 39.390444 230.006410 38.669208 232.176282 38.236933 234.346154 36.624579 236.516026 37.521043 238.685897 37.952244 240.855769 36.907952 243.025641 37.609876 245.195513 24.242031 247.365385 23.318371 249.535256 24.481369 251.705128 32.048601 253.875000 38.166362 256.044872 37.951660 258.214744 39.240796 260.384615 38.805423 262.554487 38.559303 264.724359 38.367343 266.894231 37.585214 269.064103 36.482774 271.233974 36.629255 273.403846 35.297945 275.573718 36.430607 277.743590 36.755533 279.913462 37.485510 282.083333 37.668686 284.253205 37.157831 286.423077 37.803896 288.592949 38.512231 290.762821 40.077956 292.932692 40.862446 295.102564 37.887691 297.272436 33.029675 299.442308 25.479491 301.612179 32.409311 303.782051 34.791038 305.951923 35.347315 308.121795 37.417174 310.291667 38.404838 312.461538 38.223791 314.631410 39.791455 316.801282 38.896878 318.971154 45.112653 321.141026 45.033787 323.310897 45.044989 325.480769 45.808315 327.650641 46.562310 329.820513 48.995443 331.990385 50.100962 334.160256 51.027539 336.330128 49.046137 338.500000 50.373282 340.669872 60.284711 342.839744 58.586183 345.009615 60.987553 347.179487 50.166067 349.349359 44.201623 351.519231 46.009231 353.689103 43.191749 355.858974 44.784001 358.028846 45.147565 360.198718 45.908944 362.368590 51.872246 364.538462 41.095887 366.708333 42.309737 368.878205 39.964929 371.048077 40.874829 373.217949 44.517395 375.387821 45.135713 377.557692 45.458246 379.727564 43.049840 381.897436 43.589893 384.067308 38.876389 386.237179 39.606621 388.407051 44.206731 390.576923 41.981358 392.746795 43.317918 394.916667 42.934479 397.086538 41.668464 399.256410 43.921526 401.426282 41.259615 403.596154 43.631684 405.766026 48.832336 407.935897 50.784068 410.105769 52.080367 412.275641 52.080367 414.445513 61.787798 416.615385 61.152644 418.785256 51.468180 420.955128 50.660540 423.125000 50.660540 425.294872 50.741639 427.464744 50.741639 429.634615 50.967760 431.804487 50.967760 433.974359 50.443649 436.144231 53.870528 438.314103 53.870528 440.483974 56.977564 442.653846 53.784856 444.823718 54.119755 446.993590 54.119755 449.163462 54.119755 451.333333 41.981358 453.503205 39.384178 455.673077 41.834662 457.842949 41.834662 460.012821 53.428350 462.182692 53.428350 464.352564 53.428350 466.522436 49.555199 468.692308 46.544098 470.862179 51.234467 473.032051 51.234467 475.201923 55.012821 477.371795 55.012821 479.541667 59.478147 481.711538 42.733173 483.881410 42.733173 486.051282 42.733173 488.221154 104.131410 490.391026 104.131410 492.560897 104.131410 494.730769 79.572115 496.900641 79.572115 499.070513 79.572115 501.240385 79.572115 503.410256 79.572115 505.580128 5.894231 507.750000 5.894231 509.919872 5.894231 512.089744 5.894231 514.259615 5.894231 516.429487 5.894231 518.599359 5.894231 520.769231 5.894231 522.939103 5.894231 525.108974 5.894231 527.278846 5.894231 529.448718 5.894231 531.618590 5.894231 533.788462 5.894231 535.958333 5.894231 538.128205 5.894231 540.298077 5.894231 542.467949 5.894231 544.637821 5.894231 546.807692 5.894231 548.977564 5.894231 551.147436 5.894231 553.317308 5.894231 555.487179 5.894231 557.657051 5.894231 559.826923 5.894231 561.996795 5.894231 564.166667 5.894231 566.336538 5.894231 568.506410 5.894231 570.676282 5.894231 572.846154 5.894231 575.016026 5.894231 577.185897 5.894231 579.355769 5.894231 581.525641 5.894231 583.695513 5.894231 585.865385 5.894231 588.035256 5.894231 590.205128 5.894231 592.375000 5.894231 594.544872 5.894231 596.714744 5.894231 598.884615 5.894231 601.054487 5.894231 603.224359 5.894231 605.394231 5.894231 607.564103 5.894231 609.733974 5.894231 611.903846 5.894231 614.073718 5.894231 616.243590 5.894231 618.413462 5.894231 620.583333 5.894231 622.753205 5.894231 624.923077 5.894231 627.092949 5.894231 629.262821 5.894231 631.432692 5.894231 633.602564 5.894231 635.772436 5.894231 637.942308 5.894231 640.112179 5.894231 642.282051 5.894231 644.451923 5.894231 646.621795 5.894231 648.791667 5.894231 650.961538 5.894231 653.131410 5.894231 655.301282 5.894231 657.471154 5.894231 659.641026 5.894231 661.810897 5.894231 663.980769 5.894231"/></g><g class="series serie-4 color-4"><path class="line reactive nofill" d="M13.019231 5.894231 L15.189103 5.894231 17.358974 5.894231 19.528846 5.894231 21.698718 5.894231 23.868590 5.894231 26.038462 5.894231 28.208333 5.894231 30.378205 5.894231 32.548077 5.894231 34.717949 5.894231 36.887821 5.894231 39.057692 5.894231 41.227564 5.894231 43.397436 5.894231 45.567308 5.894231 47.737179 5.894231 49.907051 5.894231 52.076923 5.894231 54.246795 5.894231 56.416667 5.894231 58.586538 5.894231 60.756410 5.894231 62.926282 5.894231 65.096154 5.894231 67.266026 5.894231 69.435897 5.894231 71.605769 5.894231 73.775641 5.894231 75.945513 5.894231 78.115385 5.894231 80.285256 5.894231 82.455128 5.894231 84.625000 5.894231 86.794872 5.894231 88.964744 5.894231 91.134615 5.894231 93.304487 5.894231 95.474359 300.605769 97.644231 300.605769 99.814103 300.605769 101.983974 300.605769 104.153846 153.250000 106.323718 169.622863 108.493590 166.645979 110.663462 104.131410 112.833333 88.413462 115.003205 90.097527 117.173077 94.307692 119.342949 91.455645 121.512821 86.270105 123.682692 83.195618 125.852564 76.273106 128.022436 71.385684 130.192308 71.770928 132.362179 58.521291 134.532051 54.606882 136.701923 75.825782 138.871795 69.575618 141.041667 64.280479 143.211538 64.048013 145.381410 62.464247 147.551282 62.634671 149.721154 70.745181 151.891026 76.650966 154.060897 69.835590 156.230769 68.646498 158.400641 84.541591 160.570513 76.210022 162.740385 73.593261 164.910256 81.454143 167.080128 80.305560 169.250000 77.518376 171.419872 74.602999 173.589744 73.656373 175.759615 69.416515 177.929487 67.797111 180.099359 70.204756 182.269231 66.492419 184.439103 65.637764 186.608974 61.994519 188.778846 61.255234 190.948718 58.936635 193.118590 57.399892 195.288462 54.787712 197.458333 50.827829 199.628205 58.274136 201.798077 58.593354 203.967949 52.207799 206.137821 52.973150 208.307692 51.049800 210.477564 44.361583 212.647436 43.026158 214.817308 43.323840 216.987179 43.842038 219.157051 41.474141 221.326923 43.280040 223.496795 44.184050 225.666667 40.518810 227.836538 40.493200 230.006410 39.985472 232.176282 39.597140 234.346154 38.273525 236.516026 39.251864 238.685897 39.221868 240.855769 38.369331 243.025641 39.073675 245.195513 25.579891 247.365385 24.067797 249.535256 25.247849 251.705128 32.340829 253.875000 39.688632 256.044872 39.655195 258.214744 40.592684 260.384615 40.145698 262.554487 39.720728 264.724359 39.377618 266.894231 38.461462 269.064103 37.181143 271.233974 37.490984 273.403846 35.702583 275.573718 36.572637 277.743590 37.033563 279.913462 37.906728 282.083333 37.946192 284.253205 37.852578 286.423077 38.361270 288.592949 39.374381 290.762821 41.062672 292.932692 42.013662 295.102564 38.949714 297.272436 34.747109 299.442308 26.039070 301.612179 32.946779 303.782051 36.944837 305.951923 37.515640 308.121795 38.909384 310.291667 39.943801 312.461538 39.800843 314.631410 41.302797 316.801282 40.368334 318.971154 47.406128 321.141026 47.363522 323.310897 47.446876 325.480769 48.067603 327.650641 48.939016 329.820513 51.234467 331.990385 52.458654 334.160256 53.119812 336.330128 50.964000 338.500000 53.399068 340.669872 64.142192 342.839744 62.220110 345.009615 64.761068 347.179487 54.506443 349.349359 45.733919 351.519231 47.078965 353.689103 45.637488 355.858974 46.606959 358.028846 47.016771 360.198718 47.814406 362.368590 54.133460 364.538462 43.551816 366.708333 44.850354 368.878205 42.520231 371.048077 43.498374 373.217949 47.036297 375.387821 46.737406 377.557692 47.073103 379.727564 44.738732 381.897436 45.303332 384.067308 36.748507 386.237179 37.431628 388.407051 41.259615 390.576923 38.974097 392.746795 40.199278 394.916667 38.103142 397.086538 38.261394 399.256410 39.168114 401.426282 37.891484 403.596154 40.037641 405.766026 42.977140 407.935897 44.928872 410.105769 45.482348 412.275641 45.482348 414.445513 51.625332 416.615385 50.627232 418.785256 39.315127 420.955128 39.468963 423.125000 39.468963 425.294872 41.131480 427.464744 41.131480 429.634615 40.566176 431.804487 40.566176 433.974359 40.163014 436.144231 43.589893 438.314103 43.589893 440.483974 45.189103 442.653846 42.733173 444.823718 43.402972 446.993590 43.402972 449.163462 43.402972 451.333333 35.966837 453.503205 32.686189 455.673077 34.646576 457.842949 34.646576 460.012821 53.428350 462.182692 53.428350 464.352564 53.428350 466.522436 49.555199 468.692308 46.544098 470.862179 51.234467 473.032051 51.234467 475.201923 55.012821 477.371795 55.012821 479.541667 59.478147 481.711538 42.733173 483.881410 42.733173 486.051282 42.733173 488.221154 104.131410 490.391026 104.131410 492.560897 104.131410 494.730769 79.572115 496.900641 79.572115 499.070513 79.572115 501.240385 79.572115 503.410256 79.572115 505.580128 5.894231 507.750000 5.894231 509.919872 5.894231 512.089744 5.894231 514.259615 5.894231 516.429487 5.894231 518.599359 5.894231 520.769231 5.894231 522.939103 5.894231 525.108974 5.894231 527.278846 5.894231 529.448718 5.894231 531.618590 5.894231 533.788462 5.894231 535.958333 5.894231 538.128205 5.894231 540.298077 5.894231 542.467949 5.894231 544.637821 5.894231 546.807692 5.894231 548.977564 5.894231 551.147436 5.894231 553.317308 5.894231 555.487179 5.894231 557.657051 5.894231 559.826923 5.894231 561.996795 5.894231 564.166667 5.894231 566.336538 5.894231 568.506410 5.894231 570.676282 5.894231 572.846154 5.894231 575.016026 5.894231 577.185897 5.894231 579.355769 5.894231 581.525641 5.894231 583.695513 5.894231 585.865385 5.894231 588.035256 5.894231 590.205128 5.894231 592.375000 5.894231 594.544872 5.894231 596.714744 5.894231 598.884615 5.894231 601.054487 5.894231 603.224359 5.894231 605.394231 5.894231 607.564103 5.894231 609.733974 5.894231 611.903846 5.894231 614.073718 5.894231 616.243590 5.894231 618.413462 5.894231 620.583333 5.894231 622.753205 5.894231 624.923077 5.894231 627.092949 5.894231 629.262821 5.894231 631.432692 5.894231 633.602564 5.894231 635.772436 5.894231 637.942308 5.894231 640.112179 5.894231 642.282051 5.894231 644.451923 5.894231 646.621795 5.894231 648.791667 5.894231 650.961538 5.894231 653.131410 5.894231 655.301282 5.894231 657.471154 5.894231 659.641026 5.894231 661.810897 5.894231 663.980769 5.894231"/></g><g class="series serie-5 color-5"><path class="line reactive nofill" d="M13.019231 5.894231 L15.189103 5.894231 17.358974 5.894231 19.528846 5.894231 21.698718 5.894231 23.868590 5.894231 26.038462 5.894231 28.208333 5.894231 30.378205 5.894231 32.548077 5.894231 34.717949 5.894231 36.887821 5.894231 39.057692 5.894231 41.227564 5.894231 43.397436 5.894231 45.567308 5.894231 47.737179 5.894231 49.907051 5.894231 52.076923 5.894231 54.246795 5.894231 56.416667 5.894231 58.586538 5.894231 60.756410 5.894231 62.926282 5.894231 65.096154 5.894231 67.266026 5.894231 69.435897 5.894231 71.605769 5.894231 73.775641 5.894231 75.945513 5.894231 78.115385 5.894231 80.285256 5.894231 82.455128 5.894231 84.625000 5.894231 86.794872 5.894231 88.964744 5.894231 91.134615 5.894231 93.304487 5.894231 95.474359 300.605769 97.644231 300.605769 99.814103 300.605769 101.983974 300.605769 104.153846 300.605769 106.323718 202.368590 108.493590 193.437937 110.663462 120.504274 112.833333 88.413462 115.003205 90.097527 117.173077 84.483974 119.342949 81.948821 121.512821 75.553322 123.682692 73.532945 125.852564 67.475746 128.022436 60.470442 130.192308 61.369344 132.362179 50.627232 134.532051 47.299984 136.701923 69.165635 138.871795 63.651768 141.041667 58.719884 143.211538 60.105383 145.381410 58.814569 147.551282 59.247182 149.721154 67.142350 151.891026 74.054388 154.060897 67.510450 156.230769 66.405345 158.400641 83.677335 160.570513 75.441543 162.740385 73.225331 164.910256 81.454143 167.080128 80.305560 169.250000 77.518376 171.419872 74.602999 173.589744 74.731962 175.759615 70.013903 177.929487 68.373846 180.099359 70.384897 182.269231 66.844734 184.439103 65.986122 186.608974 61.994519 188.778846 61.106013 190.948718 58.794810 193.118590 57.399892 195.288462 54.787712 197.458333 50.695671 199.628205 58.154819 201.798077 58.474662 203.967949 51.962104 206.137821 52.723395 208.307692 51.049800 210.477564 44.238684 212.647436 42.902796 214.817308 43.199489 216.987179 43.595623 219.157051 40.558482 221.326923 42.484597 223.496795 43.116738 225.666667 39.579384 227.836538 39.528288 230.006410 39.064087 232.176282 38.841469 234.346154 37.673908 236.516026 38.622474 238.685897 38.428353 240.855769 37.557454 243.025641 38.260454 245.195513 24.624277 247.365385 23.131015 249.535256 24.289749 251.705128 31.464146 253.875000 38.166362 256.044872 38.106527 258.214744 39.240796 260.384615 38.805423 262.554487 38.559303 264.724359 38.367343 266.894231 37.585214 269.064103 36.762122 271.233974 37.203741 273.403846 35.432824 275.573718 36.288577 277.743590 36.755533 279.913462 37.485510 282.083333 37.529933 284.253205 37.296780 286.423077 37.803896 288.592949 38.799615 290.762821 40.499977 292.932692 41.438054 295.102564 38.418702 297.272436 34.231879 299.442308 25.852544 301.612179 32.051000 303.782051 36.047421 305.951923 36.612172 308.121795 37.976753 310.291667 38.981949 312.461538 38.815185 314.631410 40.007361 316.801282 39.107086 318.971154 45.800696 321.141026 45.732708 323.310897 45.765555 325.480769 46.561411 327.650641 47.354546 329.820513 49.835077 331.990385 50.985096 334.160256 51.625332 336.330128 49.365781 338.500000 52.188754 340.669872 62.599200 342.839744 60.766539 345.009615 62.874311 347.179487 54.072406 349.349359 45.223154 351.519231 46.544098 353.689103 45.026053 355.858974 45.999306 358.028846 46.393702 360.198718 46.544098 362.368590 52.625984 364.538462 42.733173 366.708333 44.003481 368.878205 41.668464 371.048077 42.623859 373.217949 46.196663 375.387821 45.936559 377.557692 46.265674 379.727564 43.894286 381.897436 44.446612 384.067308 34.620626 386.237179 35.256635 388.407051 38.312500 390.576923 37.470467 392.746795 38.639957 394.916667 36.492697 397.086538 36.557859 399.256410 37.583644 401.426282 36.207418 403.596154 38.240619 405.766026 42.977140 407.935897 44.928872 410.105769 45.482348 412.275641 45.482348 414.445513 51.625332 416.615385 50.627232 418.785256 39.315127 420.955128 39.468963 423.125000 39.468963 425.294872 41.131480 427.464744 41.131480 429.634615 40.566176 431.804487 40.566176 433.974359 40.163014 436.144231 43.589893 438.314103 43.589893 440.483974 45.189103 442.653846 42.733173 444.823718 43.402972 446.993590 43.402972 449.163462 43.402972 451.333333 35.966837 453.503205 32.686189 455.673077 34.646576 457.842949 34.646576 460.012821 53.428350 462.182692 53.428350 464.352564 53.428350 466.522436 49.555199 468.692308 46.544098 470.862179 51.234467 473.032051 51.234467 475.201923 55.012821 477.371795 55.012821 479.541667 59.478147 481.711538 42.733173 483.881410 42.733173 486.051282 42.733173 488.221154 104.131410 490.391026 104.131410 492.560897 104.131410 494.730769 153.250000 496.900641 153.250000 499.070513 153.250000 501.240385 153.250000 503.410256 153.250000 505.580128 104.131410 507.750000 104.131410 509.919872 104.131410 512.089744 104.131410 514.259615 300.605769 516.429487 300.605769 518.599359 300.605769 520.769231 300.605769 522.939103 300.605769 525.108974 300.605769 527.278846 300.605769 529.448718 300.605769 531.618590 300.605769 533.788462 300.605769 535.958333 300.605769 538.128205 300.605769 540.298077 5.894231 542.467949 5.894231 544.637821 5.894231 546.807692 5.894231 548.977564 5.894231 551.147436 5.894231 553.317308 5.894231 555.487179 5.894231 557.657051 5.894231 559.826923 5.894231 561.996795 5.894231 564.166667 5.894231 566.336538 5.894231 568.506410 5.894231 570.676282 5.894231 572.846154 5.894231 575.016026 5.894231 577.185897 5.894231 579.355769 5.894231 581.525641 5.894231 583.695513 5.894231 585.865385 5.894231 588.035256 5.894231 590.205128 5.894231 592.375000 5.894231 594.544872 5.894231 596.714744 5.894231 598.884615 5.894231 601.054487 5.894231 603.224359 5.894231 605.394231 5.894231 607.564103 5.894231 609.733974 5.894231 611.903846 5.894231 614.073718 5.894231 616.243590 5.894231 618.413462 5.894231 620.583333 5.894231 622.753205 5.894231 624.923077 5.894231 627.092949 5.894231 629.262821 5.894231 631.432692 5.894231 633.602564 5.894231 635.772436 5.894231 637.942308 5.894231 640.112179 5.894231 642.282051 5.894231 644.451923 5.894231 646.621795 5.894231 648.791667 5.894231 650.961538 5.894231 653.131410 5.894231 655.301282 5.894231 657.471154 5.894231 659.641026 5.894231 661.810897 5.894231 663.980769 5.894231"/></g><g class="series serie-6 color-6"><path class="line reactive nofill" d="M13.019231 5.894231 L15.189103 5.894231 17.358974 5.894231 19.528846 5.894231 21.698718 5.894231 23.868590 5.894231 26.038462 5.894231 28.208333 5.894231 30.378205 5.894231 32.548077 5.894231 34.717949 5.894231 36.887821 5.894231 39.057692 5.894231 41.227564 5.894231 43.397436 5.894231 45.567308 5.894231 47.737179 5.894231 49.907051 5.894231 52.076923 5.894231 54.246795 5.894231 56.416667 5.894231 58.586538 5.894231 60.756410 5.894231 62.926282 5.894231 65.096154 5.894231 67.266026 5.894231 69.435897 5.894231 71.605769 5.894231 73.775641 5.894231 75.945513 5.894231 78.115385 5.894231 80.285256 5.894231 82.455128 5.894231 84.625000 5.894231 86.794872 5.894231 88.964744 5.894231 91.134615 5.894231 93.304487 5.894231 95.474359 300.605769 97.644231 300.605769 99.814103 300.605769 101.983974 300.605769 104.153846 153.250000 106.323718 104.131410 108.493590 113.062063 110.663462 71.385684 112.833333 76.625000 115.003205 90.097527 117.173077 84.483974 119.342949 81.948821 121.512821 80.911713 123.682692 78.364281 125.852564 76.273106 128.022436 64.108856 130.192308 61.369344 132.362179 50.627232 134.532051 49.735617 136.701923 75.825782 138.871795 68.094656 141.041667 64.280479 143.211538 60.105383 145.381410 57.902149 147.551282 58.400309 149.721154 67.862916 151.891026 76.650966 154.060897 69.254305 156.230769 68.646498 158.400641 84.973720 160.570513 76.210022 162.740385 73.961190 164.910256 80.896505 167.080128 77.105073 169.250000 74.181051 171.419872 71.412949 173.589744 69.569133 175.759615 65.234797 177.929487 63.183232 180.099359 62.278529 182.269231 57.860700 184.439103 57.277153 186.608974 51.484966 188.778846 50.212877 190.948718 49.008912 193.118590 47.346648 195.288462 44.657847 197.458333 40.519533 199.628205 50.279936 201.798077 50.047550 203.967949 42.994224 206.137821 43.482440 208.307692 41.104143 210.477564 34.038077 212.647436 33.897378 214.817308 34.121876 216.987179 34.108672 219.157051 32.186738 221.326923 33.204432 223.496795 33.777758 225.666667 32.063971 227.836538 32.222530 230.006410 31.166502 232.176282 32.796105 234.346154 32.577168 236.516026 32.485929 238.685897 32.873747 240.855769 31.874311 243.025641 32.893191 245.195513 17.170483 247.365385 16.948255 249.535256 18.157910 251.705128 26.496277 253.875000 36.948546 256.044872 36.867593 258.214744 37.288069 260.384615 37.018390 262.554487 36.091275 264.724359 36.202469 266.894231 35.978758 269.064103 35.086037 271.233974 36.054768 273.403846 34.218910 275.573718 35.720459 277.743590 36.060459 279.913462 36.923888 282.083333 37.252426 284.253205 37.157831 286.423077 37.943240 288.592949 38.799615 290.762821 39.937282 292.932692 40.718543 295.102564 37.091173 297.272436 33.029675 299.442308 22.122018 301.612179 29.363660 303.782051 33.714138 305.951923 34.263153 308.121795 38.163279 310.291667 38.597208 312.461538 39.603711 314.631410 41.734608 316.801282 40.578542 318.971154 47.635476 321.141026 48.062443 323.310897 48.407631 325.480769 49.322762 327.650641 50.259409 329.820513 52.353979 331.990385 53.342788 334.160256 52.820916 336.330128 50.644356 338.500000 48.860389 340.669872 60.284711 342.839744 57.496004 345.009615 59.855498 347.179487 48.429917 349.349359 38.583206 351.519231 39.055965 353.689103 32.797359 355.858974 32.630948 358.028846 30.816982 360.198718 30.030090 362.368590 33.028797 364.538462 20.629808 366.708333 21.137931 368.878205 18.670743 371.048077 17.262925 373.217949 19.328375 375.387821 19.508622 377.557692 19.620522 379.727564 19.405361 381.897436 19.601744 384.067308 19.725458 386.237179 20.031685 388.407051 22.103365 390.576923 19.426903 392.746795 19.928114 394.916667 21.998686 397.086538 22.929580 399.256410 26.492349 401.426282 27.787088 403.596154 29.255511 405.766026 37.121943 407.935897 39.073675 410.105769 41.083668 412.275641 41.083668 414.445513 54.165948 416.615385 55.889938 418.785256 54.506443 420.955128 61.852118 423.125000 61.852118 425.294872 60.351798 427.464744 60.351798 429.634615 57.902149 431.804487 57.902149 433.974359 57.297406 436.144231 60.724284 438.314103 60.724284 440.483974 60.907051 442.653846 57.468750 444.823718 59.478147 446.993590 59.478147 449.163462 59.478147 451.333333 47.995879 453.503205 46.082168 455.673077 49.022749 457.842949 49.022749 460.012821 43.921526 462.182692 43.921526 464.352564 43.921526 466.522436 49.555199 468.692308 46.544098 470.862179 51.234467 473.032051 51.234467 475.201923 55.012821 477.371795 55.012821 479.541667 59.478147 481.711538 42.733173 483.881410 42.733173 486.051282 42.733173 488.221154 104.131410 490.391026 104.131410 492.560897 104.131410 494.730769 79.572115 496.900641 79.572115 499.070513 79.572115 501.240385 79.572115 503.410256 79.572115 505.580128 5.894231 507.750000 5.894231 509.919872 5.894231 512.089744 5.894231 514.259615 5.894231 516.429487 5.894231 518.599359 5.894231 520.769231 5.894231 522.939103 5.894231 525.108974 5.894231 527.278846 5.894231 529.448718 5.894231 531.618590 5.894231 533.788462 5.894231 535.958333 5.894231 538.128205 5.894231 540.298077 5.894231 542.467949 5.894231 544.637821 5.894231 546.807692 5.894231 548.977564 5.894231 551.147436 5.894231 553.317308 5.894231 555.487179 5.894231 557.657051 5.894231 559.826923 5.894231 561.996795 5.894231 564.166667 5.894231 566.336538 5.894231 568.506410 5.894231 570.676282 5.894231 572.846154 5.894231 575.016026 5.894231 577.185897 5.894231 579.355769 5.894231 581.525641 5.894231 583.695513 5.894231 585.865385 5.894231 588.035256 5.894231 590.205128 5.894231 592.375000 5.894231 594.544872 5.894231 596.714744 5.894231 598.884615 5.894231 601.054487 5.894231 603.224359 5.894231 605.394231 5.894231 607.564103 5.894231 609.733974 5.894231 611.903846 5.894231 614.073718 5.894231 616.243590 5.894231 618.413462 5.894231 620.583333 5.894231 622.753205 5.894231 624.923077 5.894231 627.092949 5.894231 629.262821 5.894231 631.432692 5.894231 633.602564 5.894231 635.772436 5.894231 637.942308 5.894231 640.112179 5.894231 642.282051 5.894231 644.451923 5.894231 646.621795 5.894231 648.791667 5.894231 650.961538 5.894231 653.131410 5.894231 655.301282 5.894231 657.471154 5.894231 659.641026 5.894231 661.810897 5.894231 663.980769 5.894231"/></g><g class="series serie-7 color-7"><path class="line reactive nofill" d="M13.019231 5.894231 L15.189103 5.894231 17.358974 5.894231 19.528846 5.894231 21.698718 5.894231 23.868590 5.894231 26.038462 5.894231 28.208333 5.894231 30.378205 5.894231 32.548077 5.894231 34.717949 5.894231 36.887821 5.894231 39.057692 5.894231 41.227564 5.894231 43.397436 5.894231 45.567308 5.894231 47.737179 5.894231 49.907051 5.894231 52.076923 5.894231 54.246795 5.894231 56.416667 5.894231 58.586538 5.894231 60.756410 5.894231 62.926282 5.894231 65.096154 5.894231 67.266026 5.894231 69.435897 5.894231 71.605769 5.894231 73.775641 5.894231 75.945513 5.894231 78.115385 5.894231 80.285256 5.894231 82.455128 5.894231 84.625000 5.894231 86.794872 5.894231 88.964744 5.894231 91.134615 5.894231 93.304487 5.894231 95.474359 300.605769 97.644231 300.605769 99.814103 300.605769 101.983974 300.605769 104.153846 153.250000 106.323718 136.877137 108.493590 166.645979 110.663462 104.131410 112.833333 88.413462 115.003205 100.622940 117.173077 94.307692 119.342949 91.455645 121.512821 80.911713 123.682692 83.195618 125.852564 76.273106 128.022436 67.747270 130.192308 64.836538 132.362179 61.152644 134.532051 59.478147 136.701923 97.471262 138.871795 88.828131 141.041667 82.352413 143.211538 72.918928 145.381410 70.676024 147.551282 70.256521 149.721154 75.789143 151.891026 79.247543 154.060897 70.998160 156.230769 69.767074 158.400641 78.491794 160.570513 70.830671 162.740385 68.810177 164.910256 81.454143 167.080128 80.038853 169.250000 77.004942 171.419872 74.848388 173.589744 73.656373 175.759615 69.217386 177.929487 66.451396 180.099359 66.421784 182.269231 60.326906 184.439103 59.541485 186.608974 54.741447 188.778846 54.092624 190.948718 52.554527 193.118590 51.064971 195.288462 48.709793 197.458333 45.277208 199.628205 53.978745 201.798077 53.845685 203.967949 49.013760 206.137821 49.601450 208.307692 46.705720 210.477564 37.725043 212.647436 36.487978 214.817308 36.608893 216.987179 36.203193 219.157051 33.756440 221.326923 35.193039 223.496795 36.312624 225.666667 34.345436 227.836538 34.703731 230.006410 34.062283 232.176282 34.911982 234.346154 33.926305 236.516026 34.059402 238.685897 34.143371 240.855769 33.173315 243.025641 33.706412 245.195513 18.317220 247.365385 18.072394 249.535256 19.690870 251.705128 23.281773 253.875000 30.707237 256.044872 30.982654 258.214744 32.180938 260.384615 31.955130 262.554487 31.155220 264.724359 31.151096 266.894231 30.429185 269.064103 29.359415 271.233974 29.591796 273.403846 28.553974 275.573718 29.755213 277.743590 30.499864 279.913462 31.588472 282.083333 31.979810 284.253205 31.877756 286.423077 32.926873 288.592949 33.770407 290.762821 35.717069 292.932692 36.113676 295.102564 32.577573 297.272436 32.170959 299.442308 24.733386 301.612179 29.542816 303.782051 30.483440 305.951923 30.829971 308.121795 34.059701 310.291667 34.365058 312.461538 34.675424 314.631410 35.905149 316.801282 34.482511 318.971154 40.067008 321.141026 39.442422 323.310897 38.559894 325.480769 38.528387 327.650641 38.639957 329.820513 40.319225 331.990385 40.080769 334.160256 40.566176 336.330128 37.538962 338.500000 42.203661 340.669872 52.184001 342.839744 52.771898 345.009615 54.572577 347.179487 47.995879 349.349359 46.244684 351.519231 48.148698 353.689103 45.026053 355.858974 45.391653 358.028846 45.147565 360.198718 45.273790 362.368590 52.625984 364.538462 41.914530 366.708333 43.156609 368.878205 42.520231 371.048077 42.623859 373.217949 45.357029 375.387821 43.534020 377.557692 43.843388 379.727564 43.049840 381.897436 42.733173 384.067308 29.300923 386.237179 29.819153 388.407051 23.576923 390.576923 22.434164 392.746795 23.046754 394.916667 21.998686 397.086538 21.226045 399.256410 23.323408 401.426282 22.734890 403.596154 23.864447 405.766026 25.411551 407.935897 27.363283 410.105769 27.887629 412.275641 27.887629 414.445513 36.381631 416.615385 37.470467 418.785256 27.162074 420.955128 28.277386 423.125000 28.277386 425.294872 31.521321 427.464744 31.521321 429.634615 30.164593 431.804487 30.164593 433.974359 29.882379 436.144231 33.309258 438.314103 33.309258 440.483974 37.330128 442.653846 35.365385 444.823718 38.044580 446.993590 38.044580 449.163462 38.044580 451.333333 41.981358 453.503205 39.384178 455.673077 41.834662 457.842949 41.834662 460.012821 43.921526 462.182692 43.921526 464.352564 43.921526 466.522436 49.555199 468.692308 46.544098 470.862179 51.234467 473.032051 51.234467 475.201923 55.012821 477.371795 55.012821 479.541667 59.478147 481.711538 42.733173 483.881410 42.733173 486.051282 42.733173 488.221154 104.131410 490.391026 104.131410 492.560897 104.131410 494.730769 79.572115 496.900641 79.572115 499.070513 79.572115 501.240385 79.572115 503.410256 79.572115 505.580128 5.894231 507.750000 5.894231 509.919872 5.894231 512.089744 5.894231 514.259615 5.894231 516.429487 5.894231 518.599359 5.894231 520.769231 5.894231 522.939103 5.894231 525.108974 5.894231 527.278846 5.894231 529.448718 5.894231 531.618590 5.894231 533.788462 5.894231 535.958333 5.894231 538.128205 5.894231 540.298077 5.894231 542.467949 5.894231 544.637821 5.894231 546.807692 5.894231 548.977564 5.894231 551.147436 5.894231 553.317308 5.894231 555.487179 5.894231 557.657051 5.894231 559.826923 5.894231 561.996795 5.894231 564.166667 5.894231 566.336538 5.894231 568.506410 5.894231 570.676282 5.894231 572.846154 5.894231 575.016026 5.894231 577.185897 5.894231 579.355769 5.894231 581.525641 5.894231 583.695513 5.894231 585.865385 5.894231 588.035256 5.894231 590.205128 5.894231 592.375000 5.894231 594.544872 5.894231 596.714744 5.894231 598.884615 5.894231 601.054487 5.894231 603.224359 5.894231 605.394231 5.894231 607.564103 5.894231 609.733974 5.894231 611.903846 5.894231 614.073718 5.894231 616.243590 5.894231 618.413462 5.894231 620.583333 5.894231 622.753205 5.894231 624.923077 5.894231 627.092949 5.894231 629.262821 5.894231 631.432692 5.894231 633.602564 5.894231 635.772436 5.894231 637.942308 5.894231 640.112179 5.894231 642.282051 5.894231 644.451923 5.894231 646.621795 5.894231 648.791667 5.894231 650.961538 5.894231 653.131410 5.894231 655.301282 5.894231 657.471154 5.894231 659.641026 5.894231 661.810897 5.894231 663.980769 5.894231"/></g></g><g class="titles"><text class="title plot_title" x="400.0" y="28">Mean Accuracy2 for Tempo T ±10.0 BPM</text><text class="title" x="441.5" y="437.5">T (BPM)</text><text class="title" x="0" y="229.25" transform="rotate(-90 0.000000 201.250000)">Mean Accuracy2 (%)</text></g><g class="plot overlay" transform="translate(103, 48)"><g class="series serie-0 color-0"><g class="dots"><circle class="dot reactive tooltip-trigger" cx="13.01923076923077" cy="5.894230769230774" r="2.5"/><desc class="value">100.0</desc><desc class="x ">13.01923076923077</desc><desc class="y ">5.894230769230774</desc><desc class="x_label">0.0</desc></g><g class="dots"><circle class="dot reactive tooltip-trigger" cx="78.11538461538463" cy="5.894230769230774" r="2.5"/><desc class="value">100.0</desc><desc class="x ">78.11538461538463</desc><desc class="y ">5.894230769230774</desc><desc class="x_label">30.0</desc></g><g class="dots"><circle class="dot reactive tooltip-trigger" cx="143.21153846153845" cy="60.10538332904554" r="2.5"/><desc class="value">81.6</desc><desc class="x ">143.21153846153845</desc><desc class="y ">60.10538332904554</desc><desc class="x_label">60.0</desc></g><g class="dots"><circle class="dot reactive tooltip-trigger" cx="208.30769230769232" cy="45.33390523363374" r="2.5"/><desc class="value">86.6</desc><desc class="x ">208.30769230769232</desc><desc class="y ">45.33390523363374</desc><desc class="x_label">90.0</desc></g><g class="dots"><circle class="dot reactive tooltip-trigger" cx="273.4038461538462" cy="37.59089508889281" r="2.5"/><desc class="value">89.2</desc><desc class="x ">273.4038461538462</desc><desc class="y ">37.59089508889281</desc><desc class="x_label">120.0</desc></g><g class="dots"><circle class="dot reactive tooltip-trigger" cx="338.5" cy="51.281018006634014" r="2.5"/><desc class="value">84.6</desc><desc class="x ">338.5</desc><desc class="y ">51.281018006634014</desc><desc class="x_label">150.0</desc></g><g class="dots"><circle class="dot reactive tooltip-trigger" cx="403.59615384615387" cy="23.864446529080737" r="2.5"/><desc class="value">93.9</desc><desc class="x left">403.59615384615387</desc><desc class="y left">23.864446529080737</desc><desc class="x_label">180.0</desc></g><g class="dots"><circle class="dot reactive tooltip-trigger" cx="468.6923076923077" cy="66.86903183023873" r="2.5"/><desc class="value">79.3</desc><desc class="x left">468.6923076923077</desc><desc class="y left">66.86903183023873</desc><desc class="x_label">210.0</desc></g><g class="dots"><circle class="dot reactive tooltip-trigger" cx="533.7884615384615" cy="300.6057692307692" r="2.5"/><desc class="value">0.0</desc><desc class="x left top">533.7884615384615</desc><desc class="y left top">300.6057692307692</desc><desc class="x_label">240.0</desc></g><g class="dots"><circle class="dot reactive tooltip-trigger" cx="598.8846153846154" cy="5.894230769230774" r="2.5"/><desc class="value">100.0</desc><desc class="x left">598.8846153846154</desc><desc class="y left">5.894230769230774</desc><desc class="x_label">270.0</desc></g><g class="dots"><circle class="dot reactive tooltip-trigger" cx="663.9807692307692" cy="5.894230769230774" r="2.5"/><desc class="value">100.0</desc><desc class="x left">663.9807692307692</desc><desc class="y left">5.894230769230774</desc><desc class="x_label">300.0</desc></g></g><g class="series serie-1 color-1"><g class="dots"><circle class="dot reactive tooltip-trigger" cx="13.01923076923077" cy="5.894230769230774" r="2.5"/><desc class="value">100.0</desc><desc class="x ">13.01923076923077</desc><desc class="y ">5.894230769230774</desc><desc class="x_label">0.0</desc></g><g class="dots"><circle class="dot reactive tooltip-trigger" cx="78.11538461538463" cy="5.894230769230774" r="2.5"/><desc class="value">100.0</desc><desc class="x ">78.11538461538463</desc><desc class="y ">5.894230769230774</desc><desc class="x_label">30.0</desc></g><g class="dots"><circle class="dot reactive tooltip-trigger" cx="143.21153846153845" cy="86.71813094931824" r="2.5"/><desc class="value">72.6</desc><desc class="x ">143.21153846153845</desc><desc class="y ">86.71813094931824</desc><desc class="x_label">60.0</desc></g><g class="dots"><circle class="dot reactive tooltip-trigger" cx="208.30769230769232" cy="68.65475622128068" r="2.5"/><desc class="value">78.7</desc><desc class="x ">208.30769230769232</desc><desc class="y ">68.65475622128068</desc><desc class="x_label">90.0</desc></g><g class="dots"><circle class="dot reactive tooltip-trigger" cx="273.4038461538462" cy="49.99980197148392" r="2.5"/><desc class="value">85.0</desc><desc class="x ">273.4038461538462</desc><desc class="y ">49.99980197148392</desc><desc class="x_label">120.0</desc></g><g class="dots"><circle class="dot reactive tooltip-trigger" cx="338.5" cy="80.9337190017375" r="2.5"/><desc class="value">74.5</desc><desc class="x ">338.5</desc><desc class="y ">80.9337190017375</desc><desc class="x_label">150.0</desc></g><g class="dots"><circle class="dot reactive tooltip-trigger" cx="403.59615384615387" cy="84.96318011257034" r="2.5"/><desc class="value">73.2</desc><desc class="x left">403.59615384615387</desc><desc class="y left">84.96318011257034</desc><desc class="x_label">180.0</desc></g><g class="dots"><circle class="dot reactive tooltip-trigger" cx="468.6923076923077" cy="36.38163129973475" r="2.5"/><desc class="value">89.7</desc><desc class="x left">468.6923076923077</desc><desc class="y left">36.38163129973475</desc><desc class="x_label">210.0</desc></g><g class="dots"><circle class="dot reactive tooltip-trigger" cx="533.7884615384615" cy="300.6057692307692" r="2.5"/><desc class="value">0.0</desc><desc class="x left top">533.7884615384615</desc><desc class="y left top">300.6057692307692</desc><desc class="x_label">240.0</desc></g><g class="dots"><circle class="dot reactive tooltip-trigger" cx="598.8846153846154" cy="5.894230769230774" r="2.5"/><desc class="value">100.0</desc><desc class="x left">598.8846153846154</desc><desc class="y left">5.894230769230774</desc><desc class="x_label">270.0</desc></g><g class="dots"><circle class="dot reactive tooltip-trigger" cx="663.9807692307692" cy="5.894230769230774" r="2.5"/><desc class="value">100.0</desc><desc class="x left">663.9807692307692</desc><desc class="y left">5.894230769230774</desc><desc class="x_label">300.0</desc></g></g><g class="series serie-2 color-2"><g class="dots"><circle class="dot reactive tooltip-trigger" cx="13.01923076923077" cy="5.894230769230774" r="2.5"/><desc class="value">100.0</desc><desc class="x ">13.01923076923077</desc><desc class="y ">5.894230769230774</desc><desc class="x_label">0.0</desc></g><g class="dots"><circle class="dot reactive tooltip-trigger" cx="78.11538461538463" cy="5.894230769230774" r="2.5"/><desc class="value">100.0</desc><desc class="x ">78.11538461538463</desc><desc class="y ">5.894230769230774</desc><desc class="x_label">30.0</desc></g><g class="dots"><circle class="dot reactive tooltip-trigger" cx="143.21153846153845" cy="64.04801260612297" r="2.5"/><desc class="value">80.3</desc><desc class="x ">143.21153846153845</desc><desc class="y ">64.04801260612297</desc><desc class="x_label">60.0</desc></g><g class="dots"><circle class="dot reactive tooltip-trigger" cx="208.30769230769232" cy="56.19410544846926" r="2.5"/><desc class="value">82.9</desc><desc class="x ">208.30769230769232</desc><desc class="y ">56.19410544846926</desc><desc class="x_label">90.0</desc></g><g class="dots"><circle class="dot reactive tooltip-trigger" cx="273.4038461538462" cy="45.009263333920046" r="2.5"/><desc class="value">86.7</desc><desc class="x ">273.4038461538462</desc><desc class="y ">45.009263333920046</desc><desc class="x_label">120.0</desc></g><g class="dots"><circle class="dot reactive tooltip-trigger" cx="338.5" cy="53.399068077712855" r="2.5"/><desc class="value">83.9</desc><desc class="x ">338.5</desc><desc class="y ">53.399068077712855</desc><desc class="x_label">150.0</desc></g><g class="dots"><circle class="dot reactive tooltip-trigger" cx="403.59615384615387" cy="27.45848968105065" r="2.5"/><desc class="value">92.7</desc><desc class="x left">403.59615384615387</desc><desc class="y left">27.45848968105065</desc><desc class="x_label">180.0</desc></g><g class="dots"><circle class="dot reactive tooltip-trigger" cx="468.6923076923077" cy="56.70656498673739" r="2.5"/><desc class="value">82.8</desc><desc class="x left">468.6923076923077</desc><desc class="y left">56.70656498673739</desc><desc class="x_label">210.0</desc></g><g class="dots"><circle class="dot reactive tooltip-trigger" cx="533.7884615384615" cy="300.6057692307692" r="2.5"/><desc class="value">0.0</desc><desc class="x left top">533.7884615384615</desc><desc class="y left top">300.6057692307692</desc><desc class="x_label">240.0</desc></g><g class="dots"><circle class="dot reactive tooltip-trigger" cx="598.8846153846154" cy="5.894230769230774" r="2.5"/><desc class="value">100.0</desc><desc class="x left">598.8846153846154</desc><desc class="y left">5.894230769230774</desc><desc class="x_label">270.0</desc></g><g class="dots"><circle class="dot reactive tooltip-trigger" cx="663.9807692307692" cy="5.894230769230774" r="2.5"/><desc class="value">100.0</desc><desc class="x left">663.9807692307692</desc><desc class="y left">5.894230769230774</desc><desc class="x_label">300.0</desc></g></g><g class="series serie-3 color-3"><g class="dots"><circle class="dot reactive tooltip-trigger" cx="13.01923076923077" cy="5.894230769230774" r="2.5"/><desc class="value">100.0</desc><desc class="x ">13.01923076923077</desc><desc class="y ">5.894230769230774</desc><desc class="x_label">0.0</desc></g><g class="dots"><circle class="dot reactive tooltip-trigger" cx="78.11538461538463" cy="5.894230769230774" r="2.5"/><desc class="value">100.0</desc><desc class="x ">78.11538461538463</desc><desc class="y ">5.894230769230774</desc><desc class="x_label">30.0</desc></g><g class="dots"><circle class="dot reactive tooltip-trigger" cx="143.21153846153845" cy="57.14841137123747" r="2.5"/><desc class="value">82.6</desc><desc class="x ">143.21153846153845</desc><desc class="y ">57.14841137123747</desc><desc class="x_label">60.0</desc></g><g class="dots"><circle class="dot reactive tooltip-trigger" cx="208.30769230769232" cy="51.2784358775437" r="2.5"/><desc class="value">84.6</desc><desc class="x ">208.30769230769232</desc><desc class="y ">51.2784358775437</desc><desc class="x_label">90.0</desc></g><g class="dots"><circle class="dot reactive tooltip-trigger" cx="273.4038461538462" cy="35.297944904066185" r="2.5"/><desc class="value">90.0</desc><desc class="x ">273.4038461538462</desc><desc class="y ">35.297944904066185</desc><desc class="x_label">120.0</desc></g><g class="dots"><circle class="dot reactive tooltip-trigger" cx="338.5" cy="50.37328226188595" r="2.5"/><desc class="value">84.9</desc><desc class="x ">338.5</desc><desc class="y ">50.37328226188595</desc><desc class="x_label">150.0</desc></g><g class="dots"><circle class="dot reactive tooltip-trigger" cx="403.59615384615387" cy="43.6316838649156" r="2.5"/><desc class="value">87.2</desc><desc class="x left">403.59615384615387</desc><desc class="y left">43.6316838649156</desc><desc class="x_label">180.0</desc></g><g class="dots"><circle class="dot reactive tooltip-trigger" cx="468.6923076923077" cy="46.54409814323611" r="2.5"/><desc class="value">86.2</desc><desc class="x left">468.6923076923077</desc><desc class="y left">46.54409814323611</desc><desc class="x_label">210.0</desc></g><g class="dots"><circle class="dot reactive tooltip-trigger" cx="533.7884615384615" cy="5.894230769230774" r="2.5"/><desc class="value">100.0</desc><desc class="x left">533.7884615384615</desc><desc class="y left">5.894230769230774</desc><desc class="x_label">240.0</desc></g><g class="dots"><circle class="dot reactive tooltip-trigger" cx="598.8846153846154" cy="5.894230769230774" r="2.5"/><desc class="value">100.0</desc><desc class="x left">598.8846153846154</desc><desc class="y left">5.894230769230774</desc><desc class="x_label">270.0</desc></g><g class="dots"><circle class="dot reactive tooltip-trigger" cx="663.9807692307692" cy="5.894230769230774" r="2.5"/><desc class="value">100.0</desc><desc class="x left">663.9807692307692</desc><desc class="y left">5.894230769230774</desc><desc class="x_label">300.0</desc></g></g><g class="series serie-4 color-4"><g class="dots"><circle class="dot reactive tooltip-trigger" cx="13.01923076923077" cy="5.894230769230774" r="2.5"/><desc class="value">100.0</desc><desc class="x ">13.01923076923077</desc><desc class="y ">5.894230769230774</desc><desc class="x_label">0.0</desc></g><g class="dots"><circle class="dot reactive tooltip-trigger" cx="78.11538461538463" cy="5.894230769230774" r="2.5"/><desc class="value">100.0</desc><desc class="x ">78.11538461538463</desc><desc class="y ">5.894230769230774</desc><desc class="x_label">30.0</desc></g><g class="dots"><circle class="dot reactive tooltip-trigger" cx="143.21153846153845" cy="64.04801260612297" r="2.5"/><desc class="value">80.3</desc><desc class="x ">143.21153846153845</desc><desc class="y ">64.04801260612297</desc><desc class="x_label">60.0</desc></g><g class="dots"><circle class="dot reactive tooltip-trigger" cx="208.30769230769232" cy="51.049800083547154" r="2.5"/><desc class="value">84.7</desc><desc class="x ">208.30769230769232</desc><desc class="y ">51.049800083547154</desc><desc class="x_label">90.0</desc></g><g class="dots"><circle class="dot reactive tooltip-trigger" cx="273.4038461538462" cy="35.70258317197681" r="2.5"/><desc class="value">89.9</desc><desc class="x ">273.4038461538462</desc><desc class="y ">35.70258317197681</desc><desc class="x_label">120.0</desc></g><g class="dots"><circle class="dot reactive tooltip-trigger" cx="338.5" cy="53.399068077712855" r="2.5"/><desc class="value">83.9</desc><desc class="x ">338.5</desc><desc class="y ">53.399068077712855</desc><desc class="x_label">150.0</desc></g><g class="dots"><circle class="dot reactive tooltip-trigger" cx="403.59615384615387" cy="40.037640712945574" r="2.5"/><desc class="value">88.4</desc><desc class="x left">403.59615384615387</desc><desc class="y left">40.037640712945574</desc><desc class="x_label">180.0</desc></g><g class="dots"><circle class="dot reactive tooltip-trigger" cx="468.6923076923077" cy="46.54409814323611" r="2.5"/><desc class="value">86.2</desc><desc class="x left">468.6923076923077</desc><desc class="y left">46.54409814323611</desc><desc class="x_label">210.0</desc></g><g class="dots"><circle class="dot reactive tooltip-trigger" cx="533.7884615384615" cy="5.894230769230774" r="2.5"/><desc class="value">100.0</desc><desc class="x left">533.7884615384615</desc><desc class="y left">5.894230769230774</desc><desc class="x_label">240.0</desc></g><g class="dots"><circle class="dot reactive tooltip-trigger" cx="598.8846153846154" cy="5.894230769230774" r="2.5"/><desc class="value">100.0</desc><desc class="x left">598.8846153846154</desc><desc class="y left">5.894230769230774</desc><desc class="x_label">270.0</desc></g><g class="dots"><circle class="dot reactive tooltip-trigger" cx="663.9807692307692" cy="5.894230769230774" r="2.5"/><desc class="value">100.0</desc><desc class="x left">663.9807692307692</desc><desc class="y left">5.894230769230774</desc><desc class="x_label">300.0</desc></g></g><g class="series serie-5 color-5"><g class="dots"><circle class="dot reactive tooltip-trigger" cx="13.01923076923077" cy="5.894230769230774" r="2.5"/><desc class="value">100.0</desc><desc class="x ">13.01923076923077</desc><desc class="y ">5.894230769230774</desc><desc class="x_label">0.0</desc></g><g class="dots"><circle class="dot reactive tooltip-trigger" cx="78.11538461538463" cy="5.894230769230774" r="2.5"/><desc class="value">100.0</desc><desc class="x ">78.11538461538463</desc><desc class="y ">5.894230769230774</desc><desc class="x_label">30.0</desc></g><g class="dots"><circle class="dot reactive tooltip-trigger" cx="143.21153846153845" cy="60.10538332904554" r="2.5"/><desc class="value">81.6</desc><desc class="x ">143.21153846153845</desc><desc class="y ">60.10538332904554</desc><desc class="x_label">60.0</desc></g><g class="dots"><circle class="dot reactive tooltip-trigger" cx="208.30769230769232" cy="51.049800083547154" r="2.5"/><desc class="value">84.7</desc><desc class="x ">208.30769230769232</desc><desc class="y ">51.049800083547154</desc><desc class="x_label">90.0</desc></g><g class="dots"><circle class="dot reactive tooltip-trigger" cx="273.4038461538462" cy="35.43282432670304" r="2.5"/><desc class="value">90.0</desc><desc class="x ">273.4038461538462</desc><desc class="y ">35.43282432670304</desc><desc class="x_label">120.0</desc></g><g class="dots"><circle class="dot reactive tooltip-trigger" cx="338.5" cy="52.18875375138208" r="2.5"/><desc class="value">84.3</desc><desc class="x ">338.5</desc><desc class="y ">52.18875375138208</desc><desc class="x_label">150.0</desc></g><g class="dots"><circle class="dot reactive tooltip-trigger" cx="403.59615384615387" cy="38.24061913696056" r="2.5"/><desc class="value">89.0</desc><desc class="x left">403.59615384615387</desc><desc class="y left">38.24061913696056</desc><desc class="x_label">180.0</desc></g><g class="dots"><circle class="dot reactive tooltip-trigger" cx="468.6923076923077" cy="46.54409814323611" r="2.5"/><desc class="value">86.2</desc><desc class="x left">468.6923076923077</desc><desc class="y left">46.54409814323611</desc><desc class="x_label">210.0</desc></g><g class="dots"><circle class="dot reactive tooltip-trigger" cx="533.7884615384615" cy="300.6057692307692" r="2.5"/><desc class="value">0.0</desc><desc class="x left top">533.7884615384615</desc><desc class="y left top">300.6057692307692</desc><desc class="x_label">240.0</desc></g><g class="dots"><circle class="dot reactive tooltip-trigger" cx="598.8846153846154" cy="5.894230769230774" r="2.5"/><desc class="value">100.0</desc><desc class="x left">598.8846153846154</desc><desc class="y left">5.894230769230774</desc><desc class="x_label">270.0</desc></g><g class="dots"><circle class="dot reactive tooltip-trigger" cx="663.9807692307692" cy="5.894230769230774" r="2.5"/><desc class="value">100.0</desc><desc class="x left">663.9807692307692</desc><desc class="y left">5.894230769230774</desc><desc class="x_label">300.0</desc></g></g><g class="series serie-6 color-6"><g class="dots"><circle class="dot reactive tooltip-trigger" cx="13.01923076923077" cy="5.894230769230774" r="2.5"/><desc class="value">100.0</desc><desc class="x ">13.01923076923077</desc><desc class="y ">5.894230769230774</desc><desc class="x_label">0.0</desc></g><g class="dots"><circle class="dot reactive tooltip-trigger" cx="78.11538461538463" cy="5.894230769230774" r="2.5"/><desc class="value">100.0</desc><desc class="x ">78.11538461538463</desc><desc class="y ">5.894230769230774</desc><desc class="x_label">30.0</desc></g><g class="dots"><circle class="dot reactive tooltip-trigger" cx="143.21153846153845" cy="60.10538332904554" r="2.5"/><desc class="value">81.6</desc><desc class="x ">143.21153846153845</desc><desc class="y ">60.10538332904554</desc><desc class="x_label">60.0</desc></g><g class="dots"><circle class="dot reactive tooltip-trigger" cx="208.30769230769232" cy="41.104143044697764" r="2.5"/><desc class="value">88.1</desc><desc class="x ">208.30769230769232</desc><desc class="y ">41.104143044697764</desc><desc class="x_label">90.0</desc></g><g class="dots"><circle class="dot reactive tooltip-trigger" cx="273.4038461538462" cy="34.21890952297133" r="2.5"/><desc class="value">90.4</desc><desc class="x ">273.4038461538462</desc><desc class="y ">34.21890952297133</desc><desc class="x_label">120.0</desc></g><g class="dots"><circle class="dot reactive tooltip-trigger" cx="338.5" cy="48.86038935397255" r="2.5"/><desc class="value">85.4</desc><desc class="x ">338.5</desc><desc class="y ">48.86038935397255</desc><desc class="x_label">150.0</desc></g><g class="dots"><circle class="dot reactive tooltip-trigger" cx="403.59615384615387" cy="29.255511257035664" r="2.5"/><desc class="value">92.1</desc><desc class="x left">403.59615384615387</desc><desc class="y left">29.255511257035664</desc><desc class="x_label">180.0</desc></g><g class="dots"><circle class="dot reactive tooltip-trigger" cx="468.6923076923077" cy="46.54409814323611" r="2.5"/><desc class="value">86.2</desc><desc class="x left">468.6923076923077</desc><desc class="y left">46.54409814323611</desc><desc class="x_label">210.0</desc></g><g class="dots"><circle class="dot reactive tooltip-trigger" cx="533.7884615384615" cy="5.894230769230774" r="2.5"/><desc class="value">100.0</desc><desc class="x left">533.7884615384615</desc><desc class="y left">5.894230769230774</desc><desc class="x_label">240.0</desc></g><g class="dots"><circle class="dot reactive tooltip-trigger" cx="598.8846153846154" cy="5.894230769230774" r="2.5"/><desc class="value">100.0</desc><desc class="x left">598.8846153846154</desc><desc class="y left">5.894230769230774</desc><desc class="x_label">270.0</desc></g><g class="dots"><circle class="dot reactive tooltip-trigger" cx="663.9807692307692" cy="5.894230769230774" r="2.5"/><desc class="value">100.0</desc><desc class="x left">663.9807692307692</desc><desc class="y left">5.894230769230774</desc><desc class="x_label">300.0</desc></g></g><g class="series serie-7 color-7"><g class="dots"><circle class="dot reactive tooltip-trigger" cx="13.01923076923077" cy="5.894230769230774" r="2.5"/><desc class="value">100.0</desc><desc class="x ">13.01923076923077</desc><desc class="y ">5.894230769230774</desc><desc class="x_label">0.0</desc></g><g class="dots"><circle class="dot reactive tooltip-trigger" cx="78.11538461538463" cy="5.894230769230774" r="2.5"/><desc class="value">100.0</desc><desc class="x ">78.11538461538463</desc><desc class="y ">5.894230769230774</desc><desc class="x_label">30.0</desc></g><g class="dots"><circle class="dot reactive tooltip-trigger" cx="143.21153846153845" cy="72.91892847954722" r="2.5"/><desc class="value">77.3</desc><desc class="x ">143.21153846153845</desc><desc class="y ">72.91892847954722</desc><desc class="x_label">60.0</desc></g><g class="dots"><circle class="dot reactive tooltip-trigger" cx="208.30769230769232" cy="46.7057199976129" r="2.5"/><desc class="value">86.2</desc><desc class="x ">208.30769230769232</desc><desc class="y ">46.7057199976129</desc><desc class="x_label">90.0</desc></g><g class="dots"><circle class="dot reactive tooltip-trigger" cx="273.4038461538462" cy="28.55397377222323" r="2.5"/><desc class="value">92.3</desc><desc class="x ">273.4038461538462</desc><desc class="y ">28.55397377222323</desc><desc class="x_label">120.0</desc></g><g class="dots"><circle class="dot reactive tooltip-trigger" cx="338.5" cy="42.20366055915338" r="2.5"/><desc class="value">87.7</desc><desc class="x ">338.5</desc><desc class="y ">42.20366055915338</desc><desc class="x_label">150.0</desc></g><g class="dots"><circle class="dot reactive tooltip-trigger" cx="403.59615384615387" cy="23.864446529080737" r="2.5"/><desc class="value">93.9</desc><desc class="x left">403.59615384615387</desc><desc class="y left">23.864446529080737</desc><desc class="x_label">180.0</desc></g><g class="dots"><circle class="dot reactive tooltip-trigger" cx="468.6923076923077" cy="46.54409814323611" r="2.5"/><desc class="value">86.2</desc><desc class="x left">468.6923076923077</desc><desc class="y left">46.54409814323611</desc><desc class="x_label">210.0</desc></g><g class="dots"><circle class="dot reactive tooltip-trigger" cx="533.7884615384615" cy="5.894230769230774" r="2.5"/><desc class="value">100.0</desc><desc class="x left">533.7884615384615</desc><desc class="y left">5.894230769230774</desc><desc class="x_label">240.0</desc></g><g class="dots"><circle class="dot reactive tooltip-trigger" cx="598.8846153846154" cy="5.894230769230774" r="2.5"/><desc class="value">100.0</desc><desc class="x left">598.8846153846154</desc><desc class="y left">5.894230769230774</desc><desc class="x_label">270.0</desc></g><g class="dots"><circle class="dot reactive tooltip-trigger" cx="663.9807692307692" cy="5.894230769230774" r="2.5"/><desc class="value">100.0</desc><desc class="x left">663.9807692307692</desc><desc class="y left">5.894230769230774</desc><desc class="x_label">300.0</desc></g></g></g><g class="plot text-overlay" transform="translate(103, 48)"><g class="series serie-0 color-0"/><g class="series serie-1 color-1"/><g class="series serie-2 color-2"/><g class="series serie-3 color-3"/><g class="series serie-4 color-4"/><g class="series serie-5 color-5"/><g class="series serie-6 color-6"/><g class="series serie-7 color-7"/></g><g class="plot tooltip-overlay" transform="translate(103, 48)"><g class="tooltip" style="opacity: 0" transform="translate(0 0)"><rect class="tooltip-box" height="0" rx="0" ry="0" width="0"/><g class="text"/></g></g><g class="legends" transform="translate(113, 457)"><g class="legend reactive activate-serie" id="activate-serie-0"><rect class="color-0 reactive" height="12" width="12" x="0.0" y="1.5"/><text x="17.0" y="12.0">boeck2015/tempodetector2016_default</text></g><g class="legend reactive activate-serie" id="activate-serie-1"><rect class="color-1 reactive" height="12" width="12" x="338.5" y="1.5"/><text x="355.5" y="12.0">davies2009/mirex_qm_tempotracker</text></g><g class="legend reactive activate-serie" id="activate-serie-2"><rect class="color-2 reactive" height="12" width="12" x="0.0" y="24.0"/><text x="17.0" y="34.5">percival2014/stem</text></g><g class="legend reactive activate-serie" id="activate-serie-3"><rect class="color-3 reactive" height="12" width="12" x="338.5" y="24.0"/><text x="355.5" y="34.5">schreiber2014/default</text></g><g class="legend reactive activate-serie" id="activate-serie-4"><rect class="color-4 reactive" height="12" width="12" x="0.0" y="46.5"/><text x="17.0" y="57.0">schreiber2017/ismir2017</text></g><g class="legend reactive activate-serie" id="activate-serie-5"><rect class="color-5 reactive" height="12" width="12" x="338.5" y="46.5"/><text x="355.5" y="57.0">schreiber2017/mirex2017</text></g><g class="legend reactive activate-serie" id="activate-serie-6"><rect class="color-6 reactive" height="12" width="12" x="0.0" y="69.0"/><text x="17.0" y="79.5">schreiber2018/cnn</text></g><g class="legend reactive activate-serie" id="activate-serie-7"><rect class="color-7 reactive" height="12" width="12" x="338.5" y="69.0"/><text x="355.5" y="79.5">schreiber2018/fcn</text></g></g></g></svg>