<?xml version='1.0' encoding='utf-8'?>
<svg xmlns:xlink="http://www.w3.org/1999/xlink" class="pygal-chart" id="chart-e71180b5-0c3c-4725-813d-ab687f108209" viewBox="0 0 800 600" xmlns="http://www.w3.org/2000/svg"><!--Generated with pygal 2.4.0 (etree) ©Kozea 2012-2016 on 2022-06-29--><!--http://pygal.org--><!--http://github.com/Kozea/pygal--><defs><style type="text/css">#chart-e71180b5-0c3c-4725-813d-ab687f108209{-webkit-user-select:none;-webkit-font-smoothing:antialiased;font-family:Helvetica,Arial,sans-serif}#chart-e71180b5-0c3c-4725-813d-ab687f108209 .title{font-family:Helvetica,Arial,sans-serif;font-size:18px}#chart-e71180b5-0c3c-4725-813d-ab687f108209 .legends .legend text{font-family:Helvetica,Arial,sans-serif;font-size:15px}#chart-e71180b5-0c3c-4725-813d-ab687f108209 .axis text{font-family:Helvetica,Arial,sans-serif;font-size:15px}#chart-e71180b5-0c3c-4725-813d-ab687f108209 .axis text.major{font-family:Helvetica,Arial,sans-serif;font-size:15px}#chart-e71180b5-0c3c-4725-813d-ab687f108209 .text-overlay text.value{font-family:Helvetica,Arial,sans-serif;font-size:15px}#chart-e71180b5-0c3c-4725-813d-ab687f108209 .text-overlay text.label{font-family:Helvetica,Arial,sans-serif;font-size:15px}#chart-e71180b5-0c3c-4725-813d-ab687f108209 .tooltip{font-family:Helvetica,Arial,sans-serif;font-size:14px}#chart-e71180b5-0c3c-4725-813d-ab687f108209 text.no_data{font-family:Helvetica,Arial,sans-serif;font-size:64px}
#chart-e71180b5-0c3c-4725-813d-ab687f108209{background-color:transparent}#chart-e71180b5-0c3c-4725-813d-ab687f108209 path,#chart-e71180b5-0c3c-4725-813d-ab687f108209 line,#chart-e71180b5-0c3c-4725-813d-ab687f108209 rect,#chart-e71180b5-0c3c-4725-813d-ab687f108209 circle{-webkit-transition:150ms;-moz-transition:150ms;transition:150ms}#chart-e71180b5-0c3c-4725-813d-ab687f108209 .graph &gt; .background{fill:transparent}#chart-e71180b5-0c3c-4725-813d-ab687f108209 .plot &gt; .background{fill:white}#chart-e71180b5-0c3c-4725-813d-ab687f108209 .graph{fill:rgba(0,0,0,.87)}#chart-e71180b5-0c3c-4725-813d-ab687f108209 text.no_data{fill:rgba(0,0,0,1)}#chart-e71180b5-0c3c-4725-813d-ab687f108209 .title{fill:rgba(0,0,0,1)}#chart-e71180b5-0c3c-4725-813d-ab687f108209 .legends .legend text{fill:rgba(0,0,0,.87)}#chart-e71180b5-0c3c-4725-813d-ab687f108209 .legends .legend:hover text{fill:rgba(0,0,0,1)}#chart-e71180b5-0c3c-4725-813d-ab687f108209 .axis .line{stroke:rgba(0,0,0,1)}#chart-e71180b5-0c3c-4725-813d-ab687f108209 .axis .guide.line{stroke:rgba(0,0,0,.54)}#chart-e71180b5-0c3c-4725-813d-ab687f108209 .axis .major.line{stroke:rgba(0,0,0,.87)}#chart-e71180b5-0c3c-4725-813d-ab687f108209 .axis text.major{fill:rgba(0,0,0,1)}#chart-e71180b5-0c3c-4725-813d-ab687f108209 .axis.y .guides:hover .guide.line,#chart-e71180b5-0c3c-4725-813d-ab687f108209 .line-graph .axis.x .guides:hover .guide.line,#chart-e71180b5-0c3c-4725-813d-ab687f108209 .stackedline-graph .axis.x .guides:hover .guide.line,#chart-e71180b5-0c3c-4725-813d-ab687f108209 .xy-graph .axis.x .guides:hover .guide.line{stroke:rgba(0,0,0,1)}#chart-e71180b5-0c3c-4725-813d-ab687f108209 .axis .guides:hover text{fill:rgba(0,0,0,1)}#chart-e71180b5-0c3c-4725-813d-ab687f108209 .reactive{fill-opacity:.7;stroke-opacity:.8}#chart-e71180b5-0c3c-4725-813d-ab687f108209 .ci{stroke:rgba(0,0,0,.87)}#chart-e71180b5-0c3c-4725-813d-ab687f108209 .reactive.active,#chart-e71180b5-0c3c-4725-813d-ab687f108209 .active .reactive{fill-opacity:.8;stroke-opacity:.9;stroke-width:4}#chart-e71180b5-0c3c-4725-813d-ab687f108209 .ci .reactive.active{stroke-width:1.5}#chart-e71180b5-0c3c-4725-813d-ab687f108209 .series text{fill:rgba(0,0,0,1)}#chart-e71180b5-0c3c-4725-813d-ab687f108209 .tooltip rect{fill:white;stroke:rgba(0,0,0,1);-webkit-transition:opacity 150ms;-moz-transition:opacity 150ms;transition:opacity 150ms}#chart-e71180b5-0c3c-4725-813d-ab687f108209 .tooltip .label{fill:rgba(0,0,0,.87)}#chart-e71180b5-0c3c-4725-813d-ab687f108209 .tooltip .label{fill:rgba(0,0,0,.87)}#chart-e71180b5-0c3c-4725-813d-ab687f108209 .tooltip .legend{font-size:.8em;fill:rgba(0,0,0,.54)}#chart-e71180b5-0c3c-4725-813d-ab687f108209 .tooltip .x_label{font-size:.6em;fill:rgba(0,0,0,1)}#chart-e71180b5-0c3c-4725-813d-ab687f108209 .tooltip .xlink{font-size:.5em;text-decoration:underline}#chart-e71180b5-0c3c-4725-813d-ab687f108209 .tooltip .value{font-size:1.5em}#chart-e71180b5-0c3c-4725-813d-ab687f108209 .bound{font-size:.5em}#chart-e71180b5-0c3c-4725-813d-ab687f108209 .max-value{font-size:.75em;fill:rgba(0,0,0,.54)}#chart-e71180b5-0c3c-4725-813d-ab687f108209 .map-element{fill:white;stroke:rgba(0,0,0,.54) !important}#chart-e71180b5-0c3c-4725-813d-ab687f108209 .map-element .reactive{fill-opacity:inherit;stroke-opacity:inherit}#chart-e71180b5-0c3c-4725-813d-ab687f108209 .color-0,#chart-e71180b5-0c3c-4725-813d-ab687f108209 .color-0 a:visited{stroke:#F44336;fill:#F44336}#chart-e71180b5-0c3c-4725-813d-ab687f108209 .color-1,#chart-e71180b5-0c3c-4725-813d-ab687f108209 .color-1 a:visited{stroke:#3F51B5;fill:#3F51B5}#chart-e71180b5-0c3c-4725-813d-ab687f108209 .color-2,#chart-e71180b5-0c3c-4725-813d-ab687f108209 .color-2 a:visited{stroke:#009688;fill:#009688}#chart-e71180b5-0c3c-4725-813d-ab687f108209 .color-3,#chart-e71180b5-0c3c-4725-813d-ab687f108209 .color-3 a:visited{stroke:#FFC107;fill:#FFC107}#chart-e71180b5-0c3c-4725-813d-ab687f108209 .color-4,#chart-e71180b5-0c3c-4725-813d-ab687f108209 .color-4 a:visited{stroke:#FF5722;fill:#FF5722}#chart-e71180b5-0c3c-4725-813d-ab687f108209 .color-5,#chart-e71180b5-0c3c-4725-813d-ab687f108209 .color-5 a:visited{stroke:#9C27B0;fill:#9C27B0}#chart-e71180b5-0c3c-4725-813d-ab687f108209 .text-overlay .color-0 text{fill:black}#chart-e71180b5-0c3c-4725-813d-ab687f108209 .text-overlay .color-1 text{fill:black}#chart-e71180b5-0c3c-4725-813d-ab687f108209 .text-overlay .color-2 text{fill:black}#chart-e71180b5-0c3c-4725-813d-ab687f108209 .text-overlay .color-3 text{fill:black}#chart-e71180b5-0c3c-4725-813d-ab687f108209 .text-overlay .color-4 text{fill:black}#chart-e71180b5-0c3c-4725-813d-ab687f108209 .text-overlay .color-5 text{fill:black}
#chart-e71180b5-0c3c-4725-813d-ab687f108209 text.no_data{text-anchor:middle}#chart-e71180b5-0c3c-4725-813d-ab687f108209 .guide.line{fill:none}#chart-e71180b5-0c3c-4725-813d-ab687f108209 .centered{text-anchor:middle}#chart-e71180b5-0c3c-4725-813d-ab687f108209 .title{text-anchor:middle}#chart-e71180b5-0c3c-4725-813d-ab687f108209 .legends .legend text{fill-opacity:1}#chart-e71180b5-0c3c-4725-813d-ab687f108209 .axis.x text{text-anchor:middle}#chart-e71180b5-0c3c-4725-813d-ab687f108209 .axis.x:not(.web) text[transform]{text-anchor:start}#chart-e71180b5-0c3c-4725-813d-ab687f108209 .axis.x:not(.web) text[transform].backwards{text-anchor:end}#chart-e71180b5-0c3c-4725-813d-ab687f108209 .axis.y text{text-anchor:end}#chart-e71180b5-0c3c-4725-813d-ab687f108209 .axis.y text[transform].backwards{text-anchor:start}#chart-e71180b5-0c3c-4725-813d-ab687f108209 .axis.y2 text{text-anchor:start}#chart-e71180b5-0c3c-4725-813d-ab687f108209 .axis.y2 text[transform].backwards{text-anchor:end}#chart-e71180b5-0c3c-4725-813d-ab687f108209 .axis .guide.line{stroke-dasharray:1}#chart-e71180b5-0c3c-4725-813d-ab687f108209 .axis .major.guide.line{stroke-dasharray:1}#chart-e71180b5-0c3c-4725-813d-ab687f108209 .horizontal .axis.y .guide.line,#chart-e71180b5-0c3c-4725-813d-ab687f108209 .horizontal .axis.y2 .guide.line,#chart-e71180b5-0c3c-4725-813d-ab687f108209 .vertical .axis.x .guide.line{opacity:0}#chart-e71180b5-0c3c-4725-813d-ab687f108209 .horizontal .axis.always_show .guide.line,#chart-e71180b5-0c3c-4725-813d-ab687f108209 .vertical .axis.always_show .guide.line{opacity:1 !important}#chart-e71180b5-0c3c-4725-813d-ab687f108209 .axis.y .guides:hover .guide.line,#chart-e71180b5-0c3c-4725-813d-ab687f108209 .axis.y2 .guides:hover .guide.line,#chart-e71180b5-0c3c-4725-813d-ab687f108209 .axis.x .guides:hover .guide.line{opacity:1}#chart-e71180b5-0c3c-4725-813d-ab687f108209 .axis .guides:hover text{opacity:1}#chart-e71180b5-0c3c-4725-813d-ab687f108209 .nofill{fill:none}#chart-e71180b5-0c3c-4725-813d-ab687f108209 .subtle-fill{fill-opacity:.2}#chart-e71180b5-0c3c-4725-813d-ab687f108209 .dot{stroke-width:1px;fill-opacity:1}#chart-e71180b5-0c3c-4725-813d-ab687f108209 .dot.active{stroke-width:5px}#chart-e71180b5-0c3c-4725-813d-ab687f108209 .dot.negative{fill:transparent}#chart-e71180b5-0c3c-4725-813d-ab687f108209 text,#chart-e71180b5-0c3c-4725-813d-ab687f108209 tspan{stroke:none !important}#chart-e71180b5-0c3c-4725-813d-ab687f108209 .series text.active{opacity:1}#chart-e71180b5-0c3c-4725-813d-ab687f108209 .tooltip rect{fill-opacity:.95;stroke-width:.5}#chart-e71180b5-0c3c-4725-813d-ab687f108209 .tooltip text{fill-opacity:1}#chart-e71180b5-0c3c-4725-813d-ab687f108209 .showable{visibility:hidden}#chart-e71180b5-0c3c-4725-813d-ab687f108209 .showable.shown{visibility:visible}#chart-e71180b5-0c3c-4725-813d-ab687f108209 .gauge-background{fill:rgba(229,229,229,1);stroke:none}#chart-e71180b5-0c3c-4725-813d-ab687f108209 .bg-lines{stroke:transparent;stroke-width:2px}</style><script type="text/javascript">window.pygal = window.pygal || {};window.pygal.config = window.pygal.config || {};window.pygal.config['e71180b5-0c3c-4725-813d-ab687f108209'] = {"allow_interruptions": false, "box_mode": "extremes", "classes": ["pygal-chart"], "css": ["file://style.css", "file://graph.css"], "defs": [], "disable_xml_declaration": false, "dots_size": 2.5, "dynamic_print_values": false, "explicit_size": false, "fill": false, "force_uri_protocol": "https", "formatter": null, "half_pie": false, "height": 600, "include_x_axis": false, "inner_radius": 0, "interpolate": null, "interpolation_parameters": {}, "interpolation_precision": 250, "inverse_y_axis": false, "js": ["//kozea.github.io/pygal.js/2.0.x/pygal-tooltips.min.js"], "legend_at_bottom": true, "legend_at_bottom_columns": 2, "legend_box_size": 12, "logarithmic": false, "margin": 20, "margin_bottom": 65, "margin_left": null, "margin_right": null, "margin_top": null, "max_scale": 16, "min_scale": 4, "missing_value_fill_truncation": "x", "no_data_text": "No data", "no_prefix": false, "order_min": null, "pretty_print": false, "print_labels": false, "print_values": false, "print_values_position": "center", "print_zeroes": true, "range": [0.0, 100.0], "rounded_bars": null, "secondary_range": null, "show_dots": true, "show_legend": true, "show_minor_x_labels": false, "show_minor_y_labels": true, "show_only_major_dots": true, "show_x_guides": true, "show_x_labels": true, "show_y_guides": true, "show_y_labels": true, "spacing": 10, "stack_from_top": false, "strict": false, "stroke": true, "stroke_style": null, "style": {"background": "transparent", "ci_colors": [], "colors": ["#F44336", "#3F51B5", "#009688", "#FFC107", "#FF5722", "#9C27B0", "#03A9F4", "#8BC34A", "#FF9800", "#E91E63", "#2196F3", "#4CAF50", "#FFEB3B", "#673AB7", "#00BCD4", "#CDDC39", "#9E9E9E", "#607D8B"], "font_family": "Helvetica, Arial, sans-serif", "foreground": "rgba(0, 0, 0, .87)", "foreground_strong": "rgba(0, 0, 0, 1)", "foreground_subtle": "rgba(0, 0, 0, .54)", "guide_stroke_dasharray": 1, "label_font_family": "Helvetica, Arial, sans-serif", "label_font_size": 15, "legend_font_family": "Helvetica, Arial, sans-serif", "legend_font_size": 15, "major_guide_stroke_dasharray": 1, "major_label_font_family": "Helvetica, Arial, sans-serif", "major_label_font_size": 15, "no_data_font_family": "Helvetica, Arial, sans-serif", "no_data_font_size": 64, "opacity": ".7", "opacity_hover": ".8", "plot_background": "white", "stroke_opacity": ".8", "stroke_opacity_hover": ".9", "title_font_family": "Helvetica, Arial, sans-serif", "title_font_size": 18, "tooltip_font_family": "Helvetica, Arial, sans-serif", "tooltip_font_size": 14, "transition": "150ms", "value_background": "rgba(229, 229, 229, 1)", "value_colors": [], "value_font_family": "Helvetica, Arial, sans-serif", "value_font_size": 15, "value_label_font_family": "Helvetica, Arial, sans-serif", "value_label_font_size": 15}, "title": "Mean Accuracy2 for Tempo T \u00b110.0 BPM", "tooltip_border_radius": 0, "tooltip_fancy_mode": true, "truncate_label": null, "truncate_legend": -1, "width": 800, "x_label_rotation": 90, "x_labels": ["0.0", "1.0", "2.0", "3.0", "4.0", "5.0", "6.0", "7.0", "8.0", "9.0", "10.0", "11.0", "12.0", "13.0", "14.0", "15.0", "16.0", "17.0", "18.0", "19.0", "20.0", "21.0", "22.0", "23.0", "24.0", "25.0", "26.0", "27.0", "28.0", "29.0", "30.0", "31.0", "32.0", "33.0", "34.0", "35.0", "36.0", "37.0", "38.0", "39.0", "40.0", "41.0", "42.0", "43.0", "44.0", "45.0", "46.0", "47.0", "48.0", "49.0", "50.0", "51.0", "52.0", "53.0", "54.0", "55.0", "56.0", "57.0", "58.0", "59.0", "60.0", "61.0", "62.0", "63.0", "64.0", "65.0", "66.0", "67.0", "68.0", "69.0", "70.0", "71.0", "72.0", "73.0", "74.0", "75.0", "76.0", "77.0", "78.0", "79.0", "80.0", "81.0", "82.0", "83.0", "84.0", "85.0", "86.0", "87.0", "88.0", "89.0", "90.0", "91.0", "92.0", "93.0", "94.0", "95.0", "96.0", "97.0", "98.0", "99.0", "100.0", "101.0", "102.0", "103.0", "104.0", "105.0", "106.0", "107.0", "108.0", "109.0", "110.0", "111.0", "112.0", "113.0", "114.0", "115.0", "116.0", "117.0", "118.0", "119.0", "120.0", "121.0", "122.0", "123.0", "124.0", "125.0", "126.0", "127.0", "128.0", "129.0", "130.0", "131.0", "132.0", "133.0", "134.0", "135.0", "136.0", "137.0", "138.0", "139.0", "140.0", "141.0", "142.0", "143.0", "144.0", "145.0", "146.0", "147.0", "148.0", "149.0", "150.0", "151.0", "152.0", "153.0", "154.0", "155.0", "156.0", "157.0", "158.0", "159.0", "160.0", "161.0", "162.0", "163.0", "164.0", "165.0", "166.0", "167.0", "168.0", "169.0", "170.0", "171.0", "172.0", "173.0", "174.0", "175.0", "176.0", "177.0", "178.0", "179.0", "180.0", "181.0", "182.0", "183.0", "184.0", "185.0", "186.0", "187.0", "188.0", "189.0", "190.0", "191.0", "192.0", "193.0", "194.0", "195.0", "196.0", "197.0", "198.0", "199.0", "200.0", "201.0", "202.0", "203.0", "204.0", "205.0", "206.0", "207.0", "208.0", "209.0", "210.0", "211.0", "212.0", "213.0", "214.0", "215.0", "216.0", "217.0", "218.0", "219.0", "220.0", "221.0", "222.0", "223.0", "224.0", "225.0", "226.0", "227.0", "228.0", "229.0", "230.0", "231.0", "232.0", "233.0", "234.0", "235.0", "236.0", "237.0", "238.0", "239.0", "240.0", "241.0", "242.0", "243.0", "244.0", "245.0", "246.0", "247.0", "248.0", "249.0", "250.0", "251.0", "252.0", "253.0", "254.0", "255.0", "256.0", "257.0", "258.0", "259.0", "260.0", "261.0", "262.0", "263.0", "264.0", "265.0", "266.0", "267.0", "268.0", "269.0", "270.0", "271.0", "272.0", "273.0", "274.0", "275.0", "276.0", "277.0", "278.0", "279.0", "280.0", "281.0", "282.0", "283.0", "284.0", "285.0", "286.0", "287.0", "288.0", "289.0", "290.0", "291.0", "292.0", "293.0", "294.0", "295.0", "296.0", "297.0", "298.0", "299.0", "300.0"], "x_labels_major": null, "x_labels_major_count": 11, "x_labels_major_every": null, "x_title": "T (BPM)", "xrange": null, "y_label_rotation": 0, "y_labels": null, "y_labels_major": null, "y_labels_major_count": null, "y_labels_major_every": null, "y_title": "Mean Accuracy2 (%)", "zero": 0, "legends": ["boeck2015/tempodetector2016_default", "davies2009/mirex_qm_tempotracker", "percival2014/stem", "schreiber2014/default", "schreiber2017/ismir2017", "schreiber2017/mirex2017"]}</script><script type="text/javascript" xlink:href="https://kozea.github.io/pygal.js/2.0.x/pygal-tooltips.min.js" /></defs><title>Mean Accuracy2 for Tempo T ±10.0 BPM</title><g class="graph line-graph vertical"><rect class="background" height="600" width="800" x="0" y="0" /><g class="plot" transform="translate(103, 48)"><rect class="background" height="334.0" width="677.0" x="0" y="0" /><g class="axis y always_show"><g class="guides"><path class="major line" d="M0.000000 327.576923 h677.000000" /><text class="major" x="-5" y="332.8269230769231">0.0</text><title>0.0</title></g><g class="guides"><path class="guide line" d="M0.000000 295.461538 h677.000000" /><text class="" x="-5" y="300.71153846153845">10.0</text><title>10.0</title></g><g class="guides"><path class="guide line" d="M0.000000 263.346154 h677.000000" /><text class="" x="-5" y="268.5961538461538">20.0</text><title>20.0</title></g><g class="guides"><path class="guide line" d="M0.000000 231.230769 h677.000000" /><text class="" x="-5" y="236.48076923076923">30.0</text><title>30.0</title></g><g class="guides"><path class="guide line" d="M0.000000 199.115385 h677.000000" /><text class="" x="-5" y="204.3653846153846">40.0</text><title>40.0</title></g><g class="guides"><path class="major guide line" d="M0.000000 167.000000 h677.000000" /><text class="major" x="-5" y="172.25">50.0</text><title>50.0</title></g><g class="guides"><path class="guide line" d="M0.000000 134.884615 h677.000000" /><text class="" x="-5" y="140.1346153846154">60.0</text><title>60.0</title></g><g class="guides"><path class="guide line" d="M0.000000 102.769231 h677.000000" /><text class="" x="-5" y="108.01923076923077">70.0</text><title>70.0</title></g><g class="guides"><path class="guide line" d="M0.000000 70.653846 h677.000000" /><text class="" x="-5" y="75.90384615384613">80.0</text><title>80.0</title></g><g class="guides"><path class="guide line" d="M0.000000 38.538462 h677.000000" /><text class="" x="-5" y="43.78846153846155">90.0</text><title>90.0</title></g><g class="guides"><path class="major guide line" d="M0.000000 6.423077 h677.000000" /><text class="major" x="-5" y="11.673076923076906">100.0</text><title>100.0</title></g></g><g class="axis x always_show"><g class="guides"><path class="major line" d="M13.019231 0.000000 v334.000000" /><text class="major" transform="rotate(90 13.019231 351.500000)" x="13.01923076923077" y="351.5">0.0</text></g><g class="guides"><path class="major guide line" d="M78.115385 0.000000 v334.000000" /><text class="major" transform="rotate(90 78.115385 351.500000)" x="78.11538461538463" y="351.5">30.0</text></g><g class="guides"><path class="major guide line" d="M143.211538 0.000000 v334.000000" /><text class="major" transform="rotate(90 143.211538 351.500000)" x="143.21153846153845" y="351.5">60.0</text></g><g class="guides"><path class="major guide line" d="M208.307692 0.000000 v334.000000" /><text class="major" transform="rotate(90 208.307692 351.500000)" x="208.30769230769232" y="351.5">90.0</text></g><g class="guides"><path class="major guide line" d="M273.403846 0.000000 v334.000000" /><text class="major" transform="rotate(90 273.403846 351.500000)" x="273.4038461538462" y="351.5">120.0</text></g><g class="guides"><path class="major guide line" d="M338.500000 0.000000 v334.000000" /><text class="major" transform="rotate(90 338.500000 351.500000)" x="338.5" y="351.5">150.0</text></g><g class="guides"><path class="major guide line" d="M403.596154 0.000000 v334.000000" /><text class="major" transform="rotate(90 403.596154 351.500000)" x="403.59615384615387" y="351.5">180.0</text></g><g class="guides"><path class="major guide line" d="M468.692308 0.000000 v334.000000" /><text class="major" transform="rotate(90 468.692308 351.500000)" x="468.6923076923077" y="351.5">210.0</text></g><g class="guides"><path class="major guide line" d="M533.788462 0.000000 v334.000000" /><text class="major" transform="rotate(90 533.788462 351.500000)" x="533.7884615384615" y="351.5">240.0</text></g><g class="guides"><path class="major guide line" d="M598.884615 0.000000 v334.000000" /><text class="major" transform="rotate(90 598.884615 351.500000)" x="598.8846153846154" y="351.5">270.0</text></g><g class="guides"><path class="major guide line" d="M663.980769 0.000000 v334.000000" /><text class="major" transform="rotate(90 663.980769 351.500000)" x="663.9807692307692" y="351.5">300.0</text></g></g><g class="series serie-0 color-0"><path class="line reactive nofill" d="M13.019231 6.423077 L15.189103 6.423077 17.358974 6.423077 19.528846 6.423077 21.698718 6.423077 23.868590 6.423077 26.038462 6.423077 28.208333 6.423077 30.378205 6.423077 32.548077 6.423077 34.717949 6.423077 36.887821 6.423077 39.057692 6.423077 41.227564 6.423077 43.397436 6.423077 45.567308 6.423077 47.737179 6.423077 49.907051 6.423077 52.076923 6.423077 54.246795 6.423077 56.416667 6.423077 58.586538 6.423077 60.756410 6.423077 62.926282 6.423077 65.096154 6.423077 67.266026 6.423077 69.435897 6.423077 71.605769 6.423077 73.775641 6.423077 75.945513 6.423077 78.115385 6.423077 80.285256 6.423077 82.455128 6.423077 84.625000 6.423077 86.794872 6.423077 88.964744 6.423077 91.134615 6.423077 93.304487 6.423077 95.474359 327.576923 97.644231 327.576923 99.814103 327.576923 101.983974 327.576923 104.153846 220.525641 106.323718 161.052707 108.493590 172.537135 110.663462 118.453488 112.833333 111.719420 115.003205 116.532967 117.173077 113.474359 119.342949 112.007903 121.512821 103.322944 123.682692 98.181319 125.852564 89.442439 128.022436 84.336140 130.192308 81.988688 132.362179 66.233105 134.532051 61.341578 136.701923 85.757994 138.871795 79.163051 141.041667 75.195416 143.211538 68.014226 145.381410 70.082543 147.551282 69.068833 149.721154 78.149590 151.891026 83.884480 154.060897 73.380854 156.230769 73.947732 158.400641 87.470240 160.570513 77.117320 162.740385 73.825736 164.910256 86.222306 167.080128 83.793367 169.250000 80.932357 171.419872 77.727385 173.589744 78.845643 175.759615 74.010645 177.929487 71.827209 180.099359 72.704620 182.269231 68.251231 184.439103 67.301670 186.608974 62.412468 188.778846 61.431523 190.948718 58.805852 193.118590 57.070995 195.288462 54.581471 197.458333 50.682211 199.628205 58.738122 201.798077 58.513657 203.967949 52.799243 206.137821 53.631842 208.307692 51.436223 210.477564 43.436667 212.647436 42.749076 214.817308 42.812168 216.987179 43.157949 219.157051 38.699607 221.326923 40.461767 223.496795 41.300817 225.666667 38.884522 227.836538 39.125296 230.006410 38.409369 232.176282 38.621162 234.346154 38.685855 236.516026 39.710639 238.685897 40.425571 240.855769 39.645889 243.025641 41.642988 245.195513 28.132939 247.365385 27.411766 249.535256 29.003669 251.705128 35.185469 253.875000 45.525313 256.044872 45.412824 258.214744 45.746940 260.384615 45.304074 262.554487 44.639714 264.724359 44.769041 266.894231 44.461254 269.064103 43.581373 271.233974 43.456035 273.403846 41.934377 275.573718 43.117850 277.743590 43.181650 279.913462 43.603640 282.083333 43.068360 284.253205 43.274437 286.423077 43.571829 288.592949 43.424189 290.762821 44.663684 292.932692 45.334377 295.102564 41.697203 297.272436 38.584989 299.442308 28.130291 301.612179 36.702615 303.782051 39.734089 305.951923 40.349050 308.121795 42.990099 310.291667 43.535028 312.461538 43.288419 314.631410 43.813419 316.801282 42.739208 318.971154 49.296789 321.141026 49.433449 323.310897 49.964272 325.480769 49.966735 327.650641 51.404208 329.820513 51.933493 331.990385 53.149434 334.160256 53.621990 336.330128 52.975653 338.500000 54.049847 340.669872 64.351260 342.839744 63.135411 345.009615 64.672663 347.179487 51.937933 349.349359 45.138687 351.519231 45.573821 353.689103 41.327384 355.858974 41.390145 358.028846 41.486588 360.198718 41.866947 362.368590 46.387058 364.538462 33.996892 366.708333 34.682699 368.878205 31.809759 371.048077 32.207289 373.217949 32.714937 375.387821 32.951136 377.557692 33.166175 379.727564 31.938738 381.897436 30.472039 384.067308 22.007136 386.237179 21.922780 388.407051 14.646693 390.576923 14.256098 392.746795 14.622750 394.916667 15.102911 397.086538 15.257406 399.256410 18.391543 401.426282 18.179125 403.596154 18.972606 405.766026 20.413938 407.935897 22.227892 410.105769 22.550890 412.275641 22.550890 414.445513 27.615970 416.615385 28.749280 418.785256 26.370521 420.955128 29.854903 423.125000 29.854903 425.294872 31.777328 427.464744 31.777328 429.634615 33.950549 431.804487 33.950549 433.974359 33.185897 436.144231 35.027873 438.314103 35.027873 440.483974 40.555370 442.653846 40.151563 444.823718 40.452624 446.993590 40.452624 449.163462 40.909396 451.333333 42.356374 453.503205 40.366166 455.673077 43.699863 457.842949 43.699863 460.012821 58.856358 462.182692 58.856358 464.352564 58.856358 466.522436 54.411583 468.692308 55.831361 470.862179 77.790598 473.032051 77.790598 475.201923 81.110018 477.371795 74.753682 479.541667 86.711538 481.711538 79.829670 483.881410 79.829670 486.051282 88.770217 488.221154 113.474359 490.391026 113.474359 492.560897 113.474359 494.730769 113.474359 496.900641 128.240053 499.070513 128.240053 501.240385 128.240053 503.410256 128.240053 505.580128 95.632479 507.750000 95.632479 509.919872 95.632479 512.089744 95.632479 514.259615 98.181319 516.429487 98.181319 518.599359 98.181319 520.769231 98.181319 522.939103 134.884615 525.108974 134.884615 527.278846 134.884615 529.448718 134.884615 531.618590 113.474359 533.788462 113.474359 535.958333 113.474359 538.128205 113.474359 540.298077 6.423077 542.467949 6.423077 544.637821 6.423077 546.807692 6.423077 548.977564 6.423077 551.147436 6.423077 553.317308 6.423077 555.487179 6.423077 557.657051 6.423077 559.826923 6.423077 561.996795 6.423077 564.166667 6.423077 566.336538 6.423077 568.506410 6.423077 570.676282 6.423077 572.846154 6.423077 575.016026 6.423077 577.185897 6.423077 579.355769 6.423077 581.525641 6.423077 583.695513 6.423077 585.865385 6.423077 588.035256 6.423077 590.205128 6.423077 592.375000 6.423077 594.544872 6.423077 596.714744 6.423077 598.884615 6.423077 601.054487 6.423077 603.224359 6.423077 605.394231 6.423077 607.564103 6.423077 609.733974 6.423077 611.903846 6.423077 614.073718 6.423077 616.243590 6.423077 618.413462 6.423077 620.583333 6.423077 622.753205 6.423077 624.923077 6.423077 627.092949 6.423077 629.262821 6.423077 631.432692 6.423077 633.602564 6.423077 635.772436 6.423077 637.942308 6.423077 640.112179 6.423077 642.282051 6.423077 644.451923 6.423077 646.621795 6.423077 648.791667 6.423077 650.961538 6.423077 653.131410 6.423077 655.301282 6.423077 657.471154 6.423077 659.641026 6.423077 661.810897 6.423077 663.980769 6.423077" /></g><g class="series serie-1 color-1"><path class="line reactive nofill" d="M13.019231 6.423077 L15.189103 6.423077 17.358974 6.423077 19.528846 6.423077 21.698718 6.423077 23.868590 6.423077 26.038462 6.423077 28.208333 6.423077 30.378205 6.423077 32.548077 6.423077 34.717949 6.423077 36.887821 6.423077 39.057692 6.423077 41.227564 6.423077 43.397436 6.423077 45.567308 6.423077 47.737179 6.423077 49.907051 6.423077 52.076923 6.423077 54.246795 6.423077 56.416667 6.423077 58.586538 6.423077 60.756410 6.423077 62.926282 6.423077 65.096154 6.423077 67.266026 6.423077 69.435897 6.423077 71.605769 6.423077 73.775641 6.423077 75.945513 6.423077 78.115385 6.423077 80.285256 6.423077 82.455128 6.423077 84.625000 6.423077 86.794872 6.423077 88.964744 6.423077 91.134615 6.423077 93.304487 6.423077 95.474359 327.576923 97.644231 327.576923 99.814103 327.576923 101.983974 327.576923 104.153846 113.474359 106.323718 161.052707 108.493590 161.462865 110.663462 118.453488 112.833333 111.719420 115.003205 111.945055 117.173077 109.013889 119.342949 107.608535 121.512821 106.091512 123.682692 112.669462 125.852564 106.920199 128.022436 95.738052 130.192308 92.293089 132.362179 74.034413 134.532051 69.698742 136.701923 115.508588 138.871795 108.670776 141.041667 103.742424 143.211538 97.050053 145.381410 97.423468 147.551282 93.221414 149.721154 106.581721 151.891026 117.809182 154.060897 106.494518 156.230769 107.592420 158.400641 129.421965 160.570513 118.601634 162.740385 113.768052 164.910256 125.469611 167.080128 122.943353 169.250000 119.030311 171.419872 115.275931 173.589744 117.149134 175.759615 112.395567 177.929487 109.852868 180.099359 109.900026 182.269231 103.833432 184.439103 102.878401 186.608974 94.522438 188.778846 94.197895 190.948718 92.370012 193.118590 90.402531 195.288462 88.400019 197.458333 83.075112 199.628205 88.786846 201.798077 88.414335 203.967949 80.237373 206.137821 80.793662 208.307692 77.485687 210.477564 68.348808 212.647436 67.070155 214.817308 67.399392 216.987179 67.028985 219.157051 60.738648 221.326923 61.456259 223.496795 61.958432 225.666667 59.550667 227.836538 59.539104 230.006410 57.868892 232.176282 58.855233 234.346154 58.174538 236.516026 57.919220 238.685897 58.491194 240.855769 55.700651 243.025641 56.871631 245.195513 43.896787 247.365385 43.086011 249.535256 44.149188 251.705128 51.216966 253.875000 62.306917 256.044872 61.561769 258.214744 62.261886 260.384615 61.154330 262.554487 59.905739 264.724359 60.127905 266.894231 59.810898 269.064103 58.031822 271.233974 57.211134 273.403846 55.386339 275.573718 56.741654 277.743590 56.627549 279.913462 56.438037 282.083333 55.928050 284.253205 56.086043 286.423077 56.371787 288.592949 56.614172 290.762821 58.547523 292.932692 58.945934 295.102564 58.674298 297.272436 54.520547 299.442308 43.375532 301.612179 51.305936 303.782051 53.712817 305.951923 54.364567 308.121795 61.701652 310.291667 62.689584 312.461538 63.396788 314.631410 65.983528 316.801282 65.436790 318.971154 73.163881 321.141026 73.823031 323.310897 75.638562 325.480769 76.309873 327.650641 77.935728 329.820513 79.807548 331.990385 81.904115 334.160256 82.984105 336.330128 82.242884 338.500000 85.427483 340.669872 91.693362 342.839744 92.949895 345.009615 95.471294 347.179487 87.508367 349.349359 85.425780 351.519231 88.256963 353.689103 81.877976 355.858974 81.110018 358.028846 80.911231 360.198718 87.026395 362.368590 95.209034 364.538462 87.059108 366.708333 88.088596 368.878205 88.005520 371.048077 89.902654 373.217949 89.230151 375.387821 92.345816 377.557692 92.332322 379.727564 91.802403 381.897436 91.345974 384.067308 84.648942 386.237179 85.161568 388.407051 84.763840 390.576923 85.188451 392.746795 86.142117 394.916667 85.023793 397.086538 85.412372 399.256410 79.729933 401.426282 82.837386 403.596154 84.001981 405.766026 77.649276 407.935897 75.332071 410.105769 78.647632 412.275641 78.647632 414.445513 80.598204 416.615385 81.988688 418.785256 84.218108 420.955128 72.583526 423.125000 72.583526 425.294872 70.412377 427.464744 70.412377 429.634615 71.964678 431.804487 71.964678 433.974359 70.144078 436.144231 66.233105 438.314103 66.233105 440.483974 76.239130 442.653846 73.880049 444.823718 68.101630 446.993590 68.101630 449.163462 68.929530 451.333333 51.339699 453.503205 50.810194 455.673077 55.169643 457.842949 55.169643 460.012821 62.133438 462.182692 62.133438 464.352564 62.133438 466.522436 50.720159 468.692308 48.773035 470.862179 56.380342 473.032051 56.380342 475.201923 58.703936 477.371795 54.254501 479.541667 62.625000 481.711538 61.478022 483.881410 61.478022 486.051282 80.535503 488.221154 101.579772 490.391026 101.579772 492.560897 101.579772 494.730769 113.474359 496.900641 128.240053 499.070513 128.240053 501.240385 128.240053 503.410256 128.240053 505.580128 113.474359 507.750000 113.474359 509.919872 113.474359 512.089744 113.474359 514.259615 144.060440 516.429487 144.060440 518.599359 144.060440 520.769231 144.060440 522.939103 199.115385 525.108974 199.115385 527.278846 199.115385 529.448718 199.115385 531.618590 167.000000 533.788462 167.000000 535.958333 167.000000 538.128205 167.000000 540.298077 6.423077 542.467949 6.423077 544.637821 6.423077 546.807692 6.423077 548.977564 6.423077 551.147436 6.423077 553.317308 6.423077 555.487179 6.423077 557.657051 6.423077 559.826923 6.423077 561.996795 6.423077 564.166667 6.423077 566.336538 6.423077 568.506410 6.423077 570.676282 6.423077 572.846154 6.423077 575.016026 6.423077 577.185897 6.423077 579.355769 6.423077 581.525641 6.423077 583.695513 6.423077 585.865385 6.423077 588.035256 6.423077 590.205128 6.423077 592.375000 6.423077 594.544872 6.423077 596.714744 6.423077 598.884615 6.423077 601.054487 6.423077 603.224359 6.423077 605.394231 6.423077 607.564103 6.423077 609.733974 6.423077 611.903846 6.423077 614.073718 6.423077 616.243590 6.423077 618.413462 6.423077 620.583333 6.423077 622.753205 6.423077 624.923077 6.423077 627.092949 6.423077 629.262821 6.423077 631.432692 6.423077 633.602564 6.423077 635.772436 6.423077 637.942308 6.423077 640.112179 6.423077 642.282051 6.423077 644.451923 6.423077 646.621795 6.423077 648.791667 6.423077 650.961538 6.423077 653.131410 6.423077 655.301282 6.423077 657.471154 6.423077 659.641026 6.423077 661.810897 6.423077 663.980769 6.423077" /></g><g class="series serie-2 color-2"><path class="line reactive nofill" d="M13.019231 6.423077 L15.189103 6.423077 17.358974 6.423077 19.528846 6.423077 21.698718 6.423077 23.868590 6.423077 26.038462 6.423077 28.208333 6.423077 30.378205 6.423077 32.548077 6.423077 34.717949 6.423077 36.887821 6.423077 39.057692 6.423077 41.227564 6.423077 43.397436 6.423077 45.567308 6.423077 47.737179 6.423077 49.907051 6.423077 52.076923 6.423077 54.246795 6.423077 56.416667 6.423077 58.586538 6.423077 60.756410 6.423077 62.926282 6.423077 65.096154 6.423077 67.266026 6.423077 69.435897 6.423077 71.605769 6.423077 73.775641 6.423077 75.945513 6.423077 78.115385 6.423077 80.285256 6.423077 82.455128 6.423077 84.625000 6.423077 86.794872 6.423077 88.964744 6.423077 91.134615 6.423077 93.304487 6.423077 95.474359 327.576923 97.644231 327.576923 99.814103 327.576923 101.983974 327.576923 104.153846 113.474359 106.323718 137.263533 108.493590 139.314324 110.663462 110.984794 112.833333 106.454603 115.003205 107.357143 117.173077 109.013889 119.342949 107.608535 121.512821 97.785809 123.682692 93.351938 125.852564 87.257718 128.022436 84.336140 130.192308 80.271288 132.362179 67.533323 134.532051 62.535459 136.701923 94.912023 138.871795 86.025312 141.041667 81.683372 143.211538 73.293467 145.381410 74.571352 147.551282 72.842674 149.721154 81.703606 151.891026 94.910008 154.060897 84.337581 156.230769 84.064666 158.400641 102.822786 160.570513 92.033028 162.740385 87.776177 164.910256 97.855164 167.080128 95.156160 169.250000 92.341900 171.419872 88.916093 173.589744 90.352784 175.759615 85.526122 177.929487 82.981402 180.099359 82.958489 182.269231 77.652767 184.439103 76.805923 186.608974 70.859610 188.778846 70.219854 190.948718 67.983150 193.118590 66.279708 195.288462 64.712353 197.458333 59.534038 199.628205 66.736703 201.798077 66.781323 203.967949 59.713828 206.137821 60.478232 208.307692 58.440088 210.477564 50.795058 212.647436 50.129879 214.817308 50.098927 216.987179 50.628699 219.157051 45.524600 221.326923 47.317111 223.496795 48.218716 225.666667 46.049436 227.836538 46.498342 230.006410 45.581183 232.176282 46.560416 234.346154 46.219295 236.516026 46.823366 238.685897 47.617300 240.855769 45.681073 243.025641 47.522773 245.195513 34.839488 247.365385 33.869824 249.535256 36.025682 251.705128 42.467750 253.875000 52.325701 256.044872 52.049377 258.214744 52.525061 260.384615 52.005860 262.554487 50.880218 264.724359 50.912586 266.894231 50.094625 269.064103 49.135457 271.233974 49.099153 273.403846 47.343382 275.573718 48.636982 277.743590 48.501969 279.913462 48.551251 282.083333 47.902830 284.253205 48.024808 286.423077 48.431963 288.592949 48.117254 290.762821 49.467781 292.932692 49.871563 295.102564 45.383918 297.272436 40.795030 299.442308 30.326108 301.612179 37.715907 303.782051 40.745316 305.951923 41.131031 308.121795 43.601588 310.291667 44.165112 312.461538 44.190718 314.631410 44.438908 316.801282 43.552256 318.971154 49.586966 321.141026 49.652517 323.310897 50.114414 325.480769 50.741533 327.650641 52.138927 329.820513 52.535711 331.990385 53.508867 334.160256 54.536698 336.330128 53.270289 338.500000 54.236618 340.669872 64.351260 342.839744 63.567505 345.009615 65.342198 347.179487 54.615278 349.349359 47.281618 351.519231 48.517486 353.689103 44.407176 355.858974 44.615263 358.028846 44.452158 360.198718 44.925555 362.368590 49.271056 364.538462 37.704296 366.708333 38.514513 368.878205 36.739211 371.048077 37.057784 373.217949 37.629304 375.387821 37.646368 377.557692 37.899467 379.727564 36.354910 381.897436 34.981219 384.067308 28.729671 386.237179 28.742649 388.407051 22.870309 390.576923 21.653950 392.746795 22.366885 394.916667 22.336105 397.086538 21.493403 399.256410 24.874462 401.426282 24.591514 403.596154 25.817803 405.766026 26.773420 407.935897 28.549818 410.105769 30.264192 412.275641 30.264192 414.445513 31.691527 416.615385 33.042781 418.785256 30.360010 420.955128 32.611588 423.125000 32.611588 425.294872 34.192019 427.464744 34.192019 429.634615 33.950549 431.804487 33.950549 433.974359 33.185897 436.144231 33.727655 438.314103 33.727655 440.483974 39.003902 442.653846 38.685107 444.823718 36.198930 446.993590 36.198930 449.163462 36.598606 451.333333 37.864712 453.503205 32.533146 455.673077 35.097527 457.842949 35.097527 460.012821 52.302198 462.182692 52.302198 464.352564 52.302198 466.522436 47.028736 468.692308 45.243872 470.862179 56.380342 473.032051 56.380342 475.201923 58.703936 477.371795 54.254501 479.541667 62.625000 481.711538 61.478022 483.881410 61.478022 486.051282 64.066075 488.221154 77.790598 490.391026 77.790598 492.560897 77.790598 494.730769 84.278555 496.900641 95.017241 499.070513 95.017241 501.240385 95.017241 503.410256 95.017241 505.580128 59.948718 507.750000 59.948718 509.919872 59.948718 512.089744 59.948718 514.259615 75.241758 516.429487 75.241758 518.599359 75.241758 520.769231 75.241758 522.939103 102.769231 525.108974 102.769231 527.278846 102.769231 529.448718 102.769231 531.618590 113.474359 533.788462 113.474359 535.958333 113.474359 538.128205 113.474359 540.298077 6.423077 542.467949 6.423077 544.637821 6.423077 546.807692 6.423077 548.977564 6.423077 551.147436 6.423077 553.317308 6.423077 555.487179 6.423077 557.657051 6.423077 559.826923 6.423077 561.996795 6.423077 564.166667 6.423077 566.336538 6.423077 568.506410 6.423077 570.676282 6.423077 572.846154 6.423077 575.016026 6.423077 577.185897 6.423077 579.355769 6.423077 581.525641 6.423077 583.695513 6.423077 585.865385 6.423077 588.035256 6.423077 590.205128 6.423077 592.375000 6.423077 594.544872 6.423077 596.714744 6.423077 598.884615 6.423077 601.054487 6.423077 603.224359 6.423077 605.394231 6.423077 607.564103 6.423077 609.733974 6.423077 611.903846 6.423077 614.073718 6.423077 616.243590 6.423077 618.413462 6.423077 620.583333 6.423077 622.753205 6.423077 624.923077 6.423077 627.092949 6.423077 629.262821 6.423077 631.432692 6.423077 633.602564 6.423077 635.772436 6.423077 637.942308 6.423077 640.112179 6.423077 642.282051 6.423077 644.451923 6.423077 646.621795 6.423077 648.791667 6.423077 650.961538 6.423077 653.131410 6.423077 655.301282 6.423077 657.471154 6.423077 659.641026 6.423077 661.810897 6.423077 663.980769 6.423077" /></g><g class="series serie-3 color-3"><path class="line reactive nofill" d="M13.019231 6.423077 L15.189103 6.423077 17.358974 6.423077 19.528846 6.423077 21.698718 6.423077 23.868590 6.423077 26.038462 6.423077 28.208333 6.423077 30.378205 6.423077 32.548077 6.423077 34.717949 6.423077 36.887821 6.423077 39.057692 6.423077 41.227564 6.423077 43.397436 6.423077 45.567308 6.423077 47.737179 6.423077 49.907051 6.423077 52.076923 6.423077 54.246795 6.423077 56.416667 6.423077 58.586538 6.423077 60.756410 6.423077 62.926282 6.423077 65.096154 6.423077 67.266026 6.423077 69.435897 6.423077 71.605769 6.423077 73.775641 6.423077 75.945513 6.423077 78.115385 6.423077 80.285256 6.423077 82.455128 6.423077 84.625000 6.423077 86.794872 6.423077 88.964744 6.423077 91.134615 6.423077 93.304487 6.423077 95.474359 327.576923 97.644231 327.576923 99.814103 327.576923 101.983974 327.576923 104.153846 220.525641 106.323718 149.158120 108.493590 150.388594 110.663462 103.516100 112.833333 101.189786 115.003205 98.181319 117.173077 95.632479 119.342949 94.410432 121.512821 86.711538 123.682692 81.278485 125.852564 76.334118 128.022436 74.834547 130.192308 76.836487 132.362179 61.032233 134.532051 56.566057 136.701923 84.232322 138.871795 79.163051 141.041667 74.546620 143.211538 70.653846 145.381410 72.122911 147.551282 70.578369 149.721154 80.734329 151.891026 92.931067 154.060897 82.389718 156.230769 83.123556 158.400641 100.859088 160.570513 90.013193 162.740385 85.867170 164.910256 97.855164 167.080128 95.879246 169.250000 92.738754 171.419872 89.010913 173.589744 89.467619 175.759615 84.622947 177.929487 82.401964 180.099359 82.556376 182.269231 78.044498 184.439103 76.677488 186.608974 71.401093 188.778846 70.816593 190.948718 68.189381 193.118590 66.429850 195.288462 63.929290 197.458333 59.294799 199.628205 67.212294 201.798077 66.866998 203.967949 59.934037 206.137821 60.522979 208.307692 58.194338 210.477564 49.731194 212.647436 48.840462 214.817308 48.891918 216.987179 49.169914 219.157051 44.529289 221.326923 46.031734 223.496795 46.921610 225.666667 44.635949 227.836538 44.943482 230.006410 44.003384 232.176282 43.913998 234.346154 42.725526 236.516026 43.067846 238.685897 43.532398 240.855769 42.165432 243.025641 42.877743 245.195513 28.202078 247.365385 27.142680 249.535256 28.728296 251.705128 36.076107 253.875000 44.318792 256.044872 44.085514 258.214744 44.671048 260.384615 44.346676 262.554487 43.608226 264.724359 43.540332 266.894231 42.859102 269.064103 41.615326 271.233974 41.339866 273.403846 39.676705 275.573718 40.731198 277.743590 40.956789 279.913462 41.889121 282.083333 41.618019 284.253205 41.882914 286.423077 42.272585 288.592949 42.485576 290.762821 43.895029 292.932692 44.791887 295.102564 41.378598 297.272436 37.189173 299.442308 28.318504 301.612179 36.881432 303.782051 39.615121 305.951923 40.108440 308.121795 42.928950 310.291667 43.661045 312.461538 43.417319 314.631410 44.299910 316.801282 43.416748 318.971154 50.094777 321.141026 50.236698 323.310897 50.339627 325.480769 50.044215 327.650641 51.649114 329.820513 52.277618 331.990385 53.598726 334.160256 53.896403 336.330128 52.877441 338.500000 53.396146 340.669872 62.729271 342.839744 60.866918 345.009615 62.775645 347.179487 49.770559 349.349359 43.424343 351.519231 44.543538 353.689103 41.156285 355.858974 41.899374 358.028846 42.358814 360.198718 44.205882 362.368590 49.065056 364.538462 39.094572 366.708333 40.190931 368.878205 40.189828 371.048077 41.652990 373.217949 43.772262 375.387821 44.689215 377.557692 44.999405 379.727564 45.187254 381.897436 44.250090 384.067308 40.952463 386.237179 41.142412 388.407051 43.645760 390.576923 42.542005 392.746795 44.232679 394.916667 44.035690 397.086538 43.839059 399.256410 42.328476 401.426282 41.691220 403.596154 44.071663 405.766026 45.215918 407.935897 46.251211 410.105769 44.288378 412.275641 44.288378 414.445513 47.993752 416.615385 48.499383 418.785256 41.331104 420.955128 42.259987 423.125000 42.259987 425.294872 43.850781 427.464744 43.850781 429.634615 44.437206 431.804487 44.437206 433.974359 44.655678 436.144231 45.429617 438.314103 45.429617 440.483974 49.864177 442.653846 50.416754 444.823718 53.213704 446.993590 53.213704 449.163462 53.841766 451.333333 51.339699 453.503205 45.588180 455.673077 49.434753 457.842949 49.434753 460.012821 65.410518 462.182692 65.410518 464.352564 65.410518 466.522436 61.794430 468.692308 59.360524 470.862179 77.790598 473.032051 77.790598 475.201923 81.110018 477.371795 81.586743 479.541667 86.711538 481.711538 89.005495 483.881410 89.005495 486.051282 88.770217 488.221154 101.579772 490.391026 101.579772 492.560897 101.579772 494.730769 103.742424 496.900641 106.091512 499.070513 106.091512 501.240385 106.091512 503.410256 106.091512 505.580128 77.790598 507.750000 77.790598 509.919872 77.790598 512.089744 77.790598 514.259615 98.181319 516.429487 98.181319 518.599359 98.181319 520.769231 98.181319 522.939103 102.769231 525.108974 102.769231 527.278846 102.769231 529.448718 102.769231 531.618590 113.474359 533.788462 113.474359 535.958333 113.474359 538.128205 113.474359 540.298077 6.423077 542.467949 6.423077 544.637821 6.423077 546.807692 6.423077 548.977564 6.423077 551.147436 6.423077 553.317308 6.423077 555.487179 6.423077 557.657051 6.423077 559.826923 6.423077 561.996795 6.423077 564.166667 6.423077 566.336538 6.423077 568.506410 6.423077 570.676282 6.423077 572.846154 6.423077 575.016026 6.423077 577.185897 6.423077 579.355769 6.423077 581.525641 6.423077 583.695513 6.423077 585.865385 6.423077 588.035256 6.423077 590.205128 6.423077 592.375000 6.423077 594.544872 6.423077 596.714744 6.423077 598.884615 6.423077 601.054487 6.423077 603.224359 6.423077 605.394231 6.423077 607.564103 6.423077 609.733974 6.423077 611.903846 6.423077 614.073718 6.423077 616.243590 6.423077 618.413462 6.423077 620.583333 6.423077 622.753205 6.423077 624.923077 6.423077 627.092949 6.423077 629.262821 6.423077 631.432692 6.423077 633.602564 6.423077 635.772436 6.423077 637.942308 6.423077 640.112179 6.423077 642.282051 6.423077 644.451923 6.423077 646.621795 6.423077 648.791667 6.423077 650.961538 6.423077 653.131410 6.423077 655.301282 6.423077 657.471154 6.423077 659.641026 6.423077 661.810897 6.423077 663.980769 6.423077" /></g><g class="series serie-4 color-4"><path class="line reactive nofill" d="M13.019231 6.423077 L15.189103 6.423077 17.358974 6.423077 19.528846 6.423077 21.698718 6.423077 23.868590 6.423077 26.038462 6.423077 28.208333 6.423077 30.378205 6.423077 32.548077 6.423077 34.717949 6.423077 36.887821 6.423077 39.057692 6.423077 41.227564 6.423077 43.397436 6.423077 45.567308 6.423077 47.737179 6.423077 49.907051 6.423077 52.076923 6.423077 54.246795 6.423077 56.416667 6.423077 58.586538 6.423077 60.756410 6.423077 62.926282 6.423077 65.096154 6.423077 67.266026 6.423077 69.435897 6.423077 71.605769 6.423077 73.775641 6.423077 75.945513 6.423077 78.115385 6.423077 80.285256 6.423077 82.455128 6.423077 84.625000 6.423077 86.794872 6.423077 88.964744 6.423077 91.134615 6.423077 93.304487 6.423077 95.474359 327.576923 97.644231 327.576923 99.814103 327.576923 101.983974 327.576923 104.153846 220.525641 106.323718 184.841880 108.493590 183.611406 110.663462 133.390877 112.833333 116.984237 115.003205 111.945055 117.173077 113.474359 119.342949 112.007903 121.512821 100.554377 123.682692 93.351938 125.852564 85.072998 128.022436 84.336140 130.192308 83.706088 132.362179 67.533323 134.532051 62.535459 136.701923 85.757994 138.871795 79.849277 141.041667 75.195416 143.211538 72.413593 145.381410 74.163278 147.551282 72.842674 149.721154 83.642161 151.891026 96.323537 154.060897 85.068029 156.230769 84.770499 158.400641 103.001304 160.570513 91.256168 162.740385 87.041944 164.910256 99.703375 167.080128 97.532016 169.250000 94.127742 171.419872 90.433206 173.589744 90.674662 175.759615 85.827180 177.929487 83.488411 180.099359 84.432901 182.269231 80.003151 184.439103 78.668243 186.608974 73.187989 188.778846 72.444062 190.948718 69.633001 193.118590 67.731081 195.288462 64.712353 197.458333 59.438342 199.628205 67.212294 201.798077 67.081186 203.967949 59.889995 206.137821 60.701970 208.307692 58.112422 210.477564 49.199262 212.647436 48.040134 214.817308 48.176653 216.987179 48.418418 219.157051 43.770956 221.326923 45.222422 223.496795 46.200995 225.666667 43.124981 227.836538 43.438779 230.006410 42.616833 232.176282 42.259987 234.346154 40.924051 236.516026 41.645301 238.685897 42.266654 240.855769 41.345115 243.025641 42.172169 245.195513 27.648961 247.365385 26.402694 249.535256 28.039863 251.705128 35.604593 253.875000 44.757527 256.044872 44.527950 258.214744 45.477967 260.384615 45.038130 262.554487 44.381842 264.724359 44.154686 266.894231 43.479290 269.064103 41.861082 271.233974 41.742946 273.403846 39.911879 275.573718 41.029529 277.743590 41.343721 279.913462 42.427970 282.083333 41.811398 284.253205 41.834931 286.423077 42.128224 288.592949 42.781980 290.762821 44.375439 292.932692 45.334377 295.102564 42.106838 297.272436 38.003399 299.442308 28.506717 301.612179 36.762221 303.782051 39.436669 305.951923 39.867830 308.121795 42.806652 310.291667 43.598037 312.461538 43.417319 314.631410 44.647404 316.801282 43.755518 318.971154 50.747676 321.141026 50.820880 323.310897 50.940195 325.480769 50.664053 327.650641 52.302198 329.820513 53.396021 331.990385 54.856743 334.160256 54.902581 336.330128 53.466714 338.500000 54.330004 340.669872 63.424409 342.839744 61.515059 345.009615 63.333592 347.179487 51.172978 349.349359 45.424411 351.519231 47.045653 353.689103 43.209479 355.858974 43.427061 358.028846 44.103267 360.198718 45.645227 362.368590 50.713056 364.538462 40.484848 366.708333 41.388373 368.878205 40.436301 371.048077 41.908279 373.217949 44.017980 375.387821 44.219692 377.557692 44.526076 379.727564 44.451225 381.897436 43.749070 384.067308 39.119044 386.237179 39.282447 388.407051 41.048829 390.576923 40.366166 392.746795 41.954992 394.916667 40.177986 397.086538 39.681728 399.256410 37.840301 401.426282 38.485025 403.596154 40.078631 405.766026 41.400228 407.935897 43.090248 410.105769 41.483540 412.275641 41.483540 414.445513 45.548419 416.615385 45.923283 418.785256 38.338987 420.955128 39.503301 423.125000 39.503301 425.294872 41.436090 427.464744 41.436090 429.634615 41.815542 431.804487 41.815542 433.974359 42.106838 436.144231 41.528963 438.314103 41.528963 440.483974 45.209773 442.653846 46.017387 444.823718 53.213704 446.993590 53.213704 449.163462 53.841766 451.333333 53.585530 453.503205 45.588180 455.673077 49.434753 457.842949 49.434753 460.012821 55.579278 462.182692 55.579278 464.352564 55.579278 466.522436 50.720159 468.692308 48.773035 470.862179 56.380342 473.032051 56.380342 475.201923 58.703936 477.371795 61.087561 479.541667 62.625000 481.711538 61.478022 483.881410 61.478022 486.051282 64.066075 488.221154 65.896011 490.391026 65.896011 492.560897 65.896011 494.730769 64.814685 496.900641 61.794430 499.070513 61.794430 501.240385 61.794430 503.410256 61.794430 505.580128 59.948718 507.750000 59.948718 509.919872 59.948718 512.089744 59.948718 514.259615 75.241758 516.429487 75.241758 518.599359 75.241758 520.769231 75.241758 522.939103 70.653846 525.108974 70.653846 527.278846 70.653846 529.448718 70.653846 531.618590 59.948718 533.788462 59.948718 535.958333 59.948718 538.128205 59.948718 540.298077 6.423077 542.467949 6.423077 544.637821 6.423077 546.807692 6.423077 548.977564 6.423077 551.147436 6.423077 553.317308 6.423077 555.487179 6.423077 557.657051 6.423077 559.826923 6.423077 561.996795 6.423077 564.166667 6.423077 566.336538 6.423077 568.506410 6.423077 570.676282 6.423077 572.846154 6.423077 575.016026 6.423077 577.185897 6.423077 579.355769 6.423077 581.525641 6.423077 583.695513 6.423077 585.865385 6.423077 588.035256 6.423077 590.205128 6.423077 592.375000 6.423077 594.544872 6.423077 596.714744 6.423077 598.884615 6.423077 601.054487 6.423077 603.224359 6.423077 605.394231 6.423077 607.564103 6.423077 609.733974 6.423077 611.903846 6.423077 614.073718 6.423077 616.243590 6.423077 618.413462 6.423077 620.583333 6.423077 622.753205 6.423077 624.923077 6.423077 627.092949 6.423077 629.262821 6.423077 631.432692 6.423077 633.602564 6.423077 635.772436 6.423077 637.942308 6.423077 640.112179 6.423077 642.282051 6.423077 644.451923 6.423077 646.621795 6.423077 648.791667 6.423077 650.961538 6.423077 653.131410 6.423077 655.301282 6.423077 657.471154 6.423077 659.641026 6.423077 661.810897 6.423077 663.980769 6.423077" /></g><g class="series serie-5 color-5"><path class="line reactive nofill" d="M13.019231 6.423077 L15.189103 6.423077 17.358974 6.423077 19.528846 6.423077 21.698718 6.423077 23.868590 6.423077 26.038462 6.423077 28.208333 6.423077 30.378205 6.423077 32.548077 6.423077 34.717949 6.423077 36.887821 6.423077 39.057692 6.423077 41.227564 6.423077 43.397436 6.423077 45.567308 6.423077 47.737179 6.423077 49.907051 6.423077 52.076923 6.423077 54.246795 6.423077 56.416667 6.423077 58.586538 6.423077 60.756410 6.423077 62.926282 6.423077 65.096154 6.423077 67.266026 6.423077 69.435897 6.423077 71.605769 6.423077 73.775641 6.423077 75.945513 6.423077 78.115385 6.423077 80.285256 6.423077 82.455128 6.423077 84.625000 6.423077 86.794872 6.423077 88.964744 6.423077 91.134615 6.423077 93.304487 6.423077 95.474359 327.576923 97.644231 327.576923 99.814103 327.576923 101.983974 327.576923 104.153846 327.576923 106.323718 184.841880 108.493590 183.611406 110.663462 125.922182 112.833333 106.454603 115.003205 102.769231 117.173077 100.092949 119.342949 98.809800 121.512821 92.248674 123.682692 86.107866 125.852564 78.518838 128.022436 74.834547 130.192308 75.119087 132.362179 61.032233 134.532051 56.566057 136.701923 81.180979 138.871795 75.731920 141.041667 71.302642 143.211538 69.773973 145.381410 71.714837 147.551282 70.578369 149.721154 81.380514 151.891026 95.475420 154.060897 84.337581 156.230769 84.535221 158.400641 103.715376 160.570513 91.877656 162.740385 87.776177 164.910256 100.464403 167.080128 98.151805 169.250000 94.723022 171.419872 91.002124 173.589744 91.398888 175.759615 86.429296 177.929487 84.067850 180.099359 84.700976 182.269231 80.264305 184.439103 78.925115 186.608974 73.187989 188.778846 72.335564 190.948718 69.529885 193.118590 67.681034 195.288462 64.663412 197.458333 59.246951 199.628205 66.952881 201.798077 66.781323 203.967949 59.405534 206.137821 60.209746 208.307692 57.702839 210.477564 48.667330 212.647436 47.506582 214.817308 47.640205 216.987179 47.843745 219.157051 43.060020 221.326923 44.460717 223.496795 45.240176 225.666667 42.247645 227.836538 42.586113 230.006410 41.756216 232.176282 41.488115 234.346154 40.268969 236.516026 40.962479 238.685897 41.461180 240.855769 40.524799 243.025641 41.348999 245.195513 26.888424 247.365385 25.729980 249.535256 27.282587 251.705128 34.766345 253.875000 43.660690 256.044872 43.421858 258.214744 44.455869 260.384615 44.133921 262.554487 43.556652 264.724359 43.386743 266.894231 42.755738 269.064103 41.320419 271.233974 41.289481 273.403846 39.488565 275.573718 40.631754 277.743590 40.956789 279.913462 41.938107 282.083333 41.327951 284.253205 41.355095 286.423077 41.647023 288.592949 42.287973 290.762821 43.654824 292.932692 44.545301 295.102564 41.378598 297.272436 37.363650 299.442308 28.004816 301.612179 36.106562 303.782051 38.782346 305.951923 39.085849 308.121795 42.011717 310.291667 42.778927 312.461538 42.643920 314.631410 43.813419 316.801282 42.942470 318.971154 49.732055 321.141026 49.798562 323.310897 49.814130 325.480769 49.656815 327.650641 51.240937 329.820513 52.363649 331.990385 53.778443 334.160256 53.804932 336.330128 52.681016 338.500000 53.676303 340.669872 62.729271 342.839744 60.974941 345.009615 62.664056 347.179487 50.790500 349.349359 44.995825 351.519231 46.604104 353.689103 42.696180 355.858974 42.917832 358.028846 43.579931 360.198718 45.105473 362.368590 50.095056 364.538462 40.253136 366.708333 41.148884 368.878205 40.436301 371.048077 41.908279 373.217949 44.017980 375.387821 44.219692 377.557692 44.526076 379.727564 44.451225 381.897436 43.749070 384.067308 38.813474 386.237179 38.972453 388.407051 40.183185 390.576923 39.930999 392.746795 41.499454 394.916667 39.695773 397.086538 39.162061 399.256410 36.842929 401.426282 37.416293 403.596154 38.937765 405.766026 40.764280 407.935897 42.458056 410.105769 40.782331 412.275641 40.782331 414.445513 44.733307 416.615385 45.064582 418.785256 37.341615 420.955128 38.124959 423.125000 38.124959 425.294872 40.228745 427.464744 40.228745 429.634615 40.504710 431.804487 40.504710 433.974359 40.832418 436.144231 40.228745 438.314103 40.228745 440.483974 43.658305 442.653846 44.550931 444.823718 53.213704 446.993590 53.213704 449.163462 53.841766 451.333333 53.585530 453.503205 45.588180 455.673077 49.434753 457.842949 49.434753 460.012821 58.856358 462.182692 58.856358 464.352564 58.856358 466.522436 54.411583 468.692308 52.302198 470.862179 63.517094 473.032051 63.517094 475.201923 66.172630 477.371795 67.920622 479.541667 70.653846 481.711538 70.653846 483.881410 70.653846 486.051282 72.300789 488.221154 77.790598 490.391026 77.790598 492.560897 77.790598 494.730769 84.278555 496.900641 83.942971 499.070513 83.942971 501.240385 83.942971 503.410256 83.942971 505.580128 77.790598 507.750000 77.790598 509.919872 77.790598 512.089744 77.790598 514.259615 98.181319 516.429487 98.181319 518.599359 98.181319 520.769231 98.181319 522.939103 102.769231 525.108974 102.769231 527.278846 102.769231 529.448718 102.769231 531.618590 113.474359 533.788462 113.474359 535.958333 113.474359 538.128205 113.474359 540.298077 6.423077 542.467949 6.423077 544.637821 6.423077 546.807692 6.423077 548.977564 6.423077 551.147436 6.423077 553.317308 6.423077 555.487179 6.423077 557.657051 6.423077 559.826923 6.423077 561.996795 6.423077 564.166667 6.423077 566.336538 6.423077 568.506410 6.423077 570.676282 6.423077 572.846154 6.423077 575.016026 6.423077 577.185897 6.423077 579.355769 6.423077 581.525641 6.423077 583.695513 6.423077 585.865385 6.423077 588.035256 6.423077 590.205128 6.423077 592.375000 6.423077 594.544872 6.423077 596.714744 6.423077 598.884615 6.423077 601.054487 6.423077 603.224359 6.423077 605.394231 6.423077 607.564103 6.423077 609.733974 6.423077 611.903846 6.423077 614.073718 6.423077 616.243590 6.423077 618.413462 6.423077 620.583333 6.423077 622.753205 6.423077 624.923077 6.423077 627.092949 6.423077 629.262821 6.423077 631.432692 6.423077 633.602564 6.423077 635.772436 6.423077 637.942308 6.423077 640.112179 6.423077 642.282051 6.423077 644.451923 6.423077 646.621795 6.423077 648.791667 6.423077 650.961538 6.423077 653.131410 6.423077 655.301282 6.423077 657.471154 6.423077 659.641026 6.423077 661.810897 6.423077 663.980769 6.423077" /></g></g><g class="titles"><text class="title plot_title" x="400.0" y="28">Mean Accuracy2 for Tempo T ±10.0 BPM</text><text class="title" x="441.5" y="465.0">T (BPM)</text><text class="title" transform="rotate(-90 0.000000 215.000000)" x="0" y="243.0">Mean Accuracy2 (%)</text></g><g class="plot overlay" transform="translate(103, 48)"><g class="series serie-0 color-0"><g class="dots"><circle class="dot reactive tooltip-trigger" cx="13.01923076923077" cy="6.423076923076906" r="2.5" /><desc class="value">100.0</desc><desc class="x ">13.01923076923077</desc><desc class="y ">6.423076923076906</desc><desc class="x_label">0.0</desc></g><g class="dots"><circle class="dot reactive tooltip-trigger" cx="78.11538461538463" cy="6.423076923076906" r="2.5" /><desc class="value">100.0</desc><desc class="x ">78.11538461538463</desc><desc class="y ">6.423076923076906</desc><desc class="x_label">30.0</desc></g><g class="dots"><circle class="dot reactive tooltip-trigger" cx="143.21153846153845" cy="68.01422550052683" r="2.5" /><desc class="value">80.8</desc><desc class="x ">143.21153846153845</desc><desc class="y ">68.01422550052683</desc><desc class="x_label">60.0</desc></g><g class="dots"><circle class="dot reactive tooltip-trigger" cx="208.30769230769232" cy="51.436222813024244" r="2.5" /><desc class="value">86.0</desc><desc class="x ">208.30769230769232</desc><desc class="y ">51.436222813024244</desc><desc class="x_label">90.0</desc></g><g class="dots"><circle class="dot reactive tooltip-trigger" cx="273.4038461538462" cy="41.93437654905142" r="2.5" /><desc class="value">88.9</desc><desc class="x ">273.4038461538462</desc><desc class="y ">41.93437654905142</desc><desc class="x_label">120.0</desc></g><g class="dots"><circle class="dot reactive tooltip-trigger" cx="338.5" cy="54.04984678014631" r="2.5" /><desc class="value">85.2</desc><desc class="x ">338.5</desc><desc class="y ">54.04984678014631</desc><desc class="x_label">150.0</desc></g><g class="dots"><circle class="dot reactive tooltip-trigger" cx="403.59615384615387" cy="18.972605547205887" r="2.5" /><desc class="value">96.1</desc><desc class="x left">403.59615384615387</desc><desc class="y left">18.972605547205887</desc><desc class="x_label">180.0</desc></g><g class="dots"><circle class="dot reactive tooltip-trigger" cx="468.6923076923077" cy="55.831360946745576" r="2.5" /><desc class="value">84.6</desc><desc class="x left">468.6923076923077</desc><desc class="y left">55.831360946745576</desc><desc class="x_label">210.0</desc></g><g class="dots"><circle class="dot reactive tooltip-trigger" cx="533.7884615384615" cy="113.474358974359" r="2.5" /><desc class="value">66.7</desc><desc class="x left">533.7884615384615</desc><desc class="y left">113.474358974359</desc><desc class="x_label">240.0</desc></g><g class="dots"><circle class="dot reactive tooltip-trigger" cx="598.8846153846154" cy="6.423076923076906" r="2.5" /><desc class="value">100.0</desc><desc class="x left">598.8846153846154</desc><desc class="y left">6.423076923076906</desc><desc class="x_label">270.0</desc></g><g class="dots"><circle class="dot reactive tooltip-trigger" cx="663.9807692307692" cy="6.423076923076906" r="2.5" /><desc class="value">100.0</desc><desc class="x left">663.9807692307692</desc><desc class="y left">6.423076923076906</desc><desc class="x_label">300.0</desc></g></g><g class="series serie-1 color-1"><g class="dots"><circle class="dot reactive tooltip-trigger" cx="13.01923076923077" cy="6.423076923076906" r="2.5" /><desc class="value">100.0</desc><desc class="x ">13.01923076923077</desc><desc class="y ">6.423076923076906</desc><desc class="x_label">0.0</desc></g><g class="dots"><circle class="dot reactive tooltip-trigger" cx="78.11538461538463" cy="6.423076923076906" r="2.5" /><desc class="value">100.0</desc><desc class="x ">78.11538461538463</desc><desc class="y ">6.423076923076906</desc><desc class="x_label">30.0</desc></g><g class="dots"><circle class="dot reactive tooltip-trigger" cx="143.21153846153845" cy="97.05005268703897" r="2.5" /><desc class="value">71.8</desc><desc class="x ">143.21153846153845</desc><desc class="y ">97.05005268703897</desc><desc class="x_label">60.0</desc></g><g class="dots"><circle class="dot reactive tooltip-trigger" cx="208.30769230769232" cy="77.4856866765424" r="2.5" /><desc class="value">77.9</desc><desc class="x ">208.30769230769232</desc><desc class="y ">77.4856866765424</desc><desc class="x_label">90.0</desc></g><g class="dots"><circle class="dot reactive tooltip-trigger" cx="273.4038461538462" cy="55.3863390563742" r="2.5" /><desc class="value">84.8</desc><desc class="x ">273.4038461538462</desc><desc class="y ">55.3863390563742</desc><desc class="x_label">120.0</desc></g><g class="dots"><circle class="dot reactive tooltip-trigger" cx="338.5" cy="85.42748339186258" r="2.5" /><desc class="value">75.4</desc><desc class="x ">338.5</desc><desc class="y ">85.42748339186258</desc><desc class="x_label">150.0</desc></g><g class="dots"><circle class="dot reactive tooltip-trigger" cx="403.59615384615387" cy="84.00198114496516" r="2.5" /><desc class="value">75.8</desc><desc class="x left">403.59615384615387</desc><desc class="y left">84.00198114496516</desc><desc class="x_label">180.0</desc></g><g class="dots"><circle class="dot reactive tooltip-trigger" cx="468.6923076923077" cy="48.773034657650044" r="2.5" /><desc class="value">86.8</desc><desc class="x left">468.6923076923077</desc><desc class="y left">48.773034657650044</desc><desc class="x_label">210.0</desc></g><g class="dots"><circle class="dot reactive tooltip-trigger" cx="533.7884615384615" cy="167.0" r="2.5" /><desc class="value">50.0</desc><desc class="x left">533.7884615384615</desc><desc class="y left">167.0</desc><desc class="x_label">240.0</desc></g><g class="dots"><circle class="dot reactive tooltip-trigger" cx="598.8846153846154" cy="6.423076923076906" r="2.5" /><desc class="value">100.0</desc><desc class="x left">598.8846153846154</desc><desc class="y left">6.423076923076906</desc><desc class="x_label">270.0</desc></g><g class="dots"><circle class="dot reactive tooltip-trigger" cx="663.9807692307692" cy="6.423076923076906" r="2.5" /><desc class="value">100.0</desc><desc class="x left">663.9807692307692</desc><desc class="y left">6.423076923076906</desc><desc class="x_label">300.0</desc></g></g><g class="series serie-2 color-2"><g class="dots"><circle class="dot reactive tooltip-trigger" cx="13.01923076923077" cy="6.423076923076906" r="2.5" /><desc class="value">100.0</desc><desc class="x ">13.01923076923077</desc><desc class="y ">6.423076923076906</desc><desc class="x_label">0.0</desc></g><g class="dots"><circle class="dot reactive tooltip-trigger" cx="78.11538461538463" cy="6.423076923076906" r="2.5" /><desc class="value">100.0</desc><desc class="x ">78.11538461538463</desc><desc class="y ">6.423076923076906</desc><desc class="x_label">30.0</desc></g><g class="dots"><circle class="dot reactive tooltip-trigger" cx="143.21153846153845" cy="73.29346680716549" r="2.5" /><desc class="value">79.2</desc><desc class="x ">143.21153846153845</desc><desc class="y ">73.29346680716549</desc><desc class="x_label">60.0</desc></g><g class="dots"><circle class="dot reactive tooltip-trigger" cx="208.30769230769232" cy="58.44008809708333" r="2.5" /><desc class="value">83.8</desc><desc class="x ">208.30769230769232</desc><desc class="y ">58.44008809708333</desc><desc class="x_label">90.0</desc></g><g class="dots"><circle class="dot reactive tooltip-trigger" cx="273.4038461538462" cy="47.343382452345566" r="2.5" /><desc class="value">87.3</desc><desc class="x ">273.4038461538462</desc><desc class="y ">47.343382452345566</desc><desc class="x_label">120.0</desc></g><g class="dots"><circle class="dot reactive tooltip-trigger" cx="338.5" cy="54.236618426644554" r="2.5" /><desc class="value">85.1</desc><desc class="x ">338.5</desc><desc class="y ">54.236618426644554</desc><desc class="x_label">150.0</desc></g><g class="dots"><circle class="dot reactive tooltip-trigger" cx="403.59615384615387" cy="25.81780297854897" r="2.5" /><desc class="value">94.0</desc><desc class="x left">403.59615384615387</desc><desc class="y left">25.81780297854897</desc><desc class="x_label">180.0</desc></g><g class="dots"><circle class="dot reactive tooltip-trigger" cx="468.6923076923077" cy="45.24387151310225" r="2.5" /><desc class="value">87.9</desc><desc class="x left">468.6923076923077</desc><desc class="y left">45.24387151310225</desc><desc class="x_label">210.0</desc></g><g class="dots"><circle class="dot reactive tooltip-trigger" cx="533.7884615384615" cy="113.474358974359" r="2.5" /><desc class="value">66.7</desc><desc class="x left">533.7884615384615</desc><desc class="y left">113.474358974359</desc><desc class="x_label">240.0</desc></g><g class="dots"><circle class="dot reactive tooltip-trigger" cx="598.8846153846154" cy="6.423076923076906" r="2.5" /><desc class="value">100.0</desc><desc class="x left">598.8846153846154</desc><desc class="y left">6.423076923076906</desc><desc class="x_label">270.0</desc></g><g class="dots"><circle class="dot reactive tooltip-trigger" cx="663.9807692307692" cy="6.423076923076906" r="2.5" /><desc class="value">100.0</desc><desc class="x left">663.9807692307692</desc><desc class="y left">6.423076923076906</desc><desc class="x_label">300.0</desc></g></g><g class="series serie-3 color-3"><g class="dots"><circle class="dot reactive tooltip-trigger" cx="13.01923076923077" cy="6.423076923076906" r="2.5" /><desc class="value">100.0</desc><desc class="x ">13.01923076923077</desc><desc class="y ">6.423076923076906</desc><desc class="x_label">0.0</desc></g><g class="dots"><circle class="dot reactive tooltip-trigger" cx="78.11538461538463" cy="6.423076923076906" r="2.5" /><desc class="value">100.0</desc><desc class="x ">78.11538461538463</desc><desc class="y ">6.423076923076906</desc><desc class="x_label">30.0</desc></g><g class="dots"><circle class="dot reactive tooltip-trigger" cx="143.21153846153845" cy="70.65384615384613" r="2.5" /><desc class="value">80.0</desc><desc class="x ">143.21153846153845</desc><desc class="y ">70.65384615384613</desc><desc class="x_label">60.0</desc></g><g class="dots"><circle class="dot reactive tooltip-trigger" cx="208.30769230769232" cy="58.194338437993565" r="2.5" /><desc class="value">83.9</desc><desc class="x ">208.30769230769232</desc><desc class="y ">58.194338437993565</desc><desc class="x_label">90.0</desc></g><g class="dots"><circle class="dot reactive tooltip-trigger" cx="273.4038461538462" cy="39.676704519850375" r="2.5" /><desc class="value">89.6</desc><desc class="x ">273.4038461538462</desc><desc class="y ">39.676704519850375</desc><desc class="x_label">120.0</desc></g><g class="dots"><circle class="dot reactive tooltip-trigger" cx="338.5" cy="53.3961460174022" r="2.5" /><desc class="value">85.4</desc><desc class="x ">338.5</desc><desc class="y ">53.3961460174022</desc><desc class="x_label">150.0</desc></g><g class="dots"><circle class="dot reactive tooltip-trigger" cx="403.59615384615387" cy="44.07166279546385" r="2.5" /><desc class="value">88.3</desc><desc class="x left">403.59615384615387</desc><desc class="y left">44.07166279546385</desc><desc class="x_label">180.0</desc></g><g class="dots"><circle class="dot reactive tooltip-trigger" cx="468.6923076923077" cy="59.360524091293314" r="2.5" /><desc class="value">83.5</desc><desc class="x left">468.6923076923077</desc><desc class="y left">59.360524091293314</desc><desc class="x_label">210.0</desc></g><g class="dots"><circle class="dot reactive tooltip-trigger" cx="533.7884615384615" cy="113.474358974359" r="2.5" /><desc class="value">66.7</desc><desc class="x left">533.7884615384615</desc><desc class="y left">113.474358974359</desc><desc class="x_label">240.0</desc></g><g class="dots"><circle class="dot reactive tooltip-trigger" cx="598.8846153846154" cy="6.423076923076906" r="2.5" /><desc class="value">100.0</desc><desc class="x left">598.8846153846154</desc><desc class="y left">6.423076923076906</desc><desc class="x_label">270.0</desc></g><g class="dots"><circle class="dot reactive tooltip-trigger" cx="663.9807692307692" cy="6.423076923076906" r="2.5" /><desc class="value">100.0</desc><desc class="x left">663.9807692307692</desc><desc class="y left">6.423076923076906</desc><desc class="x_label">300.0</desc></g></g><g class="series serie-4 color-4"><g class="dots"><circle class="dot reactive tooltip-trigger" cx="13.01923076923077" cy="6.423076923076906" r="2.5" /><desc class="value">100.0</desc><desc class="x ">13.01923076923077</desc><desc class="y ">6.423076923076906</desc><desc class="x_label">0.0</desc></g><g class="dots"><circle class="dot reactive tooltip-trigger" cx="78.11538461538463" cy="6.423076923076906" r="2.5" /><desc class="value">100.0</desc><desc class="x ">78.11538461538463</desc><desc class="y ">6.423076923076906</desc><desc class="x_label">30.0</desc></g><g class="dots"><circle class="dot reactive tooltip-trigger" cx="143.21153846153845" cy="72.41359325605902" r="2.5" /><desc class="value">79.5</desc><desc class="x ">143.21153846153845</desc><desc class="y ">72.41359325605902</desc><desc class="x_label">60.0</desc></g><g class="dots"><circle class="dot reactive tooltip-trigger" cx="208.30769230769232" cy="58.112421884963624" r="2.5" /><desc class="value">83.9</desc><desc class="x ">208.30769230769232</desc><desc class="y ">58.112421884963624</desc><desc class="x_label">90.0</desc></g><g class="dots"><circle class="dot reactive tooltip-trigger" cx="273.4038461538462" cy="39.91187868955882" r="2.5" /><desc class="value">89.6</desc><desc class="x ">273.4038461538462</desc><desc class="y ">39.91187868955882</desc><desc class="x_label">120.0</desc></g><g class="dots"><circle class="dot reactive tooltip-trigger" cx="338.5" cy="54.330004249893705" r="2.5" /><desc class="value">85.1</desc><desc class="x ">338.5</desc><desc class="y ">54.330004249893705</desc><desc class="x_label">150.0</desc></g><g class="dots"><circle class="dot reactive tooltip-trigger" cx="403.59615384615387" cy="40.07863096051375" r="2.5" /><desc class="value">89.5</desc><desc class="x left">403.59615384615387</desc><desc class="y left">40.07863096051375</desc><desc class="x_label">180.0</desc></g><g class="dots"><circle class="dot reactive tooltip-trigger" cx="468.6923076923077" cy="48.773034657650044" r="2.5" /><desc class="value">86.8</desc><desc class="x left">468.6923076923077</desc><desc class="y left">48.773034657650044</desc><desc class="x_label">210.0</desc></g><g class="dots"><circle class="dot reactive tooltip-trigger" cx="533.7884615384615" cy="59.9487179487179" r="2.5" /><desc class="value">83.3</desc><desc class="x left">533.7884615384615</desc><desc class="y left">59.9487179487179</desc><desc class="x_label">240.0</desc></g><g class="dots"><circle class="dot reactive tooltip-trigger" cx="598.8846153846154" cy="6.423076923076906" r="2.5" /><desc class="value">100.0</desc><desc class="x left">598.8846153846154</desc><desc class="y left">6.423076923076906</desc><desc class="x_label">270.0</desc></g><g class="dots"><circle class="dot reactive tooltip-trigger" cx="663.9807692307692" cy="6.423076923076906" r="2.5" /><desc class="value">100.0</desc><desc class="x left">663.9807692307692</desc><desc class="y left">6.423076923076906</desc><desc class="x_label">300.0</desc></g></g><g class="series serie-5 color-5"><g class="dots"><circle class="dot reactive tooltip-trigger" cx="13.01923076923077" cy="6.423076923076906" r="2.5" /><desc class="value">100.0</desc><desc class="x ">13.01923076923077</desc><desc class="y ">6.423076923076906</desc><desc class="x_label">0.0</desc></g><g class="dots"><circle class="dot reactive tooltip-trigger" cx="78.11538461538463" cy="6.423076923076906" r="2.5" /><desc class="value">100.0</desc><desc class="x ">78.11538461538463</desc><desc class="y ">6.423076923076906</desc><desc class="x_label">30.0</desc></g><g class="dots"><circle class="dot reactive tooltip-trigger" cx="143.21153846153845" cy="69.77397260273972" r="2.5" /><desc class="value">80.3</desc><desc class="x ">143.21153846153845</desc><desc class="y ">69.77397260273972</desc><desc class="x_label">60.0</desc></g><g class="dots"><circle class="dot reactive tooltip-trigger" cx="208.30769230769232" cy="57.70283911981403" r="2.5" /><desc class="value">84.0</desc><desc class="x ">208.30769230769232</desc><desc class="y ">57.70283911981403</desc><desc class="x_label">90.0</desc></g><g class="dots"><circle class="dot reactive tooltip-trigger" cx="273.4038461538462" cy="39.4885651840836" r="2.5" /><desc class="value">89.7</desc><desc class="x ">273.4038461538462</desc><desc class="y ">39.4885651840836</desc><desc class="x_label">120.0</desc></g><g class="dots"><circle class="dot reactive tooltip-trigger" cx="338.5" cy="53.67630348714965" r="2.5" /><desc class="value">85.3</desc><desc class="x ">338.5</desc><desc class="y ">53.67630348714965</desc><desc class="x_label">150.0</desc></g><g class="dots"><circle class="dot reactive tooltip-trigger" cx="403.59615384615387" cy="38.93776472195657" r="2.5" /><desc class="value">89.9</desc><desc class="x left">403.59615384615387</desc><desc class="y left">38.93776472195657</desc><desc class="x_label">180.0</desc></g><g class="dots"><circle class="dot reactive tooltip-trigger" cx="468.6923076923077" cy="52.30219780219784" r="2.5" /><desc class="value">85.7</desc><desc class="x left">468.6923076923077</desc><desc class="y left">52.30219780219784</desc><desc class="x_label">210.0</desc></g><g class="dots"><circle class="dot reactive tooltip-trigger" cx="533.7884615384615" cy="113.474358974359" r="2.5" /><desc class="value">66.7</desc><desc class="x left">533.7884615384615</desc><desc class="y left">113.474358974359</desc><desc class="x_label">240.0</desc></g><g class="dots"><circle class="dot reactive tooltip-trigger" cx="598.8846153846154" cy="6.423076923076906" r="2.5" /><desc class="value">100.0</desc><desc class="x left">598.8846153846154</desc><desc class="y left">6.423076923076906</desc><desc class="x_label">270.0</desc></g><g class="dots"><circle class="dot reactive tooltip-trigger" cx="663.9807692307692" cy="6.423076923076906" r="2.5" /><desc class="value">100.0</desc><desc class="x left">663.9807692307692</desc><desc class="y left">6.423076923076906</desc><desc class="x_label">300.0</desc></g></g></g><g class="plot text-overlay" transform="translate(103, 48)"><g class="series serie-0 color-0" /><g class="series serie-1 color-1" /><g class="series serie-2 color-2" /><g class="series serie-3 color-3" /><g class="series serie-4 color-4" /><g class="series serie-5 color-5" /></g><g class="plot tooltip-overlay" transform="translate(103, 48)"><g class="tooltip" style="opacity: 0" transform="translate(0 0)"><rect class="tooltip-box" height="0" rx="0" ry="0" width="0" /><g class="text" /></g></g><g class="legends" transform="translate(113, 485)"><g class="legend reactive activate-serie" id="activate-serie-0"><rect class="color-0 reactive" height="12" width="12" x="0.0" y="1.5" /><text x="17.0" y="12.0">boeck2015/tempodetector2016_default</text></g><g class="legend reactive activate-serie" id="activate-serie-1"><rect class="color-1 reactive" height="12" width="12" x="338.5" y="1.5" /><text x="355.5" y="12.0">davies2009/mirex_qm_tempotracker</text></g><g class="legend reactive activate-serie" id="activate-serie-2"><rect class="color-2 reactive" height="12" width="12" x="0.0" y="24.0" /><text x="17.0" y="34.5">percival2014/stem</text></g><g class="legend reactive activate-serie" id="activate-serie-3"><rect class="color-3 reactive" height="12" width="12" x="338.5" y="24.0" /><text x="355.5" y="34.5">schreiber2014/default</text></g><g class="legend reactive activate-serie" id="activate-serie-4"><rect class="color-4 reactive" height="12" width="12" x="0.0" y="46.5" /><text x="17.0" y="57.0">schreiber2017/ismir2017</text></g><g class="legend reactive activate-serie" id="activate-serie-5"><rect class="color-5 reactive" height="12" width="12" x="338.5" y="46.5" /><text x="355.5" y="57.0">schreiber2017/mirex2017</text></g></g></g></svg>