<?xml version="1.0" encoding="utf-8" standalone="no"?>
<!DOCTYPE svg PUBLIC "-//W3C//DTD SVG 1.1//EN"
  "http://www.w3.org/Graphics/SVG/1.1/DTD/svg11.dtd">
<!-- Created with matplotlib (http://matplotlib.org/) -->
<svg height="370.338375pt" version="1.1" viewBox="0 0 630.909375 370.338375" width="630.909375pt" xmlns="http://www.w3.org/2000/svg" xmlns:xlink="http://www.w3.org/1999/xlink">
 <defs>
  <style type="text/css">
*{stroke-linecap:butt;stroke-linejoin:round;}
  </style>
 </defs>
 <g id="figure_1">
  <g id="patch_1">
   <path d="M -0 370.338375 
L 630.909375 370.338375 
L 630.909375 0 
L -0 0 
z
" style="fill:#ffffff;"/>
  </g>
  <g id="axes_1">
   <g id="patch_2">
    <path d="M 226.746875 332.782125 
L 617.346875 332.782125 
L 617.346875 22.318125 
L 226.746875 22.318125 
z
" style="fill:#ffffff;"/>
   </g>
   <g id="matplotlib.axis_1">
    <g id="xtick_1">
     <g id="line2d_1">
      <path clip-path="url(#p2276a9a37f)" d="M 256.793029 332.782125 
L 256.793029 22.318125 
" style="fill:none;stroke:#b0b0b0;stroke-linecap:square;stroke-width:0.8;"/>
     </g>
     <g id="line2d_2">
      <defs>
       <path d="M 0 0 
L 0 3.5 
" id="m12f292e7cb" style="stroke:#000000;stroke-width:0.8;"/>
      </defs>
      <g>
       <use style="stroke:#000000;stroke-width:0.8;" x="256.793029" xlink:href="#m12f292e7cb" y="332.782125"/>
      </g>
     </g>
     <g id="text_1">
      <!-- −2 -->
      <defs>
       <path d="M 10.59375 35.5 
L 73.1875 35.5 
L 73.1875 27.203125 
L 10.59375 27.203125 
z
" id="DejaVuSans-2212"/>
       <path d="M 19.1875 8.296875 
L 53.609375 8.296875 
L 53.609375 0 
L 7.328125 0 
L 7.328125 8.296875 
Q 12.9375 14.109375 22.625 23.890625 
Q 32.328125 33.6875 34.8125 36.53125 
Q 39.546875 41.84375 41.421875 45.53125 
Q 43.3125 49.21875 43.3125 52.78125 
Q 43.3125 58.59375 39.234375 62.25 
Q 35.15625 65.921875 28.609375 65.921875 
Q 23.96875 65.921875 18.8125 64.3125 
Q 13.671875 62.703125 7.8125 59.421875 
L 7.8125 69.390625 
Q 13.765625 71.78125 18.9375 73 
Q 24.125 74.21875 28.421875 74.21875 
Q 39.75 74.21875 46.484375 68.546875 
Q 53.21875 62.890625 53.21875 53.421875 
Q 53.21875 48.921875 51.53125 44.890625 
Q 49.859375 40.875 45.40625 35.40625 
Q 44.1875 33.984375 37.640625 27.21875 
Q 31.109375 20.453125 19.1875 8.296875 
z
" id="DejaVuSans-32"/>
      </defs>
      <g transform="translate(249.421935 347.380562)scale(0.1 -0.1)">
       <use xlink:href="#DejaVuSans-2212"/>
       <use x="83.789062" xlink:href="#DejaVuSans-32"/>
      </g>
     </g>
    </g>
    <g id="xtick_2">
     <g id="line2d_3">
      <path clip-path="url(#p2276a9a37f)" d="M 316.885337 332.782125 
L 316.885337 22.318125 
" style="fill:none;stroke:#b0b0b0;stroke-linecap:square;stroke-width:0.8;"/>
     </g>
     <g id="line2d_4">
      <g>
       <use style="stroke:#000000;stroke-width:0.8;" x="316.885337" xlink:href="#m12f292e7cb" y="332.782125"/>
      </g>
     </g>
     <g id="text_2">
      <!-- 0 -->
      <defs>
       <path d="M 31.78125 66.40625 
Q 24.171875 66.40625 20.328125 58.90625 
Q 16.5 51.421875 16.5 36.375 
Q 16.5 21.390625 20.328125 13.890625 
Q 24.171875 6.390625 31.78125 6.390625 
Q 39.453125 6.390625 43.28125 13.890625 
Q 47.125 21.390625 47.125 36.375 
Q 47.125 51.421875 43.28125 58.90625 
Q 39.453125 66.40625 31.78125 66.40625 
z
M 31.78125 74.21875 
Q 44.046875 74.21875 50.515625 64.515625 
Q 56.984375 54.828125 56.984375 36.375 
Q 56.984375 17.96875 50.515625 8.265625 
Q 44.046875 -1.421875 31.78125 -1.421875 
Q 19.53125 -1.421875 13.0625 8.265625 
Q 6.59375 17.96875 6.59375 36.375 
Q 6.59375 54.828125 13.0625 64.515625 
Q 19.53125 74.21875 31.78125 74.21875 
z
" id="DejaVuSans-30"/>
      </defs>
      <g transform="translate(313.704087 347.380562)scale(0.1 -0.1)">
       <use xlink:href="#DejaVuSans-30"/>
      </g>
     </g>
    </g>
    <g id="xtick_3">
     <g id="line2d_5">
      <path clip-path="url(#p2276a9a37f)" d="M 376.977644 332.782125 
L 376.977644 22.318125 
" style="fill:none;stroke:#b0b0b0;stroke-linecap:square;stroke-width:0.8;"/>
     </g>
     <g id="line2d_6">
      <g>
       <use style="stroke:#000000;stroke-width:0.8;" x="376.977644" xlink:href="#m12f292e7cb" y="332.782125"/>
      </g>
     </g>
     <g id="text_3">
      <!-- 2 -->
      <g transform="translate(373.796394 347.380562)scale(0.1 -0.1)">
       <use xlink:href="#DejaVuSans-32"/>
      </g>
     </g>
    </g>
    <g id="xtick_4">
     <g id="line2d_7">
      <path clip-path="url(#p2276a9a37f)" d="M 437.069952 332.782125 
L 437.069952 22.318125 
" style="fill:none;stroke:#b0b0b0;stroke-linecap:square;stroke-width:0.8;"/>
     </g>
     <g id="line2d_8">
      <g>
       <use style="stroke:#000000;stroke-width:0.8;" x="437.069952" xlink:href="#m12f292e7cb" y="332.782125"/>
      </g>
     </g>
     <g id="text_4">
      <!-- 4 -->
      <defs>
       <path d="M 37.796875 64.3125 
L 12.890625 25.390625 
L 37.796875 25.390625 
z
M 35.203125 72.90625 
L 47.609375 72.90625 
L 47.609375 25.390625 
L 58.015625 25.390625 
L 58.015625 17.1875 
L 47.609375 17.1875 
L 47.609375 0 
L 37.796875 0 
L 37.796875 17.1875 
L 4.890625 17.1875 
L 4.890625 26.703125 
z
" id="DejaVuSans-34"/>
      </defs>
      <g transform="translate(433.888702 347.380562)scale(0.1 -0.1)">
       <use xlink:href="#DejaVuSans-34"/>
      </g>
     </g>
    </g>
    <g id="xtick_5">
     <g id="line2d_9">
      <path clip-path="url(#p2276a9a37f)" d="M 497.16226 332.782125 
L 497.16226 22.318125 
" style="fill:none;stroke:#b0b0b0;stroke-linecap:square;stroke-width:0.8;"/>
     </g>
     <g id="line2d_10">
      <g>
       <use style="stroke:#000000;stroke-width:0.8;" x="497.16226" xlink:href="#m12f292e7cb" y="332.782125"/>
      </g>
     </g>
     <g id="text_5">
      <!-- 6 -->
      <defs>
       <path d="M 33.015625 40.375 
Q 26.375 40.375 22.484375 35.828125 
Q 18.609375 31.296875 18.609375 23.390625 
Q 18.609375 15.53125 22.484375 10.953125 
Q 26.375 6.390625 33.015625 6.390625 
Q 39.65625 6.390625 43.53125 10.953125 
Q 47.40625 15.53125 47.40625 23.390625 
Q 47.40625 31.296875 43.53125 35.828125 
Q 39.65625 40.375 33.015625 40.375 
z
M 52.59375 71.296875 
L 52.59375 62.3125 
Q 48.875 64.0625 45.09375 64.984375 
Q 41.3125 65.921875 37.59375 65.921875 
Q 27.828125 65.921875 22.671875 59.328125 
Q 17.53125 52.734375 16.796875 39.40625 
Q 19.671875 43.65625 24.015625 45.921875 
Q 28.375 48.1875 33.59375 48.1875 
Q 44.578125 48.1875 50.953125 41.515625 
Q 57.328125 34.859375 57.328125 23.390625 
Q 57.328125 12.15625 50.6875 5.359375 
Q 44.046875 -1.421875 33.015625 -1.421875 
Q 20.359375 -1.421875 13.671875 8.265625 
Q 6.984375 17.96875 6.984375 36.375 
Q 6.984375 53.65625 15.1875 63.9375 
Q 23.390625 74.21875 37.203125 74.21875 
Q 40.921875 74.21875 44.703125 73.484375 
Q 48.484375 72.75 52.59375 71.296875 
z
" id="DejaVuSans-36"/>
      </defs>
      <g transform="translate(493.98101 347.380562)scale(0.1 -0.1)">
       <use xlink:href="#DejaVuSans-36"/>
      </g>
     </g>
    </g>
    <g id="xtick_6">
     <g id="line2d_11">
      <path clip-path="url(#p2276a9a37f)" d="M 557.254567 332.782125 
L 557.254567 22.318125 
" style="fill:none;stroke:#b0b0b0;stroke-linecap:square;stroke-width:0.8;"/>
     </g>
     <g id="line2d_12">
      <g>
       <use style="stroke:#000000;stroke-width:0.8;" x="557.254567" xlink:href="#m12f292e7cb" y="332.782125"/>
      </g>
     </g>
     <g id="text_6">
      <!-- 8 -->
      <defs>
       <path d="M 31.78125 34.625 
Q 24.75 34.625 20.71875 30.859375 
Q 16.703125 27.09375 16.703125 20.515625 
Q 16.703125 13.921875 20.71875 10.15625 
Q 24.75 6.390625 31.78125 6.390625 
Q 38.8125 6.390625 42.859375 10.171875 
Q 46.921875 13.96875 46.921875 20.515625 
Q 46.921875 27.09375 42.890625 30.859375 
Q 38.875 34.625 31.78125 34.625 
z
M 21.921875 38.8125 
Q 15.578125 40.375 12.03125 44.71875 
Q 8.5 49.078125 8.5 55.328125 
Q 8.5 64.0625 14.71875 69.140625 
Q 20.953125 74.21875 31.78125 74.21875 
Q 42.671875 74.21875 48.875 69.140625 
Q 55.078125 64.0625 55.078125 55.328125 
Q 55.078125 49.078125 51.53125 44.71875 
Q 48 40.375 41.703125 38.8125 
Q 48.828125 37.15625 52.796875 32.3125 
Q 56.78125 27.484375 56.78125 20.515625 
Q 56.78125 9.90625 50.3125 4.234375 
Q 43.84375 -1.421875 31.78125 -1.421875 
Q 19.734375 -1.421875 13.25 4.234375 
Q 6.78125 9.90625 6.78125 20.515625 
Q 6.78125 27.484375 10.78125 32.3125 
Q 14.796875 37.15625 21.921875 38.8125 
z
M 18.3125 54.390625 
Q 18.3125 48.734375 21.84375 45.5625 
Q 25.390625 42.390625 31.78125 42.390625 
Q 38.140625 42.390625 41.71875 45.5625 
Q 45.3125 48.734375 45.3125 54.390625 
Q 45.3125 60.0625 41.71875 63.234375 
Q 38.140625 66.40625 31.78125 66.40625 
Q 25.390625 66.40625 21.84375 63.234375 
Q 18.3125 60.0625 18.3125 54.390625 
z
" id="DejaVuSans-38"/>
      </defs>
      <g transform="translate(554.073317 347.380562)scale(0.1 -0.1)">
       <use xlink:href="#DejaVuSans-38"/>
      </g>
     </g>
    </g>
    <g id="xtick_7">
     <g id="line2d_13">
      <path clip-path="url(#p2276a9a37f)" d="M 617.346875 332.782125 
L 617.346875 22.318125 
" style="fill:none;stroke:#b0b0b0;stroke-linecap:square;stroke-width:0.8;"/>
     </g>
     <g id="line2d_14">
      <g>
       <use style="stroke:#000000;stroke-width:0.8;" x="617.346875" xlink:href="#m12f292e7cb" y="332.782125"/>
      </g>
     </g>
     <g id="text_7">
      <!-- 10 -->
      <defs>
       <path d="M 12.40625 8.296875 
L 28.515625 8.296875 
L 28.515625 63.921875 
L 10.984375 60.40625 
L 10.984375 69.390625 
L 28.421875 72.90625 
L 38.28125 72.90625 
L 38.28125 8.296875 
L 54.390625 8.296875 
L 54.390625 0 
L 12.40625 0 
z
" id="DejaVuSans-31"/>
      </defs>
      <g transform="translate(610.984375 347.380562)scale(0.1 -0.1)">
       <use xlink:href="#DejaVuSans-31"/>
       <use x="63.623047" xlink:href="#DejaVuSans-30"/>
      </g>
     </g>
    </g>
    <g id="text_8">
     <!-- OE2 (TO) -->
     <defs>
      <path d="M 39.40625 66.21875 
Q 28.65625 66.21875 22.328125 58.203125 
Q 16.015625 50.203125 16.015625 36.375 
Q 16.015625 22.609375 22.328125 14.59375 
Q 28.65625 6.59375 39.40625 6.59375 
Q 50.140625 6.59375 56.421875 14.59375 
Q 62.703125 22.609375 62.703125 36.375 
Q 62.703125 50.203125 56.421875 58.203125 
Q 50.140625 66.21875 39.40625 66.21875 
z
M 39.40625 74.21875 
Q 54.734375 74.21875 63.90625 63.9375 
Q 73.09375 53.65625 73.09375 36.375 
Q 73.09375 19.140625 63.90625 8.859375 
Q 54.734375 -1.421875 39.40625 -1.421875 
Q 24.03125 -1.421875 14.8125 8.828125 
Q 5.609375 19.09375 5.609375 36.375 
Q 5.609375 53.65625 14.8125 63.9375 
Q 24.03125 74.21875 39.40625 74.21875 
z
" id="DejaVuSans-4f"/>
      <path d="M 9.8125 72.90625 
L 55.90625 72.90625 
L 55.90625 64.59375 
L 19.671875 64.59375 
L 19.671875 43.015625 
L 54.390625 43.015625 
L 54.390625 34.71875 
L 19.671875 34.71875 
L 19.671875 8.296875 
L 56.78125 8.296875 
L 56.78125 0 
L 9.8125 0 
z
" id="DejaVuSans-45"/>
      <path id="DejaVuSans-20"/>
      <path d="M 31 75.875 
Q 24.46875 64.65625 21.28125 53.65625 
Q 18.109375 42.671875 18.109375 31.390625 
Q 18.109375 20.125 21.3125 9.0625 
Q 24.515625 -2 31 -13.1875 
L 23.1875 -13.1875 
Q 15.875 -1.703125 12.234375 9.375 
Q 8.59375 20.453125 8.59375 31.390625 
Q 8.59375 42.28125 12.203125 53.3125 
Q 15.828125 64.359375 23.1875 75.875 
z
" id="DejaVuSans-28"/>
      <path d="M -0.296875 72.90625 
L 61.375 72.90625 
L 61.375 64.59375 
L 35.5 64.59375 
L 35.5 0 
L 25.59375 0 
L 25.59375 64.59375 
L -0.296875 64.59375 
z
" id="DejaVuSans-54"/>
      <path d="M 8.015625 75.875 
L 15.828125 75.875 
Q 23.140625 64.359375 26.78125 53.3125 
Q 30.421875 42.28125 30.421875 31.390625 
Q 30.421875 20.453125 26.78125 9.375 
Q 23.140625 -1.703125 15.828125 -13.1875 
L 8.015625 -13.1875 
Q 14.5 -2 17.703125 9.0625 
Q 20.90625 20.125 20.90625 31.390625 
Q 20.90625 42.671875 17.703125 53.65625 
Q 14.5 64.65625 8.015625 75.875 
z
" id="DejaVuSans-29"/>
     </defs>
     <g transform="translate(399.289844 361.058687)scale(0.1 -0.1)">
      <use xlink:href="#DejaVuSans-4f"/>
      <use x="78.710938" xlink:href="#DejaVuSans-45"/>
      <use x="141.894531" xlink:href="#DejaVuSans-32"/>
      <use x="205.517578" xlink:href="#DejaVuSans-20"/>
      <use x="237.304688" xlink:href="#DejaVuSans-28"/>
      <use x="276.318359" xlink:href="#DejaVuSans-54"/>
      <use x="337.402344" xlink:href="#DejaVuSans-4f"/>
      <use x="416.113281" xlink:href="#DejaVuSans-29"/>
     </g>
    </g>
   </g>
   <g id="matplotlib.axis_2">
    <g id="ytick_1">
     <g id="line2d_15">
      <path clip-path="url(#p2276a9a37f)" d="M 226.746875 305.841034 
L 617.346875 305.841034 
" style="fill:none;stroke:#b0b0b0;stroke-linecap:square;stroke-width:0.8;"/>
     </g>
     <g id="line2d_16">
      <defs>
       <path d="M 0 0 
L -3.5 0 
" id="m9736763116" style="stroke:#000000;stroke-width:0.8;"/>
      </defs>
      <g>
       <use style="stroke:#000000;stroke-width:0.8;" x="226.746875" xlink:href="#m9736763116" y="305.841034"/>
      </g>
     </g>
     <g id="text_9">
      <!-- schreiber2017/mirex2017 -->
      <defs>
       <path d="M 44.28125 53.078125 
L 44.28125 44.578125 
Q 40.484375 46.53125 36.375 47.5 
Q 32.28125 48.484375 27.875 48.484375 
Q 21.1875 48.484375 17.84375 46.4375 
Q 14.5 44.390625 14.5 40.28125 
Q 14.5 37.15625 16.890625 35.375 
Q 19.28125 33.59375 26.515625 31.984375 
L 29.59375 31.296875 
Q 39.15625 29.25 43.1875 25.515625 
Q 47.21875 21.78125 47.21875 15.09375 
Q 47.21875 7.46875 41.1875 3.015625 
Q 35.15625 -1.421875 24.609375 -1.421875 
Q 20.21875 -1.421875 15.453125 -0.5625 
Q 10.6875 0.296875 5.421875 2 
L 5.421875 11.28125 
Q 10.40625 8.6875 15.234375 7.390625 
Q 20.0625 6.109375 24.8125 6.109375 
Q 31.15625 6.109375 34.5625 8.28125 
Q 37.984375 10.453125 37.984375 14.40625 
Q 37.984375 18.0625 35.515625 20.015625 
Q 33.0625 21.96875 24.703125 23.78125 
L 21.578125 24.515625 
Q 13.234375 26.265625 9.515625 29.90625 
Q 5.8125 33.546875 5.8125 39.890625 
Q 5.8125 47.609375 11.28125 51.796875 
Q 16.75 56 26.8125 56 
Q 31.78125 56 36.171875 55.265625 
Q 40.578125 54.546875 44.28125 53.078125 
z
" id="DejaVuSans-73"/>
       <path d="M 48.78125 52.59375 
L 48.78125 44.1875 
Q 44.96875 46.296875 41.140625 47.34375 
Q 37.3125 48.390625 33.40625 48.390625 
Q 24.65625 48.390625 19.8125 42.84375 
Q 14.984375 37.3125 14.984375 27.296875 
Q 14.984375 17.28125 19.8125 11.734375 
Q 24.65625 6.203125 33.40625 6.203125 
Q 37.3125 6.203125 41.140625 7.25 
Q 44.96875 8.296875 48.78125 10.40625 
L 48.78125 2.09375 
Q 45.015625 0.34375 40.984375 -0.53125 
Q 36.96875 -1.421875 32.421875 -1.421875 
Q 20.0625 -1.421875 12.78125 6.34375 
Q 5.515625 14.109375 5.515625 27.296875 
Q 5.515625 40.671875 12.859375 48.328125 
Q 20.21875 56 33.015625 56 
Q 37.15625 56 41.109375 55.140625 
Q 45.0625 54.296875 48.78125 52.59375 
z
" id="DejaVuSans-63"/>
       <path d="M 54.890625 33.015625 
L 54.890625 0 
L 45.90625 0 
L 45.90625 32.71875 
Q 45.90625 40.484375 42.875 44.328125 
Q 39.84375 48.1875 33.796875 48.1875 
Q 26.515625 48.1875 22.3125 43.546875 
Q 18.109375 38.921875 18.109375 30.90625 
L 18.109375 0 
L 9.078125 0 
L 9.078125 75.984375 
L 18.109375 75.984375 
L 18.109375 46.1875 
Q 21.34375 51.125 25.703125 53.5625 
Q 30.078125 56 35.796875 56 
Q 45.21875 56 50.046875 50.171875 
Q 54.890625 44.34375 54.890625 33.015625 
z
" id="DejaVuSans-68"/>
       <path d="M 41.109375 46.296875 
Q 39.59375 47.171875 37.8125 47.578125 
Q 36.03125 48 33.890625 48 
Q 26.265625 48 22.1875 43.046875 
Q 18.109375 38.09375 18.109375 28.8125 
L 18.109375 0 
L 9.078125 0 
L 9.078125 54.6875 
L 18.109375 54.6875 
L 18.109375 46.1875 
Q 20.953125 51.171875 25.484375 53.578125 
Q 30.03125 56 36.53125 56 
Q 37.453125 56 38.578125 55.875 
Q 39.703125 55.765625 41.0625 55.515625 
z
" id="DejaVuSans-72"/>
       <path d="M 56.203125 29.59375 
L 56.203125 25.203125 
L 14.890625 25.203125 
Q 15.484375 15.921875 20.484375 11.0625 
Q 25.484375 6.203125 34.421875 6.203125 
Q 39.59375 6.203125 44.453125 7.46875 
Q 49.3125 8.734375 54.109375 11.28125 
L 54.109375 2.78125 
Q 49.265625 0.734375 44.1875 -0.34375 
Q 39.109375 -1.421875 33.890625 -1.421875 
Q 20.796875 -1.421875 13.15625 6.1875 
Q 5.515625 13.8125 5.515625 26.8125 
Q 5.515625 40.234375 12.765625 48.109375 
Q 20.015625 56 32.328125 56 
Q 43.359375 56 49.78125 48.890625 
Q 56.203125 41.796875 56.203125 29.59375 
z
M 47.21875 32.234375 
Q 47.125 39.59375 43.09375 43.984375 
Q 39.0625 48.390625 32.421875 48.390625 
Q 24.90625 48.390625 20.390625 44.140625 
Q 15.875 39.890625 15.1875 32.171875 
z
" id="DejaVuSans-65"/>
       <path d="M 9.421875 54.6875 
L 18.40625 54.6875 
L 18.40625 0 
L 9.421875 0 
z
M 9.421875 75.984375 
L 18.40625 75.984375 
L 18.40625 64.59375 
L 9.421875 64.59375 
z
" id="DejaVuSans-69"/>
       <path d="M 48.6875 27.296875 
Q 48.6875 37.203125 44.609375 42.84375 
Q 40.53125 48.484375 33.40625 48.484375 
Q 26.265625 48.484375 22.1875 42.84375 
Q 18.109375 37.203125 18.109375 27.296875 
Q 18.109375 17.390625 22.1875 11.75 
Q 26.265625 6.109375 33.40625 6.109375 
Q 40.53125 6.109375 44.609375 11.75 
Q 48.6875 17.390625 48.6875 27.296875 
z
M 18.109375 46.390625 
Q 20.953125 51.265625 25.265625 53.625 
Q 29.59375 56 35.59375 56 
Q 45.5625 56 51.78125 48.09375 
Q 58.015625 40.1875 58.015625 27.296875 
Q 58.015625 14.40625 51.78125 6.484375 
Q 45.5625 -1.421875 35.59375 -1.421875 
Q 29.59375 -1.421875 25.265625 0.953125 
Q 20.953125 3.328125 18.109375 8.203125 
L 18.109375 0 
L 9.078125 0 
L 9.078125 75.984375 
L 18.109375 75.984375 
z
" id="DejaVuSans-62"/>
       <path d="M 8.203125 72.90625 
L 55.078125 72.90625 
L 55.078125 68.703125 
L 28.609375 0 
L 18.3125 0 
L 43.21875 64.59375 
L 8.203125 64.59375 
z
" id="DejaVuSans-37"/>
       <path d="M 25.390625 72.90625 
L 33.6875 72.90625 
L 8.296875 -9.28125 
L 0 -9.28125 
z
" id="DejaVuSans-2f"/>
       <path d="M 52 44.1875 
Q 55.375 50.25 60.0625 53.125 
Q 64.75 56 71.09375 56 
Q 79.640625 56 84.28125 50.015625 
Q 88.921875 44.046875 88.921875 33.015625 
L 88.921875 0 
L 79.890625 0 
L 79.890625 32.71875 
Q 79.890625 40.578125 77.09375 44.375 
Q 74.3125 48.1875 68.609375 48.1875 
Q 61.625 48.1875 57.5625 43.546875 
Q 53.515625 38.921875 53.515625 30.90625 
L 53.515625 0 
L 44.484375 0 
L 44.484375 32.71875 
Q 44.484375 40.625 41.703125 44.40625 
Q 38.921875 48.1875 33.109375 48.1875 
Q 26.21875 48.1875 22.15625 43.53125 
Q 18.109375 38.875 18.109375 30.90625 
L 18.109375 0 
L 9.078125 0 
L 9.078125 54.6875 
L 18.109375 54.6875 
L 18.109375 46.1875 
Q 21.1875 51.21875 25.484375 53.609375 
Q 29.78125 56 35.6875 56 
Q 41.65625 56 45.828125 52.96875 
Q 50 49.953125 52 44.1875 
z
" id="DejaVuSans-6d"/>
       <path d="M 54.890625 54.6875 
L 35.109375 28.078125 
L 55.90625 0 
L 45.3125 0 
L 29.390625 21.484375 
L 13.484375 0 
L 2.875 0 
L 24.125 28.609375 
L 4.6875 54.6875 
L 15.28125 54.6875 
L 29.78125 35.203125 
L 44.28125 54.6875 
z
" id="DejaVuSans-78"/>
      </defs>
      <g transform="translate(90.084375 309.640253)scale(0.1 -0.1)">
       <use xlink:href="#DejaVuSans-73"/>
       <use x="52.099609" xlink:href="#DejaVuSans-63"/>
       <use x="107.080078" xlink:href="#DejaVuSans-68"/>
       <use x="170.458984" xlink:href="#DejaVuSans-72"/>
       <use x="211.541016" xlink:href="#DejaVuSans-65"/>
       <use x="273.064453" xlink:href="#DejaVuSans-69"/>
       <use x="300.847656" xlink:href="#DejaVuSans-62"/>
       <use x="364.324219" xlink:href="#DejaVuSans-65"/>
       <use x="425.847656" xlink:href="#DejaVuSans-72"/>
       <use x="466.960938" xlink:href="#DejaVuSans-32"/>
       <use x="530.583984" xlink:href="#DejaVuSans-30"/>
       <use x="594.207031" xlink:href="#DejaVuSans-31"/>
       <use x="657.830078" xlink:href="#DejaVuSans-37"/>
       <use x="721.453125" xlink:href="#DejaVuSans-2f"/>
       <use x="755.144531" xlink:href="#DejaVuSans-6d"/>
       <use x="852.556641" xlink:href="#DejaVuSans-69"/>
       <use x="880.339844" xlink:href="#DejaVuSans-72"/>
       <use x="921.421875" xlink:href="#DejaVuSans-65"/>
       <use x="982.929688" xlink:href="#DejaVuSans-78"/>
       <use x="1042.109375" xlink:href="#DejaVuSans-32"/>
       <use x="1105.732422" xlink:href="#DejaVuSans-30"/>
       <use x="1169.355469" xlink:href="#DejaVuSans-31"/>
       <use x="1232.978516" xlink:href="#DejaVuSans-37"/>
      </g>
     </g>
    </g>
    <g id="ytick_2">
     <g id="line2d_17">
      <path clip-path="url(#p2276a9a37f)" d="M 226.746875 254.52467 
L 617.346875 254.52467 
" style="fill:none;stroke:#b0b0b0;stroke-linecap:square;stroke-width:0.8;"/>
     </g>
     <g id="line2d_18">
      <g>
       <use style="stroke:#000000;stroke-width:0.8;" x="226.746875" xlink:href="#m9736763116" y="254.52467"/>
      </g>
     </g>
     <g id="text_10">
      <!-- schreiber2017/ismir2017 -->
      <g transform="translate(94.164062 258.323889)scale(0.1 -0.1)">
       <use xlink:href="#DejaVuSans-73"/>
       <use x="52.099609" xlink:href="#DejaVuSans-63"/>
       <use x="107.080078" xlink:href="#DejaVuSans-68"/>
       <use x="170.458984" xlink:href="#DejaVuSans-72"/>
       <use x="211.541016" xlink:href="#DejaVuSans-65"/>
       <use x="273.064453" xlink:href="#DejaVuSans-69"/>
       <use x="300.847656" xlink:href="#DejaVuSans-62"/>
       <use x="364.324219" xlink:href="#DejaVuSans-65"/>
       <use x="425.847656" xlink:href="#DejaVuSans-72"/>
       <use x="466.960938" xlink:href="#DejaVuSans-32"/>
       <use x="530.583984" xlink:href="#DejaVuSans-30"/>
       <use x="594.207031" xlink:href="#DejaVuSans-31"/>
       <use x="657.830078" xlink:href="#DejaVuSans-37"/>
       <use x="721.453125" xlink:href="#DejaVuSans-2f"/>
       <use x="755.144531" xlink:href="#DejaVuSans-69"/>
       <use x="782.927734" xlink:href="#DejaVuSans-73"/>
       <use x="835.027344" xlink:href="#DejaVuSans-6d"/>
       <use x="932.439453" xlink:href="#DejaVuSans-69"/>
       <use x="960.222656" xlink:href="#DejaVuSans-72"/>
       <use x="1001.335938" xlink:href="#DejaVuSans-32"/>
       <use x="1064.958984" xlink:href="#DejaVuSans-30"/>
       <use x="1128.582031" xlink:href="#DejaVuSans-31"/>
       <use x="1192.205078" xlink:href="#DejaVuSans-37"/>
      </g>
     </g>
    </g>
    <g id="ytick_3">
     <g id="line2d_19">
      <path clip-path="url(#p2276a9a37f)" d="M 226.746875 203.208307 
L 617.346875 203.208307 
" style="fill:none;stroke:#b0b0b0;stroke-linecap:square;stroke-width:0.8;"/>
     </g>
     <g id="line2d_20">
      <g>
       <use style="stroke:#000000;stroke-width:0.8;" x="226.746875" xlink:href="#m9736763116" y="203.208307"/>
      </g>
     </g>
     <g id="text_11">
      <!-- schreiber2014/default -->
      <defs>
       <path d="M 45.40625 46.390625 
L 45.40625 75.984375 
L 54.390625 75.984375 
L 54.390625 0 
L 45.40625 0 
L 45.40625 8.203125 
Q 42.578125 3.328125 38.25 0.953125 
Q 33.9375 -1.421875 27.875 -1.421875 
Q 17.96875 -1.421875 11.734375 6.484375 
Q 5.515625 14.40625 5.515625 27.296875 
Q 5.515625 40.1875 11.734375 48.09375 
Q 17.96875 56 27.875 56 
Q 33.9375 56 38.25 53.625 
Q 42.578125 51.265625 45.40625 46.390625 
z
M 14.796875 27.296875 
Q 14.796875 17.390625 18.875 11.75 
Q 22.953125 6.109375 30.078125 6.109375 
Q 37.203125 6.109375 41.296875 11.75 
Q 45.40625 17.390625 45.40625 27.296875 
Q 45.40625 37.203125 41.296875 42.84375 
Q 37.203125 48.484375 30.078125 48.484375 
Q 22.953125 48.484375 18.875 42.84375 
Q 14.796875 37.203125 14.796875 27.296875 
z
" id="DejaVuSans-64"/>
       <path d="M 37.109375 75.984375 
L 37.109375 68.5 
L 28.515625 68.5 
Q 23.6875 68.5 21.796875 66.546875 
Q 19.921875 64.59375 19.921875 59.515625 
L 19.921875 54.6875 
L 34.71875 54.6875 
L 34.71875 47.703125 
L 19.921875 47.703125 
L 19.921875 0 
L 10.890625 0 
L 10.890625 47.703125 
L 2.296875 47.703125 
L 2.296875 54.6875 
L 10.890625 54.6875 
L 10.890625 58.5 
Q 10.890625 67.625 15.140625 71.796875 
Q 19.390625 75.984375 28.609375 75.984375 
z
" id="DejaVuSans-66"/>
       <path d="M 34.28125 27.484375 
Q 23.390625 27.484375 19.1875 25 
Q 14.984375 22.515625 14.984375 16.5 
Q 14.984375 11.71875 18.140625 8.90625 
Q 21.296875 6.109375 26.703125 6.109375 
Q 34.1875 6.109375 38.703125 11.40625 
Q 43.21875 16.703125 43.21875 25.484375 
L 43.21875 27.484375 
z
M 52.203125 31.203125 
L 52.203125 0 
L 43.21875 0 
L 43.21875 8.296875 
Q 40.140625 3.328125 35.546875 0.953125 
Q 30.953125 -1.421875 24.3125 -1.421875 
Q 15.921875 -1.421875 10.953125 3.296875 
Q 6 8.015625 6 15.921875 
Q 6 25.140625 12.171875 29.828125 
Q 18.359375 34.515625 30.609375 34.515625 
L 43.21875 34.515625 
L 43.21875 35.40625 
Q 43.21875 41.609375 39.140625 45 
Q 35.0625 48.390625 27.6875 48.390625 
Q 23 48.390625 18.546875 47.265625 
Q 14.109375 46.140625 10.015625 43.890625 
L 10.015625 52.203125 
Q 14.9375 54.109375 19.578125 55.046875 
Q 24.21875 56 28.609375 56 
Q 40.484375 56 46.34375 49.84375 
Q 52.203125 43.703125 52.203125 31.203125 
z
" id="DejaVuSans-61"/>
       <path d="M 8.5 21.578125 
L 8.5 54.6875 
L 17.484375 54.6875 
L 17.484375 21.921875 
Q 17.484375 14.15625 20.5 10.265625 
Q 23.53125 6.390625 29.59375 6.390625 
Q 36.859375 6.390625 41.078125 11.03125 
Q 45.3125 15.671875 45.3125 23.6875 
L 45.3125 54.6875 
L 54.296875 54.6875 
L 54.296875 0 
L 45.3125 0 
L 45.3125 8.40625 
Q 42.046875 3.421875 37.71875 1 
Q 33.40625 -1.421875 27.6875 -1.421875 
Q 18.265625 -1.421875 13.375 4.4375 
Q 8.5 10.296875 8.5 21.578125 
z
M 31.109375 56 
z
" id="DejaVuSans-75"/>
       <path d="M 9.421875 75.984375 
L 18.40625 75.984375 
L 18.40625 0 
L 9.421875 0 
z
" id="DejaVuSans-6c"/>
       <path d="M 18.3125 70.21875 
L 18.3125 54.6875 
L 36.8125 54.6875 
L 36.8125 47.703125 
L 18.3125 47.703125 
L 18.3125 18.015625 
Q 18.3125 11.328125 20.140625 9.421875 
Q 21.96875 7.515625 27.59375 7.515625 
L 36.8125 7.515625 
L 36.8125 0 
L 27.59375 0 
Q 17.1875 0 13.234375 3.875 
Q 9.28125 7.765625 9.28125 18.015625 
L 9.28125 47.703125 
L 2.6875 47.703125 
L 2.6875 54.6875 
L 9.28125 54.6875 
L 9.28125 70.21875 
z
" id="DejaVuSans-74"/>
      </defs>
      <g transform="translate(109.045312 207.007526)scale(0.1 -0.1)">
       <use xlink:href="#DejaVuSans-73"/>
       <use x="52.099609" xlink:href="#DejaVuSans-63"/>
       <use x="107.080078" xlink:href="#DejaVuSans-68"/>
       <use x="170.458984" xlink:href="#DejaVuSans-72"/>
       <use x="211.541016" xlink:href="#DejaVuSans-65"/>
       <use x="273.064453" xlink:href="#DejaVuSans-69"/>
       <use x="300.847656" xlink:href="#DejaVuSans-62"/>
       <use x="364.324219" xlink:href="#DejaVuSans-65"/>
       <use x="425.847656" xlink:href="#DejaVuSans-72"/>
       <use x="466.960938" xlink:href="#DejaVuSans-32"/>
       <use x="530.583984" xlink:href="#DejaVuSans-30"/>
       <use x="594.207031" xlink:href="#DejaVuSans-31"/>
       <use x="657.830078" xlink:href="#DejaVuSans-34"/>
       <use x="721.453125" xlink:href="#DejaVuSans-2f"/>
       <use x="755.144531" xlink:href="#DejaVuSans-64"/>
       <use x="818.621094" xlink:href="#DejaVuSans-65"/>
       <use x="880.144531" xlink:href="#DejaVuSans-66"/>
       <use x="915.349609" xlink:href="#DejaVuSans-61"/>
       <use x="976.628906" xlink:href="#DejaVuSans-75"/>
       <use x="1040.007812" xlink:href="#DejaVuSans-6c"/>
       <use x="1067.791016" xlink:href="#DejaVuSans-74"/>
      </g>
     </g>
    </g>
    <g id="ytick_4">
     <g id="line2d_21">
      <path clip-path="url(#p2276a9a37f)" d="M 226.746875 151.891943 
L 617.346875 151.891943 
" style="fill:none;stroke:#b0b0b0;stroke-linecap:square;stroke-width:0.8;"/>
     </g>
     <g id="line2d_22">
      <g>
       <use style="stroke:#000000;stroke-width:0.8;" x="226.746875" xlink:href="#m9736763116" y="151.891943"/>
      </g>
     </g>
     <g id="text_12">
      <!-- percival2014/stem -->
      <defs>
       <path d="M 18.109375 8.203125 
L 18.109375 -20.796875 
L 9.078125 -20.796875 
L 9.078125 54.6875 
L 18.109375 54.6875 
L 18.109375 46.390625 
Q 20.953125 51.265625 25.265625 53.625 
Q 29.59375 56 35.59375 56 
Q 45.5625 56 51.78125 48.09375 
Q 58.015625 40.1875 58.015625 27.296875 
Q 58.015625 14.40625 51.78125 6.484375 
Q 45.5625 -1.421875 35.59375 -1.421875 
Q 29.59375 -1.421875 25.265625 0.953125 
Q 20.953125 3.328125 18.109375 8.203125 
z
M 48.6875 27.296875 
Q 48.6875 37.203125 44.609375 42.84375 
Q 40.53125 48.484375 33.40625 48.484375 
Q 26.265625 48.484375 22.1875 42.84375 
Q 18.109375 37.203125 18.109375 27.296875 
Q 18.109375 17.390625 22.1875 11.75 
Q 26.265625 6.109375 33.40625 6.109375 
Q 40.53125 6.109375 44.609375 11.75 
Q 48.6875 17.390625 48.6875 27.296875 
z
" id="DejaVuSans-70"/>
       <path d="M 2.984375 54.6875 
L 12.5 54.6875 
L 29.59375 8.796875 
L 46.6875 54.6875 
L 56.203125 54.6875 
L 35.6875 0 
L 23.484375 0 
z
" id="DejaVuSans-76"/>
      </defs>
      <g transform="translate(126.19375 155.691162)scale(0.1 -0.1)">
       <use xlink:href="#DejaVuSans-70"/>
       <use x="63.476562" xlink:href="#DejaVuSans-65"/>
       <use x="125" xlink:href="#DejaVuSans-72"/>
       <use x="166.082031" xlink:href="#DejaVuSans-63"/>
       <use x="221.0625" xlink:href="#DejaVuSans-69"/>
       <use x="248.845703" xlink:href="#DejaVuSans-76"/>
       <use x="308.025391" xlink:href="#DejaVuSans-61"/>
       <use x="369.304688" xlink:href="#DejaVuSans-6c"/>
       <use x="397.087891" xlink:href="#DejaVuSans-32"/>
       <use x="460.710938" xlink:href="#DejaVuSans-30"/>
       <use x="524.333984" xlink:href="#DejaVuSans-31"/>
       <use x="587.957031" xlink:href="#DejaVuSans-34"/>
       <use x="651.580078" xlink:href="#DejaVuSans-2f"/>
       <use x="685.271484" xlink:href="#DejaVuSans-73"/>
       <use x="737.371094" xlink:href="#DejaVuSans-74"/>
       <use x="776.580078" xlink:href="#DejaVuSans-65"/>
       <use x="838.103516" xlink:href="#DejaVuSans-6d"/>
      </g>
     </g>
    </g>
    <g id="ytick_5">
     <g id="line2d_23">
      <path clip-path="url(#p2276a9a37f)" d="M 226.746875 100.57558 
L 617.346875 100.57558 
" style="fill:none;stroke:#b0b0b0;stroke-linecap:square;stroke-width:0.8;"/>
     </g>
     <g id="line2d_24">
      <g>
       <use style="stroke:#000000;stroke-width:0.8;" x="226.746875" xlink:href="#m9736763116" y="100.57558"/>
      </g>
     </g>
     <g id="text_13">
      <!-- davies2009/mirex_qm_tempotracker -->
      <defs>
       <path d="M 10.984375 1.515625 
L 10.984375 10.5 
Q 14.703125 8.734375 18.5 7.8125 
Q 22.3125 6.890625 25.984375 6.890625 
Q 35.75 6.890625 40.890625 13.453125 
Q 46.046875 20.015625 46.78125 33.40625 
Q 43.953125 29.203125 39.59375 26.953125 
Q 35.25 24.703125 29.984375 24.703125 
Q 19.046875 24.703125 12.671875 31.3125 
Q 6.296875 37.9375 6.296875 49.421875 
Q 6.296875 60.640625 12.9375 67.421875 
Q 19.578125 74.21875 30.609375 74.21875 
Q 43.265625 74.21875 49.921875 64.515625 
Q 56.59375 54.828125 56.59375 36.375 
Q 56.59375 19.140625 48.40625 8.859375 
Q 40.234375 -1.421875 26.421875 -1.421875 
Q 22.703125 -1.421875 18.890625 -0.6875 
Q 15.09375 0.046875 10.984375 1.515625 
z
M 30.609375 32.421875 
Q 37.25 32.421875 41.125 36.953125 
Q 45.015625 41.5 45.015625 49.421875 
Q 45.015625 57.28125 41.125 61.84375 
Q 37.25 66.40625 30.609375 66.40625 
Q 23.96875 66.40625 20.09375 61.84375 
Q 16.21875 57.28125 16.21875 49.421875 
Q 16.21875 41.5 20.09375 36.953125 
Q 23.96875 32.421875 30.609375 32.421875 
z
" id="DejaVuSans-39"/>
       <path d="M 50.984375 -16.609375 
L 50.984375 -23.578125 
L -0.984375 -23.578125 
L -0.984375 -16.609375 
z
" id="DejaVuSans-5f"/>
       <path d="M 14.796875 27.296875 
Q 14.796875 17.390625 18.875 11.75 
Q 22.953125 6.109375 30.078125 6.109375 
Q 37.203125 6.109375 41.296875 11.75 
Q 45.40625 17.390625 45.40625 27.296875 
Q 45.40625 37.203125 41.296875 42.84375 
Q 37.203125 48.484375 30.078125 48.484375 
Q 22.953125 48.484375 18.875 42.84375 
Q 14.796875 37.203125 14.796875 27.296875 
z
M 45.40625 8.203125 
Q 42.578125 3.328125 38.25 0.953125 
Q 33.9375 -1.421875 27.875 -1.421875 
Q 17.96875 -1.421875 11.734375 6.484375 
Q 5.515625 14.40625 5.515625 27.296875 
Q 5.515625 40.1875 11.734375 48.09375 
Q 17.96875 56 27.875 56 
Q 33.9375 56 38.25 53.625 
Q 42.578125 51.265625 45.40625 46.390625 
L 45.40625 54.6875 
L 54.390625 54.6875 
L 54.390625 -20.796875 
L 45.40625 -20.796875 
z
" id="DejaVuSans-71"/>
       <path d="M 30.609375 48.390625 
Q 23.390625 48.390625 19.1875 42.75 
Q 14.984375 37.109375 14.984375 27.296875 
Q 14.984375 17.484375 19.15625 11.84375 
Q 23.34375 6.203125 30.609375 6.203125 
Q 37.796875 6.203125 41.984375 11.859375 
Q 46.1875 17.53125 46.1875 27.296875 
Q 46.1875 37.015625 41.984375 42.703125 
Q 37.796875 48.390625 30.609375 48.390625 
z
M 30.609375 56 
Q 42.328125 56 49.015625 48.375 
Q 55.71875 40.765625 55.71875 27.296875 
Q 55.71875 13.875 49.015625 6.21875 
Q 42.328125 -1.421875 30.609375 -1.421875 
Q 18.84375 -1.421875 12.171875 6.21875 
Q 5.515625 13.875 5.515625 27.296875 
Q 5.515625 40.765625 12.171875 48.375 
Q 18.84375 56 30.609375 56 
z
" id="DejaVuSans-6f"/>
       <path d="M 9.078125 75.984375 
L 18.109375 75.984375 
L 18.109375 31.109375 
L 44.921875 54.6875 
L 56.390625 54.6875 
L 27.390625 29.109375 
L 57.625 0 
L 45.90625 0 
L 18.109375 26.703125 
L 18.109375 0 
L 9.078125 0 
z
" id="DejaVuSans-6b"/>
      </defs>
      <g transform="translate(35.617187 104.374798)scale(0.1 -0.1)">
       <use xlink:href="#DejaVuSans-64"/>
       <use x="63.476562" xlink:href="#DejaVuSans-61"/>
       <use x="124.755859" xlink:href="#DejaVuSans-76"/>
       <use x="183.935547" xlink:href="#DejaVuSans-69"/>
       <use x="211.71875" xlink:href="#DejaVuSans-65"/>
       <use x="273.242188" xlink:href="#DejaVuSans-73"/>
       <use x="325.341797" xlink:href="#DejaVuSans-32"/>
       <use x="388.964844" xlink:href="#DejaVuSans-30"/>
       <use x="452.587891" xlink:href="#DejaVuSans-30"/>
       <use x="516.210938" xlink:href="#DejaVuSans-39"/>
       <use x="579.833984" xlink:href="#DejaVuSans-2f"/>
       <use x="613.525391" xlink:href="#DejaVuSans-6d"/>
       <use x="710.9375" xlink:href="#DejaVuSans-69"/>
       <use x="738.720703" xlink:href="#DejaVuSans-72"/>
       <use x="779.802734" xlink:href="#DejaVuSans-65"/>
       <use x="841.310547" xlink:href="#DejaVuSans-78"/>
       <use x="900.490234" xlink:href="#DejaVuSans-5f"/>
       <use x="950.490234" xlink:href="#DejaVuSans-71"/>
       <use x="1013.966797" xlink:href="#DejaVuSans-6d"/>
       <use x="1111.378906" xlink:href="#DejaVuSans-5f"/>
       <use x="1161.378906" xlink:href="#DejaVuSans-74"/>
       <use x="1200.587891" xlink:href="#DejaVuSans-65"/>
       <use x="1262.111328" xlink:href="#DejaVuSans-6d"/>
       <use x="1359.523438" xlink:href="#DejaVuSans-70"/>
       <use x="1423" xlink:href="#DejaVuSans-6f"/>
       <use x="1484.181641" xlink:href="#DejaVuSans-74"/>
       <use x="1523.390625" xlink:href="#DejaVuSans-72"/>
       <use x="1564.503906" xlink:href="#DejaVuSans-61"/>
       <use x="1625.783203" xlink:href="#DejaVuSans-63"/>
       <use x="1680.763672" xlink:href="#DejaVuSans-6b"/>
       <use x="1738.626953" xlink:href="#DejaVuSans-65"/>
       <use x="1800.150391" xlink:href="#DejaVuSans-72"/>
      </g>
     </g>
    </g>
    <g id="ytick_6">
     <g id="line2d_25">
      <path clip-path="url(#p2276a9a37f)" d="M 226.746875 49.259216 
L 617.346875 49.259216 
" style="fill:none;stroke:#b0b0b0;stroke-linecap:square;stroke-width:0.8;"/>
     </g>
     <g id="line2d_26">
      <g>
       <use style="stroke:#000000;stroke-width:0.8;" x="226.746875" xlink:href="#m9736763116" y="49.259216"/>
      </g>
     </g>
     <g id="text_14">
      <!-- boeck2015/tempodetector2016_default -->
      <defs>
       <path d="M 10.796875 72.90625 
L 49.515625 72.90625 
L 49.515625 64.59375 
L 19.828125 64.59375 
L 19.828125 46.734375 
Q 21.96875 47.46875 24.109375 47.828125 
Q 26.265625 48.1875 28.421875 48.1875 
Q 40.625 48.1875 47.75 41.5 
Q 54.890625 34.8125 54.890625 23.390625 
Q 54.890625 11.625 47.5625 5.09375 
Q 40.234375 -1.421875 26.90625 -1.421875 
Q 22.3125 -1.421875 17.546875 -0.640625 
Q 12.796875 0.140625 7.71875 1.703125 
L 7.71875 11.625 
Q 12.109375 9.234375 16.796875 8.0625 
Q 21.484375 6.890625 26.703125 6.890625 
Q 35.15625 6.890625 40.078125 11.328125 
Q 45.015625 15.765625 45.015625 23.390625 
Q 45.015625 31 40.078125 35.4375 
Q 35.15625 39.890625 26.703125 39.890625 
Q 22.75 39.890625 18.8125 39.015625 
Q 14.890625 38.140625 10.796875 36.28125 
z
" id="DejaVuSans-35"/>
      </defs>
      <g transform="translate(20.878125 53.058435)scale(0.1 -0.1)">
       <use xlink:href="#DejaVuSans-62"/>
       <use x="63.476562" xlink:href="#DejaVuSans-6f"/>
       <use x="124.658203" xlink:href="#DejaVuSans-65"/>
       <use x="186.181641" xlink:href="#DejaVuSans-63"/>
       <use x="241.162109" xlink:href="#DejaVuSans-6b"/>
       <use x="299.072266" xlink:href="#DejaVuSans-32"/>
       <use x="362.695312" xlink:href="#DejaVuSans-30"/>
       <use x="426.318359" xlink:href="#DejaVuSans-31"/>
       <use x="489.941406" xlink:href="#DejaVuSans-35"/>
       <use x="553.564453" xlink:href="#DejaVuSans-2f"/>
       <use x="587.255859" xlink:href="#DejaVuSans-74"/>
       <use x="626.464844" xlink:href="#DejaVuSans-65"/>
       <use x="687.988281" xlink:href="#DejaVuSans-6d"/>
       <use x="785.400391" xlink:href="#DejaVuSans-70"/>
       <use x="848.876953" xlink:href="#DejaVuSans-6f"/>
       <use x="910.058594" xlink:href="#DejaVuSans-64"/>
       <use x="973.535156" xlink:href="#DejaVuSans-65"/>
       <use x="1035.058594" xlink:href="#DejaVuSans-74"/>
       <use x="1074.267578" xlink:href="#DejaVuSans-65"/>
       <use x="1135.791016" xlink:href="#DejaVuSans-63"/>
       <use x="1190.771484" xlink:href="#DejaVuSans-74"/>
       <use x="1229.980469" xlink:href="#DejaVuSans-6f"/>
       <use x="1291.162109" xlink:href="#DejaVuSans-72"/>
       <use x="1332.275391" xlink:href="#DejaVuSans-32"/>
       <use x="1395.898438" xlink:href="#DejaVuSans-30"/>
       <use x="1459.521484" xlink:href="#DejaVuSans-31"/>
       <use x="1523.144531" xlink:href="#DejaVuSans-36"/>
       <use x="1586.767578" xlink:href="#DejaVuSans-5f"/>
       <use x="1636.767578" xlink:href="#DejaVuSans-64"/>
       <use x="1700.244141" xlink:href="#DejaVuSans-65"/>
       <use x="1761.767578" xlink:href="#DejaVuSans-66"/>
       <use x="1796.972656" xlink:href="#DejaVuSans-61"/>
       <use x="1858.251953" xlink:href="#DejaVuSans-75"/>
       <use x="1921.630859" xlink:href="#DejaVuSans-6c"/>
       <use x="1949.414062" xlink:href="#DejaVuSans-74"/>
      </g>
     </g>
    </g>
    <g id="text_15">
     <!-- Estimator -->
     <g transform="translate(14.798437 201.672781)rotate(-90)scale(0.1 -0.1)">
      <use xlink:href="#DejaVuSans-45"/>
      <use x="63.183594" xlink:href="#DejaVuSans-73"/>
      <use x="115.283203" xlink:href="#DejaVuSans-74"/>
      <use x="154.492188" xlink:href="#DejaVuSans-69"/>
      <use x="182.275391" xlink:href="#DejaVuSans-6d"/>
      <use x="279.6875" xlink:href="#DejaVuSans-61"/>
      <use x="340.966797" xlink:href="#DejaVuSans-74"/>
      <use x="380.175781" xlink:href="#DejaVuSans-6f"/>
      <use x="441.357422" xlink:href="#DejaVuSans-72"/>
     </g>
    </g>
   </g>
   <g id="PolyCollection_1">
    <path clip-path="url(#p2276a9a37f)" d="M 252.36966 305.840316 
L 252.36966 305.841752 
L 253.172966 305.841272 
L 253.976273 305.841043 
L 254.77958 305.841034 
L 255.582887 305.841034 
L 256.386194 305.841034 
L 257.1895 305.841034 
L 257.992807 305.841034 
L 258.796114 305.84104 
L 259.599421 305.841237 
L 260.402728 305.841772 
L 261.206034 305.841818 
L 262.009341 305.842427 
L 262.812648 305.841519 
L 263.615955 305.841056 
L 264.419262 305.841035 
L 265.222568 305.841149 
L 266.025875 305.84243 
L 266.829182 305.842993 
L 267.632489 305.841952 
L 268.435796 305.841457 
L 269.239102 305.841064 
L 270.042409 305.841038 
L 270.845716 305.841184 
L 271.649023 305.84193 
L 272.45233 305.842717 
L 273.255636 305.842871 
L 274.058943 305.843303 
L 274.86225 305.844619 
L 275.665557 305.847399 
L 276.468863 305.847072 
L 277.27217 305.843402 
L 278.075477 305.841906 
L 278.878784 305.843862 
L 279.682091 305.845747 
L 280.485397 305.848672 
L 281.288704 305.847009 
L 282.092011 305.845552 
L 282.895318 305.844206 
L 283.698625 305.843331 
L 284.501931 305.843336 
L 285.305238 305.842048 
L 286.108545 305.841919 
L 286.911852 305.84324 
L 287.715159 305.847141 
L 288.518465 305.848389 
L 289.321772 305.846388 
L 290.125079 305.846959 
L 290.928386 305.84569 
L 291.731693 305.847772 
L 292.534999 305.845779 
L 293.338306 305.844312 
L 294.141613 305.844688 
L 294.94492 305.844353 
L 295.748227 305.843459 
L 296.551533 305.845556 
L 297.35484 305.846757 
L 298.158147 305.846551 
L 298.961454 305.845224 
L 299.764761 305.84329 
L 300.568067 305.843047 
L 301.371374 305.858014 
L 302.174681 305.898517 
L 302.977988 305.937607 
L 303.781295 306.055123 
L 304.584601 306.128617 
L 305.387908 305.983465 
L 306.191215 305.939902 
L 306.994522 305.93142 
L 307.797828 305.921306 
L 308.601135 305.929017 
L 309.404442 305.937562 
L 310.207749 305.934846 
L 311.011056 305.953703 
L 311.814362 305.95584 
L 312.617669 305.951231 
L 313.420976 305.962702 
L 314.224283 306.000359 
L 315.02759 306.18915 
L 315.830896 308.740388 
L 316.634203 318.670125 
L 317.43751 314.708327 
L 318.240817 307.035606 
L 319.044124 306.083092 
L 319.84743 305.987159 
L 320.650737 305.951776 
L 321.454044 305.95142 
L 322.257351 305.953282 
L 323.060658 305.93333 
L 323.863964 305.928771 
L 324.667271 305.93514 
L 325.470578 305.941315 
L 326.273885 305.97107 
L 327.077192 305.95429 
L 327.880498 305.937686 
L 328.683805 305.976808 
L 329.487112 306.007817 
L 330.290419 305.955053 
L 331.093726 305.912818 
L 331.897032 305.873598 
L 331.897032 305.80847 
L 331.897032 305.80847 
L 331.093726 305.76925 
L 330.290419 305.727015 
L 329.487112 305.674251 
L 328.683805 305.705261 
L 327.880498 305.744382 
L 327.077192 305.727778 
L 326.273885 305.710999 
L 325.470578 305.740753 
L 324.667271 305.746928 
L 323.863964 305.753297 
L 323.060658 305.748738 
L 322.257351 305.728786 
L 321.454044 305.730648 
L 320.650737 305.730293 
L 319.84743 305.694909 
L 319.044124 305.598976 
L 318.240817 304.646462 
L 317.43751 296.973741 
L 316.634203 293.011943 
L 315.830896 302.94168 
L 315.02759 305.492918 
L 314.224283 305.681709 
L 313.420976 305.719366 
L 312.617669 305.730838 
L 311.814362 305.726228 
L 311.011056 305.728365 
L 310.207749 305.747223 
L 309.404442 305.744506 
L 308.601135 305.753052 
L 307.797828 305.760763 
L 306.994522 305.750648 
L 306.191215 305.742167 
L 305.387908 305.698603 
L 304.584601 305.553451 
L 303.781295 305.626945 
L 302.977988 305.744461 
L 302.174681 305.783552 
L 301.371374 305.824054 
L 300.568067 305.839021 
L 299.764761 305.838778 
L 298.961454 305.836845 
L 298.158147 305.835518 
L 297.35484 305.835311 
L 296.551533 305.836512 
L 295.748227 305.83861 
L 294.94492 305.837715 
L 294.141613 305.83738 
L 293.338306 305.837756 
L 292.534999 305.83629 
L 291.731693 305.834296 
L 290.928386 305.836378 
L 290.125079 305.835109 
L 289.321772 305.83568 
L 288.518465 305.83368 
L 287.715159 305.834927 
L 286.911852 305.838828 
L 286.108545 305.840149 
L 285.305238 305.84002 
L 284.501931 305.838732 
L 283.698625 305.838737 
L 282.895318 305.837862 
L 282.092011 305.836516 
L 281.288704 305.835059 
L 280.485397 305.833396 
L 279.682091 305.836321 
L 278.878784 305.838207 
L 278.075477 305.840163 
L 277.27217 305.838666 
L 276.468863 305.834996 
L 275.665557 305.834669 
L 274.86225 305.837449 
L 274.058943 305.838765 
L 273.255636 305.839197 
L 272.45233 305.839351 
L 271.649023 305.840138 
L 270.845716 305.840884 
L 270.042409 305.84103 
L 269.239102 305.841005 
L 268.435796 305.840612 
L 267.632489 305.840116 
L 266.829182 305.839075 
L 266.025875 305.839638 
L 265.222568 305.840919 
L 264.419262 305.841033 
L 263.615955 305.841013 
L 262.812648 305.840549 
L 262.009341 305.839641 
L 261.206034 305.84025 
L 260.402728 305.840296 
L 259.599421 305.840831 
L 258.796114 305.841028 
L 257.992807 305.841034 
L 257.1895 305.841034 
L 256.386194 305.841034 
L 255.582887 305.841034 
L 254.77958 305.841034 
L 253.976273 305.841026 
L 253.172966 305.840797 
L 252.36966 305.840316 
z
" style="fill:#ff0000;fill-opacity:0.75;"/>
   </g>
   <g id="PolyCollection_2">
    <path clip-path="url(#p2276a9a37f)" d="M 252.36966 254.523951 
L 252.36966 254.52539 
L 253.172966 254.524906 
L 253.976273 254.524679 
L 254.77958 254.52467 
L 255.582887 254.52467 
L 256.386194 254.52467 
L 257.1895 254.52467 
L 257.992807 254.52467 
L 258.796114 254.524677 
L 259.599421 254.524872 
L 260.402728 254.525409 
L 261.206034 254.525449 
L 262.009341 254.526064 
L 262.812648 254.525152 
L 263.615955 254.524691 
L 264.419262 254.524671 
L 265.222568 254.524745 
L 266.025875 254.5256 
L 266.829182 254.526012 
L 267.632489 254.525497 
L 268.435796 254.52509 
L 269.239102 254.524699 
L 270.042409 254.524674 
L 270.845716 254.524819 
L 271.649023 254.525564 
L 272.45233 254.526349 
L 273.255636 254.526437 
L 274.058943 254.526367 
L 274.86225 254.527719 
L 275.665557 254.530974 
L 276.468863 254.530697 
L 277.27217 254.527028 
L 278.075477 254.525532 
L 278.878784 254.527492 
L 279.682091 254.529366 
L 280.485397 254.532298 
L 281.288704 254.53049 
L 282.092011 254.528138 
L 282.895318 254.526747 
L 283.698625 254.526699 
L 284.501931 254.526317 
L 285.305238 254.525263 
L 286.108545 254.525522 
L 286.911852 254.526865 
L 287.715159 254.530766 
L 288.518465 254.53201 
L 289.321772 254.529886 
L 290.125079 254.529891 
L 290.928386 254.528218 
L 291.731693 254.529595 
L 292.534999 254.528379 
L 293.338306 254.527397 
L 294.141613 254.52766 
L 294.94492 254.527878 
L 295.748227 254.527292 
L 296.551533 254.529655 
L 297.35484 254.529387 
L 298.158147 254.529345 
L 298.961454 254.528776 
L 299.764761 254.526918 
L 300.568067 254.526772 
L 301.371374 254.543807 
L 302.174681 254.588399 
L 302.977988 254.625018 
L 303.781295 254.742691 
L 304.584601 254.818547 
L 305.387908 254.670411 
L 306.191215 254.62591 
L 306.994522 254.619517 
L 307.797828 254.608346 
L 308.601135 254.612549 
L 309.404442 254.620916 
L 310.207749 254.619858 
L 311.011056 254.635815 
L 311.814362 254.636242 
L 312.617669 254.633672 
L 313.420976 254.644259 
L 314.224283 254.682108 
L 315.02759 254.868754 
L 315.830896 257.395324 
L 316.634203 267.353761 
L 317.43751 263.363523 
L 318.240817 255.698261 
L 319.044124 254.759333 
L 319.84743 254.66445 
L 320.650737 254.632091 
L 321.454044 254.630144 
L 322.257351 254.632179 
L 323.060658 254.614518 
L 323.863964 254.612534 
L 324.667271 254.615429 
L 325.470578 254.622632 
L 326.273885 254.655784 
L 327.077192 254.638225 
L 327.880498 254.620914 
L 328.683805 254.662292 
L 329.487112 254.697464 
L 330.290419 254.64402 
L 331.093726 254.600849 
L 331.897032 254.559712 
L 331.897032 254.489629 
L 331.897032 254.489629 
L 331.093726 254.448492 
L 330.290419 254.405321 
L 329.487112 254.351877 
L 328.683805 254.387049 
L 327.880498 254.428427 
L 327.077192 254.411116 
L 326.273885 254.393557 
L 325.470578 254.426709 
L 324.667271 254.433912 
L 323.863964 254.436806 
L 323.060658 254.434823 
L 322.257351 254.417162 
L 321.454044 254.419197 
L 320.650737 254.41725 
L 319.84743 254.384891 
L 319.044124 254.290008 
L 318.240817 253.35108 
L 317.43751 245.685818 
L 316.634203 241.69558 
L 315.830896 251.654017 
L 315.02759 254.180587 
L 314.224283 254.367233 
L 313.420976 254.405082 
L 312.617669 254.415669 
L 311.814362 254.413099 
L 311.011056 254.413526 
L 310.207749 254.429483 
L 309.404442 254.428425 
L 308.601135 254.436792 
L 307.797828 254.440994 
L 306.994522 254.429824 
L 306.191215 254.423431 
L 305.387908 254.37893 
L 304.584601 254.230794 
L 303.781295 254.30665 
L 302.977988 254.424323 
L 302.174681 254.460942 
L 301.371374 254.505534 
L 300.568067 254.522569 
L 299.764761 254.522423 
L 298.961454 254.520565 
L 298.158147 254.519996 
L 297.35484 254.519954 
L 296.551533 254.519686 
L 295.748227 254.522049 
L 294.94492 254.521463 
L 294.141613 254.521681 
L 293.338306 254.521944 
L 292.534999 254.520962 
L 291.731693 254.519746 
L 290.928386 254.521122 
L 290.125079 254.51945 
L 289.321772 254.519455 
L 288.518465 254.517331 
L 287.715159 254.518575 
L 286.911852 254.522476 
L 286.108545 254.523819 
L 285.305238 254.524078 
L 284.501931 254.523024 
L 283.698625 254.522642 
L 282.895318 254.522594 
L 282.092011 254.521203 
L 281.288704 254.518851 
L 280.485397 254.517042 
L 279.682091 254.519975 
L 278.878784 254.521849 
L 278.075477 254.523809 
L 277.27217 254.522313 
L 276.468863 254.518644 
L 275.665557 254.518367 
L 274.86225 254.521622 
L 274.058943 254.522974 
L 273.255636 254.522904 
L 272.45233 254.522992 
L 271.649023 254.523777 
L 270.845716 254.524522 
L 270.042409 254.524667 
L 269.239102 254.524642 
L 268.435796 254.524251 
L 267.632489 254.523844 
L 266.829182 254.523329 
L 266.025875 254.523741 
L 265.222568 254.524596 
L 264.419262 254.52467 
L 263.615955 254.52465 
L 262.812648 254.524189 
L 262.009341 254.523276 
L 261.206034 254.523892 
L 260.402728 254.523932 
L 259.599421 254.524469 
L 258.796114 254.524664 
L 257.992807 254.52467 
L 257.1895 254.52467 
L 256.386194 254.52467 
L 255.582887 254.52467 
L 254.77958 254.52467 
L 253.976273 254.524662 
L 253.172966 254.524435 
L 252.36966 254.523951 
z
" style="fill:#ff0000;fill-opacity:0.75;"/>
   </g>
   <g id="PolyCollection_3">
    <path clip-path="url(#p2276a9a37f)" d="M 301.883515 203.169871 
L 301.883515 203.246743 
L 302.18679 203.264125 
L 302.490065 203.275981 
L 302.793339 203.284364 
L 303.096614 203.296763 
L 303.399889 203.325262 
L 303.703164 203.383466 
L 304.006439 203.46442 
L 304.309714 203.520634 
L 304.612988 203.503703 
L 304.916263 203.427647 
L 305.219538 203.350708 
L 305.522813 203.307155 
L 305.826088 203.290976 
L 306.129363 203.284212 
L 306.432637 203.278181 
L 306.735912 203.274267 
L 307.039187 203.274321 
L 307.342462 203.27618 
L 307.645737 203.278182 
L 307.949012 203.281858 
L 308.252286 203.287803 
L 308.555561 203.293213 
L 308.858836 203.295424 
L 309.162111 203.294475 
L 309.465386 203.291694 
L 309.768661 203.289228 
L 310.071936 203.289414 
L 310.37521 203.291933 
L 310.678485 203.294579 
L 310.98176 203.296354 
L 311.285035 203.297113 
L 311.58831 203.296329 
L 311.891585 203.29325 
L 312.194859 203.288398 
L 312.498134 203.285045 
L 312.801409 203.286631 
L 313.104684 203.292599 
L 313.407959 203.300346 
L 313.711234 203.310572 
L 314.014508 203.32615 
L 314.317783 203.348053 
L 314.621058 203.377931 
L 314.924333 203.426829 
L 315.227608 203.541009 
L 315.530883 203.900948 
L 315.834157 205.043259 
L 316.137432 207.842769 
L 316.440707 212.317915 
L 316.743982 216.037398 
L 317.047257 215.811596 
L 317.350532 211.851837 
L 317.653806 207.472763 
L 317.957081 204.870947 
L 318.260356 203.84887 
L 318.563631 203.527299 
L 318.866906 203.417912 
L 319.170181 203.371259 
L 319.473455 203.347582 
L 319.77673 203.330007 
L 320.080005 203.313226 
L 320.38328 203.299934 
L 320.686555 203.29285 
L 320.98983 203.290737 
L 321.293104 203.291079 
L 321.596379 203.292565 
L 321.899654 203.294203 
L 322.202929 203.294908 
L 322.506204 203.294024 
L 322.809479 203.292116 
L 323.112754 203.290763 
L 323.416028 203.290002 
L 323.719303 203.288539 
L 324.022578 203.287447 
L 324.325853 203.28905 
L 324.629128 203.292592 
L 324.932403 203.294689 
L 325.235677 203.293597 
L 325.538952 203.293158 
L 325.842227 203.300206 
L 326.145502 203.31484 
L 326.448777 203.326831 
L 326.752052 203.326107 
L 327.055326 203.31482 
L 327.358601 203.303327 
L 327.661876 203.298024 
L 327.965151 203.299476 
L 328.268426 203.307132 
L 328.571701 203.322075 
L 328.874975 203.344811 
L 329.17825 203.366665 
L 329.481525 203.370949 
L 329.7848 203.353162 
L 330.088075 203.329157 
L 330.39135 203.314735 
L 330.694624 203.309119 
L 330.997899 203.30212 
L 331.301174 203.287709 
L 331.604449 203.26718 
L 331.907724 203.24515 
L 331.907724 203.171464 
L 331.907724 203.171464 
L 331.604449 203.149433 
L 331.301174 203.128904 
L 330.997899 203.114494 
L 330.694624 203.107495 
L 330.39135 203.101878 
L 330.088075 203.087457 
L 329.7848 203.063452 
L 329.481525 203.045665 
L 329.17825 203.049948 
L 328.874975 203.071803 
L 328.571701 203.094539 
L 328.268426 203.109481 
L 327.965151 203.117138 
L 327.661876 203.118589 
L 327.358601 203.113286 
L 327.055326 203.101794 
L 326.752052 203.090506 
L 326.448777 203.089782 
L 326.145502 203.101774 
L 325.842227 203.116408 
L 325.538952 203.123455 
L 325.235677 203.123017 
L 324.932403 203.121925 
L 324.629128 203.124022 
L 324.325853 203.127564 
L 324.022578 203.129167 
L 323.719303 203.128074 
L 323.416028 203.126612 
L 323.112754 203.12585 
L 322.809479 203.124498 
L 322.506204 203.122589 
L 322.202929 203.121705 
L 321.899654 203.122411 
L 321.596379 203.124049 
L 321.293104 203.125535 
L 320.98983 203.125877 
L 320.686555 203.123764 
L 320.38328 203.11668 
L 320.080005 203.103388 
L 319.77673 203.086607 
L 319.473455 203.069031 
L 319.170181 203.045355 
L 318.866906 202.998702 
L 318.563631 202.889314 
L 318.260356 202.567744 
L 317.957081 201.545667 
L 317.653806 198.94385 
L 317.350532 194.564777 
L 317.047257 190.605018 
L 316.743982 190.379216 
L 316.440707 194.098699 
L 316.137432 198.573845 
L 315.834157 201.373355 
L 315.530883 202.515665 
L 315.227608 202.875604 
L 314.924333 202.989785 
L 314.621058 203.038683 
L 314.317783 203.068561 
L 314.014508 203.090463 
L 313.711234 203.106042 
L 313.407959 203.116267 
L 313.104684 203.124015 
L 312.801409 203.129983 
L 312.498134 203.131568 
L 312.194859 203.128216 
L 311.891585 203.123363 
L 311.58831 203.120285 
L 311.285035 203.119501 
L 310.98176 203.12026 
L 310.678485 203.122035 
L 310.37521 203.124681 
L 310.071936 203.1272 
L 309.768661 203.127386 
L 309.465386 203.124919 
L 309.162111 203.122139 
L 308.858836 203.121189 
L 308.555561 203.1234 
L 308.252286 203.12881 
L 307.949012 203.134756 
L 307.645737 203.138431 
L 307.342462 203.140434 
L 307.039187 203.142292 
L 306.735912 203.142346 
L 306.432637 203.138433 
L 306.129363 203.132402 
L 305.826088 203.125637 
L 305.522813 203.109458 
L 305.219538 203.065905 
L 304.916263 202.988966 
L 304.612988 202.91291 
L 304.309714 202.895979 
L 304.006439 202.952193 
L 303.703164 203.033148 
L 303.399889 203.091352 
L 303.096614 203.119851 
L 302.793339 203.132249 
L 302.490065 203.140632 
L 302.18679 203.152488 
L 301.883515 203.169871 
z
" style="fill:#ff0000;fill-opacity:0.75;"/>
   </g>
   <g id="PolyCollection_4">
    <path clip-path="url(#p2276a9a37f)" d="M 301.862953 151.774162 
L 301.862953 152.009724 
L 303.885889 152.233269 
L 305.908825 152.12598 
L 307.931762 152.101558 
L 309.954698 152.089107 
L 311.977634 152.153175 
L 314.00057 152.253641 
L 316.023507 164.721034 
L 318.046443 158.58121 
L 320.069379 152.267312 
L 322.092316 152.196323 
L 324.115252 152.119971 
L 326.138188 152.19499 
L 328.161125 152.302268 
L 330.184061 152.523165 
L 332.206997 151.971111 
L 334.229934 151.891951 
L 336.25287 151.891943 
L 338.275806 151.891943 
L 340.298742 151.891943 
L 342.321679 151.891943 
L 344.344615 151.891943 
L 346.367551 151.891943 
L 348.390488 151.891943 
L 350.413424 151.891943 
L 352.43636 151.891943 
L 354.459297 151.891943 
L 356.482233 151.891943 
L 358.505169 151.891943 
L 360.528106 151.891943 
L 362.551042 151.891943 
L 364.573978 151.891943 
L 366.596915 151.891943 
L 368.619851 151.891943 
L 370.642787 151.891943 
L 372.665723 151.891943 
L 374.68866 151.891943 
L 376.711596 151.891943 
L 378.734532 151.891943 
L 380.757469 151.891943 
L 382.780405 151.891943 
L 384.803341 151.891943 
L 386.826278 151.891943 
L 388.849214 151.891943 
L 390.87215 151.891943 
L 392.895087 151.891943 
L 394.918023 151.891943 
L 396.940959 151.891943 
L 398.963896 151.891943 
L 400.986832 151.891943 
L 403.009768 151.891943 
L 405.032704 151.891943 
L 407.055641 151.891943 
L 409.078577 151.891943 
L 411.101513 151.891943 
L 413.12445 151.891943 
L 415.147386 151.891943 
L 417.170322 151.891943 
L 419.193259 151.891943 
L 421.216195 151.891943 
L 423.239131 151.891943 
L 425.262068 151.891943 
L 427.285004 151.891943 
L 429.30794 151.891943 
L 431.330876 151.891943 
L 433.353813 151.891943 
L 435.376749 151.891943 
L 437.399685 151.891943 
L 439.422622 151.891943 
L 441.445558 151.891943 
L 443.468494 151.891943 
L 445.491431 151.891943 
L 447.514367 151.891943 
L 449.537303 151.891943 
L 451.56024 151.891943 
L 453.583176 151.891943 
L 455.606112 151.891943 
L 457.629049 151.891943 
L 459.651985 151.891943 
L 461.674921 151.891943 
L 463.697857 151.891943 
L 465.720794 151.891943 
L 467.74373 151.891943 
L 469.766666 151.891943 
L 471.789603 151.891943 
L 473.812539 151.891943 
L 475.835475 151.891943 
L 477.858412 151.891943 
L 479.881348 151.891943 
L 481.904284 151.89294 
L 483.927221 151.892026 
L 485.950157 151.891943 
L 487.973093 151.891943 
L 489.99603 151.89277 
L 492.018966 151.893738 
L 494.041902 151.89195 
L 496.064838 151.891943 
L 498.087775 151.891943 
L 500.110711 151.891951 
L 502.133647 151.895317 
L 502.133647 151.888569 
L 502.133647 151.888569 
L 500.110711 151.891935 
L 498.087775 151.891943 
L 496.064838 151.891943 
L 494.041902 151.891937 
L 492.018966 151.890149 
L 489.99603 151.891116 
L 487.973093 151.891943 
L 485.950157 151.891943 
L 483.927221 151.89186 
L 481.904284 151.890946 
L 479.881348 151.891943 
L 477.858412 151.891943 
L 475.835475 151.891943 
L 473.812539 151.891943 
L 471.789603 151.891943 
L 469.766666 151.891943 
L 467.74373 151.891943 
L 465.720794 151.891943 
L 463.697857 151.891943 
L 461.674921 151.891943 
L 459.651985 151.891943 
L 457.629049 151.891943 
L 455.606112 151.891943 
L 453.583176 151.891943 
L 451.56024 151.891943 
L 449.537303 151.891943 
L 447.514367 151.891943 
L 445.491431 151.891943 
L 443.468494 151.891943 
L 441.445558 151.891943 
L 439.422622 151.891943 
L 437.399685 151.891943 
L 435.376749 151.891943 
L 433.353813 151.891943 
L 431.330876 151.891943 
L 429.30794 151.891943 
L 427.285004 151.891943 
L 425.262068 151.891943 
L 423.239131 151.891943 
L 421.216195 151.891943 
L 419.193259 151.891943 
L 417.170322 151.891943 
L 415.147386 151.891943 
L 413.12445 151.891943 
L 411.101513 151.891943 
L 409.078577 151.891943 
L 407.055641 151.891943 
L 405.032704 151.891943 
L 403.009768 151.891943 
L 400.986832 151.891943 
L 398.963896 151.891943 
L 396.940959 151.891943 
L 394.918023 151.891943 
L 392.895087 151.891943 
L 390.87215 151.891943 
L 388.849214 151.891943 
L 386.826278 151.891943 
L 384.803341 151.891943 
L 382.780405 151.891943 
L 380.757469 151.891943 
L 378.734532 151.891943 
L 376.711596 151.891943 
L 374.68866 151.891943 
L 372.665723 151.891943 
L 370.642787 151.891943 
L 368.619851 151.891943 
L 366.596915 151.891943 
L 364.573978 151.891943 
L 362.551042 151.891943 
L 360.528106 151.891943 
L 358.505169 151.891943 
L 356.482233 151.891943 
L 354.459297 151.891943 
L 352.43636 151.891943 
L 350.413424 151.891943 
L 348.390488 151.891943 
L 346.367551 151.891943 
L 344.344615 151.891943 
L 342.321679 151.891943 
L 340.298742 151.891943 
L 338.275806 151.891943 
L 336.25287 151.891943 
L 334.229934 151.891935 
L 332.206997 151.812776 
L 330.184061 151.260722 
L 328.161125 151.481618 
L 326.138188 151.588896 
L 324.115252 151.663915 
L 322.092316 151.587564 
L 320.069379 151.516575 
L 318.046443 145.202677 
L 316.023507 139.062852 
L 314.00057 151.530246 
L 311.977634 151.630712 
L 309.954698 151.694779 
L 307.931762 151.682329 
L 305.908825 151.657907 
L 303.885889 151.550617 
L 301.862953 151.774162 
z
" style="fill:#ff0000;fill-opacity:0.75;"/>
   </g>
   <g id="PolyCollection_5">
    <path clip-path="url(#p2276a9a37f)" d="M 301.865931 100.500572 
L 301.865931 100.650587 
L 302.168708 100.67384 
L 302.471486 100.687007 
L 302.774264 100.691416 
L 303.077041 100.693873 
L 303.379819 100.700918 
L 303.682597 100.715504 
L 303.985374 100.736447 
L 304.288152 100.758318 
L 304.59093 100.773617 
L 304.893707 100.77779 
L 305.196485 100.771639 
L 305.499263 100.759323 
L 305.80204 100.746227 
L 306.104818 100.737426 
L 306.407596 100.735355 
L 306.710374 100.739452 
L 307.013151 100.748009 
L 307.315929 100.758097 
L 307.618707 100.764769 
L 307.921484 100.763816 
L 308.224262 100.755335 
L 308.52704 100.743113 
L 308.829817 100.731516 
L 309.132595 100.723752 
L 309.435373 100.721289 
L 309.73815 100.723098 
L 310.040928 100.725745 
L 310.343706 100.725722 
L 310.646483 100.722329 
L 310.949261 100.717792 
L 311.252039 100.714857 
L 311.554816 100.71487 
L 311.857594 100.717072 
L 312.160372 100.719031 
L 312.463149 100.719374 
L 312.765927 100.720416 
L 313.068705 100.72579 
L 313.371483 100.735272 
L 313.67426 100.744901 
L 313.977038 100.752924 
L 314.279816 100.762913 
L 314.582593 100.781134 
L 314.885371 100.817126 
L 315.188149 100.897717 
L 315.490926 101.101795 
L 315.793704 101.616133 
L 316.096482 102.762983 
L 316.399259 104.868235 
L 316.702037 107.898741 
L 317.004815 111.124319 
L 317.307592 113.293036 
L 317.61037 113.40467 
L 317.913148 111.439478 
L 318.215925 108.342479 
L 318.518703 105.318483 
L 318.821481 103.118496 
L 319.124258 101.848413 
L 319.427036 101.237936 
L 319.729814 100.975261 
L 320.032592 100.860751 
L 320.335369 100.802897 
L 320.638147 100.767938 
L 320.940925 100.743946 
L 321.243702 100.726229 
L 321.54648 100.713334 
L 321.849258 100.705439 
L 322.152035 100.703268 
L 322.454813 100.707074 
L 322.757591 100.714876 
L 323.060368 100.721961 
L 323.363146 100.723885 
L 323.665924 100.720361 
L 323.968701 100.71524 
L 324.271479 100.712175 
L 324.574257 100.711161 
L 324.877034 100.710044 
L 325.179812 100.707825 
L 325.48259 100.704814 
L 325.785367 100.70136 
L 326.088145 100.698399 
L 326.390923 100.697472 
L 326.693701 100.698593 
L 326.996478 100.699555 
L 327.299256 100.698776 
L 327.602034 100.698647 
L 327.904811 100.7068 
L 328.207589 100.737459 
L 328.510367 100.81433 
L 328.813144 100.965315 
L 329.115922 101.193775 
L 329.4187 101.441131 
L 329.721477 101.597256 
L 330.024255 101.580266 
L 330.327033 101.407562 
L 330.62981 101.173511 
L 330.932588 100.966323 
L 331.235366 100.818973 
L 331.538143 100.722418 
L 331.840921 100.658765 
L 331.840921 100.492394 
L 331.840921 100.492394 
L 331.538143 100.428741 
L 331.235366 100.332186 
L 330.932588 100.184836 
L 330.62981 99.977648 
L 330.327033 99.743597 
L 330.024255 99.570893 
L 329.721477 99.553903 
L 329.4187 99.710029 
L 329.115922 99.957384 
L 328.813144 100.185845 
L 328.510367 100.336829 
L 328.207589 100.4137 
L 327.904811 100.444359 
L 327.602034 100.452513 
L 327.299256 100.452383 
L 326.996478 100.451604 
L 326.693701 100.452566 
L 326.390923 100.453687 
L 326.088145 100.452761 
L 325.785367 100.449799 
L 325.48259 100.446345 
L 325.179812 100.443334 
L 324.877034 100.441115 
L 324.574257 100.439998 
L 324.271479 100.438984 
L 323.968701 100.435919 
L 323.665924 100.430798 
L 323.363146 100.427274 
L 323.060368 100.429198 
L 322.757591 100.436283 
L 322.454813 100.444085 
L 322.152035 100.447891 
L 321.849258 100.44572 
L 321.54648 100.437825 
L 321.243702 100.42493 
L 320.940925 100.407213 
L 320.638147 100.383221 
L 320.335369 100.348262 
L 320.032592 100.290408 
L 319.729814 100.175898 
L 319.427036 99.913223 
L 319.124258 99.302746 
L 318.821481 98.032663 
L 318.518703 95.832676 
L 318.215925 92.80868 
L 317.913148 89.711681 
L 317.61037 87.746489 
L 317.307592 87.858123 
L 317.004815 90.02684 
L 316.702037 93.252418 
L 316.399259 96.282924 
L 316.096482 98.388176 
L 315.793704 99.535026 
L 315.490926 100.049365 
L 315.188149 100.253442 
L 314.885371 100.334033 
L 314.582593 100.370025 
L 314.279816 100.388246 
L 313.977038 100.398235 
L 313.67426 100.406258 
L 313.371483 100.415887 
L 313.068705 100.42537 
L 312.765927 100.430744 
L 312.463149 100.431785 
L 312.160372 100.432128 
L 311.857594 100.434087 
L 311.554816 100.436289 
L 311.252039 100.436302 
L 310.949261 100.433368 
L 310.646483 100.42883 
L 310.343706 100.425437 
L 310.040928 100.425414 
L 309.73815 100.428061 
L 309.435373 100.42987 
L 309.132595 100.427407 
L 308.829817 100.419643 
L 308.52704 100.408046 
L 308.224262 100.395824 
L 307.921484 100.387343 
L 307.618707 100.386391 
L 307.315929 100.393062 
L 307.013151 100.40315 
L 306.710374 100.411707 
L 306.407596 100.415804 
L 306.104818 100.413733 
L 305.80204 100.404932 
L 305.499263 100.391836 
L 305.196485 100.37952 
L 304.893707 100.373369 
L 304.59093 100.377542 
L 304.288152 100.392842 
L 303.985374 100.414712 
L 303.682597 100.435655 
L 303.379819 100.450241 
L 303.077041 100.457286 
L 302.774264 100.459743 
L 302.471486 100.464152 
L 302.168708 100.477319 
L 301.865931 100.500572 
z
" style="fill:#ff0000;fill-opacity:0.75;"/>
   </g>
   <g id="PolyCollection_6">
    <path clip-path="url(#p2276a9a37f)" d="M 295.022404 49.258445 
L 295.022404 49.259987 
L 295.394544 49.259765 
L 295.766684 49.259458 
L 296.138824 49.259503 
L 296.510964 49.25984 
L 296.883104 49.259974 
L 297.255244 49.259677 
L 297.627384 49.259356 
L 297.999523 49.259248 
L 298.371663 49.259303 
L 298.743803 49.259565 
L 299.115943 49.25992 
L 299.488083 49.259924 
L 299.860223 49.259571 
L 300.232363 49.25932 
L 300.604503 49.259522 
L 300.976643 49.262067 
L 301.348783 49.273692 
L 301.720923 49.299612 
L 302.093063 49.327534 
L 302.465203 49.343166 
L 302.837343 49.350852 
L 303.209483 49.35979 
L 303.581623 49.380466 
L 303.953763 49.417687 
L 304.325902 49.449877 
L 304.698042 49.442854 
L 305.070182 49.399817 
L 305.442322 49.357974 
L 305.814462 49.341145 
L 306.186602 49.337893 
L 306.558742 49.336557 
L 306.930882 49.340013 
L 307.303022 49.341554 
L 307.675162 49.336225 
L 308.047302 49.33445 
L 308.419442 49.342429 
L 308.791582 49.352646 
L 309.163722 49.354374 
L 309.535862 49.346764 
L 309.908002 49.339693 
L 310.280142 49.338897 
L 310.652281 49.340366 
L 311.024421 49.340562 
L 311.396561 49.346225 
L 311.768701 49.356184 
L 312.140841 49.355029 
L 312.512981 49.347712 
L 312.885121 49.353752 
L 313.257261 49.366865 
L 313.629401 49.373569 
L 314.001541 49.38472 
L 314.373681 49.420102 
L 314.745821 49.498585 
L 315.117961 49.675887 
L 315.490101 50.215457 
L 315.862241 51.958376 
L 316.234381 55.985964 
L 316.60652 60.908611 
L 316.97866 62.088307 
L 317.3508 58.201118 
L 317.72294 53.41359 
L 318.09508 50.721459 
L 318.46722 49.772929 
L 318.83936 49.500339 
L 319.2115 49.402698 
L 319.58364 49.36392 
L 319.95578 49.355085 
L 320.32792 49.351494 
L 320.70006 49.349784 
L 321.0722 49.353243 
L 321.44434 49.350783 
L 321.81648 49.343917 
L 322.18862 49.344098 
L 322.56076 49.345492 
L 322.932899 49.340871 
L 323.305039 49.333726 
L 323.677179 49.327016 
L 324.049319 49.326158 
L 324.421459 49.334932 
L 324.793599 49.342817 
L 325.165739 49.338677 
L 325.537879 49.332848 
L 325.910019 49.338988 
L 326.282159 49.351341 
L 326.654299 49.356085 
L 327.026439 49.352129 
L 327.398579 49.347444 
L 327.770719 49.348395 
L 328.142859 49.364769 
L 328.514999 49.39964 
L 328.887139 49.44038 
L 329.259278 49.464829 
L 329.631418 49.45493 
L 330.003558 49.417768 
L 330.375698 49.378254 
L 330.747838 49.349998 
L 331.119978 49.327654 
L 331.492118 49.30336 
L 331.864258 49.28045 
L 331.864258 49.237982 
L 331.864258 49.237982 
L 331.492118 49.215072 
L 331.119978 49.190778 
L 330.747838 49.168434 
L 330.375698 49.140177 
L 330.003558 49.100664 
L 329.631418 49.063502 
L 329.259278 49.053603 
L 328.887139 49.078051 
L 328.514999 49.118792 
L 328.142859 49.153663 
L 327.770719 49.170037 
L 327.398579 49.170988 
L 327.026439 49.166302 
L 326.654299 49.162347 
L 326.282159 49.167091 
L 325.910019 49.179444 
L 325.537879 49.185584 
L 325.165739 49.179754 
L 324.793599 49.175615 
L 324.421459 49.1835 
L 324.049319 49.192274 
L 323.677179 49.191416 
L 323.305039 49.184706 
L 322.932899 49.177561 
L 322.56076 49.17294 
L 322.18862 49.174334 
L 321.81648 49.174514 
L 321.44434 49.167649 
L 321.0722 49.165188 
L 320.70006 49.168648 
L 320.32792 49.166938 
L 319.95578 49.163347 
L 319.58364 49.154512 
L 319.2115 49.115733 
L 318.83936 49.018093 
L 318.46722 48.745503 
L 318.09508 47.796973 
L 317.72294 45.104842 
L 317.3508 40.317313 
L 316.97866 36.430125 
L 316.60652 37.609821 
L 316.234381 42.532468 
L 315.862241 46.560056 
L 315.490101 48.302974 
L 315.117961 48.842545 
L 314.745821 49.019847 
L 314.373681 49.09833 
L 314.001541 49.133712 
L 313.629401 49.144863 
L 313.257261 49.151567 
L 312.885121 49.16468 
L 312.512981 49.17072 
L 312.140841 49.163402 
L 311.768701 49.162247 
L 311.396561 49.172207 
L 311.024421 49.17787 
L 310.652281 49.178066 
L 310.280142 49.179535 
L 309.908002 49.178739 
L 309.535862 49.171668 
L 309.163722 49.164058 
L 308.791582 49.165786 
L 308.419442 49.176003 
L 308.047302 49.183982 
L 307.675162 49.182207 
L 307.303022 49.176877 
L 306.930882 49.178419 
L 306.558742 49.181875 
L 306.186602 49.180538 
L 305.814462 49.177287 
L 305.442322 49.160457 
L 305.070182 49.118615 
L 304.698042 49.075578 
L 304.325902 49.068555 
L 303.953763 49.100745 
L 303.581623 49.137966 
L 303.209483 49.158642 
L 302.837343 49.167579 
L 302.465203 49.175266 
L 302.093063 49.190897 
L 301.720923 49.21882 
L 301.348783 49.244739 
L 300.976643 49.256365 
L 300.604503 49.25891 
L 300.232363 49.259112 
L 299.860223 49.258861 
L 299.488083 49.258508 
L 299.115943 49.258512 
L 298.743803 49.258867 
L 298.371663 49.259128 
L 297.999523 49.259184 
L 297.627384 49.259076 
L 297.255244 49.258755 
L 296.883104 49.258457 
L 296.510964 49.258592 
L 296.138824 49.258929 
L 295.766684 49.258973 
L 295.394544 49.258667 
L 295.022404 49.258445 
z
" style="fill:#ff0000;fill-opacity:0.75;"/>
   </g>
   <g id="LineCollection_1">
    <path clip-path="url(#p2276a9a37f)" d="M 316.640435 312.25558 
L 316.640435 299.426489 
" style="fill:none;stroke:#000000;stroke-width:1.5;"/>
    <path clip-path="url(#p2276a9a37f)" d="M 316.644042 260.939216 
L 316.644042 248.110125 
" style="fill:none;stroke:#000000;stroke-width:1.5;"/>
    <path clip-path="url(#p2276a9a37f)" d="M 316.82006 209.622852 
L 316.82006 196.793761 
" style="fill:none;stroke:#000000;stroke-width:1.5;"/>
    <path clip-path="url(#p2276a9a37f)" d="M 317.223278 158.306489 
L 317.223278 145.477398 
" style="fill:none;stroke:#000000;stroke-width:1.5;"/>
    <path clip-path="url(#p2276a9a37f)" d="M 317.934211 106.990125 
L 317.934211 94.161034 
" style="fill:none;stroke:#000000;stroke-width:1.5;"/>
    <path clip-path="url(#p2276a9a37f)" d="M 316.857268 55.673761 
L 316.857268 42.84467 
" style="fill:none;stroke:#000000;stroke-width:1.5;"/>
   </g>
   <g id="patch_3">
    <path d="M 226.746875 332.782125 
L 226.746875 22.318125 
" style="fill:none;stroke:#000000;stroke-linecap:square;stroke-linejoin:miter;stroke-width:0.8;"/>
   </g>
   <g id="patch_4">
    <path d="M 617.346875 332.782125 
L 617.346875 22.318125 
" style="fill:none;stroke:#000000;stroke-linecap:square;stroke-linejoin:miter;stroke-width:0.8;"/>
   </g>
   <g id="patch_5">
    <path d="M 226.746875 332.782125 
L 617.346875 332.782125 
" style="fill:none;stroke:#000000;stroke-linecap:square;stroke-linejoin:miter;stroke-width:0.8;"/>
   </g>
   <g id="patch_6">
    <path d="M 226.746875 22.318125 
L 617.346875 22.318125 
" style="fill:none;stroke:#000000;stroke-linecap:square;stroke-linejoin:miter;stroke-width:0.8;"/>
   </g>
   <g id="text_16">
    <!-- OE2 for schreiber2018/ismir2018 -->
    <g transform="translate(322.301562 16.318125)scale(0.12 -0.12)">
     <use xlink:href="#DejaVuSans-4f"/>
     <use x="78.710938" xlink:href="#DejaVuSans-45"/>
     <use x="141.894531" xlink:href="#DejaVuSans-32"/>
     <use x="205.517578" xlink:href="#DejaVuSans-20"/>
     <use x="237.304688" xlink:href="#DejaVuSans-66"/>
     <use x="272.509766" xlink:href="#DejaVuSans-6f"/>
     <use x="333.691406" xlink:href="#DejaVuSans-72"/>
     <use x="374.804688" xlink:href="#DejaVuSans-20"/>
     <use x="406.591797" xlink:href="#DejaVuSans-73"/>
     <use x="458.691406" xlink:href="#DejaVuSans-63"/>
     <use x="513.671875" xlink:href="#DejaVuSans-68"/>
     <use x="577.050781" xlink:href="#DejaVuSans-72"/>
     <use x="618.132812" xlink:href="#DejaVuSans-65"/>
     <use x="679.65625" xlink:href="#DejaVuSans-69"/>
     <use x="707.439453" xlink:href="#DejaVuSans-62"/>
     <use x="770.916016" xlink:href="#DejaVuSans-65"/>
     <use x="832.439453" xlink:href="#DejaVuSans-72"/>
     <use x="873.552734" xlink:href="#DejaVuSans-32"/>
     <use x="937.175781" xlink:href="#DejaVuSans-30"/>
     <use x="1000.798828" xlink:href="#DejaVuSans-31"/>
     <use x="1064.421875" xlink:href="#DejaVuSans-38"/>
     <use x="1128.044922" xlink:href="#DejaVuSans-2f"/>
     <use x="1161.736328" xlink:href="#DejaVuSans-69"/>
     <use x="1189.519531" xlink:href="#DejaVuSans-73"/>
     <use x="1241.619141" xlink:href="#DejaVuSans-6d"/>
     <use x="1339.03125" xlink:href="#DejaVuSans-69"/>
     <use x="1366.814453" xlink:href="#DejaVuSans-72"/>
     <use x="1407.927734" xlink:href="#DejaVuSans-32"/>
     <use x="1471.550781" xlink:href="#DejaVuSans-30"/>
     <use x="1535.173828" xlink:href="#DejaVuSans-31"/>
     <use x="1598.796875" xlink:href="#DejaVuSans-38"/>
    </g>
   </g>
  </g>
 </g>
 <defs>
  <clipPath id="p2276a9a37f">
   <rect height="310.464" width="390.6" x="226.746875" y="22.318125"/>
  </clipPath>
 </defs>
</svg>
