<?xml version='1.0' encoding='utf-8'?>
<svg xmlns:xlink="http://www.w3.org/1999/xlink" xmlns="http://www.w3.org/2000/svg" id="chart-76d84954-5de0-4640-9ac9-e8e18a9e9919" class="pygal-chart" viewBox="0 0 800 600"><!--Generated with pygal 2.4.0 (lxml) ©Kozea 2012-2016 on 2020-05-05--><!--http://pygal.org--><!--http://github.com/Kozea/pygal--><defs><style type="text/css">#chart-76d84954-5de0-4640-9ac9-e8e18a9e9919{-webkit-user-select:none;-webkit-font-smoothing:antialiased;font-family:Helvetica,Arial,sans-serif}#chart-76d84954-5de0-4640-9ac9-e8e18a9e9919 .title{font-family:Helvetica,Arial,sans-serif;font-size:18px}#chart-76d84954-5de0-4640-9ac9-e8e18a9e9919 .legends .legend text{font-family:Helvetica,Arial,sans-serif;font-size:15px}#chart-76d84954-5de0-4640-9ac9-e8e18a9e9919 .axis text{font-family:Helvetica,Arial,sans-serif;font-size:15px}#chart-76d84954-5de0-4640-9ac9-e8e18a9e9919 .axis text.major{font-family:Helvetica,Arial,sans-serif;font-size:15px}#chart-76d84954-5de0-4640-9ac9-e8e18a9e9919 .text-overlay text.value{font-family:Helvetica,Arial,sans-serif;font-size:15px}#chart-76d84954-5de0-4640-9ac9-e8e18a9e9919 .text-overlay text.label{font-family:Helvetica,Arial,sans-serif;font-size:15px}#chart-76d84954-5de0-4640-9ac9-e8e18a9e9919 .tooltip{font-family:Helvetica,Arial,sans-serif;font-size:14px}#chart-76d84954-5de0-4640-9ac9-e8e18a9e9919 text.no_data{font-family:Helvetica,Arial,sans-serif;font-size:64px}
#chart-76d84954-5de0-4640-9ac9-e8e18a9e9919{background-color:transparent}#chart-76d84954-5de0-4640-9ac9-e8e18a9e9919 path,#chart-76d84954-5de0-4640-9ac9-e8e18a9e9919 line,#chart-76d84954-5de0-4640-9ac9-e8e18a9e9919 rect,#chart-76d84954-5de0-4640-9ac9-e8e18a9e9919 circle{-webkit-transition:150ms;-moz-transition:150ms;transition:150ms}#chart-76d84954-5de0-4640-9ac9-e8e18a9e9919 .graph &gt; .background{fill:transparent}#chart-76d84954-5de0-4640-9ac9-e8e18a9e9919 .plot &gt; .background{fill:white}#chart-76d84954-5de0-4640-9ac9-e8e18a9e9919 .graph{fill:rgba(0,0,0,.87)}#chart-76d84954-5de0-4640-9ac9-e8e18a9e9919 text.no_data{fill:rgba(0,0,0,1)}#chart-76d84954-5de0-4640-9ac9-e8e18a9e9919 .title{fill:rgba(0,0,0,1)}#chart-76d84954-5de0-4640-9ac9-e8e18a9e9919 .legends .legend text{fill:rgba(0,0,0,.87)}#chart-76d84954-5de0-4640-9ac9-e8e18a9e9919 .legends .legend:hover text{fill:rgba(0,0,0,1)}#chart-76d84954-5de0-4640-9ac9-e8e18a9e9919 .axis .line{stroke:rgba(0,0,0,1)}#chart-76d84954-5de0-4640-9ac9-e8e18a9e9919 .axis .guide.line{stroke:rgba(0,0,0,.54)}#chart-76d84954-5de0-4640-9ac9-e8e18a9e9919 .axis .major.line{stroke:rgba(0,0,0,.87)}#chart-76d84954-5de0-4640-9ac9-e8e18a9e9919 .axis text.major{fill:rgba(0,0,0,1)}#chart-76d84954-5de0-4640-9ac9-e8e18a9e9919 .axis.y .guides:hover .guide.line,#chart-76d84954-5de0-4640-9ac9-e8e18a9e9919 .line-graph .axis.x .guides:hover .guide.line,#chart-76d84954-5de0-4640-9ac9-e8e18a9e9919 .stackedline-graph .axis.x .guides:hover .guide.line,#chart-76d84954-5de0-4640-9ac9-e8e18a9e9919 .xy-graph .axis.x .guides:hover .guide.line{stroke:rgba(0,0,0,1)}#chart-76d84954-5de0-4640-9ac9-e8e18a9e9919 .axis .guides:hover text{fill:rgba(0,0,0,1)}#chart-76d84954-5de0-4640-9ac9-e8e18a9e9919 .reactive{fill-opacity:.7;stroke-opacity:.8}#chart-76d84954-5de0-4640-9ac9-e8e18a9e9919 .ci{stroke:rgba(0,0,0,.87)}#chart-76d84954-5de0-4640-9ac9-e8e18a9e9919 .reactive.active,#chart-76d84954-5de0-4640-9ac9-e8e18a9e9919 .active .reactive{fill-opacity:.8;stroke-opacity:.9;stroke-width:4}#chart-76d84954-5de0-4640-9ac9-e8e18a9e9919 .ci .reactive.active{stroke-width:1.5}#chart-76d84954-5de0-4640-9ac9-e8e18a9e9919 .series text{fill:rgba(0,0,0,1)}#chart-76d84954-5de0-4640-9ac9-e8e18a9e9919 .tooltip rect{fill:white;stroke:rgba(0,0,0,1);-webkit-transition:opacity 150ms;-moz-transition:opacity 150ms;transition:opacity 150ms}#chart-76d84954-5de0-4640-9ac9-e8e18a9e9919 .tooltip .label{fill:rgba(0,0,0,.87)}#chart-76d84954-5de0-4640-9ac9-e8e18a9e9919 .tooltip .label{fill:rgba(0,0,0,.87)}#chart-76d84954-5de0-4640-9ac9-e8e18a9e9919 .tooltip .legend{font-size:.8em;fill:rgba(0,0,0,.54)}#chart-76d84954-5de0-4640-9ac9-e8e18a9e9919 .tooltip .x_label{font-size:.6em;fill:rgba(0,0,0,1)}#chart-76d84954-5de0-4640-9ac9-e8e18a9e9919 .tooltip .xlink{font-size:.5em;text-decoration:underline}#chart-76d84954-5de0-4640-9ac9-e8e18a9e9919 .tooltip .value{font-size:1.5em}#chart-76d84954-5de0-4640-9ac9-e8e18a9e9919 .bound{font-size:.5em}#chart-76d84954-5de0-4640-9ac9-e8e18a9e9919 .max-value{font-size:.75em;fill:rgba(0,0,0,.54)}#chart-76d84954-5de0-4640-9ac9-e8e18a9e9919 .map-element{fill:white;stroke:rgba(0,0,0,.54) !important}#chart-76d84954-5de0-4640-9ac9-e8e18a9e9919 .map-element .reactive{fill-opacity:inherit;stroke-opacity:inherit}#chart-76d84954-5de0-4640-9ac9-e8e18a9e9919 .color-0,#chart-76d84954-5de0-4640-9ac9-e8e18a9e9919 .color-0 a:visited{stroke:#F44336;fill:#F44336}#chart-76d84954-5de0-4640-9ac9-e8e18a9e9919 .color-1,#chart-76d84954-5de0-4640-9ac9-e8e18a9e9919 .color-1 a:visited{stroke:#3F51B5;fill:#3F51B5}#chart-76d84954-5de0-4640-9ac9-e8e18a9e9919 .color-2,#chart-76d84954-5de0-4640-9ac9-e8e18a9e9919 .color-2 a:visited{stroke:#009688;fill:#009688}#chart-76d84954-5de0-4640-9ac9-e8e18a9e9919 .color-3,#chart-76d84954-5de0-4640-9ac9-e8e18a9e9919 .color-3 a:visited{stroke:#FFC107;fill:#FFC107}#chart-76d84954-5de0-4640-9ac9-e8e18a9e9919 .color-4,#chart-76d84954-5de0-4640-9ac9-e8e18a9e9919 .color-4 a:visited{stroke:#FF5722;fill:#FF5722}#chart-76d84954-5de0-4640-9ac9-e8e18a9e9919 .color-5,#chart-76d84954-5de0-4640-9ac9-e8e18a9e9919 .color-5 a:visited{stroke:#9C27B0;fill:#9C27B0}#chart-76d84954-5de0-4640-9ac9-e8e18a9e9919 .color-6,#chart-76d84954-5de0-4640-9ac9-e8e18a9e9919 .color-6 a:visited{stroke:#03A9F4;fill:#03A9F4}#chart-76d84954-5de0-4640-9ac9-e8e18a9e9919 .color-7,#chart-76d84954-5de0-4640-9ac9-e8e18a9e9919 .color-7 a:visited{stroke:#8BC34A;fill:#8BC34A}#chart-76d84954-5de0-4640-9ac9-e8e18a9e9919 .text-overlay .color-0 text{fill:black}#chart-76d84954-5de0-4640-9ac9-e8e18a9e9919 .text-overlay .color-1 text{fill:black}#chart-76d84954-5de0-4640-9ac9-e8e18a9e9919 .text-overlay .color-2 text{fill:black}#chart-76d84954-5de0-4640-9ac9-e8e18a9e9919 .text-overlay .color-3 text{fill:black}#chart-76d84954-5de0-4640-9ac9-e8e18a9e9919 .text-overlay .color-4 text{fill:black}#chart-76d84954-5de0-4640-9ac9-e8e18a9e9919 .text-overlay .color-5 text{fill:black}#chart-76d84954-5de0-4640-9ac9-e8e18a9e9919 .text-overlay .color-6 text{fill:black}#chart-76d84954-5de0-4640-9ac9-e8e18a9e9919 .text-overlay .color-7 text{fill:black}
#chart-76d84954-5de0-4640-9ac9-e8e18a9e9919 text.no_data{text-anchor:middle}#chart-76d84954-5de0-4640-9ac9-e8e18a9e9919 .guide.line{fill:none}#chart-76d84954-5de0-4640-9ac9-e8e18a9e9919 .centered{text-anchor:middle}#chart-76d84954-5de0-4640-9ac9-e8e18a9e9919 .title{text-anchor:middle}#chart-76d84954-5de0-4640-9ac9-e8e18a9e9919 .legends .legend text{fill-opacity:1}#chart-76d84954-5de0-4640-9ac9-e8e18a9e9919 .axis.x text{text-anchor:middle}#chart-76d84954-5de0-4640-9ac9-e8e18a9e9919 .axis.x:not(.web) text[transform]{text-anchor:start}#chart-76d84954-5de0-4640-9ac9-e8e18a9e9919 .axis.x:not(.web) text[transform].backwards{text-anchor:end}#chart-76d84954-5de0-4640-9ac9-e8e18a9e9919 .axis.y text{text-anchor:end}#chart-76d84954-5de0-4640-9ac9-e8e18a9e9919 .axis.y text[transform].backwards{text-anchor:start}#chart-76d84954-5de0-4640-9ac9-e8e18a9e9919 .axis.y2 text{text-anchor:start}#chart-76d84954-5de0-4640-9ac9-e8e18a9e9919 .axis.y2 text[transform].backwards{text-anchor:end}#chart-76d84954-5de0-4640-9ac9-e8e18a9e9919 .axis .guide.line{stroke-dasharray:1}#chart-76d84954-5de0-4640-9ac9-e8e18a9e9919 .axis .major.guide.line{stroke-dasharray:1}#chart-76d84954-5de0-4640-9ac9-e8e18a9e9919 .horizontal .axis.y .guide.line,#chart-76d84954-5de0-4640-9ac9-e8e18a9e9919 .horizontal .axis.y2 .guide.line,#chart-76d84954-5de0-4640-9ac9-e8e18a9e9919 .vertical .axis.x .guide.line{opacity:0}#chart-76d84954-5de0-4640-9ac9-e8e18a9e9919 .horizontal .axis.always_show .guide.line,#chart-76d84954-5de0-4640-9ac9-e8e18a9e9919 .vertical .axis.always_show .guide.line{opacity:1 !important}#chart-76d84954-5de0-4640-9ac9-e8e18a9e9919 .axis.y .guides:hover .guide.line,#chart-76d84954-5de0-4640-9ac9-e8e18a9e9919 .axis.y2 .guides:hover .guide.line,#chart-76d84954-5de0-4640-9ac9-e8e18a9e9919 .axis.x .guides:hover .guide.line{opacity:1}#chart-76d84954-5de0-4640-9ac9-e8e18a9e9919 .axis .guides:hover text{opacity:1}#chart-76d84954-5de0-4640-9ac9-e8e18a9e9919 .nofill{fill:none}#chart-76d84954-5de0-4640-9ac9-e8e18a9e9919 .subtle-fill{fill-opacity:.2}#chart-76d84954-5de0-4640-9ac9-e8e18a9e9919 .dot{stroke-width:1px;fill-opacity:1}#chart-76d84954-5de0-4640-9ac9-e8e18a9e9919 .dot.active{stroke-width:5px}#chart-76d84954-5de0-4640-9ac9-e8e18a9e9919 .dot.negative{fill:transparent}#chart-76d84954-5de0-4640-9ac9-e8e18a9e9919 text,#chart-76d84954-5de0-4640-9ac9-e8e18a9e9919 tspan{stroke:none !important}#chart-76d84954-5de0-4640-9ac9-e8e18a9e9919 .series text.active{opacity:1}#chart-76d84954-5de0-4640-9ac9-e8e18a9e9919 .tooltip rect{fill-opacity:.95;stroke-width:.5}#chart-76d84954-5de0-4640-9ac9-e8e18a9e9919 .tooltip text{fill-opacity:1}#chart-76d84954-5de0-4640-9ac9-e8e18a9e9919 .showable{visibility:hidden}#chart-76d84954-5de0-4640-9ac9-e8e18a9e9919 .showable.shown{visibility:visible}#chart-76d84954-5de0-4640-9ac9-e8e18a9e9919 .gauge-background{fill:rgba(229,229,229,1);stroke:none}#chart-76d84954-5de0-4640-9ac9-e8e18a9e9919 .bg-lines{stroke:transparent;stroke-width:2px}</style><script type="text/javascript">window.pygal = window.pygal || {};window.pygal.config = window.pygal.config || {};window.pygal.config['76d84954-5de0-4640-9ac9-e8e18a9e9919'] = {"allow_interruptions": false, "box_mode": "extremes", "classes": ["pygal-chart"], "css": ["file://style.css", "file://graph.css"], "defs": [], "disable_xml_declaration": false, "dots_size": 2.5, "dynamic_print_values": false, "explicit_size": false, "fill": false, "force_uri_protocol": "https", "formatter": null, "half_pie": false, "height": 600, "include_x_axis": false, "inner_radius": 0, "interpolate": null, "interpolation_parameters": {}, "interpolation_precision": 250, "inverse_y_axis": false, "js": ["//kozea.github.io/pygal.js/2.0.x/pygal-tooltips.min.js"], "legend_at_bottom": true, "legend_at_bottom_columns": 2, "legend_box_size": 12, "logarithmic": false, "margin": 20, "margin_bottom": 70, "margin_left": null, "margin_right": null, "margin_top": null, "max_scale": 16, "min_scale": 4, "missing_value_fill_truncation": "x", "no_data_text": "No data", "no_prefix": false, "order_min": null, "pretty_print": false, "print_labels": false, "print_values": false, "print_values_position": "center", "print_zeroes": true, "range": [0.0, 100.0], "rounded_bars": null, "secondary_range": null, "show_dots": true, "show_legend": true, "show_minor_x_labels": false, "show_minor_y_labels": true, "show_only_major_dots": true, "show_x_guides": true, "show_x_labels": true, "show_y_guides": true, "show_y_labels": true, "spacing": 10, "stack_from_top": false, "strict": false, "stroke": true, "stroke_style": null, "style": {"background": "transparent", "ci_colors": [], "colors": ["#F44336", "#3F51B5", "#009688", "#FFC107", "#FF5722", "#9C27B0", "#03A9F4", "#8BC34A", "#FF9800", "#E91E63", "#2196F3", "#4CAF50", "#FFEB3B", "#673AB7", "#00BCD4", "#CDDC39", "#9E9E9E", "#607D8B"], "font_family": "Helvetica, Arial, sans-serif", "foreground": "rgba(0, 0, 0, .87)", "foreground_strong": "rgba(0, 0, 0, 1)", "foreground_subtle": "rgba(0, 0, 0, .54)", "guide_stroke_dasharray": 1, "label_font_family": "Helvetica, Arial, sans-serif", "label_font_size": 15, "legend_font_family": "Helvetica, Arial, sans-serif", "legend_font_size": 15, "major_guide_stroke_dasharray": 1, "major_label_font_family": "Helvetica, Arial, sans-serif", "major_label_font_size": 15, "no_data_font_family": "Helvetica, Arial, sans-serif", "no_data_font_size": 64, "opacity": ".7", "opacity_hover": ".8", "plot_background": "white", "stroke_opacity": ".8", "stroke_opacity_hover": ".9", "title_font_family": "Helvetica, Arial, sans-serif", "title_font_size": 18, "tooltip_font_family": "Helvetica, Arial, sans-serif", "tooltip_font_size": 14, "transition": "150ms", "value_background": "rgba(229, 229, 229, 1)", "value_colors": [], "value_font_family": "Helvetica, Arial, sans-serif", "value_font_size": 15, "value_label_font_family": "Helvetica, Arial, sans-serif", "value_label_font_size": 15}, "title": "Mean Accuracy1 for Tempo T \u00b110.0 BPM", "tooltip_border_radius": 0, "tooltip_fancy_mode": true, "truncate_label": null, "truncate_legend": -1, "width": 800, "x_label_rotation": 90, "x_labels": ["0.0", "1.0", "2.0", "3.0", "4.0", "5.0", "6.0", "7.0", "8.0", "9.0", "10.0", "11.0", "12.0", "13.0", "14.0", "15.0", "16.0", "17.0", "18.0", "19.0", "20.0", "21.0", "22.0", "23.0", "24.0", "25.0", "26.0", "27.0", "28.0", "29.0", "30.0", "31.0", "32.0", "33.0", "34.0", "35.0", "36.0", "37.0", "38.0", "39.0", "40.0", "41.0", "42.0", "43.0", "44.0", "45.0", "46.0", "47.0", "48.0", "49.0", "50.0", "51.0", "52.0", "53.0", "54.0", "55.0", "56.0", "57.0", "58.0", "59.0", "60.0", "61.0", "62.0", "63.0", "64.0", "65.0", "66.0", "67.0", "68.0", "69.0", "70.0", "71.0", "72.0", "73.0", "74.0", "75.0", "76.0", "77.0", "78.0", "79.0", "80.0", "81.0", "82.0", "83.0", "84.0", "85.0", "86.0", "87.0", "88.0", "89.0", "90.0", "91.0", "92.0", "93.0", "94.0", "95.0", "96.0", "97.0", "98.0", "99.0", "100.0", "101.0", "102.0", "103.0", "104.0", "105.0", "106.0", "107.0", "108.0", "109.0", "110.0", "111.0", "112.0", "113.0", "114.0", "115.0", "116.0", "117.0", "118.0", "119.0", "120.0", "121.0", "122.0", "123.0", "124.0", "125.0", "126.0", "127.0", "128.0", "129.0", "130.0", "131.0", "132.0", "133.0", "134.0", "135.0", "136.0", "137.0", "138.0", "139.0", "140.0", "141.0", "142.0", "143.0", "144.0", "145.0", "146.0", "147.0", "148.0", "149.0", "150.0", "151.0", "152.0", "153.0", "154.0", "155.0", "156.0", "157.0", "158.0", "159.0", "160.0", "161.0", "162.0", "163.0", "164.0", "165.0", "166.0", "167.0", "168.0", "169.0", "170.0", "171.0", "172.0", "173.0", "174.0", "175.0", "176.0", "177.0", "178.0", "179.0", "180.0", "181.0", "182.0", "183.0", "184.0", "185.0", "186.0", "187.0", "188.0", "189.0", "190.0", "191.0", "192.0", "193.0", "194.0", "195.0", "196.0", "197.0", "198.0", "199.0", "200.0", "201.0", "202.0", "203.0", "204.0", "205.0", "206.0", "207.0", "208.0", "209.0", "210.0", "211.0", "212.0", "213.0", "214.0", "215.0", "216.0", "217.0", "218.0", "219.0", "220.0", "221.0", "222.0", "223.0", "224.0", "225.0", "226.0", "227.0", "228.0", "229.0", "230.0", "231.0", "232.0", "233.0", "234.0", "235.0", "236.0", "237.0", "238.0", "239.0", "240.0", "241.0", "242.0", "243.0", "244.0", "245.0", "246.0", "247.0", "248.0", "249.0", "250.0", "251.0", "252.0", "253.0", "254.0", "255.0", "256.0", "257.0", "258.0", "259.0", "260.0", "261.0", "262.0", "263.0", "264.0", "265.0", "266.0", "267.0", "268.0", "269.0", "270.0", "271.0", "272.0", "273.0", "274.0", "275.0", "276.0", "277.0", "278.0", "279.0", "280.0", "281.0", "282.0", "283.0", "284.0", "285.0", "286.0", "287.0", "288.0", "289.0", "290.0", "291.0", "292.0", "293.0", "294.0", "295.0", "296.0", "297.0", "298.0", "299.0", "300.0"], "x_labels_major": null, "x_labels_major_count": 11, "x_labels_major_every": null, "x_title": "T (BPM)", "xrange": null, "y_label_rotation": 0, "y_labels": null, "y_labels_major": null, "y_labels_major_count": null, "y_labels_major_every": null, "y_title": "Mean Accuracy1 (%)", "zero": 0, "legends": ["boeck2015/tempodetector2016_default", "davies2009/mirex_qm_tempotracker", "percival2014/stem", "schreiber2014/default", "schreiber2017/ismir2017", "schreiber2017/mirex2017", "schreiber2018/cnn", "schreiber2018/fcn"]}</script><script type="text/javascript" xlink:href="https://kozea.github.io/pygal.js/2.0.x/pygal-tooltips.min.js"/></defs><title>Mean Accuracy1 for Tempo T ±10.0 BPM</title><g class="graph line-graph vertical"><rect class="background" height="600" width="800" x="0" y="0"/><g class="plot" transform="translate(103, 48)"><rect class="background" height="306.5" width="677.0" x="0" y="0"/><g class="axis y always_show"><g class="guides"><path class="major line" d="M0.000000 300.605769 h677.000000"/><text class="major" x="-5" y="305.8557692307692">0.0</text><title>0.0</title></g><g class="guides"><path class="guide line" d="M0.000000 271.134615 h677.000000"/><text class="" x="-5" y="276.38461538461536">10.0</text><title>10.0</title></g><g class="guides"><path class="guide line" d="M0.000000 241.663462 h677.000000"/><text class="" x="-5" y="246.91346153846155">20.0</text><title>20.0</title></g><g class="guides"><path class="guide line" d="M0.000000 212.192308 h677.000000"/><text class="" x="-5" y="217.44230769230768">30.0</text><title>30.0</title></g><g class="guides"><path class="guide line" d="M0.000000 182.721154 h677.000000"/><text class="" x="-5" y="187.97115384615384">40.0</text><title>40.0</title></g><g class="guides"><path class="major guide line" d="M0.000000 153.250000 h677.000000"/><text class="major" x="-5" y="158.5">50.0</text><title>50.0</title></g><g class="guides"><path class="guide line" d="M0.000000 123.778846 h677.000000"/><text class="" x="-5" y="129.02884615384616">60.0</text><title>60.0</title></g><g class="guides"><path class="guide line" d="M0.000000 94.307692 h677.000000"/><text class="" x="-5" y="99.55769230769232">70.0</text><title>70.0</title></g><g class="guides"><path class="guide line" d="M0.000000 64.836538 h677.000000"/><text class="" x="-5" y="70.08653846153845">80.0</text><title>80.0</title></g><g class="guides"><path class="guide line" d="M0.000000 35.365385 h677.000000"/><text class="" x="-5" y="40.61538461538464">90.0</text><title>90.0</title></g><g class="guides"><path class="major guide line" d="M0.000000 5.894231 h677.000000"/><text class="major" x="-5" y="11.144230769230774">100.0</text><title>100.0</title></g></g><g class="axis x always_show"><g class="guides"><path class="major line" d="M13.019231 0.000000 v306.500000"/><text class="major" x="13.01923076923077" y="324.0" transform="rotate(90 13.019231 324.000000)">0.0</text></g><g class="guides"><path class="major guide line" d="M78.115385 0.000000 v306.500000"/><text class="major" x="78.11538461538463" y="324.0" transform="rotate(90 78.115385 324.000000)">30.0</text></g><g class="guides"><path class="major guide line" d="M143.211538 0.000000 v306.500000"/><text class="major" x="143.21153846153845" y="324.0" transform="rotate(90 143.211538 324.000000)">60.0</text></g><g class="guides"><path class="major guide line" d="M208.307692 0.000000 v306.500000"/><text class="major" x="208.30769230769232" y="324.0" transform="rotate(90 208.307692 324.000000)">90.0</text></g><g class="guides"><path class="major guide line" d="M273.403846 0.000000 v306.500000"/><text class="major" x="273.4038461538462" y="324.0" transform="rotate(90 273.403846 324.000000)">120.0</text></g><g class="guides"><path class="major guide line" d="M338.500000 0.000000 v306.500000"/><text class="major" x="338.5" y="324.0" transform="rotate(90 338.500000 324.000000)">150.0</text></g><g class="guides"><path class="major guide line" d="M403.596154 0.000000 v306.500000"/><text class="major" x="403.59615384615387" y="324.0" transform="rotate(90 403.596154 324.000000)">180.0</text></g><g class="guides"><path class="major guide line" d="M468.692308 0.000000 v306.500000"/><text class="major" x="468.6923076923077" y="324.0" transform="rotate(90 468.692308 324.000000)">210.0</text></g><g class="guides"><path class="major guide line" d="M533.788462 0.000000 v306.500000"/><text class="major" x="533.7884615384615" y="324.0" transform="rotate(90 533.788462 324.000000)">240.0</text></g><g class="guides"><path class="major guide line" d="M598.884615 0.000000 v306.500000"/><text class="major" x="598.8846153846154" y="324.0" transform="rotate(90 598.884615 324.000000)">270.0</text></g><g class="guides"><path class="major guide line" d="M663.980769 0.000000 v306.500000"/><text class="major" x="663.9807692307692" y="324.0" transform="rotate(90 663.980769 324.000000)">300.0</text></g></g><g class="series serie-0 color-0"><path class="line reactive nofill" d="M13.019231 5.894231 L15.189103 5.894231 17.358974 5.894231 19.528846 5.894231 21.698718 5.894231 23.868590 5.894231 26.038462 5.894231 28.208333 5.894231 30.378205 5.894231 32.548077 5.894231 34.717949 5.894231 36.887821 5.894231 39.057692 5.894231 41.227564 5.894231 43.397436 5.894231 45.567308 5.894231 47.737179 5.894231 49.907051 5.894231 52.076923 5.894231 54.246795 5.894231 56.416667 5.894231 58.586538 5.894231 60.756410 5.894231 62.926282 5.894231 65.096154 5.894231 67.266026 5.894231 69.435897 5.894231 71.605769 5.894231 73.775641 5.894231 75.945513 5.894231 78.115385 5.894231 80.285256 5.894231 82.455128 5.894231 84.625000 5.894231 86.794872 5.894231 88.964744 5.894231 91.134615 5.894231 93.304487 5.894231 95.474359 300.605769 97.644231 300.605769 99.814103 300.605769 101.983974 300.605769 104.153846 300.605769 106.323718 202.368590 108.493590 220.229895 110.663462 235.114316 112.833333 218.086538 115.003205 226.927885 117.173077 212.192308 119.342949 205.537531 121.512821 182.721154 123.682692 174.991015 125.852564 173.044059 128.022436 158.707621 130.192308 158.450792 132.362179 147.987294 134.532051 142.289654 136.701923 157.412592 138.871795 151.028556 141.041667 149.079554 143.211538 142.900598 145.381410 140.932335 147.551282 137.159427 149.721154 142.801791 151.891026 146.109412 154.060897 139.589800 156.230769 137.001645 158.400641 145.471690 160.570513 140.762223 162.740385 142.028150 164.910256 145.861300 167.080128 144.848721 169.250000 144.264892 171.419872 140.857883 173.589744 143.999930 175.759615 138.713552 177.929487 137.197545 180.099359 137.397546 182.269231 133.079963 184.439103 131.477575 186.608974 123.423594 188.778846 121.391310 190.948718 119.921217 193.118590 118.545651 195.288462 115.161708 197.458333 110.298767 199.628205 116.858494 201.798077 116.277530 203.967949 109.823352 206.137821 109.043269 208.307692 103.978986 210.477564 96.470713 212.647436 93.727891 214.817308 92.691131 216.987179 93.001696 219.157051 86.341455 221.326923 87.559686 223.496795 86.209462 225.666667 82.793007 227.836538 81.846550 230.006410 80.263154 232.176282 79.798817 234.346154 79.047451 236.516026 77.329916 238.685897 76.517082 240.855769 74.741444 243.025641 76.807162 245.195513 60.555385 247.365385 60.227572 249.535256 62.230507 251.705128 70.914873 253.875000 80.181024 256.044872 80.694900 258.214744 82.050576 260.384615 80.800701 262.554487 78.628458 264.724359 78.345353 266.894231 75.994101 269.064103 75.172393 271.233974 74.976224 273.403846 73.064183 275.573718 74.210496 277.743590 73.455461 279.913462 74.131395 282.083333 74.854511 284.253205 75.090999 286.423077 76.262707 288.592949 76.159439 290.762821 77.356504 292.932692 77.557486 295.102564 75.722280 297.272436 69.611003 299.442308 58.494645 301.612179 66.269786 303.782051 70.508210 305.951923 72.931619 308.121795 77.147274 310.291667 79.379745 312.461538 81.986976 314.631410 84.268068 316.801282 84.722210 318.971154 93.046281 321.141026 95.123100 323.310897 97.406127 325.480769 98.776061 327.650641 99.377998 329.820513 101.612508 331.990385 103.149038 334.160256 104.529938 336.330128 103.705219 338.500000 109.376106 340.669872 122.775901 342.839744 123.270096 345.009615 126.646718 347.179487 119.178047 349.349359 112.133399 351.519231 112.867566 353.689103 109.838134 355.858974 109.195182 358.028846 108.077513 360.198718 110.694670 362.368590 118.201185 364.538462 109.861912 366.708333 108.365771 368.878205 114.920465 371.048077 115.208600 373.217949 119.244822 375.387821 121.216137 377.557692 121.356560 379.727564 120.738842 381.897436 121.551375 384.067308 111.224347 386.237179 111.381387 388.407051 109.043269 390.576923 111.148352 392.746795 111.928012 394.916667 128.288094 397.086538 126.845209 399.256410 135.820823 401.426282 135.567308 403.596154 137.076806 405.766026 144.467206 407.935897 148.370670 410.105769 159.848020 412.275641 159.848020 414.445513 165.953084 416.615385 169.038118 418.785256 163.883921 420.955128 173.767892 423.125000 173.767892 425.294872 188.487249 427.464744 188.487249 429.634615 189.655543 431.804487 189.655543 433.974359 190.945662 436.144231 190.945662 438.314103 190.945662 440.483974 186.650641 442.653846 182.721154 444.823718 193.437937 446.993590 193.437937 449.163462 193.437937 451.333333 192.344388 453.503205 193.437937 455.673077 192.784475 457.842949 192.784475 460.012821 205.537531 462.182692 205.537531 464.352564 205.537531 466.522436 202.368590 468.692308 209.143568 470.862179 187.255178 473.032051 187.255178 475.201923 202.368590 477.371795 202.368590 479.541667 193.437937 481.711538 190.088942 483.881410 190.088942 486.051282 190.088942 488.221154 300.605769 490.391026 300.605769 492.560897 300.605769 494.730769 300.605769 496.900641 300.605769 499.070513 300.605769 501.240385 300.605769 503.410256 300.605769 505.580128 300.605769 507.750000 300.605769 509.919872 300.605769 512.089744 300.605769 514.259615 300.605769 516.429487 300.605769 518.599359 300.605769 520.769231 300.605769 522.939103 300.605769 525.108974 300.605769 527.278846 300.605769 529.448718 300.605769 531.618590 300.605769 533.788462 300.605769 535.958333 300.605769 538.128205 300.605769 540.298077 5.894231 542.467949 5.894231 544.637821 5.894231 546.807692 5.894231 548.977564 5.894231 551.147436 5.894231 553.317308 5.894231 555.487179 5.894231 557.657051 5.894231 559.826923 5.894231 561.996795 5.894231 564.166667 5.894231 566.336538 5.894231 568.506410 5.894231 570.676282 5.894231 572.846154 5.894231 575.016026 5.894231 577.185897 5.894231 579.355769 5.894231 581.525641 5.894231 583.695513 5.894231 585.865385 5.894231 588.035256 5.894231 590.205128 5.894231 592.375000 5.894231 594.544872 5.894231 596.714744 5.894231 598.884615 5.894231 601.054487 5.894231 603.224359 5.894231 605.394231 5.894231 607.564103 5.894231 609.733974 5.894231 611.903846 5.894231 614.073718 5.894231 616.243590 5.894231 618.413462 5.894231 620.583333 5.894231 622.753205 5.894231 624.923077 5.894231 627.092949 5.894231 629.262821 5.894231 631.432692 5.894231 633.602564 5.894231 635.772436 5.894231 637.942308 5.894231 640.112179 5.894231 642.282051 5.894231 644.451923 5.894231 646.621795 5.894231 648.791667 5.894231 650.961538 5.894231 653.131410 5.894231 655.301282 5.894231 657.471154 5.894231 659.641026 5.894231 661.810897 5.894231 663.980769 5.894231"/></g><g class="series serie-1 color-1"><path class="line reactive nofill" d="M13.019231 5.894231 L15.189103 5.894231 17.358974 5.894231 19.528846 5.894231 21.698718 5.894231 23.868590 5.894231 26.038462 5.894231 28.208333 5.894231 30.378205 5.894231 32.548077 5.894231 34.717949 5.894231 36.887821 5.894231 39.057692 5.894231 41.227564 5.894231 43.397436 5.894231 45.567308 5.894231 47.737179 5.894231 49.907051 5.894231 52.076923 5.894231 54.246795 5.894231 56.416667 5.894231 58.586538 5.894231 60.756410 5.894231 62.926282 5.894231 65.096154 5.894231 67.266026 5.894231 69.435897 5.894231 71.605769 5.894231 73.775641 5.894231 75.945513 5.894231 78.115385 5.894231 80.285256 5.894231 82.455128 5.894231 84.625000 5.894231 86.794872 5.894231 88.964744 5.894231 91.134615 5.894231 93.304487 5.894231 95.474359 300.605769 97.644231 300.605769 99.814103 300.605769 101.983974 300.605769 104.153846 300.605769 106.323718 300.605769 108.493590 300.605769 110.663462 300.605769 112.833333 300.605769 115.003205 300.605769 117.173077 300.605769 119.342949 300.605769 121.512821 300.605769 123.682692 300.605769 125.852564 296.207090 128.022436 296.967355 130.192308 297.138575 132.362179 292.711710 134.532051 293.298872 136.701923 285.620437 138.871795 284.315182 141.041667 283.923984 143.211538 273.007364 145.381410 272.320761 147.551282 270.118369 149.721154 265.298030 151.891026 266.850263 154.060897 264.566094 156.230769 261.385603 158.400641 263.442731 160.570513 258.723686 162.740385 258.661805 164.910256 251.533649 167.080128 246.464192 169.250000 245.924970 171.419872 239.749432 173.589744 236.715750 175.759615 226.728755 177.929487 218.517167 180.099359 215.939251 182.269231 207.770754 184.439103 203.065307 186.608974 183.076406 188.778846 176.752313 190.948718 169.418005 193.118590 163.716391 195.288462 158.517530 197.458333 150.078217 199.628205 147.164863 201.798077 145.950459 203.967949 134.147189 206.137821 129.273468 208.307692 119.297585 210.477564 105.933927 212.647436 101.499690 214.817308 97.913867 216.987179 95.342632 219.157051 83.463668 221.326923 82.256735 223.496795 81.139730 225.666667 74.606575 227.836538 72.886657 230.006410 70.259547 232.176282 68.010355 234.346154 66.755311 236.516026 66.000909 238.685897 65.725275 240.855769 61.913779 243.025641 62.982393 245.195513 47.367904 247.365385 46.363202 249.535256 46.709288 251.705128 51.335623 253.875000 60.848190 256.044872 59.323280 258.214744 60.119952 260.384615 59.356304 262.554487 58.013168 264.724359 58.284186 266.894231 56.570595 269.064103 55.478400 271.233974 55.012821 273.403846 53.506667 275.573718 55.178522 277.743590 55.383527 279.913462 55.878656 282.083333 55.845339 284.253205 55.777042 286.423077 57.033302 288.592949 56.761069 290.762821 58.787567 292.932692 58.994112 295.102564 58.464397 297.272436 55.871537 299.442308 44.505173 301.612179 51.937310 303.782051 55.431615 305.951923 56.127099 308.121795 63.903907 310.291667 65.529072 312.461538 67.399247 314.631410 70.450092 316.801282 70.007654 318.971154 77.679999 321.141026 78.814951 323.310897 81.553672 325.480769 82.207951 327.650641 83.797370 329.820513 87.058852 331.990385 89.002885 334.160256 91.677407 336.330128 89.640894 338.500000 95.760069 340.669872 107.731726 342.839744 110.914742 345.009615 115.326172 347.179487 110.497295 349.349359 109.579573 351.519231 115.541899 353.689103 110.449569 355.858974 111.625793 358.028846 111.815925 360.198718 119.586829 362.368590 134.783420 364.538462 135.239850 366.708333 137.159427 368.878205 143.880558 371.048077 145.816623 373.217949 150.311281 375.387821 157.254233 377.557692 157.690859 379.727564 159.583343 381.897436 160.960476 384.067308 161.229554 386.237179 162.493720 388.407051 178.300481 390.576923 180.315345 392.746795 183.656746 394.916667 197.537253 397.086538 198.393675 399.256410 203.953060 401.426282 204.614011 403.596154 208.957669 405.766026 210.826095 407.935897 216.681291 410.105769 228.027555 412.275641 228.027555 414.445513 242.171585 416.615385 247.978709 418.785256 248.955293 420.955128 248.378408 423.125000 248.378408 425.294872 252.554975 427.464744 252.554975 429.634615 255.532240 431.804487 255.532240 433.974359 256.056351 436.144231 259.483229 438.314103 259.483229 440.483974 265.240385 442.653846 267.450721 444.823718 279.172203 446.993590 279.172203 449.163462 279.172203 451.333333 276.547684 453.503205 273.813811 455.673077 271.853424 457.842949 271.853424 460.012821 272.085298 462.182692 272.085298 464.352564 272.085298 466.522436 267.860043 468.692308 270.118369 470.862179 277.935651 473.032051 277.935651 475.201923 276.046474 477.371795 276.046474 479.541667 273.813811 481.711538 300.605769 483.881410 300.605769 486.051282 300.605769 488.221154 300.605769 490.391026 300.605769 492.560897 300.605769 494.730769 300.605769 496.900641 300.605769 499.070513 300.605769 501.240385 300.605769 503.410256 300.605769 505.580128 300.605769 507.750000 300.605769 509.919872 300.605769 512.089744 300.605769 514.259615 300.605769 516.429487 300.605769 518.599359 300.605769 520.769231 300.605769 522.939103 300.605769 525.108974 300.605769 527.278846 300.605769 529.448718 300.605769 531.618590 300.605769 533.788462 300.605769 535.958333 300.605769 538.128205 300.605769 540.298077 5.894231 542.467949 5.894231 544.637821 5.894231 546.807692 5.894231 548.977564 5.894231 551.147436 5.894231 553.317308 5.894231 555.487179 5.894231 557.657051 5.894231 559.826923 5.894231 561.996795 5.894231 564.166667 5.894231 566.336538 5.894231 568.506410 5.894231 570.676282 5.894231 572.846154 5.894231 575.016026 5.894231 577.185897 5.894231 579.355769 5.894231 581.525641 5.894231 583.695513 5.894231 585.865385 5.894231 588.035256 5.894231 590.205128 5.894231 592.375000 5.894231 594.544872 5.894231 596.714744 5.894231 598.884615 5.894231 601.054487 5.894231 603.224359 5.894231 605.394231 5.894231 607.564103 5.894231 609.733974 5.894231 611.903846 5.894231 614.073718 5.894231 616.243590 5.894231 618.413462 5.894231 620.583333 5.894231 622.753205 5.894231 624.923077 5.894231 627.092949 5.894231 629.262821 5.894231 631.432692 5.894231 633.602564 5.894231 635.772436 5.894231 637.942308 5.894231 640.112179 5.894231 642.282051 5.894231 644.451923 5.894231 646.621795 5.894231 648.791667 5.894231 650.961538 5.894231 653.131410 5.894231 655.301282 5.894231 657.471154 5.894231 659.641026 5.894231 661.810897 5.894231 663.980769 5.894231"/></g><g class="series serie-2 color-2"><path class="line reactive nofill" d="M13.019231 5.894231 L15.189103 5.894231 17.358974 5.894231 19.528846 5.894231 21.698718 5.894231 23.868590 5.894231 26.038462 5.894231 28.208333 5.894231 30.378205 5.894231 32.548077 5.894231 34.717949 5.894231 36.887821 5.894231 39.057692 5.894231 41.227564 5.894231 43.397436 5.894231 45.567308 5.894231 47.737179 5.894231 49.907051 5.894231 52.076923 5.894231 54.246795 5.894231 56.416667 5.894231 58.586538 5.894231 60.756410 5.894231 62.926282 5.894231 65.096154 5.894231 67.266026 5.894231 69.435897 5.894231 71.605769 5.894231 73.775641 5.894231 75.945513 5.894231 78.115385 5.894231 80.285256 5.894231 82.455128 5.894231 84.625000 5.894231 86.794872 5.894231 88.964744 5.894231 91.134615 5.894231 93.304487 5.894231 95.474359 300.605769 97.644231 300.605769 99.814103 300.605769 101.983974 300.605769 104.153846 300.605769 106.323718 300.605769 108.493590 300.605769 110.663462 300.605769 112.833333 277.028846 115.003205 258.504121 117.173077 261.310897 119.342949 253.071650 121.512821 273.813811 123.682692 266.786412 125.852564 265.416332 128.022436 264.221629 130.192308 262.466629 132.362179 258.504121 134.532051 259.200016 136.701923 237.334365 138.871795 228.038606 141.041667 226.927885 143.211538 210.910953 145.381410 202.976869 147.551282 196.440484 149.721154 185.315192 151.891026 184.408929 154.060897 175.629476 156.230769 170.058643 158.400641 166.645979 160.570513 155.747555 162.740385 150.490529 164.910256 141.121379 167.080128 131.246650 169.250000 125.781242 171.419872 119.999864 173.589744 113.883422 175.759615 106.852846 177.929487 100.094266 180.099359 99.207542 182.269231 92.563733 184.439103 89.674520 186.608974 79.757143 188.778846 74.088242 190.948718 71.417200 193.118590 69.243440 195.288462 67.753940 197.458333 62.061228 199.628205 67.222867 201.798077 67.257850 203.967949 59.701506 206.137821 58.717528 208.307692 57.337284 210.477564 51.121022 212.647436 50.921318 214.817308 51.530996 216.987179 52.589746 219.157051 49.191843 221.326923 51.764763 223.496795 53.656445 225.666667 50.718299 227.836538 51.245071 230.006410 50.252332 232.176282 53.048077 234.346154 53.413843 236.516026 54.357207 238.685897 54.933469 240.855769 52.820751 243.025641 56.801908 245.195513 46.030043 247.365385 45.239064 249.535256 47.667388 251.705128 54.404013 253.875000 65.871682 256.044872 65.672819 258.214744 67.330020 260.384615 66.355517 262.554487 66.433498 264.724359 66.222058 266.894231 64.894955 269.064103 63.998496 271.233974 65.066333 273.403846 64.297021 275.573718 67.393072 277.743590 67.755851 279.913462 69.357602 282.083333 70.830671 284.253205 72.173063 286.423077 73.475837 288.592949 73.716681 290.762821 76.090440 292.932692 77.845290 295.102564 80.368633 297.272436 84.209185 299.442308 75.655063 301.612179 85.797785 303.782051 93.661553 305.951923 97.686666 308.121795 106.618427 310.291667 110.736129 312.461538 114.710799 314.631410 121.619787 316.801282 126.974007 318.971154 142.126646 321.141026 144.513492 323.310897 151.208396 325.480769 155.007224 327.650641 157.739333 329.820513 163.465547 331.990385 169.459135 334.160256 174.172726 336.330128 176.903638 338.500000 186.836223 340.669872 210.340717 342.839744 219.569181 345.009615 225.890168 347.179487 229.857638 349.349359 241.357002 351.519231 247.653968 353.689103 254.136730 355.858974 255.031820 358.028846 258.237091 360.198718 266.942598 362.368590 283.269796 364.538462 288.326122 366.708333 290.443302 368.878205 295.495165 371.048077 299.731254 373.217949 299.766135 375.387821 299.804923 377.557692 299.798340 379.727564 299.761324 381.897436 300.605769 384.067308 300.605769 386.237179 300.605769 388.407051 300.605769 390.576923 300.605769 392.746795 300.605769 394.916667 300.605769 397.086538 300.605769 399.256410 300.605769 401.426282 300.605769 403.596154 300.605769 405.766026 300.605769 407.935897 300.605769 410.105769 300.605769 412.275641 300.605769 414.445513 300.605769 416.615385 300.605769 418.785256 300.605769 420.955128 300.605769 423.125000 300.605769 425.294872 300.605769 427.464744 300.605769 429.634615 300.605769 431.804487 300.605769 433.974359 300.605769 436.144231 300.605769 438.314103 300.605769 440.483974 300.605769 442.653846 300.605769 444.823718 300.605769 446.993590 300.605769 449.163462 300.605769 451.333333 300.605769 453.503205 300.605769 455.673077 300.605769 457.842949 300.605769 460.012821 300.605769 462.182692 300.605769 464.352564 300.605769 466.522436 300.605769 468.692308 300.605769 470.862179 300.605769 473.032051 300.605769 475.201923 300.605769 477.371795 300.605769 479.541667 300.605769 481.711538 300.605769 483.881410 300.605769 486.051282 300.605769 488.221154 300.605769 490.391026 300.605769 492.560897 300.605769 494.730769 300.605769 496.900641 300.605769 499.070513 300.605769 501.240385 300.605769 503.410256 300.605769 505.580128 300.605769 507.750000 300.605769 509.919872 300.605769 512.089744 300.605769 514.259615 300.605769 516.429487 300.605769 518.599359 300.605769 520.769231 300.605769 522.939103 300.605769 525.108974 300.605769 527.278846 300.605769 529.448718 300.605769 531.618590 300.605769 533.788462 300.605769 535.958333 300.605769 538.128205 300.605769 540.298077 5.894231 542.467949 5.894231 544.637821 5.894231 546.807692 5.894231 548.977564 5.894231 551.147436 5.894231 553.317308 5.894231 555.487179 5.894231 557.657051 5.894231 559.826923 5.894231 561.996795 5.894231 564.166667 5.894231 566.336538 5.894231 568.506410 5.894231 570.676282 5.894231 572.846154 5.894231 575.016026 5.894231 577.185897 5.894231 579.355769 5.894231 581.525641 5.894231 583.695513 5.894231 585.865385 5.894231 588.035256 5.894231 590.205128 5.894231 592.375000 5.894231 594.544872 5.894231 596.714744 5.894231 598.884615 5.894231 601.054487 5.894231 603.224359 5.894231 605.394231 5.894231 607.564103 5.894231 609.733974 5.894231 611.903846 5.894231 614.073718 5.894231 616.243590 5.894231 618.413462 5.894231 620.583333 5.894231 622.753205 5.894231 624.923077 5.894231 627.092949 5.894231 629.262821 5.894231 631.432692 5.894231 633.602564 5.894231 635.772436 5.894231 637.942308 5.894231 640.112179 5.894231 642.282051 5.894231 644.451923 5.894231 646.621795 5.894231 648.791667 5.894231 650.961538 5.894231 653.131410 5.894231 655.301282 5.894231 657.471154 5.894231 659.641026 5.894231 661.810897 5.894231 663.980769 5.894231"/></g><g class="series serie-3 color-3"><path class="line reactive nofill" d="M13.019231 5.894231 L15.189103 5.894231 17.358974 5.894231 19.528846 5.894231 21.698718 5.894231 23.868590 5.894231 26.038462 5.894231 28.208333 5.894231 30.378205 5.894231 32.548077 5.894231 34.717949 5.894231 36.887821 5.894231 39.057692 5.894231 41.227564 5.894231 43.397436 5.894231 45.567308 5.894231 47.737179 5.894231 49.907051 5.894231 52.076923 5.894231 54.246795 5.894231 56.416667 5.894231 58.586538 5.894231 60.756410 5.894231 62.926282 5.894231 65.096154 5.894231 67.266026 5.894231 69.435897 5.894231 71.605769 5.894231 73.775641 5.894231 75.945513 5.894231 78.115385 5.894231 80.285256 5.894231 82.455128 5.894231 84.625000 5.894231 86.794872 5.894231 88.964744 5.894231 91.134615 5.894231 93.304487 5.894231 95.474359 300.605769 97.644231 300.605769 99.814103 300.605769 101.983974 300.605769 104.153846 300.605769 106.323718 202.368590 108.493590 220.229895 110.663462 251.487179 112.833333 229.875000 115.003205 237.453297 117.173077 231.839744 119.342949 224.551179 121.512821 209.513112 123.682692 208.810372 125.852564 212.632176 128.022436 198.730176 130.192308 196.589932 132.362179 176.932177 134.532051 171.517244 136.701923 175.727999 138.871795 164.357219 141.041667 160.200744 143.211538 162.613745 145.381410 157.355888 147.551282 153.250000 149.721154 152.169151 151.891026 152.600856 154.060897 141.914941 156.230769 137.001645 158.400641 142.446791 160.570513 131.540480 162.740385 127.310969 164.910256 126.622799 167.080128 122.178603 169.250000 117.823003 171.419872 112.883599 173.589744 106.784531 175.759615 99.684187 177.929487 95.672632 180.099359 95.604711 182.269231 89.392897 184.439103 87.584368 186.608974 79.905165 188.778846 74.983569 190.948718 71.275376 193.118590 68.830293 195.288462 65.052642 197.458333 60.475336 199.628205 65.791070 201.798077 65.240090 203.967949 57.244553 206.137821 56.719483 208.307692 54.593655 210.477564 46.450865 212.647436 44.506500 214.817308 44.442997 216.987179 44.088452 219.157051 41.343333 221.326923 43.147466 223.496795 43.516980 225.666667 40.384607 227.836538 40.217511 230.006410 40.117098 232.176282 39.899408 234.346154 39.172950 236.516026 40.195947 238.685897 41.602414 240.855769 40.804964 243.025641 43.139784 245.195513 31.122456 247.365385 31.187338 249.535256 33.487509 251.705128 44.322161 253.875000 53.541293 256.044872 54.212675 258.214744 57.115757 260.384615 56.824673 262.554487 57.867990 264.724359 58.284186 266.894231 58.323092 269.064103 60.087632 271.233974 61.332171 273.403846 61.734312 275.573718 64.978568 277.743590 66.365702 279.913462 68.234356 282.083333 70.414412 284.253205 71.478317 286.423077 74.729928 288.592949 75.872056 290.762821 80.029305 292.932692 82.594060 295.102564 85.413245 297.272436 88.502768 299.442308 84.981378 301.612179 94.038958 303.782051 101.917783 305.951923 105.095110 308.121795 114.452532 310.291667 117.661466 312.461538 120.821874 314.631410 127.233340 316.801282 131.178166 318.971154 144.878816 321.141026 146.144307 323.310897 150.968207 325.480769 155.760320 327.650641 158.003412 329.820513 162.905791 331.990385 165.333173 334.160256 170.287077 336.330128 169.232188 338.500000 174.430501 340.669872 191.439061 342.839744 200.309364 345.009615 204.381131 347.179487 205.117495 349.349359 211.221854 351.519231 217.701434 353.689103 221.730689 355.858974 224.649187 358.028846 228.952858 360.198718 235.820043 362.368590 251.612802 364.538462 256.399038 366.708333 257.415285 368.878205 264.831536 371.048077 266.499686 373.217949 267.860043 375.387821 270.974446 377.557692 270.730901 379.727564 270.205725 381.897436 271.477303 384.067308 280.390898 386.237179 283.205826 388.407051 296.185096 390.576923 296.094878 392.746795 295.927808 394.916667 297.384878 397.086538 297.198699 399.256410 299.021299 401.426282 298.921703 403.596154 300.605769 405.766026 300.605769 407.935897 300.605769 410.105769 300.605769 412.275641 300.605769 414.445513 300.605769 416.615385 300.605769 418.785256 300.605769 420.955128 300.605769 423.125000 300.605769 425.294872 300.605769 427.464744 300.605769 429.634615 300.605769 431.804487 300.605769 433.974359 300.605769 436.144231 300.605769 438.314103 300.605769 440.483974 300.605769 442.653846 300.605769 444.823718 300.605769 446.993590 300.605769 449.163462 300.605769 451.333333 300.605769 453.503205 300.605769 455.673077 300.605769 457.842949 300.605769 460.012821 300.605769 462.182692 300.605769 464.352564 300.605769 466.522436 300.605769 468.692308 300.605769 470.862179 300.605769 473.032051 300.605769 475.201923 300.605769 477.371795 300.605769 479.541667 300.605769 481.711538 300.605769 483.881410 300.605769 486.051282 300.605769 488.221154 300.605769 490.391026 300.605769 492.560897 300.605769 494.730769 300.605769 496.900641 300.605769 499.070513 300.605769 501.240385 300.605769 503.410256 300.605769 505.580128 300.605769 507.750000 300.605769 509.919872 300.605769 512.089744 300.605769 514.259615 300.605769 516.429487 300.605769 518.599359 300.605769 520.769231 300.605769 522.939103 300.605769 525.108974 300.605769 527.278846 300.605769 529.448718 300.605769 531.618590 300.605769 533.788462 300.605769 535.958333 300.605769 538.128205 300.605769 540.298077 5.894231 542.467949 5.894231 544.637821 5.894231 546.807692 5.894231 548.977564 5.894231 551.147436 5.894231 553.317308 5.894231 555.487179 5.894231 557.657051 5.894231 559.826923 5.894231 561.996795 5.894231 564.166667 5.894231 566.336538 5.894231 568.506410 5.894231 570.676282 5.894231 572.846154 5.894231 575.016026 5.894231 577.185897 5.894231 579.355769 5.894231 581.525641 5.894231 583.695513 5.894231 585.865385 5.894231 588.035256 5.894231 590.205128 5.894231 592.375000 5.894231 594.544872 5.894231 596.714744 5.894231 598.884615 5.894231 601.054487 5.894231 603.224359 5.894231 605.394231 5.894231 607.564103 5.894231 609.733974 5.894231 611.903846 5.894231 614.073718 5.894231 616.243590 5.894231 618.413462 5.894231 620.583333 5.894231 622.753205 5.894231 624.923077 5.894231 627.092949 5.894231 629.262821 5.894231 631.432692 5.894231 633.602564 5.894231 635.772436 5.894231 637.942308 5.894231 640.112179 5.894231 642.282051 5.894231 644.451923 5.894231 646.621795 5.894231 648.791667 5.894231 650.961538 5.894231 653.131410 5.894231 655.301282 5.894231 657.471154 5.894231 659.641026 5.894231 661.810897 5.894231 663.980769 5.894231"/></g><g class="series serie-4 color-4"><path class="line reactive nofill" d="M13.019231 5.894231 L15.189103 5.894231 17.358974 5.894231 19.528846 5.894231 21.698718 5.894231 23.868590 5.894231 26.038462 5.894231 28.208333 5.894231 30.378205 5.894231 32.548077 5.894231 34.717949 5.894231 36.887821 5.894231 39.057692 5.894231 41.227564 5.894231 43.397436 5.894231 45.567308 5.894231 47.737179 5.894231 49.907051 5.894231 52.076923 5.894231 54.246795 5.894231 56.416667 5.894231 58.586538 5.894231 60.756410 5.894231 62.926282 5.894231 65.096154 5.894231 67.266026 5.894231 69.435897 5.894231 71.605769 5.894231 73.775641 5.894231 75.945513 5.894231 78.115385 5.894231 80.285256 5.894231 82.455128 5.894231 84.625000 5.894231 86.794872 5.894231 88.964744 5.894231 91.134615 5.894231 93.304487 5.894231 95.474359 300.605769 97.644231 300.605769 99.814103 300.605769 101.983974 300.605769 104.153846 300.605769 106.323718 300.605769 108.493590 300.605769 110.663462 300.605769 112.833333 300.605769 115.003205 300.605769 117.173077 300.605769 119.342949 291.098945 121.512821 252.380245 123.682692 247.461066 125.852564 239.024254 128.022436 238.752730 130.192308 234.729072 132.362179 226.927885 134.532051 220.229895 136.701923 214.023848 138.871795 199.900319 141.041667 194.954463 143.211538 172.470318 145.381410 168.304924 147.551282 161.718722 149.721154 160.095378 151.891026 155.197433 154.060897 144.240081 156.230769 136.441357 158.400641 140.286149 160.570513 133.845916 162.740385 130.990265 164.910256 131.083900 167.080128 126.445919 169.250000 122.443916 171.419872 117.791368 173.589744 111.947361 175.759615 106.852846 177.929487 102.016716 180.099359 102.450089 182.269231 96.615356 184.439103 94.551543 186.608974 86.714170 188.778846 83.936831 190.948718 79.926677 193.118590 77.919527 195.288462 73.966923 197.458333 69.594214 199.628205 74.978434 201.798077 75.210195 203.967949 67.686604 206.137821 65.835561 208.307692 62.481590 210.477564 53.947697 212.647436 52.031575 214.817308 51.779698 216.987179 51.727296 219.157051 48.406992 221.326923 48.980713 223.496795 48.986955 225.666667 44.813332 227.836538 43.939312 230.006410 43.539385 232.176282 42.619822 234.346154 41.271608 236.516026 42.556157 238.685897 42.395929 240.855769 41.779217 243.025641 43.139784 245.195513 29.211227 247.365385 28.939062 249.535256 30.996449 251.705128 40.815429 253.875000 51.410114 256.044872 51.889673 258.214744 54.712401 260.384615 54.739802 262.554487 54.674072 264.724359 54.676062 266.894231 54.087892 269.064103 53.103946 271.233974 54.151091 273.403846 54.450823 275.573718 56.314759 277.743590 56.912690 279.913462 59.669609 282.083333 59.869178 284.253205 60.640269 286.423077 63.164416 288.592949 64.951492 290.762821 68.775404 292.932692 70.074576 295.102564 70.943174 297.272436 72.702383 299.442308 64.276960 301.612179 73.973492 303.782051 80.918240 305.951923 83.592552 308.121795 92.815482 310.291667 95.923604 312.461538 99.925939 314.631410 107.585904 316.801282 110.367579 318.971154 123.549499 321.141026 125.409661 323.310897 131.993300 325.480769 134.673634 327.650641 138.461607 329.820513 144.713721 331.990385 146.176923 334.160256 149.962143 336.330128 149.414275 338.500000 157.486100 340.669872 179.480870 342.839744 186.137046 345.009615 192.305882 347.179487 192.530404 349.349359 196.920427 351.519231 202.725168 353.689103 205.221952 355.858974 207.027260 358.028846 207.145450 360.198718 214.224801 362.368590 232.769354 364.538462 231.021100 366.708333 234.549735 368.878205 235.019675 371.048077 236.766178 373.217949 238.472852 375.387821 238.940583 377.557692 240.856033 379.727564 241.494572 381.897436 242.348837 384.067308 243.152978 386.237179 242.968457 388.407051 246.084135 390.576923 246.475078 392.746795 246.029558 394.916667 252.292402 397.086538 249.499722 399.256410 256.240591 401.426282 255.135989 403.596154 255.680230 405.766026 257.667664 407.935897 257.667664 410.105769 261.017652 412.275641 261.017652 414.445513 270.118369 416.615385 274.292239 418.785256 276.299663 420.955128 289.414192 423.125000 289.414192 425.294872 290.995610 427.464744 290.995610 429.634615 297.138575 431.804487 297.138575 433.974359 297.178891 436.144231 297.178891 438.314103 297.178891 440.483974 296.676282 442.653846 293.237981 444.823718 289.888986 446.993590 289.888986 449.163462 289.888986 451.333333 288.576727 453.503205 293.907780 455.673077 293.417683 457.842949 293.417683 460.012821 291.098945 462.182692 291.098945 464.352564 291.098945 466.522436 289.690527 468.692308 290.443302 470.862179 277.935651 473.032051 277.935651 475.201923 276.046474 477.371795 276.046474 479.541667 273.813811 481.711538 263.766827 483.881410 263.766827 486.051282 263.766827 488.221154 300.605769 490.391026 300.605769 492.560897 300.605769 494.730769 300.605769 496.900641 300.605769 499.070513 300.605769 501.240385 300.605769 503.410256 300.605769 505.580128 300.605769 507.750000 300.605769 509.919872 300.605769 512.089744 300.605769 514.259615 300.605769 516.429487 300.605769 518.599359 300.605769 520.769231 300.605769 522.939103 300.605769 525.108974 300.605769 527.278846 300.605769 529.448718 300.605769 531.618590 300.605769 533.788462 300.605769 535.958333 300.605769 538.128205 300.605769 540.298077 5.894231 542.467949 5.894231 544.637821 5.894231 546.807692 5.894231 548.977564 5.894231 551.147436 5.894231 553.317308 5.894231 555.487179 5.894231 557.657051 5.894231 559.826923 5.894231 561.996795 5.894231 564.166667 5.894231 566.336538 5.894231 568.506410 5.894231 570.676282 5.894231 572.846154 5.894231 575.016026 5.894231 577.185897 5.894231 579.355769 5.894231 581.525641 5.894231 583.695513 5.894231 585.865385 5.894231 588.035256 5.894231 590.205128 5.894231 592.375000 5.894231 594.544872 5.894231 596.714744 5.894231 598.884615 5.894231 601.054487 5.894231 603.224359 5.894231 605.394231 5.894231 607.564103 5.894231 609.733974 5.894231 611.903846 5.894231 614.073718 5.894231 616.243590 5.894231 618.413462 5.894231 620.583333 5.894231 622.753205 5.894231 624.923077 5.894231 627.092949 5.894231 629.262821 5.894231 631.432692 5.894231 633.602564 5.894231 635.772436 5.894231 637.942308 5.894231 640.112179 5.894231 642.282051 5.894231 644.451923 5.894231 646.621795 5.894231 648.791667 5.894231 650.961538 5.894231 653.131410 5.894231 655.301282 5.894231 657.471154 5.894231 659.641026 5.894231 661.810897 5.894231 663.980769 5.894231"/></g><g class="series serie-5 color-5"><path class="line reactive nofill" d="M13.019231 5.894231 L15.189103 5.894231 17.358974 5.894231 19.528846 5.894231 21.698718 5.894231 23.868590 5.894231 26.038462 5.894231 28.208333 5.894231 30.378205 5.894231 32.548077 5.894231 34.717949 5.894231 36.887821 5.894231 39.057692 5.894231 41.227564 5.894231 43.397436 5.894231 45.567308 5.894231 47.737179 5.894231 49.907051 5.894231 52.076923 5.894231 54.246795 5.894231 56.416667 5.894231 58.586538 5.894231 60.756410 5.894231 62.926282 5.894231 65.096154 5.894231 67.266026 5.894231 69.435897 5.894231 71.605769 5.894231 73.775641 5.894231 75.945513 5.894231 78.115385 5.894231 80.285256 5.894231 82.455128 5.894231 84.625000 5.894231 86.794872 5.894231 88.964744 5.894231 91.134615 5.894231 93.304487 5.894231 95.474359 300.605769 97.644231 300.605769 99.814103 300.605769 101.983974 300.605769 104.153846 300.605769 106.323718 267.860043 108.493590 273.813811 110.663462 235.114316 112.833333 229.875000 115.003205 237.453297 117.173077 222.016026 119.342949 215.044355 121.512821 193.437937 123.682692 179.822352 125.852564 173.044059 128.022436 165.984449 130.192308 168.852376 132.362179 179.563530 134.532051 173.952877 136.701923 172.397925 138.871795 167.319144 141.041667 162.981041 143.211538 164.585059 145.381410 157.355888 147.551282 154.096872 149.721154 154.330849 151.891026 153.250000 154.060897 147.146507 156.230769 142.044238 158.400641 146.768075 160.570513 142.683419 162.740385 142.028150 164.910256 146.140119 167.080128 142.715063 169.250000 140.927566 171.419872 136.686279 173.589744 133.459152 175.759615 128.358823 177.929487 124.509377 180.099359 124.967780 182.269231 121.453567 184.439103 119.459197 186.608974 109.953604 188.778846 105.275438 190.948718 101.342193 193.118590 98.439162 195.288462 94.901978 197.458333 89.946490 199.628205 93.114528 201.798077 93.251336 203.967949 85.990906 206.137821 83.817960 208.307692 79.057685 210.477564 68.941361 212.647436 66.588277 214.817308 65.458293 216.987179 65.156877 219.157051 60.441373 221.326923 60.116911 223.496795 59.126419 225.666667 54.610209 227.836538 52.623516 230.006410 51.436970 232.176282 49.874260 234.346154 48.467006 236.516026 49.479440 238.685897 50.172378 240.855769 48.274237 243.025641 50.296135 245.195513 36.473898 247.365385 35.683890 249.535256 38.086388 251.705128 45.637185 253.875000 55.824698 256.044872 56.690544 258.214744 59.669323 260.384615 59.356304 262.554487 58.739058 264.724359 58.284186 266.894231 57.592885 269.064103 56.316442 271.233974 56.736280 273.403846 56.339135 275.573718 58.161145 277.743590 58.302839 279.913462 61.073666 282.083333 61.811721 284.253205 61.473965 286.423077 63.164416 288.592949 63.801959 290.762821 66.805971 292.932692 67.772142 295.102564 65.102044 297.272436 64.973933 299.442308 55.510224 301.612179 65.374006 303.782051 72.662009 305.951923 74.377170 308.121795 80.504747 310.291667 83.419525 312.461538 86.718131 314.631410 91.824775 316.801282 92.920320 318.971154 104.743004 321.141026 106.072856 323.310897 110.616505 325.480769 112.080756 327.650641 113.638234 329.820513 118.964944 331.990385 121.715865 334.160256 124.854872 336.330128 123.842775 338.500000 130.254028 340.669872 154.792992 342.839744 157.429017 345.009615 162.495112 347.179487 157.373357 349.349359 149.930026 351.519231 156.191767 353.689103 158.752913 355.858974 160.845658 358.028846 158.546085 360.198718 162.142158 362.368590 178.500221 364.538462 167.985577 366.708333 169.340573 368.878205 169.433582 371.048077 168.554012 373.217949 172.141765 375.387821 173.271164 377.557692 173.839436 379.727564 173.094473 381.897436 174.667990 384.067308 169.741079 386.237179 169.018699 388.407051 170.932692 390.576923 169.789933 392.746795 166.504223 394.916667 181.432797 397.086538 177.951256 399.256410 194.446237 401.426282 191.141484 403.596154 194.581496 405.766026 208.874363 407.935897 212.777827 410.105769 228.027555 412.275641 228.027555 414.445513 252.334052 416.615385 258.504121 418.785256 261.108347 420.955128 281.953140 423.125000 281.953140 425.294872 284.588838 427.464744 284.588838 429.634615 297.138575 431.804487 297.138575 433.974359 297.178891 436.144231 297.178891 438.314103 297.178891 440.483974 296.676282 442.653846 296.921875 444.823718 300.605769 446.993590 300.605769 449.163462 300.605769 451.333333 300.605769 453.503205 300.605769 455.673077 300.605769 457.842949 300.605769 460.012821 300.605769 462.182692 300.605769 464.352564 300.605769 466.522436 300.605769 468.692308 300.605769 470.862179 300.605769 473.032051 300.605769 475.201923 300.605769 477.371795 300.605769 479.541667 300.605769 481.711538 300.605769 483.881410 300.605769 486.051282 300.605769 488.221154 300.605769 490.391026 300.605769 492.560897 300.605769 494.730769 300.605769 496.900641 300.605769 499.070513 300.605769 501.240385 300.605769 503.410256 300.605769 505.580128 300.605769 507.750000 300.605769 509.919872 300.605769 512.089744 300.605769 514.259615 300.605769 516.429487 300.605769 518.599359 300.605769 520.769231 300.605769 522.939103 300.605769 525.108974 300.605769 527.278846 300.605769 529.448718 300.605769 531.618590 300.605769 533.788462 300.605769 535.958333 300.605769 538.128205 300.605769 540.298077 5.894231 542.467949 5.894231 544.637821 5.894231 546.807692 5.894231 548.977564 5.894231 551.147436 5.894231 553.317308 5.894231 555.487179 5.894231 557.657051 5.894231 559.826923 5.894231 561.996795 5.894231 564.166667 5.894231 566.336538 5.894231 568.506410 5.894231 570.676282 5.894231 572.846154 5.894231 575.016026 5.894231 577.185897 5.894231 579.355769 5.894231 581.525641 5.894231 583.695513 5.894231 585.865385 5.894231 588.035256 5.894231 590.205128 5.894231 592.375000 5.894231 594.544872 5.894231 596.714744 5.894231 598.884615 5.894231 601.054487 5.894231 603.224359 5.894231 605.394231 5.894231 607.564103 5.894231 609.733974 5.894231 611.903846 5.894231 614.073718 5.894231 616.243590 5.894231 618.413462 5.894231 620.583333 5.894231 622.753205 5.894231 624.923077 5.894231 627.092949 5.894231 629.262821 5.894231 631.432692 5.894231 633.602564 5.894231 635.772436 5.894231 637.942308 5.894231 640.112179 5.894231 642.282051 5.894231 644.451923 5.894231 646.621795 5.894231 648.791667 5.894231 650.961538 5.894231 653.131410 5.894231 655.301282 5.894231 657.471154 5.894231 659.641026 5.894231 661.810897 5.894231 663.980769 5.894231"/></g><g class="series serie-6 color-6"><path class="line reactive nofill" d="M13.019231 5.894231 L15.189103 5.894231 17.358974 5.894231 19.528846 5.894231 21.698718 5.894231 23.868590 5.894231 26.038462 5.894231 28.208333 5.894231 30.378205 5.894231 32.548077 5.894231 34.717949 5.894231 36.887821 5.894231 39.057692 5.894231 41.227564 5.894231 43.397436 5.894231 45.567308 5.894231 47.737179 5.894231 49.907051 5.894231 52.076923 5.894231 54.246795 5.894231 56.416667 5.894231 58.586538 5.894231 60.756410 5.894231 62.926282 5.894231 65.096154 5.894231 67.266026 5.894231 69.435897 5.894231 71.605769 5.894231 73.775641 5.894231 75.945513 5.894231 78.115385 5.894231 80.285256 5.894231 82.455128 5.894231 84.625000 5.894231 86.794872 5.894231 88.964744 5.894231 91.134615 5.894231 93.304487 5.894231 95.474359 300.605769 97.644231 300.605769 99.814103 300.605769 101.983974 300.605769 104.153846 300.605769 106.323718 235.114316 108.493590 220.229895 110.663462 169.622863 112.833333 170.932692 115.003205 174.300824 117.173077 163.073718 119.342949 158.003412 121.512821 134.495629 123.682692 131.508985 125.852564 129.057262 128.022436 115.046652 130.192308 113.377262 132.362179 119.042411 134.532051 117.933328 136.701923 137.432149 138.871795 133.257006 141.041667 131.007620 143.211538 121.216137 145.381410 114.472166 147.551282 111.753260 149.721154 116.140845 151.891026 118.845349 154.060897 122.732533 156.230769 123.554731 158.400641 129.050812 160.570513 132.308958 162.740385 134.669560 164.910256 136.381459 167.080128 131.246650 169.250000 129.888720 171.419872 125.889187 173.589744 122.057903 175.759615 116.211928 177.929487 115.281618 180.099359 112.177732 182.269231 106.832492 184.439103 105.002307 186.608974 95.003395 188.778846 93.039314 190.948718 92.974541 193.118590 93.894545 195.288462 90.714967 197.458333 86.774707 199.628205 92.159997 201.798077 91.352269 203.967949 85.253820 206.137821 82.069671 208.307692 75.971102 210.477564 67.712372 212.647436 67.328448 214.817308 66.328749 216.987179 66.142534 219.157051 63.057543 221.326923 63.033535 223.496795 60.860801 225.666667 58.502119 227.836538 58.275140 230.006410 56.307147 232.176282 58.186637 234.346154 56.711734 236.516026 54.514554 238.685897 50.807190 240.855769 49.410866 243.025641 49.320269 245.195513 31.122456 247.365385 29.875844 249.535256 30.996449 251.705128 39.208178 253.875000 51.410114 256.044872 52.044540 258.214744 52.909884 260.384615 52.208171 262.554487 50.609085 264.724359 50.634964 266.894231 50.582898 269.064103 49.891451 271.233974 51.135037 273.403846 48.651008 275.573718 50.207484 277.743590 50.239976 279.913462 51.526079 282.083333 52.376512 284.253205 52.164359 286.423077 53.549714 288.592949 54.893077 290.762821 56.536786 292.932692 57.842896 295.102564 56.738609 297.272436 53.982361 299.442308 41.334226 301.612179 48.712503 303.782051 53.636782 305.951923 54.139467 308.121795 59.427276 310.291667 60.719811 312.461538 63.062355 314.631410 65.484256 316.801282 63.911624 318.971154 73.322396 321.141026 74.854401 323.310897 77.230276 325.480769 80.450727 327.650641 81.156586 329.820513 84.819828 331.990385 85.466346 334.160256 84.802797 336.330128 82.928375 338.500000 81.236298 340.669872 90.373062 342.839744 91.654925 345.009615 94.194487 347.179487 83.152926 349.349359 73.315241 351.519231 78.636099 353.689103 73.152051 355.858974 73.343676 358.028846 70.070316 360.198718 70.044803 362.368590 79.760550 364.538462 68.111111 366.708333 67.715904 368.878205 72.332092 371.048077 67.110277 373.217949 72.225318 375.387821 77.169576 377.557692 77.755400 379.727564 79.361004 381.897436 80.428835 384.067308 91.009477 386.237179 92.893947 388.407051 92.834135 390.576923 91.601158 392.746795 94.775488 394.916667 100.910519 397.086538 96.181581 399.256410 102.546940 401.426282 105.254121 403.596154 108.324461 405.766026 122.998153 407.935897 122.998153 410.105769 133.455941 412.275641 133.455941 414.445513 140.546916 416.615385 145.355941 418.785256 139.577815 420.955128 132.732108 423.125000 132.732108 425.294872 127.622910 427.464744 127.622910 429.634615 116.844457 431.804487 116.844457 433.974359 118.981216 436.144231 118.981216 438.314103 118.981216 440.483974 123.778846 442.653846 120.094952 444.823718 118.420455 446.993590 118.420455 449.163462 118.420455 451.333333 108.141091 453.503205 113.062063 455.673077 120.903612 457.842949 120.903612 460.012821 81.948821 462.182692 81.948821 464.352564 81.948821 466.522436 93.216168 468.692308 87.193966 470.862179 96.574704 473.032051 96.574704 475.201923 104.131410 477.371795 104.131410 479.541667 86.270105 481.711538 79.572115 483.881410 79.572115 486.051282 79.572115 488.221154 104.131410 490.391026 104.131410 492.560897 104.131410 494.730769 79.572115 496.900641 79.572115 499.070513 79.572115 501.240385 79.572115 503.410256 79.572115 505.580128 5.894231 507.750000 5.894231 509.919872 5.894231 512.089744 5.894231 514.259615 5.894231 516.429487 5.894231 518.599359 5.894231 520.769231 5.894231 522.939103 5.894231 525.108974 5.894231 527.278846 5.894231 529.448718 5.894231 531.618590 5.894231 533.788462 5.894231 535.958333 5.894231 538.128205 5.894231 540.298077 5.894231 542.467949 5.894231 544.637821 5.894231 546.807692 5.894231 548.977564 5.894231 551.147436 5.894231 553.317308 5.894231 555.487179 5.894231 557.657051 5.894231 559.826923 5.894231 561.996795 5.894231 564.166667 5.894231 566.336538 5.894231 568.506410 5.894231 570.676282 5.894231 572.846154 5.894231 575.016026 5.894231 577.185897 5.894231 579.355769 5.894231 581.525641 5.894231 583.695513 5.894231 585.865385 5.894231 588.035256 5.894231 590.205128 5.894231 592.375000 5.894231 594.544872 5.894231 596.714744 5.894231 598.884615 5.894231 601.054487 5.894231 603.224359 5.894231 605.394231 5.894231 607.564103 5.894231 609.733974 5.894231 611.903846 5.894231 614.073718 5.894231 616.243590 5.894231 618.413462 5.894231 620.583333 5.894231 622.753205 5.894231 624.923077 5.894231 627.092949 5.894231 629.262821 5.894231 631.432692 5.894231 633.602564 5.894231 635.772436 5.894231 637.942308 5.894231 640.112179 5.894231 642.282051 5.894231 644.451923 5.894231 646.621795 5.894231 648.791667 5.894231 650.961538 5.894231 653.131410 5.894231 655.301282 5.894231 657.471154 5.894231 659.641026 5.894231 661.810897 5.894231 663.980769 5.894231"/></g><g class="series serie-7 color-7"><path class="line reactive nofill" d="M13.019231 5.894231 L15.189103 5.894231 17.358974 5.894231 19.528846 5.894231 21.698718 5.894231 23.868590 5.894231 26.038462 5.894231 28.208333 5.894231 30.378205 5.894231 32.548077 5.894231 34.717949 5.894231 36.887821 5.894231 39.057692 5.894231 41.227564 5.894231 43.397436 5.894231 45.567308 5.894231 47.737179 5.894231 49.907051 5.894231 52.076923 5.894231 54.246795 5.894231 56.416667 5.894231 58.586538 5.894231 60.756410 5.894231 62.926282 5.894231 65.096154 5.894231 67.266026 5.894231 69.435897 5.894231 71.605769 5.894231 73.775641 5.894231 75.945513 5.894231 78.115385 5.894231 80.285256 5.894231 82.455128 5.894231 84.625000 5.894231 86.794872 5.894231 88.964744 5.894231 91.134615 5.894231 93.304487 5.894231 95.474359 300.605769 97.644231 300.605769 99.814103 300.605769 101.983974 300.605769 104.153846 300.605769 106.323718 202.368590 108.493590 220.229895 110.663462 153.250000 112.833333 135.567308 115.003205 142.724588 117.173077 143.426282 119.342949 138.989764 121.512821 113.062063 123.682692 112.183638 125.852564 107.063863 128.022436 100.492996 130.192308 102.975679 132.362179 103.254293 134.532051 105.755165 136.701923 139.097186 138.871795 125.852194 141.041667 121.276578 143.211538 116.287851 145.381410 110.822487 147.551282 107.518899 149.721154 107.494052 151.891026 109.757328 154.060897 114.013257 156.230769 112.348969 158.400641 121.272502 160.570513 119.244822 162.740385 118.480661 164.910256 126.901617 167.080128 124.312261 169.250000 122.957351 171.419872 120.736029 173.589744 121.627667 175.759615 117.605834 177.929487 119.126518 180.099359 118.842968 182.269231 113.350321 184.439103 113.711277 186.608974 103.144598 188.778846 102.440239 190.948718 104.036861 193.118590 102.983780 195.288462 100.439637 197.458333 97.347318 199.628205 100.154197 201.798077 99.660689 203.967949 94.590242 206.137821 93.683303 208.307692 89.231978 210.477564 80.862554 212.647436 79.911361 214.817308 79.634291 216.987179 78.709665 219.157051 74.176265 221.326923 73.772012 223.496795 71.267094 225.666667 67.225366 227.836538 66.407966 230.006410 64.336358 232.176282 67.103550 234.346154 64.656653 236.516026 60.965794 238.685897 60.170669 240.855769 58.991020 243.025641 57.615130 245.195513 42.589831 247.365385 43.178144 249.535256 44.409848 251.705128 44.176047 253.875000 52.019022 256.044872 52.199407 258.214744 54.261772 260.384615 52.952768 262.554487 52.496400 264.724359 52.655513 266.894231 52.189354 269.064103 51.986557 271.233974 52.714875 273.403846 51.348596 275.573718 53.048077 277.743590 53.020274 279.913462 54.474599 282.083333 55.706586 284.253205 55.499143 286.423077 58.148050 288.592949 59.922285 290.762821 63.570475 292.932692 64.606295 295.102564 63.509009 297.272436 69.095773 299.442308 62.411697 301.612179 69.315437 303.782051 73.200459 305.951923 75.280638 308.121795 82.370010 310.291667 84.189006 312.461538 87.900920 314.631410 90.961151 316.801282 88.295745 318.971154 100.156054 321.141026 101.180412 323.310897 106.533297 325.480769 109.821468 327.650641 110.205214 329.820513 114.766774 331.990385 114.642788 334.160256 116.784678 336.330128 113.933819 338.500000 115.125099 340.669872 130.490863 342.839744 135.988843 345.009615 136.457857 347.179487 131.765138 349.349359 129.499417 351.519231 132.657633 353.689103 125.735437 355.858974 124.386499 358.028846 116.800476 360.198718 115.775904 362.368590 134.029682 364.538462 120.504274 366.708333 117.681366 368.878205 103.847488 371.048077 99.467331 373.217949 104.131410 375.387821 101.995819 377.557692 102.785695 379.727564 100.472146 381.897436 100.990105 384.067308 92.073417 386.237179 92.893947 388.407051 63.362981 390.576923 63.032182 392.746795 65.148403 394.916667 73.532945 397.086538 68.925022 399.256410 80.364351 401.426282 79.993132 403.596154 84.963180 405.766026 95.673905 407.935897 105.432565 410.105769 109.263203 412.275641 109.263203 414.445513 138.006300 416.615385 142.724588 418.785256 133.501289 420.955128 147.654211 423.125000 147.654211 425.294872 153.250000 427.464744 153.250000 429.634615 154.983597 431.804487 154.983597 433.974359 156.676878 436.144231 156.676878 438.314103 156.676878 440.483974 155.214744 442.653846 156.933894 444.823718 166.645979 446.993590 166.645979 449.163462 166.645979 451.333333 168.286303 453.503205 153.250000 455.673077 164.032129 457.842949 164.032129 460.012821 158.003412 462.182692 158.003412 464.352564 158.003412 466.522436 169.622863 468.692308 158.331233 470.862179 141.914941 473.032051 141.914941 475.201923 153.250000 477.371795 153.250000 479.541667 139.854021 481.711538 153.250000 483.881410 153.250000 486.051282 153.250000 488.221154 104.131410 490.391026 104.131410 492.560897 104.131410 494.730769 153.250000 496.900641 153.250000 499.070513 153.250000 501.240385 153.250000 503.410256 153.250000 505.580128 104.131410 507.750000 104.131410 509.919872 104.131410 512.089744 104.131410 514.259615 300.605769 516.429487 300.605769 518.599359 300.605769 520.769231 300.605769 522.939103 300.605769 525.108974 300.605769 527.278846 300.605769 529.448718 300.605769 531.618590 300.605769 533.788462 300.605769 535.958333 300.605769 538.128205 300.605769 540.298077 5.894231 542.467949 5.894231 544.637821 5.894231 546.807692 5.894231 548.977564 5.894231 551.147436 5.894231 553.317308 5.894231 555.487179 5.894231 557.657051 5.894231 559.826923 5.894231 561.996795 5.894231 564.166667 5.894231 566.336538 5.894231 568.506410 5.894231 570.676282 5.894231 572.846154 5.894231 575.016026 5.894231 577.185897 5.894231 579.355769 5.894231 581.525641 5.894231 583.695513 5.894231 585.865385 5.894231 588.035256 5.894231 590.205128 5.894231 592.375000 5.894231 594.544872 5.894231 596.714744 5.894231 598.884615 5.894231 601.054487 5.894231 603.224359 5.894231 605.394231 5.894231 607.564103 5.894231 609.733974 5.894231 611.903846 5.894231 614.073718 5.894231 616.243590 5.894231 618.413462 5.894231 620.583333 5.894231 622.753205 5.894231 624.923077 5.894231 627.092949 5.894231 629.262821 5.894231 631.432692 5.894231 633.602564 5.894231 635.772436 5.894231 637.942308 5.894231 640.112179 5.894231 642.282051 5.894231 644.451923 5.894231 646.621795 5.894231 648.791667 5.894231 650.961538 5.894231 653.131410 5.894231 655.301282 5.894231 657.471154 5.894231 659.641026 5.894231 661.810897 5.894231 663.980769 5.894231"/></g></g><g class="titles"><text class="title plot_title" x="400.0" y="28">Mean Accuracy1 for Tempo T ±10.0 BPM</text><text class="title" x="441.5" y="437.5">T (BPM)</text><text class="title" x="0" y="229.25" transform="rotate(-90 0.000000 201.250000)">Mean Accuracy1 (%)</text></g><g class="plot overlay" transform="translate(103, 48)"><g class="series serie-0 color-0"><g class="dots"><circle class="dot reactive tooltip-trigger" cx="13.01923076923077" cy="5.894230769230774" r="2.5"/><desc class="value">100.0</desc><desc class="x ">13.01923076923077</desc><desc class="y ">5.894230769230774</desc><desc class="x_label">0.0</desc></g><g class="dots"><circle class="dot reactive tooltip-trigger" cx="78.11538461538463" cy="5.894230769230774" r="2.5"/><desc class="value">100.0</desc><desc class="x ">78.11538461538463</desc><desc class="y ">5.894230769230774</desc><desc class="x_label">30.0</desc></g><g class="dots"><circle class="dot reactive tooltip-trigger" cx="143.21153846153845" cy="142.9005981476717" r="2.5"/><desc class="value">53.5</desc><desc class="x ">143.21153846153845</desc><desc class="y ">142.9005981476717</desc><desc class="x_label">60.0</desc></g><g class="dots"><circle class="dot reactive tooltip-trigger" cx="208.30769230769232" cy="103.97898639374591" r="2.5"/><desc class="value">66.7</desc><desc class="x ">208.30769230769232</desc><desc class="y ">103.97898639374591</desc><desc class="x_label">90.0</desc></g><g class="dots"><circle class="dot reactive tooltip-trigger" cx="273.4038461538462" cy="73.06418324238692" r="2.5"/><desc class="value">77.2</desc><desc class="x ">273.4038461538462</desc><desc class="y ">73.06418324238692</desc><desc class="x_label">120.0</desc></g><g class="dots"><circle class="dot reactive tooltip-trigger" cx="338.5" cy="109.37610567051019" r="2.5"/><desc class="value">64.9</desc><desc class="x ">338.5</desc><desc class="y ">109.37610567051019</desc><desc class="x_label">150.0</desc></g><g class="dots"><circle class="dot reactive tooltip-trigger" cx="403.59615384615387" cy="137.07680581613508" r="2.5"/><desc class="value">55.5</desc><desc class="x left">403.59615384615387</desc><desc class="y left">137.07680581613508</desc><desc class="x_label">180.0</desc></g><g class="dots"><circle class="dot reactive tooltip-trigger" cx="468.6923076923077" cy="209.1435676392573" r="2.5"/><desc class="value">31.0</desc><desc class="x left top">468.6923076923077</desc><desc class="y left top">209.1435676392573</desc><desc class="x_label">210.0</desc></g><g class="dots"><circle class="dot reactive tooltip-trigger" cx="533.7884615384615" cy="300.6057692307692" r="2.5"/><desc class="value">0.0</desc><desc class="x left top">533.7884615384615</desc><desc class="y left top">300.6057692307692</desc><desc class="x_label">240.0</desc></g><g class="dots"><circle class="dot reactive tooltip-trigger" cx="598.8846153846154" cy="5.894230769230774" r="2.5"/><desc class="value">100.0</desc><desc class="x left">598.8846153846154</desc><desc class="y left">5.894230769230774</desc><desc class="x_label">270.0</desc></g><g class="dots"><circle class="dot reactive tooltip-trigger" cx="663.9807692307692" cy="5.894230769230774" r="2.5"/><desc class="value">100.0</desc><desc class="x left">663.9807692307692</desc><desc class="y left">5.894230769230774</desc><desc class="x_label">300.0</desc></g></g><g class="series serie-1 color-1"><g class="dots"><circle class="dot reactive tooltip-trigger" cx="13.01923076923077" cy="5.894230769230774" r="2.5"/><desc class="value">100.0</desc><desc class="x ">13.01923076923077</desc><desc class="y ">5.894230769230774</desc><desc class="x_label">0.0</desc></g><g class="dots"><circle class="dot reactive tooltip-trigger" cx="78.11538461538463" cy="5.894230769230774" r="2.5"/><desc class="value">100.0</desc><desc class="x ">78.11538461538463</desc><desc class="y ">5.894230769230774</desc><desc class="x_label">30.0</desc></g><g class="dots"><circle class="dot reactive tooltip-trigger" cx="143.21153846153845" cy="273.0073642912272" r="2.5"/><desc class="value">9.4</desc><desc class="x top">143.21153846153845</desc><desc class="y top">273.0073642912272</desc><desc class="x_label">60.0</desc></g><g class="dots"><circle class="dot reactive tooltip-trigger" cx="208.30769230769232" cy="119.29758459151395" r="2.5"/><desc class="value">61.5</desc><desc class="x ">208.30769230769232</desc><desc class="y ">119.29758459151395</desc><desc class="x_label">90.0</desc></g><g class="dots"><circle class="dot reactive tooltip-trigger" cx="273.4038461538462" cy="53.506666960042224" r="2.5"/><desc class="value">83.8</desc><desc class="x ">273.4038461538462</desc><desc class="y ">53.506666960042224</desc><desc class="x_label">120.0</desc></g><g class="dots"><circle class="dot reactive tooltip-trigger" cx="338.5" cy="95.76006949928922" r="2.5"/><desc class="value">69.5</desc><desc class="x ">338.5</desc><desc class="y ">95.76006949928922</desc><desc class="x_label">150.0</desc></g><g class="dots"><circle class="dot reactive tooltip-trigger" cx="403.59615384615387" cy="208.95766885553473" r="2.5"/><desc class="value">31.1</desc><desc class="x left top">403.59615384615387</desc><desc class="y left top">208.95766885553473</desc><desc class="x_label">180.0</desc></g><g class="dots"><circle class="dot reactive tooltip-trigger" cx="468.6923076923077" cy="270.11836870026525" r="2.5"/><desc class="value">10.3</desc><desc class="x left top">468.6923076923077</desc><desc class="y left top">270.11836870026525</desc><desc class="x_label">210.0</desc></g><g class="dots"><circle class="dot reactive tooltip-trigger" cx="533.7884615384615" cy="300.6057692307692" r="2.5"/><desc class="value">0.0</desc><desc class="x left top">533.7884615384615</desc><desc class="y left top">300.6057692307692</desc><desc class="x_label">240.0</desc></g><g class="dots"><circle class="dot reactive tooltip-trigger" cx="598.8846153846154" cy="5.894230769230774" r="2.5"/><desc class="value">100.0</desc><desc class="x left">598.8846153846154</desc><desc class="y left">5.894230769230774</desc><desc class="x_label">270.0</desc></g><g class="dots"><circle class="dot reactive tooltip-trigger" cx="663.9807692307692" cy="5.894230769230774" r="2.5"/><desc class="value">100.0</desc><desc class="x left">663.9807692307692</desc><desc class="y left">5.894230769230774</desc><desc class="x_label">300.0</desc></g></g><g class="series serie-2 color-2"><g class="dots"><circle class="dot reactive tooltip-trigger" cx="13.01923076923077" cy="5.894230769230774" r="2.5"/><desc class="value">100.0</desc><desc class="x ">13.01923076923077</desc><desc class="y ">5.894230769230774</desc><desc class="x_label">0.0</desc></g><g class="dots"><circle class="dot reactive tooltip-trigger" cx="78.11538461538463" cy="5.894230769230774" r="2.5"/><desc class="value">100.0</desc><desc class="x ">78.11538461538463</desc><desc class="y ">5.894230769230774</desc><desc class="x_label">30.0</desc></g><g class="dots"><circle class="dot reactive tooltip-trigger" cx="143.21153846153845" cy="210.9109531772575" r="2.5"/><desc class="value">30.4</desc><desc class="x top">143.21153846153845</desc><desc class="y top">210.9109531772575</desc><desc class="x_label">60.0</desc></g><g class="dots"><circle class="dot reactive tooltip-trigger" cx="208.30769230769232" cy="57.337284418451986" r="2.5"/><desc class="value">82.5</desc><desc class="x ">208.30769230769232</desc><desc class="y ">57.337284418451986</desc><desc class="x_label">90.0</desc></g><g class="dots"><circle class="dot reactive tooltip-trigger" cx="273.4038461538462" cy="64.29702077099097" r="2.5"/><desc class="value">80.2</desc><desc class="x ">273.4038461538462</desc><desc class="y ">64.29702077099097</desc><desc class="x_label">120.0</desc></g><g class="dots"><circle class="dot reactive tooltip-trigger" cx="338.5" cy="186.8362225556784" r="2.5"/><desc class="value">38.6</desc><desc class="x top">338.5</desc><desc class="y top">186.8362225556784</desc><desc class="x_label">150.0</desc></g><g class="dots"><circle class="dot reactive tooltip-trigger" cx="403.59615384615387" cy="300.6057692307692" r="2.5"/><desc class="value">0.0</desc><desc class="x left top">403.59615384615387</desc><desc class="y left top">300.6057692307692</desc><desc class="x_label">180.0</desc></g><g class="dots"><circle class="dot reactive tooltip-trigger" cx="468.6923076923077" cy="300.6057692307692" r="2.5"/><desc class="value">0.0</desc><desc class="x left top">468.6923076923077</desc><desc class="y left top">300.6057692307692</desc><desc class="x_label">210.0</desc></g><g class="dots"><circle class="dot reactive tooltip-trigger" cx="533.7884615384615" cy="300.6057692307692" r="2.5"/><desc class="value">0.0</desc><desc class="x left top">533.7884615384615</desc><desc class="y left top">300.6057692307692</desc><desc class="x_label">240.0</desc></g><g class="dots"><circle class="dot reactive tooltip-trigger" cx="598.8846153846154" cy="5.894230769230774" r="2.5"/><desc class="value">100.0</desc><desc class="x left">598.8846153846154</desc><desc class="y left">5.894230769230774</desc><desc class="x_label">270.0</desc></g><g class="dots"><circle class="dot reactive tooltip-trigger" cx="663.9807692307692" cy="5.894230769230774" r="2.5"/><desc class="value">100.0</desc><desc class="x left">663.9807692307692</desc><desc class="y left">5.894230769230774</desc><desc class="x_label">300.0</desc></g></g><g class="series serie-3 color-3"><g class="dots"><circle class="dot reactive tooltip-trigger" cx="13.01923076923077" cy="5.894230769230774" r="2.5"/><desc class="value">100.0</desc><desc class="x ">13.01923076923077</desc><desc class="y ">5.894230769230774</desc><desc class="x_label">0.0</desc></g><g class="dots"><circle class="dot reactive tooltip-trigger" cx="78.11538461538463" cy="5.894230769230774" r="2.5"/><desc class="value">100.0</desc><desc class="x ">78.11538461538463</desc><desc class="y ">5.894230769230774</desc><desc class="x_label">30.0</desc></g><g class="dots"><circle class="dot reactive tooltip-trigger" cx="143.21153846153845" cy="162.6137445330589" r="2.5"/><desc class="value">46.8</desc><desc class="x top">143.21153846153845</desc><desc class="y top">162.6137445330589</desc><desc class="x_label">60.0</desc></g><g class="dots"><circle class="dot reactive tooltip-trigger" cx="208.30769230769232" cy="54.593654890493525" r="2.5"/><desc class="value">83.5</desc><desc class="x ">208.30769230769232</desc><desc class="y ">54.593654890493525</desc><desc class="x_label">90.0</desc></g><g class="dots"><circle class="dot reactive tooltip-trigger" cx="273.4038461538462" cy="61.73431174089066" r="2.5"/><desc class="value">81.1</desc><desc class="x ">273.4038461538462</desc><desc class="y ">61.73431174089066</desc><desc class="x_label">120.0</desc></g><g class="dots"><circle class="dot reactive tooltip-trigger" cx="338.5" cy="174.43050071078818" r="2.5"/><desc class="value">42.8</desc><desc class="x top">338.5</desc><desc class="y top">174.43050071078818</desc><desc class="x_label">150.0</desc></g><g class="dots"><circle class="dot reactive tooltip-trigger" cx="403.59615384615387" cy="300.6057692307692" r="2.5"/><desc class="value">0.0</desc><desc class="x left top">403.59615384615387</desc><desc class="y left top">300.6057692307692</desc><desc class="x_label">180.0</desc></g><g class="dots"><circle class="dot reactive tooltip-trigger" cx="468.6923076923077" cy="300.6057692307692" r="2.5"/><desc class="value">0.0</desc><desc class="x left top">468.6923076923077</desc><desc class="y left top">300.6057692307692</desc><desc class="x_label">210.0</desc></g><g class="dots"><circle class="dot reactive tooltip-trigger" cx="533.7884615384615" cy="300.6057692307692" r="2.5"/><desc class="value">0.0</desc><desc class="x left top">533.7884615384615</desc><desc class="y left top">300.6057692307692</desc><desc class="x_label">240.0</desc></g><g class="dots"><circle class="dot reactive tooltip-trigger" cx="598.8846153846154" cy="5.894230769230774" r="2.5"/><desc class="value">100.0</desc><desc class="x left">598.8846153846154</desc><desc class="y left">5.894230769230774</desc><desc class="x_label">270.0</desc></g><g class="dots"><circle class="dot reactive tooltip-trigger" cx="663.9807692307692" cy="5.894230769230774" r="2.5"/><desc class="value">100.0</desc><desc class="x left">663.9807692307692</desc><desc class="y left">5.894230769230774</desc><desc class="x_label">300.0</desc></g></g><g class="series serie-4 color-4"><g class="dots"><circle class="dot reactive tooltip-trigger" cx="13.01923076923077" cy="5.894230769230774" r="2.5"/><desc class="value">100.0</desc><desc class="x ">13.01923076923077</desc><desc class="y ">5.894230769230774</desc><desc class="x_label">0.0</desc></g><g class="dots"><circle class="dot reactive tooltip-trigger" cx="78.11538461538463" cy="5.894230769230774" r="2.5"/><desc class="value">100.0</desc><desc class="x ">78.11538461538463</desc><desc class="y ">5.894230769230774</desc><desc class="x_label">30.0</desc></g><g class="dots"><circle class="dot reactive tooltip-trigger" cx="143.21153846153845" cy="172.4703177257525" r="2.5"/><desc class="value">43.5</desc><desc class="x top">143.21153846153845</desc><desc class="y top">172.4703177257525</desc><desc class="x_label">60.0</desc></g><g class="dots"><circle class="dot reactive tooltip-trigger" cx="208.30769230769232" cy="62.48158978337412" r="2.5"/><desc class="value">80.8</desc><desc class="x ">208.30769230769232</desc><desc class="y ">62.48158978337412</desc><desc class="x_label">90.0</desc></g><g class="dots"><circle class="dot reactive tooltip-trigger" cx="273.4038461538462" cy="54.45082291850028" r="2.5"/><desc class="value">83.5</desc><desc class="x ">273.4038461538462</desc><desc class="y ">54.45082291850028</desc><desc class="x_label">120.0</desc></g><g class="dots"><circle class="dot reactive tooltip-trigger" cx="338.5" cy="157.48610014215762" r="2.5"/><desc class="value">48.6</desc><desc class="x top">338.5</desc><desc class="y top">157.48610014215762</desc><desc class="x_label">150.0</desc></g><g class="dots"><circle class="dot reactive tooltip-trigger" cx="403.59615384615387" cy="255.68022983114446" r="2.5"/><desc class="value">15.2</desc><desc class="x left top">403.59615384615387</desc><desc class="y left top">255.68022983114446</desc><desc class="x_label">180.0</desc></g><g class="dots"><circle class="dot reactive tooltip-trigger" cx="468.6923076923077" cy="290.4433023872679" r="2.5"/><desc class="value">3.4</desc><desc class="x left top">468.6923076923077</desc><desc class="y left top">290.4433023872679</desc><desc class="x_label">210.0</desc></g><g class="dots"><circle class="dot reactive tooltip-trigger" cx="533.7884615384615" cy="300.6057692307692" r="2.5"/><desc class="value">0.0</desc><desc class="x left top">533.7884615384615</desc><desc class="y left top">300.6057692307692</desc><desc class="x_label">240.0</desc></g><g class="dots"><circle class="dot reactive tooltip-trigger" cx="598.8846153846154" cy="5.894230769230774" r="2.5"/><desc class="value">100.0</desc><desc class="x left">598.8846153846154</desc><desc class="y left">5.894230769230774</desc><desc class="x_label">270.0</desc></g><g class="dots"><circle class="dot reactive tooltip-trigger" cx="663.9807692307692" cy="5.894230769230774" r="2.5"/><desc class="value">100.0</desc><desc class="x left">663.9807692307692</desc><desc class="y left">5.894230769230774</desc><desc class="x_label">300.0</desc></g></g><g class="series serie-5 color-5"><g class="dots"><circle class="dot reactive tooltip-trigger" cx="13.01923076923077" cy="5.894230769230774" r="2.5"/><desc class="value">100.0</desc><desc class="x ">13.01923076923077</desc><desc class="y ">5.894230769230774</desc><desc class="x_label">0.0</desc></g><g class="dots"><circle class="dot reactive tooltip-trigger" cx="78.11538461538463" cy="5.894230769230774" r="2.5"/><desc class="value">100.0</desc><desc class="x ">78.11538461538463</desc><desc class="y ">5.894230769230774</desc><desc class="x_label">30.0</desc></g><g class="dots"><circle class="dot reactive tooltip-trigger" cx="143.21153846153845" cy="164.58505917159763" r="2.5"/><desc class="value">46.2</desc><desc class="x top">143.21153846153845</desc><desc class="y top">164.58505917159763</desc><desc class="x_label">60.0</desc></g><g class="dots"><circle class="dot reactive tooltip-trigger" cx="208.30769230769232" cy="79.05768484812319" r="2.5"/><desc class="value">75.2</desc><desc class="x ">208.30769230769232</desc><desc class="y ">79.05768484812319</desc><desc class="x_label">90.0</desc></g><g class="dots"><circle class="dot reactive tooltip-trigger" cx="273.4038461538462" cy="56.3391348354163" r="2.5"/><desc class="value">82.9</desc><desc class="x ">273.4038461538462</desc><desc class="y ">56.3391348354163</desc><desc class="x_label">120.0</desc></g><g class="dots"><circle class="dot reactive tooltip-trigger" cx="338.5" cy="130.25402779971566" r="2.5"/><desc class="value">57.8</desc><desc class="x ">338.5</desc><desc class="y ">130.25402779971566</desc><desc class="x_label">150.0</desc></g><g class="dots"><circle class="dot reactive tooltip-trigger" cx="403.59615384615387" cy="194.58149624765477" r="2.5"/><desc class="value">36.0</desc><desc class="x left top">403.59615384615387</desc><desc class="y left top">194.58149624765477</desc><desc class="x_label">180.0</desc></g><g class="dots"><circle class="dot reactive tooltip-trigger" cx="468.6923076923077" cy="300.6057692307692" r="2.5"/><desc class="value">0.0</desc><desc class="x left top">468.6923076923077</desc><desc class="y left top">300.6057692307692</desc><desc class="x_label">210.0</desc></g><g class="dots"><circle class="dot reactive tooltip-trigger" cx="533.7884615384615" cy="300.6057692307692" r="2.5"/><desc class="value">0.0</desc><desc class="x left top">533.7884615384615</desc><desc class="y left top">300.6057692307692</desc><desc class="x_label">240.0</desc></g><g class="dots"><circle class="dot reactive tooltip-trigger" cx="598.8846153846154" cy="5.894230769230774" r="2.5"/><desc class="value">100.0</desc><desc class="x left">598.8846153846154</desc><desc class="y left">5.894230769230774</desc><desc class="x_label">270.0</desc></g><g class="dots"><circle class="dot reactive tooltip-trigger" cx="663.9807692307692" cy="5.894230769230774" r="2.5"/><desc class="value">100.0</desc><desc class="x left">663.9807692307692</desc><desc class="y left">5.894230769230774</desc><desc class="x_label">300.0</desc></g></g><g class="series serie-6 color-6"><g class="dots"><circle class="dot reactive tooltip-trigger" cx="13.01923076923077" cy="5.894230769230774" r="2.5"/><desc class="value">100.0</desc><desc class="x ">13.01923076923077</desc><desc class="y ">5.894230769230774</desc><desc class="x_label">0.0</desc></g><g class="dots"><circle class="dot reactive tooltip-trigger" cx="78.11538461538463" cy="5.894230769230774" r="2.5"/><desc class="value">100.0</desc><desc class="x ">78.11538461538463</desc><desc class="y ">5.894230769230774</desc><desc class="x_label">30.0</desc></g><g class="dots"><circle class="dot reactive tooltip-trigger" cx="143.21153846153845" cy="121.2161371237458" r="2.5"/><desc class="value">60.9</desc><desc class="x ">143.21153846153845</desc><desc class="y ">121.2161371237458</desc><desc class="x_label">60.0</desc></g><g class="dots"><circle class="dot reactive tooltip-trigger" cx="208.30769230769232" cy="75.97110162916988" r="2.5"/><desc class="value">76.2</desc><desc class="x ">208.30769230769232</desc><desc class="y ">75.97110162916988</desc><desc class="x_label">90.0</desc></g><g class="dots"><circle class="dot reactive tooltip-trigger" cx="273.4038461538462" cy="48.65100774511535" r="2.5"/><desc class="value">85.5</desc><desc class="x ">273.4038461538462</desc><desc class="y ">48.65100774511535</desc><desc class="x_label">120.0</desc></g><g class="dots"><circle class="dot reactive tooltip-trigger" cx="338.5" cy="81.23629758332015" r="2.5"/><desc class="value">74.4</desc><desc class="x ">338.5</desc><desc class="y ">81.23629758332015</desc><desc class="x_label">150.0</desc></g><g class="dots"><circle class="dot reactive tooltip-trigger" cx="403.59615384615387" cy="108.3244606003752" r="2.5"/><desc class="value">65.2</desc><desc class="x left">403.59615384615387</desc><desc class="y left">108.3244606003752</desc><desc class="x_label">180.0</desc></g><g class="dots"><circle class="dot reactive tooltip-trigger" cx="468.6923076923077" cy="87.1939655172414" r="2.5"/><desc class="value">72.4</desc><desc class="x left">468.6923076923077</desc><desc class="y left">87.1939655172414</desc><desc class="x_label">210.0</desc></g><g class="dots"><circle class="dot reactive tooltip-trigger" cx="533.7884615384615" cy="5.894230769230774" r="2.5"/><desc class="value">100.0</desc><desc class="x left">533.7884615384615</desc><desc class="y left">5.894230769230774</desc><desc class="x_label">240.0</desc></g><g class="dots"><circle class="dot reactive tooltip-trigger" cx="598.8846153846154" cy="5.894230769230774" r="2.5"/><desc class="value">100.0</desc><desc class="x left">598.8846153846154</desc><desc class="y left">5.894230769230774</desc><desc class="x_label">270.0</desc></g><g class="dots"><circle class="dot reactive tooltip-trigger" cx="663.9807692307692" cy="5.894230769230774" r="2.5"/><desc class="value">100.0</desc><desc class="x left">663.9807692307692</desc><desc class="y left">5.894230769230774</desc><desc class="x_label">300.0</desc></g></g><g class="series serie-7 color-7"><g class="dots"><circle class="dot reactive tooltip-trigger" cx="13.01923076923077" cy="5.894230769230774" r="2.5"/><desc class="value">100.0</desc><desc class="x ">13.01923076923077</desc><desc class="y ">5.894230769230774</desc><desc class="x_label">0.0</desc></g><g class="dots"><circle class="dot reactive tooltip-trigger" cx="78.11538461538463" cy="5.894230769230774" r="2.5"/><desc class="value">100.0</desc><desc class="x ">78.11538461538463</desc><desc class="y ">5.894230769230774</desc><desc class="x_label">30.0</desc></g><g class="dots"><circle class="dot reactive tooltip-trigger" cx="143.21153846153845" cy="116.287850527399" r="2.5"/><desc class="value">62.5</desc><desc class="x ">143.21153846153845</desc><desc class="y ">116.287850527399</desc><desc class="x_label">60.0</desc></g><g class="dots"><circle class="dot reactive tooltip-trigger" cx="208.30769230769232" cy="89.23197768096912" r="2.5"/><desc class="value">71.7</desc><desc class="x ">208.30769230769232</desc><desc class="y ">89.23197768096912</desc><desc class="x_label">90.0</desc></g><g class="dots"><circle class="dot reactive tooltip-trigger" cx="273.4038461538462" cy="51.348596197852515" r="2.5"/><desc class="value">84.6</desc><desc class="x ">273.4038461538462</desc><desc class="y ">51.348596197852515</desc><desc class="x_label">120.0</desc></g><g class="dots"><circle class="dot reactive tooltip-trigger" cx="338.5" cy="115.12509872058126" r="2.5"/><desc class="value">62.9</desc><desc class="x ">338.5</desc><desc class="y ">115.12509872058126</desc><desc class="x_label">150.0</desc></g><g class="dots"><circle class="dot reactive tooltip-trigger" cx="403.59615384615387" cy="84.96318011257034" r="2.5"/><desc class="value">73.2</desc><desc class="x left">403.59615384615387</desc><desc class="y left">84.96318011257034</desc><desc class="x_label">180.0</desc></g><g class="dots"><circle class="dot reactive tooltip-trigger" cx="468.6923076923077" cy="158.33123342175065" r="2.5"/><desc class="value">48.3</desc><desc class="x left top">468.6923076923077</desc><desc class="y left top">158.33123342175065</desc><desc class="x_label">210.0</desc></g><g class="dots"><circle class="dot reactive tooltip-trigger" cx="533.7884615384615" cy="300.6057692307692" r="2.5"/><desc class="value">0.0</desc><desc class="x left top">533.7884615384615</desc><desc class="y left top">300.6057692307692</desc><desc class="x_label">240.0</desc></g><g class="dots"><circle class="dot reactive tooltip-trigger" cx="598.8846153846154" cy="5.894230769230774" r="2.5"/><desc class="value">100.0</desc><desc class="x left">598.8846153846154</desc><desc class="y left">5.894230769230774</desc><desc class="x_label">270.0</desc></g><g class="dots"><circle class="dot reactive tooltip-trigger" cx="663.9807692307692" cy="5.894230769230774" r="2.5"/><desc class="value">100.0</desc><desc class="x left">663.9807692307692</desc><desc class="y left">5.894230769230774</desc><desc class="x_label">300.0</desc></g></g></g><g class="plot text-overlay" transform="translate(103, 48)"><g class="series serie-0 color-0"/><g class="series serie-1 color-1"/><g class="series serie-2 color-2"/><g class="series serie-3 color-3"/><g class="series serie-4 color-4"/><g class="series serie-5 color-5"/><g class="series serie-6 color-6"/><g class="series serie-7 color-7"/></g><g class="plot tooltip-overlay" transform="translate(103, 48)"><g class="tooltip" style="opacity: 0" transform="translate(0 0)"><rect class="tooltip-box" height="0" rx="0" ry="0" width="0"/><g class="text"/></g></g><g class="legends" transform="translate(113, 457)"><g class="legend reactive activate-serie" id="activate-serie-0"><rect class="color-0 reactive" height="12" width="12" x="0.0" y="1.5"/><text x="17.0" y="12.0">boeck2015/tempodetector2016_default</text></g><g class="legend reactive activate-serie" id="activate-serie-1"><rect class="color-1 reactive" height="12" width="12" x="338.5" y="1.5"/><text x="355.5" y="12.0">davies2009/mirex_qm_tempotracker</text></g><g class="legend reactive activate-serie" id="activate-serie-2"><rect class="color-2 reactive" height="12" width="12" x="0.0" y="24.0"/><text x="17.0" y="34.5">percival2014/stem</text></g><g class="legend reactive activate-serie" id="activate-serie-3"><rect class="color-3 reactive" height="12" width="12" x="338.5" y="24.0"/><text x="355.5" y="34.5">schreiber2014/default</text></g><g class="legend reactive activate-serie" id="activate-serie-4"><rect class="color-4 reactive" height="12" width="12" x="0.0" y="46.5"/><text x="17.0" y="57.0">schreiber2017/ismir2017</text></g><g class="legend reactive activate-serie" id="activate-serie-5"><rect class="color-5 reactive" height="12" width="12" x="338.5" y="46.5"/><text x="355.5" y="57.0">schreiber2017/mirex2017</text></g><g class="legend reactive activate-serie" id="activate-serie-6"><rect class="color-6 reactive" height="12" width="12" x="0.0" y="69.0"/><text x="17.0" y="79.5">schreiber2018/cnn</text></g><g class="legend reactive activate-serie" id="activate-serie-7"><rect class="color-7 reactive" height="12" width="12" x="338.5" y="69.0"/><text x="355.5" y="79.5">schreiber2018/fcn</text></g></g></g></svg>