<?xml version='1.0' encoding='utf-8'?>
<svg xmlns:xlink="http://www.w3.org/1999/xlink" xmlns="http://www.w3.org/2000/svg" id="chart-fbf02a89-c907-4fe3-b29d-40ab7dc9d808" class="pygal-chart" viewBox="0 0 800 600"><!--Generated with pygal 2.4.0 (lxml) ©Kozea 2012-2016 on 2019-10-13--><!--http://pygal.org--><!--http://github.com/Kozea/pygal--><defs><style type="text/css">#chart-fbf02a89-c907-4fe3-b29d-40ab7dc9d808{-webkit-user-select:none;-webkit-font-smoothing:antialiased;font-family:Helvetica,Arial,sans-serif}#chart-fbf02a89-c907-4fe3-b29d-40ab7dc9d808 .title{font-family:Helvetica,Arial,sans-serif;font-size:18px}#chart-fbf02a89-c907-4fe3-b29d-40ab7dc9d808 .legends .legend text{font-family:Helvetica,Arial,sans-serif;font-size:15px}#chart-fbf02a89-c907-4fe3-b29d-40ab7dc9d808 .axis text{font-family:Helvetica,Arial,sans-serif;font-size:15px}#chart-fbf02a89-c907-4fe3-b29d-40ab7dc9d808 .axis text.major{font-family:Helvetica,Arial,sans-serif;font-size:15px}#chart-fbf02a89-c907-4fe3-b29d-40ab7dc9d808 .text-overlay text.value{font-family:Helvetica,Arial,sans-serif;font-size:15px}#chart-fbf02a89-c907-4fe3-b29d-40ab7dc9d808 .text-overlay text.label{font-family:Helvetica,Arial,sans-serif;font-size:15px}#chart-fbf02a89-c907-4fe3-b29d-40ab7dc9d808 .tooltip{font-family:Helvetica,Arial,sans-serif;font-size:14px}#chart-fbf02a89-c907-4fe3-b29d-40ab7dc9d808 text.no_data{font-family:Helvetica,Arial,sans-serif;font-size:64px}
#chart-fbf02a89-c907-4fe3-b29d-40ab7dc9d808{background-color:transparent}#chart-fbf02a89-c907-4fe3-b29d-40ab7dc9d808 path,#chart-fbf02a89-c907-4fe3-b29d-40ab7dc9d808 line,#chart-fbf02a89-c907-4fe3-b29d-40ab7dc9d808 rect,#chart-fbf02a89-c907-4fe3-b29d-40ab7dc9d808 circle{-webkit-transition:150ms;-moz-transition:150ms;transition:150ms}#chart-fbf02a89-c907-4fe3-b29d-40ab7dc9d808 .graph &gt; .background{fill:transparent}#chart-fbf02a89-c907-4fe3-b29d-40ab7dc9d808 .plot &gt; .background{fill:white}#chart-fbf02a89-c907-4fe3-b29d-40ab7dc9d808 .graph{fill:rgba(0,0,0,.87)}#chart-fbf02a89-c907-4fe3-b29d-40ab7dc9d808 text.no_data{fill:rgba(0,0,0,1)}#chart-fbf02a89-c907-4fe3-b29d-40ab7dc9d808 .title{fill:rgba(0,0,0,1)}#chart-fbf02a89-c907-4fe3-b29d-40ab7dc9d808 .legends .legend text{fill:rgba(0,0,0,.87)}#chart-fbf02a89-c907-4fe3-b29d-40ab7dc9d808 .legends .legend:hover text{fill:rgba(0,0,0,1)}#chart-fbf02a89-c907-4fe3-b29d-40ab7dc9d808 .axis .line{stroke:rgba(0,0,0,1)}#chart-fbf02a89-c907-4fe3-b29d-40ab7dc9d808 .axis .guide.line{stroke:rgba(0,0,0,.54)}#chart-fbf02a89-c907-4fe3-b29d-40ab7dc9d808 .axis .major.line{stroke:rgba(0,0,0,.87)}#chart-fbf02a89-c907-4fe3-b29d-40ab7dc9d808 .axis text.major{fill:rgba(0,0,0,1)}#chart-fbf02a89-c907-4fe3-b29d-40ab7dc9d808 .axis.y .guides:hover .guide.line,#chart-fbf02a89-c907-4fe3-b29d-40ab7dc9d808 .line-graph .axis.x .guides:hover .guide.line,#chart-fbf02a89-c907-4fe3-b29d-40ab7dc9d808 .stackedline-graph .axis.x .guides:hover .guide.line,#chart-fbf02a89-c907-4fe3-b29d-40ab7dc9d808 .xy-graph .axis.x .guides:hover .guide.line{stroke:rgba(0,0,0,1)}#chart-fbf02a89-c907-4fe3-b29d-40ab7dc9d808 .axis .guides:hover text{fill:rgba(0,0,0,1)}#chart-fbf02a89-c907-4fe3-b29d-40ab7dc9d808 .reactive{fill-opacity:.7;stroke-opacity:.8}#chart-fbf02a89-c907-4fe3-b29d-40ab7dc9d808 .ci{stroke:rgba(0,0,0,.87)}#chart-fbf02a89-c907-4fe3-b29d-40ab7dc9d808 .reactive.active,#chart-fbf02a89-c907-4fe3-b29d-40ab7dc9d808 .active .reactive{fill-opacity:.8;stroke-opacity:.9;stroke-width:4}#chart-fbf02a89-c907-4fe3-b29d-40ab7dc9d808 .ci .reactive.active{stroke-width:1.5}#chart-fbf02a89-c907-4fe3-b29d-40ab7dc9d808 .series text{fill:rgba(0,0,0,1)}#chart-fbf02a89-c907-4fe3-b29d-40ab7dc9d808 .tooltip rect{fill:white;stroke:rgba(0,0,0,1);-webkit-transition:opacity 150ms;-moz-transition:opacity 150ms;transition:opacity 150ms}#chart-fbf02a89-c907-4fe3-b29d-40ab7dc9d808 .tooltip .label{fill:rgba(0,0,0,.87)}#chart-fbf02a89-c907-4fe3-b29d-40ab7dc9d808 .tooltip .label{fill:rgba(0,0,0,.87)}#chart-fbf02a89-c907-4fe3-b29d-40ab7dc9d808 .tooltip .legend{font-size:.8em;fill:rgba(0,0,0,.54)}#chart-fbf02a89-c907-4fe3-b29d-40ab7dc9d808 .tooltip .x_label{font-size:.6em;fill:rgba(0,0,0,1)}#chart-fbf02a89-c907-4fe3-b29d-40ab7dc9d808 .tooltip .xlink{font-size:.5em;text-decoration:underline}#chart-fbf02a89-c907-4fe3-b29d-40ab7dc9d808 .tooltip .value{font-size:1.5em}#chart-fbf02a89-c907-4fe3-b29d-40ab7dc9d808 .bound{font-size:.5em}#chart-fbf02a89-c907-4fe3-b29d-40ab7dc9d808 .max-value{font-size:.75em;fill:rgba(0,0,0,.54)}#chart-fbf02a89-c907-4fe3-b29d-40ab7dc9d808 .map-element{fill:white;stroke:rgba(0,0,0,.54) !important}#chart-fbf02a89-c907-4fe3-b29d-40ab7dc9d808 .map-element .reactive{fill-opacity:inherit;stroke-opacity:inherit}#chart-fbf02a89-c907-4fe3-b29d-40ab7dc9d808 .color-0,#chart-fbf02a89-c907-4fe3-b29d-40ab7dc9d808 .color-0 a:visited{stroke:#F44336;fill:#F44336}#chart-fbf02a89-c907-4fe3-b29d-40ab7dc9d808 .color-1,#chart-fbf02a89-c907-4fe3-b29d-40ab7dc9d808 .color-1 a:visited{stroke:#3F51B5;fill:#3F51B5}#chart-fbf02a89-c907-4fe3-b29d-40ab7dc9d808 .color-2,#chart-fbf02a89-c907-4fe3-b29d-40ab7dc9d808 .color-2 a:visited{stroke:#009688;fill:#009688}#chart-fbf02a89-c907-4fe3-b29d-40ab7dc9d808 .color-3,#chart-fbf02a89-c907-4fe3-b29d-40ab7dc9d808 .color-3 a:visited{stroke:#FFC107;fill:#FFC107}#chart-fbf02a89-c907-4fe3-b29d-40ab7dc9d808 .color-4,#chart-fbf02a89-c907-4fe3-b29d-40ab7dc9d808 .color-4 a:visited{stroke:#FF5722;fill:#FF5722}#chart-fbf02a89-c907-4fe3-b29d-40ab7dc9d808 .color-5,#chart-fbf02a89-c907-4fe3-b29d-40ab7dc9d808 .color-5 a:visited{stroke:#9C27B0;fill:#9C27B0}#chart-fbf02a89-c907-4fe3-b29d-40ab7dc9d808 .text-overlay .color-0 text{fill:black}#chart-fbf02a89-c907-4fe3-b29d-40ab7dc9d808 .text-overlay .color-1 text{fill:black}#chart-fbf02a89-c907-4fe3-b29d-40ab7dc9d808 .text-overlay .color-2 text{fill:black}#chart-fbf02a89-c907-4fe3-b29d-40ab7dc9d808 .text-overlay .color-3 text{fill:black}#chart-fbf02a89-c907-4fe3-b29d-40ab7dc9d808 .text-overlay .color-4 text{fill:black}#chart-fbf02a89-c907-4fe3-b29d-40ab7dc9d808 .text-overlay .color-5 text{fill:black}
#chart-fbf02a89-c907-4fe3-b29d-40ab7dc9d808 text.no_data{text-anchor:middle}#chart-fbf02a89-c907-4fe3-b29d-40ab7dc9d808 .guide.line{fill:none}#chart-fbf02a89-c907-4fe3-b29d-40ab7dc9d808 .centered{text-anchor:middle}#chart-fbf02a89-c907-4fe3-b29d-40ab7dc9d808 .title{text-anchor:middle}#chart-fbf02a89-c907-4fe3-b29d-40ab7dc9d808 .legends .legend text{fill-opacity:1}#chart-fbf02a89-c907-4fe3-b29d-40ab7dc9d808 .axis.x text{text-anchor:middle}#chart-fbf02a89-c907-4fe3-b29d-40ab7dc9d808 .axis.x:not(.web) text[transform]{text-anchor:start}#chart-fbf02a89-c907-4fe3-b29d-40ab7dc9d808 .axis.x:not(.web) text[transform].backwards{text-anchor:end}#chart-fbf02a89-c907-4fe3-b29d-40ab7dc9d808 .axis.y text{text-anchor:end}#chart-fbf02a89-c907-4fe3-b29d-40ab7dc9d808 .axis.y text[transform].backwards{text-anchor:start}#chart-fbf02a89-c907-4fe3-b29d-40ab7dc9d808 .axis.y2 text{text-anchor:start}#chart-fbf02a89-c907-4fe3-b29d-40ab7dc9d808 .axis.y2 text[transform].backwards{text-anchor:end}#chart-fbf02a89-c907-4fe3-b29d-40ab7dc9d808 .axis .guide.line{stroke-dasharray:1}#chart-fbf02a89-c907-4fe3-b29d-40ab7dc9d808 .axis .major.guide.line{stroke-dasharray:1}#chart-fbf02a89-c907-4fe3-b29d-40ab7dc9d808 .horizontal .axis.y .guide.line,#chart-fbf02a89-c907-4fe3-b29d-40ab7dc9d808 .horizontal .axis.y2 .guide.line,#chart-fbf02a89-c907-4fe3-b29d-40ab7dc9d808 .vertical .axis.x .guide.line{opacity:0}#chart-fbf02a89-c907-4fe3-b29d-40ab7dc9d808 .horizontal .axis.always_show .guide.line,#chart-fbf02a89-c907-4fe3-b29d-40ab7dc9d808 .vertical .axis.always_show .guide.line{opacity:1 !important}#chart-fbf02a89-c907-4fe3-b29d-40ab7dc9d808 .axis.y .guides:hover .guide.line,#chart-fbf02a89-c907-4fe3-b29d-40ab7dc9d808 .axis.y2 .guides:hover .guide.line,#chart-fbf02a89-c907-4fe3-b29d-40ab7dc9d808 .axis.x .guides:hover .guide.line{opacity:1}#chart-fbf02a89-c907-4fe3-b29d-40ab7dc9d808 .axis .guides:hover text{opacity:1}#chart-fbf02a89-c907-4fe3-b29d-40ab7dc9d808 .nofill{fill:none}#chart-fbf02a89-c907-4fe3-b29d-40ab7dc9d808 .subtle-fill{fill-opacity:.2}#chart-fbf02a89-c907-4fe3-b29d-40ab7dc9d808 .dot{stroke-width:1px;fill-opacity:1}#chart-fbf02a89-c907-4fe3-b29d-40ab7dc9d808 .dot.active{stroke-width:5px}#chart-fbf02a89-c907-4fe3-b29d-40ab7dc9d808 .dot.negative{fill:transparent}#chart-fbf02a89-c907-4fe3-b29d-40ab7dc9d808 text,#chart-fbf02a89-c907-4fe3-b29d-40ab7dc9d808 tspan{stroke:none !important}#chart-fbf02a89-c907-4fe3-b29d-40ab7dc9d808 .series text.active{opacity:1}#chart-fbf02a89-c907-4fe3-b29d-40ab7dc9d808 .tooltip rect{fill-opacity:.95;stroke-width:.5}#chart-fbf02a89-c907-4fe3-b29d-40ab7dc9d808 .tooltip text{fill-opacity:1}#chart-fbf02a89-c907-4fe3-b29d-40ab7dc9d808 .showable{visibility:hidden}#chart-fbf02a89-c907-4fe3-b29d-40ab7dc9d808 .showable.shown{visibility:visible}#chart-fbf02a89-c907-4fe3-b29d-40ab7dc9d808 .gauge-background{fill:rgba(229,229,229,1);stroke:none}#chart-fbf02a89-c907-4fe3-b29d-40ab7dc9d808 .bg-lines{stroke:transparent;stroke-width:2px}</style><script type="text/javascript">window.pygal = window.pygal || {};window.pygal.config = window.pygal.config || {};window.pygal.config['fbf02a89-c907-4fe3-b29d-40ab7dc9d808'] = {"allow_interruptions": false, "box_mode": "extremes", "classes": ["pygal-chart"], "css": ["file://style.css", "file://graph.css"], "defs": [], "disable_xml_declaration": false, "dots_size": 2.5, "dynamic_print_values": false, "explicit_size": false, "fill": false, "force_uri_protocol": "https", "formatter": null, "half_pie": false, "height": 600, "include_x_axis": false, "inner_radius": 0, "interpolate": null, "interpolation_parameters": {}, "interpolation_precision": 250, "inverse_y_axis": false, "js": ["//kozea.github.io/pygal.js/2.0.x/pygal-tooltips.min.js"], "legend_at_bottom": true, "legend_at_bottom_columns": 2, "legend_box_size": 12, "logarithmic": false, "margin": 20, "margin_bottom": 65, "margin_left": null, "margin_right": null, "margin_top": null, "max_scale": 16, "min_scale": 4, "missing_value_fill_truncation": "x", "no_data_text": "No data", "no_prefix": false, "order_min": null, "pretty_print": false, "print_labels": false, "print_values": false, "print_values_position": "center", "print_zeroes": true, "range": [-0.2, 0.3], "rounded_bars": null, "secondary_range": null, "show_dots": true, "show_legend": true, "show_minor_x_labels": false, "show_minor_y_labels": true, "show_only_major_dots": true, "show_x_guides": true, "show_x_labels": true, "show_y_guides": true, "show_y_labels": true, "spacing": 10, "stack_from_top": false, "strict": false, "stroke": true, "stroke_style": null, "style": {"background": "transparent", "ci_colors": [], "colors": ["#F44336", "#3F51B5", "#009688", "#FFC107", "#FF5722", "#9C27B0", "#03A9F4", "#8BC34A", "#FF9800", "#E91E63", "#2196F3", "#4CAF50", "#FFEB3B", "#673AB7", "#00BCD4", "#CDDC39", "#9E9E9E", "#607D8B"], "font_family": "Helvetica, Arial, sans-serif", "foreground": "rgba(0, 0, 0, .87)", "foreground_strong": "rgba(0, 0, 0, 1)", "foreground_subtle": "rgba(0, 0, 0, .54)", "guide_stroke_dasharray": 1, "label_font_family": "Helvetica, Arial, sans-serif", "label_font_size": 15, "legend_font_family": "Helvetica, Arial, sans-serif", "legend_font_size": 15, "major_guide_stroke_dasharray": 1, "major_label_font_family": "Helvetica, Arial, sans-serif", "major_label_font_size": 15, "no_data_font_family": "Helvetica, Arial, sans-serif", "no_data_font_size": 64, "opacity": ".7", "opacity_hover": ".8", "plot_background": "white", "stroke_opacity": ".8", "stroke_opacity_hover": ".9", "title_font_family": "Helvetica, Arial, sans-serif", "title_font_size": 18, "tooltip_font_family": "Helvetica, Arial, sans-serif", "tooltip_font_size": 14, "transition": "150ms", "value_background": "rgba(229, 229, 229, 1)", "value_colors": [], "value_font_family": "Helvetica, Arial, sans-serif", "value_font_size": 15, "value_label_font_family": "Helvetica, Arial, sans-serif", "value_label_font_size": 15}, "title": "Mean OE2 for Tempo T \u00b110.0 BPM", "tooltip_border_radius": 0, "tooltip_fancy_mode": true, "truncate_label": null, "truncate_legend": -1, "width": 800, "x_label_rotation": 90, "x_labels": ["0.0", "1.0", "2.0", "3.0", "4.0", "5.0", "6.0", "7.0", "8.0", "9.0", "10.0", "11.0", "12.0", "13.0", "14.0", "15.0", "16.0", "17.0", "18.0", "19.0", "20.0", "21.0", "22.0", "23.0", "24.0", "25.0", "26.0", "27.0", "28.0", "29.0", "30.0", "31.0", "32.0", "33.0", "34.0", "35.0", "36.0", "37.0", "38.0", "39.0", "40.0", "41.0", "42.0", "43.0", "44.0", "45.0", "46.0", "47.0", "48.0", "49.0", "50.0", "51.0", "52.0", "53.0", "54.0", "55.0", "56.0", "57.0", "58.0", "59.0", "60.0", "61.0", "62.0", "63.0", "64.0", "65.0", "66.0", "67.0", "68.0", "69.0", "70.0", "71.0", "72.0", "73.0", "74.0", "75.0", "76.0", "77.0", "78.0", "79.0", "80.0", "81.0", "82.0", "83.0", "84.0", "85.0", "86.0", "87.0", "88.0", "89.0", "90.0", "91.0", "92.0", "93.0", "94.0", "95.0", "96.0", "97.0", "98.0", "99.0", "100.0", "101.0", "102.0", "103.0", "104.0", "105.0", "106.0", "107.0", "108.0", "109.0", "110.0", "111.0", "112.0", "113.0", "114.0", "115.0", "116.0", "117.0", "118.0", "119.0", "120.0", "121.0", "122.0", "123.0", "124.0", "125.0", "126.0", "127.0", "128.0", "129.0", "130.0", "131.0", "132.0", "133.0", "134.0", "135.0", "136.0", "137.0", "138.0", "139.0", "140.0", "141.0", "142.0", "143.0", "144.0", "145.0", "146.0", "147.0", "148.0", "149.0", "150.0", "151.0", "152.0", "153.0", "154.0", "155.0", "156.0", "157.0", "158.0", "159.0", "160.0", "161.0", "162.0", "163.0", "164.0", "165.0", "166.0", "167.0", "168.0", "169.0", "170.0", "171.0", "172.0", "173.0", "174.0", "175.0", "176.0", "177.0", "178.0", "179.0", "180.0", "181.0", "182.0", "183.0", "184.0", "185.0", "186.0", "187.0", "188.0", "189.0", "190.0", "191.0", "192.0", "193.0", "194.0", "195.0", "196.0", "197.0", "198.0", "199.0", "200.0", "201.0", "202.0", "203.0", "204.0", "205.0", "206.0", "207.0", "208.0", "209.0", "210.0", "211.0", "212.0", "213.0", "214.0", "215.0", "216.0", "217.0", "218.0", "219.0", "220.0", "221.0", "222.0", "223.0", "224.0", "225.0", "226.0", "227.0", "228.0", "229.0", "230.0", "231.0", "232.0", "233.0", "234.0", "235.0", "236.0", "237.0", "238.0", "239.0", "240.0", "241.0", "242.0", "243.0", "244.0", "245.0", "246.0", "247.0", "248.0", "249.0", "250.0", "251.0", "252.0", "253.0", "254.0", "255.0", "256.0", "257.0", "258.0", "259.0", "260.0", "261.0", "262.0", "263.0", "264.0", "265.0", "266.0", "267.0", "268.0", "269.0", "270.0", "271.0", "272.0", "273.0", "274.0", "275.0", "276.0", "277.0", "278.0", "279.0", "280.0", "281.0", "282.0", "283.0", "284.0", "285.0", "286.0", "287.0", "288.0", "289.0", "290.0", "291.0", "292.0", "293.0", "294.0", "295.0", "296.0", "297.0", "298.0", "299.0", "300.0"], "x_labels_major": null, "x_labels_major_count": 11, "x_labels_major_every": null, "x_title": "T (BPM)", "xrange": null, "y_label_rotation": 0, "y_labels": null, "y_labels_major": null, "y_labels_major_count": null, "y_labels_major_every": null, "y_title": "Mean OE2 (TO)", "zero": 0, "legends": ["boeck2015/tempodetector2016_default", "davies2009/mirex_qm_tempotracker", "percival2014/stem", "schreiber2014/default", "schreiber2017/ismir2017", "schreiber2017/mirex2017"]}</script><script type="text/javascript" xlink:href="https://kozea.github.io/pygal.js/2.0.x/pygal-tooltips.min.js"/></defs><title>Mean OE2 for Tempo T ±10.0 BPM</title><g class="graph line-graph vertical"><rect class="background" height="600" width="800" x="0" y="0"/><g class="plot" transform="translate(121, 48)"><rect class="background" height="334.0" width="659.0" x="0" y="0"/><g class="axis y always_show"><g class="guides"><path class="guide line" d="M0.000000 327.576923 h659.000000"/><text class="" x="-5" y="332.8269230769231">-0.2000</text><title>-0.2000</title></g><g class="guides"><path class="guide line" d="M0.000000 301.884615 h659.000000"/><text class="" x="-5" y="307.13461538461536">-0.1600</text><title>-0.1600</title></g><g class="guides"><path class="guide line" d="M0.000000 276.192308 h659.000000"/><text class="" x="-5" y="281.4423076923077">-0.1200</text><title>-0.1200</title></g><g class="guides"><path class="guide line" d="M0.000000 250.500000 h659.000000"/><text class="" x="-5" y="255.75">-0.0800</text><title>-0.0800</title></g><g class="guides"><path class="guide line" d="M0.000000 224.807692 h659.000000"/><text class="" x="-5" y="230.05769230769232">-0.0400</text><title>-0.0400</title></g><g class="guides"><path class="major line" d="M0.000000 199.115385 h659.000000"/><text class="major" x="-5" y="204.3653846153846">0.0000</text><title>0.0000</title></g><g class="guides"><path class="guide line" d="M0.000000 173.423077 h659.000000"/><text class="" x="-5" y="178.67307692307693">0.0400</text><title>0.0400</title></g><g class="guides"><path class="guide line" d="M0.000000 147.730769 h659.000000"/><text class="" x="-5" y="152.9807692307692">0.0800</text><title>0.0800</title></g><g class="guides"><path class="guide line" d="M0.000000 122.038462 h659.000000"/><text class="" x="-5" y="127.28846153846155">0.1200</text><title>0.1200</title></g><g class="guides"><path class="guide line" d="M0.000000 96.346154 h659.000000"/><text class="" x="-5" y="101.59615384615387">0.1600</text><title>0.1600</title></g><g class="guides"><path class="guide line" d="M0.000000 70.653846 h659.000000"/><text class="" x="-5" y="75.90384615384619">0.2000</text><title>0.2000</title></g><g class="guides"><path class="guide line" d="M0.000000 44.961538 h659.000000"/><text class="" x="-5" y="50.21153846153845">0.2400</text><title>0.2400</title></g><g class="guides"><path class="guide line" d="M0.000000 19.269231 h659.000000"/><text class="" x="-5" y="24.519230769230717">0.2800</text><title>0.2800</title></g></g><g class="axis x always_show"><g class="guides"><path class="major line" d="M12.673077 0.000000 v334.000000"/><text class="major" x="12.673076923076922" y="351.5" transform="rotate(90 12.673077 351.500000)">0.0</text></g><g class="guides"><path class="major guide line" d="M76.038462 0.000000 v334.000000"/><text class="major" x="76.03846153846155" y="351.5" transform="rotate(90 76.038462 351.500000)">30.0</text></g><g class="guides"><path class="major guide line" d="M139.403846 0.000000 v334.000000"/><text class="major" x="139.40384615384613" y="351.5" transform="rotate(90 139.403846 351.500000)">60.0</text></g><g class="guides"><path class="major guide line" d="M202.769231 0.000000 v334.000000"/><text class="major" x="202.76923076923075" y="351.5" transform="rotate(90 202.769231 351.500000)">90.0</text></g><g class="guides"><path class="major guide line" d="M266.134615 0.000000 v334.000000"/><text class="major" x="266.1346153846154" y="351.5" transform="rotate(90 266.134615 351.500000)">120.0</text></g><g class="guides"><path class="major guide line" d="M329.500000 0.000000 v334.000000"/><text class="major" x="329.5" y="351.5" transform="rotate(90 329.500000 351.500000)">150.0</text></g><g class="guides"><path class="major guide line" d="M392.865385 0.000000 v334.000000"/><text class="major" x="392.8653846153846" y="351.5" transform="rotate(90 392.865385 351.500000)">180.0</text></g><g class="guides"><path class="major guide line" d="M456.230769 0.000000 v334.000000"/><text class="major" x="456.23076923076917" y="351.5" transform="rotate(90 456.230769 351.500000)">210.0</text></g><g class="guides"><path class="major guide line" d="M519.596154 0.000000 v334.000000"/><text class="major" x="519.5961538461538" y="351.5" transform="rotate(90 519.596154 351.500000)">240.0</text></g><g class="guides"><path class="major guide line" d="M582.961538 0.000000 v334.000000"/><text class="major" x="582.9615384615385" y="351.5" transform="rotate(90 582.961538 351.500000)">270.0</text></g><g class="guides"><path class="major guide line" d="M646.326923 0.000000 v334.000000"/><text class="major" x="646.3269230769231" y="351.5" transform="rotate(90 646.326923 351.500000)">300.0</text></g></g><g class="series serie-0 color-0"><path class="line reactive nofill" d="M12.673077 199.115385 L14.785256 199.115385 16.897436 199.115385 19.009615 199.115385 21.121795 199.115385 23.233974 199.115385 25.346154 199.115385 27.458333 199.115385 29.570513 199.115385 31.682692 199.115385 33.794872 199.115385 35.907051 199.115385 38.019231 199.115385 40.131410 199.115385 42.243590 199.115385 44.355769 199.115385 46.467949 199.115385 48.580128 199.115385 50.692308 199.115385 52.804487 199.115385 54.916667 199.115385 57.028846 199.115385 59.141026 199.115385 61.253205 199.115385 63.365385 199.115385 65.477564 199.115385 67.589744 199.115385 69.701923 199.115385 71.814103 199.115385 73.926282 199.115385 76.038462 199.115385 78.150641 199.115385 80.262821 199.115385 82.375000 199.115385 84.487179 199.115385 86.599359 199.115385 88.711538 199.115385 90.823718 199.115385 92.935897 63.636226 95.048077 63.636226 97.160256 63.636226 99.272436 63.636226 101.384615 244.771085 103.496795 170.569298 105.608974 167.617054 107.721154 179.580561 109.833333 181.996377 111.945513 177.760971 114.057692 178.367767 116.169872 178.690767 118.282051 185.149902 120.394231 186.602789 122.506410 187.602020 124.618590 185.118475 126.730769 190.737290 128.842949 194.420171 130.955128 195.068683 133.067308 197.372317 135.179487 198.413059 137.291667 198.925684 139.403846 201.101063 141.516026 199.761916 143.628205 200.631795 145.740385 203.568442 147.852564 205.915915 149.964744 205.191013 152.076923 205.132495 154.189103 205.177396 156.301282 204.424319 158.413462 204.020902 160.525641 205.978791 162.637821 206.580767 164.750000 206.563771 166.862179 206.129701 168.974359 205.983970 171.086538 205.354566 173.198718 205.199010 175.310897 204.468571 177.423077 204.293439 179.535256 203.933072 181.647436 204.190274 183.759615 204.022606 185.871795 203.830066 187.983974 203.500102 190.096154 203.009598 192.208333 202.521442 194.320513 203.368015 196.432692 203.125219 198.544872 202.822700 200.657051 202.957152 202.769231 202.581625 204.881410 201.486373 206.993590 201.206489 209.105769 201.124250 211.217949 201.324400 213.330128 200.975693 215.442308 201.135803 217.554487 201.130731 219.666667 201.585539 221.778846 201.583578 223.891026 201.860093 226.003205 201.205866 228.115385 200.977854 230.227564 200.993440 232.339744 200.925197 234.451923 200.672456 236.564103 200.654653 238.676282 199.017483 240.788462 199.199853 242.900641 199.215371 245.012821 199.843424 247.125000 199.184983 249.237179 199.128391 251.349359 199.070032 253.461538 198.935083 255.573718 198.879098 257.685897 198.997801 259.798077 198.728481 261.910256 198.759828 264.022436 198.416318 266.134615 198.120431 268.246795 197.798408 270.358974 197.777011 272.471154 197.981320 274.583333 198.107300 276.695513 197.873412 278.807692 197.893389 280.919872 197.695961 283.032051 197.144222 285.144231 196.934240 287.256410 197.197172 289.368590 196.129155 291.480769 196.926887 293.592949 197.053372 295.705128 196.217795 297.817308 195.981415 299.929487 195.076248 302.041667 194.916149 304.153846 194.823670 306.266026 194.095736 308.378205 194.325695 310.490385 194.952903 312.602564 194.934616 314.714744 195.474822 316.826923 195.142574 318.939103 194.996439 321.051282 195.543944 323.163462 195.532784 325.275641 195.487325 327.387821 196.127788 329.500000 196.466788 331.612179 195.900775 333.724359 195.461449 335.836538 195.021112 337.948718 194.778529 340.060897 195.965335 342.173077 196.681998 344.285256 198.260803 346.397436 198.213590 348.509615 198.469700 350.621795 198.939330 352.733974 198.927652 354.846154 197.926642 356.958333 197.896155 359.070513 196.117905 361.182692 196.137310 363.294872 196.254862 365.407051 196.286812 367.519231 196.306431 369.631410 197.282192 371.743590 198.000507 373.855769 198.485568 375.967949 198.100516 378.080128 198.715614 380.192308 199.201967 382.304487 198.968395 384.416667 199.442561 386.528846 199.387718 388.641026 198.538369 390.753205 198.529322 392.865385 198.707632 394.977564 199.103222 397.089744 199.892001 399.201923 199.293607 401.314103 199.293607 403.426282 198.103485 405.538462 198.067852 407.650641 197.810433 409.762821 193.798961 411.875000 193.798961 413.987179 197.052561 416.099359 197.052561 418.211538 196.926076 420.323718 196.926076 422.435897 197.002141 424.548077 197.521587 426.660256 197.521587 428.772436 197.130931 430.884615 198.176277 432.996795 200.817572 435.108974 200.817572 437.221154 200.675672 439.333333 200.782596 441.445513 198.335334 443.557692 198.513862 445.669872 198.513862 447.782051 210.929295 449.894231 210.929295 452.006410 210.929295 454.118590 219.780978 456.230769 221.949050 458.342949 230.439361 460.455128 230.439361 462.567308 231.467429 464.679487 229.704994 466.791667 234.962094 468.903846 235.135650 471.016026 235.135650 473.128205 236.426477 475.240385 245.412249 477.352564 245.412249 479.464744 245.412249 481.576923 237.914861 483.689103 244.071092 485.801282 244.071092 487.913462 244.071092 490.025641 244.071092 492.137821 229.744349 494.250000 229.744349 496.362179 229.744349 498.474359 229.744349 500.586538 218.498561 502.698718 218.498561 504.810897 218.498561 506.923077 218.498561 509.035256 221.594453 511.147436 221.594453 513.259615 221.594453 515.371795 221.594453 517.483974 204.176616 519.596154 204.176616 521.708333 204.176616 523.820513 204.176616 525.932692 199.115385 528.044872 199.115385 530.157051 199.115385 532.269231 199.115385 534.381410 199.115385 536.493590 199.115385 538.605769 199.115385 540.717949 199.115385 542.830128 199.115385 544.942308 199.115385 547.054487 199.115385 549.166667 199.115385 551.278846 199.115385 553.391026 199.115385 555.503205 199.115385 557.615385 199.115385 559.727564 199.115385 561.839744 199.115385 563.951923 199.115385 566.064103 199.115385 568.176282 199.115385 570.288462 199.115385 572.400641 199.115385 574.512821 199.115385 576.625000 199.115385 578.737179 199.115385 580.849359 199.115385 582.961538 199.115385 585.073718 199.115385 587.185897 199.115385 589.298077 199.115385 591.410256 199.115385 593.522436 199.115385 595.634615 199.115385 597.746795 199.115385 599.858974 199.115385 601.971154 199.115385 604.083333 199.115385 606.195513 199.115385 608.307692 199.115385 610.419872 199.115385 612.532051 199.115385 614.644231 199.115385 616.756410 199.115385 618.868590 199.115385 620.980769 199.115385 623.092949 199.115385 625.205128 199.115385 627.317308 199.115385 629.429487 199.115385 631.541667 199.115385 633.653846 199.115385 635.766026 199.115385 637.878205 199.115385 639.990385 199.115385 642.102564 199.115385 644.214744 199.115385 646.326923 199.115385"/></g><g class="series serie-1 color-1"><path class="line reactive nofill" d="M12.673077 199.115385 L14.785256 199.115385 16.897436 199.115385 19.009615 199.115385 21.121795 199.115385 23.233974 199.115385 25.346154 199.115385 27.458333 199.115385 29.570513 199.115385 31.682692 199.115385 33.794872 199.115385 35.907051 199.115385 38.019231 199.115385 40.131410 199.115385 42.243590 199.115385 44.355769 199.115385 46.467949 199.115385 48.580128 199.115385 50.692308 199.115385 52.804487 199.115385 54.916667 199.115385 57.028846 199.115385 59.141026 199.115385 61.253205 199.115385 63.365385 199.115385 65.477564 199.115385 67.589744 199.115385 69.701923 199.115385 71.814103 199.115385 73.926282 199.115385 76.038462 199.115385 78.150641 199.115385 80.262821 199.115385 82.375000 199.115385 84.487179 199.115385 86.599359 199.115385 88.711538 199.115385 90.823718 199.115385 92.935897 33.034415 95.048077 33.034415 97.160256 33.034415 99.272436 33.034415 101.384615 138.226990 103.496795 166.597795 105.608974 164.098688 107.721154 166.732151 109.833333 169.149486 111.945513 164.505094 114.057692 164.850027 116.169872 165.086513 118.282051 177.277288 120.394231 180.043506 122.506410 180.455463 124.618590 180.711405 126.730769 182.494645 128.842949 182.120541 130.955128 182.643535 133.067308 189.843331 135.179487 189.321402 137.291667 190.391909 139.403846 188.172187 141.516026 189.341608 143.628205 188.960604 145.740385 194.776321 147.852564 198.681935 149.964744 195.095265 152.076923 194.057270 154.189103 198.792230 156.301282 195.067374 158.413462 193.911725 160.525641 196.429260 162.637821 196.150669 164.750000 194.670930 166.862179 193.389666 168.974359 190.897124 171.086538 188.935504 173.198718 187.789031 175.310897 187.309946 177.423077 186.301463 179.535256 185.668167 181.647436 185.461331 183.759615 184.397177 185.871795 183.157527 187.983974 182.835186 190.096154 180.709394 192.208333 179.615385 194.320513 180.599865 196.432692 180.514142 198.544872 178.113764 200.657051 178.589268 202.769231 178.555770 204.881410 175.982654 206.993590 175.844892 209.105769 176.002238 211.217949 176.293496 213.330128 176.485557 215.442308 176.750061 217.554487 177.276777 219.666667 177.431504 221.778846 177.495190 223.891026 177.433800 226.003205 176.271649 228.115385 176.821237 230.227564 177.050335 232.339744 177.185839 234.451923 177.979376 236.564103 178.464023 238.676282 177.125113 240.788462 177.439252 242.900641 177.811663 245.012821 176.121535 247.125000 176.378914 249.237179 176.344703 251.349359 175.817299 253.461538 176.224609 255.573718 177.032767 257.685897 176.685668 259.798077 176.959644 261.910256 177.182500 264.022436 176.708247 266.134615 176.756757 268.246795 177.070193 270.358974 177.279883 272.471154 177.499775 274.583333 178.038642 276.695513 178.441869 278.807692 178.646403 280.919872 178.365405 283.032051 178.183174 285.144231 178.080866 287.256410 175.102703 289.368590 176.053725 291.480769 175.720280 293.592949 177.078179 295.705128 176.873109 297.817308 176.431140 299.929487 175.280448 302.041667 175.115588 304.153846 174.621435 306.266026 173.723835 308.378205 173.571484 310.490385 174.285124 312.602564 174.063529 314.714744 173.503199 316.826923 173.256770 318.939103 172.796638 321.051282 171.797495 323.163462 171.345049 325.275641 170.801401 327.387821 170.311102 329.500000 168.994274 331.612179 174.573297 333.724359 173.191702 335.836538 172.462117 337.948718 168.443106 340.060897 167.828271 342.173077 167.427142 344.285256 163.435129 346.397436 164.074938 348.509615 164.403826 350.621795 160.448626 352.733974 158.202371 354.846154 151.822574 356.958333 151.783607 359.070513 148.353277 361.182692 147.475541 363.294872 148.577655 365.407051 146.582386 367.519231 146.873859 369.631410 146.674568 371.743590 146.171811 373.855769 144.713506 375.967949 144.481990 378.080128 137.743062 380.192308 138.688477 382.304487 138.092071 384.416667 138.261523 386.528846 136.948835 388.641026 141.441414 390.753205 138.921909 392.865385 139.238208 394.977564 146.207983 397.089744 149.173290 399.201923 147.756132 401.314103 147.756132 403.426282 150.448396 405.538462 150.714901 407.650641 146.372365 409.762821 152.733822 411.875000 152.733822 413.987179 155.070647 416.099359 155.070647 418.211538 155.102889 420.323718 155.102889 422.435897 156.057564 424.548077 156.330381 426.660256 156.330381 428.772436 150.933539 430.884615 153.362773 432.996795 165.045632 435.108974 165.045632 437.221154 164.680031 439.333333 177.257369 441.445513 174.923176 443.557692 173.493632 445.669872 173.493632 447.782051 185.447667 449.894231 185.447667 452.006410 185.447667 454.118590 187.430825 456.230769 187.303465 458.342949 198.548832 460.455128 198.548832 462.567308 199.517572 464.679487 199.239383 466.791667 200.948812 468.903846 200.327368 471.016026 200.327368 473.128205 187.161001 475.240385 183.558308 477.352564 183.558308 479.464744 183.558308 481.576923 192.322409 483.689103 192.061119 485.801282 192.061119 487.913462 192.061119 490.025641 192.061119 492.137821 177.861955 494.250000 177.861955 496.362179 177.861955 498.474359 177.861955 500.586538 175.955836 502.698718 175.955836 504.810897 175.955836 506.923077 175.955836 509.035256 167.838631 511.147436 167.838631 513.259615 167.838631 515.371795 167.838631 517.483974 231.760859 519.596154 231.760859 521.708333 231.760859 523.820513 231.760859 525.932692 199.115385 528.044872 199.115385 530.157051 199.115385 532.269231 199.115385 534.381410 199.115385 536.493590 199.115385 538.605769 199.115385 540.717949 199.115385 542.830128 199.115385 544.942308 199.115385 547.054487 199.115385 549.166667 199.115385 551.278846 199.115385 553.391026 199.115385 555.503205 199.115385 557.615385 199.115385 559.727564 199.115385 561.839744 199.115385 563.951923 199.115385 566.064103 199.115385 568.176282 199.115385 570.288462 199.115385 572.400641 199.115385 574.512821 199.115385 576.625000 199.115385 578.737179 199.115385 580.849359 199.115385 582.961538 199.115385 585.073718 199.115385 587.185897 199.115385 589.298077 199.115385 591.410256 199.115385 593.522436 199.115385 595.634615 199.115385 597.746795 199.115385 599.858974 199.115385 601.971154 199.115385 604.083333 199.115385 606.195513 199.115385 608.307692 199.115385 610.419872 199.115385 612.532051 199.115385 614.644231 199.115385 616.756410 199.115385 618.868590 199.115385 620.980769 199.115385 623.092949 199.115385 625.205128 199.115385 627.317308 199.115385 629.429487 199.115385 631.541667 199.115385 633.653846 199.115385 635.766026 199.115385 637.878205 199.115385 639.990385 199.115385 642.102564 199.115385 644.214744 199.115385 646.326923 199.115385"/></g><g class="series serie-2 color-2"><path class="line reactive nofill" d="M12.673077 199.115385 L14.785256 199.115385 16.897436 199.115385 19.009615 199.115385 21.121795 199.115385 23.233974 199.115385 25.346154 199.115385 27.458333 199.115385 29.570513 199.115385 31.682692 199.115385 33.794872 199.115385 35.907051 199.115385 38.019231 199.115385 40.131410 199.115385 42.243590 199.115385 44.355769 199.115385 46.467949 199.115385 48.580128 199.115385 50.692308 199.115385 52.804487 199.115385 54.916667 199.115385 57.028846 199.115385 59.141026 199.115385 61.253205 199.115385 63.365385 199.115385 65.477564 199.115385 67.589744 199.115385 69.701923 199.115385 71.814103 199.115385 73.926282 199.115385 76.038462 199.115385 78.150641 199.115385 80.262821 199.115385 82.375000 199.115385 84.487179 199.115385 86.599359 199.115385 88.711538 199.115385 90.823718 199.115385 92.935897 316.834426 95.048077 316.834426 97.160256 316.834426 99.272436 316.834426 101.384615 240.232986 103.496795 203.294567 105.608974 193.452189 107.721154 206.733417 109.833333 201.569490 111.945513 195.421719 114.057692 197.730290 116.169872 197.735824 118.282051 189.734372 120.394231 190.680700 122.506410 191.151094 124.618590 193.137309 126.730769 193.767048 128.842949 194.305877 130.955128 194.967226 133.067308 187.723691 135.179487 188.733028 137.291667 188.484991 139.403846 192.818946 141.516026 193.060498 143.628205 193.250139 145.740385 193.546219 147.852564 191.965755 149.964744 192.686114 152.076923 192.235801 154.189103 189.136283 156.301282 189.904065 158.413462 190.002350 160.525641 191.092931 162.637821 191.919649 164.750000 191.820272 166.862179 192.050331 168.974359 192.340656 171.086538 192.452855 173.198718 192.702947 175.310897 192.859870 177.423077 193.744064 179.535256 193.788670 181.647436 195.250881 183.759615 194.880785 185.871795 194.650222 187.983974 194.643773 190.096154 194.719360 192.208333 195.143399 194.320513 195.144992 196.432692 195.197180 198.544872 196.103965 200.657051 196.309816 202.769231 196.245254 204.881410 196.422315 206.993590 196.424631 209.105769 196.554184 211.217949 196.324258 213.330128 196.621408 215.442308 196.610768 217.554487 196.565302 219.666667 196.923993 221.778846 196.823282 223.891026 196.260071 226.003205 195.153020 228.115385 194.886240 230.227564 194.848278 232.339744 194.746460 234.451923 194.724014 236.564103 194.660978 238.676282 194.445181 240.788462 194.228367 242.900641 194.582932 245.012821 193.538987 247.125000 191.839045 249.237179 191.646706 251.349359 191.498930 253.461538 191.655978 255.573718 191.024411 257.685897 190.879850 259.798077 190.820384 261.910256 190.747554 264.022436 190.192691 266.134615 190.382403 268.246795 190.622023 270.358974 190.949783 272.471154 191.435212 274.583333 191.523808 276.695513 191.381528 278.807692 191.362855 280.919872 191.107823 283.032051 190.389376 285.144231 190.276738 287.256410 190.439890 289.368590 190.274885 291.480769 191.810325 293.592949 189.490750 295.705128 188.241157 297.817308 187.907113 299.929487 187.327713 302.041667 187.127388 304.153846 186.927822 306.266026 186.515155 308.378205 186.975453 310.490385 185.606287 312.602564 185.512130 314.714744 184.749645 316.826923 184.024092 318.939103 183.772916 321.051282 183.681387 323.163462 183.093841 325.275641 182.966110 327.387821 183.919498 329.500000 184.281474 331.612179 181.705814 333.724359 182.039707 335.836538 181.236497 337.948718 185.045384 340.060897 186.926904 342.173077 186.919805 344.285256 190.123862 346.397436 190.294608 348.509615 190.457316 350.621795 190.510018 352.733974 189.543066 354.846154 192.165088 356.958333 191.958411 359.070513 192.305839 361.182692 192.473264 363.294872 192.345056 365.407051 191.874167 367.519231 191.812116 369.631410 191.879984 371.743590 191.810344 373.855769 192.161487 375.967949 192.101580 378.080128 193.127027 380.192308 194.032021 382.304487 193.769383 384.416667 194.266391 386.528846 194.131973 388.641026 192.863331 390.753205 192.191075 392.865385 191.971271 394.977564 191.815412 397.089744 190.431000 399.201923 189.650455 401.314103 189.650455 403.426282 189.227850 405.538462 188.699849 407.650641 188.540394 409.762821 187.950874 411.875000 187.950874 413.987179 189.401930 416.099359 189.401930 418.211538 190.249128 420.323718 190.249128 422.435897 190.600988 424.548077 191.273742 426.660256 191.273742 428.772436 189.606719 430.884615 189.734727 432.996795 191.207807 435.108974 191.207807 437.221154 191.107340 439.333333 191.106439 441.445513 195.222392 443.557692 194.894339 445.669872 194.894339 447.782051 194.493350 449.894231 194.493350 452.006410 194.493350 454.118590 196.801214 456.230769 196.864400 458.342949 193.875143 460.455128 193.875143 462.567308 193.985535 464.679487 195.290553 466.791667 193.956083 468.903846 190.100990 471.016026 190.100990 473.128205 186.786051 475.240385 184.494133 477.352564 184.494133 479.464744 184.494133 481.576923 178.710594 483.689103 176.077670 485.801282 176.077670 487.913462 176.077670 490.025641 176.077670 492.137821 176.525674 494.250000 176.525674 496.362179 176.525674 498.474359 176.525674 500.586538 170.321953 502.698718 170.321953 504.810897 170.321953 506.923077 170.321953 509.035256 154.722937 511.147436 154.722937 513.259615 154.722937 515.371795 154.722937 517.483974 152.684668 519.596154 152.684668 521.708333 152.684668 523.820513 152.684668 525.932692 199.115385 528.044872 199.115385 530.157051 199.115385 532.269231 199.115385 534.381410 199.115385 536.493590 199.115385 538.605769 199.115385 540.717949 199.115385 542.830128 199.115385 544.942308 199.115385 547.054487 199.115385 549.166667 199.115385 551.278846 199.115385 553.391026 199.115385 555.503205 199.115385 557.615385 199.115385 559.727564 199.115385 561.839744 199.115385 563.951923 199.115385 566.064103 199.115385 568.176282 199.115385 570.288462 199.115385 572.400641 199.115385 574.512821 199.115385 576.625000 199.115385 578.737179 199.115385 580.849359 199.115385 582.961538 199.115385 585.073718 199.115385 587.185897 199.115385 589.298077 199.115385 591.410256 199.115385 593.522436 199.115385 595.634615 199.115385 597.746795 199.115385 599.858974 199.115385 601.971154 199.115385 604.083333 199.115385 606.195513 199.115385 608.307692 199.115385 610.419872 199.115385 612.532051 199.115385 614.644231 199.115385 616.756410 199.115385 618.868590 199.115385 620.980769 199.115385 623.092949 199.115385 625.205128 199.115385 627.317308 199.115385 629.429487 199.115385 631.541667 199.115385 633.653846 199.115385 635.766026 199.115385 637.878205 199.115385 639.990385 199.115385 642.102564 199.115385 644.214744 199.115385 646.326923 199.115385"/></g><g class="series serie-3 color-3"><path class="line reactive nofill" d="M12.673077 199.115385 L14.785256 199.115385 16.897436 199.115385 19.009615 199.115385 21.121795 199.115385 23.233974 199.115385 25.346154 199.115385 27.458333 199.115385 29.570513 199.115385 31.682692 199.115385 33.794872 199.115385 35.907051 199.115385 38.019231 199.115385 40.131410 199.115385 42.243590 199.115385 44.355769 199.115385 46.467949 199.115385 48.580128 199.115385 50.692308 199.115385 52.804487 199.115385 54.916667 199.115385 57.028846 199.115385 59.141026 199.115385 61.253205 199.115385 63.365385 199.115385 65.477564 199.115385 67.589744 199.115385 69.701923 199.115385 71.814103 199.115385 73.926282 199.115385 76.038462 199.115385 78.150641 199.115385 80.262821 199.115385 82.375000 199.115385 84.487179 199.115385 86.599359 199.115385 88.711538 199.115385 90.823718 199.115385 92.935897 305.803669 95.048077 305.803669 97.160256 305.803669 99.272436 305.803669 101.384615 325.029756 103.496795 251.265453 105.608974 237.086165 107.721154 224.803419 109.833333 222.438982 111.945513 215.867194 114.057692 215.230631 116.169872 215.004621 118.282051 209.872796 120.394231 204.963237 122.506410 204.233398 124.618590 202.621111 126.730769 201.177458 128.842949 199.751328 130.955128 199.825149 133.067308 199.698546 135.179487 201.222139 137.291667 200.846967 139.403846 202.187539 141.516026 201.322316 143.628205 201.863032 145.740385 203.523358 147.852564 200.918206 149.964744 201.336449 152.076923 201.800264 154.189103 199.669344 156.301282 200.256323 158.413462 200.123803 160.525641 199.437631 162.637821 200.135288 164.750000 200.371655 166.862179 200.431437 168.974359 200.621528 171.086538 200.478475 173.198718 200.674938 175.310897 199.690374 177.423077 199.841417 179.535256 199.705057 181.647436 200.487046 183.759615 200.549877 185.871795 200.630368 187.983974 200.784486 190.096154 200.381908 192.208333 200.917790 194.320513 201.901344 196.432692 201.688171 198.544872 202.027775 200.657051 201.952598 202.769231 202.232564 204.881410 202.603470 206.993590 202.453505 209.105769 202.455520 211.217949 202.453710 213.330128 202.527841 215.442308 203.029113 217.554487 202.933296 219.666667 203.965874 221.778846 203.966560 223.891026 203.642527 226.003205 203.456806 228.115385 203.142892 230.227564 203.023821 232.339744 202.538682 234.451923 202.585841 236.564103 202.471949 238.676282 201.168295 240.788462 201.272905 242.900641 201.214398 245.012821 200.240783 247.125000 198.942000 249.237179 198.960192 251.349359 198.760899 253.461538 198.727537 255.573718 198.782090 257.685897 198.697605 259.798077 198.110689 261.910256 198.208333 264.022436 197.757547 266.134615 198.002175 268.246795 198.077632 270.358974 198.085545 272.471154 198.251382 274.583333 198.512151 276.695513 198.607389 278.807692 198.695569 280.919872 198.366324 283.032051 197.941400 285.144231 197.862075 287.256410 198.441071 289.368590 198.841187 291.480769 199.667956 293.592949 199.305996 295.705128 198.865425 297.817308 198.951989 299.929487 198.450659 302.041667 198.478093 304.153846 198.530008 306.266026 198.459734 308.378205 198.819440 310.490385 199.234513 312.602564 199.152560 314.714744 199.197207 316.826923 198.842527 318.939103 198.709491 321.051282 198.923083 323.163462 198.797857 325.275641 198.875819 327.387821 199.793982 329.500000 200.047759 331.612179 199.497154 333.724359 200.082977 335.836538 199.681788 337.948718 200.619697 340.060897 202.175992 342.173077 202.268312 344.285256 204.082813 346.397436 204.384050 348.509615 204.717646 350.621795 204.432166 352.733974 204.406811 354.846154 204.146341 356.958333 204.318225 359.070513 204.892872 361.182692 205.492177 363.294872 205.425870 365.407051 205.336308 367.519231 205.381937 369.631410 205.597907 371.743590 205.372901 373.855769 206.078618 375.967949 205.845024 378.080128 205.265944 380.192308 206.424239 382.304487 206.697660 384.416667 206.823285 386.528846 206.513100 388.641026 203.027457 390.753205 202.300550 392.865385 202.640964 394.977564 202.676674 397.089744 202.876444 399.201923 199.631215 401.314103 199.631215 403.426282 196.807375 405.538462 195.797110 407.650641 194.560359 409.762821 188.677635 411.875000 188.677635 413.987179 189.089764 416.099359 189.089764 418.211538 187.906418 420.323718 187.906418 422.435897 188.100009 424.548077 188.461723 426.660256 188.461723 428.772436 184.350059 430.884615 186.666227 432.996795 189.928933 435.108974 189.928933 437.221154 189.795655 439.333333 196.214949 441.445513 195.101197 443.557692 194.739519 445.669872 194.739519 447.782051 204.300303 449.894231 204.300303 452.006410 204.300303 454.118590 208.254219 456.230769 207.774141 458.342949 221.603266 460.455128 221.603266 462.567308 222.932484 464.679487 222.027260 466.791667 226.778787 468.903846 228.704690 471.016026 228.704690 473.128205 221.424427 475.240385 219.115228 477.352564 219.115228 479.464744 219.115228 481.576923 215.113717 483.689103 211.793823 485.801282 211.793823 487.913462 211.793823 490.025641 211.793823 492.137821 191.780236 494.250000 191.780236 496.362179 191.780236 498.474359 191.780236 500.586538 190.193887 502.698718 190.193887 504.810897 190.193887 506.923077 190.193887 509.035256 181.352998 511.147436 181.352998 513.259615 181.352998 515.371795 181.352998 517.483974 197.106916 519.596154 197.106916 521.708333 197.106916 523.820513 197.106916 525.932692 199.115385 528.044872 199.115385 530.157051 199.115385 532.269231 199.115385 534.381410 199.115385 536.493590 199.115385 538.605769 199.115385 540.717949 199.115385 542.830128 199.115385 544.942308 199.115385 547.054487 199.115385 549.166667 199.115385 551.278846 199.115385 553.391026 199.115385 555.503205 199.115385 557.615385 199.115385 559.727564 199.115385 561.839744 199.115385 563.951923 199.115385 566.064103 199.115385 568.176282 199.115385 570.288462 199.115385 572.400641 199.115385 574.512821 199.115385 576.625000 199.115385 578.737179 199.115385 580.849359 199.115385 582.961538 199.115385 585.073718 199.115385 587.185897 199.115385 589.298077 199.115385 591.410256 199.115385 593.522436 199.115385 595.634615 199.115385 597.746795 199.115385 599.858974 199.115385 601.971154 199.115385 604.083333 199.115385 606.195513 199.115385 608.307692 199.115385 610.419872 199.115385 612.532051 199.115385 614.644231 199.115385 616.756410 199.115385 618.868590 199.115385 620.980769 199.115385 623.092949 199.115385 625.205128 199.115385 627.317308 199.115385 629.429487 199.115385 631.541667 199.115385 633.653846 199.115385 635.766026 199.115385 637.878205 199.115385 639.990385 199.115385 642.102564 199.115385 644.214744 199.115385 646.326923 199.115385"/></g><g class="series serie-4 color-4"><path class="line reactive nofill" d="M12.673077 199.115385 L14.785256 199.115385 16.897436 199.115385 19.009615 199.115385 21.121795 199.115385 23.233974 199.115385 25.346154 199.115385 27.458333 199.115385 29.570513 199.115385 31.682692 199.115385 33.794872 199.115385 35.907051 199.115385 38.019231 199.115385 40.131410 199.115385 42.243590 199.115385 44.355769 199.115385 46.467949 199.115385 48.580128 199.115385 50.692308 199.115385 52.804487 199.115385 54.916667 199.115385 57.028846 199.115385 59.141026 199.115385 61.253205 199.115385 63.365385 199.115385 65.477564 199.115385 67.589744 199.115385 69.701923 199.115385 71.814103 199.115385 73.926282 199.115385 76.038462 199.115385 78.150641 199.115385 80.262821 199.115385 82.375000 199.115385 84.487179 199.115385 86.599359 199.115385 88.711538 199.115385 90.823718 199.115385 92.935897 199.115385 95.048077 199.115385 97.160256 199.115385 99.272436 199.115385 101.384615 201.469511 103.496795 230.859205 105.608974 231.049886 107.721154 220.502399 109.833333 224.211074 111.945513 223.616236 114.057692 222.752424 116.169872 222.418806 118.282051 222.321562 120.394231 217.583119 122.506410 214.021374 124.618590 211.124164 126.730769 209.588135 128.842949 205.097703 130.955128 204.727315 133.067308 203.157413 135.179487 204.203408 137.291667 203.870757 139.403846 204.508806 141.516026 203.500262 143.628205 203.120444 145.740385 204.780803 147.852564 199.390054 149.964744 199.200082 152.076923 199.020631 154.189103 200.896437 156.301282 201.217513 158.413462 201.429526 160.525641 202.583092 162.637821 202.620776 164.750000 202.649740 166.862179 202.717880 168.974359 201.434423 171.086538 201.092366 173.198718 201.255139 175.310897 200.165551 177.423077 200.662046 179.535256 200.577860 181.647436 201.080578 183.759615 201.108436 185.871795 201.217272 187.983974 201.418780 190.096154 200.838495 192.208333 201.804766 194.320513 203.148406 196.432692 202.841990 198.544872 202.373529 200.657051 202.370076 202.769231 202.633429 204.881410 202.059580 206.993590 201.866435 209.105769 201.801508 211.217949 201.806027 213.330128 202.542370 215.442308 203.031223 217.554487 203.051975 219.666667 204.042309 221.778846 203.680347 223.891026 203.280106 226.003205 203.197939 228.115385 202.897484 230.227564 202.726226 232.339744 202.398708 234.451923 202.609375 236.564103 202.493664 238.676282 200.635036 240.788462 200.971455 242.900641 200.808730 245.012821 201.603254 247.125000 201.365645 249.237179 201.489822 251.349359 201.300620 253.461538 201.467814 255.573718 201.531233 257.685897 201.336742 259.798077 201.158636 261.910256 201.211333 264.022436 201.006440 266.134615 201.169460 268.246795 201.400595 270.358974 201.479476 272.471154 201.918617 274.583333 202.049993 276.695513 202.147070 278.807692 202.211791 280.919872 202.235423 283.032051 202.664168 285.144231 202.688642 287.256410 203.008529 289.368590 202.692703 291.480769 202.553800 293.592949 205.600705 295.705128 206.845275 297.817308 206.693419 299.929487 206.826114 302.041667 207.158964 304.153846 207.041103 306.266026 207.391489 308.378205 207.376409 310.490385 208.533391 312.602564 208.611858 314.714744 209.286901 316.826923 208.943366 318.939103 209.456965 321.051282 210.027938 323.163462 210.529044 325.275641 210.855820 327.387821 211.134760 329.500000 213.972000 331.612179 216.590489 333.724359 217.417042 335.836538 217.528224 337.948718 213.481425 340.060897 213.198328 342.173077 213.882042 344.285256 215.727697 346.397436 216.483950 348.509615 217.170233 350.621795 217.558197 352.733974 219.576907 354.846154 220.228284 356.958333 220.984423 359.070513 220.072167 361.182692 220.717608 363.294872 221.559462 365.407051 220.462242 367.519231 220.630313 369.631410 220.220176 371.743590 219.179519 373.855769 213.302393 375.967949 213.172876 378.080128 209.941675 380.192308 211.005596 382.304487 211.448190 384.416667 209.836604 386.528846 210.373174 388.641026 209.568138 390.753205 207.586036 392.865385 208.264078 394.977564 209.486776 397.089744 210.412990 399.201923 208.570834 401.314103 208.570834 403.426282 207.433703 405.538462 207.962175 407.650641 202.686823 409.762821 202.280563 411.875000 202.280563 413.987179 205.291668 416.099359 205.291668 418.211538 205.503270 420.323718 205.503270 422.435897 205.418125 424.548077 205.888194 426.660256 205.888194 428.772436 206.470791 430.884615 208.273221 432.996795 209.954856 435.108974 209.954856 437.221154 210.090382 439.333333 210.710461 441.445513 208.715805 443.557692 209.691284 445.669872 209.691284 447.782051 215.535482 449.894231 215.535482 452.006410 215.535482 454.118590 218.786061 456.230769 220.765271 458.342949 222.260762 460.455128 222.260762 462.567308 223.620561 464.679487 222.656778 466.791667 226.195055 468.903846 226.877085 471.016026 226.877085 473.128205 219.967433 475.240385 211.346231 477.352564 211.346231 479.464744 211.346231 481.576923 194.582623 483.689103 193.460408 485.801282 193.460408 487.913462 193.460408 490.025641 193.460408 492.137821 180.963726 494.250000 180.963726 496.362179 180.963726 498.474359 180.963726 500.586538 157.292479 502.698718 157.292479 504.810897 157.292479 506.923077 157.292479 509.035256 135.291027 511.147436 135.291027 513.259615 135.291027 515.371795 135.291027 517.483974 119.146388 519.596154 119.146388 521.708333 119.146388 523.820513 119.146388 525.932692 199.115385 528.044872 199.115385 530.157051 199.115385 532.269231 199.115385 534.381410 199.115385 536.493590 199.115385 538.605769 199.115385 540.717949 199.115385 542.830128 199.115385 544.942308 199.115385 547.054487 199.115385 549.166667 199.115385 551.278846 199.115385 553.391026 199.115385 555.503205 199.115385 557.615385 199.115385 559.727564 199.115385 561.839744 199.115385 563.951923 199.115385 566.064103 199.115385 568.176282 199.115385 570.288462 199.115385 572.400641 199.115385 574.512821 199.115385 576.625000 199.115385 578.737179 199.115385 580.849359 199.115385 582.961538 199.115385 585.073718 199.115385 587.185897 199.115385 589.298077 199.115385 591.410256 199.115385 593.522436 199.115385 595.634615 199.115385 597.746795 199.115385 599.858974 199.115385 601.971154 199.115385 604.083333 199.115385 606.195513 199.115385 608.307692 199.115385 610.419872 199.115385 612.532051 199.115385 614.644231 199.115385 616.756410 199.115385 618.868590 199.115385 620.980769 199.115385 623.092949 199.115385 625.205128 199.115385 627.317308 199.115385 629.429487 199.115385 631.541667 199.115385 633.653846 199.115385 635.766026 199.115385 637.878205 199.115385 639.990385 199.115385 642.102564 199.115385 644.214744 199.115385 646.326923 199.115385"/></g><g class="series serie-5 color-5"><path class="line reactive nofill" d="M12.673077 199.115385 L14.785256 199.115385 16.897436 199.115385 19.009615 199.115385 21.121795 199.115385 23.233974 199.115385 25.346154 199.115385 27.458333 199.115385 29.570513 199.115385 31.682692 199.115385 33.794872 199.115385 35.907051 199.115385 38.019231 199.115385 40.131410 199.115385 42.243590 199.115385 44.355769 199.115385 46.467949 199.115385 48.580128 199.115385 50.692308 199.115385 52.804487 199.115385 54.916667 199.115385 57.028846 199.115385 59.141026 199.115385 61.253205 199.115385 63.365385 199.115385 65.477564 199.115385 67.589744 199.115385 69.701923 199.115385 71.814103 199.115385 73.926282 199.115385 76.038462 199.115385 78.150641 199.115385 80.262821 199.115385 82.375000 199.115385 84.487179 199.115385 86.599359 199.115385 88.711538 199.115385 90.823718 199.115385 92.935897 199.115385 95.048077 199.115385 97.160256 199.115385 99.272436 199.115385 101.384615 201.469511 103.496795 187.506215 105.608974 177.374755 107.721154 184.718979 109.833333 192.900581 111.945513 190.944417 114.057692 191.000938 116.169872 191.108313 118.282051 199.451289 120.394231 197.658260 122.506410 196.007118 124.618590 195.472398 126.730769 195.451056 128.842949 194.408692 130.955128 194.915761 133.067308 196.896706 135.179487 198.572794 137.291667 198.558642 139.403846 200.906756 141.516026 200.159097 143.628205 200.030554 145.740385 201.757441 147.852564 197.736846 149.964744 198.061099 152.076923 197.920031 154.189103 200.418388 156.301282 200.801446 158.413462 201.036289 160.525641 202.522435 162.637821 202.769739 164.750000 202.792812 166.862179 202.854616 168.974359 201.778054 171.086538 201.413770 173.198718 201.564438 175.310897 200.507374 177.423077 200.995043 179.535256 200.905397 181.647436 201.356756 183.759615 201.430158 185.871795 201.523034 187.983974 201.715585 190.096154 201.185999 192.208333 202.144504 194.320513 203.613644 196.432692 203.302946 198.544872 202.810886 200.657051 202.866792 202.769231 203.156079 204.881410 202.531253 206.993590 202.302637 209.105769 202.240079 211.217949 202.276402 213.330128 202.912556 215.442308 203.347359 217.554487 203.370996 219.666667 204.268496 221.778846 203.854425 223.891026 203.446047 226.003205 203.389290 228.115385 202.977768 230.227564 202.857143 232.339744 202.463769 234.451923 202.675635 236.564103 202.540171 238.676282 200.436662 240.788462 200.699739 242.900641 200.564414 245.012821 201.154350 247.125000 200.674225 249.237179 200.838475 251.349359 200.648775 253.461538 200.823310 255.573718 200.863480 257.685897 200.673885 259.798077 200.489486 261.910256 200.714056 264.022436 200.555626 266.134615 200.881734 268.246795 201.096432 270.358974 201.183604 272.471154 201.757588 274.583333 201.850944 276.695513 202.005645 278.807692 202.069963 280.919872 202.147616 283.032051 202.658533 285.144231 202.740555 287.256410 203.034126 289.368590 203.017343 291.480769 203.053248 293.592949 206.063924 295.705128 207.287335 297.817308 207.070073 299.929487 207.432936 302.041667 207.784243 304.153846 207.756107 306.266026 207.965788 308.378205 207.936287 310.490385 209.143773 312.602564 209.226267 314.714744 209.918548 316.826923 209.466626 318.939103 210.008298 321.051282 210.608964 323.163462 211.135926 325.275641 211.397646 327.387821 211.553434 329.500000 214.370094 331.612179 217.084407 333.724359 217.967253 335.836538 218.281922 337.948718 214.260877 340.060897 214.168932 342.173077 215.054290 344.285256 216.463553 346.397436 217.213973 348.509615 217.920479 350.621795 218.481325 352.733974 220.633857 354.846154 220.997640 356.958333 221.779596 359.070513 220.890530 361.182692 221.565245 363.294872 222.375321 365.407051 221.241721 367.519231 221.416110 369.631410 221.034788 371.743590 220.011287 373.855769 214.316976 375.967949 214.202149 378.080128 211.019499 380.192308 211.366818 382.304487 211.826320 384.416667 210.236876 386.528846 210.804536 388.641026 209.982085 390.753205 208.029600 392.865385 208.737580 394.977564 209.486776 397.089744 210.412990 399.201923 208.570834 401.314103 208.570834 403.426282 207.433703 405.538462 207.962175 407.650641 202.686823 409.762821 202.280563 411.875000 202.280563 413.987179 205.291668 416.099359 205.291668 418.211538 205.503269 420.323718 205.503269 422.435897 205.418125 424.548077 205.888194 426.660256 205.888194 428.772436 206.470791 430.884615 208.273221 432.996795 209.954856 435.108974 209.954856 437.221154 210.090382 439.333333 210.710461 441.445513 208.715805 443.557692 209.691284 445.669872 209.691284 447.782051 215.535482 449.894231 215.535482 452.006410 215.535482 454.118590 218.786061 456.230769 220.765271 458.342949 222.260762 460.455128 222.260762 462.567308 223.620561 464.679487 222.656778 466.791667 226.195055 468.903846 226.877085 471.016026 226.877085 473.128205 219.967433 475.240385 211.346231 477.352564 211.346231 479.464744 211.346231 481.576923 194.582623 483.689103 193.460408 485.801282 193.460408 487.913462 193.460408 490.025641 193.460408 492.137821 180.963726 494.250000 180.963726 496.362179 180.963726 498.474359 180.963726 500.586538 157.292479 502.698718 157.292479 504.810897 157.292479 506.923077 157.292479 509.035256 135.291027 511.147436 135.291027 513.259615 135.291027 515.371795 135.291027 517.483974 119.146388 519.596154 119.146388 521.708333 119.146388 523.820513 119.146388 525.932692 199.115385 528.044872 199.115385 530.157051 199.115385 532.269231 199.115385 534.381410 199.115385 536.493590 199.115385 538.605769 199.115385 540.717949 199.115385 542.830128 199.115385 544.942308 199.115385 547.054487 199.115385 549.166667 199.115385 551.278846 199.115385 553.391026 199.115385 555.503205 199.115385 557.615385 199.115385 559.727564 199.115385 561.839744 199.115385 563.951923 199.115385 566.064103 199.115385 568.176282 199.115385 570.288462 199.115385 572.400641 199.115385 574.512821 199.115385 576.625000 199.115385 578.737179 199.115385 580.849359 199.115385 582.961538 199.115385 585.073718 199.115385 587.185897 199.115385 589.298077 199.115385 591.410256 199.115385 593.522436 199.115385 595.634615 199.115385 597.746795 199.115385 599.858974 199.115385 601.971154 199.115385 604.083333 199.115385 606.195513 199.115385 608.307692 199.115385 610.419872 199.115385 612.532051 199.115385 614.644231 199.115385 616.756410 199.115385 618.868590 199.115385 620.980769 199.115385 623.092949 199.115385 625.205128 199.115385 627.317308 199.115385 629.429487 199.115385 631.541667 199.115385 633.653846 199.115385 635.766026 199.115385 637.878205 199.115385 639.990385 199.115385 642.102564 199.115385 644.214744 199.115385 646.326923 199.115385"/></g></g><g class="titles"><text class="title plot_title" x="400.0" y="28">Mean OE2 for Tempo T ±10.0 BPM</text><text class="title" x="450.5" y="465.0">T (BPM)</text><text class="title" x="0" y="243.0" transform="rotate(-90 0.000000 215.000000)">Mean OE2 (TO)</text></g><g class="plot overlay" transform="translate(121, 48)"><g class="series serie-0 color-0"><g class="dots"><circle class="dot reactive tooltip-trigger" cx="12.673076923076922" cy="199.1153846153846" r="2.5"/><desc class="value">0.0000</desc><desc class="x top">12.673076923076922</desc><desc class="y top">199.1153846153846</desc><desc class="x_label">0.0</desc></g><g class="dots"><circle class="dot reactive tooltip-trigger" cx="76.03846153846155" cy="199.1153846153846" r="2.5"/><desc class="value">0.0000</desc><desc class="x top">76.03846153846155</desc><desc class="y top">199.1153846153846</desc><desc class="x_label">30.0</desc></g><g class="dots"><circle class="dot reactive tooltip-trigger" cx="139.40384615384613" cy="201.10106307050782" r="2.5"/><desc class="value">-0.0031</desc><desc class="x top">139.40384615384613</desc><desc class="y top">201.10106307050782</desc><desc class="x_label">60.0</desc></g><g class="dots"><circle class="dot reactive tooltip-trigger" cx="202.76923076923075" cy="202.58162472662812" r="2.5"/><desc class="value">-0.0054</desc><desc class="x top">202.76923076923075</desc><desc class="y top">202.58162472662812</desc><desc class="x_label">90.0</desc></g><g class="dots"><circle class="dot reactive tooltip-trigger" cx="266.1346153846154" cy="198.12043131727873" r="2.5"/><desc class="value">0.0015</desc><desc class="x top">266.1346153846154</desc><desc class="y top">198.12043131727873</desc><desc class="x_label">120.0</desc></g><g class="dots"><circle class="dot reactive tooltip-trigger" cx="329.5" cy="196.4667879182909" r="2.5"/><desc class="value">0.0041</desc><desc class="x top">329.5</desc><desc class="y top">196.4667879182909</desc><desc class="x_label">150.0</desc></g><g class="dots"><circle class="dot reactive tooltip-trigger" cx="392.8653846153846" cy="198.70763181192407" r="2.5"/><desc class="value">0.0006</desc><desc class="x left top">392.8653846153846</desc><desc class="y left top">198.70763181192407</desc><desc class="x_label">180.0</desc></g><g class="dots"><circle class="dot reactive tooltip-trigger" cx="456.23076923076917" cy="221.9490501291781" r="2.5"/><desc class="value">-0.0355</desc><desc class="x left top">456.23076923076917</desc><desc class="y left top">221.9490501291781</desc><desc class="x_label">210.0</desc></g><g class="dots"><circle class="dot reactive tooltip-trigger" cx="519.5961538461538" cy="204.1766164732102" r="2.5"/><desc class="value">-0.0079</desc><desc class="x left top">519.5961538461538</desc><desc class="y left top">204.1766164732102</desc><desc class="x_label">240.0</desc></g><g class="dots"><circle class="dot reactive tooltip-trigger" cx="582.9615384615385" cy="199.1153846153846" r="2.5"/><desc class="value">0.0000</desc><desc class="x left top">582.9615384615385</desc><desc class="y left top">199.1153846153846</desc><desc class="x_label">270.0</desc></g><g class="dots"><circle class="dot reactive tooltip-trigger" cx="646.3269230769231" cy="199.1153846153846" r="2.5"/><desc class="value">0.0000</desc><desc class="x left top">646.3269230769231</desc><desc class="y left top">199.1153846153846</desc><desc class="x_label">300.0</desc></g></g><g class="series serie-1 color-1"><g class="dots"><circle class="dot reactive tooltip-trigger" cx="12.673076923076922" cy="199.1153846153846" r="2.5"/><desc class="value">0.0000</desc><desc class="x top">12.673076923076922</desc><desc class="y top">199.1153846153846</desc><desc class="x_label">0.0</desc></g><g class="dots"><circle class="dot reactive tooltip-trigger" cx="76.03846153846155" cy="199.1153846153846" r="2.5"/><desc class="value">0.0000</desc><desc class="x top">76.03846153846155</desc><desc class="y top">199.1153846153846</desc><desc class="x_label">30.0</desc></g><g class="dots"><circle class="dot reactive tooltip-trigger" cx="139.40384615384613" cy="188.1721874208365" r="2.5"/><desc class="value">0.0170</desc><desc class="x top">139.40384615384613</desc><desc class="y top">188.1721874208365</desc><desc class="x_label">60.0</desc></g><g class="dots"><circle class="dot reactive tooltip-trigger" cx="202.76923076923075" cy="178.55577035174713" r="2.5"/><desc class="value">0.0320</desc><desc class="x top">202.76923076923075</desc><desc class="y top">178.55577035174713</desc><desc class="x_label">90.0</desc></g><g class="dots"><circle class="dot reactive tooltip-trigger" cx="266.1346153846154" cy="176.75675746600604" r="2.5"/><desc class="value">0.0348</desc><desc class="x top">266.1346153846154</desc><desc class="y top">176.75675746600604</desc><desc class="x_label">120.0</desc></g><g class="dots"><circle class="dot reactive tooltip-trigger" cx="329.5" cy="168.99427369675897" r="2.5"/><desc class="value">0.0469</desc><desc class="x top">329.5</desc><desc class="y top">168.99427369675897</desc><desc class="x_label">150.0</desc></g><g class="dots"><circle class="dot reactive tooltip-trigger" cx="392.8653846153846" cy="139.23820819113106" r="2.5"/><desc class="value">0.0932</desc><desc class="x left">392.8653846153846</desc><desc class="y left">139.23820819113106</desc><desc class="x_label">180.0</desc></g><g class="dots"><circle class="dot reactive tooltip-trigger" cx="456.23076923076917" cy="187.30346460982284" r="2.5"/><desc class="value">0.0184</desc><desc class="x left top">456.23076923076917</desc><desc class="y left top">187.30346460982284</desc><desc class="x_label">210.0</desc></g><g class="dots"><circle class="dot reactive tooltip-trigger" cx="519.5961538461538" cy="231.76085902756992" r="2.5"/><desc class="value">-0.0508</desc><desc class="x left top">519.5961538461538</desc><desc class="y left top">231.76085902756992</desc><desc class="x_label">240.0</desc></g><g class="dots"><circle class="dot reactive tooltip-trigger" cx="582.9615384615385" cy="199.1153846153846" r="2.5"/><desc class="value">0.0000</desc><desc class="x left top">582.9615384615385</desc><desc class="y left top">199.1153846153846</desc><desc class="x_label">270.0</desc></g><g class="dots"><circle class="dot reactive tooltip-trigger" cx="646.3269230769231" cy="199.1153846153846" r="2.5"/><desc class="value">0.0000</desc><desc class="x left top">646.3269230769231</desc><desc class="y left top">199.1153846153846</desc><desc class="x_label">300.0</desc></g></g><g class="series serie-2 color-2"><g class="dots"><circle class="dot reactive tooltip-trigger" cx="12.673076923076922" cy="199.1153846153846" r="2.5"/><desc class="value">0.0000</desc><desc class="x top">12.673076923076922</desc><desc class="y top">199.1153846153846</desc><desc class="x_label">0.0</desc></g><g class="dots"><circle class="dot reactive tooltip-trigger" cx="76.03846153846155" cy="199.1153846153846" r="2.5"/><desc class="value">0.0000</desc><desc class="x top">76.03846153846155</desc><desc class="y top">199.1153846153846</desc><desc class="x_label">30.0</desc></g><g class="dots"><circle class="dot reactive tooltip-trigger" cx="139.40384615384613" cy="192.81894624942194" r="2.5"/><desc class="value">0.0098</desc><desc class="x top">139.40384615384613</desc><desc class="y top">192.81894624942194</desc><desc class="x_label">60.0</desc></g><g class="dots"><circle class="dot reactive tooltip-trigger" cx="202.76923076923075" cy="196.24525392250814" r="2.5"/><desc class="value">0.0045</desc><desc class="x top">202.76923076923075</desc><desc class="y top">196.24525392250814</desc><desc class="x_label">90.0</desc></g><g class="dots"><circle class="dot reactive tooltip-trigger" cx="266.1346153846154" cy="190.3824033223167" r="2.5"/><desc class="value">0.0136</desc><desc class="x top">266.1346153846154</desc><desc class="y top">190.3824033223167</desc><desc class="x_label">120.0</desc></g><g class="dots"><circle class="dot reactive tooltip-trigger" cx="329.5" cy="184.28147414788756" r="2.5"/><desc class="value">0.0231</desc><desc class="x top">329.5</desc><desc class="y top">184.28147414788756</desc><desc class="x_label">150.0</desc></g><g class="dots"><circle class="dot reactive tooltip-trigger" cx="392.8653846153846" cy="191.9712705417116" r="2.5"/><desc class="value">0.0111</desc><desc class="x left top">392.8653846153846</desc><desc class="y left top">191.9712705417116</desc><desc class="x_label">180.0</desc></g><g class="dots"><circle class="dot reactive tooltip-trigger" cx="456.23076923076917" cy="196.86440013019265" r="2.5"/><desc class="value">0.0035</desc><desc class="x left top">456.23076923076917</desc><desc class="y left top">196.86440013019265</desc><desc class="x_label">210.0</desc></g><g class="dots"><circle class="dot reactive tooltip-trigger" cx="519.5961538461538" cy="152.68466829238784" r="2.5"/><desc class="value">0.0723</desc><desc class="x left">519.5961538461538</desc><desc class="y left">152.68466829238784</desc><desc class="x_label">240.0</desc></g><g class="dots"><circle class="dot reactive tooltip-trigger" cx="582.9615384615385" cy="199.1153846153846" r="2.5"/><desc class="value">0.0000</desc><desc class="x left top">582.9615384615385</desc><desc class="y left top">199.1153846153846</desc><desc class="x_label">270.0</desc></g><g class="dots"><circle class="dot reactive tooltip-trigger" cx="646.3269230769231" cy="199.1153846153846" r="2.5"/><desc class="value">0.0000</desc><desc class="x left top">646.3269230769231</desc><desc class="y left top">199.1153846153846</desc><desc class="x_label">300.0</desc></g></g><g class="series serie-3 color-3"><g class="dots"><circle class="dot reactive tooltip-trigger" cx="12.673076923076922" cy="199.1153846153846" r="2.5"/><desc class="value">0.0000</desc><desc class="x top">12.673076923076922</desc><desc class="y top">199.1153846153846</desc><desc class="x_label">0.0</desc></g><g class="dots"><circle class="dot reactive tooltip-trigger" cx="76.03846153846155" cy="199.1153846153846" r="2.5"/><desc class="value">0.0000</desc><desc class="x top">76.03846153846155</desc><desc class="y top">199.1153846153846</desc><desc class="x_label">30.0</desc></g><g class="dots"><circle class="dot reactive tooltip-trigger" cx="139.40384615384613" cy="202.18753929264642" r="2.5"/><desc class="value">-0.0048</desc><desc class="x top">139.40384615384613</desc><desc class="y top">202.18753929264642</desc><desc class="x_label">60.0</desc></g><g class="dots"><circle class="dot reactive tooltip-trigger" cx="202.76923076923075" cy="202.2325642068867" r="2.5"/><desc class="value">-0.0049</desc><desc class="x top">202.76923076923075</desc><desc class="y top">202.2325642068867</desc><desc class="x_label">90.0</desc></g><g class="dots"><circle class="dot reactive tooltip-trigger" cx="266.1346153846154" cy="198.00217486771564" r="2.5"/><desc class="value">0.0017</desc><desc class="x top">266.1346153846154</desc><desc class="y top">198.00217486771564</desc><desc class="x_label">120.0</desc></g><g class="dots"><circle class="dot reactive tooltip-trigger" cx="329.5" cy="200.04775861898338" r="2.5"/><desc class="value">-0.0015</desc><desc class="x top">329.5</desc><desc class="y top">200.04775861898338</desc><desc class="x_label">150.0</desc></g><g class="dots"><circle class="dot reactive tooltip-trigger" cx="392.8653846153846" cy="202.64096363891326" r="2.5"/><desc class="value">-0.0055</desc><desc class="x left top">392.8653846153846</desc><desc class="y left top">202.64096363891326</desc><desc class="x_label">180.0</desc></g><g class="dots"><circle class="dot reactive tooltip-trigger" cx="456.23076923076917" cy="207.77414105737455" r="2.5"/><desc class="value">-0.0135</desc><desc class="x left top">456.23076923076917</desc><desc class="y left top">207.77414105737455</desc><desc class="x_label">210.0</desc></g><g class="dots"><circle class="dot reactive tooltip-trigger" cx="519.5961538461538" cy="197.10691564407625" r="2.5"/><desc class="value">0.0031</desc><desc class="x left top">519.5961538461538</desc><desc class="y left top">197.10691564407625</desc><desc class="x_label">240.0</desc></g><g class="dots"><circle class="dot reactive tooltip-trigger" cx="582.9615384615385" cy="199.1153846153846" r="2.5"/><desc class="value">0.0000</desc><desc class="x left top">582.9615384615385</desc><desc class="y left top">199.1153846153846</desc><desc class="x_label">270.0</desc></g><g class="dots"><circle class="dot reactive tooltip-trigger" cx="646.3269230769231" cy="199.1153846153846" r="2.5"/><desc class="value">0.0000</desc><desc class="x left top">646.3269230769231</desc><desc class="y left top">199.1153846153846</desc><desc class="x_label">300.0</desc></g></g><g class="series serie-4 color-4"><g class="dots"><circle class="dot reactive tooltip-trigger" cx="12.673076923076922" cy="199.1153846153846" r="2.5"/><desc class="value">0.0000</desc><desc class="x top">12.673076923076922</desc><desc class="y top">199.1153846153846</desc><desc class="x_label">0.0</desc></g><g class="dots"><circle class="dot reactive tooltip-trigger" cx="76.03846153846155" cy="199.1153846153846" r="2.5"/><desc class="value">0.0000</desc><desc class="x top">76.03846153846155</desc><desc class="y top">199.1153846153846</desc><desc class="x_label">30.0</desc></g><g class="dots"><circle class="dot reactive tooltip-trigger" cx="139.40384615384613" cy="204.50880648290556" r="2.5"/><desc class="value">-0.0084</desc><desc class="x top">139.40384615384613</desc><desc class="y top">204.50880648290556</desc><desc class="x_label">60.0</desc></g><g class="dots"><circle class="dot reactive tooltip-trigger" cx="202.76923076923075" cy="202.63342934182762" r="2.5"/><desc class="value">-0.0055</desc><desc class="x top">202.76923076923075</desc><desc class="y top">202.63342934182762</desc><desc class="x_label">90.0</desc></g><g class="dots"><circle class="dot reactive tooltip-trigger" cx="266.1346153846154" cy="201.16946019970518" r="2.5"/><desc class="value">-0.0032</desc><desc class="x top">266.1346153846154</desc><desc class="y top">201.16946019970518</desc><desc class="x_label">120.0</desc></g><g class="dots"><circle class="dot reactive tooltip-trigger" cx="329.5" cy="213.97200049095625" r="2.5"/><desc class="value">-0.0231</desc><desc class="x top">329.5</desc><desc class="y top">213.97200049095625</desc><desc class="x_label">150.0</desc></g><g class="dots"><circle class="dot reactive tooltip-trigger" cx="392.8653846153846" cy="208.2640776010722" r="2.5"/><desc class="value">-0.0142</desc><desc class="x left top">392.8653846153846</desc><desc class="y left top">208.2640776010722</desc><desc class="x_label">180.0</desc></g><g class="dots"><circle class="dot reactive tooltip-trigger" cx="456.23076923076917" cy="220.76527099419127" r="2.5"/><desc class="value">-0.0337</desc><desc class="x left top">456.23076923076917</desc><desc class="y left top">220.76527099419127</desc><desc class="x_label">210.0</desc></g><g class="dots"><circle class="dot reactive tooltip-trigger" cx="519.5961538461538" cy="119.14638845858471" r="2.5"/><desc class="value">0.1245</desc><desc class="x left">519.5961538461538</desc><desc class="y left">119.14638845858471</desc><desc class="x_label">240.0</desc></g><g class="dots"><circle class="dot reactive tooltip-trigger" cx="582.9615384615385" cy="199.1153846153846" r="2.5"/><desc class="value">0.0000</desc><desc class="x left top">582.9615384615385</desc><desc class="y left top">199.1153846153846</desc><desc class="x_label">270.0</desc></g><g class="dots"><circle class="dot reactive tooltip-trigger" cx="646.3269230769231" cy="199.1153846153846" r="2.5"/><desc class="value">0.0000</desc><desc class="x left top">646.3269230769231</desc><desc class="y left top">199.1153846153846</desc><desc class="x_label">300.0</desc></g></g><g class="series serie-5 color-5"><g class="dots"><circle class="dot reactive tooltip-trigger" cx="12.673076923076922" cy="199.1153846153846" r="2.5"/><desc class="value">0.0000</desc><desc class="x top">12.673076923076922</desc><desc class="y top">199.1153846153846</desc><desc class="x_label">0.0</desc></g><g class="dots"><circle class="dot reactive tooltip-trigger" cx="76.03846153846155" cy="199.1153846153846" r="2.5"/><desc class="value">0.0000</desc><desc class="x top">76.03846153846155</desc><desc class="y top">199.1153846153846</desc><desc class="x_label">30.0</desc></g><g class="dots"><circle class="dot reactive tooltip-trigger" cx="139.40384615384613" cy="200.9067563870863" r="2.5"/><desc class="value">-0.0028</desc><desc class="x top">139.40384615384613</desc><desc class="y top">200.9067563870863</desc><desc class="x_label">60.0</desc></g><g class="dots"><circle class="dot reactive tooltip-trigger" cx="202.76923076923075" cy="203.1560792218187" r="2.5"/><desc class="value">-0.0063</desc><desc class="x top">202.76923076923075</desc><desc class="y top">203.1560792218187</desc><desc class="x_label">90.0</desc></g><g class="dots"><circle class="dot reactive tooltip-trigger" cx="266.1346153846154" cy="200.88173395520812" r="2.5"/><desc class="value">-0.0028</desc><desc class="x top">266.1346153846154</desc><desc class="y top">200.88173395520812</desc><desc class="x_label">120.0</desc></g><g class="dots"><circle class="dot reactive tooltip-trigger" cx="329.5" cy="214.37009386558117" r="2.5"/><desc class="value">-0.0237</desc><desc class="x top">329.5</desc><desc class="y top">214.37009386558117</desc><desc class="x_label">150.0</desc></g><g class="dots"><circle class="dot reactive tooltip-trigger" cx="392.8653846153846" cy="208.73757980594195" r="2.5"/><desc class="value">-0.0150</desc><desc class="x left top">392.8653846153846</desc><desc class="y left top">208.73757980594195</desc><desc class="x_label">180.0</desc></g><g class="dots"><circle class="dot reactive tooltip-trigger" cx="456.23076923076917" cy="220.76527099419127" r="2.5"/><desc class="value">-0.0337</desc><desc class="x left top">456.23076923076917</desc><desc class="y left top">220.76527099419127</desc><desc class="x_label">210.0</desc></g><g class="dots"><circle class="dot reactive tooltip-trigger" cx="519.5961538461538" cy="119.14638845858471" r="2.5"/><desc class="value">0.1245</desc><desc class="x left">519.5961538461538</desc><desc class="y left">119.14638845858471</desc><desc class="x_label">240.0</desc></g><g class="dots"><circle class="dot reactive tooltip-trigger" cx="582.9615384615385" cy="199.1153846153846" r="2.5"/><desc class="value">0.0000</desc><desc class="x left top">582.9615384615385</desc><desc class="y left top">199.1153846153846</desc><desc class="x_label">270.0</desc></g><g class="dots"><circle class="dot reactive tooltip-trigger" cx="646.3269230769231" cy="199.1153846153846" r="2.5"/><desc class="value">0.0000</desc><desc class="x left top">646.3269230769231</desc><desc class="y left top">199.1153846153846</desc><desc class="x_label">300.0</desc></g></g></g><g class="plot text-overlay" transform="translate(121, 48)"><g class="series serie-0 color-0"/><g class="series serie-1 color-1"/><g class="series serie-2 color-2"/><g class="series serie-3 color-3"/><g class="series serie-4 color-4"/><g class="series serie-5 color-5"/></g><g class="plot tooltip-overlay" transform="translate(121, 48)"><g class="tooltip" style="opacity: 0" transform="translate(0 0)"><rect class="tooltip-box" height="0" rx="0" ry="0" width="0"/><g class="text"/></g></g><g class="legends" transform="translate(131, 485)"><g class="legend reactive activate-serie" id="activate-serie-0"><rect class="color-0 reactive" height="12" width="12" x="0.0" y="1.5"/><text x="17.0" y="12.0">boeck2015/tempodetector2016_default</text></g><g class="legend reactive activate-serie" id="activate-serie-1"><rect class="color-1 reactive" height="12" width="12" x="329.5" y="1.5"/><text x="346.5" y="12.0">davies2009/mirex_qm_tempotracker</text></g><g class="legend reactive activate-serie" id="activate-serie-2"><rect class="color-2 reactive" height="12" width="12" x="0.0" y="24.0"/><text x="17.0" y="34.5">percival2014/stem</text></g><g class="legend reactive activate-serie" id="activate-serie-3"><rect class="color-3 reactive" height="12" width="12" x="329.5" y="24.0"/><text x="346.5" y="34.5">schreiber2014/default</text></g><g class="legend reactive activate-serie" id="activate-serie-4"><rect class="color-4 reactive" height="12" width="12" x="0.0" y="46.5"/><text x="17.0" y="57.0">schreiber2017/ismir2017</text></g><g class="legend reactive activate-serie" id="activate-serie-5"><rect class="color-5 reactive" height="12" width="12" x="329.5" y="46.5"/><text x="346.5" y="57.0">schreiber2017/mirex2017</text></g></g></g></svg>