<?xml version="1.0" encoding="utf-8" standalone="no"?>
<!DOCTYPE svg PUBLIC "-//W3C//DTD SVG 1.1//EN"
  "http://www.w3.org/Graphics/SVG/1.1/DTD/svg11.dtd">
<!-- Created with matplotlib (https://matplotlib.org/) -->
<svg height="370.338375pt" version="1.1" viewBox="0 0 630.909375 370.338375" width="630.909375pt" xmlns="http://www.w3.org/2000/svg" xmlns:xlink="http://www.w3.org/1999/xlink">
 <metadata>
  <rdf:RDF xmlns:cc="http://creativecommons.org/ns#" xmlns:dc="http://purl.org/dc/elements/1.1/" xmlns:rdf="http://www.w3.org/1999/02/22-rdf-syntax-ns#">
   <cc:Work>
    <dc:type rdf:resource="http://purl.org/dc/dcmitype/StillImage"/>
    <dc:date>2022-06-29T18:23:28.348158</dc:date>
    <dc:format>image/svg+xml</dc:format>
    <dc:creator>
     <cc:Agent>
      <dc:title>Matplotlib v3.3.1, https://matplotlib.org/</dc:title>
     </cc:Agent>
    </dc:creator>
   </cc:Work>
  </rdf:RDF>
 </metadata>
 <defs>
  <style type="text/css">*{stroke-linecap:butt;stroke-linejoin:round;}</style>
 </defs>
 <g id="figure_1">
  <g id="patch_1">
   <path d="M -0 370.338375 
L 630.909375 370.338375 
L 630.909375 0 
L -0 0 
z
" style="fill:#ffffff;"/>
  </g>
  <g id="axes_1">
   <g id="patch_2">
    <path d="M 226.746875 332.782125 
L 617.346875 332.782125 
L 617.346875 22.318125 
L 226.746875 22.318125 
z
" style="fill:#ffffff;"/>
   </g>
   <g id="matplotlib.axis_1">
    <g id="xtick_1">
     <g id="line2d_1">
      <path clip-path="url(#pa2b0ea43f1)" d="M 226.746875 332.782125 
L 226.746875 22.318125 
" style="fill:none;stroke:#b0b0b0;stroke-linecap:square;stroke-width:0.8;"/>
     </g>
     <g id="line2d_2">
      <defs>
       <path d="M 0 0 
L 0 3.5 
" id="m4c6937beda" style="stroke:#000000;stroke-width:0.8;"/>
      </defs>
      <g>
       <use style="stroke:#000000;stroke-width:0.8;" x="226.746875" xlink:href="#m4c6937beda" y="332.782125"/>
      </g>
     </g>
     <g id="text_1">
      <!-- 0 -->
      <g transform="translate(223.565625 347.380562)scale(0.1 -0.1)">
       <defs>
        <path d="M 31.78125 66.40625 
Q 24.171875 66.40625 20.328125 58.90625 
Q 16.5 51.421875 16.5 36.375 
Q 16.5 21.390625 20.328125 13.890625 
Q 24.171875 6.390625 31.78125 6.390625 
Q 39.453125 6.390625 43.28125 13.890625 
Q 47.125 21.390625 47.125 36.375 
Q 47.125 51.421875 43.28125 58.90625 
Q 39.453125 66.40625 31.78125 66.40625 
z
M 31.78125 74.21875 
Q 44.046875 74.21875 50.515625 64.515625 
Q 56.984375 54.828125 56.984375 36.375 
Q 56.984375 17.96875 50.515625 8.265625 
Q 44.046875 -1.421875 31.78125 -1.421875 
Q 19.53125 -1.421875 13.0625 8.265625 
Q 6.59375 17.96875 6.59375 36.375 
Q 6.59375 54.828125 13.0625 64.515625 
Q 19.53125 74.21875 31.78125 74.21875 
z
" id="DejaVuSans-48"/>
       </defs>
       <use xlink:href="#DejaVuSans-48"/>
      </g>
     </g>
    </g>
    <g id="xtick_2">
     <g id="line2d_3">
      <path clip-path="url(#pa2b0ea43f1)" d="M 304.866875 332.782125 
L 304.866875 22.318125 
" style="fill:none;stroke:#b0b0b0;stroke-linecap:square;stroke-width:0.8;"/>
     </g>
     <g id="line2d_4">
      <g>
       <use style="stroke:#000000;stroke-width:0.8;" x="304.866875" xlink:href="#m4c6937beda" y="332.782125"/>
      </g>
     </g>
     <g id="text_2">
      <!-- 2 -->
      <g transform="translate(301.685625 347.380562)scale(0.1 -0.1)">
       <defs>
        <path d="M 19.1875 8.296875 
L 53.609375 8.296875 
L 53.609375 0 
L 7.328125 0 
L 7.328125 8.296875 
Q 12.9375 14.109375 22.625 23.890625 
Q 32.328125 33.6875 34.8125 36.53125 
Q 39.546875 41.84375 41.421875 45.53125 
Q 43.3125 49.21875 43.3125 52.78125 
Q 43.3125 58.59375 39.234375 62.25 
Q 35.15625 65.921875 28.609375 65.921875 
Q 23.96875 65.921875 18.8125 64.3125 
Q 13.671875 62.703125 7.8125 59.421875 
L 7.8125 69.390625 
Q 13.765625 71.78125 18.9375 73 
Q 24.125 74.21875 28.421875 74.21875 
Q 39.75 74.21875 46.484375 68.546875 
Q 53.21875 62.890625 53.21875 53.421875 
Q 53.21875 48.921875 51.53125 44.890625 
Q 49.859375 40.875 45.40625 35.40625 
Q 44.1875 33.984375 37.640625 27.21875 
Q 31.109375 20.453125 19.1875 8.296875 
z
" id="DejaVuSans-50"/>
       </defs>
       <use xlink:href="#DejaVuSans-50"/>
      </g>
     </g>
    </g>
    <g id="xtick_3">
     <g id="line2d_5">
      <path clip-path="url(#pa2b0ea43f1)" d="M 382.986875 332.782125 
L 382.986875 22.318125 
" style="fill:none;stroke:#b0b0b0;stroke-linecap:square;stroke-width:0.8;"/>
     </g>
     <g id="line2d_6">
      <g>
       <use style="stroke:#000000;stroke-width:0.8;" x="382.986875" xlink:href="#m4c6937beda" y="332.782125"/>
      </g>
     </g>
     <g id="text_3">
      <!-- 4 -->
      <g transform="translate(379.805625 347.380562)scale(0.1 -0.1)">
       <defs>
        <path d="M 37.796875 64.3125 
L 12.890625 25.390625 
L 37.796875 25.390625 
z
M 35.203125 72.90625 
L 47.609375 72.90625 
L 47.609375 25.390625 
L 58.015625 25.390625 
L 58.015625 17.1875 
L 47.609375 17.1875 
L 47.609375 0 
L 37.796875 0 
L 37.796875 17.1875 
L 4.890625 17.1875 
L 4.890625 26.703125 
z
" id="DejaVuSans-52"/>
       </defs>
       <use xlink:href="#DejaVuSans-52"/>
      </g>
     </g>
    </g>
    <g id="xtick_4">
     <g id="line2d_7">
      <path clip-path="url(#pa2b0ea43f1)" d="M 461.106875 332.782125 
L 461.106875 22.318125 
" style="fill:none;stroke:#b0b0b0;stroke-linecap:square;stroke-width:0.8;"/>
     </g>
     <g id="line2d_8">
      <g>
       <use style="stroke:#000000;stroke-width:0.8;" x="461.106875" xlink:href="#m4c6937beda" y="332.782125"/>
      </g>
     </g>
     <g id="text_4">
      <!-- 6 -->
      <g transform="translate(457.925625 347.380562)scale(0.1 -0.1)">
       <defs>
        <path d="M 33.015625 40.375 
Q 26.375 40.375 22.484375 35.828125 
Q 18.609375 31.296875 18.609375 23.390625 
Q 18.609375 15.53125 22.484375 10.953125 
Q 26.375 6.390625 33.015625 6.390625 
Q 39.65625 6.390625 43.53125 10.953125 
Q 47.40625 15.53125 47.40625 23.390625 
Q 47.40625 31.296875 43.53125 35.828125 
Q 39.65625 40.375 33.015625 40.375 
z
M 52.59375 71.296875 
L 52.59375 62.3125 
Q 48.875 64.0625 45.09375 64.984375 
Q 41.3125 65.921875 37.59375 65.921875 
Q 27.828125 65.921875 22.671875 59.328125 
Q 17.53125 52.734375 16.796875 39.40625 
Q 19.671875 43.65625 24.015625 45.921875 
Q 28.375 48.1875 33.59375 48.1875 
Q 44.578125 48.1875 50.953125 41.515625 
Q 57.328125 34.859375 57.328125 23.390625 
Q 57.328125 12.15625 50.6875 5.359375 
Q 44.046875 -1.421875 33.015625 -1.421875 
Q 20.359375 -1.421875 13.671875 8.265625 
Q 6.984375 17.96875 6.984375 36.375 
Q 6.984375 53.65625 15.1875 63.9375 
Q 23.390625 74.21875 37.203125 74.21875 
Q 40.921875 74.21875 44.703125 73.484375 
Q 48.484375 72.75 52.59375 71.296875 
z
" id="DejaVuSans-54"/>
       </defs>
       <use xlink:href="#DejaVuSans-54"/>
      </g>
     </g>
    </g>
    <g id="xtick_5">
     <g id="line2d_9">
      <path clip-path="url(#pa2b0ea43f1)" d="M 539.226875 332.782125 
L 539.226875 22.318125 
" style="fill:none;stroke:#b0b0b0;stroke-linecap:square;stroke-width:0.8;"/>
     </g>
     <g id="line2d_10">
      <g>
       <use style="stroke:#000000;stroke-width:0.8;" x="539.226875" xlink:href="#m4c6937beda" y="332.782125"/>
      </g>
     </g>
     <g id="text_5">
      <!-- 8 -->
      <g transform="translate(536.045625 347.380562)scale(0.1 -0.1)">
       <defs>
        <path d="M 31.78125 34.625 
Q 24.75 34.625 20.71875 30.859375 
Q 16.703125 27.09375 16.703125 20.515625 
Q 16.703125 13.921875 20.71875 10.15625 
Q 24.75 6.390625 31.78125 6.390625 
Q 38.8125 6.390625 42.859375 10.171875 
Q 46.921875 13.96875 46.921875 20.515625 
Q 46.921875 27.09375 42.890625 30.859375 
Q 38.875 34.625 31.78125 34.625 
z
M 21.921875 38.8125 
Q 15.578125 40.375 12.03125 44.71875 
Q 8.5 49.078125 8.5 55.328125 
Q 8.5 64.0625 14.71875 69.140625 
Q 20.953125 74.21875 31.78125 74.21875 
Q 42.671875 74.21875 48.875 69.140625 
Q 55.078125 64.0625 55.078125 55.328125 
Q 55.078125 49.078125 51.53125 44.71875 
Q 48 40.375 41.703125 38.8125 
Q 48.828125 37.15625 52.796875 32.3125 
Q 56.78125 27.484375 56.78125 20.515625 
Q 56.78125 9.90625 50.3125 4.234375 
Q 43.84375 -1.421875 31.78125 -1.421875 
Q 19.734375 -1.421875 13.25 4.234375 
Q 6.78125 9.90625 6.78125 20.515625 
Q 6.78125 27.484375 10.78125 32.3125 
Q 14.796875 37.15625 21.921875 38.8125 
z
M 18.3125 54.390625 
Q 18.3125 48.734375 21.84375 45.5625 
Q 25.390625 42.390625 31.78125 42.390625 
Q 38.140625 42.390625 41.71875 45.5625 
Q 45.3125 48.734375 45.3125 54.390625 
Q 45.3125 60.0625 41.71875 63.234375 
Q 38.140625 66.40625 31.78125 66.40625 
Q 25.390625 66.40625 21.84375 63.234375 
Q 18.3125 60.0625 18.3125 54.390625 
z
" id="DejaVuSans-56"/>
       </defs>
       <use xlink:href="#DejaVuSans-56"/>
      </g>
     </g>
    </g>
    <g id="xtick_6">
     <g id="line2d_11">
      <path clip-path="url(#pa2b0ea43f1)" d="M 617.346875 332.782125 
L 617.346875 22.318125 
" style="fill:none;stroke:#b0b0b0;stroke-linecap:square;stroke-width:0.8;"/>
     </g>
     <g id="line2d_12">
      <g>
       <use style="stroke:#000000;stroke-width:0.8;" x="617.346875" xlink:href="#m4c6937beda" y="332.782125"/>
      </g>
     </g>
     <g id="text_6">
      <!-- 10 -->
      <g transform="translate(610.984375 347.380562)scale(0.1 -0.1)">
       <defs>
        <path d="M 12.40625 8.296875 
L 28.515625 8.296875 
L 28.515625 63.921875 
L 10.984375 60.40625 
L 10.984375 69.390625 
L 28.421875 72.90625 
L 38.28125 72.90625 
L 38.28125 8.296875 
L 54.390625 8.296875 
L 54.390625 0 
L 12.40625 0 
z
" id="DejaVuSans-49"/>
       </defs>
       <use xlink:href="#DejaVuSans-49"/>
       <use x="63.623047" xlink:href="#DejaVuSans-48"/>
      </g>
     </g>
    </g>
    <g id="text_7">
     <!-- AOE1 (TO) -->
     <g transform="translate(395.957031 361.058687)scale(0.1 -0.1)">
      <defs>
       <path d="M 34.1875 63.1875 
L 20.796875 26.90625 
L 47.609375 26.90625 
z
M 28.609375 72.90625 
L 39.796875 72.90625 
L 67.578125 0 
L 57.328125 0 
L 50.6875 18.703125 
L 17.828125 18.703125 
L 11.1875 0 
L 0.78125 0 
z
" id="DejaVuSans-65"/>
       <path d="M 39.40625 66.21875 
Q 28.65625 66.21875 22.328125 58.203125 
Q 16.015625 50.203125 16.015625 36.375 
Q 16.015625 22.609375 22.328125 14.59375 
Q 28.65625 6.59375 39.40625 6.59375 
Q 50.140625 6.59375 56.421875 14.59375 
Q 62.703125 22.609375 62.703125 36.375 
Q 62.703125 50.203125 56.421875 58.203125 
Q 50.140625 66.21875 39.40625 66.21875 
z
M 39.40625 74.21875 
Q 54.734375 74.21875 63.90625 63.9375 
Q 73.09375 53.65625 73.09375 36.375 
Q 73.09375 19.140625 63.90625 8.859375 
Q 54.734375 -1.421875 39.40625 -1.421875 
Q 24.03125 -1.421875 14.8125 8.828125 
Q 5.609375 19.09375 5.609375 36.375 
Q 5.609375 53.65625 14.8125 63.9375 
Q 24.03125 74.21875 39.40625 74.21875 
z
" id="DejaVuSans-79"/>
       <path d="M 9.8125 72.90625 
L 55.90625 72.90625 
L 55.90625 64.59375 
L 19.671875 64.59375 
L 19.671875 43.015625 
L 54.390625 43.015625 
L 54.390625 34.71875 
L 19.671875 34.71875 
L 19.671875 8.296875 
L 56.78125 8.296875 
L 56.78125 0 
L 9.8125 0 
z
" id="DejaVuSans-69"/>
       <path id="DejaVuSans-32"/>
       <path d="M 31 75.875 
Q 24.46875 64.65625 21.28125 53.65625 
Q 18.109375 42.671875 18.109375 31.390625 
Q 18.109375 20.125 21.3125 9.0625 
Q 24.515625 -2 31 -13.1875 
L 23.1875 -13.1875 
Q 15.875 -1.703125 12.234375 9.375 
Q 8.59375 20.453125 8.59375 31.390625 
Q 8.59375 42.28125 12.203125 53.3125 
Q 15.828125 64.359375 23.1875 75.875 
z
" id="DejaVuSans-40"/>
       <path d="M -0.296875 72.90625 
L 61.375 72.90625 
L 61.375 64.59375 
L 35.5 64.59375 
L 35.5 0 
L 25.59375 0 
L 25.59375 64.59375 
L -0.296875 64.59375 
z
" id="DejaVuSans-84"/>
       <path d="M 8.015625 75.875 
L 15.828125 75.875 
Q 23.140625 64.359375 26.78125 53.3125 
Q 30.421875 42.28125 30.421875 31.390625 
Q 30.421875 20.453125 26.78125 9.375 
Q 23.140625 -1.703125 15.828125 -13.1875 
L 8.015625 -13.1875 
Q 14.5 -2 17.703125 9.0625 
Q 20.90625 20.125 20.90625 31.390625 
Q 20.90625 42.671875 17.703125 53.65625 
Q 14.5 64.65625 8.015625 75.875 
z
" id="DejaVuSans-41"/>
      </defs>
      <use xlink:href="#DejaVuSans-65"/>
      <use x="66.658203" xlink:href="#DejaVuSans-79"/>
      <use x="145.369141" xlink:href="#DejaVuSans-69"/>
      <use x="208.552734" xlink:href="#DejaVuSans-49"/>
      <use x="272.175781" xlink:href="#DejaVuSans-32"/>
      <use x="303.962891" xlink:href="#DejaVuSans-40"/>
      <use x="342.976562" xlink:href="#DejaVuSans-84"/>
      <use x="404.060547" xlink:href="#DejaVuSans-79"/>
      <use x="482.771484" xlink:href="#DejaVuSans-41"/>
     </g>
    </g>
   </g>
   <g id="matplotlib.axis_2">
    <g id="ytick_1">
     <g id="line2d_13">
      <path clip-path="url(#pa2b0ea43f1)" d="M 226.746875 305.841034 
L 617.346875 305.841034 
" style="fill:none;stroke:#b0b0b0;stroke-linecap:square;stroke-width:0.8;"/>
     </g>
     <g id="line2d_14">
      <defs>
       <path d="M 0 0 
L -3.5 0 
" id="mba61cf9935" style="stroke:#000000;stroke-width:0.8;"/>
      </defs>
      <g>
       <use style="stroke:#000000;stroke-width:0.8;" x="226.746875" xlink:href="#mba61cf9935" y="305.841034"/>
      </g>
     </g>
     <g id="text_8">
      <!-- schreiber2017/mirex2017 -->
      <g transform="translate(90.701562 309.640253)scale(0.1 -0.1)">
       <defs>
        <path d="M 44.28125 53.078125 
L 44.28125 44.578125 
Q 40.484375 46.53125 36.375 47.5 
Q 32.28125 48.484375 27.875 48.484375 
Q 21.1875 48.484375 17.84375 46.4375 
Q 14.5 44.390625 14.5 40.28125 
Q 14.5 37.15625 16.890625 35.375 
Q 19.28125 33.59375 26.515625 31.984375 
L 29.59375 31.296875 
Q 39.15625 29.25 43.1875 25.515625 
Q 47.21875 21.78125 47.21875 15.09375 
Q 47.21875 7.46875 41.1875 3.015625 
Q 35.15625 -1.421875 24.609375 -1.421875 
Q 20.21875 -1.421875 15.453125 -0.5625 
Q 10.6875 0.296875 5.421875 2 
L 5.421875 11.28125 
Q 10.40625 8.6875 15.234375 7.390625 
Q 20.0625 6.109375 24.8125 6.109375 
Q 31.15625 6.109375 34.5625 8.28125 
Q 37.984375 10.453125 37.984375 14.40625 
Q 37.984375 18.0625 35.515625 20.015625 
Q 33.0625 21.96875 24.703125 23.78125 
L 21.578125 24.515625 
Q 13.234375 26.265625 9.515625 29.90625 
Q 5.8125 33.546875 5.8125 39.890625 
Q 5.8125 47.609375 11.28125 51.796875 
Q 16.75 56 26.8125 56 
Q 31.78125 56 36.171875 55.265625 
Q 40.578125 54.546875 44.28125 53.078125 
z
" id="DejaVuSans-115"/>
        <path d="M 48.78125 52.59375 
L 48.78125 44.1875 
Q 44.96875 46.296875 41.140625 47.34375 
Q 37.3125 48.390625 33.40625 48.390625 
Q 24.65625 48.390625 19.8125 42.84375 
Q 14.984375 37.3125 14.984375 27.296875 
Q 14.984375 17.28125 19.8125 11.734375 
Q 24.65625 6.203125 33.40625 6.203125 
Q 37.3125 6.203125 41.140625 7.25 
Q 44.96875 8.296875 48.78125 10.40625 
L 48.78125 2.09375 
Q 45.015625 0.34375 40.984375 -0.53125 
Q 36.96875 -1.421875 32.421875 -1.421875 
Q 20.0625 -1.421875 12.78125 6.34375 
Q 5.515625 14.109375 5.515625 27.296875 
Q 5.515625 40.671875 12.859375 48.328125 
Q 20.21875 56 33.015625 56 
Q 37.15625 56 41.109375 55.140625 
Q 45.0625 54.296875 48.78125 52.59375 
z
" id="DejaVuSans-99"/>
        <path d="M 54.890625 33.015625 
L 54.890625 0 
L 45.90625 0 
L 45.90625 32.71875 
Q 45.90625 40.484375 42.875 44.328125 
Q 39.84375 48.1875 33.796875 48.1875 
Q 26.515625 48.1875 22.3125 43.546875 
Q 18.109375 38.921875 18.109375 30.90625 
L 18.109375 0 
L 9.078125 0 
L 9.078125 75.984375 
L 18.109375 75.984375 
L 18.109375 46.1875 
Q 21.34375 51.125 25.703125 53.5625 
Q 30.078125 56 35.796875 56 
Q 45.21875 56 50.046875 50.171875 
Q 54.890625 44.34375 54.890625 33.015625 
z
" id="DejaVuSans-104"/>
        <path d="M 41.109375 46.296875 
Q 39.59375 47.171875 37.8125 47.578125 
Q 36.03125 48 33.890625 48 
Q 26.265625 48 22.1875 43.046875 
Q 18.109375 38.09375 18.109375 28.8125 
L 18.109375 0 
L 9.078125 0 
L 9.078125 54.6875 
L 18.109375 54.6875 
L 18.109375 46.1875 
Q 20.953125 51.171875 25.484375 53.578125 
Q 30.03125 56 36.53125 56 
Q 37.453125 56 38.578125 55.875 
Q 39.703125 55.765625 41.0625 55.515625 
z
" id="DejaVuSans-114"/>
        <path d="M 56.203125 29.59375 
L 56.203125 25.203125 
L 14.890625 25.203125 
Q 15.484375 15.921875 20.484375 11.0625 
Q 25.484375 6.203125 34.421875 6.203125 
Q 39.59375 6.203125 44.453125 7.46875 
Q 49.3125 8.734375 54.109375 11.28125 
L 54.109375 2.78125 
Q 49.265625 0.734375 44.1875 -0.34375 
Q 39.109375 -1.421875 33.890625 -1.421875 
Q 20.796875 -1.421875 13.15625 6.1875 
Q 5.515625 13.8125 5.515625 26.8125 
Q 5.515625 40.234375 12.765625 48.109375 
Q 20.015625 56 32.328125 56 
Q 43.359375 56 49.78125 48.890625 
Q 56.203125 41.796875 56.203125 29.59375 
z
M 47.21875 32.234375 
Q 47.125 39.59375 43.09375 43.984375 
Q 39.0625 48.390625 32.421875 48.390625 
Q 24.90625 48.390625 20.390625 44.140625 
Q 15.875 39.890625 15.1875 32.171875 
z
" id="DejaVuSans-101"/>
        <path d="M 9.421875 54.6875 
L 18.40625 54.6875 
L 18.40625 0 
L 9.421875 0 
z
M 9.421875 75.984375 
L 18.40625 75.984375 
L 18.40625 64.59375 
L 9.421875 64.59375 
z
" id="DejaVuSans-105"/>
        <path d="M 48.6875 27.296875 
Q 48.6875 37.203125 44.609375 42.84375 
Q 40.53125 48.484375 33.40625 48.484375 
Q 26.265625 48.484375 22.1875 42.84375 
Q 18.109375 37.203125 18.109375 27.296875 
Q 18.109375 17.390625 22.1875 11.75 
Q 26.265625 6.109375 33.40625 6.109375 
Q 40.53125 6.109375 44.609375 11.75 
Q 48.6875 17.390625 48.6875 27.296875 
z
M 18.109375 46.390625 
Q 20.953125 51.265625 25.265625 53.625 
Q 29.59375 56 35.59375 56 
Q 45.5625 56 51.78125 48.09375 
Q 58.015625 40.1875 58.015625 27.296875 
Q 58.015625 14.40625 51.78125 6.484375 
Q 45.5625 -1.421875 35.59375 -1.421875 
Q 29.59375 -1.421875 25.265625 0.953125 
Q 20.953125 3.328125 18.109375 8.203125 
L 18.109375 0 
L 9.078125 0 
L 9.078125 75.984375 
L 18.109375 75.984375 
z
" id="DejaVuSans-98"/>
        <path d="M 8.203125 72.90625 
L 55.078125 72.90625 
L 55.078125 68.703125 
L 28.609375 0 
L 18.3125 0 
L 43.21875 64.59375 
L 8.203125 64.59375 
z
" id="DejaVuSans-55"/>
        <path d="M 25.390625 72.90625 
L 33.6875 72.90625 
L 8.296875 -9.28125 
L 0 -9.28125 
z
" id="DejaVuSans-47"/>
        <path d="M 52 44.1875 
Q 55.375 50.25 60.0625 53.125 
Q 64.75 56 71.09375 56 
Q 79.640625 56 84.28125 50.015625 
Q 88.921875 44.046875 88.921875 33.015625 
L 88.921875 0 
L 79.890625 0 
L 79.890625 32.71875 
Q 79.890625 40.578125 77.09375 44.375 
Q 74.3125 48.1875 68.609375 48.1875 
Q 61.625 48.1875 57.5625 43.546875 
Q 53.515625 38.921875 53.515625 30.90625 
L 53.515625 0 
L 44.484375 0 
L 44.484375 32.71875 
Q 44.484375 40.625 41.703125 44.40625 
Q 38.921875 48.1875 33.109375 48.1875 
Q 26.21875 48.1875 22.15625 43.53125 
Q 18.109375 38.875 18.109375 30.90625 
L 18.109375 0 
L 9.078125 0 
L 9.078125 54.6875 
L 18.109375 54.6875 
L 18.109375 46.1875 
Q 21.1875 51.21875 25.484375 53.609375 
Q 29.78125 56 35.6875 56 
Q 41.65625 56 45.828125 52.96875 
Q 50 49.953125 52 44.1875 
z
" id="DejaVuSans-109"/>
        <path d="M 54.890625 54.6875 
L 35.109375 28.078125 
L 55.90625 0 
L 45.3125 0 
L 29.390625 21.484375 
L 13.484375 0 
L 2.875 0 
L 24.125 28.609375 
L 4.6875 54.6875 
L 15.28125 54.6875 
L 29.78125 35.203125 
L 44.28125 54.6875 
z
" id="DejaVuSans-120"/>
       </defs>
       <use xlink:href="#DejaVuSans-115"/>
       <use x="52.099609" xlink:href="#DejaVuSans-99"/>
       <use x="107.080078" xlink:href="#DejaVuSans-104"/>
       <use x="170.458984" xlink:href="#DejaVuSans-114"/>
       <use x="209.322266" xlink:href="#DejaVuSans-101"/>
       <use x="270.845703" xlink:href="#DejaVuSans-105"/>
       <use x="298.628906" xlink:href="#DejaVuSans-98"/>
       <use x="362.105469" xlink:href="#DejaVuSans-101"/>
       <use x="423.628906" xlink:href="#DejaVuSans-114"/>
       <use x="464.742188" xlink:href="#DejaVuSans-50"/>
       <use x="528.365234" xlink:href="#DejaVuSans-48"/>
       <use x="591.988281" xlink:href="#DejaVuSans-49"/>
       <use x="655.611328" xlink:href="#DejaVuSans-55"/>
       <use x="719.234375" xlink:href="#DejaVuSans-47"/>
       <use x="752.925781" xlink:href="#DejaVuSans-109"/>
       <use x="850.337891" xlink:href="#DejaVuSans-105"/>
       <use x="878.121094" xlink:href="#DejaVuSans-114"/>
       <use x="916.984375" xlink:href="#DejaVuSans-101"/>
       <use x="976.757812" xlink:href="#DejaVuSans-120"/>
       <use x="1035.9375" xlink:href="#DejaVuSans-50"/>
       <use x="1099.560547" xlink:href="#DejaVuSans-48"/>
       <use x="1163.183594" xlink:href="#DejaVuSans-49"/>
       <use x="1226.806641" xlink:href="#DejaVuSans-55"/>
      </g>
     </g>
    </g>
    <g id="ytick_2">
     <g id="line2d_15">
      <path clip-path="url(#pa2b0ea43f1)" d="M 226.746875 254.52467 
L 617.346875 254.52467 
" style="fill:none;stroke:#b0b0b0;stroke-linecap:square;stroke-width:0.8;"/>
     </g>
     <g id="line2d_16">
      <g>
       <use style="stroke:#000000;stroke-width:0.8;" x="226.746875" xlink:href="#mba61cf9935" y="254.52467"/>
      </g>
     </g>
     <g id="text_9">
      <!-- schreiber2017/ismir2017 -->
      <g transform="translate(94.385937 258.323889)scale(0.1 -0.1)">
       <use xlink:href="#DejaVuSans-115"/>
       <use x="52.099609" xlink:href="#DejaVuSans-99"/>
       <use x="107.080078" xlink:href="#DejaVuSans-104"/>
       <use x="170.458984" xlink:href="#DejaVuSans-114"/>
       <use x="209.322266" xlink:href="#DejaVuSans-101"/>
       <use x="270.845703" xlink:href="#DejaVuSans-105"/>
       <use x="298.628906" xlink:href="#DejaVuSans-98"/>
       <use x="362.105469" xlink:href="#DejaVuSans-101"/>
       <use x="423.628906" xlink:href="#DejaVuSans-114"/>
       <use x="464.742188" xlink:href="#DejaVuSans-50"/>
       <use x="528.365234" xlink:href="#DejaVuSans-48"/>
       <use x="591.988281" xlink:href="#DejaVuSans-49"/>
       <use x="655.611328" xlink:href="#DejaVuSans-55"/>
       <use x="719.234375" xlink:href="#DejaVuSans-47"/>
       <use x="752.925781" xlink:href="#DejaVuSans-105"/>
       <use x="780.708984" xlink:href="#DejaVuSans-115"/>
       <use x="832.808594" xlink:href="#DejaVuSans-109"/>
       <use x="930.220703" xlink:href="#DejaVuSans-105"/>
       <use x="958.003906" xlink:href="#DejaVuSans-114"/>
       <use x="999.117188" xlink:href="#DejaVuSans-50"/>
       <use x="1062.740234" xlink:href="#DejaVuSans-48"/>
       <use x="1126.363281" xlink:href="#DejaVuSans-49"/>
       <use x="1189.986328" xlink:href="#DejaVuSans-55"/>
      </g>
     </g>
    </g>
    <g id="ytick_3">
     <g id="line2d_17">
      <path clip-path="url(#pa2b0ea43f1)" d="M 226.746875 203.208307 
L 617.346875 203.208307 
" style="fill:none;stroke:#b0b0b0;stroke-linecap:square;stroke-width:0.8;"/>
     </g>
     <g id="line2d_18">
      <g>
       <use style="stroke:#000000;stroke-width:0.8;" x="226.746875" xlink:href="#mba61cf9935" y="203.208307"/>
      </g>
     </g>
     <g id="text_10">
      <!-- schreiber2014/default -->
      <g transform="translate(109.267187 207.007526)scale(0.1 -0.1)">
       <defs>
        <path d="M 45.40625 46.390625 
L 45.40625 75.984375 
L 54.390625 75.984375 
L 54.390625 0 
L 45.40625 0 
L 45.40625 8.203125 
Q 42.578125 3.328125 38.25 0.953125 
Q 33.9375 -1.421875 27.875 -1.421875 
Q 17.96875 -1.421875 11.734375 6.484375 
Q 5.515625 14.40625 5.515625 27.296875 
Q 5.515625 40.1875 11.734375 48.09375 
Q 17.96875 56 27.875 56 
Q 33.9375 56 38.25 53.625 
Q 42.578125 51.265625 45.40625 46.390625 
z
M 14.796875 27.296875 
Q 14.796875 17.390625 18.875 11.75 
Q 22.953125 6.109375 30.078125 6.109375 
Q 37.203125 6.109375 41.296875 11.75 
Q 45.40625 17.390625 45.40625 27.296875 
Q 45.40625 37.203125 41.296875 42.84375 
Q 37.203125 48.484375 30.078125 48.484375 
Q 22.953125 48.484375 18.875 42.84375 
Q 14.796875 37.203125 14.796875 27.296875 
z
" id="DejaVuSans-100"/>
        <path d="M 37.109375 75.984375 
L 37.109375 68.5 
L 28.515625 68.5 
Q 23.6875 68.5 21.796875 66.546875 
Q 19.921875 64.59375 19.921875 59.515625 
L 19.921875 54.6875 
L 34.71875 54.6875 
L 34.71875 47.703125 
L 19.921875 47.703125 
L 19.921875 0 
L 10.890625 0 
L 10.890625 47.703125 
L 2.296875 47.703125 
L 2.296875 54.6875 
L 10.890625 54.6875 
L 10.890625 58.5 
Q 10.890625 67.625 15.140625 71.796875 
Q 19.390625 75.984375 28.609375 75.984375 
z
" id="DejaVuSans-102"/>
        <path d="M 34.28125 27.484375 
Q 23.390625 27.484375 19.1875 25 
Q 14.984375 22.515625 14.984375 16.5 
Q 14.984375 11.71875 18.140625 8.90625 
Q 21.296875 6.109375 26.703125 6.109375 
Q 34.1875 6.109375 38.703125 11.40625 
Q 43.21875 16.703125 43.21875 25.484375 
L 43.21875 27.484375 
z
M 52.203125 31.203125 
L 52.203125 0 
L 43.21875 0 
L 43.21875 8.296875 
Q 40.140625 3.328125 35.546875 0.953125 
Q 30.953125 -1.421875 24.3125 -1.421875 
Q 15.921875 -1.421875 10.953125 3.296875 
Q 6 8.015625 6 15.921875 
Q 6 25.140625 12.171875 29.828125 
Q 18.359375 34.515625 30.609375 34.515625 
L 43.21875 34.515625 
L 43.21875 35.40625 
Q 43.21875 41.609375 39.140625 45 
Q 35.0625 48.390625 27.6875 48.390625 
Q 23 48.390625 18.546875 47.265625 
Q 14.109375 46.140625 10.015625 43.890625 
L 10.015625 52.203125 
Q 14.9375 54.109375 19.578125 55.046875 
Q 24.21875 56 28.609375 56 
Q 40.484375 56 46.34375 49.84375 
Q 52.203125 43.703125 52.203125 31.203125 
z
" id="DejaVuSans-97"/>
        <path d="M 8.5 21.578125 
L 8.5 54.6875 
L 17.484375 54.6875 
L 17.484375 21.921875 
Q 17.484375 14.15625 20.5 10.265625 
Q 23.53125 6.390625 29.59375 6.390625 
Q 36.859375 6.390625 41.078125 11.03125 
Q 45.3125 15.671875 45.3125 23.6875 
L 45.3125 54.6875 
L 54.296875 54.6875 
L 54.296875 0 
L 45.3125 0 
L 45.3125 8.40625 
Q 42.046875 3.421875 37.71875 1 
Q 33.40625 -1.421875 27.6875 -1.421875 
Q 18.265625 -1.421875 13.375 4.4375 
Q 8.5 10.296875 8.5 21.578125 
z
M 31.109375 56 
z
" id="DejaVuSans-117"/>
        <path d="M 9.421875 75.984375 
L 18.40625 75.984375 
L 18.40625 0 
L 9.421875 0 
z
" id="DejaVuSans-108"/>
        <path d="M 18.3125 70.21875 
L 18.3125 54.6875 
L 36.8125 54.6875 
L 36.8125 47.703125 
L 18.3125 47.703125 
L 18.3125 18.015625 
Q 18.3125 11.328125 20.140625 9.421875 
Q 21.96875 7.515625 27.59375 7.515625 
L 36.8125 7.515625 
L 36.8125 0 
L 27.59375 0 
Q 17.1875 0 13.234375 3.875 
Q 9.28125 7.765625 9.28125 18.015625 
L 9.28125 47.703125 
L 2.6875 47.703125 
L 2.6875 54.6875 
L 9.28125 54.6875 
L 9.28125 70.21875 
z
" id="DejaVuSans-116"/>
       </defs>
       <use xlink:href="#DejaVuSans-115"/>
       <use x="52.099609" xlink:href="#DejaVuSans-99"/>
       <use x="107.080078" xlink:href="#DejaVuSans-104"/>
       <use x="170.458984" xlink:href="#DejaVuSans-114"/>
       <use x="209.322266" xlink:href="#DejaVuSans-101"/>
       <use x="270.845703" xlink:href="#DejaVuSans-105"/>
       <use x="298.628906" xlink:href="#DejaVuSans-98"/>
       <use x="362.105469" xlink:href="#DejaVuSans-101"/>
       <use x="423.628906" xlink:href="#DejaVuSans-114"/>
       <use x="464.742188" xlink:href="#DejaVuSans-50"/>
       <use x="528.365234" xlink:href="#DejaVuSans-48"/>
       <use x="591.988281" xlink:href="#DejaVuSans-49"/>
       <use x="655.611328" xlink:href="#DejaVuSans-52"/>
       <use x="719.234375" xlink:href="#DejaVuSans-47"/>
       <use x="752.925781" xlink:href="#DejaVuSans-100"/>
       <use x="816.402344" xlink:href="#DejaVuSans-101"/>
       <use x="877.925781" xlink:href="#DejaVuSans-102"/>
       <use x="913.130859" xlink:href="#DejaVuSans-97"/>
       <use x="974.410156" xlink:href="#DejaVuSans-117"/>
       <use x="1037.789062" xlink:href="#DejaVuSans-108"/>
       <use x="1065.572266" xlink:href="#DejaVuSans-116"/>
      </g>
     </g>
    </g>
    <g id="ytick_4">
     <g id="line2d_19">
      <path clip-path="url(#pa2b0ea43f1)" d="M 226.746875 151.891943 
L 617.346875 151.891943 
" style="fill:none;stroke:#b0b0b0;stroke-linecap:square;stroke-width:0.8;"/>
     </g>
     <g id="line2d_20">
      <g>
       <use style="stroke:#000000;stroke-width:0.8;" x="226.746875" xlink:href="#mba61cf9935" y="151.891943"/>
      </g>
     </g>
     <g id="text_11">
      <!-- percival2014/stem -->
      <g transform="translate(126.415625 155.691162)scale(0.1 -0.1)">
       <defs>
        <path d="M 18.109375 8.203125 
L 18.109375 -20.796875 
L 9.078125 -20.796875 
L 9.078125 54.6875 
L 18.109375 54.6875 
L 18.109375 46.390625 
Q 20.953125 51.265625 25.265625 53.625 
Q 29.59375 56 35.59375 56 
Q 45.5625 56 51.78125 48.09375 
Q 58.015625 40.1875 58.015625 27.296875 
Q 58.015625 14.40625 51.78125 6.484375 
Q 45.5625 -1.421875 35.59375 -1.421875 
Q 29.59375 -1.421875 25.265625 0.953125 
Q 20.953125 3.328125 18.109375 8.203125 
z
M 48.6875 27.296875 
Q 48.6875 37.203125 44.609375 42.84375 
Q 40.53125 48.484375 33.40625 48.484375 
Q 26.265625 48.484375 22.1875 42.84375 
Q 18.109375 37.203125 18.109375 27.296875 
Q 18.109375 17.390625 22.1875 11.75 
Q 26.265625 6.109375 33.40625 6.109375 
Q 40.53125 6.109375 44.609375 11.75 
Q 48.6875 17.390625 48.6875 27.296875 
z
" id="DejaVuSans-112"/>
        <path d="M 2.984375 54.6875 
L 12.5 54.6875 
L 29.59375 8.796875 
L 46.6875 54.6875 
L 56.203125 54.6875 
L 35.6875 0 
L 23.484375 0 
z
" id="DejaVuSans-118"/>
       </defs>
       <use xlink:href="#DejaVuSans-112"/>
       <use x="63.476562" xlink:href="#DejaVuSans-101"/>
       <use x="125" xlink:href="#DejaVuSans-114"/>
       <use x="163.863281" xlink:href="#DejaVuSans-99"/>
       <use x="218.84375" xlink:href="#DejaVuSans-105"/>
       <use x="246.626953" xlink:href="#DejaVuSans-118"/>
       <use x="305.806641" xlink:href="#DejaVuSans-97"/>
       <use x="367.085938" xlink:href="#DejaVuSans-108"/>
       <use x="394.869141" xlink:href="#DejaVuSans-50"/>
       <use x="458.492188" xlink:href="#DejaVuSans-48"/>
       <use x="522.115234" xlink:href="#DejaVuSans-49"/>
       <use x="585.738281" xlink:href="#DejaVuSans-52"/>
       <use x="649.361328" xlink:href="#DejaVuSans-47"/>
       <use x="683.052734" xlink:href="#DejaVuSans-115"/>
       <use x="735.152344" xlink:href="#DejaVuSans-116"/>
       <use x="774.361328" xlink:href="#DejaVuSans-101"/>
       <use x="835.884766" xlink:href="#DejaVuSans-109"/>
      </g>
     </g>
    </g>
    <g id="ytick_5">
     <g id="line2d_21">
      <path clip-path="url(#pa2b0ea43f1)" d="M 226.746875 100.57558 
L 617.346875 100.57558 
" style="fill:none;stroke:#b0b0b0;stroke-linecap:square;stroke-width:0.8;"/>
     </g>
     <g id="line2d_22">
      <g>
       <use style="stroke:#000000;stroke-width:0.8;" x="226.746875" xlink:href="#mba61cf9935" y="100.57558"/>
      </g>
     </g>
     <g id="text_12">
      <!-- davies2009/mirex_qm_tempotracker -->
      <g transform="translate(36.370312 104.374798)scale(0.1 -0.1)">
       <defs>
        <path d="M 10.984375 1.515625 
L 10.984375 10.5 
Q 14.703125 8.734375 18.5 7.8125 
Q 22.3125 6.890625 25.984375 6.890625 
Q 35.75 6.890625 40.890625 13.453125 
Q 46.046875 20.015625 46.78125 33.40625 
Q 43.953125 29.203125 39.59375 26.953125 
Q 35.25 24.703125 29.984375 24.703125 
Q 19.046875 24.703125 12.671875 31.3125 
Q 6.296875 37.9375 6.296875 49.421875 
Q 6.296875 60.640625 12.9375 67.421875 
Q 19.578125 74.21875 30.609375 74.21875 
Q 43.265625 74.21875 49.921875 64.515625 
Q 56.59375 54.828125 56.59375 36.375 
Q 56.59375 19.140625 48.40625 8.859375 
Q 40.234375 -1.421875 26.421875 -1.421875 
Q 22.703125 -1.421875 18.890625 -0.6875 
Q 15.09375 0.046875 10.984375 1.515625 
z
M 30.609375 32.421875 
Q 37.25 32.421875 41.125 36.953125 
Q 45.015625 41.5 45.015625 49.421875 
Q 45.015625 57.28125 41.125 61.84375 
Q 37.25 66.40625 30.609375 66.40625 
Q 23.96875 66.40625 20.09375 61.84375 
Q 16.21875 57.28125 16.21875 49.421875 
Q 16.21875 41.5 20.09375 36.953125 
Q 23.96875 32.421875 30.609375 32.421875 
z
" id="DejaVuSans-57"/>
        <path d="M 50.984375 -16.609375 
L 50.984375 -23.578125 
L -0.984375 -23.578125 
L -0.984375 -16.609375 
z
" id="DejaVuSans-95"/>
        <path d="M 14.796875 27.296875 
Q 14.796875 17.390625 18.875 11.75 
Q 22.953125 6.109375 30.078125 6.109375 
Q 37.203125 6.109375 41.296875 11.75 
Q 45.40625 17.390625 45.40625 27.296875 
Q 45.40625 37.203125 41.296875 42.84375 
Q 37.203125 48.484375 30.078125 48.484375 
Q 22.953125 48.484375 18.875 42.84375 
Q 14.796875 37.203125 14.796875 27.296875 
z
M 45.40625 8.203125 
Q 42.578125 3.328125 38.25 0.953125 
Q 33.9375 -1.421875 27.875 -1.421875 
Q 17.96875 -1.421875 11.734375 6.484375 
Q 5.515625 14.40625 5.515625 27.296875 
Q 5.515625 40.1875 11.734375 48.09375 
Q 17.96875 56 27.875 56 
Q 33.9375 56 38.25 53.625 
Q 42.578125 51.265625 45.40625 46.390625 
L 45.40625 54.6875 
L 54.390625 54.6875 
L 54.390625 -20.796875 
L 45.40625 -20.796875 
z
" id="DejaVuSans-113"/>
        <path d="M 30.609375 48.390625 
Q 23.390625 48.390625 19.1875 42.75 
Q 14.984375 37.109375 14.984375 27.296875 
Q 14.984375 17.484375 19.15625 11.84375 
Q 23.34375 6.203125 30.609375 6.203125 
Q 37.796875 6.203125 41.984375 11.859375 
Q 46.1875 17.53125 46.1875 27.296875 
Q 46.1875 37.015625 41.984375 42.703125 
Q 37.796875 48.390625 30.609375 48.390625 
z
M 30.609375 56 
Q 42.328125 56 49.015625 48.375 
Q 55.71875 40.765625 55.71875 27.296875 
Q 55.71875 13.875 49.015625 6.21875 
Q 42.328125 -1.421875 30.609375 -1.421875 
Q 18.84375 -1.421875 12.171875 6.21875 
Q 5.515625 13.875 5.515625 27.296875 
Q 5.515625 40.765625 12.171875 48.375 
Q 18.84375 56 30.609375 56 
z
" id="DejaVuSans-111"/>
        <path d="M 9.078125 75.984375 
L 18.109375 75.984375 
L 18.109375 31.109375 
L 44.921875 54.6875 
L 56.390625 54.6875 
L 27.390625 29.109375 
L 57.625 0 
L 45.90625 0 
L 18.109375 26.703125 
L 18.109375 0 
L 9.078125 0 
z
" id="DejaVuSans-107"/>
       </defs>
       <use xlink:href="#DejaVuSans-100"/>
       <use x="63.476562" xlink:href="#DejaVuSans-97"/>
       <use x="124.755859" xlink:href="#DejaVuSans-118"/>
       <use x="183.935547" xlink:href="#DejaVuSans-105"/>
       <use x="211.71875" xlink:href="#DejaVuSans-101"/>
       <use x="273.242188" xlink:href="#DejaVuSans-115"/>
       <use x="325.341797" xlink:href="#DejaVuSans-50"/>
       <use x="388.964844" xlink:href="#DejaVuSans-48"/>
       <use x="452.587891" xlink:href="#DejaVuSans-48"/>
       <use x="516.210938" xlink:href="#DejaVuSans-57"/>
       <use x="579.833984" xlink:href="#DejaVuSans-47"/>
       <use x="613.525391" xlink:href="#DejaVuSans-109"/>
       <use x="710.9375" xlink:href="#DejaVuSans-105"/>
       <use x="738.720703" xlink:href="#DejaVuSans-114"/>
       <use x="777.583984" xlink:href="#DejaVuSans-101"/>
       <use x="837.357422" xlink:href="#DejaVuSans-120"/>
       <use x="896.537109" xlink:href="#DejaVuSans-95"/>
       <use x="946.537109" xlink:href="#DejaVuSans-113"/>
       <use x="1010.013672" xlink:href="#DejaVuSans-109"/>
       <use x="1107.425781" xlink:href="#DejaVuSans-95"/>
       <use x="1157.425781" xlink:href="#DejaVuSans-116"/>
       <use x="1196.634766" xlink:href="#DejaVuSans-101"/>
       <use x="1258.158203" xlink:href="#DejaVuSans-109"/>
       <use x="1355.570312" xlink:href="#DejaVuSans-112"/>
       <use x="1419.046875" xlink:href="#DejaVuSans-111"/>
       <use x="1480.228516" xlink:href="#DejaVuSans-116"/>
       <use x="1519.4375" xlink:href="#DejaVuSans-114"/>
       <use x="1560.550781" xlink:href="#DejaVuSans-97"/>
       <use x="1621.830078" xlink:href="#DejaVuSans-99"/>
       <use x="1676.810547" xlink:href="#DejaVuSans-107"/>
       <use x="1731.095703" xlink:href="#DejaVuSans-101"/>
       <use x="1792.619141" xlink:href="#DejaVuSans-114"/>
      </g>
     </g>
    </g>
    <g id="ytick_6">
     <g id="line2d_23">
      <path clip-path="url(#pa2b0ea43f1)" d="M 226.746875 49.259216 
L 617.346875 49.259216 
" style="fill:none;stroke:#b0b0b0;stroke-linecap:square;stroke-width:0.8;"/>
     </g>
     <g id="line2d_24">
      <g>
       <use style="stroke:#000000;stroke-width:0.8;" x="226.746875" xlink:href="#mba61cf9935" y="49.259216"/>
      </g>
     </g>
     <g id="text_13">
      <!-- boeck2015/tempodetector2016_default -->
      <g transform="translate(20.878125 53.058435)scale(0.1 -0.1)">
       <defs>
        <path d="M 10.796875 72.90625 
L 49.515625 72.90625 
L 49.515625 64.59375 
L 19.828125 64.59375 
L 19.828125 46.734375 
Q 21.96875 47.46875 24.109375 47.828125 
Q 26.265625 48.1875 28.421875 48.1875 
Q 40.625 48.1875 47.75 41.5 
Q 54.890625 34.8125 54.890625 23.390625 
Q 54.890625 11.625 47.5625 5.09375 
Q 40.234375 -1.421875 26.90625 -1.421875 
Q 22.3125 -1.421875 17.546875 -0.640625 
Q 12.796875 0.140625 7.71875 1.703125 
L 7.71875 11.625 
Q 12.109375 9.234375 16.796875 8.0625 
Q 21.484375 6.890625 26.703125 6.890625 
Q 35.15625 6.890625 40.078125 11.328125 
Q 45.015625 15.765625 45.015625 23.390625 
Q 45.015625 31 40.078125 35.4375 
Q 35.15625 39.890625 26.703125 39.890625 
Q 22.75 39.890625 18.8125 39.015625 
Q 14.890625 38.140625 10.796875 36.28125 
z
" id="DejaVuSans-53"/>
       </defs>
       <use xlink:href="#DejaVuSans-98"/>
       <use x="63.476562" xlink:href="#DejaVuSans-111"/>
       <use x="124.658203" xlink:href="#DejaVuSans-101"/>
       <use x="186.181641" xlink:href="#DejaVuSans-99"/>
       <use x="241.162109" xlink:href="#DejaVuSans-107"/>
       <use x="299.072266" xlink:href="#DejaVuSans-50"/>
       <use x="362.695312" xlink:href="#DejaVuSans-48"/>
       <use x="426.318359" xlink:href="#DejaVuSans-49"/>
       <use x="489.941406" xlink:href="#DejaVuSans-53"/>
       <use x="553.564453" xlink:href="#DejaVuSans-47"/>
       <use x="587.255859" xlink:href="#DejaVuSans-116"/>
       <use x="626.464844" xlink:href="#DejaVuSans-101"/>
       <use x="687.988281" xlink:href="#DejaVuSans-109"/>
       <use x="785.400391" xlink:href="#DejaVuSans-112"/>
       <use x="848.876953" xlink:href="#DejaVuSans-111"/>
       <use x="910.058594" xlink:href="#DejaVuSans-100"/>
       <use x="973.535156" xlink:href="#DejaVuSans-101"/>
       <use x="1035.058594" xlink:href="#DejaVuSans-116"/>
       <use x="1074.267578" xlink:href="#DejaVuSans-101"/>
       <use x="1135.791016" xlink:href="#DejaVuSans-99"/>
       <use x="1190.771484" xlink:href="#DejaVuSans-116"/>
       <use x="1229.980469" xlink:href="#DejaVuSans-111"/>
       <use x="1291.162109" xlink:href="#DejaVuSans-114"/>
       <use x="1332.275391" xlink:href="#DejaVuSans-50"/>
       <use x="1395.898438" xlink:href="#DejaVuSans-48"/>
       <use x="1459.521484" xlink:href="#DejaVuSans-49"/>
       <use x="1523.144531" xlink:href="#DejaVuSans-54"/>
       <use x="1586.767578" xlink:href="#DejaVuSans-95"/>
       <use x="1636.767578" xlink:href="#DejaVuSans-100"/>
       <use x="1700.244141" xlink:href="#DejaVuSans-101"/>
       <use x="1761.767578" xlink:href="#DejaVuSans-102"/>
       <use x="1796.972656" xlink:href="#DejaVuSans-97"/>
       <use x="1858.251953" xlink:href="#DejaVuSans-117"/>
       <use x="1921.630859" xlink:href="#DejaVuSans-108"/>
       <use x="1949.414062" xlink:href="#DejaVuSans-116"/>
      </g>
     </g>
    </g>
    <g id="text_14">
     <!-- Estimator -->
     <g transform="translate(14.798437 201.672781)rotate(-90)scale(0.1 -0.1)">
      <use xlink:href="#DejaVuSans-69"/>
      <use x="63.183594" xlink:href="#DejaVuSans-115"/>
      <use x="115.283203" xlink:href="#DejaVuSans-116"/>
      <use x="154.492188" xlink:href="#DejaVuSans-105"/>
      <use x="182.275391" xlink:href="#DejaVuSans-109"/>
      <use x="279.6875" xlink:href="#DejaVuSans-97"/>
      <use x="340.966797" xlink:href="#DejaVuSans-116"/>
      <use x="380.175781" xlink:href="#DejaVuSans-111"/>
      <use x="441.357422" xlink:href="#DejaVuSans-114"/>
     </g>
    </g>
   </g>
   <g id="PolyCollection_1">
    <path clip-path="url(#pa2b0ea43f1)" d="M 226.746951 293.011943 
L 226.746951 318.670125 
L 228.348 316.498514 
L 229.949049 311.294856 
L 231.550098 307.718798 
L 233.151147 306.453456 
L 234.752197 306.185613 
L 236.353246 306.154344 
L 237.954295 306.174004 
L 239.555344 306.217419 
L 241.156393 306.276005 
L 242.757443 306.308211 
L 244.358492 306.275934 
L 245.959541 306.233227 
L 247.56059 306.25124 
L 249.161639 306.287577 
L 250.762689 306.256635 
L 252.363738 306.169336 
L 253.964787 306.090585 
L 255.565836 306.043736 
L 257.166886 306.021174 
L 258.767935 306.02621 
L 260.368984 306.133768 
L 261.970033 306.559662 
L 263.571082 307.447563 
L 265.172132 308.274451 
L 266.773181 308.152886 
L 268.37423 307.211769 
L 269.975279 306.379268 
L 271.576328 306.021881 
L 273.177378 305.931142 
L 274.778427 305.911115 
L 276.379476 305.900913 
L 277.980525 305.894059 
L 279.581574 305.893071 
L 281.182624 305.895338 
L 282.783673 305.896858 
L 284.384722 305.899297 
L 285.985771 305.903631 
L 287.58682 305.904358 
L 289.18787 305.897052 
L 290.788919 305.886585 
L 292.389968 305.881449 
L 293.991017 305.882095 
L 295.592066 305.881981 
L 297.193116 305.877444 
L 298.794165 305.871739 
L 300.395214 305.869658 
L 301.996263 305.870212 
L 303.597312 305.86855 
L 305.198362 305.863619 
L 306.799411 305.857534 
L 308.40046 305.851911 
L 310.001509 305.84844 
L 311.602558 305.848203 
L 313.203608 305.84995 
L 314.804657 305.851174 
L 316.405706 305.85094 
L 318.006755 305.850192 
L 319.607804 305.849485 
L 321.208854 305.848855 
L 322.809903 305.848891 
L 324.410952 305.849649 
L 326.012001 305.85 
L 327.61305 305.849409 
L 329.2141 305.848913 
L 330.815149 305.849498 
L 332.416198 305.850862 
L 334.017247 305.851984 
L 335.618296 305.851913 
L 337.219346 305.850701 
L 338.820395 305.849615 
L 340.421444 305.849045 
L 342.022493 305.847707 
L 343.623543 305.845185 
L 345.224592 305.842806 
L 346.825641 305.841543 
L 348.42669 305.841183 
L 350.027739 305.841336 
L 351.628789 305.841947 
L 353.229838 305.842785 
L 354.830887 305.843137 
L 356.431936 305.842743 
L 358.032985 305.842223 
L 359.634035 305.841943 
L 361.235084 305.841664 
L 362.836133 305.84133 
L 364.437182 305.841119 
L 366.038231 305.841049 
L 367.639281 305.841036 
L 369.24033 305.841034 
L 370.841379 305.841034 
L 372.442428 305.841034 
L 374.043477 305.841034 
L 375.644527 305.841034 
L 377.245576 305.841035 
L 378.846625 305.841045 
L 380.447674 305.841102 
L 382.048723 305.841286 
L 383.649773 305.841588 
L 385.250822 305.841754 
L 385.250822 305.840314 
L 385.250822 305.840314 
L 383.649773 305.840481 
L 382.048723 305.840783 
L 380.447674 305.840967 
L 378.846625 305.841023 
L 377.245576 305.841033 
L 375.644527 305.841034 
L 374.043477 305.841034 
L 372.442428 305.841034 
L 370.841379 305.841034 
L 369.24033 305.841034 
L 367.639281 305.841033 
L 366.038231 305.841019 
L 364.437182 305.840949 
L 362.836133 305.840738 
L 361.235084 305.840405 
L 359.634035 305.840125 
L 358.032985 305.839845 
L 356.431936 305.839325 
L 354.830887 305.838931 
L 353.229838 305.839283 
L 351.628789 305.840121 
L 350.027739 305.840733 
L 348.42669 305.840885 
L 346.825641 305.840526 
L 345.224592 305.839262 
L 343.623543 305.836884 
L 342.022493 305.834361 
L 340.421444 305.833023 
L 338.820395 305.832454 
L 337.219346 305.831367 
L 335.618296 305.830155 
L 334.017247 305.830084 
L 332.416198 305.831206 
L 330.815149 305.832571 
L 329.2141 305.833156 
L 327.61305 305.832659 
L 326.012001 305.832068 
L 324.410952 305.832419 
L 322.809903 305.833177 
L 321.208854 305.833213 
L 319.607804 305.832583 
L 318.006755 305.831877 
L 316.405706 305.831128 
L 314.804657 305.830894 
L 313.203608 305.832118 
L 311.602558 305.833865 
L 310.001509 305.833628 
L 308.40046 305.830157 
L 306.799411 305.824534 
L 305.198362 305.818449 
L 303.597312 305.813518 
L 301.996263 305.811856 
L 300.395214 305.81241 
L 298.794165 305.810329 
L 297.193116 305.804624 
L 295.592066 305.800088 
L 293.991017 305.799973 
L 292.389968 305.800619 
L 290.788919 305.795483 
L 289.18787 305.785016 
L 287.58682 305.777711 
L 285.985771 305.778438 
L 284.384722 305.782771 
L 282.783673 305.785211 
L 281.182624 305.786731 
L 279.581574 305.788997 
L 277.980525 305.78801 
L 276.379476 305.781155 
L 274.778427 305.770953 
L 273.177378 305.750926 
L 271.576328 305.660187 
L 269.975279 305.3028 
L 268.37423 304.470299 
L 266.773181 303.529183 
L 265.172132 303.407617 
L 263.571082 304.234506 
L 261.970033 305.122406 
L 260.368984 305.5483 
L 258.767935 305.655858 
L 257.166886 305.660894 
L 255.565836 305.638333 
L 253.964787 305.591484 
L 252.363738 305.512732 
L 250.762689 305.425433 
L 249.161639 305.394491 
L 247.56059 305.430828 
L 245.959541 305.448842 
L 244.358492 305.406134 
L 242.757443 305.373857 
L 241.156393 305.406063 
L 239.555344 305.464649 
L 237.954295 305.508064 
L 236.353246 305.527724 
L 234.752197 305.496455 
L 233.151147 305.228612 
L 231.550098 303.963271 
L 229.949049 300.387212 
L 228.348 295.183554 
L 226.746951 293.011943 
z
" style="fill:#ff0000;fill-opacity:0.75;"/>
   </g>
   <g id="PolyCollection_2">
    <path clip-path="url(#pa2b0ea43f1)" d="M 226.746951 241.69558 
L 226.746951 267.353761 
L 227.953454 265.967647 
L 229.159958 261.7826 
L 230.366462 257.930499 
L 231.572966 255.862718 
L 232.77947 255.123671 
L 233.985973 254.928173 
L 235.192477 254.880101 
L 236.398981 254.866546 
L 237.605485 254.869485 
L 238.811988 254.890605 
L 240.018492 254.935541 
L 241.224996 254.998301 
L 242.4315 255.041157 
L 243.638004 255.021946 
L 244.844507 254.954739 
L 246.051011 254.903618 
L 247.257515 254.907814 
L 248.464019 254.940878 
L 249.670522 254.945725 
L 250.877026 254.89868 
L 252.08353 254.826562 
L 253.290034 254.762969 
L 254.496537 254.71684 
L 255.703041 254.684738 
L 256.909545 254.66472 
L 258.116049 254.6557 
L 259.322553 254.663657 
L 260.529056 254.728973 
L 261.73556 254.964008 
L 262.942064 255.514385 
L 264.148568 256.323507 
L 265.355071 256.927487 
L 266.561575 256.819553 
L 267.768079 256.085968 
L 268.974583 255.293372 
L 270.181087 254.816765 
L 271.38759 254.631134 
L 272.594094 254.58116 
L 273.800598 254.571615 
L 275.007102 254.569632 
L 276.213605 254.566573 
L 277.420109 254.561118 
L 278.626613 254.554694 
L 279.833117 254.549095 
L 281.039621 254.545272 
L 282.246124 254.543277 
L 283.452628 254.542754 
L 284.659132 254.543375 
L 285.865636 254.544465 
L 287.072139 254.544662 
L 288.278643 254.543017 
L 289.485147 254.540363 
L 290.691651 254.538755 
L 291.898155 254.539281 
L 293.104658 254.541057 
L 294.311162 254.542489 
L 295.517666 254.542669 
L 296.72417 254.541413 
L 297.930673 254.539149 
L 299.137177 254.536994 
L 300.343681 254.535914 
L 301.550185 254.535588 
L 302.756689 254.534702 
L 303.963192 254.532547 
L 305.169696 254.529794 
L 306.3762 254.527525 
L 307.582704 254.526196 
L 308.789207 254.525709 
L 309.995711 254.525801 
L 311.202215 254.526279 
L 312.408719 254.527115 
L 313.615223 254.528175 
L 314.821726 254.528929 
L 316.02823 254.528902 
L 317.234734 254.528303 
L 318.441238 254.527716 
L 319.647741 254.527379 
L 320.854245 254.527108 
L 322.060749 254.526756 
L 323.267253 254.526436 
L 324.473756 254.526262 
L 325.68026 254.526131 
L 326.886764 254.525928 
L 328.093268 254.525724 
L 329.299772 254.525608 
L 330.506275 254.525498 
L 331.712779 254.525327 
L 332.919283 254.525252 
L 334.125787 254.52546 
L 335.33229 254.525872 
L 336.538794 254.526185 
L 337.745298 254.526216 
L 338.951802 254.526067 
L 340.158306 254.525918 
L 341.364809 254.525839 
L 342.571313 254.525835 
L 343.777817 254.525857 
L 344.984321 254.525822 
L 346.190824 254.525658 
L 346.190824 254.523683 
L 346.190824 254.523683 
L 344.984321 254.523519 
L 343.777817 254.523484 
L 342.571313 254.523506 
L 341.364809 254.523502 
L 340.158306 254.523423 
L 338.951802 254.523273 
L 337.745298 254.523125 
L 336.538794 254.523156 
L 335.33229 254.523469 
L 334.125787 254.523881 
L 332.919283 254.524088 
L 331.712779 254.524013 
L 330.506275 254.523843 
L 329.299772 254.523732 
L 328.093268 254.523617 
L 326.886764 254.523413 
L 325.68026 254.523209 
L 324.473756 254.523079 
L 323.267253 254.522905 
L 322.060749 254.522584 
L 320.854245 254.522233 
L 319.647741 254.521962 
L 318.441238 254.521625 
L 317.234734 254.521038 
L 316.02823 254.520439 
L 314.821726 254.520412 
L 313.615223 254.521166 
L 312.408719 254.522226 
L 311.202215 254.523062 
L 309.995711 254.52354 
L 308.789207 254.523632 
L 307.582704 254.523145 
L 306.3762 254.521816 
L 305.169696 254.519546 
L 303.963192 254.516794 
L 302.756689 254.514639 
L 301.550185 254.513753 
L 300.343681 254.513427 
L 299.137177 254.512347 
L 297.930673 254.510192 
L 296.72417 254.507928 
L 295.517666 254.506672 
L 294.311162 254.506852 
L 293.104658 254.508284 
L 291.898155 254.51006 
L 290.691651 254.510586 
L 289.485147 254.508978 
L 288.278643 254.506324 
L 287.072139 254.504678 
L 285.865636 254.504876 
L 284.659132 254.505966 
L 283.452628 254.506587 
L 282.246124 254.506064 
L 281.039621 254.504069 
L 279.833117 254.500246 
L 278.626613 254.494647 
L 277.420109 254.488223 
L 276.213605 254.482768 
L 275.007102 254.479709 
L 273.800598 254.477726 
L 272.594094 254.468181 
L 271.38759 254.418207 
L 270.181087 254.232576 
L 268.974583 253.755969 
L 267.768079 252.963373 
L 266.561575 252.229788 
L 265.355071 252.121854 
L 264.148568 252.725834 
L 262.942064 253.534956 
L 261.73556 254.085333 
L 260.529056 254.320368 
L 259.322553 254.385684 
L 258.116049 254.393641 
L 256.909545 254.38462 
L 255.703041 254.364603 
L 254.496537 254.332501 
L 253.290034 254.286372 
L 252.08353 254.222779 
L 250.877026 254.150661 
L 249.670522 254.103616 
L 248.464019 254.108463 
L 247.257515 254.141527 
L 246.051011 254.145723 
L 244.844507 254.094602 
L 243.638004 254.027395 
L 242.4315 254.008184 
L 241.224996 254.05104 
L 240.018492 254.1138 
L 238.811988 254.158736 
L 237.605485 254.179856 
L 236.398981 254.182794 
L 235.192477 254.16924 
L 233.985973 254.121168 
L 232.77947 253.92567 
L 231.572966 253.186623 
L 230.366462 251.118842 
L 229.159958 247.266741 
L 227.953454 243.081694 
L 226.746951 241.69558 
z
" style="fill:#ff0000;fill-opacity:0.75;"/>
   </g>
   <g id="PolyCollection_3">
    <path clip-path="url(#pa2b0ea43f1)" d="M 226.746951 190.379216 
L 226.746951 216.037398 
L 227.531516 215.606686 
L 228.316081 213.49871 
L 229.100646 210.594881 
L 229.885211 207.859002 
L 230.669776 205.853697 
L 231.454341 204.651966 
L 232.238906 204.044189 
L 233.023471 203.775741 
L 233.808036 203.666111 
L 234.592601 203.620235 
L 235.377166 203.598188 
L 236.161731 203.586303 
L 236.946296 203.580821 
L 237.730861 203.58124 
L 238.515426 203.588744 
L 239.299991 203.60594 
L 240.084556 203.635079 
L 240.869121 203.67407 
L 241.653686 203.713139 
L 242.438251 203.736758 
L 243.222816 203.732004 
L 244.007381 203.697823 
L 244.791946 203.64733 
L 245.576511 203.600888 
L 246.361076 203.575198 
L 247.145641 203.575372 
L 247.930206 203.593264 
L 248.714771 203.612042 
L 249.499336 203.615105 
L 250.283901 203.59502 
L 251.068466 203.556657 
L 251.853031 203.512294 
L 252.637596 203.473121 
L 253.422161 203.443978 
L 254.206726 203.423823 
L 254.991291 203.409113 
L 255.775856 203.396493 
L 256.560421 203.383744 
L 257.344986 203.369932 
L 258.129551 203.355856 
L 258.914116 203.345532 
L 259.698681 203.349488 
L 260.483246 203.390512 
L 261.267811 203.509727 
L 262.052376 203.763778 
L 262.836941 204.198723 
L 263.621506 204.798378 
L 264.406071 205.439729 
L 265.190636 205.912619 
L 265.975201 206.024383 
L 266.759766 205.723432 
L 267.544331 205.135577 
L 268.328896 204.478899 
L 269.113461 203.934381 
L 269.898026 203.574559 
L 270.682591 203.378665 
L 271.467156 203.288452 
L 272.251721 203.251845 
L 273.036286 203.237501 
L 273.820851 203.231029 
L 274.605416 203.227091 
L 275.389981 203.223969 
L 276.174546 203.221114 
L 276.959111 203.218367 
L 277.743676 203.215783 
L 278.528241 203.213534 
L 279.312806 203.211789 
L 280.097371 203.210626 
L 280.881936 203.209999 
L 281.666501 203.209781 
L 282.451066 203.209821 
L 283.235631 203.210006 
L 284.020196 203.210272 
L 284.804761 203.210593 
L 285.589326 203.210959 
L 286.373891 203.211341 
L 287.158456 203.211657 
L 287.943021 203.21178 
L 288.727586 203.211624 
L 289.512151 203.21123 
L 290.296716 203.210763 
L 291.081281 203.210392 
L 291.865846 203.210167 
L 292.650411 203.210007 
L 293.434976 203.209796 
L 294.219541 203.209488 
L 295.004106 203.209129 
L 295.788671 203.208801 
L 296.573236 203.208562 
L 297.357801 203.208421 
L 298.142366 203.208353 
L 298.926931 203.208334 
L 299.711496 203.20835 
L 300.496061 203.208404 
L 301.280626 203.208507 
L 302.065191 203.208661 
L 302.849756 203.208839 
L 303.634321 203.208987 
L 304.418886 203.209044 
L 304.418886 203.207569 
L 304.418886 203.207569 
L 303.634321 203.207627 
L 302.849756 203.207775 
L 302.065191 203.207953 
L 301.280626 203.208107 
L 300.496061 203.20821 
L 299.711496 203.208264 
L 298.926931 203.208279 
L 298.142366 203.20826 
L 297.357801 203.208193 
L 296.573236 203.208051 
L 295.788671 203.207812 
L 295.004106 203.207485 
L 294.219541 203.207125 
L 293.434976 203.206818 
L 292.650411 203.206607 
L 291.865846 203.206447 
L 291.081281 203.206222 
L 290.296716 203.205851 
L 289.512151 203.205384 
L 288.727586 203.20499 
L 287.943021 203.204834 
L 287.158456 203.204957 
L 286.373891 203.205272 
L 285.589326 203.205655 
L 284.804761 203.206021 
L 284.020196 203.206342 
L 283.235631 203.206607 
L 282.451066 203.206793 
L 281.666501 203.206833 
L 280.881936 203.206614 
L 280.097371 203.205988 
L 279.312806 203.204824 
L 278.528241 203.203079 
L 277.743676 203.20083 
L 276.959111 203.198247 
L 276.174546 203.1955 
L 275.389981 203.192644 
L 274.605416 203.189522 
L 273.820851 203.185584 
L 273.036286 203.179112 
L 272.251721 203.164769 
L 271.467156 203.128162 
L 270.682591 203.037948 
L 269.898026 202.842054 
L 269.113461 202.482232 
L 268.328896 201.937715 
L 267.544331 201.281037 
L 266.759766 200.693181 
L 265.975201 200.39223 
L 265.190636 200.503994 
L 264.406071 200.976885 
L 263.621506 201.618235 
L 262.836941 202.21789 
L 262.052376 202.652836 
L 261.267811 202.906887 
L 260.483246 203.026102 
L 259.698681 203.067126 
L 258.914116 203.071081 
L 258.129551 203.060758 
L 257.344986 203.046682 
L 256.560421 203.032869 
L 255.775856 203.020121 
L 254.991291 203.0075 
L 254.206726 202.99279 
L 253.422161 202.972636 
L 252.637596 202.943493 
L 251.853031 202.90432 
L 251.068466 202.859957 
L 250.283901 202.821594 
L 249.499336 202.801509 
L 248.714771 202.804572 
L 247.930206 202.82335 
L 247.145641 202.841242 
L 246.361076 202.841415 
L 245.576511 202.815726 
L 244.791946 202.769283 
L 244.007381 202.718791 
L 243.222816 202.68461 
L 242.438251 202.679856 
L 241.653686 202.703475 
L 240.869121 202.742544 
L 240.084556 202.781535 
L 239.299991 202.810674 
L 238.515426 202.82787 
L 237.730861 202.835373 
L 236.946296 202.835792 
L 236.161731 202.830311 
L 235.377166 202.818426 
L 234.592601 202.796378 
L 233.808036 202.750503 
L 233.023471 202.640873 
L 232.238906 202.372425 
L 231.454341 201.764648 
L 230.669776 200.562916 
L 229.885211 198.557612 
L 229.100646 195.821733 
L 228.316081 192.917904 
L 227.531516 190.809928 
L 226.746951 190.379216 
z
" style="fill:#ff0000;fill-opacity:0.75;"/>
   </g>
   <g id="PolyCollection_4">
    <path clip-path="url(#pa2b0ea43f1)" d="M 226.747206 139.062852 
L 226.747206 164.721034 
L 229.805096 157.750362 
L 232.862986 152.682956 
L 235.920876 152.267018 
L 238.978766 152.266839 
L 242.036656 152.306935 
L 245.094546 152.303368 
L 248.152436 152.498819 
L 251.210326 152.44732 
L 254.268216 152.150397 
L 257.326106 152.082543 
L 260.383996 152.180593 
L 263.441886 153.657733 
L 266.499776 154.796498 
L 269.557666 152.587609 
L 272.615556 151.948613 
L 275.673446 151.916055 
L 278.731336 151.915532 
L 281.789226 151.910054 
L 284.847116 151.912048 
L 287.905006 151.942096 
L 290.962896 151.920594 
L 294.020786 151.89582 
L 297.078676 151.89317 
L 300.136566 151.89228 
L 303.194456 151.891959 
L 306.252346 151.891943 
L 309.310236 151.891943 
L 312.368126 151.891943 
L 315.426016 151.891943 
L 318.483906 151.891943 
L 321.541796 151.891943 
L 324.599686 151.891943 
L 327.657576 151.891943 
L 330.715466 151.891943 
L 333.773356 151.891943 
L 336.831246 151.891943 
L 339.889136 151.891943 
L 342.947026 151.891943 
L 346.004916 151.891943 
L 349.062806 151.891943 
L 352.120696 151.891943 
L 355.178586 151.891943 
L 358.236476 151.891943 
L 361.294366 151.891943 
L 364.352256 151.891943 
L 367.410146 151.891943 
L 370.468035 151.891943 
L 373.525925 151.891943 
L 376.583815 151.891943 
L 379.641705 151.891943 
L 382.699595 151.891943 
L 385.757485 151.891943 
L 388.815375 151.891943 
L 391.873265 151.891943 
L 394.931155 151.891943 
L 397.989045 151.891943 
L 401.046935 151.891943 
L 404.104825 151.891943 
L 407.162715 151.891943 
L 410.220605 151.891943 
L 413.278495 151.891943 
L 416.336385 151.891943 
L 419.394275 151.891943 
L 422.452165 151.891943 
L 425.510055 151.891943 
L 428.567945 151.891943 
L 431.625835 151.891943 
L 434.683725 151.891943 
L 437.741615 151.891943 
L 440.799505 151.891943 
L 443.857395 151.891943 
L 446.915285 151.891943 
L 449.973175 151.891943 
L 453.031065 151.891943 
L 456.088955 151.891943 
L 459.146845 151.891943 
L 462.204735 151.891943 
L 465.262625 151.891943 
L 468.320515 151.891943 
L 471.378405 151.891943 
L 474.436295 151.891943 
L 477.494185 151.891943 
L 480.552075 151.891943 
L 483.609965 151.891943 
L 486.667855 151.891943 
L 489.725745 151.891943 
L 492.783635 151.891943 
L 495.841525 151.891944 
L 498.899415 151.891985 
L 501.957305 151.892424 
L 505.015195 151.892609 
L 508.073085 151.89206 
L 511.130975 151.89217 
L 514.188864 151.893112 
L 517.246754 151.892988 
L 520.304644 151.892101 
L 523.362534 151.891968 
L 526.420424 151.892468 
L 529.478314 151.893456 
L 529.478314 151.89043 
L 529.478314 151.89043 
L 526.420424 151.891419 
L 523.362534 151.891918 
L 520.304644 151.891785 
L 517.246754 151.890898 
L 514.188864 151.890775 
L 511.130975 151.891717 
L 508.073085 151.891826 
L 505.015195 151.891277 
L 501.957305 151.891462 
L 498.899415 151.891901 
L 495.841525 151.891943 
L 492.783635 151.891943 
L 489.725745 151.891943 
L 486.667855 151.891943 
L 483.609965 151.891943 
L 480.552075 151.891943 
L 477.494185 151.891943 
L 474.436295 151.891943 
L 471.378405 151.891943 
L 468.320515 151.891943 
L 465.262625 151.891943 
L 462.204735 151.891943 
L 459.146845 151.891943 
L 456.088955 151.891943 
L 453.031065 151.891943 
L 449.973175 151.891943 
L 446.915285 151.891943 
L 443.857395 151.891943 
L 440.799505 151.891943 
L 437.741615 151.891943 
L 434.683725 151.891943 
L 431.625835 151.891943 
L 428.567945 151.891943 
L 425.510055 151.891943 
L 422.452165 151.891943 
L 419.394275 151.891943 
L 416.336385 151.891943 
L 413.278495 151.891943 
L 410.220605 151.891943 
L 407.162715 151.891943 
L 404.104825 151.891943 
L 401.046935 151.891943 
L 397.989045 151.891943 
L 394.931155 151.891943 
L 391.873265 151.891943 
L 388.815375 151.891943 
L 385.757485 151.891943 
L 382.699595 151.891943 
L 379.641705 151.891943 
L 376.583815 151.891943 
L 373.525925 151.891943 
L 370.468035 151.891943 
L 367.410146 151.891943 
L 364.352256 151.891943 
L 361.294366 151.891943 
L 358.236476 151.891943 
L 355.178586 151.891943 
L 352.120696 151.891943 
L 349.062806 151.891943 
L 346.004916 151.891943 
L 342.947026 151.891943 
L 339.889136 151.891943 
L 336.831246 151.891943 
L 333.773356 151.891943 
L 330.715466 151.891943 
L 327.657576 151.891943 
L 324.599686 151.891943 
L 321.541796 151.891943 
L 318.483906 151.891943 
L 315.426016 151.891943 
L 312.368126 151.891943 
L 309.310236 151.891943 
L 306.252346 151.891943 
L 303.194456 151.891927 
L 300.136566 151.891607 
L 297.078676 151.890717 
L 294.020786 151.888067 
L 290.962896 151.863292 
L 287.905006 151.84179 
L 284.847116 151.871839 
L 281.789226 151.873832 
L 278.731336 151.868354 
L 275.673446 151.867832 
L 272.615556 151.835274 
L 269.557666 151.196277 
L 266.499776 148.987388 
L 263.441886 150.126154 
L 260.383996 151.603293 
L 257.326106 151.701344 
L 254.268216 151.633489 
L 251.210326 151.336566 
L 248.152436 151.285068 
L 245.094546 151.480518 
L 242.036656 151.476952 
L 238.978766 151.517048 
L 235.920876 151.516868 
L 232.862986 151.10093 
L 229.805096 146.033524 
L 226.747206 139.062852 
z
" style="fill:#ff0000;fill-opacity:0.75;"/>
   </g>
   <g id="PolyCollection_5">
    <path clip-path="url(#pa2b0ea43f1)" d="M 226.747246 88.754872 
L 226.747246 112.396287 
L 227.522834 113.40467 
L 228.298422 112.647219 
L 229.07401 110.455591 
L 229.849598 107.650759 
L 230.625186 105.06096 
L 231.400774 103.155437 
L 232.176362 101.992081 
L 232.95195 101.388897 
L 233.727539 101.119381 
L 234.503127 101.016266 
L 235.278715 100.986445 
L 236.054303 100.987061 
L 236.829891 100.999944 
L 237.605479 101.017112 
L 238.381067 101.036659 
L 239.156655 101.0638 
L 239.932243 101.110384 
L 240.707831 101.18784 
L 241.483419 101.294818 
L 242.259007 101.408735 
L 243.034596 101.492018 
L 243.810184 101.513738 
L 244.585772 101.472112 
L 245.36136 101.398853 
L 246.136948 101.33951 
L 246.912536 101.32353 
L 247.688124 101.345849 
L 248.463712 101.372579 
L 249.2393 101.365453 
L 250.014888 101.306583 
L 250.790476 101.206411 
L 251.566065 101.092369 
L 252.341653 100.990503 
L 253.117241 100.914192 
L 253.892829 100.864161 
L 254.668417 100.834487 
L 255.444005 100.81803 
L 256.219593 100.808893 
L 256.995181 100.802984 
L 257.770769 100.798267 
L 258.546357 100.79536 
L 259.321945 100.798702 
L 260.097534 100.818632 
L 260.873122 100.874329 
L 261.64871 100.995313 
L 262.424298 101.216243 
L 263.199886 101.560004 
L 263.975474 102.011712 
L 264.751062 102.498943 
L 265.52665 102.899782 
L 266.302238 103.087728 
L 267.077826 102.993934 
L 267.853414 102.646188 
L 268.629002 102.154966 
L 269.404591 101.655635 
L 270.180179 101.247778 
L 270.955767 100.968331 
L 271.731355 100.803342 
L 272.506943 100.716948 
L 273.282531 100.674822 
L 274.058119 100.653785 
L 274.833707 100.641466 
L 275.609295 100.632601 
L 276.384883 100.625664 
L 277.160471 100.620576 
L 277.93606 100.617306 
L 278.711648 100.615256 
L 279.487236 100.613389 
L 280.262824 100.610811 
L 281.038412 100.607256 
L 281.814 100.603102 
L 282.589588 100.598987 
L 283.365176 100.595435 
L 284.140764 100.592734 
L 284.916352 100.590999 
L 285.69194 100.590203 
L 286.467528 100.590106 
L 287.243117 100.590248 
L 288.018705 100.590094 
L 288.794293 100.589289 
L 289.569881 100.5878 
L 290.345469 100.585864 
L 291.121057 100.583804 
L 291.896645 100.581869 
L 292.672233 100.580183 
L 293.447821 100.578801 
L 294.223409 100.577777 
L 294.998997 100.577182 
L 295.774586 100.577064 
L 296.550174 100.577389 
L 297.325762 100.578003 
L 298.10135 100.578658 
L 298.876938 100.579096 
L 299.652526 100.579169 
L 300.428114 100.578893 
L 301.203702 100.578411 
L 301.97929 100.577884 
L 302.754878 100.577406 
L 303.530466 100.576993 
L 303.530466 100.574166 
L 303.530466 100.574166 
L 302.754878 100.573753 
L 301.97929 100.573275 
L 301.203702 100.572748 
L 300.428114 100.572266 
L 299.652526 100.57199 
L 298.876938 100.572063 
L 298.10135 100.572501 
L 297.325762 100.573156 
L 296.550174 100.57377 
L 295.774586 100.574095 
L 294.998997 100.573977 
L 294.223409 100.573382 
L 293.447821 100.572358 
L 292.672233 100.570976 
L 291.896645 100.56929 
L 291.121057 100.567355 
L 290.345469 100.565295 
L 289.569881 100.563359 
L 288.794293 100.56187 
L 288.018705 100.561065 
L 287.243117 100.560911 
L 286.467528 100.561053 
L 285.69194 100.560956 
L 284.916352 100.56016 
L 284.140764 100.558426 
L 283.365176 100.555724 
L 282.589588 100.552172 
L 281.814 100.548057 
L 281.038412 100.543903 
L 280.262824 100.540349 
L 279.487236 100.53777 
L 278.711648 100.535903 
L 277.93606 100.533853 
L 277.160471 100.530583 
L 276.384883 100.525495 
L 275.609295 100.518558 
L 274.833707 100.509694 
L 274.058119 100.497374 
L 273.282531 100.476337 
L 272.506943 100.434211 
L 271.731355 100.347817 
L 270.955767 100.182828 
L 270.180179 99.903381 
L 269.404591 99.495524 
L 268.629002 98.996193 
L 267.853414 98.504971 
L 267.077826 98.157225 
L 266.302238 98.063431 
L 265.52665 98.251377 
L 264.751062 98.652216 
L 263.975474 99.139447 
L 263.199886 99.591155 
L 262.424298 99.934916 
L 261.64871 100.155846 
L 260.873122 100.276831 
L 260.097534 100.332528 
L 259.321945 100.352457 
L 258.546357 100.355799 
L 257.770769 100.352893 
L 256.995181 100.348175 
L 256.219593 100.342266 
L 255.444005 100.333129 
L 254.668417 100.316672 
L 253.892829 100.286998 
L 253.117241 100.236967 
L 252.341653 100.160656 
L 251.566065 100.05879 
L 250.790476 99.944749 
L 250.014888 99.844577 
L 249.2393 99.785706 
L 248.463712 99.77858 
L 247.688124 99.805311 
L 246.912536 99.827629 
L 246.136948 99.811649 
L 245.36136 99.752306 
L 244.585772 99.679047 
L 243.810184 99.637421 
L 243.034596 99.659141 
L 242.259007 99.742425 
L 241.483419 99.856341 
L 240.707831 99.963319 
L 239.932243 100.040775 
L 239.156655 100.087359 
L 238.381067 100.1145 
L 237.605479 100.134047 
L 236.829891 100.151215 
L 236.054303 100.164099 
L 235.278715 100.164714 
L 234.503127 100.134893 
L 233.727539 100.031778 
L 232.95195 99.762262 
L 232.176362 99.159078 
L 231.400774 97.995722 
L 230.625186 96.090199 
L 229.849598 93.5004 
L 229.07401 90.695568 
L 228.298422 88.503941 
L 227.522834 87.746489 
L 226.747246 88.754872 
z
" style="fill:#ff0000;fill-opacity:0.75;"/>
   </g>
   <g id="PolyCollection_6">
    <path clip-path="url(#pa2b0ea43f1)" d="M 226.746875 36.430125 
L 226.746875 62.088307 
L 227.659304 61.851378 
L 228.571733 59.738667 
L 229.484161 56.686314 
L 230.39659 53.784689 
L 231.309019 51.682799 
L 232.221448 50.460918 
L 233.133876 49.873829 
L 234.046305 49.634916 
L 234.958734 49.551996 
L 235.871163 49.531475 
L 236.783591 49.53695 
L 237.69602 49.555417 
L 238.608449 49.581256 
L 239.520878 49.610876 
L 240.433306 49.640799 
L 241.345735 49.666355 
L 242.258164 49.681715 
L 243.170593 49.682723 
L 244.083022 49.671388 
L 244.99545 49.657742 
L 245.907879 49.655567 
L 246.820308 49.673433 
L 247.732737 49.707077 
L 248.645165 49.739495 
L 249.557594 49.750304 
L 250.470023 49.728507 
L 251.382452 49.678912 
L 252.29488 49.617418 
L 253.207309 49.560274 
L 254.119738 49.516575 
L 255.032167 49.487884 
L 255.944595 49.471904 
L 256.857024 49.46617 
L 257.769453 49.47128 
L 258.681882 49.495719 
L 259.594311 49.563435 
L 260.506739 49.721005 
L 261.419168 50.03345 
L 262.331597 50.552849 
L 263.244026 51.258093 
L 264.156454 52.003704 
L 265.068883 52.543856 
L 265.981312 52.655541 
L 266.893741 52.283195 
L 267.806169 51.579443 
L 268.718598 50.802544 
L 269.631027 50.163552 
L 270.543456 49.744359 
L 271.455884 49.517964 
L 272.368313 49.414912 
L 273.280742 49.374033 
L 274.193171 49.358926 
L 275.1056 49.353225 
L 276.018028 49.350919 
L 276.930457 49.349538 
L 277.842886 49.34746 
L 278.755315 49.343818 
L 279.667743 49.338956 
L 280.580172 49.334086 
L 281.492601 49.330278 
L 282.40503 49.327832 
L 283.317458 49.326584 
L 284.229887 49.32661 
L 285.142316 49.328365 
L 286.054745 49.331901 
L 286.967173 49.335889 
L 287.879602 49.337588 
L 288.792031 49.334243 
L 289.70446 49.324949 
L 290.616888 49.311397 
L 291.529317 49.296857 
L 292.441746 49.284351 
L 293.354175 49.27543 
L 294.266604 49.270086 
L 295.179032 49.267371 
L 296.091461 49.266115 
L 297.00389 49.265402 
L 297.916319 49.264772 
L 298.828747 49.264222 
L 299.741176 49.26402 
L 300.653605 49.264449 
L 301.566034 49.265554 
L 302.478462 49.267031 
L 303.390891 49.268292 
L 304.30332 49.268708 
L 305.215749 49.267956 
L 306.128177 49.26622 
L 307.040606 49.264097 
L 307.953035 49.262237 
L 308.865464 49.261011 
L 309.777893 49.260432 
L 310.690321 49.26029 
L 311.60275 49.260348 
L 312.515179 49.26046 
L 313.427608 49.260566 
L 314.340036 49.260648 
L 315.252465 49.260679 
L 316.164894 49.260618 
L 317.077323 49.260447 
L 317.077323 49.257985 
L 317.077323 49.257985 
L 316.164894 49.257813 
L 315.252465 49.257753 
L 314.340036 49.257783 
L 313.427608 49.257866 
L 312.515179 49.257972 
L 311.60275 49.258083 
L 310.690321 49.258142 
L 309.777893 49.258 
L 308.865464 49.25742 
L 307.953035 49.256195 
L 307.040606 49.254335 
L 306.128177 49.252212 
L 305.215749 49.250476 
L 304.30332 49.249724 
L 303.390891 49.25014 
L 302.478462 49.251401 
L 301.566034 49.252878 
L 300.653605 49.253983 
L 299.741176 49.254411 
L 298.828747 49.25421 
L 297.916319 49.253659 
L 297.00389 49.25303 
L 296.091461 49.252316 
L 295.179032 49.251061 
L 294.266604 49.248346 
L 293.354175 49.243001 
L 292.441746 49.234081 
L 291.529317 49.221575 
L 290.616888 49.207035 
L 289.70446 49.193483 
L 288.792031 49.184189 
L 287.879602 49.180843 
L 286.967173 49.182543 
L 286.054745 49.186531 
L 285.142316 49.190067 
L 284.229887 49.191822 
L 283.317458 49.191848 
L 282.40503 49.1906 
L 281.492601 49.188154 
L 280.580172 49.184346 
L 279.667743 49.179476 
L 278.755315 49.174614 
L 277.842886 49.170972 
L 276.930457 49.168893 
L 276.018028 49.167513 
L 275.1056 49.165206 
L 274.193171 49.159506 
L 273.280742 49.144399 
L 272.368313 49.103519 
L 271.455884 49.000468 
L 270.543456 48.774072 
L 269.631027 48.35488 
L 268.718598 47.715888 
L 267.806169 46.938988 
L 266.893741 46.235237 
L 265.981312 45.86289 
L 265.068883 45.974576 
L 264.156454 46.514728 
L 263.244026 47.260339 
L 262.331597 47.965583 
L 261.419168 48.484982 
L 260.506739 48.797427 
L 259.594311 48.954997 
L 258.681882 49.022713 
L 257.769453 49.047151 
L 256.857024 49.052262 
L 255.944595 49.046528 
L 255.032167 49.030548 
L 254.119738 49.001857 
L 253.207309 48.958157 
L 252.29488 48.901014 
L 251.382452 48.83952 
L 250.470023 48.789925 
L 249.557594 48.768128 
L 248.645165 48.778936 
L 247.732737 48.811355 
L 246.820308 48.844999 
L 245.907879 48.862865 
L 244.99545 48.86069 
L 244.083022 48.847044 
L 243.170593 48.835709 
L 242.258164 48.836716 
L 241.345735 48.852077 
L 240.433306 48.877633 
L 239.520878 48.907555 
L 238.608449 48.937176 
L 237.69602 48.963015 
L 236.783591 48.981481 
L 235.871163 48.986957 
L 234.958734 48.966436 
L 234.046305 48.883516 
L 233.133876 48.644602 
L 232.221448 48.057514 
L 231.309019 46.835633 
L 230.39659 44.733742 
L 229.484161 41.832118 
L 228.571733 38.779765 
L 227.659304 36.667054 
L 226.746875 36.430125 
z
" style="fill:#ff0000;fill-opacity:0.75;"/>
   </g>
   <g id="LineCollection_1">
    <path clip-path="url(#pa2b0ea43f1)" d="M 235.918588 312.25558 
L 235.918588 299.426489 
" style="fill:none;stroke:#000000;stroke-width:1.5;"/>
    <path clip-path="url(#pa2b0ea43f1)" d="M 235.030298 260.939216 
L 235.030298 248.110125 
" style="fill:none;stroke:#000000;stroke-width:1.5;"/>
    <path clip-path="url(#pa2b0ea43f1)" d="M 235.236722 209.622852 
L 235.236722 196.793761 
" style="fill:none;stroke:#000000;stroke-width:1.5;"/>
    <path clip-path="url(#pa2b0ea43f1)" d="M 236.156145 158.306489 
L 236.156145 145.477398 
" style="fill:none;stroke:#000000;stroke-width:1.5;"/>
    <path clip-path="url(#pa2b0ea43f1)" d="M 236.591027 106.990125 
L 236.591027 94.161034 
" style="fill:none;stroke:#000000;stroke-width:1.5;"/>
    <path clip-path="url(#pa2b0ea43f1)" d="M 237.306256 55.673761 
L 237.306256 42.84467 
" style="fill:none;stroke:#000000;stroke-width:1.5;"/>
   </g>
   <g id="patch_3">
    <path d="M 226.746875 332.782125 
L 226.746875 22.318125 
" style="fill:none;stroke:#000000;stroke-linecap:square;stroke-linejoin:miter;stroke-width:0.8;"/>
   </g>
   <g id="patch_4">
    <path d="M 617.346875 332.782125 
L 617.346875 22.318125 
" style="fill:none;stroke:#000000;stroke-linecap:square;stroke-linejoin:miter;stroke-width:0.8;"/>
   </g>
   <g id="patch_5">
    <path d="M 226.746875 332.782125 
L 617.346875 332.782125 
" style="fill:none;stroke:#000000;stroke-linecap:square;stroke-linejoin:miter;stroke-width:0.8;"/>
   </g>
   <g id="patch_6">
    <path d="M 226.746875 22.318125 
L 617.346875 22.318125 
" style="fill:none;stroke:#000000;stroke-linecap:square;stroke-linejoin:miter;stroke-width:0.8;"/>
   </g>
   <g id="text_15">
    <!-- AOE1 for schreiber2018/ismir2018 -->
    <g transform="translate(318.435313 16.318125)scale(0.12 -0.12)">
     <use xlink:href="#DejaVuSans-65"/>
     <use x="66.658203" xlink:href="#DejaVuSans-79"/>
     <use x="145.369141" xlink:href="#DejaVuSans-69"/>
     <use x="208.552734" xlink:href="#DejaVuSans-49"/>
     <use x="272.175781" xlink:href="#DejaVuSans-32"/>
     <use x="303.962891" xlink:href="#DejaVuSans-102"/>
     <use x="339.167969" xlink:href="#DejaVuSans-111"/>
     <use x="400.349609" xlink:href="#DejaVuSans-114"/>
     <use x="441.462891" xlink:href="#DejaVuSans-32"/>
     <use x="473.25" xlink:href="#DejaVuSans-115"/>
     <use x="525.349609" xlink:href="#DejaVuSans-99"/>
     <use x="580.330078" xlink:href="#DejaVuSans-104"/>
     <use x="643.708984" xlink:href="#DejaVuSans-114"/>
     <use x="682.572266" xlink:href="#DejaVuSans-101"/>
     <use x="744.095703" xlink:href="#DejaVuSans-105"/>
     <use x="771.878906" xlink:href="#DejaVuSans-98"/>
     <use x="835.355469" xlink:href="#DejaVuSans-101"/>
     <use x="896.878906" xlink:href="#DejaVuSans-114"/>
     <use x="937.992188" xlink:href="#DejaVuSans-50"/>
     <use x="1001.615234" xlink:href="#DejaVuSans-48"/>
     <use x="1065.238281" xlink:href="#DejaVuSans-49"/>
     <use x="1128.861328" xlink:href="#DejaVuSans-56"/>
     <use x="1192.484375" xlink:href="#DejaVuSans-47"/>
     <use x="1226.175781" xlink:href="#DejaVuSans-105"/>
     <use x="1253.958984" xlink:href="#DejaVuSans-115"/>
     <use x="1306.058594" xlink:href="#DejaVuSans-109"/>
     <use x="1403.470703" xlink:href="#DejaVuSans-105"/>
     <use x="1431.253906" xlink:href="#DejaVuSans-114"/>
     <use x="1472.367188" xlink:href="#DejaVuSans-50"/>
     <use x="1535.990234" xlink:href="#DejaVuSans-48"/>
     <use x="1599.613281" xlink:href="#DejaVuSans-49"/>
     <use x="1663.236328" xlink:href="#DejaVuSans-56"/>
    </g>
   </g>
  </g>
 </g>
 <defs>
  <clipPath id="pa2b0ea43f1">
   <rect height="310.464" width="390.6" x="226.746875" y="22.318125"/>
  </clipPath>
 </defs>
</svg>
