<?xml version="1.0" encoding="utf-8" standalone="no"?>
<!DOCTYPE svg PUBLIC "-//W3C//DTD SVG 1.1//EN"
  "http://www.w3.org/Graphics/SVG/1.1/DTD/svg11.dtd">
<!-- Created with matplotlib (http://matplotlib.org/) -->
<svg height="381.426375pt" version="1.1" viewBox="0 0 630.909375 381.426375" width="630.909375pt" xmlns="http://www.w3.org/2000/svg" xmlns:xlink="http://www.w3.org/1999/xlink">
 <defs>
  <style type="text/css">
*{stroke-linecap:butt;stroke-linejoin:round;}
  </style>
 </defs>
 <g id="figure_1">
  <g id="patch_1">
   <path d="M -0 381.426375 
L 630.909375 381.426375 
L 630.909375 0 
L -0 0 
z
" style="fill:#ffffff;"/>
  </g>
  <g id="axes_1">
   <g id="patch_2">
    <path d="M 226.746875 343.870125 
L 617.346875 343.870125 
L 617.346875 22.318125 
L 226.746875 22.318125 
z
" style="fill:#ffffff;"/>
   </g>
   <g id="matplotlib.axis_1">
    <g id="xtick_1">
     <g id="line2d_1">
      <path clip-path="url(#p562092008a)" d="M 226.746875 343.870125 
L 226.746875 22.318125 
" style="fill:none;stroke:#b0b0b0;stroke-linecap:square;stroke-width:0.8;"/>
     </g>
     <g id="line2d_2">
      <defs>
       <path d="M 0 0 
L 0 3.5 
" id="m51dc6278db" style="stroke:#000000;stroke-width:0.8;"/>
      </defs>
      <g>
       <use style="stroke:#000000;stroke-width:0.8;" x="226.746875" xlink:href="#m51dc6278db" y="343.870125"/>
      </g>
     </g>
     <g id="text_1">
      <!-- 0 -->
      <defs>
       <path d="M 31.78125 66.40625 
Q 24.171875 66.40625 20.328125 58.90625 
Q 16.5 51.421875 16.5 36.375 
Q 16.5 21.390625 20.328125 13.890625 
Q 24.171875 6.390625 31.78125 6.390625 
Q 39.453125 6.390625 43.28125 13.890625 
Q 47.125 21.390625 47.125 36.375 
Q 47.125 51.421875 43.28125 58.90625 
Q 39.453125 66.40625 31.78125 66.40625 
z
M 31.78125 74.21875 
Q 44.046875 74.21875 50.515625 64.515625 
Q 56.984375 54.828125 56.984375 36.375 
Q 56.984375 17.96875 50.515625 8.265625 
Q 44.046875 -1.421875 31.78125 -1.421875 
Q 19.53125 -1.421875 13.0625 8.265625 
Q 6.59375 17.96875 6.59375 36.375 
Q 6.59375 54.828125 13.0625 64.515625 
Q 19.53125 74.21875 31.78125 74.21875 
z
" id="DejaVuSans-30"/>
      </defs>
      <g transform="translate(223.565625 358.468563)scale(0.1 -0.1)">
       <use xlink:href="#DejaVuSans-30"/>
      </g>
     </g>
    </g>
    <g id="xtick_2">
     <g id="line2d_3">
      <path clip-path="url(#p562092008a)" d="M 304.866875 343.870125 
L 304.866875 22.318125 
" style="fill:none;stroke:#b0b0b0;stroke-linecap:square;stroke-width:0.8;"/>
     </g>
     <g id="line2d_4">
      <g>
       <use style="stroke:#000000;stroke-width:0.8;" x="304.866875" xlink:href="#m51dc6278db" y="343.870125"/>
      </g>
     </g>
     <g id="text_2">
      <!-- 2 -->
      <defs>
       <path d="M 19.1875 8.296875 
L 53.609375 8.296875 
L 53.609375 0 
L 7.328125 0 
L 7.328125 8.296875 
Q 12.9375 14.109375 22.625 23.890625 
Q 32.328125 33.6875 34.8125 36.53125 
Q 39.546875 41.84375 41.421875 45.53125 
Q 43.3125 49.21875 43.3125 52.78125 
Q 43.3125 58.59375 39.234375 62.25 
Q 35.15625 65.921875 28.609375 65.921875 
Q 23.96875 65.921875 18.8125 64.3125 
Q 13.671875 62.703125 7.8125 59.421875 
L 7.8125 69.390625 
Q 13.765625 71.78125 18.9375 73 
Q 24.125 74.21875 28.421875 74.21875 
Q 39.75 74.21875 46.484375 68.546875 
Q 53.21875 62.890625 53.21875 53.421875 
Q 53.21875 48.921875 51.53125 44.890625 
Q 49.859375 40.875 45.40625 35.40625 
Q 44.1875 33.984375 37.640625 27.21875 
Q 31.109375 20.453125 19.1875 8.296875 
z
" id="DejaVuSans-32"/>
      </defs>
      <g transform="translate(301.685625 358.468563)scale(0.1 -0.1)">
       <use xlink:href="#DejaVuSans-32"/>
      </g>
     </g>
    </g>
    <g id="xtick_3">
     <g id="line2d_5">
      <path clip-path="url(#p562092008a)" d="M 382.986875 343.870125 
L 382.986875 22.318125 
" style="fill:none;stroke:#b0b0b0;stroke-linecap:square;stroke-width:0.8;"/>
     </g>
     <g id="line2d_6">
      <g>
       <use style="stroke:#000000;stroke-width:0.8;" x="382.986875" xlink:href="#m51dc6278db" y="343.870125"/>
      </g>
     </g>
     <g id="text_3">
      <!-- 4 -->
      <defs>
       <path d="M 37.796875 64.3125 
L 12.890625 25.390625 
L 37.796875 25.390625 
z
M 35.203125 72.90625 
L 47.609375 72.90625 
L 47.609375 25.390625 
L 58.015625 25.390625 
L 58.015625 17.1875 
L 47.609375 17.1875 
L 47.609375 0 
L 37.796875 0 
L 37.796875 17.1875 
L 4.890625 17.1875 
L 4.890625 26.703125 
z
" id="DejaVuSans-34"/>
      </defs>
      <g transform="translate(379.805625 358.468563)scale(0.1 -0.1)">
       <use xlink:href="#DejaVuSans-34"/>
      </g>
     </g>
    </g>
    <g id="xtick_4">
     <g id="line2d_7">
      <path clip-path="url(#p562092008a)" d="M 461.106875 343.870125 
L 461.106875 22.318125 
" style="fill:none;stroke:#b0b0b0;stroke-linecap:square;stroke-width:0.8;"/>
     </g>
     <g id="line2d_8">
      <g>
       <use style="stroke:#000000;stroke-width:0.8;" x="461.106875" xlink:href="#m51dc6278db" y="343.870125"/>
      </g>
     </g>
     <g id="text_4">
      <!-- 6 -->
      <defs>
       <path d="M 33.015625 40.375 
Q 26.375 40.375 22.484375 35.828125 
Q 18.609375 31.296875 18.609375 23.390625 
Q 18.609375 15.53125 22.484375 10.953125 
Q 26.375 6.390625 33.015625 6.390625 
Q 39.65625 6.390625 43.53125 10.953125 
Q 47.40625 15.53125 47.40625 23.390625 
Q 47.40625 31.296875 43.53125 35.828125 
Q 39.65625 40.375 33.015625 40.375 
z
M 52.59375 71.296875 
L 52.59375 62.3125 
Q 48.875 64.0625 45.09375 64.984375 
Q 41.3125 65.921875 37.59375 65.921875 
Q 27.828125 65.921875 22.671875 59.328125 
Q 17.53125 52.734375 16.796875 39.40625 
Q 19.671875 43.65625 24.015625 45.921875 
Q 28.375 48.1875 33.59375 48.1875 
Q 44.578125 48.1875 50.953125 41.515625 
Q 57.328125 34.859375 57.328125 23.390625 
Q 57.328125 12.15625 50.6875 5.359375 
Q 44.046875 -1.421875 33.015625 -1.421875 
Q 20.359375 -1.421875 13.671875 8.265625 
Q 6.984375 17.96875 6.984375 36.375 
Q 6.984375 53.65625 15.1875 63.9375 
Q 23.390625 74.21875 37.203125 74.21875 
Q 40.921875 74.21875 44.703125 73.484375 
Q 48.484375 72.75 52.59375 71.296875 
z
" id="DejaVuSans-36"/>
      </defs>
      <g transform="translate(457.925625 358.468563)scale(0.1 -0.1)">
       <use xlink:href="#DejaVuSans-36"/>
      </g>
     </g>
    </g>
    <g id="xtick_5">
     <g id="line2d_9">
      <path clip-path="url(#p562092008a)" d="M 539.226875 343.870125 
L 539.226875 22.318125 
" style="fill:none;stroke:#b0b0b0;stroke-linecap:square;stroke-width:0.8;"/>
     </g>
     <g id="line2d_10">
      <g>
       <use style="stroke:#000000;stroke-width:0.8;" x="539.226875" xlink:href="#m51dc6278db" y="343.870125"/>
      </g>
     </g>
     <g id="text_5">
      <!-- 8 -->
      <defs>
       <path d="M 31.78125 34.625 
Q 24.75 34.625 20.71875 30.859375 
Q 16.703125 27.09375 16.703125 20.515625 
Q 16.703125 13.921875 20.71875 10.15625 
Q 24.75 6.390625 31.78125 6.390625 
Q 38.8125 6.390625 42.859375 10.171875 
Q 46.921875 13.96875 46.921875 20.515625 
Q 46.921875 27.09375 42.890625 30.859375 
Q 38.875 34.625 31.78125 34.625 
z
M 21.921875 38.8125 
Q 15.578125 40.375 12.03125 44.71875 
Q 8.5 49.078125 8.5 55.328125 
Q 8.5 64.0625 14.71875 69.140625 
Q 20.953125 74.21875 31.78125 74.21875 
Q 42.671875 74.21875 48.875 69.140625 
Q 55.078125 64.0625 55.078125 55.328125 
Q 55.078125 49.078125 51.53125 44.71875 
Q 48 40.375 41.703125 38.8125 
Q 48.828125 37.15625 52.796875 32.3125 
Q 56.78125 27.484375 56.78125 20.515625 
Q 56.78125 9.90625 50.3125 4.234375 
Q 43.84375 -1.421875 31.78125 -1.421875 
Q 19.734375 -1.421875 13.25 4.234375 
Q 6.78125 9.90625 6.78125 20.515625 
Q 6.78125 27.484375 10.78125 32.3125 
Q 14.796875 37.15625 21.921875 38.8125 
z
M 18.3125 54.390625 
Q 18.3125 48.734375 21.84375 45.5625 
Q 25.390625 42.390625 31.78125 42.390625 
Q 38.140625 42.390625 41.71875 45.5625 
Q 45.3125 48.734375 45.3125 54.390625 
Q 45.3125 60.0625 41.71875 63.234375 
Q 38.140625 66.40625 31.78125 66.40625 
Q 25.390625 66.40625 21.84375 63.234375 
Q 18.3125 60.0625 18.3125 54.390625 
z
" id="DejaVuSans-38"/>
      </defs>
      <g transform="translate(536.045625 358.468563)scale(0.1 -0.1)">
       <use xlink:href="#DejaVuSans-38"/>
      </g>
     </g>
    </g>
    <g id="xtick_6">
     <g id="line2d_11">
      <path clip-path="url(#p562092008a)" d="M 617.346875 343.870125 
L 617.346875 22.318125 
" style="fill:none;stroke:#b0b0b0;stroke-linecap:square;stroke-width:0.8;"/>
     </g>
     <g id="line2d_12">
      <g>
       <use style="stroke:#000000;stroke-width:0.8;" x="617.346875" xlink:href="#m51dc6278db" y="343.870125"/>
      </g>
     </g>
     <g id="text_6">
      <!-- 10 -->
      <defs>
       <path d="M 12.40625 8.296875 
L 28.515625 8.296875 
L 28.515625 63.921875 
L 10.984375 60.40625 
L 10.984375 69.390625 
L 28.421875 72.90625 
L 38.28125 72.90625 
L 38.28125 8.296875 
L 54.390625 8.296875 
L 54.390625 0 
L 12.40625 0 
z
" id="DejaVuSans-31"/>
      </defs>
      <g transform="translate(610.984375 358.468563)scale(0.1 -0.1)">
       <use xlink:href="#DejaVuSans-31"/>
       <use x="63.623047" xlink:href="#DejaVuSans-30"/>
      </g>
     </g>
    </g>
    <g id="text_7">
     <!-- AOE2 (TO) -->
     <defs>
      <path d="M 34.1875 63.1875 
L 20.796875 26.90625 
L 47.609375 26.90625 
z
M 28.609375 72.90625 
L 39.796875 72.90625 
L 67.578125 0 
L 57.328125 0 
L 50.6875 18.703125 
L 17.828125 18.703125 
L 11.1875 0 
L 0.78125 0 
z
" id="DejaVuSans-41"/>
      <path d="M 39.40625 66.21875 
Q 28.65625 66.21875 22.328125 58.203125 
Q 16.015625 50.203125 16.015625 36.375 
Q 16.015625 22.609375 22.328125 14.59375 
Q 28.65625 6.59375 39.40625 6.59375 
Q 50.140625 6.59375 56.421875 14.59375 
Q 62.703125 22.609375 62.703125 36.375 
Q 62.703125 50.203125 56.421875 58.203125 
Q 50.140625 66.21875 39.40625 66.21875 
z
M 39.40625 74.21875 
Q 54.734375 74.21875 63.90625 63.9375 
Q 73.09375 53.65625 73.09375 36.375 
Q 73.09375 19.140625 63.90625 8.859375 
Q 54.734375 -1.421875 39.40625 -1.421875 
Q 24.03125 -1.421875 14.8125 8.828125 
Q 5.609375 19.09375 5.609375 36.375 
Q 5.609375 53.65625 14.8125 63.9375 
Q 24.03125 74.21875 39.40625 74.21875 
z
" id="DejaVuSans-4f"/>
      <path d="M 9.8125 72.90625 
L 55.90625 72.90625 
L 55.90625 64.59375 
L 19.671875 64.59375 
L 19.671875 43.015625 
L 54.390625 43.015625 
L 54.390625 34.71875 
L 19.671875 34.71875 
L 19.671875 8.296875 
L 56.78125 8.296875 
L 56.78125 0 
L 9.8125 0 
z
" id="DejaVuSans-45"/>
      <path id="DejaVuSans-20"/>
      <path d="M 31 75.875 
Q 24.46875 64.65625 21.28125 53.65625 
Q 18.109375 42.671875 18.109375 31.390625 
Q 18.109375 20.125 21.3125 9.0625 
Q 24.515625 -2 31 -13.1875 
L 23.1875 -13.1875 
Q 15.875 -1.703125 12.234375 9.375 
Q 8.59375 20.453125 8.59375 31.390625 
Q 8.59375 42.28125 12.203125 53.3125 
Q 15.828125 64.359375 23.1875 75.875 
z
" id="DejaVuSans-28"/>
      <path d="M -0.296875 72.90625 
L 61.375 72.90625 
L 61.375 64.59375 
L 35.5 64.59375 
L 35.5 0 
L 25.59375 0 
L 25.59375 64.59375 
L -0.296875 64.59375 
z
" id="DejaVuSans-54"/>
      <path d="M 8.015625 75.875 
L 15.828125 75.875 
Q 23.140625 64.359375 26.78125 53.3125 
Q 30.421875 42.28125 30.421875 31.390625 
Q 30.421875 20.453125 26.78125 9.375 
Q 23.140625 -1.703125 15.828125 -13.1875 
L 8.015625 -13.1875 
Q 14.5 -2 17.703125 9.0625 
Q 20.90625 20.125 20.90625 31.390625 
Q 20.90625 42.671875 17.703125 53.65625 
Q 14.5 64.65625 8.015625 75.875 
z
" id="DejaVuSans-29"/>
     </defs>
     <g transform="translate(395.870313 372.146687)scale(0.1 -0.1)">
      <use xlink:href="#DejaVuSans-41"/>
      <use x="68.392578" xlink:href="#DejaVuSans-4f"/>
      <use x="147.103516" xlink:href="#DejaVuSans-45"/>
      <use x="210.287109" xlink:href="#DejaVuSans-32"/>
      <use x="273.910156" xlink:href="#DejaVuSans-20"/>
      <use x="305.697266" xlink:href="#DejaVuSans-28"/>
      <use x="344.710938" xlink:href="#DejaVuSans-54"/>
      <use x="405.794922" xlink:href="#DejaVuSans-4f"/>
      <use x="484.505859" xlink:href="#DejaVuSans-29"/>
     </g>
    </g>
   </g>
   <g id="matplotlib.axis_2">
    <g id="ytick_1">
     <g id="line2d_13">
      <path clip-path="url(#p562092008a)" d="M 226.746875 319.510125 
L 617.346875 319.510125 
" style="fill:none;stroke:#b0b0b0;stroke-linecap:square;stroke-width:0.8;"/>
     </g>
     <g id="line2d_14">
      <defs>
       <path d="M 0 0 
L -3.5 0 
" id="m94b90c69c1" style="stroke:#000000;stroke-width:0.8;"/>
      </defs>
      <g>
       <use style="stroke:#000000;stroke-width:0.8;" x="226.746875" xlink:href="#m94b90c69c1" y="319.510125"/>
      </g>
     </g>
     <g id="text_8">
      <!-- schreiber2018/fcn -->
      <defs>
       <path d="M 44.28125 53.078125 
L 44.28125 44.578125 
Q 40.484375 46.53125 36.375 47.5 
Q 32.28125 48.484375 27.875 48.484375 
Q 21.1875 48.484375 17.84375 46.4375 
Q 14.5 44.390625 14.5 40.28125 
Q 14.5 37.15625 16.890625 35.375 
Q 19.28125 33.59375 26.515625 31.984375 
L 29.59375 31.296875 
Q 39.15625 29.25 43.1875 25.515625 
Q 47.21875 21.78125 47.21875 15.09375 
Q 47.21875 7.46875 41.1875 3.015625 
Q 35.15625 -1.421875 24.609375 -1.421875 
Q 20.21875 -1.421875 15.453125 -0.5625 
Q 10.6875 0.296875 5.421875 2 
L 5.421875 11.28125 
Q 10.40625 8.6875 15.234375 7.390625 
Q 20.0625 6.109375 24.8125 6.109375 
Q 31.15625 6.109375 34.5625 8.28125 
Q 37.984375 10.453125 37.984375 14.40625 
Q 37.984375 18.0625 35.515625 20.015625 
Q 33.0625 21.96875 24.703125 23.78125 
L 21.578125 24.515625 
Q 13.234375 26.265625 9.515625 29.90625 
Q 5.8125 33.546875 5.8125 39.890625 
Q 5.8125 47.609375 11.28125 51.796875 
Q 16.75 56 26.8125 56 
Q 31.78125 56 36.171875 55.265625 
Q 40.578125 54.546875 44.28125 53.078125 
z
" id="DejaVuSans-73"/>
       <path d="M 48.78125 52.59375 
L 48.78125 44.1875 
Q 44.96875 46.296875 41.140625 47.34375 
Q 37.3125 48.390625 33.40625 48.390625 
Q 24.65625 48.390625 19.8125 42.84375 
Q 14.984375 37.3125 14.984375 27.296875 
Q 14.984375 17.28125 19.8125 11.734375 
Q 24.65625 6.203125 33.40625 6.203125 
Q 37.3125 6.203125 41.140625 7.25 
Q 44.96875 8.296875 48.78125 10.40625 
L 48.78125 2.09375 
Q 45.015625 0.34375 40.984375 -0.53125 
Q 36.96875 -1.421875 32.421875 -1.421875 
Q 20.0625 -1.421875 12.78125 6.34375 
Q 5.515625 14.109375 5.515625 27.296875 
Q 5.515625 40.671875 12.859375 48.328125 
Q 20.21875 56 33.015625 56 
Q 37.15625 56 41.109375 55.140625 
Q 45.0625 54.296875 48.78125 52.59375 
z
" id="DejaVuSans-63"/>
       <path d="M 54.890625 33.015625 
L 54.890625 0 
L 45.90625 0 
L 45.90625 32.71875 
Q 45.90625 40.484375 42.875 44.328125 
Q 39.84375 48.1875 33.796875 48.1875 
Q 26.515625 48.1875 22.3125 43.546875 
Q 18.109375 38.921875 18.109375 30.90625 
L 18.109375 0 
L 9.078125 0 
L 9.078125 75.984375 
L 18.109375 75.984375 
L 18.109375 46.1875 
Q 21.34375 51.125 25.703125 53.5625 
Q 30.078125 56 35.796875 56 
Q 45.21875 56 50.046875 50.171875 
Q 54.890625 44.34375 54.890625 33.015625 
z
" id="DejaVuSans-68"/>
       <path d="M 41.109375 46.296875 
Q 39.59375 47.171875 37.8125 47.578125 
Q 36.03125 48 33.890625 48 
Q 26.265625 48 22.1875 43.046875 
Q 18.109375 38.09375 18.109375 28.8125 
L 18.109375 0 
L 9.078125 0 
L 9.078125 54.6875 
L 18.109375 54.6875 
L 18.109375 46.1875 
Q 20.953125 51.171875 25.484375 53.578125 
Q 30.03125 56 36.53125 56 
Q 37.453125 56 38.578125 55.875 
Q 39.703125 55.765625 41.0625 55.515625 
z
" id="DejaVuSans-72"/>
       <path d="M 56.203125 29.59375 
L 56.203125 25.203125 
L 14.890625 25.203125 
Q 15.484375 15.921875 20.484375 11.0625 
Q 25.484375 6.203125 34.421875 6.203125 
Q 39.59375 6.203125 44.453125 7.46875 
Q 49.3125 8.734375 54.109375 11.28125 
L 54.109375 2.78125 
Q 49.265625 0.734375 44.1875 -0.34375 
Q 39.109375 -1.421875 33.890625 -1.421875 
Q 20.796875 -1.421875 13.15625 6.1875 
Q 5.515625 13.8125 5.515625 26.8125 
Q 5.515625 40.234375 12.765625 48.109375 
Q 20.015625 56 32.328125 56 
Q 43.359375 56 49.78125 48.890625 
Q 56.203125 41.796875 56.203125 29.59375 
z
M 47.21875 32.234375 
Q 47.125 39.59375 43.09375 43.984375 
Q 39.0625 48.390625 32.421875 48.390625 
Q 24.90625 48.390625 20.390625 44.140625 
Q 15.875 39.890625 15.1875 32.171875 
z
" id="DejaVuSans-65"/>
       <path d="M 9.421875 54.6875 
L 18.40625 54.6875 
L 18.40625 0 
L 9.421875 0 
z
M 9.421875 75.984375 
L 18.40625 75.984375 
L 18.40625 64.59375 
L 9.421875 64.59375 
z
" id="DejaVuSans-69"/>
       <path d="M 48.6875 27.296875 
Q 48.6875 37.203125 44.609375 42.84375 
Q 40.53125 48.484375 33.40625 48.484375 
Q 26.265625 48.484375 22.1875 42.84375 
Q 18.109375 37.203125 18.109375 27.296875 
Q 18.109375 17.390625 22.1875 11.75 
Q 26.265625 6.109375 33.40625 6.109375 
Q 40.53125 6.109375 44.609375 11.75 
Q 48.6875 17.390625 48.6875 27.296875 
z
M 18.109375 46.390625 
Q 20.953125 51.265625 25.265625 53.625 
Q 29.59375 56 35.59375 56 
Q 45.5625 56 51.78125 48.09375 
Q 58.015625 40.1875 58.015625 27.296875 
Q 58.015625 14.40625 51.78125 6.484375 
Q 45.5625 -1.421875 35.59375 -1.421875 
Q 29.59375 -1.421875 25.265625 0.953125 
Q 20.953125 3.328125 18.109375 8.203125 
L 18.109375 0 
L 9.078125 0 
L 9.078125 75.984375 
L 18.109375 75.984375 
z
" id="DejaVuSans-62"/>
       <path d="M 25.390625 72.90625 
L 33.6875 72.90625 
L 8.296875 -9.28125 
L 0 -9.28125 
z
" id="DejaVuSans-2f"/>
       <path d="M 37.109375 75.984375 
L 37.109375 68.5 
L 28.515625 68.5 
Q 23.6875 68.5 21.796875 66.546875 
Q 19.921875 64.59375 19.921875 59.515625 
L 19.921875 54.6875 
L 34.71875 54.6875 
L 34.71875 47.703125 
L 19.921875 47.703125 
L 19.921875 0 
L 10.890625 0 
L 10.890625 47.703125 
L 2.296875 47.703125 
L 2.296875 54.6875 
L 10.890625 54.6875 
L 10.890625 58.5 
Q 10.890625 67.625 15.140625 71.796875 
Q 19.390625 75.984375 28.609375 75.984375 
z
" id="DejaVuSans-66"/>
       <path d="M 54.890625 33.015625 
L 54.890625 0 
L 45.90625 0 
L 45.90625 32.71875 
Q 45.90625 40.484375 42.875 44.328125 
Q 39.84375 48.1875 33.796875 48.1875 
Q 26.515625 48.1875 22.3125 43.546875 
Q 18.109375 38.921875 18.109375 30.90625 
L 18.109375 0 
L 9.078125 0 
L 9.078125 54.6875 
L 18.109375 54.6875 
L 18.109375 46.1875 
Q 21.34375 51.125 25.703125 53.5625 
Q 30.078125 56 35.796875 56 
Q 45.21875 56 50.046875 50.171875 
Q 54.890625 44.34375 54.890625 33.015625 
z
" id="DejaVuSans-6e"/>
      </defs>
      <g transform="translate(128.875 323.309344)scale(0.1 -0.1)">
       <use xlink:href="#DejaVuSans-73"/>
       <use x="52.099609" xlink:href="#DejaVuSans-63"/>
       <use x="107.080078" xlink:href="#DejaVuSans-68"/>
       <use x="170.458984" xlink:href="#DejaVuSans-72"/>
       <use x="211.541016" xlink:href="#DejaVuSans-65"/>
       <use x="273.064453" xlink:href="#DejaVuSans-69"/>
       <use x="300.847656" xlink:href="#DejaVuSans-62"/>
       <use x="364.324219" xlink:href="#DejaVuSans-65"/>
       <use x="425.847656" xlink:href="#DejaVuSans-72"/>
       <use x="466.960938" xlink:href="#DejaVuSans-32"/>
       <use x="530.583984" xlink:href="#DejaVuSans-30"/>
       <use x="594.207031" xlink:href="#DejaVuSans-31"/>
       <use x="657.830078" xlink:href="#DejaVuSans-38"/>
       <use x="721.453125" xlink:href="#DejaVuSans-2f"/>
       <use x="755.144531" xlink:href="#DejaVuSans-66"/>
       <use x="790.349609" xlink:href="#DejaVuSans-63"/>
       <use x="845.330078" xlink:href="#DejaVuSans-6e"/>
      </g>
     </g>
    </g>
    <g id="ytick_2">
     <g id="line2d_15">
      <path clip-path="url(#p562092008a)" d="M 226.746875 280.534125 
L 617.346875 280.534125 
" style="fill:none;stroke:#b0b0b0;stroke-linecap:square;stroke-width:0.8;"/>
     </g>
     <g id="line2d_16">
      <g>
       <use style="stroke:#000000;stroke-width:0.8;" x="226.746875" xlink:href="#m94b90c69c1" y="280.534125"/>
      </g>
     </g>
     <g id="text_9">
      <!-- schreiber2018/cnn -->
      <g transform="translate(126.057812 284.333344)scale(0.1 -0.1)">
       <use xlink:href="#DejaVuSans-73"/>
       <use x="52.099609" xlink:href="#DejaVuSans-63"/>
       <use x="107.080078" xlink:href="#DejaVuSans-68"/>
       <use x="170.458984" xlink:href="#DejaVuSans-72"/>
       <use x="211.541016" xlink:href="#DejaVuSans-65"/>
       <use x="273.064453" xlink:href="#DejaVuSans-69"/>
       <use x="300.847656" xlink:href="#DejaVuSans-62"/>
       <use x="364.324219" xlink:href="#DejaVuSans-65"/>
       <use x="425.847656" xlink:href="#DejaVuSans-72"/>
       <use x="466.960938" xlink:href="#DejaVuSans-32"/>
       <use x="530.583984" xlink:href="#DejaVuSans-30"/>
       <use x="594.207031" xlink:href="#DejaVuSans-31"/>
       <use x="657.830078" xlink:href="#DejaVuSans-38"/>
       <use x="721.453125" xlink:href="#DejaVuSans-2f"/>
       <use x="755.144531" xlink:href="#DejaVuSans-63"/>
       <use x="810.125" xlink:href="#DejaVuSans-6e"/>
       <use x="873.503906" xlink:href="#DejaVuSans-6e"/>
      </g>
     </g>
    </g>
    <g id="ytick_3">
     <g id="line2d_17">
      <path clip-path="url(#p562092008a)" d="M 226.746875 241.558125 
L 617.346875 241.558125 
" style="fill:none;stroke:#b0b0b0;stroke-linecap:square;stroke-width:0.8;"/>
     </g>
     <g id="line2d_18">
      <g>
       <use style="stroke:#000000;stroke-width:0.8;" x="226.746875" xlink:href="#m94b90c69c1" y="241.558125"/>
      </g>
     </g>
     <g id="text_10">
      <!-- schreiber2017/mirex2017 -->
      <defs>
       <path d="M 8.203125 72.90625 
L 55.078125 72.90625 
L 55.078125 68.703125 
L 28.609375 0 
L 18.3125 0 
L 43.21875 64.59375 
L 8.203125 64.59375 
z
" id="DejaVuSans-37"/>
       <path d="M 52 44.1875 
Q 55.375 50.25 60.0625 53.125 
Q 64.75 56 71.09375 56 
Q 79.640625 56 84.28125 50.015625 
Q 88.921875 44.046875 88.921875 33.015625 
L 88.921875 0 
L 79.890625 0 
L 79.890625 32.71875 
Q 79.890625 40.578125 77.09375 44.375 
Q 74.3125 48.1875 68.609375 48.1875 
Q 61.625 48.1875 57.5625 43.546875 
Q 53.515625 38.921875 53.515625 30.90625 
L 53.515625 0 
L 44.484375 0 
L 44.484375 32.71875 
Q 44.484375 40.625 41.703125 44.40625 
Q 38.921875 48.1875 33.109375 48.1875 
Q 26.21875 48.1875 22.15625 43.53125 
Q 18.109375 38.875 18.109375 30.90625 
L 18.109375 0 
L 9.078125 0 
L 9.078125 54.6875 
L 18.109375 54.6875 
L 18.109375 46.1875 
Q 21.1875 51.21875 25.484375 53.609375 
Q 29.78125 56 35.6875 56 
Q 41.65625 56 45.828125 52.96875 
Q 50 49.953125 52 44.1875 
z
" id="DejaVuSans-6d"/>
       <path d="M 54.890625 54.6875 
L 35.109375 28.078125 
L 55.90625 0 
L 45.3125 0 
L 29.390625 21.484375 
L 13.484375 0 
L 2.875 0 
L 24.125 28.609375 
L 4.6875 54.6875 
L 15.28125 54.6875 
L 29.78125 35.203125 
L 44.28125 54.6875 
z
" id="DejaVuSans-78"/>
      </defs>
      <g transform="translate(90.084375 245.357344)scale(0.1 -0.1)">
       <use xlink:href="#DejaVuSans-73"/>
       <use x="52.099609" xlink:href="#DejaVuSans-63"/>
       <use x="107.080078" xlink:href="#DejaVuSans-68"/>
       <use x="170.458984" xlink:href="#DejaVuSans-72"/>
       <use x="211.541016" xlink:href="#DejaVuSans-65"/>
       <use x="273.064453" xlink:href="#DejaVuSans-69"/>
       <use x="300.847656" xlink:href="#DejaVuSans-62"/>
       <use x="364.324219" xlink:href="#DejaVuSans-65"/>
       <use x="425.847656" xlink:href="#DejaVuSans-72"/>
       <use x="466.960938" xlink:href="#DejaVuSans-32"/>
       <use x="530.583984" xlink:href="#DejaVuSans-30"/>
       <use x="594.207031" xlink:href="#DejaVuSans-31"/>
       <use x="657.830078" xlink:href="#DejaVuSans-37"/>
       <use x="721.453125" xlink:href="#DejaVuSans-2f"/>
       <use x="755.144531" xlink:href="#DejaVuSans-6d"/>
       <use x="852.556641" xlink:href="#DejaVuSans-69"/>
       <use x="880.339844" xlink:href="#DejaVuSans-72"/>
       <use x="921.421875" xlink:href="#DejaVuSans-65"/>
       <use x="982.929688" xlink:href="#DejaVuSans-78"/>
       <use x="1042.109375" xlink:href="#DejaVuSans-32"/>
       <use x="1105.732422" xlink:href="#DejaVuSans-30"/>
       <use x="1169.355469" xlink:href="#DejaVuSans-31"/>
       <use x="1232.978516" xlink:href="#DejaVuSans-37"/>
      </g>
     </g>
    </g>
    <g id="ytick_4">
     <g id="line2d_19">
      <path clip-path="url(#p562092008a)" d="M 226.746875 202.582125 
L 617.346875 202.582125 
" style="fill:none;stroke:#b0b0b0;stroke-linecap:square;stroke-width:0.8;"/>
     </g>
     <g id="line2d_20">
      <g>
       <use style="stroke:#000000;stroke-width:0.8;" x="226.746875" xlink:href="#m94b90c69c1" y="202.582125"/>
      </g>
     </g>
     <g id="text_11">
      <!-- schreiber2017/ismir2017 -->
      <g transform="translate(94.164062 206.381344)scale(0.1 -0.1)">
       <use xlink:href="#DejaVuSans-73"/>
       <use x="52.099609" xlink:href="#DejaVuSans-63"/>
       <use x="107.080078" xlink:href="#DejaVuSans-68"/>
       <use x="170.458984" xlink:href="#DejaVuSans-72"/>
       <use x="211.541016" xlink:href="#DejaVuSans-65"/>
       <use x="273.064453" xlink:href="#DejaVuSans-69"/>
       <use x="300.847656" xlink:href="#DejaVuSans-62"/>
       <use x="364.324219" xlink:href="#DejaVuSans-65"/>
       <use x="425.847656" xlink:href="#DejaVuSans-72"/>
       <use x="466.960938" xlink:href="#DejaVuSans-32"/>
       <use x="530.583984" xlink:href="#DejaVuSans-30"/>
       <use x="594.207031" xlink:href="#DejaVuSans-31"/>
       <use x="657.830078" xlink:href="#DejaVuSans-37"/>
       <use x="721.453125" xlink:href="#DejaVuSans-2f"/>
       <use x="755.144531" xlink:href="#DejaVuSans-69"/>
       <use x="782.927734" xlink:href="#DejaVuSans-73"/>
       <use x="835.027344" xlink:href="#DejaVuSans-6d"/>
       <use x="932.439453" xlink:href="#DejaVuSans-69"/>
       <use x="960.222656" xlink:href="#DejaVuSans-72"/>
       <use x="1001.335938" xlink:href="#DejaVuSans-32"/>
       <use x="1064.958984" xlink:href="#DejaVuSans-30"/>
       <use x="1128.582031" xlink:href="#DejaVuSans-31"/>
       <use x="1192.205078" xlink:href="#DejaVuSans-37"/>
      </g>
     </g>
    </g>
    <g id="ytick_5">
     <g id="line2d_21">
      <path clip-path="url(#p562092008a)" d="M 226.746875 163.606125 
L 617.346875 163.606125 
" style="fill:none;stroke:#b0b0b0;stroke-linecap:square;stroke-width:0.8;"/>
     </g>
     <g id="line2d_22">
      <g>
       <use style="stroke:#000000;stroke-width:0.8;" x="226.746875" xlink:href="#m94b90c69c1" y="163.606125"/>
      </g>
     </g>
     <g id="text_12">
      <!-- schreiber2014/default -->
      <defs>
       <path d="M 45.40625 46.390625 
L 45.40625 75.984375 
L 54.390625 75.984375 
L 54.390625 0 
L 45.40625 0 
L 45.40625 8.203125 
Q 42.578125 3.328125 38.25 0.953125 
Q 33.9375 -1.421875 27.875 -1.421875 
Q 17.96875 -1.421875 11.734375 6.484375 
Q 5.515625 14.40625 5.515625 27.296875 
Q 5.515625 40.1875 11.734375 48.09375 
Q 17.96875 56 27.875 56 
Q 33.9375 56 38.25 53.625 
Q 42.578125 51.265625 45.40625 46.390625 
z
M 14.796875 27.296875 
Q 14.796875 17.390625 18.875 11.75 
Q 22.953125 6.109375 30.078125 6.109375 
Q 37.203125 6.109375 41.296875 11.75 
Q 45.40625 17.390625 45.40625 27.296875 
Q 45.40625 37.203125 41.296875 42.84375 
Q 37.203125 48.484375 30.078125 48.484375 
Q 22.953125 48.484375 18.875 42.84375 
Q 14.796875 37.203125 14.796875 27.296875 
z
" id="DejaVuSans-64"/>
       <path d="M 34.28125 27.484375 
Q 23.390625 27.484375 19.1875 25 
Q 14.984375 22.515625 14.984375 16.5 
Q 14.984375 11.71875 18.140625 8.90625 
Q 21.296875 6.109375 26.703125 6.109375 
Q 34.1875 6.109375 38.703125 11.40625 
Q 43.21875 16.703125 43.21875 25.484375 
L 43.21875 27.484375 
z
M 52.203125 31.203125 
L 52.203125 0 
L 43.21875 0 
L 43.21875 8.296875 
Q 40.140625 3.328125 35.546875 0.953125 
Q 30.953125 -1.421875 24.3125 -1.421875 
Q 15.921875 -1.421875 10.953125 3.296875 
Q 6 8.015625 6 15.921875 
Q 6 25.140625 12.171875 29.828125 
Q 18.359375 34.515625 30.609375 34.515625 
L 43.21875 34.515625 
L 43.21875 35.40625 
Q 43.21875 41.609375 39.140625 45 
Q 35.0625 48.390625 27.6875 48.390625 
Q 23 48.390625 18.546875 47.265625 
Q 14.109375 46.140625 10.015625 43.890625 
L 10.015625 52.203125 
Q 14.9375 54.109375 19.578125 55.046875 
Q 24.21875 56 28.609375 56 
Q 40.484375 56 46.34375 49.84375 
Q 52.203125 43.703125 52.203125 31.203125 
z
" id="DejaVuSans-61"/>
       <path d="M 8.5 21.578125 
L 8.5 54.6875 
L 17.484375 54.6875 
L 17.484375 21.921875 
Q 17.484375 14.15625 20.5 10.265625 
Q 23.53125 6.390625 29.59375 6.390625 
Q 36.859375 6.390625 41.078125 11.03125 
Q 45.3125 15.671875 45.3125 23.6875 
L 45.3125 54.6875 
L 54.296875 54.6875 
L 54.296875 0 
L 45.3125 0 
L 45.3125 8.40625 
Q 42.046875 3.421875 37.71875 1 
Q 33.40625 -1.421875 27.6875 -1.421875 
Q 18.265625 -1.421875 13.375 4.4375 
Q 8.5 10.296875 8.5 21.578125 
z
M 31.109375 56 
z
" id="DejaVuSans-75"/>
       <path d="M 9.421875 75.984375 
L 18.40625 75.984375 
L 18.40625 0 
L 9.421875 0 
z
" id="DejaVuSans-6c"/>
       <path d="M 18.3125 70.21875 
L 18.3125 54.6875 
L 36.8125 54.6875 
L 36.8125 47.703125 
L 18.3125 47.703125 
L 18.3125 18.015625 
Q 18.3125 11.328125 20.140625 9.421875 
Q 21.96875 7.515625 27.59375 7.515625 
L 36.8125 7.515625 
L 36.8125 0 
L 27.59375 0 
Q 17.1875 0 13.234375 3.875 
Q 9.28125 7.765625 9.28125 18.015625 
L 9.28125 47.703125 
L 2.6875 47.703125 
L 2.6875 54.6875 
L 9.28125 54.6875 
L 9.28125 70.21875 
z
" id="DejaVuSans-74"/>
      </defs>
      <g transform="translate(109.045312 167.405344)scale(0.1 -0.1)">
       <use xlink:href="#DejaVuSans-73"/>
       <use x="52.099609" xlink:href="#DejaVuSans-63"/>
       <use x="107.080078" xlink:href="#DejaVuSans-68"/>
       <use x="170.458984" xlink:href="#DejaVuSans-72"/>
       <use x="211.541016" xlink:href="#DejaVuSans-65"/>
       <use x="273.064453" xlink:href="#DejaVuSans-69"/>
       <use x="300.847656" xlink:href="#DejaVuSans-62"/>
       <use x="364.324219" xlink:href="#DejaVuSans-65"/>
       <use x="425.847656" xlink:href="#DejaVuSans-72"/>
       <use x="466.960938" xlink:href="#DejaVuSans-32"/>
       <use x="530.583984" xlink:href="#DejaVuSans-30"/>
       <use x="594.207031" xlink:href="#DejaVuSans-31"/>
       <use x="657.830078" xlink:href="#DejaVuSans-34"/>
       <use x="721.453125" xlink:href="#DejaVuSans-2f"/>
       <use x="755.144531" xlink:href="#DejaVuSans-64"/>
       <use x="818.621094" xlink:href="#DejaVuSans-65"/>
       <use x="880.144531" xlink:href="#DejaVuSans-66"/>
       <use x="915.349609" xlink:href="#DejaVuSans-61"/>
       <use x="976.628906" xlink:href="#DejaVuSans-75"/>
       <use x="1040.007812" xlink:href="#DejaVuSans-6c"/>
       <use x="1067.791016" xlink:href="#DejaVuSans-74"/>
      </g>
     </g>
    </g>
    <g id="ytick_6">
     <g id="line2d_23">
      <path clip-path="url(#p562092008a)" d="M 226.746875 124.630125 
L 617.346875 124.630125 
" style="fill:none;stroke:#b0b0b0;stroke-linecap:square;stroke-width:0.8;"/>
     </g>
     <g id="line2d_24">
      <g>
       <use style="stroke:#000000;stroke-width:0.8;" x="226.746875" xlink:href="#m94b90c69c1" y="124.630125"/>
      </g>
     </g>
     <g id="text_13">
      <!-- percival2014/stem -->
      <defs>
       <path d="M 18.109375 8.203125 
L 18.109375 -20.796875 
L 9.078125 -20.796875 
L 9.078125 54.6875 
L 18.109375 54.6875 
L 18.109375 46.390625 
Q 20.953125 51.265625 25.265625 53.625 
Q 29.59375 56 35.59375 56 
Q 45.5625 56 51.78125 48.09375 
Q 58.015625 40.1875 58.015625 27.296875 
Q 58.015625 14.40625 51.78125 6.484375 
Q 45.5625 -1.421875 35.59375 -1.421875 
Q 29.59375 -1.421875 25.265625 0.953125 
Q 20.953125 3.328125 18.109375 8.203125 
z
M 48.6875 27.296875 
Q 48.6875 37.203125 44.609375 42.84375 
Q 40.53125 48.484375 33.40625 48.484375 
Q 26.265625 48.484375 22.1875 42.84375 
Q 18.109375 37.203125 18.109375 27.296875 
Q 18.109375 17.390625 22.1875 11.75 
Q 26.265625 6.109375 33.40625 6.109375 
Q 40.53125 6.109375 44.609375 11.75 
Q 48.6875 17.390625 48.6875 27.296875 
z
" id="DejaVuSans-70"/>
       <path d="M 2.984375 54.6875 
L 12.5 54.6875 
L 29.59375 8.796875 
L 46.6875 54.6875 
L 56.203125 54.6875 
L 35.6875 0 
L 23.484375 0 
z
" id="DejaVuSans-76"/>
      </defs>
      <g transform="translate(126.19375 128.429344)scale(0.1 -0.1)">
       <use xlink:href="#DejaVuSans-70"/>
       <use x="63.476562" xlink:href="#DejaVuSans-65"/>
       <use x="125" xlink:href="#DejaVuSans-72"/>
       <use x="166.082031" xlink:href="#DejaVuSans-63"/>
       <use x="221.0625" xlink:href="#DejaVuSans-69"/>
       <use x="248.845703" xlink:href="#DejaVuSans-76"/>
       <use x="308.025391" xlink:href="#DejaVuSans-61"/>
       <use x="369.304688" xlink:href="#DejaVuSans-6c"/>
       <use x="397.087891" xlink:href="#DejaVuSans-32"/>
       <use x="460.710938" xlink:href="#DejaVuSans-30"/>
       <use x="524.333984" xlink:href="#DejaVuSans-31"/>
       <use x="587.957031" xlink:href="#DejaVuSans-34"/>
       <use x="651.580078" xlink:href="#DejaVuSans-2f"/>
       <use x="685.271484" xlink:href="#DejaVuSans-73"/>
       <use x="737.371094" xlink:href="#DejaVuSans-74"/>
       <use x="776.580078" xlink:href="#DejaVuSans-65"/>
       <use x="838.103516" xlink:href="#DejaVuSans-6d"/>
      </g>
     </g>
    </g>
    <g id="ytick_7">
     <g id="line2d_25">
      <path clip-path="url(#p562092008a)" d="M 226.746875 85.654125 
L 617.346875 85.654125 
" style="fill:none;stroke:#b0b0b0;stroke-linecap:square;stroke-width:0.8;"/>
     </g>
     <g id="line2d_26">
      <g>
       <use style="stroke:#000000;stroke-width:0.8;" x="226.746875" xlink:href="#m94b90c69c1" y="85.654125"/>
      </g>
     </g>
     <g id="text_14">
      <!-- davies2009/mirex_qm_tempotracker -->
      <defs>
       <path d="M 10.984375 1.515625 
L 10.984375 10.5 
Q 14.703125 8.734375 18.5 7.8125 
Q 22.3125 6.890625 25.984375 6.890625 
Q 35.75 6.890625 40.890625 13.453125 
Q 46.046875 20.015625 46.78125 33.40625 
Q 43.953125 29.203125 39.59375 26.953125 
Q 35.25 24.703125 29.984375 24.703125 
Q 19.046875 24.703125 12.671875 31.3125 
Q 6.296875 37.9375 6.296875 49.421875 
Q 6.296875 60.640625 12.9375 67.421875 
Q 19.578125 74.21875 30.609375 74.21875 
Q 43.265625 74.21875 49.921875 64.515625 
Q 56.59375 54.828125 56.59375 36.375 
Q 56.59375 19.140625 48.40625 8.859375 
Q 40.234375 -1.421875 26.421875 -1.421875 
Q 22.703125 -1.421875 18.890625 -0.6875 
Q 15.09375 0.046875 10.984375 1.515625 
z
M 30.609375 32.421875 
Q 37.25 32.421875 41.125 36.953125 
Q 45.015625 41.5 45.015625 49.421875 
Q 45.015625 57.28125 41.125 61.84375 
Q 37.25 66.40625 30.609375 66.40625 
Q 23.96875 66.40625 20.09375 61.84375 
Q 16.21875 57.28125 16.21875 49.421875 
Q 16.21875 41.5 20.09375 36.953125 
Q 23.96875 32.421875 30.609375 32.421875 
z
" id="DejaVuSans-39"/>
       <path d="M 50.984375 -16.609375 
L 50.984375 -23.578125 
L -0.984375 -23.578125 
L -0.984375 -16.609375 
z
" id="DejaVuSans-5f"/>
       <path d="M 14.796875 27.296875 
Q 14.796875 17.390625 18.875 11.75 
Q 22.953125 6.109375 30.078125 6.109375 
Q 37.203125 6.109375 41.296875 11.75 
Q 45.40625 17.390625 45.40625 27.296875 
Q 45.40625 37.203125 41.296875 42.84375 
Q 37.203125 48.484375 30.078125 48.484375 
Q 22.953125 48.484375 18.875 42.84375 
Q 14.796875 37.203125 14.796875 27.296875 
z
M 45.40625 8.203125 
Q 42.578125 3.328125 38.25 0.953125 
Q 33.9375 -1.421875 27.875 -1.421875 
Q 17.96875 -1.421875 11.734375 6.484375 
Q 5.515625 14.40625 5.515625 27.296875 
Q 5.515625 40.1875 11.734375 48.09375 
Q 17.96875 56 27.875 56 
Q 33.9375 56 38.25 53.625 
Q 42.578125 51.265625 45.40625 46.390625 
L 45.40625 54.6875 
L 54.390625 54.6875 
L 54.390625 -20.796875 
L 45.40625 -20.796875 
z
" id="DejaVuSans-71"/>
       <path d="M 30.609375 48.390625 
Q 23.390625 48.390625 19.1875 42.75 
Q 14.984375 37.109375 14.984375 27.296875 
Q 14.984375 17.484375 19.15625 11.84375 
Q 23.34375 6.203125 30.609375 6.203125 
Q 37.796875 6.203125 41.984375 11.859375 
Q 46.1875 17.53125 46.1875 27.296875 
Q 46.1875 37.015625 41.984375 42.703125 
Q 37.796875 48.390625 30.609375 48.390625 
z
M 30.609375 56 
Q 42.328125 56 49.015625 48.375 
Q 55.71875 40.765625 55.71875 27.296875 
Q 55.71875 13.875 49.015625 6.21875 
Q 42.328125 -1.421875 30.609375 -1.421875 
Q 18.84375 -1.421875 12.171875 6.21875 
Q 5.515625 13.875 5.515625 27.296875 
Q 5.515625 40.765625 12.171875 48.375 
Q 18.84375 56 30.609375 56 
z
" id="DejaVuSans-6f"/>
       <path d="M 9.078125 75.984375 
L 18.109375 75.984375 
L 18.109375 31.109375 
L 44.921875 54.6875 
L 56.390625 54.6875 
L 27.390625 29.109375 
L 57.625 0 
L 45.90625 0 
L 18.109375 26.703125 
L 18.109375 0 
L 9.078125 0 
z
" id="DejaVuSans-6b"/>
      </defs>
      <g transform="translate(35.617187 89.453344)scale(0.1 -0.1)">
       <use xlink:href="#DejaVuSans-64"/>
       <use x="63.476562" xlink:href="#DejaVuSans-61"/>
       <use x="124.755859" xlink:href="#DejaVuSans-76"/>
       <use x="183.935547" xlink:href="#DejaVuSans-69"/>
       <use x="211.71875" xlink:href="#DejaVuSans-65"/>
       <use x="273.242188" xlink:href="#DejaVuSans-73"/>
       <use x="325.341797" xlink:href="#DejaVuSans-32"/>
       <use x="388.964844" xlink:href="#DejaVuSans-30"/>
       <use x="452.587891" xlink:href="#DejaVuSans-30"/>
       <use x="516.210938" xlink:href="#DejaVuSans-39"/>
       <use x="579.833984" xlink:href="#DejaVuSans-2f"/>
       <use x="613.525391" xlink:href="#DejaVuSans-6d"/>
       <use x="710.9375" xlink:href="#DejaVuSans-69"/>
       <use x="738.720703" xlink:href="#DejaVuSans-72"/>
       <use x="779.802734" xlink:href="#DejaVuSans-65"/>
       <use x="841.310547" xlink:href="#DejaVuSans-78"/>
       <use x="900.490234" xlink:href="#DejaVuSans-5f"/>
       <use x="950.490234" xlink:href="#DejaVuSans-71"/>
       <use x="1013.966797" xlink:href="#DejaVuSans-6d"/>
       <use x="1111.378906" xlink:href="#DejaVuSans-5f"/>
       <use x="1161.378906" xlink:href="#DejaVuSans-74"/>
       <use x="1200.587891" xlink:href="#DejaVuSans-65"/>
       <use x="1262.111328" xlink:href="#DejaVuSans-6d"/>
       <use x="1359.523438" xlink:href="#DejaVuSans-70"/>
       <use x="1423" xlink:href="#DejaVuSans-6f"/>
       <use x="1484.181641" xlink:href="#DejaVuSans-74"/>
       <use x="1523.390625" xlink:href="#DejaVuSans-72"/>
       <use x="1564.503906" xlink:href="#DejaVuSans-61"/>
       <use x="1625.783203" xlink:href="#DejaVuSans-63"/>
       <use x="1680.763672" xlink:href="#DejaVuSans-6b"/>
       <use x="1738.626953" xlink:href="#DejaVuSans-65"/>
       <use x="1800.150391" xlink:href="#DejaVuSans-72"/>
      </g>
     </g>
    </g>
    <g id="ytick_8">
     <g id="line2d_27">
      <path clip-path="url(#p562092008a)" d="M 226.746875 46.678125 
L 617.346875 46.678125 
" style="fill:none;stroke:#b0b0b0;stroke-linecap:square;stroke-width:0.8;"/>
     </g>
     <g id="line2d_28">
      <g>
       <use style="stroke:#000000;stroke-width:0.8;" x="226.746875" xlink:href="#m94b90c69c1" y="46.678125"/>
      </g>
     </g>
     <g id="text_15">
      <!-- boeck2015/tempodetector2016_default -->
      <defs>
       <path d="M 10.796875 72.90625 
L 49.515625 72.90625 
L 49.515625 64.59375 
L 19.828125 64.59375 
L 19.828125 46.734375 
Q 21.96875 47.46875 24.109375 47.828125 
Q 26.265625 48.1875 28.421875 48.1875 
Q 40.625 48.1875 47.75 41.5 
Q 54.890625 34.8125 54.890625 23.390625 
Q 54.890625 11.625 47.5625 5.09375 
Q 40.234375 -1.421875 26.90625 -1.421875 
Q 22.3125 -1.421875 17.546875 -0.640625 
Q 12.796875 0.140625 7.71875 1.703125 
L 7.71875 11.625 
Q 12.109375 9.234375 16.796875 8.0625 
Q 21.484375 6.890625 26.703125 6.890625 
Q 35.15625 6.890625 40.078125 11.328125 
Q 45.015625 15.765625 45.015625 23.390625 
Q 45.015625 31 40.078125 35.4375 
Q 35.15625 39.890625 26.703125 39.890625 
Q 22.75 39.890625 18.8125 39.015625 
Q 14.890625 38.140625 10.796875 36.28125 
z
" id="DejaVuSans-35"/>
      </defs>
      <g transform="translate(20.878125 50.477344)scale(0.1 -0.1)">
       <use xlink:href="#DejaVuSans-62"/>
       <use x="63.476562" xlink:href="#DejaVuSans-6f"/>
       <use x="124.658203" xlink:href="#DejaVuSans-65"/>
       <use x="186.181641" xlink:href="#DejaVuSans-63"/>
       <use x="241.162109" xlink:href="#DejaVuSans-6b"/>
       <use x="299.072266" xlink:href="#DejaVuSans-32"/>
       <use x="362.695312" xlink:href="#DejaVuSans-30"/>
       <use x="426.318359" xlink:href="#DejaVuSans-31"/>
       <use x="489.941406" xlink:href="#DejaVuSans-35"/>
       <use x="553.564453" xlink:href="#DejaVuSans-2f"/>
       <use x="587.255859" xlink:href="#DejaVuSans-74"/>
       <use x="626.464844" xlink:href="#DejaVuSans-65"/>
       <use x="687.988281" xlink:href="#DejaVuSans-6d"/>
       <use x="785.400391" xlink:href="#DejaVuSans-70"/>
       <use x="848.876953" xlink:href="#DejaVuSans-6f"/>
       <use x="910.058594" xlink:href="#DejaVuSans-64"/>
       <use x="973.535156" xlink:href="#DejaVuSans-65"/>
       <use x="1035.058594" xlink:href="#DejaVuSans-74"/>
       <use x="1074.267578" xlink:href="#DejaVuSans-65"/>
       <use x="1135.791016" xlink:href="#DejaVuSans-63"/>
       <use x="1190.771484" xlink:href="#DejaVuSans-74"/>
       <use x="1229.980469" xlink:href="#DejaVuSans-6f"/>
       <use x="1291.162109" xlink:href="#DejaVuSans-72"/>
       <use x="1332.275391" xlink:href="#DejaVuSans-32"/>
       <use x="1395.898438" xlink:href="#DejaVuSans-30"/>
       <use x="1459.521484" xlink:href="#DejaVuSans-31"/>
       <use x="1523.144531" xlink:href="#DejaVuSans-36"/>
       <use x="1586.767578" xlink:href="#DejaVuSans-5f"/>
       <use x="1636.767578" xlink:href="#DejaVuSans-64"/>
       <use x="1700.244141" xlink:href="#DejaVuSans-65"/>
       <use x="1761.767578" xlink:href="#DejaVuSans-66"/>
       <use x="1796.972656" xlink:href="#DejaVuSans-61"/>
       <use x="1858.251953" xlink:href="#DejaVuSans-75"/>
       <use x="1921.630859" xlink:href="#DejaVuSans-6c"/>
       <use x="1949.414062" xlink:href="#DejaVuSans-74"/>
      </g>
     </g>
    </g>
    <g id="text_16">
     <!-- Estimator -->
     <g transform="translate(14.798437 207.216781)rotate(-90)scale(0.1 -0.1)">
      <use xlink:href="#DejaVuSans-45"/>
      <use x="63.183594" xlink:href="#DejaVuSans-73"/>
      <use x="115.283203" xlink:href="#DejaVuSans-74"/>
      <use x="154.492188" xlink:href="#DejaVuSans-69"/>
      <use x="182.275391" xlink:href="#DejaVuSans-6d"/>
      <use x="279.6875" xlink:href="#DejaVuSans-61"/>
      <use x="340.966797" xlink:href="#DejaVuSans-74"/>
      <use x="380.175781" xlink:href="#DejaVuSans-6f"/>
      <use x="441.357422" xlink:href="#DejaVuSans-72"/>
     </g>
    </g>
   </g>
   <g id="PolyCollection_1">
    <path clip-path="url(#p562092008a)" d="M 226.746875 309.770849 
L 226.746875 329.249401 
L 226.986633 329.254125 
L 227.226392 328.257632 
L 227.46615 326.609474 
L 227.705909 324.776318 
L 227.945667 323.139502 
L 228.185425 321.890988 
L 228.425184 321.04632 
L 228.664942 320.520555 
L 228.904701 320.204482 
L 229.144459 320.009547 
L 229.384217 319.880912 
L 229.623976 319.791648 
L 229.863734 319.731014 
L 230.103493 319.694455 
L 230.343251 319.677849 
L 230.583009 319.675423 
L 230.822768 319.679942 
L 231.062526 319.684114 
L 231.302285 319.682487 
L 231.542043 319.672959 
L 231.781801 319.657036 
L 232.02156 319.638585 
L 232.261318 319.621787 
L 232.501077 319.609424 
L 232.740835 319.602237 
L 232.980593 319.599286 
L 233.220352 319.598782 
L 233.46011 319.598878 
L 233.699869 319.5982 
L 233.939627 319.596073 
L 234.179385 319.592517 
L 234.419144 319.588053 
L 234.658902 319.58341 
L 234.898661 319.579221 
L 235.138419 319.575889 
L 235.378177 319.573662 
L 235.617936 319.572841 
L 235.857694 319.573951 
L 236.097453 319.577709 
L 236.337211 319.584724 
L 236.576969 319.595037 
L 236.816728 319.607725 
L 237.056486 319.620896 
L 237.296245 319.63229 
L 237.536003 319.640218 
L 237.775761 319.644259 
L 238.01552 319.645199 
L 238.255278 319.644374 
L 238.495037 319.642993 
L 238.734795 319.641913 
L 238.974553 319.641736 
L 239.214312 319.642856 
L 239.45407 319.645324 
L 239.693829 319.648754 
L 239.933587 319.652441 
L 240.173345 319.655671 
L 240.413104 319.657991 
L 240.652862 319.659397 
L 240.892621 319.660474 
L 241.132379 319.662565 
L 241.372137 319.667843 
L 241.611896 319.679001 
L 241.851654 319.698181 
L 242.091413 319.72521 
L 242.331171 319.756082 
L 242.570929 319.783204 
L 242.810688 319.798123 
L 243.050446 319.795553 
L 243.290205 319.776183 
L 243.529963 319.746369 
L 243.769721 319.714986 
L 244.00948 319.689434 
L 244.249238 319.672905 
L 244.488997 319.663945 
L 244.728755 319.658079 
L 244.968513 319.650448 
L 245.208272 319.638094 
L 245.44803 319.620831 
L 245.687788 319.600584 
L 245.927547 319.579974 
L 246.167305 319.561145 
L 246.407064 319.545325 
L 246.646822 319.532944 
L 246.88658 319.523909 
L 247.126339 319.517807 
L 247.366097 319.514037 
L 247.605856 319.51193 
L 247.845614 319.510875 
L 248.085372 319.510406 
L 248.325131 319.510225 
L 248.564889 319.510177 
L 248.804648 319.510198 
L 249.044406 319.51028 
L 249.284164 319.510437 
L 249.523923 319.510681 
L 249.763681 319.510998 
L 250.00344 319.51133 
L 250.243198 319.511587 
L 250.482956 319.511685 
L 250.482956 319.508565 
L 250.482956 319.508565 
L 250.243198 319.508663 
L 250.00344 319.50892 
L 249.763681 319.509252 
L 249.523923 319.509569 
L 249.284164 319.509813 
L 249.044406 319.50997 
L 248.804648 319.510052 
L 248.564889 319.510073 
L 248.325131 319.510025 
L 248.085372 319.509844 
L 247.845614 319.509375 
L 247.605856 319.50832 
L 247.366097 319.506213 
L 247.126339 319.502443 
L 246.88658 319.496341 
L 246.646822 319.487306 
L 246.407064 319.474925 
L 246.167305 319.459105 
L 245.927547 319.440276 
L 245.687788 319.419666 
L 245.44803 319.399419 
L 245.208272 319.382156 
L 244.968513 319.369802 
L 244.728755 319.362171 
L 244.488997 319.356305 
L 244.249238 319.347345 
L 244.00948 319.330816 
L 243.769721 319.305264 
L 243.529963 319.273881 
L 243.290205 319.244067 
L 243.050446 319.224697 
L 242.810688 319.222127 
L 242.570929 319.237046 
L 242.331171 319.264168 
L 242.091413 319.29504 
L 241.851654 319.322069 
L 241.611896 319.341249 
L 241.372137 319.352407 
L 241.132379 319.357685 
L 240.892621 319.359776 
L 240.652862 319.360853 
L 240.413104 319.362259 
L 240.173345 319.364579 
L 239.933587 319.367809 
L 239.693829 319.371496 
L 239.45407 319.374926 
L 239.214312 319.377394 
L 238.974553 319.378514 
L 238.734795 319.378337 
L 238.495037 319.377257 
L 238.255278 319.375876 
L 238.01552 319.375051 
L 237.775761 319.375991 
L 237.536003 319.380032 
L 237.296245 319.38796 
L 237.056486 319.399354 
L 236.816728 319.412525 
L 236.576969 319.425213 
L 236.337211 319.435526 
L 236.097453 319.442541 
L 235.857694 319.446299 
L 235.617936 319.447409 
L 235.378177 319.446588 
L 235.138419 319.444361 
L 234.898661 319.441029 
L 234.658902 319.43684 
L 234.419144 319.432197 
L 234.179385 319.427733 
L 233.939627 319.424177 
L 233.699869 319.42205 
L 233.46011 319.421372 
L 233.220352 319.421468 
L 232.980593 319.420964 
L 232.740835 319.418013 
L 232.501077 319.410826 
L 232.261318 319.398463 
L 232.02156 319.381665 
L 231.781801 319.363214 
L 231.542043 319.347291 
L 231.302285 319.337763 
L 231.062526 319.336136 
L 230.822768 319.340308 
L 230.583009 319.344827 
L 230.343251 319.342401 
L 230.103493 319.325795 
L 229.863734 319.289236 
L 229.623976 319.228602 
L 229.384217 319.139338 
L 229.144459 319.010703 
L 228.904701 318.815768 
L 228.664942 318.499695 
L 228.425184 317.97393 
L 228.185425 317.129262 
L 227.945667 315.880748 
L 227.705909 314.243932 
L 227.46615 312.410776 
L 227.226392 310.762618 
L 226.986633 309.766125 
L 226.746875 309.770849 
z
" style="fill:#ff0000;fill-opacity:0.75;"/>
   </g>
   <g id="PolyCollection_2">
    <path clip-path="url(#p562092008a)" d="M 226.746875 270.790125 
L 226.746875 290.278125 
L 226.943978 290.260483 
L 227.141082 289.523842 
L 227.338185 288.255758 
L 227.535289 286.728711 
L 227.732392 285.208042 
L 227.929496 283.883604 
L 228.126599 282.845601 
L 228.323703 282.099266 
L 228.520806 281.598484 
L 228.71791 281.278899 
L 228.915013 281.080089 
L 229.112117 280.955541 
L 229.30922 280.87406 
L 229.506324 280.817016 
L 229.703427 280.774507 
L 229.900531 280.741946 
L 230.097634 280.717533 
L 230.294737 280.700567 
L 230.491841 280.690439 
L 230.688944 280.686136 
L 230.886048 280.686155 
L 231.083151 280.688701 
L 231.280255 280.692037 
L 231.477358 280.694841 
L 231.674462 280.696431 
L 231.871565 280.696798 
L 232.068669 280.696466 
L 232.265772 280.696238 
L 232.462876 280.696856 
L 232.659979 280.698621 
L 232.857083 280.701084 
L 233.054186 280.702981 
L 233.25129 280.702568 
L 233.448393 280.698296 
L 233.645496 280.689513 
L 233.8426 280.676821 
L 234.039703 280.661895 
L 234.236807 280.646861 
L 234.43391 280.633614 
L 234.631014 280.623344 
L 234.828117 280.616428 
L 235.025221 280.612568 
L 235.222324 280.611043 
L 235.419428 280.61097 
L 235.616531 280.611528 
L 235.813635 280.612152 
L 236.010738 280.612642 
L 236.207842 280.613153 
L 236.404945 280.614043 
L 236.602049 280.615633 
L 236.799152 280.617975 
L 236.996255 280.620753 
L 237.193359 280.623356 
L 237.390462 280.625118 
L 237.587566 280.625591 
L 237.784669 280.624735 
L 237.981773 280.622898 
L 238.178876 280.620627 
L 238.37598 280.618394 
L 238.573083 280.616417 
L 238.770187 280.61466 
L 238.96729 280.613005 
L 239.164394 280.611465 
L 239.361497 280.6103 
L 239.558601 280.609942 
L 239.755704 280.610788 
L 239.952808 280.612969 
L 240.149911 280.616237 
L 240.347015 280.620044 
L 240.544118 280.623783 
L 240.741221 280.627122 
L 240.938325 280.630278 
L 241.135428 280.634143 
L 241.332532 280.640189 
L 241.529635 280.65016 
L 241.726739 280.665604 
L 241.923842 280.687337 
L 242.120946 280.714948 
L 242.318049 280.746503 
L 242.515153 280.77863 
L 242.712256 280.807072 
L 242.90936 280.827626 
L 243.106463 280.837206 
L 243.303567 280.834643 
L 243.50067 280.820942 
L 243.697774 280.798935 
L 243.894877 280.772464 
L 244.09198 280.745417 
L 244.289084 280.720891 
L 244.486187 280.7007 
L 244.683291 280.685278 
L 244.880394 280.673898 
L 245.077498 280.665077 
L 245.274601 280.657035 
L 245.471705 280.64813 
L 245.668808 280.63723 
L 245.865912 280.623969 
L 246.063015 280.608819 
L 246.260119 280.592907 
L 246.260119 280.475343 
L 246.260119 280.475343 
L 246.063015 280.459431 
L 245.865912 280.444281 
L 245.668808 280.43102 
L 245.471705 280.42012 
L 245.274601 280.411215 
L 245.077498 280.403173 
L 244.880394 280.394352 
L 244.683291 280.382972 
L 244.486187 280.36755 
L 244.289084 280.347359 
L 244.09198 280.322833 
L 243.894877 280.295786 
L 243.697774 280.269315 
L 243.50067 280.247308 
L 243.303567 280.233607 
L 243.106463 280.231044 
L 242.90936 280.240624 
L 242.712256 280.261178 
L 242.515153 280.28962 
L 242.318049 280.321747 
L 242.120946 280.353302 
L 241.923842 280.380913 
L 241.726739 280.402646 
L 241.529635 280.41809 
L 241.332532 280.428061 
L 241.135428 280.434107 
L 240.938325 280.437972 
L 240.741221 280.441128 
L 240.544118 280.444467 
L 240.347015 280.448206 
L 240.149911 280.452013 
L 239.952808 280.455281 
L 239.755704 280.457462 
L 239.558601 280.458308 
L 239.361497 280.45795 
L 239.164394 280.456785 
L 238.96729 280.455245 
L 238.770187 280.45359 
L 238.573083 280.451833 
L 238.37598 280.449856 
L 238.178876 280.447623 
L 237.981773 280.445352 
L 237.784669 280.443515 
L 237.587566 280.442659 
L 237.390462 280.443132 
L 237.193359 280.444894 
L 236.996255 280.447497 
L 236.799152 280.450275 
L 236.602049 280.452617 
L 236.404945 280.454207 
L 236.207842 280.455097 
L 236.010738 280.455608 
L 235.813635 280.456098 
L 235.616531 280.456722 
L 235.419428 280.45728 
L 235.222324 280.457207 
L 235.025221 280.455682 
L 234.828117 280.451822 
L 234.631014 280.444906 
L 234.43391 280.434636 
L 234.236807 280.421389 
L 234.039703 280.406355 
L 233.8426 280.391429 
L 233.645496 280.378737 
L 233.448393 280.369954 
L 233.25129 280.365682 
L 233.054186 280.365269 
L 232.857083 280.367166 
L 232.659979 280.369629 
L 232.462876 280.371394 
L 232.265772 280.372012 
L 232.068669 280.371784 
L 231.871565 280.371452 
L 231.674462 280.371819 
L 231.477358 280.373409 
L 231.280255 280.376213 
L 231.083151 280.379549 
L 230.886048 280.382095 
L 230.688944 280.382114 
L 230.491841 280.377811 
L 230.294737 280.367683 
L 230.097634 280.350717 
L 229.900531 280.326304 
L 229.703427 280.293743 
L 229.506324 280.251234 
L 229.30922 280.19419 
L 229.112117 280.112709 
L 228.915013 279.988161 
L 228.71791 279.789351 
L 228.520806 279.469766 
L 228.323703 278.968984 
L 228.126599 278.222649 
L 227.929496 277.184646 
L 227.732392 275.860208 
L 227.535289 274.339539 
L 227.338185 272.812492 
L 227.141082 271.544408 
L 226.943978 270.807767 
L 226.746875 270.790125 
z
" style="fill:#ff0000;fill-opacity:0.75;"/>
   </g>
   <g id="PolyCollection_3">
    <path clip-path="url(#p562092008a)" d="M 226.747018 231.814125 
L 226.747018 251.302125 
L 227.422691 249.901656 
L 228.098364 245.758746 
L 228.774037 243.008902 
L 229.44971 242.078141 
L 230.125383 241.844416 
L 230.801056 241.769734 
L 231.476729 241.738796 
L 232.152402 241.730301 
L 232.828075 241.735339 
L 233.503748 241.74163 
L 234.179421 241.733793 
L 234.855095 241.711386 
L 235.530768 241.690926 
L 236.206441 241.686985 
L 236.882114 241.698207 
L 237.557787 241.710018 
L 238.23346 241.716687 
L 238.909133 241.722476 
L 239.584806 241.720952 
L 240.260479 241.712692 
L 240.936152 241.7249 
L 241.611825 241.786358 
L 242.287498 241.883071 
L 242.963171 241.929365 
L 243.638844 241.867781 
L 244.314517 241.764215 
L 244.99019 241.693288 
L 245.665863 241.650556 
L 246.341536 241.612085 
L 247.017209 241.580754 
L 247.692883 241.565281 
L 248.368556 241.561003 
L 249.044229 241.560325 
L 249.719902 241.560304 
L 250.395575 241.560936 
L 251.071248 241.562705 
L 251.746921 241.56455 
L 252.422594 241.564929 
L 253.098267 241.563631 
L 253.77394 241.562096 
L 254.449613 241.5616 
L 255.125286 241.561412 
L 255.800959 241.561267 
L 256.476632 241.562209 
L 257.152305 241.56338 
L 257.827978 241.562836 
L 258.503651 241.560866 
L 259.179324 241.559303 
L 259.854997 241.559285 
L 260.53067 241.560845 
L 261.206344 241.563157 
L 261.882017 241.565029 
L 262.55769 241.565067 
L 263.233363 241.563141 
L 263.909036 241.561686 
L 264.584709 241.561384 
L 265.260382 241.560533 
L 265.936055 241.55919 
L 266.611728 241.558491 
L 267.287401 241.558663 
L 267.963074 241.5594 
L 268.638747 241.560116 
L 269.31442 241.560616 
L 269.990093 241.561381 
L 270.665766 241.562379 
L 271.341439 241.563006 
L 272.017112 241.563219 
L 272.692785 241.563656 
L 273.368458 241.564579 
L 274.044131 241.565245 
L 274.719805 241.564743 
L 275.395478 241.562871 
L 276.071151 241.56047 
L 276.746824 241.559009 
L 277.422497 241.558975 
L 278.09817 241.559809 
L 278.773843 241.560946 
L 279.449516 241.562368 
L 280.125189 241.563391 
L 280.800862 241.56319 
L 281.476535 241.562392 
L 282.152208 241.561443 
L 282.827881 241.560599 
L 283.503554 241.559991 
L 284.179227 241.559228 
L 284.8549 241.558521 
L 285.530573 241.558204 
L 286.206246 241.558133 
L 286.881919 241.558126 
L 287.557593 241.55813 
L 288.233266 241.558176 
L 288.908939 241.558419 
L 289.584612 241.559059 
L 290.260285 241.559932 
L 290.935958 241.560927 
L 291.611631 241.562375 
L 292.287304 241.563218 
L 292.962977 241.56232 
L 293.63865 241.560757 
L 293.63865 241.555493 
L 293.63865 241.555493 
L 292.962977 241.55393 
L 292.287304 241.553032 
L 291.611631 241.553875 
L 290.935958 241.555323 
L 290.260285 241.556318 
L 289.584612 241.557191 
L 288.908939 241.557831 
L 288.233266 241.558074 
L 287.557593 241.55812 
L 286.881919 241.558124 
L 286.206246 241.558117 
L 285.530573 241.558046 
L 284.8549 241.557729 
L 284.179227 241.557022 
L 283.503554 241.556259 
L 282.827881 241.555651 
L 282.152208 241.554807 
L 281.476535 241.553858 
L 280.800862 241.55306 
L 280.125189 241.552859 
L 279.449516 241.553882 
L 278.773843 241.555304 
L 278.09817 241.556441 
L 277.422497 241.557275 
L 276.746824 241.557241 
L 276.071151 241.55578 
L 275.395478 241.553379 
L 274.719805 241.551507 
L 274.044131 241.551005 
L 273.368458 241.551671 
L 272.692785 241.552594 
L 272.017112 241.553031 
L 271.341439 241.553244 
L 270.665766 241.553871 
L 269.990093 241.554869 
L 269.31442 241.555634 
L 268.638747 241.556134 
L 267.963074 241.55685 
L 267.287401 241.557587 
L 266.611728 241.557759 
L 265.936055 241.55706 
L 265.260382 241.555717 
L 264.584709 241.554866 
L 263.909036 241.554564 
L 263.233363 241.553109 
L 262.55769 241.551183 
L 261.882017 241.551221 
L 261.206344 241.553093 
L 260.53067 241.555405 
L 259.854997 241.556965 
L 259.179324 241.556947 
L 258.503651 241.555384 
L 257.827978 241.553414 
L 257.152305 241.55287 
L 256.476632 241.554041 
L 255.800959 241.554983 
L 255.125286 241.554838 
L 254.449613 241.55465 
L 253.77394 241.554154 
L 253.098267 241.552619 
L 252.422594 241.551321 
L 251.746921 241.5517 
L 251.071248 241.553545 
L 250.395575 241.555314 
L 249.719902 241.555946 
L 249.044229 241.555925 
L 248.368556 241.555247 
L 247.692883 241.550969 
L 247.017209 241.535496 
L 246.341536 241.504165 
L 245.665863 241.465694 
L 244.99019 241.422962 
L 244.314517 241.352035 
L 243.638844 241.248469 
L 242.963171 241.186885 
L 242.287498 241.233179 
L 241.611825 241.329892 
L 240.936152 241.39135 
L 240.260479 241.403558 
L 239.584806 241.395298 
L 238.909133 241.393774 
L 238.23346 241.399563 
L 237.557787 241.406232 
L 236.882114 241.418043 
L 236.206441 241.429265 
L 235.530768 241.425324 
L 234.855095 241.404864 
L 234.179421 241.382457 
L 233.503748 241.37462 
L 232.828075 241.380911 
L 232.152402 241.385949 
L 231.476729 241.377454 
L 230.801056 241.346516 
L 230.125383 241.271834 
L 229.44971 241.038109 
L 228.774037 240.107348 
L 228.098364 237.357504 
L 227.422691 233.214594 
L 226.747018 231.814125 
z
" style="fill:#ff0000;fill-opacity:0.75;"/>
   </g>
   <g id="PolyCollection_4">
    <path clip-path="url(#p562092008a)" d="M 226.747018 192.838125 
L 226.747018 212.326125 
L 227.408248 210.969665 
L 228.069479 206.869696 
L 228.73071 204.08645 
L 229.39194 203.117591 
L 230.053171 202.87047 
L 230.714401 202.793143 
L 231.375632 202.76074 
L 232.036863 202.749125 
L 232.698093 202.750851 
L 233.359324 202.757609 
L 234.020554 202.754753 
L 234.681785 202.737211 
L 235.343015 202.717322 
L 236.004246 202.709488 
L 236.665477 202.717406 
L 237.326707 202.730424 
L 237.987938 202.737575 
L 238.649168 202.742939 
L 239.310399 202.746607 
L 239.971629 202.740995 
L 240.63286 202.740966 
L 241.294091 202.777163 
L 241.955321 202.862115 
L 242.616552 202.946556 
L 243.277782 202.941457 
L 243.939013 202.84882 
L 244.600243 202.75657 
L 245.261474 202.702652 
L 245.922705 202.663728 
L 246.583935 202.625495 
L 247.245166 202.59831 
L 247.906396 202.587175 
L 248.567627 202.584612 
L 249.228857 202.584255 
L 249.890088 202.584253 
L 250.551319 202.584816 
L 251.212549 202.586073 
L 251.87378 202.587233 
L 252.53501 202.587643 
L 253.196241 202.587084 
L 253.857471 202.586331 
L 254.518702 202.585843 
L 255.179933 202.584928 
L 255.841163 202.584255 
L 256.502394 202.584842 
L 257.163624 202.585797 
L 257.824855 202.585692 
L 258.486085 202.584427 
L 259.147316 202.583205 
L 259.808547 202.583177 
L 260.469777 202.584614 
L 261.131008 202.586854 
L 261.792238 202.588815 
L 262.453469 202.589195 
L 263.114699 202.587466 
L 263.77593 202.585775 
L 264.437161 202.585417 
L 265.098391 202.584815 
L 265.759622 202.583489 
L 266.420852 202.582573 
L 267.082083 202.582515 
L 267.743314 202.583117 
L 268.404544 202.583884 
L 269.065775 202.584341 
L 269.727005 202.584663 
L 270.388236 202.584992 
L 271.049466 202.585286 
L 271.710697 202.585827 
L 272.371928 202.586737 
L 273.033158 202.587872 
L 273.694389 202.588926 
L 274.355619 202.589141 
L 275.01685 202.58803 
L 275.67808 202.585802 
L 276.339311 202.583675 
L 277.000542 202.582815 
L 277.661772 202.58319 
L 278.323003 202.584137 
L 278.984233 202.585324 
L 279.645464 202.586731 
L 280.306694 202.58742 
L 280.967925 202.58697 
L 281.629156 202.586149 
L 282.290386 202.585211 
L 282.951617 202.584453 
L 283.612847 202.58387 
L 284.274078 202.5831 
L 284.935308 202.58245 
L 285.596539 202.582185 
L 286.25777 202.582131 
L 286.919 202.582126 
L 287.580231 202.58213 
L 288.241461 202.582174 
L 288.902692 202.582405 
L 289.563922 202.58302 
L 290.225153 202.583868 
L 290.886384 202.584793 
L 291.547614 202.586125 
L 292.208845 202.586831 
L 292.208845 202.577419 
L 292.208845 202.577419 
L 291.547614 202.578125 
L 290.886384 202.579457 
L 290.225153 202.580382 
L 289.563922 202.58123 
L 288.902692 202.581845 
L 288.241461 202.582076 
L 287.580231 202.58212 
L 286.919 202.582124 
L 286.25777 202.582119 
L 285.596539 202.582065 
L 284.935308 202.5818 
L 284.274078 202.58115 
L 283.612847 202.58038 
L 282.951617 202.579797 
L 282.290386 202.579039 
L 281.629156 202.578101 
L 280.967925 202.57728 
L 280.306694 202.57683 
L 279.645464 202.577519 
L 278.984233 202.578926 
L 278.323003 202.580113 
L 277.661772 202.58106 
L 277.000542 202.581435 
L 276.339311 202.580575 
L 275.67808 202.578448 
L 275.01685 202.57622 
L 274.355619 202.575109 
L 273.694389 202.575324 
L 273.033158 202.576378 
L 272.371928 202.577513 
L 271.710697 202.578423 
L 271.049466 202.578964 
L 270.388236 202.579258 
L 269.727005 202.579587 
L 269.065775 202.579909 
L 268.404544 202.580366 
L 267.743314 202.581133 
L 267.082083 202.581735 
L 266.420852 202.581677 
L 265.759622 202.580761 
L 265.098391 202.579435 
L 264.437161 202.578833 
L 263.77593 202.578475 
L 263.114699 202.576784 
L 262.453469 202.575055 
L 261.792238 202.575435 
L 261.131008 202.577396 
L 260.469777 202.579636 
L 259.808547 202.581073 
L 259.147316 202.581045 
L 258.486085 202.579823 
L 257.824855 202.578558 
L 257.163624 202.578453 
L 256.502394 202.579408 
L 255.841163 202.579995 
L 255.179933 202.579322 
L 254.518702 202.578407 
L 253.857471 202.577919 
L 253.196241 202.577166 
L 252.53501 202.576607 
L 251.87378 202.577017 
L 251.212549 202.578177 
L 250.551319 202.579434 
L 249.890088 202.579997 
L 249.228857 202.579995 
L 248.567627 202.579638 
L 247.906396 202.577075 
L 247.245166 202.56594 
L 246.583935 202.538755 
L 245.922705 202.500522 
L 245.261474 202.461598 
L 244.600243 202.40768 
L 243.939013 202.31543 
L 243.277782 202.222793 
L 242.616552 202.217694 
L 241.955321 202.302135 
L 241.294091 202.387087 
L 240.63286 202.423284 
L 239.971629 202.423255 
L 239.310399 202.417643 
L 238.649168 202.421311 
L 237.987938 202.426675 
L 237.326707 202.433826 
L 236.665477 202.446844 
L 236.004246 202.454762 
L 235.343015 202.446928 
L 234.681785 202.427039 
L 234.020554 202.409497 
L 233.359324 202.406641 
L 232.698093 202.413399 
L 232.036863 202.415125 
L 231.375632 202.40351 
L 230.714401 202.371107 
L 230.053171 202.29378 
L 229.39194 202.046659 
L 228.73071 201.0778 
L 228.069479 198.294554 
L 227.408248 194.194585 
L 226.747018 192.838125 
z
" style="fill:#ff0000;fill-opacity:0.75;"/>
   </g>
   <g id="PolyCollection_5">
    <path clip-path="url(#p562092008a)" d="M 226.747018 154.006557 
L 226.747018 173.205693 
L 226.944167 173.350125 
L 227.141317 172.836037 
L 227.338466 171.780938 
L 227.535615 170.394885 
L 227.732764 168.913983 
L 227.929914 167.537438 
L 228.127063 166.390136 
L 228.324212 165.517142 
L 228.521362 164.902111 
L 228.718511 164.495144 
L 228.91566 164.237656 
L 229.11281 164.078072 
L 229.309959 163.978158 
L 229.507108 163.912956 
L 229.704258 163.867783 
L 229.901407 163.834705 
L 230.098556 163.809679 
L 230.295705 163.790626 
L 230.492855 163.7763 
L 230.690004 163.765715 
L 230.887153 163.757917 
L 231.084303 163.751966 
L 231.281452 163.747037 
L 231.478601 163.742542 
L 231.675751 163.738231 
L 231.8729 163.734211 
L 232.070049 163.730881 
L 232.267199 163.728802 
L 232.464348 163.728525 
L 232.661497 163.730399 
L 232.858646 163.734402 
L 233.055796 163.74005 
L 233.252945 163.746409 
L 233.450094 163.752272 
L 233.647244 163.756447 
L 233.844393 163.75808 
L 234.041542 163.75689 
L 234.238692 163.753222 
L 234.435841 163.747909 
L 234.63299 163.742013 
L 234.83014 163.736545 
L 235.027289 163.732265 
L 235.224438 163.729594 
L 235.421588 163.728621 
L 235.618737 163.729173 
L 235.815886 163.730901 
L 236.013035 163.733356 
L 236.210185 163.736065 
L 236.407334 163.738588 
L 236.604483 163.740558 
L 236.801633 163.741715 
L 236.998782 163.741923 
L 237.195931 163.741202 
L 237.393081 163.739748 
L 237.59023 163.737941 
L 237.787379 163.736308 
L 237.984529 163.735429 
L 238.181678 163.735777 
L 238.378827 163.73757 
L 238.575976 163.740667 
L 238.773126 163.744575 
L 238.970275 163.748575 
L 239.167424 163.751928 
L 239.364574 163.754076 
L 239.561723 163.754779 
L 239.758872 163.754127 
L 239.956022 163.752452 
L 240.153171 163.750203 
L 240.35032 163.74789 
L 240.54747 163.746123 
L 240.744619 163.745736 
L 240.941768 163.747883 
L 241.138917 163.754032 
L 241.336067 163.765756 
L 241.533216 163.784364 
L 241.730365 163.810406 
L 241.927515 163.843182 
L 242.124664 163.88039 
L 242.321813 163.91812 
L 242.518963 163.951333 
L 242.716112 163.974863 
L 242.913261 163.984705 
L 243.110411 163.979162 
L 243.30756 163.959375 
L 243.504709 163.928994 
L 243.701858 163.89309 
L 243.899008 163.856772 
L 244.096157 163.824 
L 244.293306 163.79698 
L 244.490456 163.776189 
L 244.687605 163.760833 
L 244.884754 163.749455 
L 245.081904 163.740441 
L 245.279053 163.732321 
L 245.476202 163.723906 
L 245.673352 163.714343 
L 245.870501 163.703174 
L 246.06765 163.690393 
L 246.264799 163.676452 
L 246.264799 163.535798 
L 246.264799 163.535798 
L 246.06765 163.521857 
L 245.870501 163.509076 
L 245.673352 163.497907 
L 245.476202 163.488344 
L 245.279053 163.479929 
L 245.081904 163.471809 
L 244.884754 163.462795 
L 244.687605 163.451417 
L 244.490456 163.436061 
L 244.293306 163.41527 
L 244.096157 163.38825 
L 243.899008 163.355478 
L 243.701858 163.31916 
L 243.504709 163.283256 
L 243.30756 163.252875 
L 243.110411 163.233088 
L 242.913261 163.227545 
L 242.716112 163.237387 
L 242.518963 163.260917 
L 242.321813 163.29413 
L 242.124664 163.33186 
L 241.927515 163.369068 
L 241.730365 163.401844 
L 241.533216 163.427886 
L 241.336067 163.446494 
L 241.138917 163.458218 
L 240.941768 163.464367 
L 240.744619 163.466514 
L 240.54747 163.466127 
L 240.35032 163.46436 
L 240.153171 163.462047 
L 239.956022 163.459798 
L 239.758872 163.458123 
L 239.561723 163.457471 
L 239.364574 163.458174 
L 239.167424 163.460322 
L 238.970275 163.463675 
L 238.773126 163.467675 
L 238.575976 163.471583 
L 238.378827 163.47468 
L 238.181678 163.476473 
L 237.984529 163.476821 
L 237.787379 163.475942 
L 237.59023 163.474309 
L 237.393081 163.472502 
L 237.195931 163.471048 
L 236.998782 163.470327 
L 236.801633 163.470535 
L 236.604483 163.471692 
L 236.407334 163.473662 
L 236.210185 163.476185 
L 236.013035 163.478894 
L 235.815886 163.481349 
L 235.618737 163.483077 
L 235.421588 163.483629 
L 235.224438 163.482656 
L 235.027289 163.479985 
L 234.83014 163.475705 
L 234.63299 163.470237 
L 234.435841 163.464341 
L 234.238692 163.459028 
L 234.041542 163.45536 
L 233.844393 163.45417 
L 233.647244 163.455803 
L 233.450094 163.459978 
L 233.252945 163.465841 
L 233.055796 163.4722 
L 232.858646 163.477848 
L 232.661497 163.481851 
L 232.464348 163.483725 
L 232.267199 163.483448 
L 232.070049 163.481369 
L 231.8729 163.478039 
L 231.675751 163.474019 
L 231.478601 163.469708 
L 231.281452 163.465213 
L 231.084303 163.460284 
L 230.887153 163.454333 
L 230.690004 163.446535 
L 230.492855 163.43595 
L 230.295705 163.421624 
L 230.098556 163.402571 
L 229.901407 163.377545 
L 229.704258 163.344467 
L 229.507108 163.299294 
L 229.309959 163.234092 
L 229.11281 163.134178 
L 228.91566 162.974594 
L 228.718511 162.717106 
L 228.521362 162.310139 
L 228.324212 161.695108 
L 228.127063 160.822114 
L 227.929914 159.674812 
L 227.732764 158.298267 
L 227.535615 156.817365 
L 227.338466 155.431312 
L 227.141317 154.376213 
L 226.944167 153.862125 
L 226.747018 154.006557 
z
" style="fill:#ff0000;fill-opacity:0.75;"/>
   </g>
   <g id="PolyCollection_6">
    <path clip-path="url(#p562092008a)" d="M 226.746875 114.886125 
L 226.746875 134.374125 
L 229.179429 126.303462 
L 231.611982 124.904108 
L 234.044536 124.870927 
L 236.477089 124.809833 
L 238.909643 124.832862 
L 241.342196 124.973087 
L 243.77475 125.127278 
L 246.207304 124.761155 
L 248.639857 124.633093 
L 251.072411 124.630126 
L 253.504964 124.630125 
L 255.937518 124.630125 
L 258.370071 124.630125 
L 260.802625 124.630125 
L 263.235179 124.630125 
L 265.667732 124.630125 
L 268.100286 124.630125 
L 270.532839 124.630125 
L 272.965393 124.630125 
L 275.397947 124.630125 
L 277.8305 124.630125 
L 280.263054 124.630125 
L 282.695607 124.630125 
L 285.128161 124.630125 
L 287.560714 124.630125 
L 289.993268 124.630125 
L 292.425822 124.630125 
L 294.858375 124.630125 
L 297.290929 124.630125 
L 299.723482 124.630125 
L 302.156036 124.630125 
L 304.588589 124.630125 
L 307.021143 124.630125 
L 309.453697 124.630125 
L 311.88625 124.630125 
L 314.318804 124.630125 
L 316.751357 124.630125 
L 319.183911 124.630125 
L 321.616464 124.630125 
L 324.049018 124.630125 
L 326.481572 124.630125 
L 328.914125 124.630125 
L 331.346679 124.630125 
L 333.779232 124.630125 
L 336.211786 124.630125 
L 338.64434 124.630125 
L 341.076893 124.630125 
L 343.509447 124.630125 
L 345.942 124.630125 
L 348.374554 124.630125 
L 350.807107 124.630125 
L 353.239661 124.630125 
L 355.672215 124.630125 
L 358.104768 124.630125 
L 360.537322 124.630125 
L 362.969875 124.630125 
L 365.402429 124.630125 
L 367.834982 124.630125 
L 370.267536 124.630125 
L 372.70009 124.630125 
L 375.132643 124.630125 
L 377.565197 124.630125 
L 379.99775 124.630125 
L 382.430304 124.630125 
L 384.862857 124.630125 
L 387.295411 124.630125 
L 389.727965 124.630125 
L 392.160518 124.630125 
L 394.593072 124.630125 
L 397.025625 124.630125 
L 399.458179 124.630125 
L 401.890733 124.630125 
L 404.323286 124.630125 
L 406.75584 124.630125 
L 409.188393 124.630125 
L 411.620947 124.630125 
L 414.0535 124.630125 
L 416.486054 124.630125 
L 418.918608 124.630125 
L 421.351161 124.630125 
L 423.783715 124.630125 
L 426.216268 124.630125 
L 428.648822 124.630125 
L 431.081375 124.630125 
L 433.513929 124.630125 
L 435.946483 124.630125 
L 438.379036 124.630129 
L 440.81159 124.6309 
L 443.244143 124.630932 
L 445.676697 124.630129 
L 448.10925 124.630125 
L 450.541804 124.630126 
L 452.974358 124.630644 
L 455.406911 124.631213 
L 457.839465 124.630136 
L 460.272018 124.630125 
L 462.704572 124.630125 
L 465.137126 124.630232 
L 467.569679 124.631668 
L 467.569679 124.628582 
L 467.569679 124.628582 
L 465.137126 124.630018 
L 462.704572 124.630125 
L 460.272018 124.630125 
L 457.839465 124.630114 
L 455.406911 124.629037 
L 452.974358 124.629606 
L 450.541804 124.630124 
L 448.10925 124.630125 
L 445.676697 124.630121 
L 443.244143 124.629318 
L 440.81159 124.62935 
L 438.379036 124.630121 
L 435.946483 124.630125 
L 433.513929 124.630125 
L 431.081375 124.630125 
L 428.648822 124.630125 
L 426.216268 124.630125 
L 423.783715 124.630125 
L 421.351161 124.630125 
L 418.918608 124.630125 
L 416.486054 124.630125 
L 414.0535 124.630125 
L 411.620947 124.630125 
L 409.188393 124.630125 
L 406.75584 124.630125 
L 404.323286 124.630125 
L 401.890733 124.630125 
L 399.458179 124.630125 
L 397.025625 124.630125 
L 394.593072 124.630125 
L 392.160518 124.630125 
L 389.727965 124.630125 
L 387.295411 124.630125 
L 384.862857 124.630125 
L 382.430304 124.630125 
L 379.99775 124.630125 
L 377.565197 124.630125 
L 375.132643 124.630125 
L 372.70009 124.630125 
L 370.267536 124.630125 
L 367.834982 124.630125 
L 365.402429 124.630125 
L 362.969875 124.630125 
L 360.537322 124.630125 
L 358.104768 124.630125 
L 355.672215 124.630125 
L 353.239661 124.630125 
L 350.807107 124.630125 
L 348.374554 124.630125 
L 345.942 124.630125 
L 343.509447 124.630125 
L 341.076893 124.630125 
L 338.64434 124.630125 
L 336.211786 124.630125 
L 333.779232 124.630125 
L 331.346679 124.630125 
L 328.914125 124.630125 
L 326.481572 124.630125 
L 324.049018 124.630125 
L 321.616464 124.630125 
L 319.183911 124.630125 
L 316.751357 124.630125 
L 314.318804 124.630125 
L 311.88625 124.630125 
L 309.453697 124.630125 
L 307.021143 124.630125 
L 304.588589 124.630125 
L 302.156036 124.630125 
L 299.723482 124.630125 
L 297.290929 124.630125 
L 294.858375 124.630125 
L 292.425822 124.630125 
L 289.993268 124.630125 
L 287.560714 124.630125 
L 285.128161 124.630125 
L 282.695607 124.630125 
L 280.263054 124.630125 
L 277.8305 124.630125 
L 275.397947 124.630125 
L 272.965393 124.630125 
L 270.532839 124.630125 
L 268.100286 124.630125 
L 265.667732 124.630125 
L 263.235179 124.630125 
L 260.802625 124.630125 
L 258.370071 124.630125 
L 255.937518 124.630125 
L 253.504964 124.630125 
L 251.072411 124.630124 
L 248.639857 124.627157 
L 246.207304 124.499095 
L 243.77475 124.132972 
L 241.342196 124.287163 
L 238.909643 124.427388 
L 236.477089 124.450417 
L 234.044536 124.389323 
L 231.611982 124.356142 
L 229.179429 122.956788 
L 226.746875 114.886125 
z
" style="fill:#ff0000;fill-opacity:0.75;"/>
   </g>
   <g id="PolyCollection_7">
    <path clip-path="url(#p562092008a)" d="M 226.747246 78.702032 
L 226.747246 92.606218 
L 226.944467 93.714211 
L 227.141687 94.606216 
L 227.338908 95.187816 
L 227.536129 95.398125 
L 227.73335 95.220291 
L 227.93057 94.683391 
L 228.127791 93.855621 
L 228.325012 92.830889 
L 228.522233 91.712294 
L 228.719454 90.596248 
L 228.916674 89.560354 
L 229.113895 88.656748 
L 229.311116 87.911108 
L 229.508337 87.326232 
L 229.705557 86.888323 
L 229.902778 86.574026 
L 230.099999 86.356642 
L 230.29722 86.210652 
L 230.494441 86.114343 
L 230.691661 86.050826 
L 230.888882 86.007944 
L 231.086103 85.977575 
L 231.283324 85.954701 
L 231.480544 85.936487 
L 231.677765 85.92148 
L 231.874986 85.90898 
L 232.072207 85.898614 
L 232.269428 85.890082 
L 232.466648 85.883069 
L 232.663869 85.877265 
L 232.86109 85.872431 
L 233.058311 85.868464 
L 233.255531 85.865414 
L 233.452752 85.863444 
L 233.649973 85.862747 
L 233.847194 85.863433 
L 234.044415 85.865451 
L 234.241635 85.868536 
L 234.438856 85.872229 
L 234.636077 85.875958 
L 234.833298 85.879155 
L 235.030518 85.881389 
L 235.227739 85.882463 
L 235.42496 85.88245 
L 235.622181 85.881658 
L 235.819402 85.880521 
L 236.016622 85.879472 
L 236.213843 85.878838 
L 236.411064 85.878783 
L 236.608285 85.879327 
L 236.805505 85.880395 
L 237.002726 85.881882 
L 237.199947 85.883668 
L 237.397168 85.88561 
L 237.594389 85.887494 
L 237.791609 85.889009 
L 237.98883 85.889768 
L 238.186051 85.889374 
L 238.383272 85.887525 
L 238.580492 85.884102 
L 238.777713 85.879222 
L 238.974934 85.87322 
L 239.172155 85.866584 
L 239.369376 85.859866 
L 239.566596 85.853608 
L 239.763817 85.848294 
L 239.961038 85.844358 
L 240.158259 85.842221 
L 240.355479 85.842337 
L 240.5527 85.845236 
L 240.749921 85.851568 
L 240.947142 85.862132 
L 241.144363 85.877915 
L 241.341583 85.900135 
L 241.538804 85.930223 
L 241.736025 85.969698 
L 241.933246 86.019863 
L 242.130466 86.081298 
L 242.327687 86.153232 
L 242.524908 86.232979 
L 242.722129 86.315669 
L 242.91935 86.394501 
L 243.11657 86.461607 
L 243.313791 86.509388 
L 243.511012 86.532018 
L 243.708233 86.526668 
L 243.905453 86.494093 
L 244.102674 86.438396 
L 244.299895 86.366055 
L 244.497116 86.284541 
L 244.694337 86.200914 
L 244.891557 86.120766 
L 245.088778 86.047698 
L 245.285999 85.983342 
L 245.48322 85.927772 
L 245.68044 85.88011 
L 245.877661 85.839115 
L 246.074882 85.803631 
L 246.272103 85.77282 
L 246.272103 85.53543 
L 246.272103 85.53543 
L 246.074882 85.504619 
L 245.877661 85.469135 
L 245.68044 85.42814 
L 245.48322 85.380478 
L 245.285999 85.324908 
L 245.088778 85.260552 
L 244.891557 85.187484 
L 244.694337 85.107336 
L 244.497116 85.023709 
L 244.299895 84.942195 
L 244.102674 84.869854 
L 243.905453 84.814157 
L 243.708233 84.781582 
L 243.511012 84.776232 
L 243.313791 84.798862 
L 243.11657 84.846643 
L 242.91935 84.913749 
L 242.722129 84.992581 
L 242.524908 85.075271 
L 242.327687 85.155018 
L 242.130466 85.226952 
L 241.933246 85.288387 
L 241.736025 85.338552 
L 241.538804 85.378027 
L 241.341583 85.408115 
L 241.144363 85.430335 
L 240.947142 85.446118 
L 240.749921 85.456682 
L 240.5527 85.463014 
L 240.355479 85.465913 
L 240.158259 85.466029 
L 239.961038 85.463892 
L 239.763817 85.459956 
L 239.566596 85.454642 
L 239.369376 85.448384 
L 239.172155 85.441666 
L 238.974934 85.43503 
L 238.777713 85.429028 
L 238.580492 85.424148 
L 238.383272 85.420725 
L 238.186051 85.418876 
L 237.98883 85.418482 
L 237.791609 85.419241 
L 237.594389 85.420756 
L 237.397168 85.42264 
L 237.199947 85.424582 
L 237.002726 85.426368 
L 236.805505 85.427855 
L 236.608285 85.428923 
L 236.411064 85.429467 
L 236.213843 85.429412 
L 236.016622 85.428778 
L 235.819402 85.427729 
L 235.622181 85.426592 
L 235.42496 85.4258 
L 235.227739 85.425787 
L 235.030518 85.426861 
L 234.833298 85.429095 
L 234.636077 85.432292 
L 234.438856 85.436021 
L 234.241635 85.439714 
L 234.044415 85.442799 
L 233.847194 85.444817 
L 233.649973 85.445503 
L 233.452752 85.444806 
L 233.255531 85.442836 
L 233.058311 85.439786 
L 232.86109 85.435819 
L 232.663869 85.430985 
L 232.466648 85.425181 
L 232.269428 85.418168 
L 232.072207 85.409636 
L 231.874986 85.39927 
L 231.677765 85.38677 
L 231.480544 85.371763 
L 231.283324 85.353549 
L 231.086103 85.330675 
L 230.888882 85.300306 
L 230.691661 85.257424 
L 230.494441 85.193907 
L 230.29722 85.097598 
L 230.099999 84.951608 
L 229.902778 84.734224 
L 229.705557 84.419927 
L 229.508337 83.982018 
L 229.311116 83.397142 
L 229.113895 82.651502 
L 228.916674 81.747896 
L 228.719454 80.712002 
L 228.522233 79.595956 
L 228.325012 78.477361 
L 228.127791 77.452629 
L 227.93057 76.624859 
L 227.73335 76.087959 
L 227.536129 75.910125 
L 227.338908 76.120434 
L 227.141687 76.702034 
L 226.944467 77.594039 
L 226.747246 78.702032 
z
" style="fill:#ff0000;fill-opacity:0.75;"/>
   </g>
   <g id="PolyCollection_8">
    <path clip-path="url(#p562092008a)" d="M 226.746875 37.683994 
L 226.746875 55.672256 
L 227.010576 56.422125 
L 227.274277 55.970506 
L 227.537978 54.522437 
L 227.801679 52.588089 
L 228.06538 50.702266 
L 228.329081 49.203731 
L 228.592782 48.184083 
L 228.856483 47.568334 
L 229.120183 47.225754 
L 229.383884 47.042156 
L 229.647585 46.943041 
L 229.911286 46.887921 
L 230.174987 46.856917 
L 230.438688 46.840112 
L 230.702389 46.831763 
L 230.96609 46.827963 
L 231.229791 46.826078 
L 231.493492 46.824723 
L 231.757193 46.823567 
L 232.020894 46.822716 
L 232.284595 46.822101 
L 232.548296 46.82135 
L 232.811997 46.820158 
L 233.075698 46.818592 
L 233.339398 46.816891 
L 233.603099 46.814988 
L 233.8668 46.812357 
L 234.130501 46.808403 
L 234.394202 46.802958 
L 234.657903 46.79642 
L 234.921604 46.789548 
L 235.185305 46.783343 
L 235.449006 46.779085 
L 235.712707 46.778183 
L 235.976408 46.781574 
L 236.240109 46.78894 
L 236.50381 46.798343 
L 236.767511 46.806764 
L 237.031212 46.811434 
L 237.294913 46.811196 
L 237.558613 46.80702 
L 237.822314 46.801347 
L 238.086015 46.796743 
L 238.349716 46.79468 
L 238.613417 46.795044 
L 238.877118 46.796538 
L 239.140819 46.797654 
L 239.40452 46.797588 
L 239.668221 46.796514 
L 239.931922 46.795249 
L 240.195623 46.794828 
L 240.459324 46.796414 
L 240.723025 46.801476 
L 240.986726 46.811853 
L 241.250427 46.829414 
L 241.514128 46.855331 
L 241.777828 46.889142 
L 242.041529 46.927964 
L 242.30523 46.966257 
L 242.568931 46.996671 
L 242.832632 47.012188 
L 243.096333 47.008906 
L 243.360034 46.987867 
L 243.623735 46.954553 
L 243.887436 46.916338 
L 244.151137 46.87965 
L 244.414838 46.848385 
L 244.678539 46.823759 
L 244.94224 46.804888 
L 245.205941 46.789611 
L 245.469642 46.775435 
L 245.733343 46.760511 
L 245.997043 46.744281 
L 246.260744 46.727551 
L 246.524445 46.711944 
L 246.788146 46.699047 
L 247.051847 46.689709 
L 247.315548 46.683822 
L 247.579249 46.68061 
L 247.84295 46.679118 
L 248.106651 46.678576 
L 248.370352 46.678518 
L 248.634053 46.678713 
L 248.897754 46.679038 
L 249.161455 46.679383 
L 249.425156 46.679623 
L 249.688857 46.67966 
L 249.952558 46.67948 
L 250.216258 46.679156 
L 250.479959 46.678802 
L 250.74366 46.678517 
L 251.007361 46.678348 
L 251.271062 46.678306 
L 251.534763 46.67839 
L 251.798464 46.6786 
L 252.062165 46.678916 
L 252.325866 46.679273 
L 252.589567 46.679562 
L 252.853268 46.679673 
L 252.853268 46.676577 
L 252.853268 46.676577 
L 252.589567 46.676688 
L 252.325866 46.676977 
L 252.062165 46.677334 
L 251.798464 46.67765 
L 251.534763 46.67786 
L 251.271062 46.677944 
L 251.007361 46.677902 
L 250.74366 46.677733 
L 250.479959 46.677448 
L 250.216258 46.677094 
L 249.952558 46.67677 
L 249.688857 46.67659 
L 249.425156 46.676627 
L 249.161455 46.676867 
L 248.897754 46.677212 
L 248.634053 46.677537 
L 248.370352 46.677732 
L 248.106651 46.677674 
L 247.84295 46.677132 
L 247.579249 46.67564 
L 247.315548 46.672428 
L 247.051847 46.666541 
L 246.788146 46.657203 
L 246.524445 46.644306 
L 246.260744 46.628699 
L 245.997043 46.611969 
L 245.733343 46.595739 
L 245.469642 46.580815 
L 245.205941 46.566639 
L 244.94224 46.551362 
L 244.678539 46.532491 
L 244.414838 46.507865 
L 244.151137 46.4766 
L 243.887436 46.439912 
L 243.623735 46.401697 
L 243.360034 46.368383 
L 243.096333 46.347344 
L 242.832632 46.344062 
L 242.568931 46.359579 
L 242.30523 46.389993 
L 242.041529 46.428286 
L 241.777828 46.467108 
L 241.514128 46.500919 
L 241.250427 46.526836 
L 240.986726 46.544397 
L 240.723025 46.554774 
L 240.459324 46.559836 
L 240.195623 46.561422 
L 239.931922 46.561001 
L 239.668221 46.559736 
L 239.40452 46.558662 
L 239.140819 46.558596 
L 238.877118 46.559712 
L 238.613417 46.561206 
L 238.349716 46.56157 
L 238.086015 46.559507 
L 237.822314 46.554903 
L 237.558613 46.54923 
L 237.294913 46.545054 
L 237.031212 46.544816 
L 236.767511 46.549486 
L 236.50381 46.557907 
L 236.240109 46.56731 
L 235.976408 46.574676 
L 235.712707 46.578067 
L 235.449006 46.577165 
L 235.185305 46.572907 
L 234.921604 46.566702 
L 234.657903 46.55983 
L 234.394202 46.553292 
L 234.130501 46.547847 
L 233.8668 46.543893 
L 233.603099 46.541262 
L 233.339398 46.539359 
L 233.075698 46.537658 
L 232.811997 46.536092 
L 232.548296 46.5349 
L 232.284595 46.534149 
L 232.020894 46.533534 
L 231.757193 46.532683 
L 231.493492 46.531527 
L 231.229791 46.530172 
L 230.96609 46.528287 
L 230.702389 46.524487 
L 230.438688 46.516138 
L 230.174987 46.499333 
L 229.911286 46.468329 
L 229.647585 46.413209 
L 229.383884 46.314094 
L 229.120183 46.130496 
L 228.856483 45.787916 
L 228.592782 45.172167 
L 228.329081 44.152519 
L 228.06538 42.653984 
L 227.801679 40.768161 
L 227.537978 38.833813 
L 227.274277 37.385744 
L 227.010576 36.934125 
L 226.746875 37.683994 
z
" style="fill:#ff0000;fill-opacity:0.75;"/>
   </g>
   <g id="LineCollection_1">
    <path clip-path="url(#p562092008a)" d="M 228.264285 324.382125 
L 228.264285 314.638125 
" style="fill:none;stroke:#000000;stroke-width:1.5;"/>
    <path clip-path="url(#p562092008a)" d="M 228.20285 285.406125 
L 228.20285 275.662125 
" style="fill:none;stroke:#000000;stroke-width:1.5;"/>
    <path clip-path="url(#p562092008a)" d="M 228.570234 246.430125 
L 228.570234 236.686125 
" style="fill:none;stroke:#000000;stroke-width:1.5;"/>
    <path clip-path="url(#p562092008a)" d="M 228.570332 207.454125 
L 228.570332 197.710125 
" style="fill:none;stroke:#000000;stroke-width:1.5;"/>
    <path clip-path="url(#p562092008a)" d="M 228.469846 168.478125 
L 228.469846 158.734125 
" style="fill:none;stroke:#000000;stroke-width:1.5;"/>
    <path clip-path="url(#p562092008a)" d="M 228.842493 129.502125 
L 228.842493 119.758125 
" style="fill:none;stroke:#000000;stroke-width:1.5;"/>
    <path clip-path="url(#p562092008a)" d="M 229.739136 90.526125 
L 229.739136 80.782125 
" style="fill:none;stroke:#000000;stroke-width:1.5;"/>
    <path clip-path="url(#p562092008a)" d="M 228.495878 51.550125 
L 228.495878 41.806125 
" style="fill:none;stroke:#000000;stroke-width:1.5;"/>
   </g>
   <g id="patch_3">
    <path d="M 226.746875 343.870125 
L 226.746875 22.318125 
" style="fill:none;stroke:#000000;stroke-linecap:square;stroke-linejoin:miter;stroke-width:0.8;"/>
   </g>
   <g id="patch_4">
    <path d="M 617.346875 343.870125 
L 617.346875 22.318125 
" style="fill:none;stroke:#000000;stroke-linecap:square;stroke-linejoin:miter;stroke-width:0.8;"/>
   </g>
   <g id="patch_5">
    <path d="M 226.746875 343.870125 
L 617.346875 343.870125 
" style="fill:none;stroke:#000000;stroke-linecap:square;stroke-linejoin:miter;stroke-width:0.8;"/>
   </g>
   <g id="patch_6">
    <path d="M 226.746875 22.318125 
L 617.346875 22.318125 
" style="fill:none;stroke:#000000;stroke-linecap:square;stroke-linejoin:miter;stroke-width:0.8;"/>
   </g>
   <g id="text_17">
    <!-- AOE2 for schreiber2018/ismir2018 -->
    <g transform="translate(318.198125 16.318125)scale(0.12 -0.12)">
     <use xlink:href="#DejaVuSans-41"/>
     <use x="68.392578" xlink:href="#DejaVuSans-4f"/>
     <use x="147.103516" xlink:href="#DejaVuSans-45"/>
     <use x="210.287109" xlink:href="#DejaVuSans-32"/>
     <use x="273.910156" xlink:href="#DejaVuSans-20"/>
     <use x="305.697266" xlink:href="#DejaVuSans-66"/>
     <use x="340.902344" xlink:href="#DejaVuSans-6f"/>
     <use x="402.083984" xlink:href="#DejaVuSans-72"/>
     <use x="443.197266" xlink:href="#DejaVuSans-20"/>
     <use x="474.984375" xlink:href="#DejaVuSans-73"/>
     <use x="527.083984" xlink:href="#DejaVuSans-63"/>
     <use x="582.064453" xlink:href="#DejaVuSans-68"/>
     <use x="645.443359" xlink:href="#DejaVuSans-72"/>
     <use x="686.525391" xlink:href="#DejaVuSans-65"/>
     <use x="748.048828" xlink:href="#DejaVuSans-69"/>
     <use x="775.832031" xlink:href="#DejaVuSans-62"/>
     <use x="839.308594" xlink:href="#DejaVuSans-65"/>
     <use x="900.832031" xlink:href="#DejaVuSans-72"/>
     <use x="941.945312" xlink:href="#DejaVuSans-32"/>
     <use x="1005.568359" xlink:href="#DejaVuSans-30"/>
     <use x="1069.191406" xlink:href="#DejaVuSans-31"/>
     <use x="1132.814453" xlink:href="#DejaVuSans-38"/>
     <use x="1196.4375" xlink:href="#DejaVuSans-2f"/>
     <use x="1230.128906" xlink:href="#DejaVuSans-69"/>
     <use x="1257.912109" xlink:href="#DejaVuSans-73"/>
     <use x="1310.011719" xlink:href="#DejaVuSans-6d"/>
     <use x="1407.423828" xlink:href="#DejaVuSans-69"/>
     <use x="1435.207031" xlink:href="#DejaVuSans-72"/>
     <use x="1476.320312" xlink:href="#DejaVuSans-32"/>
     <use x="1539.943359" xlink:href="#DejaVuSans-30"/>
     <use x="1603.566406" xlink:href="#DejaVuSans-31"/>
     <use x="1667.189453" xlink:href="#DejaVuSans-38"/>
    </g>
   </g>
  </g>
 </g>
 <defs>
  <clipPath id="p562092008a">
   <rect height="321.552" width="390.6" x="226.746875" y="22.318125"/>
  </clipPath>
 </defs>
</svg>
