<?xml version="1.0" encoding="utf-8" standalone="no"?>
<!DOCTYPE svg PUBLIC "-//W3C//DTD SVG 1.1//EN"
  "http://www.w3.org/Graphics/SVG/1.1/DTD/svg11.dtd">
<!-- Created with matplotlib (http://matplotlib.org/) -->
<svg height="370.338375pt" version="1.1" viewBox="0 0 630.909375 370.338375" width="630.909375pt" xmlns="http://www.w3.org/2000/svg" xmlns:xlink="http://www.w3.org/1999/xlink">
 <defs>
  <style type="text/css">
*{stroke-linecap:butt;stroke-linejoin:round;}
  </style>
 </defs>
 <g id="figure_1">
  <g id="patch_1">
   <path d="M -0 370.338375 
L 630.909375 370.338375 
L 630.909375 0 
L -0 0 
z
" style="fill:#ffffff;"/>
  </g>
  <g id="axes_1">
   <g id="patch_2">
    <path d="M 226.746875 332.782125 
L 617.346875 332.782125 
L 617.346875 22.318125 
L 226.746875 22.318125 
z
" style="fill:#ffffff;"/>
   </g>
   <g id="matplotlib.axis_1">
    <g id="xtick_1">
     <g id="line2d_1">
      <path clip-path="url(#pbbb08b958c)" d="M 252.786875 332.782125 
L 252.786875 22.318125 
" style="fill:none;stroke:#b0b0b0;stroke-linecap:square;stroke-width:0.8;"/>
     </g>
     <g id="line2d_2">
      <defs>
       <path d="M 0 0 
L 0 3.5 
" id="me8740b6b24" style="stroke:#000000;stroke-width:0.8;"/>
      </defs>
      <g>
       <use style="stroke:#000000;stroke-width:0.8;" x="252.786875" xlink:href="#me8740b6b24" y="332.782125"/>
      </g>
     </g>
     <g id="text_1">
      <!-- −4 -->
      <defs>
       <path d="M 10.59375 35.5 
L 73.1875 35.5 
L 73.1875 27.203125 
L 10.59375 27.203125 
z
" id="DejaVuSans-2212"/>
       <path d="M 37.796875 64.3125 
L 12.890625 25.390625 
L 37.796875 25.390625 
z
M 35.203125 72.90625 
L 47.609375 72.90625 
L 47.609375 25.390625 
L 58.015625 25.390625 
L 58.015625 17.1875 
L 47.609375 17.1875 
L 47.609375 0 
L 37.796875 0 
L 37.796875 17.1875 
L 4.890625 17.1875 
L 4.890625 26.703125 
z
" id="DejaVuSans-34"/>
      </defs>
      <g transform="translate(245.415781 347.380562)scale(0.1 -0.1)">
       <use xlink:href="#DejaVuSans-2212"/>
       <use x="83.789062" xlink:href="#DejaVuSans-34"/>
      </g>
     </g>
    </g>
    <g id="xtick_2">
     <g id="line2d_3">
      <path clip-path="url(#pbbb08b958c)" d="M 304.866875 332.782125 
L 304.866875 22.318125 
" style="fill:none;stroke:#b0b0b0;stroke-linecap:square;stroke-width:0.8;"/>
     </g>
     <g id="line2d_4">
      <g>
       <use style="stroke:#000000;stroke-width:0.8;" x="304.866875" xlink:href="#me8740b6b24" y="332.782125"/>
      </g>
     </g>
     <g id="text_2">
      <!-- −2 -->
      <defs>
       <path d="M 19.1875 8.296875 
L 53.609375 8.296875 
L 53.609375 0 
L 7.328125 0 
L 7.328125 8.296875 
Q 12.9375 14.109375 22.625 23.890625 
Q 32.328125 33.6875 34.8125 36.53125 
Q 39.546875 41.84375 41.421875 45.53125 
Q 43.3125 49.21875 43.3125 52.78125 
Q 43.3125 58.59375 39.234375 62.25 
Q 35.15625 65.921875 28.609375 65.921875 
Q 23.96875 65.921875 18.8125 64.3125 
Q 13.671875 62.703125 7.8125 59.421875 
L 7.8125 69.390625 
Q 13.765625 71.78125 18.9375 73 
Q 24.125 74.21875 28.421875 74.21875 
Q 39.75 74.21875 46.484375 68.546875 
Q 53.21875 62.890625 53.21875 53.421875 
Q 53.21875 48.921875 51.53125 44.890625 
Q 49.859375 40.875 45.40625 35.40625 
Q 44.1875 33.984375 37.640625 27.21875 
Q 31.109375 20.453125 19.1875 8.296875 
z
" id="DejaVuSans-32"/>
      </defs>
      <g transform="translate(297.495781 347.380562)scale(0.1 -0.1)">
       <use xlink:href="#DejaVuSans-2212"/>
       <use x="83.789062" xlink:href="#DejaVuSans-32"/>
      </g>
     </g>
    </g>
    <g id="xtick_3">
     <g id="line2d_5">
      <path clip-path="url(#pbbb08b958c)" d="M 356.946875 332.782125 
L 356.946875 22.318125 
" style="fill:none;stroke:#b0b0b0;stroke-linecap:square;stroke-width:0.8;"/>
     </g>
     <g id="line2d_6">
      <g>
       <use style="stroke:#000000;stroke-width:0.8;" x="356.946875" xlink:href="#me8740b6b24" y="332.782125"/>
      </g>
     </g>
     <g id="text_3">
      <!-- 0 -->
      <defs>
       <path d="M 31.78125 66.40625 
Q 24.171875 66.40625 20.328125 58.90625 
Q 16.5 51.421875 16.5 36.375 
Q 16.5 21.390625 20.328125 13.890625 
Q 24.171875 6.390625 31.78125 6.390625 
Q 39.453125 6.390625 43.28125 13.890625 
Q 47.125 21.390625 47.125 36.375 
Q 47.125 51.421875 43.28125 58.90625 
Q 39.453125 66.40625 31.78125 66.40625 
z
M 31.78125 74.21875 
Q 44.046875 74.21875 50.515625 64.515625 
Q 56.984375 54.828125 56.984375 36.375 
Q 56.984375 17.96875 50.515625 8.265625 
Q 44.046875 -1.421875 31.78125 -1.421875 
Q 19.53125 -1.421875 13.0625 8.265625 
Q 6.59375 17.96875 6.59375 36.375 
Q 6.59375 54.828125 13.0625 64.515625 
Q 19.53125 74.21875 31.78125 74.21875 
z
" id="DejaVuSans-30"/>
      </defs>
      <g transform="translate(353.765625 347.380562)scale(0.1 -0.1)">
       <use xlink:href="#DejaVuSans-30"/>
      </g>
     </g>
    </g>
    <g id="xtick_4">
     <g id="line2d_7">
      <path clip-path="url(#pbbb08b958c)" d="M 409.026875 332.782125 
L 409.026875 22.318125 
" style="fill:none;stroke:#b0b0b0;stroke-linecap:square;stroke-width:0.8;"/>
     </g>
     <g id="line2d_8">
      <g>
       <use style="stroke:#000000;stroke-width:0.8;" x="409.026875" xlink:href="#me8740b6b24" y="332.782125"/>
      </g>
     </g>
     <g id="text_4">
      <!-- 2 -->
      <g transform="translate(405.845625 347.380562)scale(0.1 -0.1)">
       <use xlink:href="#DejaVuSans-32"/>
      </g>
     </g>
    </g>
    <g id="xtick_5">
     <g id="line2d_9">
      <path clip-path="url(#pbbb08b958c)" d="M 461.106875 332.782125 
L 461.106875 22.318125 
" style="fill:none;stroke:#b0b0b0;stroke-linecap:square;stroke-width:0.8;"/>
     </g>
     <g id="line2d_10">
      <g>
       <use style="stroke:#000000;stroke-width:0.8;" x="461.106875" xlink:href="#me8740b6b24" y="332.782125"/>
      </g>
     </g>
     <g id="text_5">
      <!-- 4 -->
      <g transform="translate(457.925625 347.380562)scale(0.1 -0.1)">
       <use xlink:href="#DejaVuSans-34"/>
      </g>
     </g>
    </g>
    <g id="xtick_6">
     <g id="line2d_11">
      <path clip-path="url(#pbbb08b958c)" d="M 513.186875 332.782125 
L 513.186875 22.318125 
" style="fill:none;stroke:#b0b0b0;stroke-linecap:square;stroke-width:0.8;"/>
     </g>
     <g id="line2d_12">
      <g>
       <use style="stroke:#000000;stroke-width:0.8;" x="513.186875" xlink:href="#me8740b6b24" y="332.782125"/>
      </g>
     </g>
     <g id="text_6">
      <!-- 6 -->
      <defs>
       <path d="M 33.015625 40.375 
Q 26.375 40.375 22.484375 35.828125 
Q 18.609375 31.296875 18.609375 23.390625 
Q 18.609375 15.53125 22.484375 10.953125 
Q 26.375 6.390625 33.015625 6.390625 
Q 39.65625 6.390625 43.53125 10.953125 
Q 47.40625 15.53125 47.40625 23.390625 
Q 47.40625 31.296875 43.53125 35.828125 
Q 39.65625 40.375 33.015625 40.375 
z
M 52.59375 71.296875 
L 52.59375 62.3125 
Q 48.875 64.0625 45.09375 64.984375 
Q 41.3125 65.921875 37.59375 65.921875 
Q 27.828125 65.921875 22.671875 59.328125 
Q 17.53125 52.734375 16.796875 39.40625 
Q 19.671875 43.65625 24.015625 45.921875 
Q 28.375 48.1875 33.59375 48.1875 
Q 44.578125 48.1875 50.953125 41.515625 
Q 57.328125 34.859375 57.328125 23.390625 
Q 57.328125 12.15625 50.6875 5.359375 
Q 44.046875 -1.421875 33.015625 -1.421875 
Q 20.359375 -1.421875 13.671875 8.265625 
Q 6.984375 17.96875 6.984375 36.375 
Q 6.984375 53.65625 15.1875 63.9375 
Q 23.390625 74.21875 37.203125 74.21875 
Q 40.921875 74.21875 44.703125 73.484375 
Q 48.484375 72.75 52.59375 71.296875 
z
" id="DejaVuSans-36"/>
      </defs>
      <g transform="translate(510.005625 347.380562)scale(0.1 -0.1)">
       <use xlink:href="#DejaVuSans-36"/>
      </g>
     </g>
    </g>
    <g id="xtick_7">
     <g id="line2d_13">
      <path clip-path="url(#pbbb08b958c)" d="M 565.266875 332.782125 
L 565.266875 22.318125 
" style="fill:none;stroke:#b0b0b0;stroke-linecap:square;stroke-width:0.8;"/>
     </g>
     <g id="line2d_14">
      <g>
       <use style="stroke:#000000;stroke-width:0.8;" x="565.266875" xlink:href="#me8740b6b24" y="332.782125"/>
      </g>
     </g>
     <g id="text_7">
      <!-- 8 -->
      <defs>
       <path d="M 31.78125 34.625 
Q 24.75 34.625 20.71875 30.859375 
Q 16.703125 27.09375 16.703125 20.515625 
Q 16.703125 13.921875 20.71875 10.15625 
Q 24.75 6.390625 31.78125 6.390625 
Q 38.8125 6.390625 42.859375 10.171875 
Q 46.921875 13.96875 46.921875 20.515625 
Q 46.921875 27.09375 42.890625 30.859375 
Q 38.875 34.625 31.78125 34.625 
z
M 21.921875 38.8125 
Q 15.578125 40.375 12.03125 44.71875 
Q 8.5 49.078125 8.5 55.328125 
Q 8.5 64.0625 14.71875 69.140625 
Q 20.953125 74.21875 31.78125 74.21875 
Q 42.671875 74.21875 48.875 69.140625 
Q 55.078125 64.0625 55.078125 55.328125 
Q 55.078125 49.078125 51.53125 44.71875 
Q 48 40.375 41.703125 38.8125 
Q 48.828125 37.15625 52.796875 32.3125 
Q 56.78125 27.484375 56.78125 20.515625 
Q 56.78125 9.90625 50.3125 4.234375 
Q 43.84375 -1.421875 31.78125 -1.421875 
Q 19.734375 -1.421875 13.25 4.234375 
Q 6.78125 9.90625 6.78125 20.515625 
Q 6.78125 27.484375 10.78125 32.3125 
Q 14.796875 37.15625 21.921875 38.8125 
z
M 18.3125 54.390625 
Q 18.3125 48.734375 21.84375 45.5625 
Q 25.390625 42.390625 31.78125 42.390625 
Q 38.140625 42.390625 41.71875 45.5625 
Q 45.3125 48.734375 45.3125 54.390625 
Q 45.3125 60.0625 41.71875 63.234375 
Q 38.140625 66.40625 31.78125 66.40625 
Q 25.390625 66.40625 21.84375 63.234375 
Q 18.3125 60.0625 18.3125 54.390625 
z
" id="DejaVuSans-38"/>
      </defs>
      <g transform="translate(562.085625 347.380562)scale(0.1 -0.1)">
       <use xlink:href="#DejaVuSans-38"/>
      </g>
     </g>
    </g>
    <g id="xtick_8">
     <g id="line2d_15">
      <path clip-path="url(#pbbb08b958c)" d="M 617.346875 332.782125 
L 617.346875 22.318125 
" style="fill:none;stroke:#b0b0b0;stroke-linecap:square;stroke-width:0.8;"/>
     </g>
     <g id="line2d_16">
      <g>
       <use style="stroke:#000000;stroke-width:0.8;" x="617.346875" xlink:href="#me8740b6b24" y="332.782125"/>
      </g>
     </g>
     <g id="text_8">
      <!-- 10 -->
      <defs>
       <path d="M 12.40625 8.296875 
L 28.515625 8.296875 
L 28.515625 63.921875 
L 10.984375 60.40625 
L 10.984375 69.390625 
L 28.421875 72.90625 
L 38.28125 72.90625 
L 38.28125 8.296875 
L 54.390625 8.296875 
L 54.390625 0 
L 12.40625 0 
z
" id="DejaVuSans-31"/>
      </defs>
      <g transform="translate(610.984375 347.380562)scale(0.1 -0.1)">
       <use xlink:href="#DejaVuSans-31"/>
       <use x="63.623047" xlink:href="#DejaVuSans-30"/>
      </g>
     </g>
    </g>
    <g id="text_9">
     <!-- OE1 (TO) -->
     <defs>
      <path d="M 39.40625 66.21875 
Q 28.65625 66.21875 22.328125 58.203125 
Q 16.015625 50.203125 16.015625 36.375 
Q 16.015625 22.609375 22.328125 14.59375 
Q 28.65625 6.59375 39.40625 6.59375 
Q 50.140625 6.59375 56.421875 14.59375 
Q 62.703125 22.609375 62.703125 36.375 
Q 62.703125 50.203125 56.421875 58.203125 
Q 50.140625 66.21875 39.40625 66.21875 
z
M 39.40625 74.21875 
Q 54.734375 74.21875 63.90625 63.9375 
Q 73.09375 53.65625 73.09375 36.375 
Q 73.09375 19.140625 63.90625 8.859375 
Q 54.734375 -1.421875 39.40625 -1.421875 
Q 24.03125 -1.421875 14.8125 8.828125 
Q 5.609375 19.09375 5.609375 36.375 
Q 5.609375 53.65625 14.8125 63.9375 
Q 24.03125 74.21875 39.40625 74.21875 
z
" id="DejaVuSans-4f"/>
      <path d="M 9.8125 72.90625 
L 55.90625 72.90625 
L 55.90625 64.59375 
L 19.671875 64.59375 
L 19.671875 43.015625 
L 54.390625 43.015625 
L 54.390625 34.71875 
L 19.671875 34.71875 
L 19.671875 8.296875 
L 56.78125 8.296875 
L 56.78125 0 
L 9.8125 0 
z
" id="DejaVuSans-45"/>
      <path id="DejaVuSans-20"/>
      <path d="M 31 75.875 
Q 24.46875 64.65625 21.28125 53.65625 
Q 18.109375 42.671875 18.109375 31.390625 
Q 18.109375 20.125 21.3125 9.0625 
Q 24.515625 -2 31 -13.1875 
L 23.1875 -13.1875 
Q 15.875 -1.703125 12.234375 9.375 
Q 8.59375 20.453125 8.59375 31.390625 
Q 8.59375 42.28125 12.203125 53.3125 
Q 15.828125 64.359375 23.1875 75.875 
z
" id="DejaVuSans-28"/>
      <path d="M -0.296875 72.90625 
L 61.375 72.90625 
L 61.375 64.59375 
L 35.5 64.59375 
L 35.5 0 
L 25.59375 0 
L 25.59375 64.59375 
L -0.296875 64.59375 
z
" id="DejaVuSans-54"/>
      <path d="M 8.015625 75.875 
L 15.828125 75.875 
Q 23.140625 64.359375 26.78125 53.3125 
Q 30.421875 42.28125 30.421875 31.390625 
Q 30.421875 20.453125 26.78125 9.375 
Q 23.140625 -1.703125 15.828125 -13.1875 
L 8.015625 -13.1875 
Q 14.5 -2 17.703125 9.0625 
Q 20.90625 20.125 20.90625 31.390625 
Q 20.90625 42.671875 17.703125 53.65625 
Q 14.5 64.65625 8.015625 75.875 
z
" id="DejaVuSans-29"/>
     </defs>
     <g transform="translate(399.289844 361.058687)scale(0.1 -0.1)">
      <use xlink:href="#DejaVuSans-4f"/>
      <use x="78.710938" xlink:href="#DejaVuSans-45"/>
      <use x="141.894531" xlink:href="#DejaVuSans-31"/>
      <use x="205.517578" xlink:href="#DejaVuSans-20"/>
      <use x="237.304688" xlink:href="#DejaVuSans-28"/>
      <use x="276.318359" xlink:href="#DejaVuSans-54"/>
      <use x="337.402344" xlink:href="#DejaVuSans-4f"/>
      <use x="416.113281" xlink:href="#DejaVuSans-29"/>
     </g>
    </g>
   </g>
   <g id="matplotlib.axis_2">
    <g id="ytick_1">
     <g id="line2d_17">
      <path clip-path="url(#pbbb08b958c)" d="M 226.746875 305.841034 
L 617.346875 305.841034 
" style="fill:none;stroke:#b0b0b0;stroke-linecap:square;stroke-width:0.8;"/>
     </g>
     <g id="line2d_18">
      <defs>
       <path d="M 0 0 
L -3.5 0 
" id="m22b8a11858" style="stroke:#000000;stroke-width:0.8;"/>
      </defs>
      <g>
       <use style="stroke:#000000;stroke-width:0.8;" x="226.746875" xlink:href="#m22b8a11858" y="305.841034"/>
      </g>
     </g>
     <g id="text_10">
      <!-- schreiber2017/mirex2017 -->
      <defs>
       <path d="M 44.28125 53.078125 
L 44.28125 44.578125 
Q 40.484375 46.53125 36.375 47.5 
Q 32.28125 48.484375 27.875 48.484375 
Q 21.1875 48.484375 17.84375 46.4375 
Q 14.5 44.390625 14.5 40.28125 
Q 14.5 37.15625 16.890625 35.375 
Q 19.28125 33.59375 26.515625 31.984375 
L 29.59375 31.296875 
Q 39.15625 29.25 43.1875 25.515625 
Q 47.21875 21.78125 47.21875 15.09375 
Q 47.21875 7.46875 41.1875 3.015625 
Q 35.15625 -1.421875 24.609375 -1.421875 
Q 20.21875 -1.421875 15.453125 -0.5625 
Q 10.6875 0.296875 5.421875 2 
L 5.421875 11.28125 
Q 10.40625 8.6875 15.234375 7.390625 
Q 20.0625 6.109375 24.8125 6.109375 
Q 31.15625 6.109375 34.5625 8.28125 
Q 37.984375 10.453125 37.984375 14.40625 
Q 37.984375 18.0625 35.515625 20.015625 
Q 33.0625 21.96875 24.703125 23.78125 
L 21.578125 24.515625 
Q 13.234375 26.265625 9.515625 29.90625 
Q 5.8125 33.546875 5.8125 39.890625 
Q 5.8125 47.609375 11.28125 51.796875 
Q 16.75 56 26.8125 56 
Q 31.78125 56 36.171875 55.265625 
Q 40.578125 54.546875 44.28125 53.078125 
z
" id="DejaVuSans-73"/>
       <path d="M 48.78125 52.59375 
L 48.78125 44.1875 
Q 44.96875 46.296875 41.140625 47.34375 
Q 37.3125 48.390625 33.40625 48.390625 
Q 24.65625 48.390625 19.8125 42.84375 
Q 14.984375 37.3125 14.984375 27.296875 
Q 14.984375 17.28125 19.8125 11.734375 
Q 24.65625 6.203125 33.40625 6.203125 
Q 37.3125 6.203125 41.140625 7.25 
Q 44.96875 8.296875 48.78125 10.40625 
L 48.78125 2.09375 
Q 45.015625 0.34375 40.984375 -0.53125 
Q 36.96875 -1.421875 32.421875 -1.421875 
Q 20.0625 -1.421875 12.78125 6.34375 
Q 5.515625 14.109375 5.515625 27.296875 
Q 5.515625 40.671875 12.859375 48.328125 
Q 20.21875 56 33.015625 56 
Q 37.15625 56 41.109375 55.140625 
Q 45.0625 54.296875 48.78125 52.59375 
z
" id="DejaVuSans-63"/>
       <path d="M 54.890625 33.015625 
L 54.890625 0 
L 45.90625 0 
L 45.90625 32.71875 
Q 45.90625 40.484375 42.875 44.328125 
Q 39.84375 48.1875 33.796875 48.1875 
Q 26.515625 48.1875 22.3125 43.546875 
Q 18.109375 38.921875 18.109375 30.90625 
L 18.109375 0 
L 9.078125 0 
L 9.078125 75.984375 
L 18.109375 75.984375 
L 18.109375 46.1875 
Q 21.34375 51.125 25.703125 53.5625 
Q 30.078125 56 35.796875 56 
Q 45.21875 56 50.046875 50.171875 
Q 54.890625 44.34375 54.890625 33.015625 
z
" id="DejaVuSans-68"/>
       <path d="M 41.109375 46.296875 
Q 39.59375 47.171875 37.8125 47.578125 
Q 36.03125 48 33.890625 48 
Q 26.265625 48 22.1875 43.046875 
Q 18.109375 38.09375 18.109375 28.8125 
L 18.109375 0 
L 9.078125 0 
L 9.078125 54.6875 
L 18.109375 54.6875 
L 18.109375 46.1875 
Q 20.953125 51.171875 25.484375 53.578125 
Q 30.03125 56 36.53125 56 
Q 37.453125 56 38.578125 55.875 
Q 39.703125 55.765625 41.0625 55.515625 
z
" id="DejaVuSans-72"/>
       <path d="M 56.203125 29.59375 
L 56.203125 25.203125 
L 14.890625 25.203125 
Q 15.484375 15.921875 20.484375 11.0625 
Q 25.484375 6.203125 34.421875 6.203125 
Q 39.59375 6.203125 44.453125 7.46875 
Q 49.3125 8.734375 54.109375 11.28125 
L 54.109375 2.78125 
Q 49.265625 0.734375 44.1875 -0.34375 
Q 39.109375 -1.421875 33.890625 -1.421875 
Q 20.796875 -1.421875 13.15625 6.1875 
Q 5.515625 13.8125 5.515625 26.8125 
Q 5.515625 40.234375 12.765625 48.109375 
Q 20.015625 56 32.328125 56 
Q 43.359375 56 49.78125 48.890625 
Q 56.203125 41.796875 56.203125 29.59375 
z
M 47.21875 32.234375 
Q 47.125 39.59375 43.09375 43.984375 
Q 39.0625 48.390625 32.421875 48.390625 
Q 24.90625 48.390625 20.390625 44.140625 
Q 15.875 39.890625 15.1875 32.171875 
z
" id="DejaVuSans-65"/>
       <path d="M 9.421875 54.6875 
L 18.40625 54.6875 
L 18.40625 0 
L 9.421875 0 
z
M 9.421875 75.984375 
L 18.40625 75.984375 
L 18.40625 64.59375 
L 9.421875 64.59375 
z
" id="DejaVuSans-69"/>
       <path d="M 48.6875 27.296875 
Q 48.6875 37.203125 44.609375 42.84375 
Q 40.53125 48.484375 33.40625 48.484375 
Q 26.265625 48.484375 22.1875 42.84375 
Q 18.109375 37.203125 18.109375 27.296875 
Q 18.109375 17.390625 22.1875 11.75 
Q 26.265625 6.109375 33.40625 6.109375 
Q 40.53125 6.109375 44.609375 11.75 
Q 48.6875 17.390625 48.6875 27.296875 
z
M 18.109375 46.390625 
Q 20.953125 51.265625 25.265625 53.625 
Q 29.59375 56 35.59375 56 
Q 45.5625 56 51.78125 48.09375 
Q 58.015625 40.1875 58.015625 27.296875 
Q 58.015625 14.40625 51.78125 6.484375 
Q 45.5625 -1.421875 35.59375 -1.421875 
Q 29.59375 -1.421875 25.265625 0.953125 
Q 20.953125 3.328125 18.109375 8.203125 
L 18.109375 0 
L 9.078125 0 
L 9.078125 75.984375 
L 18.109375 75.984375 
z
" id="DejaVuSans-62"/>
       <path d="M 8.203125 72.90625 
L 55.078125 72.90625 
L 55.078125 68.703125 
L 28.609375 0 
L 18.3125 0 
L 43.21875 64.59375 
L 8.203125 64.59375 
z
" id="DejaVuSans-37"/>
       <path d="M 25.390625 72.90625 
L 33.6875 72.90625 
L 8.296875 -9.28125 
L 0 -9.28125 
z
" id="DejaVuSans-2f"/>
       <path d="M 52 44.1875 
Q 55.375 50.25 60.0625 53.125 
Q 64.75 56 71.09375 56 
Q 79.640625 56 84.28125 50.015625 
Q 88.921875 44.046875 88.921875 33.015625 
L 88.921875 0 
L 79.890625 0 
L 79.890625 32.71875 
Q 79.890625 40.578125 77.09375 44.375 
Q 74.3125 48.1875 68.609375 48.1875 
Q 61.625 48.1875 57.5625 43.546875 
Q 53.515625 38.921875 53.515625 30.90625 
L 53.515625 0 
L 44.484375 0 
L 44.484375 32.71875 
Q 44.484375 40.625 41.703125 44.40625 
Q 38.921875 48.1875 33.109375 48.1875 
Q 26.21875 48.1875 22.15625 43.53125 
Q 18.109375 38.875 18.109375 30.90625 
L 18.109375 0 
L 9.078125 0 
L 9.078125 54.6875 
L 18.109375 54.6875 
L 18.109375 46.1875 
Q 21.1875 51.21875 25.484375 53.609375 
Q 29.78125 56 35.6875 56 
Q 41.65625 56 45.828125 52.96875 
Q 50 49.953125 52 44.1875 
z
" id="DejaVuSans-6d"/>
       <path d="M 54.890625 54.6875 
L 35.109375 28.078125 
L 55.90625 0 
L 45.3125 0 
L 29.390625 21.484375 
L 13.484375 0 
L 2.875 0 
L 24.125 28.609375 
L 4.6875 54.6875 
L 15.28125 54.6875 
L 29.78125 35.203125 
L 44.28125 54.6875 
z
" id="DejaVuSans-78"/>
      </defs>
      <g transform="translate(90.084375 309.640253)scale(0.1 -0.1)">
       <use xlink:href="#DejaVuSans-73"/>
       <use x="52.099609" xlink:href="#DejaVuSans-63"/>
       <use x="107.080078" xlink:href="#DejaVuSans-68"/>
       <use x="170.458984" xlink:href="#DejaVuSans-72"/>
       <use x="211.541016" xlink:href="#DejaVuSans-65"/>
       <use x="273.064453" xlink:href="#DejaVuSans-69"/>
       <use x="300.847656" xlink:href="#DejaVuSans-62"/>
       <use x="364.324219" xlink:href="#DejaVuSans-65"/>
       <use x="425.847656" xlink:href="#DejaVuSans-72"/>
       <use x="466.960938" xlink:href="#DejaVuSans-32"/>
       <use x="530.583984" xlink:href="#DejaVuSans-30"/>
       <use x="594.207031" xlink:href="#DejaVuSans-31"/>
       <use x="657.830078" xlink:href="#DejaVuSans-37"/>
       <use x="721.453125" xlink:href="#DejaVuSans-2f"/>
       <use x="755.144531" xlink:href="#DejaVuSans-6d"/>
       <use x="852.556641" xlink:href="#DejaVuSans-69"/>
       <use x="880.339844" xlink:href="#DejaVuSans-72"/>
       <use x="921.421875" xlink:href="#DejaVuSans-65"/>
       <use x="982.929688" xlink:href="#DejaVuSans-78"/>
       <use x="1042.109375" xlink:href="#DejaVuSans-32"/>
       <use x="1105.732422" xlink:href="#DejaVuSans-30"/>
       <use x="1169.355469" xlink:href="#DejaVuSans-31"/>
       <use x="1232.978516" xlink:href="#DejaVuSans-37"/>
      </g>
     </g>
    </g>
    <g id="ytick_2">
     <g id="line2d_19">
      <path clip-path="url(#pbbb08b958c)" d="M 226.746875 254.52467 
L 617.346875 254.52467 
" style="fill:none;stroke:#b0b0b0;stroke-linecap:square;stroke-width:0.8;"/>
     </g>
     <g id="line2d_20">
      <g>
       <use style="stroke:#000000;stroke-width:0.8;" x="226.746875" xlink:href="#m22b8a11858" y="254.52467"/>
      </g>
     </g>
     <g id="text_11">
      <!-- schreiber2017/ismir2017 -->
      <g transform="translate(94.164062 258.323889)scale(0.1 -0.1)">
       <use xlink:href="#DejaVuSans-73"/>
       <use x="52.099609" xlink:href="#DejaVuSans-63"/>
       <use x="107.080078" xlink:href="#DejaVuSans-68"/>
       <use x="170.458984" xlink:href="#DejaVuSans-72"/>
       <use x="211.541016" xlink:href="#DejaVuSans-65"/>
       <use x="273.064453" xlink:href="#DejaVuSans-69"/>
       <use x="300.847656" xlink:href="#DejaVuSans-62"/>
       <use x="364.324219" xlink:href="#DejaVuSans-65"/>
       <use x="425.847656" xlink:href="#DejaVuSans-72"/>
       <use x="466.960938" xlink:href="#DejaVuSans-32"/>
       <use x="530.583984" xlink:href="#DejaVuSans-30"/>
       <use x="594.207031" xlink:href="#DejaVuSans-31"/>
       <use x="657.830078" xlink:href="#DejaVuSans-37"/>
       <use x="721.453125" xlink:href="#DejaVuSans-2f"/>
       <use x="755.144531" xlink:href="#DejaVuSans-69"/>
       <use x="782.927734" xlink:href="#DejaVuSans-73"/>
       <use x="835.027344" xlink:href="#DejaVuSans-6d"/>
       <use x="932.439453" xlink:href="#DejaVuSans-69"/>
       <use x="960.222656" xlink:href="#DejaVuSans-72"/>
       <use x="1001.335938" xlink:href="#DejaVuSans-32"/>
       <use x="1064.958984" xlink:href="#DejaVuSans-30"/>
       <use x="1128.582031" xlink:href="#DejaVuSans-31"/>
       <use x="1192.205078" xlink:href="#DejaVuSans-37"/>
      </g>
     </g>
    </g>
    <g id="ytick_3">
     <g id="line2d_21">
      <path clip-path="url(#pbbb08b958c)" d="M 226.746875 203.208307 
L 617.346875 203.208307 
" style="fill:none;stroke:#b0b0b0;stroke-linecap:square;stroke-width:0.8;"/>
     </g>
     <g id="line2d_22">
      <g>
       <use style="stroke:#000000;stroke-width:0.8;" x="226.746875" xlink:href="#m22b8a11858" y="203.208307"/>
      </g>
     </g>
     <g id="text_12">
      <!-- schreiber2014/default -->
      <defs>
       <path d="M 45.40625 46.390625 
L 45.40625 75.984375 
L 54.390625 75.984375 
L 54.390625 0 
L 45.40625 0 
L 45.40625 8.203125 
Q 42.578125 3.328125 38.25 0.953125 
Q 33.9375 -1.421875 27.875 -1.421875 
Q 17.96875 -1.421875 11.734375 6.484375 
Q 5.515625 14.40625 5.515625 27.296875 
Q 5.515625 40.1875 11.734375 48.09375 
Q 17.96875 56 27.875 56 
Q 33.9375 56 38.25 53.625 
Q 42.578125 51.265625 45.40625 46.390625 
z
M 14.796875 27.296875 
Q 14.796875 17.390625 18.875 11.75 
Q 22.953125 6.109375 30.078125 6.109375 
Q 37.203125 6.109375 41.296875 11.75 
Q 45.40625 17.390625 45.40625 27.296875 
Q 45.40625 37.203125 41.296875 42.84375 
Q 37.203125 48.484375 30.078125 48.484375 
Q 22.953125 48.484375 18.875 42.84375 
Q 14.796875 37.203125 14.796875 27.296875 
z
" id="DejaVuSans-64"/>
       <path d="M 37.109375 75.984375 
L 37.109375 68.5 
L 28.515625 68.5 
Q 23.6875 68.5 21.796875 66.546875 
Q 19.921875 64.59375 19.921875 59.515625 
L 19.921875 54.6875 
L 34.71875 54.6875 
L 34.71875 47.703125 
L 19.921875 47.703125 
L 19.921875 0 
L 10.890625 0 
L 10.890625 47.703125 
L 2.296875 47.703125 
L 2.296875 54.6875 
L 10.890625 54.6875 
L 10.890625 58.5 
Q 10.890625 67.625 15.140625 71.796875 
Q 19.390625 75.984375 28.609375 75.984375 
z
" id="DejaVuSans-66"/>
       <path d="M 34.28125 27.484375 
Q 23.390625 27.484375 19.1875 25 
Q 14.984375 22.515625 14.984375 16.5 
Q 14.984375 11.71875 18.140625 8.90625 
Q 21.296875 6.109375 26.703125 6.109375 
Q 34.1875 6.109375 38.703125 11.40625 
Q 43.21875 16.703125 43.21875 25.484375 
L 43.21875 27.484375 
z
M 52.203125 31.203125 
L 52.203125 0 
L 43.21875 0 
L 43.21875 8.296875 
Q 40.140625 3.328125 35.546875 0.953125 
Q 30.953125 -1.421875 24.3125 -1.421875 
Q 15.921875 -1.421875 10.953125 3.296875 
Q 6 8.015625 6 15.921875 
Q 6 25.140625 12.171875 29.828125 
Q 18.359375 34.515625 30.609375 34.515625 
L 43.21875 34.515625 
L 43.21875 35.40625 
Q 43.21875 41.609375 39.140625 45 
Q 35.0625 48.390625 27.6875 48.390625 
Q 23 48.390625 18.546875 47.265625 
Q 14.109375 46.140625 10.015625 43.890625 
L 10.015625 52.203125 
Q 14.9375 54.109375 19.578125 55.046875 
Q 24.21875 56 28.609375 56 
Q 40.484375 56 46.34375 49.84375 
Q 52.203125 43.703125 52.203125 31.203125 
z
" id="DejaVuSans-61"/>
       <path d="M 8.5 21.578125 
L 8.5 54.6875 
L 17.484375 54.6875 
L 17.484375 21.921875 
Q 17.484375 14.15625 20.5 10.265625 
Q 23.53125 6.390625 29.59375 6.390625 
Q 36.859375 6.390625 41.078125 11.03125 
Q 45.3125 15.671875 45.3125 23.6875 
L 45.3125 54.6875 
L 54.296875 54.6875 
L 54.296875 0 
L 45.3125 0 
L 45.3125 8.40625 
Q 42.046875 3.421875 37.71875 1 
Q 33.40625 -1.421875 27.6875 -1.421875 
Q 18.265625 -1.421875 13.375 4.4375 
Q 8.5 10.296875 8.5 21.578125 
z
M 31.109375 56 
z
" id="DejaVuSans-75"/>
       <path d="M 9.421875 75.984375 
L 18.40625 75.984375 
L 18.40625 0 
L 9.421875 0 
z
" id="DejaVuSans-6c"/>
       <path d="M 18.3125 70.21875 
L 18.3125 54.6875 
L 36.8125 54.6875 
L 36.8125 47.703125 
L 18.3125 47.703125 
L 18.3125 18.015625 
Q 18.3125 11.328125 20.140625 9.421875 
Q 21.96875 7.515625 27.59375 7.515625 
L 36.8125 7.515625 
L 36.8125 0 
L 27.59375 0 
Q 17.1875 0 13.234375 3.875 
Q 9.28125 7.765625 9.28125 18.015625 
L 9.28125 47.703125 
L 2.6875 47.703125 
L 2.6875 54.6875 
L 9.28125 54.6875 
L 9.28125 70.21875 
z
" id="DejaVuSans-74"/>
      </defs>
      <g transform="translate(109.045312 207.007526)scale(0.1 -0.1)">
       <use xlink:href="#DejaVuSans-73"/>
       <use x="52.099609" xlink:href="#DejaVuSans-63"/>
       <use x="107.080078" xlink:href="#DejaVuSans-68"/>
       <use x="170.458984" xlink:href="#DejaVuSans-72"/>
       <use x="211.541016" xlink:href="#DejaVuSans-65"/>
       <use x="273.064453" xlink:href="#DejaVuSans-69"/>
       <use x="300.847656" xlink:href="#DejaVuSans-62"/>
       <use x="364.324219" xlink:href="#DejaVuSans-65"/>
       <use x="425.847656" xlink:href="#DejaVuSans-72"/>
       <use x="466.960938" xlink:href="#DejaVuSans-32"/>
       <use x="530.583984" xlink:href="#DejaVuSans-30"/>
       <use x="594.207031" xlink:href="#DejaVuSans-31"/>
       <use x="657.830078" xlink:href="#DejaVuSans-34"/>
       <use x="721.453125" xlink:href="#DejaVuSans-2f"/>
       <use x="755.144531" xlink:href="#DejaVuSans-64"/>
       <use x="818.621094" xlink:href="#DejaVuSans-65"/>
       <use x="880.144531" xlink:href="#DejaVuSans-66"/>
       <use x="915.349609" xlink:href="#DejaVuSans-61"/>
       <use x="976.628906" xlink:href="#DejaVuSans-75"/>
       <use x="1040.007812" xlink:href="#DejaVuSans-6c"/>
       <use x="1067.791016" xlink:href="#DejaVuSans-74"/>
      </g>
     </g>
    </g>
    <g id="ytick_4">
     <g id="line2d_23">
      <path clip-path="url(#pbbb08b958c)" d="M 226.746875 151.891943 
L 617.346875 151.891943 
" style="fill:none;stroke:#b0b0b0;stroke-linecap:square;stroke-width:0.8;"/>
     </g>
     <g id="line2d_24">
      <g>
       <use style="stroke:#000000;stroke-width:0.8;" x="226.746875" xlink:href="#m22b8a11858" y="151.891943"/>
      </g>
     </g>
     <g id="text_13">
      <!-- percival2014/stem -->
      <defs>
       <path d="M 18.109375 8.203125 
L 18.109375 -20.796875 
L 9.078125 -20.796875 
L 9.078125 54.6875 
L 18.109375 54.6875 
L 18.109375 46.390625 
Q 20.953125 51.265625 25.265625 53.625 
Q 29.59375 56 35.59375 56 
Q 45.5625 56 51.78125 48.09375 
Q 58.015625 40.1875 58.015625 27.296875 
Q 58.015625 14.40625 51.78125 6.484375 
Q 45.5625 -1.421875 35.59375 -1.421875 
Q 29.59375 -1.421875 25.265625 0.953125 
Q 20.953125 3.328125 18.109375 8.203125 
z
M 48.6875 27.296875 
Q 48.6875 37.203125 44.609375 42.84375 
Q 40.53125 48.484375 33.40625 48.484375 
Q 26.265625 48.484375 22.1875 42.84375 
Q 18.109375 37.203125 18.109375 27.296875 
Q 18.109375 17.390625 22.1875 11.75 
Q 26.265625 6.109375 33.40625 6.109375 
Q 40.53125 6.109375 44.609375 11.75 
Q 48.6875 17.390625 48.6875 27.296875 
z
" id="DejaVuSans-70"/>
       <path d="M 2.984375 54.6875 
L 12.5 54.6875 
L 29.59375 8.796875 
L 46.6875 54.6875 
L 56.203125 54.6875 
L 35.6875 0 
L 23.484375 0 
z
" id="DejaVuSans-76"/>
      </defs>
      <g transform="translate(126.19375 155.691162)scale(0.1 -0.1)">
       <use xlink:href="#DejaVuSans-70"/>
       <use x="63.476562" xlink:href="#DejaVuSans-65"/>
       <use x="125" xlink:href="#DejaVuSans-72"/>
       <use x="166.082031" xlink:href="#DejaVuSans-63"/>
       <use x="221.0625" xlink:href="#DejaVuSans-69"/>
       <use x="248.845703" xlink:href="#DejaVuSans-76"/>
       <use x="308.025391" xlink:href="#DejaVuSans-61"/>
       <use x="369.304688" xlink:href="#DejaVuSans-6c"/>
       <use x="397.087891" xlink:href="#DejaVuSans-32"/>
       <use x="460.710938" xlink:href="#DejaVuSans-30"/>
       <use x="524.333984" xlink:href="#DejaVuSans-31"/>
       <use x="587.957031" xlink:href="#DejaVuSans-34"/>
       <use x="651.580078" xlink:href="#DejaVuSans-2f"/>
       <use x="685.271484" xlink:href="#DejaVuSans-73"/>
       <use x="737.371094" xlink:href="#DejaVuSans-74"/>
       <use x="776.580078" xlink:href="#DejaVuSans-65"/>
       <use x="838.103516" xlink:href="#DejaVuSans-6d"/>
      </g>
     </g>
    </g>
    <g id="ytick_5">
     <g id="line2d_25">
      <path clip-path="url(#pbbb08b958c)" d="M 226.746875 100.57558 
L 617.346875 100.57558 
" style="fill:none;stroke:#b0b0b0;stroke-linecap:square;stroke-width:0.8;"/>
     </g>
     <g id="line2d_26">
      <g>
       <use style="stroke:#000000;stroke-width:0.8;" x="226.746875" xlink:href="#m22b8a11858" y="100.57558"/>
      </g>
     </g>
     <g id="text_14">
      <!-- davies2009/mirex_qm_tempotracker -->
      <defs>
       <path d="M 10.984375 1.515625 
L 10.984375 10.5 
Q 14.703125 8.734375 18.5 7.8125 
Q 22.3125 6.890625 25.984375 6.890625 
Q 35.75 6.890625 40.890625 13.453125 
Q 46.046875 20.015625 46.78125 33.40625 
Q 43.953125 29.203125 39.59375 26.953125 
Q 35.25 24.703125 29.984375 24.703125 
Q 19.046875 24.703125 12.671875 31.3125 
Q 6.296875 37.9375 6.296875 49.421875 
Q 6.296875 60.640625 12.9375 67.421875 
Q 19.578125 74.21875 30.609375 74.21875 
Q 43.265625 74.21875 49.921875 64.515625 
Q 56.59375 54.828125 56.59375 36.375 
Q 56.59375 19.140625 48.40625 8.859375 
Q 40.234375 -1.421875 26.421875 -1.421875 
Q 22.703125 -1.421875 18.890625 -0.6875 
Q 15.09375 0.046875 10.984375 1.515625 
z
M 30.609375 32.421875 
Q 37.25 32.421875 41.125 36.953125 
Q 45.015625 41.5 45.015625 49.421875 
Q 45.015625 57.28125 41.125 61.84375 
Q 37.25 66.40625 30.609375 66.40625 
Q 23.96875 66.40625 20.09375 61.84375 
Q 16.21875 57.28125 16.21875 49.421875 
Q 16.21875 41.5 20.09375 36.953125 
Q 23.96875 32.421875 30.609375 32.421875 
z
" id="DejaVuSans-39"/>
       <path d="M 50.984375 -16.609375 
L 50.984375 -23.578125 
L -0.984375 -23.578125 
L -0.984375 -16.609375 
z
" id="DejaVuSans-5f"/>
       <path d="M 14.796875 27.296875 
Q 14.796875 17.390625 18.875 11.75 
Q 22.953125 6.109375 30.078125 6.109375 
Q 37.203125 6.109375 41.296875 11.75 
Q 45.40625 17.390625 45.40625 27.296875 
Q 45.40625 37.203125 41.296875 42.84375 
Q 37.203125 48.484375 30.078125 48.484375 
Q 22.953125 48.484375 18.875 42.84375 
Q 14.796875 37.203125 14.796875 27.296875 
z
M 45.40625 8.203125 
Q 42.578125 3.328125 38.25 0.953125 
Q 33.9375 -1.421875 27.875 -1.421875 
Q 17.96875 -1.421875 11.734375 6.484375 
Q 5.515625 14.40625 5.515625 27.296875 
Q 5.515625 40.1875 11.734375 48.09375 
Q 17.96875 56 27.875 56 
Q 33.9375 56 38.25 53.625 
Q 42.578125 51.265625 45.40625 46.390625 
L 45.40625 54.6875 
L 54.390625 54.6875 
L 54.390625 -20.796875 
L 45.40625 -20.796875 
z
" id="DejaVuSans-71"/>
       <path d="M 30.609375 48.390625 
Q 23.390625 48.390625 19.1875 42.75 
Q 14.984375 37.109375 14.984375 27.296875 
Q 14.984375 17.484375 19.15625 11.84375 
Q 23.34375 6.203125 30.609375 6.203125 
Q 37.796875 6.203125 41.984375 11.859375 
Q 46.1875 17.53125 46.1875 27.296875 
Q 46.1875 37.015625 41.984375 42.703125 
Q 37.796875 48.390625 30.609375 48.390625 
z
M 30.609375 56 
Q 42.328125 56 49.015625 48.375 
Q 55.71875 40.765625 55.71875 27.296875 
Q 55.71875 13.875 49.015625 6.21875 
Q 42.328125 -1.421875 30.609375 -1.421875 
Q 18.84375 -1.421875 12.171875 6.21875 
Q 5.515625 13.875 5.515625 27.296875 
Q 5.515625 40.765625 12.171875 48.375 
Q 18.84375 56 30.609375 56 
z
" id="DejaVuSans-6f"/>
       <path d="M 9.078125 75.984375 
L 18.109375 75.984375 
L 18.109375 31.109375 
L 44.921875 54.6875 
L 56.390625 54.6875 
L 27.390625 29.109375 
L 57.625 0 
L 45.90625 0 
L 18.109375 26.703125 
L 18.109375 0 
L 9.078125 0 
z
" id="DejaVuSans-6b"/>
      </defs>
      <g transform="translate(35.617187 104.374798)scale(0.1 -0.1)">
       <use xlink:href="#DejaVuSans-64"/>
       <use x="63.476562" xlink:href="#DejaVuSans-61"/>
       <use x="124.755859" xlink:href="#DejaVuSans-76"/>
       <use x="183.935547" xlink:href="#DejaVuSans-69"/>
       <use x="211.71875" xlink:href="#DejaVuSans-65"/>
       <use x="273.242188" xlink:href="#DejaVuSans-73"/>
       <use x="325.341797" xlink:href="#DejaVuSans-32"/>
       <use x="388.964844" xlink:href="#DejaVuSans-30"/>
       <use x="452.587891" xlink:href="#DejaVuSans-30"/>
       <use x="516.210938" xlink:href="#DejaVuSans-39"/>
       <use x="579.833984" xlink:href="#DejaVuSans-2f"/>
       <use x="613.525391" xlink:href="#DejaVuSans-6d"/>
       <use x="710.9375" xlink:href="#DejaVuSans-69"/>
       <use x="738.720703" xlink:href="#DejaVuSans-72"/>
       <use x="779.802734" xlink:href="#DejaVuSans-65"/>
       <use x="841.310547" xlink:href="#DejaVuSans-78"/>
       <use x="900.490234" xlink:href="#DejaVuSans-5f"/>
       <use x="950.490234" xlink:href="#DejaVuSans-71"/>
       <use x="1013.966797" xlink:href="#DejaVuSans-6d"/>
       <use x="1111.378906" xlink:href="#DejaVuSans-5f"/>
       <use x="1161.378906" xlink:href="#DejaVuSans-74"/>
       <use x="1200.587891" xlink:href="#DejaVuSans-65"/>
       <use x="1262.111328" xlink:href="#DejaVuSans-6d"/>
       <use x="1359.523438" xlink:href="#DejaVuSans-70"/>
       <use x="1423" xlink:href="#DejaVuSans-6f"/>
       <use x="1484.181641" xlink:href="#DejaVuSans-74"/>
       <use x="1523.390625" xlink:href="#DejaVuSans-72"/>
       <use x="1564.503906" xlink:href="#DejaVuSans-61"/>
       <use x="1625.783203" xlink:href="#DejaVuSans-63"/>
       <use x="1680.763672" xlink:href="#DejaVuSans-6b"/>
       <use x="1738.626953" xlink:href="#DejaVuSans-65"/>
       <use x="1800.150391" xlink:href="#DejaVuSans-72"/>
      </g>
     </g>
    </g>
    <g id="ytick_6">
     <g id="line2d_27">
      <path clip-path="url(#pbbb08b958c)" d="M 226.746875 49.259216 
L 617.346875 49.259216 
" style="fill:none;stroke:#b0b0b0;stroke-linecap:square;stroke-width:0.8;"/>
     </g>
     <g id="line2d_28">
      <g>
       <use style="stroke:#000000;stroke-width:0.8;" x="226.746875" xlink:href="#m22b8a11858" y="49.259216"/>
      </g>
     </g>
     <g id="text_15">
      <!-- boeck2015/tempodetector2016_default -->
      <defs>
       <path d="M 10.796875 72.90625 
L 49.515625 72.90625 
L 49.515625 64.59375 
L 19.828125 64.59375 
L 19.828125 46.734375 
Q 21.96875 47.46875 24.109375 47.828125 
Q 26.265625 48.1875 28.421875 48.1875 
Q 40.625 48.1875 47.75 41.5 
Q 54.890625 34.8125 54.890625 23.390625 
Q 54.890625 11.625 47.5625 5.09375 
Q 40.234375 -1.421875 26.90625 -1.421875 
Q 22.3125 -1.421875 17.546875 -0.640625 
Q 12.796875 0.140625 7.71875 1.703125 
L 7.71875 11.625 
Q 12.109375 9.234375 16.796875 8.0625 
Q 21.484375 6.890625 26.703125 6.890625 
Q 35.15625 6.890625 40.078125 11.328125 
Q 45.015625 15.765625 45.015625 23.390625 
Q 45.015625 31 40.078125 35.4375 
Q 35.15625 39.890625 26.703125 39.890625 
Q 22.75 39.890625 18.8125 39.015625 
Q 14.890625 38.140625 10.796875 36.28125 
z
" id="DejaVuSans-35"/>
      </defs>
      <g transform="translate(20.878125 53.058435)scale(0.1 -0.1)">
       <use xlink:href="#DejaVuSans-62"/>
       <use x="63.476562" xlink:href="#DejaVuSans-6f"/>
       <use x="124.658203" xlink:href="#DejaVuSans-65"/>
       <use x="186.181641" xlink:href="#DejaVuSans-63"/>
       <use x="241.162109" xlink:href="#DejaVuSans-6b"/>
       <use x="299.072266" xlink:href="#DejaVuSans-32"/>
       <use x="362.695312" xlink:href="#DejaVuSans-30"/>
       <use x="426.318359" xlink:href="#DejaVuSans-31"/>
       <use x="489.941406" xlink:href="#DejaVuSans-35"/>
       <use x="553.564453" xlink:href="#DejaVuSans-2f"/>
       <use x="587.255859" xlink:href="#DejaVuSans-74"/>
       <use x="626.464844" xlink:href="#DejaVuSans-65"/>
       <use x="687.988281" xlink:href="#DejaVuSans-6d"/>
       <use x="785.400391" xlink:href="#DejaVuSans-70"/>
       <use x="848.876953" xlink:href="#DejaVuSans-6f"/>
       <use x="910.058594" xlink:href="#DejaVuSans-64"/>
       <use x="973.535156" xlink:href="#DejaVuSans-65"/>
       <use x="1035.058594" xlink:href="#DejaVuSans-74"/>
       <use x="1074.267578" xlink:href="#DejaVuSans-65"/>
       <use x="1135.791016" xlink:href="#DejaVuSans-63"/>
       <use x="1190.771484" xlink:href="#DejaVuSans-74"/>
       <use x="1229.980469" xlink:href="#DejaVuSans-6f"/>
       <use x="1291.162109" xlink:href="#DejaVuSans-72"/>
       <use x="1332.275391" xlink:href="#DejaVuSans-32"/>
       <use x="1395.898438" xlink:href="#DejaVuSans-30"/>
       <use x="1459.521484" xlink:href="#DejaVuSans-31"/>
       <use x="1523.144531" xlink:href="#DejaVuSans-36"/>
       <use x="1586.767578" xlink:href="#DejaVuSans-5f"/>
       <use x="1636.767578" xlink:href="#DejaVuSans-64"/>
       <use x="1700.244141" xlink:href="#DejaVuSans-65"/>
       <use x="1761.767578" xlink:href="#DejaVuSans-66"/>
       <use x="1796.972656" xlink:href="#DejaVuSans-61"/>
       <use x="1858.251953" xlink:href="#DejaVuSans-75"/>
       <use x="1921.630859" xlink:href="#DejaVuSans-6c"/>
       <use x="1949.414062" xlink:href="#DejaVuSans-74"/>
      </g>
     </g>
    </g>
    <g id="text_16">
     <!-- Estimator -->
     <g transform="translate(14.798437 201.672781)rotate(-90)scale(0.1 -0.1)">
      <use xlink:href="#DejaVuSans-45"/>
      <use x="63.183594" xlink:href="#DejaVuSans-73"/>
      <use x="115.283203" xlink:href="#DejaVuSans-74"/>
      <use x="154.492188" xlink:href="#DejaVuSans-69"/>
      <use x="182.275391" xlink:href="#DejaVuSans-6d"/>
      <use x="279.6875" xlink:href="#DejaVuSans-61"/>
      <use x="340.966797" xlink:href="#DejaVuSans-74"/>
      <use x="380.175781" xlink:href="#DejaVuSans-6f"/>
      <use x="441.357422" xlink:href="#DejaVuSans-72"/>
     </g>
    </g>
   </g>
   <g id="PolyCollection_1">
    <path clip-path="url(#pbbb08b958c)" d="M 259.760865 305.840243 
L 259.760865 305.841825 
L 261.159094 305.841621 
L 262.557324 305.841325 
L 263.955553 305.841416 
L 265.353782 305.842098 
L 266.752012 305.843037 
L 268.150241 305.84343 
L 269.54847 305.8434 
L 270.9467 305.843862 
L 272.344929 305.844255 
L 273.743158 305.843799 
L 275.141388 305.843922 
L 276.539617 305.846299 
L 277.937847 305.850731 
L 279.336076 305.855057 
L 280.734305 305.856736 
L 282.132535 305.857279 
L 283.530764 305.859137 
L 284.928993 305.859292 
L 286.327223 305.8558 
L 287.725452 305.85269 
L 289.123681 305.854252 
L 290.521911 305.859366 
L 291.92014 305.862959 
L 293.31837 305.862755 
L 294.716599 305.860213 
L 296.114828 305.857979 
L 297.513058 305.857832 
L 298.911287 305.858224 
L 300.309516 305.857422 
L 301.707746 305.858755 
L 303.105975 305.866627 
L 304.504204 305.879238 
L 305.902434 305.888564 
L 307.300663 305.890936 
L 308.698892 305.895207 
L 310.097122 305.907143 
L 311.495351 305.918195 
L 312.893581 305.926979 
L 314.29181 305.94419 
L 315.690039 305.962735 
L 317.088269 305.964123 
L 318.486498 305.952376 
L 319.884727 305.941379 
L 321.282957 305.934464 
L 322.681186 305.934336 
L 324.079415 305.944956 
L 325.477645 305.980657 
L 326.875874 306.147537 
L 328.274104 306.707714 
L 329.672333 307.633989 
L 331.070562 308.059339 
L 332.468792 307.445079 
L 333.867021 306.580782 
L 335.26525 306.154966 
L 336.66348 306.062214 
L 338.061709 306.07632 
L 339.459938 306.120062 
L 340.858168 306.164161 
L 342.256397 306.177831 
L 343.654627 306.179438 
L 345.052856 306.203363 
L 346.451085 306.202903 
L 347.849315 306.144626 
L 349.247544 306.083129 
L 350.645773 306.082491 
L 352.044003 306.384039 
L 353.442232 308.097923 
L 354.840461 312.907215 
L 356.238691 318.633295 
L 357.63692 318.670125 
L 359.035149 312.954614 
L 360.433379 308.089465 
L 361.831608 306.332138 
L 363.229838 306.01611 
L 364.628067 306.002474 
L 366.026296 306.009452 
L 367.424526 305.996589 
L 368.822755 305.984317 
L 370.220984 306.006067 
L 371.619214 306.047356 
L 373.017443 306.039914 
L 374.415672 305.978059 
L 375.813902 305.922493 
L 377.212131 305.90354 
L 378.610361 305.942373 
L 380.00859 306.130622 
L 381.406819 306.518525 
L 382.805049 306.791051 
L 384.203278 306.587629 
L 385.601507 306.167771 
L 386.999737 305.924309 
L 388.397966 305.856492 
L 389.796195 305.84469 
L 391.194425 305.842496 
L 392.592654 305.841762 
L 393.990884 305.841356 
L 395.389113 305.841325 
L 396.787342 305.841622 
L 398.185572 305.841825 
L 398.185572 305.840243 
L 398.185572 305.840243 
L 396.787342 305.840446 
L 395.389113 305.840743 
L 393.990884 305.840712 
L 392.592654 305.840306 
L 391.194425 305.839572 
L 389.796195 305.837378 
L 388.397966 305.825576 
L 386.999737 305.757759 
L 385.601507 305.514297 
L 384.203278 305.094439 
L 382.805049 304.891017 
L 381.406819 305.163543 
L 380.00859 305.551446 
L 378.610361 305.739696 
L 377.212131 305.778528 
L 375.813902 305.759575 
L 374.415672 305.70401 
L 373.017443 305.642154 
L 371.619214 305.634712 
L 370.220984 305.676001 
L 368.822755 305.697751 
L 367.424526 305.685479 
L 366.026296 305.672616 
L 364.628067 305.679595 
L 363.229838 305.665958 
L 361.831608 305.34993 
L 360.433379 303.592603 
L 359.035149 298.727455 
L 357.63692 293.011943 
L 356.238691 293.048773 
L 354.840461 298.774853 
L 353.442232 303.584146 
L 352.044003 305.29803 
L 350.645773 305.599577 
L 349.247544 305.598939 
L 347.849315 305.537442 
L 346.451085 305.479165 
L 345.052856 305.478705 
L 343.654627 305.50263 
L 342.256397 305.504237 
L 340.858168 305.517907 
L 339.459938 305.562006 
L 338.061709 305.605748 
L 336.66348 305.619855 
L 335.26525 305.527102 
L 333.867021 305.101286 
L 332.468792 304.23699 
L 331.070562 303.62273 
L 329.672333 304.048079 
L 328.274104 304.974354 
L 326.875874 305.534531 
L 325.477645 305.701411 
L 324.079415 305.737112 
L 322.681186 305.747732 
L 321.282957 305.747604 
L 319.884727 305.740689 
L 318.486498 305.729692 
L 317.088269 305.717945 
L 315.690039 305.719333 
L 314.29181 305.737879 
L 312.893581 305.755089 
L 311.495351 305.763873 
L 310.097122 305.774926 
L 308.698892 305.786861 
L 307.300663 305.791132 
L 305.902434 305.793504 
L 304.504204 305.80283 
L 303.105975 305.815441 
L 301.707746 305.823313 
L 300.309516 305.824646 
L 298.911287 305.823844 
L 297.513058 305.824236 
L 296.114828 305.824089 
L 294.716599 305.821855 
L 293.31837 305.819314 
L 291.92014 305.819109 
L 290.521911 305.822703 
L 289.123681 305.827817 
L 287.725452 305.829378 
L 286.327223 305.826269 
L 284.928993 305.822776 
L 283.530764 305.822931 
L 282.132535 305.82479 
L 280.734305 305.825332 
L 279.336076 305.827011 
L 277.937847 305.831337 
L 276.539617 305.835769 
L 275.141388 305.838146 
L 273.743158 305.83827 
L 272.344929 305.837813 
L 270.9467 305.838206 
L 269.54847 305.838668 
L 268.150241 305.838638 
L 266.752012 305.839031 
L 265.353782 305.83997 
L 263.955553 305.840652 
L 262.557324 305.840743 
L 261.159094 305.840447 
L 259.760865 305.840243 
z
" style="fill:#ff0000;fill-opacity:0.75;"/>
   </g>
   <g id="PolyCollection_2">
    <path clip-path="url(#pbbb08b958c)" d="M 259.760865 254.523881 
L 259.760865 254.52546 
L 261.159094 254.525251 
L 262.557324 254.524949 
L 263.955553 254.525034 
L 265.353782 254.525712 
L 266.752012 254.52665 
L 268.150241 254.526975 
L 269.54847 254.526698 
L 270.9467 254.526807 
L 272.344929 254.527092 
L 273.743158 254.526882 
L 275.141388 254.527221 
L 276.539617 254.529463 
L 277.937847 254.533545 
L 279.336076 254.537795 
L 280.734305 254.539704 
L 282.132535 254.540333 
L 283.530764 254.541845 
L 284.928993 254.541194 
L 286.327223 254.537145 
L 287.725452 254.534338 
L 289.123681 254.536571 
L 290.521911 254.54175 
L 291.92014 254.544318 
L 293.31837 254.542916 
L 294.716599 254.540412 
L 296.114828 254.5393 
L 297.513058 254.540022 
L 298.911287 254.540557 
L 300.309516 254.539743 
L 301.707746 254.540703 
L 303.105975 254.547242 
L 304.504204 254.558359 
L 305.902434 254.566834 
L 307.300663 254.568272 
L 308.698892 254.571248 
L 310.097122 254.582148 
L 311.495351 254.592551 
L 312.893581 254.600132 
L 314.29181 254.613994 
L 315.690039 254.626948 
L 317.088269 254.623599 
L 318.486498 254.610953 
L 319.884727 254.60173 
L 321.282957 254.596175 
L 322.681186 254.59617 
L 324.079415 254.606572 
L 325.477645 254.638327 
L 326.875874 254.785045 
L 328.274104 255.29889 
L 329.672333 256.174366 
L 331.070562 256.579949 
L 332.468792 255.986713 
L 333.867021 255.167863 
L 335.26525 254.777462 
L 336.66348 254.696551 
L 338.061709 254.711242 
L 339.459938 254.756019 
L 340.858168 254.80463 
L 342.256397 254.825471 
L 343.654627 254.835031 
L 345.052856 254.866305 
L 346.451085 254.870047 
L 347.849315 254.813711 
L 349.247544 254.755993 
L 350.645773 254.756549 
L 352.044003 255.036565 
L 353.442232 256.688076 
L 354.840461 261.478319 
L 356.238691 267.303629 
L 357.63692 267.353761 
L 359.035149 261.556976 
L 360.433379 256.717856 
L 361.831608 255.028736 
L 363.229838 254.743028 
L 364.628067 254.736253 
L 366.026296 254.743316 
L 367.424526 254.729771 
L 368.822755 254.714558 
L 370.220984 254.731496 
L 371.619214 254.769062 
L 373.017443 254.75777 
L 374.415672 254.691164 
L 375.813902 254.63094 
L 377.212131 254.608382 
L 378.610361 254.648563 
L 380.00859 254.855348 
L 381.406819 255.288537 
L 382.805049 255.592349 
L 384.203278 255.357409 
L 385.601507 254.885718 
L 386.999737 254.61841 
L 388.397966 254.544862 
L 389.796195 254.531426 
L 391.194425 254.529194 
L 392.592654 254.528525 
L 393.990884 254.527362 
L 395.389113 254.52638 
L 396.787342 254.525957 
L 398.185572 254.525699 
L 398.185572 254.523642 
L 398.185572 254.523642 
L 396.787342 254.523384 
L 395.389113 254.522961 
L 393.990884 254.521979 
L 392.592654 254.520816 
L 391.194425 254.520147 
L 389.796195 254.517915 
L 388.397966 254.504478 
L 386.999737 254.430931 
L 385.601507 254.163622 
L 384.203278 253.691932 
L 382.805049 253.456992 
L 381.406819 253.760804 
L 380.00859 254.193993 
L 378.610361 254.400778 
L 377.212131 254.440959 
L 375.813902 254.4184 
L 374.415672 254.358177 
L 373.017443 254.291571 
L 371.619214 254.280279 
L 370.220984 254.317845 
L 368.822755 254.334783 
L 367.424526 254.31957 
L 366.026296 254.306025 
L 364.628067 254.313088 
L 363.229838 254.306313 
L 361.831608 254.020605 
L 360.433379 252.331485 
L 359.035149 247.492365 
L 357.63692 241.69558 
L 356.238691 241.745712 
L 354.840461 247.571022 
L 353.442232 252.361265 
L 352.044003 254.012776 
L 350.645773 254.292792 
L 349.247544 254.293347 
L 347.849315 254.23563 
L 346.451085 254.179294 
L 345.052856 254.183036 
L 343.654627 254.21431 
L 342.256397 254.22387 
L 340.858168 254.24471 
L 339.459938 254.293322 
L 338.061709 254.338099 
L 336.66348 254.35279 
L 335.26525 254.271879 
L 333.867021 253.881478 
L 332.468792 253.062628 
L 331.070562 252.469392 
L 329.672333 252.874975 
L 328.274104 253.750451 
L 326.875874 254.264296 
L 325.477645 254.411014 
L 324.079415 254.442769 
L 322.681186 254.453171 
L 321.282957 254.453166 
L 319.884727 254.44761 
L 318.486498 254.438388 
L 317.088269 254.425742 
L 315.690039 254.422393 
L 314.29181 254.435347 
L 312.893581 254.449209 
L 311.495351 254.45679 
L 310.097122 254.467193 
L 308.698892 254.478093 
L 307.300663 254.481069 
L 305.902434 254.482507 
L 304.504204 254.490982 
L 303.105975 254.502099 
L 301.707746 254.508638 
L 300.309516 254.509598 
L 298.911287 254.508784 
L 297.513058 254.509319 
L 296.114828 254.510041 
L 294.716599 254.508929 
L 293.31837 254.506425 
L 291.92014 254.505023 
L 290.521911 254.507591 
L 289.123681 254.51277 
L 287.725452 254.515002 
L 286.327223 254.512195 
L 284.928993 254.508147 
L 283.530764 254.507496 
L 282.132535 254.509008 
L 280.734305 254.509637 
L 279.336076 254.511546 
L 277.937847 254.515796 
L 276.539617 254.519878 
L 275.141388 254.52212 
L 273.743158 254.522459 
L 272.344929 254.522249 
L 270.9467 254.522534 
L 269.54847 254.522643 
L 268.150241 254.522366 
L 266.752012 254.522691 
L 265.353782 254.523628 
L 263.955553 254.524307 
L 262.557324 254.524392 
L 261.159094 254.52409 
L 259.760865 254.523881 
z
" style="fill:#ff0000;fill-opacity:0.75;"/>
   </g>
   <g id="PolyCollection_3">
    <path clip-path="url(#pbbb08b958c)" d="M 305.165534 203.207566 
L 305.165534 203.209047 
L 306.061781 203.208917 
L 306.958029 203.208648 
L 307.854276 203.20844 
L 308.750523 203.208368 
L 309.64677 203.208443 
L 310.543018 203.208726 
L 311.439265 203.209242 
L 312.335512 203.209821 
L 313.23176 203.210279 
L 314.128007 203.210769 
L 315.024254 203.211447 
L 315.920501 203.211934 
L 316.816749 203.211775 
L 317.712996 203.211061 
L 318.609243 203.210176 
L 319.505491 203.209487 
L 320.401738 203.209436 
L 321.297985 203.21049 
L 322.194232 203.212903 
L 323.09048 203.216443 
L 323.986727 203.220423 
L 324.882974 203.224618 
L 325.779221 203.232762 
L 326.675469 203.26755 
L 327.571716 203.411981 
L 328.467963 203.833014 
L 329.364211 204.614789 
L 330.260458 205.422346 
L 331.156705 205.618455 
L 332.052952 205.025106 
L 332.9492 204.171485 
L 333.845447 203.591958 
L 334.741694 203.35968 
L 335.637942 203.310547 
L 336.534189 203.317684 
L 337.430436 203.333112 
L 338.326683 203.347035 
L 339.222931 203.362029 
L 340.119178 203.382868 
L 341.015425 203.407447 
L 341.911673 203.423421 
L 342.80792 203.426884 
L 343.704167 203.439367 
L 344.600414 203.482856 
L 345.496662 203.536989 
L 346.392909 203.550384 
L 347.289156 203.507991 
L 348.185404 203.451586 
L 349.081651 203.422117 
L 349.977898 203.421495 
L 350.874145 203.434641 
L 351.770393 203.470451 
L 352.66664 203.640354 
L 353.562887 204.36053 
L 354.459135 206.487962 
L 355.355382 210.519542 
L 356.251629 214.822411 
L 357.147876 216.037398 
L 358.044124 213.026494 
L 358.940371 208.470309 
L 359.836618 205.275414 
L 360.732865 203.911137 
L 361.629113 203.517137 
L 362.52536 203.428754 
L 363.421607 203.413249 
L 364.317855 203.419709 
L 365.214102 203.432832 
L 366.110349 203.442159 
L 367.006596 203.441685 
L 367.902844 203.428955 
L 368.799091 203.408927 
L 369.695338 203.39747 
L 370.591586 203.407962 
L 371.487833 203.428778 
L 372.38408 203.428369 
L 373.280327 203.394299 
L 374.176575 203.348232 
L 375.072822 203.31419 
L 375.969069 203.295456 
L 376.865317 203.284349 
L 377.761564 203.275636 
L 378.657811 203.270844 
L 379.554058 203.282985 
L 380.450306 203.339061 
L 381.346553 203.454917 
L 382.2428 203.582142 
L 383.139048 203.618551 
L 384.035295 203.526065 
L 384.931542 203.383567 
L 385.827789 203.281119 
L 386.724037 203.235182 
L 387.620284 203.219732 
L 388.516531 203.214208 
L 389.412779 203.211497 
L 390.309026 203.209993 
L 391.205273 203.209217 
L 392.10152 203.208954 
L 392.997768 203.209008 
L 393.894015 203.209067 
L 393.894015 203.207547 
L 393.894015 203.207547 
L 392.997768 203.207606 
L 392.10152 203.20766 
L 391.205273 203.207397 
L 390.309026 203.206621 
L 389.412779 203.205117 
L 388.516531 203.202406 
L 387.620284 203.196882 
L 386.724037 203.181432 
L 385.827789 203.135495 
L 384.931542 203.033047 
L 384.035295 202.890548 
L 383.139048 202.798063 
L 382.2428 202.834472 
L 381.346553 202.961696 
L 380.450306 203.077552 
L 379.554058 203.133629 
L 378.657811 203.14577 
L 377.761564 203.140978 
L 376.865317 203.132265 
L 375.969069 203.121158 
L 375.072822 203.102423 
L 374.176575 203.068381 
L 373.280327 203.022315 
L 372.38408 202.988244 
L 371.487833 202.987836 
L 370.591586 203.008652 
L 369.695338 203.019144 
L 368.799091 203.007687 
L 367.902844 202.987659 
L 367.006596 202.974928 
L 366.110349 202.974454 
L 365.214102 202.983782 
L 364.317855 202.996905 
L 363.421607 203.003365 
L 362.52536 202.987859 
L 361.629113 202.899477 
L 360.732865 202.505477 
L 359.836618 201.141199 
L 358.940371 197.946305 
L 358.044124 193.39012 
L 357.147876 190.379216 
L 356.251629 191.594202 
L 355.355382 195.897071 
L 354.459135 199.928652 
L 353.562887 202.056083 
L 352.66664 202.77626 
L 351.770393 202.946162 
L 350.874145 202.981972 
L 349.977898 202.995119 
L 349.081651 202.994497 
L 348.185404 202.965028 
L 347.289156 202.908622 
L 346.392909 202.86623 
L 345.496662 202.879625 
L 344.600414 202.933758 
L 343.704167 202.977247 
L 342.80792 202.98973 
L 341.911673 202.993193 
L 341.015425 203.009167 
L 340.119178 203.033746 
L 339.222931 203.054585 
L 338.326683 203.069579 
L 337.430436 203.083501 
L 336.534189 203.098929 
L 335.637942 203.106066 
L 334.741694 203.056933 
L 333.845447 202.824656 
L 332.9492 202.245129 
L 332.052952 201.391508 
L 331.156705 200.798158 
L 330.260458 200.994268 
L 329.364211 201.801825 
L 328.467963 202.583599 
L 327.571716 203.004633 
L 326.675469 203.149064 
L 325.779221 203.183852 
L 324.882974 203.191996 
L 323.986727 203.196191 
L 323.09048 203.20017 
L 322.194232 203.20371 
L 321.297985 203.206123 
L 320.401738 203.207178 
L 319.505491 203.207126 
L 318.609243 203.206437 
L 317.712996 203.205552 
L 316.816749 203.204839 
L 315.920501 203.204679 
L 315.024254 203.205167 
L 314.128007 203.205845 
L 313.23176 203.206335 
L 312.335512 203.206793 
L 311.439265 203.207371 
L 310.543018 203.207887 
L 309.64677 203.20817 
L 308.750523 203.208245 
L 307.854276 203.208174 
L 306.958029 203.207966 
L 306.061781 203.207697 
L 305.165534 203.207566 
z
" style="fill:#ff0000;fill-opacity:0.75;"/>
   </g>
   <g id="PolyCollection_4">
    <path clip-path="url(#pbbb08b958c)" d="M 309.868603 151.890558 
L 309.868603 151.893328 
L 312.382736 151.899666 
L 314.89687 151.940938 
L 317.411004 151.929013 
L 319.925137 151.911251 
L 322.439271 151.917319 
L 324.953405 151.922231 
L 327.467538 152.193166 
L 329.981672 154.364289 
L 332.495805 153.734351 
L 335.009939 152.136346 
L 337.524073 152.083806 
L 340.038206 152.3203 
L 342.55234 152.467294 
L 345.066474 152.207518 
L 347.580607 152.165759 
L 350.094741 152.137283 
L 352.608875 152.466988 
L 355.123008 159.152303 
L 357.637142 164.721034 
L 360.151276 153.922307 
L 362.665409 152.13085 
L 365.179543 152.086546 
L 367.693677 152.096251 
L 370.20781 152.045697 
L 372.721944 152.031341 
L 375.236078 151.968613 
L 377.750211 151.950275 
L 380.264345 152.024029 
L 382.778479 152.306904 
L 385.292612 152.036183 
L 387.806746 151.900172 
L 390.32088 151.895412 
L 392.835013 151.893924 
L 395.349147 151.893135 
L 397.863281 151.892823 
L 400.377414 151.892178 
L 402.891548 151.891948 
L 405.405682 151.891943 
L 407.919815 151.891943 
L 410.433949 151.891943 
L 412.948083 151.891943 
L 415.462216 151.891943 
L 417.97635 151.891943 
L 420.490483 151.891943 
L 423.004617 151.891943 
L 425.518751 151.891943 
L 428.032884 151.891943 
L 430.547018 151.891943 
L 433.061152 151.891943 
L 435.575285 151.891943 
L 438.089419 151.891943 
L 440.603553 151.891943 
L 443.117686 151.891943 
L 445.63182 151.891943 
L 448.145954 151.891943 
L 450.660087 151.891943 
L 453.174221 151.891943 
L 455.688355 151.891943 
L 458.202488 151.891943 
L 460.716622 151.891943 
L 463.230756 151.891943 
L 465.744889 151.891943 
L 468.259023 151.891943 
L 470.773157 151.891943 
L 473.28729 151.891943 
L 475.801424 151.891943 
L 478.315558 151.891943 
L 480.829691 151.891943 
L 483.343825 151.891943 
L 485.857959 151.891943 
L 488.372092 151.891943 
L 490.886226 151.891943 
L 493.40036 151.891943 
L 495.914493 151.891943 
L 498.428627 151.891943 
L 500.94276 151.891943 
L 503.456894 151.891943 
L 505.971028 151.891943 
L 508.485161 151.891943 
L 510.999295 151.891943 
L 513.513429 151.891943 
L 516.027562 151.891943 
L 518.541696 151.891943 
L 521.05583 151.891943 
L 523.569963 151.891943 
L 526.084097 151.891943 
L 528.598231 151.891943 
L 531.112364 151.891943 
L 533.626498 151.891943 
L 536.140632 151.891944 
L 538.654765 151.892051 
L 541.168899 151.892711 
L 543.683033 151.892321 
L 546.197166 151.892175 
L 548.7113 151.893323 
L 551.225434 151.892816 
L 553.739567 151.892004 
L 556.253701 151.892376 
L 558.767835 151.893595 
L 558.767835 151.890292 
L 558.767835 151.890292 
L 556.253701 151.891511 
L 553.739567 151.891883 
L 551.225434 151.89107 
L 548.7113 151.890564 
L 546.197166 151.891711 
L 543.683033 151.891566 
L 541.168899 151.891175 
L 538.654765 151.891835 
L 536.140632 151.891942 
L 533.626498 151.891943 
L 531.112364 151.891943 
L 528.598231 151.891943 
L 526.084097 151.891943 
L 523.569963 151.891943 
L 521.05583 151.891943 
L 518.541696 151.891943 
L 516.027562 151.891943 
L 513.513429 151.891943 
L 510.999295 151.891943 
L 508.485161 151.891943 
L 505.971028 151.891943 
L 503.456894 151.891943 
L 500.94276 151.891943 
L 498.428627 151.891943 
L 495.914493 151.891943 
L 493.40036 151.891943 
L 490.886226 151.891943 
L 488.372092 151.891943 
L 485.857959 151.891943 
L 483.343825 151.891943 
L 480.829691 151.891943 
L 478.315558 151.891943 
L 475.801424 151.891943 
L 473.28729 151.891943 
L 470.773157 151.891943 
L 468.259023 151.891943 
L 465.744889 151.891943 
L 463.230756 151.891943 
L 460.716622 151.891943 
L 458.202488 151.891943 
L 455.688355 151.891943 
L 453.174221 151.891943 
L 450.660087 151.891943 
L 448.145954 151.891943 
L 445.63182 151.891943 
L 443.117686 151.891943 
L 440.603553 151.891943 
L 438.089419 151.891943 
L 435.575285 151.891943 
L 433.061152 151.891943 
L 430.547018 151.891943 
L 428.032884 151.891943 
L 425.518751 151.891943 
L 423.004617 151.891943 
L 420.490483 151.891943 
L 417.97635 151.891943 
L 415.462216 151.891943 
L 412.948083 151.891943 
L 410.433949 151.891943 
L 407.919815 151.891943 
L 405.405682 151.891943 
L 402.891548 151.891939 
L 400.377414 151.891709 
L 397.863281 151.891063 
L 395.349147 151.890751 
L 392.835013 151.889962 
L 390.32088 151.888475 
L 387.806746 151.883714 
L 385.292612 151.747703 
L 382.778479 151.476982 
L 380.264345 151.759857 
L 377.750211 151.833611 
L 375.236078 151.815273 
L 372.721944 151.752546 
L 370.20781 151.738189 
L 367.693677 151.687636 
L 365.179543 151.69734 
L 362.665409 151.653036 
L 360.151276 149.86158 
L 357.637142 139.062852 
L 355.123008 144.631583 
L 352.608875 151.316899 
L 350.094741 151.646603 
L 347.580607 151.618128 
L 345.066474 151.576369 
L 342.55234 151.316593 
L 340.038206 151.463587 
L 337.524073 151.70008 
L 335.009939 151.647541 
L 332.495805 150.049535 
L 329.981672 149.419597 
L 327.467538 151.59072 
L 324.953405 151.861656 
L 322.439271 151.866568 
L 319.925137 151.872635 
L 317.411004 151.854874 
L 314.89687 151.842948 
L 312.382736 151.88422 
L 309.868603 151.890558 
z
" style="fill:#ff0000;fill-opacity:0.75;"/>
   </g>
   <g id="PolyCollection_5">
    <path clip-path="url(#pbbb08b958c)" d="M 315.524317 100.572803 
L 315.524317 100.578356 
L 316.459788 100.578601 
L 317.395258 100.577847 
L 318.330729 100.576747 
L 319.2662 100.575991 
L 320.201671 100.575678 
L 321.137142 100.575597 
L 322.072613 100.57559 
L 323.008084 100.575632 
L 323.943555 100.575794 
L 324.879026 100.576252 
L 325.814497 100.577609 
L 326.749967 100.583432 
L 327.685438 100.608848 
L 328.620909 100.689068 
L 329.55638 100.85149 
L 330.491851 101.039195 
L 331.427322 101.110863 
L 332.362793 101.001715 
L 333.298264 100.81351 
L 334.233735 100.675485 
L 335.169206 100.6173 
L 336.104676 100.603958 
L 337.040147 100.605012 
L 337.975618 100.616345 
L 338.911089 100.658634 
L 339.84656 100.764402 
L 340.782031 100.930138 
L 341.717502 101.065228 
L 342.652973 101.059347 
L 343.588444 100.926888 
L 344.523915 100.791239 
L 345.459386 100.731112 
L 346.394856 100.731222 
L 347.330327 100.750596 
L 348.265798 100.76681 
L 349.201269 100.769325 
L 350.13674 100.757419 
L 351.072211 100.74662 
L 352.007682 100.769861 
L 352.943153 100.935523 
L 353.878624 101.632958 
L 354.814095 103.690566 
L 355.749565 107.636112 
L 356.685036 111.968192 
L 357.620507 113.40467 
L 358.555978 110.637971 
L 359.491449 106.135482 
L 360.42692 102.84107 
L 361.362391 101.384157 
L 362.297862 100.964512 
L 363.233333 100.889021 
L 364.168804 100.896179 
L 365.104274 100.947731 
L 366.039745 101.075551 
L 366.975216 101.274058 
L 367.910687 101.425929 
L 368.846158 101.398581 
L 369.781629 101.21997 
L 370.7171 101.039618 
L 371.652571 100.944023 
L 372.588042 100.910491 
L 373.523513 100.89013 
L 374.458983 100.864123 
L 375.394454 100.838043 
L 376.329925 100.819117 
L 377.265396 100.807865 
L 378.200867 100.805119 
L 379.136338 100.829673 
L 380.071809 100.948749 
L 381.00728 101.286841 
L 381.942751 101.900217 
L 382.878222 102.539802 
L 383.813692 102.722731 
L 384.749163 102.272765 
L 385.684634 101.558689 
L 386.620105 101.020968 
L 387.555576 100.764887 
L 388.491047 100.675432 
L 389.426518 100.6449 
L 390.361989 100.630641 
L 391.29746 100.622858 
L 392.232931 100.617492 
L 393.168402 100.610985 
L 394.103872 100.603197 
L 395.039343 100.596315 
L 395.974814 100.591805 
L 396.910285 100.589612 
L 397.845756 100.588471 
L 398.781227 100.586884 
L 399.716698 100.584373 
L 400.652169 100.581503 
L 401.58764 100.579088 
L 402.523111 100.577801 
L 403.458581 100.577896 
L 404.394052 100.578792 
L 405.329523 100.579359 
L 406.264994 100.579019 
L 407.200465 100.578137 
L 408.135936 100.577245 
L 408.135936 100.573914 
L 408.135936 100.573914 
L 407.200465 100.573022 
L 406.264994 100.57214 
L 405.329523 100.5718 
L 404.394052 100.572368 
L 403.458581 100.573263 
L 402.523111 100.573358 
L 401.58764 100.572071 
L 400.652169 100.569656 
L 399.716698 100.566786 
L 398.781227 100.564275 
L 397.845756 100.562688 
L 396.910285 100.561547 
L 395.974814 100.559354 
L 395.039343 100.554844 
L 394.103872 100.547963 
L 393.168402 100.540174 
L 392.232931 100.533667 
L 391.29746 100.528301 
L 390.361989 100.520518 
L 389.426518 100.506259 
L 388.491047 100.475727 
L 387.555576 100.386272 
L 386.620105 100.130192 
L 385.684634 99.59247 
L 384.749163 98.878395 
L 383.813692 98.428428 
L 382.878222 98.611357 
L 381.942751 99.250942 
L 381.00728 99.864318 
L 380.071809 100.20241 
L 379.136338 100.321486 
L 378.200867 100.34604 
L 377.265396 100.343294 
L 376.329925 100.332042 
L 375.394454 100.313116 
L 374.458983 100.287036 
L 373.523513 100.261029 
L 372.588042 100.240668 
L 371.652571 100.207136 
L 370.7171 100.111541 
L 369.781629 99.931189 
L 368.846158 99.752578 
L 367.910687 99.72523 
L 366.975216 99.877101 
L 366.039745 100.075608 
L 365.104274 100.203428 
L 364.168804 100.25498 
L 363.233333 100.262138 
L 362.297862 100.186647 
L 361.362391 99.767002 
L 360.42692 98.310089 
L 359.491449 95.015677 
L 358.555978 90.513188 
L 357.620507 87.746489 
L 356.685036 89.182967 
L 355.749565 93.515047 
L 354.814095 97.460594 
L 353.878624 99.518202 
L 352.943153 100.215636 
L 352.007682 100.381299 
L 351.072211 100.404539 
L 350.13674 100.39374 
L 349.201269 100.381834 
L 348.265798 100.384349 
L 347.330327 100.400563 
L 346.394856 100.419937 
L 345.459386 100.420047 
L 344.523915 100.35992 
L 343.588444 100.224272 
L 342.652973 100.091812 
L 341.717502 100.085932 
L 340.782031 100.221021 
L 339.84656 100.386757 
L 338.911089 100.492525 
L 337.975618 100.534815 
L 337.040147 100.546148 
L 336.104676 100.547201 
L 335.169206 100.533859 
L 334.233735 100.475674 
L 333.298264 100.337649 
L 332.362793 100.149444 
L 331.427322 100.040296 
L 330.491851 100.111964 
L 329.55638 100.299669 
L 328.620909 100.462091 
L 327.685438 100.542311 
L 326.749967 100.567727 
L 325.814497 100.57355 
L 324.879026 100.574907 
L 323.943555 100.575365 
L 323.008084 100.575527 
L 322.072613 100.575569 
L 321.137142 100.575562 
L 320.201671 100.575481 
L 319.2662 100.575169 
L 318.330729 100.574412 
L 317.395258 100.573312 
L 316.459788 100.572558 
L 315.524317 100.572803 
z
" style="fill:#ff0000;fill-opacity:0.75;"/>
   </g>
   <g id="PolyCollection_6">
    <path clip-path="url(#pbbb08b958c)" d="M 296.726577 49.257885 
L 296.726577 49.260547 
L 297.860923 49.260801 
L 298.995269 49.260765 
L 300.129616 49.260608 
L 301.263962 49.260716 
L 302.398309 49.261751 
L 303.532655 49.263795 
L 304.667002 49.265293 
L 305.801348 49.264733 
L 306.935695 49.263159 
L 308.070041 49.262639 
L 309.204387 49.263282 
L 310.338734 49.263896 
L 311.47308 49.265006 
L 312.607427 49.270095 
L 313.741773 49.28187 
L 314.87612 49.295094 
L 316.010466 49.298433 
L 317.144813 49.289483 
L 318.279159 49.278216 
L 319.413506 49.271965 
L 320.547852 49.269697 
L 321.682198 49.268954 
L 322.816545 49.268822 
L 323.950891 49.269291 
L 325.085238 49.273531 
L 326.219584 49.30037 
L 327.353931 49.414894 
L 328.488277 49.719282 
L 329.622624 50.177602 
L 330.75697 50.461152 
L 331.891316 50.286393 
L 333.025663 49.839128 
L 334.160009 49.489104 
L 335.294356 49.342964 
L 336.428702 49.309359 
L 337.563049 49.312751 
L 338.697395 49.335486 
L 339.831742 49.376651 
L 340.966088 49.417637 
L 342.100435 49.426747 
L 343.234781 49.403207 
L 344.369127 49.38129 
L 345.503474 49.377412 
L 346.63782 49.376485 
L 347.772167 49.367812 
L 348.906513 49.357933 
L 350.04086 49.358964 
L 351.175206 49.411199 
L 352.309553 49.731758 
L 353.443899 51.042441 
L 354.578245 54.400462 
L 355.712592 59.272114 
L 356.846938 62.088307 
L 357.981285 60.025754 
L 359.115631 55.218775 
L 360.249978 51.512741 
L 361.384324 49.943025 
L 362.518671 49.544066 
L 363.653017 49.500848 
L 364.787363 49.535242 
L 365.92171 49.581031 
L 367.056056 49.61255 
L 368.190403 49.617822 
L 369.324749 49.610576 
L 370.459096 49.616335 
L 371.593442 49.628551 
L 372.727789 49.612386 
L 373.862135 49.560594 
L 374.996482 49.503946 
L 376.130828 49.469629 
L 377.265174 49.470349 
L 378.399521 49.546264 
L 379.533867 49.816916 
L 380.668214 50.411728 
L 381.80256 51.166745 
L 382.936907 51.514014 
L 384.071253 51.101928 
L 385.2056 50.309403 
L 386.339946 49.709573 
L 387.474292 49.447414 
L 388.608639 49.373151 
L 389.742985 49.356992 
L 390.877332 49.35098 
L 392.011678 49.343261 
L 393.146025 49.334226 
L 394.280371 49.327111 
L 395.414718 49.32167 
L 396.549064 49.315285 
L 397.683411 49.306353 
L 398.817757 49.295192 
L 399.952103 49.283407 
L 401.08645 49.273216 
L 402.220796 49.266329 
L 403.355143 49.262771 
L 404.489489 49.261559 
L 405.623836 49.261922 
L 406.758182 49.26299 
L 407.892529 49.263434 
L 409.026875 49.262569 
L 409.026875 49.255863 
L 409.026875 49.255863 
L 407.892529 49.254998 
L 406.758182 49.255442 
L 405.623836 49.25651 
L 404.489489 49.256873 
L 403.355143 49.255661 
L 402.220796 49.252103 
L 401.08645 49.245216 
L 399.952103 49.235025 
L 398.817757 49.22324 
L 397.683411 49.212079 
L 396.549064 49.203147 
L 395.414718 49.196762 
L 394.280371 49.191321 
L 393.146025 49.184206 
L 392.011678 49.175171 
L 390.877332 49.167452 
L 389.742985 49.16144 
L 388.608639 49.145281 
L 387.474292 49.071018 
L 386.339946 48.808859 
L 385.2056 48.209029 
L 384.071253 47.416504 
L 382.936907 47.004418 
L 381.80256 47.351686 
L 380.668214 48.106704 
L 379.533867 48.701516 
L 378.399521 48.972168 
L 377.265174 49.048083 
L 376.130828 49.048803 
L 374.996482 49.014486 
L 373.862135 48.957838 
L 372.727789 48.906046 
L 371.593442 48.889881 
L 370.459096 48.902097 
L 369.324749 48.907856 
L 368.190403 48.900609 
L 367.056056 48.905881 
L 365.92171 48.9374 
L 364.787363 48.98319 
L 363.653017 49.017584 
L 362.518671 48.974366 
L 361.384324 48.575406 
L 360.249978 47.005691 
L 359.115631 43.299657 
L 357.981285 38.492677 
L 356.846938 36.430125 
L 355.712592 39.246317 
L 354.578245 44.117969 
L 353.443899 47.475991 
L 352.309553 48.786674 
L 351.175206 49.107232 
L 350.04086 49.159468 
L 348.906513 49.160499 
L 347.772167 49.15062 
L 346.63782 49.141947 
L 345.503474 49.14102 
L 344.369127 49.137142 
L 343.234781 49.115224 
L 342.100435 49.091685 
L 340.966088 49.100795 
L 339.831742 49.141781 
L 338.697395 49.182946 
L 337.563049 49.20568 
L 336.428702 49.209073 
L 335.294356 49.175468 
L 334.160009 49.029327 
L 333.025663 48.679303 
L 331.891316 48.232038 
L 330.75697 48.05728 
L 329.622624 48.34083 
L 328.488277 48.79915 
L 327.353931 49.103538 
L 326.219584 49.218062 
L 325.085238 49.2449 
L 323.950891 49.24914 
L 322.816545 49.249609 
L 321.682198 49.249478 
L 320.547852 49.248734 
L 319.413506 49.246467 
L 318.279159 49.240216 
L 317.144813 49.228949 
L 316.010466 49.219999 
L 314.87612 49.223337 
L 313.741773 49.236562 
L 312.607427 49.248337 
L 311.47308 49.253426 
L 310.338734 49.254536 
L 309.204387 49.255149 
L 308.070041 49.255793 
L 306.935695 49.255273 
L 305.801348 49.253699 
L 304.667002 49.253139 
L 303.532655 49.254637 
L 302.398309 49.25668 
L 301.263962 49.257716 
L 300.129616 49.257824 
L 298.995269 49.257667 
L 297.860923 49.25763 
L 296.726577 49.257885 
z
" style="fill:#ff0000;fill-opacity:0.75;"/>
   </g>
   <g id="LineCollection_1">
    <path clip-path="url(#pbbb08b958c)" d="M 353.407866 312.25558 
L 353.407866 299.426489 
" style="fill:none;stroke:#000000;stroke-width:1.5;"/>
    <path clip-path="url(#pbbb08b958c)" d="M 354.209273 260.939216 
L 354.209273 248.110125 
" style="fill:none;stroke:#000000;stroke-width:1.5;"/>
    <path clip-path="url(#pbbb08b958c)" d="M 353.852406 209.622852 
L 353.852406 196.793761 
" style="fill:none;stroke:#000000;stroke-width:1.5;"/>
    <path clip-path="url(#pbbb08b958c)" d="M 352.868708 158.306489 
L 352.868708 145.477398 
" style="fill:none;stroke:#000000;stroke-width:1.5;"/>
    <path clip-path="url(#pbbb08b958c)" d="M 360.811628 106.990125 
L 360.811628 94.161034 
" style="fill:none;stroke:#000000;stroke-width:1.5;"/>
    <path clip-path="url(#pbbb08b958c)" d="M 359.485436 55.673761 
L 359.485436 42.84467 
" style="fill:none;stroke:#000000;stroke-width:1.5;"/>
   </g>
   <g id="patch_3">
    <path d="M 226.746875 332.782125 
L 226.746875 22.318125 
" style="fill:none;stroke:#000000;stroke-linecap:square;stroke-linejoin:miter;stroke-width:0.8;"/>
   </g>
   <g id="patch_4">
    <path d="M 617.346875 332.782125 
L 617.346875 22.318125 
" style="fill:none;stroke:#000000;stroke-linecap:square;stroke-linejoin:miter;stroke-width:0.8;"/>
   </g>
   <g id="patch_5">
    <path d="M 226.746875 332.782125 
L 617.346875 332.782125 
" style="fill:none;stroke:#000000;stroke-linecap:square;stroke-linejoin:miter;stroke-width:0.8;"/>
   </g>
   <g id="patch_6">
    <path d="M 226.746875 22.318125 
L 617.346875 22.318125 
" style="fill:none;stroke:#000000;stroke-linecap:square;stroke-linejoin:miter;stroke-width:0.8;"/>
   </g>
   <g id="text_17">
    <!-- OE1 for schreiber2018/ismir2018 -->
    <g transform="translate(322.301562 16.318125)scale(0.12 -0.12)">
     <use xlink:href="#DejaVuSans-4f"/>
     <use x="78.710938" xlink:href="#DejaVuSans-45"/>
     <use x="141.894531" xlink:href="#DejaVuSans-31"/>
     <use x="205.517578" xlink:href="#DejaVuSans-20"/>
     <use x="237.304688" xlink:href="#DejaVuSans-66"/>
     <use x="272.509766" xlink:href="#DejaVuSans-6f"/>
     <use x="333.691406" xlink:href="#DejaVuSans-72"/>
     <use x="374.804688" xlink:href="#DejaVuSans-20"/>
     <use x="406.591797" xlink:href="#DejaVuSans-73"/>
     <use x="458.691406" xlink:href="#DejaVuSans-63"/>
     <use x="513.671875" xlink:href="#DejaVuSans-68"/>
     <use x="577.050781" xlink:href="#DejaVuSans-72"/>
     <use x="618.132812" xlink:href="#DejaVuSans-65"/>
     <use x="679.65625" xlink:href="#DejaVuSans-69"/>
     <use x="707.439453" xlink:href="#DejaVuSans-62"/>
     <use x="770.916016" xlink:href="#DejaVuSans-65"/>
     <use x="832.439453" xlink:href="#DejaVuSans-72"/>
     <use x="873.552734" xlink:href="#DejaVuSans-32"/>
     <use x="937.175781" xlink:href="#DejaVuSans-30"/>
     <use x="1000.798828" xlink:href="#DejaVuSans-31"/>
     <use x="1064.421875" xlink:href="#DejaVuSans-38"/>
     <use x="1128.044922" xlink:href="#DejaVuSans-2f"/>
     <use x="1161.736328" xlink:href="#DejaVuSans-69"/>
     <use x="1189.519531" xlink:href="#DejaVuSans-73"/>
     <use x="1241.619141" xlink:href="#DejaVuSans-6d"/>
     <use x="1339.03125" xlink:href="#DejaVuSans-69"/>
     <use x="1366.814453" xlink:href="#DejaVuSans-72"/>
     <use x="1407.927734" xlink:href="#DejaVuSans-32"/>
     <use x="1471.550781" xlink:href="#DejaVuSans-30"/>
     <use x="1535.173828" xlink:href="#DejaVuSans-31"/>
     <use x="1598.796875" xlink:href="#DejaVuSans-38"/>
    </g>
   </g>
  </g>
 </g>
 <defs>
  <clipPath id="pbbb08b958c">
   <rect height="310.464" width="390.6" x="226.746875" y="22.318125"/>
  </clipPath>
 </defs>
</svg>
