<?xml version="1.0" encoding="utf-8" standalone="no"?>
<!DOCTYPE svg PUBLIC "-//W3C//DTD SVG 1.1//EN"
  "http://www.w3.org/Graphics/SVG/1.1/DTD/svg11.dtd">
<!-- Created with matplotlib (http://matplotlib.org/) -->
<svg height="381.426375pt" version="1.1" viewBox="0 0 632.498437 381.426375" width="632.498437pt" xmlns="http://www.w3.org/2000/svg" xmlns:xlink="http://www.w3.org/1999/xlink">
 <defs>
  <style type="text/css">
*{stroke-linecap:butt;stroke-linejoin:round;}
  </style>
 </defs>
 <g id="figure_1">
  <g id="patch_1">
   <path d="M -0 381.426375 
L 632.498438 381.426375 
L 632.498438 0 
L -0 0 
z
" style="fill:#ffffff;"/>
  </g>
  <g id="axes_1">
   <g id="patch_2">
    <path d="M 226.746875 343.870125 
L 617.346875 343.870125 
L 617.346875 22.318125 
L 226.746875 22.318125 
z
" style="fill:#ffffff;"/>
   </g>
   <g id="matplotlib.axis_1">
    <g id="xtick_1">
     <g id="line2d_1">
      <path clip-path="url(#pfebd405bbd)" d="M 226.746875 343.870125 
L 226.746875 22.318125 
" style="fill:none;stroke:#b0b0b0;stroke-linecap:square;stroke-width:0.8;"/>
     </g>
     <g id="line2d_2">
      <defs>
       <path d="M 0 0 
L 0 3.5 
" id="m0b7e9d2445" style="stroke:#000000;stroke-width:0.8;"/>
      </defs>
      <g>
       <use style="stroke:#000000;stroke-width:0.8;" x="226.746875" xlink:href="#m0b7e9d2445" y="343.870125"/>
      </g>
     </g>
     <g id="text_1">
      <!-- 0.0 -->
      <defs>
       <path d="M 31.78125 66.40625 
Q 24.171875 66.40625 20.328125 58.90625 
Q 16.5 51.421875 16.5 36.375 
Q 16.5 21.390625 20.328125 13.890625 
Q 24.171875 6.390625 31.78125 6.390625 
Q 39.453125 6.390625 43.28125 13.890625 
Q 47.125 21.390625 47.125 36.375 
Q 47.125 51.421875 43.28125 58.90625 
Q 39.453125 66.40625 31.78125 66.40625 
z
M 31.78125 74.21875 
Q 44.046875 74.21875 50.515625 64.515625 
Q 56.984375 54.828125 56.984375 36.375 
Q 56.984375 17.96875 50.515625 8.265625 
Q 44.046875 -1.421875 31.78125 -1.421875 
Q 19.53125 -1.421875 13.0625 8.265625 
Q 6.59375 17.96875 6.59375 36.375 
Q 6.59375 54.828125 13.0625 64.515625 
Q 19.53125 74.21875 31.78125 74.21875 
z
" id="DejaVuSans-30"/>
       <path d="M 10.6875 12.40625 
L 21 12.40625 
L 21 0 
L 10.6875 0 
z
" id="DejaVuSans-2e"/>
      </defs>
      <g transform="translate(218.795312 358.468563)scale(0.1 -0.1)">
       <use xlink:href="#DejaVuSans-30"/>
       <use x="63.623047" xlink:href="#DejaVuSans-2e"/>
       <use x="95.410156" xlink:href="#DejaVuSans-30"/>
      </g>
     </g>
    </g>
    <g id="xtick_2">
     <g id="line2d_3">
      <path clip-path="url(#pfebd405bbd)" d="M 304.866875 343.870125 
L 304.866875 22.318125 
" style="fill:none;stroke:#b0b0b0;stroke-linecap:square;stroke-width:0.8;"/>
     </g>
     <g id="line2d_4">
      <g>
       <use style="stroke:#000000;stroke-width:0.8;" x="304.866875" xlink:href="#m0b7e9d2445" y="343.870125"/>
      </g>
     </g>
     <g id="text_2">
      <!-- 0.1 -->
      <defs>
       <path d="M 12.40625 8.296875 
L 28.515625 8.296875 
L 28.515625 63.921875 
L 10.984375 60.40625 
L 10.984375 69.390625 
L 28.421875 72.90625 
L 38.28125 72.90625 
L 38.28125 8.296875 
L 54.390625 8.296875 
L 54.390625 0 
L 12.40625 0 
z
" id="DejaVuSans-31"/>
      </defs>
      <g transform="translate(296.915312 358.468563)scale(0.1 -0.1)">
       <use xlink:href="#DejaVuSans-30"/>
       <use x="63.623047" xlink:href="#DejaVuSans-2e"/>
       <use x="95.410156" xlink:href="#DejaVuSans-31"/>
      </g>
     </g>
    </g>
    <g id="xtick_3">
     <g id="line2d_5">
      <path clip-path="url(#pfebd405bbd)" d="M 382.986875 343.870125 
L 382.986875 22.318125 
" style="fill:none;stroke:#b0b0b0;stroke-linecap:square;stroke-width:0.8;"/>
     </g>
     <g id="line2d_6">
      <g>
       <use style="stroke:#000000;stroke-width:0.8;" x="382.986875" xlink:href="#m0b7e9d2445" y="343.870125"/>
      </g>
     </g>
     <g id="text_3">
      <!-- 0.2 -->
      <defs>
       <path d="M 19.1875 8.296875 
L 53.609375 8.296875 
L 53.609375 0 
L 7.328125 0 
L 7.328125 8.296875 
Q 12.9375 14.109375 22.625 23.890625 
Q 32.328125 33.6875 34.8125 36.53125 
Q 39.546875 41.84375 41.421875 45.53125 
Q 43.3125 49.21875 43.3125 52.78125 
Q 43.3125 58.59375 39.234375 62.25 
Q 35.15625 65.921875 28.609375 65.921875 
Q 23.96875 65.921875 18.8125 64.3125 
Q 13.671875 62.703125 7.8125 59.421875 
L 7.8125 69.390625 
Q 13.765625 71.78125 18.9375 73 
Q 24.125 74.21875 28.421875 74.21875 
Q 39.75 74.21875 46.484375 68.546875 
Q 53.21875 62.890625 53.21875 53.421875 
Q 53.21875 48.921875 51.53125 44.890625 
Q 49.859375 40.875 45.40625 35.40625 
Q 44.1875 33.984375 37.640625 27.21875 
Q 31.109375 20.453125 19.1875 8.296875 
z
" id="DejaVuSans-32"/>
      </defs>
      <g transform="translate(375.035313 358.468563)scale(0.1 -0.1)">
       <use xlink:href="#DejaVuSans-30"/>
       <use x="63.623047" xlink:href="#DejaVuSans-2e"/>
       <use x="95.410156" xlink:href="#DejaVuSans-32"/>
      </g>
     </g>
    </g>
    <g id="xtick_4">
     <g id="line2d_7">
      <path clip-path="url(#pfebd405bbd)" d="M 461.106875 343.870125 
L 461.106875 22.318125 
" style="fill:none;stroke:#b0b0b0;stroke-linecap:square;stroke-width:0.8;"/>
     </g>
     <g id="line2d_8">
      <g>
       <use style="stroke:#000000;stroke-width:0.8;" x="461.106875" xlink:href="#m0b7e9d2445" y="343.870125"/>
      </g>
     </g>
     <g id="text_4">
      <!-- 0.3 -->
      <defs>
       <path d="M 40.578125 39.3125 
Q 47.65625 37.796875 51.625 33 
Q 55.609375 28.21875 55.609375 21.1875 
Q 55.609375 10.40625 48.1875 4.484375 
Q 40.765625 -1.421875 27.09375 -1.421875 
Q 22.515625 -1.421875 17.65625 -0.515625 
Q 12.796875 0.390625 7.625 2.203125 
L 7.625 11.71875 
Q 11.71875 9.328125 16.59375 8.109375 
Q 21.484375 6.890625 26.8125 6.890625 
Q 36.078125 6.890625 40.9375 10.546875 
Q 45.796875 14.203125 45.796875 21.1875 
Q 45.796875 27.640625 41.28125 31.265625 
Q 36.765625 34.90625 28.71875 34.90625 
L 20.21875 34.90625 
L 20.21875 43.015625 
L 29.109375 43.015625 
Q 36.375 43.015625 40.234375 45.921875 
Q 44.09375 48.828125 44.09375 54.296875 
Q 44.09375 59.90625 40.109375 62.90625 
Q 36.140625 65.921875 28.71875 65.921875 
Q 24.65625 65.921875 20.015625 65.03125 
Q 15.375 64.15625 9.8125 62.3125 
L 9.8125 71.09375 
Q 15.4375 72.65625 20.34375 73.4375 
Q 25.25 74.21875 29.59375 74.21875 
Q 40.828125 74.21875 47.359375 69.109375 
Q 53.90625 64.015625 53.90625 55.328125 
Q 53.90625 49.265625 50.4375 45.09375 
Q 46.96875 40.921875 40.578125 39.3125 
z
" id="DejaVuSans-33"/>
      </defs>
      <g transform="translate(453.155313 358.468563)scale(0.1 -0.1)">
       <use xlink:href="#DejaVuSans-30"/>
       <use x="63.623047" xlink:href="#DejaVuSans-2e"/>
       <use x="95.410156" xlink:href="#DejaVuSans-33"/>
      </g>
     </g>
    </g>
    <g id="xtick_5">
     <g id="line2d_9">
      <path clip-path="url(#pfebd405bbd)" d="M 539.226875 343.870125 
L 539.226875 22.318125 
" style="fill:none;stroke:#b0b0b0;stroke-linecap:square;stroke-width:0.8;"/>
     </g>
     <g id="line2d_10">
      <g>
       <use style="stroke:#000000;stroke-width:0.8;" x="539.226875" xlink:href="#m0b7e9d2445" y="343.870125"/>
      </g>
     </g>
     <g id="text_5">
      <!-- 0.4 -->
      <defs>
       <path d="M 37.796875 64.3125 
L 12.890625 25.390625 
L 37.796875 25.390625 
z
M 35.203125 72.90625 
L 47.609375 72.90625 
L 47.609375 25.390625 
L 58.015625 25.390625 
L 58.015625 17.1875 
L 47.609375 17.1875 
L 47.609375 0 
L 37.796875 0 
L 37.796875 17.1875 
L 4.890625 17.1875 
L 4.890625 26.703125 
z
" id="DejaVuSans-34"/>
      </defs>
      <g transform="translate(531.275313 358.468563)scale(0.1 -0.1)">
       <use xlink:href="#DejaVuSans-30"/>
       <use x="63.623047" xlink:href="#DejaVuSans-2e"/>
       <use x="95.410156" xlink:href="#DejaVuSans-34"/>
      </g>
     </g>
    </g>
    <g id="xtick_6">
     <g id="line2d_11">
      <path clip-path="url(#pfebd405bbd)" d="M 617.346875 343.870125 
L 617.346875 22.318125 
" style="fill:none;stroke:#b0b0b0;stroke-linecap:square;stroke-width:0.8;"/>
     </g>
     <g id="line2d_12">
      <g>
       <use style="stroke:#000000;stroke-width:0.8;" x="617.346875" xlink:href="#m0b7e9d2445" y="343.870125"/>
      </g>
     </g>
     <g id="text_6">
      <!-- 0.5 -->
      <defs>
       <path d="M 10.796875 72.90625 
L 49.515625 72.90625 
L 49.515625 64.59375 
L 19.828125 64.59375 
L 19.828125 46.734375 
Q 21.96875 47.46875 24.109375 47.828125 
Q 26.265625 48.1875 28.421875 48.1875 
Q 40.625 48.1875 47.75 41.5 
Q 54.890625 34.8125 54.890625 23.390625 
Q 54.890625 11.625 47.5625 5.09375 
Q 40.234375 -1.421875 26.90625 -1.421875 
Q 22.3125 -1.421875 17.546875 -0.640625 
Q 12.796875 0.140625 7.71875 1.703125 
L 7.71875 11.625 
Q 12.109375 9.234375 16.796875 8.0625 
Q 21.484375 6.890625 26.703125 6.890625 
Q 35.15625 6.890625 40.078125 11.328125 
Q 45.015625 15.765625 45.015625 23.390625 
Q 45.015625 31 40.078125 35.4375 
Q 35.15625 39.890625 26.703125 39.890625 
Q 22.75 39.890625 18.8125 39.015625 
Q 14.890625 38.140625 10.796875 36.28125 
z
" id="DejaVuSans-35"/>
      </defs>
      <g transform="translate(609.395313 358.468563)scale(0.1 -0.1)">
       <use xlink:href="#DejaVuSans-30"/>
       <use x="63.623047" xlink:href="#DejaVuSans-2e"/>
       <use x="95.410156" xlink:href="#DejaVuSans-35"/>
      </g>
     </g>
    </g>
    <g id="text_7">
     <!-- AOE2 (TO) -->
     <defs>
      <path d="M 34.1875 63.1875 
L 20.796875 26.90625 
L 47.609375 26.90625 
z
M 28.609375 72.90625 
L 39.796875 72.90625 
L 67.578125 0 
L 57.328125 0 
L 50.6875 18.703125 
L 17.828125 18.703125 
L 11.1875 0 
L 0.78125 0 
z
" id="DejaVuSans-41"/>
      <path d="M 39.40625 66.21875 
Q 28.65625 66.21875 22.328125 58.203125 
Q 16.015625 50.203125 16.015625 36.375 
Q 16.015625 22.609375 22.328125 14.59375 
Q 28.65625 6.59375 39.40625 6.59375 
Q 50.140625 6.59375 56.421875 14.59375 
Q 62.703125 22.609375 62.703125 36.375 
Q 62.703125 50.203125 56.421875 58.203125 
Q 50.140625 66.21875 39.40625 66.21875 
z
M 39.40625 74.21875 
Q 54.734375 74.21875 63.90625 63.9375 
Q 73.09375 53.65625 73.09375 36.375 
Q 73.09375 19.140625 63.90625 8.859375 
Q 54.734375 -1.421875 39.40625 -1.421875 
Q 24.03125 -1.421875 14.8125 8.828125 
Q 5.609375 19.09375 5.609375 36.375 
Q 5.609375 53.65625 14.8125 63.9375 
Q 24.03125 74.21875 39.40625 74.21875 
z
" id="DejaVuSans-4f"/>
      <path d="M 9.8125 72.90625 
L 55.90625 72.90625 
L 55.90625 64.59375 
L 19.671875 64.59375 
L 19.671875 43.015625 
L 54.390625 43.015625 
L 54.390625 34.71875 
L 19.671875 34.71875 
L 19.671875 8.296875 
L 56.78125 8.296875 
L 56.78125 0 
L 9.8125 0 
z
" id="DejaVuSans-45"/>
      <path id="DejaVuSans-20"/>
      <path d="M 31 75.875 
Q 24.46875 64.65625 21.28125 53.65625 
Q 18.109375 42.671875 18.109375 31.390625 
Q 18.109375 20.125 21.3125 9.0625 
Q 24.515625 -2 31 -13.1875 
L 23.1875 -13.1875 
Q 15.875 -1.703125 12.234375 9.375 
Q 8.59375 20.453125 8.59375 31.390625 
Q 8.59375 42.28125 12.203125 53.3125 
Q 15.828125 64.359375 23.1875 75.875 
z
" id="DejaVuSans-28"/>
      <path d="M -0.296875 72.90625 
L 61.375 72.90625 
L 61.375 64.59375 
L 35.5 64.59375 
L 35.5 0 
L 25.59375 0 
L 25.59375 64.59375 
L -0.296875 64.59375 
z
" id="DejaVuSans-54"/>
      <path d="M 8.015625 75.875 
L 15.828125 75.875 
Q 23.140625 64.359375 26.78125 53.3125 
Q 30.421875 42.28125 30.421875 31.390625 
Q 30.421875 20.453125 26.78125 9.375 
Q 23.140625 -1.703125 15.828125 -13.1875 
L 8.015625 -13.1875 
Q 14.5 -2 17.703125 9.0625 
Q 20.90625 20.125 20.90625 31.390625 
Q 20.90625 42.671875 17.703125 53.65625 
Q 14.5 64.65625 8.015625 75.875 
z
" id="DejaVuSans-29"/>
     </defs>
     <g transform="translate(395.870313 372.146687)scale(0.1 -0.1)">
      <use xlink:href="#DejaVuSans-41"/>
      <use x="68.392578" xlink:href="#DejaVuSans-4f"/>
      <use x="147.103516" xlink:href="#DejaVuSans-45"/>
      <use x="210.287109" xlink:href="#DejaVuSans-32"/>
      <use x="273.910156" xlink:href="#DejaVuSans-20"/>
      <use x="305.697266" xlink:href="#DejaVuSans-28"/>
      <use x="344.710938" xlink:href="#DejaVuSans-54"/>
      <use x="405.794922" xlink:href="#DejaVuSans-4f"/>
      <use x="484.505859" xlink:href="#DejaVuSans-29"/>
     </g>
    </g>
   </g>
   <g id="matplotlib.axis_2">
    <g id="ytick_1">
     <g id="line2d_13">
      <path clip-path="url(#pfebd405bbd)" d="M 226.746875 320.656478 
L 617.346875 320.656478 
" style="fill:none;stroke:#b0b0b0;stroke-linecap:square;stroke-width:0.8;"/>
     </g>
     <g id="line2d_14">
      <defs>
       <path d="M 0 0 
L -3.5 0 
" id="m7d0121f923" style="stroke:#000000;stroke-width:0.8;"/>
      </defs>
      <g>
       <use style="stroke:#000000;stroke-width:0.8;" x="226.746875" xlink:href="#m7d0121f923" y="320.656478"/>
      </g>
     </g>
     <g id="text_8">
      <!-- schreiber2018/ismir2018 -->
      <defs>
       <path d="M 44.28125 53.078125 
L 44.28125 44.578125 
Q 40.484375 46.53125 36.375 47.5 
Q 32.28125 48.484375 27.875 48.484375 
Q 21.1875 48.484375 17.84375 46.4375 
Q 14.5 44.390625 14.5 40.28125 
Q 14.5 37.15625 16.890625 35.375 
Q 19.28125 33.59375 26.515625 31.984375 
L 29.59375 31.296875 
Q 39.15625 29.25 43.1875 25.515625 
Q 47.21875 21.78125 47.21875 15.09375 
Q 47.21875 7.46875 41.1875 3.015625 
Q 35.15625 -1.421875 24.609375 -1.421875 
Q 20.21875 -1.421875 15.453125 -0.5625 
Q 10.6875 0.296875 5.421875 2 
L 5.421875 11.28125 
Q 10.40625 8.6875 15.234375 7.390625 
Q 20.0625 6.109375 24.8125 6.109375 
Q 31.15625 6.109375 34.5625 8.28125 
Q 37.984375 10.453125 37.984375 14.40625 
Q 37.984375 18.0625 35.515625 20.015625 
Q 33.0625 21.96875 24.703125 23.78125 
L 21.578125 24.515625 
Q 13.234375 26.265625 9.515625 29.90625 
Q 5.8125 33.546875 5.8125 39.890625 
Q 5.8125 47.609375 11.28125 51.796875 
Q 16.75 56 26.8125 56 
Q 31.78125 56 36.171875 55.265625 
Q 40.578125 54.546875 44.28125 53.078125 
z
" id="DejaVuSans-73"/>
       <path d="M 48.78125 52.59375 
L 48.78125 44.1875 
Q 44.96875 46.296875 41.140625 47.34375 
Q 37.3125 48.390625 33.40625 48.390625 
Q 24.65625 48.390625 19.8125 42.84375 
Q 14.984375 37.3125 14.984375 27.296875 
Q 14.984375 17.28125 19.8125 11.734375 
Q 24.65625 6.203125 33.40625 6.203125 
Q 37.3125 6.203125 41.140625 7.25 
Q 44.96875 8.296875 48.78125 10.40625 
L 48.78125 2.09375 
Q 45.015625 0.34375 40.984375 -0.53125 
Q 36.96875 -1.421875 32.421875 -1.421875 
Q 20.0625 -1.421875 12.78125 6.34375 
Q 5.515625 14.109375 5.515625 27.296875 
Q 5.515625 40.671875 12.859375 48.328125 
Q 20.21875 56 33.015625 56 
Q 37.15625 56 41.109375 55.140625 
Q 45.0625 54.296875 48.78125 52.59375 
z
" id="DejaVuSans-63"/>
       <path d="M 54.890625 33.015625 
L 54.890625 0 
L 45.90625 0 
L 45.90625 32.71875 
Q 45.90625 40.484375 42.875 44.328125 
Q 39.84375 48.1875 33.796875 48.1875 
Q 26.515625 48.1875 22.3125 43.546875 
Q 18.109375 38.921875 18.109375 30.90625 
L 18.109375 0 
L 9.078125 0 
L 9.078125 75.984375 
L 18.109375 75.984375 
L 18.109375 46.1875 
Q 21.34375 51.125 25.703125 53.5625 
Q 30.078125 56 35.796875 56 
Q 45.21875 56 50.046875 50.171875 
Q 54.890625 44.34375 54.890625 33.015625 
z
" id="DejaVuSans-68"/>
       <path d="M 41.109375 46.296875 
Q 39.59375 47.171875 37.8125 47.578125 
Q 36.03125 48 33.890625 48 
Q 26.265625 48 22.1875 43.046875 
Q 18.109375 38.09375 18.109375 28.8125 
L 18.109375 0 
L 9.078125 0 
L 9.078125 54.6875 
L 18.109375 54.6875 
L 18.109375 46.1875 
Q 20.953125 51.171875 25.484375 53.578125 
Q 30.03125 56 36.53125 56 
Q 37.453125 56 38.578125 55.875 
Q 39.703125 55.765625 41.0625 55.515625 
z
" id="DejaVuSans-72"/>
       <path d="M 56.203125 29.59375 
L 56.203125 25.203125 
L 14.890625 25.203125 
Q 15.484375 15.921875 20.484375 11.0625 
Q 25.484375 6.203125 34.421875 6.203125 
Q 39.59375 6.203125 44.453125 7.46875 
Q 49.3125 8.734375 54.109375 11.28125 
L 54.109375 2.78125 
Q 49.265625 0.734375 44.1875 -0.34375 
Q 39.109375 -1.421875 33.890625 -1.421875 
Q 20.796875 -1.421875 13.15625 6.1875 
Q 5.515625 13.8125 5.515625 26.8125 
Q 5.515625 40.234375 12.765625 48.109375 
Q 20.015625 56 32.328125 56 
Q 43.359375 56 49.78125 48.890625 
Q 56.203125 41.796875 56.203125 29.59375 
z
M 47.21875 32.234375 
Q 47.125 39.59375 43.09375 43.984375 
Q 39.0625 48.390625 32.421875 48.390625 
Q 24.90625 48.390625 20.390625 44.140625 
Q 15.875 39.890625 15.1875 32.171875 
z
" id="DejaVuSans-65"/>
       <path d="M 9.421875 54.6875 
L 18.40625 54.6875 
L 18.40625 0 
L 9.421875 0 
z
M 9.421875 75.984375 
L 18.40625 75.984375 
L 18.40625 64.59375 
L 9.421875 64.59375 
z
" id="DejaVuSans-69"/>
       <path d="M 48.6875 27.296875 
Q 48.6875 37.203125 44.609375 42.84375 
Q 40.53125 48.484375 33.40625 48.484375 
Q 26.265625 48.484375 22.1875 42.84375 
Q 18.109375 37.203125 18.109375 27.296875 
Q 18.109375 17.390625 22.1875 11.75 
Q 26.265625 6.109375 33.40625 6.109375 
Q 40.53125 6.109375 44.609375 11.75 
Q 48.6875 17.390625 48.6875 27.296875 
z
M 18.109375 46.390625 
Q 20.953125 51.265625 25.265625 53.625 
Q 29.59375 56 35.59375 56 
Q 45.5625 56 51.78125 48.09375 
Q 58.015625 40.1875 58.015625 27.296875 
Q 58.015625 14.40625 51.78125 6.484375 
Q 45.5625 -1.421875 35.59375 -1.421875 
Q 29.59375 -1.421875 25.265625 0.953125 
Q 20.953125 3.328125 18.109375 8.203125 
L 18.109375 0 
L 9.078125 0 
L 9.078125 75.984375 
L 18.109375 75.984375 
z
" id="DejaVuSans-62"/>
       <path d="M 31.78125 34.625 
Q 24.75 34.625 20.71875 30.859375 
Q 16.703125 27.09375 16.703125 20.515625 
Q 16.703125 13.921875 20.71875 10.15625 
Q 24.75 6.390625 31.78125 6.390625 
Q 38.8125 6.390625 42.859375 10.171875 
Q 46.921875 13.96875 46.921875 20.515625 
Q 46.921875 27.09375 42.890625 30.859375 
Q 38.875 34.625 31.78125 34.625 
z
M 21.921875 38.8125 
Q 15.578125 40.375 12.03125 44.71875 
Q 8.5 49.078125 8.5 55.328125 
Q 8.5 64.0625 14.71875 69.140625 
Q 20.953125 74.21875 31.78125 74.21875 
Q 42.671875 74.21875 48.875 69.140625 
Q 55.078125 64.0625 55.078125 55.328125 
Q 55.078125 49.078125 51.53125 44.71875 
Q 48 40.375 41.703125 38.8125 
Q 48.828125 37.15625 52.796875 32.3125 
Q 56.78125 27.484375 56.78125 20.515625 
Q 56.78125 9.90625 50.3125 4.234375 
Q 43.84375 -1.421875 31.78125 -1.421875 
Q 19.734375 -1.421875 13.25 4.234375 
Q 6.78125 9.90625 6.78125 20.515625 
Q 6.78125 27.484375 10.78125 32.3125 
Q 14.796875 37.15625 21.921875 38.8125 
z
M 18.3125 54.390625 
Q 18.3125 48.734375 21.84375 45.5625 
Q 25.390625 42.390625 31.78125 42.390625 
Q 38.140625 42.390625 41.71875 45.5625 
Q 45.3125 48.734375 45.3125 54.390625 
Q 45.3125 60.0625 41.71875 63.234375 
Q 38.140625 66.40625 31.78125 66.40625 
Q 25.390625 66.40625 21.84375 63.234375 
Q 18.3125 60.0625 18.3125 54.390625 
z
" id="DejaVuSans-38"/>
       <path d="M 25.390625 72.90625 
L 33.6875 72.90625 
L 8.296875 -9.28125 
L 0 -9.28125 
z
" id="DejaVuSans-2f"/>
       <path d="M 52 44.1875 
Q 55.375 50.25 60.0625 53.125 
Q 64.75 56 71.09375 56 
Q 79.640625 56 84.28125 50.015625 
Q 88.921875 44.046875 88.921875 33.015625 
L 88.921875 0 
L 79.890625 0 
L 79.890625 32.71875 
Q 79.890625 40.578125 77.09375 44.375 
Q 74.3125 48.1875 68.609375 48.1875 
Q 61.625 48.1875 57.5625 43.546875 
Q 53.515625 38.921875 53.515625 30.90625 
L 53.515625 0 
L 44.484375 0 
L 44.484375 32.71875 
Q 44.484375 40.625 41.703125 44.40625 
Q 38.921875 48.1875 33.109375 48.1875 
Q 26.21875 48.1875 22.15625 43.53125 
Q 18.109375 38.875 18.109375 30.90625 
L 18.109375 0 
L 9.078125 0 
L 9.078125 54.6875 
L 18.109375 54.6875 
L 18.109375 46.1875 
Q 21.1875 51.21875 25.484375 53.609375 
Q 29.78125 56 35.6875 56 
Q 41.65625 56 45.828125 52.96875 
Q 50 49.953125 52 44.1875 
z
" id="DejaVuSans-6d"/>
      </defs>
      <g transform="translate(94.164062 324.455697)scale(0.1 -0.1)">
       <use xlink:href="#DejaVuSans-73"/>
       <use x="52.099609" xlink:href="#DejaVuSans-63"/>
       <use x="107.080078" xlink:href="#DejaVuSans-68"/>
       <use x="170.458984" xlink:href="#DejaVuSans-72"/>
       <use x="211.541016" xlink:href="#DejaVuSans-65"/>
       <use x="273.064453" xlink:href="#DejaVuSans-69"/>
       <use x="300.847656" xlink:href="#DejaVuSans-62"/>
       <use x="364.324219" xlink:href="#DejaVuSans-65"/>
       <use x="425.847656" xlink:href="#DejaVuSans-72"/>
       <use x="466.960938" xlink:href="#DejaVuSans-32"/>
       <use x="530.583984" xlink:href="#DejaVuSans-30"/>
       <use x="594.207031" xlink:href="#DejaVuSans-31"/>
       <use x="657.830078" xlink:href="#DejaVuSans-38"/>
       <use x="721.453125" xlink:href="#DejaVuSans-2f"/>
       <use x="755.144531" xlink:href="#DejaVuSans-69"/>
       <use x="782.927734" xlink:href="#DejaVuSans-73"/>
       <use x="835.027344" xlink:href="#DejaVuSans-6d"/>
       <use x="932.439453" xlink:href="#DejaVuSans-69"/>
       <use x="960.222656" xlink:href="#DejaVuSans-72"/>
       <use x="1001.335938" xlink:href="#DejaVuSans-32"/>
       <use x="1064.958984" xlink:href="#DejaVuSans-30"/>
       <use x="1128.582031" xlink:href="#DejaVuSans-31"/>
       <use x="1192.205078" xlink:href="#DejaVuSans-38"/>
      </g>
     </g>
    </g>
    <g id="ytick_2">
     <g id="line2d_15">
      <path clip-path="url(#pfebd405bbd)" d="M 226.746875 286.26589 
L 617.346875 286.26589 
" style="fill:none;stroke:#b0b0b0;stroke-linecap:square;stroke-width:0.8;"/>
     </g>
     <g id="line2d_16">
      <g>
       <use style="stroke:#000000;stroke-width:0.8;" x="226.746875" xlink:href="#m7d0121f923" y="286.26589"/>
      </g>
     </g>
     <g id="text_9">
      <!-- schreiber2018/fcn -->
      <defs>
       <path d="M 37.109375 75.984375 
L 37.109375 68.5 
L 28.515625 68.5 
Q 23.6875 68.5 21.796875 66.546875 
Q 19.921875 64.59375 19.921875 59.515625 
L 19.921875 54.6875 
L 34.71875 54.6875 
L 34.71875 47.703125 
L 19.921875 47.703125 
L 19.921875 0 
L 10.890625 0 
L 10.890625 47.703125 
L 2.296875 47.703125 
L 2.296875 54.6875 
L 10.890625 54.6875 
L 10.890625 58.5 
Q 10.890625 67.625 15.140625 71.796875 
Q 19.390625 75.984375 28.609375 75.984375 
z
" id="DejaVuSans-66"/>
       <path d="M 54.890625 33.015625 
L 54.890625 0 
L 45.90625 0 
L 45.90625 32.71875 
Q 45.90625 40.484375 42.875 44.328125 
Q 39.84375 48.1875 33.796875 48.1875 
Q 26.515625 48.1875 22.3125 43.546875 
Q 18.109375 38.921875 18.109375 30.90625 
L 18.109375 0 
L 9.078125 0 
L 9.078125 54.6875 
L 18.109375 54.6875 
L 18.109375 46.1875 
Q 21.34375 51.125 25.703125 53.5625 
Q 30.078125 56 35.796875 56 
Q 45.21875 56 50.046875 50.171875 
Q 54.890625 44.34375 54.890625 33.015625 
z
" id="DejaVuSans-6e"/>
      </defs>
      <g transform="translate(128.875 290.065108)scale(0.1 -0.1)">
       <use xlink:href="#DejaVuSans-73"/>
       <use x="52.099609" xlink:href="#DejaVuSans-63"/>
       <use x="107.080078" xlink:href="#DejaVuSans-68"/>
       <use x="170.458984" xlink:href="#DejaVuSans-72"/>
       <use x="211.541016" xlink:href="#DejaVuSans-65"/>
       <use x="273.064453" xlink:href="#DejaVuSans-69"/>
       <use x="300.847656" xlink:href="#DejaVuSans-62"/>
       <use x="364.324219" xlink:href="#DejaVuSans-65"/>
       <use x="425.847656" xlink:href="#DejaVuSans-72"/>
       <use x="466.960938" xlink:href="#DejaVuSans-32"/>
       <use x="530.583984" xlink:href="#DejaVuSans-30"/>
       <use x="594.207031" xlink:href="#DejaVuSans-31"/>
       <use x="657.830078" xlink:href="#DejaVuSans-38"/>
       <use x="721.453125" xlink:href="#DejaVuSans-2f"/>
       <use x="755.144531" xlink:href="#DejaVuSans-66"/>
       <use x="790.349609" xlink:href="#DejaVuSans-63"/>
       <use x="845.330078" xlink:href="#DejaVuSans-6e"/>
      </g>
     </g>
    </g>
    <g id="ytick_3">
     <g id="line2d_17">
      <path clip-path="url(#pfebd405bbd)" d="M 226.746875 251.875301 
L 617.346875 251.875301 
" style="fill:none;stroke:#b0b0b0;stroke-linecap:square;stroke-width:0.8;"/>
     </g>
     <g id="line2d_18">
      <g>
       <use style="stroke:#000000;stroke-width:0.8;" x="226.746875" xlink:href="#m7d0121f923" y="251.875301"/>
      </g>
     </g>
     <g id="text_10">
      <!-- schreiber2018/cnn -->
      <g transform="translate(126.057812 255.67452)scale(0.1 -0.1)">
       <use xlink:href="#DejaVuSans-73"/>
       <use x="52.099609" xlink:href="#DejaVuSans-63"/>
       <use x="107.080078" xlink:href="#DejaVuSans-68"/>
       <use x="170.458984" xlink:href="#DejaVuSans-72"/>
       <use x="211.541016" xlink:href="#DejaVuSans-65"/>
       <use x="273.064453" xlink:href="#DejaVuSans-69"/>
       <use x="300.847656" xlink:href="#DejaVuSans-62"/>
       <use x="364.324219" xlink:href="#DejaVuSans-65"/>
       <use x="425.847656" xlink:href="#DejaVuSans-72"/>
       <use x="466.960938" xlink:href="#DejaVuSans-32"/>
       <use x="530.583984" xlink:href="#DejaVuSans-30"/>
       <use x="594.207031" xlink:href="#DejaVuSans-31"/>
       <use x="657.830078" xlink:href="#DejaVuSans-38"/>
       <use x="721.453125" xlink:href="#DejaVuSans-2f"/>
       <use x="755.144531" xlink:href="#DejaVuSans-63"/>
       <use x="810.125" xlink:href="#DejaVuSans-6e"/>
       <use x="873.503906" xlink:href="#DejaVuSans-6e"/>
      </g>
     </g>
    </g>
    <g id="ytick_4">
     <g id="line2d_19">
      <path clip-path="url(#pfebd405bbd)" d="M 226.746875 217.484713 
L 617.346875 217.484713 
" style="fill:none;stroke:#b0b0b0;stroke-linecap:square;stroke-width:0.8;"/>
     </g>
     <g id="line2d_20">
      <g>
       <use style="stroke:#000000;stroke-width:0.8;" x="226.746875" xlink:href="#m7d0121f923" y="217.484713"/>
      </g>
     </g>
     <g id="text_11">
      <!-- schreiber2017/mirex2017 -->
      <defs>
       <path d="M 8.203125 72.90625 
L 55.078125 72.90625 
L 55.078125 68.703125 
L 28.609375 0 
L 18.3125 0 
L 43.21875 64.59375 
L 8.203125 64.59375 
z
" id="DejaVuSans-37"/>
       <path d="M 54.890625 54.6875 
L 35.109375 28.078125 
L 55.90625 0 
L 45.3125 0 
L 29.390625 21.484375 
L 13.484375 0 
L 2.875 0 
L 24.125 28.609375 
L 4.6875 54.6875 
L 15.28125 54.6875 
L 29.78125 35.203125 
L 44.28125 54.6875 
z
" id="DejaVuSans-78"/>
      </defs>
      <g transform="translate(90.084375 221.283932)scale(0.1 -0.1)">
       <use xlink:href="#DejaVuSans-73"/>
       <use x="52.099609" xlink:href="#DejaVuSans-63"/>
       <use x="107.080078" xlink:href="#DejaVuSans-68"/>
       <use x="170.458984" xlink:href="#DejaVuSans-72"/>
       <use x="211.541016" xlink:href="#DejaVuSans-65"/>
       <use x="273.064453" xlink:href="#DejaVuSans-69"/>
       <use x="300.847656" xlink:href="#DejaVuSans-62"/>
       <use x="364.324219" xlink:href="#DejaVuSans-65"/>
       <use x="425.847656" xlink:href="#DejaVuSans-72"/>
       <use x="466.960938" xlink:href="#DejaVuSans-32"/>
       <use x="530.583984" xlink:href="#DejaVuSans-30"/>
       <use x="594.207031" xlink:href="#DejaVuSans-31"/>
       <use x="657.830078" xlink:href="#DejaVuSans-37"/>
       <use x="721.453125" xlink:href="#DejaVuSans-2f"/>
       <use x="755.144531" xlink:href="#DejaVuSans-6d"/>
       <use x="852.556641" xlink:href="#DejaVuSans-69"/>
       <use x="880.339844" xlink:href="#DejaVuSans-72"/>
       <use x="921.421875" xlink:href="#DejaVuSans-65"/>
       <use x="982.929688" xlink:href="#DejaVuSans-78"/>
       <use x="1042.109375" xlink:href="#DejaVuSans-32"/>
       <use x="1105.732422" xlink:href="#DejaVuSans-30"/>
       <use x="1169.355469" xlink:href="#DejaVuSans-31"/>
       <use x="1232.978516" xlink:href="#DejaVuSans-37"/>
      </g>
     </g>
    </g>
    <g id="ytick_5">
     <g id="line2d_21">
      <path clip-path="url(#pfebd405bbd)" d="M 226.746875 183.094125 
L 617.346875 183.094125 
" style="fill:none;stroke:#b0b0b0;stroke-linecap:square;stroke-width:0.8;"/>
     </g>
     <g id="line2d_22">
      <g>
       <use style="stroke:#000000;stroke-width:0.8;" x="226.746875" xlink:href="#m7d0121f923" y="183.094125"/>
      </g>
     </g>
     <g id="text_12">
      <!-- schreiber2017/ismir2017 -->
      <g transform="translate(94.164062 186.893344)scale(0.1 -0.1)">
       <use xlink:href="#DejaVuSans-73"/>
       <use x="52.099609" xlink:href="#DejaVuSans-63"/>
       <use x="107.080078" xlink:href="#DejaVuSans-68"/>
       <use x="170.458984" xlink:href="#DejaVuSans-72"/>
       <use x="211.541016" xlink:href="#DejaVuSans-65"/>
       <use x="273.064453" xlink:href="#DejaVuSans-69"/>
       <use x="300.847656" xlink:href="#DejaVuSans-62"/>
       <use x="364.324219" xlink:href="#DejaVuSans-65"/>
       <use x="425.847656" xlink:href="#DejaVuSans-72"/>
       <use x="466.960938" xlink:href="#DejaVuSans-32"/>
       <use x="530.583984" xlink:href="#DejaVuSans-30"/>
       <use x="594.207031" xlink:href="#DejaVuSans-31"/>
       <use x="657.830078" xlink:href="#DejaVuSans-37"/>
       <use x="721.453125" xlink:href="#DejaVuSans-2f"/>
       <use x="755.144531" xlink:href="#DejaVuSans-69"/>
       <use x="782.927734" xlink:href="#DejaVuSans-73"/>
       <use x="835.027344" xlink:href="#DejaVuSans-6d"/>
       <use x="932.439453" xlink:href="#DejaVuSans-69"/>
       <use x="960.222656" xlink:href="#DejaVuSans-72"/>
       <use x="1001.335938" xlink:href="#DejaVuSans-32"/>
       <use x="1064.958984" xlink:href="#DejaVuSans-30"/>
       <use x="1128.582031" xlink:href="#DejaVuSans-31"/>
       <use x="1192.205078" xlink:href="#DejaVuSans-37"/>
      </g>
     </g>
    </g>
    <g id="ytick_6">
     <g id="line2d_23">
      <path clip-path="url(#pfebd405bbd)" d="M 226.746875 148.703537 
L 617.346875 148.703537 
" style="fill:none;stroke:#b0b0b0;stroke-linecap:square;stroke-width:0.8;"/>
     </g>
     <g id="line2d_24">
      <g>
       <use style="stroke:#000000;stroke-width:0.8;" x="226.746875" xlink:href="#m7d0121f923" y="148.703537"/>
      </g>
     </g>
     <g id="text_13">
      <!-- schreiber2014/default -->
      <defs>
       <path d="M 45.40625 46.390625 
L 45.40625 75.984375 
L 54.390625 75.984375 
L 54.390625 0 
L 45.40625 0 
L 45.40625 8.203125 
Q 42.578125 3.328125 38.25 0.953125 
Q 33.9375 -1.421875 27.875 -1.421875 
Q 17.96875 -1.421875 11.734375 6.484375 
Q 5.515625 14.40625 5.515625 27.296875 
Q 5.515625 40.1875 11.734375 48.09375 
Q 17.96875 56 27.875 56 
Q 33.9375 56 38.25 53.625 
Q 42.578125 51.265625 45.40625 46.390625 
z
M 14.796875 27.296875 
Q 14.796875 17.390625 18.875 11.75 
Q 22.953125 6.109375 30.078125 6.109375 
Q 37.203125 6.109375 41.296875 11.75 
Q 45.40625 17.390625 45.40625 27.296875 
Q 45.40625 37.203125 41.296875 42.84375 
Q 37.203125 48.484375 30.078125 48.484375 
Q 22.953125 48.484375 18.875 42.84375 
Q 14.796875 37.203125 14.796875 27.296875 
z
" id="DejaVuSans-64"/>
       <path d="M 34.28125 27.484375 
Q 23.390625 27.484375 19.1875 25 
Q 14.984375 22.515625 14.984375 16.5 
Q 14.984375 11.71875 18.140625 8.90625 
Q 21.296875 6.109375 26.703125 6.109375 
Q 34.1875 6.109375 38.703125 11.40625 
Q 43.21875 16.703125 43.21875 25.484375 
L 43.21875 27.484375 
z
M 52.203125 31.203125 
L 52.203125 0 
L 43.21875 0 
L 43.21875 8.296875 
Q 40.140625 3.328125 35.546875 0.953125 
Q 30.953125 -1.421875 24.3125 -1.421875 
Q 15.921875 -1.421875 10.953125 3.296875 
Q 6 8.015625 6 15.921875 
Q 6 25.140625 12.171875 29.828125 
Q 18.359375 34.515625 30.609375 34.515625 
L 43.21875 34.515625 
L 43.21875 35.40625 
Q 43.21875 41.609375 39.140625 45 
Q 35.0625 48.390625 27.6875 48.390625 
Q 23 48.390625 18.546875 47.265625 
Q 14.109375 46.140625 10.015625 43.890625 
L 10.015625 52.203125 
Q 14.9375 54.109375 19.578125 55.046875 
Q 24.21875 56 28.609375 56 
Q 40.484375 56 46.34375 49.84375 
Q 52.203125 43.703125 52.203125 31.203125 
z
" id="DejaVuSans-61"/>
       <path d="M 8.5 21.578125 
L 8.5 54.6875 
L 17.484375 54.6875 
L 17.484375 21.921875 
Q 17.484375 14.15625 20.5 10.265625 
Q 23.53125 6.390625 29.59375 6.390625 
Q 36.859375 6.390625 41.078125 11.03125 
Q 45.3125 15.671875 45.3125 23.6875 
L 45.3125 54.6875 
L 54.296875 54.6875 
L 54.296875 0 
L 45.3125 0 
L 45.3125 8.40625 
Q 42.046875 3.421875 37.71875 1 
Q 33.40625 -1.421875 27.6875 -1.421875 
Q 18.265625 -1.421875 13.375 4.4375 
Q 8.5 10.296875 8.5 21.578125 
z
M 31.109375 56 
z
" id="DejaVuSans-75"/>
       <path d="M 9.421875 75.984375 
L 18.40625 75.984375 
L 18.40625 0 
L 9.421875 0 
z
" id="DejaVuSans-6c"/>
       <path d="M 18.3125 70.21875 
L 18.3125 54.6875 
L 36.8125 54.6875 
L 36.8125 47.703125 
L 18.3125 47.703125 
L 18.3125 18.015625 
Q 18.3125 11.328125 20.140625 9.421875 
Q 21.96875 7.515625 27.59375 7.515625 
L 36.8125 7.515625 
L 36.8125 0 
L 27.59375 0 
Q 17.1875 0 13.234375 3.875 
Q 9.28125 7.765625 9.28125 18.015625 
L 9.28125 47.703125 
L 2.6875 47.703125 
L 2.6875 54.6875 
L 9.28125 54.6875 
L 9.28125 70.21875 
z
" id="DejaVuSans-74"/>
      </defs>
      <g transform="translate(109.045312 152.502756)scale(0.1 -0.1)">
       <use xlink:href="#DejaVuSans-73"/>
       <use x="52.099609" xlink:href="#DejaVuSans-63"/>
       <use x="107.080078" xlink:href="#DejaVuSans-68"/>
       <use x="170.458984" xlink:href="#DejaVuSans-72"/>
       <use x="211.541016" xlink:href="#DejaVuSans-65"/>
       <use x="273.064453" xlink:href="#DejaVuSans-69"/>
       <use x="300.847656" xlink:href="#DejaVuSans-62"/>
       <use x="364.324219" xlink:href="#DejaVuSans-65"/>
       <use x="425.847656" xlink:href="#DejaVuSans-72"/>
       <use x="466.960938" xlink:href="#DejaVuSans-32"/>
       <use x="530.583984" xlink:href="#DejaVuSans-30"/>
       <use x="594.207031" xlink:href="#DejaVuSans-31"/>
       <use x="657.830078" xlink:href="#DejaVuSans-34"/>
       <use x="721.453125" xlink:href="#DejaVuSans-2f"/>
       <use x="755.144531" xlink:href="#DejaVuSans-64"/>
       <use x="818.621094" xlink:href="#DejaVuSans-65"/>
       <use x="880.144531" xlink:href="#DejaVuSans-66"/>
       <use x="915.349609" xlink:href="#DejaVuSans-61"/>
       <use x="976.628906" xlink:href="#DejaVuSans-75"/>
       <use x="1040.007812" xlink:href="#DejaVuSans-6c"/>
       <use x="1067.791016" xlink:href="#DejaVuSans-74"/>
      </g>
     </g>
    </g>
    <g id="ytick_7">
     <g id="line2d_25">
      <path clip-path="url(#pfebd405bbd)" d="M 226.746875 114.312949 
L 617.346875 114.312949 
" style="fill:none;stroke:#b0b0b0;stroke-linecap:square;stroke-width:0.8;"/>
     </g>
     <g id="line2d_26">
      <g>
       <use style="stroke:#000000;stroke-width:0.8;" x="226.746875" xlink:href="#m7d0121f923" y="114.312949"/>
      </g>
     </g>
     <g id="text_14">
      <!-- percival2014/stem -->
      <defs>
       <path d="M 18.109375 8.203125 
L 18.109375 -20.796875 
L 9.078125 -20.796875 
L 9.078125 54.6875 
L 18.109375 54.6875 
L 18.109375 46.390625 
Q 20.953125 51.265625 25.265625 53.625 
Q 29.59375 56 35.59375 56 
Q 45.5625 56 51.78125 48.09375 
Q 58.015625 40.1875 58.015625 27.296875 
Q 58.015625 14.40625 51.78125 6.484375 
Q 45.5625 -1.421875 35.59375 -1.421875 
Q 29.59375 -1.421875 25.265625 0.953125 
Q 20.953125 3.328125 18.109375 8.203125 
z
M 48.6875 27.296875 
Q 48.6875 37.203125 44.609375 42.84375 
Q 40.53125 48.484375 33.40625 48.484375 
Q 26.265625 48.484375 22.1875 42.84375 
Q 18.109375 37.203125 18.109375 27.296875 
Q 18.109375 17.390625 22.1875 11.75 
Q 26.265625 6.109375 33.40625 6.109375 
Q 40.53125 6.109375 44.609375 11.75 
Q 48.6875 17.390625 48.6875 27.296875 
z
" id="DejaVuSans-70"/>
       <path d="M 2.984375 54.6875 
L 12.5 54.6875 
L 29.59375 8.796875 
L 46.6875 54.6875 
L 56.203125 54.6875 
L 35.6875 0 
L 23.484375 0 
z
" id="DejaVuSans-76"/>
      </defs>
      <g transform="translate(126.19375 118.112167)scale(0.1 -0.1)">
       <use xlink:href="#DejaVuSans-70"/>
       <use x="63.476562" xlink:href="#DejaVuSans-65"/>
       <use x="125" xlink:href="#DejaVuSans-72"/>
       <use x="166.082031" xlink:href="#DejaVuSans-63"/>
       <use x="221.0625" xlink:href="#DejaVuSans-69"/>
       <use x="248.845703" xlink:href="#DejaVuSans-76"/>
       <use x="308.025391" xlink:href="#DejaVuSans-61"/>
       <use x="369.304688" xlink:href="#DejaVuSans-6c"/>
       <use x="397.087891" xlink:href="#DejaVuSans-32"/>
       <use x="460.710938" xlink:href="#DejaVuSans-30"/>
       <use x="524.333984" xlink:href="#DejaVuSans-31"/>
       <use x="587.957031" xlink:href="#DejaVuSans-34"/>
       <use x="651.580078" xlink:href="#DejaVuSans-2f"/>
       <use x="685.271484" xlink:href="#DejaVuSans-73"/>
       <use x="737.371094" xlink:href="#DejaVuSans-74"/>
       <use x="776.580078" xlink:href="#DejaVuSans-65"/>
       <use x="838.103516" xlink:href="#DejaVuSans-6d"/>
      </g>
     </g>
    </g>
    <g id="ytick_8">
     <g id="line2d_27">
      <path clip-path="url(#pfebd405bbd)" d="M 226.746875 79.92236 
L 617.346875 79.92236 
" style="fill:none;stroke:#b0b0b0;stroke-linecap:square;stroke-width:0.8;"/>
     </g>
     <g id="line2d_28">
      <g>
       <use style="stroke:#000000;stroke-width:0.8;" x="226.746875" xlink:href="#m7d0121f923" y="79.92236"/>
      </g>
     </g>
     <g id="text_15">
      <!-- davies2009/mirex_qm_tempotracker -->
      <defs>
       <path d="M 10.984375 1.515625 
L 10.984375 10.5 
Q 14.703125 8.734375 18.5 7.8125 
Q 22.3125 6.890625 25.984375 6.890625 
Q 35.75 6.890625 40.890625 13.453125 
Q 46.046875 20.015625 46.78125 33.40625 
Q 43.953125 29.203125 39.59375 26.953125 
Q 35.25 24.703125 29.984375 24.703125 
Q 19.046875 24.703125 12.671875 31.3125 
Q 6.296875 37.9375 6.296875 49.421875 
Q 6.296875 60.640625 12.9375 67.421875 
Q 19.578125 74.21875 30.609375 74.21875 
Q 43.265625 74.21875 49.921875 64.515625 
Q 56.59375 54.828125 56.59375 36.375 
Q 56.59375 19.140625 48.40625 8.859375 
Q 40.234375 -1.421875 26.421875 -1.421875 
Q 22.703125 -1.421875 18.890625 -0.6875 
Q 15.09375 0.046875 10.984375 1.515625 
z
M 30.609375 32.421875 
Q 37.25 32.421875 41.125 36.953125 
Q 45.015625 41.5 45.015625 49.421875 
Q 45.015625 57.28125 41.125 61.84375 
Q 37.25 66.40625 30.609375 66.40625 
Q 23.96875 66.40625 20.09375 61.84375 
Q 16.21875 57.28125 16.21875 49.421875 
Q 16.21875 41.5 20.09375 36.953125 
Q 23.96875 32.421875 30.609375 32.421875 
z
" id="DejaVuSans-39"/>
       <path d="M 50.984375 -16.609375 
L 50.984375 -23.578125 
L -0.984375 -23.578125 
L -0.984375 -16.609375 
z
" id="DejaVuSans-5f"/>
       <path d="M 14.796875 27.296875 
Q 14.796875 17.390625 18.875 11.75 
Q 22.953125 6.109375 30.078125 6.109375 
Q 37.203125 6.109375 41.296875 11.75 
Q 45.40625 17.390625 45.40625 27.296875 
Q 45.40625 37.203125 41.296875 42.84375 
Q 37.203125 48.484375 30.078125 48.484375 
Q 22.953125 48.484375 18.875 42.84375 
Q 14.796875 37.203125 14.796875 27.296875 
z
M 45.40625 8.203125 
Q 42.578125 3.328125 38.25 0.953125 
Q 33.9375 -1.421875 27.875 -1.421875 
Q 17.96875 -1.421875 11.734375 6.484375 
Q 5.515625 14.40625 5.515625 27.296875 
Q 5.515625 40.1875 11.734375 48.09375 
Q 17.96875 56 27.875 56 
Q 33.9375 56 38.25 53.625 
Q 42.578125 51.265625 45.40625 46.390625 
L 45.40625 54.6875 
L 54.390625 54.6875 
L 54.390625 -20.796875 
L 45.40625 -20.796875 
z
" id="DejaVuSans-71"/>
       <path d="M 30.609375 48.390625 
Q 23.390625 48.390625 19.1875 42.75 
Q 14.984375 37.109375 14.984375 27.296875 
Q 14.984375 17.484375 19.15625 11.84375 
Q 23.34375 6.203125 30.609375 6.203125 
Q 37.796875 6.203125 41.984375 11.859375 
Q 46.1875 17.53125 46.1875 27.296875 
Q 46.1875 37.015625 41.984375 42.703125 
Q 37.796875 48.390625 30.609375 48.390625 
z
M 30.609375 56 
Q 42.328125 56 49.015625 48.375 
Q 55.71875 40.765625 55.71875 27.296875 
Q 55.71875 13.875 49.015625 6.21875 
Q 42.328125 -1.421875 30.609375 -1.421875 
Q 18.84375 -1.421875 12.171875 6.21875 
Q 5.515625 13.875 5.515625 27.296875 
Q 5.515625 40.765625 12.171875 48.375 
Q 18.84375 56 30.609375 56 
z
" id="DejaVuSans-6f"/>
       <path d="M 9.078125 75.984375 
L 18.109375 75.984375 
L 18.109375 31.109375 
L 44.921875 54.6875 
L 56.390625 54.6875 
L 27.390625 29.109375 
L 57.625 0 
L 45.90625 0 
L 18.109375 26.703125 
L 18.109375 0 
L 9.078125 0 
z
" id="DejaVuSans-6b"/>
      </defs>
      <g transform="translate(35.617187 83.721579)scale(0.1 -0.1)">
       <use xlink:href="#DejaVuSans-64"/>
       <use x="63.476562" xlink:href="#DejaVuSans-61"/>
       <use x="124.755859" xlink:href="#DejaVuSans-76"/>
       <use x="183.935547" xlink:href="#DejaVuSans-69"/>
       <use x="211.71875" xlink:href="#DejaVuSans-65"/>
       <use x="273.242188" xlink:href="#DejaVuSans-73"/>
       <use x="325.341797" xlink:href="#DejaVuSans-32"/>
       <use x="388.964844" xlink:href="#DejaVuSans-30"/>
       <use x="452.587891" xlink:href="#DejaVuSans-30"/>
       <use x="516.210938" xlink:href="#DejaVuSans-39"/>
       <use x="579.833984" xlink:href="#DejaVuSans-2f"/>
       <use x="613.525391" xlink:href="#DejaVuSans-6d"/>
       <use x="710.9375" xlink:href="#DejaVuSans-69"/>
       <use x="738.720703" xlink:href="#DejaVuSans-72"/>
       <use x="779.802734" xlink:href="#DejaVuSans-65"/>
       <use x="841.310547" xlink:href="#DejaVuSans-78"/>
       <use x="900.490234" xlink:href="#DejaVuSans-5f"/>
       <use x="950.490234" xlink:href="#DejaVuSans-71"/>
       <use x="1013.966797" xlink:href="#DejaVuSans-6d"/>
       <use x="1111.378906" xlink:href="#DejaVuSans-5f"/>
       <use x="1161.378906" xlink:href="#DejaVuSans-74"/>
       <use x="1200.587891" xlink:href="#DejaVuSans-65"/>
       <use x="1262.111328" xlink:href="#DejaVuSans-6d"/>
       <use x="1359.523438" xlink:href="#DejaVuSans-70"/>
       <use x="1423" xlink:href="#DejaVuSans-6f"/>
       <use x="1484.181641" xlink:href="#DejaVuSans-74"/>
       <use x="1523.390625" xlink:href="#DejaVuSans-72"/>
       <use x="1564.503906" xlink:href="#DejaVuSans-61"/>
       <use x="1625.783203" xlink:href="#DejaVuSans-63"/>
       <use x="1680.763672" xlink:href="#DejaVuSans-6b"/>
       <use x="1738.626953" xlink:href="#DejaVuSans-65"/>
       <use x="1800.150391" xlink:href="#DejaVuSans-72"/>
      </g>
     </g>
    </g>
    <g id="ytick_9">
     <g id="line2d_29">
      <path clip-path="url(#pfebd405bbd)" d="M 226.746875 45.531772 
L 617.346875 45.531772 
" style="fill:none;stroke:#b0b0b0;stroke-linecap:square;stroke-width:0.8;"/>
     </g>
     <g id="line2d_30">
      <g>
       <use style="stroke:#000000;stroke-width:0.8;" x="226.746875" xlink:href="#m7d0121f923" y="45.531772"/>
      </g>
     </g>
     <g id="text_16">
      <!-- boeck2015/tempodetector2016_default -->
      <defs>
       <path d="M 33.015625 40.375 
Q 26.375 40.375 22.484375 35.828125 
Q 18.609375 31.296875 18.609375 23.390625 
Q 18.609375 15.53125 22.484375 10.953125 
Q 26.375 6.390625 33.015625 6.390625 
Q 39.65625 6.390625 43.53125 10.953125 
Q 47.40625 15.53125 47.40625 23.390625 
Q 47.40625 31.296875 43.53125 35.828125 
Q 39.65625 40.375 33.015625 40.375 
z
M 52.59375 71.296875 
L 52.59375 62.3125 
Q 48.875 64.0625 45.09375 64.984375 
Q 41.3125 65.921875 37.59375 65.921875 
Q 27.828125 65.921875 22.671875 59.328125 
Q 17.53125 52.734375 16.796875 39.40625 
Q 19.671875 43.65625 24.015625 45.921875 
Q 28.375 48.1875 33.59375 48.1875 
Q 44.578125 48.1875 50.953125 41.515625 
Q 57.328125 34.859375 57.328125 23.390625 
Q 57.328125 12.15625 50.6875 5.359375 
Q 44.046875 -1.421875 33.015625 -1.421875 
Q 20.359375 -1.421875 13.671875 8.265625 
Q 6.984375 17.96875 6.984375 36.375 
Q 6.984375 53.65625 15.1875 63.9375 
Q 23.390625 74.21875 37.203125 74.21875 
Q 40.921875 74.21875 44.703125 73.484375 
Q 48.484375 72.75 52.59375 71.296875 
z
" id="DejaVuSans-36"/>
      </defs>
      <g transform="translate(20.878125 49.330991)scale(0.1 -0.1)">
       <use xlink:href="#DejaVuSans-62"/>
       <use x="63.476562" xlink:href="#DejaVuSans-6f"/>
       <use x="124.658203" xlink:href="#DejaVuSans-65"/>
       <use x="186.181641" xlink:href="#DejaVuSans-63"/>
       <use x="241.162109" xlink:href="#DejaVuSans-6b"/>
       <use x="299.072266" xlink:href="#DejaVuSans-32"/>
       <use x="362.695312" xlink:href="#DejaVuSans-30"/>
       <use x="426.318359" xlink:href="#DejaVuSans-31"/>
       <use x="489.941406" xlink:href="#DejaVuSans-35"/>
       <use x="553.564453" xlink:href="#DejaVuSans-2f"/>
       <use x="587.255859" xlink:href="#DejaVuSans-74"/>
       <use x="626.464844" xlink:href="#DejaVuSans-65"/>
       <use x="687.988281" xlink:href="#DejaVuSans-6d"/>
       <use x="785.400391" xlink:href="#DejaVuSans-70"/>
       <use x="848.876953" xlink:href="#DejaVuSans-6f"/>
       <use x="910.058594" xlink:href="#DejaVuSans-64"/>
       <use x="973.535156" xlink:href="#DejaVuSans-65"/>
       <use x="1035.058594" xlink:href="#DejaVuSans-74"/>
       <use x="1074.267578" xlink:href="#DejaVuSans-65"/>
       <use x="1135.791016" xlink:href="#DejaVuSans-63"/>
       <use x="1190.771484" xlink:href="#DejaVuSans-74"/>
       <use x="1229.980469" xlink:href="#DejaVuSans-6f"/>
       <use x="1291.162109" xlink:href="#DejaVuSans-72"/>
       <use x="1332.275391" xlink:href="#DejaVuSans-32"/>
       <use x="1395.898438" xlink:href="#DejaVuSans-30"/>
       <use x="1459.521484" xlink:href="#DejaVuSans-31"/>
       <use x="1523.144531" xlink:href="#DejaVuSans-36"/>
       <use x="1586.767578" xlink:href="#DejaVuSans-5f"/>
       <use x="1636.767578" xlink:href="#DejaVuSans-64"/>
       <use x="1700.244141" xlink:href="#DejaVuSans-65"/>
       <use x="1761.767578" xlink:href="#DejaVuSans-66"/>
       <use x="1796.972656" xlink:href="#DejaVuSans-61"/>
       <use x="1858.251953" xlink:href="#DejaVuSans-75"/>
       <use x="1921.630859" xlink:href="#DejaVuSans-6c"/>
       <use x="1949.414062" xlink:href="#DejaVuSans-74"/>
      </g>
     </g>
    </g>
    <g id="text_17">
     <!-- Estimator -->
     <g transform="translate(14.798437 207.216781)rotate(-90)scale(0.1 -0.1)">
      <use xlink:href="#DejaVuSans-45"/>
      <use x="63.183594" xlink:href="#DejaVuSans-73"/>
      <use x="115.283203" xlink:href="#DejaVuSans-74"/>
      <use x="154.492188" xlink:href="#DejaVuSans-69"/>
      <use x="182.275391" xlink:href="#DejaVuSans-6d"/>
      <use x="279.6875" xlink:href="#DejaVuSans-61"/>
      <use x="340.966797" xlink:href="#DejaVuSans-74"/>
      <use x="380.175781" xlink:href="#DejaVuSans-6f"/>
      <use x="441.357422" xlink:href="#DejaVuSans-72"/>
     </g>
    </g>
   </g>
   <g id="PolyCollection_1">
    <path clip-path="url(#pfebd405bbd)" d="M 226.746875 313.077757 
L 226.746875 328.235199 
L 230.183379 329.051914 
L 233.619882 329.254125 
L 237.056386 328.796336 
L 240.492889 327.779596 
L 243.929393 326.416206 
L 247.365896 324.958512 
L 250.8024 323.624106 
L 254.238903 322.547488 
L 257.675407 321.770738 
L 261.11191 321.265569 
L 264.548414 320.968106 
L 267.984918 320.809263 
L 271.421421 320.732444 
L 274.857925 320.69895 
L 278.294428 320.685862 
L 281.730932 320.681213 
L 285.167435 320.679431 
L 288.603939 320.678158 
L 292.040442 320.676472 
L 295.476946 320.674087 
L 298.91345 320.67108 
L 302.349953 320.667772 
L 305.786457 320.664608 
L 309.22296 320.662009 
L 312.659464 320.660278 
L 316.095967 320.659575 
L 319.532471 320.659961 
L 322.968974 320.661425 
L 326.405478 320.663873 
L 329.841981 320.667078 
L 333.278485 320.670667 
L 336.714989 320.674163 
L 340.151492 320.677095 
L 343.587996 320.6791 
L 347.024499 320.679967 
L 350.461003 320.679628 
L 353.897506 320.678145 
L 357.33401 320.675734 
L 360.770513 320.672797 
L 364.207017 320.669904 
L 367.643521 320.667673 
L 371.080024 320.666584 
L 374.516528 320.666791 
L 377.953031 320.668036 
L 381.389535 320.669716 
L 384.826038 320.671083 
L 388.262542 320.671536 
L 391.699045 320.670857 
L 395.135549 320.669296 
L 398.572052 320.667464 
L 402.008556 320.666077 
L 405.44506 320.665673 
L 408.881563 320.666407 
L 412.318067 320.667991 
L 415.75457 320.669797 
L 419.191074 320.671088 
L 422.627577 320.671295 
L 426.064081 320.67022 
L 429.500584 320.668084 
L 432.937088 320.665388 
L 436.373591 320.662691 
L 439.810095 320.660413 
L 443.246599 320.658741 
L 446.683102 320.65766 
L 450.119606 320.657041 
L 453.556109 320.656727 
L 456.992613 320.656596 
L 460.429116 320.656581 
L 463.86562 320.656671 
L 467.302123 320.656918 
L 470.738627 320.657428 
L 474.175131 320.658351 
L 477.611634 320.659833 
L 481.048138 320.661933 
L 484.484641 320.664534 
L 487.921145 320.66728 
L 491.357648 320.669631 
L 494.794152 320.671024 
L 498.230655 320.671097 
L 501.667159 320.669855 
L 505.103662 320.667691 
L 508.540166 320.665259 
L 511.97667 320.663285 
L 515.413173 320.662422 
L 518.849677 320.663199 
L 522.28618 320.666036 
L 525.722684 320.671259 
L 529.159187 320.679066 
L 532.595691 320.689438 
L 536.032194 320.702042 
L 539.468698 320.716127 
L 542.905202 320.730494 
L 546.341705 320.743552 
L 549.778209 320.753539 
L 553.214712 320.758877 
L 556.651216 320.758584 
L 560.087719 320.752571 
L 563.524223 320.741701 
L 566.960726 320.727578 
L 566.960726 320.585378 
L 566.960726 320.585378 
L 563.524223 320.571255 
L 560.087719 320.560385 
L 556.651216 320.554372 
L 553.214712 320.554079 
L 549.778209 320.559417 
L 546.341705 320.569404 
L 542.905202 320.582462 
L 539.468698 320.596829 
L 536.032194 320.610914 
L 532.595691 320.623518 
L 529.159187 320.63389 
L 525.722684 320.641697 
L 522.28618 320.64692 
L 518.849677 320.649757 
L 515.413173 320.650534 
L 511.97667 320.649671 
L 508.540166 320.647697 
L 505.103662 320.645265 
L 501.667159 320.643101 
L 498.230655 320.641859 
L 494.794152 320.641932 
L 491.357648 320.643325 
L 487.921145 320.645676 
L 484.484641 320.648422 
L 481.048138 320.651022 
L 477.611634 320.653123 
L 474.175131 320.654605 
L 470.738627 320.655527 
L 467.302123 320.656038 
L 463.86562 320.656284 
L 460.429116 320.656375 
L 456.992613 320.65636 
L 453.556109 320.656229 
L 450.119606 320.655915 
L 446.683102 320.655295 
L 443.246599 320.654215 
L 439.810095 320.652543 
L 436.373591 320.650264 
L 432.937088 320.647568 
L 429.500584 320.644872 
L 426.064081 320.642736 
L 422.627577 320.641661 
L 419.191074 320.641868 
L 415.75457 320.643159 
L 412.318067 320.644965 
L 408.881563 320.646549 
L 405.44506 320.647283 
L 402.008556 320.646879 
L 398.572052 320.645492 
L 395.135549 320.64366 
L 391.699045 320.642099 
L 388.262542 320.64142 
L 384.826038 320.641873 
L 381.389535 320.64324 
L 377.953031 320.644919 
L 374.516528 320.646165 
L 371.080024 320.646372 
L 367.643521 320.645283 
L 364.207017 320.643052 
L 360.770513 320.640159 
L 357.33401 320.637222 
L 353.897506 320.634811 
L 350.461003 320.633328 
L 347.024499 320.632989 
L 343.587996 320.633856 
L 340.151492 320.635861 
L 336.714989 320.638793 
L 333.278485 320.642289 
L 329.841981 320.645878 
L 326.405478 320.649083 
L 322.968974 320.651531 
L 319.532471 320.652995 
L 316.095967 320.653381 
L 312.659464 320.652678 
L 309.22296 320.650946 
L 305.786457 320.648348 
L 302.349953 320.645184 
L 298.91345 320.641876 
L 295.476946 320.638869 
L 292.040442 320.636484 
L 288.603939 320.634798 
L 285.167435 320.633525 
L 281.730932 320.631743 
L 278.294428 320.627094 
L 274.857925 320.614006 
L 271.421421 320.580512 
L 267.984918 320.503693 
L 264.548414 320.34485 
L 261.11191 320.047387 
L 257.675407 319.542218 
L 254.238903 318.765468 
L 250.8024 317.68885 
L 247.365896 316.354444 
L 243.929393 314.89675 
L 240.492889 313.53336 
L 237.056386 312.51662 
L 233.619882 312.058831 
L 230.183379 312.261042 
L 226.746875 313.077757 
z
" style="fill:#ff0000;fill-opacity:0.75;"/>
   </g>
   <g id="PolyCollection_2">
    <path clip-path="url(#pfebd405bbd)" d="M 226.746875 278.850789 
L 226.746875 293.68099 
L 230.481264 294.73205 
L 234.215654 294.863537 
L 237.950043 294.030858 
L 241.684433 292.496779 
L 245.418822 290.703159 
L 249.153211 289.068616 
L 252.887601 287.837582 
L 256.62199 287.052141 
L 260.35638 286.622116 
L 264.090769 286.418531 
L 267.825158 286.334638 
L 271.559548 286.30411 
L 275.293937 286.293769 
L 279.028327 286.28998 
L 282.762716 286.288186 
L 286.497105 286.287036 
L 290.231495 286.285801 
L 293.965884 286.283773 
L 297.700274 286.280617 
L 301.434663 286.276689 
L 305.169052 286.272816 
L 308.903442 286.269738 
L 312.637831 286.267739 
L 316.372221 286.266682 
L 320.10661 286.266289 
L 323.840999 286.266402 
L 327.575389 286.267125 
L 331.309778 286.268842 
L 335.044168 286.272077 
L 338.778557 286.277121 
L 342.512946 286.28355 
L 346.247336 286.289966 
L 349.981725 286.294398 
L 353.716115 286.295321 
L 357.450504 286.292672 
L 361.184893 286.288073 
L 364.919283 286.284016 
L 368.653672 286.282557 
L 372.388062 286.284319 
L 376.122451 286.288269 
L 379.856841 286.292296 
L 383.59123 286.294252 
L 387.325619 286.292951 
L 391.060009 286.288632 
L 394.794398 286.282656 
L 398.528788 286.276701 
L 402.263177 286.271969 
L 405.997566 286.268862 
L 409.731956 286.26715 
L 413.466345 286.266352 
L 417.200735 286.266036 
L 420.935124 286.26593 
L 424.669513 286.265899 
L 428.403903 286.265892 
L 432.138292 286.26589 
L 435.872682 286.26589 
L 439.607071 286.26589 
L 443.34146 286.26589 
L 447.07585 286.26589 
L 450.810239 286.26589 
L 454.544629 286.26589 
L 458.279018 286.26589 
L 462.013407 286.26589 
L 465.747797 286.26589 
L 469.482186 286.26589 
L 473.216576 286.26589 
L 476.950965 286.26589 
L 480.685354 286.26589 
L 484.419744 286.26589 
L 488.154133 286.26589 
L 491.888523 286.26589 
L 495.622912 286.265891 
L 499.357301 286.265895 
L 503.091691 286.265913 
L 506.82608 286.265986 
L 510.56047 286.266238 
L 514.294859 286.266983 
L 518.029248 286.268877 
L 521.763638 286.273013 
L 525.498027 286.28074 
L 529.232417 286.293016 
L 532.966806 286.309389 
L 536.701195 286.327223 
L 540.435585 286.342013 
L 544.169974 286.349105 
L 547.904364 286.346009 
L 551.638753 286.333786 
L 555.373142 286.316473 
L 559.107532 286.29897 
L 562.841921 286.28486 
L 566.576311 286.275479 
L 570.3107 286.270375 
L 574.045089 286.268409 
L 577.779479 286.268625 
L 581.513868 286.270478 
L 585.248258 286.273548 
L 588.982647 286.277107 
L 592.717036 286.280021 
L 596.451426 286.281153 
L 596.451426 286.250626 
L 596.451426 286.250626 
L 592.717036 286.251759 
L 588.982647 286.254672 
L 585.248258 286.258232 
L 581.513868 286.261301 
L 577.779479 286.263154 
L 574.045089 286.26337 
L 570.3107 286.261405 
L 566.576311 286.2563 
L 562.841921 286.246919 
L 559.107532 286.23281 
L 555.373142 286.215306 
L 551.638753 286.197994 
L 547.904364 286.185771 
L 544.169974 286.182675 
L 540.435585 286.189766 
L 536.701195 286.204556 
L 532.966806 286.22239 
L 529.232417 286.238763 
L 525.498027 286.251039 
L 521.763638 286.258767 
L 518.029248 286.262902 
L 514.294859 286.264797 
L 510.56047 286.265542 
L 506.82608 286.265793 
L 503.091691 286.265867 
L 499.357301 286.265885 
L 495.622912 286.265889 
L 491.888523 286.26589 
L 488.154133 286.26589 
L 484.419744 286.26589 
L 480.685354 286.26589 
L 476.950965 286.26589 
L 473.216576 286.26589 
L 469.482186 286.26589 
L 465.747797 286.26589 
L 462.013407 286.26589 
L 458.279018 286.26589 
L 454.544629 286.26589 
L 450.810239 286.26589 
L 447.07585 286.26589 
L 443.34146 286.26589 
L 439.607071 286.26589 
L 435.872682 286.26589 
L 432.138292 286.265889 
L 428.403903 286.265888 
L 424.669513 286.26588 
L 420.935124 286.26585 
L 417.200735 286.265743 
L 413.466345 286.265428 
L 409.731956 286.264629 
L 405.997566 286.262917 
L 402.263177 286.25981 
L 398.528788 286.255078 
L 394.794398 286.249123 
L 391.060009 286.243148 
L 387.325619 286.238828 
L 383.59123 286.237527 
L 379.856841 286.239483 
L 376.122451 286.24351 
L 372.388062 286.24746 
L 368.653672 286.249222 
L 364.919283 286.247764 
L 361.184893 286.243706 
L 357.450504 286.239107 
L 353.716115 286.236459 
L 349.981725 286.237381 
L 346.247336 286.241813 
L 342.512946 286.24823 
L 338.778557 286.254658 
L 335.044168 286.259702 
L 331.309778 286.262937 
L 327.575389 286.264655 
L 323.840999 286.265377 
L 320.10661 286.26549 
L 316.372221 286.265098 
L 312.637831 286.264041 
L 308.903442 286.262041 
L 305.169052 286.258963 
L 301.434663 286.25509 
L 297.700274 286.251163 
L 293.965884 286.248007 
L 290.231495 286.245979 
L 286.497105 286.244744 
L 282.762716 286.243594 
L 279.028327 286.241799 
L 275.293937 286.23801 
L 271.559548 286.227669 
L 267.825158 286.197142 
L 264.090769 286.113249 
L 260.35638 285.909663 
L 256.62199 285.479638 
L 252.887601 284.694197 
L 249.153211 283.463163 
L 245.418822 281.828621 
L 241.684433 280.035 
L 237.950043 278.500922 
L 234.215654 277.668243 
L 230.481264 277.799729 
L 226.746875 278.850789 
z
" style="fill:#ff0000;fill-opacity:0.75;"/>
   </g>
   <g id="PolyCollection_3">
    <path clip-path="url(#pfebd405bbd)" d="M 226.746875 244.197723 
L 226.746875 259.55288 
L 230.183379 260.301952 
L 233.619882 260.472949 
L 237.056386 260.029955 
L 240.492889 259.06464 
L 243.929393 257.766124 
L 247.365896 256.361365 
L 250.8024 255.051552 
L 254.238903 253.968624 
L 257.675407 253.163223 
L 261.11191 252.619844 
L 264.548414 252.285308 
L 267.984918 252.096273 
L 271.421421 251.997373 
L 274.857925 251.948627 
L 278.294428 251.92517 
L 281.730932 251.913413 
L 285.167435 251.906722 
L 288.603939 251.902111 
L 292.040442 251.898268 
L 295.476946 251.894612 
L 298.91345 251.89095 
L 302.349953 251.887344 
L 305.786457 251.884004 
L 309.22296 251.881161 
L 312.659464 251.878967 
L 316.095967 251.87745 
L 319.532471 251.876544 
L 322.968974 251.876156 
L 326.405478 251.876227 
L 329.841981 251.876763 
L 333.278485 251.877822 
L 336.714989 251.879461 
L 340.151492 251.881652 
L 343.587996 251.884206 
L 347.024499 251.886758 
L 350.461003 251.888834 
L 353.897506 251.890013 
L 357.33401 251.890099 
L 360.770513 251.889237 
L 364.207017 251.887885 
L 367.643521 251.886652 
L 371.080024 251.886073 
L 374.516528 251.886392 
L 377.953031 251.887474 
L 381.389535 251.888856 
L 384.826038 251.889924 
L 388.262542 251.890154 
L 391.699045 251.889297 
L 395.135549 251.887453 
L 398.572052 251.884993 
L 402.008556 251.882392 
L 405.44506 251.880057 
L 408.881563 251.878225 
L 412.318067 251.876948 
L 415.75457 251.876152 
L 419.191074 251.875704 
L 422.627577 251.875476 
L 426.064081 251.875371 
L 429.500584 251.875327 
L 432.937088 251.87531 
L 436.373591 251.875304 
L 439.810095 251.875302 
L 443.246599 251.875302 
L 446.683102 251.875303 
L 450.119606 251.875306 
L 453.556109 251.875317 
L 456.992613 251.875345 
L 460.429116 251.875416 
L 463.86562 251.875576 
L 467.302123 251.875906 
L 470.738627 251.876521 
L 474.175131 251.877557 
L 477.611634 251.879124 
L 481.048138 251.881239 
L 484.484641 251.883755 
L 487.921145 251.886335 
L 491.357648 251.888518 
L 494.794152 251.889858 
L 498.230655 251.890118 
L 501.667159 251.889416 
L 505.103662 251.888259 
L 508.540166 251.88746 
L 511.97667 251.887973 
L 515.413173 251.89072 
L 518.849677 251.89644 
L 522.28618 251.905566 
L 525.722684 251.918111 
L 529.159187 251.933558 
L 532.595691 251.950782 
L 536.032194 251.968081 
L 539.468698 251.983366 
L 542.905202 251.994529 
L 546.341705 251.999906 
L 549.778209 251.998698 
L 553.214712 251.991183 
L 556.651216 251.978622 
L 560.087719 251.962903 
L 563.524223 251.946055 
L 566.960726 251.92982 
L 566.960726 251.820783 
L 566.960726 251.820783 
L 563.524223 251.804548 
L 560.087719 251.7877 
L 556.651216 251.771981 
L 553.214712 251.75942 
L 549.778209 251.751905 
L 546.341705 251.750697 
L 542.905202 251.756074 
L 539.468698 251.767237 
L 536.032194 251.782522 
L 532.595691 251.799821 
L 529.159187 251.817045 
L 525.722684 251.832492 
L 522.28618 251.845037 
L 518.849677 251.854163 
L 515.413173 251.859883 
L 511.97667 251.86263 
L 508.540166 251.863143 
L 505.103662 251.862344 
L 501.667159 251.861187 
L 498.230655 251.860485 
L 494.794152 251.860745 
L 491.357648 251.862085 
L 487.921145 251.864267 
L 484.484641 251.866848 
L 481.048138 251.869364 
L 477.611634 251.871479 
L 474.175131 251.873046 
L 470.738627 251.874082 
L 467.302123 251.874697 
L 463.86562 251.875027 
L 460.429116 251.875187 
L 456.992613 251.875258 
L 453.556109 251.875286 
L 450.119606 251.875297 
L 446.683102 251.8753 
L 443.246599 251.875301 
L 439.810095 251.875301 
L 436.373591 251.875299 
L 432.937088 251.875293 
L 429.500584 251.875276 
L 426.064081 251.875232 
L 422.627577 251.875127 
L 419.191074 251.874899 
L 415.75457 251.874451 
L 412.318067 251.873655 
L 408.881563 251.872378 
L 405.44506 251.870546 
L 402.008556 251.868211 
L 398.572052 251.86561 
L 395.135549 251.86315 
L 391.699045 251.861306 
L 388.262542 251.860449 
L 384.826038 251.860679 
L 381.389535 251.861747 
L 377.953031 251.863129 
L 374.516528 251.864211 
L 371.080024 251.86453 
L 367.643521 251.86395 
L 364.207017 251.862718 
L 360.770513 251.861366 
L 357.33401 251.860504 
L 353.897506 251.86059 
L 350.461003 251.861769 
L 347.024499 251.863845 
L 343.587996 251.866397 
L 340.151492 251.868951 
L 336.714989 251.871142 
L 333.278485 251.872781 
L 329.841981 251.87384 
L 326.405478 251.874376 
L 322.968974 251.874447 
L 319.532471 251.874059 
L 316.095967 251.873153 
L 312.659464 251.871636 
L 309.22296 251.869442 
L 305.786457 251.866599 
L 302.349953 251.863259 
L 298.91345 251.859653 
L 295.476946 251.855991 
L 292.040442 251.852335 
L 288.603939 251.848492 
L 285.167435 251.843881 
L 281.730932 251.83719 
L 278.294428 251.825433 
L 274.857925 251.801976 
L 271.421421 251.75323 
L 267.984918 251.65433 
L 264.548414 251.465295 
L 261.11191 251.130759 
L 257.675407 250.58738 
L 254.238903 249.781979 
L 250.8024 248.699051 
L 247.365896 247.389238 
L 243.929393 245.984479 
L 240.492889 244.685963 
L 237.056386 243.720648 
L 233.619882 243.277654 
L 230.183379 243.44865 
L 226.746875 244.197723 
z
" style="fill:#ff0000;fill-opacity:0.75;"/>
   </g>
   <g id="PolyCollection_4">
    <path clip-path="url(#pfebd405bbd)" d="M 226.749733 209.576717 
L 226.749733 225.39271 
L 230.186422 225.953731 
L 233.623111 226.08236 
L 237.0598 225.758636 
L 240.496489 225.032642 
L 243.933178 224.011914 
L 247.369867 222.835483 
L 250.806556 221.643141 
L 254.243245 220.549219 
L 257.679934 219.62731 
L 261.116623 218.907693 
L 264.553312 218.384882 
L 267.99 218.030415 
L 271.426689 217.805938 
L 274.863378 217.6733 
L 278.300067 217.60042 
L 281.736756 217.563388 
L 285.173445 217.546048 
L 288.610134 217.538394 
L 292.046823 217.534736 
L 295.483512 217.532165 
L 298.920201 217.529446 
L 302.35689 217.526296 
L 305.793579 217.52293 
L 309.230267 217.519767 
L 312.666956 217.517245 
L 316.103645 217.515696 
L 319.540334 217.515285 
L 322.977023 217.515995 
L 326.413712 217.517652 
L 329.850401 217.519953 
L 333.28709 217.522515 
L 336.723779 217.524922 
L 340.160468 217.526772 
L 343.597157 217.527737 
L 347.033846 217.527619 
L 350.470534 217.526393 
L 353.907223 217.524225 
L 357.343912 217.521453 
L 360.780601 217.518534 
L 364.21729 217.515965 
L 367.653979 217.514181 
L 371.090668 217.513465 
L 374.527357 217.513874 
L 377.964046 217.515215 
L 381.400735 217.517085 
L 384.837424 217.518969 
L 388.274113 217.520364 
L 391.710801 217.520898 
L 395.14749 217.520389 
L 398.584179 217.518848 
L 402.020868 217.516427 
L 405.457557 217.513346 
L 408.894246 217.509834 
L 412.330935 217.506106 
L 415.767624 217.502356 
L 419.204313 217.498765 
L 422.641002 217.495499 
L 426.077691 217.492707 
L 429.51438 217.49051 
L 432.951068 217.489 
L 436.387757 217.488248 
L 439.824446 217.488334 
L 443.261135 217.48935 
L 446.697824 217.49141 
L 450.134513 217.494611 
L 453.571202 217.498991 
L 457.007891 217.504455 
L 460.44458 217.510734 
L 463.881269 217.51736 
L 467.317958 217.523711 
L 470.754647 217.529102 
L 474.191335 217.532905 
L 477.628024 217.534674 
L 481.064713 217.534231 
L 484.501402 217.531692 
L 487.938091 217.527429 
L 491.37478 217.521995 
L 494.811469 217.516025 
L 498.248158 217.510161 
L 501.684847 217.504998 
L 505.121536 217.501065 
L 508.558225 217.49885 
L 511.994914 217.498824 
L 515.431602 217.501474 
L 518.868291 217.507296 
L 522.30498 217.516749 
L 525.741669 217.530134 
L 529.178358 217.547424 
L 532.615047 217.56808 
L 536.051736 217.59091 
L 539.488425 217.614057 
L 542.925114 217.635169 
L 546.361803 217.651743 
L 549.798492 217.661603 
L 553.235181 217.663364 
L 556.671869 217.65675 
L 560.108558 217.642665 
L 563.545247 217.622985 
L 566.981936 217.600136 
L 566.981936 217.36929 
L 566.981936 217.36929 
L 563.545247 217.346441 
L 560.108558 217.326761 
L 556.671869 217.312677 
L 553.235181 217.306063 
L 549.798492 217.307823 
L 546.361803 217.317684 
L 542.925114 217.334258 
L 539.488425 217.355369 
L 536.051736 217.378517 
L 532.615047 217.401346 
L 529.178358 217.422002 
L 525.741669 217.439293 
L 522.30498 217.452678 
L 518.868291 217.462131 
L 515.431602 217.467953 
L 511.994914 217.470602 
L 508.558225 217.470576 
L 505.121536 217.468361 
L 501.684847 217.464429 
L 498.248158 217.459265 
L 494.811469 217.453401 
L 491.37478 217.447432 
L 487.938091 217.441997 
L 484.501402 217.437734 
L 481.064713 217.435195 
L 477.628024 217.434753 
L 474.191335 217.436522 
L 470.754647 217.440324 
L 467.317958 217.445715 
L 463.881269 217.452067 
L 460.44458 217.458693 
L 457.007891 217.464971 
L 453.571202 217.470436 
L 450.134513 217.474815 
L 446.697824 217.478017 
L 443.261135 217.480076 
L 439.824446 217.481093 
L 436.387757 217.481178 
L 432.951068 217.480427 
L 429.51438 217.478916 
L 426.077691 217.476719 
L 422.641002 217.473928 
L 419.204313 217.470662 
L 415.767624 217.46707 
L 412.330935 217.46332 
L 408.894246 217.459592 
L 405.457557 217.456081 
L 402.020868 217.452999 
L 398.584179 217.450578 
L 395.14749 217.449038 
L 391.710801 217.448529 
L 388.274113 217.449062 
L 384.837424 217.450458 
L 381.400735 217.452341 
L 377.964046 217.454211 
L 374.527357 217.455552 
L 371.090668 217.455961 
L 367.653979 217.455246 
L 364.21729 217.453462 
L 360.780601 217.450892 
L 357.343912 217.447973 
L 353.907223 217.445201 
L 350.470534 217.443033 
L 347.033846 217.441807 
L 343.597157 217.441689 
L 340.160468 217.442654 
L 336.723779 217.444504 
L 333.28709 217.446911 
L 329.850401 217.449474 
L 326.413712 217.451775 
L 322.977023 217.453431 
L 319.540334 217.454142 
L 316.103645 217.453731 
L 312.666956 217.452181 
L 309.230267 217.449659 
L 305.793579 217.446497 
L 302.35689 217.44313 
L 298.920201 217.43998 
L 295.483512 217.437262 
L 292.046823 217.434691 
L 288.610134 217.431033 
L 285.173445 217.423378 
L 281.736756 217.406039 
L 278.300067 217.369007 
L 274.863378 217.296127 
L 271.426689 217.163488 
L 267.99 216.939011 
L 264.553312 216.584544 
L 261.116623 216.061733 
L 257.679934 215.342116 
L 254.243245 214.420208 
L 250.806556 213.326285 
L 247.369867 212.133943 
L 243.933178 210.957512 
L 240.496489 209.936785 
L 237.0598 209.21079 
L 233.623111 208.887066 
L 230.186422 209.015695 
L 226.749733 209.576717 
z
" style="fill:#ff0000;fill-opacity:0.75;"/>
   </g>
   <g id="PolyCollection_5">
    <path clip-path="url(#pfebd405bbd)" d="M 226.749733 175.186128 
L 226.749733 191.002122 
L 230.186422 191.563143 
L 233.623111 191.691772 
L 237.0598 191.368048 
L 240.496489 190.642053 
L 243.933178 189.621326 
L 247.369867 188.444895 
L 250.806556 187.252553 
L 254.243245 186.158631 
L 257.679934 185.236722 
L 261.116623 184.517105 
L 264.553312 183.994294 
L 267.99 183.639827 
L 271.426689 183.41535 
L 274.863378 183.282712 
L 278.300067 183.209831 
L 281.736756 183.172799 
L 285.173445 183.15546 
L 288.610134 183.147806 
L 292.046823 183.144147 
L 295.483512 183.141576 
L 298.920201 183.138858 
L 302.35689 183.135708 
L 305.793579 183.132342 
L 309.230267 183.129179 
L 312.666956 183.126657 
L 316.103645 183.125108 
L 319.540334 183.124696 
L 322.977023 183.125407 
L 326.413712 183.127064 
L 329.850401 183.129364 
L 333.28709 183.131927 
L 336.723779 183.134334 
L 340.160468 183.136184 
L 343.597157 183.137149 
L 347.033846 183.137031 
L 350.470534 183.135805 
L 353.907223 183.133637 
L 357.343912 183.130865 
L 360.780601 183.127946 
L 364.21729 183.125376 
L 367.653979 183.123593 
L 371.090668 183.122877 
L 374.527357 183.123286 
L 377.964046 183.124627 
L 381.400735 183.126497 
L 384.837424 183.128381 
L 388.274113 183.129776 
L 391.710801 183.13031 
L 395.14749 183.129801 
L 398.584179 183.12826 
L 402.020868 183.125839 
L 405.457557 183.122757 
L 408.894246 183.119246 
L 412.330935 183.115518 
L 415.767624 183.111768 
L 419.204313 183.108176 
L 422.641002 183.10491 
L 426.077691 183.102119 
L 429.51438 183.099922 
L 432.951068 183.098411 
L 436.387757 183.09766 
L 439.824446 183.097745 
L 443.261135 183.098762 
L 446.697824 183.100821 
L 450.134513 183.104023 
L 453.571202 183.108402 
L 457.007891 183.113867 
L 460.44458 183.120145 
L 463.881269 183.126771 
L 467.317958 183.133123 
L 470.754647 183.138514 
L 474.191335 183.142317 
L 477.628024 183.144086 
L 481.064713 183.143643 
L 484.501402 183.141104 
L 487.938091 183.136841 
L 491.37478 183.131406 
L 494.811469 183.125437 
L 498.248158 183.119573 
L 501.684847 183.114409 
L 505.121536 183.110477 
L 508.558225 183.108262 
L 511.994914 183.108236 
L 515.431602 183.110885 
L 518.868291 183.116707 
L 522.30498 183.126161 
L 525.741669 183.139546 
L 529.178358 183.156836 
L 532.615047 183.177492 
L 536.051736 183.200321 
L 539.488425 183.223469 
L 542.925114 183.24458 
L 546.361803 183.261155 
L 549.798492 183.271015 
L 553.235181 183.272776 
L 556.671869 183.266161 
L 560.108558 183.252077 
L 563.545247 183.232397 
L 566.981936 183.209548 
L 566.981936 182.978702 
L 566.981936 182.978702 
L 563.545247 182.955853 
L 560.108558 182.936173 
L 556.671869 182.922089 
L 553.235181 182.915474 
L 549.798492 182.917235 
L 546.361803 182.927095 
L 542.925114 182.94367 
L 539.488425 182.964781 
L 536.051736 182.987929 
L 532.615047 183.010758 
L 529.178358 183.031414 
L 525.741669 183.048704 
L 522.30498 183.062089 
L 518.868291 183.071543 
L 515.431602 183.077365 
L 511.994914 183.080014 
L 508.558225 183.079988 
L 505.121536 183.077773 
L 501.684847 183.073841 
L 498.248158 183.068677 
L 494.811469 183.062813 
L 491.37478 183.056844 
L 487.938091 183.051409 
L 484.501402 183.047146 
L 481.064713 183.044607 
L 477.628024 183.044164 
L 474.191335 183.045933 
L 470.754647 183.049736 
L 467.317958 183.055127 
L 463.881269 183.061479 
L 460.44458 183.068105 
L 457.007891 183.074383 
L 453.571202 183.079848 
L 450.134513 183.084227 
L 446.697824 183.087429 
L 443.261135 183.089488 
L 439.824446 183.090505 
L 436.387757 183.09059 
L 432.951068 183.089839 
L 429.51438 183.088328 
L 426.077691 183.086131 
L 422.641002 183.08334 
L 419.204313 183.080074 
L 415.767624 183.076482 
L 412.330935 183.072732 
L 408.894246 183.069004 
L 405.457557 183.065493 
L 402.020868 183.062411 
L 398.584179 183.05999 
L 395.14749 183.058449 
L 391.710801 183.05794 
L 388.274113 183.058474 
L 384.837424 183.059869 
L 381.400735 183.061753 
L 377.964046 183.063623 
L 374.527357 183.064964 
L 371.090668 183.065373 
L 367.653979 183.064657 
L 364.21729 183.062874 
L 360.780601 183.060304 
L 357.343912 183.057385 
L 353.907223 183.054613 
L 350.470534 183.052445 
L 347.033846 183.051219 
L 343.597157 183.051101 
L 340.160468 183.052066 
L 336.723779 183.053916 
L 333.28709 183.056323 
L 329.850401 183.058886 
L 326.413712 183.061186 
L 322.977023 183.062843 
L 319.540334 183.063554 
L 316.103645 183.063142 
L 312.666956 183.061593 
L 309.230267 183.059071 
L 305.793579 183.055908 
L 302.35689 183.052542 
L 298.920201 183.049392 
L 295.483512 183.046674 
L 292.046823 183.044103 
L 288.610134 183.040444 
L 285.173445 183.03279 
L 281.736756 183.015451 
L 278.300067 182.978419 
L 274.863378 182.905538 
L 271.426689 182.7729 
L 267.99 182.548423 
L 264.553312 182.193956 
L 261.116623 181.671145 
L 257.679934 180.951528 
L 254.243245 180.029619 
L 250.806556 178.935697 
L 247.369867 177.743355 
L 243.933178 176.566924 
L 240.496489 175.546197 
L 237.0598 174.820202 
L 233.623111 174.496478 
L 230.186422 174.625107 
L 226.749733 175.186128 
z
" style="fill:#ff0000;fill-opacity:0.75;"/>
   </g>
   <g id="PolyCollection_6">
    <path clip-path="url(#pfebd405bbd)" d="M 226.749733 140.565846 
L 226.749733 156.841227 
L 230.445987 157.241491 
L 234.142241 157.301184 
L 237.838495 157.013454 
L 241.534749 156.413129 
L 245.231003 155.569875 
L 248.927257 154.574988 
L 252.623511 153.525279 
L 256.319766 152.507941 
L 260.01602 151.58958 
L 263.712274 150.811035 
L 267.408528 150.187878 
L 271.104782 149.71514 
L 274.801036 149.374172 
L 278.49729 149.13963 
L 282.193544 148.985186 
L 285.889798 148.887296 
L 289.586052 148.827065 
L 293.282306 148.790607 
L 296.97856 148.768499 
L 300.674814 148.754823 
L 304.371068 148.746156 
L 308.067322 148.740723 
L 311.763576 148.737735 
L 315.45983 148.736935 
L 319.156084 148.738277 
L 322.852338 148.741715 
L 326.548592 148.747064 
L 330.244846 148.75393 
L 333.9411 148.761697 
L 337.637354 148.769582 
L 341.333608 148.776726 
L 345.029862 148.782332 
L 348.726116 148.785787 
L 352.42237 148.786775 
L 356.118624 148.785322 
L 359.814878 148.781789 
L 363.511132 148.776804 
L 367.207386 148.771142 
L 370.90364 148.765593 
L 374.599894 148.760833 
L 378.296148 148.757327 
L 381.992402 148.755271 
L 385.688656 148.754584 
L 389.38491 148.754943 
L 393.081164 148.755855 
L 396.777418 148.756745 
L 400.473672 148.757057 
L 404.169926 148.756352 
L 407.86618 148.754379 
L 411.562434 148.751117 
L 415.258688 148.746788 
L 418.954942 148.741824 
L 422.651196 148.736813 
L 426.34745 148.73243 
L 430.043704 148.729368 
L 433.739958 148.72827 
L 437.436212 148.729676 
L 441.132466 148.733963 
L 444.82872 148.741293 
L 448.524974 148.751556 
L 452.221228 148.764332 
L 455.917482 148.778879 
L 459.613736 148.794179 
L 463.30999 148.809036 
L 467.006244 148.822218 
L 470.702498 148.832641 
L 474.398752 148.839516 
L 478.095006 148.842468 
L 481.79126 148.841572 
L 485.487514 148.837321 
L 489.183768 148.83053 
L 492.880022 148.822215 
L 496.576276 148.813471 
L 500.27253 148.805363 
L 503.968784 148.798858 
L 507.665038 148.794781 
L 511.361292 148.793797 
L 515.057546 148.796387 
L 518.7538 148.802827 
L 522.450054 148.81314 
L 526.146308 148.827034 
L 529.842562 148.843847 
L 533.538816 148.862511 
L 537.23507 148.881578 
L 540.931324 148.899323 
L 544.627578 148.913935 
L 548.323832 148.923762 
L 552.020086 148.92757 
L 555.71634 148.924756 
L 559.412594 148.915447 
L 563.108848 148.900483 
L 566.805102 148.881249 
L 570.501356 148.85944 
L 574.19761 148.836777 
L 577.893864 148.814767 
L 581.590118 148.794532 
L 585.286372 148.776751 
L 588.982626 148.761677 
L 592.67888 148.74924 
L 592.67888 148.657834 
L 592.67888 148.657834 
L 588.982626 148.645396 
L 585.286372 148.630323 
L 581.590118 148.612541 
L 577.893864 148.592307 
L 574.19761 148.570296 
L 570.501356 148.547634 
L 566.805102 148.525824 
L 563.108848 148.506591 
L 559.412594 148.491626 
L 555.71634 148.482318 
L 552.020086 148.479503 
L 548.323832 148.483312 
L 544.627578 148.493138 
L 540.931324 148.50775 
L 537.23507 148.525495 
L 533.538816 148.544562 
L 529.842562 148.563226 
L 526.146308 148.58004 
L 522.450054 148.593934 
L 518.7538 148.604246 
L 515.057546 148.610686 
L 511.361292 148.613277 
L 507.665038 148.612292 
L 503.968784 148.608216 
L 500.27253 148.60171 
L 496.576276 148.593602 
L 492.880022 148.584858 
L 489.183768 148.576544 
L 485.487514 148.569753 
L 481.79126 148.565501 
L 478.095006 148.564605 
L 474.398752 148.567557 
L 470.702498 148.574433 
L 467.006244 148.584855 
L 463.30999 148.598038 
L 459.613736 148.612894 
L 455.917482 148.628195 
L 452.221228 148.642742 
L 448.524974 148.655517 
L 444.82872 148.66578 
L 441.132466 148.67311 
L 437.436212 148.677398 
L 433.739958 148.678804 
L 430.043704 148.677706 
L 426.34745 148.674643 
L 422.651196 148.67026 
L 418.954942 148.665249 
L 415.258688 148.660285 
L 411.562434 148.655956 
L 407.86618 148.652695 
L 404.169926 148.650721 
L 400.473672 148.650016 
L 396.777418 148.650329 
L 393.081164 148.651218 
L 389.38491 148.65213 
L 385.688656 148.65249 
L 381.992402 148.651802 
L 378.296148 148.649746 
L 374.599894 148.64624 
L 370.90364 148.641481 
L 367.207386 148.635932 
L 363.511132 148.63027 
L 359.814878 148.625284 
L 356.118624 148.621752 
L 352.42237 148.620299 
L 348.726116 148.621286 
L 345.029862 148.624742 
L 341.333608 148.630347 
L 337.637354 148.637492 
L 333.9411 148.645376 
L 330.244846 148.653144 
L 326.548592 148.660009 
L 322.852338 148.665358 
L 319.156084 148.668796 
L 315.45983 148.670138 
L 311.763576 148.669338 
L 308.067322 148.666351 
L 304.371068 148.660917 
L 300.674814 148.652251 
L 296.97856 148.638574 
L 293.282306 148.616467 
L 289.586052 148.580009 
L 285.889798 148.519777 
L 282.193544 148.421888 
L 278.49729 148.267443 
L 274.801036 148.032902 
L 271.104782 147.691934 
L 267.408528 147.219196 
L 263.712274 146.596038 
L 260.01602 145.817493 
L 256.319766 144.899133 
L 252.623511 143.881795 
L 248.927257 142.832086 
L 245.231003 141.837199 
L 241.534749 140.993944 
L 237.838495 140.39362 
L 234.142241 140.10589 
L 230.445987 140.165583 
L 226.749733 140.565846 
z
" style="fill:#ff0000;fill-opacity:0.75;"/>
   </g>
   <g id="PolyCollection_7">
    <path clip-path="url(#pfebd405bbd)" d="M 226.753505 106.456966 
L 226.753505 122.168931 
L 230.324245 122.750451 
L 233.894986 122.910596 
L 237.465726 122.625038 
L 241.036467 121.937569 
L 244.607208 120.949181 
L 248.177948 119.793854 
L 251.748689 118.609026 
L 255.319429 117.509638 
L 258.89017 116.572225 
L 262.460911 115.831158 
L 266.031651 115.284997 
L 269.602392 114.90843 
L 273.173132 114.665032 
L 276.743873 114.517465 
L 280.314614 114.433678 
L 283.885354 114.389369 
L 287.456095 114.367814 
L 291.026835 114.358396 
L 294.597576 114.354802 
L 298.168317 114.353482 
L 301.739057 114.352548 
L 305.309798 114.351082 
L 308.880538 114.348741 
L 312.451279 114.345541 
L 316.02202 114.341721 
L 319.59276 114.337648 
L 323.163501 114.333737 
L 326.734241 114.330374 
L 330.304982 114.327857 
L 333.875723 114.32634 
L 337.446463 114.325818 
L 341.017204 114.32613 
L 344.587944 114.327007 
L 348.158685 114.328131 
L 351.729426 114.329222 
L 355.300166 114.330087 
L 358.870907 114.330656 
L 362.441647 114.33096 
L 366.012388 114.331079 
L 369.583129 114.331078 
L 373.153869 114.330957 
L 376.72461 114.330643 
L 380.29535 114.330019 
L 383.866091 114.32898 
L 387.436832 114.327487 
L 391.007572 114.325597 
L 394.578313 114.323453 
L 398.149053 114.321246 
L 401.719794 114.319168 
L 405.290535 114.317365 
L 408.861275 114.315916 
L 412.432016 114.314835 
L 416.002756 114.314082 
L 419.573497 114.313592 
L 423.144238 114.313294 
L 426.714978 114.313123 
L 430.285719 114.313032 
L 433.856459 114.312986 
L 437.4272 114.312965 
L 440.997941 114.312955 
L 444.568681 114.312951 
L 448.139422 114.312949 
L 451.710162 114.312949 
L 455.280903 114.312949 
L 458.851644 114.312949 
L 462.422384 114.312949 
L 465.993125 114.312949 
L 469.563865 114.31295 
L 473.134606 114.312953 
L 476.705347 114.312963 
L 480.276087 114.312987 
L 483.846828 114.313048 
L 487.417568 114.313191 
L 490.988309 114.313508 
L 494.55905 114.314169 
L 498.12979 114.315469 
L 501.700531 114.317877 
L 505.271271 114.322075 
L 508.842012 114.328956 
L 512.412753 114.339549 
L 515.983493 114.354838 
L 519.554234 114.375489 
L 523.124974 114.401508 
L 526.695715 114.431954 
L 530.266456 114.464799 
L 533.837196 114.497068 
L 537.407937 114.525264 
L 540.978677 114.546021 
L 544.549418 114.5568 
L 548.120159 114.556434 
L 551.690899 114.545348 
L 555.26164 114.525401 
L 558.83238 114.499413 
L 562.403121 114.470545 
L 565.973862 114.441697 
L 569.544602 114.415086 
L 573.115343 114.392052 
L 576.686083 114.373098 
L 580.256824 114.358084 
L 580.256824 114.267813 
L 580.256824 114.267813 
L 576.686083 114.252799 
L 573.115343 114.233845 
L 569.544602 114.210811 
L 565.973862 114.1842 
L 562.403121 114.155352 
L 558.83238 114.126484 
L 555.26164 114.100496 
L 551.690899 114.080549 
L 548.120159 114.069463 
L 544.549418 114.069097 
L 540.978677 114.079876 
L 537.407937 114.100633 
L 533.837196 114.128829 
L 530.266456 114.161098 
L 526.695715 114.193943 
L 523.124974 114.224389 
L 519.554234 114.250408 
L 515.983493 114.271059 
L 512.412753 114.286349 
L 508.842012 114.296941 
L 505.271271 114.303822 
L 501.700531 114.30802 
L 498.12979 114.310428 
L 494.55905 114.311728 
L 490.988309 114.312389 
L 487.417568 114.312706 
L 483.846828 114.312849 
L 480.276087 114.31291 
L 476.705347 114.312934 
L 473.134606 114.312944 
L 469.563865 114.312947 
L 465.993125 114.312948 
L 462.422384 114.312948 
L 458.851644 114.312948 
L 455.280903 114.312948 
L 451.710162 114.312948 
L 448.139422 114.312948 
L 444.568681 114.312946 
L 440.997941 114.312942 
L 437.4272 114.312932 
L 433.856459 114.312911 
L 430.285719 114.312865 
L 426.714978 114.312774 
L 423.144238 114.312604 
L 419.573497 114.312305 
L 416.002756 114.311815 
L 412.432016 114.311062 
L 408.861275 114.309981 
L 405.290535 114.308532 
L 401.719794 114.306729 
L 398.149053 114.304651 
L 394.578313 114.302444 
L 391.007572 114.3003 
L 387.436832 114.29841 
L 383.866091 114.296917 
L 380.29535 114.295878 
L 376.72461 114.295254 
L 373.153869 114.29494 
L 369.583129 114.294819 
L 366.012388 114.294818 
L 362.441647 114.294937 
L 358.870907 114.295241 
L 355.300166 114.29581 
L 351.729426 114.296675 
L 348.158685 114.297766 
L 344.587944 114.298891 
L 341.017204 114.299767 
L 337.446463 114.300079 
L 333.875723 114.299557 
L 330.304982 114.29804 
L 326.734241 114.295523 
L 323.163501 114.29216 
L 319.59276 114.288249 
L 316.02202 114.284176 
L 312.451279 114.280356 
L 308.880538 114.277156 
L 305.309798 114.274815 
L 301.739057 114.273349 
L 298.168317 114.272415 
L 294.597576 114.271095 
L 291.026835 114.267501 
L 287.456095 114.258083 
L 283.885354 114.236529 
L 280.314614 114.192219 
L 276.743873 114.108432 
L 273.173132 113.960865 
L 269.602392 113.717467 
L 266.031651 113.3409 
L 262.460911 112.794739 
L 258.89017 112.053672 
L 255.319429 111.116259 
L 251.748689 110.016871 
L 248.177948 108.832043 
L 244.607208 107.676716 
L 241.036467 106.688328 
L 237.465726 106.000859 
L 233.894986 105.715301 
L 230.324245 105.875446 
L 226.753505 106.456966 
z
" style="fill:#ff0000;fill-opacity:0.75;"/>
   </g>
   <g id="PolyCollection_8">
    <path clip-path="url(#pfebd405bbd)" d="M 226.755162 71.852387 
L 226.755162 87.992333 
L 230.27045 88.199786 
L 233.785738 88.358642 
L 237.301026 88.466025 
L 240.816314 88.520007 
L 244.331602 88.519674 
L 247.84689 88.465147 
L 251.362178 88.357576 
L 254.877466 88.199107 
L 258.392754 87.992807 
L 261.908042 87.74257 
L 265.42333 87.452996 
L 268.938618 87.129251 
L 272.453906 86.776921 
L 275.969194 86.401848 
L 279.484482 86.009978 
L 282.99977 85.607209 
L 286.515058 85.199248 
L 290.030346 84.791485 
L 293.545634 84.388893 
L 297.060922 83.995934 
L 300.57621 83.616501 
L 304.091498 83.25388 
L 307.606786 82.910725 
L 311.122074 82.589069 
L 314.637362 82.290337 
L 318.15265 82.015389 
L 321.667938 81.764564 
L 325.183226 81.537739 
L 328.698514 81.334395 
L 332.213802 81.153681 
L 335.72909 80.994483 
L 339.244378 80.855485 
L 342.759666 80.735239 
L 346.274954 80.632209 
L 349.790242 80.544831 
L 353.30553 80.471547 
L 356.820818 80.410845 
L 360.336106 80.361285 
L 363.851394 80.321518 
L 367.366682 80.290306 
L 370.88197 80.266525 
L 374.397258 80.249172 
L 377.912546 80.237368 
L 381.427834 80.230349 
L 384.943122 80.227465 
L 388.45841 80.228174 
L 391.973698 80.232029 
L 395.488986 80.238674 
L 399.004274 80.247834 
L 402.519562 80.259309 
L 406.03485 80.272966 
L 409.550138 80.288733 
L 413.065426 80.3066 
L 416.580714 80.326614 
L 420.096002 80.34888 
L 423.61129 80.373564 
L 427.126578 80.400898 
L 430.641866 80.431183 
L 434.157154 80.464799 
L 437.672442 80.502208 
L 441.18773 80.543966 
L 444.703018 80.590723 
L 448.218306 80.643231 
L 451.733594 80.702342 
L 455.248882 80.769009 
L 458.76417 80.844273 
L 462.279458 80.929249 
L 465.794746 81.025111 
L 469.310034 81.133058 
L 472.825322 81.254281 
L 476.34061 81.389923 
L 479.855898 81.541024 
L 483.371186 81.708473 
L 486.886474 81.892945 
L 490.401762 82.09484 
L 493.91705 82.314227 
L 497.432338 82.550783 
L 500.947626 82.803741 
L 504.462914 83.071852 
L 507.978202 83.353353 
L 511.49349 83.645956 
L 515.008778 83.946845 
L 518.524066 84.252706 
L 522.039354 84.559768 
L 525.554642 84.863865 
L 529.06993 85.160522 
L 532.585218 85.445057 
L 536.100506 85.712696 
L 539.615794 85.958703 
L 543.131082 86.178512 
L 546.646369 86.367864 
L 550.161657 86.522939 
L 553.676945 86.640478 
L 557.192233 86.717888 
L 560.707521 86.75333 
L 564.222809 86.745784 
L 567.738097 86.695082 
L 571.253385 86.60192 
L 574.768673 86.467834 
L 574.768673 73.376887 
L 574.768673 73.376887 
L 571.253385 73.242801 
L 567.738097 73.149639 
L 564.222809 73.098937 
L 560.707521 73.091391 
L 557.192233 73.126833 
L 553.676945 73.204242 
L 550.161657 73.321781 
L 546.646369 73.476857 
L 543.131082 73.666209 
L 539.615794 73.886018 
L 536.100506 74.132024 
L 532.585218 74.399664 
L 529.06993 74.684199 
L 525.554642 74.980856 
L 522.039354 75.284953 
L 518.524066 75.592015 
L 515.008778 75.897876 
L 511.49349 76.198765 
L 507.978202 76.491367 
L 504.462914 76.772869 
L 500.947626 77.04098 
L 497.432338 77.293938 
L 493.91705 77.530493 
L 490.401762 77.74988 
L 486.886474 77.951776 
L 483.371186 78.136247 
L 479.855898 78.303696 
L 476.34061 78.454798 
L 472.825322 78.590439 
L 469.310034 78.711663 
L 465.794746 78.81961 
L 462.279458 78.915472 
L 458.76417 79.000448 
L 455.248882 79.075711 
L 451.733594 79.142378 
L 448.218306 79.20149 
L 444.703018 79.253998 
L 441.18773 79.300755 
L 437.672442 79.342512 
L 434.157154 79.379922 
L 430.641866 79.413538 
L 427.126578 79.443823 
L 423.61129 79.471156 
L 420.096002 79.495841 
L 416.580714 79.518107 
L 413.065426 79.53812 
L 409.550138 79.555988 
L 406.03485 79.571755 
L 402.519562 79.585412 
L 399.004274 79.596887 
L 395.488986 79.606047 
L 391.973698 79.612692 
L 388.45841 79.616547 
L 384.943122 79.617255 
L 381.427834 79.614372 
L 377.912546 79.607353 
L 374.397258 79.595548 
L 370.88197 79.578196 
L 367.366682 79.554415 
L 363.851394 79.523202 
L 360.336106 79.483436 
L 356.820818 79.433876 
L 353.30553 79.373174 
L 349.790242 79.29989 
L 346.274954 79.212511 
L 342.759666 79.109482 
L 339.244378 78.989235 
L 335.72909 78.850238 
L 332.213802 78.691039 
L 328.698514 78.510325 
L 325.183226 78.306981 
L 321.667938 78.080157 
L 318.15265 77.829332 
L 314.637362 77.554384 
L 311.122074 77.255652 
L 307.606786 76.933995 
L 304.091498 76.590841 
L 300.57621 76.228219 
L 297.060922 75.848787 
L 293.545634 75.455828 
L 290.030346 75.053235 
L 286.515058 74.645473 
L 282.99977 74.237511 
L 279.484482 73.834742 
L 275.969194 73.442873 
L 272.453906 73.0678 
L 268.938618 72.715469 
L 265.42333 72.391725 
L 261.908042 72.10215 
L 258.392754 71.851913 
L 254.877466 71.645614 
L 251.362178 71.487144 
L 247.84689 71.379574 
L 244.331602 71.325046 
L 240.816314 71.324713 
L 237.301026 71.378696 
L 233.785738 71.486078 
L 230.27045 71.644935 
L 226.755162 71.852387 
z
" style="fill:#ff0000;fill-opacity:0.75;"/>
   </g>
   <g id="PolyCollection_9">
    <path clip-path="url(#pfebd405bbd)" d="M 226.746875 37.490889 
L 226.746875 53.572655 
L 230.361057 53.990577 
L 233.97524 54.129419 
L 237.589422 53.976626 
L 241.203604 53.549097 
L 244.817787 52.890163 
L 248.431969 52.062395 
L 252.046151 51.137907 
L 255.660334 50.188195 
L 259.274516 49.275463 
L 262.888698 48.446773 
L 266.502881 47.73157 
L 270.117063 47.1423 
L 273.731245 46.677311 
L 277.345428 46.324972 
L 280.95961 46.067975 
L 284.573792 45.887066 
L 288.187975 45.763797 
L 291.802157 45.682192 
L 295.416339 45.62947 
L 299.030522 45.596063 
L 302.644704 45.575218 
L 306.258886 45.562414 
L 309.873069 45.554754 
L 313.487251 45.550444 
L 317.101433 45.548383 
L 320.715616 45.547875 
L 324.329798 45.54845 
L 327.94398 45.549752 
L 331.558163 45.551494 
L 335.172345 45.553437 
L 338.786527 45.555391 
L 342.40071 45.55722 
L 346.014892 45.558846 
L 349.629074 45.560249 
L 353.243257 45.561457 
L 356.857439 45.562526 
L 360.471621 45.563522 
L 364.085804 45.56449 
L 367.699986 45.565436 
L 371.314168 45.566311 
L 374.928351 45.567007 
L 378.542533 45.567376 
L 382.156715 45.567253 
L 385.770898 45.566494 
L 389.38508 45.565009 
L 392.999262 45.562787 
L 396.613445 45.559908 
L 400.227627 45.556531 
L 403.841809 45.552871 
L 407.455992 45.549162 
L 411.070174 45.54562 
L 414.684356 45.542421 
L 418.298539 45.539677 
L 421.912721 45.53744 
L 425.526903 45.535707 
L 429.141085 45.534436 
L 432.755268 45.533567 
L 436.36945 45.533035 
L 439.983632 45.532787 
L 443.597815 45.532788 
L 447.211997 45.533021 
L 450.826179 45.533488 
L 454.440362 45.5342 
L 458.054544 45.53517 
L 461.668726 45.536402 
L 465.282909 45.537881 
L 468.897091 45.53957 
L 472.511273 45.541413 
L 476.125456 45.543351 
L 479.739638 45.545346 
L 483.35382 45.547419 
L 486.968003 45.549696 
L 490.582185 45.55245 
L 494.196367 45.556134 
L 497.81055 45.561397 
L 501.424732 45.569061 
L 505.038914 45.580065 
L 508.653097 45.595355 
L 512.267279 45.615733 
L 515.881461 45.641688 
L 519.495644 45.673205 
L 523.109826 45.70962 
L 526.724008 45.749544 
L 530.338191 45.790889 
L 533.952373 45.831018 
L 537.566555 45.867024 
L 541.180738 45.896074 
L 544.79492 45.915787 
L 548.409102 45.924564 
L 552.023285 45.921797 
L 555.637467 45.907936 
L 559.251649 45.884383 
L 562.865832 45.853265 
L 566.480014 45.817114 
L 570.094196 45.778532 
L 573.708379 45.7399 
L 577.322561 45.703163 
L 580.936743 45.669724 
L 584.550926 45.640419 
L 584.550926 45.423125 
L 584.550926 45.423125 
L 580.936743 45.393821 
L 577.322561 45.360381 
L 573.708379 45.323644 
L 570.094196 45.285012 
L 566.480014 45.24643 
L 562.865832 45.210279 
L 559.251649 45.179161 
L 555.637467 45.155609 
L 552.023285 45.141747 
L 548.409102 45.13898 
L 544.79492 45.147757 
L 541.180738 45.16747 
L 537.566555 45.19652 
L 533.952373 45.232526 
L 530.338191 45.272656 
L 526.724008 45.314 
L 523.109826 45.353924 
L 519.495644 45.390339 
L 515.881461 45.421856 
L 512.267279 45.447811 
L 508.653097 45.46819 
L 505.038914 45.483479 
L 501.424732 45.494483 
L 497.81055 45.502147 
L 494.196367 45.50741 
L 490.582185 45.511094 
L 486.968003 45.513848 
L 483.35382 45.516125 
L 479.739638 45.518198 
L 476.125456 45.520193 
L 472.511273 45.522131 
L 468.897091 45.523974 
L 465.282909 45.525663 
L 461.668726 45.527142 
L 458.054544 45.528374 
L 454.440362 45.529344 
L 450.826179 45.530057 
L 447.211997 45.530523 
L 443.597815 45.530756 
L 439.983632 45.530757 
L 436.36945 45.530509 
L 432.755268 45.529977 
L 429.141085 45.529108 
L 425.526903 45.527837 
L 421.912721 45.526104 
L 418.298539 45.523867 
L 414.684356 45.521123 
L 411.070174 45.517924 
L 407.455992 45.514382 
L 403.841809 45.510673 
L 400.227627 45.507013 
L 396.613445 45.503636 
L 392.999262 45.500757 
L 389.38508 45.498535 
L 385.770898 45.49705 
L 382.156715 45.496291 
L 378.542533 45.496168 
L 374.928351 45.496537 
L 371.314168 45.497233 
L 367.699986 45.498108 
L 364.085804 45.499054 
L 360.471621 45.500022 
L 356.857439 45.501018 
L 353.243257 45.502087 
L 349.629074 45.503295 
L 346.014892 45.504698 
L 342.40071 45.506324 
L 338.786527 45.508153 
L 335.172345 45.510107 
L 331.558163 45.51205 
L 327.94398 45.513792 
L 324.329798 45.515094 
L 320.715616 45.515669 
L 317.101433 45.515162 
L 313.487251 45.5131 
L 309.873069 45.508791 
L 306.258886 45.501131 
L 302.644704 45.488326 
L 299.030522 45.467481 
L 295.416339 45.434074 
L 291.802157 45.381352 
L 288.187975 45.299747 
L 284.573792 45.176478 
L 280.95961 44.995569 
L 277.345428 44.738572 
L 273.731245 44.386233 
L 270.117063 43.921245 
L 266.502881 43.331974 
L 262.888698 42.616771 
L 259.274516 41.788082 
L 255.660334 40.875349 
L 252.046151 39.925637 
L 248.431969 39.001149 
L 244.817787 38.173381 
L 241.203604 37.514447 
L 237.589422 37.086918 
L 233.97524 36.934125 
L 230.361057 37.072967 
L 226.746875 37.490889 
z
" style="fill:#ff0000;fill-opacity:0.75;"/>
   </g>
   <g id="LineCollection_1">
    <path clip-path="url(#pfebd405bbd)" d="M 238.773564 324.955301 
L 238.773564 316.357654 
" style="fill:none;stroke:#000000;stroke-width:1.5;"/>
    <path clip-path="url(#pfebd405bbd)" d="M 237.27855 290.564713 
L 237.27855 281.967066 
" style="fill:none;stroke:#000000;stroke-width:1.5;"/>
    <path clip-path="url(#pfebd405bbd)" d="M 239.171942 256.174125 
L 239.171942 247.576478 
" style="fill:none;stroke:#000000;stroke-width:1.5;"/>
    <path clip-path="url(#pfebd405bbd)" d="M 242.8971 221.783537 
L 242.8971 213.18589 
" style="fill:none;stroke:#000000;stroke-width:1.5;"/>
    <path clip-path="url(#pfebd405bbd)" d="M 242.8971 187.392949 
L 242.8971 178.795301 
" style="fill:none;stroke:#000000;stroke-width:1.5;"/>
    <path clip-path="url(#pfebd405bbd)" d="M 249.141338 153.00236 
L 249.141338 144.404713 
" style="fill:none;stroke:#000000;stroke-width:1.5;"/>
    <path clip-path="url(#pfebd405bbd)" d="M 243.722291 118.611772 
L 243.722291 110.014125 
" style="fill:none;stroke:#000000;stroke-width:1.5;"/>
    <path clip-path="url(#pfebd405bbd)" d="M 385.044306 84.221184 
L 385.044306 75.623537 
" style="fill:none;stroke:#000000;stroke-width:1.5;"/>
    <path clip-path="url(#pfebd405bbd)" d="M 250.354436 49.830596 
L 250.354436 41.232949 
" style="fill:none;stroke:#000000;stroke-width:1.5;"/>
   </g>
   <g id="patch_3">
    <path d="M 226.746875 343.870125 
L 226.746875 22.318125 
" style="fill:none;stroke:#000000;stroke-linecap:square;stroke-linejoin:miter;stroke-width:0.8;"/>
   </g>
   <g id="patch_4">
    <path d="M 617.346875 343.870125 
L 617.346875 22.318125 
" style="fill:none;stroke:#000000;stroke-linecap:square;stroke-linejoin:miter;stroke-width:0.8;"/>
   </g>
   <g id="patch_5">
    <path d="M 226.746875 343.870125 
L 617.346875 343.870125 
" style="fill:none;stroke:#000000;stroke-linecap:square;stroke-linejoin:miter;stroke-width:0.8;"/>
   </g>
   <g id="patch_6">
    <path d="M 226.746875 22.318125 
L 617.346875 22.318125 
" style="fill:none;stroke:#000000;stroke-linecap:square;stroke-linejoin:miter;stroke-width:0.8;"/>
   </g>
   <g id="text_18">
    <!-- AOE2 for 2.0 -->
    <g transform="translate(384.005938 16.318125)scale(0.12 -0.12)">
     <use xlink:href="#DejaVuSans-41"/>
     <use x="68.392578" xlink:href="#DejaVuSans-4f"/>
     <use x="147.103516" xlink:href="#DejaVuSans-45"/>
     <use x="210.287109" xlink:href="#DejaVuSans-32"/>
     <use x="273.910156" xlink:href="#DejaVuSans-20"/>
     <use x="305.697266" xlink:href="#DejaVuSans-66"/>
     <use x="340.902344" xlink:href="#DejaVuSans-6f"/>
     <use x="402.083984" xlink:href="#DejaVuSans-72"/>
     <use x="443.197266" xlink:href="#DejaVuSans-20"/>
     <use x="474.984375" xlink:href="#DejaVuSans-32"/>
     <use x="538.607422" xlink:href="#DejaVuSans-2e"/>
     <use x="570.394531" xlink:href="#DejaVuSans-30"/>
    </g>
   </g>
  </g>
 </g>
 <defs>
  <clipPath id="pfebd405bbd">
   <rect height="321.552" width="390.6" x="226.746875" y="22.318125"/>
  </clipPath>
 </defs>
</svg>
