<?xml version='1.0' encoding='utf-8'?>
<svg xmlns:xlink="http://www.w3.org/1999/xlink" class="pygal-chart" id="chart-24e6a553-bd9d-4719-9dc7-ef1a39996e45" viewBox="0 0 800 600" xmlns="http://www.w3.org/2000/svg"><!--Generated with pygal 2.4.0 (etree) ©Kozea 2012-2016 on 2020-10-14--><!--http://pygal.org--><!--http://github.com/Kozea/pygal--><defs><style type="text/css">#chart-24e6a553-bd9d-4719-9dc7-ef1a39996e45{-webkit-user-select:none;-webkit-font-smoothing:antialiased;font-family:Helvetica,Arial,sans-serif}#chart-24e6a553-bd9d-4719-9dc7-ef1a39996e45 .title{font-family:Helvetica,Arial,sans-serif;font-size:18px}#chart-24e6a553-bd9d-4719-9dc7-ef1a39996e45 .legends .legend text{font-family:Helvetica,Arial,sans-serif;font-size:15px}#chart-24e6a553-bd9d-4719-9dc7-ef1a39996e45 .axis text{font-family:Helvetica,Arial,sans-serif;font-size:15px}#chart-24e6a553-bd9d-4719-9dc7-ef1a39996e45 .axis text.major{font-family:Helvetica,Arial,sans-serif;font-size:15px}#chart-24e6a553-bd9d-4719-9dc7-ef1a39996e45 .text-overlay text.value{font-family:Helvetica,Arial,sans-serif;font-size:15px}#chart-24e6a553-bd9d-4719-9dc7-ef1a39996e45 .text-overlay text.label{font-family:Helvetica,Arial,sans-serif;font-size:15px}#chart-24e6a553-bd9d-4719-9dc7-ef1a39996e45 .tooltip{font-family:Helvetica,Arial,sans-serif;font-size:14px}#chart-24e6a553-bd9d-4719-9dc7-ef1a39996e45 text.no_data{font-family:Helvetica,Arial,sans-serif;font-size:64px}
#chart-24e6a553-bd9d-4719-9dc7-ef1a39996e45{background-color:transparent}#chart-24e6a553-bd9d-4719-9dc7-ef1a39996e45 path,#chart-24e6a553-bd9d-4719-9dc7-ef1a39996e45 line,#chart-24e6a553-bd9d-4719-9dc7-ef1a39996e45 rect,#chart-24e6a553-bd9d-4719-9dc7-ef1a39996e45 circle{-webkit-transition:150ms;-moz-transition:150ms;transition:150ms}#chart-24e6a553-bd9d-4719-9dc7-ef1a39996e45 .graph &gt; .background{fill:transparent}#chart-24e6a553-bd9d-4719-9dc7-ef1a39996e45 .plot &gt; .background{fill:white}#chart-24e6a553-bd9d-4719-9dc7-ef1a39996e45 .graph{fill:rgba(0,0,0,.87)}#chart-24e6a553-bd9d-4719-9dc7-ef1a39996e45 text.no_data{fill:rgba(0,0,0,1)}#chart-24e6a553-bd9d-4719-9dc7-ef1a39996e45 .title{fill:rgba(0,0,0,1)}#chart-24e6a553-bd9d-4719-9dc7-ef1a39996e45 .legends .legend text{fill:rgba(0,0,0,.87)}#chart-24e6a553-bd9d-4719-9dc7-ef1a39996e45 .legends .legend:hover text{fill:rgba(0,0,0,1)}#chart-24e6a553-bd9d-4719-9dc7-ef1a39996e45 .axis .line{stroke:rgba(0,0,0,1)}#chart-24e6a553-bd9d-4719-9dc7-ef1a39996e45 .axis .guide.line{stroke:rgba(0,0,0,.54)}#chart-24e6a553-bd9d-4719-9dc7-ef1a39996e45 .axis .major.line{stroke:rgba(0,0,0,.87)}#chart-24e6a553-bd9d-4719-9dc7-ef1a39996e45 .axis text.major{fill:rgba(0,0,0,1)}#chart-24e6a553-bd9d-4719-9dc7-ef1a39996e45 .axis.y .guides:hover .guide.line,#chart-24e6a553-bd9d-4719-9dc7-ef1a39996e45 .line-graph .axis.x .guides:hover .guide.line,#chart-24e6a553-bd9d-4719-9dc7-ef1a39996e45 .stackedline-graph .axis.x .guides:hover .guide.line,#chart-24e6a553-bd9d-4719-9dc7-ef1a39996e45 .xy-graph .axis.x .guides:hover .guide.line{stroke:rgba(0,0,0,1)}#chart-24e6a553-bd9d-4719-9dc7-ef1a39996e45 .axis .guides:hover text{fill:rgba(0,0,0,1)}#chart-24e6a553-bd9d-4719-9dc7-ef1a39996e45 .reactive{fill-opacity:.7;stroke-opacity:.8}#chart-24e6a553-bd9d-4719-9dc7-ef1a39996e45 .ci{stroke:rgba(0,0,0,.87)}#chart-24e6a553-bd9d-4719-9dc7-ef1a39996e45 .reactive.active,#chart-24e6a553-bd9d-4719-9dc7-ef1a39996e45 .active .reactive{fill-opacity:.8;stroke-opacity:.9;stroke-width:4}#chart-24e6a553-bd9d-4719-9dc7-ef1a39996e45 .ci .reactive.active{stroke-width:1.5}#chart-24e6a553-bd9d-4719-9dc7-ef1a39996e45 .series text{fill:rgba(0,0,0,1)}#chart-24e6a553-bd9d-4719-9dc7-ef1a39996e45 .tooltip rect{fill:white;stroke:rgba(0,0,0,1);-webkit-transition:opacity 150ms;-moz-transition:opacity 150ms;transition:opacity 150ms}#chart-24e6a553-bd9d-4719-9dc7-ef1a39996e45 .tooltip .label{fill:rgba(0,0,0,.87)}#chart-24e6a553-bd9d-4719-9dc7-ef1a39996e45 .tooltip .label{fill:rgba(0,0,0,.87)}#chart-24e6a553-bd9d-4719-9dc7-ef1a39996e45 .tooltip .legend{font-size:.8em;fill:rgba(0,0,0,.54)}#chart-24e6a553-bd9d-4719-9dc7-ef1a39996e45 .tooltip .x_label{font-size:.6em;fill:rgba(0,0,0,1)}#chart-24e6a553-bd9d-4719-9dc7-ef1a39996e45 .tooltip .xlink{font-size:.5em;text-decoration:underline}#chart-24e6a553-bd9d-4719-9dc7-ef1a39996e45 .tooltip .value{font-size:1.5em}#chart-24e6a553-bd9d-4719-9dc7-ef1a39996e45 .bound{font-size:.5em}#chart-24e6a553-bd9d-4719-9dc7-ef1a39996e45 .max-value{font-size:.75em;fill:rgba(0,0,0,.54)}#chart-24e6a553-bd9d-4719-9dc7-ef1a39996e45 .map-element{fill:white;stroke:rgba(0,0,0,.54) !important}#chart-24e6a553-bd9d-4719-9dc7-ef1a39996e45 .map-element .reactive{fill-opacity:inherit;stroke-opacity:inherit}#chart-24e6a553-bd9d-4719-9dc7-ef1a39996e45 .color-0,#chart-24e6a553-bd9d-4719-9dc7-ef1a39996e45 .color-0 a:visited{stroke:#F44336;fill:#F44336}#chart-24e6a553-bd9d-4719-9dc7-ef1a39996e45 .color-1,#chart-24e6a553-bd9d-4719-9dc7-ef1a39996e45 .color-1 a:visited{stroke:#3F51B5;fill:#3F51B5}#chart-24e6a553-bd9d-4719-9dc7-ef1a39996e45 .color-2,#chart-24e6a553-bd9d-4719-9dc7-ef1a39996e45 .color-2 a:visited{stroke:#009688;fill:#009688}#chart-24e6a553-bd9d-4719-9dc7-ef1a39996e45 .color-3,#chart-24e6a553-bd9d-4719-9dc7-ef1a39996e45 .color-3 a:visited{stroke:#FFC107;fill:#FFC107}#chart-24e6a553-bd9d-4719-9dc7-ef1a39996e45 .text-overlay .color-0 text{fill:black}#chart-24e6a553-bd9d-4719-9dc7-ef1a39996e45 .text-overlay .color-1 text{fill:black}#chart-24e6a553-bd9d-4719-9dc7-ef1a39996e45 .text-overlay .color-2 text{fill:black}#chart-24e6a553-bd9d-4719-9dc7-ef1a39996e45 .text-overlay .color-3 text{fill:black}
#chart-24e6a553-bd9d-4719-9dc7-ef1a39996e45 text.no_data{text-anchor:middle}#chart-24e6a553-bd9d-4719-9dc7-ef1a39996e45 .guide.line{fill:none}#chart-24e6a553-bd9d-4719-9dc7-ef1a39996e45 .centered{text-anchor:middle}#chart-24e6a553-bd9d-4719-9dc7-ef1a39996e45 .title{text-anchor:middle}#chart-24e6a553-bd9d-4719-9dc7-ef1a39996e45 .legends .legend text{fill-opacity:1}#chart-24e6a553-bd9d-4719-9dc7-ef1a39996e45 .axis.x text{text-anchor:middle}#chart-24e6a553-bd9d-4719-9dc7-ef1a39996e45 .axis.x:not(.web) text[transform]{text-anchor:start}#chart-24e6a553-bd9d-4719-9dc7-ef1a39996e45 .axis.x:not(.web) text[transform].backwards{text-anchor:end}#chart-24e6a553-bd9d-4719-9dc7-ef1a39996e45 .axis.y text{text-anchor:end}#chart-24e6a553-bd9d-4719-9dc7-ef1a39996e45 .axis.y text[transform].backwards{text-anchor:start}#chart-24e6a553-bd9d-4719-9dc7-ef1a39996e45 .axis.y2 text{text-anchor:start}#chart-24e6a553-bd9d-4719-9dc7-ef1a39996e45 .axis.y2 text[transform].backwards{text-anchor:end}#chart-24e6a553-bd9d-4719-9dc7-ef1a39996e45 .axis .guide.line{stroke-dasharray:1}#chart-24e6a553-bd9d-4719-9dc7-ef1a39996e45 .axis .major.guide.line{stroke-dasharray:1}#chart-24e6a553-bd9d-4719-9dc7-ef1a39996e45 .horizontal .axis.y .guide.line,#chart-24e6a553-bd9d-4719-9dc7-ef1a39996e45 .horizontal .axis.y2 .guide.line,#chart-24e6a553-bd9d-4719-9dc7-ef1a39996e45 .vertical .axis.x .guide.line{opacity:0}#chart-24e6a553-bd9d-4719-9dc7-ef1a39996e45 .horizontal .axis.always_show .guide.line,#chart-24e6a553-bd9d-4719-9dc7-ef1a39996e45 .vertical .axis.always_show .guide.line{opacity:1 !important}#chart-24e6a553-bd9d-4719-9dc7-ef1a39996e45 .axis.y .guides:hover .guide.line,#chart-24e6a553-bd9d-4719-9dc7-ef1a39996e45 .axis.y2 .guides:hover .guide.line,#chart-24e6a553-bd9d-4719-9dc7-ef1a39996e45 .axis.x .guides:hover .guide.line{opacity:1}#chart-24e6a553-bd9d-4719-9dc7-ef1a39996e45 .axis .guides:hover text{opacity:1}#chart-24e6a553-bd9d-4719-9dc7-ef1a39996e45 .nofill{fill:none}#chart-24e6a553-bd9d-4719-9dc7-ef1a39996e45 .subtle-fill{fill-opacity:.2}#chart-24e6a553-bd9d-4719-9dc7-ef1a39996e45 .dot{stroke-width:1px;fill-opacity:1}#chart-24e6a553-bd9d-4719-9dc7-ef1a39996e45 .dot.active{stroke-width:5px}#chart-24e6a553-bd9d-4719-9dc7-ef1a39996e45 .dot.negative{fill:transparent}#chart-24e6a553-bd9d-4719-9dc7-ef1a39996e45 text,#chart-24e6a553-bd9d-4719-9dc7-ef1a39996e45 tspan{stroke:none !important}#chart-24e6a553-bd9d-4719-9dc7-ef1a39996e45 .series text.active{opacity:1}#chart-24e6a553-bd9d-4719-9dc7-ef1a39996e45 .tooltip rect{fill-opacity:.95;stroke-width:.5}#chart-24e6a553-bd9d-4719-9dc7-ef1a39996e45 .tooltip text{fill-opacity:1}#chart-24e6a553-bd9d-4719-9dc7-ef1a39996e45 .showable{visibility:hidden}#chart-24e6a553-bd9d-4719-9dc7-ef1a39996e45 .showable.shown{visibility:visible}#chart-24e6a553-bd9d-4719-9dc7-ef1a39996e45 .gauge-background{fill:rgba(229,229,229,1);stroke:none}#chart-24e6a553-bd9d-4719-9dc7-ef1a39996e45 .bg-lines{stroke:transparent;stroke-width:2px}</style><script type="text/javascript">window.pygal = window.pygal || {};window.pygal.config = window.pygal.config || {};window.pygal.config['24e6a553-bd9d-4719-9dc7-ef1a39996e45'] = {"allow_interruptions": false, "box_mode": "extremes", "classes": ["pygal-chart"], "css": ["file://style.css", "file://graph.css"], "defs": [], "disable_xml_declaration": false, "dots_size": 2.5, "dynamic_print_values": false, "explicit_size": false, "fill": false, "force_uri_protocol": "https", "formatter": null, "half_pie": false, "height": 600, "include_x_axis": false, "inner_radius": 0, "interpolate": null, "interpolation_parameters": {}, "interpolation_precision": 250, "inverse_y_axis": false, "js": ["//kozea.github.io/pygal.js/2.0.x/pygal-tooltips.min.js"], "legend_at_bottom": true, "legend_at_bottom_columns": 2, "legend_box_size": 12, "logarithmic": false, "margin": 20, "margin_bottom": 60, "margin_left": null, "margin_right": null, "margin_top": null, "max_scale": 16, "min_scale": 4, "missing_value_fill_truncation": "x", "no_data_text": "No data", "no_prefix": false, "order_min": null, "pretty_print": false, "print_labels": false, "print_values": false, "print_values_position": "center", "print_zeroes": true, "range": [0.0, 20.0], "rounded_bars": null, "secondary_range": null, "show_dots": true, "show_legend": true, "show_minor_x_labels": false, "show_minor_y_labels": true, "show_only_major_dots": true, "show_x_guides": true, "show_x_labels": true, "show_y_guides": true, "show_y_labels": true, "spacing": 10, "stack_from_top": false, "strict": false, "stroke": true, "stroke_style": null, "style": {"background": "transparent", "ci_colors": [], "colors": ["#F44336", "#3F51B5", "#009688", "#FFC107", "#FF5722", "#9C27B0", "#03A9F4", "#8BC34A", "#FF9800", "#E91E63", "#2196F3", "#4CAF50", "#FFEB3B", "#673AB7", "#00BCD4", "#CDDC39", "#9E9E9E", "#607D8B"], "font_family": "Helvetica, Arial, sans-serif", "foreground": "rgba(0, 0, 0, .87)", "foreground_strong": "rgba(0, 0, 0, 1)", "foreground_subtle": "rgba(0, 0, 0, .54)", "guide_stroke_dasharray": 1, "label_font_family": "Helvetica, Arial, sans-serif", "label_font_size": 15, "legend_font_family": "Helvetica, Arial, sans-serif", "legend_font_size": 15, "major_guide_stroke_dasharray": 1, "major_label_font_family": "Helvetica, Arial, sans-serif", "major_label_font_size": 15, "no_data_font_family": "Helvetica, Arial, sans-serif", "no_data_font_size": 64, "opacity": ".7", "opacity_hover": ".8", "plot_background": "white", "stroke_opacity": ".8", "stroke_opacity_hover": ".9", "title_font_family": "Helvetica, Arial, sans-serif", "title_font_size": 18, "tooltip_font_family": "Helvetica, Arial, sans-serif", "tooltip_font_size": 14, "transition": "150ms", "value_background": "rgba(229, 229, 229, 1)", "value_colors": [], "value_font_family": "Helvetica, Arial, sans-serif", "value_font_size": 15, "value_label_font_family": "Helvetica, Arial, sans-serif", "value_label_font_size": 15}, "title": "Percentage of Annotations for T \u00b15.0 BPM", "tooltip_border_radius": 0, "tooltip_fancy_mode": true, "truncate_label": null, "truncate_legend": -1, "width": 800, "x_label_rotation": 90, "x_labels": ["0.0", "1.0", "2.0", "3.0", "4.0", "5.0", "6.0", "7.0", "8.0", "9.0", "10.0", "11.0", "12.0", "13.0", "14.0", "15.0", "16.0", "17.0", "18.0", "19.0", "20.0", "21.0", "22.0", "23.0", "24.0", "25.0", "26.0", "27.0", "28.0", "29.0", "30.0", "31.0", "32.0", "33.0", "34.0", "35.0", "36.0", "37.0", "38.0", "39.0", "40.0", "41.0", "42.0", "43.0", "44.0", "45.0", "46.0", "47.0", "48.0", "49.0", "50.0", "51.0", "52.0", "53.0", "54.0", "55.0", "56.0", "57.0", "58.0", "59.0", "60.0", "61.0", "62.0", "63.0", "64.0", "65.0", "66.0", "67.0", "68.0", "69.0", "70.0", "71.0", "72.0", "73.0", "74.0", "75.0", "76.0", "77.0", "78.0", "79.0", "80.0", "81.0", "82.0", "83.0", "84.0", "85.0", "86.0", "87.0", "88.0", "89.0", "90.0", "91.0", "92.0", "93.0", "94.0", "95.0", "96.0", "97.0", "98.0", "99.0", "100.0", "101.0", "102.0", "103.0", "104.0", "105.0", "106.0", "107.0", "108.0", "109.0", "110.0", "111.0", "112.0", "113.0", "114.0", "115.0", "116.0", "117.0", "118.0", "119.0", "120.0", "121.0", "122.0", "123.0", "124.0", "125.0", "126.0", "127.0", "128.0", "129.0", "130.0", "131.0", "132.0", "133.0", "134.0", "135.0", "136.0", "137.0", "138.0", "139.0", "140.0", "141.0", "142.0", "143.0", "144.0", "145.0", "146.0", "147.0", "148.0", "149.0", "150.0", "151.0", "152.0", "153.0", "154.0", "155.0", "156.0", "157.0", "158.0", "159.0", "160.0", "161.0", "162.0", "163.0", "164.0", "165.0", "166.0", "167.0", "168.0", "169.0", "170.0", "171.0", "172.0", "173.0", "174.0", "175.0", "176.0", "177.0", "178.0", "179.0", "180.0", "181.0", "182.0", "183.0", "184.0", "185.0", "186.0", "187.0", "188.0", "189.0", "190.0", "191.0", "192.0", "193.0", "194.0", "195.0", "196.0", "197.0", "198.0", "199.0", "200.0", "201.0", "202.0", "203.0", "204.0", "205.0", "206.0", "207.0", "208.0", "209.0", "210.0", "211.0", "212.0", "213.0", "214.0", "215.0", "216.0", "217.0", "218.0", "219.0", "220.0", "221.0", "222.0", "223.0", "224.0", "225.0", "226.0", "227.0", "228.0", "229.0", "230.0", "231.0", "232.0", "233.0", "234.0", "235.0", "236.0", "237.0", "238.0", "239.0", "240.0", "241.0", "242.0", "243.0", "244.0", "245.0", "246.0", "247.0", "248.0", "249.0", "250.0", "251.0", "252.0", "253.0", "254.0", "255.0", "256.0", "257.0", "258.0", "259.0", "260.0", "261.0", "262.0", "263.0", "264.0", "265.0", "266.0", "267.0", "268.0", "269.0", "270.0", "271.0", "272.0", "273.0", "274.0", "275.0", "276.0", "277.0", "278.0", "279.0", "280.0", "281.0", "282.0", "283.0", "284.0", "285.0", "286.0", "287.0", "288.0", "289.0", "290.0", "291.0", "292.0", "293.0", "294.0", "295.0", "296.0", "297.0", "298.0", "299.0", "300.0"], "x_labels_major": null, "x_labels_major_count": 11, "x_labels_major_every": null, "x_title": "T (BPM)", "xrange": null, "y_label_rotation": 0, "y_labels": null, "y_labels_major": null, "y_labels_major_count": null, "y_labels_major_every": null, "y_title": "Values (%)", "zero": 0, "legends": ["1.0", "2.0", "GTZAN-Rhythm_v2_ismir2015_lbd_2015-10-28_IBI", "GTZAN-Rhythm_v2_ismir2015_lbd_2015-10-28_ICBI"]}</script><script type="text/javascript" xlink:href="https://kozea.github.io/pygal.js/2.0.x/pygal-tooltips.min.js" /></defs><title>Percentage of Annotations for T ±5.0 BPM</title><g class="graph line-graph vertical"><rect class="background" height="600" width="800" x="0" y="0" /><g class="plot" transform="translate(94, 48)"><rect class="background" height="361.5" width="686.0" x="0" y="0" /><g class="axis y always_show"><g class="guides"><path class="major line" d="M0.000000 354.548077 h686.000000" /><text class="major" x="-5" y="359.7980769230769">0.0</text><title>0.0</title></g><g class="guides"><path class="guide line" d="M0.000000 319.788462 h686.000000" /><text class="" x="-5" y="325.03846153846155">2.0</text><title>2.0</title></g><g class="guides"><path class="guide line" d="M0.000000 285.028846 h686.000000" /><text class="" x="-5" y="290.27884615384613">4.0</text><title>4.0</title></g><g class="guides"><path class="guide line" d="M0.000000 250.269231 h686.000000" /><text class="" x="-5" y="255.51923076923077">6.0</text><title>6.0</title></g><g class="guides"><path class="guide line" d="M0.000000 215.509615 h686.000000" /><text class="" x="-5" y="220.75961538461536">8.0</text><title>8.0</title></g><g class="guides"><path class="major guide line" d="M0.000000 180.750000 h686.000000" /><text class="major" x="-5" y="185.99999999999997">10.0</text><title>10.0</title></g><g class="guides"><path class="guide line" d="M0.000000 145.990385 h686.000000" /><text class="" x="-5" y="151.24038461538456">12.0</text><title>12.0</title></g><g class="guides"><path class="guide line" d="M0.000000 111.230769 h686.000000" /><text class="" x="-5" y="116.48076923076917">14.0</text><title>14.0</title></g><g class="guides"><path class="guide line" d="M0.000000 76.471154 h686.000000" /><text class="" x="-5" y="81.72115384615381">16.0</text><title>16.0</title></g><g class="guides"><path class="guide line" d="M0.000000 41.711538 h686.000000" /><text class="" x="-5" y="46.96153846153845">18.0</text><title>18.0</title></g><g class="guides"><path class="major guide line" d="M0.000000 6.951923 h686.000000" /><text class="major" x="-5" y="12.201923076923038">20.0</text><title>20.0</title></g></g><g class="axis x always_show"><g class="guides"><path class="major line" d="M13.192308 0.000000 v361.500000" /><text class="major" transform="rotate(90 13.192308 379.000000)" x="13.192307692307692" y="379.0">0.0</text></g><g class="guides"><path class="major guide line" d="M79.153846 0.000000 v361.500000" /><text class="major" transform="rotate(90 79.153846 379.000000)" x="79.15384615384616" y="379.0">30.0</text></g><g class="guides"><path class="major guide line" d="M145.115385 0.000000 v361.500000" /><text class="major" transform="rotate(90 145.115385 379.000000)" x="145.11538461538458" y="379.0">60.0</text></g><g class="guides"><path class="major guide line" d="M211.076923 0.000000 v361.500000" /><text class="major" transform="rotate(90 211.076923 379.000000)" x="211.07692307692307" y="379.0">90.0</text></g><g class="guides"><path class="major guide line" d="M277.038462 0.000000 v361.500000" /><text class="major" transform="rotate(90 277.038462 379.000000)" x="277.03846153846155" y="379.0">120.0</text></g><g class="guides"><path class="major guide line" d="M343.000000 0.000000 v361.500000" /><text class="major" transform="rotate(90 343.000000 379.000000)" x="343.0" y="379.0">150.0</text></g><g class="guides"><path class="major guide line" d="M408.961538 0.000000 v361.500000" /><text class="major" transform="rotate(90 408.961538 379.000000)" x="408.96153846153845" y="379.0">180.0</text></g><g class="guides"><path class="major guide line" d="M474.923077 0.000000 v361.500000" /><text class="major" transform="rotate(90 474.923077 379.000000)" x="474.92307692307685" y="379.0">210.0</text></g><g class="guides"><path class="major guide line" d="M540.884615 0.000000 v361.500000" /><text class="major" transform="rotate(90 540.884615 379.000000)" x="540.8846153846155" y="379.0">240.0</text></g><g class="guides"><path class="major guide line" d="M606.846154 0.000000 v361.500000" /><text class="major" transform="rotate(90 606.846154 379.000000)" x="606.8461538461538" y="379.0">270.0</text></g><g class="guides"><path class="major guide line" d="M672.807692 0.000000 v361.500000" /><text class="major" transform="rotate(90 672.807692 379.000000)" x="672.8076923076923" y="379.0">300.0</text></g></g><g class="series serie-0 color-0"><path class="line reactive nofill" d="M13.192308 354.548077 L15.391026 354.548077 17.589744 354.548077 19.788462 354.548077 21.987179 354.548077 24.185897 354.548077 26.384615 354.548077 28.583333 354.548077 30.782051 354.548077 32.980769 354.548077 35.179487 354.548077 37.378205 354.548077 39.576923 354.548077 41.775641 354.548077 43.974359 354.548077 46.173077 354.548077 48.371795 354.548077 50.570513 354.548077 52.769231 354.548077 54.967949 354.548077 57.166667 354.548077 59.365385 354.548077 61.564103 354.548077 63.762821 354.548077 65.961538 354.548077 68.160256 354.548077 70.358974 354.548077 72.557692 354.548077 74.756410 354.548077 76.955128 354.548077 79.153846 354.548077 81.352564 354.548077 83.551282 354.548077 85.750000 347.596154 87.948718 347.596154 90.147436 344.120192 92.346154 342.382212 94.544872 342.382212 96.743590 340.644231 98.942308 338.906250 101.141026 335.430288 103.339744 333.692308 105.538462 330.216346 107.737179 325.002404 109.935897 330.216346 112.134615 321.526442 114.333333 325.002404 116.532051 318.050481 118.730769 312.836538 120.929487 300.670673 123.128205 293.718750 125.326923 286.766827 127.525641 274.600962 129.724359 265.911058 131.923077 265.911058 134.121795 245.055288 136.320513 238.103365 138.519231 210.295673 140.717949 210.295673 142.916667 191.177885 145.115385 182.487981 147.314103 163.370192 149.512821 163.370192 151.711538 152.942308 153.910256 151.204327 156.108974 128.610577 158.307692 142.514423 160.506410 130.348558 162.705128 135.562500 164.903846 118.182692 167.102564 104.278846 169.301282 102.540865 171.500000 114.706731 173.698718 107.754808 175.897436 111.230769 178.096154 97.326923 180.294872 109.492788 182.493590 93.850962 184.692308 104.278846 186.891026 104.278846 189.089744 114.706731 191.288462 137.300481 193.487179 152.942308 195.685897 145.990385 197.884615 154.680288 200.083333 151.204327 202.282051 161.632212 204.480769 139.038462 206.679487 145.990385 208.878205 139.038462 211.076923 130.348558 213.275641 128.610577 215.474359 119.920673 217.673077 90.375000 219.871795 92.112981 222.070513 53.877404 224.269231 64.305288 226.467949 29.545673 228.666667 53.877404 230.865385 45.187500 233.064103 43.449519 235.262821 48.663462 237.461538 52.139423 239.660256 45.187500 241.858974 74.733173 244.057692 59.091346 246.256410 95.588942 248.455128 86.899038 250.653846 125.134615 252.852564 111.230769 255.051282 114.706731 257.250000 126.872596 259.448718 130.348558 261.647436 118.182692 263.846154 144.252404 266.044872 121.658654 268.243590 151.204327 270.442308 126.872596 272.641026 139.038462 274.839744 126.872596 277.038462 140.776442 279.237179 149.466346 281.435897 156.418269 283.634615 163.370192 285.833333 184.225962 288.032051 158.156250 290.230769 182.487981 292.429487 177.274038 294.628205 206.819712 296.826923 212.033654 299.025641 231.151442 301.224359 241.579327 303.423077 250.269231 305.621795 250.269231 307.820513 262.435096 310.019231 260.697115 312.217949 288.504808 314.416667 293.718750 316.615385 302.408654 318.814103 307.622596 321.012821 311.098558 323.211538 318.050481 325.410256 319.788462 327.608974 319.788462 329.807692 325.002404 332.006410 328.478365 334.205128 337.168269 336.403846 337.168269 338.602564 335.430288 340.801282 337.168269 343.000000 337.168269 345.198718 337.168269 347.397436 335.430288 349.596154 333.692308 351.794872 338.906250 353.993590 338.906250 356.192308 338.906250 358.391026 338.906250 360.589744 340.644231 362.788462 344.120192 364.987179 344.120192 367.185897 344.120192 369.384615 345.858173 371.583333 344.120192 373.782051 347.596154 375.980769 347.596154 378.179487 349.334135 380.378205 349.334135 382.576923 349.334135 384.775641 349.334135 386.974359 349.334135 389.173077 351.072115 391.371795 351.072115 393.570513 351.072115 395.769231 354.548077 397.967949 354.548077 400.166667 354.548077 402.365385 354.548077 404.564103 354.548077 406.762821 354.548077 408.961538 354.548077 411.160256 354.548077 413.358974 354.548077 415.557692 354.548077 417.756410 354.548077 419.955128 354.548077 422.153846 354.548077 424.352564 354.548077 426.551282 354.548077 428.750000 354.548077 430.948718 354.548077 433.147436 354.548077 435.346154 354.548077 437.544872 354.548077 439.743590 354.548077 441.942308 354.548077 444.141026 354.548077 446.339744 354.548077 448.538462 354.548077 450.737179 354.548077 452.935897 354.548077 455.134615 354.548077 457.333333 354.548077 459.532051 354.548077 461.730769 354.548077 463.929487 354.548077 466.128205 354.548077 468.326923 354.548077 470.525641 354.548077 472.724359 354.548077 474.923077 354.548077 477.121795 354.548077 479.320513 354.548077 481.519231 354.548077 483.717949 354.548077 485.916667 354.548077 488.115385 354.548077 490.314103 354.548077 492.512821 354.548077 494.711538 354.548077 496.910256 354.548077 499.108974 354.548077 501.307692 354.548077 503.506410 354.548077 505.705128 354.548077 507.903846 354.548077 510.102564 354.548077 512.301282 354.548077 514.500000 354.548077 516.698718 354.548077 518.897436 354.548077 521.096154 354.548077 523.294872 354.548077 525.493590 354.548077 527.692308 354.548077 529.891026 354.548077 532.089744 354.548077 534.288462 354.548077 536.487179 354.548077 538.685897 354.548077 540.884615 354.548077 543.083333 354.548077 545.282051 354.548077 547.480769 354.548077 549.679487 354.548077 551.878205 354.548077 554.076923 354.548077 556.275641 354.548077 558.474359 354.548077 560.673077 354.548077 562.871795 354.548077 565.070513 354.548077 567.269231 354.548077 569.467949 354.548077 571.666667 354.548077 573.865385 354.548077 576.064103 354.548077 578.262821 354.548077 580.461538 354.548077 582.660256 354.548077 584.858974 354.548077 587.057692 354.548077 589.256410 354.548077 591.455128 354.548077 593.653846 354.548077 595.852564 354.548077 598.051282 354.548077 600.250000 354.548077 602.448718 354.548077 604.647436 354.548077 606.846154 354.548077 609.044872 354.548077 611.243590 354.548077 613.442308 354.548077 615.641026 354.548077 617.839744 354.548077 620.038462 354.548077 622.237179 354.548077 624.435897 354.548077 626.634615 354.548077 628.833333 354.548077 631.032051 354.548077 633.230769 354.548077 635.429487 354.548077 637.628205 354.548077 639.826923 354.548077 642.025641 354.548077 644.224359 354.548077 646.423077 354.548077 648.621795 354.548077 650.820513 354.548077 653.019231 354.548077 655.217949 354.548077 657.416667 354.548077 659.615385 354.548077 661.814103 354.548077 664.012821 354.548077 666.211538 354.548077 668.410256 354.548077 670.608974 354.548077 672.807692 354.548077" /></g><g class="series serie-1 color-1"><path class="line reactive nofill" d="M13.192308 354.548077 L15.391026 354.548077 17.589744 354.548077 19.788462 354.548077 21.987179 354.548077 24.185897 354.548077 26.384615 354.548077 28.583333 354.548077 30.782051 354.548077 32.980769 354.548077 35.179487 354.548077 37.378205 354.548077 39.576923 354.548077 41.775641 354.548077 43.974359 354.548077 46.173077 354.548077 48.371795 354.548077 50.570513 354.548077 52.769231 354.548077 54.967949 354.548077 57.166667 354.548077 59.365385 354.548077 61.564103 354.548077 63.762821 354.548077 65.961538 354.548077 68.160256 354.548077 70.358974 354.548077 72.557692 354.548077 74.756410 354.548077 76.955128 354.548077 79.153846 354.548077 81.352564 354.548077 83.551282 354.548077 85.750000 347.589195 87.948718 347.589195 90.147436 344.109754 92.346154 342.370033 94.544872 342.370033 96.743590 340.630313 98.942308 340.630313 101.141026 338.890593 103.339744 338.890593 105.538462 337.150872 107.737179 333.671431 109.935897 338.890593 112.134615 330.191990 114.333333 333.671431 116.532051 326.712549 118.730769 321.493388 120.929487 309.315344 123.128205 300.616742 125.326923 291.918139 127.525641 278.000375 129.724359 267.562052 131.923077 267.562052 134.121795 246.685407 136.320513 241.466245 138.519231 213.630717 140.717949 213.630717 142.916667 194.493792 145.115385 185.795189 147.314103 166.658264 149.512821 166.658264 151.711538 157.959662 153.910256 156.219941 156.108974 131.863854 158.307692 145.781618 160.506410 133.603575 162.705128 138.822736 164.903846 119.685811 167.102564 107.507767 169.301282 107.507767 171.500000 121.425531 173.698718 114.466649 175.897436 116.206370 178.096154 104.028326 180.294872 116.206370 182.493590 100.548885 184.692308 107.507767 186.891026 107.507767 189.089744 119.685811 191.288462 140.562457 193.487179 152.740500 195.685897 144.041898 197.884615 152.740500 200.083333 149.261059 202.282051 159.699382 204.480769 135.343295 206.679487 142.302177 208.878205 135.343295 211.076923 123.165252 213.275641 121.425531 215.474359 110.987208 217.673077 83.151681 219.871795 84.891401 222.070513 51.836712 224.269231 60.535314 226.467949 24.001184 228.666667 50.096991 230.865385 41.398389 233.064103 41.398389 235.262821 48.357271 237.461538 50.096991 239.660256 44.877830 241.858974 74.453078 244.057692 58.795594 246.256410 90.110562 248.455128 83.151681 250.653846 121.425531 252.852564 105.768047 255.051282 109.247488 257.250000 121.425531 259.448718 126.644693 261.647436 116.206370 263.846154 142.302177 266.044872 119.685811 268.243590 149.261059 270.442308 124.904972 272.641026 138.822736 274.839744 126.644693 277.038462 140.562457 279.237179 149.261059 281.435897 156.219941 283.634615 161.439103 285.833333 182.315748 288.032051 157.959662 290.230769 182.315748 292.429487 177.096587 294.628205 206.671835 296.826923 210.151276 299.025641 229.288202 301.224359 241.466245 303.423077 248.425127 305.621795 246.685407 307.820513 260.603170 310.019231 260.603170 312.217949 286.698978 314.416667 291.918139 316.615385 300.616742 318.814103 305.835903 321.012821 309.315344 323.211538 316.274226 325.410256 318.013947 327.608974 318.013947 329.807692 326.712549 332.006410 328.452270 334.205128 335.411152 336.403846 335.411152 338.602564 333.671431 340.801282 335.411152 343.000000 335.411152 345.198718 335.411152 347.397436 331.931711 349.596154 330.191990 351.794872 337.150872 353.993590 335.411152 356.192308 335.411152 358.391026 335.411152 360.589744 337.150872 362.788462 340.630313 364.987179 340.630313 367.185897 340.630313 369.384615 342.370033 371.583333 342.370033 373.782051 345.849474 375.980769 345.849474 378.179487 347.589195 380.378205 349.328915 382.576923 349.328915 384.775641 349.328915 386.974359 349.328915 389.173077 351.068636 391.371795 351.068636 393.570513 351.068636 395.769231 354.548077 397.967949 354.548077 400.166667 354.548077 402.365385 354.548077 404.564103 354.548077 406.762821 354.548077 408.961538 354.548077 411.160256 354.548077 413.358974 354.548077 415.557692 354.548077 417.756410 354.548077 419.955128 354.548077 422.153846 354.548077 424.352564 354.548077 426.551282 354.548077 428.750000 354.548077 430.948718 354.548077 433.147436 354.548077 435.346154 354.548077 437.544872 354.548077 439.743590 354.548077 441.942308 354.548077 444.141026 354.548077 446.339744 354.548077 448.538462 354.548077 450.737179 354.548077 452.935897 354.548077 455.134615 354.548077 457.333333 354.548077 459.532051 354.548077 461.730769 354.548077 463.929487 354.548077 466.128205 354.548077 468.326923 354.548077 470.525641 354.548077 472.724359 354.548077 474.923077 354.548077 477.121795 354.548077 479.320513 354.548077 481.519231 354.548077 483.717949 354.548077 485.916667 354.548077 488.115385 354.548077 490.314103 354.548077 492.512821 354.548077 494.711538 354.548077 496.910256 354.548077 499.108974 354.548077 501.307692 354.548077 503.506410 354.548077 505.705128 354.548077 507.903846 354.548077 510.102564 354.548077 512.301282 354.548077 514.500000 354.548077 516.698718 354.548077 518.897436 354.548077 521.096154 354.548077 523.294872 354.548077 525.493590 354.548077 527.692308 354.548077 529.891026 354.548077 532.089744 354.548077 534.288462 354.548077 536.487179 354.548077 538.685897 354.548077 540.884615 354.548077 543.083333 354.548077 545.282051 354.548077 547.480769 354.548077 549.679487 354.548077 551.878205 354.548077 554.076923 354.548077 556.275641 354.548077 558.474359 354.548077 560.673077 354.548077 562.871795 354.548077 565.070513 354.548077 567.269231 354.548077 569.467949 354.548077 571.666667 354.548077 573.865385 354.548077 576.064103 354.548077 578.262821 354.548077 580.461538 354.548077 582.660256 354.548077 584.858974 354.548077 587.057692 354.548077 589.256410 354.548077 591.455128 354.548077 593.653846 354.548077 595.852564 354.548077 598.051282 354.548077 600.250000 354.548077 602.448718 354.548077 604.647436 354.548077 606.846154 354.548077 609.044872 354.548077 611.243590 354.548077 613.442308 354.548077 615.641026 354.548077 617.839744 354.548077 620.038462 354.548077 622.237179 354.548077 624.435897 354.548077 626.634615 354.548077 628.833333 354.548077 631.032051 354.548077 633.230769 354.548077 635.429487 354.548077 637.628205 354.548077 639.826923 354.548077 642.025641 354.548077 644.224359 354.548077 646.423077 354.548077 648.621795 354.548077 650.820513 354.548077 653.019231 354.548077 655.217949 354.548077 657.416667 354.548077 659.615385 354.548077 661.814103 354.548077 664.012821 354.548077 666.211538 354.548077 668.410256 354.548077 670.608974 354.548077 672.807692 354.548077" /></g><g class="series serie-2 color-2"><path class="line reactive nofill" d="M13.192308 354.548077 L15.391026 354.548077 17.589744 354.548077 19.788462 354.548077 21.987179 354.548077 24.185897 354.548077 26.384615 354.548077 28.583333 354.548077 30.782051 354.548077 32.980769 354.548077 35.179487 354.548077 37.378205 354.548077 39.576923 354.548077 41.775641 354.548077 43.974359 354.548077 46.173077 354.548077 48.371795 354.548077 50.570513 354.548077 52.769231 354.548077 54.967949 354.548077 57.166667 354.548077 59.365385 354.548077 61.564103 354.548077 63.762821 354.548077 65.961538 354.548077 68.160256 354.548077 70.358974 354.548077 72.557692 354.548077 74.756410 354.548077 76.955128 354.548077 79.153846 354.548077 81.352564 354.548077 83.551282 354.548077 85.750000 352.810096 87.948718 351.072115 90.147436 351.072115 92.346154 351.072115 94.544872 349.334135 96.743590 349.334135 98.942308 349.334135 101.141026 349.334135 103.339744 349.334135 105.538462 349.334135 107.737179 351.072115 109.935897 352.810096 112.134615 349.334135 114.333333 345.858173 116.532051 344.120192 118.730769 342.382212 120.929487 335.430288 123.128205 331.954327 125.326923 325.002404 127.525641 319.788462 129.724359 316.312500 131.923077 312.836538 134.121795 312.836538 136.320513 304.146635 138.519231 302.408654 140.717949 290.242788 142.916667 290.242788 145.115385 291.980769 147.314103 293.718750 149.512821 288.504808 151.711538 281.552885 153.910256 272.862981 156.108974 271.125000 158.307692 278.076923 160.506410 276.338942 162.705128 272.862981 164.903846 271.125000 167.102564 262.435096 169.301282 255.483173 171.500000 258.959135 173.698718 267.649038 175.897436 265.911058 178.096154 264.173077 180.294872 252.007212 182.493590 253.745192 184.692308 253.745192 186.891026 252.007212 189.089744 239.841346 191.288462 246.793269 193.487179 248.531250 195.685897 241.579327 197.884615 250.269231 200.083333 238.103365 202.282051 241.579327 204.480769 229.413462 206.679487 227.675481 208.878205 194.653846 211.076923 196.391827 213.275641 185.963942 215.474359 166.846154 217.673077 149.466346 219.871795 132.086538 222.070513 130.348558 224.269231 114.706731 226.467949 106.016827 228.666667 107.754808 230.865385 130.348558 233.064103 125.134615 235.262821 111.230769 237.461538 118.182692 239.660256 119.920673 241.858974 119.920673 244.057692 112.968750 246.256410 137.300481 248.455128 144.252404 250.653846 137.300481 252.852564 125.134615 255.051282 128.610577 257.250000 158.156250 259.448718 154.680288 261.647436 137.300481 263.846154 139.038462 266.044872 166.846154 268.243590 142.514423 270.442308 126.872596 272.641026 151.204327 274.839744 145.990385 277.038462 135.562500 279.237179 128.610577 281.435897 128.610577 283.634615 139.038462 285.833333 158.156250 288.032051 128.610577 290.230769 123.396635 292.429487 158.156250 294.628205 135.562500 296.826923 172.060096 299.025641 192.915865 301.224359 185.963942 303.423077 205.081731 305.621795 210.295673 307.820513 210.295673 310.019231 229.413462 312.217949 260.697115 314.416667 246.793269 316.615385 269.387019 318.814103 265.911058 321.012821 271.125000 323.211538 276.338942 325.410256 274.600962 327.608974 276.338942 329.807692 278.076923 332.006410 264.173077 334.205128 265.911058 336.403846 260.697115 338.602564 260.697115 340.801282 262.435096 343.000000 255.483173 345.198718 257.221154 347.397436 246.793269 349.596154 267.649038 351.794872 267.649038 353.993590 283.290865 356.192308 283.290865 358.391026 290.242788 360.589744 288.504808 362.788462 291.980769 364.987179 293.718750 367.185897 300.670673 369.384615 309.360577 371.583333 312.836538 373.782051 309.360577 375.980769 309.360577 378.179487 309.360577 380.378205 319.788462 382.576923 314.574519 384.775641 309.360577 386.974359 321.526442 389.173077 305.884615 391.371795 305.884615 393.570513 305.884615 395.769231 304.146635 397.967949 307.622596 400.166667 309.360577 402.365385 304.146635 404.564103 309.360577 406.762821 314.574519 408.961538 309.360577 411.160256 325.002404 413.358974 330.216346 415.557692 325.002404 417.756410 330.216346 419.955128 333.692308 422.153846 333.692308 424.352564 337.168269 426.551282 337.168269 428.750000 335.430288 430.948718 340.644231 433.147436 335.430288 435.346154 333.692308 437.544872 338.906250 439.743590 321.526442 441.942308 323.264423 444.141026 318.050481 446.339744 321.526442 448.538462 316.312500 450.737179 318.050481 452.935897 314.574519 455.134615 319.788462 457.333333 319.788462 459.532051 319.788462 461.730769 337.168269 463.929487 335.430288 466.128205 337.168269 468.326923 337.168269 470.525641 342.382212 472.724359 338.906250 474.923077 342.382212 477.121795 337.168269 479.320513 338.906250 481.519231 337.168269 483.717949 337.168269 485.916667 330.216346 488.115385 333.692308 490.314103 333.692308 492.512821 331.954327 494.711538 335.430288 496.910256 335.430288 499.108974 340.644231 501.307692 340.644231 503.506410 340.644231 505.705128 340.644231 507.903846 345.858173 510.102564 345.858173 512.301282 345.858173 514.500000 347.596154 516.698718 347.596154 518.897436 342.382212 521.096154 342.382212 523.294872 342.382212 525.493590 340.644231 527.692308 340.644231 529.891026 344.120192 532.089744 340.644231 534.288462 340.644231 536.487179 342.382212 538.685897 338.906250 540.884615 344.120192 543.083333 344.120192 545.282051 344.120192 547.480769 347.596154 549.679487 347.596154 551.878205 344.120192 554.076923 347.596154 556.275641 347.596154 558.474359 347.596154 560.673077 351.072115 562.871795 351.072115 565.070513 351.072115 567.269231 351.072115 569.467949 351.072115 571.666667 349.334135 573.865385 352.810096 576.064103 352.810096 578.262821 349.334135 580.461538 349.334135 582.660256 349.334135 584.858974 349.334135 587.057692 345.858173 589.256410 345.858173 591.455128 345.858173 593.653846 347.596154 595.852564 347.596154 598.051282 347.596154 600.250000 347.596154 602.448718 347.596154 604.647436 347.596154 606.846154 347.596154 609.044872 351.072115 611.243590 351.072115 613.442308 351.072115 615.641026 351.072115 617.839744 351.072115 620.038462 351.072115 622.237179 354.548077 624.435897 354.548077 626.634615 354.548077 628.833333 354.548077 631.032051 354.548077 633.230769 354.548077 635.429487 354.548077 637.628205 354.548077 639.826923 354.548077 642.025641 354.548077 644.224359 354.548077 646.423077 354.548077 648.621795 354.548077 650.820513 354.548077 653.019231 354.548077 655.217949 354.548077 657.416667 354.548077 659.615385 354.548077 661.814103 354.548077 664.012821 354.548077 666.211538 354.548077 668.410256 354.548077 670.608974 354.548077 672.807692 354.548077" /></g><g class="series serie-3 color-3"><path class="line reactive nofill" d="M13.192308 354.548077 L15.391026 354.548077 17.589744 354.548077 19.788462 354.548077 21.987179 354.548077 24.185897 354.548077 26.384615 354.548077 28.583333 354.548077 30.782051 354.548077 32.980769 354.548077 35.179487 354.548077 37.378205 354.548077 39.576923 354.548077 41.775641 354.548077 43.974359 354.548077 46.173077 354.548077 48.371795 354.548077 50.570513 354.548077 52.769231 354.548077 54.967949 354.548077 57.166667 354.548077 59.365385 354.548077 61.564103 354.548077 63.762821 354.548077 65.961538 354.548077 68.160256 354.548077 70.358974 354.548077 72.557692 354.548077 74.756410 354.548077 76.955128 354.548077 79.153846 354.548077 81.352564 354.548077 83.551282 354.548077 85.750000 352.810096 87.948718 351.072115 90.147436 351.072115 92.346154 351.072115 94.544872 351.072115 96.743590 351.072115 98.942308 351.072115 101.141026 349.334135 103.339744 349.334135 105.538462 349.334135 107.737179 351.072115 109.935897 352.810096 112.134615 351.072115 114.333333 345.858173 116.532051 340.644231 118.730769 338.906250 120.929487 331.954327 123.128205 331.954327 125.326923 325.002404 127.525641 319.788462 129.724359 316.312500 131.923077 311.098558 134.121795 309.360577 136.320513 302.408654 138.519231 302.408654 140.717949 290.242788 142.916667 291.980769 145.115385 291.980769 147.314103 291.980769 149.512821 286.766827 151.711538 281.552885 153.910256 274.600962 156.108974 272.862981 158.307692 279.814904 160.506410 279.814904 162.705128 274.600962 164.903846 271.125000 167.102564 262.435096 169.301282 253.745192 171.500000 258.959135 173.698718 264.173077 175.897436 267.649038 178.096154 257.221154 180.294872 252.007212 182.493590 248.531250 184.692308 252.007212 186.891026 245.055288 189.089744 239.841346 191.288462 248.531250 193.487179 250.269231 195.685897 245.055288 197.884615 245.055288 200.083333 246.793269 202.282051 241.579327 204.480769 234.627404 206.679487 225.937500 208.878205 215.509615 211.076923 206.819712 213.275641 187.701923 215.474359 168.584135 217.673077 142.514423 219.871795 132.086538 222.070513 123.396635 224.269231 109.492788 226.467949 100.802885 228.666667 109.492788 230.865385 106.016827 233.064103 107.754808 235.262821 114.706731 237.461538 118.182692 239.660256 130.348558 241.858974 128.610577 244.057692 125.134615 246.256410 135.562500 248.455128 144.252404 250.653846 137.300481 252.852564 139.038462 255.051282 147.728365 257.250000 151.204327 259.448718 151.204327 261.647436 132.086538 263.846154 140.776442 266.044872 147.728365 268.243590 145.990385 270.442308 137.300481 272.641026 144.252404 274.839744 142.514423 277.038462 128.610577 279.237179 128.610577 281.435897 126.872596 283.634615 145.990385 285.833333 145.990385 288.032051 144.252404 290.230769 139.038462 292.429487 147.728365 294.628205 147.728365 296.826923 163.370192 299.025641 187.701923 301.224359 196.391827 303.423077 205.081731 305.621795 213.771635 307.820513 213.771635 310.019231 227.675481 312.217949 245.055288 314.416667 250.269231 316.615385 262.435096 318.814103 274.600962 321.012821 276.338942 323.211538 271.125000 325.410256 272.862981 327.608974 276.338942 329.807692 278.076923 332.006410 271.125000 334.205128 272.862981 336.403846 264.173077 338.602564 264.173077 340.801282 255.483173 343.000000 252.007212 345.198718 257.221154 347.397436 257.221154 349.596154 257.221154 351.794872 265.911058 353.993590 276.338942 356.192308 276.338942 358.391026 293.718750 360.589744 286.766827 362.788462 295.456731 364.987179 291.980769 367.185897 298.932692 369.384615 305.884615 371.583333 312.836538 373.782051 312.836538 375.980769 307.622596 378.179487 312.836538 380.378205 309.360577 382.576923 314.574519 384.775641 312.836538 386.974359 316.312500 389.173077 305.884615 391.371795 304.146635 393.570513 305.884615 395.769231 302.408654 397.967949 307.622596 400.166667 305.884615 402.365385 309.360577 404.564103 311.098558 406.762821 312.836538 408.961538 318.050481 411.160256 325.002404 413.358974 330.216346 415.557692 330.216346 417.756410 331.954327 419.955128 335.430288 422.153846 337.168269 424.352564 337.168269 426.551282 337.168269 428.750000 337.168269 430.948718 337.168269 433.147436 333.692308 435.346154 330.216346 437.544872 323.264423 439.743590 323.264423 441.942308 321.526442 444.141026 318.050481 446.339744 319.788462 448.538462 321.526442 450.737179 318.050481 452.935897 314.574519 455.134615 321.526442 457.333333 323.264423 459.532051 331.954327 461.730769 333.692308 463.929487 333.692308 466.128205 337.168269 468.326923 337.168269 470.525641 338.906250 472.724359 338.906250 474.923077 338.906250 477.121795 338.906250 479.320513 338.906250 481.519231 337.168269 483.717949 333.692308 485.916667 331.954327 488.115385 333.692308 490.314103 331.954327 492.512821 330.216346 494.711538 335.430288 496.910256 338.906250 499.108974 338.906250 501.307692 340.644231 503.506410 340.644231 505.705128 344.120192 507.903846 345.858173 510.102564 345.858173 512.301282 347.596154 514.500000 347.596154 516.698718 344.120192 518.897436 344.120192 521.096154 342.382212 523.294872 338.906250 525.493590 340.644231 527.692308 342.382212 529.891026 344.120192 532.089744 344.120192 534.288462 338.906250 536.487179 340.644231 538.685897 342.382212 540.884615 342.382212 543.083333 344.120192 545.282051 347.596154 547.480769 347.596154 549.679487 347.596154 551.878205 344.120192 554.076923 344.120192 556.275641 349.334135 558.474359 349.334135 560.673077 351.072115 562.871795 351.072115 565.070513 351.072115 567.269231 351.072115 569.467949 351.072115 571.666667 349.334135 573.865385 352.810096 576.064103 352.810096 578.262821 352.810096 580.461538 349.334135 582.660256 347.596154 584.858974 347.596154 587.057692 345.858173 589.256410 345.858173 591.455128 345.858173 593.653846 347.596154 595.852564 347.596154 598.051282 345.858173 600.250000 345.858173 602.448718 347.596154 604.647436 349.334135 606.846154 349.334135 609.044872 351.072115 611.243590 351.072115 613.442308 351.072115 615.641026 351.072115 617.839744 351.072115 620.038462 352.810096 622.237179 352.810096 624.435897 354.548077 626.634615 354.548077 628.833333 354.548077 631.032051 354.548077 633.230769 354.548077 635.429487 354.548077 637.628205 354.548077 639.826923 354.548077 642.025641 354.548077 644.224359 354.548077 646.423077 354.548077 648.621795 354.548077 650.820513 354.548077 653.019231 354.548077 655.217949 354.548077 657.416667 354.548077 659.615385 354.548077 661.814103 354.548077 664.012821 354.548077 666.211538 354.548077 668.410256 354.548077 670.608974 354.548077 672.807692 354.548077" /></g></g><g class="titles"><text class="title plot_title" x="400.0" y="28">Percentage of Annotations for T ±5.0 BPM</text><text class="title" x="437.0" y="492.5">T (BPM)</text><text class="title" transform="rotate(-90 0.000000 228.750000)" x="0" y="256.75">Values (%)</text></g><g class="plot overlay" transform="translate(94, 48)"><g class="series serie-0 color-0"><g class="dots"><circle class="dot reactive tooltip-trigger" cx="13.192307692307692" cy="354.5480769230769" r="2.5" /><desc class="value">0.0</desc><desc class="x top">13.192307692307692</desc><desc class="y top">354.5480769230769</desc><desc class="x_label">0.0</desc></g><g class="dots"><circle class="dot reactive tooltip-trigger" cx="79.15384615384616" cy="354.5480769230769" r="2.5" /><desc class="value">0.0</desc><desc class="x top">79.15384615384616</desc><desc class="y top">354.5480769230769</desc><desc class="x_label">30.0</desc></g><g class="dots"><circle class="dot reactive tooltip-trigger" cx="145.11538461538458" cy="182.48798076923075" r="2.5" /><desc class="value">9.9</desc><desc class="x top">145.11538461538458</desc><desc class="y top">182.48798076923075</desc><desc class="x_label">60.0</desc></g><g class="dots"><circle class="dot reactive tooltip-trigger" cx="211.07692307692307" cy="130.34855769230768" r="2.5" /><desc class="value">12.9</desc><desc class="x ">211.07692307692307</desc><desc class="y ">130.34855769230768</desc><desc class="x_label">90.0</desc></g><g class="dots"><circle class="dot reactive tooltip-trigger" cx="277.03846153846155" cy="140.77644230769226" r="2.5" /><desc class="value">12.3</desc><desc class="x ">277.03846153846155</desc><desc class="y ">140.77644230769226</desc><desc class="x_label">120.0</desc></g><g class="dots"><circle class="dot reactive tooltip-trigger" cx="343.0" cy="337.1682692307692" r="2.5" /><desc class="value">1.0</desc><desc class="x top">343.0</desc><desc class="y top">337.1682692307692</desc><desc class="x_label">150.0</desc></g><g class="dots"><circle class="dot reactive tooltip-trigger" cx="408.96153846153845" cy="354.5480769230769" r="2.5" /><desc class="value">0.0</desc><desc class="x left top">408.96153846153845</desc><desc class="y left top">354.5480769230769</desc><desc class="x_label">180.0</desc></g><g class="dots"><circle class="dot reactive tooltip-trigger" cx="474.92307692307685" cy="354.5480769230769" r="2.5" /><desc class="value">0.0</desc><desc class="x left top">474.92307692307685</desc><desc class="y left top">354.5480769230769</desc><desc class="x_label">210.0</desc></g><g class="dots"><circle class="dot reactive tooltip-trigger" cx="540.8846153846155" cy="354.5480769230769" r="2.5" /><desc class="value">0.0</desc><desc class="x left top">540.8846153846155</desc><desc class="y left top">354.5480769230769</desc><desc class="x_label">240.0</desc></g><g class="dots"><circle class="dot reactive tooltip-trigger" cx="606.8461538461538" cy="354.5480769230769" r="2.5" /><desc class="value">0.0</desc><desc class="x left top">606.8461538461538</desc><desc class="y left top">354.5480769230769</desc><desc class="x_label">270.0</desc></g><g class="dots"><circle class="dot reactive tooltip-trigger" cx="672.8076923076923" cy="354.5480769230769" r="2.5" /><desc class="value">0.0</desc><desc class="x left top">672.8076923076923</desc><desc class="y left top">354.5480769230769</desc><desc class="x_label">300.0</desc></g></g><g class="series serie-1 color-1"><g class="dots"><circle class="dot reactive tooltip-trigger" cx="13.192307692307692" cy="354.5480769230769" r="2.5" /><desc class="value">0.0</desc><desc class="x top">13.192307692307692</desc><desc class="y top">354.5480769230769</desc><desc class="x_label">0.0</desc></g><g class="dots"><circle class="dot reactive tooltip-trigger" cx="79.15384615384616" cy="354.5480769230769" r="2.5" /><desc class="value">0.0</desc><desc class="x top">79.15384615384616</desc><desc class="y top">354.5480769230769</desc><desc class="x_label">30.0</desc></g><g class="dots"><circle class="dot reactive tooltip-trigger" cx="145.11538461538458" cy="185.7951894201894" r="2.5" /><desc class="value">9.7</desc><desc class="x top">145.11538461538458</desc><desc class="y top">185.7951894201894</desc><desc class="x_label">60.0</desc></g><g class="dots"><circle class="dot reactive tooltip-trigger" cx="211.07692307692307" cy="123.1652517902518" r="2.5" /><desc class="value">13.3</desc><desc class="x ">211.07692307692307</desc><desc class="y ">123.1652517902518</desc><desc class="x_label">90.0</desc></g><g class="dots"><circle class="dot reactive tooltip-trigger" cx="277.03846153846155" cy="140.56245668745666" r="2.5" /><desc class="value">12.3</desc><desc class="x ">277.03846153846155</desc><desc class="y ">140.56245668745666</desc><desc class="x_label">120.0</desc></g><g class="dots"><circle class="dot reactive tooltip-trigger" cx="343.0" cy="335.4111515361515" r="2.5" /><desc class="value">1.1</desc><desc class="x top">343.0</desc><desc class="y top">335.4111515361515</desc><desc class="x_label">150.0</desc></g><g class="dots"><circle class="dot reactive tooltip-trigger" cx="408.96153846153845" cy="354.5480769230769" r="2.5" /><desc class="value">0.0</desc><desc class="x left top">408.96153846153845</desc><desc class="y left top">354.5480769230769</desc><desc class="x_label">180.0</desc></g><g class="dots"><circle class="dot reactive tooltip-trigger" cx="474.92307692307685" cy="354.5480769230769" r="2.5" /><desc class="value">0.0</desc><desc class="x left top">474.92307692307685</desc><desc class="y left top">354.5480769230769</desc><desc class="x_label">210.0</desc></g><g class="dots"><circle class="dot reactive tooltip-trigger" cx="540.8846153846155" cy="354.5480769230769" r="2.5" /><desc class="value">0.0</desc><desc class="x left top">540.8846153846155</desc><desc class="y left top">354.5480769230769</desc><desc class="x_label">240.0</desc></g><g class="dots"><circle class="dot reactive tooltip-trigger" cx="606.8461538461538" cy="354.5480769230769" r="2.5" /><desc class="value">0.0</desc><desc class="x left top">606.8461538461538</desc><desc class="y left top">354.5480769230769</desc><desc class="x_label">270.0</desc></g><g class="dots"><circle class="dot reactive tooltip-trigger" cx="672.8076923076923" cy="354.5480769230769" r="2.5" /><desc class="value">0.0</desc><desc class="x left top">672.8076923076923</desc><desc class="y left top">354.5480769230769</desc><desc class="x_label">300.0</desc></g></g><g class="series serie-2 color-2"><g class="dots"><circle class="dot reactive tooltip-trigger" cx="13.192307692307692" cy="354.5480769230769" r="2.5" /><desc class="value">0.0</desc><desc class="x top">13.192307692307692</desc><desc class="y top">354.5480769230769</desc><desc class="x_label">0.0</desc></g><g class="dots"><circle class="dot reactive tooltip-trigger" cx="79.15384615384616" cy="354.5480769230769" r="2.5" /><desc class="value">0.0</desc><desc class="x top">79.15384615384616</desc><desc class="y top">354.5480769230769</desc><desc class="x_label">30.0</desc></g><g class="dots"><circle class="dot reactive tooltip-trigger" cx="145.11538461538458" cy="291.9807692307692" r="2.5" /><desc class="value">3.6</desc><desc class="x top">145.11538461538458</desc><desc class="y top">291.9807692307692</desc><desc class="x_label">60.0</desc></g><g class="dots"><circle class="dot reactive tooltip-trigger" cx="211.07692307692307" cy="196.3918269230769" r="2.5" /><desc class="value">9.1</desc><desc class="x top">211.07692307692307</desc><desc class="y top">196.3918269230769</desc><desc class="x_label">90.0</desc></g><g class="dots"><circle class="dot reactive tooltip-trigger" cx="277.03846153846155" cy="135.56249999999997" r="2.5" /><desc class="value">12.6</desc><desc class="x ">277.03846153846155</desc><desc class="y ">135.56249999999997</desc><desc class="x_label">120.0</desc></g><g class="dots"><circle class="dot reactive tooltip-trigger" cx="343.0" cy="255.48317307692304" r="2.5" /><desc class="value">5.7</desc><desc class="x top">343.0</desc><desc class="y top">255.48317307692304</desc><desc class="x_label">150.0</desc></g><g class="dots"><circle class="dot reactive tooltip-trigger" cx="408.96153846153845" cy="309.3605769230769" r="2.5" /><desc class="value">2.6</desc><desc class="x left top">408.96153846153845</desc><desc class="y left top">309.3605769230769</desc><desc class="x_label">180.0</desc></g><g class="dots"><circle class="dot reactive tooltip-trigger" cx="474.92307692307685" cy="342.38221153846155" r="2.5" /><desc class="value">0.7</desc><desc class="x left top">474.92307692307685</desc><desc class="y left top">342.38221153846155</desc><desc class="x_label">210.0</desc></g><g class="dots"><circle class="dot reactive tooltip-trigger" cx="540.8846153846155" cy="344.1201923076923" r="2.5" /><desc class="value">0.6</desc><desc class="x left top">540.8846153846155</desc><desc class="y left top">344.1201923076923</desc><desc class="x_label">240.0</desc></g><g class="dots"><circle class="dot reactive tooltip-trigger" cx="606.8461538461538" cy="347.59615384615387" r="2.5" /><desc class="value">0.4</desc><desc class="x left top">606.8461538461538</desc><desc class="y left top">347.59615384615387</desc><desc class="x_label">270.0</desc></g><g class="dots"><circle class="dot reactive tooltip-trigger" cx="672.8076923076923" cy="354.5480769230769" r="2.5" /><desc class="value">0.0</desc><desc class="x left top">672.8076923076923</desc><desc class="y left top">354.5480769230769</desc><desc class="x_label">300.0</desc></g></g><g class="series serie-3 color-3"><g class="dots"><circle class="dot reactive tooltip-trigger" cx="13.192307692307692" cy="354.5480769230769" r="2.5" /><desc class="value">0.0</desc><desc class="x top">13.192307692307692</desc><desc class="y top">354.5480769230769</desc><desc class="x_label">0.0</desc></g><g class="dots"><circle class="dot reactive tooltip-trigger" cx="79.15384615384616" cy="354.5480769230769" r="2.5" /><desc class="value">0.0</desc><desc class="x top">79.15384615384616</desc><desc class="y top">354.5480769230769</desc><desc class="x_label">30.0</desc></g><g class="dots"><circle class="dot reactive tooltip-trigger" cx="145.11538461538458" cy="291.9807692307692" r="2.5" /><desc class="value">3.6</desc><desc class="x top">145.11538461538458</desc><desc class="y top">291.9807692307692</desc><desc class="x_label">60.0</desc></g><g class="dots"><circle class="dot reactive tooltip-trigger" cx="211.07692307692307" cy="206.81971153846152" r="2.5" /><desc class="value">8.5</desc><desc class="x top">211.07692307692307</desc><desc class="y top">206.81971153846152</desc><desc class="x_label">90.0</desc></g><g class="dots"><circle class="dot reactive tooltip-trigger" cx="277.03846153846155" cy="128.61057692307688" r="2.5" /><desc class="value">13.0</desc><desc class="x ">277.03846153846155</desc><desc class="y ">128.61057692307688</desc><desc class="x_label">120.0</desc></g><g class="dots"><circle class="dot reactive tooltip-trigger" cx="343.0" cy="252.00721153846155" r="2.5" /><desc class="value">5.9</desc><desc class="x top">343.0</desc><desc class="y top">252.00721153846155</desc><desc class="x_label">150.0</desc></g><g class="dots"><circle class="dot reactive tooltip-trigger" cx="408.96153846153845" cy="318.0504807692308" r="2.5" /><desc class="value">2.1</desc><desc class="x left top">408.96153846153845</desc><desc class="y left top">318.0504807692308</desc><desc class="x_label">180.0</desc></g><g class="dots"><circle class="dot reactive tooltip-trigger" cx="474.92307692307685" cy="338.90625" r="2.5" /><desc class="value">0.9</desc><desc class="x left top">474.92307692307685</desc><desc class="y left top">338.90625</desc><desc class="x_label">210.0</desc></g><g class="dots"><circle class="dot reactive tooltip-trigger" cx="540.8846153846155" cy="342.38221153846155" r="2.5" /><desc class="value">0.7</desc><desc class="x left top">540.8846153846155</desc><desc class="y left top">342.38221153846155</desc><desc class="x_label">240.0</desc></g><g class="dots"><circle class="dot reactive tooltip-trigger" cx="606.8461538461538" cy="349.33413461538464" r="2.5" /><desc class="value">0.3</desc><desc class="x left top">606.8461538461538</desc><desc class="y left top">349.33413461538464</desc><desc class="x_label">270.0</desc></g><g class="dots"><circle class="dot reactive tooltip-trigger" cx="672.8076923076923" cy="354.5480769230769" r="2.5" /><desc class="value">0.0</desc><desc class="x left top">672.8076923076923</desc><desc class="y left top">354.5480769230769</desc><desc class="x_label">300.0</desc></g></g></g><g class="plot text-overlay" transform="translate(94, 48)"><g class="series serie-0 color-0" /><g class="series serie-1 color-1" /><g class="series serie-2 color-2" /><g class="series serie-3 color-3" /></g><g class="plot tooltip-overlay" transform="translate(94, 48)"><g class="tooltip" style="opacity: 0" transform="translate(0 0)"><rect class="tooltip-box" height="0" rx="0" ry="0" width="0" /><g class="text" /></g></g><g class="legends" transform="translate(104, 512)"><g class="legend reactive activate-serie" id="activate-serie-0"><rect class="color-0 reactive" height="12" width="12" x="0.0" y="1.5" /><text x="17.0" y="12.0">1.0</text></g><g class="legend reactive activate-serie" id="activate-serie-1"><rect class="color-1 reactive" height="12" width="12" x="343.0" y="1.5" /><text x="360.0" y="12.0">2.0</text></g><g class="legend reactive activate-serie" id="activate-serie-2"><rect class="color-2 reactive" height="12" width="12" x="0.0" y="24.0" /><text x="17.0" y="34.5">GTZAN-Rhythm_v2_ismir2015_lbd_2015-10-28_IBI</text></g><g class="legend reactive activate-serie" id="activate-serie-3"><rect class="color-3 reactive" height="12" width="12" x="343.0" y="24.0" /><text x="360.0" y="34.5">GTZAN-Rhythm_v2_ismir2015_lbd_2015-10-28_ICBI</text></g></g></g></svg>