<?xml version='1.0' encoding='utf-8'?>
<svg xmlns:xlink="http://www.w3.org/1999/xlink" xmlns="http://www.w3.org/2000/svg" id="chart-0bd8e11b-5310-4c20-a709-2853d6391b5c" class="pygal-chart" viewBox="0 0 800 600"><!--Generated with pygal 2.4.0 (lxml) ©Kozea 2012-2016 on 2019-10-13--><!--http://pygal.org--><!--http://github.com/Kozea/pygal--><defs><style type="text/css">#chart-0bd8e11b-5310-4c20-a709-2853d6391b5c{-webkit-user-select:none;-webkit-font-smoothing:antialiased;font-family:Helvetica,Arial,sans-serif}#chart-0bd8e11b-5310-4c20-a709-2853d6391b5c .title{font-family:Helvetica,Arial,sans-serif;font-size:18px}#chart-0bd8e11b-5310-4c20-a709-2853d6391b5c .legends .legend text{font-family:Helvetica,Arial,sans-serif;font-size:15px}#chart-0bd8e11b-5310-4c20-a709-2853d6391b5c .axis text{font-family:Helvetica,Arial,sans-serif;font-size:15px}#chart-0bd8e11b-5310-4c20-a709-2853d6391b5c .axis text.major{font-family:Helvetica,Arial,sans-serif;font-size:15px}#chart-0bd8e11b-5310-4c20-a709-2853d6391b5c .text-overlay text.value{font-family:Helvetica,Arial,sans-serif;font-size:15px}#chart-0bd8e11b-5310-4c20-a709-2853d6391b5c .text-overlay text.label{font-family:Helvetica,Arial,sans-serif;font-size:15px}#chart-0bd8e11b-5310-4c20-a709-2853d6391b5c .tooltip{font-family:Helvetica,Arial,sans-serif;font-size:14px}#chart-0bd8e11b-5310-4c20-a709-2853d6391b5c text.no_data{font-family:Helvetica,Arial,sans-serif;font-size:64px}
#chart-0bd8e11b-5310-4c20-a709-2853d6391b5c{background-color:transparent}#chart-0bd8e11b-5310-4c20-a709-2853d6391b5c path,#chart-0bd8e11b-5310-4c20-a709-2853d6391b5c line,#chart-0bd8e11b-5310-4c20-a709-2853d6391b5c rect,#chart-0bd8e11b-5310-4c20-a709-2853d6391b5c circle{-webkit-transition:150ms;-moz-transition:150ms;transition:150ms}#chart-0bd8e11b-5310-4c20-a709-2853d6391b5c .graph &gt; .background{fill:transparent}#chart-0bd8e11b-5310-4c20-a709-2853d6391b5c .plot &gt; .background{fill:white}#chart-0bd8e11b-5310-4c20-a709-2853d6391b5c .graph{fill:rgba(0,0,0,.87)}#chart-0bd8e11b-5310-4c20-a709-2853d6391b5c text.no_data{fill:rgba(0,0,0,1)}#chart-0bd8e11b-5310-4c20-a709-2853d6391b5c .title{fill:rgba(0,0,0,1)}#chart-0bd8e11b-5310-4c20-a709-2853d6391b5c .legends .legend text{fill:rgba(0,0,0,.87)}#chart-0bd8e11b-5310-4c20-a709-2853d6391b5c .legends .legend:hover text{fill:rgba(0,0,0,1)}#chart-0bd8e11b-5310-4c20-a709-2853d6391b5c .axis .line{stroke:rgba(0,0,0,1)}#chart-0bd8e11b-5310-4c20-a709-2853d6391b5c .axis .guide.line{stroke:rgba(0,0,0,.54)}#chart-0bd8e11b-5310-4c20-a709-2853d6391b5c .axis .major.line{stroke:rgba(0,0,0,.87)}#chart-0bd8e11b-5310-4c20-a709-2853d6391b5c .axis text.major{fill:rgba(0,0,0,1)}#chart-0bd8e11b-5310-4c20-a709-2853d6391b5c .axis.y .guides:hover .guide.line,#chart-0bd8e11b-5310-4c20-a709-2853d6391b5c .line-graph .axis.x .guides:hover .guide.line,#chart-0bd8e11b-5310-4c20-a709-2853d6391b5c .stackedline-graph .axis.x .guides:hover .guide.line,#chart-0bd8e11b-5310-4c20-a709-2853d6391b5c .xy-graph .axis.x .guides:hover .guide.line{stroke:rgba(0,0,0,1)}#chart-0bd8e11b-5310-4c20-a709-2853d6391b5c .axis .guides:hover text{fill:rgba(0,0,0,1)}#chart-0bd8e11b-5310-4c20-a709-2853d6391b5c .reactive{fill-opacity:.7;stroke-opacity:.8}#chart-0bd8e11b-5310-4c20-a709-2853d6391b5c .ci{stroke:rgba(0,0,0,.87)}#chart-0bd8e11b-5310-4c20-a709-2853d6391b5c .reactive.active,#chart-0bd8e11b-5310-4c20-a709-2853d6391b5c .active .reactive{fill-opacity:.8;stroke-opacity:.9;stroke-width:4}#chart-0bd8e11b-5310-4c20-a709-2853d6391b5c .ci .reactive.active{stroke-width:1.5}#chart-0bd8e11b-5310-4c20-a709-2853d6391b5c .series text{fill:rgba(0,0,0,1)}#chart-0bd8e11b-5310-4c20-a709-2853d6391b5c .tooltip rect{fill:white;stroke:rgba(0,0,0,1);-webkit-transition:opacity 150ms;-moz-transition:opacity 150ms;transition:opacity 150ms}#chart-0bd8e11b-5310-4c20-a709-2853d6391b5c .tooltip .label{fill:rgba(0,0,0,.87)}#chart-0bd8e11b-5310-4c20-a709-2853d6391b5c .tooltip .label{fill:rgba(0,0,0,.87)}#chart-0bd8e11b-5310-4c20-a709-2853d6391b5c .tooltip .legend{font-size:.8em;fill:rgba(0,0,0,.54)}#chart-0bd8e11b-5310-4c20-a709-2853d6391b5c .tooltip .x_label{font-size:.6em;fill:rgba(0,0,0,1)}#chart-0bd8e11b-5310-4c20-a709-2853d6391b5c .tooltip .xlink{font-size:.5em;text-decoration:underline}#chart-0bd8e11b-5310-4c20-a709-2853d6391b5c .tooltip .value{font-size:1.5em}#chart-0bd8e11b-5310-4c20-a709-2853d6391b5c .bound{font-size:.5em}#chart-0bd8e11b-5310-4c20-a709-2853d6391b5c .max-value{font-size:.75em;fill:rgba(0,0,0,.54)}#chart-0bd8e11b-5310-4c20-a709-2853d6391b5c .map-element{fill:white;stroke:rgba(0,0,0,.54) !important}#chart-0bd8e11b-5310-4c20-a709-2853d6391b5c .map-element .reactive{fill-opacity:inherit;stroke-opacity:inherit}#chart-0bd8e11b-5310-4c20-a709-2853d6391b5c .color-0,#chart-0bd8e11b-5310-4c20-a709-2853d6391b5c .color-0 a:visited{stroke:#F44336;fill:#F44336}#chart-0bd8e11b-5310-4c20-a709-2853d6391b5c .color-1,#chart-0bd8e11b-5310-4c20-a709-2853d6391b5c .color-1 a:visited{stroke:#3F51B5;fill:#3F51B5}#chart-0bd8e11b-5310-4c20-a709-2853d6391b5c .color-2,#chart-0bd8e11b-5310-4c20-a709-2853d6391b5c .color-2 a:visited{stroke:#009688;fill:#009688}#chart-0bd8e11b-5310-4c20-a709-2853d6391b5c .color-3,#chart-0bd8e11b-5310-4c20-a709-2853d6391b5c .color-3 a:visited{stroke:#FFC107;fill:#FFC107}#chart-0bd8e11b-5310-4c20-a709-2853d6391b5c .color-4,#chart-0bd8e11b-5310-4c20-a709-2853d6391b5c .color-4 a:visited{stroke:#FF5722;fill:#FF5722}#chart-0bd8e11b-5310-4c20-a709-2853d6391b5c .color-5,#chart-0bd8e11b-5310-4c20-a709-2853d6391b5c .color-5 a:visited{stroke:#9C27B0;fill:#9C27B0}#chart-0bd8e11b-5310-4c20-a709-2853d6391b5c .color-6,#chart-0bd8e11b-5310-4c20-a709-2853d6391b5c .color-6 a:visited{stroke:#03A9F4;fill:#03A9F4}#chart-0bd8e11b-5310-4c20-a709-2853d6391b5c .color-7,#chart-0bd8e11b-5310-4c20-a709-2853d6391b5c .color-7 a:visited{stroke:#8BC34A;fill:#8BC34A}#chart-0bd8e11b-5310-4c20-a709-2853d6391b5c .text-overlay .color-0 text{fill:black}#chart-0bd8e11b-5310-4c20-a709-2853d6391b5c .text-overlay .color-1 text{fill:black}#chart-0bd8e11b-5310-4c20-a709-2853d6391b5c .text-overlay .color-2 text{fill:black}#chart-0bd8e11b-5310-4c20-a709-2853d6391b5c .text-overlay .color-3 text{fill:black}#chart-0bd8e11b-5310-4c20-a709-2853d6391b5c .text-overlay .color-4 text{fill:black}#chart-0bd8e11b-5310-4c20-a709-2853d6391b5c .text-overlay .color-5 text{fill:black}#chart-0bd8e11b-5310-4c20-a709-2853d6391b5c .text-overlay .color-6 text{fill:black}#chart-0bd8e11b-5310-4c20-a709-2853d6391b5c .text-overlay .color-7 text{fill:black}
#chart-0bd8e11b-5310-4c20-a709-2853d6391b5c text.no_data{text-anchor:middle}#chart-0bd8e11b-5310-4c20-a709-2853d6391b5c .guide.line{fill:none}#chart-0bd8e11b-5310-4c20-a709-2853d6391b5c .centered{text-anchor:middle}#chart-0bd8e11b-5310-4c20-a709-2853d6391b5c .title{text-anchor:middle}#chart-0bd8e11b-5310-4c20-a709-2853d6391b5c .legends .legend text{fill-opacity:1}#chart-0bd8e11b-5310-4c20-a709-2853d6391b5c .axis.x text{text-anchor:middle}#chart-0bd8e11b-5310-4c20-a709-2853d6391b5c .axis.x:not(.web) text[transform]{text-anchor:start}#chart-0bd8e11b-5310-4c20-a709-2853d6391b5c .axis.x:not(.web) text[transform].backwards{text-anchor:end}#chart-0bd8e11b-5310-4c20-a709-2853d6391b5c .axis.y text{text-anchor:end}#chart-0bd8e11b-5310-4c20-a709-2853d6391b5c .axis.y text[transform].backwards{text-anchor:start}#chart-0bd8e11b-5310-4c20-a709-2853d6391b5c .axis.y2 text{text-anchor:start}#chart-0bd8e11b-5310-4c20-a709-2853d6391b5c .axis.y2 text[transform].backwards{text-anchor:end}#chart-0bd8e11b-5310-4c20-a709-2853d6391b5c .axis .guide.line{stroke-dasharray:1}#chart-0bd8e11b-5310-4c20-a709-2853d6391b5c .axis .major.guide.line{stroke-dasharray:1}#chart-0bd8e11b-5310-4c20-a709-2853d6391b5c .horizontal .axis.y .guide.line,#chart-0bd8e11b-5310-4c20-a709-2853d6391b5c .horizontal .axis.y2 .guide.line,#chart-0bd8e11b-5310-4c20-a709-2853d6391b5c .vertical .axis.x .guide.line{opacity:0}#chart-0bd8e11b-5310-4c20-a709-2853d6391b5c .horizontal .axis.always_show .guide.line,#chart-0bd8e11b-5310-4c20-a709-2853d6391b5c .vertical .axis.always_show .guide.line{opacity:1 !important}#chart-0bd8e11b-5310-4c20-a709-2853d6391b5c .axis.y .guides:hover .guide.line,#chart-0bd8e11b-5310-4c20-a709-2853d6391b5c .axis.y2 .guides:hover .guide.line,#chart-0bd8e11b-5310-4c20-a709-2853d6391b5c .axis.x .guides:hover .guide.line{opacity:1}#chart-0bd8e11b-5310-4c20-a709-2853d6391b5c .axis .guides:hover text{opacity:1}#chart-0bd8e11b-5310-4c20-a709-2853d6391b5c .nofill{fill:none}#chart-0bd8e11b-5310-4c20-a709-2853d6391b5c .subtle-fill{fill-opacity:.2}#chart-0bd8e11b-5310-4c20-a709-2853d6391b5c .dot{stroke-width:1px;fill-opacity:1}#chart-0bd8e11b-5310-4c20-a709-2853d6391b5c .dot.active{stroke-width:5px}#chart-0bd8e11b-5310-4c20-a709-2853d6391b5c .dot.negative{fill:transparent}#chart-0bd8e11b-5310-4c20-a709-2853d6391b5c text,#chart-0bd8e11b-5310-4c20-a709-2853d6391b5c tspan{stroke:none !important}#chart-0bd8e11b-5310-4c20-a709-2853d6391b5c .series text.active{opacity:1}#chart-0bd8e11b-5310-4c20-a709-2853d6391b5c .tooltip rect{fill-opacity:.95;stroke-width:.5}#chart-0bd8e11b-5310-4c20-a709-2853d6391b5c .tooltip text{fill-opacity:1}#chart-0bd8e11b-5310-4c20-a709-2853d6391b5c .showable{visibility:hidden}#chart-0bd8e11b-5310-4c20-a709-2853d6391b5c .showable.shown{visibility:visible}#chart-0bd8e11b-5310-4c20-a709-2853d6391b5c .gauge-background{fill:rgba(229,229,229,1);stroke:none}#chart-0bd8e11b-5310-4c20-a709-2853d6391b5c .bg-lines{stroke:transparent;stroke-width:2px}</style><script type="text/javascript">window.pygal = window.pygal || {};window.pygal.config = window.pygal.config || {};window.pygal.config['0bd8e11b-5310-4c20-a709-2853d6391b5c'] = {"allow_interruptions": false, "box_mode": "extremes", "classes": ["pygal-chart"], "css": ["file://style.css", "file://graph.css"], "defs": [], "disable_xml_declaration": false, "dots_size": 2.5, "dynamic_print_values": false, "explicit_size": false, "fill": false, "force_uri_protocol": "https", "formatter": null, "half_pie": false, "height": 600, "include_x_axis": false, "inner_radius": 0, "interpolate": null, "interpolation_parameters": {}, "interpolation_precision": 250, "inverse_y_axis": false, "js": ["//kozea.github.io/pygal.js/2.0.x/pygal-tooltips.min.js"], "legend_at_bottom": true, "legend_at_bottom_columns": 2, "legend_box_size": 12, "logarithmic": false, "margin": 20, "margin_bottom": 70, "margin_left": null, "margin_right": null, "margin_top": null, "max_scale": 16, "min_scale": 4, "missing_value_fill_truncation": "x", "no_data_text": "No data", "no_prefix": false, "order_min": null, "pretty_print": false, "print_labels": false, "print_values": false, "print_values_position": "center", "print_zeroes": true, "range": [-2.0, 2.0], "rounded_bars": null, "secondary_range": null, "show_dots": true, "show_legend": true, "show_minor_x_labels": false, "show_minor_y_labels": true, "show_only_major_dots": true, "show_x_guides": true, "show_x_labels": true, "show_y_guides": true, "show_y_labels": true, "spacing": 10, "stack_from_top": false, "strict": false, "stroke": true, "stroke_style": null, "style": {"background": "transparent", "ci_colors": [], "colors": ["#F44336", "#3F51B5", "#009688", "#FFC107", "#FF5722", "#9C27B0", "#03A9F4", "#8BC34A", "#FF9800", "#E91E63", "#2196F3", "#4CAF50", "#FFEB3B", "#673AB7", "#00BCD4", "#CDDC39", "#9E9E9E", "#607D8B"], "font_family": "Helvetica, Arial, sans-serif", "foreground": "rgba(0, 0, 0, .87)", "foreground_strong": "rgba(0, 0, 0, 1)", "foreground_subtle": "rgba(0, 0, 0, .54)", "guide_stroke_dasharray": 1, "label_font_family": "Helvetica, Arial, sans-serif", "label_font_size": 15, "legend_font_family": "Helvetica, Arial, sans-serif", "legend_font_size": 15, "major_guide_stroke_dasharray": 1, "major_label_font_family": "Helvetica, Arial, sans-serif", "major_label_font_size": 15, "no_data_font_family": "Helvetica, Arial, sans-serif", "no_data_font_size": 64, "opacity": ".7", "opacity_hover": ".8", "plot_background": "white", "stroke_opacity": ".8", "stroke_opacity_hover": ".9", "title_font_family": "Helvetica, Arial, sans-serif", "title_font_size": 18, "tooltip_font_family": "Helvetica, Arial, sans-serif", "tooltip_font_size": 14, "transition": "150ms", "value_background": "rgba(229, 229, 229, 1)", "value_colors": [], "value_font_family": "Helvetica, Arial, sans-serif", "value_font_size": 15, "value_label_font_family": "Helvetica, Arial, sans-serif", "value_label_font_size": 15}, "title": "Mean OE1 for Tempo T \u00b110.0 BPM", "tooltip_border_radius": 0, "tooltip_fancy_mode": true, "truncate_label": null, "truncate_legend": -1, "width": 800, "x_label_rotation": 90, "x_labels": ["0.0", "1.0", "2.0", "3.0", "4.0", "5.0", "6.0", "7.0", "8.0", "9.0", "10.0", "11.0", "12.0", "13.0", "14.0", "15.0", "16.0", "17.0", "18.0", "19.0", "20.0", "21.0", "22.0", "23.0", "24.0", "25.0", "26.0", "27.0", "28.0", "29.0", "30.0", "31.0", "32.0", "33.0", "34.0", "35.0", "36.0", "37.0", "38.0", "39.0", "40.0", "41.0", "42.0", "43.0", "44.0", "45.0", "46.0", "47.0", "48.0", "49.0", "50.0", "51.0", "52.0", "53.0", "54.0", "55.0", "56.0", "57.0", "58.0", "59.0", "60.0", "61.0", "62.0", "63.0", "64.0", "65.0", "66.0", "67.0", "68.0", "69.0", "70.0", "71.0", "72.0", "73.0", "74.0", "75.0", "76.0", "77.0", "78.0", "79.0", "80.0", "81.0", "82.0", "83.0", "84.0", "85.0", "86.0", "87.0", "88.0", "89.0", "90.0", "91.0", "92.0", "93.0", "94.0", "95.0", "96.0", "97.0", "98.0", "99.0", "100.0", "101.0", "102.0", "103.0", "104.0", "105.0", "106.0", "107.0", "108.0", "109.0", "110.0", "111.0", "112.0", "113.0", "114.0", "115.0", "116.0", "117.0", "118.0", "119.0", "120.0", "121.0", "122.0", "123.0", "124.0", "125.0", "126.0", "127.0", "128.0", "129.0", "130.0", "131.0", "132.0", "133.0", "134.0", "135.0", "136.0", "137.0", "138.0", "139.0", "140.0", "141.0", "142.0", "143.0", "144.0", "145.0", "146.0", "147.0", "148.0", "149.0", "150.0", "151.0", "152.0", "153.0", "154.0", "155.0", "156.0", "157.0", "158.0", "159.0", "160.0", "161.0", "162.0", "163.0", "164.0", "165.0", "166.0", "167.0", "168.0", "169.0", "170.0", "171.0", "172.0", "173.0", "174.0", "175.0", "176.0", "177.0", "178.0", "179.0", "180.0", "181.0", "182.0", "183.0", "184.0", "185.0", "186.0", "187.0", "188.0", "189.0", "190.0", "191.0", "192.0", "193.0", "194.0", "195.0", "196.0", "197.0", "198.0", "199.0", "200.0", "201.0", "202.0", "203.0", "204.0", "205.0", "206.0", "207.0", "208.0", "209.0", "210.0", "211.0", "212.0", "213.0", "214.0", "215.0", "216.0", "217.0", "218.0", "219.0", "220.0", "221.0", "222.0", "223.0", "224.0", "225.0", "226.0", "227.0", "228.0", "229.0", "230.0", "231.0", "232.0", "233.0", "234.0", "235.0", "236.0", "237.0", "238.0", "239.0", "240.0", "241.0", "242.0", "243.0", "244.0", "245.0", "246.0", "247.0", "248.0", "249.0", "250.0", "251.0", "252.0", "253.0", "254.0", "255.0", "256.0", "257.0", "258.0", "259.0", "260.0", "261.0", "262.0", "263.0", "264.0", "265.0", "266.0", "267.0", "268.0", "269.0", "270.0", "271.0", "272.0", "273.0", "274.0", "275.0", "276.0", "277.0", "278.0", "279.0", "280.0", "281.0", "282.0", "283.0", "284.0", "285.0", "286.0", "287.0", "288.0", "289.0", "290.0", "291.0", "292.0", "293.0", "294.0", "295.0", "296.0", "297.0", "298.0", "299.0", "300.0"], "x_labels_major": null, "x_labels_major_count": 11, "x_labels_major_every": null, "x_title": "T (BPM)", "xrange": null, "y_label_rotation": 0, "y_labels": null, "y_labels_major": null, "y_labels_major_count": null, "y_labels_major_every": null, "y_title": "Mean OE1 (TO)", "zero": 0, "legends": ["boeck2015/tempodetector2016_default", "davies2009/mirex_qm_tempotracker", "percival2014/stem", "schreiber2017/ismir2017", "schreiber2017/mirex2017", "schreiber2018/cnn", "schreiber2018/fcn", "schreiber2018/ismir2018"]}</script><script type="text/javascript" xlink:href="https://kozea.github.io/pygal.js/2.0.x/pygal-tooltips.min.js"/></defs><title>Mean OE1 for Tempo T ±10.0 BPM</title><g class="graph line-graph vertical"><rect class="background" height="600" width="800" x="0" y="0"/><g class="plot" transform="translate(121, 48)"><rect class="background" height="306.5" width="659.0" x="0" y="0"/><g class="axis y always_show"><g class="guides"><path class="guide line" d="M0.000000 300.605769 h659.000000"/><text class="" x="-5" y="305.8557692307692">-2.0000</text><title>-2.0000</title></g><g class="guides"><path class="guide line" d="M0.000000 271.134615 h659.000000"/><text class="" x="-5" y="276.38461538461536">-1.6000</text><title>-1.6000</title></g><g class="guides"><path class="guide line" d="M0.000000 241.663462 h659.000000"/><text class="" x="-5" y="246.91346153846155">-1.2000</text><title>-1.2000</title></g><g class="guides"><path class="guide line" d="M0.000000 212.192308 h659.000000"/><text class="" x="-5" y="217.44230769230768">-0.8000</text><title>-0.8000</title></g><g class="guides"><path class="guide line" d="M0.000000 182.721154 h659.000000"/><text class="" x="-5" y="187.97115384615384">-0.4000</text><title>-0.4000</title></g><g class="guides"><path class="major line" d="M0.000000 153.250000 h659.000000"/><text class="major" x="-5" y="158.5">0.0000</text><title>0.0000</title></g><g class="guides"><path class="guide line" d="M0.000000 123.778846 h659.000000"/><text class="" x="-5" y="129.02884615384616">0.4000</text><title>0.4000</title></g><g class="guides"><path class="guide line" d="M0.000000 94.307692 h659.000000"/><text class="" x="-5" y="99.55769230769235">0.8000</text><title>0.8000</title></g><g class="guides"><path class="guide line" d="M0.000000 64.836538 h659.000000"/><text class="" x="-5" y="70.08653846153845">1.2000</text><title>1.2000</title></g><g class="guides"><path class="guide line" d="M0.000000 35.365385 h659.000000"/><text class="" x="-5" y="40.615384615384585">1.6000</text><title>1.6000</title></g><g class="guides"><path class="guide line" d="M0.000000 5.894231 h659.000000"/><text class="" x="-5" y="11.144230769230774">2.0000</text><title>2.0000</title></g></g><g class="axis x always_show"><g class="guides"><path class="major line" d="M12.673077 0.000000 v306.500000"/><text class="major" x="12.673076923076922" y="324.0" transform="rotate(90 12.673077 324.000000)">0.0</text></g><g class="guides"><path class="major guide line" d="M76.038462 0.000000 v306.500000"/><text class="major" x="76.03846153846155" y="324.0" transform="rotate(90 76.038462 324.000000)">30.0</text></g><g class="guides"><path class="major guide line" d="M139.403846 0.000000 v306.500000"/><text class="major" x="139.40384615384613" y="324.0" transform="rotate(90 139.403846 324.000000)">60.0</text></g><g class="guides"><path class="major guide line" d="M202.769231 0.000000 v306.500000"/><text class="major" x="202.76923076923075" y="324.0" transform="rotate(90 202.769231 324.000000)">90.0</text></g><g class="guides"><path class="major guide line" d="M266.134615 0.000000 v306.500000"/><text class="major" x="266.1346153846154" y="324.0" transform="rotate(90 266.134615 324.000000)">120.0</text></g><g class="guides"><path class="major guide line" d="M329.500000 0.000000 v306.500000"/><text class="major" x="329.5" y="324.0" transform="rotate(90 329.500000 324.000000)">150.0</text></g><g class="guides"><path class="major guide line" d="M392.865385 0.000000 v306.500000"/><text class="major" x="392.8653846153846" y="324.0" transform="rotate(90 392.865385 324.000000)">180.0</text></g><g class="guides"><path class="major guide line" d="M456.230769 0.000000 v306.500000"/><text class="major" x="456.23076923076917" y="324.0" transform="rotate(90 456.230769 324.000000)">210.0</text></g><g class="guides"><path class="major guide line" d="M519.596154 0.000000 v306.500000"/><text class="major" x="519.5961538461538" y="324.0" transform="rotate(90 519.596154 324.000000)">240.0</text></g><g class="guides"><path class="major guide line" d="M582.961538 0.000000 v306.500000"/><text class="major" x="582.9615384615385" y="324.0" transform="rotate(90 582.961538 324.000000)">270.0</text></g><g class="guides"><path class="major guide line" d="M646.326923 0.000000 v306.500000"/><text class="major" x="646.3269230769231" y="324.0" transform="rotate(90 646.326923 324.000000)">300.0</text></g></g><g class="series serie-0 color-0"><path class="line reactive nofill" d="M12.673077 153.250000 L14.785256 153.250000 16.897436 153.250000 19.009615 153.250000 21.121795 153.250000 23.233974 153.250000 25.346154 153.250000 27.458333 153.250000 29.570513 153.250000 31.682692 153.250000 33.794872 153.250000 35.907051 153.250000 38.019231 153.250000 40.131410 153.250000 42.243590 153.250000 44.355769 153.250000 46.467949 153.250000 48.580128 153.250000 50.692308 153.250000 52.804487 153.250000 54.916667 153.250000 57.028846 153.250000 59.141026 153.250000 61.253205 153.250000 63.365385 153.250000 65.477564 153.250000 67.589744 153.250000 69.701923 153.250000 71.814103 153.250000 73.926282 153.250000 76.038462 153.250000 78.150641 153.250000 80.262821 153.250000 82.375000 153.250000 84.487179 153.250000 86.599359 117.008321 88.711538 117.008321 90.823718 117.008321 92.935897 74.575303 95.048077 74.575303 97.160256 78.156025 99.272436 78.156025 101.384615 78.156025 103.496795 78.156025 105.608974 78.156025 107.721154 89.013931 109.833333 89.013931 111.945513 103.270854 114.057692 108.311177 116.169872 105.533667 118.282051 112.647370 120.394231 113.149068 122.506410 114.748664 124.618590 114.748664 126.730769 120.475341 128.842949 127.333884 130.955128 130.391005 133.067308 132.942622 135.179487 135.654319 137.291667 136.949272 139.403846 139.293812 141.516026 139.387186 143.628205 139.571619 145.740385 139.750743 147.852564 140.406466 149.964744 140.998650 152.076923 141.936552 154.189103 142.270476 156.301282 142.474511 158.413462 143.170665 160.525641 145.143333 162.637821 146.297338 164.750000 145.591065 166.862179 146.041011 168.974359 145.623258 171.086538 146.034791 173.198718 146.129483 175.310897 146.142422 177.423077 145.730124 179.535256 146.593613 181.647436 147.420127 183.759615 148.214869 185.871795 148.215434 187.983974 148.224175 190.096154 148.166993 192.208333 148.375735 194.320513 148.374816 196.432692 148.574386 198.544872 148.921460 200.657051 149.219277 202.769231 149.454457 204.881410 149.311806 206.993590 150.039056 209.105769 150.218460 211.217949 150.513732 213.330128 150.578188 215.442308 150.592231 217.554487 150.498392 219.666667 151.121874 221.778846 151.216490 223.891026 151.333662 226.003205 151.134331 228.115385 151.495589 230.227564 151.574045 232.339744 151.669541 234.451923 151.707136 236.564103 151.755670 238.676282 151.780983 240.788462 151.692276 242.900641 151.629624 245.012821 151.659566 247.125000 152.347293 249.237179 152.518740 251.349359 152.633985 253.461538 153.463375 255.573718 153.844640 257.685897 154.593498 259.798077 154.976250 261.910256 155.005185 264.022436 155.455925 266.134615 155.764185 268.246795 156.191236 270.358974 156.398432 272.471154 156.812916 274.583333 156.911079 276.695513 156.973233 278.807692 157.085506 280.919872 157.138482 283.032051 157.305737 285.144231 157.325207 287.256410 157.563206 289.368590 157.802323 291.480769 157.857242 293.592949 157.997632 295.705128 158.001318 297.817308 158.636843 299.929487 158.527932 302.041667 159.071189 304.153846 160.981293 306.266026 162.176129 308.378205 164.822666 310.490385 166.177994 312.602564 167.139210 314.714744 166.512737 316.826923 166.448070 318.939103 166.638735 321.051282 166.740513 323.163462 166.617292 325.275641 166.214749 327.387821 166.429784 329.500000 166.276434 331.612179 165.802676 333.724359 166.656146 335.836538 167.648862 337.948718 168.546320 340.060897 169.344059 342.173077 171.635391 344.285256 173.743407 346.397436 173.498375 348.509615 171.126714 350.621795 173.695164 352.733974 178.023080 354.846154 172.363256 356.958333 196.073160 359.070513 217.077595 361.182692 213.692140 363.294872 186.870658 365.407051 186.870658 367.519231 186.870658 369.631410 186.870658 371.743590 186.870658 373.855769 186.870658 375.967949 153.250000 378.080128 153.250000 380.192308 153.250000 382.304487 153.250000 384.416667 153.250000 386.528846 153.250000 388.641026 153.250000 390.753205 153.250000 392.865385 153.250000 394.977564 153.250000 397.089744 153.250000 399.201923 153.250000 401.314103 153.250000 403.426282 153.250000 405.538462 153.250000 407.650641 153.250000 409.762821 153.250000 411.875000 153.250000 413.987179 153.250000 416.099359 153.250000 418.211538 153.250000 420.323718 153.250000 422.435897 153.250000 424.548077 153.250000 426.660256 153.250000 428.772436 153.250000 430.884615 153.250000 432.996795 153.250000 435.108974 153.250000 437.221154 153.250000 439.333333 153.250000 441.445513 153.250000 443.557692 153.250000 445.669872 153.250000 447.782051 153.250000 449.894231 153.250000 452.006410 153.250000 454.118590 153.250000 456.230769 153.250000 458.342949 153.250000 460.455128 153.250000 462.567308 153.250000 464.679487 153.250000 466.791667 153.250000 468.903846 153.250000 471.016026 153.250000 473.128205 153.250000 475.240385 153.250000 477.352564 153.250000 479.464744 153.250000 481.576923 153.250000 483.689103 153.250000 485.801282 153.250000 487.913462 153.250000 490.025641 153.250000 492.137821 153.250000 494.250000 153.250000 496.362179 153.250000 498.474359 153.250000 500.586538 153.250000 502.698718 153.250000 504.810897 153.250000 506.923077 153.250000 509.035256 153.250000 511.147436 153.250000 513.259615 153.250000 515.371795 153.250000 517.483974 153.250000 519.596154 153.250000 521.708333 153.250000 523.820513 153.250000 525.932692 153.250000 528.044872 153.250000 530.157051 153.250000 532.269231 153.250000 534.381410 153.250000 536.493590 153.250000 538.605769 153.250000 540.717949 153.250000 542.830128 153.250000 544.942308 153.250000 547.054487 153.250000 549.166667 153.250000 551.278846 153.250000 553.391026 153.250000 555.503205 153.250000 557.615385 153.250000 559.727564 153.250000 561.839744 153.250000 563.951923 153.250000 566.064103 153.250000 568.176282 153.250000 570.288462 153.250000 572.400641 153.250000 574.512821 153.250000 576.625000 153.250000 578.737179 153.250000 580.849359 153.250000 582.961538 153.250000 585.073718 153.250000 587.185897 153.250000 589.298077 153.250000 591.410256 153.250000 593.522436 153.250000 595.634615 153.250000 597.746795 153.250000 599.858974 153.250000 601.971154 153.250000 604.083333 153.250000 606.195513 153.250000 608.307692 153.250000 610.419872 153.250000 612.532051 153.250000 614.644231 153.250000 616.756410 153.250000 618.868590 153.250000 620.980769 153.250000 623.092949 153.250000 625.205128 153.250000 627.317308 153.250000 629.429487 153.250000 631.541667 153.250000 633.653846 153.250000 635.766026 153.250000 637.878205 153.250000 639.990385 153.250000 642.102564 153.250000 644.214744 153.250000 646.326923 153.250000"/></g><g class="series serie-1 color-1"><path class="line reactive nofill" d="M12.673077 153.250000 L14.785256 153.250000 16.897436 153.250000 19.009615 153.250000 21.121795 153.250000 23.233974 153.250000 25.346154 153.250000 27.458333 153.250000 29.570513 153.250000 31.682692 153.250000 33.794872 153.250000 35.907051 153.250000 38.019231 153.250000 40.131410 153.250000 42.243590 153.250000 44.355769 153.250000 46.467949 153.250000 48.580128 153.250000 50.692308 153.250000 52.804487 153.250000 54.916667 153.250000 57.028846 153.250000 59.141026 153.250000 61.253205 153.250000 63.365385 153.250000 65.477564 153.250000 67.589744 153.250000 69.701923 153.250000 71.814103 153.250000 73.926282 153.250000 76.038462 153.250000 78.150641 153.250000 80.262821 153.250000 82.375000 153.250000 84.487179 153.250000 86.599359 57.513797 88.711538 57.513797 90.823718 57.513797 92.935897 36.027915 95.048077 36.027915 97.160256 42.969608 99.272436 42.969608 101.384615 42.969608 103.496795 42.969608 105.608974 42.969608 107.721154 52.928373 109.833333 52.928373 111.945513 58.268636 114.057692 60.150196 116.169872 61.275809 118.282051 69.472334 120.394231 70.847530 122.506410 71.549310 124.618590 71.549310 126.730769 72.486085 128.842949 80.168059 130.955128 82.060571 133.067308 82.640424 135.179487 84.331917 137.291667 84.304242 139.403846 84.960502 141.516026 85.927606 143.628205 85.809260 145.740385 86.188759 147.852564 87.587666 149.964744 89.056677 152.076923 89.599874 154.189103 90.972969 156.301282 91.813216 158.413462 92.075716 160.525641 95.535692 162.637821 101.675232 164.750000 104.316010 166.862179 104.277945 168.974359 105.810945 171.086538 107.874753 173.198718 108.547506 175.310897 110.024469 177.423077 111.817951 179.535256 117.689661 181.647436 123.816135 183.759615 127.986627 185.871795 129.617698 187.983974 129.781110 190.096154 130.030244 192.208333 131.281971 194.320513 132.695471 196.432692 134.320615 198.544872 135.664504 200.657051 137.768697 202.769231 140.285496 204.881410 141.927760 206.993590 144.693060 209.105769 147.502294 211.217949 148.171497 213.330128 148.115871 215.442308 148.127693 217.554487 148.133016 219.666667 149.340465 221.778846 150.061330 223.891026 150.585968 226.003205 151.104509 228.115385 151.530820 230.227564 151.647103 232.339744 151.665453 234.451923 151.675432 236.564103 151.709200 238.676282 151.855182 240.788462 151.998589 242.900641 151.982103 245.012821 152.120443 247.125000 152.143243 249.237179 152.241485 251.349359 152.423200 253.461538 152.250173 255.573718 152.204866 257.685897 152.136305 259.798077 151.990440 261.910256 152.017624 264.022436 152.021168 266.134615 151.956585 268.246795 151.991319 270.358974 151.922200 272.471154 151.923917 274.583333 151.921120 276.695513 151.920470 278.807692 151.897468 280.919872 151.893714 283.032051 151.892805 285.144231 151.894906 287.256410 152.030641 289.368590 152.065107 291.480769 152.035259 293.592949 152.029685 295.705128 152.071824 297.817308 152.047081 299.929487 152.173662 302.041667 152.444562 304.153846 152.670379 306.266026 152.964219 308.378205 153.495478 310.490385 153.813647 312.602564 154.061612 314.714744 153.893716 316.826923 153.877805 318.939103 153.877653 321.051282 154.101136 323.163462 154.126383 325.275641 154.193137 327.387821 154.261350 329.500000 153.856947 331.612179 153.902725 333.724359 154.243146 335.836538 154.171740 337.948718 154.559259 340.060897 155.230756 342.173077 155.235682 344.285256 155.059473 346.397436 154.832321 348.509615 154.180946 350.621795 156.608111 352.733974 157.217942 354.846154 158.078281 356.958333 172.012394 359.070513 182.603189 361.182692 192.916724 363.294872 200.636436 365.407051 200.636436 367.519231 200.636436 369.631410 200.636436 371.743590 200.636436 373.855769 200.636436 375.967949 153.250000 378.080128 153.250000 380.192308 153.250000 382.304487 153.250000 384.416667 153.250000 386.528846 153.250000 388.641026 153.250000 390.753205 153.250000 392.865385 153.250000 394.977564 153.250000 397.089744 153.250000 399.201923 153.250000 401.314103 153.250000 403.426282 153.250000 405.538462 153.250000 407.650641 153.250000 409.762821 153.250000 411.875000 153.250000 413.987179 153.250000 416.099359 153.250000 418.211538 153.250000 420.323718 153.250000 422.435897 153.250000 424.548077 153.250000 426.660256 153.250000 428.772436 153.250000 430.884615 153.250000 432.996795 153.250000 435.108974 153.250000 437.221154 153.250000 439.333333 153.250000 441.445513 153.250000 443.557692 153.250000 445.669872 153.250000 447.782051 153.250000 449.894231 153.250000 452.006410 153.250000 454.118590 153.250000 456.230769 153.250000 458.342949 153.250000 460.455128 153.250000 462.567308 153.250000 464.679487 153.250000 466.791667 153.250000 468.903846 153.250000 471.016026 153.250000 473.128205 153.250000 475.240385 153.250000 477.352564 153.250000 479.464744 153.250000 481.576923 153.250000 483.689103 153.250000 485.801282 153.250000 487.913462 153.250000 490.025641 153.250000 492.137821 153.250000 494.250000 153.250000 496.362179 153.250000 498.474359 153.250000 500.586538 153.250000 502.698718 153.250000 504.810897 153.250000 506.923077 153.250000 509.035256 153.250000 511.147436 153.250000 513.259615 153.250000 515.371795 153.250000 517.483974 153.250000 519.596154 153.250000 521.708333 153.250000 523.820513 153.250000 525.932692 153.250000 528.044872 153.250000 530.157051 153.250000 532.269231 153.250000 534.381410 153.250000 536.493590 153.250000 538.605769 153.250000 540.717949 153.250000 542.830128 153.250000 544.942308 153.250000 547.054487 153.250000 549.166667 153.250000 551.278846 153.250000 553.391026 153.250000 555.503205 153.250000 557.615385 153.250000 559.727564 153.250000 561.839744 153.250000 563.951923 153.250000 566.064103 153.250000 568.176282 153.250000 570.288462 153.250000 572.400641 153.250000 574.512821 153.250000 576.625000 153.250000 578.737179 153.250000 580.849359 153.250000 582.961538 153.250000 585.073718 153.250000 587.185897 153.250000 589.298077 153.250000 591.410256 153.250000 593.522436 153.250000 595.634615 153.250000 597.746795 153.250000 599.858974 153.250000 601.971154 153.250000 604.083333 153.250000 606.195513 153.250000 608.307692 153.250000 610.419872 153.250000 612.532051 153.250000 614.644231 153.250000 616.756410 153.250000 618.868590 153.250000 620.980769 153.250000 623.092949 153.250000 625.205128 153.250000 627.317308 153.250000 629.429487 153.250000 631.541667 153.250000 633.653846 153.250000 635.766026 153.250000 637.878205 153.250000 639.990385 153.250000 642.102564 153.250000 644.214744 153.250000 646.326923 153.250000"/></g><g class="series serie-2 color-2"><path class="line reactive nofill" d="M12.673077 153.250000 L14.785256 153.250000 16.897436 153.250000 19.009615 153.250000 21.121795 153.250000 23.233974 153.250000 25.346154 153.250000 27.458333 153.250000 29.570513 153.250000 31.682692 153.250000 33.794872 153.250000 35.907051 153.250000 38.019231 153.250000 40.131410 153.250000 42.243590 153.250000 44.355769 153.250000 46.467949 153.250000 48.580128 153.250000 50.692308 153.250000 52.804487 153.250000 54.916667 153.250000 57.028846 153.250000 59.141026 153.250000 61.253205 153.250000 63.365385 153.250000 65.477564 153.250000 67.589744 153.250000 69.701923 153.250000 71.814103 153.250000 73.926282 153.250000 76.038462 153.250000 78.150641 153.250000 80.262821 153.250000 82.375000 153.250000 84.487179 153.250000 86.599359 86.168976 88.711538 86.168976 90.823718 86.168976 92.935897 78.565788 95.048077 78.565788 97.160256 87.843757 99.272436 87.843757 101.384615 87.843757 103.496795 87.843757 105.608974 87.843757 107.721154 85.589040 109.833333 85.589040 111.945513 84.254627 114.057692 83.805928 116.169872 89.537758 118.282051 86.463344 120.394231 88.103604 122.506410 87.207559 124.618590 87.207559 126.730769 92.777594 128.842949 99.496765 130.955128 101.925010 133.067308 102.516309 135.179487 105.673211 137.291667 106.917080 139.403846 111.777828 141.516026 114.304675 143.628205 114.340064 145.740385 114.847874 147.852564 116.286451 149.964744 121.122441 152.076923 122.726624 154.189103 124.708281 156.301282 125.601019 158.413462 126.528529 160.525641 130.462655 162.637821 135.070776 164.750000 139.084270 166.862179 140.949177 168.974359 141.975186 171.086538 143.907891 173.198718 144.923361 175.310897 145.909234 177.423077 146.891778 179.535256 149.206862 181.647436 150.837351 183.759615 152.369244 185.871795 152.556790 187.983974 152.559446 190.096154 152.680168 192.208333 152.677821 194.320513 152.981432 196.432692 153.057518 198.544872 153.147427 200.657051 153.344272 202.769231 153.490100 204.881410 153.677390 206.993590 153.869915 209.105769 153.902470 211.217949 153.857253 213.330128 153.884809 215.442308 153.882045 217.554487 153.932280 219.666667 153.912558 221.778846 153.923945 223.891026 154.008052 226.003205 154.052428 228.115385 154.189334 230.227564 154.305597 232.339744 154.418497 234.451923 154.385036 236.564103 154.491721 238.676282 154.555113 240.788462 154.578195 242.900641 154.526909 245.012821 154.764303 247.125000 154.663840 249.237179 154.623520 251.349359 154.741224 253.461538 154.761293 255.573718 154.560585 257.685897 154.744800 259.798077 154.768224 261.910256 154.990469 264.022436 155.204672 266.134615 155.372120 268.246795 155.471873 270.358974 155.558855 272.471154 155.562547 274.583333 155.535347 276.695513 155.573527 278.807692 155.669467 280.919872 155.669529 283.032051 155.749494 285.144231 155.909741 287.256410 156.347253 289.368590 156.765533 291.480769 157.184139 293.592949 157.650823 295.705128 158.060225 297.817308 159.551678 299.929487 160.751366 302.041667 163.022510 304.153846 166.657084 306.266026 170.231068 308.378205 179.724046 310.490385 185.169037 312.602564 188.384011 314.714744 191.209796 316.826923 191.397224 318.939103 191.587059 321.051282 191.696902 323.163462 191.913483 325.275641 192.667707 327.387821 193.213802 329.500000 195.238497 331.612179 197.809812 333.724359 198.628913 335.836538 200.883694 337.948718 205.116218 340.060897 207.741353 342.173077 211.576652 344.285256 212.437408 346.397436 213.603593 348.509615 214.127395 350.621795 216.797438 352.733974 219.372174 354.846154 217.523345 356.958333 224.955789 359.070513 223.788874 361.182692 222.871362 363.294872 213.627108 365.407051 213.627108 367.519231 213.627108 369.631410 213.627108 371.743590 213.627108 373.855769 213.627108 375.967949 153.250000 378.080128 153.250000 380.192308 153.250000 382.304487 153.250000 384.416667 153.250000 386.528846 153.250000 388.641026 153.250000 390.753205 153.250000 392.865385 153.250000 394.977564 153.250000 397.089744 153.250000 399.201923 153.250000 401.314103 153.250000 403.426282 153.250000 405.538462 153.250000 407.650641 153.250000 409.762821 153.250000 411.875000 153.250000 413.987179 153.250000 416.099359 153.250000 418.211538 153.250000 420.323718 153.250000 422.435897 153.250000 424.548077 153.250000 426.660256 153.250000 428.772436 153.250000 430.884615 153.250000 432.996795 153.250000 435.108974 153.250000 437.221154 153.250000 439.333333 153.250000 441.445513 153.250000 443.557692 153.250000 445.669872 153.250000 447.782051 153.250000 449.894231 153.250000 452.006410 153.250000 454.118590 153.250000 456.230769 153.250000 458.342949 153.250000 460.455128 153.250000 462.567308 153.250000 464.679487 153.250000 466.791667 153.250000 468.903846 153.250000 471.016026 153.250000 473.128205 153.250000 475.240385 153.250000 477.352564 153.250000 479.464744 153.250000 481.576923 153.250000 483.689103 153.250000 485.801282 153.250000 487.913462 153.250000 490.025641 153.250000 492.137821 153.250000 494.250000 153.250000 496.362179 153.250000 498.474359 153.250000 500.586538 153.250000 502.698718 153.250000 504.810897 153.250000 506.923077 153.250000 509.035256 153.250000 511.147436 153.250000 513.259615 153.250000 515.371795 153.250000 517.483974 153.250000 519.596154 153.250000 521.708333 153.250000 523.820513 153.250000 525.932692 153.250000 528.044872 153.250000 530.157051 153.250000 532.269231 153.250000 534.381410 153.250000 536.493590 153.250000 538.605769 153.250000 540.717949 153.250000 542.830128 153.250000 544.942308 153.250000 547.054487 153.250000 549.166667 153.250000 551.278846 153.250000 553.391026 153.250000 555.503205 153.250000 557.615385 153.250000 559.727564 153.250000 561.839744 153.250000 563.951923 153.250000 566.064103 153.250000 568.176282 153.250000 570.288462 153.250000 572.400641 153.250000 574.512821 153.250000 576.625000 153.250000 578.737179 153.250000 580.849359 153.250000 582.961538 153.250000 585.073718 153.250000 587.185897 153.250000 589.298077 153.250000 591.410256 153.250000 593.522436 153.250000 595.634615 153.250000 597.746795 153.250000 599.858974 153.250000 601.971154 153.250000 604.083333 153.250000 606.195513 153.250000 608.307692 153.250000 610.419872 153.250000 612.532051 153.250000 614.644231 153.250000 616.756410 153.250000 618.868590 153.250000 620.980769 153.250000 623.092949 153.250000 625.205128 153.250000 627.317308 153.250000 629.429487 153.250000 631.541667 153.250000 633.653846 153.250000 635.766026 153.250000 637.878205 153.250000 639.990385 153.250000 642.102564 153.250000 644.214744 153.250000 646.326923 153.250000"/></g><g class="series serie-3 color-3"><path class="line reactive nofill" d="M12.673077 153.250000 L14.785256 153.250000 16.897436 153.250000 19.009615 153.250000 21.121795 153.250000 23.233974 153.250000 25.346154 153.250000 27.458333 153.250000 29.570513 153.250000 31.682692 153.250000 33.794872 153.250000 35.907051 153.250000 38.019231 153.250000 40.131410 153.250000 42.243590 153.250000 44.355769 153.250000 46.467949 153.250000 48.580128 153.250000 50.692308 153.250000 52.804487 153.250000 54.916667 153.250000 57.028846 153.250000 59.141026 153.250000 61.253205 153.250000 63.365385 153.250000 65.477564 153.250000 67.589744 153.250000 69.701923 153.250000 71.814103 153.250000 73.926282 153.250000 76.038462 153.250000 78.150641 153.250000 80.262821 153.250000 82.375000 153.250000 84.487179 153.250000 86.599359 116.363919 88.711538 116.363919 90.823718 116.363919 92.935897 128.425790 95.048077 128.425790 97.160256 120.819137 99.272436 120.819137 101.384615 120.819137 103.496795 120.819137 105.608974 120.819137 107.721154 130.096002 109.833333 130.096002 111.945513 135.241335 114.057692 137.049509 116.169872 134.690719 118.282051 133.004766 120.394231 136.900756 122.506410 138.592063 124.618590 138.592063 126.730769 140.747613 128.842949 142.171264 130.955128 144.248515 133.067308 144.224948 135.179487 143.038592 137.291667 142.651430 139.403846 143.723425 141.516026 144.033828 143.628205 143.667182 145.740385 143.792071 147.852564 143.347129 149.964744 143.224120 152.076923 142.863687 154.189103 142.439091 156.301282 142.644407 158.413462 143.180749 160.525641 144.344867 162.637821 143.822294 164.750000 144.890437 166.862179 144.656865 168.974359 144.858987 171.086538 145.239896 173.198718 145.008635 175.310897 145.223165 177.423077 145.969691 179.535256 147.105889 181.647436 148.074465 183.759615 148.797465 185.871795 149.245686 187.983974 149.252536 190.096154 149.456071 192.208333 149.704873 194.320513 150.084722 196.432692 150.576592 198.544872 150.776781 200.657051 150.997178 202.769231 151.559993 204.881410 152.315739 206.993590 152.571529 209.105769 153.199033 211.217949 153.292952 213.330128 153.293449 215.442308 153.293227 217.554487 153.293062 219.666667 153.387079 221.778846 153.486620 223.891026 153.550714 226.003205 153.822960 228.115385 153.807688 230.227564 153.767336 232.339744 153.741683 234.451923 153.808205 236.564103 153.802726 238.676282 153.826843 240.788462 153.862060 242.900641 153.918699 245.012821 153.818941 247.125000 153.761304 249.237179 153.771432 251.349359 153.742983 253.461538 153.679529 255.573718 153.576350 257.685897 153.538794 259.798077 153.666488 261.910256 153.697958 264.022436 153.813195 266.134615 153.807840 268.246795 153.685219 270.358974 153.730062 272.471154 153.741878 274.583333 153.756196 276.695513 153.716603 278.807692 153.770783 280.919872 153.771756 283.032051 153.768340 285.144231 153.811897 287.256410 153.798957 289.368590 153.787775 291.480769 153.837674 293.592949 153.894986 295.705128 153.969011 297.817308 154.124364 299.929487 154.188341 302.041667 154.163309 304.153846 154.387674 306.266026 154.379845 308.378205 154.933143 310.490385 155.177120 312.602564 155.107380 314.714744 155.175571 316.826923 155.357082 318.939103 155.548382 321.051282 155.371024 323.163462 155.382348 325.275641 155.445997 327.387821 155.313516 329.500000 155.545779 331.612179 155.835772 333.724359 155.865415 335.836538 155.865884 337.948718 155.876659 340.060897 155.941961 342.173077 156.566541 344.285256 157.174335 346.397436 157.106720 348.509615 157.103293 350.621795 157.171956 352.733974 158.943146 354.846154 163.634850 356.958333 182.660008 359.070513 178.931853 361.182692 162.942225 363.294872 182.299638 365.407051 182.299638 367.519231 182.299638 369.631410 182.299638 371.743590 182.299638 373.855769 182.299638 375.967949 153.250000 378.080128 153.250000 380.192308 153.250000 382.304487 153.250000 384.416667 153.250000 386.528846 153.250000 388.641026 153.250000 390.753205 153.250000 392.865385 153.250000 394.977564 153.250000 397.089744 153.250000 399.201923 153.250000 401.314103 153.250000 403.426282 153.250000 405.538462 153.250000 407.650641 153.250000 409.762821 153.250000 411.875000 153.250000 413.987179 153.250000 416.099359 153.250000 418.211538 153.250000 420.323718 153.250000 422.435897 153.250000 424.548077 153.250000 426.660256 153.250000 428.772436 153.250000 430.884615 153.250000 432.996795 153.250000 435.108974 153.250000 437.221154 153.250000 439.333333 153.250000 441.445513 153.250000 443.557692 153.250000 445.669872 153.250000 447.782051 153.250000 449.894231 153.250000 452.006410 153.250000 454.118590 153.250000 456.230769 153.250000 458.342949 153.250000 460.455128 153.250000 462.567308 153.250000 464.679487 153.250000 466.791667 153.250000 468.903846 153.250000 471.016026 153.250000 473.128205 153.250000 475.240385 153.250000 477.352564 153.250000 479.464744 153.250000 481.576923 153.250000 483.689103 153.250000 485.801282 153.250000 487.913462 153.250000 490.025641 153.250000 492.137821 153.250000 494.250000 153.250000 496.362179 153.250000 498.474359 153.250000 500.586538 153.250000 502.698718 153.250000 504.810897 153.250000 506.923077 153.250000 509.035256 153.250000 511.147436 153.250000 513.259615 153.250000 515.371795 153.250000 517.483974 153.250000 519.596154 153.250000 521.708333 153.250000 523.820513 153.250000 525.932692 153.250000 528.044872 153.250000 530.157051 153.250000 532.269231 153.250000 534.381410 153.250000 536.493590 153.250000 538.605769 153.250000 540.717949 153.250000 542.830128 153.250000 544.942308 153.250000 547.054487 153.250000 549.166667 153.250000 551.278846 153.250000 553.391026 153.250000 555.503205 153.250000 557.615385 153.250000 559.727564 153.250000 561.839744 153.250000 563.951923 153.250000 566.064103 153.250000 568.176282 153.250000 570.288462 153.250000 572.400641 153.250000 574.512821 153.250000 576.625000 153.250000 578.737179 153.250000 580.849359 153.250000 582.961538 153.250000 585.073718 153.250000 587.185897 153.250000 589.298077 153.250000 591.410256 153.250000 593.522436 153.250000 595.634615 153.250000 597.746795 153.250000 599.858974 153.250000 601.971154 153.250000 604.083333 153.250000 606.195513 153.250000 608.307692 153.250000 610.419872 153.250000 612.532051 153.250000 614.644231 153.250000 616.756410 153.250000 618.868590 153.250000 620.980769 153.250000 623.092949 153.250000 625.205128 153.250000 627.317308 153.250000 629.429487 153.250000 631.541667 153.250000 633.653846 153.250000 635.766026 153.250000 637.878205 153.250000 639.990385 153.250000 642.102564 153.250000 644.214744 153.250000 646.326923 153.250000"/></g><g class="series serie-4 color-4"><path class="line reactive nofill" d="M12.673077 153.250000 L14.785256 153.250000 16.897436 153.250000 19.009615 153.250000 21.121795 153.250000 23.233974 153.250000 25.346154 153.250000 27.458333 153.250000 29.570513 153.250000 31.682692 153.250000 33.794872 153.250000 35.907051 153.250000 38.019231 153.250000 40.131410 153.250000 42.243590 153.250000 44.355769 153.250000 46.467949 153.250000 48.580128 153.250000 50.692308 153.250000 52.804487 153.250000 54.916667 153.250000 57.028846 153.250000 59.141026 153.250000 61.253205 153.250000 63.365385 153.250000 65.477564 153.250000 67.589744 153.250000 69.701923 153.250000 71.814103 153.250000 73.926282 153.250000 76.038462 153.250000 78.150641 153.250000 80.262821 153.250000 82.375000 153.250000 84.487179 153.250000 86.599359 153.202861 88.711538 153.202861 90.823718 153.202861 92.935897 152.985085 95.048077 152.985085 97.160256 150.290291 99.272436 150.290291 101.384615 150.290291 103.496795 150.290291 105.608974 150.290291 107.721154 151.146827 109.833333 151.146827 111.945513 151.614199 114.057692 151.785086 116.169872 148.086698 118.282051 140.021708 120.394231 142.568286 122.506410 143.673297 124.618590 143.673297 126.730769 145.081607 128.842949 145.005029 130.955128 146.550949 133.067308 146.271556 135.179487 145.872357 137.291667 144.953864 139.403846 145.550149 141.516026 145.517275 143.628205 145.618914 145.740385 145.718291 147.852564 145.177635 149.964744 145.259421 152.076923 145.870948 154.189103 145.658028 156.301282 145.802030 158.413462 146.236514 160.525641 147.562242 162.637821 147.084783 164.750000 148.219257 166.862179 148.889015 168.974359 149.084900 171.086538 149.374879 173.198718 149.263001 175.310897 149.466394 177.423077 149.913519 179.535256 151.243308 181.647436 151.651061 183.759615 152.152560 185.871795 152.232627 187.983974 152.234440 190.096154 152.473596 192.208333 152.704150 194.320513 152.702054 196.432692 152.929331 198.544872 152.953888 200.657051 152.980011 202.769231 153.199303 204.881410 153.729224 206.993590 153.739593 209.105769 153.755792 211.217949 153.770140 213.330128 153.776900 215.442308 153.774782 217.554487 153.773362 219.666667 153.767843 221.778846 153.486620 223.891026 153.550714 226.003205 153.822960 228.115385 153.807688 230.227564 153.767336 232.339744 153.741683 234.451923 153.808205 236.564103 153.802726 238.676282 153.826843 240.788462 153.862060 242.900641 153.918699 245.012821 153.818941 247.125000 153.761304 249.237179 153.771432 251.349359 153.742983 253.461538 153.679529 255.573718 153.576350 257.685897 153.538794 259.798077 153.666488 261.910256 153.697958 264.022436 153.813195 266.134615 153.807840 268.246795 153.685219 270.358974 153.730062 272.471154 153.741878 274.583333 153.756196 276.695513 153.716603 278.807692 153.770783 280.919872 153.771756 283.032051 153.768340 285.144231 153.811897 287.256410 153.798957 289.368590 153.787775 291.480769 153.837674 293.592949 153.894986 295.705128 153.969011 297.817308 154.124364 299.929487 154.188341 302.041667 154.163309 304.153846 154.387674 306.266026 154.379845 308.378205 154.933143 310.490385 155.177120 312.602564 155.107380 314.714744 155.175571 316.826923 155.357082 318.939103 155.548382 321.051282 155.371024 323.163462 155.382348 325.275641 155.445997 327.387821 155.313516 329.500000 155.545779 331.612179 155.835772 333.724359 155.865415 335.836538 155.865884 337.948718 155.876659 340.060897 155.941961 342.173077 156.566541 344.285256 157.174335 346.397436 157.106720 348.509615 157.103293 350.621795 157.171956 352.733974 158.943146 354.846154 163.634850 356.958333 182.660008 359.070513 178.931853 361.182692 162.942225 363.294872 182.299638 365.407051 182.299638 367.519231 182.299638 369.631410 182.299638 371.743590 182.299638 373.855769 182.299638 375.967949 153.250000 378.080128 153.250000 380.192308 153.250000 382.304487 153.250000 384.416667 153.250000 386.528846 153.250000 388.641026 153.250000 390.753205 153.250000 392.865385 153.250000 394.977564 153.250000 397.089744 153.250000 399.201923 153.250000 401.314103 153.250000 403.426282 153.250000 405.538462 153.250000 407.650641 153.250000 409.762821 153.250000 411.875000 153.250000 413.987179 153.250000 416.099359 153.250000 418.211538 153.250000 420.323718 153.250000 422.435897 153.250000 424.548077 153.250000 426.660256 153.250000 428.772436 153.250000 430.884615 153.250000 432.996795 153.250000 435.108974 153.250000 437.221154 153.250000 439.333333 153.250000 441.445513 153.250000 443.557692 153.250000 445.669872 153.250000 447.782051 153.250000 449.894231 153.250000 452.006410 153.250000 454.118590 153.250000 456.230769 153.250000 458.342949 153.250000 460.455128 153.250000 462.567308 153.250000 464.679487 153.250000 466.791667 153.250000 468.903846 153.250000 471.016026 153.250000 473.128205 153.250000 475.240385 153.250000 477.352564 153.250000 479.464744 153.250000 481.576923 153.250000 483.689103 153.250000 485.801282 153.250000 487.913462 153.250000 490.025641 153.250000 492.137821 153.250000 494.250000 153.250000 496.362179 153.250000 498.474359 153.250000 500.586538 153.250000 502.698718 153.250000 504.810897 153.250000 506.923077 153.250000 509.035256 153.250000 511.147436 153.250000 513.259615 153.250000 515.371795 153.250000 517.483974 153.250000 519.596154 153.250000 521.708333 153.250000 523.820513 153.250000 525.932692 153.250000 528.044872 153.250000 530.157051 153.250000 532.269231 153.250000 534.381410 153.250000 536.493590 153.250000 538.605769 153.250000 540.717949 153.250000 542.830128 153.250000 544.942308 153.250000 547.054487 153.250000 549.166667 153.250000 551.278846 153.250000 553.391026 153.250000 555.503205 153.250000 557.615385 153.250000 559.727564 153.250000 561.839744 153.250000 563.951923 153.250000 566.064103 153.250000 568.176282 153.250000 570.288462 153.250000 572.400641 153.250000 574.512821 153.250000 576.625000 153.250000 578.737179 153.250000 580.849359 153.250000 582.961538 153.250000 585.073718 153.250000 587.185897 153.250000 589.298077 153.250000 591.410256 153.250000 593.522436 153.250000 595.634615 153.250000 597.746795 153.250000 599.858974 153.250000 601.971154 153.250000 604.083333 153.250000 606.195513 153.250000 608.307692 153.250000 610.419872 153.250000 612.532051 153.250000 614.644231 153.250000 616.756410 153.250000 618.868590 153.250000 620.980769 153.250000 623.092949 153.250000 625.205128 153.250000 627.317308 153.250000 629.429487 153.250000 631.541667 153.250000 633.653846 153.250000 635.766026 153.250000 637.878205 153.250000 639.990385 153.250000 642.102564 153.250000 644.214744 153.250000 646.326923 153.250000"/></g><g class="series serie-5 color-5"><path class="line reactive nofill" d="M12.673077 153.250000 L14.785256 153.250000 16.897436 153.250000 19.009615 153.250000 21.121795 153.250000 23.233974 153.250000 25.346154 153.250000 27.458333 153.250000 29.570513 153.250000 31.682692 153.250000 33.794872 153.250000 35.907051 153.250000 38.019231 153.250000 40.131410 153.250000 42.243590 153.250000 44.355769 153.250000 46.467949 153.250000 48.580128 153.250000 50.692308 153.250000 52.804487 153.250000 54.916667 153.250000 57.028846 153.250000 59.141026 153.250000 61.253205 153.250000 63.365385 153.250000 65.477564 153.250000 67.589744 153.250000 69.701923 153.250000 71.814103 153.250000 73.926282 153.250000 76.038462 153.250000 78.150641 153.250000 80.262821 153.250000 82.375000 153.250000 84.487179 153.250000 86.599359 83.327635 88.711538 83.327635 90.823718 83.327635 92.935897 50.595492 95.048077 50.595492 97.160256 80.185472 99.272436 80.185472 101.384615 80.185472 103.496795 80.185472 105.608974 80.185472 107.721154 80.245667 109.833333 80.245667 111.945513 80.107737 114.057692 87.305582 116.169872 90.725082 118.282051 106.273844 120.394231 112.413740 122.506410 116.648425 124.618590 116.648425 126.730769 120.254678 128.842949 130.650463 130.955128 129.625982 133.067308 131.237520 135.179487 133.213979 137.291667 135.916555 139.403846 138.404931 141.516026 140.344463 143.628205 140.516391 145.740385 140.677991 147.852564 141.292633 149.964744 141.648161 152.076923 142.527219 154.189103 143.876439 156.301282 144.067891 158.413462 143.822705 160.525641 145.573168 162.637821 146.467291 164.750000 145.944194 166.862179 146.164534 168.974359 146.080550 171.086538 146.413728 173.198718 147.102844 175.310897 147.305293 177.423077 147.004949 179.535256 147.616682 181.647436 148.246266 183.759615 148.772730 185.871795 148.871483 187.983974 148.756077 190.096154 148.578632 192.208333 148.973210 194.320513 148.842469 196.432692 148.923945 198.544872 149.126434 200.657051 149.631795 202.769231 149.726563 204.881410 149.750246 206.993590 150.416949 209.105769 150.690892 211.217949 150.905061 213.330128 150.871849 215.442308 150.879691 217.554487 150.886636 219.666667 151.375975 221.778846 151.432832 223.891026 151.593708 226.003205 151.669116 228.115385 151.829419 230.227564 151.902056 232.339744 152.102935 234.451923 152.136136 236.564103 152.263841 238.676282 152.297491 240.788462 152.329263 242.900641 152.307781 245.012821 152.600702 247.125000 153.039176 249.237179 153.094112 251.349359 153.287866 253.461538 153.277135 255.573718 153.558409 257.685897 153.673795 259.798077 153.766843 261.910256 153.765249 264.022436 153.966845 266.134615 153.936207 268.246795 153.958890 270.358974 154.052224 272.471154 154.178682 274.583333 154.176600 276.695513 154.189962 278.807692 154.269226 280.919872 154.317998 283.032051 154.482686 285.144231 154.523124 287.256410 154.775416 289.368590 154.925624 291.480769 154.910552 293.592949 154.964313 295.705128 155.032439 297.817308 155.196251 299.929487 155.216892 302.041667 155.484281 304.153846 156.350613 306.266026 156.732140 308.378205 158.293826 310.490385 159.008669 312.602564 159.196713 314.714744 159.219330 316.826923 159.185027 318.939103 159.376789 321.051282 159.233517 323.163462 159.073390 325.275641 158.531485 327.387821 158.492234 329.500000 157.692413 331.612179 156.964689 333.724359 157.519085 335.836538 157.393113 337.948718 157.988048 340.060897 158.024590 342.173077 159.126714 344.285256 159.591909 346.397436 159.608087 348.509615 159.271630 350.621795 159.625281 352.733974 162.557518 354.846154 165.878079 356.958333 189.338082 359.070513 207.699102 361.182692 201.224314 363.294872 222.681064 365.407051 222.681064 367.519231 222.681064 369.631410 222.681064 371.743590 222.681064 373.855769 222.681064 375.967949 153.250000 378.080128 153.250000 380.192308 153.250000 382.304487 153.250000 384.416667 153.250000 386.528846 153.250000 388.641026 153.250000 390.753205 153.250000 392.865385 153.250000 394.977564 153.250000 397.089744 153.250000 399.201923 153.250000 401.314103 153.250000 403.426282 153.250000 405.538462 153.250000 407.650641 153.250000 409.762821 153.250000 411.875000 153.250000 413.987179 153.250000 416.099359 153.250000 418.211538 153.250000 420.323718 153.250000 422.435897 153.250000 424.548077 153.250000 426.660256 153.250000 428.772436 153.250000 430.884615 153.250000 432.996795 153.250000 435.108974 153.250000 437.221154 153.250000 439.333333 153.250000 441.445513 153.250000 443.557692 153.250000 445.669872 153.250000 447.782051 153.250000 449.894231 153.250000 452.006410 153.250000 454.118590 153.250000 456.230769 153.250000 458.342949 153.250000 460.455128 153.250000 462.567308 153.250000 464.679487 153.250000 466.791667 153.250000 468.903846 153.250000 471.016026 153.250000 473.128205 153.250000 475.240385 153.250000 477.352564 153.250000 479.464744 153.250000 481.576923 153.250000 483.689103 153.250000 485.801282 153.250000 487.913462 153.250000 490.025641 153.250000 492.137821 153.250000 494.250000 153.250000 496.362179 153.250000 498.474359 153.250000 500.586538 153.250000 502.698718 153.250000 504.810897 153.250000 506.923077 153.250000 509.035256 153.250000 511.147436 153.250000 513.259615 153.250000 515.371795 153.250000 517.483974 153.250000 519.596154 153.250000 521.708333 153.250000 523.820513 153.250000 525.932692 153.250000 528.044872 153.250000 530.157051 153.250000 532.269231 153.250000 534.381410 153.250000 536.493590 153.250000 538.605769 153.250000 540.717949 153.250000 542.830128 153.250000 544.942308 153.250000 547.054487 153.250000 549.166667 153.250000 551.278846 153.250000 553.391026 153.250000 555.503205 153.250000 557.615385 153.250000 559.727564 153.250000 561.839744 153.250000 563.951923 153.250000 566.064103 153.250000 568.176282 153.250000 570.288462 153.250000 572.400641 153.250000 574.512821 153.250000 576.625000 153.250000 578.737179 153.250000 580.849359 153.250000 582.961538 153.250000 585.073718 153.250000 587.185897 153.250000 589.298077 153.250000 591.410256 153.250000 593.522436 153.250000 595.634615 153.250000 597.746795 153.250000 599.858974 153.250000 601.971154 153.250000 604.083333 153.250000 606.195513 153.250000 608.307692 153.250000 610.419872 153.250000 612.532051 153.250000 614.644231 153.250000 616.756410 153.250000 618.868590 153.250000 620.980769 153.250000 623.092949 153.250000 625.205128 153.250000 627.317308 153.250000 629.429487 153.250000 631.541667 153.250000 633.653846 153.250000 635.766026 153.250000 637.878205 153.250000 639.990385 153.250000 642.102564 153.250000 644.214744 153.250000 646.326923 153.250000"/></g><g class="series serie-6 color-6"><path class="line reactive nofill" d="M12.673077 153.250000 L14.785256 153.250000 16.897436 153.250000 19.009615 153.250000 21.121795 153.250000 23.233974 153.250000 25.346154 153.250000 27.458333 153.250000 29.570513 153.250000 31.682692 153.250000 33.794872 153.250000 35.907051 153.250000 38.019231 153.250000 40.131410 153.250000 42.243590 153.250000 44.355769 153.250000 46.467949 153.250000 48.580128 153.250000 50.692308 153.250000 52.804487 153.250000 54.916667 153.250000 57.028846 153.250000 59.141026 153.250000 61.253205 153.250000 63.365385 153.250000 65.477564 153.250000 67.589744 153.250000 69.701923 153.250000 71.814103 153.250000 73.926282 153.250000 76.038462 153.250000 78.150641 153.250000 80.262821 153.250000 82.375000 153.250000 84.487179 153.250000 86.599359 107.621305 88.711538 107.621305 90.823718 107.621305 92.935897 92.593908 95.048077 92.593908 97.160256 104.638517 99.272436 104.638517 101.384615 104.638517 103.496795 104.638517 105.608974 104.638517 107.721154 118.348085 109.833333 118.348085 111.945513 126.115815 114.057692 128.897717 116.169872 127.356216 118.282051 139.452755 120.394231 142.113432 122.506410 143.275735 124.618590 143.275735 126.730769 142.856500 128.842949 146.686284 130.955128 146.147106 133.067308 146.946267 135.179487 147.656482 137.291667 147.867298 139.403846 147.853690 141.516026 148.053334 143.628205 148.123157 145.740385 148.185323 147.852564 148.426929 149.964744 147.747646 152.076923 148.145353 154.189103 148.202830 156.301282 148.422893 158.413462 148.785302 160.525641 149.027789 162.637821 149.088692 164.750000 148.510135 166.862179 147.971483 168.974359 148.097389 171.086538 147.993314 173.198718 148.141450 175.310897 147.955431 177.423077 147.276152 179.535256 147.007893 181.647436 146.580960 183.759615 147.085915 185.871795 147.064251 187.983974 146.952860 190.096154 146.878637 192.208333 147.033327 194.320513 146.896616 196.432692 146.924512 198.544872 146.874721 200.657051 146.397292 202.769231 146.054582 204.881410 146.164340 206.993590 146.502959 209.105769 146.938935 211.217949 146.804423 213.330128 146.816565 215.442308 146.839005 217.554487 146.944751 219.666667 147.651705 221.778846 148.317217 223.891026 149.167177 226.003205 149.563413 228.115385 150.054701 230.227564 150.434396 232.339744 150.616004 234.451923 150.764035 236.564103 150.909934 238.676282 151.057276 240.788462 151.289208 242.900641 152.062161 245.012821 153.358693 247.125000 153.931632 249.237179 154.281205 251.349359 154.216296 253.461538 154.275391 255.573718 154.271077 257.685897 154.737351 259.798077 155.105851 261.910256 154.893371 264.022436 155.079726 266.134615 155.068053 268.246795 155.056407 270.358974 155.105144 272.471154 155.116352 274.583333 155.148288 276.695513 155.132685 278.807692 155.220933 280.919872 155.266677 283.032051 155.397130 285.144231 155.432007 287.256410 155.671004 289.368590 155.807132 291.480769 155.799682 293.592949 155.989985 295.705128 156.161778 297.817308 156.619054 299.929487 156.738769 302.041667 156.977269 304.153846 158.594096 306.266026 159.859002 308.378205 162.105360 310.490385 163.560325 312.602564 164.567993 314.714744 165.188635 316.826923 165.509662 318.939103 165.510053 321.051282 165.609593 323.163462 165.502593 325.275641 165.269143 327.387821 165.449745 329.500000 165.393881 331.612179 165.615157 333.724359 166.412025 335.836538 166.727182 337.948718 167.897103 340.060897 168.985282 342.173077 169.577980 344.285256 170.117292 346.397436 169.322567 348.509615 165.111440 350.621795 170.495083 352.733974 175.799924 354.846154 177.270838 356.958333 208.524694 359.070513 199.293824 361.182692 214.576571 363.294872 188.371957 365.407051 188.371957 367.519231 188.371957 369.631410 188.371957 371.743590 188.371957 373.855769 188.371957 375.967949 153.250000 378.080128 153.250000 380.192308 153.250000 382.304487 153.250000 384.416667 153.250000 386.528846 153.250000 388.641026 153.250000 390.753205 153.250000 392.865385 153.250000 394.977564 153.250000 397.089744 153.250000 399.201923 153.250000 401.314103 153.250000 403.426282 153.250000 405.538462 153.250000 407.650641 153.250000 409.762821 153.250000 411.875000 153.250000 413.987179 153.250000 416.099359 153.250000 418.211538 153.250000 420.323718 153.250000 422.435897 153.250000 424.548077 153.250000 426.660256 153.250000 428.772436 153.250000 430.884615 153.250000 432.996795 153.250000 435.108974 153.250000 437.221154 153.250000 439.333333 153.250000 441.445513 153.250000 443.557692 153.250000 445.669872 153.250000 447.782051 153.250000 449.894231 153.250000 452.006410 153.250000 454.118590 153.250000 456.230769 153.250000 458.342949 153.250000 460.455128 153.250000 462.567308 153.250000 464.679487 153.250000 466.791667 153.250000 468.903846 153.250000 471.016026 153.250000 473.128205 153.250000 475.240385 153.250000 477.352564 153.250000 479.464744 153.250000 481.576923 153.250000 483.689103 153.250000 485.801282 153.250000 487.913462 153.250000 490.025641 153.250000 492.137821 153.250000 494.250000 153.250000 496.362179 153.250000 498.474359 153.250000 500.586538 153.250000 502.698718 153.250000 504.810897 153.250000 506.923077 153.250000 509.035256 153.250000 511.147436 153.250000 513.259615 153.250000 515.371795 153.250000 517.483974 153.250000 519.596154 153.250000 521.708333 153.250000 523.820513 153.250000 525.932692 153.250000 528.044872 153.250000 530.157051 153.250000 532.269231 153.250000 534.381410 153.250000 536.493590 153.250000 538.605769 153.250000 540.717949 153.250000 542.830128 153.250000 544.942308 153.250000 547.054487 153.250000 549.166667 153.250000 551.278846 153.250000 553.391026 153.250000 555.503205 153.250000 557.615385 153.250000 559.727564 153.250000 561.839744 153.250000 563.951923 153.250000 566.064103 153.250000 568.176282 153.250000 570.288462 153.250000 572.400641 153.250000 574.512821 153.250000 576.625000 153.250000 578.737179 153.250000 580.849359 153.250000 582.961538 153.250000 585.073718 153.250000 587.185897 153.250000 589.298077 153.250000 591.410256 153.250000 593.522436 153.250000 595.634615 153.250000 597.746795 153.250000 599.858974 153.250000 601.971154 153.250000 604.083333 153.250000 606.195513 153.250000 608.307692 153.250000 610.419872 153.250000 612.532051 153.250000 614.644231 153.250000 616.756410 153.250000 618.868590 153.250000 620.980769 153.250000 623.092949 153.250000 625.205128 153.250000 627.317308 153.250000 629.429487 153.250000 631.541667 153.250000 633.653846 153.250000 635.766026 153.250000 637.878205 153.250000 639.990385 153.250000 642.102564 153.250000 644.214744 153.250000 646.326923 153.250000"/></g><g class="series serie-7 color-7"><path class="line reactive nofill" d="M12.673077 153.250000 L14.785256 153.250000 16.897436 153.250000 19.009615 153.250000 21.121795 153.250000 23.233974 153.250000 25.346154 153.250000 27.458333 153.250000 29.570513 153.250000 31.682692 153.250000 33.794872 153.250000 35.907051 153.250000 38.019231 153.250000 40.131410 153.250000 42.243590 153.250000 44.355769 153.250000 46.467949 153.250000 48.580128 153.250000 50.692308 153.250000 52.804487 153.250000 54.916667 153.250000 57.028846 153.250000 59.141026 153.250000 61.253205 153.250000 63.365385 153.250000 65.477564 153.250000 67.589744 153.250000 69.701923 153.250000 71.814103 153.250000 73.926282 153.250000 76.038462 153.250000 78.150641 153.250000 80.262821 153.250000 82.375000 153.250000 84.487179 153.250000 86.599359 87.952060 88.711538 87.952060 90.823718 87.952060 92.935897 79.166128 95.048077 79.166128 97.160256 81.846272 99.272436 81.846272 101.384615 81.846272 103.496795 81.846272 105.608974 81.846272 107.721154 81.290696 109.833333 81.290696 111.945513 89.106970 114.057692 95.589757 116.169872 97.415345 118.282051 95.828747 120.394231 92.709274 122.506410 96.411814 124.618590 96.411814 126.730769 102.532691 128.842949 112.574970 130.955128 113.788809 133.067308 117.137832 135.179487 119.248907 137.291667 122.586283 139.403846 128.462396 141.516026 130.529066 143.628205 130.343066 145.740385 130.637651 147.852564 130.849397 149.964744 132.916341 152.076923 134.470740 154.189103 135.884989 156.301282 136.193978 158.413462 136.939919 160.525641 140.008600 162.637821 141.736780 164.750000 141.435455 166.862179 142.602241 168.974359 142.712519 171.086538 143.805434 173.198718 144.609299 175.310897 144.825676 177.423077 144.882643 179.535256 145.984936 181.647436 146.921605 183.759615 148.032640 185.871795 148.535433 187.983974 148.544841 190.096154 148.737398 192.208333 148.961040 194.320513 148.939428 196.432692 149.131347 198.544872 149.330205 200.657051 149.277009 202.769231 149.834081 204.881410 150.369624 206.993590 151.402504 209.105769 151.544414 211.217949 151.785377 213.330128 151.763718 215.442308 151.769687 217.554487 151.775312 219.666667 152.196665 221.778846 152.478173 223.891026 152.570421 226.003205 152.604795 228.115385 152.715373 230.227564 152.720508 232.339744 152.752373 234.451923 152.770030 236.564103 152.825828 238.676282 152.800366 240.788462 152.860598 242.900641 153.187391 245.012821 153.242158 247.125000 153.404673 249.237179 153.390219 251.349359 153.368994 253.461538 153.365464 255.573718 153.418674 257.685897 153.402468 259.798077 153.382854 261.910256 153.379532 264.022436 153.410629 266.134615 153.476957 268.246795 153.481712 270.358974 153.505289 272.471154 153.528247 274.583333 153.533967 276.695513 153.535729 278.807692 153.605271 280.919872 153.605397 283.032051 153.650731 285.144231 153.697126 287.256410 153.909460 289.368590 154.077434 291.480769 154.082555 293.592949 154.097775 295.705128 154.124611 297.817308 154.248653 299.929487 154.319380 302.041667 154.599265 304.153846 155.203110 306.266026 155.468235 308.378205 157.044250 310.490385 157.749219 312.602564 157.845583 314.714744 158.015088 316.826923 157.992461 318.939103 158.184223 321.051282 158.228785 323.163462 158.255225 325.275641 158.205067 327.387821 158.156979 329.500000 157.609371 331.612179 157.132240 333.724359 157.715997 335.836538 158.257232 337.948718 158.965523 340.060897 159.598940 342.173077 161.077152 344.285256 161.875742 346.397436 162.539961 348.509615 164.646522 350.621795 163.062185 352.733974 165.101517 354.846154 170.640142 356.958333 202.715929 359.070513 227.244215 361.182692 227.284464 363.294872 227.867201 365.407051 227.867201 367.519231 227.867201 369.631410 227.867201 371.743590 227.867201 373.855769 227.867201 375.967949 153.250000 378.080128 153.250000 380.192308 153.250000 382.304487 153.250000 384.416667 153.250000 386.528846 153.250000 388.641026 153.250000 390.753205 153.250000 392.865385 153.250000 394.977564 153.250000 397.089744 153.250000 399.201923 153.250000 401.314103 153.250000 403.426282 153.250000 405.538462 153.250000 407.650641 153.250000 409.762821 153.250000 411.875000 153.250000 413.987179 153.250000 416.099359 153.250000 418.211538 153.250000 420.323718 153.250000 422.435897 153.250000 424.548077 153.250000 426.660256 153.250000 428.772436 153.250000 430.884615 153.250000 432.996795 153.250000 435.108974 153.250000 437.221154 153.250000 439.333333 153.250000 441.445513 153.250000 443.557692 153.250000 445.669872 153.250000 447.782051 153.250000 449.894231 153.250000 452.006410 153.250000 454.118590 153.250000 456.230769 153.250000 458.342949 153.250000 460.455128 153.250000 462.567308 153.250000 464.679487 153.250000 466.791667 153.250000 468.903846 153.250000 471.016026 153.250000 473.128205 153.250000 475.240385 153.250000 477.352564 153.250000 479.464744 153.250000 481.576923 153.250000 483.689103 153.250000 485.801282 153.250000 487.913462 153.250000 490.025641 153.250000 492.137821 153.250000 494.250000 153.250000 496.362179 153.250000 498.474359 153.250000 500.586538 153.250000 502.698718 153.250000 504.810897 153.250000 506.923077 153.250000 509.035256 153.250000 511.147436 153.250000 513.259615 153.250000 515.371795 153.250000 517.483974 153.250000 519.596154 153.250000 521.708333 153.250000 523.820513 153.250000 525.932692 153.250000 528.044872 153.250000 530.157051 153.250000 532.269231 153.250000 534.381410 153.250000 536.493590 153.250000 538.605769 153.250000 540.717949 153.250000 542.830128 153.250000 544.942308 153.250000 547.054487 153.250000 549.166667 153.250000 551.278846 153.250000 553.391026 153.250000 555.503205 153.250000 557.615385 153.250000 559.727564 153.250000 561.839744 153.250000 563.951923 153.250000 566.064103 153.250000 568.176282 153.250000 570.288462 153.250000 572.400641 153.250000 574.512821 153.250000 576.625000 153.250000 578.737179 153.250000 580.849359 153.250000 582.961538 153.250000 585.073718 153.250000 587.185897 153.250000 589.298077 153.250000 591.410256 153.250000 593.522436 153.250000 595.634615 153.250000 597.746795 153.250000 599.858974 153.250000 601.971154 153.250000 604.083333 153.250000 606.195513 153.250000 608.307692 153.250000 610.419872 153.250000 612.532051 153.250000 614.644231 153.250000 616.756410 153.250000 618.868590 153.250000 620.980769 153.250000 623.092949 153.250000 625.205128 153.250000 627.317308 153.250000 629.429487 153.250000 631.541667 153.250000 633.653846 153.250000 635.766026 153.250000 637.878205 153.250000 639.990385 153.250000 642.102564 153.250000 644.214744 153.250000 646.326923 153.250000"/></g></g><g class="titles"><text class="title plot_title" x="400.0" y="28">Mean OE1 for Tempo T ±10.0 BPM</text><text class="title" x="450.5" y="437.5">T (BPM)</text><text class="title" x="0" y="229.25" transform="rotate(-90 0.000000 201.250000)">Mean OE1 (TO)</text></g><g class="plot overlay" transform="translate(121, 48)"><g class="series serie-0 color-0"><g class="dots"><circle class="dot reactive tooltip-trigger" cx="12.673076923076922" cy="153.25" r="2.5"/><desc class="value">0.0000</desc><desc class="x ">12.673076923076922</desc><desc class="y ">153.25</desc><desc class="x_label">0.0</desc></g><g class="dots"><circle class="dot reactive tooltip-trigger" cx="76.03846153846155" cy="153.25" r="2.5"/><desc class="value">0.0000</desc><desc class="x ">76.03846153846155</desc><desc class="y ">153.25</desc><desc class="x_label">30.0</desc></g><g class="dots"><circle class="dot reactive tooltip-trigger" cx="139.40384615384613" cy="139.29381153080814" r="2.5"/><desc class="value">0.1894</desc><desc class="x ">139.40384615384613</desc><desc class="y ">139.29381153080814</desc><desc class="x_label">60.0</desc></g><g class="dots"><circle class="dot reactive tooltip-trigger" cx="202.76923076923075" cy="149.45445741779298" r="2.5"/><desc class="value">0.0515</desc><desc class="x ">202.76923076923075</desc><desc class="y ">149.45445741779298</desc><desc class="x_label">90.0</desc></g><g class="dots"><circle class="dot reactive tooltip-trigger" cx="266.1346153846154" cy="155.76418536711643" r="2.5"/><desc class="value">-0.0341</desc><desc class="x top">266.1346153846154</desc><desc class="y top">155.76418536711643</desc><desc class="x_label">120.0</desc></g><g class="dots"><circle class="dot reactive tooltip-trigger" cx="329.5" cy="166.2764340114574" r="2.5"/><desc class="value">-0.1768</desc><desc class="x top">329.5</desc><desc class="y top">166.2764340114574</desc><desc class="x_label">150.0</desc></g><g class="dots"><circle class="dot reactive tooltip-trigger" cx="392.8653846153846" cy="153.25" r="2.5"/><desc class="value">0.0000</desc><desc class="x left">392.8653846153846</desc><desc class="y left">153.25</desc><desc class="x_label">180.0</desc></g><g class="dots"><circle class="dot reactive tooltip-trigger" cx="456.23076923076917" cy="153.25" r="2.5"/><desc class="value">0.0000</desc><desc class="x left">456.23076923076917</desc><desc class="y left">153.25</desc><desc class="x_label">210.0</desc></g><g class="dots"><circle class="dot reactive tooltip-trigger" cx="519.5961538461538" cy="153.25" r="2.5"/><desc class="value">0.0000</desc><desc class="x left">519.5961538461538</desc><desc class="y left">153.25</desc><desc class="x_label">240.0</desc></g><g class="dots"><circle class="dot reactive tooltip-trigger" cx="582.9615384615385" cy="153.25" r="2.5"/><desc class="value">0.0000</desc><desc class="x left">582.9615384615385</desc><desc class="y left">153.25</desc><desc class="x_label">270.0</desc></g><g class="dots"><circle class="dot reactive tooltip-trigger" cx="646.3269230769231" cy="153.25" r="2.5"/><desc class="value">0.0000</desc><desc class="x left">646.3269230769231</desc><desc class="y left">153.25</desc><desc class="x_label">300.0</desc></g></g><g class="series serie-1 color-1"><g class="dots"><circle class="dot reactive tooltip-trigger" cx="12.673076923076922" cy="153.25" r="2.5"/><desc class="value">0.0000</desc><desc class="x ">12.673076923076922</desc><desc class="y ">153.25</desc><desc class="x_label">0.0</desc></g><g class="dots"><circle class="dot reactive tooltip-trigger" cx="76.03846153846155" cy="153.25" r="2.5"/><desc class="value">0.0000</desc><desc class="x ">76.03846153846155</desc><desc class="y ">153.25</desc><desc class="x_label">30.0</desc></g><g class="dots"><circle class="dot reactive tooltip-trigger" cx="139.40384615384613" cy="84.96050167270164" r="2.5"/><desc class="value">0.9269</desc><desc class="x ">139.40384615384613</desc><desc class="y ">84.96050167270164</desc><desc class="x_label">60.0</desc></g><g class="dots"><circle class="dot reactive tooltip-trigger" cx="202.76923076923075" cy="140.28549636697588" r="2.5"/><desc class="value">0.1760</desc><desc class="x ">202.76923076923075</desc><desc class="y ">140.28549636697588</desc><desc class="x_label">90.0</desc></g><g class="dots"><circle class="dot reactive tooltip-trigger" cx="266.1346153846154" cy="151.9565847246403" r="2.5"/><desc class="value">0.0176</desc><desc class="x ">266.1346153846154</desc><desc class="y ">151.9565847246403</desc><desc class="x_label">120.0</desc></g><g class="dots"><circle class="dot reactive tooltip-trigger" cx="329.5" cy="153.85694711785953" r="2.5"/><desc class="value">-0.0082</desc><desc class="x top">329.5</desc><desc class="y top">153.85694711785953</desc><desc class="x_label">150.0</desc></g><g class="dots"><circle class="dot reactive tooltip-trigger" cx="392.8653846153846" cy="153.25" r="2.5"/><desc class="value">0.0000</desc><desc class="x left">392.8653846153846</desc><desc class="y left">153.25</desc><desc class="x_label">180.0</desc></g><g class="dots"><circle class="dot reactive tooltip-trigger" cx="456.23076923076917" cy="153.25" r="2.5"/><desc class="value">0.0000</desc><desc class="x left">456.23076923076917</desc><desc class="y left">153.25</desc><desc class="x_label">210.0</desc></g><g class="dots"><circle class="dot reactive tooltip-trigger" cx="519.5961538461538" cy="153.25" r="2.5"/><desc class="value">0.0000</desc><desc class="x left">519.5961538461538</desc><desc class="y left">153.25</desc><desc class="x_label">240.0</desc></g><g class="dots"><circle class="dot reactive tooltip-trigger" cx="582.9615384615385" cy="153.25" r="2.5"/><desc class="value">0.0000</desc><desc class="x left">582.9615384615385</desc><desc class="y left">153.25</desc><desc class="x_label">270.0</desc></g><g class="dots"><circle class="dot reactive tooltip-trigger" cx="646.3269230769231" cy="153.25" r="2.5"/><desc class="value">0.0000</desc><desc class="x left">646.3269230769231</desc><desc class="y left">153.25</desc><desc class="x_label">300.0</desc></g></g><g class="series serie-2 color-2"><g class="dots"><circle class="dot reactive tooltip-trigger" cx="12.673076923076922" cy="153.25" r="2.5"/><desc class="value">0.0000</desc><desc class="x ">12.673076923076922</desc><desc class="y ">153.25</desc><desc class="x_label">0.0</desc></g><g class="dots"><circle class="dot reactive tooltip-trigger" cx="76.03846153846155" cy="153.25" r="2.5"/><desc class="value">0.0000</desc><desc class="x ">76.03846153846155</desc><desc class="y ">153.25</desc><desc class="x_label">30.0</desc></g><g class="dots"><circle class="dot reactive tooltip-trigger" cx="139.40384615384613" cy="111.7778277710226" r="2.5"/><desc class="value">0.5629</desc><desc class="x ">139.40384615384613</desc><desc class="y ">111.7778277710226</desc><desc class="x_label">60.0</desc></g><g class="dots"><circle class="dot reactive tooltip-trigger" cx="202.76923076923075" cy="153.49010038793548" r="2.5"/><desc class="value">-0.0033</desc><desc class="x top">202.76923076923075</desc><desc class="y top">153.49010038793548</desc><desc class="x_label">90.0</desc></g><g class="dots"><circle class="dot reactive tooltip-trigger" cx="266.1346153846154" cy="155.3721200761813" r="2.5"/><desc class="value">-0.0288</desc><desc class="x top">266.1346153846154</desc><desc class="y top">155.3721200761813</desc><desc class="x_label">120.0</desc></g><g class="dots"><circle class="dot reactive tooltip-trigger" cx="329.5" cy="195.23849680237424" r="2.5"/><desc class="value">-0.5699</desc><desc class="x top">329.5</desc><desc class="y top">195.23849680237424</desc><desc class="x_label">150.0</desc></g><g class="dots"><circle class="dot reactive tooltip-trigger" cx="392.8653846153846" cy="153.25" r="2.5"/><desc class="value">0.0000</desc><desc class="x left">392.8653846153846</desc><desc class="y left">153.25</desc><desc class="x_label">180.0</desc></g><g class="dots"><circle class="dot reactive tooltip-trigger" cx="456.23076923076917" cy="153.25" r="2.5"/><desc class="value">0.0000</desc><desc class="x left">456.23076923076917</desc><desc class="y left">153.25</desc><desc class="x_label">210.0</desc></g><g class="dots"><circle class="dot reactive tooltip-trigger" cx="519.5961538461538" cy="153.25" r="2.5"/><desc class="value">0.0000</desc><desc class="x left">519.5961538461538</desc><desc class="y left">153.25</desc><desc class="x_label">240.0</desc></g><g class="dots"><circle class="dot reactive tooltip-trigger" cx="582.9615384615385" cy="153.25" r="2.5"/><desc class="value">0.0000</desc><desc class="x left">582.9615384615385</desc><desc class="y left">153.25</desc><desc class="x_label">270.0</desc></g><g class="dots"><circle class="dot reactive tooltip-trigger" cx="646.3269230769231" cy="153.25" r="2.5"/><desc class="value">0.0000</desc><desc class="x left">646.3269230769231</desc><desc class="y left">153.25</desc><desc class="x_label">300.0</desc></g></g><g class="series serie-3 color-3"><g class="dots"><circle class="dot reactive tooltip-trigger" cx="12.673076923076922" cy="153.25" r="2.5"/><desc class="value">0.0000</desc><desc class="x ">12.673076923076922</desc><desc class="y ">153.25</desc><desc class="x_label">0.0</desc></g><g class="dots"><circle class="dot reactive tooltip-trigger" cx="76.03846153846155" cy="153.25" r="2.5"/><desc class="value">0.0000</desc><desc class="x ">76.03846153846155</desc><desc class="y ">153.25</desc><desc class="x_label">30.0</desc></g><g class="dots"><circle class="dot reactive tooltip-trigger" cx="139.40384615384613" cy="143.72342450702365" r="2.5"/><desc class="value">0.1293</desc><desc class="x ">139.40384615384613</desc><desc class="y ">143.72342450702365</desc><desc class="x_label">60.0</desc></g><g class="dots"><circle class="dot reactive tooltip-trigger" cx="202.76923076923075" cy="151.55999274853875" r="2.5"/><desc class="value">0.0229</desc><desc class="x ">202.76923076923075</desc><desc class="y ">151.55999274853875</desc><desc class="x_label">90.0</desc></g><g class="dots"><circle class="dot reactive tooltip-trigger" cx="266.1346153846154" cy="153.80783978904526" r="2.5"/><desc class="value">-0.0076</desc><desc class="x top">266.1346153846154</desc><desc class="y top">153.80783978904526</desc><desc class="x_label">120.0</desc></g><g class="dots"><circle class="dot reactive tooltip-trigger" cx="329.5" cy="155.5457785628253" r="2.5"/><desc class="value">-0.0312</desc><desc class="x top">329.5</desc><desc class="y top">155.5457785628253</desc><desc class="x_label">150.0</desc></g><g class="dots"><circle class="dot reactive tooltip-trigger" cx="392.8653846153846" cy="153.25" r="2.5"/><desc class="value">0.0000</desc><desc class="x left">392.8653846153846</desc><desc class="y left">153.25</desc><desc class="x_label">180.0</desc></g><g class="dots"><circle class="dot reactive tooltip-trigger" cx="456.23076923076917" cy="153.25" r="2.5"/><desc class="value">0.0000</desc><desc class="x left">456.23076923076917</desc><desc class="y left">153.25</desc><desc class="x_label">210.0</desc></g><g class="dots"><circle class="dot reactive tooltip-trigger" cx="519.5961538461538" cy="153.25" r="2.5"/><desc class="value">0.0000</desc><desc class="x left">519.5961538461538</desc><desc class="y left">153.25</desc><desc class="x_label">240.0</desc></g><g class="dots"><circle class="dot reactive tooltip-trigger" cx="582.9615384615385" cy="153.25" r="2.5"/><desc class="value">0.0000</desc><desc class="x left">582.9615384615385</desc><desc class="y left">153.25</desc><desc class="x_label">270.0</desc></g><g class="dots"><circle class="dot reactive tooltip-trigger" cx="646.3269230769231" cy="153.25" r="2.5"/><desc class="value">0.0000</desc><desc class="x left">646.3269230769231</desc><desc class="y left">153.25</desc><desc class="x_label">300.0</desc></g></g><g class="series serie-4 color-4"><g class="dots"><circle class="dot reactive tooltip-trigger" cx="12.673076923076922" cy="153.25" r="2.5"/><desc class="value">0.0000</desc><desc class="x ">12.673076923076922</desc><desc class="y ">153.25</desc><desc class="x_label">0.0</desc></g><g class="dots"><circle class="dot reactive tooltip-trigger" cx="76.03846153846155" cy="153.25" r="2.5"/><desc class="value">0.0000</desc><desc class="x ">76.03846153846155</desc><desc class="y ">153.25</desc><desc class="x_label">30.0</desc></g><g class="dots"><circle class="dot reactive tooltip-trigger" cx="139.40384615384613" cy="145.5501489325442" r="2.5"/><desc class="value">0.1045</desc><desc class="x ">139.40384615384613</desc><desc class="y ">145.5501489325442</desc><desc class="x_label">60.0</desc></g><g class="dots"><circle class="dot reactive tooltip-trigger" cx="202.76923076923075" cy="153.19930294077818" r="2.5"/><desc class="value">0.0007</desc><desc class="x ">202.76923076923075</desc><desc class="y ">153.19930294077818</desc><desc class="x_label">90.0</desc></g><g class="dots"><circle class="dot reactive tooltip-trigger" cx="266.1346153846154" cy="153.80783978904526" r="2.5"/><desc class="value">-0.0076</desc><desc class="x top">266.1346153846154</desc><desc class="y top">153.80783978904526</desc><desc class="x_label">120.0</desc></g><g class="dots"><circle class="dot reactive tooltip-trigger" cx="329.5" cy="155.5457785628253" r="2.5"/><desc class="value">-0.0312</desc><desc class="x top">329.5</desc><desc class="y top">155.5457785628253</desc><desc class="x_label">150.0</desc></g><g class="dots"><circle class="dot reactive tooltip-trigger" cx="392.8653846153846" cy="153.25" r="2.5"/><desc class="value">0.0000</desc><desc class="x left">392.8653846153846</desc><desc class="y left">153.25</desc><desc class="x_label">180.0</desc></g><g class="dots"><circle class="dot reactive tooltip-trigger" cx="456.23076923076917" cy="153.25" r="2.5"/><desc class="value">0.0000</desc><desc class="x left">456.23076923076917</desc><desc class="y left">153.25</desc><desc class="x_label">210.0</desc></g><g class="dots"><circle class="dot reactive tooltip-trigger" cx="519.5961538461538" cy="153.25" r="2.5"/><desc class="value">0.0000</desc><desc class="x left">519.5961538461538</desc><desc class="y left">153.25</desc><desc class="x_label">240.0</desc></g><g class="dots"><circle class="dot reactive tooltip-trigger" cx="582.9615384615385" cy="153.25" r="2.5"/><desc class="value">0.0000</desc><desc class="x left">582.9615384615385</desc><desc class="y left">153.25</desc><desc class="x_label">270.0</desc></g><g class="dots"><circle class="dot reactive tooltip-trigger" cx="646.3269230769231" cy="153.25" r="2.5"/><desc class="value">0.0000</desc><desc class="x left">646.3269230769231</desc><desc class="y left">153.25</desc><desc class="x_label">300.0</desc></g></g><g class="series serie-5 color-5"><g class="dots"><circle class="dot reactive tooltip-trigger" cx="12.673076923076922" cy="153.25" r="2.5"/><desc class="value">0.0000</desc><desc class="x ">12.673076923076922</desc><desc class="y ">153.25</desc><desc class="x_label">0.0</desc></g><g class="dots"><circle class="dot reactive tooltip-trigger" cx="76.03846153846155" cy="153.25" r="2.5"/><desc class="value">0.0000</desc><desc class="x ">76.03846153846155</desc><desc class="y ">153.25</desc><desc class="x_label">30.0</desc></g><g class="dots"><circle class="dot reactive tooltip-trigger" cx="139.40384615384613" cy="138.4049311417457" r="2.5"/><desc class="value">0.2015</desc><desc class="x ">139.40384615384613</desc><desc class="y ">138.4049311417457</desc><desc class="x_label">60.0</desc></g><g class="dots"><circle class="dot reactive tooltip-trigger" cx="202.76923076923075" cy="149.7265634044649" r="2.5"/><desc class="value">0.0478</desc><desc class="x ">202.76923076923075</desc><desc class="y ">149.7265634044649</desc><desc class="x_label">90.0</desc></g><g class="dots"><circle class="dot reactive tooltip-trigger" cx="266.1346153846154" cy="153.936206973733" r="2.5"/><desc class="value">-0.0093</desc><desc class="x top">266.1346153846154</desc><desc class="y top">153.936206973733</desc><desc class="x_label">120.0</desc></g><g class="dots"><circle class="dot reactive tooltip-trigger" cx="329.5" cy="157.6924127959445" r="2.5"/><desc class="value">-0.0603</desc><desc class="x top">329.5</desc><desc class="y top">157.6924127959445</desc><desc class="x_label">150.0</desc></g><g class="dots"><circle class="dot reactive tooltip-trigger" cx="392.8653846153846" cy="153.25" r="2.5"/><desc class="value">0.0000</desc><desc class="x left">392.8653846153846</desc><desc class="y left">153.25</desc><desc class="x_label">180.0</desc></g><g class="dots"><circle class="dot reactive tooltip-trigger" cx="456.23076923076917" cy="153.25" r="2.5"/><desc class="value">0.0000</desc><desc class="x left">456.23076923076917</desc><desc class="y left">153.25</desc><desc class="x_label">210.0</desc></g><g class="dots"><circle class="dot reactive tooltip-trigger" cx="519.5961538461538" cy="153.25" r="2.5"/><desc class="value">0.0000</desc><desc class="x left">519.5961538461538</desc><desc class="y left">153.25</desc><desc class="x_label">240.0</desc></g><g class="dots"><circle class="dot reactive tooltip-trigger" cx="582.9615384615385" cy="153.25" r="2.5"/><desc class="value">0.0000</desc><desc class="x left">582.9615384615385</desc><desc class="y left">153.25</desc><desc class="x_label">270.0</desc></g><g class="dots"><circle class="dot reactive tooltip-trigger" cx="646.3269230769231" cy="153.25" r="2.5"/><desc class="value">0.0000</desc><desc class="x left">646.3269230769231</desc><desc class="y left">153.25</desc><desc class="x_label">300.0</desc></g></g><g class="series serie-6 color-6"><g class="dots"><circle class="dot reactive tooltip-trigger" cx="12.673076923076922" cy="153.25" r="2.5"/><desc class="value">0.0000</desc><desc class="x ">12.673076923076922</desc><desc class="y ">153.25</desc><desc class="x_label">0.0</desc></g><g class="dots"><circle class="dot reactive tooltip-trigger" cx="76.03846153846155" cy="153.25" r="2.5"/><desc class="value">0.0000</desc><desc class="x ">76.03846153846155</desc><desc class="y ">153.25</desc><desc class="x_label">30.0</desc></g><g class="dots"><circle class="dot reactive tooltip-trigger" cx="139.40384615384613" cy="147.8536899612428" r="2.5"/><desc class="value">0.0732</desc><desc class="x ">139.40384615384613</desc><desc class="y ">147.8536899612428</desc><desc class="x_label">60.0</desc></g><g class="dots"><circle class="dot reactive tooltip-trigger" cx="202.76923076923075" cy="146.05458151275744" r="2.5"/><desc class="value">0.0977</desc><desc class="x ">202.76923076923075</desc><desc class="y ">146.05458151275744</desc><desc class="x_label">90.0</desc></g><g class="dots"><circle class="dot reactive tooltip-trigger" cx="266.1346153846154" cy="155.0680534203" r="2.5"/><desc class="value">-0.0247</desc><desc class="x top">266.1346153846154</desc><desc class="y top">155.0680534203</desc><desc class="x_label">120.0</desc></g><g class="dots"><circle class="dot reactive tooltip-trigger" cx="329.5" cy="165.3938810525323" r="2.5"/><desc class="value">-0.1648</desc><desc class="x top">329.5</desc><desc class="y top">165.3938810525323</desc><desc class="x_label">150.0</desc></g><g class="dots"><circle class="dot reactive tooltip-trigger" cx="392.8653846153846" cy="153.25" r="2.5"/><desc class="value">0.0000</desc><desc class="x left">392.8653846153846</desc><desc class="y left">153.25</desc><desc class="x_label">180.0</desc></g><g class="dots"><circle class="dot reactive tooltip-trigger" cx="456.23076923076917" cy="153.25" r="2.5"/><desc class="value">0.0000</desc><desc class="x left">456.23076923076917</desc><desc class="y left">153.25</desc><desc class="x_label">210.0</desc></g><g class="dots"><circle class="dot reactive tooltip-trigger" cx="519.5961538461538" cy="153.25" r="2.5"/><desc class="value">0.0000</desc><desc class="x left">519.5961538461538</desc><desc class="y left">153.25</desc><desc class="x_label">240.0</desc></g><g class="dots"><circle class="dot reactive tooltip-trigger" cx="582.9615384615385" cy="153.25" r="2.5"/><desc class="value">0.0000</desc><desc class="x left">582.9615384615385</desc><desc class="y left">153.25</desc><desc class="x_label">270.0</desc></g><g class="dots"><circle class="dot reactive tooltip-trigger" cx="646.3269230769231" cy="153.25" r="2.5"/><desc class="value">0.0000</desc><desc class="x left">646.3269230769231</desc><desc class="y left">153.25</desc><desc class="x_label">300.0</desc></g></g><g class="series serie-7 color-7"><g class="dots"><circle class="dot reactive tooltip-trigger" cx="12.673076923076922" cy="153.25" r="2.5"/><desc class="value">0.0000</desc><desc class="x ">12.673076923076922</desc><desc class="y ">153.25</desc><desc class="x_label">0.0</desc></g><g class="dots"><circle class="dot reactive tooltip-trigger" cx="76.03846153846155" cy="153.25" r="2.5"/><desc class="value">0.0000</desc><desc class="x ">76.03846153846155</desc><desc class="y ">153.25</desc><desc class="x_label">30.0</desc></g><g class="dots"><circle class="dot reactive tooltip-trigger" cx="139.40384615384613" cy="128.4623957332416" r="2.5"/><desc class="value">0.3364</desc><desc class="x ">139.40384615384613</desc><desc class="y ">128.4623957332416</desc><desc class="x_label">60.0</desc></g><g class="dots"><circle class="dot reactive tooltip-trigger" cx="202.76923076923075" cy="149.83408078757353" r="2.5"/><desc class="value">0.0464</desc><desc class="x ">202.76923076923075</desc><desc class="y ">149.83408078757353</desc><desc class="x_label">90.0</desc></g><g class="dots"><circle class="dot reactive tooltip-trigger" cx="266.1346153846154" cy="153.4769571007915" r="2.5"/><desc class="value">-0.0031</desc><desc class="x top">266.1346153846154</desc><desc class="y top">153.4769571007915</desc><desc class="x_label">120.0</desc></g><g class="dots"><circle class="dot reactive tooltip-trigger" cx="329.5" cy="157.609371303455" r="2.5"/><desc class="value">-0.0592</desc><desc class="x top">329.5</desc><desc class="y top">157.609371303455</desc><desc class="x_label">150.0</desc></g><g class="dots"><circle class="dot reactive tooltip-trigger" cx="392.8653846153846" cy="153.25" r="2.5"/><desc class="value">0.0000</desc><desc class="x left">392.8653846153846</desc><desc class="y left">153.25</desc><desc class="x_label">180.0</desc></g><g class="dots"><circle class="dot reactive tooltip-trigger" cx="456.23076923076917" cy="153.25" r="2.5"/><desc class="value">0.0000</desc><desc class="x left">456.23076923076917</desc><desc class="y left">153.25</desc><desc class="x_label">210.0</desc></g><g class="dots"><circle class="dot reactive tooltip-trigger" cx="519.5961538461538" cy="153.25" r="2.5"/><desc class="value">0.0000</desc><desc class="x left">519.5961538461538</desc><desc class="y left">153.25</desc><desc class="x_label">240.0</desc></g><g class="dots"><circle class="dot reactive tooltip-trigger" cx="582.9615384615385" cy="153.25" r="2.5"/><desc class="value">0.0000</desc><desc class="x left">582.9615384615385</desc><desc class="y left">153.25</desc><desc class="x_label">270.0</desc></g><g class="dots"><circle class="dot reactive tooltip-trigger" cx="646.3269230769231" cy="153.25" r="2.5"/><desc class="value">0.0000</desc><desc class="x left">646.3269230769231</desc><desc class="y left">153.25</desc><desc class="x_label">300.0</desc></g></g></g><g class="plot text-overlay" transform="translate(121, 48)"><g class="series serie-0 color-0"/><g class="series serie-1 color-1"/><g class="series serie-2 color-2"/><g class="series serie-3 color-3"/><g class="series serie-4 color-4"/><g class="series serie-5 color-5"/><g class="series serie-6 color-6"/><g class="series serie-7 color-7"/></g><g class="plot tooltip-overlay" transform="translate(121, 48)"><g class="tooltip" style="opacity: 0" transform="translate(0 0)"><rect class="tooltip-box" height="0" rx="0" ry="0" width="0"/><g class="text"/></g></g><g class="legends" transform="translate(131, 457)"><g class="legend reactive activate-serie" id="activate-serie-0"><rect class="color-0 reactive" height="12" width="12" x="0.0" y="1.5"/><text x="17.0" y="12.0">boeck2015/tempodetector2016_default</text></g><g class="legend reactive activate-serie" id="activate-serie-1"><rect class="color-1 reactive" height="12" width="12" x="329.5" y="1.5"/><text x="346.5" y="12.0">davies2009/mirex_qm_tempotracker</text></g><g class="legend reactive activate-serie" id="activate-serie-2"><rect class="color-2 reactive" height="12" width="12" x="0.0" y="24.0"/><text x="17.0" y="34.5">percival2014/stem</text></g><g class="legend reactive activate-serie" id="activate-serie-3"><rect class="color-3 reactive" height="12" width="12" x="329.5" y="24.0"/><text x="346.5" y="34.5">schreiber2017/ismir2017</text></g><g class="legend reactive activate-serie" id="activate-serie-4"><rect class="color-4 reactive" height="12" width="12" x="0.0" y="46.5"/><text x="17.0" y="57.0">schreiber2017/mirex2017</text></g><g class="legend reactive activate-serie" id="activate-serie-5"><rect class="color-5 reactive" height="12" width="12" x="329.5" y="46.5"/><text x="346.5" y="57.0">schreiber2018/cnn</text></g><g class="legend reactive activate-serie" id="activate-serie-6"><rect class="color-6 reactive" height="12" width="12" x="0.0" y="69.0"/><text x="17.0" y="79.5">schreiber2018/fcn</text></g><g class="legend reactive activate-serie" id="activate-serie-7"><rect class="color-7 reactive" height="12" width="12" x="329.5" y="69.0"/><text x="346.5" y="79.5">schreiber2018/ismir2018</text></g></g></g></svg>