<?xml version="1.0" encoding="utf-8" standalone="no"?>
<!DOCTYPE svg PUBLIC "-//W3C//DTD SVG 1.1//EN"
  "http://www.w3.org/Graphics/SVG/1.1/DTD/svg11.dtd">
<!-- Created with matplotlib (https://matplotlib.org/) -->
<svg height="381.426375pt" version="1.1" viewBox="0 0 630.909375 381.426375" width="630.909375pt" xmlns="http://www.w3.org/2000/svg" xmlns:xlink="http://www.w3.org/1999/xlink">
 <metadata>
  <rdf:RDF xmlns:cc="http://creativecommons.org/ns#" xmlns:dc="http://purl.org/dc/elements/1.1/" xmlns:rdf="http://www.w3.org/1999/02/22-rdf-syntax-ns#">
   <cc:Work>
    <dc:type rdf:resource="http://purl.org/dc/dcmitype/StillImage"/>
    <dc:date>2022-06-29T18:49:04.834739</dc:date>
    <dc:format>image/svg+xml</dc:format>
    <dc:creator>
     <cc:Agent>
      <dc:title>Matplotlib v3.3.1, https://matplotlib.org/</dc:title>
     </cc:Agent>
    </dc:creator>
   </cc:Work>
  </rdf:RDF>
 </metadata>
 <defs>
  <style type="text/css">*{stroke-linecap:butt;stroke-linejoin:round;}</style>
 </defs>
 <g id="figure_1">
  <g id="patch_1">
   <path d="M -0 381.426375 
L 630.909375 381.426375 
L 630.909375 0 
L -0 0 
z
" style="fill:#ffffff;"/>
  </g>
  <g id="axes_1">
   <g id="patch_2">
    <path d="M 226.746875 343.870125 
L 617.346875 343.870125 
L 617.346875 22.318125 
L 226.746875 22.318125 
z
" style="fill:#ffffff;"/>
   </g>
   <g id="matplotlib.axis_1">
    <g id="xtick_1">
     <g id="line2d_1">
      <path clip-path="url(#p0e6199d7fa)" d="M 245.346875 343.870125 
L 245.346875 22.318125 
" style="fill:none;stroke:#b0b0b0;stroke-linecap:square;stroke-width:0.8;"/>
     </g>
     <g id="line2d_2">
      <defs>
       <path d="M 0 0 
L 0 3.5 
" id="m8cf34f8bd2" style="stroke:#000000;stroke-width:0.8;"/>
      </defs>
      <g>
       <use style="stroke:#000000;stroke-width:0.8;" x="245.346875" xlink:href="#m8cf34f8bd2" y="343.870125"/>
      </g>
     </g>
     <g id="text_1">
      <!-- 0 -->
      <g transform="translate(242.165625 358.468563)scale(0.1 -0.1)">
       <defs>
        <path d="M 31.78125 66.40625 
Q 24.171875 66.40625 20.328125 58.90625 
Q 16.5 51.421875 16.5 36.375 
Q 16.5 21.390625 20.328125 13.890625 
Q 24.171875 6.390625 31.78125 6.390625 
Q 39.453125 6.390625 43.28125 13.890625 
Q 47.125 21.390625 47.125 36.375 
Q 47.125 51.421875 43.28125 58.90625 
Q 39.453125 66.40625 31.78125 66.40625 
z
M 31.78125 74.21875 
Q 44.046875 74.21875 50.515625 64.515625 
Q 56.984375 54.828125 56.984375 36.375 
Q 56.984375 17.96875 50.515625 8.265625 
Q 44.046875 -1.421875 31.78125 -1.421875 
Q 19.53125 -1.421875 13.0625 8.265625 
Q 6.59375 17.96875 6.59375 36.375 
Q 6.59375 54.828125 13.0625 64.515625 
Q 19.53125 74.21875 31.78125 74.21875 
z
" id="DejaVuSans-48"/>
       </defs>
       <use xlink:href="#DejaVuSans-48"/>
      </g>
     </g>
    </g>
    <g id="xtick_2">
     <g id="line2d_3">
      <path clip-path="url(#p0e6199d7fa)" d="M 319.746875 343.870125 
L 319.746875 22.318125 
" style="fill:none;stroke:#b0b0b0;stroke-linecap:square;stroke-width:0.8;"/>
     </g>
     <g id="line2d_4">
      <g>
       <use style="stroke:#000000;stroke-width:0.8;" x="319.746875" xlink:href="#m8cf34f8bd2" y="343.870125"/>
      </g>
     </g>
     <g id="text_2">
      <!-- 2 -->
      <g transform="translate(316.565625 358.468563)scale(0.1 -0.1)">
       <defs>
        <path d="M 19.1875 8.296875 
L 53.609375 8.296875 
L 53.609375 0 
L 7.328125 0 
L 7.328125 8.296875 
Q 12.9375 14.109375 22.625 23.890625 
Q 32.328125 33.6875 34.8125 36.53125 
Q 39.546875 41.84375 41.421875 45.53125 
Q 43.3125 49.21875 43.3125 52.78125 
Q 43.3125 58.59375 39.234375 62.25 
Q 35.15625 65.921875 28.609375 65.921875 
Q 23.96875 65.921875 18.8125 64.3125 
Q 13.671875 62.703125 7.8125 59.421875 
L 7.8125 69.390625 
Q 13.765625 71.78125 18.9375 73 
Q 24.125 74.21875 28.421875 74.21875 
Q 39.75 74.21875 46.484375 68.546875 
Q 53.21875 62.890625 53.21875 53.421875 
Q 53.21875 48.921875 51.53125 44.890625 
Q 49.859375 40.875 45.40625 35.40625 
Q 44.1875 33.984375 37.640625 27.21875 
Q 31.109375 20.453125 19.1875 8.296875 
z
" id="DejaVuSans-50"/>
       </defs>
       <use xlink:href="#DejaVuSans-50"/>
      </g>
     </g>
    </g>
    <g id="xtick_3">
     <g id="line2d_5">
      <path clip-path="url(#p0e6199d7fa)" d="M 394.146875 343.870125 
L 394.146875 22.318125 
" style="fill:none;stroke:#b0b0b0;stroke-linecap:square;stroke-width:0.8;"/>
     </g>
     <g id="line2d_6">
      <g>
       <use style="stroke:#000000;stroke-width:0.8;" x="394.146875" xlink:href="#m8cf34f8bd2" y="343.870125"/>
      </g>
     </g>
     <g id="text_3">
      <!-- 4 -->
      <g transform="translate(390.965625 358.468563)scale(0.1 -0.1)">
       <defs>
        <path d="M 37.796875 64.3125 
L 12.890625 25.390625 
L 37.796875 25.390625 
z
M 35.203125 72.90625 
L 47.609375 72.90625 
L 47.609375 25.390625 
L 58.015625 25.390625 
L 58.015625 17.1875 
L 47.609375 17.1875 
L 47.609375 0 
L 37.796875 0 
L 37.796875 17.1875 
L 4.890625 17.1875 
L 4.890625 26.703125 
z
" id="DejaVuSans-52"/>
       </defs>
       <use xlink:href="#DejaVuSans-52"/>
      </g>
     </g>
    </g>
    <g id="xtick_4">
     <g id="line2d_7">
      <path clip-path="url(#p0e6199d7fa)" d="M 468.546875 343.870125 
L 468.546875 22.318125 
" style="fill:none;stroke:#b0b0b0;stroke-linecap:square;stroke-width:0.8;"/>
     </g>
     <g id="line2d_8">
      <g>
       <use style="stroke:#000000;stroke-width:0.8;" x="468.546875" xlink:href="#m8cf34f8bd2" y="343.870125"/>
      </g>
     </g>
     <g id="text_4">
      <!-- 6 -->
      <g transform="translate(465.365625 358.468563)scale(0.1 -0.1)">
       <defs>
        <path d="M 33.015625 40.375 
Q 26.375 40.375 22.484375 35.828125 
Q 18.609375 31.296875 18.609375 23.390625 
Q 18.609375 15.53125 22.484375 10.953125 
Q 26.375 6.390625 33.015625 6.390625 
Q 39.65625 6.390625 43.53125 10.953125 
Q 47.40625 15.53125 47.40625 23.390625 
Q 47.40625 31.296875 43.53125 35.828125 
Q 39.65625 40.375 33.015625 40.375 
z
M 52.59375 71.296875 
L 52.59375 62.3125 
Q 48.875 64.0625 45.09375 64.984375 
Q 41.3125 65.921875 37.59375 65.921875 
Q 27.828125 65.921875 22.671875 59.328125 
Q 17.53125 52.734375 16.796875 39.40625 
Q 19.671875 43.65625 24.015625 45.921875 
Q 28.375 48.1875 33.59375 48.1875 
Q 44.578125 48.1875 50.953125 41.515625 
Q 57.328125 34.859375 57.328125 23.390625 
Q 57.328125 12.15625 50.6875 5.359375 
Q 44.046875 -1.421875 33.015625 -1.421875 
Q 20.359375 -1.421875 13.671875 8.265625 
Q 6.984375 17.96875 6.984375 36.375 
Q 6.984375 53.65625 15.1875 63.9375 
Q 23.390625 74.21875 37.203125 74.21875 
Q 40.921875 74.21875 44.703125 73.484375 
Q 48.484375 72.75 52.59375 71.296875 
z
" id="DejaVuSans-54"/>
       </defs>
       <use xlink:href="#DejaVuSans-54"/>
      </g>
     </g>
    </g>
    <g id="xtick_5">
     <g id="line2d_9">
      <path clip-path="url(#p0e6199d7fa)" d="M 542.946875 343.870125 
L 542.946875 22.318125 
" style="fill:none;stroke:#b0b0b0;stroke-linecap:square;stroke-width:0.8;"/>
     </g>
     <g id="line2d_10">
      <g>
       <use style="stroke:#000000;stroke-width:0.8;" x="542.946875" xlink:href="#m8cf34f8bd2" y="343.870125"/>
      </g>
     </g>
     <g id="text_5">
      <!-- 8 -->
      <g transform="translate(539.765625 358.468563)scale(0.1 -0.1)">
       <defs>
        <path d="M 31.78125 34.625 
Q 24.75 34.625 20.71875 30.859375 
Q 16.703125 27.09375 16.703125 20.515625 
Q 16.703125 13.921875 20.71875 10.15625 
Q 24.75 6.390625 31.78125 6.390625 
Q 38.8125 6.390625 42.859375 10.171875 
Q 46.921875 13.96875 46.921875 20.515625 
Q 46.921875 27.09375 42.890625 30.859375 
Q 38.875 34.625 31.78125 34.625 
z
M 21.921875 38.8125 
Q 15.578125 40.375 12.03125 44.71875 
Q 8.5 49.078125 8.5 55.328125 
Q 8.5 64.0625 14.71875 69.140625 
Q 20.953125 74.21875 31.78125 74.21875 
Q 42.671875 74.21875 48.875 69.140625 
Q 55.078125 64.0625 55.078125 55.328125 
Q 55.078125 49.078125 51.53125 44.71875 
Q 48 40.375 41.703125 38.8125 
Q 48.828125 37.15625 52.796875 32.3125 
Q 56.78125 27.484375 56.78125 20.515625 
Q 56.78125 9.90625 50.3125 4.234375 
Q 43.84375 -1.421875 31.78125 -1.421875 
Q 19.734375 -1.421875 13.25 4.234375 
Q 6.78125 9.90625 6.78125 20.515625 
Q 6.78125 27.484375 10.78125 32.3125 
Q 14.796875 37.15625 21.921875 38.8125 
z
M 18.3125 54.390625 
Q 18.3125 48.734375 21.84375 45.5625 
Q 25.390625 42.390625 31.78125 42.390625 
Q 38.140625 42.390625 41.71875 45.5625 
Q 45.3125 48.734375 45.3125 54.390625 
Q 45.3125 60.0625 41.71875 63.234375 
Q 38.140625 66.40625 31.78125 66.40625 
Q 25.390625 66.40625 21.84375 63.234375 
Q 18.3125 60.0625 18.3125 54.390625 
z
" id="DejaVuSans-56"/>
       </defs>
       <use xlink:href="#DejaVuSans-56"/>
      </g>
     </g>
    </g>
    <g id="xtick_6">
     <g id="line2d_11">
      <path clip-path="url(#p0e6199d7fa)" d="M 617.346875 343.870125 
L 617.346875 22.318125 
" style="fill:none;stroke:#b0b0b0;stroke-linecap:square;stroke-width:0.8;"/>
     </g>
     <g id="line2d_12">
      <g>
       <use style="stroke:#000000;stroke-width:0.8;" x="617.346875" xlink:href="#m8cf34f8bd2" y="343.870125"/>
      </g>
     </g>
     <g id="text_6">
      <!-- 10 -->
      <g transform="translate(610.984375 358.468563)scale(0.1 -0.1)">
       <defs>
        <path d="M 12.40625 8.296875 
L 28.515625 8.296875 
L 28.515625 63.921875 
L 10.984375 60.40625 
L 10.984375 69.390625 
L 28.421875 72.90625 
L 38.28125 72.90625 
L 38.28125 8.296875 
L 54.390625 8.296875 
L 54.390625 0 
L 12.40625 0 
z
" id="DejaVuSans-49"/>
       </defs>
       <use xlink:href="#DejaVuSans-49"/>
       <use x="63.623047" xlink:href="#DejaVuSans-48"/>
      </g>
     </g>
    </g>
    <g id="text_7">
     <!-- OE2 (TO) -->
     <g transform="translate(399.289844 372.146687)scale(0.1 -0.1)">
      <defs>
       <path d="M 39.40625 66.21875 
Q 28.65625 66.21875 22.328125 58.203125 
Q 16.015625 50.203125 16.015625 36.375 
Q 16.015625 22.609375 22.328125 14.59375 
Q 28.65625 6.59375 39.40625 6.59375 
Q 50.140625 6.59375 56.421875 14.59375 
Q 62.703125 22.609375 62.703125 36.375 
Q 62.703125 50.203125 56.421875 58.203125 
Q 50.140625 66.21875 39.40625 66.21875 
z
M 39.40625 74.21875 
Q 54.734375 74.21875 63.90625 63.9375 
Q 73.09375 53.65625 73.09375 36.375 
Q 73.09375 19.140625 63.90625 8.859375 
Q 54.734375 -1.421875 39.40625 -1.421875 
Q 24.03125 -1.421875 14.8125 8.828125 
Q 5.609375 19.09375 5.609375 36.375 
Q 5.609375 53.65625 14.8125 63.9375 
Q 24.03125 74.21875 39.40625 74.21875 
z
" id="DejaVuSans-79"/>
       <path d="M 9.8125 72.90625 
L 55.90625 72.90625 
L 55.90625 64.59375 
L 19.671875 64.59375 
L 19.671875 43.015625 
L 54.390625 43.015625 
L 54.390625 34.71875 
L 19.671875 34.71875 
L 19.671875 8.296875 
L 56.78125 8.296875 
L 56.78125 0 
L 9.8125 0 
z
" id="DejaVuSans-69"/>
       <path id="DejaVuSans-32"/>
       <path d="M 31 75.875 
Q 24.46875 64.65625 21.28125 53.65625 
Q 18.109375 42.671875 18.109375 31.390625 
Q 18.109375 20.125 21.3125 9.0625 
Q 24.515625 -2 31 -13.1875 
L 23.1875 -13.1875 
Q 15.875 -1.703125 12.234375 9.375 
Q 8.59375 20.453125 8.59375 31.390625 
Q 8.59375 42.28125 12.203125 53.3125 
Q 15.828125 64.359375 23.1875 75.875 
z
" id="DejaVuSans-40"/>
       <path d="M -0.296875 72.90625 
L 61.375 72.90625 
L 61.375 64.59375 
L 35.5 64.59375 
L 35.5 0 
L 25.59375 0 
L 25.59375 64.59375 
L -0.296875 64.59375 
z
" id="DejaVuSans-84"/>
       <path d="M 8.015625 75.875 
L 15.828125 75.875 
Q 23.140625 64.359375 26.78125 53.3125 
Q 30.421875 42.28125 30.421875 31.390625 
Q 30.421875 20.453125 26.78125 9.375 
Q 23.140625 -1.703125 15.828125 -13.1875 
L 8.015625 -13.1875 
Q 14.5 -2 17.703125 9.0625 
Q 20.90625 20.125 20.90625 31.390625 
Q 20.90625 42.671875 17.703125 53.65625 
Q 14.5 64.65625 8.015625 75.875 
z
" id="DejaVuSans-41"/>
      </defs>
      <use xlink:href="#DejaVuSans-79"/>
      <use x="78.710938" xlink:href="#DejaVuSans-69"/>
      <use x="141.894531" xlink:href="#DejaVuSans-50"/>
      <use x="205.517578" xlink:href="#DejaVuSans-32"/>
      <use x="237.304688" xlink:href="#DejaVuSans-40"/>
      <use x="276.318359" xlink:href="#DejaVuSans-84"/>
      <use x="337.402344" xlink:href="#DejaVuSans-79"/>
      <use x="416.113281" xlink:href="#DejaVuSans-41"/>
     </g>
    </g>
   </g>
   <g id="matplotlib.axis_2">
    <g id="ytick_1">
     <g id="line2d_13">
      <path clip-path="url(#p0e6199d7fa)" d="M 226.746875 319.510125 
L 617.346875 319.510125 
" style="fill:none;stroke:#b0b0b0;stroke-linecap:square;stroke-width:0.8;"/>
     </g>
     <g id="line2d_14">
      <defs>
       <path d="M 0 0 
L -3.5 0 
" id="mc1120c8f93" style="stroke:#000000;stroke-width:0.8;"/>
      </defs>
      <g>
       <use style="stroke:#000000;stroke-width:0.8;" x="226.746875" xlink:href="#mc1120c8f93" y="319.510125"/>
      </g>
     </g>
     <g id="text_8">
      <!-- schreiber2018/ismir2018 -->
      <g transform="translate(94.385937 323.309344)scale(0.1 -0.1)">
       <defs>
        <path d="M 44.28125 53.078125 
L 44.28125 44.578125 
Q 40.484375 46.53125 36.375 47.5 
Q 32.28125 48.484375 27.875 48.484375 
Q 21.1875 48.484375 17.84375 46.4375 
Q 14.5 44.390625 14.5 40.28125 
Q 14.5 37.15625 16.890625 35.375 
Q 19.28125 33.59375 26.515625 31.984375 
L 29.59375 31.296875 
Q 39.15625 29.25 43.1875 25.515625 
Q 47.21875 21.78125 47.21875 15.09375 
Q 47.21875 7.46875 41.1875 3.015625 
Q 35.15625 -1.421875 24.609375 -1.421875 
Q 20.21875 -1.421875 15.453125 -0.5625 
Q 10.6875 0.296875 5.421875 2 
L 5.421875 11.28125 
Q 10.40625 8.6875 15.234375 7.390625 
Q 20.0625 6.109375 24.8125 6.109375 
Q 31.15625 6.109375 34.5625 8.28125 
Q 37.984375 10.453125 37.984375 14.40625 
Q 37.984375 18.0625 35.515625 20.015625 
Q 33.0625 21.96875 24.703125 23.78125 
L 21.578125 24.515625 
Q 13.234375 26.265625 9.515625 29.90625 
Q 5.8125 33.546875 5.8125 39.890625 
Q 5.8125 47.609375 11.28125 51.796875 
Q 16.75 56 26.8125 56 
Q 31.78125 56 36.171875 55.265625 
Q 40.578125 54.546875 44.28125 53.078125 
z
" id="DejaVuSans-115"/>
        <path d="M 48.78125 52.59375 
L 48.78125 44.1875 
Q 44.96875 46.296875 41.140625 47.34375 
Q 37.3125 48.390625 33.40625 48.390625 
Q 24.65625 48.390625 19.8125 42.84375 
Q 14.984375 37.3125 14.984375 27.296875 
Q 14.984375 17.28125 19.8125 11.734375 
Q 24.65625 6.203125 33.40625 6.203125 
Q 37.3125 6.203125 41.140625 7.25 
Q 44.96875 8.296875 48.78125 10.40625 
L 48.78125 2.09375 
Q 45.015625 0.34375 40.984375 -0.53125 
Q 36.96875 -1.421875 32.421875 -1.421875 
Q 20.0625 -1.421875 12.78125 6.34375 
Q 5.515625 14.109375 5.515625 27.296875 
Q 5.515625 40.671875 12.859375 48.328125 
Q 20.21875 56 33.015625 56 
Q 37.15625 56 41.109375 55.140625 
Q 45.0625 54.296875 48.78125 52.59375 
z
" id="DejaVuSans-99"/>
        <path d="M 54.890625 33.015625 
L 54.890625 0 
L 45.90625 0 
L 45.90625 32.71875 
Q 45.90625 40.484375 42.875 44.328125 
Q 39.84375 48.1875 33.796875 48.1875 
Q 26.515625 48.1875 22.3125 43.546875 
Q 18.109375 38.921875 18.109375 30.90625 
L 18.109375 0 
L 9.078125 0 
L 9.078125 75.984375 
L 18.109375 75.984375 
L 18.109375 46.1875 
Q 21.34375 51.125 25.703125 53.5625 
Q 30.078125 56 35.796875 56 
Q 45.21875 56 50.046875 50.171875 
Q 54.890625 44.34375 54.890625 33.015625 
z
" id="DejaVuSans-104"/>
        <path d="M 41.109375 46.296875 
Q 39.59375 47.171875 37.8125 47.578125 
Q 36.03125 48 33.890625 48 
Q 26.265625 48 22.1875 43.046875 
Q 18.109375 38.09375 18.109375 28.8125 
L 18.109375 0 
L 9.078125 0 
L 9.078125 54.6875 
L 18.109375 54.6875 
L 18.109375 46.1875 
Q 20.953125 51.171875 25.484375 53.578125 
Q 30.03125 56 36.53125 56 
Q 37.453125 56 38.578125 55.875 
Q 39.703125 55.765625 41.0625 55.515625 
z
" id="DejaVuSans-114"/>
        <path d="M 56.203125 29.59375 
L 56.203125 25.203125 
L 14.890625 25.203125 
Q 15.484375 15.921875 20.484375 11.0625 
Q 25.484375 6.203125 34.421875 6.203125 
Q 39.59375 6.203125 44.453125 7.46875 
Q 49.3125 8.734375 54.109375 11.28125 
L 54.109375 2.78125 
Q 49.265625 0.734375 44.1875 -0.34375 
Q 39.109375 -1.421875 33.890625 -1.421875 
Q 20.796875 -1.421875 13.15625 6.1875 
Q 5.515625 13.8125 5.515625 26.8125 
Q 5.515625 40.234375 12.765625 48.109375 
Q 20.015625 56 32.328125 56 
Q 43.359375 56 49.78125 48.890625 
Q 56.203125 41.796875 56.203125 29.59375 
z
M 47.21875 32.234375 
Q 47.125 39.59375 43.09375 43.984375 
Q 39.0625 48.390625 32.421875 48.390625 
Q 24.90625 48.390625 20.390625 44.140625 
Q 15.875 39.890625 15.1875 32.171875 
z
" id="DejaVuSans-101"/>
        <path d="M 9.421875 54.6875 
L 18.40625 54.6875 
L 18.40625 0 
L 9.421875 0 
z
M 9.421875 75.984375 
L 18.40625 75.984375 
L 18.40625 64.59375 
L 9.421875 64.59375 
z
" id="DejaVuSans-105"/>
        <path d="M 48.6875 27.296875 
Q 48.6875 37.203125 44.609375 42.84375 
Q 40.53125 48.484375 33.40625 48.484375 
Q 26.265625 48.484375 22.1875 42.84375 
Q 18.109375 37.203125 18.109375 27.296875 
Q 18.109375 17.390625 22.1875 11.75 
Q 26.265625 6.109375 33.40625 6.109375 
Q 40.53125 6.109375 44.609375 11.75 
Q 48.6875 17.390625 48.6875 27.296875 
z
M 18.109375 46.390625 
Q 20.953125 51.265625 25.265625 53.625 
Q 29.59375 56 35.59375 56 
Q 45.5625 56 51.78125 48.09375 
Q 58.015625 40.1875 58.015625 27.296875 
Q 58.015625 14.40625 51.78125 6.484375 
Q 45.5625 -1.421875 35.59375 -1.421875 
Q 29.59375 -1.421875 25.265625 0.953125 
Q 20.953125 3.328125 18.109375 8.203125 
L 18.109375 0 
L 9.078125 0 
L 9.078125 75.984375 
L 18.109375 75.984375 
z
" id="DejaVuSans-98"/>
        <path d="M 25.390625 72.90625 
L 33.6875 72.90625 
L 8.296875 -9.28125 
L 0 -9.28125 
z
" id="DejaVuSans-47"/>
        <path d="M 52 44.1875 
Q 55.375 50.25 60.0625 53.125 
Q 64.75 56 71.09375 56 
Q 79.640625 56 84.28125 50.015625 
Q 88.921875 44.046875 88.921875 33.015625 
L 88.921875 0 
L 79.890625 0 
L 79.890625 32.71875 
Q 79.890625 40.578125 77.09375 44.375 
Q 74.3125 48.1875 68.609375 48.1875 
Q 61.625 48.1875 57.5625 43.546875 
Q 53.515625 38.921875 53.515625 30.90625 
L 53.515625 0 
L 44.484375 0 
L 44.484375 32.71875 
Q 44.484375 40.625 41.703125 44.40625 
Q 38.921875 48.1875 33.109375 48.1875 
Q 26.21875 48.1875 22.15625 43.53125 
Q 18.109375 38.875 18.109375 30.90625 
L 18.109375 0 
L 9.078125 0 
L 9.078125 54.6875 
L 18.109375 54.6875 
L 18.109375 46.1875 
Q 21.1875 51.21875 25.484375 53.609375 
Q 29.78125 56 35.6875 56 
Q 41.65625 56 45.828125 52.96875 
Q 50 49.953125 52 44.1875 
z
" id="DejaVuSans-109"/>
       </defs>
       <use xlink:href="#DejaVuSans-115"/>
       <use x="52.099609" xlink:href="#DejaVuSans-99"/>
       <use x="107.080078" xlink:href="#DejaVuSans-104"/>
       <use x="170.458984" xlink:href="#DejaVuSans-114"/>
       <use x="209.322266" xlink:href="#DejaVuSans-101"/>
       <use x="270.845703" xlink:href="#DejaVuSans-105"/>
       <use x="298.628906" xlink:href="#DejaVuSans-98"/>
       <use x="362.105469" xlink:href="#DejaVuSans-101"/>
       <use x="423.628906" xlink:href="#DejaVuSans-114"/>
       <use x="464.742188" xlink:href="#DejaVuSans-50"/>
       <use x="528.365234" xlink:href="#DejaVuSans-48"/>
       <use x="591.988281" xlink:href="#DejaVuSans-49"/>
       <use x="655.611328" xlink:href="#DejaVuSans-56"/>
       <use x="719.234375" xlink:href="#DejaVuSans-47"/>
       <use x="752.925781" xlink:href="#DejaVuSans-105"/>
       <use x="780.708984" xlink:href="#DejaVuSans-115"/>
       <use x="832.808594" xlink:href="#DejaVuSans-109"/>
       <use x="930.220703" xlink:href="#DejaVuSans-105"/>
       <use x="958.003906" xlink:href="#DejaVuSans-114"/>
       <use x="999.117188" xlink:href="#DejaVuSans-50"/>
       <use x="1062.740234" xlink:href="#DejaVuSans-48"/>
       <use x="1126.363281" xlink:href="#DejaVuSans-49"/>
       <use x="1189.986328" xlink:href="#DejaVuSans-56"/>
      </g>
     </g>
    </g>
    <g id="ytick_2">
     <g id="line2d_15">
      <path clip-path="url(#p0e6199d7fa)" d="M 226.746875 280.534125 
L 617.346875 280.534125 
" style="fill:none;stroke:#b0b0b0;stroke-linecap:square;stroke-width:0.8;"/>
     </g>
     <g id="line2d_16">
      <g>
       <use style="stroke:#000000;stroke-width:0.8;" x="226.746875" xlink:href="#mc1120c8f93" y="280.534125"/>
      </g>
     </g>
     <g id="text_9">
      <!-- schreiber2018/fcn -->
      <g transform="translate(129.096875 284.333344)scale(0.1 -0.1)">
       <defs>
        <path d="M 37.109375 75.984375 
L 37.109375 68.5 
L 28.515625 68.5 
Q 23.6875 68.5 21.796875 66.546875 
Q 19.921875 64.59375 19.921875 59.515625 
L 19.921875 54.6875 
L 34.71875 54.6875 
L 34.71875 47.703125 
L 19.921875 47.703125 
L 19.921875 0 
L 10.890625 0 
L 10.890625 47.703125 
L 2.296875 47.703125 
L 2.296875 54.6875 
L 10.890625 54.6875 
L 10.890625 58.5 
Q 10.890625 67.625 15.140625 71.796875 
Q 19.390625 75.984375 28.609375 75.984375 
z
" id="DejaVuSans-102"/>
        <path d="M 54.890625 33.015625 
L 54.890625 0 
L 45.90625 0 
L 45.90625 32.71875 
Q 45.90625 40.484375 42.875 44.328125 
Q 39.84375 48.1875 33.796875 48.1875 
Q 26.515625 48.1875 22.3125 43.546875 
Q 18.109375 38.921875 18.109375 30.90625 
L 18.109375 0 
L 9.078125 0 
L 9.078125 54.6875 
L 18.109375 54.6875 
L 18.109375 46.1875 
Q 21.34375 51.125 25.703125 53.5625 
Q 30.078125 56 35.796875 56 
Q 45.21875 56 50.046875 50.171875 
Q 54.890625 44.34375 54.890625 33.015625 
z
" id="DejaVuSans-110"/>
       </defs>
       <use xlink:href="#DejaVuSans-115"/>
       <use x="52.099609" xlink:href="#DejaVuSans-99"/>
       <use x="107.080078" xlink:href="#DejaVuSans-104"/>
       <use x="170.458984" xlink:href="#DejaVuSans-114"/>
       <use x="209.322266" xlink:href="#DejaVuSans-101"/>
       <use x="270.845703" xlink:href="#DejaVuSans-105"/>
       <use x="298.628906" xlink:href="#DejaVuSans-98"/>
       <use x="362.105469" xlink:href="#DejaVuSans-101"/>
       <use x="423.628906" xlink:href="#DejaVuSans-114"/>
       <use x="464.742188" xlink:href="#DejaVuSans-50"/>
       <use x="528.365234" xlink:href="#DejaVuSans-48"/>
       <use x="591.988281" xlink:href="#DejaVuSans-49"/>
       <use x="655.611328" xlink:href="#DejaVuSans-56"/>
       <use x="719.234375" xlink:href="#DejaVuSans-47"/>
       <use x="752.925781" xlink:href="#DejaVuSans-102"/>
       <use x="788.130859" xlink:href="#DejaVuSans-99"/>
       <use x="843.111328" xlink:href="#DejaVuSans-110"/>
      </g>
     </g>
    </g>
    <g id="ytick_3">
     <g id="line2d_17">
      <path clip-path="url(#p0e6199d7fa)" d="M 226.746875 241.558125 
L 617.346875 241.558125 
" style="fill:none;stroke:#b0b0b0;stroke-linecap:square;stroke-width:0.8;"/>
     </g>
     <g id="line2d_18">
      <g>
       <use style="stroke:#000000;stroke-width:0.8;" x="226.746875" xlink:href="#mc1120c8f93" y="241.558125"/>
      </g>
     </g>
     <g id="text_10">
      <!-- schreiber2018/cnn -->
      <g transform="translate(126.279687 245.357344)scale(0.1 -0.1)">
       <use xlink:href="#DejaVuSans-115"/>
       <use x="52.099609" xlink:href="#DejaVuSans-99"/>
       <use x="107.080078" xlink:href="#DejaVuSans-104"/>
       <use x="170.458984" xlink:href="#DejaVuSans-114"/>
       <use x="209.322266" xlink:href="#DejaVuSans-101"/>
       <use x="270.845703" xlink:href="#DejaVuSans-105"/>
       <use x="298.628906" xlink:href="#DejaVuSans-98"/>
       <use x="362.105469" xlink:href="#DejaVuSans-101"/>
       <use x="423.628906" xlink:href="#DejaVuSans-114"/>
       <use x="464.742188" xlink:href="#DejaVuSans-50"/>
       <use x="528.365234" xlink:href="#DejaVuSans-48"/>
       <use x="591.988281" xlink:href="#DejaVuSans-49"/>
       <use x="655.611328" xlink:href="#DejaVuSans-56"/>
       <use x="719.234375" xlink:href="#DejaVuSans-47"/>
       <use x="752.925781" xlink:href="#DejaVuSans-99"/>
       <use x="807.90625" xlink:href="#DejaVuSans-110"/>
       <use x="871.285156" xlink:href="#DejaVuSans-110"/>
      </g>
     </g>
    </g>
    <g id="ytick_4">
     <g id="line2d_19">
      <path clip-path="url(#p0e6199d7fa)" d="M 226.746875 202.582125 
L 617.346875 202.582125 
" style="fill:none;stroke:#b0b0b0;stroke-linecap:square;stroke-width:0.8;"/>
     </g>
     <g id="line2d_20">
      <g>
       <use style="stroke:#000000;stroke-width:0.8;" x="226.746875" xlink:href="#mc1120c8f93" y="202.582125"/>
      </g>
     </g>
     <g id="text_11">
      <!-- schreiber2017/mirex2017 -->
      <g transform="translate(90.701562 206.381344)scale(0.1 -0.1)">
       <defs>
        <path d="M 8.203125 72.90625 
L 55.078125 72.90625 
L 55.078125 68.703125 
L 28.609375 0 
L 18.3125 0 
L 43.21875 64.59375 
L 8.203125 64.59375 
z
" id="DejaVuSans-55"/>
        <path d="M 54.890625 54.6875 
L 35.109375 28.078125 
L 55.90625 0 
L 45.3125 0 
L 29.390625 21.484375 
L 13.484375 0 
L 2.875 0 
L 24.125 28.609375 
L 4.6875 54.6875 
L 15.28125 54.6875 
L 29.78125 35.203125 
L 44.28125 54.6875 
z
" id="DejaVuSans-120"/>
       </defs>
       <use xlink:href="#DejaVuSans-115"/>
       <use x="52.099609" xlink:href="#DejaVuSans-99"/>
       <use x="107.080078" xlink:href="#DejaVuSans-104"/>
       <use x="170.458984" xlink:href="#DejaVuSans-114"/>
       <use x="209.322266" xlink:href="#DejaVuSans-101"/>
       <use x="270.845703" xlink:href="#DejaVuSans-105"/>
       <use x="298.628906" xlink:href="#DejaVuSans-98"/>
       <use x="362.105469" xlink:href="#DejaVuSans-101"/>
       <use x="423.628906" xlink:href="#DejaVuSans-114"/>
       <use x="464.742188" xlink:href="#DejaVuSans-50"/>
       <use x="528.365234" xlink:href="#DejaVuSans-48"/>
       <use x="591.988281" xlink:href="#DejaVuSans-49"/>
       <use x="655.611328" xlink:href="#DejaVuSans-55"/>
       <use x="719.234375" xlink:href="#DejaVuSans-47"/>
       <use x="752.925781" xlink:href="#DejaVuSans-109"/>
       <use x="850.337891" xlink:href="#DejaVuSans-105"/>
       <use x="878.121094" xlink:href="#DejaVuSans-114"/>
       <use x="916.984375" xlink:href="#DejaVuSans-101"/>
       <use x="976.757812" xlink:href="#DejaVuSans-120"/>
       <use x="1035.9375" xlink:href="#DejaVuSans-50"/>
       <use x="1099.560547" xlink:href="#DejaVuSans-48"/>
       <use x="1163.183594" xlink:href="#DejaVuSans-49"/>
       <use x="1226.806641" xlink:href="#DejaVuSans-55"/>
      </g>
     </g>
    </g>
    <g id="ytick_5">
     <g id="line2d_21">
      <path clip-path="url(#p0e6199d7fa)" d="M 226.746875 163.606125 
L 617.346875 163.606125 
" style="fill:none;stroke:#b0b0b0;stroke-linecap:square;stroke-width:0.8;"/>
     </g>
     <g id="line2d_22">
      <g>
       <use style="stroke:#000000;stroke-width:0.8;" x="226.746875" xlink:href="#mc1120c8f93" y="163.606125"/>
      </g>
     </g>
     <g id="text_12">
      <!-- schreiber2017/ismir2017 -->
      <g transform="translate(94.385937 167.405344)scale(0.1 -0.1)">
       <use xlink:href="#DejaVuSans-115"/>
       <use x="52.099609" xlink:href="#DejaVuSans-99"/>
       <use x="107.080078" xlink:href="#DejaVuSans-104"/>
       <use x="170.458984" xlink:href="#DejaVuSans-114"/>
       <use x="209.322266" xlink:href="#DejaVuSans-101"/>
       <use x="270.845703" xlink:href="#DejaVuSans-105"/>
       <use x="298.628906" xlink:href="#DejaVuSans-98"/>
       <use x="362.105469" xlink:href="#DejaVuSans-101"/>
       <use x="423.628906" xlink:href="#DejaVuSans-114"/>
       <use x="464.742188" xlink:href="#DejaVuSans-50"/>
       <use x="528.365234" xlink:href="#DejaVuSans-48"/>
       <use x="591.988281" xlink:href="#DejaVuSans-49"/>
       <use x="655.611328" xlink:href="#DejaVuSans-55"/>
       <use x="719.234375" xlink:href="#DejaVuSans-47"/>
       <use x="752.925781" xlink:href="#DejaVuSans-105"/>
       <use x="780.708984" xlink:href="#DejaVuSans-115"/>
       <use x="832.808594" xlink:href="#DejaVuSans-109"/>
       <use x="930.220703" xlink:href="#DejaVuSans-105"/>
       <use x="958.003906" xlink:href="#DejaVuSans-114"/>
       <use x="999.117188" xlink:href="#DejaVuSans-50"/>
       <use x="1062.740234" xlink:href="#DejaVuSans-48"/>
       <use x="1126.363281" xlink:href="#DejaVuSans-49"/>
       <use x="1189.986328" xlink:href="#DejaVuSans-55"/>
      </g>
     </g>
    </g>
    <g id="ytick_6">
     <g id="line2d_23">
      <path clip-path="url(#p0e6199d7fa)" d="M 226.746875 124.630125 
L 617.346875 124.630125 
" style="fill:none;stroke:#b0b0b0;stroke-linecap:square;stroke-width:0.8;"/>
     </g>
     <g id="line2d_24">
      <g>
       <use style="stroke:#000000;stroke-width:0.8;" x="226.746875" xlink:href="#mc1120c8f93" y="124.630125"/>
      </g>
     </g>
     <g id="text_13">
      <!-- percival2014/stem -->
      <g transform="translate(126.415625 128.429344)scale(0.1 -0.1)">
       <defs>
        <path d="M 18.109375 8.203125 
L 18.109375 -20.796875 
L 9.078125 -20.796875 
L 9.078125 54.6875 
L 18.109375 54.6875 
L 18.109375 46.390625 
Q 20.953125 51.265625 25.265625 53.625 
Q 29.59375 56 35.59375 56 
Q 45.5625 56 51.78125 48.09375 
Q 58.015625 40.1875 58.015625 27.296875 
Q 58.015625 14.40625 51.78125 6.484375 
Q 45.5625 -1.421875 35.59375 -1.421875 
Q 29.59375 -1.421875 25.265625 0.953125 
Q 20.953125 3.328125 18.109375 8.203125 
z
M 48.6875 27.296875 
Q 48.6875 37.203125 44.609375 42.84375 
Q 40.53125 48.484375 33.40625 48.484375 
Q 26.265625 48.484375 22.1875 42.84375 
Q 18.109375 37.203125 18.109375 27.296875 
Q 18.109375 17.390625 22.1875 11.75 
Q 26.265625 6.109375 33.40625 6.109375 
Q 40.53125 6.109375 44.609375 11.75 
Q 48.6875 17.390625 48.6875 27.296875 
z
" id="DejaVuSans-112"/>
        <path d="M 2.984375 54.6875 
L 12.5 54.6875 
L 29.59375 8.796875 
L 46.6875 54.6875 
L 56.203125 54.6875 
L 35.6875 0 
L 23.484375 0 
z
" id="DejaVuSans-118"/>
        <path d="M 34.28125 27.484375 
Q 23.390625 27.484375 19.1875 25 
Q 14.984375 22.515625 14.984375 16.5 
Q 14.984375 11.71875 18.140625 8.90625 
Q 21.296875 6.109375 26.703125 6.109375 
Q 34.1875 6.109375 38.703125 11.40625 
Q 43.21875 16.703125 43.21875 25.484375 
L 43.21875 27.484375 
z
M 52.203125 31.203125 
L 52.203125 0 
L 43.21875 0 
L 43.21875 8.296875 
Q 40.140625 3.328125 35.546875 0.953125 
Q 30.953125 -1.421875 24.3125 -1.421875 
Q 15.921875 -1.421875 10.953125 3.296875 
Q 6 8.015625 6 15.921875 
Q 6 25.140625 12.171875 29.828125 
Q 18.359375 34.515625 30.609375 34.515625 
L 43.21875 34.515625 
L 43.21875 35.40625 
Q 43.21875 41.609375 39.140625 45 
Q 35.0625 48.390625 27.6875 48.390625 
Q 23 48.390625 18.546875 47.265625 
Q 14.109375 46.140625 10.015625 43.890625 
L 10.015625 52.203125 
Q 14.9375 54.109375 19.578125 55.046875 
Q 24.21875 56 28.609375 56 
Q 40.484375 56 46.34375 49.84375 
Q 52.203125 43.703125 52.203125 31.203125 
z
" id="DejaVuSans-97"/>
        <path d="M 9.421875 75.984375 
L 18.40625 75.984375 
L 18.40625 0 
L 9.421875 0 
z
" id="DejaVuSans-108"/>
        <path d="M 18.3125 70.21875 
L 18.3125 54.6875 
L 36.8125 54.6875 
L 36.8125 47.703125 
L 18.3125 47.703125 
L 18.3125 18.015625 
Q 18.3125 11.328125 20.140625 9.421875 
Q 21.96875 7.515625 27.59375 7.515625 
L 36.8125 7.515625 
L 36.8125 0 
L 27.59375 0 
Q 17.1875 0 13.234375 3.875 
Q 9.28125 7.765625 9.28125 18.015625 
L 9.28125 47.703125 
L 2.6875 47.703125 
L 2.6875 54.6875 
L 9.28125 54.6875 
L 9.28125 70.21875 
z
" id="DejaVuSans-116"/>
       </defs>
       <use xlink:href="#DejaVuSans-112"/>
       <use x="63.476562" xlink:href="#DejaVuSans-101"/>
       <use x="125" xlink:href="#DejaVuSans-114"/>
       <use x="163.863281" xlink:href="#DejaVuSans-99"/>
       <use x="218.84375" xlink:href="#DejaVuSans-105"/>
       <use x="246.626953" xlink:href="#DejaVuSans-118"/>
       <use x="305.806641" xlink:href="#DejaVuSans-97"/>
       <use x="367.085938" xlink:href="#DejaVuSans-108"/>
       <use x="394.869141" xlink:href="#DejaVuSans-50"/>
       <use x="458.492188" xlink:href="#DejaVuSans-48"/>
       <use x="522.115234" xlink:href="#DejaVuSans-49"/>
       <use x="585.738281" xlink:href="#DejaVuSans-52"/>
       <use x="649.361328" xlink:href="#DejaVuSans-47"/>
       <use x="683.052734" xlink:href="#DejaVuSans-115"/>
       <use x="735.152344" xlink:href="#DejaVuSans-116"/>
       <use x="774.361328" xlink:href="#DejaVuSans-101"/>
       <use x="835.884766" xlink:href="#DejaVuSans-109"/>
      </g>
     </g>
    </g>
    <g id="ytick_7">
     <g id="line2d_25">
      <path clip-path="url(#p0e6199d7fa)" d="M 226.746875 85.654125 
L 617.346875 85.654125 
" style="fill:none;stroke:#b0b0b0;stroke-linecap:square;stroke-width:0.8;"/>
     </g>
     <g id="line2d_26">
      <g>
       <use style="stroke:#000000;stroke-width:0.8;" x="226.746875" xlink:href="#mc1120c8f93" y="85.654125"/>
      </g>
     </g>
     <g id="text_14">
      <!-- davies2009/mirex_qm_tempotracker -->
      <g transform="translate(36.370312 89.453344)scale(0.1 -0.1)">
       <defs>
        <path d="M 45.40625 46.390625 
L 45.40625 75.984375 
L 54.390625 75.984375 
L 54.390625 0 
L 45.40625 0 
L 45.40625 8.203125 
Q 42.578125 3.328125 38.25 0.953125 
Q 33.9375 -1.421875 27.875 -1.421875 
Q 17.96875 -1.421875 11.734375 6.484375 
Q 5.515625 14.40625 5.515625 27.296875 
Q 5.515625 40.1875 11.734375 48.09375 
Q 17.96875 56 27.875 56 
Q 33.9375 56 38.25 53.625 
Q 42.578125 51.265625 45.40625 46.390625 
z
M 14.796875 27.296875 
Q 14.796875 17.390625 18.875 11.75 
Q 22.953125 6.109375 30.078125 6.109375 
Q 37.203125 6.109375 41.296875 11.75 
Q 45.40625 17.390625 45.40625 27.296875 
Q 45.40625 37.203125 41.296875 42.84375 
Q 37.203125 48.484375 30.078125 48.484375 
Q 22.953125 48.484375 18.875 42.84375 
Q 14.796875 37.203125 14.796875 27.296875 
z
" id="DejaVuSans-100"/>
        <path d="M 10.984375 1.515625 
L 10.984375 10.5 
Q 14.703125 8.734375 18.5 7.8125 
Q 22.3125 6.890625 25.984375 6.890625 
Q 35.75 6.890625 40.890625 13.453125 
Q 46.046875 20.015625 46.78125 33.40625 
Q 43.953125 29.203125 39.59375 26.953125 
Q 35.25 24.703125 29.984375 24.703125 
Q 19.046875 24.703125 12.671875 31.3125 
Q 6.296875 37.9375 6.296875 49.421875 
Q 6.296875 60.640625 12.9375 67.421875 
Q 19.578125 74.21875 30.609375 74.21875 
Q 43.265625 74.21875 49.921875 64.515625 
Q 56.59375 54.828125 56.59375 36.375 
Q 56.59375 19.140625 48.40625 8.859375 
Q 40.234375 -1.421875 26.421875 -1.421875 
Q 22.703125 -1.421875 18.890625 -0.6875 
Q 15.09375 0.046875 10.984375 1.515625 
z
M 30.609375 32.421875 
Q 37.25 32.421875 41.125 36.953125 
Q 45.015625 41.5 45.015625 49.421875 
Q 45.015625 57.28125 41.125 61.84375 
Q 37.25 66.40625 30.609375 66.40625 
Q 23.96875 66.40625 20.09375 61.84375 
Q 16.21875 57.28125 16.21875 49.421875 
Q 16.21875 41.5 20.09375 36.953125 
Q 23.96875 32.421875 30.609375 32.421875 
z
" id="DejaVuSans-57"/>
        <path d="M 50.984375 -16.609375 
L 50.984375 -23.578125 
L -0.984375 -23.578125 
L -0.984375 -16.609375 
z
" id="DejaVuSans-95"/>
        <path d="M 14.796875 27.296875 
Q 14.796875 17.390625 18.875 11.75 
Q 22.953125 6.109375 30.078125 6.109375 
Q 37.203125 6.109375 41.296875 11.75 
Q 45.40625 17.390625 45.40625 27.296875 
Q 45.40625 37.203125 41.296875 42.84375 
Q 37.203125 48.484375 30.078125 48.484375 
Q 22.953125 48.484375 18.875 42.84375 
Q 14.796875 37.203125 14.796875 27.296875 
z
M 45.40625 8.203125 
Q 42.578125 3.328125 38.25 0.953125 
Q 33.9375 -1.421875 27.875 -1.421875 
Q 17.96875 -1.421875 11.734375 6.484375 
Q 5.515625 14.40625 5.515625 27.296875 
Q 5.515625 40.1875 11.734375 48.09375 
Q 17.96875 56 27.875 56 
Q 33.9375 56 38.25 53.625 
Q 42.578125 51.265625 45.40625 46.390625 
L 45.40625 54.6875 
L 54.390625 54.6875 
L 54.390625 -20.796875 
L 45.40625 -20.796875 
z
" id="DejaVuSans-113"/>
        <path d="M 30.609375 48.390625 
Q 23.390625 48.390625 19.1875 42.75 
Q 14.984375 37.109375 14.984375 27.296875 
Q 14.984375 17.484375 19.15625 11.84375 
Q 23.34375 6.203125 30.609375 6.203125 
Q 37.796875 6.203125 41.984375 11.859375 
Q 46.1875 17.53125 46.1875 27.296875 
Q 46.1875 37.015625 41.984375 42.703125 
Q 37.796875 48.390625 30.609375 48.390625 
z
M 30.609375 56 
Q 42.328125 56 49.015625 48.375 
Q 55.71875 40.765625 55.71875 27.296875 
Q 55.71875 13.875 49.015625 6.21875 
Q 42.328125 -1.421875 30.609375 -1.421875 
Q 18.84375 -1.421875 12.171875 6.21875 
Q 5.515625 13.875 5.515625 27.296875 
Q 5.515625 40.765625 12.171875 48.375 
Q 18.84375 56 30.609375 56 
z
" id="DejaVuSans-111"/>
        <path d="M 9.078125 75.984375 
L 18.109375 75.984375 
L 18.109375 31.109375 
L 44.921875 54.6875 
L 56.390625 54.6875 
L 27.390625 29.109375 
L 57.625 0 
L 45.90625 0 
L 18.109375 26.703125 
L 18.109375 0 
L 9.078125 0 
z
" id="DejaVuSans-107"/>
       </defs>
       <use xlink:href="#DejaVuSans-100"/>
       <use x="63.476562" xlink:href="#DejaVuSans-97"/>
       <use x="124.755859" xlink:href="#DejaVuSans-118"/>
       <use x="183.935547" xlink:href="#DejaVuSans-105"/>
       <use x="211.71875" xlink:href="#DejaVuSans-101"/>
       <use x="273.242188" xlink:href="#DejaVuSans-115"/>
       <use x="325.341797" xlink:href="#DejaVuSans-50"/>
       <use x="388.964844" xlink:href="#DejaVuSans-48"/>
       <use x="452.587891" xlink:href="#DejaVuSans-48"/>
       <use x="516.210938" xlink:href="#DejaVuSans-57"/>
       <use x="579.833984" xlink:href="#DejaVuSans-47"/>
       <use x="613.525391" xlink:href="#DejaVuSans-109"/>
       <use x="710.9375" xlink:href="#DejaVuSans-105"/>
       <use x="738.720703" xlink:href="#DejaVuSans-114"/>
       <use x="777.583984" xlink:href="#DejaVuSans-101"/>
       <use x="837.357422" xlink:href="#DejaVuSans-120"/>
       <use x="896.537109" xlink:href="#DejaVuSans-95"/>
       <use x="946.537109" xlink:href="#DejaVuSans-113"/>
       <use x="1010.013672" xlink:href="#DejaVuSans-109"/>
       <use x="1107.425781" xlink:href="#DejaVuSans-95"/>
       <use x="1157.425781" xlink:href="#DejaVuSans-116"/>
       <use x="1196.634766" xlink:href="#DejaVuSans-101"/>
       <use x="1258.158203" xlink:href="#DejaVuSans-109"/>
       <use x="1355.570312" xlink:href="#DejaVuSans-112"/>
       <use x="1419.046875" xlink:href="#DejaVuSans-111"/>
       <use x="1480.228516" xlink:href="#DejaVuSans-116"/>
       <use x="1519.4375" xlink:href="#DejaVuSans-114"/>
       <use x="1560.550781" xlink:href="#DejaVuSans-97"/>
       <use x="1621.830078" xlink:href="#DejaVuSans-99"/>
       <use x="1676.810547" xlink:href="#DejaVuSans-107"/>
       <use x="1731.095703" xlink:href="#DejaVuSans-101"/>
       <use x="1792.619141" xlink:href="#DejaVuSans-114"/>
      </g>
     </g>
    </g>
    <g id="ytick_8">
     <g id="line2d_27">
      <path clip-path="url(#p0e6199d7fa)" d="M 226.746875 46.678125 
L 617.346875 46.678125 
" style="fill:none;stroke:#b0b0b0;stroke-linecap:square;stroke-width:0.8;"/>
     </g>
     <g id="line2d_28">
      <g>
       <use style="stroke:#000000;stroke-width:0.8;" x="226.746875" xlink:href="#mc1120c8f93" y="46.678125"/>
      </g>
     </g>
     <g id="text_15">
      <!-- boeck2015/tempodetector2016_default -->
      <g transform="translate(20.878125 50.477344)scale(0.1 -0.1)">
       <defs>
        <path d="M 10.796875 72.90625 
L 49.515625 72.90625 
L 49.515625 64.59375 
L 19.828125 64.59375 
L 19.828125 46.734375 
Q 21.96875 47.46875 24.109375 47.828125 
Q 26.265625 48.1875 28.421875 48.1875 
Q 40.625 48.1875 47.75 41.5 
Q 54.890625 34.8125 54.890625 23.390625 
Q 54.890625 11.625 47.5625 5.09375 
Q 40.234375 -1.421875 26.90625 -1.421875 
Q 22.3125 -1.421875 17.546875 -0.640625 
Q 12.796875 0.140625 7.71875 1.703125 
L 7.71875 11.625 
Q 12.109375 9.234375 16.796875 8.0625 
Q 21.484375 6.890625 26.703125 6.890625 
Q 35.15625 6.890625 40.078125 11.328125 
Q 45.015625 15.765625 45.015625 23.390625 
Q 45.015625 31 40.078125 35.4375 
Q 35.15625 39.890625 26.703125 39.890625 
Q 22.75 39.890625 18.8125 39.015625 
Q 14.890625 38.140625 10.796875 36.28125 
z
" id="DejaVuSans-53"/>
        <path d="M 8.5 21.578125 
L 8.5 54.6875 
L 17.484375 54.6875 
L 17.484375 21.921875 
Q 17.484375 14.15625 20.5 10.265625 
Q 23.53125 6.390625 29.59375 6.390625 
Q 36.859375 6.390625 41.078125 11.03125 
Q 45.3125 15.671875 45.3125 23.6875 
L 45.3125 54.6875 
L 54.296875 54.6875 
L 54.296875 0 
L 45.3125 0 
L 45.3125 8.40625 
Q 42.046875 3.421875 37.71875 1 
Q 33.40625 -1.421875 27.6875 -1.421875 
Q 18.265625 -1.421875 13.375 4.4375 
Q 8.5 10.296875 8.5 21.578125 
z
M 31.109375 56 
z
" id="DejaVuSans-117"/>
       </defs>
       <use xlink:href="#DejaVuSans-98"/>
       <use x="63.476562" xlink:href="#DejaVuSans-111"/>
       <use x="124.658203" xlink:href="#DejaVuSans-101"/>
       <use x="186.181641" xlink:href="#DejaVuSans-99"/>
       <use x="241.162109" xlink:href="#DejaVuSans-107"/>
       <use x="299.072266" xlink:href="#DejaVuSans-50"/>
       <use x="362.695312" xlink:href="#DejaVuSans-48"/>
       <use x="426.318359" xlink:href="#DejaVuSans-49"/>
       <use x="489.941406" xlink:href="#DejaVuSans-53"/>
       <use x="553.564453" xlink:href="#DejaVuSans-47"/>
       <use x="587.255859" xlink:href="#DejaVuSans-116"/>
       <use x="626.464844" xlink:href="#DejaVuSans-101"/>
       <use x="687.988281" xlink:href="#DejaVuSans-109"/>
       <use x="785.400391" xlink:href="#DejaVuSans-112"/>
       <use x="848.876953" xlink:href="#DejaVuSans-111"/>
       <use x="910.058594" xlink:href="#DejaVuSans-100"/>
       <use x="973.535156" xlink:href="#DejaVuSans-101"/>
       <use x="1035.058594" xlink:href="#DejaVuSans-116"/>
       <use x="1074.267578" xlink:href="#DejaVuSans-101"/>
       <use x="1135.791016" xlink:href="#DejaVuSans-99"/>
       <use x="1190.771484" xlink:href="#DejaVuSans-116"/>
       <use x="1229.980469" xlink:href="#DejaVuSans-111"/>
       <use x="1291.162109" xlink:href="#DejaVuSans-114"/>
       <use x="1332.275391" xlink:href="#DejaVuSans-50"/>
       <use x="1395.898438" xlink:href="#DejaVuSans-48"/>
       <use x="1459.521484" xlink:href="#DejaVuSans-49"/>
       <use x="1523.144531" xlink:href="#DejaVuSans-54"/>
       <use x="1586.767578" xlink:href="#DejaVuSans-95"/>
       <use x="1636.767578" xlink:href="#DejaVuSans-100"/>
       <use x="1700.244141" xlink:href="#DejaVuSans-101"/>
       <use x="1761.767578" xlink:href="#DejaVuSans-102"/>
       <use x="1796.972656" xlink:href="#DejaVuSans-97"/>
       <use x="1858.251953" xlink:href="#DejaVuSans-117"/>
       <use x="1921.630859" xlink:href="#DejaVuSans-108"/>
       <use x="1949.414062" xlink:href="#DejaVuSans-116"/>
      </g>
     </g>
    </g>
    <g id="text_16">
     <!-- Estimator -->
     <g transform="translate(14.798437 207.216781)rotate(-90)scale(0.1 -0.1)">
      <use xlink:href="#DejaVuSans-69"/>
      <use x="63.183594" xlink:href="#DejaVuSans-115"/>
      <use x="115.283203" xlink:href="#DejaVuSans-116"/>
      <use x="154.492188" xlink:href="#DejaVuSans-105"/>
      <use x="182.275391" xlink:href="#DejaVuSans-109"/>
      <use x="279.6875" xlink:href="#DejaVuSans-97"/>
      <use x="340.966797" xlink:href="#DejaVuSans-116"/>
      <use x="380.175781" xlink:href="#DejaVuSans-111"/>
      <use x="441.357422" xlink:href="#DejaVuSans-114"/>
     </g>
    </g>
   </g>
   <g id="PolyCollection_1">
    <path clip-path="url(#p0e6199d7fa)" d="M 227.120414 319.506847 
L 227.120414 319.513403 
L 227.483092 319.51132 
L 227.84577 319.510233 
L 228.208448 319.511463 
L 228.571127 319.515807 
L 228.933805 319.516033 
L 229.296483 319.521828 
L 229.659161 319.526565 
L 230.021839 319.518797 
L 230.384517 319.512242 
L 230.747195 319.510261 
L 231.109873 319.510435 
L 231.472551 319.512595 
L 231.835229 319.512747 
L 232.197907 319.510494 
L 232.560585 319.510132 
L 232.923263 319.510125 
L 233.285941 319.510125 
L 233.648619 319.510125 
L 234.011298 319.510125 
L 234.373976 319.510125 
L 234.736654 319.510125 
L 235.099332 319.510125 
L 235.46201 319.510125 
L 235.824688 319.510125 
L 236.187366 319.510125 
L 236.550044 319.510136 
L 236.912722 319.510602 
L 237.2754 319.512954 
L 237.638078 319.512354 
L 238.000756 319.510413 
L 238.363434 319.511289 
L 238.726112 319.513402 
L 239.08879 319.511354 
L 239.451469 319.510186 
L 239.814147 319.510125 
L 240.176825 319.510125 
L 240.539503 319.510125 
L 240.902181 319.510125 
L 241.264859 319.510125 
L 241.627537 319.510127 
L 241.990215 319.510307 
L 242.352893 319.512152 
L 242.715571 319.513677 
L 243.078249 319.518539 
L 243.440927 319.528488 
L 243.803605 319.532375 
L 244.166283 319.561674 
L 244.528961 319.825913 
L 244.89164 322.491787 
L 245.254318 329.254125 
L 245.616996 325.93167 
L 245.979674 320.474142 
L 246.342352 319.623198 
L 246.70503 319.545118 
L 247.067708 319.528392 
L 247.430386 319.51888 
L 247.793064 319.5192 
L 248.155742 319.515768 
L 248.51842 319.510977 
L 248.881098 319.511902 
L 249.243776 319.513253 
L 249.606454 319.510863 
L 249.969132 319.510148 
L 250.331811 319.510125 
L 250.694489 319.510125 
L 251.057167 319.510125 
L 251.419845 319.510125 
L 251.782523 319.510125 
L 252.145201 319.510125 
L 252.507879 319.510126 
L 252.870557 319.510268 
L 253.233235 319.51195 
L 253.595913 319.513237 
L 253.958591 319.511444 
L 254.321269 319.513169 
L 254.683947 319.512076 
L 255.046625 319.510292 
L 255.409303 319.510127 
L 255.771982 319.510125 
L 256.13466 319.510125 
L 256.497338 319.510125 
L 256.860016 319.510125 
L 257.222694 319.510125 
L 257.585372 319.510125 
L 257.94805 319.510125 
L 258.310728 319.510125 
L 258.673406 319.510125 
L 259.036084 319.510125 
L 259.398762 319.510125 
L 259.76144 319.510131 
L 260.124118 319.510665 
L 260.486796 319.516944 
L 260.849474 319.5247 
L 261.212153 319.517229 
L 261.574831 319.514352 
L 261.937509 319.515149 
L 262.300187 319.514478 
L 262.662865 319.518973 
L 263.025543 319.519819 
L 263.025543 319.500431 
L 263.025543 319.500431 
L 262.662865 319.501277 
L 262.300187 319.505772 
L 261.937509 319.505101 
L 261.574831 319.505898 
L 261.212153 319.503021 
L 260.849474 319.49555 
L 260.486796 319.503306 
L 260.124118 319.509585 
L 259.76144 319.510119 
L 259.398762 319.510125 
L 259.036084 319.510125 
L 258.673406 319.510125 
L 258.310728 319.510125 
L 257.94805 319.510125 
L 257.585372 319.510125 
L 257.222694 319.510125 
L 256.860016 319.510125 
L 256.497338 319.510125 
L 256.13466 319.510125 
L 255.771982 319.510125 
L 255.409303 319.510123 
L 255.046625 319.509958 
L 254.683947 319.508174 
L 254.321269 319.507081 
L 253.958591 319.508806 
L 253.595913 319.507013 
L 253.233235 319.5083 
L 252.870557 319.509982 
L 252.507879 319.510124 
L 252.145201 319.510125 
L 251.782523 319.510125 
L 251.419845 319.510125 
L 251.057167 319.510125 
L 250.694489 319.510125 
L 250.331811 319.510125 
L 249.969132 319.510102 
L 249.606454 319.509387 
L 249.243776 319.506997 
L 248.881098 319.508348 
L 248.51842 319.509273 
L 248.155742 319.504482 
L 247.793064 319.50105 
L 247.430386 319.50137 
L 247.067708 319.491858 
L 246.70503 319.475132 
L 246.342352 319.397052 
L 245.979674 318.546108 
L 245.616996 313.08858 
L 245.254318 309.766125 
L 244.89164 316.528463 
L 244.528961 319.194337 
L 244.166283 319.458576 
L 243.803605 319.487875 
L 243.440927 319.491762 
L 243.078249 319.501711 
L 242.715571 319.506573 
L 242.352893 319.508098 
L 241.990215 319.509943 
L 241.627537 319.510123 
L 241.264859 319.510125 
L 240.902181 319.510125 
L 240.539503 319.510125 
L 240.176825 319.510125 
L 239.814147 319.510125 
L 239.451469 319.510064 
L 239.08879 319.508896 
L 238.726112 319.506848 
L 238.363434 319.508961 
L 238.000756 319.509837 
L 237.638078 319.507896 
L 237.2754 319.507296 
L 236.912722 319.509648 
L 236.550044 319.510114 
L 236.187366 319.510125 
L 235.824688 319.510125 
L 235.46201 319.510125 
L 235.099332 319.510125 
L 234.736654 319.510125 
L 234.373976 319.510125 
L 234.011298 319.510125 
L 233.648619 319.510125 
L 233.285941 319.510125 
L 232.923263 319.510125 
L 232.560585 319.510118 
L 232.197907 319.509756 
L 231.835229 319.507503 
L 231.472551 319.507655 
L 231.109873 319.509815 
L 230.747195 319.509989 
L 230.384517 319.508008 
L 230.021839 319.501453 
L 229.659161 319.493685 
L 229.296483 319.498422 
L 228.933805 319.504217 
L 228.571127 319.504443 
L 228.208448 319.508787 
L 227.84577 319.510017 
L 227.483092 319.50893 
L 227.120414 319.506847 
z
" style="fill:#ff0000;fill-opacity:0.75;"/>
   </g>
   <g id="PolyCollection_2">
    <path clip-path="url(#p0e6199d7fa)" d="M 227.613782 280.530929 
L 227.613782 280.537321 
L 227.954917 280.535491 
L 228.296052 280.534497 
L 228.637188 280.537882 
L 228.978323 280.544648 
L 229.319458 280.543328 
L 229.660593 280.542292 
L 230.001728 280.538585 
L 230.342864 280.536194 
L 230.683999 280.537323 
L 231.025134 280.535395 
L 231.366269 280.535211 
L 231.707405 280.537254 
L 232.04854 280.536156 
L 232.389675 280.536388 
L 232.73081 280.537102 
L 233.071946 280.534897 
L 233.413081 280.534161 
L 233.754216 280.534125 
L 234.095351 280.534125 
L 234.436487 280.534125 
L 234.777622 280.534125 
L 235.118757 280.534125 
L 235.459892 280.534125 
L 235.801028 280.534125 
L 236.142163 280.534125 
L 236.483298 280.534125 
L 236.824433 280.534126 
L 237.165569 280.53423 
L 237.506704 280.535481 
L 237.847839 280.537332 
L 238.188974 280.535864 
L 238.53011 280.536608 
L 238.871245 280.536895 
L 239.21238 280.534733 
L 239.553515 280.534724 
L 239.894651 280.536885 
L 240.235786 280.536769 
L 240.576921 280.537184 
L 240.918056 280.54167 
L 241.259192 280.54058 
L 241.600327 280.536213 
L 241.941462 280.537383 
L 242.282597 280.538854 
L 242.623733 280.538992 
L 242.964868 280.540861 
L 243.306003 280.548667 
L 243.647138 280.554558 
L 243.988274 280.560808 
L 244.329409 280.626069 
L 244.670544 281.339863 
L 245.011679 285.43476 
L 245.352815 290.278125 
L 245.69395 285.689253 
L 246.035085 281.499383 
L 246.37622 280.672298 
L 246.717356 280.561557 
L 247.058491 280.544931 
L 247.399626 280.537908 
L 247.740761 280.536107 
L 248.081896 280.53733 
L 248.423032 280.536057 
L 248.764167 280.537219 
L 249.105302 280.536156 
L 249.446437 280.535201 
L 249.787573 280.537157 
L 250.128708 280.53611 
L 250.469843 280.534362 
L 250.810978 280.53413 
L 251.152114 280.534125 
L 251.493249 280.534126 
L 251.834384 280.534206 
L 252.175519 280.535316 
L 252.516655 280.537307 
L 252.85779 280.535768 
L 253.198925 280.535638 
L 253.54006 280.538273 
L 253.881196 280.538623 
L 254.222331 280.536069 
L 254.563466 280.534324 
L 254.904601 280.534129 
L 255.245737 280.534183 
L 255.586872 280.535121 
L 255.928007 280.537244 
L 256.269142 280.5359 
L 256.610278 280.534308 
L 256.951413 280.534128 
L 257.292548 280.534125 
L 257.633683 280.534125 
L 257.974819 280.534125 
L 258.315954 280.534125 
L 258.657089 280.534125 
L 258.998224 280.534125 
L 259.33936 280.534131 
L 259.680495 280.534411 
L 260.02163 280.537574 
L 260.362765 280.546871 
L 260.703901 280.556301 
L 261.045036 280.562071 
L 261.386171 280.55031 
L 261.386171 280.51794 
L 261.386171 280.51794 
L 261.045036 280.506179 
L 260.703901 280.511949 
L 260.362765 280.521379 
L 260.02163 280.530676 
L 259.680495 280.533839 
L 259.33936 280.534119 
L 258.998224 280.534125 
L 258.657089 280.534125 
L 258.315954 280.534125 
L 257.974819 280.534125 
L 257.633683 280.534125 
L 257.292548 280.534125 
L 256.951413 280.534122 
L 256.610278 280.533942 
L 256.269142 280.53235 
L 255.928007 280.531006 
L 255.586872 280.533129 
L 255.245737 280.534067 
L 254.904601 280.534121 
L 254.563466 280.533926 
L 254.222331 280.532181 
L 253.881196 280.529627 
L 253.54006 280.529977 
L 253.198925 280.532612 
L 252.85779 280.532482 
L 252.516655 280.530943 
L 252.175519 280.532934 
L 251.834384 280.534044 
L 251.493249 280.534124 
L 251.152114 280.534125 
L 250.810978 280.53412 
L 250.469843 280.533888 
L 250.128708 280.53214 
L 249.787573 280.531093 
L 249.446437 280.533049 
L 249.105302 280.532094 
L 248.764167 280.531031 
L 248.423032 280.532193 
L 248.081896 280.53092 
L 247.740761 280.532143 
L 247.399626 280.530342 
L 247.058491 280.523319 
L 246.717356 280.506693 
L 246.37622 280.395952 
L 246.035085 279.568867 
L 245.69395 275.378997 
L 245.352815 270.790125 
L 245.011679 275.63349 
L 244.670544 279.728387 
L 244.329409 280.442181 
L 243.988274 280.507442 
L 243.647138 280.513692 
L 243.306003 280.519583 
L 242.964868 280.527389 
L 242.623733 280.529258 
L 242.282597 280.529396 
L 241.941462 280.530867 
L 241.600327 280.532037 
L 241.259192 280.52767 
L 240.918056 280.52658 
L 240.576921 280.531066 
L 240.235786 280.531481 
L 239.894651 280.531365 
L 239.553515 280.533526 
L 239.21238 280.533517 
L 238.871245 280.531355 
L 238.53011 280.531642 
L 238.188974 280.532386 
L 237.847839 280.530918 
L 237.506704 280.532769 
L 237.165569 280.53402 
L 236.824433 280.534124 
L 236.483298 280.534125 
L 236.142163 280.534125 
L 235.801028 280.534125 
L 235.459892 280.534125 
L 235.118757 280.534125 
L 234.777622 280.534125 
L 234.436487 280.534125 
L 234.095351 280.534125 
L 233.754216 280.534125 
L 233.413081 280.534089 
L 233.071946 280.533353 
L 232.73081 280.531148 
L 232.389675 280.531862 
L 232.04854 280.532094 
L 231.707405 280.530996 
L 231.366269 280.533039 
L 231.025134 280.532855 
L 230.683999 280.530927 
L 230.342864 280.532056 
L 230.001728 280.529665 
L 229.660593 280.525958 
L 229.319458 280.524922 
L 228.978323 280.523602 
L 228.637188 280.530368 
L 228.296052 280.533753 
L 227.954917 280.532759 
L 227.613782 280.530929 
z
" style="fill:#ff0000;fill-opacity:0.75;"/>
   </g>
   <g id="PolyCollection_3">
    <path clip-path="url(#p0e6199d7fa)" d="M 229.026438 241.553066 
L 229.026438 241.563184 
L 229.453136 241.56854 
L 229.879834 241.566438 
L 230.306532 241.560261 
L 230.73323 241.561351 
L 231.159928 241.558653 
L 231.586626 241.558132 
L 232.013324 241.558321 
L 232.440022 241.560672 
L 232.866719 241.560344 
L 233.293417 241.558254 
L 233.720115 241.558126 
L 234.146813 241.558168 
L 234.573511 241.559551 
L 235.000209 241.561283 
L 235.426907 241.558593 
L 235.853605 241.558132 
L 236.280303 241.558431 
L 236.707001 241.561011 
L 237.133698 241.559949 
L 237.560396 241.558202 
L 237.987094 241.558129 
L 238.413792 241.558706 
L 238.84049 241.563712 
L 239.267188 241.561954 
L 239.693886 241.558312 
L 240.120584 241.558126 
L 240.547282 241.558126 
L 240.97398 241.558349 
L 241.400677 241.560922 
L 241.827375 241.563786 
L 242.254073 241.566598 
L 242.680771 241.5644 
L 243.107469 241.563647 
L 243.534167 241.572457 
L 243.960865 241.582828 
L 244.387563 241.670845 
L 244.814261 243.438804 
L 245.240959 251.302125 
L 245.667657 247.365055 
L 246.094354 242.126939 
L 246.521052 241.614582 
L 246.94775 241.570057 
L 247.374448 241.565428 
L 247.801146 241.562488 
L 248.227844 241.558412 
L 248.654542 241.558135 
L 249.08124 241.558789 
L 249.507938 241.562743 
L 249.934636 241.562488 
L 250.361333 241.55867 
L 250.788031 241.558131 
L 251.214729 241.558125 
L 251.641427 241.558125 
L 252.068125 241.558125 
L 252.494823 241.558125 
L 252.921521 241.558125 
L 253.348219 241.558125 
L 253.774917 241.558125 
L 254.201615 241.558125 
L 254.628313 241.558125 
L 255.05501 241.558125 
L 255.481708 241.558125 
L 255.908406 241.558125 
L 256.335104 241.558125 
L 256.761802 241.558147 
L 257.1885 241.559175 
L 257.615198 241.561445 
L 258.041896 241.558828 
L 258.468594 241.558135 
L 258.895292 241.558173 
L 259.321989 241.559625 
L 259.748687 241.561294 
L 260.175385 241.561068 
L 260.602083 241.577368 
L 261.028781 241.586744 
L 261.455479 241.56367 
L 261.882177 241.558242 
L 262.308875 241.558199 
L 262.735573 241.560016 
L 263.162271 241.563056 
L 263.588968 241.561166 
L 264.015666 241.558373 
L 264.442364 241.558126 
L 264.869062 241.558125 
L 265.29576 241.558125 
L 265.722458 241.558125 
L 266.149156 241.558125 
L 266.575854 241.558125 
L 267.002552 241.558125 
L 267.42925 241.558125 
L 267.855948 241.558125 
L 268.282645 241.558125 
L 268.709343 241.558125 
L 269.136041 241.558125 
L 269.562739 241.558125 
L 269.989437 241.558125 
L 270.416135 241.55814 
L 270.842833 241.55899 
L 271.269531 241.56147 
L 271.269531 241.55478 
L 271.269531 241.55478 
L 270.842833 241.55726 
L 270.416135 241.55811 
L 269.989437 241.558125 
L 269.562739 241.558125 
L 269.136041 241.558125 
L 268.709343 241.558125 
L 268.282645 241.558125 
L 267.855948 241.558125 
L 267.42925 241.558125 
L 267.002552 241.558125 
L 266.575854 241.558125 
L 266.149156 241.558125 
L 265.722458 241.558125 
L 265.29576 241.558125 
L 264.869062 241.558125 
L 264.442364 241.558124 
L 264.015666 241.557877 
L 263.588968 241.555084 
L 263.162271 241.553194 
L 262.735573 241.556234 
L 262.308875 241.558051 
L 261.882177 241.558008 
L 261.455479 241.55258 
L 261.028781 241.529506 
L 260.602083 241.538882 
L 260.175385 241.555182 
L 259.748687 241.554956 
L 259.321989 241.556625 
L 258.895292 241.558077 
L 258.468594 241.558115 
L 258.041896 241.557422 
L 257.615198 241.554805 
L 257.1885 241.557075 
L 256.761802 241.558103 
L 256.335104 241.558125 
L 255.908406 241.558125 
L 255.481708 241.558125 
L 255.05501 241.558125 
L 254.628313 241.558125 
L 254.201615 241.558125 
L 253.774917 241.558125 
L 253.348219 241.558125 
L 252.921521 241.558125 
L 252.494823 241.558125 
L 252.068125 241.558125 
L 251.641427 241.558125 
L 251.214729 241.558125 
L 250.788031 241.558119 
L 250.361333 241.55758 
L 249.934636 241.553762 
L 249.507938 241.553507 
L 249.08124 241.557461 
L 248.654542 241.558115 
L 248.227844 241.557838 
L 247.801146 241.553762 
L 247.374448 241.550822 
L 246.94775 241.546193 
L 246.521052 241.501668 
L 246.094354 240.989311 
L 245.667657 235.751195 
L 245.240959 231.814125 
L 244.814261 239.677446 
L 244.387563 241.445405 
L 243.960865 241.533422 
L 243.534167 241.543793 
L 243.107469 241.552603 
L 242.680771 241.55185 
L 242.254073 241.549652 
L 241.827375 241.552464 
L 241.400677 241.555328 
L 240.97398 241.557901 
L 240.547282 241.558124 
L 240.120584 241.558124 
L 239.693886 241.557938 
L 239.267188 241.554296 
L 238.84049 241.552538 
L 238.413792 241.557544 
L 237.987094 241.558121 
L 237.560396 241.558048 
L 237.133698 241.556301 
L 236.707001 241.555239 
L 236.280303 241.557819 
L 235.853605 241.558118 
L 235.426907 241.557657 
L 235.000209 241.554967 
L 234.573511 241.556699 
L 234.146813 241.558082 
L 233.720115 241.558124 
L 233.293417 241.557996 
L 232.866719 241.555906 
L 232.440022 241.555578 
L 232.013324 241.557929 
L 231.586626 241.558118 
L 231.159928 241.557597 
L 230.73323 241.554899 
L 230.306532 241.555989 
L 229.879834 241.549812 
L 229.453136 241.54771 
L 229.026438 241.553066 
z
" style="fill:#ff0000;fill-opacity:0.75;"/>
   </g>
   <g id="PolyCollection_4">
    <path clip-path="url(#p0e6199d7fa)" d="M 229.427009 202.579351 
L 229.427009 202.584899 
L 229.664423 202.58283 
L 229.901838 202.584694 
L 230.139253 202.583139 
L 230.376667 202.584213 
L 230.614082 202.584435 
L 230.851496 202.582855 
L 231.088911 202.582126 
L 231.326325 202.582125 
L 231.56374 202.582125 
L 231.801154 202.582125 
L 232.038569 202.582125 
L 232.275983 202.582125 
L 232.513398 202.582125 
L 232.750812 202.582125 
L 232.988227 202.582125 
L 233.225641 202.582125 
L 233.463056 202.582125 
L 233.700471 202.582125 
L 233.937885 202.582125 
L 234.1753 202.582125 
L 234.412714 202.582125 
L 234.650129 202.582125 
L 234.887543 202.582125 
L 235.124958 202.582125 
L 235.362372 202.582125 
L 235.599787 202.582125 
L 235.837201 202.582125 
L 236.074616 202.582125 
L 236.31203 202.582125 
L 236.549445 202.582125 
L 236.786859 202.582125 
L 237.024274 202.582125 
L 237.261689 202.582125 
L 237.499103 202.582125 
L 237.736518 202.582125 
L 237.973932 202.582125 
L 238.211347 202.582125 
L 238.448761 202.582125 
L 238.686176 202.582125 
L 238.92359 202.582125 
L 239.161005 202.582125 
L 239.398419 202.582125 
L 239.635834 202.582125 
L 239.873248 202.582125 
L 240.110663 202.582125 
L 240.348077 202.582125 
L 240.585492 202.582125 
L 240.822907 202.582125 
L 241.060321 202.582125 
L 241.297736 202.582125 
L 241.53515 202.582125 
L 241.772565 202.582125 
L 242.009979 202.582125 
L 242.247394 202.582125 
L 242.484808 202.582125 
L 242.722223 202.582125 
L 242.959637 202.582125 
L 243.197052 202.582125 
L 243.434466 202.582152 
L 243.671881 202.585203 
L 243.909295 202.584959 
L 244.14671 202.582147 
L 244.384125 202.583222 
L 244.621539 202.590537 
L 244.858954 202.590138 
L 245.096368 203.207943 
L 245.333783 212.326125 
L 245.571197 203.662945 
L 245.808612 202.594426 
L 246.046026 202.591468 
L 246.283441 202.582778 
L 246.520855 202.582126 
L 246.75827 202.582135 
L 246.995684 202.583647 
L 247.233099 202.583536 
L 247.470513 202.582133 
L 247.707928 202.582125 
L 247.945342 202.582125 
L 248.182757 202.582125 
L 248.420172 202.582125 
L 248.657586 202.582125 
L 248.895001 202.582125 
L 249.132415 202.582125 
L 249.36983 202.582125 
L 249.607244 202.582125 
L 249.844659 202.582125 
L 250.082073 202.582125 
L 250.319488 202.582125 
L 250.556902 202.582125 
L 250.794317 202.582125 
L 251.031731 202.582125 
L 251.269146 202.582125 
L 251.50656 202.582125 
L 251.743975 202.582125 
L 251.98139 202.582125 
L 252.218804 202.582198 
L 252.456219 202.584642 
L 252.693633 202.582873 
L 252.931048 202.584899 
L 252.931048 202.579351 
L 252.931048 202.579351 
L 252.693633 202.581377 
L 252.456219 202.579608 
L 252.218804 202.582052 
L 251.98139 202.582125 
L 251.743975 202.582125 
L 251.50656 202.582125 
L 251.269146 202.582125 
L 251.031731 202.582125 
L 250.794317 202.582125 
L 250.556902 202.582125 
L 250.319488 202.582125 
L 250.082073 202.582125 
L 249.844659 202.582125 
L 249.607244 202.582125 
L 249.36983 202.582125 
L 249.132415 202.582125 
L 248.895001 202.582125 
L 248.657586 202.582125 
L 248.420172 202.582125 
L 248.182757 202.582125 
L 247.945342 202.582125 
L 247.707928 202.582125 
L 247.470513 202.582117 
L 247.233099 202.580714 
L 246.995684 202.580603 
L 246.75827 202.582115 
L 246.520855 202.582124 
L 246.283441 202.581472 
L 246.046026 202.572782 
L 245.808612 202.569824 
L 245.571197 201.501305 
L 245.333783 192.838125 
L 245.096368 201.956307 
L 244.858954 202.574112 
L 244.621539 202.573713 
L 244.384125 202.581028 
L 244.14671 202.582103 
L 243.909295 202.579291 
L 243.671881 202.579047 
L 243.434466 202.582098 
L 243.197052 202.582125 
L 242.959637 202.582125 
L 242.722223 202.582125 
L 242.484808 202.582125 
L 242.247394 202.582125 
L 242.009979 202.582125 
L 241.772565 202.582125 
L 241.53515 202.582125 
L 241.297736 202.582125 
L 241.060321 202.582125 
L 240.822907 202.582125 
L 240.585492 202.582125 
L 240.348077 202.582125 
L 240.110663 202.582125 
L 239.873248 202.582125 
L 239.635834 202.582125 
L 239.398419 202.582125 
L 239.161005 202.582125 
L 238.92359 202.582125 
L 238.686176 202.582125 
L 238.448761 202.582125 
L 238.211347 202.582125 
L 237.973932 202.582125 
L 237.736518 202.582125 
L 237.499103 202.582125 
L 237.261689 202.582125 
L 237.024274 202.582125 
L 236.786859 202.582125 
L 236.549445 202.582125 
L 236.31203 202.582125 
L 236.074616 202.582125 
L 235.837201 202.582125 
L 235.599787 202.582125 
L 235.362372 202.582125 
L 235.124958 202.582125 
L 234.887543 202.582125 
L 234.650129 202.582125 
L 234.412714 202.582125 
L 234.1753 202.582125 
L 233.937885 202.582125 
L 233.700471 202.582125 
L 233.463056 202.582125 
L 233.225641 202.582125 
L 232.988227 202.582125 
L 232.750812 202.582125 
L 232.513398 202.582125 
L 232.275983 202.582125 
L 232.038569 202.582125 
L 231.801154 202.582125 
L 231.56374 202.582125 
L 231.326325 202.582125 
L 231.088911 202.582124 
L 230.851496 202.581395 
L 230.614082 202.579815 
L 230.376667 202.580037 
L 230.139253 202.581111 
L 229.901838 202.579556 
L 229.664423 202.58142 
L 229.427009 202.579351 
z
" style="fill:#ff0000;fill-opacity:0.75;"/>
   </g>
   <g id="PolyCollection_5">
    <path clip-path="url(#p0e6199d7fa)" d="M 229.427009 163.602618 
L 229.427009 163.609632 
L 229.743769 163.608332 
L 230.060529 163.607389 
L 230.37729 163.608967 
L 230.69405 163.609612 
L 231.01081 163.606186 
L 231.32757 163.606125 
L 231.64433 163.606125 
L 231.96109 163.606125 
L 232.277851 163.606125 
L 232.594611 163.606125 
L 232.911371 163.606125 
L 233.228131 163.606125 
L 233.544891 163.606125 
L 233.861652 163.606125 
L 234.178412 163.606125 
L 234.495172 163.606125 
L 234.811932 163.606125 
L 235.128692 163.606125 
L 235.445452 163.606125 
L 235.762213 163.606125 
L 236.078973 163.606125 
L 236.395733 163.606125 
L 236.712493 163.606125 
L 237.029253 163.606125 
L 237.346014 163.606125 
L 237.662774 163.606125 
L 237.979534 163.606125 
L 238.296294 163.606125 
L 238.613054 163.606125 
L 238.929814 163.606125 
L 239.246575 163.606125 
L 239.563335 163.606125 
L 239.880095 163.606125 
L 240.196855 163.606125 
L 240.513615 163.606125 
L 240.830376 163.606125 
L 241.147136 163.606125 
L 241.463896 163.606125 
L 241.780656 163.606125 
L 242.097416 163.606125 
L 242.414177 163.606125 
L 242.730937 163.606125 
L 243.047697 163.606125 
L 243.364457 163.606138 
L 243.681217 163.610758 
L 243.997977 163.607547 
L 244.314738 163.60671 
L 244.631498 163.617238 
L 244.948258 163.659448 
L 245.265018 173.350125 
L 245.581778 165.316172 
L 245.898539 163.621578 
L 246.215299 163.60954 
L 246.532059 163.606128 
L 246.848819 163.606403 
L 247.165579 163.609262 
L 247.482339 163.606147 
L 247.7991 163.606125 
L 248.11586 163.606125 
L 248.43262 163.606125 
L 248.74938 163.606125 
L 249.06614 163.606125 
L 249.382901 163.606125 
L 249.699661 163.606125 
L 250.016421 163.606125 
L 250.333181 163.606125 
L 250.649941 163.606125 
L 250.966701 163.606125 
L 251.283462 163.606125 
L 251.600222 163.606125 
L 251.916982 163.606125 
L 252.233742 163.606369 
L 252.550502 163.60936 
L 252.867263 163.609166 
L 253.184023 163.606455 
L 253.500783 163.606125 
L 253.817543 163.606125 
L 254.134303 163.606125 
L 254.451064 163.606125 
L 254.767824 163.606125 
L 255.084584 163.606125 
L 255.401344 163.606125 
L 255.718104 163.606125 
L 256.034864 163.606125 
L 256.351625 163.606125 
L 256.668385 163.606125 
L 256.985145 163.606125 
L 257.301905 163.606125 
L 257.618665 163.606125 
L 257.935426 163.606125 
L 258.252186 163.606125 
L 258.568946 163.606125 
L 258.885706 163.606125 
L 259.202466 163.606125 
L 259.519226 163.606125 
L 259.835987 163.606125 
L 260.152747 163.606125 
L 260.469507 163.606211 
L 260.786267 163.609629 
L 260.786267 163.602621 
L 260.786267 163.602621 
L 260.469507 163.606039 
L 260.152747 163.606125 
L 259.835987 163.606125 
L 259.519226 163.606125 
L 259.202466 163.606125 
L 258.885706 163.606125 
L 258.568946 163.606125 
L 258.252186 163.606125 
L 257.935426 163.606125 
L 257.618665 163.606125 
L 257.301905 163.606125 
L 256.985145 163.606125 
L 256.668385 163.606125 
L 256.351625 163.606125 
L 256.034864 163.606125 
L 255.718104 163.606125 
L 255.401344 163.606125 
L 255.084584 163.606125 
L 254.767824 163.606125 
L 254.451064 163.606125 
L 254.134303 163.606125 
L 253.817543 163.606125 
L 253.500783 163.606125 
L 253.184023 163.605795 
L 252.867263 163.603084 
L 252.550502 163.60289 
L 252.233742 163.605881 
L 251.916982 163.606125 
L 251.600222 163.606125 
L 251.283462 163.606125 
L 250.966701 163.606125 
L 250.649941 163.606125 
L 250.333181 163.606125 
L 250.016421 163.606125 
L 249.699661 163.606125 
L 249.382901 163.606125 
L 249.06614 163.606125 
L 248.74938 163.606125 
L 248.43262 163.606125 
L 248.11586 163.606125 
L 247.7991 163.606125 
L 247.482339 163.606103 
L 247.165579 163.602988 
L 246.848819 163.605847 
L 246.532059 163.606122 
L 246.215299 163.60271 
L 245.898539 163.590672 
L 245.581778 161.896078 
L 245.265018 153.862125 
L 244.948258 163.552802 
L 244.631498 163.595012 
L 244.314738 163.60554 
L 243.997977 163.604703 
L 243.681217 163.601492 
L 243.364457 163.606112 
L 243.047697 163.606125 
L 242.730937 163.606125 
L 242.414177 163.606125 
L 242.097416 163.606125 
L 241.780656 163.606125 
L 241.463896 163.606125 
L 241.147136 163.606125 
L 240.830376 163.606125 
L 240.513615 163.606125 
L 240.196855 163.606125 
L 239.880095 163.606125 
L 239.563335 163.606125 
L 239.246575 163.606125 
L 238.929814 163.606125 
L 238.613054 163.606125 
L 238.296294 163.606125 
L 237.979534 163.606125 
L 237.662774 163.606125 
L 237.346014 163.606125 
L 237.029253 163.606125 
L 236.712493 163.606125 
L 236.395733 163.606125 
L 236.078973 163.606125 
L 235.762213 163.606125 
L 235.445452 163.606125 
L 235.128692 163.606125 
L 234.811932 163.606125 
L 234.495172 163.606125 
L 234.178412 163.606125 
L 233.861652 163.606125 
L 233.544891 163.606125 
L 233.228131 163.606125 
L 232.911371 163.606125 
L 232.594611 163.606125 
L 232.277851 163.606125 
L 231.96109 163.606125 
L 231.64433 163.606125 
L 231.32757 163.606125 
L 231.01081 163.606064 
L 230.69405 163.602638 
L 230.37729 163.603283 
L 230.060529 163.604861 
L 229.743769 163.603918 
L 229.427009 163.602618 
z
" style="fill:#ff0000;fill-opacity:0.75;"/>
   </g>
   <g id="PolyCollection_6">
    <path clip-path="url(#p0e6199d7fa)" d="M 228.237847 124.606257 
L 228.237847 124.653993 
L 230.508795 124.672955 
L 232.779743 124.639069 
L 235.050691 124.632211 
L 237.321639 124.636863 
L 239.592587 124.635274 
L 241.863535 124.658944 
L 244.134483 131.818201 
L 246.405431 134.374125 
L 248.676379 124.674125 
L 250.947328 124.645424 
L 253.218276 124.650884 
L 255.489224 124.644672 
L 257.760172 124.642281 
L 260.03112 124.751131 
L 262.302068 124.675048 
L 264.573016 124.630918 
L 266.843964 124.630125 
L 269.114912 124.630125 
L 271.38586 124.630125 
L 273.656808 124.630125 
L 275.927756 124.630125 
L 278.198705 124.630125 
L 280.469653 124.630125 
L 282.740601 124.630125 
L 285.011549 124.630125 
L 287.282497 124.630125 
L 289.553445 124.630125 
L 291.824393 124.630125 
L 294.095341 124.630125 
L 296.366289 124.630125 
L 298.637237 124.630125 
L 300.908185 124.630125 
L 303.179133 124.630125 
L 305.450082 124.630125 
L 307.72103 124.630125 
L 309.991978 124.630125 
L 312.262926 124.630125 
L 314.533874 124.630125 
L 316.804822 124.630125 
L 319.07577 124.630125 
L 321.346718 124.630125 
L 323.617666 124.630125 
L 325.888614 124.630125 
L 328.159562 124.630125 
L 330.43051 124.630125 
L 332.701459 124.630125 
L 334.972407 124.630125 
L 337.243355 124.630125 
L 339.514303 124.630125 
L 341.785251 124.630125 
L 344.056199 124.630125 
L 346.327147 124.630125 
L 348.598095 124.630125 
L 350.869043 124.630125 
L 353.139991 124.630125 
L 355.410939 124.630125 
L 357.681887 124.630125 
L 359.952836 124.630125 
L 362.223784 124.630125 
L 364.494732 124.630125 
L 366.76568 124.630125 
L 369.036628 124.630125 
L 371.307576 124.630125 
L 373.578524 124.630125 
L 375.849472 124.630125 
L 378.12042 124.630125 
L 380.391368 124.630125 
L 382.662316 124.630125 
L 384.933264 124.630125 
L 387.204212 124.630125 
L 389.475161 124.630125 
L 391.746109 124.630125 
L 394.017057 124.630125 
L 396.288005 124.630125 
L 398.558953 124.630125 
L 400.829901 124.630125 
L 403.100849 124.630125 
L 405.371797 124.630125 
L 407.642745 124.630125 
L 409.913693 124.630125 
L 412.184641 124.630125 
L 414.455589 124.630125 
L 416.726538 124.630125 
L 418.997486 124.630125 
L 421.268434 124.630125 
L 423.539382 124.630125 
L 425.81033 124.630125 
L 428.081278 124.630125 
L 430.352226 124.630125 
L 432.623174 124.630125 
L 434.894122 124.630125 
L 437.16507 124.630125 
L 439.436018 124.630125 
L 441.706966 124.630125 
L 443.977915 124.630125 
L 446.248863 124.630125 
L 448.519811 124.630125 
L 450.790759 124.630203 
L 453.061707 124.637335 
L 453.061707 124.622915 
L 453.061707 124.622915 
L 450.790759 124.630047 
L 448.519811 124.630125 
L 446.248863 124.630125 
L 443.977915 124.630125 
L 441.706966 124.630125 
L 439.436018 124.630125 
L 437.16507 124.630125 
L 434.894122 124.630125 
L 432.623174 124.630125 
L 430.352226 124.630125 
L 428.081278 124.630125 
L 425.81033 124.630125 
L 423.539382 124.630125 
L 421.268434 124.630125 
L 418.997486 124.630125 
L 416.726538 124.630125 
L 414.455589 124.630125 
L 412.184641 124.630125 
L 409.913693 124.630125 
L 407.642745 124.630125 
L 405.371797 124.630125 
L 403.100849 124.630125 
L 400.829901 124.630125 
L 398.558953 124.630125 
L 396.288005 124.630125 
L 394.017057 124.630125 
L 391.746109 124.630125 
L 389.475161 124.630125 
L 387.204212 124.630125 
L 384.933264 124.630125 
L 382.662316 124.630125 
L 380.391368 124.630125 
L 378.12042 124.630125 
L 375.849472 124.630125 
L 373.578524 124.630125 
L 371.307576 124.630125 
L 369.036628 124.630125 
L 366.76568 124.630125 
L 364.494732 124.630125 
L 362.223784 124.630125 
L 359.952836 124.630125 
L 357.681887 124.630125 
L 355.410939 124.630125 
L 353.139991 124.630125 
L 350.869043 124.630125 
L 348.598095 124.630125 
L 346.327147 124.630125 
L 344.056199 124.630125 
L 341.785251 124.630125 
L 339.514303 124.630125 
L 337.243355 124.630125 
L 334.972407 124.630125 
L 332.701459 124.630125 
L 330.43051 124.630125 
L 328.159562 124.630125 
L 325.888614 124.630125 
L 323.617666 124.630125 
L 321.346718 124.630125 
L 319.07577 124.630125 
L 316.804822 124.630125 
L 314.533874 124.630125 
L 312.262926 124.630125 
L 309.991978 124.630125 
L 307.72103 124.630125 
L 305.450082 124.630125 
L 303.179133 124.630125 
L 300.908185 124.630125 
L 298.637237 124.630125 
L 296.366289 124.630125 
L 294.095341 124.630125 
L 291.824393 124.630125 
L 289.553445 124.630125 
L 287.282497 124.630125 
L 285.011549 124.630125 
L 282.740601 124.630125 
L 280.469653 124.630125 
L 278.198705 124.630125 
L 275.927756 124.630125 
L 273.656808 124.630125 
L 271.38586 124.630125 
L 269.114912 124.630125 
L 266.843964 124.630125 
L 264.573016 124.629332 
L 262.302068 124.585202 
L 260.03112 124.509119 
L 257.760172 124.617969 
L 255.489224 124.615578 
L 253.218276 124.609366 
L 250.947328 124.614826 
L 248.676379 124.586125 
L 246.405431 114.886125 
L 244.134483 117.442049 
L 241.863535 124.601306 
L 239.592587 124.624976 
L 237.321639 124.623387 
L 235.050691 124.628039 
L 232.779743 124.621181 
L 230.508795 124.587295 
L 228.237847 124.606257 
z
" style="fill:#ff0000;fill-opacity:0.75;"/>
   </g>
   <g id="PolyCollection_7">
    <path clip-path="url(#p0e6199d7fa)" d="M 227.812448 85.649032 
L 227.812448 85.659218 
L 228.210991 85.661334 
L 228.609535 85.662479 
L 229.008078 85.660009 
L 229.406621 85.658544 
L 229.805164 85.665306 
L 230.203707 85.67703 
L 230.60225 85.683099 
L 231.000794 85.680657 
L 231.399337 85.670967 
L 231.79788 85.660403 
L 232.196423 85.655772 
L 232.594966 85.656174 
L 232.993509 85.657834 
L 233.392053 85.657464 
L 233.790596 85.656705 
L 234.189139 85.658833 
L 234.587682 85.66251 
L 234.986225 85.663755 
L 235.384768 85.661557 
L 235.783312 85.661503 
L 236.181855 85.664023 
L 236.580398 85.662927 
L 236.978941 85.658629 
L 237.377484 85.655451 
L 237.776027 85.654855 
L 238.17457 85.656326 
L 238.573114 85.658219 
L 238.971657 85.658804 
L 239.3702 85.659798 
L 239.768743 85.660852 
L 240.167286 85.659402 
L 240.565829 85.657163 
L 240.964373 85.657747 
L 241.362916 85.660145 
L 241.761459 85.660547 
L 242.160002 85.659251 
L 242.558545 85.660316 
L 242.957088 85.662123 
L 243.355632 85.661037 
L 243.754175 85.664859 
L 244.152718 85.699987 
L 244.551261 85.950026 
L 244.949804 87.169976 
L 245.348347 90.347104 
L 245.746891 94.236873 
L 246.145434 95.398125 
L 246.543977 92.926408 
L 246.94252 89.256192 
L 247.341063 86.809423 
L 247.739606 85.914701 
L 248.13815 85.714216 
L 248.536693 85.676037 
L 248.935236 85.667782 
L 249.333779 85.664252 
L 249.732322 85.664746 
L 250.130865 85.668941 
L 250.529409 85.669136 
L 250.927952 85.662536 
L 251.326495 85.657454 
L 251.725038 85.658658 
L 252.123581 85.661654 
L 252.522124 85.660134 
L 252.920668 85.657016 
L 253.319211 85.657151 
L 253.717754 85.658257 
L 254.116297 85.658053 
L 254.51484 85.658244 
L 254.913383 85.657688 
L 255.311927 85.656016 
L 255.71047 85.656184 
L 256.109013 85.658331 
L 256.507556 85.660052 
L 256.906099 85.661659 
L 257.304642 85.665337 
L 257.703186 85.670043 
L 258.101729 85.671133 
L 258.500272 85.667309 
L 258.898815 85.662145 
L 259.297358 85.659592 
L 259.695901 85.659232 
L 260.094445 85.666403 
L 260.492988 85.697847 
L 260.891531 85.755278 
L 261.290074 85.790427 
L 261.688617 85.765453 
L 262.08716 85.717672 
L 262.485704 85.682922 
L 262.884247 85.663939 
L 263.28279 85.657466 
L 263.681333 85.657665 
L 264.079876 85.6577 
L 264.478419 85.655821 
L 264.876963 85.654483 
L 265.275506 85.654159 
L 265.674049 85.654132 
L 266.072592 85.654223 
L 266.471135 85.654875 
L 266.869678 85.656666 
L 267.268222 85.657942 
L 267.268222 85.650308 
L 267.268222 85.650308 
L 266.869678 85.651584 
L 266.471135 85.653375 
L 266.072592 85.654027 
L 265.674049 85.654118 
L 265.275506 85.654091 
L 264.876963 85.653767 
L 264.478419 85.652429 
L 264.079876 85.65055 
L 263.681333 85.650585 
L 263.28279 85.650784 
L 262.884247 85.644311 
L 262.485704 85.625328 
L 262.08716 85.590578 
L 261.688617 85.542797 
L 261.290074 85.517823 
L 260.891531 85.552972 
L 260.492988 85.610403 
L 260.094445 85.641847 
L 259.695901 85.649018 
L 259.297358 85.648658 
L 258.898815 85.646105 
L 258.500272 85.640941 
L 258.101729 85.637117 
L 257.703186 85.638207 
L 257.304642 85.642913 
L 256.906099 85.646591 
L 256.507556 85.648198 
L 256.109013 85.649919 
L 255.71047 85.652066 
L 255.311927 85.652234 
L 254.913383 85.650562 
L 254.51484 85.650006 
L 254.116297 85.650197 
L 253.717754 85.649993 
L 253.319211 85.651099 
L 252.920668 85.651234 
L 252.522124 85.648116 
L 252.123581 85.646596 
L 251.725038 85.649592 
L 251.326495 85.650796 
L 250.927952 85.645714 
L 250.529409 85.639114 
L 250.130865 85.639309 
L 249.732322 85.643504 
L 249.333779 85.643998 
L 248.935236 85.640468 
L 248.536693 85.632213 
L 248.13815 85.594034 
L 247.739606 85.393549 
L 247.341063 84.498827 
L 246.94252 82.052058 
L 246.543977 78.381842 
L 246.145434 75.910125 
L 245.746891 77.071377 
L 245.348347 80.961146 
L 244.949804 84.138274 
L 244.551261 85.358224 
L 244.152718 85.608263 
L 243.754175 85.643391 
L 243.355632 85.647213 
L 242.957088 85.646127 
L 242.558545 85.647934 
L 242.160002 85.648999 
L 241.761459 85.647703 
L 241.362916 85.648105 
L 240.964373 85.650503 
L 240.565829 85.651087 
L 240.167286 85.648848 
L 239.768743 85.647398 
L 239.3702 85.648452 
L 238.971657 85.649446 
L 238.573114 85.650031 
L 238.17457 85.651924 
L 237.776027 85.653395 
L 237.377484 85.652799 
L 236.978941 85.649621 
L 236.580398 85.645323 
L 236.181855 85.644227 
L 235.783312 85.646747 
L 235.384768 85.646693 
L 234.986225 85.644495 
L 234.587682 85.64574 
L 234.189139 85.649417 
L 233.790596 85.651545 
L 233.392053 85.650786 
L 232.993509 85.650416 
L 232.594966 85.652076 
L 232.196423 85.652478 
L 231.79788 85.647847 
L 231.399337 85.637283 
L 231.000794 85.627593 
L 230.60225 85.625151 
L 230.203707 85.63122 
L 229.805164 85.642944 
L 229.406621 85.649706 
L 229.008078 85.648241 
L 228.609535 85.645771 
L 228.210991 85.646916 
L 227.812448 85.649032 
z
" style="fill:#ff0000;fill-opacity:0.75;"/>
   </g>
   <g id="PolyCollection_8">
    <path clip-path="url(#p0e6199d7fa)" d="M 228.371788 46.673402 
L 228.371788 46.682848 
L 228.781751 46.679514 
L 229.191713 46.683252 
L 229.601675 46.690928 
L 230.011638 46.692167 
L 230.4216 46.698306 
L 230.831563 46.682148 
L 231.241525 46.678187 
L 231.651487 46.678125 
L 232.06145 46.678125 
L 232.471412 46.678125 
L 232.881375 46.678125 
L 233.291337 46.678125 
L 233.701299 46.678125 
L 234.111262 46.678125 
L 234.521224 46.678125 
L 234.931187 46.678125 
L 235.341149 46.678125 
L 235.751111 46.678125 
L 236.161074 46.678125 
L 236.571036 46.678125 
L 236.980999 46.678125 
L 237.390961 46.678125 
L 237.800923 46.678125 
L 238.210886 46.678125 
L 238.620848 46.678125 
L 239.030811 46.678125 
L 239.440773 46.678125 
L 239.850736 46.678125 
L 240.260698 46.678125 
L 240.67066 46.678125 
L 241.080623 46.678125 
L 241.490585 46.678135 
L 241.900548 46.679001 
L 242.31051 46.683283 
L 242.720472 46.686385 
L 243.130435 46.694358 
L 243.540397 46.700889 
L 243.95036 46.739766 
L 244.360322 47.095026 
L 244.770284 50.319796 
L 245.180247 56.422125 
L 245.590209 55.349407 
L 246.000172 49.172777 
L 246.410134 46.894369 
L 246.820096 46.689651 
L 247.230059 46.681035 
L 247.640021 46.678259 
L 248.049984 46.678733 
L 248.459946 46.683397 
L 248.869908 46.684738 
L 249.279871 46.67972 
L 249.689833 46.678156 
L 250.099796 46.678125 
L 250.509758 46.678125 
L 250.91972 46.678125 
L 251.329683 46.678125 
L 251.739645 46.678125 
L 252.149608 46.678125 
L 252.55957 46.678125 
L 252.969533 46.678125 
L 253.379495 46.678125 
L 253.789457 46.678125 
L 254.19942 46.678125 
L 254.609382 46.678125 
L 255.019345 46.678125 
L 255.429307 46.678125 
L 255.839269 46.678209 
L 256.249232 46.680532 
L 256.659194 46.682257 
L 257.069157 46.67855 
L 257.479119 46.678128 
L 257.889081 46.678125 
L 258.299044 46.678125 
L 258.709006 46.678125 
L 259.118969 46.678125 
L 259.528931 46.678125 
L 259.938893 46.678155 
L 260.348856 46.68143 
L 260.758818 46.707931 
L 261.168781 46.702774 
L 261.578743 46.685834 
L 261.988705 46.682691 
L 262.398668 46.678563 
L 262.80863 46.678128 
L 263.218593 46.678125 
L 263.628555 46.678125 
L 264.038517 46.678125 
L 264.44848 46.678125 
L 264.858442 46.678125 
L 265.268405 46.678125 
L 265.678367 46.678125 
L 266.08833 46.678125 
L 266.498292 46.678125 
L 266.908254 46.678125 
L 267.318217 46.678125 
L 267.728179 46.678125 
L 268.138142 46.678142 
L 268.548104 46.679281 
L 268.958066 46.682847 
L 268.958066 46.673403 
L 268.958066 46.673403 
L 268.548104 46.676969 
L 268.138142 46.678108 
L 267.728179 46.678125 
L 267.318217 46.678125 
L 266.908254 46.678125 
L 266.498292 46.678125 
L 266.08833 46.678125 
L 265.678367 46.678125 
L 265.268405 46.678125 
L 264.858442 46.678125 
L 264.44848 46.678125 
L 264.038517 46.678125 
L 263.628555 46.678125 
L 263.218593 46.678125 
L 262.80863 46.678122 
L 262.398668 46.677687 
L 261.988705 46.673559 
L 261.578743 46.670416 
L 261.168781 46.653476 
L 260.758818 46.648319 
L 260.348856 46.67482 
L 259.938893 46.678095 
L 259.528931 46.678125 
L 259.118969 46.678125 
L 258.709006 46.678125 
L 258.299044 46.678125 
L 257.889081 46.678125 
L 257.479119 46.678122 
L 257.069157 46.6777 
L 256.659194 46.673993 
L 256.249232 46.675718 
L 255.839269 46.678041 
L 255.429307 46.678125 
L 255.019345 46.678125 
L 254.609382 46.678125 
L 254.19942 46.678125 
L 253.789457 46.678125 
L 253.379495 46.678125 
L 252.969533 46.678125 
L 252.55957 46.678125 
L 252.149608 46.678125 
L 251.739645 46.678125 
L 251.329683 46.678125 
L 250.91972 46.678125 
L 250.509758 46.678125 
L 250.099796 46.678125 
L 249.689833 46.678094 
L 249.279871 46.67653 
L 248.869908 46.671512 
L 248.459946 46.672853 
L 248.049984 46.677517 
L 247.640021 46.677991 
L 247.230059 46.675215 
L 246.820096 46.666599 
L 246.410134 46.461881 
L 246.000172 44.183473 
L 245.590209 38.006843 
L 245.180247 36.934125 
L 244.770284 43.036454 
L 244.360322 46.261224 
L 243.95036 46.616484 
L 243.540397 46.655361 
L 243.130435 46.661892 
L 242.720472 46.669865 
L 242.31051 46.672967 
L 241.900548 46.677249 
L 241.490585 46.678115 
L 241.080623 46.678125 
L 240.67066 46.678125 
L 240.260698 46.678125 
L 239.850736 46.678125 
L 239.440773 46.678125 
L 239.030811 46.678125 
L 238.620848 46.678125 
L 238.210886 46.678125 
L 237.800923 46.678125 
L 237.390961 46.678125 
L 236.980999 46.678125 
L 236.571036 46.678125 
L 236.161074 46.678125 
L 235.751111 46.678125 
L 235.341149 46.678125 
L 234.931187 46.678125 
L 234.521224 46.678125 
L 234.111262 46.678125 
L 233.701299 46.678125 
L 233.291337 46.678125 
L 232.881375 46.678125 
L 232.471412 46.678125 
L 232.06145 46.678125 
L 231.651487 46.678125 
L 231.241525 46.678063 
L 230.831563 46.674102 
L 230.4216 46.657944 
L 230.011638 46.664083 
L 229.601675 46.665322 
L 229.191713 46.672998 
L 228.781751 46.676736 
L 228.371788 46.673402 
z
" style="fill:#ff0000;fill-opacity:0.75;"/>
   </g>
   <g id="LineCollection_1">
    <path clip-path="url(#p0e6199d7fa)" d="M 245.346003 324.382125 
L 245.346003 314.638125 
" style="fill:none;stroke:#000000;stroke-width:1.5;"/>
    <path clip-path="url(#p0e6199d7fa)" d="M 245.380466 285.406125 
L 245.380466 275.662125 
" style="fill:none;stroke:#000000;stroke-width:1.5;"/>
    <path clip-path="url(#p0e6199d7fa)" d="M 245.38936 246.430125 
L 245.38936 236.686125 
" style="fill:none;stroke:#000000;stroke-width:1.5;"/>
    <path clip-path="url(#p0e6199d7fa)" d="M 245.333953 207.454125 
L 245.333953 197.710125 
" style="fill:none;stroke:#000000;stroke-width:1.5;"/>
    <path clip-path="url(#p0e6199d7fa)" d="M 245.338228 168.478125 
L 245.338228 158.734125 
" style="fill:none;stroke:#000000;stroke-width:1.5;"/>
    <path clip-path="url(#p0e6199d7fa)" d="M 245.501612 129.502125 
L 245.501612 119.758125 
" style="fill:none;stroke:#000000;stroke-width:1.5;"/>
    <path clip-path="url(#p0e6199d7fa)" d="M 246.263088 90.526125 
L 246.263088 80.782125 
" style="fill:none;stroke:#000000;stroke-width:1.5;"/>
    <path clip-path="url(#p0e6199d7fa)" d="M 245.349765 51.550125 
L 245.349765 41.806125 
" style="fill:none;stroke:#000000;stroke-width:1.5;"/>
   </g>
   <g id="patch_3">
    <path d="M 226.746875 343.870125 
L 226.746875 22.318125 
" style="fill:none;stroke:#000000;stroke-linecap:square;stroke-linejoin:miter;stroke-width:0.8;"/>
   </g>
   <g id="patch_4">
    <path d="M 617.346875 343.870125 
L 617.346875 22.318125 
" style="fill:none;stroke:#000000;stroke-linecap:square;stroke-linejoin:miter;stroke-width:0.8;"/>
   </g>
   <g id="patch_5">
    <path d="M 226.746875 343.870125 
L 617.346875 343.870125 
" style="fill:none;stroke:#000000;stroke-linecap:square;stroke-linejoin:miter;stroke-width:0.8;"/>
   </g>
   <g id="patch_6">
    <path d="M 226.746875 22.318125 
L 617.346875 22.318125 
" style="fill:none;stroke:#000000;stroke-linecap:square;stroke-linejoin:miter;stroke-width:0.8;"/>
   </g>
   <g id="text_17">
    <!-- OE2 for 1.0 -->
    <g transform="translate(388.109375 16.318125)scale(0.12 -0.12)">
     <defs>
      <path d="M 10.6875 12.40625 
L 21 12.40625 
L 21 0 
L 10.6875 0 
z
" id="DejaVuSans-46"/>
     </defs>
     <use xlink:href="#DejaVuSans-79"/>
     <use x="78.710938" xlink:href="#DejaVuSans-69"/>
     <use x="141.894531" xlink:href="#DejaVuSans-50"/>
     <use x="205.517578" xlink:href="#DejaVuSans-32"/>
     <use x="237.304688" xlink:href="#DejaVuSans-102"/>
     <use x="272.509766" xlink:href="#DejaVuSans-111"/>
     <use x="333.691406" xlink:href="#DejaVuSans-114"/>
     <use x="374.804688" xlink:href="#DejaVuSans-32"/>
     <use x="406.591797" xlink:href="#DejaVuSans-49"/>
     <use x="470.214844" xlink:href="#DejaVuSans-46"/>
     <use x="502.001953" xlink:href="#DejaVuSans-48"/>
    </g>
   </g>
  </g>
 </g>
 <defs>
  <clipPath id="p0e6199d7fa">
   <rect height="321.552" width="390.6" x="226.746875" y="22.318125"/>
  </clipPath>
 </defs>
</svg>
