<?xml version='1.0' encoding='utf-8'?>
<svg xmlns:xlink="http://www.w3.org/1999/xlink" xmlns="http://www.w3.org/2000/svg" id="chart-dc61d539-1165-4185-9648-726ec961164f" class="pygal-chart" viewBox="0 0 800 600"><!--Generated with pygal 2.4.0 (lxml) ©Kozea 2012-2016 on 2019-10-13--><!--http://pygal.org--><!--http://github.com/Kozea/pygal--><defs><style type="text/css">#chart-dc61d539-1165-4185-9648-726ec961164f{-webkit-user-select:none;-webkit-font-smoothing:antialiased;font-family:Helvetica,Arial,sans-serif}#chart-dc61d539-1165-4185-9648-726ec961164f .title{font-family:Helvetica,Arial,sans-serif;font-size:18px}#chart-dc61d539-1165-4185-9648-726ec961164f .legends .legend text{font-family:Helvetica,Arial,sans-serif;font-size:15px}#chart-dc61d539-1165-4185-9648-726ec961164f .axis text{font-family:Helvetica,Arial,sans-serif;font-size:15px}#chart-dc61d539-1165-4185-9648-726ec961164f .axis text.major{font-family:Helvetica,Arial,sans-serif;font-size:15px}#chart-dc61d539-1165-4185-9648-726ec961164f .text-overlay text.value{font-family:Helvetica,Arial,sans-serif;font-size:15px}#chart-dc61d539-1165-4185-9648-726ec961164f .text-overlay text.label{font-family:Helvetica,Arial,sans-serif;font-size:15px}#chart-dc61d539-1165-4185-9648-726ec961164f .tooltip{font-family:Helvetica,Arial,sans-serif;font-size:14px}#chart-dc61d539-1165-4185-9648-726ec961164f text.no_data{font-family:Helvetica,Arial,sans-serif;font-size:64px}
#chart-dc61d539-1165-4185-9648-726ec961164f{background-color:transparent}#chart-dc61d539-1165-4185-9648-726ec961164f path,#chart-dc61d539-1165-4185-9648-726ec961164f line,#chart-dc61d539-1165-4185-9648-726ec961164f rect,#chart-dc61d539-1165-4185-9648-726ec961164f circle{-webkit-transition:150ms;-moz-transition:150ms;transition:150ms}#chart-dc61d539-1165-4185-9648-726ec961164f .graph &gt; .background{fill:transparent}#chart-dc61d539-1165-4185-9648-726ec961164f .plot &gt; .background{fill:white}#chart-dc61d539-1165-4185-9648-726ec961164f .graph{fill:rgba(0,0,0,.87)}#chart-dc61d539-1165-4185-9648-726ec961164f text.no_data{fill:rgba(0,0,0,1)}#chart-dc61d539-1165-4185-9648-726ec961164f .title{fill:rgba(0,0,0,1)}#chart-dc61d539-1165-4185-9648-726ec961164f .legends .legend text{fill:rgba(0,0,0,.87)}#chart-dc61d539-1165-4185-9648-726ec961164f .legends .legend:hover text{fill:rgba(0,0,0,1)}#chart-dc61d539-1165-4185-9648-726ec961164f .axis .line{stroke:rgba(0,0,0,1)}#chart-dc61d539-1165-4185-9648-726ec961164f .axis .guide.line{stroke:rgba(0,0,0,.54)}#chart-dc61d539-1165-4185-9648-726ec961164f .axis .major.line{stroke:rgba(0,0,0,.87)}#chart-dc61d539-1165-4185-9648-726ec961164f .axis text.major{fill:rgba(0,0,0,1)}#chart-dc61d539-1165-4185-9648-726ec961164f .axis.y .guides:hover .guide.line,#chart-dc61d539-1165-4185-9648-726ec961164f .line-graph .axis.x .guides:hover .guide.line,#chart-dc61d539-1165-4185-9648-726ec961164f .stackedline-graph .axis.x .guides:hover .guide.line,#chart-dc61d539-1165-4185-9648-726ec961164f .xy-graph .axis.x .guides:hover .guide.line{stroke:rgba(0,0,0,1)}#chart-dc61d539-1165-4185-9648-726ec961164f .axis .guides:hover text{fill:rgba(0,0,0,1)}#chart-dc61d539-1165-4185-9648-726ec961164f .reactive{fill-opacity:.7;stroke-opacity:.8}#chart-dc61d539-1165-4185-9648-726ec961164f .ci{stroke:rgba(0,0,0,.87)}#chart-dc61d539-1165-4185-9648-726ec961164f .reactive.active,#chart-dc61d539-1165-4185-9648-726ec961164f .active .reactive{fill-opacity:.8;stroke-opacity:.9;stroke-width:4}#chart-dc61d539-1165-4185-9648-726ec961164f .ci .reactive.active{stroke-width:1.5}#chart-dc61d539-1165-4185-9648-726ec961164f .series text{fill:rgba(0,0,0,1)}#chart-dc61d539-1165-4185-9648-726ec961164f .tooltip rect{fill:white;stroke:rgba(0,0,0,1);-webkit-transition:opacity 150ms;-moz-transition:opacity 150ms;transition:opacity 150ms}#chart-dc61d539-1165-4185-9648-726ec961164f .tooltip .label{fill:rgba(0,0,0,.87)}#chart-dc61d539-1165-4185-9648-726ec961164f .tooltip .label{fill:rgba(0,0,0,.87)}#chart-dc61d539-1165-4185-9648-726ec961164f .tooltip .legend{font-size:.8em;fill:rgba(0,0,0,.54)}#chart-dc61d539-1165-4185-9648-726ec961164f .tooltip .x_label{font-size:.6em;fill:rgba(0,0,0,1)}#chart-dc61d539-1165-4185-9648-726ec961164f .tooltip .xlink{font-size:.5em;text-decoration:underline}#chart-dc61d539-1165-4185-9648-726ec961164f .tooltip .value{font-size:1.5em}#chart-dc61d539-1165-4185-9648-726ec961164f .bound{font-size:.5em}#chart-dc61d539-1165-4185-9648-726ec961164f .max-value{font-size:.75em;fill:rgba(0,0,0,.54)}#chart-dc61d539-1165-4185-9648-726ec961164f .map-element{fill:white;stroke:rgba(0,0,0,.54) !important}#chart-dc61d539-1165-4185-9648-726ec961164f .map-element .reactive{fill-opacity:inherit;stroke-opacity:inherit}#chart-dc61d539-1165-4185-9648-726ec961164f .color-0,#chart-dc61d539-1165-4185-9648-726ec961164f .color-0 a:visited{stroke:#F44336;fill:#F44336}#chart-dc61d539-1165-4185-9648-726ec961164f .color-1,#chart-dc61d539-1165-4185-9648-726ec961164f .color-1 a:visited{stroke:#3F51B5;fill:#3F51B5}#chart-dc61d539-1165-4185-9648-726ec961164f .color-2,#chart-dc61d539-1165-4185-9648-726ec961164f .color-2 a:visited{stroke:#009688;fill:#009688}#chart-dc61d539-1165-4185-9648-726ec961164f .color-3,#chart-dc61d539-1165-4185-9648-726ec961164f .color-3 a:visited{stroke:#FFC107;fill:#FFC107}#chart-dc61d539-1165-4185-9648-726ec961164f .color-4,#chart-dc61d539-1165-4185-9648-726ec961164f .color-4 a:visited{stroke:#FF5722;fill:#FF5722}#chart-dc61d539-1165-4185-9648-726ec961164f .color-5,#chart-dc61d539-1165-4185-9648-726ec961164f .color-5 a:visited{stroke:#9C27B0;fill:#9C27B0}#chart-dc61d539-1165-4185-9648-726ec961164f .color-6,#chart-dc61d539-1165-4185-9648-726ec961164f .color-6 a:visited{stroke:#03A9F4;fill:#03A9F4}#chart-dc61d539-1165-4185-9648-726ec961164f .color-7,#chart-dc61d539-1165-4185-9648-726ec961164f .color-7 a:visited{stroke:#8BC34A;fill:#8BC34A}#chart-dc61d539-1165-4185-9648-726ec961164f .text-overlay .color-0 text{fill:black}#chart-dc61d539-1165-4185-9648-726ec961164f .text-overlay .color-1 text{fill:black}#chart-dc61d539-1165-4185-9648-726ec961164f .text-overlay .color-2 text{fill:black}#chart-dc61d539-1165-4185-9648-726ec961164f .text-overlay .color-3 text{fill:black}#chart-dc61d539-1165-4185-9648-726ec961164f .text-overlay .color-4 text{fill:black}#chart-dc61d539-1165-4185-9648-726ec961164f .text-overlay .color-5 text{fill:black}#chart-dc61d539-1165-4185-9648-726ec961164f .text-overlay .color-6 text{fill:black}#chart-dc61d539-1165-4185-9648-726ec961164f .text-overlay .color-7 text{fill:black}
#chart-dc61d539-1165-4185-9648-726ec961164f text.no_data{text-anchor:middle}#chart-dc61d539-1165-4185-9648-726ec961164f .guide.line{fill:none}#chart-dc61d539-1165-4185-9648-726ec961164f .centered{text-anchor:middle}#chart-dc61d539-1165-4185-9648-726ec961164f .title{text-anchor:middle}#chart-dc61d539-1165-4185-9648-726ec961164f .legends .legend text{fill-opacity:1}#chart-dc61d539-1165-4185-9648-726ec961164f .axis.x text{text-anchor:middle}#chart-dc61d539-1165-4185-9648-726ec961164f .axis.x:not(.web) text[transform]{text-anchor:start}#chart-dc61d539-1165-4185-9648-726ec961164f .axis.x:not(.web) text[transform].backwards{text-anchor:end}#chart-dc61d539-1165-4185-9648-726ec961164f .axis.y text{text-anchor:end}#chart-dc61d539-1165-4185-9648-726ec961164f .axis.y text[transform].backwards{text-anchor:start}#chart-dc61d539-1165-4185-9648-726ec961164f .axis.y2 text{text-anchor:start}#chart-dc61d539-1165-4185-9648-726ec961164f .axis.y2 text[transform].backwards{text-anchor:end}#chart-dc61d539-1165-4185-9648-726ec961164f .axis .guide.line{stroke-dasharray:1}#chart-dc61d539-1165-4185-9648-726ec961164f .axis .major.guide.line{stroke-dasharray:1}#chart-dc61d539-1165-4185-9648-726ec961164f .horizontal .axis.y .guide.line,#chart-dc61d539-1165-4185-9648-726ec961164f .horizontal .axis.y2 .guide.line,#chart-dc61d539-1165-4185-9648-726ec961164f .vertical .axis.x .guide.line{opacity:0}#chart-dc61d539-1165-4185-9648-726ec961164f .horizontal .axis.always_show .guide.line,#chart-dc61d539-1165-4185-9648-726ec961164f .vertical .axis.always_show .guide.line{opacity:1 !important}#chart-dc61d539-1165-4185-9648-726ec961164f .axis.y .guides:hover .guide.line,#chart-dc61d539-1165-4185-9648-726ec961164f .axis.y2 .guides:hover .guide.line,#chart-dc61d539-1165-4185-9648-726ec961164f .axis.x .guides:hover .guide.line{opacity:1}#chart-dc61d539-1165-4185-9648-726ec961164f .axis .guides:hover text{opacity:1}#chart-dc61d539-1165-4185-9648-726ec961164f .nofill{fill:none}#chart-dc61d539-1165-4185-9648-726ec961164f .subtle-fill{fill-opacity:.2}#chart-dc61d539-1165-4185-9648-726ec961164f .dot{stroke-width:1px;fill-opacity:1}#chart-dc61d539-1165-4185-9648-726ec961164f .dot.active{stroke-width:5px}#chart-dc61d539-1165-4185-9648-726ec961164f .dot.negative{fill:transparent}#chart-dc61d539-1165-4185-9648-726ec961164f text,#chart-dc61d539-1165-4185-9648-726ec961164f tspan{stroke:none !important}#chart-dc61d539-1165-4185-9648-726ec961164f .series text.active{opacity:1}#chart-dc61d539-1165-4185-9648-726ec961164f .tooltip rect{fill-opacity:.95;stroke-width:.5}#chart-dc61d539-1165-4185-9648-726ec961164f .tooltip text{fill-opacity:1}#chart-dc61d539-1165-4185-9648-726ec961164f .showable{visibility:hidden}#chart-dc61d539-1165-4185-9648-726ec961164f .showable.shown{visibility:visible}#chart-dc61d539-1165-4185-9648-726ec961164f .gauge-background{fill:rgba(229,229,229,1);stroke:none}#chart-dc61d539-1165-4185-9648-726ec961164f .bg-lines{stroke:transparent;stroke-width:2px}</style><script type="text/javascript">window.pygal = window.pygal || {};window.pygal.config = window.pygal.config || {};window.pygal.config['dc61d539-1165-4185-9648-726ec961164f'] = {"allow_interruptions": false, "box_mode": "extremes", "classes": ["pygal-chart"], "css": ["file://style.css", "file://graph.css"], "defs": [], "disable_xml_declaration": false, "dots_size": 2.5, "dynamic_print_values": false, "explicit_size": false, "fill": false, "force_uri_protocol": "https", "formatter": null, "half_pie": false, "height": 600, "include_x_axis": false, "inner_radius": 0, "interpolate": null, "interpolation_parameters": {}, "interpolation_precision": 250, "inverse_y_axis": false, "js": ["//kozea.github.io/pygal.js/2.0.x/pygal-tooltips.min.js"], "legend_at_bottom": true, "legend_at_bottom_columns": 2, "legend_box_size": 12, "logarithmic": false, "margin": 20, "margin_bottom": 70, "margin_left": null, "margin_right": null, "margin_top": null, "max_scale": 16, "min_scale": 4, "missing_value_fill_truncation": "x", "no_data_text": "No data", "no_prefix": false, "order_min": null, "pretty_print": false, "print_labels": false, "print_values": false, "print_values_position": "center", "print_zeroes": true, "range": [0.0, 50.0], "rounded_bars": null, "secondary_range": null, "show_dots": true, "show_legend": true, "show_minor_x_labels": false, "show_minor_y_labels": true, "show_only_major_dots": true, "show_x_guides": true, "show_x_labels": true, "show_y_guides": true, "show_y_labels": true, "spacing": 10, "stack_from_top": false, "strict": false, "stroke": true, "stroke_style": null, "style": {"background": "transparent", "ci_colors": [], "colors": ["#F44336", "#3F51B5", "#009688", "#FFC107", "#FF5722", "#9C27B0", "#03A9F4", "#8BC34A", "#FF9800", "#E91E63", "#2196F3", "#4CAF50", "#FFEB3B", "#673AB7", "#00BCD4", "#CDDC39", "#9E9E9E", "#607D8B"], "font_family": "Helvetica, Arial, sans-serif", "foreground": "rgba(0, 0, 0, .87)", "foreground_strong": "rgba(0, 0, 0, 1)", "foreground_subtle": "rgba(0, 0, 0, .54)", "guide_stroke_dasharray": 1, "label_font_family": "Helvetica, Arial, sans-serif", "label_font_size": 15, "legend_font_family": "Helvetica, Arial, sans-serif", "legend_font_size": 15, "major_guide_stroke_dasharray": 1, "major_label_font_family": "Helvetica, Arial, sans-serif", "major_label_font_size": 15, "no_data_font_family": "Helvetica, Arial, sans-serif", "no_data_font_size": 64, "opacity": ".7", "opacity_hover": ".8", "plot_background": "white", "stroke_opacity": ".8", "stroke_opacity_hover": ".9", "title_font_family": "Helvetica, Arial, sans-serif", "title_font_size": 18, "tooltip_font_family": "Helvetica, Arial, sans-serif", "tooltip_font_size": 14, "transition": "150ms", "value_background": "rgba(229, 229, 229, 1)", "value_colors": [], "value_font_family": "Helvetica, Arial, sans-serif", "value_font_size": 15, "value_label_font_family": "Helvetica, Arial, sans-serif", "value_label_font_size": 15}, "title": "Percentage of Annotations for T \u00b15.0 BPM", "tooltip_border_radius": 0, "tooltip_fancy_mode": true, "truncate_label": null, "truncate_legend": -1, "width": 800, "x_label_rotation": 90, "x_labels": ["0.0", "1.0", "2.0", "3.0", "4.0", "5.0", "6.0", "7.0", "8.0", "9.0", "10.0", "11.0", "12.0", "13.0", "14.0", "15.0", "16.0", "17.0", "18.0", "19.0", "20.0", "21.0", "22.0", "23.0", "24.0", "25.0", "26.0", "27.0", "28.0", "29.0", "30.0", "31.0", "32.0", "33.0", "34.0", "35.0", "36.0", "37.0", "38.0", "39.0", "40.0", "41.0", "42.0", "43.0", "44.0", "45.0", "46.0", "47.0", "48.0", "49.0", "50.0", "51.0", "52.0", "53.0", "54.0", "55.0", "56.0", "57.0", "58.0", "59.0", "60.0", "61.0", "62.0", "63.0", "64.0", "65.0", "66.0", "67.0", "68.0", "69.0", "70.0", "71.0", "72.0", "73.0", "74.0", "75.0", "76.0", "77.0", "78.0", "79.0", "80.0", "81.0", "82.0", "83.0", "84.0", "85.0", "86.0", "87.0", "88.0", "89.0", "90.0", "91.0", "92.0", "93.0", "94.0", "95.0", "96.0", "97.0", "98.0", "99.0", "100.0", "101.0", "102.0", "103.0", "104.0", "105.0", "106.0", "107.0", "108.0", "109.0", "110.0", "111.0", "112.0", "113.0", "114.0", "115.0", "116.0", "117.0", "118.0", "119.0", "120.0", "121.0", "122.0", "123.0", "124.0", "125.0", "126.0", "127.0", "128.0", "129.0", "130.0", "131.0", "132.0", "133.0", "134.0", "135.0", "136.0", "137.0", "138.0", "139.0", "140.0", "141.0", "142.0", "143.0", "144.0", "145.0", "146.0", "147.0", "148.0", "149.0", "150.0", "151.0", "152.0", "153.0", "154.0", "155.0", "156.0", "157.0", "158.0", "159.0", "160.0", "161.0", "162.0", "163.0", "164.0", "165.0", "166.0", "167.0", "168.0", "169.0", "170.0", "171.0", "172.0", "173.0", "174.0", "175.0", "176.0", "177.0", "178.0", "179.0", "180.0", "181.0", "182.0", "183.0", "184.0", "185.0", "186.0", "187.0", "188.0", "189.0", "190.0", "191.0", "192.0", "193.0", "194.0", "195.0", "196.0", "197.0", "198.0", "199.0", "200.0", "201.0", "202.0", "203.0", "204.0", "205.0", "206.0", "207.0", "208.0", "209.0", "210.0", "211.0", "212.0", "213.0", "214.0", "215.0", "216.0", "217.0", "218.0", "219.0", "220.0", "221.0", "222.0", "223.0", "224.0", "225.0", "226.0", "227.0", "228.0", "229.0", "230.0", "231.0", "232.0", "233.0", "234.0", "235.0", "236.0", "237.0", "238.0", "239.0", "240.0", "241.0", "242.0", "243.0", "244.0", "245.0", "246.0", "247.0", "248.0", "249.0", "250.0", "251.0", "252.0", "253.0", "254.0", "255.0", "256.0", "257.0", "258.0", "259.0", "260.0", "261.0", "262.0", "263.0", "264.0", "265.0", "266.0", "267.0", "268.0", "269.0", "270.0", "271.0", "272.0", "273.0", "274.0", "275.0", "276.0", "277.0", "278.0", "279.0", "280.0", "281.0", "282.0", "283.0", "284.0", "285.0", "286.0", "287.0", "288.0", "289.0", "290.0", "291.0", "292.0", "293.0", "294.0", "295.0", "296.0", "297.0", "298.0", "299.0", "300.0"], "x_labels_major": null, "x_labels_major_count": 11, "x_labels_major_every": null, "x_title": "T (BPM)", "xrange": null, "y_label_rotation": 0, "y_labels": null, "y_labels_major": null, "y_labels_major_count": null, "y_labels_major_every": null, "y_title": "Values (%)", "zero": 0, "legends": ["boeck2015/tempodetector2016_default", "davies2009/mirex_qm_tempotracker", "percival2014/stem", "schreiber2017/ismir2017", "schreiber2017/mirex2017", "schreiber2018/cnn", "schreiber2018/fcn", "schreiber2018/ismir2018"]}</script><script type="text/javascript" xlink:href="https://kozea.github.io/pygal.js/2.0.x/pygal-tooltips.min.js"/></defs><title>Percentage of Annotations for T ±5.0 BPM</title><g class="graph line-graph vertical"><rect class="background" height="600" width="800" x="0" y="0"/><g class="plot" transform="translate(94, 48)"><rect class="background" height="306.5" width="686.0" x="0" y="0"/><g class="axis y always_show"><g class="guides"><path class="major line" d="M0.000000 300.605769 h686.000000"/><text class="major" x="-5" y="305.8557692307692">0.0</text><title>0.0</title></g><g class="guides"><path class="guide line" d="M0.000000 241.663462 h686.000000"/><text class="" x="-5" y="246.91346153846155">10.0</text><title>10.0</title></g><g class="guides"><path class="guide line" d="M0.000000 182.721154 h686.000000"/><text class="" x="-5" y="187.97115384615384">20.0</text><title>20.0</title></g><g class="guides"><path class="guide line" d="M0.000000 123.778846 h686.000000"/><text class="" x="-5" y="129.02884615384616">30.0</text><title>30.0</title></g><g class="guides"><path class="guide line" d="M0.000000 64.836538 h686.000000"/><text class="" x="-5" y="70.08653846153845">40.0</text><title>40.0</title></g><g class="guides"><path class="major guide line" d="M0.000000 5.894231 h686.000000"/><text class="major" x="-5" y="11.144230769230774">50.0</text><title>50.0</title></g></g><g class="axis x always_show"><g class="guides"><path class="major line" d="M13.192308 0.000000 v306.500000"/><text class="major" x="13.192307692307692" y="324.0" transform="rotate(90 13.192308 324.000000)">0.0</text></g><g class="guides"><path class="major guide line" d="M79.153846 0.000000 v306.500000"/><text class="major" x="79.15384615384616" y="324.0" transform="rotate(90 79.153846 324.000000)">30.0</text></g><g class="guides"><path class="major guide line" d="M145.115385 0.000000 v306.500000"/><text class="major" x="145.11538461538458" y="324.0" transform="rotate(90 145.115385 324.000000)">60.0</text></g><g class="guides"><path class="major guide line" d="M211.076923 0.000000 v306.500000"/><text class="major" x="211.07692307692307" y="324.0" transform="rotate(90 211.076923 324.000000)">90.0</text></g><g class="guides"><path class="major guide line" d="M277.038462 0.000000 v306.500000"/><text class="major" x="277.03846153846155" y="324.0" transform="rotate(90 277.038462 324.000000)">120.0</text></g><g class="guides"><path class="major guide line" d="M343.000000 0.000000 v306.500000"/><text class="major" x="343.0" y="324.0" transform="rotate(90 343.000000 324.000000)">150.0</text></g><g class="guides"><path class="major guide line" d="M408.961538 0.000000 v306.500000"/><text class="major" x="408.96153846153845" y="324.0" transform="rotate(90 408.961538 324.000000)">180.0</text></g><g class="guides"><path class="major guide line" d="M474.923077 0.000000 v306.500000"/><text class="major" x="474.92307692307685" y="324.0" transform="rotate(90 474.923077 324.000000)">210.0</text></g><g class="guides"><path class="major guide line" d="M540.884615 0.000000 v306.500000"/><text class="major" x="540.8846153846155" y="324.0" transform="rotate(90 540.884615 324.000000)">240.0</text></g><g class="guides"><path class="major guide line" d="M606.846154 0.000000 v306.500000"/><text class="major" x="606.8461538461538" y="324.0" transform="rotate(90 606.846154 324.000000)">270.0</text></g><g class="guides"><path class="major guide line" d="M672.807692 0.000000 v306.500000"/><text class="major" x="672.8076923076923" y="324.0" transform="rotate(90 672.807692 324.000000)">300.0</text></g></g><g class="series serie-0 color-0"><path class="line reactive nofill" d="M13.192308 300.605769 L15.391026 300.605769 17.589744 300.605769 19.788462 300.605769 21.987179 300.605769 24.185897 300.605769 26.384615 300.605769 28.583333 300.605769 30.782051 300.605769 32.980769 300.605769 35.179487 300.605769 37.378205 300.605769 39.576923 300.605769 41.775641 300.605769 43.974359 300.605769 46.173077 300.605769 48.371795 300.605769 50.570513 300.605769 52.769231 300.605769 54.967949 300.605769 57.166667 300.605769 59.365385 300.605769 61.564103 300.605769 63.762821 300.605769 65.961538 300.605769 68.160256 300.605769 70.358974 300.605769 72.557692 300.605769 74.756410 300.605769 76.955128 300.605769 79.153846 300.605769 81.352564 300.605769 83.551282 300.605769 85.750000 300.605769 87.948718 300.605769 90.147436 300.605769 92.346154 300.605769 94.544872 300.442539 96.743590 300.279309 98.942308 300.116080 101.141026 300.116080 103.339744 300.116080 105.538462 300.116080 107.737179 300.116080 109.935897 299.952850 112.134615 299.626390 114.333333 299.626390 116.532051 299.789620 118.730769 299.952850 120.929487 300.116080 123.128205 300.116080 125.326923 299.952850 127.525641 299.626390 129.724359 299.136700 131.923077 298.973470 134.121795 298.320551 136.320513 297.830861 138.519231 295.872103 140.717949 294.076574 142.916667 289.506138 145.115385 285.425391 147.314103 279.875575 149.512821 279.385886 151.711538 279.222656 153.910256 274.162530 156.108974 268.123024 158.307692 267.143645 160.506410 267.959794 162.705128 268.286254 164.903846 272.203771 167.102564 266.327496 169.301282 268.775944 171.500000 267.796564 173.698718 267.470105 175.897436 270.245013 178.096154 270.571472 180.294872 272.693461 182.493590 264.368737 184.692308 256.860163 186.891026 252.942646 189.089744 256.370473 191.288462 264.205507 193.487179 262.573208 195.685897 263.552588 197.884615 254.574945 200.083333 234.497670 202.282051 230.743383 204.480769 240.210716 206.679487 247.229600 208.878205 251.147117 211.076923 252.942646 213.275641 250.983887 215.474359 244.291463 217.673077 244.291463 219.871795 236.129969 222.070513 231.069843 224.269231 240.863635 226.467949 227.315556 228.666667 229.274314 230.865385 229.111084 233.064103 229.111084 235.262821 229.927234 237.461538 240.047486 239.660256 229.927234 241.858974 249.678048 244.057692 228.294935 246.256410 253.432335 248.455128 244.454692 250.653846 244.454692 252.852564 228.294935 255.051282 228.294935 257.250000 223.234809 259.448718 223.234809 261.647436 232.865371 263.846154 232.865371 266.044872 252.289726 268.243590 252.289726 270.442308 274.815449 272.641026 252.616186 274.839744 269.592093 277.038462 195.159270 279.237179 201.525235 281.435897 201.525235 283.634615 115.176632 285.833333 115.176632 288.032051 115.176632 290.230769 71.431025 292.429487 71.431025 294.628205 93.630288 296.826923 88.896622 299.025641 88.896622 301.224359 163.329445 303.423077 161.044227 305.621795 247.882520 307.820513 247.882520 310.019231 235.966739 312.217949 281.671104 314.416667 281.671104 316.615385 267.470105 318.814103 272.203771 321.012821 272.203771 323.211538 272.203771 325.410256 261.593829 327.608974 261.593829 329.807692 261.593829 332.006410 263.226128 334.205128 263.226128 336.403846 263.226128 338.602564 277.427127 340.801282 275.305139 343.000000 275.305139 345.198718 275.305139 347.397436 288.200299 349.596154 288.200299 351.794872 288.200299 353.993590 288.200299 356.192308 298.483781 358.391026 298.483781 360.589744 296.035333 362.788462 298.157321 364.987179 298.157321 367.185897 298.157321 369.384615 297.177942 371.583333 297.177942 373.782051 297.177942 375.980769 297.177942 378.179487 297.177942 380.378205 296.851482 382.576923 299.299930 384.775641 299.299930 386.974359 299.299930 389.173077 299.299930 391.371795 298.810241 393.570513 298.810241 395.769231 298.810241 397.967949 298.810241 400.166667 298.810241 402.365385 297.830861 404.564103 297.830861 406.762821 297.830861 408.961538 297.830861 411.160256 297.830861 413.358974 299.299930 415.557692 299.299930 417.756410 299.299930 419.955128 299.299930 422.153846 299.299930 424.352564 300.605769 426.551282 300.605769 428.750000 299.789620 430.948718 299.789620 433.147436 299.789620 435.346154 299.789620 437.544872 299.789620 439.743590 299.789620 441.942308 297.994091 444.141026 297.994091 446.339744 297.994091 448.538462 297.994091 450.737179 298.810241 452.935897 298.810241 455.134615 298.810241 457.333333 298.810241 459.532051 298.810241 461.730769 298.810241 463.929487 298.810241 466.128205 300.605769 468.326923 300.605769 470.525641 300.605769 472.724359 300.605769 474.923077 299.952850 477.121795 299.952850 479.320513 299.952850 481.519231 299.952850 483.717949 299.952850 485.916667 299.952850 488.115385 299.952850 490.314103 299.952850 492.512821 298.647011 494.711538 298.647011 496.910256 299.299930 499.108974 299.299930 501.307692 299.299930 503.506410 299.299930 505.705128 299.299930 507.903846 299.299930 510.102564 299.136700 512.301282 299.136700 514.500000 300.442539 516.698718 300.442539 518.897436 300.442539 521.096154 300.442539 523.294872 300.442539 525.493590 300.442539 527.692308 300.442539 529.891026 300.116080 532.089744 300.279309 534.288462 300.279309 536.487179 300.279309 538.685897 300.279309 540.884615 300.279309 543.083333 300.279309 545.282051 300.279309 547.480769 300.279309 549.679487 300.279309 551.878205 300.279309 554.076923 300.605769 556.275641 300.605769 558.474359 300.605769 560.673077 300.605769 562.871795 300.605769 565.070513 300.605769 567.269231 300.605769 569.467949 300.605769 571.666667 300.605769 573.865385 300.605769 576.064103 300.605769 578.262821 300.605769 580.461538 300.605769 582.660256 300.605769 584.858974 300.605769 587.057692 300.605769 589.256410 300.605769 591.455128 300.605769 593.653846 300.605769 595.852564 300.605769 598.051282 300.605769 600.250000 300.605769 602.448718 300.605769 604.647436 300.605769 606.846154 300.605769 609.044872 300.605769 611.243590 300.605769 613.442308 300.605769 615.641026 300.605769 617.839744 300.605769 620.038462 300.605769 622.237179 300.605769 624.435897 300.605769 626.634615 300.605769 628.833333 300.605769 631.032051 300.605769 633.230769 300.605769 635.429487 300.605769 637.628205 300.605769 639.826923 300.605769 642.025641 300.605769 644.224359 300.605769 646.423077 300.605769 648.621795 300.605769 650.820513 300.605769 653.019231 300.605769 655.217949 300.605769 657.416667 300.605769 659.615385 300.605769 661.814103 300.605769 664.012821 300.605769 666.211538 300.605769 668.410256 300.605769 670.608974 300.605769 672.807692 300.605769"/></g><g class="series serie-1 color-1"><path class="line reactive nofill" d="M13.192308 300.605769 L15.391026 300.605769 17.589744 300.605769 19.788462 300.605769 21.987179 300.605769 24.185897 300.605769 26.384615 300.605769 28.583333 300.605769 30.782051 300.605769 32.980769 300.605769 35.179487 300.605769 37.378205 300.605769 39.576923 300.605769 41.775641 300.605769 43.974359 300.605769 46.173077 300.605769 48.371795 300.605769 50.570513 300.605769 52.769231 300.605769 54.967949 300.605769 57.166667 300.605769 59.365385 300.605769 61.564103 300.605769 63.762821 300.605769 65.961538 300.605769 68.160256 300.605769 70.358974 300.605769 72.557692 300.605769 74.756410 300.605769 76.955128 300.605769 79.153846 300.605769 81.352564 300.605769 83.551282 300.605769 85.750000 300.605769 87.948718 300.605769 90.147436 300.605769 92.346154 300.605769 94.544872 300.605769 96.743590 300.605769 98.942308 300.605769 101.141026 300.605769 103.339744 300.605769 105.538462 300.605769 107.737179 300.605769 109.935897 300.605769 112.134615 300.605769 114.333333 300.605769 116.532051 300.605769 118.730769 300.605769 120.929487 300.605769 123.128205 300.605769 125.326923 300.605769 127.525641 300.605769 129.724359 300.605769 131.923077 300.605769 134.121795 300.605769 136.320513 300.605769 138.519231 300.605769 140.717949 300.605769 142.916667 300.605769 145.115385 300.442539 147.314103 299.952850 149.512821 299.626390 151.711538 299.463160 153.910256 299.299930 156.108974 299.299930 158.307692 298.810241 160.506410 298.320551 162.705128 298.320551 164.903846 297.667631 167.102564 296.035333 169.301282 295.872103 171.500000 296.198563 173.698718 295.055953 175.897436 294.729494 178.096154 293.750115 180.294872 290.811977 182.493590 291.301666 184.692308 283.793092 186.891026 280.365265 189.089744 278.406506 191.288462 279.059426 193.487179 278.406506 195.685897 276.610978 197.884615 277.100667 200.083333 267.143645 202.282051 250.820657 204.480769 250.820657 206.679487 248.045750 208.878205 250.330968 211.076923 254.085255 213.275641 253.432335 215.474359 254.085255 217.673077 247.392830 219.871795 247.392830 222.070513 234.987360 224.269231 254.738174 226.467949 225.030337 228.666667 235.313819 230.865385 225.683257 233.064103 225.683257 235.262821 225.356797 237.461538 225.356797 239.660256 229.600774 241.858974 229.600774 244.057692 233.844751 246.256410 233.844751 248.455128 263.552588 250.653846 229.764004 252.852564 241.190095 255.051282 222.908349 257.250000 223.887728 259.448718 223.887728 261.647436 223.234809 263.846154 223.234809 266.044872 242.332704 268.243590 239.884256 270.442308 239.884256 272.641026 273.672840 274.839744 259.961530 277.038462 278.243276 279.237179 278.243276 281.435897 209.523499 283.634615 215.726234 285.833333 215.726234 288.032051 102.444702 290.230769 104.893150 292.429487 104.893150 294.628205 48.578843 296.826923 62.290152 299.025641 62.290152 301.224359 58.372635 303.423077 127.092413 305.621795 127.092413 307.820513 127.092413 310.019231 230.416923 312.217949 230.416923 314.416667 230.416923 316.615385 286.731230 318.814103 263.715818 321.012821 263.715818 323.211538 267.633335 325.410256 267.633335 327.608974 249.188359 329.807692 249.188359 332.006410 259.145381 334.205128 259.145381 336.403846 241.026865 338.602564 241.026865 340.801282 264.042277 343.000000 264.042277 345.198718 264.042277 347.397436 258.492462 349.596154 276.937437 351.794872 276.937437 353.993590 276.937437 356.192308 276.937437 358.391026 291.464896 360.589744 291.464896 362.788462 291.464896 364.987179 291.464896 367.185897 291.464896 369.384615 285.751851 371.583333 285.751851 373.782051 285.751851 375.980769 285.751851 378.179487 285.751851 380.378205 289.342908 382.576923 287.220920 384.775641 287.220920 386.974359 287.220920 389.173077 287.220920 391.371795 298.483781 393.570513 298.483781 395.769231 295.055953 397.967949 295.055953 400.166667 295.055953 402.365385 295.055953 404.564103 297.177942 406.762821 297.177942 408.961538 294.729494 411.160256 294.729494 413.358974 294.729494 415.557692 294.729494 417.756410 298.157321 419.955128 298.157321 422.153846 298.157321 424.352564 298.157321 426.551282 298.157321 428.750000 298.157321 430.948718 300.605769 433.147436 300.605769 435.346154 300.605769 437.544872 300.605769 439.743590 300.279309 441.942308 300.279309 444.141026 300.279309 446.339744 300.279309 448.538462 300.279309 450.737179 300.279309 452.935897 300.279309 455.134615 300.279309 457.333333 300.116080 459.532051 300.116080 461.730769 300.442539 463.929487 300.442539 466.128205 300.442539 468.326923 300.442539 470.525641 300.442539 472.724359 300.442539 474.923077 300.442539 477.121795 300.279309 479.320513 300.442539 481.519231 300.442539 483.717949 300.442539 485.916667 300.442539 488.115385 300.442539 490.314103 300.442539 492.512821 300.442539 494.711538 300.442539 496.910256 300.442539 499.108974 300.605769 501.307692 300.605769 503.506410 300.605769 505.705128 300.605769 507.903846 300.605769 510.102564 300.605769 512.301282 300.605769 514.500000 300.605769 516.698718 300.605769 518.897436 300.442539 521.096154 300.442539 523.294872 300.442539 525.493590 300.442539 527.692308 300.442539 529.891026 300.442539 532.089744 300.442539 534.288462 300.442539 536.487179 300.442539 538.685897 300.442539 540.884615 300.605769 543.083333 300.605769 545.282051 300.605769 547.480769 300.605769 549.679487 300.605769 551.878205 300.605769 554.076923 300.605769 556.275641 300.605769 558.474359 300.605769 560.673077 300.605769 562.871795 300.605769 565.070513 300.605769 567.269231 300.605769 569.467949 300.605769 571.666667 300.605769 573.865385 300.605769 576.064103 300.605769 578.262821 300.605769 580.461538 300.605769 582.660256 300.605769 584.858974 300.605769 587.057692 300.605769 589.256410 300.605769 591.455128 300.605769 593.653846 300.605769 595.852564 300.605769 598.051282 300.605769 600.250000 300.605769 602.448718 300.605769 604.647436 300.605769 606.846154 300.605769 609.044872 300.605769 611.243590 300.605769 613.442308 300.605769 615.641026 300.605769 617.839744 300.605769 620.038462 300.605769 622.237179 300.605769 624.435897 300.605769 626.634615 300.605769 628.833333 300.605769 631.032051 300.605769 633.230769 300.605769 635.429487 300.605769 637.628205 300.605769 639.826923 300.605769 642.025641 300.605769 644.224359 300.605769 646.423077 300.605769 648.621795 300.605769 650.820513 300.605769 653.019231 300.605769 655.217949 300.605769 657.416667 300.605769 659.615385 300.605769 661.814103 300.605769 664.012821 300.605769 666.211538 300.605769 668.410256 300.605769 670.608974 300.605769 672.807692 300.605769"/></g><g class="series serie-2 color-2"><path class="line reactive nofill" d="M13.192308 300.605769 L15.391026 300.605769 17.589744 300.605769 19.788462 300.605769 21.987179 300.605769 24.185897 300.605769 26.384615 300.605769 28.583333 300.605769 30.782051 300.605769 32.980769 300.605769 35.179487 300.605769 37.378205 300.605769 39.576923 300.605769 41.775641 300.605769 43.974359 300.605769 46.173077 300.605769 48.371795 300.605769 50.570513 300.605769 52.769231 300.605769 54.967949 300.605769 57.166667 300.605769 59.365385 300.605769 61.564103 300.605769 63.762821 300.605769 65.961538 300.605769 68.160256 300.605769 70.358974 300.605769 72.557692 300.605769 74.756410 300.605769 76.955128 300.605769 79.153846 300.605769 81.352564 300.605769 83.551282 300.605769 85.750000 300.605769 87.948718 300.605769 90.147436 300.605769 92.346154 300.605769 94.544872 300.605769 96.743590 300.605769 98.942308 300.605769 101.141026 300.605769 103.339744 300.605769 105.538462 300.605769 107.737179 300.605769 109.935897 300.605769 112.134615 300.605769 114.333333 300.116080 116.532051 300.116080 118.730769 300.116080 120.929487 300.116080 123.128205 299.952850 125.326923 299.626390 127.525641 299.299930 129.724359 299.136700 131.923077 298.973470 134.121795 298.973470 136.320513 299.136700 138.519231 298.647011 140.717949 297.667631 142.916667 294.403034 145.115385 292.770735 147.314103 290.159057 149.512821 289.016448 151.711538 287.547379 153.910256 286.241540 156.108974 282.976943 158.307692 276.284518 160.506410 273.183150 162.705128 267.633335 164.903846 266.164266 167.102564 255.064634 169.301282 250.657428 171.500000 249.351589 173.698718 249.514819 175.897436 249.188359 178.096154 249.514819 180.294872 249.678048 182.493590 242.495934 184.692308 241.353325 186.891026 240.700405 189.089744 251.310347 191.288462 257.839542 193.487179 257.676312 195.685897 250.820657 197.884615 246.903141 200.083333 232.212452 202.282051 232.212452 204.480769 234.987360 206.679487 242.169474 208.878205 246.903141 211.076923 249.025129 213.275641 248.372209 215.474359 246.739911 217.673077 239.231336 219.871795 234.171210 222.070513 234.171210 224.269231 230.743383 226.467949 230.253693 228.666667 227.478785 230.865385 227.478785 233.064103 227.642015 235.262821 229.111084 237.461538 231.559532 239.660256 239.721026 241.858974 242.169474 244.057692 243.801773 246.256410 246.576681 248.455128 244.454692 250.653846 233.191831 252.852564 229.111084 255.051282 224.377418 257.250000 221.276050 259.448718 222.418659 261.647436 229.927234 263.846154 237.272578 266.044872 252.126496 268.243590 258.982151 270.442308 263.552588 272.641026 273.183150 274.839744 258.329232 277.038462 230.416923 279.237179 218.990832 281.435897 175.571685 283.634615 123.501355 285.833333 110.932655 288.032051 101.138863 290.230769 67.187049 292.429487 69.798727 294.628205 68.656118 296.826923 87.917243 299.025641 120.073528 301.224359 133.295148 303.423077 177.203984 305.621795 227.478785 307.820513 238.904877 310.019231 247.719290 312.217949 275.958058 314.416667 276.610978 316.615385 279.549115 318.814103 277.590357 321.012821 275.305139 323.211538 273.672840 325.410256 272.367001 327.608974 273.346380 329.807692 274.652219 332.006410 275.305139 334.205128 281.181414 336.403846 283.793092 338.602564 286.731230 340.801282 288.853218 343.000000 291.628126 345.198718 294.566264 347.397436 296.361792 349.596154 297.341172 351.794872 298.157321 353.993590 299.463160 356.192308 299.952850 358.391026 300.116080 360.589744 300.279309 362.788462 300.442539 364.987179 300.442539 367.185897 300.442539 369.384615 300.442539 371.583333 300.442539 373.782051 300.442539 375.980769 300.605769 378.179487 300.605769 380.378205 300.605769 382.576923 300.605769 384.775641 300.605769 386.974359 300.605769 389.173077 300.605769 391.371795 300.605769 393.570513 300.605769 395.769231 300.605769 397.967949 300.605769 400.166667 300.605769 402.365385 300.605769 404.564103 300.605769 406.762821 300.605769 408.961538 300.605769 411.160256 300.605769 413.358974 300.605769 415.557692 300.605769 417.756410 300.605769 419.955128 300.605769 422.153846 300.605769 424.352564 300.605769 426.551282 300.605769 428.750000 300.605769 430.948718 300.605769 433.147436 300.605769 435.346154 300.605769 437.544872 300.605769 439.743590 300.605769 441.942308 300.605769 444.141026 300.605769 446.339744 300.605769 448.538462 300.605769 450.737179 300.605769 452.935897 300.605769 455.134615 300.605769 457.333333 300.605769 459.532051 300.605769 461.730769 300.605769 463.929487 300.605769 466.128205 300.605769 468.326923 300.605769 470.525641 300.605769 472.724359 300.605769 474.923077 300.605769 477.121795 300.605769 479.320513 300.605769 481.519231 300.605769 483.717949 300.605769 485.916667 300.605769 488.115385 300.605769 490.314103 300.605769 492.512821 300.605769 494.711538 300.605769 496.910256 300.605769 499.108974 300.605769 501.307692 300.605769 503.506410 300.605769 505.705128 300.605769 507.903846 300.605769 510.102564 300.605769 512.301282 300.605769 514.500000 300.605769 516.698718 300.605769 518.897436 300.605769 521.096154 300.605769 523.294872 300.605769 525.493590 300.605769 527.692308 300.605769 529.891026 300.605769 532.089744 300.605769 534.288462 300.605769 536.487179 300.605769 538.685897 300.605769 540.884615 300.605769 543.083333 300.605769 545.282051 300.605769 547.480769 300.605769 549.679487 300.605769 551.878205 300.605769 554.076923 300.605769 556.275641 300.605769 558.474359 300.605769 560.673077 300.605769 562.871795 300.605769 565.070513 300.605769 567.269231 300.605769 569.467949 300.605769 571.666667 300.605769 573.865385 300.605769 576.064103 300.605769 578.262821 300.605769 580.461538 300.605769 582.660256 300.605769 584.858974 300.605769 587.057692 300.605769 589.256410 300.605769 591.455128 300.605769 593.653846 300.605769 595.852564 300.605769 598.051282 300.605769 600.250000 300.605769 602.448718 300.605769 604.647436 300.605769 606.846154 300.605769 609.044872 300.605769 611.243590 300.605769 613.442308 300.605769 615.641026 300.605769 617.839744 300.605769 620.038462 300.605769 622.237179 300.605769 624.435897 300.605769 626.634615 300.605769 628.833333 300.605769 631.032051 300.605769 633.230769 300.605769 635.429487 300.605769 637.628205 300.605769 639.826923 300.605769 642.025641 300.605769 644.224359 300.605769 646.423077 300.605769 648.621795 300.605769 650.820513 300.605769 653.019231 300.605769 655.217949 300.605769 657.416667 300.605769 659.615385 300.605769 661.814103 300.605769 664.012821 300.605769 666.211538 300.605769 668.410256 300.605769 670.608974 300.605769 672.807692 300.605769"/></g><g class="series serie-3 color-3"><path class="line reactive nofill" d="M13.192308 300.605769 L15.391026 300.605769 17.589744 300.605769 19.788462 300.605769 21.987179 300.605769 24.185897 300.605769 26.384615 300.605769 28.583333 300.605769 30.782051 300.605769 32.980769 300.605769 35.179487 300.605769 37.378205 300.605769 39.576923 300.605769 41.775641 300.605769 43.974359 300.605769 46.173077 300.605769 48.371795 300.605769 50.570513 300.605769 52.769231 300.605769 54.967949 300.605769 57.166667 300.605769 59.365385 300.605769 61.564103 300.605769 63.762821 300.605769 65.961538 300.605769 68.160256 300.605769 70.358974 300.605769 72.557692 300.605769 74.756410 300.605769 76.955128 300.605769 79.153846 300.605769 81.352564 300.605769 83.551282 300.605769 85.750000 300.605769 87.948718 300.605769 90.147436 300.605769 92.346154 300.605769 94.544872 300.605769 96.743590 300.605769 98.942308 300.605769 101.141026 300.279309 103.339744 300.279309 105.538462 300.279309 107.737179 300.279309 109.935897 300.116080 112.134615 299.626390 114.333333 299.463160 116.532051 299.463160 118.730769 299.463160 120.929487 299.463160 123.128205 299.463160 125.326923 298.973470 127.525641 298.647011 129.724359 298.157321 131.923077 298.320551 134.121795 297.667631 136.320513 296.851482 138.519231 296.525022 140.717949 296.361792 142.916667 294.892724 145.115385 292.117816 147.314103 290.322287 149.512821 289.669368 151.711538 289.016448 153.910256 286.078310 156.108974 283.466632 158.307692 280.528495 160.506410 280.038805 162.705128 279.712345 164.903846 280.038805 167.102564 279.712345 169.301282 279.712345 171.500000 279.712345 173.698718 279.549115 175.897436 281.181414 178.096154 281.507874 180.294872 278.732966 182.493590 269.918553 184.692308 262.899668 186.891026 260.287990 189.089744 262.246749 191.288462 264.368737 193.487179 264.042277 195.685897 259.798301 197.884615 249.351589 200.083333 240.373946 202.282051 236.782888 204.480769 239.068107 206.679487 246.086991 208.878205 249.678048 211.076923 250.983887 213.275641 249.025129 215.474359 243.148853 217.673077 240.210716 219.871795 240.047486 222.070513 232.865371 224.269231 231.069843 226.467949 230.416923 228.666667 226.825866 230.865385 226.825866 233.064103 226.825866 235.262821 228.458165 237.461538 233.681521 239.660256 234.824130 241.858974 238.088727 244.057692 249.351589 246.256410 244.944382 248.455128 242.495934 250.653846 235.966739 252.852564 228.294935 255.051282 224.377418 257.250000 221.439280 259.448718 222.581889 261.647436 229.764004 263.846154 238.251957 266.044872 246.250221 268.243590 262.246749 270.442308 266.980415 272.641026 268.449484 274.839744 261.430599 277.038462 230.580153 279.237179 212.788097 281.435897 177.203984 283.634615 131.662849 285.833333 107.831287 288.032051 74.695623 290.230769 63.269532 292.429487 64.738601 294.628205 69.309037 296.826923 84.162956 299.025641 118.441229 301.224359 139.008193 303.423077 174.755536 305.621795 218.501142 307.820513 240.373946 310.019231 268.286254 312.217949 273.346380 314.416667 274.488989 316.615385 274.325759 318.814103 269.592093 321.012821 265.511346 323.211538 260.451220 325.410256 257.513082 327.608974 256.370473 329.807692 255.391094 332.006410 255.391094 334.205128 259.308611 336.403846 259.798301 338.602564 261.920289 340.801282 266.490725 343.000000 271.224392 345.198718 276.610978 347.397436 280.202035 349.596154 283.303403 351.794872 286.241540 353.993590 291.791356 356.192308 294.403034 358.391026 296.198563 360.589744 298.320551 362.788462 298.483781 364.987179 297.341172 367.185897 297.667631 369.384615 297.667631 371.583333 297.504402 373.782051 297.667631 375.980769 297.667631 378.179487 297.994091 380.378205 298.810241 382.576923 299.299930 384.775641 299.299930 386.974359 300.442539 389.173077 300.279309 391.371795 300.116080 393.570513 300.116080 395.769231 300.116080 397.967949 300.116080 400.166667 300.116080 402.365385 300.116080 404.564103 300.116080 406.762821 300.116080 408.961538 300.116080 411.160256 300.279309 413.358974 300.442539 415.557692 300.605769 417.756410 300.605769 419.955128 300.605769 422.153846 300.605769 424.352564 300.605769 426.551282 300.605769 428.750000 300.605769 430.948718 300.605769 433.147436 300.605769 435.346154 300.605769 437.544872 300.605769 439.743590 300.605769 441.942308 300.605769 444.141026 300.605769 446.339744 300.605769 448.538462 300.605769 450.737179 300.605769 452.935897 300.605769 455.134615 300.605769 457.333333 300.605769 459.532051 300.605769 461.730769 300.605769 463.929487 300.605769 466.128205 300.605769 468.326923 300.605769 470.525641 300.605769 472.724359 300.605769 474.923077 300.605769 477.121795 300.605769 479.320513 300.605769 481.519231 300.605769 483.717949 300.605769 485.916667 300.605769 488.115385 300.605769 490.314103 300.605769 492.512821 300.605769 494.711538 300.605769 496.910256 300.605769 499.108974 300.605769 501.307692 300.605769 503.506410 300.605769 505.705128 300.605769 507.903846 300.605769 510.102564 300.605769 512.301282 300.605769 514.500000 300.605769 516.698718 300.605769 518.897436 300.605769 521.096154 300.605769 523.294872 300.605769 525.493590 300.605769 527.692308 300.605769 529.891026 300.605769 532.089744 300.605769 534.288462 300.605769 536.487179 300.605769 538.685897 300.605769 540.884615 300.605769 543.083333 300.605769 545.282051 300.605769 547.480769 300.605769 549.679487 300.605769 551.878205 300.605769 554.076923 300.605769 556.275641 300.605769 558.474359 300.605769 560.673077 300.605769 562.871795 300.605769 565.070513 300.605769 567.269231 300.605769 569.467949 300.605769 571.666667 300.605769 573.865385 300.605769 576.064103 300.605769 578.262821 300.605769 580.461538 300.605769 582.660256 300.605769 584.858974 300.605769 587.057692 300.605769 589.256410 300.605769 591.455128 300.605769 593.653846 300.605769 595.852564 300.605769 598.051282 300.605769 600.250000 300.605769 602.448718 300.605769 604.647436 300.605769 606.846154 300.605769 609.044872 300.605769 611.243590 300.605769 613.442308 300.605769 615.641026 300.605769 617.839744 300.605769 620.038462 300.605769 622.237179 300.605769 624.435897 300.605769 626.634615 300.605769 628.833333 300.605769 631.032051 300.605769 633.230769 300.605769 635.429487 300.605769 637.628205 300.605769 639.826923 300.605769 642.025641 300.605769 644.224359 300.605769 646.423077 300.605769 648.621795 300.605769 650.820513 300.605769 653.019231 300.605769 655.217949 300.605769 657.416667 300.605769 659.615385 300.605769 661.814103 300.605769 664.012821 300.605769 666.211538 300.605769 668.410256 300.605769 670.608974 300.605769 672.807692 300.605769"/></g><g class="series serie-4 color-4"><path class="line reactive nofill" d="M13.192308 300.605769 L15.391026 300.605769 17.589744 300.605769 19.788462 300.605769 21.987179 300.605769 24.185897 300.605769 26.384615 300.605769 28.583333 300.605769 30.782051 300.605769 32.980769 300.605769 35.179487 300.605769 37.378205 300.605769 39.576923 300.605769 41.775641 300.605769 43.974359 300.605769 46.173077 300.605769 48.371795 300.605769 50.570513 300.605769 52.769231 300.605769 54.967949 300.605769 57.166667 300.605769 59.365385 300.605769 61.564103 300.605769 63.762821 300.605769 65.961538 300.605769 68.160256 300.605769 70.358974 300.605769 72.557692 300.605769 74.756410 300.605769 76.955128 300.605769 79.153846 300.605769 81.352564 300.605769 83.551282 300.605769 85.750000 300.605769 87.948718 300.605769 90.147436 300.605769 92.346154 300.605769 94.544872 300.605769 96.743590 300.605769 98.942308 300.605769 101.141026 299.789620 103.339744 299.789620 105.538462 299.789620 107.737179 299.789620 109.935897 299.626390 112.134615 299.136700 114.333333 298.973470 116.532051 298.973470 118.730769 298.973470 120.929487 298.973470 123.128205 299.463160 125.326923 298.973470 127.525641 298.483781 129.724359 297.994091 131.923077 298.157321 134.121795 297.504402 136.320513 296.688252 138.519231 296.361792 140.717949 296.198563 142.916667 294.729494 145.115385 291.791356 147.314103 289.995827 149.512821 289.506138 151.711538 288.689988 153.910256 285.751851 156.108974 282.976943 158.307692 280.038805 160.506410 279.385886 162.705128 279.059426 164.903846 279.385886 167.102564 279.059426 169.301282 278.569736 171.500000 278.406506 173.698718 278.406506 175.897436 280.038805 178.096154 280.365265 180.294872 277.263897 182.493590 268.123024 184.692308 259.961530 186.891026 257.186623 189.089744 259.308611 191.288462 261.920289 193.487179 261.757059 195.685897 257.349852 197.884615 247.066370 200.083333 238.251957 202.282051 234.987360 204.480769 237.762268 206.679487 245.923761 208.878205 249.678048 211.076923 250.983887 213.275641 249.025129 215.474359 243.148853 217.673077 240.373946 219.871795 240.047486 222.070513 232.865371 224.269231 231.069843 226.467949 230.416923 228.666667 226.825866 230.865385 226.825866 233.064103 226.825866 235.262821 228.458165 237.461538 233.681521 239.660256 234.824130 241.858974 238.088727 244.057692 249.351589 246.256410 244.944382 248.455128 242.495934 250.653846 236.129969 252.852564 228.458165 255.051282 224.540648 257.250000 221.602510 259.448718 222.745119 261.647436 229.927234 263.846154 238.415187 266.044872 246.413451 268.243590 262.409979 270.442308 267.143645 272.641026 268.449484 274.839744 261.430599 277.038462 230.580153 279.237179 212.788097 281.435897 177.203984 283.634615 131.662849 285.833333 107.831287 288.032051 74.858853 290.230769 63.432762 292.429487 64.901830 294.628205 69.472267 296.826923 84.326185 299.025641 118.767689 301.224359 139.334653 303.423077 175.081996 305.621795 218.827602 307.820513 240.863635 310.019231 268.612714 312.217949 273.672840 314.416667 274.815449 316.615385 274.815449 318.814103 270.081783 321.012821 265.837806 323.211538 260.777680 325.410256 257.839542 327.608974 256.696933 329.807692 255.717554 332.006410 255.717554 334.205128 259.798301 336.403846 260.614450 338.602564 262.736438 340.801282 267.306875 343.000000 272.040541 345.198718 277.427127 347.397436 281.018184 349.596154 284.119552 351.794872 287.057690 353.993590 292.607505 356.192308 295.055953 358.391026 296.851482 360.589744 299.299930 362.788462 299.463160 364.987179 299.463160 367.185897 299.789620 369.384615 299.789620 371.583333 299.789620 373.782051 299.789620 375.980769 299.789620 378.179487 300.116080 380.378205 300.605769 382.576923 300.605769 384.775641 300.605769 386.974359 300.605769 389.173077 300.605769 391.371795 300.605769 393.570513 300.605769 395.769231 300.605769 397.967949 300.605769 400.166667 300.605769 402.365385 300.605769 404.564103 300.605769 406.762821 300.605769 408.961538 300.605769 411.160256 300.605769 413.358974 300.605769 415.557692 300.605769 417.756410 300.605769 419.955128 300.605769 422.153846 300.605769 424.352564 300.605769 426.551282 300.605769 428.750000 300.605769 430.948718 300.605769 433.147436 300.605769 435.346154 300.605769 437.544872 300.605769 439.743590 300.605769 441.942308 300.605769 444.141026 300.605769 446.339744 300.605769 448.538462 300.605769 450.737179 300.605769 452.935897 300.605769 455.134615 300.605769 457.333333 300.605769 459.532051 300.605769 461.730769 300.605769 463.929487 300.605769 466.128205 300.605769 468.326923 300.605769 470.525641 300.605769 472.724359 300.605769 474.923077 300.605769 477.121795 300.605769 479.320513 300.605769 481.519231 300.605769 483.717949 300.605769 485.916667 300.605769 488.115385 300.605769 490.314103 300.605769 492.512821 300.605769 494.711538 300.605769 496.910256 300.605769 499.108974 300.605769 501.307692 300.605769 503.506410 300.605769 505.705128 300.605769 507.903846 300.605769 510.102564 300.605769 512.301282 300.605769 514.500000 300.605769 516.698718 300.605769 518.897436 300.605769 521.096154 300.605769 523.294872 300.605769 525.493590 300.605769 527.692308 300.605769 529.891026 300.605769 532.089744 300.605769 534.288462 300.605769 536.487179 300.605769 538.685897 300.605769 540.884615 300.605769 543.083333 300.605769 545.282051 300.605769 547.480769 300.605769 549.679487 300.605769 551.878205 300.605769 554.076923 300.605769 556.275641 300.605769 558.474359 300.605769 560.673077 300.605769 562.871795 300.605769 565.070513 300.605769 567.269231 300.605769 569.467949 300.605769 571.666667 300.605769 573.865385 300.605769 576.064103 300.605769 578.262821 300.605769 580.461538 300.605769 582.660256 300.605769 584.858974 300.605769 587.057692 300.605769 589.256410 300.605769 591.455128 300.605769 593.653846 300.605769 595.852564 300.605769 598.051282 300.605769 600.250000 300.605769 602.448718 300.605769 604.647436 300.605769 606.846154 300.605769 609.044872 300.605769 611.243590 300.605769 613.442308 300.605769 615.641026 300.605769 617.839744 300.605769 620.038462 300.605769 622.237179 300.605769 624.435897 300.605769 626.634615 300.605769 628.833333 300.605769 631.032051 300.605769 633.230769 300.605769 635.429487 300.605769 637.628205 300.605769 639.826923 300.605769 642.025641 300.605769 644.224359 300.605769 646.423077 300.605769 648.621795 300.605769 650.820513 300.605769 653.019231 300.605769 655.217949 300.605769 657.416667 300.605769 659.615385 300.605769 661.814103 300.605769 664.012821 300.605769 666.211538 300.605769 668.410256 300.605769 670.608974 300.605769 672.807692 300.605769"/></g><g class="series serie-5 color-5"><path class="line reactive nofill" d="M13.192308 300.605769 L15.391026 300.605769 17.589744 300.605769 19.788462 300.605769 21.987179 300.605769 24.185897 300.605769 26.384615 300.605769 28.583333 300.605769 30.782051 300.605769 32.980769 300.605769 35.179487 300.605769 37.378205 300.605769 39.576923 300.605769 41.775641 300.605769 43.974359 300.605769 46.173077 300.605769 48.371795 300.605769 50.570513 300.605769 52.769231 300.605769 54.967949 300.605769 57.166667 300.605769 59.365385 300.605769 61.564103 300.605769 63.762821 300.605769 65.961538 300.605769 68.160256 300.605769 70.358974 300.605769 72.557692 300.605769 74.756410 300.605769 76.955128 300.605769 79.153846 300.605769 81.352564 300.605769 83.551282 300.605769 85.750000 300.605769 87.948718 300.605769 90.147436 300.605769 92.346154 300.442539 94.544872 300.442539 96.743590 300.442539 98.942308 300.442539 101.141026 300.442539 103.339744 300.279309 105.538462 300.279309 107.737179 300.279309 109.935897 300.279309 112.134615 300.116080 114.333333 300.116080 116.532051 300.279309 118.730769 300.279309 120.929487 300.279309 123.128205 300.279309 125.326923 300.279309 127.525641 300.442539 129.724359 300.116080 131.923077 299.952850 134.121795 298.810241 136.320513 297.667631 138.519231 297.177942 140.717949 295.872103 142.916667 294.076574 145.115385 292.117816 147.314103 289.669368 149.512821 288.689988 151.711538 286.404770 153.910256 282.976943 156.108974 277.916817 158.307692 275.958058 160.506410 276.937437 162.705128 276.937437 164.903846 274.978679 167.102564 273.019920 169.301282 273.672840 171.500000 272.530231 173.698718 273.509610 175.897436 274.815449 178.096154 273.672840 180.294872 267.470105 182.493590 261.920289 184.692308 258.166002 186.891026 254.411715 189.089744 257.349852 191.288462 261.104140 193.487179 259.635071 195.685897 252.452956 197.884615 245.923761 200.083333 230.743383 202.282051 225.846487 204.480769 235.640279 206.679487 244.291463 208.878205 248.045750 211.076923 252.126496 213.275641 247.719290 215.474359 240.537175 217.673077 230.253693 219.871795 233.518291 222.070513 218.174683 224.269231 224.377418 226.467949 227.152326 228.666667 228.294935 230.865385 227.968475 233.064103 228.294935 235.262821 226.825866 237.461538 228.131705 239.660256 226.336176 241.858974 230.580153 244.057692 224.050958 246.256410 235.150590 248.455128 231.722762 250.653846 230.090463 252.852564 224.703878 255.051282 221.602510 257.250000 219.970211 259.448718 221.439280 261.647436 224.867107 263.846154 233.355061 266.044872 241.516555 268.243590 253.105876 270.442308 258.002772 272.641026 258.818921 274.839744 247.556060 277.038462 219.480522 279.237179 193.200512 281.435897 174.592306 283.634615 117.461850 285.833333 104.893150 288.032051 66.370899 290.230769 62.943072 292.429487 58.862325 294.628205 64.085681 296.826923 76.164692 299.025641 95.752277 301.224359 129.051171 303.423077 158.595778 305.621795 177.367214 307.820513 231.233073 310.019231 237.599038 312.217949 273.509610 314.416667 273.019920 316.615385 276.447748 318.814103 270.571472 321.012821 265.511346 323.211538 261.757059 325.410256 259.798301 327.608974 255.064634 329.807692 256.044013 332.006410 253.432335 334.205128 257.186623 336.403846 258.492462 338.602564 261.757059 340.801282 264.858427 343.000000 270.897932 345.198718 276.447748 347.397436 280.365265 349.596154 282.813713 351.794872 287.710609 353.993590 288.200299 356.192308 294.076574 358.391026 296.035333 360.589744 296.851482 362.788462 297.667631 364.987179 297.504402 367.185897 297.830861 369.384615 297.504402 371.583333 297.667631 373.782051 297.830861 375.980769 297.830861 378.179487 297.830861 380.378205 297.994091 382.576923 298.483781 384.775641 299.463160 386.974359 299.136700 389.173077 299.136700 391.371795 299.136700 393.570513 299.463160 395.769231 299.136700 397.967949 298.973470 400.166667 298.973470 402.365385 298.973470 404.564103 298.973470 406.762821 298.483781 408.961538 298.483781 411.160256 299.136700 413.358974 299.136700 415.557692 299.299930 417.756410 299.299930 419.955128 299.626390 422.153846 299.463160 424.352564 299.463160 426.551282 299.299930 428.750000 299.299930 430.948718 299.789620 433.147436 299.789620 435.346154 299.952850 437.544872 299.789620 439.743590 299.789620 441.942308 298.810241 444.141026 298.810241 446.339744 298.973470 448.538462 298.973470 450.737179 299.136700 452.935897 299.136700 455.134615 299.136700 457.333333 299.136700 459.532051 299.136700 461.730769 299.463160 463.929487 299.463160 466.128205 300.442539 468.326923 300.442539 470.525641 300.605769 472.724359 300.605769 474.923077 300.605769 477.121795 300.279309 479.320513 300.279309 481.519231 300.279309 483.717949 300.279309 485.916667 300.279309 488.115385 300.279309 490.314103 300.279309 492.512821 300.279309 494.711538 299.789620 496.910256 299.789620 499.108974 299.789620 501.307692 300.116080 503.506410 300.116080 505.705128 300.116080 507.903846 300.116080 510.102564 300.116080 512.301282 299.952850 514.500000 299.952850 516.698718 299.952850 518.897436 300.442539 521.096154 300.442539 523.294872 300.442539 525.493590 300.442539 527.692308 300.442539 529.891026 300.442539 532.089744 300.442539 534.288462 300.442539 536.487179 300.605769 538.685897 300.605769 540.884615 300.605769 543.083333 300.605769 545.282051 300.605769 547.480769 300.605769 549.679487 300.605769 551.878205 300.605769 554.076923 300.605769 556.275641 300.605769 558.474359 300.605769 560.673077 300.605769 562.871795 300.605769 565.070513 300.605769 567.269231 300.605769 569.467949 300.605769 571.666667 300.605769 573.865385 300.605769 576.064103 300.605769 578.262821 300.605769 580.461538 300.605769 582.660256 300.605769 584.858974 300.605769 587.057692 300.605769 589.256410 300.605769 591.455128 300.605769 593.653846 300.605769 595.852564 300.605769 598.051282 300.605769 600.250000 300.605769 602.448718 300.605769 604.647436 300.605769 606.846154 300.605769 609.044872 300.605769 611.243590 300.605769 613.442308 300.605769 615.641026 300.605769 617.839744 300.605769 620.038462 300.605769 622.237179 300.605769 624.435897 300.605769 626.634615 300.605769 628.833333 300.605769 631.032051 300.605769 633.230769 300.605769 635.429487 300.605769 637.628205 300.605769 639.826923 300.605769 642.025641 300.605769 644.224359 300.605769 646.423077 300.605769 648.621795 300.605769 650.820513 300.605769 653.019231 300.605769 655.217949 300.605769 657.416667 300.605769 659.615385 300.605769 661.814103 300.605769 664.012821 300.605769 666.211538 300.605769 668.410256 300.605769 670.608974 300.605769 672.807692 300.605769"/></g><g class="series serie-6 color-6"><path class="line reactive nofill" d="M13.192308 300.605769 L15.391026 300.605769 17.589744 300.605769 19.788462 300.605769 21.987179 300.605769 24.185897 300.605769 26.384615 300.605769 28.583333 300.605769 30.782051 300.605769 32.980769 300.605769 35.179487 300.605769 37.378205 300.605769 39.576923 300.605769 41.775641 300.605769 43.974359 300.605769 46.173077 300.605769 48.371795 300.605769 50.570513 300.605769 52.769231 300.605769 54.967949 300.605769 57.166667 300.605769 59.365385 300.605769 61.564103 300.605769 63.762821 300.605769 65.961538 300.605769 68.160256 300.605769 70.358974 300.605769 72.557692 300.605769 74.756410 300.605769 76.955128 300.605769 79.153846 300.605769 81.352564 300.605769 83.551282 300.605769 85.750000 300.605769 87.948718 300.605769 90.147436 300.442539 92.346154 300.442539 94.544872 300.279309 96.743590 300.116080 98.942308 300.116080 101.141026 300.116080 103.339744 300.116080 105.538462 300.116080 107.737179 300.116080 109.935897 300.116080 112.134615 299.952850 114.333333 299.952850 116.532051 299.626390 118.730769 299.789620 120.929487 299.463160 123.128205 299.299930 125.326923 298.483781 127.525641 298.157321 129.724359 298.157321 131.923077 297.994091 134.121795 295.382413 136.320513 294.239804 138.519231 293.586885 140.717949 290.648747 142.916667 288.037069 145.115385 285.588621 147.314103 284.282782 149.512821 283.956322 151.711538 281.507874 153.910256 279.385886 156.108974 271.714081 158.307692 272.530231 160.506410 272.040541 162.705128 270.897932 164.903846 268.775944 167.102564 268.612714 169.301282 266.327496 171.500000 267.143645 173.698718 266.817185 175.897436 268.286254 178.096154 267.143645 180.294872 263.062898 182.493590 256.696933 184.692308 254.411715 186.891026 252.616186 189.089744 257.676312 191.288462 260.451220 193.487179 261.104140 195.685897 253.269106 197.884615 249.351589 200.083333 232.702141 202.282051 228.947854 204.480769 239.231336 206.679487 247.392830 208.878205 250.983887 211.076923 254.248485 213.275641 251.310347 215.474359 245.107612 217.673077 236.456429 219.871795 238.415187 222.070513 221.765740 224.269231 231.069843 226.467949 231.233073 228.666667 232.212452 230.865385 231.885992 233.064103 232.375682 235.262821 232.049222 237.461538 232.212452 239.660256 228.294935 241.858974 234.334440 244.057692 226.825866 246.256410 237.109348 248.455128 231.885992 250.653846 233.191831 252.852564 227.478785 255.051282 223.724498 257.250000 221.112820 259.448718 221.602510 261.647436 224.703878 263.846154 234.824130 266.044872 241.843014 268.243590 253.432335 270.442308 259.308611 272.641026 264.205507 274.839744 245.270842 277.038462 219.317292 279.237179 198.423868 281.435897 175.734915 283.634615 120.399988 285.833333 106.362219 288.032051 70.941336 290.230769 66.697359 292.429487 63.269532 294.628205 67.676738 296.826923 75.838232 299.025641 100.322713 301.224359 132.478998 303.423077 157.126710 305.621795 181.121501 307.820513 233.518291 310.019231 239.231336 312.217949 272.856691 314.416667 273.999300 316.615385 276.610978 318.814103 272.530231 321.012821 270.734702 323.211538 265.184886 325.410256 262.573208 327.608974 260.777680 329.807692 259.471841 332.006410 255.717554 334.205128 264.042277 336.403846 263.389358 338.602564 266.327496 340.801282 269.102403 343.000000 274.652219 345.198718 277.263897 347.397436 282.813713 349.596154 285.588621 351.794872 287.710609 353.993590 290.159057 356.192308 297.177942 358.391026 297.014712 360.589744 298.973470 362.788462 298.157321 364.987179 298.483781 367.185897 297.830861 369.384615 297.830861 371.583333 297.830861 373.782051 297.667631 375.980769 297.667631 378.179487 297.830861 380.378205 297.830861 382.576923 297.994091 384.775641 297.341172 386.974359 298.320551 389.173077 298.483781 391.371795 298.157321 393.570513 296.361792 395.769231 296.361792 397.967949 296.525022 400.166667 296.361792 402.365385 296.198563 404.564103 295.708873 406.762821 295.708873 408.961538 296.688252 411.160256 296.688252 413.358974 296.688252 415.557692 297.667631 417.756410 299.463160 419.955128 299.463160 422.153846 299.136700 424.352564 299.299930 426.551282 299.299930 428.750000 299.463160 430.948718 299.463160 433.147436 299.299930 435.346154 298.647011 437.544872 297.830861 439.743590 295.708873 441.942308 295.545643 444.141026 294.892724 446.339744 295.219183 448.538462 295.055953 450.737179 295.219183 452.935897 295.545643 455.134615 295.382413 457.333333 295.708873 459.532051 296.525022 461.730769 297.341172 463.929487 299.463160 466.128205 299.626390 468.326923 300.279309 470.525641 300.279309 472.724359 300.442539 474.923077 300.442539 477.121795 300.279309 479.320513 300.442539 481.519231 300.442539 483.717949 300.442539 485.916667 300.442539 488.115385 300.442539 490.314103 300.442539 492.512821 300.442539 494.711538 300.279309 496.910256 300.279309 499.108974 300.279309 501.307692 300.442539 503.506410 300.442539 505.705128 300.442539 507.903846 300.442539 510.102564 300.442539 512.301282 300.442539 514.500000 300.442539 516.698718 300.442539 518.897436 300.605769 521.096154 300.605769 523.294872 300.605769 525.493590 300.605769 527.692308 300.605769 529.891026 300.605769 532.089744 300.605769 534.288462 300.605769 536.487179 300.605769 538.685897 300.605769 540.884615 300.605769 543.083333 300.605769 545.282051 300.605769 547.480769 300.605769 549.679487 300.605769 551.878205 300.605769 554.076923 300.605769 556.275641 300.605769 558.474359 300.605769 560.673077 300.605769 562.871795 300.605769 565.070513 300.605769 567.269231 300.605769 569.467949 300.605769 571.666667 300.605769 573.865385 300.605769 576.064103 300.605769 578.262821 300.605769 580.461538 300.605769 582.660256 300.605769 584.858974 300.605769 587.057692 300.605769 589.256410 300.605769 591.455128 300.605769 593.653846 300.605769 595.852564 300.605769 598.051282 300.605769 600.250000 300.605769 602.448718 300.605769 604.647436 300.605769 606.846154 300.605769 609.044872 300.605769 611.243590 300.605769 613.442308 300.605769 615.641026 300.605769 617.839744 300.605769 620.038462 300.605769 622.237179 300.605769 624.435897 300.605769 626.634615 300.605769 628.833333 300.605769 631.032051 300.605769 633.230769 300.605769 635.429487 300.605769 637.628205 300.605769 639.826923 300.605769 642.025641 300.605769 644.224359 300.605769 646.423077 300.605769 648.621795 300.605769 650.820513 300.605769 653.019231 300.605769 655.217949 300.605769 657.416667 300.605769 659.615385 300.605769 661.814103 300.605769 664.012821 300.605769 666.211538 300.605769 668.410256 300.605769 670.608974 300.605769 672.807692 300.605769"/></g><g class="series serie-7 color-7"><path class="line reactive nofill" d="M13.192308 300.605769 L15.391026 300.605769 17.589744 300.605769 19.788462 300.605769 21.987179 300.605769 24.185897 300.605769 26.384615 300.605769 28.583333 300.605769 30.782051 300.605769 32.980769 300.605769 35.179487 300.605769 37.378205 300.605769 39.576923 300.605769 41.775641 300.605769 43.974359 300.605769 46.173077 300.605769 48.371795 300.605769 50.570513 300.605769 52.769231 300.605769 54.967949 300.605769 57.166667 300.605769 59.365385 300.605769 61.564103 300.605769 63.762821 300.605769 65.961538 300.605769 68.160256 300.605769 70.358974 300.605769 72.557692 300.605769 74.756410 300.605769 76.955128 300.605769 79.153846 300.605769 81.352564 300.605769 83.551282 300.605769 85.750000 300.605769 87.948718 300.605769 90.147436 300.605769 92.346154 300.605769 94.544872 300.605769 96.743590 300.605769 98.942308 300.605769 101.141026 300.605769 103.339744 300.605769 105.538462 300.605769 107.737179 300.605769 109.935897 300.605769 112.134615 300.605769 114.333333 300.605769 116.532051 300.605769 118.730769 300.605769 120.929487 300.605769 123.128205 300.605769 125.326923 300.279309 127.525641 300.116080 129.724359 300.116080 131.923077 300.116080 134.121795 299.789620 136.320513 299.626390 138.519231 299.299930 140.717949 298.973470 142.916667 297.667631 145.115385 296.198563 147.314103 295.055953 149.512821 293.423655 151.711538 291.464896 153.910256 289.506138 156.108974 283.303403 158.307692 282.160793 160.506410 282.160793 162.705128 281.671104 164.903846 279.059426 167.102564 275.958058 169.301282 275.794828 171.500000 274.652219 173.698718 274.815449 175.897436 276.284518 178.096154 273.999300 180.294872 268.612714 182.493590 263.062898 184.692308 258.982151 186.891026 254.901404 189.089744 257.839542 191.288462 261.920289 193.487179 259.308611 195.685897 251.473577 197.884615 247.719290 200.083333 228.947854 202.282051 226.499406 204.480769 235.313819 206.679487 242.169474 208.878205 245.923761 211.076923 250.657428 213.275641 243.965003 215.474359 237.599038 217.673077 229.437544 219.871795 231.069843 222.070513 213.277786 224.269231 224.540648 226.467949 224.377418 228.666667 226.825866 230.865385 226.662636 233.064103 227.152326 235.262821 225.030337 237.461538 229.111084 239.660256 225.193567 241.858974 230.906613 244.057692 221.439280 246.256410 237.925497 248.455128 232.538912 250.653846 230.253693 252.852564 224.377418 255.051282 221.439280 257.250000 219.806981 259.448718 221.928970 261.647436 224.377418 263.846154 234.497670 266.044872 240.047486 268.243590 255.064634 270.442308 255.554324 272.641026 253.758795 274.839744 246.250221 277.038462 218.664372 279.237179 192.221133 281.435897 169.532180 283.634615 113.707563 285.833333 99.343334 288.032051 61.800463 290.230769 59.678474 292.429487 56.250647 294.628205 61.310773 296.826923 76.001462 299.025641 92.650909 301.224359 125.786574 303.423077 155.004721 305.621795 177.203984 307.820513 230.580153 310.019231 237.762268 312.217949 272.530231 314.416667 271.714081 316.615385 273.183150 318.814103 267.633335 321.012821 264.368737 323.211538 258.002772 325.410256 256.696933 327.608974 253.269106 329.807692 252.942646 332.006410 250.657428 334.205128 256.207243 336.403846 257.676312 338.602564 260.614450 340.801282 265.021657 343.000000 271.877311 345.198718 275.794828 347.397436 282.160793 349.596154 284.119552 351.794872 288.037069 353.993590 290.322287 356.192308 295.219183 358.391026 294.239804 360.589744 296.035333 362.788462 297.177942 364.987179 297.341172 367.185897 296.851482 369.384615 296.688252 371.583333 296.688252 373.782051 296.688252 375.980769 296.688252 378.179487 296.851482 380.378205 296.688252 382.576923 299.463160 384.775641 299.299930 386.974359 298.973470 389.173077 299.299930 391.371795 298.973470 393.570513 299.136700 395.769231 298.973470 397.967949 298.973470 400.166667 298.973470 402.365385 298.973470 404.564103 299.136700 406.762821 299.136700 408.961538 299.299930 411.160256 299.626390 413.358974 299.626390 415.557692 300.442539 417.756410 300.442539 419.955128 300.605769 422.153846 300.605769 424.352564 300.605769 426.551282 300.605769 428.750000 300.605769 430.948718 300.279309 433.147436 300.279309 435.346154 300.279309 437.544872 299.789620 439.743590 299.789620 441.942308 299.299930 444.141026 299.299930 446.339744 299.299930 448.538462 299.299930 450.737179 299.299930 452.935897 299.299930 455.134615 299.626390 457.333333 299.626390 459.532051 299.626390 461.730769 300.116080 463.929487 300.116080 466.128205 300.605769 468.326923 300.605769 470.525641 300.605769 472.724359 300.605769 474.923077 300.605769 477.121795 300.442539 479.320513 300.442539 481.519231 300.442539 483.717949 300.442539 485.916667 300.442539 488.115385 300.442539 490.314103 300.442539 492.512821 300.442539 494.711538 300.279309 496.910256 300.279309 499.108974 300.279309 501.307692 300.442539 503.506410 300.442539 505.705128 300.442539 507.903846 300.442539 510.102564 300.442539 512.301282 300.442539 514.500000 300.442539 516.698718 300.442539 518.897436 300.605769 521.096154 300.605769 523.294872 300.605769 525.493590 300.605769 527.692308 300.605769 529.891026 300.605769 532.089744 300.605769 534.288462 300.605769 536.487179 300.605769 538.685897 300.605769 540.884615 300.605769 543.083333 300.605769 545.282051 300.605769 547.480769 300.605769 549.679487 300.605769 551.878205 300.605769 554.076923 300.605769 556.275641 300.605769 558.474359 300.605769 560.673077 300.605769 562.871795 300.605769 565.070513 300.605769 567.269231 300.605769 569.467949 300.605769 571.666667 300.605769 573.865385 300.605769 576.064103 300.605769 578.262821 300.605769 580.461538 300.605769 582.660256 300.605769 584.858974 300.605769 587.057692 300.605769 589.256410 300.605769 591.455128 300.605769 593.653846 300.605769 595.852564 300.605769 598.051282 300.605769 600.250000 300.605769 602.448718 300.605769 604.647436 300.605769 606.846154 300.605769 609.044872 300.605769 611.243590 300.605769 613.442308 300.605769 615.641026 300.605769 617.839744 300.605769 620.038462 300.605769 622.237179 300.605769 624.435897 300.605769 626.634615 300.605769 628.833333 300.605769 631.032051 300.605769 633.230769 300.605769 635.429487 300.605769 637.628205 300.605769 639.826923 300.605769 642.025641 300.605769 644.224359 300.605769 646.423077 300.605769 648.621795 300.605769 650.820513 300.605769 653.019231 300.605769 655.217949 300.605769 657.416667 300.605769 659.615385 300.605769 661.814103 300.605769 664.012821 300.605769 666.211538 300.605769 668.410256 300.605769 670.608974 300.605769 672.807692 300.605769"/></g></g><g class="titles"><text class="title plot_title" x="400.0" y="28">Percentage of Annotations for T ±5.0 BPM</text><text class="title" x="437.0" y="437.5">T (BPM)</text><text class="title" x="0" y="229.25" transform="rotate(-90 0.000000 201.250000)">Values (%)</text></g><g class="plot overlay" transform="translate(94, 48)"><g class="series serie-0 color-0"><g class="dots"><circle class="dot reactive tooltip-trigger" cx="13.192307692307692" cy="300.6057692307692" r="2.5"/><desc class="value">0.0</desc><desc class="x top">13.192307692307692</desc><desc class="y top">300.6057692307692</desc><desc class="x_label">0.0</desc></g><g class="dots"><circle class="dot reactive tooltip-trigger" cx="79.15384615384616" cy="300.6057692307692" r="2.5"/><desc class="value">0.0</desc><desc class="x top">79.15384615384616</desc><desc class="y top">300.6057692307692</desc><desc class="x_label">30.0</desc></g><g class="dots"><circle class="dot reactive tooltip-trigger" cx="145.11538461538458" cy="285.42539089960167" r="2.5"/><desc class="value">2.6</desc><desc class="x top">145.11538461538458</desc><desc class="y top">285.42539089960167</desc><desc class="x_label">60.0</desc></g><g class="dots"><circle class="dot reactive tooltip-trigger" cx="211.07692307692307" cy="252.94264586839358" r="2.5"/><desc class="value">8.1</desc><desc class="x top">211.07692307692307</desc><desc class="y top">252.94264586839358</desc><desc class="x_label">90.0</desc></g><g class="dots"><circle class="dot reactive tooltip-trigger" cx="277.03846153846155" cy="195.15927028523953" r="2.5"/><desc class="value">17.9</desc><desc class="x top">277.03846153846155</desc><desc class="y top">195.15927028523953</desc><desc class="x_label">120.0</desc></g><g class="dots"><circle class="dot reactive tooltip-trigger" cx="343.0" cy="275.30513867882325" r="2.5"/><desc class="value">4.3</desc><desc class="x top">343.0</desc><desc class="y top">275.30513867882325</desc><desc class="x_label">150.0</desc></g><g class="dots"><circle class="dot reactive tooltip-trigger" cx="408.96153846153845" cy="297.8308613637816" r="2.5"/><desc class="value">0.5</desc><desc class="x left top">408.96153846153845</desc><desc class="y left top">297.8308613637816</desc><desc class="x_label">180.0</desc></g><g class="dots"><circle class="dot reactive tooltip-trigger" cx="474.92307692307685" cy="299.9528497326545" r="2.5"/><desc class="value">0.1</desc><desc class="x left top">474.92307692307685</desc><desc class="y left top">299.9528497326545</desc><desc class="x_label">210.0</desc></g><g class="dots"><circle class="dot reactive tooltip-trigger" cx="540.8846153846155" cy="300.27930948171183" r="2.5"/><desc class="value">0.1</desc><desc class="x left top">540.8846153846155</desc><desc class="y left top">300.27930948171183</desc><desc class="x_label">240.0</desc></g><g class="dots"><circle class="dot reactive tooltip-trigger" cx="606.8461538461538" cy="300.6057692307692" r="2.5"/><desc class="value">0.0</desc><desc class="x left top">606.8461538461538</desc><desc class="y left top">300.6057692307692</desc><desc class="x_label">270.0</desc></g><g class="dots"><circle class="dot reactive tooltip-trigger" cx="672.8076923076923" cy="300.6057692307692" r="2.5"/><desc class="value">0.0</desc><desc class="x left top">672.8076923076923</desc><desc class="y left top">300.6057692307692</desc><desc class="x_label">300.0</desc></g></g><g class="series serie-1 color-1"><g class="dots"><circle class="dot reactive tooltip-trigger" cx="13.192307692307692" cy="300.6057692307692" r="2.5"/><desc class="value">0.0</desc><desc class="x top">13.192307692307692</desc><desc class="y top">300.6057692307692</desc><desc class="x_label">0.0</desc></g><g class="dots"><circle class="dot reactive tooltip-trigger" cx="79.15384615384616" cy="300.6057692307692" r="2.5"/><desc class="value">0.0</desc><desc class="x top">79.15384615384616</desc><desc class="y top">300.6057692307692</desc><desc class="x_label">30.0</desc></g><g class="dots"><circle class="dot reactive tooltip-trigger" cx="145.11538461538458" cy="300.44253935624056" r="2.5"/><desc class="value">0.0</desc><desc class="x top">145.11538461538458</desc><desc class="y top">300.44253935624056</desc><desc class="x_label">60.0</desc></g><g class="dots"><circle class="dot reactive tooltip-trigger" cx="211.07692307692307" cy="254.08525499009437" r="2.5"/><desc class="value">7.9</desc><desc class="x top">211.07692307692307</desc><desc class="y top">254.08525499009437</desc><desc class="x_label">90.0</desc></g><g class="dots"><circle class="dot reactive tooltip-trigger" cx="277.03846153846155" cy="278.24327642033955" r="2.5"/><desc class="value">3.8</desc><desc class="x top">277.03846153846155</desc><desc class="y top">278.24327642033955</desc><desc class="x_label">120.0</desc></g><g class="dots"><circle class="dot reactive tooltip-trigger" cx="343.0" cy="264.04227733634406" r="2.5"/><desc class="value">6.2</desc><desc class="x top">343.0</desc><desc class="y top">264.04227733634406</desc><desc class="x_label">150.0</desc></g><g class="dots"><circle class="dot reactive tooltip-trigger" cx="408.96153846153845" cy="294.7294937477366" r="2.5"/><desc class="value">1.0</desc><desc class="x left top">408.96153846153845</desc><desc class="y left top">294.7294937477366</desc><desc class="x_label">180.0</desc></g><g class="dots"><circle class="dot reactive tooltip-trigger" cx="474.92307692307685" cy="300.44253935624056" r="2.5"/><desc class="value">0.0</desc><desc class="x left top">474.92307692307685</desc><desc class="y left top">300.44253935624056</desc><desc class="x_label">210.0</desc></g><g class="dots"><circle class="dot reactive tooltip-trigger" cx="540.8846153846155" cy="300.6057692307692" r="2.5"/><desc class="value">0.0</desc><desc class="x left top">540.8846153846155</desc><desc class="y left top">300.6057692307692</desc><desc class="x_label">240.0</desc></g><g class="dots"><circle class="dot reactive tooltip-trigger" cx="606.8461538461538" cy="300.6057692307692" r="2.5"/><desc class="value">0.0</desc><desc class="x left top">606.8461538461538</desc><desc class="y left top">300.6057692307692</desc><desc class="x_label">270.0</desc></g><g class="dots"><circle class="dot reactive tooltip-trigger" cx="672.8076923076923" cy="300.6057692307692" r="2.5"/><desc class="value">0.0</desc><desc class="x left top">672.8076923076923</desc><desc class="y left top">300.6057692307692</desc><desc class="x_label">300.0</desc></g></g><g class="series serie-2 color-2"><g class="dots"><circle class="dot reactive tooltip-trigger" cx="13.192307692307692" cy="300.6057692307692" r="2.5"/><desc class="value">0.0</desc><desc class="x top">13.192307692307692</desc><desc class="y top">300.6057692307692</desc><desc class="x_label">0.0</desc></g><g class="dots"><circle class="dot reactive tooltip-trigger" cx="79.15384615384616" cy="300.6057692307692" r="2.5"/><desc class="value">0.0</desc><desc class="x top">79.15384615384616</desc><desc class="y top">300.6057692307692</desc><desc class="x_label">30.0</desc></g><g class="dots"><circle class="dot reactive tooltip-trigger" cx="145.11538461538458" cy="292.7707352533924" r="2.5"/><desc class="value">1.3</desc><desc class="x top">145.11538461538458</desc><desc class="y top">292.7707352533924</desc><desc class="x_label">60.0</desc></g><g class="dots"><circle class="dot reactive tooltip-trigger" cx="211.07692307692307" cy="249.02512887970516" r="2.5"/><desc class="value">8.8</desc><desc class="x top">211.07692307692307</desc><desc class="y top">249.02512887970516</desc><desc class="x_label">90.0</desc></g><g class="dots"><circle class="dot reactive tooltip-trigger" cx="277.03846153846155" cy="230.41692318343524" r="2.5"/><desc class="value">11.9</desc><desc class="x top">277.03846153846155</desc><desc class="y top">230.41692318343524</desc><desc class="x_label">120.0</desc></g><g class="dots"><circle class="dot reactive tooltip-trigger" cx="343.0" cy="291.6281261316916" r="2.5"/><desc class="value">1.5</desc><desc class="x top">343.0</desc><desc class="y top">291.6281261316916</desc><desc class="x_label">150.0</desc></g><g class="dots"><circle class="dot reactive tooltip-trigger" cx="408.96153846153845" cy="300.6057692307692" r="2.5"/><desc class="value">0.0</desc><desc class="x left top">408.96153846153845</desc><desc class="y left top">300.6057692307692</desc><desc class="x_label">180.0</desc></g><g class="dots"><circle class="dot reactive tooltip-trigger" cx="474.92307692307685" cy="300.6057692307692" r="2.5"/><desc class="value">0.0</desc><desc class="x left top">474.92307692307685</desc><desc class="y left top">300.6057692307692</desc><desc class="x_label">210.0</desc></g><g class="dots"><circle class="dot reactive tooltip-trigger" cx="540.8846153846155" cy="300.6057692307692" r="2.5"/><desc class="value">0.0</desc><desc class="x left top">540.8846153846155</desc><desc class="y left top">300.6057692307692</desc><desc class="x_label">240.0</desc></g><g class="dots"><circle class="dot reactive tooltip-trigger" cx="606.8461538461538" cy="300.6057692307692" r="2.5"/><desc class="value">0.0</desc><desc class="x left top">606.8461538461538</desc><desc class="y left top">300.6057692307692</desc><desc class="x_label">270.0</desc></g><g class="dots"><circle class="dot reactive tooltip-trigger" cx="672.8076923076923" cy="300.6057692307692" r="2.5"/><desc class="value">0.0</desc><desc class="x left top">672.8076923076923</desc><desc class="y left top">300.6057692307692</desc><desc class="x_label">300.0</desc></g></g><g class="series serie-3 color-3"><g class="dots"><circle class="dot reactive tooltip-trigger" cx="13.192307692307692" cy="300.6057692307692" r="2.5"/><desc class="value">0.0</desc><desc class="x top">13.192307692307692</desc><desc class="y top">300.6057692307692</desc><desc class="x_label">0.0</desc></g><g class="dots"><circle class="dot reactive tooltip-trigger" cx="79.15384615384616" cy="300.6057692307692" r="2.5"/><desc class="value">0.0</desc><desc class="x top">79.15384615384616</desc><desc class="y top">300.6057692307692</desc><desc class="x_label">30.0</desc></g><g class="dots"><circle class="dot reactive tooltip-trigger" cx="145.11538461538458" cy="292.11781575527766" r="2.5"/><desc class="value">1.4</desc><desc class="x top">145.11538461538458</desc><desc class="y top">292.11781575527766</desc><desc class="x_label">60.0</desc></g><g class="dots"><circle class="dot reactive tooltip-trigger" cx="211.07692307692307" cy="250.98388737404937" r="2.5"/><desc class="value">8.4</desc><desc class="x top">211.07692307692307</desc><desc class="y top">250.98388737404937</desc><desc class="x_label">90.0</desc></g><g class="dots"><circle class="dot reactive tooltip-trigger" cx="277.03846153846155" cy="230.5801530579639" r="2.5"/><desc class="value">11.9</desc><desc class="x top">277.03846153846155</desc><desc class="y top">230.5801530579639</desc><desc class="x_label">120.0</desc></g><g class="dots"><circle class="dot reactive tooltip-trigger" cx="343.0" cy="271.22439181560617" r="2.5"/><desc class="value">5.0</desc><desc class="x top">343.0</desc><desc class="y top">271.22439181560617</desc><desc class="x_label">150.0</desc></g><g class="dots"><circle class="dot reactive tooltip-trigger" cx="408.96153846153845" cy="300.11607960718317" r="2.5"/><desc class="value">0.1</desc><desc class="x left top">408.96153846153845</desc><desc class="y left top">300.11607960718317</desc><desc class="x_label">180.0</desc></g><g class="dots"><circle class="dot reactive tooltip-trigger" cx="474.92307692307685" cy="300.6057692307692" r="2.5"/><desc class="value">0.0</desc><desc class="x left top">474.92307692307685</desc><desc class="y left top">300.6057692307692</desc><desc class="x_label">210.0</desc></g><g class="dots"><circle class="dot reactive tooltip-trigger" cx="540.8846153846155" cy="300.6057692307692" r="2.5"/><desc class="value">0.0</desc><desc class="x left top">540.8846153846155</desc><desc class="y left top">300.6057692307692</desc><desc class="x_label">240.0</desc></g><g class="dots"><circle class="dot reactive tooltip-trigger" cx="606.8461538461538" cy="300.6057692307692" r="2.5"/><desc class="value">0.0</desc><desc class="x left top">606.8461538461538</desc><desc class="y left top">300.6057692307692</desc><desc class="x_label">270.0</desc></g><g class="dots"><circle class="dot reactive tooltip-trigger" cx="672.8076923076923" cy="300.6057692307692" r="2.5"/><desc class="value">0.0</desc><desc class="x left top">672.8076923076923</desc><desc class="y left top">300.6057692307692</desc><desc class="x_label">300.0</desc></g></g><g class="series serie-4 color-4"><g class="dots"><circle class="dot reactive tooltip-trigger" cx="13.192307692307692" cy="300.6057692307692" r="2.5"/><desc class="value">0.0</desc><desc class="x top">13.192307692307692</desc><desc class="y top">300.6057692307692</desc><desc class="x_label">0.0</desc></g><g class="dots"><circle class="dot reactive tooltip-trigger" cx="79.15384615384616" cy="300.6057692307692" r="2.5"/><desc class="value">0.0</desc><desc class="x top">79.15384615384616</desc><desc class="y top">300.6057692307692</desc><desc class="x_label">30.0</desc></g><g class="dots"><circle class="dot reactive tooltip-trigger" cx="145.11538461538458" cy="291.7913560062203" r="2.5"/><desc class="value">1.5</desc><desc class="x top">145.11538461538458</desc><desc class="y top">291.7913560062203</desc><desc class="x_label">60.0</desc></g><g class="dots"><circle class="dot reactive tooltip-trigger" cx="211.07692307692307" cy="250.98388737404937" r="2.5"/><desc class="value">8.4</desc><desc class="x top">211.07692307692307</desc><desc class="y top">250.98388737404937</desc><desc class="x_label">90.0</desc></g><g class="dots"><circle class="dot reactive tooltip-trigger" cx="277.03846153846155" cy="230.5801530579639" r="2.5"/><desc class="value">11.9</desc><desc class="x top">277.03846153846155</desc><desc class="y top">230.5801530579639</desc><desc class="x_label">120.0</desc></g><g class="dots"><circle class="dot reactive tooltip-trigger" cx="343.0" cy="272.04054118824956" r="2.5"/><desc class="value">4.8</desc><desc class="x top">343.0</desc><desc class="y top">272.04054118824956</desc><desc class="x_label">150.0</desc></g><g class="dots"><circle class="dot reactive tooltip-trigger" cx="408.96153846153845" cy="300.6057692307692" r="2.5"/><desc class="value">0.0</desc><desc class="x left top">408.96153846153845</desc><desc class="y left top">300.6057692307692</desc><desc class="x_label">180.0</desc></g><g class="dots"><circle class="dot reactive tooltip-trigger" cx="474.92307692307685" cy="300.6057692307692" r="2.5"/><desc class="value">0.0</desc><desc class="x left top">474.92307692307685</desc><desc class="y left top">300.6057692307692</desc><desc class="x_label">210.0</desc></g><g class="dots"><circle class="dot reactive tooltip-trigger" cx="540.8846153846155" cy="300.6057692307692" r="2.5"/><desc class="value">0.0</desc><desc class="x left top">540.8846153846155</desc><desc class="y left top">300.6057692307692</desc><desc class="x_label">240.0</desc></g><g class="dots"><circle class="dot reactive tooltip-trigger" cx="606.8461538461538" cy="300.6057692307692" r="2.5"/><desc class="value">0.0</desc><desc class="x left top">606.8461538461538</desc><desc class="y left top">300.6057692307692</desc><desc class="x_label">270.0</desc></g><g class="dots"><circle class="dot reactive tooltip-trigger" cx="672.8076923076923" cy="300.6057692307692" r="2.5"/><desc class="value">0.0</desc><desc class="x left top">672.8076923076923</desc><desc class="y left top">300.6057692307692</desc><desc class="x_label">300.0</desc></g></g><g class="series serie-5 color-5"><g class="dots"><circle class="dot reactive tooltip-trigger" cx="13.192307692307692" cy="300.6057692307692" r="2.5"/><desc class="value">0.0</desc><desc class="x top">13.192307692307692</desc><desc class="y top">300.6057692307692</desc><desc class="x_label">0.0</desc></g><g class="dots"><circle class="dot reactive tooltip-trigger" cx="79.15384615384616" cy="300.6057692307692" r="2.5"/><desc class="value">0.0</desc><desc class="x top">79.15384615384616</desc><desc class="y top">300.6057692307692</desc><desc class="x_label">30.0</desc></g><g class="dots"><circle class="dot reactive tooltip-trigger" cx="145.11538461538458" cy="292.11781575527766" r="2.5"/><desc class="value">1.4</desc><desc class="x top">145.11538461538458</desc><desc class="y top">292.11781575527766</desc><desc class="x_label">60.0</desc></g><g class="dots"><circle class="dot reactive tooltip-trigger" cx="211.07692307692307" cy="252.12649649575016" r="2.5"/><desc class="value">8.2</desc><desc class="x top">211.07692307692307</desc><desc class="y top">252.12649649575016</desc><desc class="x_label">90.0</desc></g><g class="dots"><circle class="dot reactive tooltip-trigger" cx="277.03846153846155" cy="219.48052159001344" r="2.5"/><desc class="value">13.8</desc><desc class="x top">277.03846153846155</desc><desc class="y top">219.48052159001344</desc><desc class="x_label">120.0</desc></g><g class="dots"><circle class="dot reactive tooltip-trigger" cx="343.0" cy="270.8979320665488" r="2.5"/><desc class="value">5.0</desc><desc class="x top">343.0</desc><desc class="y top">270.8979320665488</desc><desc class="x_label">150.0</desc></g><g class="dots"><circle class="dot reactive tooltip-trigger" cx="408.96153846153845" cy="298.4837808618963" r="2.5"/><desc class="value">0.4</desc><desc class="x left top">408.96153846153845</desc><desc class="y left top">298.4837808618963</desc><desc class="x_label">180.0</desc></g><g class="dots"><circle class="dot reactive tooltip-trigger" cx="474.92307692307685" cy="300.6057692307692" r="2.5"/><desc class="value">0.0</desc><desc class="x left top">474.92307692307685</desc><desc class="y left top">300.6057692307692</desc><desc class="x_label">210.0</desc></g><g class="dots"><circle class="dot reactive tooltip-trigger" cx="540.8846153846155" cy="300.6057692307692" r="2.5"/><desc class="value">0.0</desc><desc class="x left top">540.8846153846155</desc><desc class="y left top">300.6057692307692</desc><desc class="x_label">240.0</desc></g><g class="dots"><circle class="dot reactive tooltip-trigger" cx="606.8461538461538" cy="300.6057692307692" r="2.5"/><desc class="value">0.0</desc><desc class="x left top">606.8461538461538</desc><desc class="y left top">300.6057692307692</desc><desc class="x_label">270.0</desc></g><g class="dots"><circle class="dot reactive tooltip-trigger" cx="672.8076923076923" cy="300.6057692307692" r="2.5"/><desc class="value">0.0</desc><desc class="x left top">672.8076923076923</desc><desc class="y left top">300.6057692307692</desc><desc class="x_label">300.0</desc></g></g><g class="series serie-6 color-6"><g class="dots"><circle class="dot reactive tooltip-trigger" cx="13.192307692307692" cy="300.6057692307692" r="2.5"/><desc class="value">0.0</desc><desc class="x top">13.192307692307692</desc><desc class="y top">300.6057692307692</desc><desc class="x_label">0.0</desc></g><g class="dots"><circle class="dot reactive tooltip-trigger" cx="79.15384615384616" cy="300.6057692307692" r="2.5"/><desc class="value">0.0</desc><desc class="x top">79.15384615384616</desc><desc class="y top">300.6057692307692</desc><desc class="x_label">30.0</desc></g><g class="dots"><circle class="dot reactive tooltip-trigger" cx="145.11538461538458" cy="285.58862077413033" r="2.5"/><desc class="value">2.5</desc><desc class="x top">145.11538461538458</desc><desc class="y top">285.58862077413033</desc><desc class="x_label">60.0</desc></g><g class="dots"><circle class="dot reactive tooltip-trigger" cx="211.07692307692307" cy="254.24848486462307" r="2.5"/><desc class="value">7.9</desc><desc class="x top">211.07692307692307</desc><desc class="y top">254.24848486462307</desc><desc class="x_label">90.0</desc></g><g class="dots"><circle class="dot reactive tooltip-trigger" cx="277.03846153846155" cy="219.31729171548477" r="2.5"/><desc class="value">13.8</desc><desc class="x top">277.03846153846155</desc><desc class="y top">219.31729171548477</desc><desc class="x_label">120.0</desc></g><g class="dots"><circle class="dot reactive tooltip-trigger" cx="343.0" cy="274.6522191807085" r="2.5"/><desc class="value">4.4</desc><desc class="x top">343.0</desc><desc class="y top">274.6522191807085</desc><desc class="x_label">150.0</desc></g><g class="dots"><circle class="dot reactive tooltip-trigger" cx="408.96153846153845" cy="296.6882522420808" r="2.5"/><desc class="value">0.7</desc><desc class="x left top">408.96153846153845</desc><desc class="y left top">296.6882522420808</desc><desc class="x_label">180.0</desc></g><g class="dots"><circle class="dot reactive tooltip-trigger" cx="474.92307692307685" cy="300.44253935624056" r="2.5"/><desc class="value">0.0</desc><desc class="x left top">474.92307692307685</desc><desc class="y left top">300.44253935624056</desc><desc class="x_label">210.0</desc></g><g class="dots"><circle class="dot reactive tooltip-trigger" cx="540.8846153846155" cy="300.6057692307692" r="2.5"/><desc class="value">0.0</desc><desc class="x left top">540.8846153846155</desc><desc class="y left top">300.6057692307692</desc><desc class="x_label">240.0</desc></g><g class="dots"><circle class="dot reactive tooltip-trigger" cx="606.8461538461538" cy="300.6057692307692" r="2.5"/><desc class="value">0.0</desc><desc class="x left top">606.8461538461538</desc><desc class="y left top">300.6057692307692</desc><desc class="x_label">270.0</desc></g><g class="dots"><circle class="dot reactive tooltip-trigger" cx="672.8076923076923" cy="300.6057692307692" r="2.5"/><desc class="value">0.0</desc><desc class="x left top">672.8076923076923</desc><desc class="y left top">300.6057692307692</desc><desc class="x_label">300.0</desc></g></g><g class="series serie-7 color-7"><g class="dots"><circle class="dot reactive tooltip-trigger" cx="13.192307692307692" cy="300.6057692307692" r="2.5"/><desc class="value">0.0</desc><desc class="x top">13.192307692307692</desc><desc class="y top">300.6057692307692</desc><desc class="x_label">0.0</desc></g><g class="dots"><circle class="dot reactive tooltip-trigger" cx="79.15384615384616" cy="300.6057692307692" r="2.5"/><desc class="value">0.0</desc><desc class="x top">79.15384615384616</desc><desc class="y top">300.6057692307692</desc><desc class="x_label">30.0</desc></g><g class="dots"><circle class="dot reactive tooltip-trigger" cx="145.11538461538458" cy="296.19856261849475" r="2.5"/><desc class="value">0.7</desc><desc class="x top">145.11538461538458</desc><desc class="y top">296.19856261849475</desc><desc class="x_label">60.0</desc></g><g class="dots"><circle class="dot reactive tooltip-trigger" cx="211.07692307692307" cy="250.657427624992" r="2.5"/><desc class="value">8.5</desc><desc class="x top">211.07692307692307</desc><desc class="y top">250.657427624992</desc><desc class="x_label">90.0</desc></g><g class="dots"><circle class="dot reactive tooltip-trigger" cx="277.03846153846155" cy="218.66437221737" r="2.5"/><desc class="value">13.9</desc><desc class="x top">277.03846153846155</desc><desc class="y top">218.66437221737</desc><desc class="x_label">120.0</desc></g><g class="dots"><circle class="dot reactive tooltip-trigger" cx="343.0" cy="271.8773113137209" r="2.5"/><desc class="value">4.9</desc><desc class="x top">343.0</desc><desc class="y top">271.8773113137209</desc><desc class="x_label">150.0</desc></g><g class="dots"><circle class="dot reactive tooltip-trigger" cx="408.96153846153845" cy="299.2999302345398" r="2.5"/><desc class="value">0.2</desc><desc class="x left top">408.96153846153845</desc><desc class="y left top">299.2999302345398</desc><desc class="x_label">180.0</desc></g><g class="dots"><circle class="dot reactive tooltip-trigger" cx="474.92307692307685" cy="300.6057692307692" r="2.5"/><desc class="value">0.0</desc><desc class="x left top">474.92307692307685</desc><desc class="y left top">300.6057692307692</desc><desc class="x_label">210.0</desc></g><g class="dots"><circle class="dot reactive tooltip-trigger" cx="540.8846153846155" cy="300.6057692307692" r="2.5"/><desc class="value">0.0</desc><desc class="x left top">540.8846153846155</desc><desc class="y left top">300.6057692307692</desc><desc class="x_label">240.0</desc></g><g class="dots"><circle class="dot reactive tooltip-trigger" cx="606.8461538461538" cy="300.6057692307692" r="2.5"/><desc class="value">0.0</desc><desc class="x left top">606.8461538461538</desc><desc class="y left top">300.6057692307692</desc><desc class="x_label">270.0</desc></g><g class="dots"><circle class="dot reactive tooltip-trigger" cx="672.8076923076923" cy="300.6057692307692" r="2.5"/><desc class="value">0.0</desc><desc class="x left top">672.8076923076923</desc><desc class="y left top">300.6057692307692</desc><desc class="x_label">300.0</desc></g></g></g><g class="plot text-overlay" transform="translate(94, 48)"><g class="series serie-0 color-0"/><g class="series serie-1 color-1"/><g class="series serie-2 color-2"/><g class="series serie-3 color-3"/><g class="series serie-4 color-4"/><g class="series serie-5 color-5"/><g class="series serie-6 color-6"/><g class="series serie-7 color-7"/></g><g class="plot tooltip-overlay" transform="translate(94, 48)"><g class="tooltip" style="opacity: 0" transform="translate(0 0)"><rect class="tooltip-box" height="0" rx="0" ry="0" width="0"/><g class="text"/></g></g><g class="legends" transform="translate(104, 457)"><g class="legend reactive activate-serie" id="activate-serie-0"><rect class="color-0 reactive" height="12" width="12" x="0.0" y="1.5"/><text x="17.0" y="12.0">boeck2015/tempodetector2016_default</text></g><g class="legend reactive activate-serie" id="activate-serie-1"><rect class="color-1 reactive" height="12" width="12" x="343.0" y="1.5"/><text x="360.0" y="12.0">davies2009/mirex_qm_tempotracker</text></g><g class="legend reactive activate-serie" id="activate-serie-2"><rect class="color-2 reactive" height="12" width="12" x="0.0" y="24.0"/><text x="17.0" y="34.5">percival2014/stem</text></g><g class="legend reactive activate-serie" id="activate-serie-3"><rect class="color-3 reactive" height="12" width="12" x="343.0" y="24.0"/><text x="360.0" y="34.5">schreiber2017/ismir2017</text></g><g class="legend reactive activate-serie" id="activate-serie-4"><rect class="color-4 reactive" height="12" width="12" x="0.0" y="46.5"/><text x="17.0" y="57.0">schreiber2017/mirex2017</text></g><g class="legend reactive activate-serie" id="activate-serie-5"><rect class="color-5 reactive" height="12" width="12" x="343.0" y="46.5"/><text x="360.0" y="57.0">schreiber2018/cnn</text></g><g class="legend reactive activate-serie" id="activate-serie-6"><rect class="color-6 reactive" height="12" width="12" x="0.0" y="69.0"/><text x="17.0" y="79.5">schreiber2018/fcn</text></g><g class="legend reactive activate-serie" id="activate-serie-7"><rect class="color-7 reactive" height="12" width="12" x="343.0" y="69.0"/><text x="360.0" y="79.5">schreiber2018/ismir2018</text></g></g></g></svg>