<?xml version='1.0' encoding='utf-8'?>
<svg xmlns:xlink="http://www.w3.org/1999/xlink" xmlns="http://www.w3.org/2000/svg" id="chart-b2300e74-e476-43e9-a5db-08b143be4856" class="pygal-chart" viewBox="0 0 800 600"><!--Generated with pygal 2.4.0 (lxml) ©Kozea 2012-2016 on 2019-10-13--><!--http://pygal.org--><!--http://github.com/Kozea/pygal--><defs><style type="text/css">#chart-b2300e74-e476-43e9-a5db-08b143be4856{-webkit-user-select:none;-webkit-font-smoothing:antialiased;font-family:Helvetica,Arial,sans-serif}#chart-b2300e74-e476-43e9-a5db-08b143be4856 .title{font-family:Helvetica,Arial,sans-serif;font-size:18px}#chart-b2300e74-e476-43e9-a5db-08b143be4856 .legends .legend text{font-family:Helvetica,Arial,sans-serif;font-size:15px}#chart-b2300e74-e476-43e9-a5db-08b143be4856 .axis text{font-family:Helvetica,Arial,sans-serif;font-size:15px}#chart-b2300e74-e476-43e9-a5db-08b143be4856 .axis text.major{font-family:Helvetica,Arial,sans-serif;font-size:15px}#chart-b2300e74-e476-43e9-a5db-08b143be4856 .text-overlay text.value{font-family:Helvetica,Arial,sans-serif;font-size:15px}#chart-b2300e74-e476-43e9-a5db-08b143be4856 .text-overlay text.label{font-family:Helvetica,Arial,sans-serif;font-size:15px}#chart-b2300e74-e476-43e9-a5db-08b143be4856 .tooltip{font-family:Helvetica,Arial,sans-serif;font-size:14px}#chart-b2300e74-e476-43e9-a5db-08b143be4856 text.no_data{font-family:Helvetica,Arial,sans-serif;font-size:64px}
#chart-b2300e74-e476-43e9-a5db-08b143be4856{background-color:transparent}#chart-b2300e74-e476-43e9-a5db-08b143be4856 path,#chart-b2300e74-e476-43e9-a5db-08b143be4856 line,#chart-b2300e74-e476-43e9-a5db-08b143be4856 rect,#chart-b2300e74-e476-43e9-a5db-08b143be4856 circle{-webkit-transition:150ms;-moz-transition:150ms;transition:150ms}#chart-b2300e74-e476-43e9-a5db-08b143be4856 .graph &gt; .background{fill:transparent}#chart-b2300e74-e476-43e9-a5db-08b143be4856 .plot &gt; .background{fill:white}#chart-b2300e74-e476-43e9-a5db-08b143be4856 .graph{fill:rgba(0,0,0,.87)}#chart-b2300e74-e476-43e9-a5db-08b143be4856 text.no_data{fill:rgba(0,0,0,1)}#chart-b2300e74-e476-43e9-a5db-08b143be4856 .title{fill:rgba(0,0,0,1)}#chart-b2300e74-e476-43e9-a5db-08b143be4856 .legends .legend text{fill:rgba(0,0,0,.87)}#chart-b2300e74-e476-43e9-a5db-08b143be4856 .legends .legend:hover text{fill:rgba(0,0,0,1)}#chart-b2300e74-e476-43e9-a5db-08b143be4856 .axis .line{stroke:rgba(0,0,0,1)}#chart-b2300e74-e476-43e9-a5db-08b143be4856 .axis .guide.line{stroke:rgba(0,0,0,.54)}#chart-b2300e74-e476-43e9-a5db-08b143be4856 .axis .major.line{stroke:rgba(0,0,0,.87)}#chart-b2300e74-e476-43e9-a5db-08b143be4856 .axis text.major{fill:rgba(0,0,0,1)}#chart-b2300e74-e476-43e9-a5db-08b143be4856 .axis.y .guides:hover .guide.line,#chart-b2300e74-e476-43e9-a5db-08b143be4856 .line-graph .axis.x .guides:hover .guide.line,#chart-b2300e74-e476-43e9-a5db-08b143be4856 .stackedline-graph .axis.x .guides:hover .guide.line,#chart-b2300e74-e476-43e9-a5db-08b143be4856 .xy-graph .axis.x .guides:hover .guide.line{stroke:rgba(0,0,0,1)}#chart-b2300e74-e476-43e9-a5db-08b143be4856 .axis .guides:hover text{fill:rgba(0,0,0,1)}#chart-b2300e74-e476-43e9-a5db-08b143be4856 .reactive{fill-opacity:.7;stroke-opacity:.8}#chart-b2300e74-e476-43e9-a5db-08b143be4856 .ci{stroke:rgba(0,0,0,.87)}#chart-b2300e74-e476-43e9-a5db-08b143be4856 .reactive.active,#chart-b2300e74-e476-43e9-a5db-08b143be4856 .active .reactive{fill-opacity:.8;stroke-opacity:.9;stroke-width:4}#chart-b2300e74-e476-43e9-a5db-08b143be4856 .ci .reactive.active{stroke-width:1.5}#chart-b2300e74-e476-43e9-a5db-08b143be4856 .series text{fill:rgba(0,0,0,1)}#chart-b2300e74-e476-43e9-a5db-08b143be4856 .tooltip rect{fill:white;stroke:rgba(0,0,0,1);-webkit-transition:opacity 150ms;-moz-transition:opacity 150ms;transition:opacity 150ms}#chart-b2300e74-e476-43e9-a5db-08b143be4856 .tooltip .label{fill:rgba(0,0,0,.87)}#chart-b2300e74-e476-43e9-a5db-08b143be4856 .tooltip .label{fill:rgba(0,0,0,.87)}#chart-b2300e74-e476-43e9-a5db-08b143be4856 .tooltip .legend{font-size:.8em;fill:rgba(0,0,0,.54)}#chart-b2300e74-e476-43e9-a5db-08b143be4856 .tooltip .x_label{font-size:.6em;fill:rgba(0,0,0,1)}#chart-b2300e74-e476-43e9-a5db-08b143be4856 .tooltip .xlink{font-size:.5em;text-decoration:underline}#chart-b2300e74-e476-43e9-a5db-08b143be4856 .tooltip .value{font-size:1.5em}#chart-b2300e74-e476-43e9-a5db-08b143be4856 .bound{font-size:.5em}#chart-b2300e74-e476-43e9-a5db-08b143be4856 .max-value{font-size:.75em;fill:rgba(0,0,0,.54)}#chart-b2300e74-e476-43e9-a5db-08b143be4856 .map-element{fill:white;stroke:rgba(0,0,0,.54) !important}#chart-b2300e74-e476-43e9-a5db-08b143be4856 .map-element .reactive{fill-opacity:inherit;stroke-opacity:inherit}#chart-b2300e74-e476-43e9-a5db-08b143be4856 .color-0,#chart-b2300e74-e476-43e9-a5db-08b143be4856 .color-0 a:visited{stroke:#F44336;fill:#F44336}#chart-b2300e74-e476-43e9-a5db-08b143be4856 .color-1,#chart-b2300e74-e476-43e9-a5db-08b143be4856 .color-1 a:visited{stroke:#3F51B5;fill:#3F51B5}#chart-b2300e74-e476-43e9-a5db-08b143be4856 .color-2,#chart-b2300e74-e476-43e9-a5db-08b143be4856 .color-2 a:visited{stroke:#009688;fill:#009688}#chart-b2300e74-e476-43e9-a5db-08b143be4856 .color-3,#chart-b2300e74-e476-43e9-a5db-08b143be4856 .color-3 a:visited{stroke:#FFC107;fill:#FFC107}#chart-b2300e74-e476-43e9-a5db-08b143be4856 .color-4,#chart-b2300e74-e476-43e9-a5db-08b143be4856 .color-4 a:visited{stroke:#FF5722;fill:#FF5722}#chart-b2300e74-e476-43e9-a5db-08b143be4856 .color-5,#chart-b2300e74-e476-43e9-a5db-08b143be4856 .color-5 a:visited{stroke:#9C27B0;fill:#9C27B0}#chart-b2300e74-e476-43e9-a5db-08b143be4856 .color-6,#chart-b2300e74-e476-43e9-a5db-08b143be4856 .color-6 a:visited{stroke:#03A9F4;fill:#03A9F4}#chart-b2300e74-e476-43e9-a5db-08b143be4856 .color-7,#chart-b2300e74-e476-43e9-a5db-08b143be4856 .color-7 a:visited{stroke:#8BC34A;fill:#8BC34A}#chart-b2300e74-e476-43e9-a5db-08b143be4856 .text-overlay .color-0 text{fill:black}#chart-b2300e74-e476-43e9-a5db-08b143be4856 .text-overlay .color-1 text{fill:black}#chart-b2300e74-e476-43e9-a5db-08b143be4856 .text-overlay .color-2 text{fill:black}#chart-b2300e74-e476-43e9-a5db-08b143be4856 .text-overlay .color-3 text{fill:black}#chart-b2300e74-e476-43e9-a5db-08b143be4856 .text-overlay .color-4 text{fill:black}#chart-b2300e74-e476-43e9-a5db-08b143be4856 .text-overlay .color-5 text{fill:black}#chart-b2300e74-e476-43e9-a5db-08b143be4856 .text-overlay .color-6 text{fill:black}#chart-b2300e74-e476-43e9-a5db-08b143be4856 .text-overlay .color-7 text{fill:black}
#chart-b2300e74-e476-43e9-a5db-08b143be4856 text.no_data{text-anchor:middle}#chart-b2300e74-e476-43e9-a5db-08b143be4856 .guide.line{fill:none}#chart-b2300e74-e476-43e9-a5db-08b143be4856 .centered{text-anchor:middle}#chart-b2300e74-e476-43e9-a5db-08b143be4856 .title{text-anchor:middle}#chart-b2300e74-e476-43e9-a5db-08b143be4856 .legends .legend text{fill-opacity:1}#chart-b2300e74-e476-43e9-a5db-08b143be4856 .axis.x text{text-anchor:middle}#chart-b2300e74-e476-43e9-a5db-08b143be4856 .axis.x:not(.web) text[transform]{text-anchor:start}#chart-b2300e74-e476-43e9-a5db-08b143be4856 .axis.x:not(.web) text[transform].backwards{text-anchor:end}#chart-b2300e74-e476-43e9-a5db-08b143be4856 .axis.y text{text-anchor:end}#chart-b2300e74-e476-43e9-a5db-08b143be4856 .axis.y text[transform].backwards{text-anchor:start}#chart-b2300e74-e476-43e9-a5db-08b143be4856 .axis.y2 text{text-anchor:start}#chart-b2300e74-e476-43e9-a5db-08b143be4856 .axis.y2 text[transform].backwards{text-anchor:end}#chart-b2300e74-e476-43e9-a5db-08b143be4856 .axis .guide.line{stroke-dasharray:1}#chart-b2300e74-e476-43e9-a5db-08b143be4856 .axis .major.guide.line{stroke-dasharray:1}#chart-b2300e74-e476-43e9-a5db-08b143be4856 .horizontal .axis.y .guide.line,#chart-b2300e74-e476-43e9-a5db-08b143be4856 .horizontal .axis.y2 .guide.line,#chart-b2300e74-e476-43e9-a5db-08b143be4856 .vertical .axis.x .guide.line{opacity:0}#chart-b2300e74-e476-43e9-a5db-08b143be4856 .horizontal .axis.always_show .guide.line,#chart-b2300e74-e476-43e9-a5db-08b143be4856 .vertical .axis.always_show .guide.line{opacity:1 !important}#chart-b2300e74-e476-43e9-a5db-08b143be4856 .axis.y .guides:hover .guide.line,#chart-b2300e74-e476-43e9-a5db-08b143be4856 .axis.y2 .guides:hover .guide.line,#chart-b2300e74-e476-43e9-a5db-08b143be4856 .axis.x .guides:hover .guide.line{opacity:1}#chart-b2300e74-e476-43e9-a5db-08b143be4856 .axis .guides:hover text{opacity:1}#chart-b2300e74-e476-43e9-a5db-08b143be4856 .nofill{fill:none}#chart-b2300e74-e476-43e9-a5db-08b143be4856 .subtle-fill{fill-opacity:.2}#chart-b2300e74-e476-43e9-a5db-08b143be4856 .dot{stroke-width:1px;fill-opacity:1}#chart-b2300e74-e476-43e9-a5db-08b143be4856 .dot.active{stroke-width:5px}#chart-b2300e74-e476-43e9-a5db-08b143be4856 .dot.negative{fill:transparent}#chart-b2300e74-e476-43e9-a5db-08b143be4856 text,#chart-b2300e74-e476-43e9-a5db-08b143be4856 tspan{stroke:none !important}#chart-b2300e74-e476-43e9-a5db-08b143be4856 .series text.active{opacity:1}#chart-b2300e74-e476-43e9-a5db-08b143be4856 .tooltip rect{fill-opacity:.95;stroke-width:.5}#chart-b2300e74-e476-43e9-a5db-08b143be4856 .tooltip text{fill-opacity:1}#chart-b2300e74-e476-43e9-a5db-08b143be4856 .showable{visibility:hidden}#chart-b2300e74-e476-43e9-a5db-08b143be4856 .showable.shown{visibility:visible}#chart-b2300e74-e476-43e9-a5db-08b143be4856 .gauge-background{fill:rgba(229,229,229,1);stroke:none}#chart-b2300e74-e476-43e9-a5db-08b143be4856 .bg-lines{stroke:transparent;stroke-width:2px}</style><script type="text/javascript">window.pygal = window.pygal || {};window.pygal.config = window.pygal.config || {};window.pygal.config['b2300e74-e476-43e9-a5db-08b143be4856'] = {"allow_interruptions": false, "box_mode": "extremes", "classes": ["pygal-chart"], "css": ["file://style.css", "file://graph.css"], "defs": [], "disable_xml_declaration": false, "dots_size": 2.5, "dynamic_print_values": false, "explicit_size": false, "fill": false, "force_uri_protocol": "https", "formatter": null, "half_pie": false, "height": 600, "include_x_axis": false, "inner_radius": 0, "interpolate": null, "interpolation_parameters": {}, "interpolation_precision": 250, "inverse_y_axis": false, "js": ["//kozea.github.io/pygal.js/2.0.x/pygal-tooltips.min.js"], "legend_at_bottom": true, "legend_at_bottom_columns": 2, "legend_box_size": 12, "logarithmic": false, "margin": 20, "margin_bottom": 70, "margin_left": null, "margin_right": null, "margin_top": null, "max_scale": 16, "min_scale": 4, "missing_value_fill_truncation": "x", "no_data_text": "No data", "no_prefix": false, "order_min": null, "pretty_print": false, "print_labels": false, "print_values": false, "print_values_position": "center", "print_zeroes": true, "range": [-1.0, 1.0], "rounded_bars": null, "secondary_range": null, "show_dots": true, "show_legend": true, "show_minor_x_labels": false, "show_minor_y_labels": true, "show_only_major_dots": true, "show_x_guides": true, "show_x_labels": true, "show_y_guides": true, "show_y_labels": true, "spacing": 10, "stack_from_top": false, "strict": false, "stroke": true, "stroke_style": null, "style": {"background": "transparent", "ci_colors": [], "colors": ["#F44336", "#3F51B5", "#009688", "#FFC107", "#FF5722", "#9C27B0", "#03A9F4", "#8BC34A", "#FF9800", "#E91E63", "#2196F3", "#4CAF50", "#FFEB3B", "#673AB7", "#00BCD4", "#CDDC39", "#9E9E9E", "#607D8B"], "font_family": "Helvetica, Arial, sans-serif", "foreground": "rgba(0, 0, 0, .87)", "foreground_strong": "rgba(0, 0, 0, 1)", "foreground_subtle": "rgba(0, 0, 0, .54)", "guide_stroke_dasharray": 1, "label_font_family": "Helvetica, Arial, sans-serif", "label_font_size": 15, "legend_font_family": "Helvetica, Arial, sans-serif", "legend_font_size": 15, "major_guide_stroke_dasharray": 1, "major_label_font_family": "Helvetica, Arial, sans-serif", "major_label_font_size": 15, "no_data_font_family": "Helvetica, Arial, sans-serif", "no_data_font_size": 64, "opacity": ".7", "opacity_hover": ".8", "plot_background": "white", "stroke_opacity": ".8", "stroke_opacity_hover": ".9", "title_font_family": "Helvetica, Arial, sans-serif", "title_font_size": 18, "tooltip_font_family": "Helvetica, Arial, sans-serif", "tooltip_font_size": 14, "transition": "150ms", "value_background": "rgba(229, 229, 229, 1)", "value_colors": [], "value_font_family": "Helvetica, Arial, sans-serif", "value_font_size": 15, "value_label_font_family": "Helvetica, Arial, sans-serif", "value_label_font_size": 15}, "title": "Mean OE1 for Tempo T \u00b110.0 BPM", "tooltip_border_radius": 0, "tooltip_fancy_mode": true, "truncate_label": null, "truncate_legend": -1, "width": 800, "x_label_rotation": 90, "x_labels": ["0.0", "1.0", "2.0", "3.0", "4.0", "5.0", "6.0", "7.0", "8.0", "9.0", "10.0", "11.0", "12.0", "13.0", "14.0", "15.0", "16.0", "17.0", "18.0", "19.0", "20.0", "21.0", "22.0", "23.0", "24.0", "25.0", "26.0", "27.0", "28.0", "29.0", "30.0", "31.0", "32.0", "33.0", "34.0", "35.0", "36.0", "37.0", "38.0", "39.0", "40.0", "41.0", "42.0", "43.0", "44.0", "45.0", "46.0", "47.0", "48.0", "49.0", "50.0", "51.0", "52.0", "53.0", "54.0", "55.0", "56.0", "57.0", "58.0", "59.0", "60.0", "61.0", "62.0", "63.0", "64.0", "65.0", "66.0", "67.0", "68.0", "69.0", "70.0", "71.0", "72.0", "73.0", "74.0", "75.0", "76.0", "77.0", "78.0", "79.0", "80.0", "81.0", "82.0", "83.0", "84.0", "85.0", "86.0", "87.0", "88.0", "89.0", "90.0", "91.0", "92.0", "93.0", "94.0", "95.0", "96.0", "97.0", "98.0", "99.0", "100.0", "101.0", "102.0", "103.0", "104.0", "105.0", "106.0", "107.0", "108.0", "109.0", "110.0", "111.0", "112.0", "113.0", "114.0", "115.0", "116.0", "117.0", "118.0", "119.0", "120.0", "121.0", "122.0", "123.0", "124.0", "125.0", "126.0", "127.0", "128.0", "129.0", "130.0", "131.0", "132.0", "133.0", "134.0", "135.0", "136.0", "137.0", "138.0", "139.0", "140.0", "141.0", "142.0", "143.0", "144.0", "145.0", "146.0", "147.0", "148.0", "149.0", "150.0", "151.0", "152.0", "153.0", "154.0", "155.0", "156.0", "157.0", "158.0", "159.0", "160.0", "161.0", "162.0", "163.0", "164.0", "165.0", "166.0", "167.0", "168.0", "169.0", "170.0", "171.0", "172.0", "173.0", "174.0", "175.0", "176.0", "177.0", "178.0", "179.0", "180.0", "181.0", "182.0", "183.0", "184.0", "185.0", "186.0", "187.0", "188.0", "189.0", "190.0", "191.0", "192.0", "193.0", "194.0", "195.0", "196.0", "197.0", "198.0", "199.0", "200.0", "201.0", "202.0", "203.0", "204.0", "205.0", "206.0", "207.0", "208.0", "209.0", "210.0", "211.0", "212.0", "213.0", "214.0", "215.0", "216.0", "217.0", "218.0", "219.0", "220.0", "221.0", "222.0", "223.0", "224.0", "225.0", "226.0", "227.0", "228.0", "229.0", "230.0", "231.0", "232.0", "233.0", "234.0", "235.0", "236.0", "237.0", "238.0", "239.0", "240.0", "241.0", "242.0", "243.0", "244.0", "245.0", "246.0", "247.0", "248.0", "249.0", "250.0", "251.0", "252.0", "253.0", "254.0", "255.0", "256.0", "257.0", "258.0", "259.0", "260.0", "261.0", "262.0", "263.0", "264.0", "265.0", "266.0", "267.0", "268.0", "269.0", "270.0", "271.0", "272.0", "273.0", "274.0", "275.0", "276.0", "277.0", "278.0", "279.0", "280.0", "281.0", "282.0", "283.0", "284.0", "285.0", "286.0", "287.0", "288.0", "289.0", "290.0", "291.0", "292.0", "293.0", "294.0", "295.0", "296.0", "297.0", "298.0", "299.0", "300.0"], "x_labels_major": null, "x_labels_major_count": 11, "x_labels_major_every": null, "x_title": "T (BPM)", "xrange": null, "y_label_rotation": 0, "y_labels": null, "y_labels_major": null, "y_labels_major_count": null, "y_labels_major_every": null, "y_title": "Mean OE1 (TO)", "zero": 0, "legends": ["boeck2015/tempodetector2016_default", "davies2009/mirex_qm_tempotracker", "percival2014/stem", "schreiber2014/default", "schreiber2017/ismir2017", "schreiber2017/mirex2017", "schreiber2018/cnn", "schreiber2018/fcn"]}</script><script type="text/javascript" xlink:href="https://kozea.github.io/pygal.js/2.0.x/pygal-tooltips.min.js"/></defs><title>Mean OE1 for Tempo T ±10.0 BPM</title><g class="graph line-graph vertical"><rect class="background" height="600" width="800" x="0" y="0"/><g class="plot" transform="translate(121, 48)"><rect class="background" height="306.5" width="659.0" x="0" y="0"/><g class="axis y always_show"><g class="guides"><path class="major guide line" d="M0.000000 300.605769 h659.000000"/><text class="major" x="-5" y="305.8557692307692">-1.0000</text><title>-1.0000</title></g><g class="guides"><path class="guide line" d="M0.000000 271.134615 h659.000000"/><text class="" x="-5" y="276.38461538461536">-0.8000</text><title>-0.8000</title></g><g class="guides"><path class="guide line" d="M0.000000 241.663462 h659.000000"/><text class="" x="-5" y="246.91346153846155">-0.6000</text><title>-0.6000</title></g><g class="guides"><path class="guide line" d="M0.000000 212.192308 h659.000000"/><text class="" x="-5" y="217.44230769230768">-0.4000</text><title>-0.4000</title></g><g class="guides"><path class="guide line" d="M0.000000 182.721154 h659.000000"/><text class="" x="-5" y="187.97115384615384">-0.2000</text><title>-0.2000</title></g><g class="guides"><path class="major line" d="M0.000000 153.250000 h659.000000"/><text class="major" x="-5" y="158.5">0.0000</text><title>0.0000</title></g><g class="guides"><path class="guide line" d="M0.000000 123.778846 h659.000000"/><text class="" x="-5" y="129.02884615384616">0.2000</text><title>0.2000</title></g><g class="guides"><path class="guide line" d="M0.000000 94.307692 h659.000000"/><text class="" x="-5" y="99.55769230769235">0.4000</text><title>0.4000</title></g><g class="guides"><path class="guide line" d="M0.000000 64.836538 h659.000000"/><text class="" x="-5" y="70.08653846153845">0.6000</text><title>0.6000</title></g><g class="guides"><path class="guide line" d="M0.000000 35.365385 h659.000000"/><text class="" x="-5" y="40.615384615384585">0.8000</text><title>0.8000</title></g><g class="guides"><path class="major guide line" d="M0.000000 5.894231 h659.000000"/><text class="major" x="-5" y="11.144230769230774">1.0000</text><title>1.0000</title></g></g><g class="axis x always_show"><g class="guides"><path class="major line" d="M12.673077 0.000000 v306.500000"/><text class="major" x="12.673076923076922" y="324.0" transform="rotate(90 12.673077 324.000000)">0.0</text></g><g class="guides"><path class="major guide line" d="M76.038462 0.000000 v306.500000"/><text class="major" x="76.03846153846155" y="324.0" transform="rotate(90 76.038462 324.000000)">30.0</text></g><g class="guides"><path class="major guide line" d="M139.403846 0.000000 v306.500000"/><text class="major" x="139.40384615384613" y="324.0" transform="rotate(90 139.403846 324.000000)">60.0</text></g><g class="guides"><path class="major guide line" d="M202.769231 0.000000 v306.500000"/><text class="major" x="202.76923076923075" y="324.0" transform="rotate(90 202.769231 324.000000)">90.0</text></g><g class="guides"><path class="major guide line" d="M266.134615 0.000000 v306.500000"/><text class="major" x="266.1346153846154" y="324.0" transform="rotate(90 266.134615 324.000000)">120.0</text></g><g class="guides"><path class="major guide line" d="M329.500000 0.000000 v306.500000"/><text class="major" x="329.5" y="324.0" transform="rotate(90 329.500000 324.000000)">150.0</text></g><g class="guides"><path class="major guide line" d="M392.865385 0.000000 v306.500000"/><text class="major" x="392.8653846153846" y="324.0" transform="rotate(90 392.865385 324.000000)">180.0</text></g><g class="guides"><path class="major guide line" d="M456.230769 0.000000 v306.500000"/><text class="major" x="456.23076923076917" y="324.0" transform="rotate(90 456.230769 324.000000)">210.0</text></g><g class="guides"><path class="major guide line" d="M519.596154 0.000000 v306.500000"/><text class="major" x="519.5961538461538" y="324.0" transform="rotate(90 519.596154 324.000000)">240.0</text></g><g class="guides"><path class="major guide line" d="M582.961538 0.000000 v306.500000"/><text class="major" x="582.9615384615385" y="324.0" transform="rotate(90 582.961538 324.000000)">270.0</text></g><g class="guides"><path class="major guide line" d="M646.326923 0.000000 v306.500000"/><text class="major" x="646.3269230769231" y="324.0" transform="rotate(90 646.326923 324.000000)">300.0</text></g></g><g class="series serie-0 color-0"><path class="line reactive nofill" d="M12.673077 153.250000 L14.785256 153.250000 16.897436 153.250000 19.009615 153.250000 21.121795 153.250000 23.233974 153.250000 25.346154 153.250000 27.458333 153.250000 29.570513 153.250000 31.682692 153.250000 33.794872 153.250000 35.907051 153.250000 38.019231 153.250000 40.131410 153.250000 42.243590 153.250000 44.355769 153.250000 46.467949 153.250000 48.580128 153.250000 50.692308 153.250000 52.804487 153.250000 54.916667 153.250000 57.028846 153.250000 59.141026 153.250000 61.253205 153.250000 63.365385 153.250000 65.477564 153.250000 67.589744 153.250000 69.701923 153.250000 71.814103 153.250000 73.926282 153.250000 76.038462 153.250000 78.150641 153.250000 80.262821 153.250000 82.375000 153.250000 84.487179 153.250000 86.599359 153.250000 88.711538 153.250000 90.823718 153.250000 92.935897 153.250000 95.048077 153.250000 97.160256 153.250000 99.272436 153.250000 101.384615 153.250000 103.496795 153.250000 105.608974 153.250000 107.721154 153.250000 109.833333 153.250000 111.945513 153.250000 114.057692 153.250000 116.169872 153.250000 118.282051 153.250000 120.394231 153.250000 122.506410 153.250000 124.618590 153.250000 126.730769 153.250000 128.842949 153.250000 130.955128 153.250000 133.067308 153.250000 135.179487 153.250000 137.291667 67.155126 139.403846 67.155126 141.516026 125.372500 143.628205 132.128239 145.740385 136.253692 147.852564 136.253692 149.964744 139.086410 152.076923 139.086410 154.189103 139.086410 156.301282 142.681846 158.413462 142.681846 160.525641 142.681846 162.637821 146.665805 164.750000 146.665805 166.862179 147.285023 168.974359 157.359444 171.086538 157.359444 173.198718 157.359444 175.310897 156.940734 177.423077 156.703527 179.535256 156.703527 181.647436 166.275331 183.759615 166.275331 185.871795 166.854615 187.983974 166.998009 190.096154 166.863212 192.208333 166.863212 194.320513 166.763310 196.432692 166.763310 198.544872 166.763310 200.657051 168.535998 202.769231 168.535998 204.881410 168.535998 206.993590 176.283927 209.105769 176.283927 211.217949 178.611601 213.330128 164.534804 215.442308 163.310368 217.554487 163.310368 219.666667 165.177367 221.778846 162.532687 223.891026 172.769900 226.003205 166.708291 228.115385 175.776692 230.227564 175.801339 232.339744 177.548688 234.451923 180.010935 236.564103 175.750538 238.676282 177.767111 240.788462 175.606332 242.900641 175.606332 245.012821 171.414520 247.125000 170.197053 249.237179 169.212067 251.349359 169.212067 253.461538 176.152819 255.573718 176.152819 257.685897 175.092375 259.798077 176.163589 261.910256 176.163589 264.022436 176.163589 266.134615 177.641334 268.246795 172.473294 270.358974 178.767617 272.471154 172.516246 274.583333 173.920600 276.695513 173.920600 278.807692 173.920600 280.919872 177.520975 283.032051 177.520975 285.144231 180.052247 287.256410 180.052247 289.368590 190.103090 291.480769 195.729590 293.592949 202.939972 295.705128 229.206171 297.817308 217.226141 299.929487 228.316658 302.041667 240.545443 304.153846 240.545443 306.266026 240.545443 308.378205 240.545443 310.490385 283.403302 312.602564 283.403302 314.714744 277.911781 316.826923 277.911781 318.939103 277.911781 321.051282 246.106305 323.163462 246.106305 325.275641 246.106305 327.387821 246.106305 329.500000 246.106305 331.612179 246.106305 333.724359 246.106305 335.836538 246.106305 337.948718 246.106305 340.060897 199.207283 342.173077 199.207283 344.285256 151.381045 346.397436 151.381045 348.509615 151.381045 350.621795 151.381045 352.733974 151.381045 354.846154 151.381045 356.958333 151.381045 359.070513 150.689875 361.182692 150.689875 363.294872 150.689875 365.407051 153.250000 367.519231 153.250000 369.631410 153.250000 371.743590 153.250000 373.855769 153.250000 375.967949 153.250000 378.080128 153.250000 380.192308 153.250000 382.304487 153.250000 384.416667 153.250000 386.528846 153.250000 388.641026 153.250000 390.753205 153.250000 392.865385 153.250000 394.977564 153.250000 397.089744 153.250000 399.201923 153.250000 401.314103 153.250000 403.426282 153.250000 405.538462 153.250000 407.650641 153.250000 409.762821 153.250000 411.875000 153.250000 413.987179 153.250000 416.099359 153.250000 418.211538 153.250000 420.323718 153.250000 422.435897 153.250000 424.548077 153.250000 426.660256 153.250000 428.772436 153.250000 430.884615 153.250000 432.996795 153.250000 435.108974 153.250000 437.221154 153.250000 439.333333 153.250000 441.445513 153.250000 443.557692 153.250000 445.669872 153.250000 447.782051 153.250000 449.894231 153.250000 452.006410 153.250000 454.118590 153.250000 456.230769 153.250000 458.342949 153.250000 460.455128 153.250000 462.567308 153.250000 464.679487 153.250000 466.791667 153.250000 468.903846 153.250000 471.016026 153.250000 473.128205 153.250000 475.240385 153.250000 477.352564 153.250000 479.464744 153.250000 481.576923 153.250000 483.689103 153.250000 485.801282 153.250000 487.913462 153.250000 490.025641 153.250000 492.137821 153.250000 494.250000 153.250000 496.362179 153.250000 498.474359 153.250000 500.586538 153.250000 502.698718 153.250000 504.810897 153.250000 506.923077 153.250000 509.035256 153.250000 511.147436 153.250000 513.259615 153.250000 515.371795 153.250000 517.483974 153.250000 519.596154 153.250000 521.708333 153.250000 523.820513 153.250000 525.932692 153.250000 528.044872 153.250000 530.157051 153.250000 532.269231 153.250000 534.381410 153.250000 536.493590 153.250000 538.605769 153.250000 540.717949 153.250000 542.830128 153.250000 544.942308 153.250000 547.054487 153.250000 549.166667 153.250000 551.278846 153.250000 553.391026 153.250000 555.503205 153.250000 557.615385 153.250000 559.727564 153.250000 561.839744 153.250000 563.951923 153.250000 566.064103 153.250000 568.176282 153.250000 570.288462 153.250000 572.400641 153.250000 574.512821 153.250000 576.625000 153.250000 578.737179 153.250000 580.849359 153.250000 582.961538 153.250000 585.073718 153.250000 587.185897 153.250000 589.298077 153.250000 591.410256 153.250000 593.522436 153.250000 595.634615 153.250000 597.746795 153.250000 599.858974 153.250000 601.971154 153.250000 604.083333 153.250000 606.195513 153.250000 608.307692 153.250000 610.419872 153.250000 612.532051 153.250000 614.644231 153.250000 616.756410 153.250000 618.868590 153.250000 620.980769 153.250000 623.092949 153.250000 625.205128 153.250000 627.317308 153.250000 629.429487 153.250000 631.541667 153.250000 633.653846 153.250000 635.766026 153.250000 637.878205 153.250000 639.990385 153.250000 642.102564 153.250000 644.214744 153.250000 646.326923 153.250000"/></g><g class="series serie-1 color-1"><path class="line reactive nofill" d="M12.673077 153.250000 L14.785256 153.250000 16.897436 153.250000 19.009615 153.250000 21.121795 153.250000 23.233974 153.250000 25.346154 153.250000 27.458333 153.250000 29.570513 153.250000 31.682692 153.250000 33.794872 153.250000 35.907051 153.250000 38.019231 153.250000 40.131410 153.250000 42.243590 153.250000 44.355769 153.250000 46.467949 153.250000 48.580128 153.250000 50.692308 153.250000 52.804487 153.250000 54.916667 153.250000 57.028846 153.250000 59.141026 153.250000 61.253205 153.250000 63.365385 153.250000 65.477564 153.250000 67.589744 153.250000 69.701923 153.250000 71.814103 153.250000 73.926282 153.250000 76.038462 153.250000 78.150641 153.250000 80.262821 153.250000 82.375000 153.250000 84.487179 153.250000 86.599359 153.250000 88.711538 153.250000 90.823718 153.250000 92.935897 153.250000 95.048077 153.250000 97.160256 153.250000 99.272436 153.250000 101.384615 153.250000 103.496795 153.250000 105.608974 153.250000 107.721154 153.250000 109.833333 153.250000 111.945513 153.250000 114.057692 153.250000 116.169872 153.250000 118.282051 153.250000 120.394231 153.250000 122.506410 153.250000 124.618590 153.250000 126.730769 153.250000 128.842949 153.250000 130.955128 153.250000 133.067308 153.250000 135.179487 153.250000 137.291667 144.860845 139.403846 144.860845 141.516026 50.672869 143.628205 75.738425 145.740385 81.273512 147.852564 81.273512 149.964744 68.241232 152.076923 68.241232 154.189103 68.241232 156.301282 50.813301 158.413462 50.813301 160.525641 50.813301 162.637821 55.425798 164.750000 55.425798 166.862179 62.348559 168.974359 65.321208 171.086538 65.321208 173.198718 65.321208 175.310897 65.548338 177.423077 70.273551 179.535256 70.273551 181.647436 70.652526 183.759615 70.652526 185.871795 83.363512 187.983974 83.370846 190.096154 85.844092 192.208333 85.844092 194.320513 94.482619 196.432692 94.482619 198.544872 94.482619 200.657051 107.276367 202.769231 107.276367 204.881410 107.276367 206.993590 129.511654 209.105769 129.511654 211.217949 126.974676 213.330128 138.644656 215.442308 140.055914 217.554487 140.055914 219.666667 150.180700 221.778846 150.029597 223.891026 149.712654 226.003205 149.533587 228.115385 149.285211 230.227564 149.071123 232.339744 148.905403 234.451923 149.218707 236.564103 149.055619 238.676282 148.982355 240.788462 149.010596 242.900641 149.010596 245.012821 149.431385 247.125000 149.446223 249.237179 149.556619 251.349359 149.556619 253.461538 149.567719 255.573718 149.567719 257.685897 149.485332 259.798077 149.461680 261.910256 149.461680 264.022436 149.461680 266.134615 149.362826 268.246795 149.483026 270.358974 149.504561 272.471154 149.715949 274.583333 149.709314 276.695513 149.709314 278.807692 149.709314 280.919872 149.967761 283.032051 149.967761 285.144231 150.023967 287.256410 150.023967 289.368590 149.562403 291.480769 149.545085 293.592949 149.230374 295.705128 149.043173 297.817308 148.922448 299.929487 149.198139 302.041667 149.411167 304.153846 149.411167 306.266026 149.411167 308.378205 149.411167 310.490385 149.526099 312.602564 149.526099 314.714744 149.023768 316.826923 149.023768 318.939103 149.023768 321.051282 148.239145 323.163462 148.239145 325.275641 148.239145 327.387821 148.239145 329.500000 148.239145 331.612179 148.239145 333.724359 148.239145 335.836538 148.239145 337.948718 148.239145 340.060897 148.345536 342.173077 148.345536 344.285256 147.092163 346.397436 147.092163 348.509615 147.092163 350.621795 147.092163 352.733974 147.092163 354.846154 147.092163 356.958333 147.092163 359.070513 145.885276 361.182692 145.885276 363.294872 145.885276 365.407051 153.250000 367.519231 153.250000 369.631410 153.250000 371.743590 153.250000 373.855769 153.250000 375.967949 153.250000 378.080128 153.250000 380.192308 153.250000 382.304487 153.250000 384.416667 153.250000 386.528846 153.250000 388.641026 153.250000 390.753205 153.250000 392.865385 153.250000 394.977564 153.250000 397.089744 153.250000 399.201923 153.250000 401.314103 153.250000 403.426282 153.250000 405.538462 153.250000 407.650641 153.250000 409.762821 153.250000 411.875000 153.250000 413.987179 153.250000 416.099359 153.250000 418.211538 153.250000 420.323718 153.250000 422.435897 153.250000 424.548077 153.250000 426.660256 153.250000 428.772436 153.250000 430.884615 153.250000 432.996795 153.250000 435.108974 153.250000 437.221154 153.250000 439.333333 153.250000 441.445513 153.250000 443.557692 153.250000 445.669872 153.250000 447.782051 153.250000 449.894231 153.250000 452.006410 153.250000 454.118590 153.250000 456.230769 153.250000 458.342949 153.250000 460.455128 153.250000 462.567308 153.250000 464.679487 153.250000 466.791667 153.250000 468.903846 153.250000 471.016026 153.250000 473.128205 153.250000 475.240385 153.250000 477.352564 153.250000 479.464744 153.250000 481.576923 153.250000 483.689103 153.250000 485.801282 153.250000 487.913462 153.250000 490.025641 153.250000 492.137821 153.250000 494.250000 153.250000 496.362179 153.250000 498.474359 153.250000 500.586538 153.250000 502.698718 153.250000 504.810897 153.250000 506.923077 153.250000 509.035256 153.250000 511.147436 153.250000 513.259615 153.250000 515.371795 153.250000 517.483974 153.250000 519.596154 153.250000 521.708333 153.250000 523.820513 153.250000 525.932692 153.250000 528.044872 153.250000 530.157051 153.250000 532.269231 153.250000 534.381410 153.250000 536.493590 153.250000 538.605769 153.250000 540.717949 153.250000 542.830128 153.250000 544.942308 153.250000 547.054487 153.250000 549.166667 153.250000 551.278846 153.250000 553.391026 153.250000 555.503205 153.250000 557.615385 153.250000 559.727564 153.250000 561.839744 153.250000 563.951923 153.250000 566.064103 153.250000 568.176282 153.250000 570.288462 153.250000 572.400641 153.250000 574.512821 153.250000 576.625000 153.250000 578.737179 153.250000 580.849359 153.250000 582.961538 153.250000 585.073718 153.250000 587.185897 153.250000 589.298077 153.250000 591.410256 153.250000 593.522436 153.250000 595.634615 153.250000 597.746795 153.250000 599.858974 153.250000 601.971154 153.250000 604.083333 153.250000 606.195513 153.250000 608.307692 153.250000 610.419872 153.250000 612.532051 153.250000 614.644231 153.250000 616.756410 153.250000 618.868590 153.250000 620.980769 153.250000 623.092949 153.250000 625.205128 153.250000 627.317308 153.250000 629.429487 153.250000 631.541667 153.250000 633.653846 153.250000 635.766026 153.250000 637.878205 153.250000 639.990385 153.250000 642.102564 153.250000 644.214744 153.250000 646.326923 153.250000"/></g><g class="series serie-2 color-2"><path class="line reactive nofill" d="M12.673077 153.250000 L14.785256 153.250000 16.897436 153.250000 19.009615 153.250000 21.121795 153.250000 23.233974 153.250000 25.346154 153.250000 27.458333 153.250000 29.570513 153.250000 31.682692 153.250000 33.794872 153.250000 35.907051 153.250000 38.019231 153.250000 40.131410 153.250000 42.243590 153.250000 44.355769 153.250000 46.467949 153.250000 48.580128 153.250000 50.692308 153.250000 52.804487 153.250000 54.916667 153.250000 57.028846 153.250000 59.141026 153.250000 61.253205 153.250000 63.365385 153.250000 65.477564 153.250000 67.589744 153.250000 69.701923 153.250000 71.814103 153.250000 73.926282 153.250000 76.038462 153.250000 78.150641 153.250000 80.262821 153.250000 82.375000 153.250000 84.487179 153.250000 86.599359 153.250000 88.711538 153.250000 90.823718 153.250000 92.935897 153.250000 95.048077 153.250000 97.160256 153.250000 99.272436 153.250000 101.384615 153.250000 103.496795 153.250000 105.608974 153.250000 107.721154 153.250000 109.833333 153.250000 111.945513 153.250000 114.057692 153.250000 116.169872 153.250000 118.282051 153.250000 120.394231 153.250000 122.506410 153.250000 124.618590 153.250000 126.730769 153.250000 128.842949 153.250000 130.955128 153.250000 133.067308 153.250000 135.179487 153.250000 137.291667 152.829243 139.403846 152.829243 141.516026 104.399281 143.628205 95.227178 145.740385 106.805250 147.852564 106.805250 149.964744 114.594214 152.076923 114.594214 154.189103 114.594214 156.301282 124.152849 158.413462 124.152849 160.525641 124.152849 162.637821 135.020018 164.750000 135.020018 166.862179 136.318574 168.974359 138.532471 171.086538 138.532471 173.198718 138.532471 175.310897 139.313303 177.423077 139.991259 179.535256 139.991259 181.647436 139.979230 183.759615 139.979230 185.871795 147.811563 187.983974 152.939764 190.096154 157.870404 192.208333 157.870404 194.320513 157.892137 196.432692 157.892137 198.544872 157.892137 200.657051 158.567255 202.769231 158.567255 204.881410 158.567255 206.993590 161.647138 209.105769 161.647138 211.217949 162.585730 213.330128 165.030296 215.442308 163.555253 217.554487 163.555253 219.666667 165.233629 221.778846 172.305094 223.891026 167.935080 226.003205 169.328022 228.115385 166.753307 230.227564 166.647064 232.339744 167.626796 234.451923 161.325739 236.564103 159.860127 238.676282 160.356096 240.788462 159.604137 242.900641 159.604137 245.012821 158.505335 247.125000 158.134444 249.237179 157.867153 251.349359 157.867153 253.461538 157.643652 255.573718 157.643652 257.685897 157.452268 259.798077 157.674496 261.910256 157.674496 264.022436 157.674496 266.134615 153.294807 268.246795 152.988761 270.358974 152.962655 272.471154 153.012026 274.583333 153.073037 276.695513 153.073037 278.807692 153.073037 280.919872 153.285333 283.032051 153.285333 285.144231 153.531215 287.256410 153.531215 289.368590 153.451473 291.480769 153.630227 293.592949 153.681399 295.705128 174.659039 297.817308 178.165439 299.929487 194.987188 302.041667 201.849058 304.153846 201.849058 306.266026 201.849058 308.378205 201.849058 310.490385 225.494070 312.602564 225.494070 314.714744 298.695314 316.826923 298.695314 318.939103 298.695314 321.051282 299.168090 323.163462 299.168090 325.275641 299.168090 327.387821 299.168090 329.500000 299.168090 331.612179 299.168090 333.724359 299.168090 335.836538 299.168090 337.948718 299.168090 340.060897 298.715826 342.173077 298.715826 344.285256 300.114899 346.397436 300.114899 348.509615 300.114899 350.621795 300.114899 352.733974 300.114899 354.846154 300.114899 356.958333 300.114899 359.070513 300.586419 361.182692 300.586419 363.294872 300.586419 365.407051 153.250000 367.519231 153.250000 369.631410 153.250000 371.743590 153.250000 373.855769 153.250000 375.967949 153.250000 378.080128 153.250000 380.192308 153.250000 382.304487 153.250000 384.416667 153.250000 386.528846 153.250000 388.641026 153.250000 390.753205 153.250000 392.865385 153.250000 394.977564 153.250000 397.089744 153.250000 399.201923 153.250000 401.314103 153.250000 403.426282 153.250000 405.538462 153.250000 407.650641 153.250000 409.762821 153.250000 411.875000 153.250000 413.987179 153.250000 416.099359 153.250000 418.211538 153.250000 420.323718 153.250000 422.435897 153.250000 424.548077 153.250000 426.660256 153.250000 428.772436 153.250000 430.884615 153.250000 432.996795 153.250000 435.108974 153.250000 437.221154 153.250000 439.333333 153.250000 441.445513 153.250000 443.557692 153.250000 445.669872 153.250000 447.782051 153.250000 449.894231 153.250000 452.006410 153.250000 454.118590 153.250000 456.230769 153.250000 458.342949 153.250000 460.455128 153.250000 462.567308 153.250000 464.679487 153.250000 466.791667 153.250000 468.903846 153.250000 471.016026 153.250000 473.128205 153.250000 475.240385 153.250000 477.352564 153.250000 479.464744 153.250000 481.576923 153.250000 483.689103 153.250000 485.801282 153.250000 487.913462 153.250000 490.025641 153.250000 492.137821 153.250000 494.250000 153.250000 496.362179 153.250000 498.474359 153.250000 500.586538 153.250000 502.698718 153.250000 504.810897 153.250000 506.923077 153.250000 509.035256 153.250000 511.147436 153.250000 513.259615 153.250000 515.371795 153.250000 517.483974 153.250000 519.596154 153.250000 521.708333 153.250000 523.820513 153.250000 525.932692 153.250000 528.044872 153.250000 530.157051 153.250000 532.269231 153.250000 534.381410 153.250000 536.493590 153.250000 538.605769 153.250000 540.717949 153.250000 542.830128 153.250000 544.942308 153.250000 547.054487 153.250000 549.166667 153.250000 551.278846 153.250000 553.391026 153.250000 555.503205 153.250000 557.615385 153.250000 559.727564 153.250000 561.839744 153.250000 563.951923 153.250000 566.064103 153.250000 568.176282 153.250000 570.288462 153.250000 572.400641 153.250000 574.512821 153.250000 576.625000 153.250000 578.737179 153.250000 580.849359 153.250000 582.961538 153.250000 585.073718 153.250000 587.185897 153.250000 589.298077 153.250000 591.410256 153.250000 593.522436 153.250000 595.634615 153.250000 597.746795 153.250000 599.858974 153.250000 601.971154 153.250000 604.083333 153.250000 606.195513 153.250000 608.307692 153.250000 610.419872 153.250000 612.532051 153.250000 614.644231 153.250000 616.756410 153.250000 618.868590 153.250000 620.980769 153.250000 623.092949 153.250000 625.205128 153.250000 627.317308 153.250000 629.429487 153.250000 631.541667 153.250000 633.653846 153.250000 635.766026 153.250000 637.878205 153.250000 639.990385 153.250000 642.102564 153.250000 644.214744 153.250000 646.326923 153.250000"/></g><g class="series serie-3 color-3"><path class="line reactive nofill" d="M12.673077 153.250000 L14.785256 153.250000 16.897436 153.250000 19.009615 153.250000 21.121795 153.250000 23.233974 153.250000 25.346154 153.250000 27.458333 153.250000 29.570513 153.250000 31.682692 153.250000 33.794872 153.250000 35.907051 153.250000 38.019231 153.250000 40.131410 153.250000 42.243590 153.250000 44.355769 153.250000 46.467949 153.250000 48.580128 153.250000 50.692308 153.250000 52.804487 153.250000 54.916667 153.250000 57.028846 153.250000 59.141026 153.250000 61.253205 153.250000 63.365385 153.250000 65.477564 153.250000 67.589744 153.250000 69.701923 153.250000 71.814103 153.250000 73.926282 153.250000 76.038462 153.250000 78.150641 153.250000 80.262821 153.250000 82.375000 153.250000 84.487179 153.250000 86.599359 153.250000 88.711538 153.250000 90.823718 153.250000 92.935897 153.250000 95.048077 153.250000 97.160256 153.250000 99.272436 153.250000 101.384615 153.250000 103.496795 153.250000 105.608974 153.250000 107.721154 153.250000 109.833333 153.250000 111.945513 153.250000 114.057692 153.250000 116.169872 153.250000 118.282051 153.250000 120.394231 153.250000 122.506410 153.250000 124.618590 153.250000 126.730769 153.250000 128.842949 153.250000 130.955128 153.250000 133.067308 153.250000 135.179487 153.250000 137.291667 149.398304 139.403846 149.398304 141.516026 156.219038 143.628205 155.595991 145.740385 155.148704 147.852564 155.148704 149.964744 154.798345 152.076923 154.798345 154.189103 154.798345 156.301282 154.246344 158.413462 154.246344 160.525641 154.246344 162.637821 152.623596 164.750000 152.623596 166.862179 152.813866 168.974359 153.024435 171.086538 153.024435 173.198718 153.024435 175.310897 150.094736 177.423077 150.243018 179.535256 150.243018 181.647436 151.076337 183.759615 151.076337 185.871795 150.189057 187.983974 150.298019 190.096154 150.365563 192.208333 150.365563 194.320513 150.667399 196.432692 150.667399 198.544872 150.667399 200.657051 150.411007 202.769231 150.411007 204.881410 150.411007 206.993590 150.602911 209.105769 150.602911 211.217949 150.082415 213.330128 148.820699 215.442308 149.378440 217.554487 149.378440 219.666667 155.972566 221.778846 155.719080 223.891026 155.679940 226.003205 154.887384 228.115385 154.544520 230.227564 154.464827 232.339744 154.371963 234.451923 154.359613 236.564103 154.554536 238.676282 154.252601 240.788462 154.196043 242.900641 154.196043 245.012821 163.282915 247.125000 162.647383 249.237179 162.126110 251.349359 162.126110 253.461538 161.687214 255.573718 161.687214 257.685897 161.462283 259.798077 161.892792 261.910256 161.892792 264.022436 161.892792 266.134615 162.667144 268.246795 164.088069 270.358974 171.206703 272.471154 173.679761 274.583333 175.223836 276.695513 175.223836 278.807692 175.223836 280.919872 178.490040 283.032051 178.490040 285.144231 180.760285 287.256410 180.760285 289.368590 172.548130 291.480769 175.415167 293.592949 179.106950 295.705128 175.439580 297.817308 179.048329 299.929487 196.192288 302.041667 202.692904 304.153846 202.692904 306.266026 202.692904 308.378205 202.692904 310.490385 225.421076 312.602564 225.421076 314.714744 250.151196 316.826923 250.151196 318.939103 250.151196 321.051282 249.690658 323.163462 249.690658 325.275641 249.690658 327.387821 249.690658 329.500000 249.690658 331.612179 249.690658 333.724359 249.690658 335.836538 249.690658 337.948718 249.690658 340.060897 281.775758 342.173077 281.775758 344.285256 273.135615 346.397436 273.135615 348.509615 273.135615 350.621795 273.135615 352.733974 273.135615 354.846154 273.135615 356.958333 273.135615 359.070513 248.309046 361.182692 248.309046 363.294872 248.309046 365.407051 153.250000 367.519231 153.250000 369.631410 153.250000 371.743590 153.250000 373.855769 153.250000 375.967949 153.250000 378.080128 153.250000 380.192308 153.250000 382.304487 153.250000 384.416667 153.250000 386.528846 153.250000 388.641026 153.250000 390.753205 153.250000 392.865385 153.250000 394.977564 153.250000 397.089744 153.250000 399.201923 153.250000 401.314103 153.250000 403.426282 153.250000 405.538462 153.250000 407.650641 153.250000 409.762821 153.250000 411.875000 153.250000 413.987179 153.250000 416.099359 153.250000 418.211538 153.250000 420.323718 153.250000 422.435897 153.250000 424.548077 153.250000 426.660256 153.250000 428.772436 153.250000 430.884615 153.250000 432.996795 153.250000 435.108974 153.250000 437.221154 153.250000 439.333333 153.250000 441.445513 153.250000 443.557692 153.250000 445.669872 153.250000 447.782051 153.250000 449.894231 153.250000 452.006410 153.250000 454.118590 153.250000 456.230769 153.250000 458.342949 153.250000 460.455128 153.250000 462.567308 153.250000 464.679487 153.250000 466.791667 153.250000 468.903846 153.250000 471.016026 153.250000 473.128205 153.250000 475.240385 153.250000 477.352564 153.250000 479.464744 153.250000 481.576923 153.250000 483.689103 153.250000 485.801282 153.250000 487.913462 153.250000 490.025641 153.250000 492.137821 153.250000 494.250000 153.250000 496.362179 153.250000 498.474359 153.250000 500.586538 153.250000 502.698718 153.250000 504.810897 153.250000 506.923077 153.250000 509.035256 153.250000 511.147436 153.250000 513.259615 153.250000 515.371795 153.250000 517.483974 153.250000 519.596154 153.250000 521.708333 153.250000 523.820513 153.250000 525.932692 153.250000 528.044872 153.250000 530.157051 153.250000 532.269231 153.250000 534.381410 153.250000 536.493590 153.250000 538.605769 153.250000 540.717949 153.250000 542.830128 153.250000 544.942308 153.250000 547.054487 153.250000 549.166667 153.250000 551.278846 153.250000 553.391026 153.250000 555.503205 153.250000 557.615385 153.250000 559.727564 153.250000 561.839744 153.250000 563.951923 153.250000 566.064103 153.250000 568.176282 153.250000 570.288462 153.250000 572.400641 153.250000 574.512821 153.250000 576.625000 153.250000 578.737179 153.250000 580.849359 153.250000 582.961538 153.250000 585.073718 153.250000 587.185897 153.250000 589.298077 153.250000 591.410256 153.250000 593.522436 153.250000 595.634615 153.250000 597.746795 153.250000 599.858974 153.250000 601.971154 153.250000 604.083333 153.250000 606.195513 153.250000 608.307692 153.250000 610.419872 153.250000 612.532051 153.250000 614.644231 153.250000 616.756410 153.250000 618.868590 153.250000 620.980769 153.250000 623.092949 153.250000 625.205128 153.250000 627.317308 153.250000 629.429487 153.250000 631.541667 153.250000 633.653846 153.250000 635.766026 153.250000 637.878205 153.250000 639.990385 153.250000 642.102564 153.250000 644.214744 153.250000 646.326923 153.250000"/></g><g class="series serie-4 color-4"><path class="line reactive nofill" d="M12.673077 153.250000 L14.785256 153.250000 16.897436 153.250000 19.009615 153.250000 21.121795 153.250000 23.233974 153.250000 25.346154 153.250000 27.458333 153.250000 29.570513 153.250000 31.682692 153.250000 33.794872 153.250000 35.907051 153.250000 38.019231 153.250000 40.131410 153.250000 42.243590 153.250000 44.355769 153.250000 46.467949 153.250000 48.580128 153.250000 50.692308 153.250000 52.804487 153.250000 54.916667 153.250000 57.028846 153.250000 59.141026 153.250000 61.253205 153.250000 63.365385 153.250000 65.477564 153.250000 67.589744 153.250000 69.701923 153.250000 71.814103 153.250000 73.926282 153.250000 76.038462 153.250000 78.150641 153.250000 80.262821 153.250000 82.375000 153.250000 84.487179 153.250000 86.599359 153.250000 88.711538 153.250000 90.823718 153.250000 92.935897 153.250000 95.048077 153.250000 97.160256 153.250000 99.272436 153.250000 101.384615 153.250000 103.496795 153.250000 105.608974 153.250000 107.721154 153.250000 109.833333 153.250000 111.945513 153.250000 114.057692 153.250000 116.169872 153.250000 118.282051 153.250000 120.394231 153.250000 122.506410 153.250000 124.618590 153.250000 126.730769 153.250000 128.842949 153.250000 130.955128 153.250000 133.067308 153.250000 135.179487 153.250000 137.291667 152.280913 139.403846 152.280913 141.516026 104.497103 143.628205 95.235697 145.740385 106.826020 147.852564 106.826020 149.964744 114.548051 152.076923 114.548051 154.189103 114.548051 156.301282 123.882629 158.413462 123.882629 160.525641 123.882629 162.637821 157.379886 164.750000 157.379886 166.862179 167.733998 168.974359 165.897823 171.086538 165.897823 173.198718 165.897823 175.310897 164.788172 177.423077 164.062217 179.535256 164.062217 181.647436 164.103719 183.759615 164.103719 185.871795 173.285079 187.983974 178.399573 190.096154 183.390396 192.208333 183.390396 194.320513 183.317913 196.432692 183.317913 198.544872 183.317913 200.657051 187.508786 202.769231 187.508786 204.881410 187.508786 206.993590 175.775431 209.105769 175.775431 211.217949 161.712983 213.330128 164.189664 215.442308 162.826285 217.554487 162.826285 219.666667 165.082360 221.778846 162.584581 223.891026 160.147084 226.003205 160.794279 228.115385 159.531182 230.227564 159.529817 232.339744 159.957479 234.451923 152.859860 236.564103 152.826176 238.676282 152.901191 240.788462 152.877618 242.900641 152.877618 245.012821 153.019484 247.125000 152.999871 249.237179 153.018390 251.349359 153.018390 253.461538 153.055282 255.573718 153.055282 257.685897 153.090528 259.798077 153.080418 261.910256 153.080418 264.022436 153.080418 266.134615 161.571504 268.246795 163.318886 270.358974 162.230514 272.471154 163.516696 274.583333 164.255598 276.695513 164.255598 278.807692 164.255598 280.919872 166.191379 283.032051 166.191379 285.144231 167.427437 287.256410 167.427437 289.368590 172.599887 291.480769 175.444718 293.592949 179.129971 295.705128 175.442672 297.817308 179.063227 299.929487 195.385718 302.041667 202.323304 304.153846 202.323304 306.266026 202.323304 308.378205 202.323304 310.490385 188.693752 312.602564 188.693752 314.714744 200.007832 316.826923 200.007832 318.939103 200.007832 321.051282 225.137594 323.163462 225.137594 325.275641 225.137594 327.387821 225.137594 329.500000 225.137594 331.612179 225.137594 333.724359 225.137594 335.836538 225.137594 337.948718 225.137594 340.060897 249.077165 342.173077 249.077165 344.285256 226.955413 346.397436 226.955413 348.509615 226.955413 350.621795 226.955413 352.733974 226.955413 354.846154 226.955413 356.958333 226.955413 359.070513 300.526880 361.182692 300.526880 363.294872 300.526880 365.407051 153.250000 367.519231 153.250000 369.631410 153.250000 371.743590 153.250000 373.855769 153.250000 375.967949 153.250000 378.080128 153.250000 380.192308 153.250000 382.304487 153.250000 384.416667 153.250000 386.528846 153.250000 388.641026 153.250000 390.753205 153.250000 392.865385 153.250000 394.977564 153.250000 397.089744 153.250000 399.201923 153.250000 401.314103 153.250000 403.426282 153.250000 405.538462 153.250000 407.650641 153.250000 409.762821 153.250000 411.875000 153.250000 413.987179 153.250000 416.099359 153.250000 418.211538 153.250000 420.323718 153.250000 422.435897 153.250000 424.548077 153.250000 426.660256 153.250000 428.772436 153.250000 430.884615 153.250000 432.996795 153.250000 435.108974 153.250000 437.221154 153.250000 439.333333 153.250000 441.445513 153.250000 443.557692 153.250000 445.669872 153.250000 447.782051 153.250000 449.894231 153.250000 452.006410 153.250000 454.118590 153.250000 456.230769 153.250000 458.342949 153.250000 460.455128 153.250000 462.567308 153.250000 464.679487 153.250000 466.791667 153.250000 468.903846 153.250000 471.016026 153.250000 473.128205 153.250000 475.240385 153.250000 477.352564 153.250000 479.464744 153.250000 481.576923 153.250000 483.689103 153.250000 485.801282 153.250000 487.913462 153.250000 490.025641 153.250000 492.137821 153.250000 494.250000 153.250000 496.362179 153.250000 498.474359 153.250000 500.586538 153.250000 502.698718 153.250000 504.810897 153.250000 506.923077 153.250000 509.035256 153.250000 511.147436 153.250000 513.259615 153.250000 515.371795 153.250000 517.483974 153.250000 519.596154 153.250000 521.708333 153.250000 523.820513 153.250000 525.932692 153.250000 528.044872 153.250000 530.157051 153.250000 532.269231 153.250000 534.381410 153.250000 536.493590 153.250000 538.605769 153.250000 540.717949 153.250000 542.830128 153.250000 544.942308 153.250000 547.054487 153.250000 549.166667 153.250000 551.278846 153.250000 553.391026 153.250000 555.503205 153.250000 557.615385 153.250000 559.727564 153.250000 561.839744 153.250000 563.951923 153.250000 566.064103 153.250000 568.176282 153.250000 570.288462 153.250000 572.400641 153.250000 574.512821 153.250000 576.625000 153.250000 578.737179 153.250000 580.849359 153.250000 582.961538 153.250000 585.073718 153.250000 587.185897 153.250000 589.298077 153.250000 591.410256 153.250000 593.522436 153.250000 595.634615 153.250000 597.746795 153.250000 599.858974 153.250000 601.971154 153.250000 604.083333 153.250000 606.195513 153.250000 608.307692 153.250000 610.419872 153.250000 612.532051 153.250000 614.644231 153.250000 616.756410 153.250000 618.868590 153.250000 620.980769 153.250000 623.092949 153.250000 625.205128 153.250000 627.317308 153.250000 629.429487 153.250000 631.541667 153.250000 633.653846 153.250000 635.766026 153.250000 637.878205 153.250000 639.990385 153.250000 642.102564 153.250000 644.214744 153.250000 646.326923 153.250000"/></g><g class="series serie-5 color-5"><path class="line reactive nofill" d="M12.673077 153.250000 L14.785256 153.250000 16.897436 153.250000 19.009615 153.250000 21.121795 153.250000 23.233974 153.250000 25.346154 153.250000 27.458333 153.250000 29.570513 153.250000 31.682692 153.250000 33.794872 153.250000 35.907051 153.250000 38.019231 153.250000 40.131410 153.250000 42.243590 153.250000 44.355769 153.250000 46.467949 153.250000 48.580128 153.250000 50.692308 153.250000 52.804487 153.250000 54.916667 153.250000 57.028846 153.250000 59.141026 153.250000 61.253205 153.250000 63.365385 153.250000 65.477564 153.250000 67.589744 153.250000 69.701923 153.250000 71.814103 153.250000 73.926282 153.250000 76.038462 153.250000 78.150641 153.250000 80.262821 153.250000 82.375000 153.250000 84.487179 153.250000 86.599359 153.250000 88.711538 153.250000 90.823718 153.250000 92.935897 153.250000 95.048077 153.250000 97.160256 153.250000 99.272436 153.250000 101.384615 153.250000 103.496795 153.250000 105.608974 153.250000 107.721154 153.250000 109.833333 153.250000 111.945513 153.250000 114.057692 153.250000 116.169872 153.250000 118.282051 153.250000 120.394231 153.250000 122.506410 153.250000 124.618590 153.250000 126.730769 153.250000 128.842949 153.250000 130.955128 153.250000 133.067308 153.250000 135.179487 153.250000 137.291667 152.280913 139.403846 152.280913 141.516026 153.615693 143.628205 132.074639 145.740385 136.297173 147.852564 136.297173 149.964744 139.107346 152.076923 139.107346 154.189103 139.107346 156.301282 142.302101 158.413462 142.302101 160.525641 142.302101 162.637821 168.714945 164.750000 168.714945 166.862179 178.259410 168.974359 175.107559 171.086538 175.107559 173.198718 175.107559 175.310897 182.124145 177.423077 180.435080 179.535256 180.435080 181.647436 180.476582 183.759615 180.476582 185.871795 181.953066 187.983974 187.067560 190.096154 192.058382 192.208333 192.058382 194.320513 191.985899 196.432692 191.985899 198.544872 191.985899 200.657051 197.332504 202.769231 197.332504 204.881410 197.332504 206.993590 190.511008 209.105769 190.511008 211.217949 178.085846 213.330128 185.240489 215.442308 181.245756 217.554487 181.245756 219.666667 165.082360 221.778846 162.584581 223.891026 160.147084 226.003205 160.794279 228.115385 159.531182 230.227564 159.529817 232.339744 159.957479 234.451923 152.859860 236.564103 152.826176 238.676282 152.901191 240.788462 152.877618 242.900641 152.877618 245.012821 153.019484 247.125000 152.999871 249.237179 153.018390 251.349359 153.018390 253.461538 153.055282 255.573718 153.055282 257.685897 153.090528 259.798077 153.080418 261.910256 153.080418 264.022436 153.080418 266.134615 161.571504 268.246795 163.318886 270.358974 162.230514 272.471154 163.516696 274.583333 164.255598 276.695513 164.255598 278.807692 164.255598 280.919872 166.191379 283.032051 166.191379 285.144231 167.427437 287.256410 167.427437 289.368590 172.599887 291.480769 175.444718 293.592949 179.129971 295.705128 175.442672 297.817308 179.063227 299.929487 195.385718 302.041667 202.323304 304.153846 202.323304 306.266026 202.323304 308.378205 202.323304 310.490385 188.693752 312.602564 188.693752 314.714744 200.007832 316.826923 200.007832 318.939103 200.007832 321.051282 225.137594 323.163462 225.137594 325.275641 225.137594 327.387821 225.137594 329.500000 225.137594 331.612179 225.137594 333.724359 225.137594 335.836538 225.137594 337.948718 225.137594 340.060897 249.077165 342.173077 249.077165 344.285256 226.955413 346.397436 226.955413 348.509615 226.955413 350.621795 226.955413 352.733974 226.955413 354.846154 226.955413 356.958333 226.955413 359.070513 300.526880 361.182692 300.526880 363.294872 300.526880 365.407051 153.250000 367.519231 153.250000 369.631410 153.250000 371.743590 153.250000 373.855769 153.250000 375.967949 153.250000 378.080128 153.250000 380.192308 153.250000 382.304487 153.250000 384.416667 153.250000 386.528846 153.250000 388.641026 153.250000 390.753205 153.250000 392.865385 153.250000 394.977564 153.250000 397.089744 153.250000 399.201923 153.250000 401.314103 153.250000 403.426282 153.250000 405.538462 153.250000 407.650641 153.250000 409.762821 153.250000 411.875000 153.250000 413.987179 153.250000 416.099359 153.250000 418.211538 153.250000 420.323718 153.250000 422.435897 153.250000 424.548077 153.250000 426.660256 153.250000 428.772436 153.250000 430.884615 153.250000 432.996795 153.250000 435.108974 153.250000 437.221154 153.250000 439.333333 153.250000 441.445513 153.250000 443.557692 153.250000 445.669872 153.250000 447.782051 153.250000 449.894231 153.250000 452.006410 153.250000 454.118590 153.250000 456.230769 153.250000 458.342949 153.250000 460.455128 153.250000 462.567308 153.250000 464.679487 153.250000 466.791667 153.250000 468.903846 153.250000 471.016026 153.250000 473.128205 153.250000 475.240385 153.250000 477.352564 153.250000 479.464744 153.250000 481.576923 153.250000 483.689103 153.250000 485.801282 153.250000 487.913462 153.250000 490.025641 153.250000 492.137821 153.250000 494.250000 153.250000 496.362179 153.250000 498.474359 153.250000 500.586538 153.250000 502.698718 153.250000 504.810897 153.250000 506.923077 153.250000 509.035256 153.250000 511.147436 153.250000 513.259615 153.250000 515.371795 153.250000 517.483974 153.250000 519.596154 153.250000 521.708333 153.250000 523.820513 153.250000 525.932692 153.250000 528.044872 153.250000 530.157051 153.250000 532.269231 153.250000 534.381410 153.250000 536.493590 153.250000 538.605769 153.250000 540.717949 153.250000 542.830128 153.250000 544.942308 153.250000 547.054487 153.250000 549.166667 153.250000 551.278846 153.250000 553.391026 153.250000 555.503205 153.250000 557.615385 153.250000 559.727564 153.250000 561.839744 153.250000 563.951923 153.250000 566.064103 153.250000 568.176282 153.250000 570.288462 153.250000 572.400641 153.250000 574.512821 153.250000 576.625000 153.250000 578.737179 153.250000 580.849359 153.250000 582.961538 153.250000 585.073718 153.250000 587.185897 153.250000 589.298077 153.250000 591.410256 153.250000 593.522436 153.250000 595.634615 153.250000 597.746795 153.250000 599.858974 153.250000 601.971154 153.250000 604.083333 153.250000 606.195513 153.250000 608.307692 153.250000 610.419872 153.250000 612.532051 153.250000 614.644231 153.250000 616.756410 153.250000 618.868590 153.250000 620.980769 153.250000 623.092949 153.250000 625.205128 153.250000 627.317308 153.250000 629.429487 153.250000 631.541667 153.250000 633.653846 153.250000 635.766026 153.250000 637.878205 153.250000 639.990385 153.250000 642.102564 153.250000 644.214744 153.250000 646.326923 153.250000"/></g><g class="series serie-6 color-6"><path class="line reactive nofill" d="M12.673077 153.250000 L14.785256 153.250000 16.897436 153.250000 19.009615 153.250000 21.121795 153.250000 23.233974 153.250000 25.346154 153.250000 27.458333 153.250000 29.570513 153.250000 31.682692 153.250000 33.794872 153.250000 35.907051 153.250000 38.019231 153.250000 40.131410 153.250000 42.243590 153.250000 44.355769 153.250000 46.467949 153.250000 48.580128 153.250000 50.692308 153.250000 52.804487 153.250000 54.916667 153.250000 57.028846 153.250000 59.141026 153.250000 61.253205 153.250000 63.365385 153.250000 65.477564 153.250000 67.589744 153.250000 69.701923 153.250000 71.814103 153.250000 73.926282 153.250000 76.038462 153.250000 78.150641 153.250000 80.262821 153.250000 82.375000 153.250000 84.487179 153.250000 86.599359 153.250000 88.711538 153.250000 90.823718 153.250000 92.935897 153.250000 95.048077 153.250000 97.160256 153.250000 99.272436 153.250000 101.384615 153.250000 103.496795 153.250000 105.608974 153.250000 107.721154 153.250000 109.833333 153.250000 111.945513 153.250000 114.057692 153.250000 116.169872 153.250000 118.282051 153.250000 120.394231 153.250000 122.506410 153.250000 124.618590 153.250000 126.730769 153.250000 128.842949 153.250000 130.955128 153.250000 133.067308 153.250000 135.179487 153.250000 137.291667 153.250000 139.403846 153.250000 141.516026 153.250000 143.628205 153.250000 145.740385 153.250000 147.852564 153.250000 149.964744 153.250000 152.076923 153.250000 154.189103 153.250000 156.301282 134.322206 158.413462 134.322206 160.525641 134.322206 162.637821 141.200820 164.750000 141.200820 166.862179 142.061476 168.974359 143.460041 171.086538 143.460041 173.198718 143.460041 175.310897 144.035921 177.423077 144.547814 179.535256 144.547814 181.647436 144.547814 183.759615 144.547814 185.871795 144.035921 187.983974 144.171115 190.096154 149.175220 192.208333 149.175220 194.320513 149.175220 196.432692 149.175220 198.544872 149.175220 200.657051 158.726740 202.769231 158.726740 204.881410 158.726740 206.993590 161.986809 209.105769 161.986809 211.217949 162.957565 213.330128 165.731155 215.442308 163.921491 217.554487 163.921491 219.666667 165.445990 221.778846 162.735770 223.891026 160.526116 226.003205 161.187582 228.115385 159.966415 230.227564 159.822335 232.339744 160.178505 234.451923 153.074751 236.564103 153.101713 238.676282 153.089355 240.788462 152.826865 242.900641 152.826865 245.012821 152.906203 247.125000 152.926426 249.237179 152.944403 251.349359 152.944403 253.461538 152.960487 255.573718 152.960487 257.685897 153.059660 259.798077 153.154703 261.910256 153.154703 264.022436 153.154703 266.134615 153.149409 268.246795 152.999859 270.358974 153.029287 272.471154 152.999859 274.583333 153.115781 276.695513 153.115781 278.807692 153.115781 280.919872 153.093411 283.032051 153.093411 285.144231 153.403995 287.256410 153.403995 289.368590 153.461744 291.480769 153.491993 293.592949 153.532325 295.705128 153.491993 297.817308 153.532325 299.929487 172.922704 302.041667 175.919163 304.153846 175.919163 306.266026 175.919163 308.378205 175.919163 310.490385 187.253744 312.602564 187.253744 314.714744 198.588326 316.826923 198.588326 318.939103 198.588326 321.051282 186.914143 323.163462 186.914143 325.275641 186.914143 327.387821 186.914143 329.500000 186.914143 331.612179 186.914143 333.724359 186.914143 335.836538 186.914143 337.948718 186.914143 340.060897 198.135525 342.173077 198.135525 344.285256 152.570798 346.397436 152.570798 348.509615 152.570798 350.621795 152.570798 352.733974 152.570798 354.846154 152.570798 356.958333 152.570798 359.070513 151.891596 361.182692 151.891596 363.294872 151.891596 365.407051 153.250000 367.519231 153.250000 369.631410 153.250000 371.743590 153.250000 373.855769 153.250000 375.967949 153.250000 378.080128 153.250000 380.192308 153.250000 382.304487 153.250000 384.416667 153.250000 386.528846 153.250000 388.641026 153.250000 390.753205 153.250000 392.865385 153.250000 394.977564 153.250000 397.089744 153.250000 399.201923 153.250000 401.314103 153.250000 403.426282 153.250000 405.538462 153.250000 407.650641 153.250000 409.762821 153.250000 411.875000 153.250000 413.987179 153.250000 416.099359 153.250000 418.211538 153.250000 420.323718 153.250000 422.435897 153.250000 424.548077 153.250000 426.660256 153.250000 428.772436 153.250000 430.884615 153.250000 432.996795 153.250000 435.108974 153.250000 437.221154 153.250000 439.333333 153.250000 441.445513 153.250000 443.557692 153.250000 445.669872 153.250000 447.782051 153.250000 449.894231 153.250000 452.006410 153.250000 454.118590 153.250000 456.230769 153.250000 458.342949 153.250000 460.455128 153.250000 462.567308 153.250000 464.679487 153.250000 466.791667 153.250000 468.903846 153.250000 471.016026 153.250000 473.128205 153.250000 475.240385 153.250000 477.352564 153.250000 479.464744 153.250000 481.576923 153.250000 483.689103 153.250000 485.801282 153.250000 487.913462 153.250000 490.025641 153.250000 492.137821 153.250000 494.250000 153.250000 496.362179 153.250000 498.474359 153.250000 500.586538 153.250000 502.698718 153.250000 504.810897 153.250000 506.923077 153.250000 509.035256 153.250000 511.147436 153.250000 513.259615 153.250000 515.371795 153.250000 517.483974 153.250000 519.596154 153.250000 521.708333 153.250000 523.820513 153.250000 525.932692 153.250000 528.044872 153.250000 530.157051 153.250000 532.269231 153.250000 534.381410 153.250000 536.493590 153.250000 538.605769 153.250000 540.717949 153.250000 542.830128 153.250000 544.942308 153.250000 547.054487 153.250000 549.166667 153.250000 551.278846 153.250000 553.391026 153.250000 555.503205 153.250000 557.615385 153.250000 559.727564 153.250000 561.839744 153.250000 563.951923 153.250000 566.064103 153.250000 568.176282 153.250000 570.288462 153.250000 572.400641 153.250000 574.512821 153.250000 576.625000 153.250000 578.737179 153.250000 580.849359 153.250000 582.961538 153.250000 585.073718 153.250000 587.185897 153.250000 589.298077 153.250000 591.410256 153.250000 593.522436 153.250000 595.634615 153.250000 597.746795 153.250000 599.858974 153.250000 601.971154 153.250000 604.083333 153.250000 606.195513 153.250000 608.307692 153.250000 610.419872 153.250000 612.532051 153.250000 614.644231 153.250000 616.756410 153.250000 618.868590 153.250000 620.980769 153.250000 623.092949 153.250000 625.205128 153.250000 627.317308 153.250000 629.429487 153.250000 631.541667 153.250000 633.653846 153.250000 635.766026 153.250000 637.878205 153.250000 639.990385 153.250000 642.102564 153.250000 644.214744 153.250000 646.326923 153.250000"/></g><g class="series serie-7 color-7"><path class="line reactive nofill" d="M12.673077 153.250000 L14.785256 153.250000 16.897436 153.250000 19.009615 153.250000 21.121795 153.250000 23.233974 153.250000 25.346154 153.250000 27.458333 153.250000 29.570513 153.250000 31.682692 153.250000 33.794872 153.250000 35.907051 153.250000 38.019231 153.250000 40.131410 153.250000 42.243590 153.250000 44.355769 153.250000 46.467949 153.250000 48.580128 153.250000 50.692308 153.250000 52.804487 153.250000 54.916667 153.250000 57.028846 153.250000 59.141026 153.250000 61.253205 153.250000 63.365385 153.250000 65.477564 153.250000 67.589744 153.250000 69.701923 153.250000 71.814103 153.250000 73.926282 153.250000 76.038462 153.250000 78.150641 153.250000 80.262821 153.250000 82.375000 153.250000 84.487179 153.250000 86.599359 153.250000 88.711538 153.250000 90.823718 153.250000 92.935897 153.250000 95.048077 153.250000 97.160256 153.250000 99.272436 153.250000 101.384615 153.250000 103.496795 153.250000 105.608974 153.250000 107.721154 153.250000 109.833333 153.250000 111.945513 153.250000 114.057692 153.250000 116.169872 153.250000 118.282051 153.250000 120.394231 153.250000 122.506410 153.250000 124.618590 153.250000 126.730769 153.250000 128.842949 153.250000 130.955128 153.250000 133.067308 153.250000 135.179487 153.250000 137.291667 150.191106 139.403846 150.191106 141.516026 152.230369 143.628205 152.485277 145.740385 152.638221 147.852564 152.638221 149.964744 152.740184 152.076923 152.740184 154.189103 152.740184 156.301282 152.529116 158.413462 152.529116 160.525641 152.529116 162.637821 152.204419 164.750000 152.204419 166.862179 152.279103 168.974359 152.559591 171.086538 152.559591 173.198718 152.559591 175.310897 152.600204 177.423077 152.771282 179.535256 152.771282 181.647436 152.941221 183.759615 152.941221 185.871795 152.923057 187.983974 152.923057 190.096154 157.927163 192.208333 157.927163 194.320513 157.797574 196.432692 157.797574 198.544872 157.797574 200.657051 158.584463 202.769231 158.584463 204.881410 158.584463 206.993590 162.034241 209.105769 162.034241 211.217949 163.010268 213.330128 165.435200 215.442308 163.662530 217.554487 163.662530 219.666667 165.150035 221.778846 181.500248 223.891026 174.277361 226.003205 176.188939 228.115385 172.659872 230.227564 172.515791 232.339744 174.121274 234.451923 168.285044 236.564103 165.971960 238.676282 167.215709 240.788462 165.866576 242.900641 165.866576 245.012821 172.710704 247.125000 171.463032 249.237179 170.451197 251.349359 170.451197 253.461538 169.545871 255.573718 169.545871 257.685897 168.815775 259.798077 169.740087 261.910256 169.740087 264.022436 169.740087 266.134615 161.207004 268.246795 162.926664 270.358974 161.693853 272.471154 162.819701 274.583333 163.637040 276.695513 163.637040 278.807692 163.637040 280.919872 165.368213 283.032051 165.368213 285.144231 166.794688 287.256410 166.794688 289.368590 153.454475 291.480769 153.733646 293.592949 153.814253 295.705128 153.733646 297.817308 153.814253 299.929487 173.561355 302.041667 176.664256 304.153846 176.664256 306.266026 176.664256 308.378205 176.664256 310.490385 187.547377 312.602564 187.547377 314.714744 248.171594 316.826923 248.171594 318.939103 248.171594 321.051282 224.101594 323.163462 224.101594 325.275641 224.101594 327.387821 224.101594 329.500000 224.101594 331.612179 224.101594 333.724359 224.101594 335.836538 224.101594 337.948718 224.101594 340.060897 247.718792 342.173077 247.718792 344.285256 225.556207 346.397436 225.556207 348.509615 225.556207 350.621795 225.556207 352.733974 225.556207 354.846154 225.556207 356.958333 225.556207 359.070513 151.891596 361.182692 151.891596 363.294872 151.891596 365.407051 153.250000 367.519231 153.250000 369.631410 153.250000 371.743590 153.250000 373.855769 153.250000 375.967949 153.250000 378.080128 153.250000 380.192308 153.250000 382.304487 153.250000 384.416667 153.250000 386.528846 153.250000 388.641026 153.250000 390.753205 153.250000 392.865385 153.250000 394.977564 153.250000 397.089744 153.250000 399.201923 153.250000 401.314103 153.250000 403.426282 153.250000 405.538462 153.250000 407.650641 153.250000 409.762821 153.250000 411.875000 153.250000 413.987179 153.250000 416.099359 153.250000 418.211538 153.250000 420.323718 153.250000 422.435897 153.250000 424.548077 153.250000 426.660256 153.250000 428.772436 153.250000 430.884615 153.250000 432.996795 153.250000 435.108974 153.250000 437.221154 153.250000 439.333333 153.250000 441.445513 153.250000 443.557692 153.250000 445.669872 153.250000 447.782051 153.250000 449.894231 153.250000 452.006410 153.250000 454.118590 153.250000 456.230769 153.250000 458.342949 153.250000 460.455128 153.250000 462.567308 153.250000 464.679487 153.250000 466.791667 153.250000 468.903846 153.250000 471.016026 153.250000 473.128205 153.250000 475.240385 153.250000 477.352564 153.250000 479.464744 153.250000 481.576923 153.250000 483.689103 153.250000 485.801282 153.250000 487.913462 153.250000 490.025641 153.250000 492.137821 153.250000 494.250000 153.250000 496.362179 153.250000 498.474359 153.250000 500.586538 153.250000 502.698718 153.250000 504.810897 153.250000 506.923077 153.250000 509.035256 153.250000 511.147436 153.250000 513.259615 153.250000 515.371795 153.250000 517.483974 153.250000 519.596154 153.250000 521.708333 153.250000 523.820513 153.250000 525.932692 153.250000 528.044872 153.250000 530.157051 153.250000 532.269231 153.250000 534.381410 153.250000 536.493590 153.250000 538.605769 153.250000 540.717949 153.250000 542.830128 153.250000 544.942308 153.250000 547.054487 153.250000 549.166667 153.250000 551.278846 153.250000 553.391026 153.250000 555.503205 153.250000 557.615385 153.250000 559.727564 153.250000 561.839744 153.250000 563.951923 153.250000 566.064103 153.250000 568.176282 153.250000 570.288462 153.250000 572.400641 153.250000 574.512821 153.250000 576.625000 153.250000 578.737179 153.250000 580.849359 153.250000 582.961538 153.250000 585.073718 153.250000 587.185897 153.250000 589.298077 153.250000 591.410256 153.250000 593.522436 153.250000 595.634615 153.250000 597.746795 153.250000 599.858974 153.250000 601.971154 153.250000 604.083333 153.250000 606.195513 153.250000 608.307692 153.250000 610.419872 153.250000 612.532051 153.250000 614.644231 153.250000 616.756410 153.250000 618.868590 153.250000 620.980769 153.250000 623.092949 153.250000 625.205128 153.250000 627.317308 153.250000 629.429487 153.250000 631.541667 153.250000 633.653846 153.250000 635.766026 153.250000 637.878205 153.250000 639.990385 153.250000 642.102564 153.250000 644.214744 153.250000 646.326923 153.250000"/></g></g><g class="titles"><text class="title plot_title" x="400.0" y="28">Mean OE1 for Tempo T ±10.0 BPM</text><text class="title" x="450.5" y="437.5">T (BPM)</text><text class="title" x="0" y="229.25" transform="rotate(-90 0.000000 201.250000)">Mean OE1 (TO)</text></g><g class="plot overlay" transform="translate(121, 48)"><g class="series serie-0 color-0"><g class="dots"><circle class="dot reactive tooltip-trigger" cx="12.673076923076922" cy="153.25" r="2.5"/><desc class="value">0.0000</desc><desc class="x ">12.673076923076922</desc><desc class="y ">153.25</desc><desc class="x_label">0.0</desc></g><g class="dots"><circle class="dot reactive tooltip-trigger" cx="76.03846153846155" cy="153.25" r="2.5"/><desc class="value">0.0000</desc><desc class="x ">76.03846153846155</desc><desc class="y ">153.25</desc><desc class="x_label">30.0</desc></g><g class="dots"><circle class="dot reactive tooltip-trigger" cx="139.40384615384613" cy="67.15512576124638" r="2.5"/><desc class="value">0.5843</desc><desc class="x ">139.40384615384613</desc><desc class="y ">67.15512576124638</desc><desc class="x_label">60.0</desc></g><g class="dots"><circle class="dot reactive tooltip-trigger" cx="202.76923076923075" cy="168.53599757569546" r="2.5"/><desc class="value">-0.1037</desc><desc class="x top">202.76923076923075</desc><desc class="y top">168.53599757569546</desc><desc class="x_label">90.0</desc></g><g class="dots"><circle class="dot reactive tooltip-trigger" cx="266.1346153846154" cy="177.64133422178205" r="2.5"/><desc class="value">-0.1655</desc><desc class="x top">266.1346153846154</desc><desc class="y top">177.64133422178205</desc><desc class="x_label">120.0</desc></g><g class="dots"><circle class="dot reactive tooltip-trigger" cx="329.5" cy="246.106304540442" r="2.5"/><desc class="value">-0.6302</desc><desc class="x top">329.5</desc><desc class="y top">246.106304540442</desc><desc class="x_label">150.0</desc></g><g class="dots"><circle class="dot reactive tooltip-trigger" cx="392.8653846153846" cy="153.25" r="2.5"/><desc class="value">0.0000</desc><desc class="x left">392.8653846153846</desc><desc class="y left">153.25</desc><desc class="x_label">180.0</desc></g><g class="dots"><circle class="dot reactive tooltip-trigger" cx="456.23076923076917" cy="153.25" r="2.5"/><desc class="value">0.0000</desc><desc class="x left">456.23076923076917</desc><desc class="y left">153.25</desc><desc class="x_label">210.0</desc></g><g class="dots"><circle class="dot reactive tooltip-trigger" cx="519.5961538461538" cy="153.25" r="2.5"/><desc class="value">0.0000</desc><desc class="x left">519.5961538461538</desc><desc class="y left">153.25</desc><desc class="x_label">240.0</desc></g><g class="dots"><circle class="dot reactive tooltip-trigger" cx="582.9615384615385" cy="153.25" r="2.5"/><desc class="value">0.0000</desc><desc class="x left">582.9615384615385</desc><desc class="y left">153.25</desc><desc class="x_label">270.0</desc></g><g class="dots"><circle class="dot reactive tooltip-trigger" cx="646.3269230769231" cy="153.25" r="2.5"/><desc class="value">0.0000</desc><desc class="x left">646.3269230769231</desc><desc class="y left">153.25</desc><desc class="x_label">300.0</desc></g></g><g class="series serie-1 color-1"><g class="dots"><circle class="dot reactive tooltip-trigger" cx="12.673076923076922" cy="153.25" r="2.5"/><desc class="value">0.0000</desc><desc class="x ">12.673076923076922</desc><desc class="y ">153.25</desc><desc class="x_label">0.0</desc></g><g class="dots"><circle class="dot reactive tooltip-trigger" cx="76.03846153846155" cy="153.25" r="2.5"/><desc class="value">0.0000</desc><desc class="x ">76.03846153846155</desc><desc class="y ">153.25</desc><desc class="x_label">30.0</desc></g><g class="dots"><circle class="dot reactive tooltip-trigger" cx="139.40384615384613" cy="144.86084547318708" r="2.5"/><desc class="value">0.0569</desc><desc class="x ">139.40384615384613</desc><desc class="y ">144.86084547318708</desc><desc class="x_label">60.0</desc></g><g class="dots"><circle class="dot reactive tooltip-trigger" cx="202.76923076923075" cy="107.27636738099406" r="2.5"/><desc class="value">0.3120</desc><desc class="x ">202.76923076923075</desc><desc class="y ">107.27636738099406</desc><desc class="x_label">90.0</desc></g><g class="dots"><circle class="dot reactive tooltip-trigger" cx="266.1346153846154" cy="149.36282592203145" r="2.5"/><desc class="value">0.0264</desc><desc class="x ">266.1346153846154</desc><desc class="y ">149.36282592203145</desc><desc class="x_label">120.0</desc></g><g class="dots"><circle class="dot reactive tooltip-trigger" cx="329.5" cy="148.23914470267633" r="2.5"/><desc class="value">0.0340</desc><desc class="x ">329.5</desc><desc class="y ">148.23914470267633</desc><desc class="x_label">150.0</desc></g><g class="dots"><circle class="dot reactive tooltip-trigger" cx="392.8653846153846" cy="153.25" r="2.5"/><desc class="value">0.0000</desc><desc class="x left">392.8653846153846</desc><desc class="y left">153.25</desc><desc class="x_label">180.0</desc></g><g class="dots"><circle class="dot reactive tooltip-trigger" cx="456.23076923076917" cy="153.25" r="2.5"/><desc class="value">0.0000</desc><desc class="x left">456.23076923076917</desc><desc class="y left">153.25</desc><desc class="x_label">210.0</desc></g><g class="dots"><circle class="dot reactive tooltip-trigger" cx="519.5961538461538" cy="153.25" r="2.5"/><desc class="value">0.0000</desc><desc class="x left">519.5961538461538</desc><desc class="y left">153.25</desc><desc class="x_label">240.0</desc></g><g class="dots"><circle class="dot reactive tooltip-trigger" cx="582.9615384615385" cy="153.25" r="2.5"/><desc class="value">0.0000</desc><desc class="x left">582.9615384615385</desc><desc class="y left">153.25</desc><desc class="x_label">270.0</desc></g><g class="dots"><circle class="dot reactive tooltip-trigger" cx="646.3269230769231" cy="153.25" r="2.5"/><desc class="value">0.0000</desc><desc class="x left">646.3269230769231</desc><desc class="y left">153.25</desc><desc class="x_label">300.0</desc></g></g><g class="series serie-2 color-2"><g class="dots"><circle class="dot reactive tooltip-trigger" cx="12.673076923076922" cy="153.25" r="2.5"/><desc class="value">0.0000</desc><desc class="x ">12.673076923076922</desc><desc class="y ">153.25</desc><desc class="x_label">0.0</desc></g><g class="dots"><circle class="dot reactive tooltip-trigger" cx="76.03846153846155" cy="153.25" r="2.5"/><desc class="value">0.0000</desc><desc class="x ">76.03846153846155</desc><desc class="y ">153.25</desc><desc class="x_label">30.0</desc></g><g class="dots"><circle class="dot reactive tooltip-trigger" cx="139.40384615384613" cy="152.8292430889846" r="2.5"/><desc class="value">0.0029</desc><desc class="x ">139.40384615384613</desc><desc class="y ">152.8292430889846</desc><desc class="x_label">60.0</desc></g><g class="dots"><circle class="dot reactive tooltip-trigger" cx="202.76923076923075" cy="158.56725473050506" r="2.5"/><desc class="value">-0.0361</desc><desc class="x top">202.76923076923075</desc><desc class="y top">158.56725473050506</desc><desc class="x_label">90.0</desc></g><g class="dots"><circle class="dot reactive tooltip-trigger" cx="266.1346153846154" cy="153.29480726433337" r="2.5"/><desc class="value">-0.0003</desc><desc class="x top">266.1346153846154</desc><desc class="y top">153.29480726433337</desc><desc class="x_label">120.0</desc></g><g class="dots"><circle class="dot reactive tooltip-trigger" cx="329.5" cy="299.1680902129678" r="2.5"/><desc class="value">-0.9902</desc><desc class="x top">329.5</desc><desc class="y top">299.1680902129678</desc><desc class="x_label">150.0</desc></g><g class="dots"><circle class="dot reactive tooltip-trigger" cx="392.8653846153846" cy="153.25" r="2.5"/><desc class="value">0.0000</desc><desc class="x left">392.8653846153846</desc><desc class="y left">153.25</desc><desc class="x_label">180.0</desc></g><g class="dots"><circle class="dot reactive tooltip-trigger" cx="456.23076923076917" cy="153.25" r="2.5"/><desc class="value">0.0000</desc><desc class="x left">456.23076923076917</desc><desc class="y left">153.25</desc><desc class="x_label">210.0</desc></g><g class="dots"><circle class="dot reactive tooltip-trigger" cx="519.5961538461538" cy="153.25" r="2.5"/><desc class="value">0.0000</desc><desc class="x left">519.5961538461538</desc><desc class="y left">153.25</desc><desc class="x_label">240.0</desc></g><g class="dots"><circle class="dot reactive tooltip-trigger" cx="582.9615384615385" cy="153.25" r="2.5"/><desc class="value">0.0000</desc><desc class="x left">582.9615384615385</desc><desc class="y left">153.25</desc><desc class="x_label">270.0</desc></g><g class="dots"><circle class="dot reactive tooltip-trigger" cx="646.3269230769231" cy="153.25" r="2.5"/><desc class="value">0.0000</desc><desc class="x left">646.3269230769231</desc><desc class="y left">153.25</desc><desc class="x_label">300.0</desc></g></g><g class="series serie-3 color-3"><g class="dots"><circle class="dot reactive tooltip-trigger" cx="12.673076923076922" cy="153.25" r="2.5"/><desc class="value">0.0000</desc><desc class="x ">12.673076923076922</desc><desc class="y ">153.25</desc><desc class="x_label">0.0</desc></g><g class="dots"><circle class="dot reactive tooltip-trigger" cx="76.03846153846155" cy="153.25" r="2.5"/><desc class="value">0.0000</desc><desc class="x ">76.03846153846155</desc><desc class="y ">153.25</desc><desc class="x_label">30.0</desc></g><g class="dots"><circle class="dot reactive tooltip-trigger" cx="139.40384615384613" cy="149.3983037934054" r="2.5"/><desc class="value">0.0261</desc><desc class="x ">139.40384615384613</desc><desc class="y ">149.3983037934054</desc><desc class="x_label">60.0</desc></g><g class="dots"><circle class="dot reactive tooltip-trigger" cx="202.76923076923075" cy="150.41100666371824" r="2.5"/><desc class="value">0.0193</desc><desc class="x ">202.76923076923075</desc><desc class="y ">150.41100666371824</desc><desc class="x_label">90.0</desc></g><g class="dots"><circle class="dot reactive tooltip-trigger" cx="266.1346153846154" cy="162.6671441673778" r="2.5"/><desc class="value">-0.0639</desc><desc class="x top">266.1346153846154</desc><desc class="y top">162.6671441673778</desc><desc class="x_label">120.0</desc></g><g class="dots"><circle class="dot reactive tooltip-trigger" cx="329.5" cy="249.69065830709627" r="2.5"/><desc class="value">-0.6545</desc><desc class="x top">329.5</desc><desc class="y top">249.69065830709627</desc><desc class="x_label">150.0</desc></g><g class="dots"><circle class="dot reactive tooltip-trigger" cx="392.8653846153846" cy="153.25" r="2.5"/><desc class="value">0.0000</desc><desc class="x left">392.8653846153846</desc><desc class="y left">153.25</desc><desc class="x_label">180.0</desc></g><g class="dots"><circle class="dot reactive tooltip-trigger" cx="456.23076923076917" cy="153.25" r="2.5"/><desc class="value">0.0000</desc><desc class="x left">456.23076923076917</desc><desc class="y left">153.25</desc><desc class="x_label">210.0</desc></g><g class="dots"><circle class="dot reactive tooltip-trigger" cx="519.5961538461538" cy="153.25" r="2.5"/><desc class="value">0.0000</desc><desc class="x left">519.5961538461538</desc><desc class="y left">153.25</desc><desc class="x_label">240.0</desc></g><g class="dots"><circle class="dot reactive tooltip-trigger" cx="582.9615384615385" cy="153.25" r="2.5"/><desc class="value">0.0000</desc><desc class="x left">582.9615384615385</desc><desc class="y left">153.25</desc><desc class="x_label">270.0</desc></g><g class="dots"><circle class="dot reactive tooltip-trigger" cx="646.3269230769231" cy="153.25" r="2.5"/><desc class="value">0.0000</desc><desc class="x left">646.3269230769231</desc><desc class="y left">153.25</desc><desc class="x_label">300.0</desc></g></g><g class="series serie-4 color-4"><g class="dots"><circle class="dot reactive tooltip-trigger" cx="12.673076923076922" cy="153.25" r="2.5"/><desc class="value">0.0000</desc><desc class="x ">12.673076923076922</desc><desc class="y ">153.25</desc><desc class="x_label">0.0</desc></g><g class="dots"><circle class="dot reactive tooltip-trigger" cx="76.03846153846155" cy="153.25" r="2.5"/><desc class="value">0.0000</desc><desc class="x ">76.03846153846155</desc><desc class="y ">153.25</desc><desc class="x_label">30.0</desc></g><g class="dots"><circle class="dot reactive tooltip-trigger" cx="139.40384615384613" cy="152.28091257614383" r="2.5"/><desc class="value">0.0066</desc><desc class="x ">139.40384615384613</desc><desc class="y ">152.28091257614383</desc><desc class="x_label">60.0</desc></g><g class="dots"><circle class="dot reactive tooltip-trigger" cx="202.76923076923075" cy="187.50878581544316" r="2.5"/><desc class="value">-0.2325</desc><desc class="x top">202.76923076923075</desc><desc class="y top">187.50878581544316</desc><desc class="x_label">90.0</desc></g><g class="dots"><circle class="dot reactive tooltip-trigger" cx="266.1346153846154" cy="161.57150395677118" r="2.5"/><desc class="value">-0.0565</desc><desc class="x top">266.1346153846154</desc><desc class="y top">161.57150395677118</desc><desc class="x_label">120.0</desc></g><g class="dots"><circle class="dot reactive tooltip-trigger" cx="329.5" cy="225.13759409761008" r="2.5"/><desc class="value">-0.4879</desc><desc class="x top">329.5</desc><desc class="y top">225.13759409761008</desc><desc class="x_label">150.0</desc></g><g class="dots"><circle class="dot reactive tooltip-trigger" cx="392.8653846153846" cy="153.25" r="2.5"/><desc class="value">0.0000</desc><desc class="x left">392.8653846153846</desc><desc class="y left">153.25</desc><desc class="x_label">180.0</desc></g><g class="dots"><circle class="dot reactive tooltip-trigger" cx="456.23076923076917" cy="153.25" r="2.5"/><desc class="value">0.0000</desc><desc class="x left">456.23076923076917</desc><desc class="y left">153.25</desc><desc class="x_label">210.0</desc></g><g class="dots"><circle class="dot reactive tooltip-trigger" cx="519.5961538461538" cy="153.25" r="2.5"/><desc class="value">0.0000</desc><desc class="x left">519.5961538461538</desc><desc class="y left">153.25</desc><desc class="x_label">240.0</desc></g><g class="dots"><circle class="dot reactive tooltip-trigger" cx="582.9615384615385" cy="153.25" r="2.5"/><desc class="value">0.0000</desc><desc class="x left">582.9615384615385</desc><desc class="y left">153.25</desc><desc class="x_label">270.0</desc></g><g class="dots"><circle class="dot reactive tooltip-trigger" cx="646.3269230769231" cy="153.25" r="2.5"/><desc class="value">0.0000</desc><desc class="x left">646.3269230769231</desc><desc class="y left">153.25</desc><desc class="x_label">300.0</desc></g></g><g class="series serie-5 color-5"><g class="dots"><circle class="dot reactive tooltip-trigger" cx="12.673076923076922" cy="153.25" r="2.5"/><desc class="value">0.0000</desc><desc class="x ">12.673076923076922</desc><desc class="y ">153.25</desc><desc class="x_label">0.0</desc></g><g class="dots"><circle class="dot reactive tooltip-trigger" cx="76.03846153846155" cy="153.25" r="2.5"/><desc class="value">0.0000</desc><desc class="x ">76.03846153846155</desc><desc class="y ">153.25</desc><desc class="x_label">30.0</desc></g><g class="dots"><circle class="dot reactive tooltip-trigger" cx="139.40384615384613" cy="152.28091257614383" r="2.5"/><desc class="value">0.0066</desc><desc class="x ">139.40384615384613</desc><desc class="y ">152.28091257614383</desc><desc class="x_label">60.0</desc></g><g class="dots"><circle class="dot reactive tooltip-trigger" cx="202.76923076923075" cy="197.33250376416112" r="2.5"/><desc class="value">-0.2992</desc><desc class="x top">202.76923076923075</desc><desc class="y top">197.33250376416112</desc><desc class="x_label">90.0</desc></g><g class="dots"><circle class="dot reactive tooltip-trigger" cx="266.1346153846154" cy="161.57150395677118" r="2.5"/><desc class="value">-0.0565</desc><desc class="x top">266.1346153846154</desc><desc class="y top">161.57150395677118</desc><desc class="x_label">120.0</desc></g><g class="dots"><circle class="dot reactive tooltip-trigger" cx="329.5" cy="225.13759409761008" r="2.5"/><desc class="value">-0.4879</desc><desc class="x top">329.5</desc><desc class="y top">225.13759409761008</desc><desc class="x_label">150.0</desc></g><g class="dots"><circle class="dot reactive tooltip-trigger" cx="392.8653846153846" cy="153.25" r="2.5"/><desc class="value">0.0000</desc><desc class="x left">392.8653846153846</desc><desc class="y left">153.25</desc><desc class="x_label">180.0</desc></g><g class="dots"><circle class="dot reactive tooltip-trigger" cx="456.23076923076917" cy="153.25" r="2.5"/><desc class="value">0.0000</desc><desc class="x left">456.23076923076917</desc><desc class="y left">153.25</desc><desc class="x_label">210.0</desc></g><g class="dots"><circle class="dot reactive tooltip-trigger" cx="519.5961538461538" cy="153.25" r="2.5"/><desc class="value">0.0000</desc><desc class="x left">519.5961538461538</desc><desc class="y left">153.25</desc><desc class="x_label">240.0</desc></g><g class="dots"><circle class="dot reactive tooltip-trigger" cx="582.9615384615385" cy="153.25" r="2.5"/><desc class="value">0.0000</desc><desc class="x left">582.9615384615385</desc><desc class="y left">153.25</desc><desc class="x_label">270.0</desc></g><g class="dots"><circle class="dot reactive tooltip-trigger" cx="646.3269230769231" cy="153.25" r="2.5"/><desc class="value">0.0000</desc><desc class="x left">646.3269230769231</desc><desc class="y left">153.25</desc><desc class="x_label">300.0</desc></g></g><g class="series serie-6 color-6"><g class="dots"><circle class="dot reactive tooltip-trigger" cx="12.673076923076922" cy="153.25" r="2.5"/><desc class="value">0.0000</desc><desc class="x ">12.673076923076922</desc><desc class="y ">153.25</desc><desc class="x_label">0.0</desc></g><g class="dots"><circle class="dot reactive tooltip-trigger" cx="76.03846153846155" cy="153.25" r="2.5"/><desc class="value">0.0000</desc><desc class="x ">76.03846153846155</desc><desc class="y ">153.25</desc><desc class="x_label">30.0</desc></g><g class="dots"><circle class="dot reactive tooltip-trigger" cx="139.40384615384613" cy="153.25" r="2.5"/><desc class="value">0.0000</desc><desc class="x ">139.40384615384613</desc><desc class="y ">153.25</desc><desc class="x_label">60.0</desc></g><g class="dots"><circle class="dot reactive tooltip-trigger" cx="202.76923076923075" cy="158.7267402402884" r="2.5"/><desc class="value">-0.0372</desc><desc class="x top">202.76923076923075</desc><desc class="y top">158.7267402402884</desc><desc class="x_label">90.0</desc></g><g class="dots"><circle class="dot reactive tooltip-trigger" cx="266.1346153846154" cy="153.14940864500883" r="2.5"/><desc class="value">0.0007</desc><desc class="x ">266.1346153846154</desc><desc class="y ">153.14940864500883</desc><desc class="x_label">120.0</desc></g><g class="dots"><circle class="dot reactive tooltip-trigger" cx="329.5" cy="186.91414340381414" r="2.5"/><desc class="value">-0.2285</desc><desc class="x top">329.5</desc><desc class="y top">186.91414340381414</desc><desc class="x_label">150.0</desc></g><g class="dots"><circle class="dot reactive tooltip-trigger" cx="392.8653846153846" cy="153.25" r="2.5"/><desc class="value">0.0000</desc><desc class="x left">392.8653846153846</desc><desc class="y left">153.25</desc><desc class="x_label">180.0</desc></g><g class="dots"><circle class="dot reactive tooltip-trigger" cx="456.23076923076917" cy="153.25" r="2.5"/><desc class="value">0.0000</desc><desc class="x left">456.23076923076917</desc><desc class="y left">153.25</desc><desc class="x_label">210.0</desc></g><g class="dots"><circle class="dot reactive tooltip-trigger" cx="519.5961538461538" cy="153.25" r="2.5"/><desc class="value">0.0000</desc><desc class="x left">519.5961538461538</desc><desc class="y left">153.25</desc><desc class="x_label">240.0</desc></g><g class="dots"><circle class="dot reactive tooltip-trigger" cx="582.9615384615385" cy="153.25" r="2.5"/><desc class="value">0.0000</desc><desc class="x left">582.9615384615385</desc><desc class="y left">153.25</desc><desc class="x_label">270.0</desc></g><g class="dots"><circle class="dot reactive tooltip-trigger" cx="646.3269230769231" cy="153.25" r="2.5"/><desc class="value">0.0000</desc><desc class="x left">646.3269230769231</desc><desc class="y left">153.25</desc><desc class="x_label">300.0</desc></g></g><g class="series serie-7 color-7"><g class="dots"><circle class="dot reactive tooltip-trigger" cx="12.673076923076922" cy="153.25" r="2.5"/><desc class="value">0.0000</desc><desc class="x ">12.673076923076922</desc><desc class="y ">153.25</desc><desc class="x_label">0.0</desc></g><g class="dots"><circle class="dot reactive tooltip-trigger" cx="76.03846153846155" cy="153.25" r="2.5"/><desc class="value">0.0000</desc><desc class="x ">76.03846153846155</desc><desc class="y ">153.25</desc><desc class="x_label">30.0</desc></g><g class="dots"><circle class="dot reactive tooltip-trigger" cx="139.40384615384613" cy="150.19110639849836" r="2.5"/><desc class="value">0.0208</desc><desc class="x ">139.40384615384613</desc><desc class="y ">150.19110639849836</desc><desc class="x_label">60.0</desc></g><g class="dots"><circle class="dot reactive tooltip-trigger" cx="202.76923076923075" cy="158.58446250774966" r="2.5"/><desc class="value">-0.0362</desc><desc class="x top">202.76923076923075</desc><desc class="y top">158.58446250774966</desc><desc class="x_label">90.0</desc></g><g class="dots"><circle class="dot reactive tooltip-trigger" cx="266.1346153846154" cy="161.2070036092898" r="2.5"/><desc class="value">-0.0540</desc><desc class="x top">266.1346153846154</desc><desc class="y top">161.2070036092898</desc><desc class="x_label">120.0</desc></g><g class="dots"><circle class="dot reactive tooltip-trigger" cx="329.5" cy="224.10159423492456" r="2.5"/><desc class="value">-0.4808</desc><desc class="x top">329.5</desc><desc class="y top">224.10159423492456</desc><desc class="x_label">150.0</desc></g><g class="dots"><circle class="dot reactive tooltip-trigger" cx="392.8653846153846" cy="153.25" r="2.5"/><desc class="value">0.0000</desc><desc class="x left">392.8653846153846</desc><desc class="y left">153.25</desc><desc class="x_label">180.0</desc></g><g class="dots"><circle class="dot reactive tooltip-trigger" cx="456.23076923076917" cy="153.25" r="2.5"/><desc class="value">0.0000</desc><desc class="x left">456.23076923076917</desc><desc class="y left">153.25</desc><desc class="x_label">210.0</desc></g><g class="dots"><circle class="dot reactive tooltip-trigger" cx="519.5961538461538" cy="153.25" r="2.5"/><desc class="value">0.0000</desc><desc class="x left">519.5961538461538</desc><desc class="y left">153.25</desc><desc class="x_label">240.0</desc></g><g class="dots"><circle class="dot reactive tooltip-trigger" cx="582.9615384615385" cy="153.25" r="2.5"/><desc class="value">0.0000</desc><desc class="x left">582.9615384615385</desc><desc class="y left">153.25</desc><desc class="x_label">270.0</desc></g><g class="dots"><circle class="dot reactive tooltip-trigger" cx="646.3269230769231" cy="153.25" r="2.5"/><desc class="value">0.0000</desc><desc class="x left">646.3269230769231</desc><desc class="y left">153.25</desc><desc class="x_label">300.0</desc></g></g></g><g class="plot text-overlay" transform="translate(121, 48)"><g class="series serie-0 color-0"/><g class="series serie-1 color-1"/><g class="series serie-2 color-2"/><g class="series serie-3 color-3"/><g class="series serie-4 color-4"/><g class="series serie-5 color-5"/><g class="series serie-6 color-6"/><g class="series serie-7 color-7"/></g><g class="plot tooltip-overlay" transform="translate(121, 48)"><g class="tooltip" style="opacity: 0" transform="translate(0 0)"><rect class="tooltip-box" height="0" rx="0" ry="0" width="0"/><g class="text"/></g></g><g class="legends" transform="translate(131, 457)"><g class="legend reactive activate-serie" id="activate-serie-0"><rect class="color-0 reactive" height="12" width="12" x="0.0" y="1.5"/><text x="17.0" y="12.0">boeck2015/tempodetector2016_default</text></g><g class="legend reactive activate-serie" id="activate-serie-1"><rect class="color-1 reactive" height="12" width="12" x="329.5" y="1.5"/><text x="346.5" y="12.0">davies2009/mirex_qm_tempotracker</text></g><g class="legend reactive activate-serie" id="activate-serie-2"><rect class="color-2 reactive" height="12" width="12" x="0.0" y="24.0"/><text x="17.0" y="34.5">percival2014/stem</text></g><g class="legend reactive activate-serie" id="activate-serie-3"><rect class="color-3 reactive" height="12" width="12" x="329.5" y="24.0"/><text x="346.5" y="34.5">schreiber2014/default</text></g><g class="legend reactive activate-serie" id="activate-serie-4"><rect class="color-4 reactive" height="12" width="12" x="0.0" y="46.5"/><text x="17.0" y="57.0">schreiber2017/ismir2017</text></g><g class="legend reactive activate-serie" id="activate-serie-5"><rect class="color-5 reactive" height="12" width="12" x="329.5" y="46.5"/><text x="346.5" y="57.0">schreiber2017/mirex2017</text></g><g class="legend reactive activate-serie" id="activate-serie-6"><rect class="color-6 reactive" height="12" width="12" x="0.0" y="69.0"/><text x="17.0" y="79.5">schreiber2018/cnn</text></g><g class="legend reactive activate-serie" id="activate-serie-7"><rect class="color-7 reactive" height="12" width="12" x="329.5" y="69.0"/><text x="346.5" y="79.5">schreiber2018/fcn</text></g></g></g></svg>