<?xml version='1.0' encoding='utf-8'?>
<svg xmlns:xlink="http://www.w3.org/1999/xlink" xmlns="http://www.w3.org/2000/svg" id="chart-91bc5f2d-1ac9-437b-a674-005d7e730282" class="pygal-chart" viewBox="0 0 800 600"><!--Generated with pygal 2.4.0 (lxml) ©Kozea 2012-2016 on 2019-10-13--><!--http://pygal.org--><!--http://github.com/Kozea/pygal--><defs><style type="text/css">#chart-91bc5f2d-1ac9-437b-a674-005d7e730282{-webkit-user-select:none;-webkit-font-smoothing:antialiased;font-family:Helvetica,Arial,sans-serif}#chart-91bc5f2d-1ac9-437b-a674-005d7e730282 .title{font-family:Helvetica,Arial,sans-serif;font-size:18px}#chart-91bc5f2d-1ac9-437b-a674-005d7e730282 .legends .legend text{font-family:Helvetica,Arial,sans-serif;font-size:15px}#chart-91bc5f2d-1ac9-437b-a674-005d7e730282 .axis text{font-family:Helvetica,Arial,sans-serif;font-size:15px}#chart-91bc5f2d-1ac9-437b-a674-005d7e730282 .axis text.major{font-family:Helvetica,Arial,sans-serif;font-size:15px}#chart-91bc5f2d-1ac9-437b-a674-005d7e730282 .text-overlay text.value{font-family:Helvetica,Arial,sans-serif;font-size:15px}#chart-91bc5f2d-1ac9-437b-a674-005d7e730282 .text-overlay text.label{font-family:Helvetica,Arial,sans-serif;font-size:15px}#chart-91bc5f2d-1ac9-437b-a674-005d7e730282 .tooltip{font-family:Helvetica,Arial,sans-serif;font-size:14px}#chart-91bc5f2d-1ac9-437b-a674-005d7e730282 text.no_data{font-family:Helvetica,Arial,sans-serif;font-size:64px}
#chart-91bc5f2d-1ac9-437b-a674-005d7e730282{background-color:transparent}#chart-91bc5f2d-1ac9-437b-a674-005d7e730282 path,#chart-91bc5f2d-1ac9-437b-a674-005d7e730282 line,#chart-91bc5f2d-1ac9-437b-a674-005d7e730282 rect,#chart-91bc5f2d-1ac9-437b-a674-005d7e730282 circle{-webkit-transition:150ms;-moz-transition:150ms;transition:150ms}#chart-91bc5f2d-1ac9-437b-a674-005d7e730282 .graph &gt; .background{fill:transparent}#chart-91bc5f2d-1ac9-437b-a674-005d7e730282 .plot &gt; .background{fill:white}#chart-91bc5f2d-1ac9-437b-a674-005d7e730282 .graph{fill:rgba(0,0,0,.87)}#chart-91bc5f2d-1ac9-437b-a674-005d7e730282 text.no_data{fill:rgba(0,0,0,1)}#chart-91bc5f2d-1ac9-437b-a674-005d7e730282 .title{fill:rgba(0,0,0,1)}#chart-91bc5f2d-1ac9-437b-a674-005d7e730282 .legends .legend text{fill:rgba(0,0,0,.87)}#chart-91bc5f2d-1ac9-437b-a674-005d7e730282 .legends .legend:hover text{fill:rgba(0,0,0,1)}#chart-91bc5f2d-1ac9-437b-a674-005d7e730282 .axis .line{stroke:rgba(0,0,0,1)}#chart-91bc5f2d-1ac9-437b-a674-005d7e730282 .axis .guide.line{stroke:rgba(0,0,0,.54)}#chart-91bc5f2d-1ac9-437b-a674-005d7e730282 .axis .major.line{stroke:rgba(0,0,0,.87)}#chart-91bc5f2d-1ac9-437b-a674-005d7e730282 .axis text.major{fill:rgba(0,0,0,1)}#chart-91bc5f2d-1ac9-437b-a674-005d7e730282 .axis.y .guides:hover .guide.line,#chart-91bc5f2d-1ac9-437b-a674-005d7e730282 .line-graph .axis.x .guides:hover .guide.line,#chart-91bc5f2d-1ac9-437b-a674-005d7e730282 .stackedline-graph .axis.x .guides:hover .guide.line,#chart-91bc5f2d-1ac9-437b-a674-005d7e730282 .xy-graph .axis.x .guides:hover .guide.line{stroke:rgba(0,0,0,1)}#chart-91bc5f2d-1ac9-437b-a674-005d7e730282 .axis .guides:hover text{fill:rgba(0,0,0,1)}#chart-91bc5f2d-1ac9-437b-a674-005d7e730282 .reactive{fill-opacity:.7;stroke-opacity:.8}#chart-91bc5f2d-1ac9-437b-a674-005d7e730282 .ci{stroke:rgba(0,0,0,.87)}#chart-91bc5f2d-1ac9-437b-a674-005d7e730282 .reactive.active,#chart-91bc5f2d-1ac9-437b-a674-005d7e730282 .active .reactive{fill-opacity:.8;stroke-opacity:.9;stroke-width:4}#chart-91bc5f2d-1ac9-437b-a674-005d7e730282 .ci .reactive.active{stroke-width:1.5}#chart-91bc5f2d-1ac9-437b-a674-005d7e730282 .series text{fill:rgba(0,0,0,1)}#chart-91bc5f2d-1ac9-437b-a674-005d7e730282 .tooltip rect{fill:white;stroke:rgba(0,0,0,1);-webkit-transition:opacity 150ms;-moz-transition:opacity 150ms;transition:opacity 150ms}#chart-91bc5f2d-1ac9-437b-a674-005d7e730282 .tooltip .label{fill:rgba(0,0,0,.87)}#chart-91bc5f2d-1ac9-437b-a674-005d7e730282 .tooltip .label{fill:rgba(0,0,0,.87)}#chart-91bc5f2d-1ac9-437b-a674-005d7e730282 .tooltip .legend{font-size:.8em;fill:rgba(0,0,0,.54)}#chart-91bc5f2d-1ac9-437b-a674-005d7e730282 .tooltip .x_label{font-size:.6em;fill:rgba(0,0,0,1)}#chart-91bc5f2d-1ac9-437b-a674-005d7e730282 .tooltip .xlink{font-size:.5em;text-decoration:underline}#chart-91bc5f2d-1ac9-437b-a674-005d7e730282 .tooltip .value{font-size:1.5em}#chart-91bc5f2d-1ac9-437b-a674-005d7e730282 .bound{font-size:.5em}#chart-91bc5f2d-1ac9-437b-a674-005d7e730282 .max-value{font-size:.75em;fill:rgba(0,0,0,.54)}#chart-91bc5f2d-1ac9-437b-a674-005d7e730282 .map-element{fill:white;stroke:rgba(0,0,0,.54) !important}#chart-91bc5f2d-1ac9-437b-a674-005d7e730282 .map-element .reactive{fill-opacity:inherit;stroke-opacity:inherit}#chart-91bc5f2d-1ac9-437b-a674-005d7e730282 .color-0,#chart-91bc5f2d-1ac9-437b-a674-005d7e730282 .color-0 a:visited{stroke:#F44336;fill:#F44336}#chart-91bc5f2d-1ac9-437b-a674-005d7e730282 .color-1,#chart-91bc5f2d-1ac9-437b-a674-005d7e730282 .color-1 a:visited{stroke:#3F51B5;fill:#3F51B5}#chart-91bc5f2d-1ac9-437b-a674-005d7e730282 .color-2,#chart-91bc5f2d-1ac9-437b-a674-005d7e730282 .color-2 a:visited{stroke:#009688;fill:#009688}#chart-91bc5f2d-1ac9-437b-a674-005d7e730282 .color-3,#chart-91bc5f2d-1ac9-437b-a674-005d7e730282 .color-3 a:visited{stroke:#FFC107;fill:#FFC107}#chart-91bc5f2d-1ac9-437b-a674-005d7e730282 .color-4,#chart-91bc5f2d-1ac9-437b-a674-005d7e730282 .color-4 a:visited{stroke:#FF5722;fill:#FF5722}#chart-91bc5f2d-1ac9-437b-a674-005d7e730282 .color-5,#chart-91bc5f2d-1ac9-437b-a674-005d7e730282 .color-5 a:visited{stroke:#9C27B0;fill:#9C27B0}#chart-91bc5f2d-1ac9-437b-a674-005d7e730282 .color-6,#chart-91bc5f2d-1ac9-437b-a674-005d7e730282 .color-6 a:visited{stroke:#03A9F4;fill:#03A9F4}#chart-91bc5f2d-1ac9-437b-a674-005d7e730282 .color-7,#chart-91bc5f2d-1ac9-437b-a674-005d7e730282 .color-7 a:visited{stroke:#8BC34A;fill:#8BC34A}#chart-91bc5f2d-1ac9-437b-a674-005d7e730282 .text-overlay .color-0 text{fill:black}#chart-91bc5f2d-1ac9-437b-a674-005d7e730282 .text-overlay .color-1 text{fill:black}#chart-91bc5f2d-1ac9-437b-a674-005d7e730282 .text-overlay .color-2 text{fill:black}#chart-91bc5f2d-1ac9-437b-a674-005d7e730282 .text-overlay .color-3 text{fill:black}#chart-91bc5f2d-1ac9-437b-a674-005d7e730282 .text-overlay .color-4 text{fill:black}#chart-91bc5f2d-1ac9-437b-a674-005d7e730282 .text-overlay .color-5 text{fill:black}#chart-91bc5f2d-1ac9-437b-a674-005d7e730282 .text-overlay .color-6 text{fill:black}#chart-91bc5f2d-1ac9-437b-a674-005d7e730282 .text-overlay .color-7 text{fill:black}
#chart-91bc5f2d-1ac9-437b-a674-005d7e730282 text.no_data{text-anchor:middle}#chart-91bc5f2d-1ac9-437b-a674-005d7e730282 .guide.line{fill:none}#chart-91bc5f2d-1ac9-437b-a674-005d7e730282 .centered{text-anchor:middle}#chart-91bc5f2d-1ac9-437b-a674-005d7e730282 .title{text-anchor:middle}#chart-91bc5f2d-1ac9-437b-a674-005d7e730282 .legends .legend text{fill-opacity:1}#chart-91bc5f2d-1ac9-437b-a674-005d7e730282 .axis.x text{text-anchor:middle}#chart-91bc5f2d-1ac9-437b-a674-005d7e730282 .axis.x:not(.web) text[transform]{text-anchor:start}#chart-91bc5f2d-1ac9-437b-a674-005d7e730282 .axis.x:not(.web) text[transform].backwards{text-anchor:end}#chart-91bc5f2d-1ac9-437b-a674-005d7e730282 .axis.y text{text-anchor:end}#chart-91bc5f2d-1ac9-437b-a674-005d7e730282 .axis.y text[transform].backwards{text-anchor:start}#chart-91bc5f2d-1ac9-437b-a674-005d7e730282 .axis.y2 text{text-anchor:start}#chart-91bc5f2d-1ac9-437b-a674-005d7e730282 .axis.y2 text[transform].backwards{text-anchor:end}#chart-91bc5f2d-1ac9-437b-a674-005d7e730282 .axis .guide.line{stroke-dasharray:1}#chart-91bc5f2d-1ac9-437b-a674-005d7e730282 .axis .major.guide.line{stroke-dasharray:1}#chart-91bc5f2d-1ac9-437b-a674-005d7e730282 .horizontal .axis.y .guide.line,#chart-91bc5f2d-1ac9-437b-a674-005d7e730282 .horizontal .axis.y2 .guide.line,#chart-91bc5f2d-1ac9-437b-a674-005d7e730282 .vertical .axis.x .guide.line{opacity:0}#chart-91bc5f2d-1ac9-437b-a674-005d7e730282 .horizontal .axis.always_show .guide.line,#chart-91bc5f2d-1ac9-437b-a674-005d7e730282 .vertical .axis.always_show .guide.line{opacity:1 !important}#chart-91bc5f2d-1ac9-437b-a674-005d7e730282 .axis.y .guides:hover .guide.line,#chart-91bc5f2d-1ac9-437b-a674-005d7e730282 .axis.y2 .guides:hover .guide.line,#chart-91bc5f2d-1ac9-437b-a674-005d7e730282 .axis.x .guides:hover .guide.line{opacity:1}#chart-91bc5f2d-1ac9-437b-a674-005d7e730282 .axis .guides:hover text{opacity:1}#chart-91bc5f2d-1ac9-437b-a674-005d7e730282 .nofill{fill:none}#chart-91bc5f2d-1ac9-437b-a674-005d7e730282 .subtle-fill{fill-opacity:.2}#chart-91bc5f2d-1ac9-437b-a674-005d7e730282 .dot{stroke-width:1px;fill-opacity:1}#chart-91bc5f2d-1ac9-437b-a674-005d7e730282 .dot.active{stroke-width:5px}#chart-91bc5f2d-1ac9-437b-a674-005d7e730282 .dot.negative{fill:transparent}#chart-91bc5f2d-1ac9-437b-a674-005d7e730282 text,#chart-91bc5f2d-1ac9-437b-a674-005d7e730282 tspan{stroke:none !important}#chart-91bc5f2d-1ac9-437b-a674-005d7e730282 .series text.active{opacity:1}#chart-91bc5f2d-1ac9-437b-a674-005d7e730282 .tooltip rect{fill-opacity:.95;stroke-width:.5}#chart-91bc5f2d-1ac9-437b-a674-005d7e730282 .tooltip text{fill-opacity:1}#chart-91bc5f2d-1ac9-437b-a674-005d7e730282 .showable{visibility:hidden}#chart-91bc5f2d-1ac9-437b-a674-005d7e730282 .showable.shown{visibility:visible}#chart-91bc5f2d-1ac9-437b-a674-005d7e730282 .gauge-background{fill:rgba(229,229,229,1);stroke:none}#chart-91bc5f2d-1ac9-437b-a674-005d7e730282 .bg-lines{stroke:transparent;stroke-width:2px}</style><script type="text/javascript">window.pygal = window.pygal || {};window.pygal.config = window.pygal.config || {};window.pygal.config['91bc5f2d-1ac9-437b-a674-005d7e730282'] = {"allow_interruptions": false, "box_mode": "extremes", "classes": ["pygal-chart"], "css": ["file://style.css", "file://graph.css"], "defs": [], "disable_xml_declaration": false, "dots_size": 2.5, "dynamic_print_values": false, "explicit_size": false, "fill": false, "force_uri_protocol": "https", "formatter": null, "half_pie": false, "height": 600, "include_x_axis": false, "inner_radius": 0, "interpolate": null, "interpolation_parameters": {}, "interpolation_precision": 250, "inverse_y_axis": false, "js": ["//kozea.github.io/pygal.js/2.0.x/pygal-tooltips.min.js"], "legend_at_bottom": true, "legend_at_bottom_columns": 2, "legend_box_size": 12, "logarithmic": false, "margin": 20, "margin_bottom": 70, "margin_left": null, "margin_right": null, "margin_top": null, "max_scale": 16, "min_scale": 4, "missing_value_fill_truncation": "x", "no_data_text": "No data", "no_prefix": false, "order_min": null, "pretty_print": false, "print_labels": false, "print_values": false, "print_values_position": "center", "print_zeroes": true, "range": [0.0, 100.0], "rounded_bars": null, "secondary_range": null, "show_dots": true, "show_legend": true, "show_minor_x_labels": false, "show_minor_y_labels": true, "show_only_major_dots": true, "show_x_guides": true, "show_x_labels": true, "show_y_guides": true, "show_y_labels": true, "spacing": 10, "stack_from_top": false, "strict": false, "stroke": true, "stroke_style": null, "style": {"background": "transparent", "ci_colors": [], "colors": ["#F44336", "#3F51B5", "#009688", "#FFC107", "#FF5722", "#9C27B0", "#03A9F4", "#8BC34A", "#FF9800", "#E91E63", "#2196F3", "#4CAF50", "#FFEB3B", "#673AB7", "#00BCD4", "#CDDC39", "#9E9E9E", "#607D8B"], "font_family": "Helvetica, Arial, sans-serif", "foreground": "rgba(0, 0, 0, .87)", "foreground_strong": "rgba(0, 0, 0, 1)", "foreground_subtle": "rgba(0, 0, 0, .54)", "guide_stroke_dasharray": 1, "label_font_family": "Helvetica, Arial, sans-serif", "label_font_size": 15, "legend_font_family": "Helvetica, Arial, sans-serif", "legend_font_size": 15, "major_guide_stroke_dasharray": 1, "major_label_font_family": "Helvetica, Arial, sans-serif", "major_label_font_size": 15, "no_data_font_family": "Helvetica, Arial, sans-serif", "no_data_font_size": 64, "opacity": ".7", "opacity_hover": ".8", "plot_background": "white", "stroke_opacity": ".8", "stroke_opacity_hover": ".9", "title_font_family": "Helvetica, Arial, sans-serif", "title_font_size": 18, "tooltip_font_family": "Helvetica, Arial, sans-serif", "tooltip_font_size": 14, "transition": "150ms", "value_background": "rgba(229, 229, 229, 1)", "value_colors": [], "value_font_family": "Helvetica, Arial, sans-serif", "value_font_size": 15, "value_label_font_family": "Helvetica, Arial, sans-serif", "value_label_font_size": 15}, "title": "Mean Accuracy1 for Tempo T \u00b110.0 BPM", "tooltip_border_radius": 0, "tooltip_fancy_mode": true, "truncate_label": null, "truncate_legend": -1, "width": 800, "x_label_rotation": 90, "x_labels": ["0.0", "1.0", "2.0", "3.0", "4.0", "5.0", "6.0", "7.0", "8.0", "9.0", "10.0", "11.0", "12.0", "13.0", "14.0", "15.0", "16.0", "17.0", "18.0", "19.0", "20.0", "21.0", "22.0", "23.0", "24.0", "25.0", "26.0", "27.0", "28.0", "29.0", "30.0", "31.0", "32.0", "33.0", "34.0", "35.0", "36.0", "37.0", "38.0", "39.0", "40.0", "41.0", "42.0", "43.0", "44.0", "45.0", "46.0", "47.0", "48.0", "49.0", "50.0", "51.0", "52.0", "53.0", "54.0", "55.0", "56.0", "57.0", "58.0", "59.0", "60.0", "61.0", "62.0", "63.0", "64.0", "65.0", "66.0", "67.0", "68.0", "69.0", "70.0", "71.0", "72.0", "73.0", "74.0", "75.0", "76.0", "77.0", "78.0", "79.0", "80.0", "81.0", "82.0", "83.0", "84.0", "85.0", "86.0", "87.0", "88.0", "89.0", "90.0", "91.0", "92.0", "93.0", "94.0", "95.0", "96.0", "97.0", "98.0", "99.0", "100.0", "101.0", "102.0", "103.0", "104.0", "105.0", "106.0", "107.0", "108.0", "109.0", "110.0", "111.0", "112.0", "113.0", "114.0", "115.0", "116.0", "117.0", "118.0", "119.0", "120.0", "121.0", "122.0", "123.0", "124.0", "125.0", "126.0", "127.0", "128.0", "129.0", "130.0", "131.0", "132.0", "133.0", "134.0", "135.0", "136.0", "137.0", "138.0", "139.0", "140.0", "141.0", "142.0", "143.0", "144.0", "145.0", "146.0", "147.0", "148.0", "149.0", "150.0", "151.0", "152.0", "153.0", "154.0", "155.0", "156.0", "157.0", "158.0", "159.0", "160.0", "161.0", "162.0", "163.0", "164.0", "165.0", "166.0", "167.0", "168.0", "169.0", "170.0", "171.0", "172.0", "173.0", "174.0", "175.0", "176.0", "177.0", "178.0", "179.0", "180.0", "181.0", "182.0", "183.0", "184.0", "185.0", "186.0", "187.0", "188.0", "189.0", "190.0", "191.0", "192.0", "193.0", "194.0", "195.0", "196.0", "197.0", "198.0", "199.0", "200.0", "201.0", "202.0", "203.0", "204.0", "205.0", "206.0", "207.0", "208.0", "209.0", "210.0", "211.0", "212.0", "213.0", "214.0", "215.0", "216.0", "217.0", "218.0", "219.0", "220.0", "221.0", "222.0", "223.0", "224.0", "225.0", "226.0", "227.0", "228.0", "229.0", "230.0", "231.0", "232.0", "233.0", "234.0", "235.0", "236.0", "237.0", "238.0", "239.0", "240.0", "241.0", "242.0", "243.0", "244.0", "245.0", "246.0", "247.0", "248.0", "249.0", "250.0", "251.0", "252.0", "253.0", "254.0", "255.0", "256.0", "257.0", "258.0", "259.0", "260.0", "261.0", "262.0", "263.0", "264.0", "265.0", "266.0", "267.0", "268.0", "269.0", "270.0", "271.0", "272.0", "273.0", "274.0", "275.0", "276.0", "277.0", "278.0", "279.0", "280.0", "281.0", "282.0", "283.0", "284.0", "285.0", "286.0", "287.0", "288.0", "289.0", "290.0", "291.0", "292.0", "293.0", "294.0", "295.0", "296.0", "297.0", "298.0", "299.0", "300.0"], "x_labels_major": null, "x_labels_major_count": 11, "x_labels_major_every": null, "x_title": "T (BPM)", "xrange": null, "y_label_rotation": 0, "y_labels": null, "y_labels_major": null, "y_labels_major_count": null, "y_labels_major_every": null, "y_title": "Mean Accuracy1 (%)", "zero": 0, "legends": ["boeck2015/tempodetector2016_default", "davies2009/mirex_qm_tempotracker", "percival2014/stem", "schreiber2014/default", "schreiber2017/ismir2017", "schreiber2017/mirex2017", "schreiber2018/cnn", "schreiber2018/fcn"]}</script><script type="text/javascript" xlink:href="https://kozea.github.io/pygal.js/2.0.x/pygal-tooltips.min.js"/></defs><title>Mean Accuracy1 for Tempo T ±10.0 BPM</title><g class="graph line-graph vertical"><rect class="background" height="600" width="800" x="0" y="0"/><g class="plot" transform="translate(103, 48)"><rect class="background" height="306.5" width="677.0" x="0" y="0"/><g class="axis y always_show"><g class="guides"><path class="major line" d="M0.000000 300.605769 h677.000000"/><text class="major" x="-5" y="305.8557692307692">0.0</text><title>0.0</title></g><g class="guides"><path class="guide line" d="M0.000000 271.134615 h677.000000"/><text class="" x="-5" y="276.38461538461536">10.0</text><title>10.0</title></g><g class="guides"><path class="guide line" d="M0.000000 241.663462 h677.000000"/><text class="" x="-5" y="246.91346153846155">20.0</text><title>20.0</title></g><g class="guides"><path class="guide line" d="M0.000000 212.192308 h677.000000"/><text class="" x="-5" y="217.44230769230768">30.0</text><title>30.0</title></g><g class="guides"><path class="guide line" d="M0.000000 182.721154 h677.000000"/><text class="" x="-5" y="187.97115384615384">40.0</text><title>40.0</title></g><g class="guides"><path class="major guide line" d="M0.000000 153.250000 h677.000000"/><text class="major" x="-5" y="158.5">50.0</text><title>50.0</title></g><g class="guides"><path class="guide line" d="M0.000000 123.778846 h677.000000"/><text class="" x="-5" y="129.02884615384616">60.0</text><title>60.0</title></g><g class="guides"><path class="guide line" d="M0.000000 94.307692 h677.000000"/><text class="" x="-5" y="99.55769230769232">70.0</text><title>70.0</title></g><g class="guides"><path class="guide line" d="M0.000000 64.836538 h677.000000"/><text class="" x="-5" y="70.08653846153845">80.0</text><title>80.0</title></g><g class="guides"><path class="guide line" d="M0.000000 35.365385 h677.000000"/><text class="" x="-5" y="40.61538461538464">90.0</text><title>90.0</title></g><g class="guides"><path class="major guide line" d="M0.000000 5.894231 h677.000000"/><text class="major" x="-5" y="11.144230769230774">100.0</text><title>100.0</title></g></g><g class="axis x always_show"><g class="guides"><path class="major line" d="M13.019231 0.000000 v306.500000"/><text class="major" x="13.01923076923077" y="324.0" transform="rotate(90 13.019231 324.000000)">0.0</text></g><g class="guides"><path class="major guide line" d="M78.115385 0.000000 v306.500000"/><text class="major" x="78.11538461538463" y="324.0" transform="rotate(90 78.115385 324.000000)">30.0</text></g><g class="guides"><path class="major guide line" d="M143.211538 0.000000 v306.500000"/><text class="major" x="143.21153846153845" y="324.0" transform="rotate(90 143.211538 324.000000)">60.0</text></g><g class="guides"><path class="major guide line" d="M208.307692 0.000000 v306.500000"/><text class="major" x="208.30769230769232" y="324.0" transform="rotate(90 208.307692 324.000000)">90.0</text></g><g class="guides"><path class="major guide line" d="M273.403846 0.000000 v306.500000"/><text class="major" x="273.4038461538462" y="324.0" transform="rotate(90 273.403846 324.000000)">120.0</text></g><g class="guides"><path class="major guide line" d="M338.500000 0.000000 v306.500000"/><text class="major" x="338.5" y="324.0" transform="rotate(90 338.500000 324.000000)">150.0</text></g><g class="guides"><path class="major guide line" d="M403.596154 0.000000 v306.500000"/><text class="major" x="403.59615384615387" y="324.0" transform="rotate(90 403.596154 324.000000)">180.0</text></g><g class="guides"><path class="major guide line" d="M468.692308 0.000000 v306.500000"/><text class="major" x="468.6923076923077" y="324.0" transform="rotate(90 468.692308 324.000000)">210.0</text></g><g class="guides"><path class="major guide line" d="M533.788462 0.000000 v306.500000"/><text class="major" x="533.7884615384615" y="324.0" transform="rotate(90 533.788462 324.000000)">240.0</text></g><g class="guides"><path class="major guide line" d="M598.884615 0.000000 v306.500000"/><text class="major" x="598.8846153846154" y="324.0" transform="rotate(90 598.884615 324.000000)">270.0</text></g><g class="guides"><path class="major guide line" d="M663.980769 0.000000 v306.500000"/><text class="major" x="663.9807692307692" y="324.0" transform="rotate(90 663.980769 324.000000)">300.0</text></g></g><g class="series serie-0 color-0"><path class="line reactive nofill" d="M13.019231 5.894231 L15.189103 5.894231 17.358974 5.894231 19.528846 5.894231 21.698718 5.894231 23.868590 5.894231 26.038462 5.894231 28.208333 5.894231 30.378205 5.894231 32.548077 5.894231 34.717949 5.894231 36.887821 5.894231 39.057692 5.894231 41.227564 5.894231 43.397436 5.894231 45.567308 5.894231 47.737179 5.894231 49.907051 5.894231 52.076923 5.894231 54.246795 5.894231 56.416667 5.894231 58.586538 5.894231 60.756410 5.894231 62.926282 5.894231 65.096154 5.894231 67.266026 5.894231 69.435897 5.894231 71.605769 5.894231 73.775641 5.894231 75.945513 5.894231 78.115385 5.894231 80.285256 5.894231 82.455128 5.894231 84.625000 5.894231 86.794872 5.894231 88.964744 5.894231 91.134615 5.894231 93.304487 5.894231 95.474359 5.894231 97.644231 5.894231 99.814103 5.894231 101.983974 5.894231 104.153846 5.894231 106.323718 5.894231 108.493590 5.894231 110.663462 5.894231 112.833333 5.894231 115.003205 5.894231 117.173077 5.894231 119.342949 5.894231 121.512821 5.894231 123.682692 5.894231 125.852564 5.894231 128.022436 5.894231 130.192308 5.894231 132.362179 5.894231 134.532051 5.894231 136.701923 5.894231 138.871795 5.894231 141.041667 300.605769 143.211538 300.605769 145.381410 104.131410 147.551282 79.572115 149.721154 64.836538 151.891026 64.836538 154.060897 55.012821 156.230769 55.012821 158.400641 55.012821 160.570513 42.733173 162.740385 42.733173 164.910256 42.733173 167.080128 28.564349 169.250000 28.564349 171.419872 26.945055 173.589744 42.733173 175.759615 42.733173 177.929487 42.733173 180.099359 40.566176 182.269231 38.639957 184.439103 38.639957 186.608974 38.639957 188.778846 38.639957 190.948718 40.566176 193.118590 40.566176 195.288462 40.566176 197.458333 40.566176 199.628205 40.566176 201.798077 40.566176 203.967949 40.566176 206.137821 45.189103 208.307692 45.189103 210.477564 45.189103 212.647436 64.836538 214.817308 64.836538 216.987179 71.385684 219.157051 47.995879 221.326923 42.733173 223.496795 42.733173 225.666667 47.995879 227.836538 38.639957 230.006410 55.012821 232.176282 32.686189 234.346154 51.234467 236.516026 51.234467 238.685897 55.012821 240.855769 59.478147 243.025641 51.234467 245.195513 55.012821 247.365385 51.234467 249.535256 51.234467 251.705128 42.733173 253.875000 40.566176 256.044872 38.639957 258.214744 38.639957 260.384615 52.427632 262.554487 52.427632 264.724359 50.100962 266.894231 52.427632 269.064103 52.427632 271.233974 52.427632 273.403846 55.012821 275.573718 45.189103 277.743590 57.902149 279.913462 45.189103 282.083333 47.995879 284.253205 47.995879 286.423077 47.995879 288.592949 55.012821 290.762821 55.012821 292.932692 59.478147 295.102564 59.478147 297.272436 79.572115 299.442308 90.097527 301.612179 104.131410 303.782051 132.199176 305.951923 104.131410 308.121795 132.199176 310.291667 153.250000 312.461538 153.250000 314.631410 153.250000 316.801282 153.250000 318.971154 226.927885 321.141026 226.927885 323.310897 202.368590 325.480769 202.368590 327.650641 202.368590 329.820513 153.250000 331.990385 153.250000 334.160256 153.250000 336.330128 153.250000 338.500000 153.250000 340.669872 153.250000 342.839744 153.250000 345.009615 153.250000 347.179487 153.250000 349.349359 104.131410 351.519231 104.131410 353.689103 5.894231 355.858974 5.894231 358.028846 5.894231 360.198718 5.894231 362.368590 5.894231 364.538462 5.894231 366.708333 5.894231 368.878205 5.894231 371.048077 5.894231 373.217949 5.894231 375.387821 5.894231 377.557692 5.894231 379.727564 5.894231 381.897436 5.894231 384.067308 5.894231 386.237179 5.894231 388.407051 5.894231 390.576923 5.894231 392.746795 5.894231 394.916667 5.894231 397.086538 5.894231 399.256410 5.894231 401.426282 5.894231 403.596154 5.894231 405.766026 5.894231 407.935897 5.894231 410.105769 5.894231 412.275641 5.894231 414.445513 5.894231 416.615385 5.894231 418.785256 5.894231 420.955128 5.894231 423.125000 5.894231 425.294872 5.894231 427.464744 5.894231 429.634615 5.894231 431.804487 5.894231 433.974359 5.894231 436.144231 5.894231 438.314103 5.894231 440.483974 5.894231 442.653846 5.894231 444.823718 5.894231 446.993590 5.894231 449.163462 5.894231 451.333333 5.894231 453.503205 5.894231 455.673077 5.894231 457.842949 5.894231 460.012821 5.894231 462.182692 5.894231 464.352564 5.894231 466.522436 5.894231 468.692308 5.894231 470.862179 5.894231 473.032051 5.894231 475.201923 5.894231 477.371795 5.894231 479.541667 5.894231 481.711538 5.894231 483.881410 5.894231 486.051282 5.894231 488.221154 5.894231 490.391026 5.894231 492.560897 5.894231 494.730769 5.894231 496.900641 5.894231 499.070513 5.894231 501.240385 5.894231 503.410256 5.894231 505.580128 5.894231 507.750000 5.894231 509.919872 5.894231 512.089744 5.894231 514.259615 5.894231 516.429487 5.894231 518.599359 5.894231 520.769231 5.894231 522.939103 5.894231 525.108974 5.894231 527.278846 5.894231 529.448718 5.894231 531.618590 5.894231 533.788462 5.894231 535.958333 5.894231 538.128205 5.894231 540.298077 5.894231 542.467949 5.894231 544.637821 5.894231 546.807692 5.894231 548.977564 5.894231 551.147436 5.894231 553.317308 5.894231 555.487179 5.894231 557.657051 5.894231 559.826923 5.894231 561.996795 5.894231 564.166667 5.894231 566.336538 5.894231 568.506410 5.894231 570.676282 5.894231 572.846154 5.894231 575.016026 5.894231 577.185897 5.894231 579.355769 5.894231 581.525641 5.894231 583.695513 5.894231 585.865385 5.894231 588.035256 5.894231 590.205128 5.894231 592.375000 5.894231 594.544872 5.894231 596.714744 5.894231 598.884615 5.894231 601.054487 5.894231 603.224359 5.894231 605.394231 5.894231 607.564103 5.894231 609.733974 5.894231 611.903846 5.894231 614.073718 5.894231 616.243590 5.894231 618.413462 5.894231 620.583333 5.894231 622.753205 5.894231 624.923077 5.894231 627.092949 5.894231 629.262821 5.894231 631.432692 5.894231 633.602564 5.894231 635.772436 5.894231 637.942308 5.894231 640.112179 5.894231 642.282051 5.894231 644.451923 5.894231 646.621795 5.894231 648.791667 5.894231 650.961538 5.894231 653.131410 5.894231 655.301282 5.894231 657.471154 5.894231 659.641026 5.894231 661.810897 5.894231 663.980769 5.894231"/></g><g class="series serie-1 color-1"><path class="line reactive nofill" d="M13.019231 5.894231 L15.189103 5.894231 17.358974 5.894231 19.528846 5.894231 21.698718 5.894231 23.868590 5.894231 26.038462 5.894231 28.208333 5.894231 30.378205 5.894231 32.548077 5.894231 34.717949 5.894231 36.887821 5.894231 39.057692 5.894231 41.227564 5.894231 43.397436 5.894231 45.567308 5.894231 47.737179 5.894231 49.907051 5.894231 52.076923 5.894231 54.246795 5.894231 56.416667 5.894231 58.586538 5.894231 60.756410 5.894231 62.926282 5.894231 65.096154 5.894231 67.266026 5.894231 69.435897 5.894231 71.605769 5.894231 73.775641 5.894231 75.945513 5.894231 78.115385 5.894231 80.285256 5.894231 82.455128 5.894231 84.625000 5.894231 86.794872 5.894231 88.964744 5.894231 91.134615 5.894231 93.304487 5.894231 95.474359 5.894231 97.644231 5.894231 99.814103 5.894231 101.983974 5.894231 104.153846 5.894231 106.323718 5.894231 108.493590 5.894231 110.663462 5.894231 112.833333 5.894231 115.003205 5.894231 117.173077 5.894231 119.342949 5.894231 121.512821 5.894231 123.682692 5.894231 125.852564 5.894231 128.022436 5.894231 130.192308 5.894231 132.362179 5.894231 134.532051 5.894231 136.701923 5.894231 138.871795 5.894231 141.041667 300.605769 143.211538 300.605769 145.381410 300.605769 147.551282 226.927885 149.721154 241.663462 151.891026 241.663462 154.060897 251.487179 156.230769 251.487179 158.400641 251.487179 160.570513 263.766827 162.740385 263.766827 164.910256 263.766827 167.080128 232.595414 169.250000 232.595414 171.419872 216.402473 173.589744 208.508413 175.759615 208.508413 177.929487 208.508413 180.099359 213.925905 182.269231 202.368590 184.439103 202.368590 186.608974 185.995726 188.778846 185.995726 190.948718 161.917986 193.118590 161.917986 195.288462 144.582014 197.458333 144.582014 199.628205 127.246041 201.798077 127.246041 203.967949 127.246041 206.137821 104.131410 208.307692 104.131410 210.477564 104.131410 212.647436 64.836538 214.817308 64.836538 216.987179 71.385684 219.157051 47.995879 221.326923 42.733173 223.496795 42.733173 225.666667 5.894231 227.836538 5.894231 230.006410 5.894231 232.176282 5.894231 234.346154 5.894231 236.516026 5.894231 238.685897 5.894231 240.855769 5.894231 243.025641 5.894231 245.195513 5.894231 247.365385 5.894231 249.535256 5.894231 251.705128 5.894231 253.875000 5.894231 256.044872 5.894231 258.214744 5.894231 260.384615 5.894231 262.554487 5.894231 264.724359 5.894231 266.894231 5.894231 269.064103 5.894231 271.233974 5.894231 273.403846 5.894231 275.573718 5.894231 277.743590 5.894231 279.913462 5.894231 282.083333 5.894231 284.253205 5.894231 286.423077 5.894231 288.592949 5.894231 290.762821 5.894231 292.932692 5.894231 295.102564 5.894231 297.272436 5.894231 299.442308 5.894231 301.612179 5.894231 303.782051 5.894231 305.951923 5.894231 308.121795 5.894231 310.291667 5.894231 312.461538 5.894231 314.631410 5.894231 316.801282 5.894231 318.971154 5.894231 321.141026 5.894231 323.310897 5.894231 325.480769 5.894231 327.650641 5.894231 329.820513 5.894231 331.990385 5.894231 334.160256 5.894231 336.330128 5.894231 338.500000 5.894231 340.669872 5.894231 342.839744 5.894231 345.009615 5.894231 347.179487 5.894231 349.349359 5.894231 351.519231 5.894231 353.689103 5.894231 355.858974 5.894231 358.028846 5.894231 360.198718 5.894231 362.368590 5.894231 364.538462 5.894231 366.708333 5.894231 368.878205 5.894231 371.048077 5.894231 373.217949 5.894231 375.387821 5.894231 377.557692 5.894231 379.727564 5.894231 381.897436 5.894231 384.067308 5.894231 386.237179 5.894231 388.407051 5.894231 390.576923 5.894231 392.746795 5.894231 394.916667 5.894231 397.086538 5.894231 399.256410 5.894231 401.426282 5.894231 403.596154 5.894231 405.766026 5.894231 407.935897 5.894231 410.105769 5.894231 412.275641 5.894231 414.445513 5.894231 416.615385 5.894231 418.785256 5.894231 420.955128 5.894231 423.125000 5.894231 425.294872 5.894231 427.464744 5.894231 429.634615 5.894231 431.804487 5.894231 433.974359 5.894231 436.144231 5.894231 438.314103 5.894231 440.483974 5.894231 442.653846 5.894231 444.823718 5.894231 446.993590 5.894231 449.163462 5.894231 451.333333 5.894231 453.503205 5.894231 455.673077 5.894231 457.842949 5.894231 460.012821 5.894231 462.182692 5.894231 464.352564 5.894231 466.522436 5.894231 468.692308 5.894231 470.862179 5.894231 473.032051 5.894231 475.201923 5.894231 477.371795 5.894231 479.541667 5.894231 481.711538 5.894231 483.881410 5.894231 486.051282 5.894231 488.221154 5.894231 490.391026 5.894231 492.560897 5.894231 494.730769 5.894231 496.900641 5.894231 499.070513 5.894231 501.240385 5.894231 503.410256 5.894231 505.580128 5.894231 507.750000 5.894231 509.919872 5.894231 512.089744 5.894231 514.259615 5.894231 516.429487 5.894231 518.599359 5.894231 520.769231 5.894231 522.939103 5.894231 525.108974 5.894231 527.278846 5.894231 529.448718 5.894231 531.618590 5.894231 533.788462 5.894231 535.958333 5.894231 538.128205 5.894231 540.298077 5.894231 542.467949 5.894231 544.637821 5.894231 546.807692 5.894231 548.977564 5.894231 551.147436 5.894231 553.317308 5.894231 555.487179 5.894231 557.657051 5.894231 559.826923 5.894231 561.996795 5.894231 564.166667 5.894231 566.336538 5.894231 568.506410 5.894231 570.676282 5.894231 572.846154 5.894231 575.016026 5.894231 577.185897 5.894231 579.355769 5.894231 581.525641 5.894231 583.695513 5.894231 585.865385 5.894231 588.035256 5.894231 590.205128 5.894231 592.375000 5.894231 594.544872 5.894231 596.714744 5.894231 598.884615 5.894231 601.054487 5.894231 603.224359 5.894231 605.394231 5.894231 607.564103 5.894231 609.733974 5.894231 611.903846 5.894231 614.073718 5.894231 616.243590 5.894231 618.413462 5.894231 620.583333 5.894231 622.753205 5.894231 624.923077 5.894231 627.092949 5.894231 629.262821 5.894231 631.432692 5.894231 633.602564 5.894231 635.772436 5.894231 637.942308 5.894231 640.112179 5.894231 642.282051 5.894231 644.451923 5.894231 646.621795 5.894231 648.791667 5.894231 650.961538 5.894231 653.131410 5.894231 655.301282 5.894231 657.471154 5.894231 659.641026 5.894231 661.810897 5.894231 663.980769 5.894231"/></g><g class="series serie-2 color-2"><path class="line reactive nofill" d="M13.019231 5.894231 L15.189103 5.894231 17.358974 5.894231 19.528846 5.894231 21.698718 5.894231 23.868590 5.894231 26.038462 5.894231 28.208333 5.894231 30.378205 5.894231 32.548077 5.894231 34.717949 5.894231 36.887821 5.894231 39.057692 5.894231 41.227564 5.894231 43.397436 5.894231 45.567308 5.894231 47.737179 5.894231 49.907051 5.894231 52.076923 5.894231 54.246795 5.894231 56.416667 5.894231 58.586538 5.894231 60.756410 5.894231 62.926282 5.894231 65.096154 5.894231 67.266026 5.894231 69.435897 5.894231 71.605769 5.894231 73.775641 5.894231 75.945513 5.894231 78.115385 5.894231 80.285256 5.894231 82.455128 5.894231 84.625000 5.894231 86.794872 5.894231 88.964744 5.894231 91.134615 5.894231 93.304487 5.894231 95.474359 5.894231 97.644231 5.894231 99.814103 5.894231 101.983974 5.894231 104.153846 5.894231 106.323718 5.894231 108.493590 5.894231 110.663462 5.894231 112.833333 5.894231 115.003205 5.894231 117.173077 5.894231 119.342949 5.894231 121.512821 5.894231 123.682692 5.894231 125.852564 5.894231 128.022436 5.894231 130.192308 5.894231 132.362179 5.894231 134.532051 5.894231 136.701923 5.894231 138.871795 5.894231 141.041667 5.894231 143.211538 5.894231 145.381410 104.131410 147.551282 153.250000 149.721154 123.778846 151.891026 123.778846 154.060897 104.131410 156.230769 104.131410 158.400641 104.131410 160.570513 79.572115 162.740385 79.572115 164.910256 79.572115 167.080128 51.234467 169.250000 51.234467 171.419872 47.995879 173.589744 42.733173 175.759615 42.733173 177.929487 42.733173 180.099359 40.566176 182.269231 38.639957 184.439103 38.639957 186.608974 38.639957 188.778846 38.639957 190.948718 23.230204 193.118590 5.894231 195.288462 23.230204 197.458333 23.230204 199.628205 23.230204 201.798077 23.230204 203.967949 23.230204 206.137821 25.541667 208.307692 25.541667 210.477564 25.541667 212.647436 35.365385 214.817308 35.365385 216.987179 38.639957 219.157051 47.995879 221.326923 42.733173 223.496795 42.733173 225.666667 47.995879 227.836538 71.385684 230.006410 55.012821 232.176282 59.478147 234.346154 51.234467 236.516026 51.234467 238.685897 55.012821 240.855769 32.686189 243.025641 28.564349 245.195513 30.453526 247.365385 28.564349 249.535256 28.564349 251.705128 24.313702 253.875000 23.230204 256.044872 22.267094 258.214744 22.267094 260.384615 21.405364 262.554487 21.405364 264.724359 20.629808 266.894231 21.405364 269.064103 21.405364 271.233974 21.405364 273.403846 5.894231 275.573718 5.894231 277.743590 5.894231 279.913462 5.894231 282.083333 5.894231 284.253205 5.894231 286.423077 5.894231 288.592949 5.894231 290.762821 5.894231 292.932692 5.894231 295.102564 5.894231 297.272436 5.894231 299.442308 5.894231 301.612179 5.894231 303.782051 47.995879 305.951923 55.012821 308.121795 90.097527 310.291667 104.131410 312.461538 104.131410 314.631410 104.131410 316.801282 104.131410 318.971154 153.250000 321.141026 153.250000 323.310897 300.605769 325.480769 300.605769 327.650641 300.605769 329.820513 300.605769 331.990385 300.605769 334.160256 300.605769 336.330128 300.605769 338.500000 300.605769 340.669872 300.605769 342.839744 300.605769 345.009615 300.605769 347.179487 300.605769 349.349359 300.605769 351.519231 300.605769 353.689103 300.605769 355.858974 300.605769 358.028846 300.605769 360.198718 300.605769 362.368590 300.605769 364.538462 300.605769 366.708333 300.605769 368.878205 300.605769 371.048077 300.605769 373.217949 300.605769 375.387821 5.894231 377.557692 5.894231 379.727564 5.894231 381.897436 5.894231 384.067308 5.894231 386.237179 5.894231 388.407051 5.894231 390.576923 5.894231 392.746795 5.894231 394.916667 5.894231 397.086538 5.894231 399.256410 5.894231 401.426282 5.894231 403.596154 5.894231 405.766026 5.894231 407.935897 5.894231 410.105769 5.894231 412.275641 5.894231 414.445513 5.894231 416.615385 5.894231 418.785256 5.894231 420.955128 5.894231 423.125000 5.894231 425.294872 5.894231 427.464744 5.894231 429.634615 5.894231 431.804487 5.894231 433.974359 5.894231 436.144231 5.894231 438.314103 5.894231 440.483974 5.894231 442.653846 5.894231 444.823718 5.894231 446.993590 5.894231 449.163462 5.894231 451.333333 5.894231 453.503205 5.894231 455.673077 5.894231 457.842949 5.894231 460.012821 5.894231 462.182692 5.894231 464.352564 5.894231 466.522436 5.894231 468.692308 5.894231 470.862179 5.894231 473.032051 5.894231 475.201923 5.894231 477.371795 5.894231 479.541667 5.894231 481.711538 5.894231 483.881410 5.894231 486.051282 5.894231 488.221154 5.894231 490.391026 5.894231 492.560897 5.894231 494.730769 5.894231 496.900641 5.894231 499.070513 5.894231 501.240385 5.894231 503.410256 5.894231 505.580128 5.894231 507.750000 5.894231 509.919872 5.894231 512.089744 5.894231 514.259615 5.894231 516.429487 5.894231 518.599359 5.894231 520.769231 5.894231 522.939103 5.894231 525.108974 5.894231 527.278846 5.894231 529.448718 5.894231 531.618590 5.894231 533.788462 5.894231 535.958333 5.894231 538.128205 5.894231 540.298077 5.894231 542.467949 5.894231 544.637821 5.894231 546.807692 5.894231 548.977564 5.894231 551.147436 5.894231 553.317308 5.894231 555.487179 5.894231 557.657051 5.894231 559.826923 5.894231 561.996795 5.894231 564.166667 5.894231 566.336538 5.894231 568.506410 5.894231 570.676282 5.894231 572.846154 5.894231 575.016026 5.894231 577.185897 5.894231 579.355769 5.894231 581.525641 5.894231 583.695513 5.894231 585.865385 5.894231 588.035256 5.894231 590.205128 5.894231 592.375000 5.894231 594.544872 5.894231 596.714744 5.894231 598.884615 5.894231 601.054487 5.894231 603.224359 5.894231 605.394231 5.894231 607.564103 5.894231 609.733974 5.894231 611.903846 5.894231 614.073718 5.894231 616.243590 5.894231 618.413462 5.894231 620.583333 5.894231 622.753205 5.894231 624.923077 5.894231 627.092949 5.894231 629.262821 5.894231 631.432692 5.894231 633.602564 5.894231 635.772436 5.894231 637.942308 5.894231 640.112179 5.894231 642.282051 5.894231 644.451923 5.894231 646.621795 5.894231 648.791667 5.894231 650.961538 5.894231 653.131410 5.894231 655.301282 5.894231 657.471154 5.894231 659.641026 5.894231 661.810897 5.894231 663.980769 5.894231"/></g><g class="series serie-3 color-3"><path class="line reactive nofill" d="M13.019231 5.894231 L15.189103 5.894231 17.358974 5.894231 19.528846 5.894231 21.698718 5.894231 23.868590 5.894231 26.038462 5.894231 28.208333 5.894231 30.378205 5.894231 32.548077 5.894231 34.717949 5.894231 36.887821 5.894231 39.057692 5.894231 41.227564 5.894231 43.397436 5.894231 45.567308 5.894231 47.737179 5.894231 49.907051 5.894231 52.076923 5.894231 54.246795 5.894231 56.416667 5.894231 58.586538 5.894231 60.756410 5.894231 62.926282 5.894231 65.096154 5.894231 67.266026 5.894231 69.435897 5.894231 71.605769 5.894231 73.775641 5.894231 75.945513 5.894231 78.115385 5.894231 80.285256 5.894231 82.455128 5.894231 84.625000 5.894231 86.794872 5.894231 88.964744 5.894231 91.134615 5.894231 93.304487 5.894231 95.474359 5.894231 97.644231 5.894231 99.814103 5.894231 101.983974 5.894231 104.153846 5.894231 106.323718 5.894231 108.493590 5.894231 110.663462 5.894231 112.833333 5.894231 115.003205 5.894231 117.173077 5.894231 119.342949 5.894231 121.512821 5.894231 123.682692 5.894231 125.852564 5.894231 128.022436 5.894231 130.192308 5.894231 132.362179 5.894231 134.532051 5.894231 136.701923 5.894231 138.871795 5.894231 141.041667 5.894231 143.211538 5.894231 145.381410 104.131410 147.551282 79.572115 149.721154 64.836538 151.891026 64.836538 154.060897 55.012821 156.230769 55.012821 158.400641 55.012821 160.570513 42.733173 162.740385 42.733173 164.910256 42.733173 167.080128 51.234467 169.250000 51.234467 171.419872 47.995879 173.589744 42.733173 175.759615 42.733173 177.929487 42.733173 180.099359 57.902149 182.269231 55.012821 184.439103 55.012821 186.608974 71.385684 188.778846 71.385684 190.948718 57.902149 193.118590 57.902149 195.288462 57.902149 197.458333 57.902149 199.628205 57.902149 201.798077 57.902149 203.967949 57.902149 206.137821 64.836538 208.307692 64.836538 210.477564 64.836538 212.647436 64.836538 214.817308 64.836538 216.987179 71.385684 219.157051 90.097527 221.326923 79.572115 223.496795 79.572115 225.666667 47.995879 227.836538 38.639957 230.006410 30.453526 232.176282 5.894231 234.346154 5.894231 236.516026 5.894231 238.685897 5.894231 240.855769 5.894231 243.025641 5.894231 245.195513 5.894231 247.365385 5.894231 249.535256 5.894231 251.705128 24.313702 253.875000 23.230204 256.044872 22.267094 258.214744 22.267094 260.384615 21.405364 262.554487 21.405364 264.724359 20.629808 266.894231 21.405364 269.064103 21.405364 271.233974 21.405364 273.403846 22.267094 275.573718 25.541667 277.743590 40.566176 279.913462 45.189103 282.083333 47.995879 284.253205 47.995879 286.423077 47.995879 288.592949 55.012821 290.762821 55.012821 292.932692 59.478147 295.102564 59.478147 297.272436 42.733173 299.442308 47.995879 301.612179 55.012821 303.782051 47.995879 305.951923 55.012821 308.121795 90.097527 310.291667 104.131410 312.461538 104.131410 314.631410 104.131410 316.801282 104.131410 318.971154 153.250000 321.141026 153.250000 323.310897 202.368590 325.480769 202.368590 327.650641 202.368590 329.820513 226.927885 331.990385 226.927885 334.160256 226.927885 336.330128 226.927885 338.500000 226.927885 340.669872 226.927885 342.839744 226.927885 345.009615 226.927885 347.179487 226.927885 349.349359 300.605769 351.519231 300.605769 353.689103 300.605769 355.858974 300.605769 358.028846 300.605769 360.198718 300.605769 362.368590 300.605769 364.538462 300.605769 366.708333 300.605769 368.878205 300.605769 371.048077 300.605769 373.217949 300.605769 375.387821 5.894231 377.557692 5.894231 379.727564 5.894231 381.897436 5.894231 384.067308 5.894231 386.237179 5.894231 388.407051 5.894231 390.576923 5.894231 392.746795 5.894231 394.916667 5.894231 397.086538 5.894231 399.256410 5.894231 401.426282 5.894231 403.596154 5.894231 405.766026 5.894231 407.935897 5.894231 410.105769 5.894231 412.275641 5.894231 414.445513 5.894231 416.615385 5.894231 418.785256 5.894231 420.955128 5.894231 423.125000 5.894231 425.294872 5.894231 427.464744 5.894231 429.634615 5.894231 431.804487 5.894231 433.974359 5.894231 436.144231 5.894231 438.314103 5.894231 440.483974 5.894231 442.653846 5.894231 444.823718 5.894231 446.993590 5.894231 449.163462 5.894231 451.333333 5.894231 453.503205 5.894231 455.673077 5.894231 457.842949 5.894231 460.012821 5.894231 462.182692 5.894231 464.352564 5.894231 466.522436 5.894231 468.692308 5.894231 470.862179 5.894231 473.032051 5.894231 475.201923 5.894231 477.371795 5.894231 479.541667 5.894231 481.711538 5.894231 483.881410 5.894231 486.051282 5.894231 488.221154 5.894231 490.391026 5.894231 492.560897 5.894231 494.730769 5.894231 496.900641 5.894231 499.070513 5.894231 501.240385 5.894231 503.410256 5.894231 505.580128 5.894231 507.750000 5.894231 509.919872 5.894231 512.089744 5.894231 514.259615 5.894231 516.429487 5.894231 518.599359 5.894231 520.769231 5.894231 522.939103 5.894231 525.108974 5.894231 527.278846 5.894231 529.448718 5.894231 531.618590 5.894231 533.788462 5.894231 535.958333 5.894231 538.128205 5.894231 540.298077 5.894231 542.467949 5.894231 544.637821 5.894231 546.807692 5.894231 548.977564 5.894231 551.147436 5.894231 553.317308 5.894231 555.487179 5.894231 557.657051 5.894231 559.826923 5.894231 561.996795 5.894231 564.166667 5.894231 566.336538 5.894231 568.506410 5.894231 570.676282 5.894231 572.846154 5.894231 575.016026 5.894231 577.185897 5.894231 579.355769 5.894231 581.525641 5.894231 583.695513 5.894231 585.865385 5.894231 588.035256 5.894231 590.205128 5.894231 592.375000 5.894231 594.544872 5.894231 596.714744 5.894231 598.884615 5.894231 601.054487 5.894231 603.224359 5.894231 605.394231 5.894231 607.564103 5.894231 609.733974 5.894231 611.903846 5.894231 614.073718 5.894231 616.243590 5.894231 618.413462 5.894231 620.583333 5.894231 622.753205 5.894231 624.923077 5.894231 627.092949 5.894231 629.262821 5.894231 631.432692 5.894231 633.602564 5.894231 635.772436 5.894231 637.942308 5.894231 640.112179 5.894231 642.282051 5.894231 644.451923 5.894231 646.621795 5.894231 648.791667 5.894231 650.961538 5.894231 653.131410 5.894231 655.301282 5.894231 657.471154 5.894231 659.641026 5.894231 661.810897 5.894231 663.980769 5.894231"/></g><g class="series serie-4 color-4"><path class="line reactive nofill" d="M13.019231 5.894231 L15.189103 5.894231 17.358974 5.894231 19.528846 5.894231 21.698718 5.894231 23.868590 5.894231 26.038462 5.894231 28.208333 5.894231 30.378205 5.894231 32.548077 5.894231 34.717949 5.894231 36.887821 5.894231 39.057692 5.894231 41.227564 5.894231 43.397436 5.894231 45.567308 5.894231 47.737179 5.894231 49.907051 5.894231 52.076923 5.894231 54.246795 5.894231 56.416667 5.894231 58.586538 5.894231 60.756410 5.894231 62.926282 5.894231 65.096154 5.894231 67.266026 5.894231 69.435897 5.894231 71.605769 5.894231 73.775641 5.894231 75.945513 5.894231 78.115385 5.894231 80.285256 5.894231 82.455128 5.894231 84.625000 5.894231 86.794872 5.894231 88.964744 5.894231 91.134615 5.894231 93.304487 5.894231 95.474359 5.894231 97.644231 5.894231 99.814103 5.894231 101.983974 5.894231 104.153846 5.894231 106.323718 5.894231 108.493590 5.894231 110.663462 5.894231 112.833333 5.894231 115.003205 5.894231 117.173077 5.894231 119.342949 5.894231 121.512821 5.894231 123.682692 5.894231 125.852564 5.894231 128.022436 5.894231 130.192308 5.894231 132.362179 5.894231 134.532051 5.894231 136.701923 5.894231 138.871795 5.894231 141.041667 5.894231 143.211538 5.894231 145.381410 104.131410 147.551282 153.250000 149.721154 123.778846 151.891026 123.778846 154.060897 104.131410 156.230769 104.131410 158.400641 104.131410 160.570513 79.572115 162.740385 79.572115 164.910256 79.572115 167.080128 96.574704 169.250000 96.574704 171.419872 111.148352 173.589744 97.991587 175.759615 97.991587 177.929487 97.991587 180.099359 92.574095 182.269231 87.758547 184.439103 87.758547 186.608974 87.758547 188.778846 87.758547 190.948718 75.238122 193.118590 57.902149 195.288462 75.238122 197.458333 75.238122 199.628205 75.238122 201.798077 75.238122 203.967949 75.238122 206.137821 84.483974 208.307692 84.483974 210.477564 84.483974 212.647436 64.836538 214.817308 64.836538 216.987179 38.639957 219.157051 47.995879 221.326923 42.733173 223.496795 42.733173 225.666667 47.995879 227.836538 38.639957 230.006410 30.453526 232.176282 32.686189 234.346154 28.564349 236.516026 28.564349 238.685897 30.453526 240.855769 5.894231 243.025641 5.894231 245.195513 5.894231 247.365385 5.894231 249.535256 5.894231 251.705128 5.894231 253.875000 5.894231 256.044872 5.894231 258.214744 5.894231 260.384615 5.894231 262.554487 5.894231 264.724359 5.894231 266.894231 5.894231 269.064103 5.894231 271.233974 5.894231 273.403846 22.267094 275.573718 25.541667 277.743590 23.230204 279.913462 25.541667 282.083333 26.945055 284.253205 26.945055 286.423077 26.945055 288.592949 30.453526 290.762821 30.453526 292.932692 32.686189 295.102564 32.686189 297.272436 42.733173 299.442308 47.995879 301.612179 55.012821 303.782051 47.995879 305.951923 55.012821 308.121795 90.097527 310.291667 104.131410 312.461538 104.131410 314.631410 104.131410 316.801282 104.131410 318.971154 79.572115 321.141026 79.572115 323.310897 104.131410 325.480769 104.131410 327.650641 104.131410 329.820513 153.250000 331.990385 153.250000 334.160256 153.250000 336.330128 153.250000 338.500000 153.250000 340.669872 153.250000 342.839744 153.250000 345.009615 153.250000 347.179487 153.250000 349.349359 202.368590 351.519231 202.368590 353.689103 153.250000 355.858974 153.250000 358.028846 153.250000 360.198718 153.250000 362.368590 153.250000 364.538462 153.250000 366.708333 153.250000 368.878205 300.605769 371.048077 300.605769 373.217949 300.605769 375.387821 5.894231 377.557692 5.894231 379.727564 5.894231 381.897436 5.894231 384.067308 5.894231 386.237179 5.894231 388.407051 5.894231 390.576923 5.894231 392.746795 5.894231 394.916667 5.894231 397.086538 5.894231 399.256410 5.894231 401.426282 5.894231 403.596154 5.894231 405.766026 5.894231 407.935897 5.894231 410.105769 5.894231 412.275641 5.894231 414.445513 5.894231 416.615385 5.894231 418.785256 5.894231 420.955128 5.894231 423.125000 5.894231 425.294872 5.894231 427.464744 5.894231 429.634615 5.894231 431.804487 5.894231 433.974359 5.894231 436.144231 5.894231 438.314103 5.894231 440.483974 5.894231 442.653846 5.894231 444.823718 5.894231 446.993590 5.894231 449.163462 5.894231 451.333333 5.894231 453.503205 5.894231 455.673077 5.894231 457.842949 5.894231 460.012821 5.894231 462.182692 5.894231 464.352564 5.894231 466.522436 5.894231 468.692308 5.894231 470.862179 5.894231 473.032051 5.894231 475.201923 5.894231 477.371795 5.894231 479.541667 5.894231 481.711538 5.894231 483.881410 5.894231 486.051282 5.894231 488.221154 5.894231 490.391026 5.894231 492.560897 5.894231 494.730769 5.894231 496.900641 5.894231 499.070513 5.894231 501.240385 5.894231 503.410256 5.894231 505.580128 5.894231 507.750000 5.894231 509.919872 5.894231 512.089744 5.894231 514.259615 5.894231 516.429487 5.894231 518.599359 5.894231 520.769231 5.894231 522.939103 5.894231 525.108974 5.894231 527.278846 5.894231 529.448718 5.894231 531.618590 5.894231 533.788462 5.894231 535.958333 5.894231 538.128205 5.894231 540.298077 5.894231 542.467949 5.894231 544.637821 5.894231 546.807692 5.894231 548.977564 5.894231 551.147436 5.894231 553.317308 5.894231 555.487179 5.894231 557.657051 5.894231 559.826923 5.894231 561.996795 5.894231 564.166667 5.894231 566.336538 5.894231 568.506410 5.894231 570.676282 5.894231 572.846154 5.894231 575.016026 5.894231 577.185897 5.894231 579.355769 5.894231 581.525641 5.894231 583.695513 5.894231 585.865385 5.894231 588.035256 5.894231 590.205128 5.894231 592.375000 5.894231 594.544872 5.894231 596.714744 5.894231 598.884615 5.894231 601.054487 5.894231 603.224359 5.894231 605.394231 5.894231 607.564103 5.894231 609.733974 5.894231 611.903846 5.894231 614.073718 5.894231 616.243590 5.894231 618.413462 5.894231 620.583333 5.894231 622.753205 5.894231 624.923077 5.894231 627.092949 5.894231 629.262821 5.894231 631.432692 5.894231 633.602564 5.894231 635.772436 5.894231 637.942308 5.894231 640.112179 5.894231 642.282051 5.894231 644.451923 5.894231 646.621795 5.894231 648.791667 5.894231 650.961538 5.894231 653.131410 5.894231 655.301282 5.894231 657.471154 5.894231 659.641026 5.894231 661.810897 5.894231 663.980769 5.894231"/></g><g class="series serie-5 color-5"><path class="line reactive nofill" d="M13.019231 5.894231 L15.189103 5.894231 17.358974 5.894231 19.528846 5.894231 21.698718 5.894231 23.868590 5.894231 26.038462 5.894231 28.208333 5.894231 30.378205 5.894231 32.548077 5.894231 34.717949 5.894231 36.887821 5.894231 39.057692 5.894231 41.227564 5.894231 43.397436 5.894231 45.567308 5.894231 47.737179 5.894231 49.907051 5.894231 52.076923 5.894231 54.246795 5.894231 56.416667 5.894231 58.586538 5.894231 60.756410 5.894231 62.926282 5.894231 65.096154 5.894231 67.266026 5.894231 69.435897 5.894231 71.605769 5.894231 73.775641 5.894231 75.945513 5.894231 78.115385 5.894231 80.285256 5.894231 82.455128 5.894231 84.625000 5.894231 86.794872 5.894231 88.964744 5.894231 91.134615 5.894231 93.304487 5.894231 95.474359 5.894231 97.644231 5.894231 99.814103 5.894231 101.983974 5.894231 104.153846 5.894231 106.323718 5.894231 108.493590 5.894231 110.663462 5.894231 112.833333 5.894231 115.003205 5.894231 117.173077 5.894231 119.342949 5.894231 121.512821 5.894231 123.682692 5.894231 125.852564 5.894231 128.022436 5.894231 130.192308 5.894231 132.362179 5.894231 134.532051 5.894231 136.701923 5.894231 138.871795 5.894231 141.041667 5.894231 143.211538 5.894231 145.381410 5.894231 147.551282 79.572115 149.721154 64.836538 151.891026 64.836538 154.060897 55.012821 156.230769 55.012821 158.400641 55.012821 160.570513 42.733173 162.740385 42.733173 164.910256 42.733173 167.080128 73.904586 169.250000 73.904586 171.419872 90.097527 173.589744 79.572115 175.759615 79.572115 177.929487 79.572115 180.099359 92.574095 182.269231 87.758547 184.439103 87.758547 186.608974 87.758547 188.778846 87.758547 190.948718 92.574095 193.118590 75.238122 195.288462 92.574095 197.458333 92.574095 199.628205 92.574095 201.798077 92.574095 203.967949 92.574095 206.137821 104.131410 208.307692 104.131410 210.477564 104.131410 212.647436 94.307692 214.817308 94.307692 216.987179 71.385684 219.157051 90.097527 221.326923 79.572115 223.496795 79.572115 225.666667 47.995879 227.836538 38.639957 230.006410 30.453526 232.176282 32.686189 234.346154 28.564349 236.516026 28.564349 238.685897 30.453526 240.855769 5.894231 243.025641 5.894231 245.195513 5.894231 247.365385 5.894231 249.535256 5.894231 251.705128 5.894231 253.875000 5.894231 256.044872 5.894231 258.214744 5.894231 260.384615 5.894231 262.554487 5.894231 264.724359 5.894231 266.894231 5.894231 269.064103 5.894231 271.233974 5.894231 273.403846 22.267094 275.573718 25.541667 277.743590 23.230204 279.913462 25.541667 282.083333 26.945055 284.253205 26.945055 286.423077 26.945055 288.592949 30.453526 290.762821 30.453526 292.932692 32.686189 295.102564 32.686189 297.272436 42.733173 299.442308 47.995879 301.612179 55.012821 303.782051 47.995879 305.951923 55.012821 308.121795 90.097527 310.291667 104.131410 312.461538 104.131410 314.631410 104.131410 316.801282 104.131410 318.971154 79.572115 321.141026 79.572115 323.310897 104.131410 325.480769 104.131410 327.650641 104.131410 329.820513 153.250000 331.990385 153.250000 334.160256 153.250000 336.330128 153.250000 338.500000 153.250000 340.669872 153.250000 342.839744 153.250000 345.009615 153.250000 347.179487 153.250000 349.349359 202.368590 351.519231 202.368590 353.689103 153.250000 355.858974 153.250000 358.028846 153.250000 360.198718 153.250000 362.368590 153.250000 364.538462 153.250000 366.708333 153.250000 368.878205 300.605769 371.048077 300.605769 373.217949 300.605769 375.387821 5.894231 377.557692 5.894231 379.727564 5.894231 381.897436 5.894231 384.067308 5.894231 386.237179 5.894231 388.407051 5.894231 390.576923 5.894231 392.746795 5.894231 394.916667 5.894231 397.086538 5.894231 399.256410 5.894231 401.426282 5.894231 403.596154 5.894231 405.766026 5.894231 407.935897 5.894231 410.105769 5.894231 412.275641 5.894231 414.445513 5.894231 416.615385 5.894231 418.785256 5.894231 420.955128 5.894231 423.125000 5.894231 425.294872 5.894231 427.464744 5.894231 429.634615 5.894231 431.804487 5.894231 433.974359 5.894231 436.144231 5.894231 438.314103 5.894231 440.483974 5.894231 442.653846 5.894231 444.823718 5.894231 446.993590 5.894231 449.163462 5.894231 451.333333 5.894231 453.503205 5.894231 455.673077 5.894231 457.842949 5.894231 460.012821 5.894231 462.182692 5.894231 464.352564 5.894231 466.522436 5.894231 468.692308 5.894231 470.862179 5.894231 473.032051 5.894231 475.201923 5.894231 477.371795 5.894231 479.541667 5.894231 481.711538 5.894231 483.881410 5.894231 486.051282 5.894231 488.221154 5.894231 490.391026 5.894231 492.560897 5.894231 494.730769 5.894231 496.900641 5.894231 499.070513 5.894231 501.240385 5.894231 503.410256 5.894231 505.580128 5.894231 507.750000 5.894231 509.919872 5.894231 512.089744 5.894231 514.259615 5.894231 516.429487 5.894231 518.599359 5.894231 520.769231 5.894231 522.939103 5.894231 525.108974 5.894231 527.278846 5.894231 529.448718 5.894231 531.618590 5.894231 533.788462 5.894231 535.958333 5.894231 538.128205 5.894231 540.298077 5.894231 542.467949 5.894231 544.637821 5.894231 546.807692 5.894231 548.977564 5.894231 551.147436 5.894231 553.317308 5.894231 555.487179 5.894231 557.657051 5.894231 559.826923 5.894231 561.996795 5.894231 564.166667 5.894231 566.336538 5.894231 568.506410 5.894231 570.676282 5.894231 572.846154 5.894231 575.016026 5.894231 577.185897 5.894231 579.355769 5.894231 581.525641 5.894231 583.695513 5.894231 585.865385 5.894231 588.035256 5.894231 590.205128 5.894231 592.375000 5.894231 594.544872 5.894231 596.714744 5.894231 598.884615 5.894231 601.054487 5.894231 603.224359 5.894231 605.394231 5.894231 607.564103 5.894231 609.733974 5.894231 611.903846 5.894231 614.073718 5.894231 616.243590 5.894231 618.413462 5.894231 620.583333 5.894231 622.753205 5.894231 624.923077 5.894231 627.092949 5.894231 629.262821 5.894231 631.432692 5.894231 633.602564 5.894231 635.772436 5.894231 637.942308 5.894231 640.112179 5.894231 642.282051 5.894231 644.451923 5.894231 646.621795 5.894231 648.791667 5.894231 650.961538 5.894231 653.131410 5.894231 655.301282 5.894231 657.471154 5.894231 659.641026 5.894231 661.810897 5.894231 663.980769 5.894231"/></g><g class="series serie-6 color-6"><path class="line reactive nofill" d="M13.019231 5.894231 L15.189103 5.894231 17.358974 5.894231 19.528846 5.894231 21.698718 5.894231 23.868590 5.894231 26.038462 5.894231 28.208333 5.894231 30.378205 5.894231 32.548077 5.894231 34.717949 5.894231 36.887821 5.894231 39.057692 5.894231 41.227564 5.894231 43.397436 5.894231 45.567308 5.894231 47.737179 5.894231 49.907051 5.894231 52.076923 5.894231 54.246795 5.894231 56.416667 5.894231 58.586538 5.894231 60.756410 5.894231 62.926282 5.894231 65.096154 5.894231 67.266026 5.894231 69.435897 5.894231 71.605769 5.894231 73.775641 5.894231 75.945513 5.894231 78.115385 5.894231 80.285256 5.894231 82.455128 5.894231 84.625000 5.894231 86.794872 5.894231 88.964744 5.894231 91.134615 5.894231 93.304487 5.894231 95.474359 5.894231 97.644231 5.894231 99.814103 5.894231 101.983974 5.894231 104.153846 5.894231 106.323718 5.894231 108.493590 5.894231 110.663462 5.894231 112.833333 5.894231 115.003205 5.894231 117.173077 5.894231 119.342949 5.894231 121.512821 5.894231 123.682692 5.894231 125.852564 5.894231 128.022436 5.894231 130.192308 5.894231 132.362179 5.894231 134.532051 5.894231 136.701923 5.894231 138.871795 5.894231 141.041667 5.894231 143.211538 5.894231 145.381410 5.894231 147.551282 5.894231 149.721154 5.894231 151.891026 5.894231 154.060897 5.894231 156.230769 5.894231 158.400641 5.894231 160.570513 42.733173 162.740385 42.733173 164.910256 42.733173 167.080128 28.564349 169.250000 28.564349 171.419872 26.945055 173.589744 24.313702 175.759615 24.313702 177.929487 24.313702 180.099359 23.230204 182.269231 22.267094 184.439103 22.267094 186.608974 22.267094 188.778846 22.267094 190.948718 23.230204 193.118590 23.230204 195.288462 40.566176 197.458333 40.566176 199.628205 40.566176 201.798077 40.566176 203.967949 40.566176 206.137821 25.541667 208.307692 25.541667 210.477564 25.541667 212.647436 35.365385 214.817308 35.365385 216.987179 38.639957 219.157051 47.995879 221.326923 42.733173 223.496795 42.733173 225.666667 47.995879 227.836538 38.639957 230.006410 30.453526 232.176282 32.686189 234.346154 28.564349 236.516026 28.564349 238.685897 30.453526 240.855769 5.894231 243.025641 5.894231 245.195513 5.894231 247.365385 5.894231 249.535256 5.894231 251.705128 5.894231 253.875000 5.894231 256.044872 5.894231 258.214744 5.894231 260.384615 5.894231 262.554487 5.894231 264.724359 5.894231 266.894231 5.894231 269.064103 5.894231 271.233974 5.894231 273.403846 5.894231 275.573718 5.894231 277.743590 5.894231 279.913462 5.894231 282.083333 5.894231 284.253205 5.894231 286.423077 5.894231 288.592949 5.894231 290.762821 5.894231 292.932692 5.894231 295.102564 5.894231 297.272436 5.894231 299.442308 5.894231 301.612179 5.894231 303.782051 5.894231 305.951923 5.894231 308.121795 47.995879 310.291667 55.012821 312.461538 55.012821 314.631410 55.012821 316.801282 55.012821 318.971154 79.572115 321.141026 79.572115 323.310897 104.131410 325.480769 104.131410 327.650641 104.131410 329.820513 79.572115 331.990385 79.572115 334.160256 79.572115 336.330128 79.572115 338.500000 79.572115 340.669872 79.572115 342.839744 79.572115 345.009615 79.572115 347.179487 79.572115 349.349359 104.131410 351.519231 104.131410 353.689103 5.894231 355.858974 5.894231 358.028846 5.894231 360.198718 5.894231 362.368590 5.894231 364.538462 5.894231 366.708333 5.894231 368.878205 5.894231 371.048077 5.894231 373.217949 5.894231 375.387821 5.894231 377.557692 5.894231 379.727564 5.894231 381.897436 5.894231 384.067308 5.894231 386.237179 5.894231 388.407051 5.894231 390.576923 5.894231 392.746795 5.894231 394.916667 5.894231 397.086538 5.894231 399.256410 5.894231 401.426282 5.894231 403.596154 5.894231 405.766026 5.894231 407.935897 5.894231 410.105769 5.894231 412.275641 5.894231 414.445513 5.894231 416.615385 5.894231 418.785256 5.894231 420.955128 5.894231 423.125000 5.894231 425.294872 5.894231 427.464744 5.894231 429.634615 5.894231 431.804487 5.894231 433.974359 5.894231 436.144231 5.894231 438.314103 5.894231 440.483974 5.894231 442.653846 5.894231 444.823718 5.894231 446.993590 5.894231 449.163462 5.894231 451.333333 5.894231 453.503205 5.894231 455.673077 5.894231 457.842949 5.894231 460.012821 5.894231 462.182692 5.894231 464.352564 5.894231 466.522436 5.894231 468.692308 5.894231 470.862179 5.894231 473.032051 5.894231 475.201923 5.894231 477.371795 5.894231 479.541667 5.894231 481.711538 5.894231 483.881410 5.894231 486.051282 5.894231 488.221154 5.894231 490.391026 5.894231 492.560897 5.894231 494.730769 5.894231 496.900641 5.894231 499.070513 5.894231 501.240385 5.894231 503.410256 5.894231 505.580128 5.894231 507.750000 5.894231 509.919872 5.894231 512.089744 5.894231 514.259615 5.894231 516.429487 5.894231 518.599359 5.894231 520.769231 5.894231 522.939103 5.894231 525.108974 5.894231 527.278846 5.894231 529.448718 5.894231 531.618590 5.894231 533.788462 5.894231 535.958333 5.894231 538.128205 5.894231 540.298077 5.894231 542.467949 5.894231 544.637821 5.894231 546.807692 5.894231 548.977564 5.894231 551.147436 5.894231 553.317308 5.894231 555.487179 5.894231 557.657051 5.894231 559.826923 5.894231 561.996795 5.894231 564.166667 5.894231 566.336538 5.894231 568.506410 5.894231 570.676282 5.894231 572.846154 5.894231 575.016026 5.894231 577.185897 5.894231 579.355769 5.894231 581.525641 5.894231 583.695513 5.894231 585.865385 5.894231 588.035256 5.894231 590.205128 5.894231 592.375000 5.894231 594.544872 5.894231 596.714744 5.894231 598.884615 5.894231 601.054487 5.894231 603.224359 5.894231 605.394231 5.894231 607.564103 5.894231 609.733974 5.894231 611.903846 5.894231 614.073718 5.894231 616.243590 5.894231 618.413462 5.894231 620.583333 5.894231 622.753205 5.894231 624.923077 5.894231 627.092949 5.894231 629.262821 5.894231 631.432692 5.894231 633.602564 5.894231 635.772436 5.894231 637.942308 5.894231 640.112179 5.894231 642.282051 5.894231 644.451923 5.894231 646.621795 5.894231 648.791667 5.894231 650.961538 5.894231 653.131410 5.894231 655.301282 5.894231 657.471154 5.894231 659.641026 5.894231 661.810897 5.894231 663.980769 5.894231"/></g><g class="series serie-7 color-7"><path class="line reactive nofill" d="M13.019231 5.894231 L15.189103 5.894231 17.358974 5.894231 19.528846 5.894231 21.698718 5.894231 23.868590 5.894231 26.038462 5.894231 28.208333 5.894231 30.378205 5.894231 32.548077 5.894231 34.717949 5.894231 36.887821 5.894231 39.057692 5.894231 41.227564 5.894231 43.397436 5.894231 45.567308 5.894231 47.737179 5.894231 49.907051 5.894231 52.076923 5.894231 54.246795 5.894231 56.416667 5.894231 58.586538 5.894231 60.756410 5.894231 62.926282 5.894231 65.096154 5.894231 67.266026 5.894231 69.435897 5.894231 71.605769 5.894231 73.775641 5.894231 75.945513 5.894231 78.115385 5.894231 80.285256 5.894231 82.455128 5.894231 84.625000 5.894231 86.794872 5.894231 88.964744 5.894231 91.134615 5.894231 93.304487 5.894231 95.474359 5.894231 97.644231 5.894231 99.814103 5.894231 101.983974 5.894231 104.153846 5.894231 106.323718 5.894231 108.493590 5.894231 110.663462 5.894231 112.833333 5.894231 115.003205 5.894231 117.173077 5.894231 119.342949 5.894231 121.512821 5.894231 123.682692 5.894231 125.852564 5.894231 128.022436 5.894231 130.192308 5.894231 132.362179 5.894231 134.532051 5.894231 136.701923 5.894231 138.871795 5.894231 141.041667 5.894231 143.211538 5.894231 145.381410 5.894231 147.551282 5.894231 149.721154 5.894231 151.891026 5.894231 154.060897 5.894231 156.230769 5.894231 158.400641 5.894231 160.570513 5.894231 162.740385 5.894231 164.910256 5.894231 167.080128 5.894231 169.250000 5.894231 171.419872 5.894231 173.589744 5.894231 175.759615 5.894231 177.929487 5.894231 180.099359 5.894231 182.269231 5.894231 184.439103 5.894231 186.608974 5.894231 188.778846 5.894231 190.948718 5.894231 193.118590 5.894231 195.288462 23.230204 197.458333 23.230204 199.628205 23.230204 201.798077 23.230204 203.967949 23.230204 206.137821 25.541667 208.307692 25.541667 210.477564 25.541667 212.647436 35.365385 214.817308 35.365385 216.987179 38.639957 219.157051 47.995879 221.326923 42.733173 223.496795 42.733173 225.666667 47.995879 227.836538 104.131410 230.006410 79.572115 232.176282 86.270105 234.346154 73.904586 236.516026 73.904586 238.685897 79.572115 240.855769 59.478147 243.025641 51.234467 245.195513 55.012821 247.365385 51.234467 249.535256 51.234467 251.705128 61.152644 253.875000 57.902149 256.044872 55.012821 258.214744 55.012821 260.384615 52.427632 262.554487 52.427632 264.724359 50.100962 266.894231 52.427632 269.064103 52.427632 271.233974 52.427632 273.403846 22.267094 275.573718 25.541667 277.743590 23.230204 279.913462 25.541667 282.083333 26.945055 284.253205 26.945055 286.423077 26.945055 288.592949 30.453526 290.762821 30.453526 292.932692 32.686189 295.102564 32.686189 297.272436 5.894231 299.442308 5.894231 301.612179 5.894231 303.782051 5.894231 305.951923 5.894231 308.121795 47.995879 310.291667 55.012821 312.461538 55.012821 314.631410 55.012821 316.801282 55.012821 318.971154 79.572115 321.141026 79.572115 323.310897 202.368590 325.480769 202.368590 327.650641 202.368590 329.820513 153.250000 331.990385 153.250000 334.160256 153.250000 336.330128 153.250000 338.500000 153.250000 340.669872 153.250000 342.839744 153.250000 345.009615 153.250000 347.179487 153.250000 349.349359 202.368590 351.519231 202.368590 353.689103 153.250000 355.858974 153.250000 358.028846 153.250000 360.198718 153.250000 362.368590 153.250000 364.538462 153.250000 366.708333 153.250000 368.878205 5.894231 371.048077 5.894231 373.217949 5.894231 375.387821 5.894231 377.557692 5.894231 379.727564 5.894231 381.897436 5.894231 384.067308 5.894231 386.237179 5.894231 388.407051 5.894231 390.576923 5.894231 392.746795 5.894231 394.916667 5.894231 397.086538 5.894231 399.256410 5.894231 401.426282 5.894231 403.596154 5.894231 405.766026 5.894231 407.935897 5.894231 410.105769 5.894231 412.275641 5.894231 414.445513 5.894231 416.615385 5.894231 418.785256 5.894231 420.955128 5.894231 423.125000 5.894231 425.294872 5.894231 427.464744 5.894231 429.634615 5.894231 431.804487 5.894231 433.974359 5.894231 436.144231 5.894231 438.314103 5.894231 440.483974 5.894231 442.653846 5.894231 444.823718 5.894231 446.993590 5.894231 449.163462 5.894231 451.333333 5.894231 453.503205 5.894231 455.673077 5.894231 457.842949 5.894231 460.012821 5.894231 462.182692 5.894231 464.352564 5.894231 466.522436 5.894231 468.692308 5.894231 470.862179 5.894231 473.032051 5.894231 475.201923 5.894231 477.371795 5.894231 479.541667 5.894231 481.711538 5.894231 483.881410 5.894231 486.051282 5.894231 488.221154 5.894231 490.391026 5.894231 492.560897 5.894231 494.730769 5.894231 496.900641 5.894231 499.070513 5.894231 501.240385 5.894231 503.410256 5.894231 505.580128 5.894231 507.750000 5.894231 509.919872 5.894231 512.089744 5.894231 514.259615 5.894231 516.429487 5.894231 518.599359 5.894231 520.769231 5.894231 522.939103 5.894231 525.108974 5.894231 527.278846 5.894231 529.448718 5.894231 531.618590 5.894231 533.788462 5.894231 535.958333 5.894231 538.128205 5.894231 540.298077 5.894231 542.467949 5.894231 544.637821 5.894231 546.807692 5.894231 548.977564 5.894231 551.147436 5.894231 553.317308 5.894231 555.487179 5.894231 557.657051 5.894231 559.826923 5.894231 561.996795 5.894231 564.166667 5.894231 566.336538 5.894231 568.506410 5.894231 570.676282 5.894231 572.846154 5.894231 575.016026 5.894231 577.185897 5.894231 579.355769 5.894231 581.525641 5.894231 583.695513 5.894231 585.865385 5.894231 588.035256 5.894231 590.205128 5.894231 592.375000 5.894231 594.544872 5.894231 596.714744 5.894231 598.884615 5.894231 601.054487 5.894231 603.224359 5.894231 605.394231 5.894231 607.564103 5.894231 609.733974 5.894231 611.903846 5.894231 614.073718 5.894231 616.243590 5.894231 618.413462 5.894231 620.583333 5.894231 622.753205 5.894231 624.923077 5.894231 627.092949 5.894231 629.262821 5.894231 631.432692 5.894231 633.602564 5.894231 635.772436 5.894231 637.942308 5.894231 640.112179 5.894231 642.282051 5.894231 644.451923 5.894231 646.621795 5.894231 648.791667 5.894231 650.961538 5.894231 653.131410 5.894231 655.301282 5.894231 657.471154 5.894231 659.641026 5.894231 661.810897 5.894231 663.980769 5.894231"/></g></g><g class="titles"><text class="title plot_title" x="400.0" y="28">Mean Accuracy1 for Tempo T ±10.0 BPM</text><text class="title" x="441.5" y="437.5">T (BPM)</text><text class="title" x="0" y="229.25" transform="rotate(-90 0.000000 201.250000)">Mean Accuracy1 (%)</text></g><g class="plot overlay" transform="translate(103, 48)"><g class="series serie-0 color-0"><g class="dots"><circle class="dot reactive tooltip-trigger" cx="13.01923076923077" cy="5.894230769230774" r="2.5"/><desc class="value">100.0</desc><desc class="x ">13.01923076923077</desc><desc class="y ">5.894230769230774</desc><desc class="x_label">0.0</desc></g><g class="dots"><circle class="dot reactive tooltip-trigger" cx="78.11538461538463" cy="5.894230769230774" r="2.5"/><desc class="value">100.0</desc><desc class="x ">78.11538461538463</desc><desc class="y ">5.894230769230774</desc><desc class="x_label">30.0</desc></g><g class="dots"><circle class="dot reactive tooltip-trigger" cx="143.21153846153845" cy="300.6057692307692" r="2.5"/><desc class="value">0.0</desc><desc class="x top">143.21153846153845</desc><desc class="y top">300.6057692307692</desc><desc class="x_label">60.0</desc></g><g class="dots"><circle class="dot reactive tooltip-trigger" cx="208.30769230769232" cy="45.18910256410254" r="2.5"/><desc class="value">86.7</desc><desc class="x ">208.30769230769232</desc><desc class="y ">45.18910256410254</desc><desc class="x_label">90.0</desc></g><g class="dots"><circle class="dot reactive tooltip-trigger" cx="273.4038461538462" cy="55.0128205128205" r="2.5"/><desc class="value">83.3</desc><desc class="x ">273.4038461538462</desc><desc class="y ">55.0128205128205</desc><desc class="x_label">120.0</desc></g><g class="dots"><circle class="dot reactive tooltip-trigger" cx="338.5" cy="153.25" r="2.5"/><desc class="value">50.0</desc><desc class="x ">338.5</desc><desc class="y ">153.25</desc><desc class="x_label">150.0</desc></g><g class="dots"><circle class="dot reactive tooltip-trigger" cx="403.59615384615387" cy="5.894230769230774" r="2.5"/><desc class="value">100.0</desc><desc class="x left">403.59615384615387</desc><desc class="y left">5.894230769230774</desc><desc class="x_label">180.0</desc></g><g class="dots"><circle class="dot reactive tooltip-trigger" cx="468.6923076923077" cy="5.894230769230774" r="2.5"/><desc class="value">100.0</desc><desc class="x left">468.6923076923077</desc><desc class="y left">5.894230769230774</desc><desc class="x_label">210.0</desc></g><g class="dots"><circle class="dot reactive tooltip-trigger" cx="533.7884615384615" cy="5.894230769230774" r="2.5"/><desc class="value">100.0</desc><desc class="x left">533.7884615384615</desc><desc class="y left">5.894230769230774</desc><desc class="x_label">240.0</desc></g><g class="dots"><circle class="dot reactive tooltip-trigger" cx="598.8846153846154" cy="5.894230769230774" r="2.5"/><desc class="value">100.0</desc><desc class="x left">598.8846153846154</desc><desc class="y left">5.894230769230774</desc><desc class="x_label">270.0</desc></g><g class="dots"><circle class="dot reactive tooltip-trigger" cx="663.9807692307692" cy="5.894230769230774" r="2.5"/><desc class="value">100.0</desc><desc class="x left">663.9807692307692</desc><desc class="y left">5.894230769230774</desc><desc class="x_label">300.0</desc></g></g><g class="series serie-1 color-1"><g class="dots"><circle class="dot reactive tooltip-trigger" cx="13.01923076923077" cy="5.894230769230774" r="2.5"/><desc class="value">100.0</desc><desc class="x ">13.01923076923077</desc><desc class="y ">5.894230769230774</desc><desc class="x_label">0.0</desc></g><g class="dots"><circle class="dot reactive tooltip-trigger" cx="78.11538461538463" cy="5.894230769230774" r="2.5"/><desc class="value">100.0</desc><desc class="x ">78.11538461538463</desc><desc class="y ">5.894230769230774</desc><desc class="x_label">30.0</desc></g><g class="dots"><circle class="dot reactive tooltip-trigger" cx="143.21153846153845" cy="300.6057692307692" r="2.5"/><desc class="value">0.0</desc><desc class="x top">143.21153846153845</desc><desc class="y top">300.6057692307692</desc><desc class="x_label">60.0</desc></g><g class="dots"><circle class="dot reactive tooltip-trigger" cx="208.30769230769232" cy="104.13141025641028" r="2.5"/><desc class="value">66.7</desc><desc class="x ">208.30769230769232</desc><desc class="y ">104.13141025641028</desc><desc class="x_label">90.0</desc></g><g class="dots"><circle class="dot reactive tooltip-trigger" cx="273.4038461538462" cy="5.894230769230774" r="2.5"/><desc class="value">100.0</desc><desc class="x ">273.4038461538462</desc><desc class="y ">5.894230769230774</desc><desc class="x_label">120.0</desc></g><g class="dots"><circle class="dot reactive tooltip-trigger" cx="338.5" cy="5.894230769230774" r="2.5"/><desc class="value">100.0</desc><desc class="x ">338.5</desc><desc class="y ">5.894230769230774</desc><desc class="x_label">150.0</desc></g><g class="dots"><circle class="dot reactive tooltip-trigger" cx="403.59615384615387" cy="5.894230769230774" r="2.5"/><desc class="value">100.0</desc><desc class="x left">403.59615384615387</desc><desc class="y left">5.894230769230774</desc><desc class="x_label">180.0</desc></g><g class="dots"><circle class="dot reactive tooltip-trigger" cx="468.6923076923077" cy="5.894230769230774" r="2.5"/><desc class="value">100.0</desc><desc class="x left">468.6923076923077</desc><desc class="y left">5.894230769230774</desc><desc class="x_label">210.0</desc></g><g class="dots"><circle class="dot reactive tooltip-trigger" cx="533.7884615384615" cy="5.894230769230774" r="2.5"/><desc class="value">100.0</desc><desc class="x left">533.7884615384615</desc><desc class="y left">5.894230769230774</desc><desc class="x_label">240.0</desc></g><g class="dots"><circle class="dot reactive tooltip-trigger" cx="598.8846153846154" cy="5.894230769230774" r="2.5"/><desc class="value">100.0</desc><desc class="x left">598.8846153846154</desc><desc class="y left">5.894230769230774</desc><desc class="x_label">270.0</desc></g><g class="dots"><circle class="dot reactive tooltip-trigger" cx="663.9807692307692" cy="5.894230769230774" r="2.5"/><desc class="value">100.0</desc><desc class="x left">663.9807692307692</desc><desc class="y left">5.894230769230774</desc><desc class="x_label">300.0</desc></g></g><g class="series serie-2 color-2"><g class="dots"><circle class="dot reactive tooltip-trigger" cx="13.01923076923077" cy="5.894230769230774" r="2.5"/><desc class="value">100.0</desc><desc class="x ">13.01923076923077</desc><desc class="y ">5.894230769230774</desc><desc class="x_label">0.0</desc></g><g class="dots"><circle class="dot reactive tooltip-trigger" cx="78.11538461538463" cy="5.894230769230774" r="2.5"/><desc class="value">100.0</desc><desc class="x ">78.11538461538463</desc><desc class="y ">5.894230769230774</desc><desc class="x_label">30.0</desc></g><g class="dots"><circle class="dot reactive tooltip-trigger" cx="143.21153846153845" cy="5.894230769230774" r="2.5"/><desc class="value">100.0</desc><desc class="x ">143.21153846153845</desc><desc class="y ">5.894230769230774</desc><desc class="x_label">60.0</desc></g><g class="dots"><circle class="dot reactive tooltip-trigger" cx="208.30769230769232" cy="25.541666666666686" r="2.5"/><desc class="value">93.3</desc><desc class="x ">208.30769230769232</desc><desc class="y ">25.541666666666686</desc><desc class="x_label">90.0</desc></g><g class="dots"><circle class="dot reactive tooltip-trigger" cx="273.4038461538462" cy="5.894230769230774" r="2.5"/><desc class="value">100.0</desc><desc class="x ">273.4038461538462</desc><desc class="y ">5.894230769230774</desc><desc class="x_label">120.0</desc></g><g class="dots"><circle class="dot reactive tooltip-trigger" cx="338.5" cy="300.6057692307692" r="2.5"/><desc class="value">0.0</desc><desc class="x top">338.5</desc><desc class="y top">300.6057692307692</desc><desc class="x_label">150.0</desc></g><g class="dots"><circle class="dot reactive tooltip-trigger" cx="403.59615384615387" cy="5.894230769230774" r="2.5"/><desc class="value">100.0</desc><desc class="x left">403.59615384615387</desc><desc class="y left">5.894230769230774</desc><desc class="x_label">180.0</desc></g><g class="dots"><circle class="dot reactive tooltip-trigger" cx="468.6923076923077" cy="5.894230769230774" r="2.5"/><desc class="value">100.0</desc><desc class="x left">468.6923076923077</desc><desc class="y left">5.894230769230774</desc><desc class="x_label">210.0</desc></g><g class="dots"><circle class="dot reactive tooltip-trigger" cx="533.7884615384615" cy="5.894230769230774" r="2.5"/><desc class="value">100.0</desc><desc class="x left">533.7884615384615</desc><desc class="y left">5.894230769230774</desc><desc class="x_label">240.0</desc></g><g class="dots"><circle class="dot reactive tooltip-trigger" cx="598.8846153846154" cy="5.894230769230774" r="2.5"/><desc class="value">100.0</desc><desc class="x left">598.8846153846154</desc><desc class="y left">5.894230769230774</desc><desc class="x_label">270.0</desc></g><g class="dots"><circle class="dot reactive tooltip-trigger" cx="663.9807692307692" cy="5.894230769230774" r="2.5"/><desc class="value">100.0</desc><desc class="x left">663.9807692307692</desc><desc class="y left">5.894230769230774</desc><desc class="x_label">300.0</desc></g></g><g class="series serie-3 color-3"><g class="dots"><circle class="dot reactive tooltip-trigger" cx="13.01923076923077" cy="5.894230769230774" r="2.5"/><desc class="value">100.0</desc><desc class="x ">13.01923076923077</desc><desc class="y ">5.894230769230774</desc><desc class="x_label">0.0</desc></g><g class="dots"><circle class="dot reactive tooltip-trigger" cx="78.11538461538463" cy="5.894230769230774" r="2.5"/><desc class="value">100.0</desc><desc class="x ">78.11538461538463</desc><desc class="y ">5.894230769230774</desc><desc class="x_label">30.0</desc></g><g class="dots"><circle class="dot reactive tooltip-trigger" cx="143.21153846153845" cy="5.894230769230774" r="2.5"/><desc class="value">100.0</desc><desc class="x ">143.21153846153845</desc><desc class="y ">5.894230769230774</desc><desc class="x_label">60.0</desc></g><g class="dots"><circle class="dot reactive tooltip-trigger" cx="208.30769230769232" cy="64.83653846153845" r="2.5"/><desc class="value">80.0</desc><desc class="x ">208.30769230769232</desc><desc class="y ">64.83653846153845</desc><desc class="x_label">90.0</desc></g><g class="dots"><circle class="dot reactive tooltip-trigger" cx="273.4038461538462" cy="22.267094017093996" r="2.5"/><desc class="value">94.4</desc><desc class="x ">273.4038461538462</desc><desc class="y ">22.267094017093996</desc><desc class="x_label">120.0</desc></g><g class="dots"><circle class="dot reactive tooltip-trigger" cx="338.5" cy="226.9278846153846" r="2.5"/><desc class="value">25.0</desc><desc class="x top">338.5</desc><desc class="y top">226.9278846153846</desc><desc class="x_label">150.0</desc></g><g class="dots"><circle class="dot reactive tooltip-trigger" cx="403.59615384615387" cy="5.894230769230774" r="2.5"/><desc class="value">100.0</desc><desc class="x left">403.59615384615387</desc><desc class="y left">5.894230769230774</desc><desc class="x_label">180.0</desc></g><g class="dots"><circle class="dot reactive tooltip-trigger" cx="468.6923076923077" cy="5.894230769230774" r="2.5"/><desc class="value">100.0</desc><desc class="x left">468.6923076923077</desc><desc class="y left">5.894230769230774</desc><desc class="x_label">210.0</desc></g><g class="dots"><circle class="dot reactive tooltip-trigger" cx="533.7884615384615" cy="5.894230769230774" r="2.5"/><desc class="value">100.0</desc><desc class="x left">533.7884615384615</desc><desc class="y left">5.894230769230774</desc><desc class="x_label">240.0</desc></g><g class="dots"><circle class="dot reactive tooltip-trigger" cx="598.8846153846154" cy="5.894230769230774" r="2.5"/><desc class="value">100.0</desc><desc class="x left">598.8846153846154</desc><desc class="y left">5.894230769230774</desc><desc class="x_label">270.0</desc></g><g class="dots"><circle class="dot reactive tooltip-trigger" cx="663.9807692307692" cy="5.894230769230774" r="2.5"/><desc class="value">100.0</desc><desc class="x left">663.9807692307692</desc><desc class="y left">5.894230769230774</desc><desc class="x_label">300.0</desc></g></g><g class="series serie-4 color-4"><g class="dots"><circle class="dot reactive tooltip-trigger" cx="13.01923076923077" cy="5.894230769230774" r="2.5"/><desc class="value">100.0</desc><desc class="x ">13.01923076923077</desc><desc class="y ">5.894230769230774</desc><desc class="x_label">0.0</desc></g><g class="dots"><circle class="dot reactive tooltip-trigger" cx="78.11538461538463" cy="5.894230769230774" r="2.5"/><desc class="value">100.0</desc><desc class="x ">78.11538461538463</desc><desc class="y ">5.894230769230774</desc><desc class="x_label">30.0</desc></g><g class="dots"><circle class="dot reactive tooltip-trigger" cx="143.21153846153845" cy="5.894230769230774" r="2.5"/><desc class="value">100.0</desc><desc class="x ">143.21153846153845</desc><desc class="y ">5.894230769230774</desc><desc class="x_label">60.0</desc></g><g class="dots"><circle class="dot reactive tooltip-trigger" cx="208.30769230769232" cy="84.4839743589744" r="2.5"/><desc class="value">73.3</desc><desc class="x ">208.30769230769232</desc><desc class="y ">84.4839743589744</desc><desc class="x_label">90.0</desc></g><g class="dots"><circle class="dot reactive tooltip-trigger" cx="273.4038461538462" cy="22.267094017093996" r="2.5"/><desc class="value">94.4</desc><desc class="x ">273.4038461538462</desc><desc class="y ">22.267094017093996</desc><desc class="x_label">120.0</desc></g><g class="dots"><circle class="dot reactive tooltip-trigger" cx="338.5" cy="153.25" r="2.5"/><desc class="value">50.0</desc><desc class="x ">338.5</desc><desc class="y ">153.25</desc><desc class="x_label">150.0</desc></g><g class="dots"><circle class="dot reactive tooltip-trigger" cx="403.59615384615387" cy="5.894230769230774" r="2.5"/><desc class="value">100.0</desc><desc class="x left">403.59615384615387</desc><desc class="y left">5.894230769230774</desc><desc class="x_label">180.0</desc></g><g class="dots"><circle class="dot reactive tooltip-trigger" cx="468.6923076923077" cy="5.894230769230774" r="2.5"/><desc class="value">100.0</desc><desc class="x left">468.6923076923077</desc><desc class="y left">5.894230769230774</desc><desc class="x_label">210.0</desc></g><g class="dots"><circle class="dot reactive tooltip-trigger" cx="533.7884615384615" cy="5.894230769230774" r="2.5"/><desc class="value">100.0</desc><desc class="x left">533.7884615384615</desc><desc class="y left">5.894230769230774</desc><desc class="x_label">240.0</desc></g><g class="dots"><circle class="dot reactive tooltip-trigger" cx="598.8846153846154" cy="5.894230769230774" r="2.5"/><desc class="value">100.0</desc><desc class="x left">598.8846153846154</desc><desc class="y left">5.894230769230774</desc><desc class="x_label">270.0</desc></g><g class="dots"><circle class="dot reactive tooltip-trigger" cx="663.9807692307692" cy="5.894230769230774" r="2.5"/><desc class="value">100.0</desc><desc class="x left">663.9807692307692</desc><desc class="y left">5.894230769230774</desc><desc class="x_label">300.0</desc></g></g><g class="series serie-5 color-5"><g class="dots"><circle class="dot reactive tooltip-trigger" cx="13.01923076923077" cy="5.894230769230774" r="2.5"/><desc class="value">100.0</desc><desc class="x ">13.01923076923077</desc><desc class="y ">5.894230769230774</desc><desc class="x_label">0.0</desc></g><g class="dots"><circle class="dot reactive tooltip-trigger" cx="78.11538461538463" cy="5.894230769230774" r="2.5"/><desc class="value">100.0</desc><desc class="x ">78.11538461538463</desc><desc class="y ">5.894230769230774</desc><desc class="x_label">30.0</desc></g><g class="dots"><circle class="dot reactive tooltip-trigger" cx="143.21153846153845" cy="5.894230769230774" r="2.5"/><desc class="value">100.0</desc><desc class="x ">143.21153846153845</desc><desc class="y ">5.894230769230774</desc><desc class="x_label">60.0</desc></g><g class="dots"><circle class="dot reactive tooltip-trigger" cx="208.30769230769232" cy="104.13141025641028" r="2.5"/><desc class="value">66.7</desc><desc class="x ">208.30769230769232</desc><desc class="y ">104.13141025641028</desc><desc class="x_label">90.0</desc></g><g class="dots"><circle class="dot reactive tooltip-trigger" cx="273.4038461538462" cy="22.267094017093996" r="2.5"/><desc class="value">94.4</desc><desc class="x ">273.4038461538462</desc><desc class="y ">22.267094017093996</desc><desc class="x_label">120.0</desc></g><g class="dots"><circle class="dot reactive tooltip-trigger" cx="338.5" cy="153.25" r="2.5"/><desc class="value">50.0</desc><desc class="x ">338.5</desc><desc class="y ">153.25</desc><desc class="x_label">150.0</desc></g><g class="dots"><circle class="dot reactive tooltip-trigger" cx="403.59615384615387" cy="5.894230769230774" r="2.5"/><desc class="value">100.0</desc><desc class="x left">403.59615384615387</desc><desc class="y left">5.894230769230774</desc><desc class="x_label">180.0</desc></g><g class="dots"><circle class="dot reactive tooltip-trigger" cx="468.6923076923077" cy="5.894230769230774" r="2.5"/><desc class="value">100.0</desc><desc class="x left">468.6923076923077</desc><desc class="y left">5.894230769230774</desc><desc class="x_label">210.0</desc></g><g class="dots"><circle class="dot reactive tooltip-trigger" cx="533.7884615384615" cy="5.894230769230774" r="2.5"/><desc class="value">100.0</desc><desc class="x left">533.7884615384615</desc><desc class="y left">5.894230769230774</desc><desc class="x_label">240.0</desc></g><g class="dots"><circle class="dot reactive tooltip-trigger" cx="598.8846153846154" cy="5.894230769230774" r="2.5"/><desc class="value">100.0</desc><desc class="x left">598.8846153846154</desc><desc class="y left">5.894230769230774</desc><desc class="x_label">270.0</desc></g><g class="dots"><circle class="dot reactive tooltip-trigger" cx="663.9807692307692" cy="5.894230769230774" r="2.5"/><desc class="value">100.0</desc><desc class="x left">663.9807692307692</desc><desc class="y left">5.894230769230774</desc><desc class="x_label">300.0</desc></g></g><g class="series serie-6 color-6"><g class="dots"><circle class="dot reactive tooltip-trigger" cx="13.01923076923077" cy="5.894230769230774" r="2.5"/><desc class="value">100.0</desc><desc class="x ">13.01923076923077</desc><desc class="y ">5.894230769230774</desc><desc class="x_label">0.0</desc></g><g class="dots"><circle class="dot reactive tooltip-trigger" cx="78.11538461538463" cy="5.894230769230774" r="2.5"/><desc class="value">100.0</desc><desc class="x ">78.11538461538463</desc><desc class="y ">5.894230769230774</desc><desc class="x_label">30.0</desc></g><g class="dots"><circle class="dot reactive tooltip-trigger" cx="143.21153846153845" cy="5.894230769230774" r="2.5"/><desc class="value">100.0</desc><desc class="x ">143.21153846153845</desc><desc class="y ">5.894230769230774</desc><desc class="x_label">60.0</desc></g><g class="dots"><circle class="dot reactive tooltip-trigger" cx="208.30769230769232" cy="25.541666666666686" r="2.5"/><desc class="value">93.3</desc><desc class="x ">208.30769230769232</desc><desc class="y ">25.541666666666686</desc><desc class="x_label">90.0</desc></g><g class="dots"><circle class="dot reactive tooltip-trigger" cx="273.4038461538462" cy="5.894230769230774" r="2.5"/><desc class="value">100.0</desc><desc class="x ">273.4038461538462</desc><desc class="y ">5.894230769230774</desc><desc class="x_label">120.0</desc></g><g class="dots"><circle class="dot reactive tooltip-trigger" cx="338.5" cy="79.57211538461539" r="2.5"/><desc class="value">75.0</desc><desc class="x ">338.5</desc><desc class="y ">79.57211538461539</desc><desc class="x_label">150.0</desc></g><g class="dots"><circle class="dot reactive tooltip-trigger" cx="403.59615384615387" cy="5.894230769230774" r="2.5"/><desc class="value">100.0</desc><desc class="x left">403.59615384615387</desc><desc class="y left">5.894230769230774</desc><desc class="x_label">180.0</desc></g><g class="dots"><circle class="dot reactive tooltip-trigger" cx="468.6923076923077" cy="5.894230769230774" r="2.5"/><desc class="value">100.0</desc><desc class="x left">468.6923076923077</desc><desc class="y left">5.894230769230774</desc><desc class="x_label">210.0</desc></g><g class="dots"><circle class="dot reactive tooltip-trigger" cx="533.7884615384615" cy="5.894230769230774" r="2.5"/><desc class="value">100.0</desc><desc class="x left">533.7884615384615</desc><desc class="y left">5.894230769230774</desc><desc class="x_label">240.0</desc></g><g class="dots"><circle class="dot reactive tooltip-trigger" cx="598.8846153846154" cy="5.894230769230774" r="2.5"/><desc class="value">100.0</desc><desc class="x left">598.8846153846154</desc><desc class="y left">5.894230769230774</desc><desc class="x_label">270.0</desc></g><g class="dots"><circle class="dot reactive tooltip-trigger" cx="663.9807692307692" cy="5.894230769230774" r="2.5"/><desc class="value">100.0</desc><desc class="x left">663.9807692307692</desc><desc class="y left">5.894230769230774</desc><desc class="x_label">300.0</desc></g></g><g class="series serie-7 color-7"><g class="dots"><circle class="dot reactive tooltip-trigger" cx="13.01923076923077" cy="5.894230769230774" r="2.5"/><desc class="value">100.0</desc><desc class="x ">13.01923076923077</desc><desc class="y ">5.894230769230774</desc><desc class="x_label">0.0</desc></g><g class="dots"><circle class="dot reactive tooltip-trigger" cx="78.11538461538463" cy="5.894230769230774" r="2.5"/><desc class="value">100.0</desc><desc class="x ">78.11538461538463</desc><desc class="y ">5.894230769230774</desc><desc class="x_label">30.0</desc></g><g class="dots"><circle class="dot reactive tooltip-trigger" cx="143.21153846153845" cy="5.894230769230774" r="2.5"/><desc class="value">100.0</desc><desc class="x ">143.21153846153845</desc><desc class="y ">5.894230769230774</desc><desc class="x_label">60.0</desc></g><g class="dots"><circle class="dot reactive tooltip-trigger" cx="208.30769230769232" cy="25.541666666666686" r="2.5"/><desc class="value">93.3</desc><desc class="x ">208.30769230769232</desc><desc class="y ">25.541666666666686</desc><desc class="x_label">90.0</desc></g><g class="dots"><circle class="dot reactive tooltip-trigger" cx="273.4038461538462" cy="22.267094017093996" r="2.5"/><desc class="value">94.4</desc><desc class="x ">273.4038461538462</desc><desc class="y ">22.267094017093996</desc><desc class="x_label">120.0</desc></g><g class="dots"><circle class="dot reactive tooltip-trigger" cx="338.5" cy="153.25" r="2.5"/><desc class="value">50.0</desc><desc class="x ">338.5</desc><desc class="y ">153.25</desc><desc class="x_label">150.0</desc></g><g class="dots"><circle class="dot reactive tooltip-trigger" cx="403.59615384615387" cy="5.894230769230774" r="2.5"/><desc class="value">100.0</desc><desc class="x left">403.59615384615387</desc><desc class="y left">5.894230769230774</desc><desc class="x_label">180.0</desc></g><g class="dots"><circle class="dot reactive tooltip-trigger" cx="468.6923076923077" cy="5.894230769230774" r="2.5"/><desc class="value">100.0</desc><desc class="x left">468.6923076923077</desc><desc class="y left">5.894230769230774</desc><desc class="x_label">210.0</desc></g><g class="dots"><circle class="dot reactive tooltip-trigger" cx="533.7884615384615" cy="5.894230769230774" r="2.5"/><desc class="value">100.0</desc><desc class="x left">533.7884615384615</desc><desc class="y left">5.894230769230774</desc><desc class="x_label">240.0</desc></g><g class="dots"><circle class="dot reactive tooltip-trigger" cx="598.8846153846154" cy="5.894230769230774" r="2.5"/><desc class="value">100.0</desc><desc class="x left">598.8846153846154</desc><desc class="y left">5.894230769230774</desc><desc class="x_label">270.0</desc></g><g class="dots"><circle class="dot reactive tooltip-trigger" cx="663.9807692307692" cy="5.894230769230774" r="2.5"/><desc class="value">100.0</desc><desc class="x left">663.9807692307692</desc><desc class="y left">5.894230769230774</desc><desc class="x_label">300.0</desc></g></g></g><g class="plot text-overlay" transform="translate(103, 48)"><g class="series serie-0 color-0"/><g class="series serie-1 color-1"/><g class="series serie-2 color-2"/><g class="series serie-3 color-3"/><g class="series serie-4 color-4"/><g class="series serie-5 color-5"/><g class="series serie-6 color-6"/><g class="series serie-7 color-7"/></g><g class="plot tooltip-overlay" transform="translate(103, 48)"><g class="tooltip" style="opacity: 0" transform="translate(0 0)"><rect class="tooltip-box" height="0" rx="0" ry="0" width="0"/><g class="text"/></g></g><g class="legends" transform="translate(113, 457)"><g class="legend reactive activate-serie" id="activate-serie-0"><rect class="color-0 reactive" height="12" width="12" x="0.0" y="1.5"/><text x="17.0" y="12.0">boeck2015/tempodetector2016_default</text></g><g class="legend reactive activate-serie" id="activate-serie-1"><rect class="color-1 reactive" height="12" width="12" x="338.5" y="1.5"/><text x="355.5" y="12.0">davies2009/mirex_qm_tempotracker</text></g><g class="legend reactive activate-serie" id="activate-serie-2"><rect class="color-2 reactive" height="12" width="12" x="0.0" y="24.0"/><text x="17.0" y="34.5">percival2014/stem</text></g><g class="legend reactive activate-serie" id="activate-serie-3"><rect class="color-3 reactive" height="12" width="12" x="338.5" y="24.0"/><text x="355.5" y="34.5">schreiber2014/default</text></g><g class="legend reactive activate-serie" id="activate-serie-4"><rect class="color-4 reactive" height="12" width="12" x="0.0" y="46.5"/><text x="17.0" y="57.0">schreiber2017/ismir2017</text></g><g class="legend reactive activate-serie" id="activate-serie-5"><rect class="color-5 reactive" height="12" width="12" x="338.5" y="46.5"/><text x="355.5" y="57.0">schreiber2017/mirex2017</text></g><g class="legend reactive activate-serie" id="activate-serie-6"><rect class="color-6 reactive" height="12" width="12" x="0.0" y="69.0"/><text x="17.0" y="79.5">schreiber2018/cnn</text></g><g class="legend reactive activate-serie" id="activate-serie-7"><rect class="color-7 reactive" height="12" width="12" x="338.5" y="69.0"/><text x="355.5" y="79.5">schreiber2018/fcn</text></g></g></g></svg>