<?xml version="1.0" encoding="utf-8" standalone="no"?>
<!DOCTYPE svg PUBLIC "-//W3C//DTD SVG 1.1//EN"
  "http://www.w3.org/Graphics/SVG/1.1/DTD/svg11.dtd">
<!-- Created with matplotlib (http://matplotlib.org/) -->
<svg height="370.338375pt" version="1.1" viewBox="0 0 635.679688 370.338375" width="635.679688pt" xmlns="http://www.w3.org/2000/svg" xmlns:xlink="http://www.w3.org/1999/xlink">
 <defs>
  <style type="text/css">
*{stroke-linecap:butt;stroke-linejoin:round;}
  </style>
 </defs>
 <g id="figure_1">
  <g id="patch_1">
   <path d="M -0 370.338375 
L 635.679688 370.338375 
L 635.679688 0 
L -0 0 
z
" style="fill:#ffffff;"/>
  </g>
  <g id="axes_1">
   <g id="patch_2">
    <path d="M 226.746875 332.782125 
L 617.346875 332.782125 
L 617.346875 22.318125 
L 226.746875 22.318125 
z
" style="fill:#ffffff;"/>
   </g>
   <g id="matplotlib.axis_1">
    <g id="xtick_1">
     <g id="line2d_1">
      <path clip-path="url(#p06b13799d9)" d="M 226.746875 332.782125 
L 226.746875 22.318125 
" style="fill:none;stroke:#b0b0b0;stroke-linecap:square;stroke-width:0.8;"/>
     </g>
     <g id="line2d_2">
      <defs>
       <path d="M 0 0 
L 0 3.5 
" id="m406c82e60a" style="stroke:#000000;stroke-width:0.8;"/>
      </defs>
      <g>
       <use style="stroke:#000000;stroke-width:0.8;" x="226.746875" xlink:href="#m406c82e60a" y="332.782125"/>
      </g>
     </g>
     <g id="text_1">
      <!-- 0.00 -->
      <defs>
       <path d="M 31.78125 66.40625 
Q 24.171875 66.40625 20.328125 58.90625 
Q 16.5 51.421875 16.5 36.375 
Q 16.5 21.390625 20.328125 13.890625 
Q 24.171875 6.390625 31.78125 6.390625 
Q 39.453125 6.390625 43.28125 13.890625 
Q 47.125 21.390625 47.125 36.375 
Q 47.125 51.421875 43.28125 58.90625 
Q 39.453125 66.40625 31.78125 66.40625 
z
M 31.78125 74.21875 
Q 44.046875 74.21875 50.515625 64.515625 
Q 56.984375 54.828125 56.984375 36.375 
Q 56.984375 17.96875 50.515625 8.265625 
Q 44.046875 -1.421875 31.78125 -1.421875 
Q 19.53125 -1.421875 13.0625 8.265625 
Q 6.59375 17.96875 6.59375 36.375 
Q 6.59375 54.828125 13.0625 64.515625 
Q 19.53125 74.21875 31.78125 74.21875 
z
" id="DejaVuSans-30"/>
       <path d="M 10.6875 12.40625 
L 21 12.40625 
L 21 0 
L 10.6875 0 
z
" id="DejaVuSans-2e"/>
      </defs>
      <g transform="translate(215.614062 347.380562)scale(0.1 -0.1)">
       <use xlink:href="#DejaVuSans-30"/>
       <use x="63.623047" xlink:href="#DejaVuSans-2e"/>
       <use x="95.410156" xlink:href="#DejaVuSans-30"/>
       <use x="159.033203" xlink:href="#DejaVuSans-30"/>
      </g>
     </g>
    </g>
    <g id="xtick_2">
     <g id="line2d_3">
      <path clip-path="url(#p06b13799d9)" d="M 275.571875 332.782125 
L 275.571875 22.318125 
" style="fill:none;stroke:#b0b0b0;stroke-linecap:square;stroke-width:0.8;"/>
     </g>
     <g id="line2d_4">
      <g>
       <use style="stroke:#000000;stroke-width:0.8;" x="275.571875" xlink:href="#m406c82e60a" y="332.782125"/>
      </g>
     </g>
     <g id="text_2">
      <!-- 0.25 -->
      <defs>
       <path d="M 19.1875 8.296875 
L 53.609375 8.296875 
L 53.609375 0 
L 7.328125 0 
L 7.328125 8.296875 
Q 12.9375 14.109375 22.625 23.890625 
Q 32.328125 33.6875 34.8125 36.53125 
Q 39.546875 41.84375 41.421875 45.53125 
Q 43.3125 49.21875 43.3125 52.78125 
Q 43.3125 58.59375 39.234375 62.25 
Q 35.15625 65.921875 28.609375 65.921875 
Q 23.96875 65.921875 18.8125 64.3125 
Q 13.671875 62.703125 7.8125 59.421875 
L 7.8125 69.390625 
Q 13.765625 71.78125 18.9375 73 
Q 24.125 74.21875 28.421875 74.21875 
Q 39.75 74.21875 46.484375 68.546875 
Q 53.21875 62.890625 53.21875 53.421875 
Q 53.21875 48.921875 51.53125 44.890625 
Q 49.859375 40.875 45.40625 35.40625 
Q 44.1875 33.984375 37.640625 27.21875 
Q 31.109375 20.453125 19.1875 8.296875 
z
" id="DejaVuSans-32"/>
       <path d="M 10.796875 72.90625 
L 49.515625 72.90625 
L 49.515625 64.59375 
L 19.828125 64.59375 
L 19.828125 46.734375 
Q 21.96875 47.46875 24.109375 47.828125 
Q 26.265625 48.1875 28.421875 48.1875 
Q 40.625 48.1875 47.75 41.5 
Q 54.890625 34.8125 54.890625 23.390625 
Q 54.890625 11.625 47.5625 5.09375 
Q 40.234375 -1.421875 26.90625 -1.421875 
Q 22.3125 -1.421875 17.546875 -0.640625 
Q 12.796875 0.140625 7.71875 1.703125 
L 7.71875 11.625 
Q 12.109375 9.234375 16.796875 8.0625 
Q 21.484375 6.890625 26.703125 6.890625 
Q 35.15625 6.890625 40.078125 11.328125 
Q 45.015625 15.765625 45.015625 23.390625 
Q 45.015625 31 40.078125 35.4375 
Q 35.15625 39.890625 26.703125 39.890625 
Q 22.75 39.890625 18.8125 39.015625 
Q 14.890625 38.140625 10.796875 36.28125 
z
" id="DejaVuSans-35"/>
      </defs>
      <g transform="translate(264.439062 347.380562)scale(0.1 -0.1)">
       <use xlink:href="#DejaVuSans-30"/>
       <use x="63.623047" xlink:href="#DejaVuSans-2e"/>
       <use x="95.410156" xlink:href="#DejaVuSans-32"/>
       <use x="159.033203" xlink:href="#DejaVuSans-35"/>
      </g>
     </g>
    </g>
    <g id="xtick_3">
     <g id="line2d_5">
      <path clip-path="url(#p06b13799d9)" d="M 324.396875 332.782125 
L 324.396875 22.318125 
" style="fill:none;stroke:#b0b0b0;stroke-linecap:square;stroke-width:0.8;"/>
     </g>
     <g id="line2d_6">
      <g>
       <use style="stroke:#000000;stroke-width:0.8;" x="324.396875" xlink:href="#m406c82e60a" y="332.782125"/>
      </g>
     </g>
     <g id="text_3">
      <!-- 0.50 -->
      <g transform="translate(313.264063 347.380562)scale(0.1 -0.1)">
       <use xlink:href="#DejaVuSans-30"/>
       <use x="63.623047" xlink:href="#DejaVuSans-2e"/>
       <use x="95.410156" xlink:href="#DejaVuSans-35"/>
       <use x="159.033203" xlink:href="#DejaVuSans-30"/>
      </g>
     </g>
    </g>
    <g id="xtick_4">
     <g id="line2d_7">
      <path clip-path="url(#p06b13799d9)" d="M 373.221875 332.782125 
L 373.221875 22.318125 
" style="fill:none;stroke:#b0b0b0;stroke-linecap:square;stroke-width:0.8;"/>
     </g>
     <g id="line2d_8">
      <g>
       <use style="stroke:#000000;stroke-width:0.8;" x="373.221875" xlink:href="#m406c82e60a" y="332.782125"/>
      </g>
     </g>
     <g id="text_4">
      <!-- 0.75 -->
      <defs>
       <path d="M 8.203125 72.90625 
L 55.078125 72.90625 
L 55.078125 68.703125 
L 28.609375 0 
L 18.3125 0 
L 43.21875 64.59375 
L 8.203125 64.59375 
z
" id="DejaVuSans-37"/>
      </defs>
      <g transform="translate(362.089063 347.380562)scale(0.1 -0.1)">
       <use xlink:href="#DejaVuSans-30"/>
       <use x="63.623047" xlink:href="#DejaVuSans-2e"/>
       <use x="95.410156" xlink:href="#DejaVuSans-37"/>
       <use x="159.033203" xlink:href="#DejaVuSans-35"/>
      </g>
     </g>
    </g>
    <g id="xtick_5">
     <g id="line2d_9">
      <path clip-path="url(#p06b13799d9)" d="M 422.046875 332.782125 
L 422.046875 22.318125 
" style="fill:none;stroke:#b0b0b0;stroke-linecap:square;stroke-width:0.8;"/>
     </g>
     <g id="line2d_10">
      <g>
       <use style="stroke:#000000;stroke-width:0.8;" x="422.046875" xlink:href="#m406c82e60a" y="332.782125"/>
      </g>
     </g>
     <g id="text_5">
      <!-- 1.00 -->
      <defs>
       <path d="M 12.40625 8.296875 
L 28.515625 8.296875 
L 28.515625 63.921875 
L 10.984375 60.40625 
L 10.984375 69.390625 
L 28.421875 72.90625 
L 38.28125 72.90625 
L 38.28125 8.296875 
L 54.390625 8.296875 
L 54.390625 0 
L 12.40625 0 
z
" id="DejaVuSans-31"/>
      </defs>
      <g transform="translate(410.914062 347.380562)scale(0.1 -0.1)">
       <use xlink:href="#DejaVuSans-31"/>
       <use x="63.623047" xlink:href="#DejaVuSans-2e"/>
       <use x="95.410156" xlink:href="#DejaVuSans-30"/>
       <use x="159.033203" xlink:href="#DejaVuSans-30"/>
      </g>
     </g>
    </g>
    <g id="xtick_6">
     <g id="line2d_11">
      <path clip-path="url(#p06b13799d9)" d="M 470.871875 332.782125 
L 470.871875 22.318125 
" style="fill:none;stroke:#b0b0b0;stroke-linecap:square;stroke-width:0.8;"/>
     </g>
     <g id="line2d_12">
      <g>
       <use style="stroke:#000000;stroke-width:0.8;" x="470.871875" xlink:href="#m406c82e60a" y="332.782125"/>
      </g>
     </g>
     <g id="text_6">
      <!-- 1.25 -->
      <g transform="translate(459.739063 347.380562)scale(0.1 -0.1)">
       <use xlink:href="#DejaVuSans-31"/>
       <use x="63.623047" xlink:href="#DejaVuSans-2e"/>
       <use x="95.410156" xlink:href="#DejaVuSans-32"/>
       <use x="159.033203" xlink:href="#DejaVuSans-35"/>
      </g>
     </g>
    </g>
    <g id="xtick_7">
     <g id="line2d_13">
      <path clip-path="url(#p06b13799d9)" d="M 519.696875 332.782125 
L 519.696875 22.318125 
" style="fill:none;stroke:#b0b0b0;stroke-linecap:square;stroke-width:0.8;"/>
     </g>
     <g id="line2d_14">
      <g>
       <use style="stroke:#000000;stroke-width:0.8;" x="519.696875" xlink:href="#m406c82e60a" y="332.782125"/>
      </g>
     </g>
     <g id="text_7">
      <!-- 1.50 -->
      <g transform="translate(508.564063 347.380562)scale(0.1 -0.1)">
       <use xlink:href="#DejaVuSans-31"/>
       <use x="63.623047" xlink:href="#DejaVuSans-2e"/>
       <use x="95.410156" xlink:href="#DejaVuSans-35"/>
       <use x="159.033203" xlink:href="#DejaVuSans-30"/>
      </g>
     </g>
    </g>
    <g id="xtick_8">
     <g id="line2d_15">
      <path clip-path="url(#p06b13799d9)" d="M 568.521875 332.782125 
L 568.521875 22.318125 
" style="fill:none;stroke:#b0b0b0;stroke-linecap:square;stroke-width:0.8;"/>
     </g>
     <g id="line2d_16">
      <g>
       <use style="stroke:#000000;stroke-width:0.8;" x="568.521875" xlink:href="#m406c82e60a" y="332.782125"/>
      </g>
     </g>
     <g id="text_8">
      <!-- 1.75 -->
      <g transform="translate(557.389063 347.380562)scale(0.1 -0.1)">
       <use xlink:href="#DejaVuSans-31"/>
       <use x="63.623047" xlink:href="#DejaVuSans-2e"/>
       <use x="95.410156" xlink:href="#DejaVuSans-37"/>
       <use x="159.033203" xlink:href="#DejaVuSans-35"/>
      </g>
     </g>
    </g>
    <g id="xtick_9">
     <g id="line2d_17">
      <path clip-path="url(#p06b13799d9)" d="M 617.346875 332.782125 
L 617.346875 22.318125 
" style="fill:none;stroke:#b0b0b0;stroke-linecap:square;stroke-width:0.8;"/>
     </g>
     <g id="line2d_18">
      <g>
       <use style="stroke:#000000;stroke-width:0.8;" x="617.346875" xlink:href="#m406c82e60a" y="332.782125"/>
      </g>
     </g>
     <g id="text_9">
      <!-- 2.00 -->
      <g transform="translate(606.214063 347.380562)scale(0.1 -0.1)">
       <use xlink:href="#DejaVuSans-32"/>
       <use x="63.623047" xlink:href="#DejaVuSans-2e"/>
       <use x="95.410156" xlink:href="#DejaVuSans-30"/>
       <use x="159.033203" xlink:href="#DejaVuSans-30"/>
      </g>
     </g>
    </g>
    <g id="text_10">
     <!-- AOE2 (TO) -->
     <defs>
      <path d="M 34.1875 63.1875 
L 20.796875 26.90625 
L 47.609375 26.90625 
z
M 28.609375 72.90625 
L 39.796875 72.90625 
L 67.578125 0 
L 57.328125 0 
L 50.6875 18.703125 
L 17.828125 18.703125 
L 11.1875 0 
L 0.78125 0 
z
" id="DejaVuSans-41"/>
      <path d="M 39.40625 66.21875 
Q 28.65625 66.21875 22.328125 58.203125 
Q 16.015625 50.203125 16.015625 36.375 
Q 16.015625 22.609375 22.328125 14.59375 
Q 28.65625 6.59375 39.40625 6.59375 
Q 50.140625 6.59375 56.421875 14.59375 
Q 62.703125 22.609375 62.703125 36.375 
Q 62.703125 50.203125 56.421875 58.203125 
Q 50.140625 66.21875 39.40625 66.21875 
z
M 39.40625 74.21875 
Q 54.734375 74.21875 63.90625 63.9375 
Q 73.09375 53.65625 73.09375 36.375 
Q 73.09375 19.140625 63.90625 8.859375 
Q 54.734375 -1.421875 39.40625 -1.421875 
Q 24.03125 -1.421875 14.8125 8.828125 
Q 5.609375 19.09375 5.609375 36.375 
Q 5.609375 53.65625 14.8125 63.9375 
Q 24.03125 74.21875 39.40625 74.21875 
z
" id="DejaVuSans-4f"/>
      <path d="M 9.8125 72.90625 
L 55.90625 72.90625 
L 55.90625 64.59375 
L 19.671875 64.59375 
L 19.671875 43.015625 
L 54.390625 43.015625 
L 54.390625 34.71875 
L 19.671875 34.71875 
L 19.671875 8.296875 
L 56.78125 8.296875 
L 56.78125 0 
L 9.8125 0 
z
" id="DejaVuSans-45"/>
      <path id="DejaVuSans-20"/>
      <path d="M 31 75.875 
Q 24.46875 64.65625 21.28125 53.65625 
Q 18.109375 42.671875 18.109375 31.390625 
Q 18.109375 20.125 21.3125 9.0625 
Q 24.515625 -2 31 -13.1875 
L 23.1875 -13.1875 
Q 15.875 -1.703125 12.234375 9.375 
Q 8.59375 20.453125 8.59375 31.390625 
Q 8.59375 42.28125 12.203125 53.3125 
Q 15.828125 64.359375 23.1875 75.875 
z
" id="DejaVuSans-28"/>
      <path d="M -0.296875 72.90625 
L 61.375 72.90625 
L 61.375 64.59375 
L 35.5 64.59375 
L 35.5 0 
L 25.59375 0 
L 25.59375 64.59375 
L -0.296875 64.59375 
z
" id="DejaVuSans-54"/>
      <path d="M 8.015625 75.875 
L 15.828125 75.875 
Q 23.140625 64.359375 26.78125 53.3125 
Q 30.421875 42.28125 30.421875 31.390625 
Q 30.421875 20.453125 26.78125 9.375 
Q 23.140625 -1.703125 15.828125 -13.1875 
L 8.015625 -13.1875 
Q 14.5 -2 17.703125 9.0625 
Q 20.90625 20.125 20.90625 31.390625 
Q 20.90625 42.671875 17.703125 53.65625 
Q 14.5 64.65625 8.015625 75.875 
z
" id="DejaVuSans-29"/>
     </defs>
     <g transform="translate(395.870313 361.058687)scale(0.1 -0.1)">
      <use xlink:href="#DejaVuSans-41"/>
      <use x="68.392578" xlink:href="#DejaVuSans-4f"/>
      <use x="147.103516" xlink:href="#DejaVuSans-45"/>
      <use x="210.287109" xlink:href="#DejaVuSans-32"/>
      <use x="273.910156" xlink:href="#DejaVuSans-20"/>
      <use x="305.697266" xlink:href="#DejaVuSans-28"/>
      <use x="344.710938" xlink:href="#DejaVuSans-54"/>
      <use x="405.794922" xlink:href="#DejaVuSans-4f"/>
      <use x="484.505859" xlink:href="#DejaVuSans-29"/>
     </g>
    </g>
   </g>
   <g id="matplotlib.axis_2">
    <g id="ytick_1">
     <g id="line2d_19">
      <path clip-path="url(#p06b13799d9)" d="M 226.746875 305.841034 
L 617.346875 305.841034 
" style="fill:none;stroke:#b0b0b0;stroke-linecap:square;stroke-width:0.8;"/>
     </g>
     <g id="line2d_20">
      <defs>
       <path d="M 0 0 
L -3.5 0 
" id="m4f9855d01e" style="stroke:#000000;stroke-width:0.8;"/>
      </defs>
      <g>
       <use style="stroke:#000000;stroke-width:0.8;" x="226.746875" xlink:href="#m4f9855d01e" y="305.841034"/>
      </g>
     </g>
     <g id="text_11">
      <!-- schreiber2017/mirex2017 -->
      <defs>
       <path d="M 44.28125 53.078125 
L 44.28125 44.578125 
Q 40.484375 46.53125 36.375 47.5 
Q 32.28125 48.484375 27.875 48.484375 
Q 21.1875 48.484375 17.84375 46.4375 
Q 14.5 44.390625 14.5 40.28125 
Q 14.5 37.15625 16.890625 35.375 
Q 19.28125 33.59375 26.515625 31.984375 
L 29.59375 31.296875 
Q 39.15625 29.25 43.1875 25.515625 
Q 47.21875 21.78125 47.21875 15.09375 
Q 47.21875 7.46875 41.1875 3.015625 
Q 35.15625 -1.421875 24.609375 -1.421875 
Q 20.21875 -1.421875 15.453125 -0.5625 
Q 10.6875 0.296875 5.421875 2 
L 5.421875 11.28125 
Q 10.40625 8.6875 15.234375 7.390625 
Q 20.0625 6.109375 24.8125 6.109375 
Q 31.15625 6.109375 34.5625 8.28125 
Q 37.984375 10.453125 37.984375 14.40625 
Q 37.984375 18.0625 35.515625 20.015625 
Q 33.0625 21.96875 24.703125 23.78125 
L 21.578125 24.515625 
Q 13.234375 26.265625 9.515625 29.90625 
Q 5.8125 33.546875 5.8125 39.890625 
Q 5.8125 47.609375 11.28125 51.796875 
Q 16.75 56 26.8125 56 
Q 31.78125 56 36.171875 55.265625 
Q 40.578125 54.546875 44.28125 53.078125 
z
" id="DejaVuSans-73"/>
       <path d="M 48.78125 52.59375 
L 48.78125 44.1875 
Q 44.96875 46.296875 41.140625 47.34375 
Q 37.3125 48.390625 33.40625 48.390625 
Q 24.65625 48.390625 19.8125 42.84375 
Q 14.984375 37.3125 14.984375 27.296875 
Q 14.984375 17.28125 19.8125 11.734375 
Q 24.65625 6.203125 33.40625 6.203125 
Q 37.3125 6.203125 41.140625 7.25 
Q 44.96875 8.296875 48.78125 10.40625 
L 48.78125 2.09375 
Q 45.015625 0.34375 40.984375 -0.53125 
Q 36.96875 -1.421875 32.421875 -1.421875 
Q 20.0625 -1.421875 12.78125 6.34375 
Q 5.515625 14.109375 5.515625 27.296875 
Q 5.515625 40.671875 12.859375 48.328125 
Q 20.21875 56 33.015625 56 
Q 37.15625 56 41.109375 55.140625 
Q 45.0625 54.296875 48.78125 52.59375 
z
" id="DejaVuSans-63"/>
       <path d="M 54.890625 33.015625 
L 54.890625 0 
L 45.90625 0 
L 45.90625 32.71875 
Q 45.90625 40.484375 42.875 44.328125 
Q 39.84375 48.1875 33.796875 48.1875 
Q 26.515625 48.1875 22.3125 43.546875 
Q 18.109375 38.921875 18.109375 30.90625 
L 18.109375 0 
L 9.078125 0 
L 9.078125 75.984375 
L 18.109375 75.984375 
L 18.109375 46.1875 
Q 21.34375 51.125 25.703125 53.5625 
Q 30.078125 56 35.796875 56 
Q 45.21875 56 50.046875 50.171875 
Q 54.890625 44.34375 54.890625 33.015625 
z
" id="DejaVuSans-68"/>
       <path d="M 41.109375 46.296875 
Q 39.59375 47.171875 37.8125 47.578125 
Q 36.03125 48 33.890625 48 
Q 26.265625 48 22.1875 43.046875 
Q 18.109375 38.09375 18.109375 28.8125 
L 18.109375 0 
L 9.078125 0 
L 9.078125 54.6875 
L 18.109375 54.6875 
L 18.109375 46.1875 
Q 20.953125 51.171875 25.484375 53.578125 
Q 30.03125 56 36.53125 56 
Q 37.453125 56 38.578125 55.875 
Q 39.703125 55.765625 41.0625 55.515625 
z
" id="DejaVuSans-72"/>
       <path d="M 56.203125 29.59375 
L 56.203125 25.203125 
L 14.890625 25.203125 
Q 15.484375 15.921875 20.484375 11.0625 
Q 25.484375 6.203125 34.421875 6.203125 
Q 39.59375 6.203125 44.453125 7.46875 
Q 49.3125 8.734375 54.109375 11.28125 
L 54.109375 2.78125 
Q 49.265625 0.734375 44.1875 -0.34375 
Q 39.109375 -1.421875 33.890625 -1.421875 
Q 20.796875 -1.421875 13.15625 6.1875 
Q 5.515625 13.8125 5.515625 26.8125 
Q 5.515625 40.234375 12.765625 48.109375 
Q 20.015625 56 32.328125 56 
Q 43.359375 56 49.78125 48.890625 
Q 56.203125 41.796875 56.203125 29.59375 
z
M 47.21875 32.234375 
Q 47.125 39.59375 43.09375 43.984375 
Q 39.0625 48.390625 32.421875 48.390625 
Q 24.90625 48.390625 20.390625 44.140625 
Q 15.875 39.890625 15.1875 32.171875 
z
" id="DejaVuSans-65"/>
       <path d="M 9.421875 54.6875 
L 18.40625 54.6875 
L 18.40625 0 
L 9.421875 0 
z
M 9.421875 75.984375 
L 18.40625 75.984375 
L 18.40625 64.59375 
L 9.421875 64.59375 
z
" id="DejaVuSans-69"/>
       <path d="M 48.6875 27.296875 
Q 48.6875 37.203125 44.609375 42.84375 
Q 40.53125 48.484375 33.40625 48.484375 
Q 26.265625 48.484375 22.1875 42.84375 
Q 18.109375 37.203125 18.109375 27.296875 
Q 18.109375 17.390625 22.1875 11.75 
Q 26.265625 6.109375 33.40625 6.109375 
Q 40.53125 6.109375 44.609375 11.75 
Q 48.6875 17.390625 48.6875 27.296875 
z
M 18.109375 46.390625 
Q 20.953125 51.265625 25.265625 53.625 
Q 29.59375 56 35.59375 56 
Q 45.5625 56 51.78125 48.09375 
Q 58.015625 40.1875 58.015625 27.296875 
Q 58.015625 14.40625 51.78125 6.484375 
Q 45.5625 -1.421875 35.59375 -1.421875 
Q 29.59375 -1.421875 25.265625 0.953125 
Q 20.953125 3.328125 18.109375 8.203125 
L 18.109375 0 
L 9.078125 0 
L 9.078125 75.984375 
L 18.109375 75.984375 
z
" id="DejaVuSans-62"/>
       <path d="M 25.390625 72.90625 
L 33.6875 72.90625 
L 8.296875 -9.28125 
L 0 -9.28125 
z
" id="DejaVuSans-2f"/>
       <path d="M 52 44.1875 
Q 55.375 50.25 60.0625 53.125 
Q 64.75 56 71.09375 56 
Q 79.640625 56 84.28125 50.015625 
Q 88.921875 44.046875 88.921875 33.015625 
L 88.921875 0 
L 79.890625 0 
L 79.890625 32.71875 
Q 79.890625 40.578125 77.09375 44.375 
Q 74.3125 48.1875 68.609375 48.1875 
Q 61.625 48.1875 57.5625 43.546875 
Q 53.515625 38.921875 53.515625 30.90625 
L 53.515625 0 
L 44.484375 0 
L 44.484375 32.71875 
Q 44.484375 40.625 41.703125 44.40625 
Q 38.921875 48.1875 33.109375 48.1875 
Q 26.21875 48.1875 22.15625 43.53125 
Q 18.109375 38.875 18.109375 30.90625 
L 18.109375 0 
L 9.078125 0 
L 9.078125 54.6875 
L 18.109375 54.6875 
L 18.109375 46.1875 
Q 21.1875 51.21875 25.484375 53.609375 
Q 29.78125 56 35.6875 56 
Q 41.65625 56 45.828125 52.96875 
Q 50 49.953125 52 44.1875 
z
" id="DejaVuSans-6d"/>
       <path d="M 54.890625 54.6875 
L 35.109375 28.078125 
L 55.90625 0 
L 45.3125 0 
L 29.390625 21.484375 
L 13.484375 0 
L 2.875 0 
L 24.125 28.609375 
L 4.6875 54.6875 
L 15.28125 54.6875 
L 29.78125 35.203125 
L 44.28125 54.6875 
z
" id="DejaVuSans-78"/>
      </defs>
      <g transform="translate(90.084375 309.640253)scale(0.1 -0.1)">
       <use xlink:href="#DejaVuSans-73"/>
       <use x="52.099609" xlink:href="#DejaVuSans-63"/>
       <use x="107.080078" xlink:href="#DejaVuSans-68"/>
       <use x="170.458984" xlink:href="#DejaVuSans-72"/>
       <use x="211.541016" xlink:href="#DejaVuSans-65"/>
       <use x="273.064453" xlink:href="#DejaVuSans-69"/>
       <use x="300.847656" xlink:href="#DejaVuSans-62"/>
       <use x="364.324219" xlink:href="#DejaVuSans-65"/>
       <use x="425.847656" xlink:href="#DejaVuSans-72"/>
       <use x="466.960938" xlink:href="#DejaVuSans-32"/>
       <use x="530.583984" xlink:href="#DejaVuSans-30"/>
       <use x="594.207031" xlink:href="#DejaVuSans-31"/>
       <use x="657.830078" xlink:href="#DejaVuSans-37"/>
       <use x="721.453125" xlink:href="#DejaVuSans-2f"/>
       <use x="755.144531" xlink:href="#DejaVuSans-6d"/>
       <use x="852.556641" xlink:href="#DejaVuSans-69"/>
       <use x="880.339844" xlink:href="#DejaVuSans-72"/>
       <use x="921.421875" xlink:href="#DejaVuSans-65"/>
       <use x="982.929688" xlink:href="#DejaVuSans-78"/>
       <use x="1042.109375" xlink:href="#DejaVuSans-32"/>
       <use x="1105.732422" xlink:href="#DejaVuSans-30"/>
       <use x="1169.355469" xlink:href="#DejaVuSans-31"/>
       <use x="1232.978516" xlink:href="#DejaVuSans-37"/>
      </g>
     </g>
    </g>
    <g id="ytick_2">
     <g id="line2d_21">
      <path clip-path="url(#p06b13799d9)" d="M 226.746875 254.52467 
L 617.346875 254.52467 
" style="fill:none;stroke:#b0b0b0;stroke-linecap:square;stroke-width:0.8;"/>
     </g>
     <g id="line2d_22">
      <g>
       <use style="stroke:#000000;stroke-width:0.8;" x="226.746875" xlink:href="#m4f9855d01e" y="254.52467"/>
      </g>
     </g>
     <g id="text_12">
      <!-- schreiber2017/ismir2017 -->
      <g transform="translate(94.164062 258.323889)scale(0.1 -0.1)">
       <use xlink:href="#DejaVuSans-73"/>
       <use x="52.099609" xlink:href="#DejaVuSans-63"/>
       <use x="107.080078" xlink:href="#DejaVuSans-68"/>
       <use x="170.458984" xlink:href="#DejaVuSans-72"/>
       <use x="211.541016" xlink:href="#DejaVuSans-65"/>
       <use x="273.064453" xlink:href="#DejaVuSans-69"/>
       <use x="300.847656" xlink:href="#DejaVuSans-62"/>
       <use x="364.324219" xlink:href="#DejaVuSans-65"/>
       <use x="425.847656" xlink:href="#DejaVuSans-72"/>
       <use x="466.960938" xlink:href="#DejaVuSans-32"/>
       <use x="530.583984" xlink:href="#DejaVuSans-30"/>
       <use x="594.207031" xlink:href="#DejaVuSans-31"/>
       <use x="657.830078" xlink:href="#DejaVuSans-37"/>
       <use x="721.453125" xlink:href="#DejaVuSans-2f"/>
       <use x="755.144531" xlink:href="#DejaVuSans-69"/>
       <use x="782.927734" xlink:href="#DejaVuSans-73"/>
       <use x="835.027344" xlink:href="#DejaVuSans-6d"/>
       <use x="932.439453" xlink:href="#DejaVuSans-69"/>
       <use x="960.222656" xlink:href="#DejaVuSans-72"/>
       <use x="1001.335938" xlink:href="#DejaVuSans-32"/>
       <use x="1064.958984" xlink:href="#DejaVuSans-30"/>
       <use x="1128.582031" xlink:href="#DejaVuSans-31"/>
       <use x="1192.205078" xlink:href="#DejaVuSans-37"/>
      </g>
     </g>
    </g>
    <g id="ytick_3">
     <g id="line2d_23">
      <path clip-path="url(#p06b13799d9)" d="M 226.746875 203.208307 
L 617.346875 203.208307 
" style="fill:none;stroke:#b0b0b0;stroke-linecap:square;stroke-width:0.8;"/>
     </g>
     <g id="line2d_24">
      <g>
       <use style="stroke:#000000;stroke-width:0.8;" x="226.746875" xlink:href="#m4f9855d01e" y="203.208307"/>
      </g>
     </g>
     <g id="text_13">
      <!-- schreiber2014/default -->
      <defs>
       <path d="M 37.796875 64.3125 
L 12.890625 25.390625 
L 37.796875 25.390625 
z
M 35.203125 72.90625 
L 47.609375 72.90625 
L 47.609375 25.390625 
L 58.015625 25.390625 
L 58.015625 17.1875 
L 47.609375 17.1875 
L 47.609375 0 
L 37.796875 0 
L 37.796875 17.1875 
L 4.890625 17.1875 
L 4.890625 26.703125 
z
" id="DejaVuSans-34"/>
       <path d="M 45.40625 46.390625 
L 45.40625 75.984375 
L 54.390625 75.984375 
L 54.390625 0 
L 45.40625 0 
L 45.40625 8.203125 
Q 42.578125 3.328125 38.25 0.953125 
Q 33.9375 -1.421875 27.875 -1.421875 
Q 17.96875 -1.421875 11.734375 6.484375 
Q 5.515625 14.40625 5.515625 27.296875 
Q 5.515625 40.1875 11.734375 48.09375 
Q 17.96875 56 27.875 56 
Q 33.9375 56 38.25 53.625 
Q 42.578125 51.265625 45.40625 46.390625 
z
M 14.796875 27.296875 
Q 14.796875 17.390625 18.875 11.75 
Q 22.953125 6.109375 30.078125 6.109375 
Q 37.203125 6.109375 41.296875 11.75 
Q 45.40625 17.390625 45.40625 27.296875 
Q 45.40625 37.203125 41.296875 42.84375 
Q 37.203125 48.484375 30.078125 48.484375 
Q 22.953125 48.484375 18.875 42.84375 
Q 14.796875 37.203125 14.796875 27.296875 
z
" id="DejaVuSans-64"/>
       <path d="M 37.109375 75.984375 
L 37.109375 68.5 
L 28.515625 68.5 
Q 23.6875 68.5 21.796875 66.546875 
Q 19.921875 64.59375 19.921875 59.515625 
L 19.921875 54.6875 
L 34.71875 54.6875 
L 34.71875 47.703125 
L 19.921875 47.703125 
L 19.921875 0 
L 10.890625 0 
L 10.890625 47.703125 
L 2.296875 47.703125 
L 2.296875 54.6875 
L 10.890625 54.6875 
L 10.890625 58.5 
Q 10.890625 67.625 15.140625 71.796875 
Q 19.390625 75.984375 28.609375 75.984375 
z
" id="DejaVuSans-66"/>
       <path d="M 34.28125 27.484375 
Q 23.390625 27.484375 19.1875 25 
Q 14.984375 22.515625 14.984375 16.5 
Q 14.984375 11.71875 18.140625 8.90625 
Q 21.296875 6.109375 26.703125 6.109375 
Q 34.1875 6.109375 38.703125 11.40625 
Q 43.21875 16.703125 43.21875 25.484375 
L 43.21875 27.484375 
z
M 52.203125 31.203125 
L 52.203125 0 
L 43.21875 0 
L 43.21875 8.296875 
Q 40.140625 3.328125 35.546875 0.953125 
Q 30.953125 -1.421875 24.3125 -1.421875 
Q 15.921875 -1.421875 10.953125 3.296875 
Q 6 8.015625 6 15.921875 
Q 6 25.140625 12.171875 29.828125 
Q 18.359375 34.515625 30.609375 34.515625 
L 43.21875 34.515625 
L 43.21875 35.40625 
Q 43.21875 41.609375 39.140625 45 
Q 35.0625 48.390625 27.6875 48.390625 
Q 23 48.390625 18.546875 47.265625 
Q 14.109375 46.140625 10.015625 43.890625 
L 10.015625 52.203125 
Q 14.9375 54.109375 19.578125 55.046875 
Q 24.21875 56 28.609375 56 
Q 40.484375 56 46.34375 49.84375 
Q 52.203125 43.703125 52.203125 31.203125 
z
" id="DejaVuSans-61"/>
       <path d="M 8.5 21.578125 
L 8.5 54.6875 
L 17.484375 54.6875 
L 17.484375 21.921875 
Q 17.484375 14.15625 20.5 10.265625 
Q 23.53125 6.390625 29.59375 6.390625 
Q 36.859375 6.390625 41.078125 11.03125 
Q 45.3125 15.671875 45.3125 23.6875 
L 45.3125 54.6875 
L 54.296875 54.6875 
L 54.296875 0 
L 45.3125 0 
L 45.3125 8.40625 
Q 42.046875 3.421875 37.71875 1 
Q 33.40625 -1.421875 27.6875 -1.421875 
Q 18.265625 -1.421875 13.375 4.4375 
Q 8.5 10.296875 8.5 21.578125 
z
M 31.109375 56 
z
" id="DejaVuSans-75"/>
       <path d="M 9.421875 75.984375 
L 18.40625 75.984375 
L 18.40625 0 
L 9.421875 0 
z
" id="DejaVuSans-6c"/>
       <path d="M 18.3125 70.21875 
L 18.3125 54.6875 
L 36.8125 54.6875 
L 36.8125 47.703125 
L 18.3125 47.703125 
L 18.3125 18.015625 
Q 18.3125 11.328125 20.140625 9.421875 
Q 21.96875 7.515625 27.59375 7.515625 
L 36.8125 7.515625 
L 36.8125 0 
L 27.59375 0 
Q 17.1875 0 13.234375 3.875 
Q 9.28125 7.765625 9.28125 18.015625 
L 9.28125 47.703125 
L 2.6875 47.703125 
L 2.6875 54.6875 
L 9.28125 54.6875 
L 9.28125 70.21875 
z
" id="DejaVuSans-74"/>
      </defs>
      <g transform="translate(109.045312 207.007526)scale(0.1 -0.1)">
       <use xlink:href="#DejaVuSans-73"/>
       <use x="52.099609" xlink:href="#DejaVuSans-63"/>
       <use x="107.080078" xlink:href="#DejaVuSans-68"/>
       <use x="170.458984" xlink:href="#DejaVuSans-72"/>
       <use x="211.541016" xlink:href="#DejaVuSans-65"/>
       <use x="273.064453" xlink:href="#DejaVuSans-69"/>
       <use x="300.847656" xlink:href="#DejaVuSans-62"/>
       <use x="364.324219" xlink:href="#DejaVuSans-65"/>
       <use x="425.847656" xlink:href="#DejaVuSans-72"/>
       <use x="466.960938" xlink:href="#DejaVuSans-32"/>
       <use x="530.583984" xlink:href="#DejaVuSans-30"/>
       <use x="594.207031" xlink:href="#DejaVuSans-31"/>
       <use x="657.830078" xlink:href="#DejaVuSans-34"/>
       <use x="721.453125" xlink:href="#DejaVuSans-2f"/>
       <use x="755.144531" xlink:href="#DejaVuSans-64"/>
       <use x="818.621094" xlink:href="#DejaVuSans-65"/>
       <use x="880.144531" xlink:href="#DejaVuSans-66"/>
       <use x="915.349609" xlink:href="#DejaVuSans-61"/>
       <use x="976.628906" xlink:href="#DejaVuSans-75"/>
       <use x="1040.007812" xlink:href="#DejaVuSans-6c"/>
       <use x="1067.791016" xlink:href="#DejaVuSans-74"/>
      </g>
     </g>
    </g>
    <g id="ytick_4">
     <g id="line2d_25">
      <path clip-path="url(#p06b13799d9)" d="M 226.746875 151.891943 
L 617.346875 151.891943 
" style="fill:none;stroke:#b0b0b0;stroke-linecap:square;stroke-width:0.8;"/>
     </g>
     <g id="line2d_26">
      <g>
       <use style="stroke:#000000;stroke-width:0.8;" x="226.746875" xlink:href="#m4f9855d01e" y="151.891943"/>
      </g>
     </g>
     <g id="text_14">
      <!-- percival2014/stem -->
      <defs>
       <path d="M 18.109375 8.203125 
L 18.109375 -20.796875 
L 9.078125 -20.796875 
L 9.078125 54.6875 
L 18.109375 54.6875 
L 18.109375 46.390625 
Q 20.953125 51.265625 25.265625 53.625 
Q 29.59375 56 35.59375 56 
Q 45.5625 56 51.78125 48.09375 
Q 58.015625 40.1875 58.015625 27.296875 
Q 58.015625 14.40625 51.78125 6.484375 
Q 45.5625 -1.421875 35.59375 -1.421875 
Q 29.59375 -1.421875 25.265625 0.953125 
Q 20.953125 3.328125 18.109375 8.203125 
z
M 48.6875 27.296875 
Q 48.6875 37.203125 44.609375 42.84375 
Q 40.53125 48.484375 33.40625 48.484375 
Q 26.265625 48.484375 22.1875 42.84375 
Q 18.109375 37.203125 18.109375 27.296875 
Q 18.109375 17.390625 22.1875 11.75 
Q 26.265625 6.109375 33.40625 6.109375 
Q 40.53125 6.109375 44.609375 11.75 
Q 48.6875 17.390625 48.6875 27.296875 
z
" id="DejaVuSans-70"/>
       <path d="M 2.984375 54.6875 
L 12.5 54.6875 
L 29.59375 8.796875 
L 46.6875 54.6875 
L 56.203125 54.6875 
L 35.6875 0 
L 23.484375 0 
z
" id="DejaVuSans-76"/>
      </defs>
      <g transform="translate(126.19375 155.691162)scale(0.1 -0.1)">
       <use xlink:href="#DejaVuSans-70"/>
       <use x="63.476562" xlink:href="#DejaVuSans-65"/>
       <use x="125" xlink:href="#DejaVuSans-72"/>
       <use x="166.082031" xlink:href="#DejaVuSans-63"/>
       <use x="221.0625" xlink:href="#DejaVuSans-69"/>
       <use x="248.845703" xlink:href="#DejaVuSans-76"/>
       <use x="308.025391" xlink:href="#DejaVuSans-61"/>
       <use x="369.304688" xlink:href="#DejaVuSans-6c"/>
       <use x="397.087891" xlink:href="#DejaVuSans-32"/>
       <use x="460.710938" xlink:href="#DejaVuSans-30"/>
       <use x="524.333984" xlink:href="#DejaVuSans-31"/>
       <use x="587.957031" xlink:href="#DejaVuSans-34"/>
       <use x="651.580078" xlink:href="#DejaVuSans-2f"/>
       <use x="685.271484" xlink:href="#DejaVuSans-73"/>
       <use x="737.371094" xlink:href="#DejaVuSans-74"/>
       <use x="776.580078" xlink:href="#DejaVuSans-65"/>
       <use x="838.103516" xlink:href="#DejaVuSans-6d"/>
      </g>
     </g>
    </g>
    <g id="ytick_5">
     <g id="line2d_27">
      <path clip-path="url(#p06b13799d9)" d="M 226.746875 100.57558 
L 617.346875 100.57558 
" style="fill:none;stroke:#b0b0b0;stroke-linecap:square;stroke-width:0.8;"/>
     </g>
     <g id="line2d_28">
      <g>
       <use style="stroke:#000000;stroke-width:0.8;" x="226.746875" xlink:href="#m4f9855d01e" y="100.57558"/>
      </g>
     </g>
     <g id="text_15">
      <!-- davies2009/mirex_qm_tempotracker -->
      <defs>
       <path d="M 10.984375 1.515625 
L 10.984375 10.5 
Q 14.703125 8.734375 18.5 7.8125 
Q 22.3125 6.890625 25.984375 6.890625 
Q 35.75 6.890625 40.890625 13.453125 
Q 46.046875 20.015625 46.78125 33.40625 
Q 43.953125 29.203125 39.59375 26.953125 
Q 35.25 24.703125 29.984375 24.703125 
Q 19.046875 24.703125 12.671875 31.3125 
Q 6.296875 37.9375 6.296875 49.421875 
Q 6.296875 60.640625 12.9375 67.421875 
Q 19.578125 74.21875 30.609375 74.21875 
Q 43.265625 74.21875 49.921875 64.515625 
Q 56.59375 54.828125 56.59375 36.375 
Q 56.59375 19.140625 48.40625 8.859375 
Q 40.234375 -1.421875 26.421875 -1.421875 
Q 22.703125 -1.421875 18.890625 -0.6875 
Q 15.09375 0.046875 10.984375 1.515625 
z
M 30.609375 32.421875 
Q 37.25 32.421875 41.125 36.953125 
Q 45.015625 41.5 45.015625 49.421875 
Q 45.015625 57.28125 41.125 61.84375 
Q 37.25 66.40625 30.609375 66.40625 
Q 23.96875 66.40625 20.09375 61.84375 
Q 16.21875 57.28125 16.21875 49.421875 
Q 16.21875 41.5 20.09375 36.953125 
Q 23.96875 32.421875 30.609375 32.421875 
z
" id="DejaVuSans-39"/>
       <path d="M 50.984375 -16.609375 
L 50.984375 -23.578125 
L -0.984375 -23.578125 
L -0.984375 -16.609375 
z
" id="DejaVuSans-5f"/>
       <path d="M 14.796875 27.296875 
Q 14.796875 17.390625 18.875 11.75 
Q 22.953125 6.109375 30.078125 6.109375 
Q 37.203125 6.109375 41.296875 11.75 
Q 45.40625 17.390625 45.40625 27.296875 
Q 45.40625 37.203125 41.296875 42.84375 
Q 37.203125 48.484375 30.078125 48.484375 
Q 22.953125 48.484375 18.875 42.84375 
Q 14.796875 37.203125 14.796875 27.296875 
z
M 45.40625 8.203125 
Q 42.578125 3.328125 38.25 0.953125 
Q 33.9375 -1.421875 27.875 -1.421875 
Q 17.96875 -1.421875 11.734375 6.484375 
Q 5.515625 14.40625 5.515625 27.296875 
Q 5.515625 40.1875 11.734375 48.09375 
Q 17.96875 56 27.875 56 
Q 33.9375 56 38.25 53.625 
Q 42.578125 51.265625 45.40625 46.390625 
L 45.40625 54.6875 
L 54.390625 54.6875 
L 54.390625 -20.796875 
L 45.40625 -20.796875 
z
" id="DejaVuSans-71"/>
       <path d="M 30.609375 48.390625 
Q 23.390625 48.390625 19.1875 42.75 
Q 14.984375 37.109375 14.984375 27.296875 
Q 14.984375 17.484375 19.15625 11.84375 
Q 23.34375 6.203125 30.609375 6.203125 
Q 37.796875 6.203125 41.984375 11.859375 
Q 46.1875 17.53125 46.1875 27.296875 
Q 46.1875 37.015625 41.984375 42.703125 
Q 37.796875 48.390625 30.609375 48.390625 
z
M 30.609375 56 
Q 42.328125 56 49.015625 48.375 
Q 55.71875 40.765625 55.71875 27.296875 
Q 55.71875 13.875 49.015625 6.21875 
Q 42.328125 -1.421875 30.609375 -1.421875 
Q 18.84375 -1.421875 12.171875 6.21875 
Q 5.515625 13.875 5.515625 27.296875 
Q 5.515625 40.765625 12.171875 48.375 
Q 18.84375 56 30.609375 56 
z
" id="DejaVuSans-6f"/>
       <path d="M 9.078125 75.984375 
L 18.109375 75.984375 
L 18.109375 31.109375 
L 44.921875 54.6875 
L 56.390625 54.6875 
L 27.390625 29.109375 
L 57.625 0 
L 45.90625 0 
L 18.109375 26.703125 
L 18.109375 0 
L 9.078125 0 
z
" id="DejaVuSans-6b"/>
      </defs>
      <g transform="translate(35.617187 104.374798)scale(0.1 -0.1)">
       <use xlink:href="#DejaVuSans-64"/>
       <use x="63.476562" xlink:href="#DejaVuSans-61"/>
       <use x="124.755859" xlink:href="#DejaVuSans-76"/>
       <use x="183.935547" xlink:href="#DejaVuSans-69"/>
       <use x="211.71875" xlink:href="#DejaVuSans-65"/>
       <use x="273.242188" xlink:href="#DejaVuSans-73"/>
       <use x="325.341797" xlink:href="#DejaVuSans-32"/>
       <use x="388.964844" xlink:href="#DejaVuSans-30"/>
       <use x="452.587891" xlink:href="#DejaVuSans-30"/>
       <use x="516.210938" xlink:href="#DejaVuSans-39"/>
       <use x="579.833984" xlink:href="#DejaVuSans-2f"/>
       <use x="613.525391" xlink:href="#DejaVuSans-6d"/>
       <use x="710.9375" xlink:href="#DejaVuSans-69"/>
       <use x="738.720703" xlink:href="#DejaVuSans-72"/>
       <use x="779.802734" xlink:href="#DejaVuSans-65"/>
       <use x="841.310547" xlink:href="#DejaVuSans-78"/>
       <use x="900.490234" xlink:href="#DejaVuSans-5f"/>
       <use x="950.490234" xlink:href="#DejaVuSans-71"/>
       <use x="1013.966797" xlink:href="#DejaVuSans-6d"/>
       <use x="1111.378906" xlink:href="#DejaVuSans-5f"/>
       <use x="1161.378906" xlink:href="#DejaVuSans-74"/>
       <use x="1200.587891" xlink:href="#DejaVuSans-65"/>
       <use x="1262.111328" xlink:href="#DejaVuSans-6d"/>
       <use x="1359.523438" xlink:href="#DejaVuSans-70"/>
       <use x="1423" xlink:href="#DejaVuSans-6f"/>
       <use x="1484.181641" xlink:href="#DejaVuSans-74"/>
       <use x="1523.390625" xlink:href="#DejaVuSans-72"/>
       <use x="1564.503906" xlink:href="#DejaVuSans-61"/>
       <use x="1625.783203" xlink:href="#DejaVuSans-63"/>
       <use x="1680.763672" xlink:href="#DejaVuSans-6b"/>
       <use x="1738.626953" xlink:href="#DejaVuSans-65"/>
       <use x="1800.150391" xlink:href="#DejaVuSans-72"/>
      </g>
     </g>
    </g>
    <g id="ytick_6">
     <g id="line2d_29">
      <path clip-path="url(#p06b13799d9)" d="M 226.746875 49.259216 
L 617.346875 49.259216 
" style="fill:none;stroke:#b0b0b0;stroke-linecap:square;stroke-width:0.8;"/>
     </g>
     <g id="line2d_30">
      <g>
       <use style="stroke:#000000;stroke-width:0.8;" x="226.746875" xlink:href="#m4f9855d01e" y="49.259216"/>
      </g>
     </g>
     <g id="text_16">
      <!-- boeck2015/tempodetector2016_default -->
      <defs>
       <path d="M 33.015625 40.375 
Q 26.375 40.375 22.484375 35.828125 
Q 18.609375 31.296875 18.609375 23.390625 
Q 18.609375 15.53125 22.484375 10.953125 
Q 26.375 6.390625 33.015625 6.390625 
Q 39.65625 6.390625 43.53125 10.953125 
Q 47.40625 15.53125 47.40625 23.390625 
Q 47.40625 31.296875 43.53125 35.828125 
Q 39.65625 40.375 33.015625 40.375 
z
M 52.59375 71.296875 
L 52.59375 62.3125 
Q 48.875 64.0625 45.09375 64.984375 
Q 41.3125 65.921875 37.59375 65.921875 
Q 27.828125 65.921875 22.671875 59.328125 
Q 17.53125 52.734375 16.796875 39.40625 
Q 19.671875 43.65625 24.015625 45.921875 
Q 28.375 48.1875 33.59375 48.1875 
Q 44.578125 48.1875 50.953125 41.515625 
Q 57.328125 34.859375 57.328125 23.390625 
Q 57.328125 12.15625 50.6875 5.359375 
Q 44.046875 -1.421875 33.015625 -1.421875 
Q 20.359375 -1.421875 13.671875 8.265625 
Q 6.984375 17.96875 6.984375 36.375 
Q 6.984375 53.65625 15.1875 63.9375 
Q 23.390625 74.21875 37.203125 74.21875 
Q 40.921875 74.21875 44.703125 73.484375 
Q 48.484375 72.75 52.59375 71.296875 
z
" id="DejaVuSans-36"/>
      </defs>
      <g transform="translate(20.878125 53.058435)scale(0.1 -0.1)">
       <use xlink:href="#DejaVuSans-62"/>
       <use x="63.476562" xlink:href="#DejaVuSans-6f"/>
       <use x="124.658203" xlink:href="#DejaVuSans-65"/>
       <use x="186.181641" xlink:href="#DejaVuSans-63"/>
       <use x="241.162109" xlink:href="#DejaVuSans-6b"/>
       <use x="299.072266" xlink:href="#DejaVuSans-32"/>
       <use x="362.695312" xlink:href="#DejaVuSans-30"/>
       <use x="426.318359" xlink:href="#DejaVuSans-31"/>
       <use x="489.941406" xlink:href="#DejaVuSans-35"/>
       <use x="553.564453" xlink:href="#DejaVuSans-2f"/>
       <use x="587.255859" xlink:href="#DejaVuSans-74"/>
       <use x="626.464844" xlink:href="#DejaVuSans-65"/>
       <use x="687.988281" xlink:href="#DejaVuSans-6d"/>
       <use x="785.400391" xlink:href="#DejaVuSans-70"/>
       <use x="848.876953" xlink:href="#DejaVuSans-6f"/>
       <use x="910.058594" xlink:href="#DejaVuSans-64"/>
       <use x="973.535156" xlink:href="#DejaVuSans-65"/>
       <use x="1035.058594" xlink:href="#DejaVuSans-74"/>
       <use x="1074.267578" xlink:href="#DejaVuSans-65"/>
       <use x="1135.791016" xlink:href="#DejaVuSans-63"/>
       <use x="1190.771484" xlink:href="#DejaVuSans-74"/>
       <use x="1229.980469" xlink:href="#DejaVuSans-6f"/>
       <use x="1291.162109" xlink:href="#DejaVuSans-72"/>
       <use x="1332.275391" xlink:href="#DejaVuSans-32"/>
       <use x="1395.898438" xlink:href="#DejaVuSans-30"/>
       <use x="1459.521484" xlink:href="#DejaVuSans-31"/>
       <use x="1523.144531" xlink:href="#DejaVuSans-36"/>
       <use x="1586.767578" xlink:href="#DejaVuSans-5f"/>
       <use x="1636.767578" xlink:href="#DejaVuSans-64"/>
       <use x="1700.244141" xlink:href="#DejaVuSans-65"/>
       <use x="1761.767578" xlink:href="#DejaVuSans-66"/>
       <use x="1796.972656" xlink:href="#DejaVuSans-61"/>
       <use x="1858.251953" xlink:href="#DejaVuSans-75"/>
       <use x="1921.630859" xlink:href="#DejaVuSans-6c"/>
       <use x="1949.414062" xlink:href="#DejaVuSans-74"/>
      </g>
     </g>
    </g>
    <g id="text_17">
     <!-- Estimator -->
     <g transform="translate(14.798437 201.672781)rotate(-90)scale(0.1 -0.1)">
      <use xlink:href="#DejaVuSans-45"/>
      <use x="63.183594" xlink:href="#DejaVuSans-73"/>
      <use x="115.283203" xlink:href="#DejaVuSans-74"/>
      <use x="154.492188" xlink:href="#DejaVuSans-69"/>
      <use x="182.275391" xlink:href="#DejaVuSans-6d"/>
      <use x="279.6875" xlink:href="#DejaVuSans-61"/>
      <use x="340.966797" xlink:href="#DejaVuSans-74"/>
      <use x="380.175781" xlink:href="#DejaVuSans-6f"/>
      <use x="441.357422" xlink:href="#DejaVuSans-72"/>
     </g>
    </g>
   </g>
   <g id="PolyCollection_1">
    <path clip-path="url(#p06b13799d9)" d="M 226.903003 293.788722 
L 226.903003 317.893346 
L 228.896954 318.280447 
L 230.890906 318.541392 
L 232.884858 318.670125 
L 234.87881 318.665158 
L 236.872762 318.52959 
L 238.866714 318.27087 
L 240.860665 317.900325 
L 242.854617 317.432491 
L 244.848569 316.884308 
L 246.842521 316.274236 
L 248.836473 315.621355 
L 250.830425 314.94451 
L 252.824376 314.261548 
L 254.818328 313.588685 
L 256.81228 312.940028 
L 258.806232 312.327254 
L 260.800184 311.759453 
L 262.794136 311.243113 
L 264.788088 310.78223 
L 266.782039 310.378513 
L 268.775991 310.03166 
L 270.769943 309.73967 
L 272.763895 309.499181 
L 274.757847 309.305794 
L 276.751799 309.154381 
L 278.74575 309.039357 
L 280.739702 308.954918 
L 282.733654 308.895229 
L 284.727606 308.854583 
L 286.721558 308.827514 
L 288.71551 308.808889 
L 290.709461 308.79397 
L 292.703413 308.778471 
L 294.697365 308.758596 
L 296.691317 308.731078 
L 298.685269 308.693213 
L 300.679221 308.642892 
L 302.673173 308.578624 
L 304.667124 308.49956 
L 306.661076 308.40549 
L 308.655028 308.296835 
L 310.64898 308.174609 
L 312.642932 308.040364 
L 314.636884 307.896112 
L 316.630835 307.744223 
L 318.624787 307.587308 
L 320.618739 307.428104 
L 322.612691 307.269337 
L 324.606643 307.113615 
L 326.600595 306.963313 
L 328.594546 306.820492 
L 330.588498 306.686835 
L 332.58245 306.563609 
L 334.576402 306.451658 
L 336.570354 306.351411 
L 338.564306 306.262916 
L 340.558258 306.185893 
L 342.552209 306.119788 
L 344.546161 306.063842 
L 346.540113 306.017151 
L 348.534065 305.978733 
L 350.528017 305.947581 
L 352.521969 305.922708 
L 354.51592 305.903185 
L 356.509872 305.888172 
L 358.503824 305.87693 
L 360.497776 305.868836 
L 362.491728 305.863389 
L 364.48568 305.860202 
L 366.479631 305.859006 
L 368.473583 305.859636 
L 370.467535 305.862024 
L 372.461487 305.866185 
L 374.455439 305.872206 
L 376.449391 305.880232 
L 378.443343 305.890447 
L 380.437294 305.903055 
L 382.431246 305.918263 
L 384.425198 305.936257 
L 386.41915 305.957179 
L 388.413102 305.981101 
L 390.407054 306.008009 
L 392.401005 306.037774 
L 394.394957 306.070142 
L 396.388909 306.10472 
L 398.382861 306.140975 
L 400.376813 306.178234 
L 402.370765 306.215704 
L 404.364717 306.252492 
L 406.358668 306.287638 
L 408.35262 306.320154 
L 410.346572 306.349073 
L 412.340524 306.373489 
L 414.334476 306.392612 
L 416.328428 306.405802 
L 418.322379 306.412611 
L 420.316331 306.412804 
L 422.310283 306.406374 
L 424.304235 306.393544 
L 424.304235 305.288524 
L 424.304235 305.288524 
L 422.310283 305.275694 
L 420.316331 305.269265 
L 418.322379 305.269458 
L 416.328428 305.276266 
L 414.334476 305.289457 
L 412.340524 305.308579 
L 410.346572 305.332996 
L 408.35262 305.361914 
L 406.358668 305.394431 
L 404.364717 305.429576 
L 402.370765 305.466364 
L 400.376813 305.503834 
L 398.382861 305.541093 
L 396.388909 305.577348 
L 394.394957 305.611926 
L 392.401005 305.644295 
L 390.407054 305.67406 
L 388.413102 305.700967 
L 386.41915 305.72489 
L 384.425198 305.745811 
L 382.431246 305.763805 
L 380.437294 305.779013 
L 378.443343 305.791621 
L 376.449391 305.801836 
L 374.455439 305.809862 
L 372.461487 305.815883 
L 370.467535 305.820044 
L 368.473583 305.822432 
L 366.479631 305.823062 
L 364.48568 305.821866 
L 362.491728 305.81868 
L 360.497776 305.813232 
L 358.503824 305.805138 
L 356.509872 305.793896 
L 354.51592 305.778883 
L 352.521969 305.759361 
L 350.528017 305.734487 
L 348.534065 305.703335 
L 346.540113 305.664918 
L 344.546161 305.618227 
L 342.552209 305.56228 
L 340.558258 305.496175 
L 338.564306 305.419152 
L 336.570354 305.330658 
L 334.576402 305.23041 
L 332.58245 305.118459 
L 330.588498 304.995233 
L 328.594546 304.861576 
L 326.600595 304.718755 
L 324.606643 304.568453 
L 322.612691 304.412731 
L 320.618739 304.253965 
L 318.624787 304.09476 
L 316.630835 303.937846 
L 314.636884 303.785956 
L 312.642932 303.641704 
L 310.64898 303.50746 
L 308.655028 303.385233 
L 306.661076 303.276578 
L 304.667124 303.182508 
L 302.673173 303.103444 
L 300.679221 303.039176 
L 298.685269 302.988855 
L 296.691317 302.95099 
L 294.697365 302.923472 
L 292.703413 302.903597 
L 290.709461 302.888098 
L 288.71551 302.87318 
L 286.721558 302.854554 
L 284.727606 302.827485 
L 282.733654 302.786839 
L 280.739702 302.72715 
L 278.74575 302.642711 
L 276.751799 302.527687 
L 274.757847 302.376274 
L 272.763895 302.182887 
L 270.769943 301.942398 
L 268.775991 301.650408 
L 266.782039 301.303555 
L 264.788088 300.899838 
L 262.794136 300.438955 
L 260.800184 299.922615 
L 258.806232 299.354814 
L 256.81228 298.74204 
L 254.818328 298.093383 
L 252.824376 297.42052 
L 250.830425 296.737558 
L 248.836473 296.060713 
L 246.842521 295.407832 
L 244.848569 294.79776 
L 242.854617 294.249577 
L 240.860665 293.781743 
L 238.866714 293.411198 
L 236.872762 293.152478 
L 234.87881 293.01691 
L 232.884858 293.011943 
L 230.890906 293.140676 
L 228.896954 293.401621 
L 226.903003 293.788722 
z
" style="fill:#ff0000;fill-opacity:0.75;"/>
   </g>
   <g id="PolyCollection_2">
    <path clip-path="url(#p06b13799d9)" d="M 226.903003 242.512889 
L 226.903003 266.536452 
L 228.896954 266.936312 
L 230.890906 267.209134 
L 232.884858 267.348762 
L 234.87881 267.353761 
L 236.872762 267.227418 
L 238.866714 266.97747 
L 240.860665 266.615581 
L 242.854617 266.156624 
L 244.848569 265.617817 
L 246.842521 265.017788 
L 248.836473 264.375643 
L 250.830425 263.710088 
L 252.824376 263.03866 
L 254.818328 262.377113 
L 256.81228 261.738964 
L 258.806232 261.135219 
L 260.800184 260.574264 
L 262.794136 260.061903 
L 264.788088 259.601517 
L 266.782039 259.194315 
L 268.775991 258.839643 
L 270.769943 258.535324 
L 272.763895 258.278006 
L 274.757847 258.063486 
L 276.751799 257.887014 
L 278.74575 257.743543 
L 280.739702 257.627945 
L 282.733654 257.53517 
L 284.727606 257.460369 
L 286.721558 257.398979 
L 288.71551 257.34677 
L 290.709461 257.299883 
L 292.703413 257.254845 
L 294.697365 257.208582 
L 296.691317 257.158433 
L 298.685269 257.102164 
L 300.679221 257.03798 
L 302.673173 256.964553 
L 304.667124 256.881033 
L 306.661076 256.787062 
L 308.655028 256.682775 
L 310.64898 256.568787 
L 312.642932 256.446155 
L 314.636884 256.316331 
L 316.630835 256.181091 
L 318.624787 256.042442 
L 320.618739 255.90253 
L 322.612691 255.76353 
L 324.606643 255.627551 
L 326.600595 255.496541 
L 328.594546 255.372203 
L 330.588498 255.255943 
L 332.58245 255.148827 
L 334.576402 255.051567 
L 336.570354 254.964526 
L 338.564306 254.887742 
L 340.558258 254.820966 
L 342.552209 254.763716 
L 344.546161 254.715324 
L 346.540113 254.675 
L 348.534065 254.641883 
L 350.528017 254.615088 
L 352.521969 254.59375 
L 354.51592 254.577056 
L 356.509872 254.564268 
L 358.503824 254.554745 
L 360.497776 254.547948 
L 362.491728 254.543444 
L 364.48568 254.540911 
L 366.479631 254.540127 
L 368.473583 254.540971 
L 370.467535 254.543407 
L 372.461487 254.547481 
L 374.455439 254.553304 
L 376.449391 254.561043 
L 378.443343 254.570902 
L 380.437294 254.583107 
L 382.431246 254.597887 
L 384.425198 254.61545 
L 386.41915 254.635959 
L 388.413102 254.659513 
L 390.407054 254.686116 
L 392.401005 254.715661 
L 394.394957 254.747909 
L 396.388909 254.782479 
L 398.382861 254.81884 
L 400.376813 254.856317 
L 402.370765 254.894106 
L 404.364717 254.931293 
L 406.358668 254.966894 
L 408.35262 254.999891 
L 410.346572 255.029282 
L 412.340524 255.054128 
L 414.334476 255.073605 
L 416.328428 255.087049 
L 418.322379 255.093992 
L 420.316331 255.094189 
L 422.310283 255.087633 
L 424.304235 255.074555 
L 424.304235 253.974786 
L 424.304235 253.974786 
L 422.310283 253.961708 
L 420.316331 253.955152 
L 418.322379 253.955349 
L 416.328428 253.962292 
L 414.334476 253.975736 
L 412.340524 253.995213 
L 410.346572 254.020059 
L 408.35262 254.049449 
L 406.358668 254.082446 
L 404.364717 254.118048 
L 402.370765 254.155235 
L 400.376813 254.193023 
L 398.382861 254.230501 
L 396.388909 254.266862 
L 394.394957 254.301432 
L 392.401005 254.33368 
L 390.407054 254.363225 
L 388.413102 254.389828 
L 386.41915 254.413382 
L 384.425198 254.433891 
L 382.431246 254.451454 
L 380.437294 254.466233 
L 378.443343 254.478439 
L 376.449391 254.488298 
L 374.455439 254.496036 
L 372.461487 254.50186 
L 370.467535 254.505933 
L 368.473583 254.50837 
L 366.479631 254.509213 
L 364.48568 254.50843 
L 362.491728 254.505897 
L 360.497776 254.501393 
L 358.503824 254.494596 
L 356.509872 254.485072 
L 354.51592 254.472285 
L 352.521969 254.455591 
L 350.528017 254.434252 
L 348.534065 254.407458 
L 346.540113 254.374341 
L 344.546161 254.334017 
L 342.552209 254.285625 
L 340.558258 254.228374 
L 338.564306 254.161599 
L 336.570354 254.084815 
L 334.576402 253.997774 
L 332.58245 253.900514 
L 330.588498 253.793398 
L 328.594546 253.677138 
L 326.600595 253.5528 
L 324.606643 253.42179 
L 322.612691 253.285811 
L 320.618739 253.146811 
L 318.624787 253.006898 
L 316.630835 252.86825 
L 314.636884 252.733009 
L 312.642932 252.603186 
L 310.64898 252.480554 
L 308.655028 252.366566 
L 306.661076 252.262279 
L 304.667124 252.168308 
L 302.673173 252.084788 
L 300.679221 252.011361 
L 298.685269 251.947177 
L 296.691317 251.890907 
L 294.697365 251.840759 
L 292.703413 251.794496 
L 290.709461 251.749458 
L 288.71551 251.702571 
L 286.721558 251.650362 
L 284.727606 251.588971 
L 282.733654 251.514171 
L 280.739702 251.421396 
L 278.74575 251.305798 
L 276.751799 251.162327 
L 274.757847 250.985855 
L 272.763895 250.771335 
L 270.769943 250.514017 
L 268.775991 250.209698 
L 266.782039 249.855026 
L 264.788088 249.447824 
L 262.794136 248.987438 
L 260.800184 248.475077 
L 258.806232 247.914122 
L 256.81228 247.310377 
L 254.818328 246.672228 
L 252.824376 246.010681 
L 250.830425 245.339253 
L 248.836473 244.673698 
L 246.842521 244.031553 
L 244.848569 243.431524 
L 242.854617 242.892717 
L 240.860665 242.43376 
L 238.866714 242.071871 
L 236.872762 241.821923 
L 234.87881 241.69558 
L 232.884858 241.700579 
L 230.890906 241.840207 
L 228.896954 242.113029 
L 226.903003 242.512889 
z
" style="fill:#ff0000;fill-opacity:0.75;"/>
   </g>
   <g id="PolyCollection_3">
    <path clip-path="url(#p06b13799d9)" d="M 227.303112 192.419907 
L 227.303112 213.996707 
L 228.447304 214.490488 
L 229.591495 214.925156 
L 230.735686 215.294203 
L 231.879877 215.59258 
L 233.024068 215.816829 
L 234.168259 215.965148 
L 235.31245 216.037398 
L 236.456641 216.03504 
L 237.600832 215.961013 
L 238.745023 215.819565 
L 239.889215 215.616044 
L 241.033406 215.356665 
L 242.177597 215.048263 
L 243.321788 214.698047 
L 244.465979 214.313367 
L 245.61017 213.9015 
L 246.754361 213.469468 
L 247.898552 213.023885 
L 249.042743 212.570844 
L 250.186934 212.115839 
L 251.331126 211.663721 
L 252.475317 211.21868 
L 253.619508 210.784262 
L 254.763699 210.363394 
L 255.90789 209.958436 
L 257.052081 209.571232 
L 258.196272 209.203172 
L 259.340463 208.855251 
L 260.484654 208.52813 
L 261.628846 208.222184 
L 262.773037 207.937553 
L 263.917228 207.674177 
L 265.061419 207.431834 
L 266.20561 207.210161 
L 267.349801 207.008681 
L 268.493992 206.826812 
L 269.638183 206.663887 
L 270.782374 206.519159 
L 271.926565 206.391811 
L 273.070757 206.280965 
L 274.214948 206.185684 
L 275.359139 206.10498 
L 276.50333 206.037818 
L 277.647521 205.983119 
L 278.791712 205.939759 
L 279.935903 205.906576 
L 281.080094 205.882368 
L 282.224285 205.865893 
L 283.368476 205.85587 
L 284.512668 205.850982 
L 285.656859 205.849879 
L 286.80105 205.851189 
L 287.945241 205.853522 
L 289.089432 205.855493 
L 290.233623 205.855738 
L 291.377814 205.852938 
L 292.522005 205.84585 
L 293.666196 205.833337 
L 294.810387 205.814401 
L 295.954579 205.788215 
L 297.09877 205.754151 
L 298.242961 205.711806 
L 299.387152 205.661019 
L 300.531343 205.601878 
L 301.675534 205.534724 
L 302.819725 205.460138 
L 303.963916 205.378917 
L 305.108107 205.29205 
L 306.252298 205.200676 
L 307.39649 205.106042 
L 308.540681 205.009452 
L 309.684872 204.912225 
L 310.829063 204.815642 
L 311.973254 204.720906 
L 313.117445 204.629103 
L 314.261636 204.541178 
L 315.405827 204.457904 
L 316.550018 204.379882 
L 317.694209 204.307527 
L 318.838401 204.241078 
L 319.982592 204.180608 
L 321.126783 204.126039 
L 322.270974 204.077162 
L 323.415165 204.03366 
L 324.559356 203.995128 
L 325.703547 203.961095 
L 326.847738 203.931045 
L 327.991929 203.904436 
L 329.13612 203.880714 
L 330.280312 203.859325 
L 331.424503 203.83973 
L 332.568694 203.821415 
L 333.712885 203.803896 
L 334.857076 203.786731 
L 336.001267 203.769524 
L 337.145458 203.751934 
L 338.289649 203.733677 
L 339.43384 203.714537 
L 340.578032 203.694361 
L 340.578032 202.722252 
L 340.578032 202.722252 
L 339.43384 202.702077 
L 338.289649 202.682936 
L 337.145458 202.66468 
L 336.001267 202.647089 
L 334.857076 202.629882 
L 333.712885 202.612717 
L 332.568694 202.595199 
L 331.424503 202.576884 
L 330.280312 202.557289 
L 329.13612 202.5359 
L 327.991929 202.512177 
L 326.847738 202.485569 
L 325.703547 202.455519 
L 324.559356 202.421486 
L 323.415165 202.382953 
L 322.270974 202.339451 
L 321.126783 202.290575 
L 319.982592 202.236006 
L 318.838401 202.175536 
L 317.694209 202.109087 
L 316.550018 202.036732 
L 315.405827 201.958709 
L 314.261636 201.875436 
L 313.117445 201.78751 
L 311.973254 201.695708 
L 310.829063 201.600972 
L 309.684872 201.504388 
L 308.540681 201.407161 
L 307.39649 201.310572 
L 306.252298 201.215937 
L 305.108107 201.124564 
L 303.963916 201.037697 
L 302.819725 200.956476 
L 301.675534 200.881889 
L 300.531343 200.814736 
L 299.387152 200.755595 
L 298.242961 200.704807 
L 297.09877 200.662462 
L 295.954579 200.628399 
L 294.810387 200.602213 
L 293.666196 200.583277 
L 292.522005 200.570764 
L 291.377814 200.563676 
L 290.233623 200.560876 
L 289.089432 200.56112 
L 287.945241 200.563092 
L 286.80105 200.565425 
L 285.656859 200.566734 
L 284.512668 200.565632 
L 283.368476 200.560744 
L 282.224285 200.55072 
L 281.080094 200.534245 
L 279.935903 200.510037 
L 278.791712 200.476855 
L 277.647521 200.433495 
L 276.50333 200.378795 
L 275.359139 200.311634 
L 274.214948 200.23093 
L 273.070757 200.135649 
L 271.926565 200.024803 
L 270.782374 199.897455 
L 269.638183 199.752727 
L 268.493992 199.589802 
L 267.349801 199.407933 
L 266.20561 199.206452 
L 265.061419 198.98478 
L 263.917228 198.742437 
L 262.773037 198.479061 
L 261.628846 198.194429 
L 260.484654 197.888483 
L 259.340463 197.561362 
L 258.196272 197.213442 
L 257.052081 196.845382 
L 255.90789 196.458178 
L 254.763699 196.053219 
L 253.619508 195.632352 
L 252.475317 195.197933 
L 251.331126 194.752893 
L 250.186934 194.300774 
L 249.042743 193.84577 
L 247.898552 193.392729 
L 246.754361 192.947146 
L 245.61017 192.515114 
L 244.465979 192.103247 
L 243.321788 191.718567 
L 242.177597 191.368351 
L 241.033406 191.059949 
L 239.889215 190.80057 
L 238.745023 190.597049 
L 237.600832 190.455601 
L 236.456641 190.381574 
L 235.31245 190.379216 
L 234.168259 190.451466 
L 233.024068 190.599785 
L 231.879877 190.824033 
L 230.735686 191.122411 
L 229.591495 191.491458 
L 228.447304 191.926125 
L 227.303112 192.419907 
z
" style="fill:#ff0000;fill-opacity:0.75;"/>
   </g>
   <g id="PolyCollection_4">
    <path clip-path="url(#p06b13799d9)" d="M 226.815844 139.772735 
L 226.815844 164.011151 
L 227.705465 164.271958 
L 228.595086 164.475087 
L 229.484707 164.618308 
L 230.374329 164.70037 
L 231.26395 164.721034 
L 232.153571 164.681064 
L 233.043192 164.582203 
L 233.932814 164.427111 
L 234.822435 164.219289 
L 235.712056 163.962973 
L 236.601677 163.663015 
L 237.491299 163.324752 
L 238.38092 162.953861 
L 239.270541 162.556219 
L 240.160162 162.137756 
L 241.049783 161.704323 
L 241.939405 161.261565 
L 242.829026 160.814807 
L 243.718647 160.368964 
L 244.608268 159.928459 
L 245.49789 159.497173 
L 246.387511 159.078403 
L 247.277132 158.674852 
L 248.166753 158.288631 
L 249.056374 157.921273 
L 249.945996 157.573776 
L 250.835617 157.246642 
L 251.725238 156.939935 
L 252.614859 156.653345 
L 253.504481 156.386249 
L 254.394102 156.137779 
L 255.283723 155.906889 
L 256.173344 155.692411 
L 257.062966 155.493112 
L 257.952587 155.307746 
L 258.842208 155.135094 
L 259.731829 154.973997 
L 260.62145 154.823385 
L 261.511072 154.682296 
L 262.400693 154.549889 
L 263.290314 154.425446 
L 264.179935 154.308382 
L 265.069557 154.198232 
L 265.959178 154.09465 
L 266.848799 153.997398 
L 267.73842 153.906337 
L 268.628041 153.821408 
L 269.517663 153.742629 
L 270.407284 153.670073 
L 271.296905 153.60386 
L 272.186526 153.544143 
L 273.076148 153.491096 
L 273.965769 153.444901 
L 274.85539 153.405739 
L 275.745011 153.373777 
L 276.634633 153.34916 
L 277.524254 153.331999 
L 278.413875 153.322358 
L 279.303496 153.320253 
L 280.193117 153.325635 
L 281.082739 153.338387 
L 281.97236 153.358315 
L 282.861981 153.385142 
L 283.751602 153.418504 
L 284.641224 153.457951 
L 285.530845 153.502941 
L 286.420466 153.552845 
L 287.310087 153.606952 
L 288.199709 153.664473 
L 289.08933 153.724553 
L 289.978951 153.786279 
L 290.868572 153.848697 
L 291.758193 153.910822 
L 292.647815 153.971658 
L 293.537436 154.030215 
L 294.427057 154.085523 
L 295.316678 154.136652 
L 296.2063 154.182727 
L 297.095921 154.222944 
L 297.985542 154.256585 
L 298.875163 154.283027 
L 299.764784 154.301753 
L 300.654406 154.31236 
L 301.544027 154.31456 
L 302.433648 154.308189 
L 303.323269 154.293199 
L 304.212891 154.269659 
L 305.102512 154.237751 
L 305.992133 154.19776 
L 306.881754 154.150069 
L 307.771376 154.095145 
L 308.660997 154.033532 
L 309.550618 153.965838 
L 310.440239 153.892722 
L 311.32986 153.814884 
L 312.219482 153.733051 
L 313.109103 153.647966 
L 313.998724 153.560377 
L 314.888345 153.471027 
L 314.888345 150.312859 
L 314.888345 150.312859 
L 313.998724 150.223509 
L 313.109103 150.135921 
L 312.219482 150.050836 
L 311.32986 149.969003 
L 310.440239 149.891164 
L 309.550618 149.818049 
L 308.660997 149.750354 
L 307.771376 149.688741 
L 306.881754 149.633817 
L 305.992133 149.586126 
L 305.102512 149.546135 
L 304.212891 149.514227 
L 303.323269 149.490688 
L 302.433648 149.475698 
L 301.544027 149.469326 
L 300.654406 149.471527 
L 299.764784 149.482133 
L 298.875163 149.500859 
L 297.985542 149.527301 
L 297.095921 149.560942 
L 296.2063 149.60116 
L 295.316678 149.647235 
L 294.427057 149.698363 
L 293.537436 149.753671 
L 292.647815 149.812228 
L 291.758193 149.873064 
L 290.868572 149.935189 
L 289.978951 149.997607 
L 289.08933 150.059333 
L 288.199709 150.119413 
L 287.310087 150.176934 
L 286.420466 150.231041 
L 285.530845 150.280945 
L 284.641224 150.325935 
L 283.751602 150.365382 
L 282.861981 150.398745 
L 281.97236 150.425571 
L 281.082739 150.445499 
L 280.193117 150.458251 
L 279.303496 150.463633 
L 278.413875 150.461528 
L 277.524254 150.451888 
L 276.634633 150.434726 
L 275.745011 150.410109 
L 274.85539 150.378148 
L 273.965769 150.338985 
L 273.076148 150.29279 
L 272.186526 150.239743 
L 271.296905 150.180026 
L 270.407284 150.113813 
L 269.517663 150.041257 
L 268.628041 149.962478 
L 267.73842 149.87755 
L 266.848799 149.786488 
L 265.959178 149.689236 
L 265.069557 149.585654 
L 264.179935 149.475504 
L 263.290314 149.35844 
L 262.400693 149.233998 
L 261.511072 149.10159 
L 260.62145 148.960502 
L 259.731829 148.80989 
L 258.842208 148.648793 
L 257.952587 148.47614 
L 257.062966 148.290774 
L 256.173344 148.091476 
L 255.283723 147.876997 
L 254.394102 147.646107 
L 253.504481 147.397638 
L 252.614859 147.130542 
L 251.725238 146.843951 
L 250.835617 146.537245 
L 249.945996 146.21011 
L 249.056374 145.862613 
L 248.166753 145.495256 
L 247.277132 145.109034 
L 246.387511 144.705484 
L 245.49789 144.286714 
L 244.608268 143.855427 
L 243.718647 143.414922 
L 242.829026 142.969079 
L 241.939405 142.522322 
L 241.049783 142.079564 
L 240.160162 141.646131 
L 239.270541 141.227668 
L 238.38092 140.830025 
L 237.491299 140.459134 
L 236.601677 140.120871 
L 235.712056 139.820914 
L 234.822435 139.564598 
L 233.932814 139.356776 
L 233.043192 139.201684 
L 232.153571 139.102822 
L 231.26395 139.062852 
L 230.374329 139.083516 
L 229.484707 139.165579 
L 228.595086 139.308799 
L 227.705465 139.511929 
L 226.815844 139.772735 
z
" style="fill:#ff0000;fill-opacity:0.75;"/>
   </g>
   <g id="PolyCollection_5">
    <path clip-path="url(#p06b13799d9)" d="M 227.297315 89.916052 
L 227.297315 111.235107 
L 228.256956 111.792961 
L 229.216596 112.282038 
L 230.176237 112.692046 
L 231.135877 113.014489 
L 232.095518 113.242994 
L 233.055158 113.373556 
L 234.014799 113.40467 
L 234.974439 113.337375 
L 235.93408 113.175169 
L 236.893721 112.923841 
L 237.853361 112.5912 
L 238.813002 112.186735 
L 239.772642 111.721226 
L 240.732283 111.206315 
L 241.691923 110.654075 
L 242.651564 110.076587 
L 243.611204 109.485555 
L 244.570845 108.891959 
L 245.530485 108.305779 
L 246.490126 107.735772 
L 247.449766 107.189329 
L 248.409407 106.672399 
L 249.369047 106.189469 
L 250.328688 105.743611 
L 251.288328 105.336574 
L 252.247969 104.968908 
L 253.207609 104.640125 
L 254.16725 104.348871 
L 255.12689 104.093103 
L 256.086531 103.870271 
L 257.046171 103.677483 
L 258.005812 103.511665 
L 258.965452 103.369686 
L 259.925093 103.248476 
L 260.884733 103.145108 
L 261.844374 103.056861 
L 262.804014 102.981257 
L 263.763655 102.916073 
L 264.723295 102.859344 
L 265.682936 102.809344 
L 266.642576 102.764555 
L 267.602217 102.723641 
L 268.561857 102.685411 
L 269.521498 102.648788 
L 270.481138 102.612792 
L 271.440779 102.57652 
L 272.400419 102.539145 
L 273.36006 102.499924 
L 274.3197 102.458208 
L 275.279341 102.413471 
L 276.238981 102.36533 
L 277.198622 102.313573 
L 278.158262 102.258182 
L 279.117903 102.199343 
L 280.077543 102.137459 
L 281.037184 102.073134 
L 281.996824 102.007163 
L 282.956465 101.940496 
L 283.916105 101.874199 
L 284.875746 101.809402 
L 285.835386 101.747247 
L 286.795027 101.688828 
L 287.754667 101.635139 
L 288.714308 101.587026 
L 289.673948 101.545142 
L 290.633589 101.50992 
L 291.593229 101.481552 
L 292.55287 101.459986 
L 293.51251 101.444933 
L 294.472151 101.435884 
L 295.431792 101.43214 
L 296.391432 101.432846 
L 297.351073 101.437038 
L 298.310713 101.443684 
L 299.270354 101.451734 
L 300.229994 101.460159 
L 301.189635 101.468 
L 302.149275 101.474392 
L 303.108916 101.478604 
L 304.068556 101.480051 
L 305.028197 101.478308 
L 305.987837 101.473116 
L 306.947478 101.464371 
L 307.907118 101.452118 
L 308.866759 101.436528 
L 309.826399 101.417877 
L 310.78604 101.396514 
L 311.74568 101.372839 
L 312.705321 101.347272 
L 313.664961 101.320226 
L 314.624602 101.292089 
L 315.584242 101.263204 
L 316.543883 101.233857 
L 317.503523 101.204274 
L 318.463164 101.174621 
L 319.422804 101.145007 
L 320.382445 101.115497 
L 321.342085 101.086119 
L 322.301726 101.056886 
L 322.301726 100.094273 
L 322.301726 100.094273 
L 321.342085 100.06504 
L 320.382445 100.035663 
L 319.422804 100.006152 
L 318.463164 99.976538 
L 317.503523 99.946885 
L 316.543883 99.917302 
L 315.584242 99.887955 
L 314.624602 99.85907 
L 313.664961 99.830933 
L 312.705321 99.803888 
L 311.74568 99.77832 
L 310.78604 99.754645 
L 309.826399 99.733283 
L 308.866759 99.714631 
L 307.907118 99.699041 
L 306.947478 99.686788 
L 305.987837 99.678043 
L 305.028197 99.672851 
L 304.068556 99.671108 
L 303.108916 99.672555 
L 302.149275 99.676767 
L 301.189635 99.68316 
L 300.229994 99.691 
L 299.270354 99.699425 
L 298.310713 99.707475 
L 297.351073 99.714121 
L 296.391432 99.718313 
L 295.431792 99.719019 
L 294.472151 99.715275 
L 293.51251 99.706226 
L 292.55287 99.691173 
L 291.593229 99.669607 
L 290.633589 99.641239 
L 289.673948 99.606017 
L 288.714308 99.564133 
L 287.754667 99.51602 
L 286.795027 99.462332 
L 285.835386 99.403912 
L 284.875746 99.341757 
L 283.916105 99.27696 
L 282.956465 99.210663 
L 281.996824 99.143996 
L 281.037184 99.078025 
L 280.077543 99.013701 
L 279.117903 98.951816 
L 278.158262 98.892977 
L 277.198622 98.837586 
L 276.238981 98.785829 
L 275.279341 98.737689 
L 274.3197 98.692951 
L 273.36006 98.651236 
L 272.400419 98.612014 
L 271.440779 98.574639 
L 270.481138 98.538367 
L 269.521498 98.502371 
L 268.561857 98.465748 
L 267.602217 98.427518 
L 266.642576 98.386604 
L 265.682936 98.341815 
L 264.723295 98.291815 
L 263.763655 98.235086 
L 262.804014 98.169903 
L 261.844374 98.094298 
L 260.884733 98.006051 
L 259.925093 97.902683 
L 258.965452 97.781473 
L 258.005812 97.639494 
L 257.046171 97.473676 
L 256.086531 97.280888 
L 255.12689 97.058056 
L 254.16725 96.802288 
L 253.207609 96.511034 
L 252.247969 96.182251 
L 251.288328 95.814585 
L 250.328688 95.407548 
L 249.369047 94.96169 
L 248.409407 94.47876 
L 247.449766 93.96183 
L 246.490126 93.415387 
L 245.530485 92.84538 
L 244.570845 92.2592 
L 243.611204 91.665604 
L 242.651564 91.074572 
L 241.691923 90.497084 
L 240.732283 89.944844 
L 239.772642 89.429933 
L 238.813002 88.964424 
L 237.853361 88.559959 
L 236.893721 88.227318 
L 235.93408 87.97599 
L 234.974439 87.813784 
L 234.014799 87.746489 
L 233.055158 87.777603 
L 232.095518 87.908165 
L 231.135877 88.13667 
L 230.176237 88.459113 
L 229.216596 88.869121 
L 228.256956 89.358198 
L 227.297315 89.916052 
z
" style="fill:#ff0000;fill-opacity:0.75;"/>
   </g>
   <g id="PolyCollection_6">
    <path clip-path="url(#p06b13799d9)" d="M 226.749693 37.562801 
L 226.749693 60.955631 
L 227.606334 61.356897 
L 228.462976 61.675471 
L 229.319618 61.905589 
L 230.17626 62.043646 
L 231.032902 62.088307 
L 231.889543 62.040529 
L 232.746185 61.903483 
L 233.602827 61.682386 
L 234.459469 61.384256 
L 235.31611 61.017597 
L 236.172752 60.592049 
L 237.029394 60.117996 
L 237.886036 59.606182 
L 238.742678 59.067335 
L 239.599319 58.511824 
L 240.455961 57.949355 
L 241.312603 57.388736 
L 242.169245 56.837689 
L 243.025887 56.302738 
L 243.882528 55.789155 
L 244.73917 55.300963 
L 245.595812 54.840987 
L 246.452454 54.410954 
L 247.309095 54.011611 
L 248.165737 53.642871 
L 249.022379 53.303962 
L 249.879021 52.993584 
L 250.735663 52.710051 
L 251.592304 52.451422 
L 252.448946 52.215619 
L 253.305588 52.000524 
L 254.16223 51.804056 
L 255.018872 51.624231 
L 255.875513 51.459202 
L 256.732155 51.307292 
L 257.588797 51.167002 
L 258.445439 51.037023 
L 259.30208 50.916231 
L 260.158722 50.803681 
L 261.015364 50.698593 
L 261.872006 50.60034 
L 262.728648 50.508427 
L 263.585289 50.42248 
L 264.441931 50.342221 
L 265.298573 50.267451 
L 266.155215 50.198031 
L 267.011857 50.133858 
L 267.868498 50.074854 
L 268.72514 50.020942 
L 269.581782 49.972034 
L 270.438424 49.928018 
L 271.295065 49.888749 
L 272.151707 49.854045 
L 273.008349 49.823681 
L 273.864991 49.797399 
L 274.721633 49.774907 
L 275.578274 49.755894 
L 276.434916 49.740036 
L 277.291558 49.727016 
L 278.1482 49.716533 
L 279.004842 49.708313 
L 279.861483 49.702127 
L 280.718125 49.697791 
L 281.574767 49.69518 
L 282.431409 49.694223 
L 283.288051 49.694904 
L 284.144692 49.697257 
L 285.001334 49.701359 
L 285.857976 49.707314 
L 286.714618 49.715248 
L 287.571259 49.725289 
L 288.427901 49.737558 
L 289.284543 49.752151 
L 290.141185 49.769133 
L 290.997827 49.78852 
L 291.854468 49.810278 
L 292.71111 49.834307 
L 293.567752 49.860442 
L 294.424394 49.888448 
L 295.281036 49.918019 
L 296.137677 49.948776 
L 296.994319 49.980276 
L 297.850961 50.012011 
L 298.707603 50.043417 
L 299.564244 50.073888 
L 300.420886 50.102784 
L 301.277528 50.129445 
L 302.13417 50.153213 
L 302.990812 50.173447 
L 303.847453 50.189544 
L 304.704095 50.20096 
L 305.560737 50.20723 
L 306.417379 50.207989 
L 307.274021 50.202984 
L 308.130662 50.19209 
L 308.987304 50.175318 
L 309.843946 50.152818 
L 310.700588 50.124875 
L 311.557229 50.091904 
L 311.557229 48.426527 
L 311.557229 48.426527 
L 310.700588 48.393557 
L 309.843946 48.365614 
L 308.987304 48.343114 
L 308.130662 48.326342 
L 307.274021 48.315448 
L 306.417379 48.310443 
L 305.560737 48.311202 
L 304.704095 48.317472 
L 303.847453 48.328888 
L 302.990812 48.344985 
L 302.13417 48.365219 
L 301.277528 48.388987 
L 300.420886 48.415648 
L 299.564244 48.444543 
L 298.707603 48.475015 
L 297.850961 48.506421 
L 296.994319 48.538156 
L 296.137677 48.569656 
L 295.281036 48.600413 
L 294.424394 48.629984 
L 293.567752 48.65799 
L 292.71111 48.684125 
L 291.854468 48.708154 
L 290.997827 48.729911 
L 290.141185 48.749299 
L 289.284543 48.766281 
L 288.427901 48.780874 
L 287.571259 48.793143 
L 286.714618 48.803184 
L 285.857976 48.811117 
L 285.001334 48.817073 
L 284.144692 48.821174 
L 283.288051 48.823528 
L 282.431409 48.824209 
L 281.574767 48.823252 
L 280.718125 48.820641 
L 279.861483 48.816305 
L 279.004842 48.810119 
L 278.1482 48.801899 
L 277.291558 48.791415 
L 276.434916 48.778396 
L 275.578274 48.762538 
L 274.721633 48.743525 
L 273.864991 48.721033 
L 273.008349 48.694751 
L 272.151707 48.664387 
L 271.295065 48.629683 
L 270.438424 48.590414 
L 269.581782 48.546398 
L 268.72514 48.49749 
L 267.868498 48.443578 
L 267.011857 48.384574 
L 266.155215 48.320401 
L 265.298573 48.25098 
L 264.441931 48.176211 
L 263.585289 48.095952 
L 262.728648 48.010005 
L 261.872006 47.918092 
L 261.015364 47.819838 
L 260.158722 47.71475 
L 259.30208 47.602201 
L 258.445439 47.481409 
L 257.588797 47.35143 
L 256.732155 47.21114 
L 255.875513 47.059229 
L 255.018872 46.894201 
L 254.16223 46.714376 
L 253.305588 46.517908 
L 252.448946 46.302813 
L 251.592304 46.06701 
L 250.735663 45.808381 
L 249.879021 45.524847 
L 249.022379 45.21447 
L 248.165737 44.875561 
L 247.309095 44.50682 
L 246.452454 44.107477 
L 245.595812 43.677444 
L 244.73917 43.217469 
L 243.882528 42.729276 
L 243.025887 42.215694 
L 242.169245 41.680743 
L 241.312603 41.129696 
L 240.455961 40.569076 
L 239.599319 40.006608 
L 238.742678 39.451096 
L 237.886036 38.91225 
L 237.029394 38.400436 
L 236.172752 37.926383 
L 235.31611 37.500834 
L 234.459469 37.134176 
L 233.602827 36.836046 
L 232.746185 36.614949 
L 231.889543 36.477903 
L 231.032902 36.430125 
L 230.17626 36.474786 
L 229.319618 36.612843 
L 228.462976 36.842961 
L 227.606334 37.161535 
L 226.749693 37.562801 
z
" style="fill:#ff0000;fill-opacity:0.75;"/>
   </g>
   <g id="LineCollection_1">
    <path clip-path="url(#p06b13799d9)" d="M 252.695609 312.25558 
L 252.695609 299.426489 
" style="fill:none;stroke:#000000;stroke-width:1.5;"/>
    <path clip-path="url(#p06b13799d9)" d="M 252.047507 260.939216 
L 252.047507 248.110125 
" style="fill:none;stroke:#000000;stroke-width:1.5;"/>
    <path clip-path="url(#p06b13799d9)" d="M 251.025617 209.622852 
L 251.025617 196.793761 
" style="fill:none;stroke:#000000;stroke-width:1.5;"/>
    <path clip-path="url(#p06b13799d9)" d="M 245.773951 158.306489 
L 245.773951 145.477398 
" style="fill:none;stroke:#000000;stroke-width:1.5;"/>
    <path clip-path="url(#p06b13799d9)" d="M 244.535949 106.990125 
L 244.535949 94.161034 
" style="fill:none;stroke:#000000;stroke-width:1.5;"/>
    <path clip-path="url(#p06b13799d9)" d="M 239.461982 55.673761 
L 239.461982 42.84467 
" style="fill:none;stroke:#000000;stroke-width:1.5;"/>
   </g>
   <g id="patch_3">
    <path d="M 226.746875 332.782125 
L 226.746875 22.318125 
" style="fill:none;stroke:#000000;stroke-linecap:square;stroke-linejoin:miter;stroke-width:0.8;"/>
   </g>
   <g id="patch_4">
    <path d="M 617.346875 332.782125 
L 617.346875 22.318125 
" style="fill:none;stroke:#000000;stroke-linecap:square;stroke-linejoin:miter;stroke-width:0.8;"/>
   </g>
   <g id="patch_5">
    <path d="M 226.746875 332.782125 
L 617.346875 332.782125 
" style="fill:none;stroke:#000000;stroke-linecap:square;stroke-linejoin:miter;stroke-width:0.8;"/>
   </g>
   <g id="patch_6">
    <path d="M 226.746875 22.318125 
L 617.346875 22.318125 
" style="fill:none;stroke:#000000;stroke-linecap:square;stroke-linejoin:miter;stroke-width:0.8;"/>
   </g>
   <g id="text_18">
    <!-- AOE2 for 1.0 -->
    <g transform="translate(384.005938 16.318125)scale(0.12 -0.12)">
     <use xlink:href="#DejaVuSans-41"/>
     <use x="68.392578" xlink:href="#DejaVuSans-4f"/>
     <use x="147.103516" xlink:href="#DejaVuSans-45"/>
     <use x="210.287109" xlink:href="#DejaVuSans-32"/>
     <use x="273.910156" xlink:href="#DejaVuSans-20"/>
     <use x="305.697266" xlink:href="#DejaVuSans-66"/>
     <use x="340.902344" xlink:href="#DejaVuSans-6f"/>
     <use x="402.083984" xlink:href="#DejaVuSans-72"/>
     <use x="443.197266" xlink:href="#DejaVuSans-20"/>
     <use x="474.984375" xlink:href="#DejaVuSans-31"/>
     <use x="538.607422" xlink:href="#DejaVuSans-2e"/>
     <use x="570.394531" xlink:href="#DejaVuSans-30"/>
    </g>
   </g>
  </g>
 </g>
 <defs>
  <clipPath id="p06b13799d9">
   <rect height="310.464" width="390.6" x="226.746875" y="22.318125"/>
  </clipPath>
 </defs>
</svg>
