<?xml version='1.0' encoding='utf-8'?>
<svg xmlns:xlink="http://www.w3.org/1999/xlink" xmlns="http://www.w3.org/2000/svg" id="chart-6e35afec-53c9-4985-bf27-a9bd4b7b8241" class="pygal-chart" viewBox="0 0 800 600"><!--Generated with pygal 2.4.0 (lxml) ©Kozea 2012-2016 on 2019-10-13--><!--http://pygal.org--><!--http://github.com/Kozea/pygal--><defs><style type="text/css">#chart-6e35afec-53c9-4985-bf27-a9bd4b7b8241{-webkit-user-select:none;-webkit-font-smoothing:antialiased;font-family:Helvetica,Arial,sans-serif}#chart-6e35afec-53c9-4985-bf27-a9bd4b7b8241 .title{font-family:Helvetica,Arial,sans-serif;font-size:18px}#chart-6e35afec-53c9-4985-bf27-a9bd4b7b8241 .legends .legend text{font-family:Helvetica,Arial,sans-serif;font-size:15px}#chart-6e35afec-53c9-4985-bf27-a9bd4b7b8241 .axis text{font-family:Helvetica,Arial,sans-serif;font-size:15px}#chart-6e35afec-53c9-4985-bf27-a9bd4b7b8241 .axis text.major{font-family:Helvetica,Arial,sans-serif;font-size:15px}#chart-6e35afec-53c9-4985-bf27-a9bd4b7b8241 .text-overlay text.value{font-family:Helvetica,Arial,sans-serif;font-size:15px}#chart-6e35afec-53c9-4985-bf27-a9bd4b7b8241 .text-overlay text.label{font-family:Helvetica,Arial,sans-serif;font-size:15px}#chart-6e35afec-53c9-4985-bf27-a9bd4b7b8241 .tooltip{font-family:Helvetica,Arial,sans-serif;font-size:14px}#chart-6e35afec-53c9-4985-bf27-a9bd4b7b8241 text.no_data{font-family:Helvetica,Arial,sans-serif;font-size:64px}
#chart-6e35afec-53c9-4985-bf27-a9bd4b7b8241{background-color:transparent}#chart-6e35afec-53c9-4985-bf27-a9bd4b7b8241 path,#chart-6e35afec-53c9-4985-bf27-a9bd4b7b8241 line,#chart-6e35afec-53c9-4985-bf27-a9bd4b7b8241 rect,#chart-6e35afec-53c9-4985-bf27-a9bd4b7b8241 circle{-webkit-transition:150ms;-moz-transition:150ms;transition:150ms}#chart-6e35afec-53c9-4985-bf27-a9bd4b7b8241 .graph &gt; .background{fill:transparent}#chart-6e35afec-53c9-4985-bf27-a9bd4b7b8241 .plot &gt; .background{fill:white}#chart-6e35afec-53c9-4985-bf27-a9bd4b7b8241 .graph{fill:rgba(0,0,0,.87)}#chart-6e35afec-53c9-4985-bf27-a9bd4b7b8241 text.no_data{fill:rgba(0,0,0,1)}#chart-6e35afec-53c9-4985-bf27-a9bd4b7b8241 .title{fill:rgba(0,0,0,1)}#chart-6e35afec-53c9-4985-bf27-a9bd4b7b8241 .legends .legend text{fill:rgba(0,0,0,.87)}#chart-6e35afec-53c9-4985-bf27-a9bd4b7b8241 .legends .legend:hover text{fill:rgba(0,0,0,1)}#chart-6e35afec-53c9-4985-bf27-a9bd4b7b8241 .axis .line{stroke:rgba(0,0,0,1)}#chart-6e35afec-53c9-4985-bf27-a9bd4b7b8241 .axis .guide.line{stroke:rgba(0,0,0,.54)}#chart-6e35afec-53c9-4985-bf27-a9bd4b7b8241 .axis .major.line{stroke:rgba(0,0,0,.87)}#chart-6e35afec-53c9-4985-bf27-a9bd4b7b8241 .axis text.major{fill:rgba(0,0,0,1)}#chart-6e35afec-53c9-4985-bf27-a9bd4b7b8241 .axis.y .guides:hover .guide.line,#chart-6e35afec-53c9-4985-bf27-a9bd4b7b8241 .line-graph .axis.x .guides:hover .guide.line,#chart-6e35afec-53c9-4985-bf27-a9bd4b7b8241 .stackedline-graph .axis.x .guides:hover .guide.line,#chart-6e35afec-53c9-4985-bf27-a9bd4b7b8241 .xy-graph .axis.x .guides:hover .guide.line{stroke:rgba(0,0,0,1)}#chart-6e35afec-53c9-4985-bf27-a9bd4b7b8241 .axis .guides:hover text{fill:rgba(0,0,0,1)}#chart-6e35afec-53c9-4985-bf27-a9bd4b7b8241 .reactive{fill-opacity:.7;stroke-opacity:.8}#chart-6e35afec-53c9-4985-bf27-a9bd4b7b8241 .ci{stroke:rgba(0,0,0,.87)}#chart-6e35afec-53c9-4985-bf27-a9bd4b7b8241 .reactive.active,#chart-6e35afec-53c9-4985-bf27-a9bd4b7b8241 .active .reactive{fill-opacity:.8;stroke-opacity:.9;stroke-width:4}#chart-6e35afec-53c9-4985-bf27-a9bd4b7b8241 .ci .reactive.active{stroke-width:1.5}#chart-6e35afec-53c9-4985-bf27-a9bd4b7b8241 .series text{fill:rgba(0,0,0,1)}#chart-6e35afec-53c9-4985-bf27-a9bd4b7b8241 .tooltip rect{fill:white;stroke:rgba(0,0,0,1);-webkit-transition:opacity 150ms;-moz-transition:opacity 150ms;transition:opacity 150ms}#chart-6e35afec-53c9-4985-bf27-a9bd4b7b8241 .tooltip .label{fill:rgba(0,0,0,.87)}#chart-6e35afec-53c9-4985-bf27-a9bd4b7b8241 .tooltip .label{fill:rgba(0,0,0,.87)}#chart-6e35afec-53c9-4985-bf27-a9bd4b7b8241 .tooltip .legend{font-size:.8em;fill:rgba(0,0,0,.54)}#chart-6e35afec-53c9-4985-bf27-a9bd4b7b8241 .tooltip .x_label{font-size:.6em;fill:rgba(0,0,0,1)}#chart-6e35afec-53c9-4985-bf27-a9bd4b7b8241 .tooltip .xlink{font-size:.5em;text-decoration:underline}#chart-6e35afec-53c9-4985-bf27-a9bd4b7b8241 .tooltip .value{font-size:1.5em}#chart-6e35afec-53c9-4985-bf27-a9bd4b7b8241 .bound{font-size:.5em}#chart-6e35afec-53c9-4985-bf27-a9bd4b7b8241 .max-value{font-size:.75em;fill:rgba(0,0,0,.54)}#chart-6e35afec-53c9-4985-bf27-a9bd4b7b8241 .map-element{fill:white;stroke:rgba(0,0,0,.54) !important}#chart-6e35afec-53c9-4985-bf27-a9bd4b7b8241 .map-element .reactive{fill-opacity:inherit;stroke-opacity:inherit}#chart-6e35afec-53c9-4985-bf27-a9bd4b7b8241 .color-0,#chart-6e35afec-53c9-4985-bf27-a9bd4b7b8241 .color-0 a:visited{stroke:#F44336;fill:#F44336}#chart-6e35afec-53c9-4985-bf27-a9bd4b7b8241 .color-1,#chart-6e35afec-53c9-4985-bf27-a9bd4b7b8241 .color-1 a:visited{stroke:#3F51B5;fill:#3F51B5}#chart-6e35afec-53c9-4985-bf27-a9bd4b7b8241 .color-2,#chart-6e35afec-53c9-4985-bf27-a9bd4b7b8241 .color-2 a:visited{stroke:#009688;fill:#009688}#chart-6e35afec-53c9-4985-bf27-a9bd4b7b8241 .color-3,#chart-6e35afec-53c9-4985-bf27-a9bd4b7b8241 .color-3 a:visited{stroke:#FFC107;fill:#FFC107}#chart-6e35afec-53c9-4985-bf27-a9bd4b7b8241 .color-4,#chart-6e35afec-53c9-4985-bf27-a9bd4b7b8241 .color-4 a:visited{stroke:#FF5722;fill:#FF5722}#chart-6e35afec-53c9-4985-bf27-a9bd4b7b8241 .color-5,#chart-6e35afec-53c9-4985-bf27-a9bd4b7b8241 .color-5 a:visited{stroke:#9C27B0;fill:#9C27B0}#chart-6e35afec-53c9-4985-bf27-a9bd4b7b8241 .text-overlay .color-0 text{fill:black}#chart-6e35afec-53c9-4985-bf27-a9bd4b7b8241 .text-overlay .color-1 text{fill:black}#chart-6e35afec-53c9-4985-bf27-a9bd4b7b8241 .text-overlay .color-2 text{fill:black}#chart-6e35afec-53c9-4985-bf27-a9bd4b7b8241 .text-overlay .color-3 text{fill:black}#chart-6e35afec-53c9-4985-bf27-a9bd4b7b8241 .text-overlay .color-4 text{fill:black}#chart-6e35afec-53c9-4985-bf27-a9bd4b7b8241 .text-overlay .color-5 text{fill:black}
#chart-6e35afec-53c9-4985-bf27-a9bd4b7b8241 text.no_data{text-anchor:middle}#chart-6e35afec-53c9-4985-bf27-a9bd4b7b8241 .guide.line{fill:none}#chart-6e35afec-53c9-4985-bf27-a9bd4b7b8241 .centered{text-anchor:middle}#chart-6e35afec-53c9-4985-bf27-a9bd4b7b8241 .title{text-anchor:middle}#chart-6e35afec-53c9-4985-bf27-a9bd4b7b8241 .legends .legend text{fill-opacity:1}#chart-6e35afec-53c9-4985-bf27-a9bd4b7b8241 .axis.x text{text-anchor:middle}#chart-6e35afec-53c9-4985-bf27-a9bd4b7b8241 .axis.x:not(.web) text[transform]{text-anchor:start}#chart-6e35afec-53c9-4985-bf27-a9bd4b7b8241 .axis.x:not(.web) text[transform].backwards{text-anchor:end}#chart-6e35afec-53c9-4985-bf27-a9bd4b7b8241 .axis.y text{text-anchor:end}#chart-6e35afec-53c9-4985-bf27-a9bd4b7b8241 .axis.y text[transform].backwards{text-anchor:start}#chart-6e35afec-53c9-4985-bf27-a9bd4b7b8241 .axis.y2 text{text-anchor:start}#chart-6e35afec-53c9-4985-bf27-a9bd4b7b8241 .axis.y2 text[transform].backwards{text-anchor:end}#chart-6e35afec-53c9-4985-bf27-a9bd4b7b8241 .axis .guide.line{stroke-dasharray:1}#chart-6e35afec-53c9-4985-bf27-a9bd4b7b8241 .axis .major.guide.line{stroke-dasharray:1}#chart-6e35afec-53c9-4985-bf27-a9bd4b7b8241 .horizontal .axis.y .guide.line,#chart-6e35afec-53c9-4985-bf27-a9bd4b7b8241 .horizontal .axis.y2 .guide.line,#chart-6e35afec-53c9-4985-bf27-a9bd4b7b8241 .vertical .axis.x .guide.line{opacity:0}#chart-6e35afec-53c9-4985-bf27-a9bd4b7b8241 .horizontal .axis.always_show .guide.line,#chart-6e35afec-53c9-4985-bf27-a9bd4b7b8241 .vertical .axis.always_show .guide.line{opacity:1 !important}#chart-6e35afec-53c9-4985-bf27-a9bd4b7b8241 .axis.y .guides:hover .guide.line,#chart-6e35afec-53c9-4985-bf27-a9bd4b7b8241 .axis.y2 .guides:hover .guide.line,#chart-6e35afec-53c9-4985-bf27-a9bd4b7b8241 .axis.x .guides:hover .guide.line{opacity:1}#chart-6e35afec-53c9-4985-bf27-a9bd4b7b8241 .axis .guides:hover text{opacity:1}#chart-6e35afec-53c9-4985-bf27-a9bd4b7b8241 .nofill{fill:none}#chart-6e35afec-53c9-4985-bf27-a9bd4b7b8241 .subtle-fill{fill-opacity:.2}#chart-6e35afec-53c9-4985-bf27-a9bd4b7b8241 .dot{stroke-width:1px;fill-opacity:1}#chart-6e35afec-53c9-4985-bf27-a9bd4b7b8241 .dot.active{stroke-width:5px}#chart-6e35afec-53c9-4985-bf27-a9bd4b7b8241 .dot.negative{fill:transparent}#chart-6e35afec-53c9-4985-bf27-a9bd4b7b8241 text,#chart-6e35afec-53c9-4985-bf27-a9bd4b7b8241 tspan{stroke:none !important}#chart-6e35afec-53c9-4985-bf27-a9bd4b7b8241 .series text.active{opacity:1}#chart-6e35afec-53c9-4985-bf27-a9bd4b7b8241 .tooltip rect{fill-opacity:.95;stroke-width:.5}#chart-6e35afec-53c9-4985-bf27-a9bd4b7b8241 .tooltip text{fill-opacity:1}#chart-6e35afec-53c9-4985-bf27-a9bd4b7b8241 .showable{visibility:hidden}#chart-6e35afec-53c9-4985-bf27-a9bd4b7b8241 .showable.shown{visibility:visible}#chart-6e35afec-53c9-4985-bf27-a9bd4b7b8241 .gauge-background{fill:rgba(229,229,229,1);stroke:none}#chart-6e35afec-53c9-4985-bf27-a9bd4b7b8241 .bg-lines{stroke:transparent;stroke-width:2px}</style><script type="text/javascript">window.pygal = window.pygal || {};window.pygal.config = window.pygal.config || {};window.pygal.config['6e35afec-53c9-4985-bf27-a9bd4b7b8241'] = {"allow_interruptions": false, "box_mode": "extremes", "classes": ["pygal-chart"], "css": ["file://style.css", "file://graph.css"], "defs": [], "disable_xml_declaration": false, "dots_size": 2.5, "dynamic_print_values": false, "explicit_size": false, "fill": false, "force_uri_protocol": "https", "formatter": null, "half_pie": false, "height": 600, "include_x_axis": false, "inner_radius": 0, "interpolate": null, "interpolation_parameters": {}, "interpolation_precision": 250, "inverse_y_axis": false, "js": ["//kozea.github.io/pygal.js/2.0.x/pygal-tooltips.min.js"], "legend_at_bottom": true, "legend_at_bottom_columns": 2, "legend_box_size": 12, "logarithmic": false, "margin": 20, "margin_bottom": 65, "margin_left": null, "margin_right": null, "margin_top": null, "max_scale": 16, "min_scale": 4, "missing_value_fill_truncation": "x", "no_data_text": "No data", "no_prefix": false, "order_min": null, "pretty_print": false, "print_labels": false, "print_values": false, "print_values_position": "center", "print_zeroes": true, "range": [-2.0, 3.0], "rounded_bars": null, "secondary_range": null, "show_dots": true, "show_legend": true, "show_minor_x_labels": false, "show_minor_y_labels": true, "show_only_major_dots": true, "show_x_guides": true, "show_x_labels": true, "show_y_guides": true, "show_y_labels": true, "spacing": 10, "stack_from_top": false, "strict": false, "stroke": true, "stroke_style": null, "style": {"background": "transparent", "ci_colors": [], "colors": ["#F44336", "#3F51B5", "#009688", "#FFC107", "#FF5722", "#9C27B0", "#03A9F4", "#8BC34A", "#FF9800", "#E91E63", "#2196F3", "#4CAF50", "#FFEB3B", "#673AB7", "#00BCD4", "#CDDC39", "#9E9E9E", "#607D8B"], "font_family": "Helvetica, Arial, sans-serif", "foreground": "rgba(0, 0, 0, .87)", "foreground_strong": "rgba(0, 0, 0, 1)", "foreground_subtle": "rgba(0, 0, 0, .54)", "guide_stroke_dasharray": 1, "label_font_family": "Helvetica, Arial, sans-serif", "label_font_size": 15, "legend_font_family": "Helvetica, Arial, sans-serif", "legend_font_size": 15, "major_guide_stroke_dasharray": 1, "major_label_font_family": "Helvetica, Arial, sans-serif", "major_label_font_size": 15, "no_data_font_family": "Helvetica, Arial, sans-serif", "no_data_font_size": 64, "opacity": ".7", "opacity_hover": ".8", "plot_background": "white", "stroke_opacity": ".8", "stroke_opacity_hover": ".9", "title_font_family": "Helvetica, Arial, sans-serif", "title_font_size": 18, "tooltip_font_family": "Helvetica, Arial, sans-serif", "tooltip_font_size": 14, "transition": "150ms", "value_background": "rgba(229, 229, 229, 1)", "value_colors": [], "value_font_family": "Helvetica, Arial, sans-serif", "value_font_size": 15, "value_label_font_family": "Helvetica, Arial, sans-serif", "value_label_font_size": 15}, "title": "Mean OE1 for Tempo T \u00b110.0 BPM", "tooltip_border_radius": 0, "tooltip_fancy_mode": true, "truncate_label": null, "truncate_legend": -1, "width": 800, "x_label_rotation": 90, "x_labels": ["0.0", "1.0", "2.0", "3.0", "4.0", "5.0", "6.0", "7.0", "8.0", "9.0", "10.0", "11.0", "12.0", "13.0", "14.0", "15.0", "16.0", "17.0", "18.0", "19.0", "20.0", "21.0", "22.0", "23.0", "24.0", "25.0", "26.0", "27.0", "28.0", "29.0", "30.0", "31.0", "32.0", "33.0", "34.0", "35.0", "36.0", "37.0", "38.0", "39.0", "40.0", "41.0", "42.0", "43.0", "44.0", "45.0", "46.0", "47.0", "48.0", "49.0", "50.0", "51.0", "52.0", "53.0", "54.0", "55.0", "56.0", "57.0", "58.0", "59.0", "60.0", "61.0", "62.0", "63.0", "64.0", "65.0", "66.0", "67.0", "68.0", "69.0", "70.0", "71.0", "72.0", "73.0", "74.0", "75.0", "76.0", "77.0", "78.0", "79.0", "80.0", "81.0", "82.0", "83.0", "84.0", "85.0", "86.0", "87.0", "88.0", "89.0", "90.0", "91.0", "92.0", "93.0", "94.0", "95.0", "96.0", "97.0", "98.0", "99.0", "100.0", "101.0", "102.0", "103.0", "104.0", "105.0", "106.0", "107.0", "108.0", "109.0", "110.0", "111.0", "112.0", "113.0", "114.0", "115.0", "116.0", "117.0", "118.0", "119.0", "120.0", "121.0", "122.0", "123.0", "124.0", "125.0", "126.0", "127.0", "128.0", "129.0", "130.0", "131.0", "132.0", "133.0", "134.0", "135.0", "136.0", "137.0", "138.0", "139.0", "140.0", "141.0", "142.0", "143.0", "144.0", "145.0", "146.0", "147.0", "148.0", "149.0", "150.0", "151.0", "152.0", "153.0", "154.0", "155.0", "156.0", "157.0", "158.0", "159.0", "160.0", "161.0", "162.0", "163.0", "164.0", "165.0", "166.0", "167.0", "168.0", "169.0", "170.0", "171.0", "172.0", "173.0", "174.0", "175.0", "176.0", "177.0", "178.0", "179.0", "180.0", "181.0", "182.0", "183.0", "184.0", "185.0", "186.0", "187.0", "188.0", "189.0", "190.0", "191.0", "192.0", "193.0", "194.0", "195.0", "196.0", "197.0", "198.0", "199.0", "200.0", "201.0", "202.0", "203.0", "204.0", "205.0", "206.0", "207.0", "208.0", "209.0", "210.0", "211.0", "212.0", "213.0", "214.0", "215.0", "216.0", "217.0", "218.0", "219.0", "220.0", "221.0", "222.0", "223.0", "224.0", "225.0", "226.0", "227.0", "228.0", "229.0", "230.0", "231.0", "232.0", "233.0", "234.0", "235.0", "236.0", "237.0", "238.0", "239.0", "240.0", "241.0", "242.0", "243.0", "244.0", "245.0", "246.0", "247.0", "248.0", "249.0", "250.0", "251.0", "252.0", "253.0", "254.0", "255.0", "256.0", "257.0", "258.0", "259.0", "260.0", "261.0", "262.0", "263.0", "264.0", "265.0", "266.0", "267.0", "268.0", "269.0", "270.0", "271.0", "272.0", "273.0", "274.0", "275.0", "276.0", "277.0", "278.0", "279.0", "280.0", "281.0", "282.0", "283.0", "284.0", "285.0", "286.0", "287.0", "288.0", "289.0", "290.0", "291.0", "292.0", "293.0", "294.0", "295.0", "296.0", "297.0", "298.0", "299.0", "300.0"], "x_labels_major": null, "x_labels_major_count": 11, "x_labels_major_every": null, "x_title": "T (BPM)", "xrange": null, "y_label_rotation": 0, "y_labels": null, "y_labels_major": null, "y_labels_major_count": null, "y_labels_major_every": null, "y_title": "Mean OE1 (TO)", "zero": 0, "legends": ["boeck2015/tempodetector2016_default", "davies2009/mirex_qm_tempotracker", "percival2014/stem", "schreiber2014/default", "schreiber2017/ismir2017", "schreiber2017/mirex2017"]}</script><script type="text/javascript" xlink:href="https://kozea.github.io/pygal.js/2.0.x/pygal-tooltips.min.js"/></defs><title>Mean OE1 for Tempo T ±10.0 BPM</title><g class="graph line-graph vertical"><rect class="background" height="600" width="800" x="0" y="0"/><g class="plot" transform="translate(121, 48)"><rect class="background" height="334.0" width="659.0" x="0" y="0"/><g class="axis y always_show"><g class="guides"><path class="guide line" d="M0.000000 327.576923 h659.000000"/><text class="" x="-5" y="332.8269230769231">-2.0000</text><title>-2.0000</title></g><g class="guides"><path class="guide line" d="M0.000000 301.884615 h659.000000"/><text class="" x="-5" y="307.13461538461536">-1.6000</text><title>-1.6000</title></g><g class="guides"><path class="guide line" d="M0.000000 276.192308 h659.000000"/><text class="" x="-5" y="281.4423076923077">-1.2000</text><title>-1.2000</title></g><g class="guides"><path class="guide line" d="M0.000000 250.500000 h659.000000"/><text class="" x="-5" y="255.75">-0.8000</text><title>-0.8000</title></g><g class="guides"><path class="guide line" d="M0.000000 224.807692 h659.000000"/><text class="" x="-5" y="230.0576923076923">-0.4000</text><title>-0.4000</title></g><g class="guides"><path class="major line" d="M0.000000 199.115385 h659.000000"/><text class="major" x="-5" y="204.3653846153846">0.0000</text><title>0.0000</title></g><g class="guides"><path class="guide line" d="M0.000000 173.423077 h659.000000"/><text class="" x="-5" y="178.67307692307693">0.4000</text><title>0.4000</title></g><g class="guides"><path class="guide line" d="M0.000000 147.730769 h659.000000"/><text class="" x="-5" y="152.9807692307692">0.8000</text><title>0.8000</title></g><g class="guides"><path class="guide line" d="M0.000000 122.038462 h659.000000"/><text class="" x="-5" y="127.28846153846155">1.2000</text><title>1.2000</title></g><g class="guides"><path class="guide line" d="M0.000000 96.346154 h659.000000"/><text class="" x="-5" y="101.59615384615387">1.6000</text><title>1.6000</title></g><g class="guides"><path class="guide line" d="M0.000000 70.653846 h659.000000"/><text class="" x="-5" y="75.90384615384619">2.0000</text><title>2.0000</title></g><g class="guides"><path class="guide line" d="M0.000000 44.961538 h659.000000"/><text class="" x="-5" y="50.21153846153845">2.4000</text><title>2.4000</title></g><g class="guides"><path class="guide line" d="M0.000000 19.269231 h659.000000"/><text class="" x="-5" y="24.519230769230774">2.8000</text><title>2.8000</title></g></g><g class="axis x always_show"><g class="guides"><path class="major line" d="M12.673077 0.000000 v334.000000"/><text class="major" x="12.673076923076922" y="351.5" transform="rotate(90 12.673077 351.500000)">0.0</text></g><g class="guides"><path class="major guide line" d="M76.038462 0.000000 v334.000000"/><text class="major" x="76.03846153846155" y="351.5" transform="rotate(90 76.038462 351.500000)">30.0</text></g><g class="guides"><path class="major guide line" d="M139.403846 0.000000 v334.000000"/><text class="major" x="139.40384615384613" y="351.5" transform="rotate(90 139.403846 351.500000)">60.0</text></g><g class="guides"><path class="major guide line" d="M202.769231 0.000000 v334.000000"/><text class="major" x="202.76923076923075" y="351.5" transform="rotate(90 202.769231 351.500000)">90.0</text></g><g class="guides"><path class="major guide line" d="M266.134615 0.000000 v334.000000"/><text class="major" x="266.1346153846154" y="351.5" transform="rotate(90 266.134615 351.500000)">120.0</text></g><g class="guides"><path class="major guide line" d="M329.500000 0.000000 v334.000000"/><text class="major" x="329.5" y="351.5" transform="rotate(90 329.500000 351.500000)">150.0</text></g><g class="guides"><path class="major guide line" d="M392.865385 0.000000 v334.000000"/><text class="major" x="392.8653846153846" y="351.5" transform="rotate(90 392.865385 351.500000)">180.0</text></g><g class="guides"><path class="major guide line" d="M456.230769 0.000000 v334.000000"/><text class="major" x="456.23076923076917" y="351.5" transform="rotate(90 456.230769 351.500000)">210.0</text></g><g class="guides"><path class="major guide line" d="M519.596154 0.000000 v334.000000"/><text class="major" x="519.5961538461538" y="351.5" transform="rotate(90 519.596154 351.500000)">240.0</text></g><g class="guides"><path class="major guide line" d="M582.961538 0.000000 v334.000000"/><text class="major" x="582.9615384615385" y="351.5" transform="rotate(90 582.961538 351.500000)">270.0</text></g><g class="guides"><path class="major guide line" d="M646.326923 0.000000 v334.000000"/><text class="major" x="646.3269230769231" y="351.5" transform="rotate(90 646.326923 351.500000)">300.0</text></g></g><g class="series serie-0 color-0"><path class="line reactive nofill" d="M12.673077 199.115385 L14.785256 199.115385 16.897436 199.115385 19.009615 199.115385 21.121795 199.115385 23.233974 199.115385 25.346154 199.115385 27.458333 199.115385 29.570513 199.115385 31.682692 199.115385 33.794872 199.115385 35.907051 199.115385 38.019231 199.115385 40.131410 199.115385 42.243590 199.115385 44.355769 199.115385 46.467949 199.115385 48.580128 199.115385 50.692308 199.115385 52.804487 199.115385 54.916667 199.115385 57.028846 69.245471 59.141026 69.245471 61.253205 96.262157 63.365385 96.262157 65.477564 96.262157 67.589744 96.262157 69.701923 96.262157 71.814103 96.262157 73.926282 105.646518 76.038462 113.259493 78.150641 113.259493 80.262821 113.259493 82.375000 113.259493 84.487179 113.259493 86.599359 113.259493 88.711538 117.514263 90.823718 117.514263 92.935897 117.514263 95.048077 117.514263 97.160256 117.514263 99.272436 129.581461 101.384615 129.581461 103.496795 131.682334 105.608974 131.682334 107.721154 131.682334 109.833333 153.258671 111.945513 149.671085 114.057692 147.133218 116.169872 151.676814 118.282051 151.494255 120.394231 151.494255 122.506410 151.494255 124.618590 151.494255 126.730769 147.891341 128.842949 155.208267 130.955128 165.627131 133.067308 168.989283 135.179487 173.633303 137.291667 173.633303 139.403846 173.633303 141.516026 170.715321 143.628205 170.715321 145.740385 172.562908 147.852564 172.562908 149.964744 173.497563 152.076923 175.295441 154.189103 182.033706 156.301282 185.457786 158.413462 186.192598 160.525641 189.557322 162.637821 189.557322 164.750000 190.019485 166.862179 190.019485 168.974359 196.913175 171.086538 196.808573 173.198718 200.960878 175.310897 200.971557 177.423077 201.456046 179.535256 201.456046 181.647436 204.797237 183.759615 208.861807 185.871795 208.346354 187.983974 212.173268 190.096154 211.466997 192.208333 212.189599 194.320513 214.368721 196.432692 210.540330 198.544872 211.343830 200.657051 212.045278 202.769231 210.684237 204.881410 210.643315 206.993590 210.576431 209.105769 210.043035 211.217949 207.688756 213.330128 207.688756 215.442308 206.729489 217.554487 207.184359 219.666667 206.611542 221.778846 206.241397 223.891026 205.622920 226.003205 210.321698 228.115385 210.809791 230.227564 210.713793 232.339744 210.225047 234.451923 212.473008 236.564103 211.201206 238.676282 212.472975 240.788462 211.782323 242.900641 211.222500 245.012821 210.473171 247.125000 210.922627 249.237179 212.083758 251.349359 212.534693 253.461538 215.696774 255.573718 217.339857 257.685897 216.688858 259.798077 216.688858 261.910256 217.352389 264.022436 217.272085 266.134615 214.454861 268.246795 210.584233 270.358974 210.584233 272.471154 208.699597 274.583333 209.436999 276.695513 211.433417 278.807692 212.418563 280.919872 211.906997 283.032051 212.436880 285.144231 212.953998 287.256410 212.973390 289.368590 217.652753 291.480769 217.299093 293.592949 215.223466 295.705128 210.864723 297.817308 206.780156 299.929487 210.911098 302.041667 210.911098 304.153846 210.911098 306.266026 211.797164 308.378205 226.673556 310.490385 231.683515 312.602564 231.683515 314.714744 231.683515 316.826923 231.683515 318.939103 228.517838 321.051282 228.517838 323.163462 231.784503 325.275641 231.784503 327.387821 231.784503 329.500000 235.867738 331.612179 231.306197 333.724359 231.306197 335.836538 244.381295 337.948718 236.920891 340.060897 244.706453 342.173077 239.906820 344.285256 239.906820 346.397436 239.906820 348.509615 239.906820 350.621795 197.681191 352.733974 197.681191 354.846154 197.681191 356.958333 197.681191 359.070513 197.681191 361.182692 197.681191 363.294872 197.681191 365.407051 197.681191 367.519231 197.681191 369.631410 197.681191 371.743590 197.681191 373.855769 199.618873 375.967949 199.618873 378.080128 199.618873 380.192308 199.115385 382.304487 199.115385 384.416667 199.115385 386.528846 199.115385 388.641026 199.115385 390.753205 199.115385 392.865385 199.115385 394.977564 199.115385 397.089744 199.115385 399.201923 199.115385 401.314103 199.115385 403.426282 199.115385 405.538462 199.115385 407.650641 199.115385 409.762821 199.115385 411.875000 199.115385 413.987179 199.115385 416.099359 199.115385 418.211538 199.115385 420.323718 199.115385 422.435897 199.115385 424.548077 199.115385 426.660256 199.115385 428.772436 199.115385 430.884615 199.115385 432.996795 199.115385 435.108974 199.115385 437.221154 199.115385 439.333333 198.016886 441.445513 198.016886 443.557692 198.016886 445.669872 198.016886 447.782051 198.016886 449.894231 198.016886 452.006410 198.016886 454.118590 198.016886 456.230769 198.016886 458.342949 198.016886 460.455128 198.016886 462.567308 198.016886 464.679487 198.016886 466.791667 198.016886 468.903846 198.016886 471.016026 198.016886 473.128205 198.016886 475.240385 198.016886 477.352564 198.016886 479.464744 198.016886 481.576923 199.115385 483.689103 199.115385 485.801282 199.115385 487.913462 199.115385 490.025641 261.713241 492.137821 261.713241 494.250000 261.713241 496.362179 261.713241 498.474359 261.713241 500.586538 261.713241 502.698718 261.713241 504.810897 261.713241 506.923077 261.713241 509.035256 261.713241 511.147436 261.713241 513.259615 261.713241 515.371795 261.713241 517.483974 261.713241 519.596154 261.713241 521.708333 261.713241 523.820513 261.713241 525.932692 261.713241 528.044872 261.713241 530.157051 261.713241 532.269231 199.115385 534.381410 199.115385 536.493590 199.115385 538.605769 199.115385 540.717949 199.115385 542.830128 199.115385 544.942308 199.115385 547.054487 199.115385 549.166667 199.115385 551.278846 199.115385 553.391026 199.115385 555.503205 199.115385 557.615385 199.115385 559.727564 199.115385 561.839744 199.115385 563.951923 199.115385 566.064103 199.115385 568.176282 199.115385 570.288462 199.115385 572.400641 199.115385 574.512821 199.115385 576.625000 199.115385 578.737179 199.115385 580.849359 199.115385 582.961538 199.115385 585.073718 199.115385 587.185897 199.115385 589.298077 199.115385 591.410256 199.115385 593.522436 199.115385 595.634615 199.115385 597.746795 199.115385 599.858974 199.115385 601.971154 199.115385 604.083333 199.115385 606.195513 199.115385 608.307692 199.115385 610.419872 199.115385 612.532051 199.115385 614.644231 199.115385 616.756410 199.115385 618.868590 199.115385 620.980769 199.115385 623.092949 199.115385 625.205128 199.115385 627.317308 199.115385 629.429487 199.115385 631.541667 199.115385 633.653846 199.115385 635.766026 199.115385 637.878205 199.115385 639.990385 199.115385 642.102564 199.115385 644.214744 199.115385 646.326923 199.115385"/></g><g class="series serie-1 color-1"><path class="line reactive nofill" d="M12.673077 199.115385 L14.785256 199.115385 16.897436 199.115385 19.009615 199.115385 21.121795 199.115385 23.233974 199.115385 25.346154 199.115385 27.458333 199.115385 29.570513 199.115385 31.682692 199.115385 33.794872 199.115385 35.907051 199.115385 38.019231 199.115385 40.131410 199.115385 42.243590 199.115385 44.355769 199.115385 46.467949 199.115385 48.580128 199.115385 50.692308 199.115385 52.804487 199.115385 54.916667 199.115385 57.028846 64.273873 59.141026 64.273873 61.253205 71.350326 63.365385 71.350326 65.477564 71.350326 67.589744 71.350326 69.701923 71.350326 71.814103 71.350326 73.926282 86.079439 76.038462 96.645658 78.150641 96.645658 80.262821 96.645658 82.375000 96.645658 84.487179 96.645658 86.599359 96.645658 88.711538 103.944944 90.823718 103.944944 92.935897 103.944944 95.048077 103.944944 97.160256 103.944944 99.272436 113.862712 101.384615 113.862712 103.496795 125.674690 105.608974 125.674690 107.721154 125.674690 109.833333 120.611147 111.945513 123.287484 114.057692 124.871733 116.169872 126.738546 118.282051 127.711718 120.394231 127.711718 122.506410 127.711718 124.618590 127.711718 126.730769 127.766451 128.842949 137.775526 130.955128 137.686284 133.067308 139.297836 135.179487 137.429631 137.291667 137.429631 139.403846 137.429631 141.516026 141.082846 143.628205 141.082846 145.740385 142.707856 147.852564 142.707856 149.964744 149.618053 152.076923 152.803958 154.189103 152.883000 156.301282 153.529816 158.413462 152.390517 160.525641 152.433166 162.637821 152.433166 164.750000 151.474813 166.862179 151.474813 168.974359 152.177017 171.086538 150.003067 173.198718 153.354729 175.310897 152.187434 177.423077 155.022591 179.535256 155.022591 181.647436 153.768311 183.759615 151.935774 185.871795 153.024574 187.983974 153.626105 190.096154 155.990190 192.208333 156.280087 194.320513 156.659939 196.432692 158.699824 198.544872 159.492277 200.657051 161.116344 202.769231 164.987078 204.881410 168.292806 206.993590 170.711509 209.105769 172.095932 211.217949 177.271816 213.330128 177.271816 215.442308 177.607487 217.554487 180.481505 219.666667 181.436293 221.778846 182.331166 223.891026 187.083179 226.003205 188.407498 228.115385 189.174467 230.227564 190.278641 232.339744 190.572057 234.451923 193.111066 236.564103 193.526030 238.676282 196.484910 240.788462 196.601386 242.900641 196.670396 245.012821 196.839586 247.125000 196.839965 249.237179 196.702271 251.349359 196.639393 253.461538 196.719207 255.573718 196.775155 257.685897 196.848899 259.798077 196.848899 261.910256 196.853588 264.022436 196.886514 266.134615 196.871897 268.246795 196.887952 270.358974 196.887952 272.471154 196.814222 274.583333 196.739511 276.695513 196.797916 278.807692 196.744294 280.919872 196.749977 283.032051 196.667398 285.144231 196.609765 287.256410 196.631095 289.368590 196.360966 291.480769 197.643212 293.592949 197.701604 295.705128 197.771401 297.817308 197.697761 299.929487 197.618757 302.041667 197.618757 304.153846 197.618757 306.266026 197.560084 308.378205 197.737106 310.490385 197.752710 312.602564 197.752710 314.714744 197.752710 316.826923 197.752710 318.939103 197.696338 321.051282 197.696338 323.163462 197.785704 325.275641 197.785704 327.387821 197.785704 329.500000 197.631119 331.612179 197.952233 333.724359 197.952233 335.836538 197.865632 337.948718 198.220922 340.060897 198.432408 342.173077 198.609660 344.285256 198.609660 346.397436 198.609660 348.509615 198.609660 350.621795 199.330700 352.733974 199.330700 354.846154 199.330700 356.958333 199.330700 359.070513 199.330700 361.182692 199.330700 363.294872 199.330700 365.407051 199.330700 367.519231 199.330700 369.631410 199.330700 371.743590 199.330700 373.855769 199.997370 375.967949 199.997370 378.080128 199.997370 380.192308 199.115385 382.304487 199.115385 384.416667 199.115385 386.528846 199.115385 388.641026 199.115385 390.753205 199.115385 392.865385 199.115385 394.977564 199.115385 397.089744 199.115385 399.201923 199.115385 401.314103 199.115385 403.426282 199.115385 405.538462 199.115385 407.650641 199.115385 409.762821 199.115385 411.875000 199.115385 413.987179 199.115385 416.099359 199.115385 418.211538 199.115385 420.323718 199.115385 422.435897 199.115385 424.548077 199.115385 426.660256 199.115385 428.772436 199.115385 430.884615 199.115385 432.996795 199.115385 435.108974 199.115385 437.221154 199.115385 439.333333 235.139763 441.445513 235.139763 443.557692 235.139763 445.669872 235.139763 447.782051 235.139763 449.894231 235.139763 452.006410 235.139763 454.118590 235.139763 456.230769 235.139763 458.342949 235.139763 460.455128 235.139763 462.567308 235.139763 464.679487 235.139763 466.791667 235.139763 468.903846 235.139763 471.016026 235.139763 473.128205 235.139763 475.240385 235.139763 477.352564 235.139763 479.464744 235.139763 481.576923 199.115385 483.689103 199.115385 485.801282 199.115385 487.913462 199.115385 490.025641 259.389688 492.137821 259.389688 494.250000 259.389688 496.362179 259.389688 498.474359 259.389688 500.586538 259.389688 502.698718 259.389688 504.810897 259.389688 506.923077 259.389688 509.035256 259.389688 511.147436 259.389688 513.259615 259.389688 515.371795 259.389688 517.483974 259.389688 519.596154 259.389688 521.708333 259.389688 523.820513 259.389688 525.932692 259.389688 528.044872 259.389688 530.157051 259.389688 532.269231 199.115385 534.381410 199.115385 536.493590 199.115385 538.605769 199.115385 540.717949 199.115385 542.830128 199.115385 544.942308 199.115385 547.054487 199.115385 549.166667 199.115385 551.278846 199.115385 553.391026 199.115385 555.503205 199.115385 557.615385 199.115385 559.727564 199.115385 561.839744 199.115385 563.951923 199.115385 566.064103 199.115385 568.176282 199.115385 570.288462 199.115385 572.400641 199.115385 574.512821 199.115385 576.625000 199.115385 578.737179 199.115385 580.849359 199.115385 582.961538 199.115385 585.073718 199.115385 587.185897 199.115385 589.298077 199.115385 591.410256 199.115385 593.522436 199.115385 595.634615 199.115385 597.746795 199.115385 599.858974 199.115385 601.971154 199.115385 604.083333 199.115385 606.195513 199.115385 608.307692 199.115385 610.419872 199.115385 612.532051 199.115385 614.644231 199.115385 616.756410 199.115385 618.868590 199.115385 620.980769 199.115385 623.092949 199.115385 625.205128 199.115385 627.317308 199.115385 629.429487 199.115385 631.541667 199.115385 633.653846 199.115385 635.766026 199.115385 637.878205 199.115385 639.990385 199.115385 642.102564 199.115385 644.214744 199.115385 646.326923 199.115385"/></g><g class="series serie-2 color-2"><path class="line reactive nofill" d="M12.673077 199.115385 L14.785256 199.115385 16.897436 199.115385 19.009615 199.115385 21.121795 199.115385 23.233974 199.115385 25.346154 199.115385 27.458333 199.115385 29.570513 199.115385 31.682692 199.115385 33.794872 199.115385 35.907051 199.115385 38.019231 199.115385 40.131410 199.115385 42.243590 199.115385 44.355769 199.115385 46.467949 199.115385 48.580128 199.115385 50.692308 199.115385 52.804487 199.115385 54.916667 199.115385 57.028846 65.995337 59.141026 65.995337 61.253205 96.891338 63.365385 96.891338 65.477564 96.891338 67.589744 96.891338 69.701923 96.891338 71.814103 96.891338 73.926282 107.374038 76.038462 113.909103 78.150641 113.909103 80.262821 113.909103 82.375000 113.909103 84.487179 113.909103 86.599359 113.909103 88.711538 118.083741 90.823718 118.083741 92.935897 118.083741 95.048077 118.083741 97.160256 118.083741 99.272436 131.105841 101.384615 131.105841 103.496795 132.212009 105.608974 132.212009 107.721154 132.212009 109.833333 138.864488 111.945513 138.094940 114.057692 137.558344 116.169872 139.402126 118.282051 139.555490 120.394231 139.555490 122.506410 139.555490 124.618590 139.555490 126.730769 138.331572 128.842949 146.997858 130.955128 152.103855 133.067308 156.802283 135.179487 157.431909 137.291667 157.431909 139.403846 157.431909 141.516026 160.572182 143.628205 160.572182 145.740385 162.826422 147.852564 162.826422 149.964744 167.347935 152.076923 173.097693 154.189103 175.642519 156.301282 178.789492 158.413462 179.869818 160.525641 183.274625 162.637821 183.274625 164.750000 184.059883 166.862179 184.059883 168.974359 188.466450 171.086538 187.965063 173.198718 190.905548 175.310897 190.900676 177.423077 194.467810 179.535256 194.467810 181.647436 194.726578 183.759615 194.518996 185.871795 194.836725 187.983974 193.493796 190.096154 193.781702 192.208333 194.364435 194.320513 193.591094 196.432692 194.793753 198.544872 194.975579 200.657051 194.720279 202.769231 195.196187 204.881410 195.203823 206.993590 196.101601 209.105769 196.262606 211.217949 196.005168 213.330128 196.005168 215.442308 198.436587 217.554487 198.401650 219.666667 199.877693 221.778846 199.856439 223.891026 199.745767 226.003205 199.656858 228.115385 199.630437 230.227564 201.039234 232.339744 200.946609 234.451923 201.261798 236.564103 201.074263 238.676282 201.331279 240.788462 201.218591 242.900641 201.118731 245.012821 200.604056 247.125000 200.659112 249.237179 199.112308 251.349359 199.104553 253.461538 199.058121 255.573718 199.052844 257.685897 199.031780 259.798077 199.031780 261.910256 198.188242 264.022436 198.173785 266.134615 198.202354 268.246795 198.196920 270.358974 198.196920 272.471154 198.169940 274.583333 198.110980 276.695513 200.520009 278.807692 200.618195 280.919872 200.546404 283.032051 200.605158 285.144231 200.666976 287.256410 200.665946 289.368590 204.769787 291.480769 207.029373 293.592949 213.288325 295.705128 215.079267 297.817308 219.087339 299.929487 223.160665 302.041667 223.160665 304.153846 223.160665 306.266026 224.766319 308.378205 238.675627 310.490385 245.813698 312.602564 245.813698 314.714744 245.813698 316.826923 245.813698 318.939103 244.079590 321.051282 244.079590 323.163462 249.116031 325.275641 249.116031 327.387821 249.116031 329.500000 255.377738 331.612179 262.676933 333.724359 262.676933 335.836538 262.403730 337.948718 262.341512 340.060897 262.202969 342.173077 261.855174 344.285256 261.855174 346.397436 261.855174 348.509615 261.855174 350.621795 260.238208 352.733974 260.238208 354.846154 260.238208 356.958333 260.238208 359.070513 260.238208 361.182692 260.238208 363.294872 260.238208 365.407051 260.238208 367.519231 260.238208 369.631410 260.238208 371.743590 260.238208 373.855769 262.030424 375.967949 262.030424 378.080128 262.030424 380.192308 199.115385 382.304487 199.115385 384.416667 199.115385 386.528846 199.115385 388.641026 199.115385 390.753205 199.115385 392.865385 199.115385 394.977564 199.115385 397.089744 199.115385 399.201923 199.115385 401.314103 199.115385 403.426282 199.115385 405.538462 199.115385 407.650641 199.115385 409.762821 199.115385 411.875000 199.115385 413.987179 199.115385 416.099359 199.115385 418.211538 199.115385 420.323718 199.115385 422.435897 199.115385 424.548077 199.115385 426.660256 199.115385 428.772436 199.115385 430.884615 199.115385 432.996795 199.115385 435.108974 199.115385 437.221154 199.115385 439.333333 263.708617 441.445513 263.708617 443.557692 263.708617 445.669872 263.708617 447.782051 263.708617 449.894231 263.708617 452.006410 263.708617 454.118590 263.708617 456.230769 263.708617 458.342949 263.708617 460.455128 263.708617 462.567308 263.708617 464.679487 263.708617 466.791667 263.708617 468.903846 263.708617 471.016026 263.708617 473.128205 263.708617 475.240385 263.708617 477.352564 263.708617 479.464744 263.708617 481.576923 199.115385 483.689103 199.115385 485.801282 199.115385 487.913462 199.115385 490.025641 262.641439 492.137821 262.641439 494.250000 262.641439 496.362179 262.641439 498.474359 262.641439 500.586538 262.641439 502.698718 262.641439 504.810897 262.641439 506.923077 262.641439 509.035256 262.641439 511.147436 262.641439 513.259615 262.641439 515.371795 262.641439 517.483974 262.641439 519.596154 262.641439 521.708333 262.641439 523.820513 262.641439 525.932692 262.641439 528.044872 262.641439 530.157051 262.641439 532.269231 199.115385 534.381410 199.115385 536.493590 199.115385 538.605769 199.115385 540.717949 199.115385 542.830128 199.115385 544.942308 199.115385 547.054487 199.115385 549.166667 199.115385 551.278846 199.115385 553.391026 199.115385 555.503205 199.115385 557.615385 199.115385 559.727564 199.115385 561.839744 199.115385 563.951923 199.115385 566.064103 199.115385 568.176282 199.115385 570.288462 199.115385 572.400641 199.115385 574.512821 199.115385 576.625000 199.115385 578.737179 199.115385 580.849359 199.115385 582.961538 199.115385 585.073718 199.115385 587.185897 199.115385 589.298077 199.115385 591.410256 199.115385 593.522436 199.115385 595.634615 199.115385 597.746795 199.115385 599.858974 199.115385 601.971154 199.115385 604.083333 199.115385 606.195513 199.115385 608.307692 199.115385 610.419872 199.115385 612.532051 199.115385 614.644231 199.115385 616.756410 199.115385 618.868590 199.115385 620.980769 199.115385 623.092949 199.115385 625.205128 199.115385 627.317308 199.115385 629.429487 199.115385 631.541667 199.115385 633.653846 199.115385 635.766026 199.115385 637.878205 199.115385 639.990385 199.115385 642.102564 199.115385 644.214744 199.115385 646.326923 199.115385"/></g><g class="series serie-3 color-3"><path class="line reactive nofill" d="M12.673077 199.115385 L14.785256 199.115385 16.897436 199.115385 19.009615 199.115385 21.121795 199.115385 23.233974 199.115385 25.346154 199.115385 27.458333 199.115385 29.570513 199.115385 31.682692 199.115385 33.794872 199.115385 35.907051 199.115385 38.019231 199.115385 40.131410 199.115385 42.243590 199.115385 44.355769 199.115385 46.467949 199.115385 48.580128 199.115385 50.692308 199.115385 52.804487 199.115385 54.916667 199.115385 57.028846 135.944299 59.141026 135.944299 61.253205 140.802099 63.365385 140.802099 65.477564 140.802099 67.589744 140.802099 69.701923 140.802099 71.814103 140.802099 73.926282 123.574310 76.038462 126.335956 78.150641 126.335956 80.262821 126.335956 82.375000 126.335956 84.487179 126.335956 86.599359 126.335956 88.711538 128.371029 90.823718 128.371029 92.935897 128.371029 95.048077 128.371029 97.160256 128.371029 99.272436 126.477711 101.384615 126.477711 103.496795 120.083648 105.608974 120.083648 107.721154 120.083648 109.833333 135.522165 111.945513 135.297394 114.057692 135.230861 116.169872 144.453287 118.282051 144.528286 120.394231 144.528286 122.506410 144.528286 124.618590 144.528286 126.730769 153.149883 128.842949 159.288779 130.955128 161.470688 133.067308 165.243730 135.179487 169.716566 137.291667 169.716566 139.403846 169.716566 141.516026 172.109136 143.628205 172.109136 145.740385 172.104802 147.852564 172.104802 149.964744 173.144784 152.076923 176.980077 154.189103 181.875418 156.301282 185.248925 158.413462 185.995314 160.525641 189.370001 162.637821 189.370001 164.750000 189.844942 166.862179 189.844942 168.974359 191.170840 171.086538 190.935063 173.198718 195.349173 175.310897 195.339545 177.423077 195.722933 179.535256 195.722933 181.647436 195.086418 183.759615 194.749150 185.871795 195.023753 187.983974 196.591957 190.096154 196.725740 192.208333 198.956878 194.320513 198.940661 196.432692 197.676407 198.544872 197.790579 200.657051 197.694124 202.769231 197.844646 204.881410 197.866746 206.993590 198.020191 209.105769 198.084347 211.217949 198.249600 213.330128 198.249600 215.442308 199.515811 217.554487 199.546913 219.666667 199.340811 221.778846 199.382798 223.891026 201.968818 226.003205 203.519745 228.115385 203.693734 230.227564 203.647463 232.339744 203.484104 234.451923 204.156826 236.564103 203.865659 238.676282 204.407608 240.788462 204.144955 242.900641 203.837666 245.012821 202.636026 247.125000 202.750884 249.237179 206.770523 251.349359 207.047087 253.461538 206.300211 255.573718 206.051750 257.685897 205.822927 259.798077 205.822927 261.910256 206.160159 264.022436 206.097074 266.134615 204.593136 268.246795 204.268876 270.358974 204.268876 272.471154 204.447830 274.583333 204.827507 276.695513 206.990498 278.807692 207.461772 280.919872 207.258625 283.032051 207.582789 285.144231 207.994909 287.256410 210.657732 289.368590 214.532062 291.480769 209.030755 293.592949 207.943031 295.705128 209.057290 297.817308 209.039414 299.929487 210.717433 302.041667 210.717433 304.153846 210.717433 306.266026 211.547456 308.378205 223.399306 310.490385 225.146351 312.602564 225.146351 314.714744 225.146351 316.826923 225.146351 318.939103 221.338158 321.051282 221.338158 323.163462 223.466847 325.275641 223.466847 327.387821 223.466847 329.500000 218.589648 331.612179 231.000141 333.724359 231.000141 335.836538 243.703701 337.948718 244.674905 340.060897 253.848115 342.173077 260.801308 344.285256 260.801308 346.397436 260.801308 348.509615 260.801308 350.621795 258.247751 352.733974 258.247751 354.846154 258.247751 356.958333 258.247751 359.070513 258.247751 361.182692 258.247751 363.294872 258.247751 365.407051 258.247751 367.519231 258.247751 369.631410 258.247751 371.743590 258.247751 373.855769 249.530925 375.967949 249.530925 378.080128 249.530925 380.192308 199.115385 382.304487 199.115385 384.416667 199.115385 386.528846 199.115385 388.641026 199.115385 390.753205 199.115385 392.865385 199.115385 394.977564 199.115385 397.089744 199.115385 399.201923 199.115385 401.314103 199.115385 403.426282 199.115385 405.538462 199.115385 407.650641 199.115385 409.762821 199.115385 411.875000 199.115385 413.987179 199.115385 416.099359 199.115385 418.211538 199.115385 420.323718 199.115385 422.435897 199.115385 424.548077 199.115385 426.660256 199.115385 428.772436 199.115385 430.884615 199.115385 432.996795 199.115385 435.108974 199.115385 437.221154 199.115385 439.333333 262.194893 441.445513 262.194893 443.557692 262.194893 445.669872 262.194893 447.782051 262.194893 449.894231 262.194893 452.006410 262.194893 454.118590 262.194893 456.230769 262.194893 458.342949 262.194893 460.455128 262.194893 462.567308 262.194893 464.679487 262.194893 466.791667 262.194893 468.903846 262.194893 471.016026 262.194893 473.128205 262.194893 475.240385 262.194893 477.352564 262.194893 479.464744 262.194893 481.576923 199.115385 483.689103 199.115385 485.801282 199.115385 487.913462 199.115385 490.025641 260.307741 492.137821 260.307741 494.250000 260.307741 496.362179 260.307741 498.474359 260.307741 500.586538 260.307741 502.698718 260.307741 504.810897 260.307741 506.923077 260.307741 509.035256 260.307741 511.147436 260.307741 513.259615 260.307741 515.371795 260.307741 517.483974 260.307741 519.596154 260.307741 521.708333 260.307741 523.820513 260.307741 525.932692 260.307741 528.044872 260.307741 530.157051 260.307741 532.269231 199.115385 534.381410 199.115385 536.493590 199.115385 538.605769 199.115385 540.717949 199.115385 542.830128 199.115385 544.942308 199.115385 547.054487 199.115385 549.166667 199.115385 551.278846 199.115385 553.391026 199.115385 555.503205 199.115385 557.615385 199.115385 559.727564 199.115385 561.839744 199.115385 563.951923 199.115385 566.064103 199.115385 568.176282 199.115385 570.288462 199.115385 572.400641 199.115385 574.512821 199.115385 576.625000 199.115385 578.737179 199.115385 580.849359 199.115385 582.961538 199.115385 585.073718 199.115385 587.185897 199.115385 589.298077 199.115385 591.410256 199.115385 593.522436 199.115385 595.634615 199.115385 597.746795 199.115385 599.858974 199.115385 601.971154 199.115385 604.083333 199.115385 606.195513 199.115385 608.307692 199.115385 610.419872 199.115385 612.532051 199.115385 614.644231 199.115385 616.756410 199.115385 618.868590 199.115385 620.980769 199.115385 623.092949 199.115385 625.205128 199.115385 627.317308 199.115385 629.429487 199.115385 631.541667 199.115385 633.653846 199.115385 635.766026 199.115385 637.878205 199.115385 639.990385 199.115385 642.102564 199.115385 644.214744 199.115385 646.326923 199.115385"/></g><g class="series serie-4 color-4"><path class="line reactive nofill" d="M12.673077 199.115385 L14.785256 199.115385 16.897436 199.115385 19.009615 199.115385 21.121795 199.115385 23.233974 199.115385 25.346154 199.115385 27.458333 199.115385 29.570513 199.115385 31.682692 199.115385 33.794872 199.115385 35.907051 199.115385 38.019231 199.115385 40.131410 199.115385 42.243590 199.115385 44.355769 199.115385 46.467949 199.115385 48.580128 199.115385 50.692308 199.115385 52.804487 199.115385 54.916667 199.115385 57.028846 133.286179 59.141026 133.286179 61.253205 122.159605 63.365385 122.159605 65.477564 122.159605 67.589744 122.159605 69.701923 122.159605 71.814103 122.159605 73.926282 146.490038 76.038462 143.545838 78.150641 143.545838 80.262821 143.545838 82.375000 143.545838 84.487179 143.545838 86.599359 143.545838 88.711538 154.635320 90.823718 154.635320 92.935897 154.635320 95.048077 154.635320 97.160256 154.635320 99.272436 159.972605 101.384615 159.972605 103.496795 176.285797 105.608974 176.285797 107.721154 176.285797 109.833333 158.491826 111.945513 166.634668 114.057692 172.071613 116.169872 167.455754 118.282051 180.358438 120.394231 180.358438 122.506410 180.358438 124.618590 180.358438 126.730769 171.635399 128.842949 175.579592 130.955128 167.311662 133.067308 170.495069 135.179487 169.201666 137.291667 169.201666 139.403846 169.201666 141.516026 175.394694 143.628205 175.394694 145.740385 180.295960 147.852564 180.295960 149.964744 180.305873 152.076923 180.470023 154.189103 183.457620 156.301282 179.419198 158.413462 180.462552 160.525641 177.076107 162.637821 177.076107 164.750000 178.167967 166.862179 178.167967 168.974359 186.145285 171.086538 185.521501 173.198718 191.842209 175.310897 191.839964 177.423077 195.264119 179.535256 195.264119 181.647436 195.513801 183.759615 192.325729 185.871795 192.793416 187.983974 190.430861 190.096154 194.261247 192.208333 196.684046 194.320513 203.427145 196.432692 200.252594 198.544872 204.346363 200.657051 204.646566 202.769231 204.065252 204.881410 207.401329 206.993590 207.533009 209.105769 207.142991 211.217949 204.454726 213.330128 204.454726 215.442308 203.258444 217.554487 203.518154 219.666667 203.115445 221.778846 202.928789 223.891026 202.501828 226.003205 202.069597 228.115385 202.129846 230.227564 202.027079 232.339744 199.128514 234.451923 198.937054 236.564103 198.961374 238.676282 199.057652 240.788462 199.064058 242.900641 199.128961 245.012821 199.120835 247.125000 199.152360 249.237179 197.969752 251.349359 197.904460 253.461538 198.010579 255.573718 198.048976 257.685897 198.057039 259.798077 198.057039 261.910256 198.104796 264.022436 200.362091 266.134615 200.304212 268.246795 202.379521 270.358974 202.379521 272.471154 202.492163 274.583333 202.738934 276.695513 202.600362 278.807692 202.872998 280.919872 202.715623 283.032051 202.856817 285.144231 202.958059 287.256410 202.993144 289.368590 204.312612 291.480769 206.885777 293.592949 206.049283 295.705128 206.926809 297.817308 206.908681 299.929487 208.644809 302.041667 208.644809 304.153846 208.644809 306.266026 204.873317 308.378205 205.818881 310.490385 201.654685 312.602564 201.654685 314.714744 201.654685 316.826923 201.654685 318.939103 201.920402 321.051282 201.920402 323.163462 202.269197 325.275641 202.269197 327.387821 202.269197 329.500000 202.568322 331.612179 202.326411 333.724359 202.326411 335.836538 203.514042 337.948718 213.830381 340.060897 216.829648 342.173077 214.519825 344.285256 214.519825 346.397436 214.519825 348.509615 214.519825 350.621795 229.915567 352.733974 229.915567 354.846154 229.915567 356.958333 229.915567 359.070513 229.915567 361.182692 229.915567 363.294872 229.915567 365.407051 229.915567 367.519231 229.915567 369.631410 229.915567 371.743590 229.915567 373.855769 265.412075 375.967949 265.412075 378.080128 265.412075 380.192308 199.115385 382.304487 199.115385 384.416667 199.115385 386.528846 199.115385 388.641026 199.115385 390.753205 199.115385 392.865385 199.115385 394.977564 199.115385 397.089744 199.115385 399.201923 199.115385 401.314103 199.115385 403.426282 199.115385 405.538462 199.115385 407.650641 199.115385 409.762821 199.115385 411.875000 199.115385 413.987179 199.115385 416.099359 199.115385 418.211538 199.115385 420.323718 199.115385 422.435897 199.115385 424.548077 199.115385 426.660256 199.115385 428.772436 199.115385 430.884615 199.115385 432.996795 199.115385 435.108974 199.115385 437.221154 199.115385 439.333333 262.982088 441.445513 262.982088 443.557692 262.982088 445.669872 262.982088 447.782051 262.982088 449.894231 262.982088 452.006410 262.982088 454.118590 262.982088 456.230769 262.982088 458.342949 262.982088 460.455128 262.982088 462.567308 262.982088 464.679487 262.982088 466.791667 262.982088 468.903846 262.982088 471.016026 262.982088 473.128205 262.982088 475.240385 262.982088 477.352564 262.982088 479.464744 262.982088 481.576923 199.115385 483.689103 199.115385 485.801282 199.115385 487.913462 199.115385 490.025641 322.992053 492.137821 322.992053 494.250000 322.992053 496.362179 322.992053 498.474359 322.992053 500.586538 322.992053 502.698718 322.992053 504.810897 322.992053 506.923077 322.992053 509.035256 322.992053 511.147436 322.992053 513.259615 322.992053 515.371795 322.992053 517.483974 322.992053 519.596154 322.992053 521.708333 322.992053 523.820513 322.992053 525.932692 322.992053 528.044872 322.992053 530.157051 322.992053 532.269231 199.115385 534.381410 199.115385 536.493590 199.115385 538.605769 199.115385 540.717949 199.115385 542.830128 199.115385 544.942308 199.115385 547.054487 199.115385 549.166667 199.115385 551.278846 199.115385 553.391026 199.115385 555.503205 199.115385 557.615385 199.115385 559.727564 199.115385 561.839744 199.115385 563.951923 199.115385 566.064103 199.115385 568.176282 199.115385 570.288462 199.115385 572.400641 199.115385 574.512821 199.115385 576.625000 199.115385 578.737179 199.115385 580.849359 199.115385 582.961538 199.115385 585.073718 199.115385 587.185897 199.115385 589.298077 199.115385 591.410256 199.115385 593.522436 199.115385 595.634615 199.115385 597.746795 199.115385 599.858974 199.115385 601.971154 199.115385 604.083333 199.115385 606.195513 199.115385 608.307692 199.115385 610.419872 199.115385 612.532051 199.115385 614.644231 199.115385 616.756410 199.115385 618.868590 199.115385 620.980769 199.115385 623.092949 199.115385 625.205128 199.115385 627.317308 199.115385 629.429487 199.115385 631.541667 199.115385 633.653846 199.115385 635.766026 199.115385 637.878205 199.115385 639.990385 199.115385 642.102564 199.115385 644.214744 199.115385 646.326923 199.115385"/></g><g class="series serie-5 color-5"><path class="line reactive nofill" d="M12.673077 199.115385 L14.785256 199.115385 16.897436 199.115385 19.009615 199.115385 21.121795 199.115385 23.233974 199.115385 25.346154 199.115385 27.458333 199.115385 29.570513 199.115385 31.682692 199.115385 33.794872 199.115385 35.907051 199.115385 38.019231 199.115385 40.131410 199.115385 42.243590 199.115385 44.355769 199.115385 46.467949 199.115385 48.580128 199.115385 50.692308 199.115385 52.804487 199.115385 54.916667 199.115385 57.028846 133.286179 59.141026 133.286179 61.253205 154.274989 63.365385 154.274989 65.477564 154.274989 67.589744 154.274989 69.701923 154.274989 71.814103 154.274989 73.926282 167.900294 76.038462 159.603530 78.150641 159.603530 80.262821 159.603530 82.375000 159.603530 84.487179 159.603530 86.599359 159.603530 88.711538 167.481474 90.823718 167.481474 92.935897 167.481474 95.048077 167.481474 97.160256 167.481474 99.272436 176.030298 101.384615 176.030298 103.496795 176.285797 105.608974 176.285797 107.721154 176.285797 109.833333 174.549519 111.945513 179.480822 114.057692 182.776741 116.169872 180.301908 118.282051 193.204592 120.394231 193.204592 122.506410 193.204592 124.618590 193.204592 126.730769 182.340527 128.842949 184.755416 130.955128 174.448414 133.067308 176.918146 135.179487 179.906794 137.291667 179.906794 139.403846 179.906794 141.516026 185.276351 143.628205 185.276351 145.740385 189.471784 147.852564 189.471784 149.964744 188.334720 152.076923 184.038399 154.189103 187.025996 156.301282 186.555951 158.413462 187.223686 160.525641 183.837240 162.637821 183.837240 164.750000 184.591044 166.862179 184.591044 168.974359 191.984446 171.086538 191.638717 173.198718 198.603343 175.310897 198.601098 177.423077 199.042400 179.535256 199.042400 181.647436 202.650554 183.759615 199.882290 185.871795 199.930168 187.983974 197.567613 190.096154 201.022381 192.208333 205.859870 194.320513 214.132273 196.432692 210.394295 198.544872 211.483116 200.657051 212.203127 202.769231 210.826386 204.881410 214.162463 206.993590 217.674710 209.105769 216.777607 211.217949 215.159854 213.330128 215.159854 215.442308 214.593286 217.554487 215.561423 219.666667 218.228567 221.778846 217.202293 223.891026 212.136443 226.003205 210.447523 228.115385 210.888587 230.227564 210.785821 232.339744 207.506441 234.451923 205.698187 236.564103 205.078590 238.676282 205.818786 240.788462 205.487135 242.900641 205.246177 245.012821 203.708747 247.125000 203.910195 249.237179 202.557664 251.349359 202.662295 253.461538 202.598491 255.573718 202.478684 257.685897 202.339090 259.798077 202.339090 261.910256 200.319650 264.022436 202.576945 266.134615 202.445237 268.246795 204.594375 270.358974 204.594375 272.471154 204.786119 274.583333 205.209348 276.695513 204.979280 278.807692 205.442229 280.919872 205.186037 283.032051 205.426048 285.144231 205.634341 287.256410 205.669426 289.368590 207.880988 291.480769 206.885777 293.592949 206.049283 295.705128 206.926809 297.817308 206.908681 299.929487 208.644809 302.041667 208.644809 304.153846 208.644809 306.266026 204.873317 308.378205 205.818881 310.490385 201.654685 312.602564 201.654685 314.714744 201.654685 316.826923 201.654685 318.939103 201.920402 321.051282 201.920402 323.163462 202.269197 325.275641 202.269197 327.387821 202.269197 329.500000 202.568322 331.612179 211.502235 333.724359 211.502235 335.836538 216.360196 337.948718 224.535509 340.060897 229.675801 342.173077 230.577517 344.285256 230.577517 346.397436 230.577517 348.509615 230.577517 350.621795 262.030951 352.733974 262.030951 354.846154 262.030951 356.958333 262.030951 359.070513 262.030951 361.182692 262.030951 363.294872 262.030951 365.407051 262.030951 367.519231 262.030951 369.631410 262.030951 371.743590 262.030951 373.855769 265.412075 375.967949 265.412075 378.080128 265.412075 380.192308 199.115385 382.304487 199.115385 384.416667 199.115385 386.528846 199.115385 388.641026 199.115385 390.753205 199.115385 392.865385 199.115385 394.977564 199.115385 397.089744 199.115385 399.201923 199.115385 401.314103 199.115385 403.426282 199.115385 405.538462 199.115385 407.650641 199.115385 409.762821 199.115385 411.875000 199.115385 413.987179 199.115385 416.099359 199.115385 418.211538 199.115385 420.323718 199.115385 422.435897 199.115385 424.548077 199.115385 426.660256 199.115385 428.772436 199.115385 430.884615 199.115385 432.996795 199.115385 435.108974 199.115385 437.221154 199.115385 439.333333 262.982088 441.445513 262.982088 443.557692 262.982088 445.669872 262.982088 447.782051 262.982088 449.894231 262.982088 452.006410 262.982088 454.118590 262.982088 456.230769 262.982088 458.342949 262.982088 460.455128 262.982088 462.567308 262.982088 464.679487 262.982088 466.791667 262.982088 468.903846 262.982088 471.016026 262.982088 473.128205 262.982088 475.240385 262.982088 477.352564 262.982088 479.464744 262.982088 481.576923 199.115385 483.689103 199.115385 485.801282 199.115385 487.913462 199.115385 490.025641 322.992053 492.137821 322.992053 494.250000 322.992053 496.362179 322.992053 498.474359 322.992053 500.586538 322.992053 502.698718 322.992053 504.810897 322.992053 506.923077 322.992053 509.035256 322.992053 511.147436 322.992053 513.259615 322.992053 515.371795 322.992053 517.483974 322.992053 519.596154 322.992053 521.708333 322.992053 523.820513 322.992053 525.932692 322.992053 528.044872 322.992053 530.157051 322.992053 532.269231 199.115385 534.381410 199.115385 536.493590 199.115385 538.605769 199.115385 540.717949 199.115385 542.830128 199.115385 544.942308 199.115385 547.054487 199.115385 549.166667 199.115385 551.278846 199.115385 553.391026 199.115385 555.503205 199.115385 557.615385 199.115385 559.727564 199.115385 561.839744 199.115385 563.951923 199.115385 566.064103 199.115385 568.176282 199.115385 570.288462 199.115385 572.400641 199.115385 574.512821 199.115385 576.625000 199.115385 578.737179 199.115385 580.849359 199.115385 582.961538 199.115385 585.073718 199.115385 587.185897 199.115385 589.298077 199.115385 591.410256 199.115385 593.522436 199.115385 595.634615 199.115385 597.746795 199.115385 599.858974 199.115385 601.971154 199.115385 604.083333 199.115385 606.195513 199.115385 608.307692 199.115385 610.419872 199.115385 612.532051 199.115385 614.644231 199.115385 616.756410 199.115385 618.868590 199.115385 620.980769 199.115385 623.092949 199.115385 625.205128 199.115385 627.317308 199.115385 629.429487 199.115385 631.541667 199.115385 633.653846 199.115385 635.766026 199.115385 637.878205 199.115385 639.990385 199.115385 642.102564 199.115385 644.214744 199.115385 646.326923 199.115385"/></g></g><g class="titles"><text class="title plot_title" x="400.0" y="28">Mean OE1 for Tempo T ±10.0 BPM</text><text class="title" x="450.5" y="465.0">T (BPM)</text><text class="title" x="0" y="243.0" transform="rotate(-90 0.000000 215.000000)">Mean OE1 (TO)</text></g><g class="plot overlay" transform="translate(121, 48)"><g class="series serie-0 color-0"><g class="dots"><circle class="dot reactive tooltip-trigger" cx="12.673076923076922" cy="199.1153846153846" r="2.5"/><desc class="value">0.0000</desc><desc class="x top">12.673076923076922</desc><desc class="y top">199.1153846153846</desc><desc class="x_label">0.0</desc></g><g class="dots"><circle class="dot reactive tooltip-trigger" cx="76.03846153846155" cy="113.25949256143082" r="2.5"/><desc class="value">1.3367</desc><desc class="x ">76.03846153846155</desc><desc class="y ">113.25949256143082</desc><desc class="x_label">30.0</desc></g><g class="dots"><circle class="dot reactive tooltip-trigger" cx="139.40384615384613" cy="173.63330334031525" r="2.5"/><desc class="value">0.3967</desc><desc class="x top">139.40384615384613</desc><desc class="y top">173.63330334031525</desc><desc class="x_label">60.0</desc></g><g class="dots"><circle class="dot reactive tooltip-trigger" cx="202.76923076923075" cy="210.68423696562854" r="2.5"/><desc class="value">-0.1801</desc><desc class="x top">202.76923076923075</desc><desc class="y top">210.68423696562854</desc><desc class="x_label">90.0</desc></g><g class="dots"><circle class="dot reactive tooltip-trigger" cx="266.1346153846154" cy="214.45486135821483" r="2.5"/><desc class="value">-0.2388</desc><desc class="x top">266.1346153846154</desc><desc class="y top">214.45486135821483</desc><desc class="x_label">120.0</desc></g><g class="dots"><circle class="dot reactive tooltip-trigger" cx="329.5" cy="235.86773757324536" r="2.5"/><desc class="value">-0.5722</desc><desc class="x top">329.5</desc><desc class="y top">235.86773757324536</desc><desc class="x_label">150.0</desc></g><g class="dots"><circle class="dot reactive tooltip-trigger" cx="392.8653846153846" cy="199.1153846153846" r="2.5"/><desc class="value">0.0000</desc><desc class="x left top">392.8653846153846</desc><desc class="y left top">199.1153846153846</desc><desc class="x_label">180.0</desc></g><g class="dots"><circle class="dot reactive tooltip-trigger" cx="456.23076923076917" cy="198.0168864291566" r="2.5"/><desc class="value">0.0171</desc><desc class="x left top">456.23076923076917</desc><desc class="y left top">198.0168864291566</desc><desc class="x_label">210.0</desc></g><g class="dots"><circle class="dot reactive tooltip-trigger" cx="519.5961538461538" cy="261.71324089271315" r="2.5"/><desc class="value">-0.9746</desc><desc class="x left top">519.5961538461538</desc><desc class="y left top">261.71324089271315</desc><desc class="x_label">240.0</desc></g><g class="dots"><circle class="dot reactive tooltip-trigger" cx="582.9615384615385" cy="199.1153846153846" r="2.5"/><desc class="value">0.0000</desc><desc class="x left top">582.9615384615385</desc><desc class="y left top">199.1153846153846</desc><desc class="x_label">270.0</desc></g><g class="dots"><circle class="dot reactive tooltip-trigger" cx="646.3269230769231" cy="199.1153846153846" r="2.5"/><desc class="value">0.0000</desc><desc class="x left top">646.3269230769231</desc><desc class="y left top">199.1153846153846</desc><desc class="x_label">300.0</desc></g></g><g class="series serie-1 color-1"><g class="dots"><circle class="dot reactive tooltip-trigger" cx="12.673076923076922" cy="199.1153846153846" r="2.5"/><desc class="value">0.0000</desc><desc class="x top">12.673076923076922</desc><desc class="y top">199.1153846153846</desc><desc class="x_label">0.0</desc></g><g class="dots"><circle class="dot reactive tooltip-trigger" cx="76.03846153846155" cy="96.64565834576328" r="2.5"/><desc class="value">1.5953</desc><desc class="x ">76.03846153846155</desc><desc class="y ">96.64565834576328</desc><desc class="x_label">30.0</desc></g><g class="dots"><circle class="dot reactive tooltip-trigger" cx="139.40384615384613" cy="137.42963084599998" r="2.5"/><desc class="value">0.9604</desc><desc class="x ">139.40384615384613</desc><desc class="y ">137.42963084599998</desc><desc class="x_label">60.0</desc></g><g class="dots"><circle class="dot reactive tooltip-trigger" cx="202.76923076923075" cy="164.98707778158618" r="2.5"/><desc class="value">0.5313</desc><desc class="x ">202.76923076923075</desc><desc class="y ">164.98707778158618</desc><desc class="x_label">90.0</desc></g><g class="dots"><circle class="dot reactive tooltip-trigger" cx="266.1346153846154" cy="196.87189676878575" r="2.5"/><desc class="value">0.0349</desc><desc class="x top">266.1346153846154</desc><desc class="y top">196.87189676878575</desc><desc class="x_label">120.0</desc></g><g class="dots"><circle class="dot reactive tooltip-trigger" cx="329.5" cy="197.6311192930903" r="2.5"/><desc class="value">0.0231</desc><desc class="x top">329.5</desc><desc class="y top">197.6311192930903</desc><desc class="x_label">150.0</desc></g><g class="dots"><circle class="dot reactive tooltip-trigger" cx="392.8653846153846" cy="199.1153846153846" r="2.5"/><desc class="value">0.0000</desc><desc class="x left top">392.8653846153846</desc><desc class="y left top">199.1153846153846</desc><desc class="x_label">180.0</desc></g><g class="dots"><circle class="dot reactive tooltip-trigger" cx="456.23076923076917" cy="235.13976263274765" r="2.5"/><desc class="value">-0.5609</desc><desc class="x left top">456.23076923076917</desc><desc class="y left top">235.13976263274765</desc><desc class="x_label">210.0</desc></g><g class="dots"><circle class="dot reactive tooltip-trigger" cx="519.5961538461538" cy="259.38968779630295" r="2.5"/><desc class="value">-0.9384</desc><desc class="x left top">519.5961538461538</desc><desc class="y left top">259.38968779630295</desc><desc class="x_label">240.0</desc></g><g class="dots"><circle class="dot reactive tooltip-trigger" cx="582.9615384615385" cy="199.1153846153846" r="2.5"/><desc class="value">0.0000</desc><desc class="x left top">582.9615384615385</desc><desc class="y left top">199.1153846153846</desc><desc class="x_label">270.0</desc></g><g class="dots"><circle class="dot reactive tooltip-trigger" cx="646.3269230769231" cy="199.1153846153846" r="2.5"/><desc class="value">0.0000</desc><desc class="x left top">646.3269230769231</desc><desc class="y left top">199.1153846153846</desc><desc class="x_label">300.0</desc></g></g><g class="series serie-2 color-2"><g class="dots"><circle class="dot reactive tooltip-trigger" cx="12.673076923076922" cy="199.1153846153846" r="2.5"/><desc class="value">0.0000</desc><desc class="x top">12.673076923076922</desc><desc class="y top">199.1153846153846</desc><desc class="x_label">0.0</desc></g><g class="dots"><circle class="dot reactive tooltip-trigger" cx="76.03846153846155" cy="113.90910325006217" r="2.5"/><desc class="value">1.3266</desc><desc class="x ">76.03846153846155</desc><desc class="y ">113.90910325006217</desc><desc class="x_label">30.0</desc></g><g class="dots"><circle class="dot reactive tooltip-trigger" cx="139.40384615384613" cy="157.43190880025037" r="2.5"/><desc class="value">0.6490</desc><desc class="x ">139.40384615384613</desc><desc class="y ">157.43190880025037</desc><desc class="x_label">60.0</desc></g><g class="dots"><circle class="dot reactive tooltip-trigger" cx="202.76923076923075" cy="195.19618694479965" r="2.5"/><desc class="value">0.0610</desc><desc class="x top">202.76923076923075</desc><desc class="y top">195.19618694479965</desc><desc class="x_label">90.0</desc></g><g class="dots"><circle class="dot reactive tooltip-trigger" cx="266.1346153846154" cy="198.20235370846328" r="2.5"/><desc class="value">0.0142</desc><desc class="x top">266.1346153846154</desc><desc class="y top">198.20235370846328</desc><desc class="x_label">120.0</desc></g><g class="dots"><circle class="dot reactive tooltip-trigger" cx="329.5" cy="255.37773796048685" r="2.5"/><desc class="value">-0.8759</desc><desc class="x top">329.5</desc><desc class="y top">255.37773796048685</desc><desc class="x_label">150.0</desc></g><g class="dots"><circle class="dot reactive tooltip-trigger" cx="392.8653846153846" cy="199.1153846153846" r="2.5"/><desc class="value">0.0000</desc><desc class="x left top">392.8653846153846</desc><desc class="y left top">199.1153846153846</desc><desc class="x_label">180.0</desc></g><g class="dots"><circle class="dot reactive tooltip-trigger" cx="456.23076923076917" cy="263.7086172891329" r="2.5"/><desc class="value">-1.0056</desc><desc class="x left top">456.23076923076917</desc><desc class="y left top">263.7086172891329</desc><desc class="x_label">210.0</desc></g><g class="dots"><circle class="dot reactive tooltip-trigger" cx="519.5961538461538" cy="262.64143941272016" r="2.5"/><desc class="value">-0.9890</desc><desc class="x left top">519.5961538461538</desc><desc class="y left top">262.64143941272016</desc><desc class="x_label">240.0</desc></g><g class="dots"><circle class="dot reactive tooltip-trigger" cx="582.9615384615385" cy="199.1153846153846" r="2.5"/><desc class="value">0.0000</desc><desc class="x left top">582.9615384615385</desc><desc class="y left top">199.1153846153846</desc><desc class="x_label">270.0</desc></g><g class="dots"><circle class="dot reactive tooltip-trigger" cx="646.3269230769231" cy="199.1153846153846" r="2.5"/><desc class="value">0.0000</desc><desc class="x left top">646.3269230769231</desc><desc class="y left top">199.1153846153846</desc><desc class="x_label">300.0</desc></g></g><g class="series serie-3 color-3"><g class="dots"><circle class="dot reactive tooltip-trigger" cx="12.673076923076922" cy="199.1153846153846" r="2.5"/><desc class="value">0.0000</desc><desc class="x top">12.673076923076922</desc><desc class="y top">199.1153846153846</desc><desc class="x_label">0.0</desc></g><g class="dots"><circle class="dot reactive tooltip-trigger" cx="76.03846153846155" cy="126.33595576482799" r="2.5"/><desc class="value">1.1331</desc><desc class="x ">76.03846153846155</desc><desc class="y ">126.33595576482799</desc><desc class="x_label">30.0</desc></g><g class="dots"><circle class="dot reactive tooltip-trigger" cx="139.40384615384613" cy="169.7165664461104" r="2.5"/><desc class="value">0.4577</desc><desc class="x top">139.40384615384613</desc><desc class="y top">169.7165664461104</desc><desc class="x_label">60.0</desc></g><g class="dots"><circle class="dot reactive tooltip-trigger" cx="202.76923076923075" cy="197.8446462178364" r="2.5"/><desc class="value">0.0198</desc><desc class="x top">202.76923076923075</desc><desc class="y top">197.8446462178364</desc><desc class="x_label">90.0</desc></g><g class="dots"><circle class="dot reactive tooltip-trigger" cx="266.1346153846154" cy="204.59313554686162" r="2.5"/><desc class="value">-0.0853</desc><desc class="x top">266.1346153846154</desc><desc class="y top">204.59313554686162</desc><desc class="x_label">120.0</desc></g><g class="dots"><circle class="dot reactive tooltip-trigger" cx="329.5" cy="218.58964825173808" r="2.5"/><desc class="value">-0.3032</desc><desc class="x top">329.5</desc><desc class="y top">218.58964825173808</desc><desc class="x_label">150.0</desc></g><g class="dots"><circle class="dot reactive tooltip-trigger" cx="392.8653846153846" cy="199.1153846153846" r="2.5"/><desc class="value">0.0000</desc><desc class="x left top">392.8653846153846</desc><desc class="y left top">199.1153846153846</desc><desc class="x_label">180.0</desc></g><g class="dots"><circle class="dot reactive tooltip-trigger" cx="456.23076923076917" cy="262.19489347419994" r="2.5"/><desc class="value">-0.9821</desc><desc class="x left top">456.23076923076917</desc><desc class="y left top">262.19489347419994</desc><desc class="x_label">210.0</desc></g><g class="dots"><circle class="dot reactive tooltip-trigger" cx="519.5961538461538" cy="260.30774071333946" r="2.5"/><desc class="value">-0.9527</desc><desc class="x left top">519.5961538461538</desc><desc class="y left top">260.30774071333946</desc><desc class="x_label">240.0</desc></g><g class="dots"><circle class="dot reactive tooltip-trigger" cx="582.9615384615385" cy="199.1153846153846" r="2.5"/><desc class="value">0.0000</desc><desc class="x left top">582.9615384615385</desc><desc class="y left top">199.1153846153846</desc><desc class="x_label">270.0</desc></g><g class="dots"><circle class="dot reactive tooltip-trigger" cx="646.3269230769231" cy="199.1153846153846" r="2.5"/><desc class="value">0.0000</desc><desc class="x left top">646.3269230769231</desc><desc class="y left top">199.1153846153846</desc><desc class="x_label">300.0</desc></g></g><g class="series serie-4 color-4"><g class="dots"><circle class="dot reactive tooltip-trigger" cx="12.673076923076922" cy="199.1153846153846" r="2.5"/><desc class="value">0.0000</desc><desc class="x top">12.673076923076922</desc><desc class="y top">199.1153846153846</desc><desc class="x_label">0.0</desc></g><g class="dots"><circle class="dot reactive tooltip-trigger" cx="76.03846153846155" cy="143.545838356013" r="2.5"/><desc class="value">0.8652</desc><desc class="x ">76.03846153846155</desc><desc class="y ">143.545838356013</desc><desc class="x_label">30.0</desc></g><g class="dots"><circle class="dot reactive tooltip-trigger" cx="139.40384615384613" cy="169.20166554783836" r="2.5"/><desc class="value">0.4657</desc><desc class="x top">139.40384615384613</desc><desc class="y top">169.20166554783836</desc><desc class="x_label">60.0</desc></g><g class="dots"><circle class="dot reactive tooltip-trigger" cx="202.76923076923075" cy="204.06525222864002" r="2.5"/><desc class="value">-0.0771</desc><desc class="x top">202.76923076923075</desc><desc class="y top">204.06525222864002</desc><desc class="x_label">90.0</desc></g><g class="dots"><circle class="dot reactive tooltip-trigger" cx="266.1346153846154" cy="200.30421189422208" r="2.5"/><desc class="value">-0.0185</desc><desc class="x top">266.1346153846154</desc><desc class="y top">200.30421189422208</desc><desc class="x_label">120.0</desc></g><g class="dots"><circle class="dot reactive tooltip-trigger" cx="329.5" cy="202.56832244711472" r="2.5"/><desc class="value">-0.0538</desc><desc class="x top">329.5</desc><desc class="y top">202.56832244711472</desc><desc class="x_label">150.0</desc></g><g class="dots"><circle class="dot reactive tooltip-trigger" cx="392.8653846153846" cy="199.1153846153846" r="2.5"/><desc class="value">0.0000</desc><desc class="x left top">392.8653846153846</desc><desc class="y left top">199.1153846153846</desc><desc class="x_label">180.0</desc></g><g class="dots"><circle class="dot reactive tooltip-trigger" cx="456.23076923076917" cy="262.9820880327726" r="2.5"/><desc class="value">-0.9943</desc><desc class="x left top">456.23076923076917</desc><desc class="y left top">262.9820880327726</desc><desc class="x_label">210.0</desc></g><g class="dots"><circle class="dot reactive tooltip-trigger" cx="519.5961538461538" cy="322.9920532850828" r="2.5"/><desc class="value">-1.9286</desc><desc class="x left top">519.5961538461538</desc><desc class="y left top">322.9920532850828</desc><desc class="x_label">240.0</desc></g><g class="dots"><circle class="dot reactive tooltip-trigger" cx="582.9615384615385" cy="199.1153846153846" r="2.5"/><desc class="value">0.0000</desc><desc class="x left top">582.9615384615385</desc><desc class="y left top">199.1153846153846</desc><desc class="x_label">270.0</desc></g><g class="dots"><circle class="dot reactive tooltip-trigger" cx="646.3269230769231" cy="199.1153846153846" r="2.5"/><desc class="value">0.0000</desc><desc class="x left top">646.3269230769231</desc><desc class="y left top">199.1153846153846</desc><desc class="x_label">300.0</desc></g></g><g class="series serie-5 color-5"><g class="dots"><circle class="dot reactive tooltip-trigger" cx="12.673076923076922" cy="199.1153846153846" r="2.5"/><desc class="value">0.0000</desc><desc class="x top">12.673076923076922</desc><desc class="y top">199.1153846153846</desc><desc class="x_label">0.0</desc></g><g class="dots"><circle class="dot reactive tooltip-trigger" cx="76.03846153846155" cy="159.60353038965968" r="2.5"/><desc class="value">0.6152</desc><desc class="x ">76.03846153846155</desc><desc class="y ">159.60353038965968</desc><desc class="x_label">30.0</desc></g><g class="dots"><circle class="dot reactive tooltip-trigger" cx="139.40384615384613" cy="179.90679385747632" r="2.5"/><desc class="value">0.2991</desc><desc class="x top">139.40384615384613</desc><desc class="y top">179.90679385747632</desc><desc class="x_label">60.0</desc></g><g class="dots"><circle class="dot reactive tooltip-trigger" cx="202.76923076923075" cy="210.8263858318789" r="2.5"/><desc class="value">-0.1823</desc><desc class="x top">202.76923076923075</desc><desc class="y top">210.8263858318789</desc><desc class="x_label">90.0</desc></g><g class="dots"><circle class="dot reactive tooltip-trigger" cx="266.1346153846154" cy="202.44523733880712" r="2.5"/><desc class="value">-0.0518</desc><desc class="x top">266.1346153846154</desc><desc class="y top">202.44523733880712</desc><desc class="x_label">120.0</desc></g><g class="dots"><circle class="dot reactive tooltip-trigger" cx="329.5" cy="202.56832244711472" r="2.5"/><desc class="value">-0.0538</desc><desc class="x top">329.5</desc><desc class="y top">202.56832244711472</desc><desc class="x_label">150.0</desc></g><g class="dots"><circle class="dot reactive tooltip-trigger" cx="392.8653846153846" cy="199.1153846153846" r="2.5"/><desc class="value">0.0000</desc><desc class="x left top">392.8653846153846</desc><desc class="y left top">199.1153846153846</desc><desc class="x_label">180.0</desc></g><g class="dots"><circle class="dot reactive tooltip-trigger" cx="456.23076923076917" cy="262.9820880327726" r="2.5"/><desc class="value">-0.9943</desc><desc class="x left top">456.23076923076917</desc><desc class="y left top">262.9820880327726</desc><desc class="x_label">210.0</desc></g><g class="dots"><circle class="dot reactive tooltip-trigger" cx="519.5961538461538" cy="322.9920532850828" r="2.5"/><desc class="value">-1.9286</desc><desc class="x left top">519.5961538461538</desc><desc class="y left top">322.9920532850828</desc><desc class="x_label">240.0</desc></g><g class="dots"><circle class="dot reactive tooltip-trigger" cx="582.9615384615385" cy="199.1153846153846" r="2.5"/><desc class="value">0.0000</desc><desc class="x left top">582.9615384615385</desc><desc class="y left top">199.1153846153846</desc><desc class="x_label">270.0</desc></g><g class="dots"><circle class="dot reactive tooltip-trigger" cx="646.3269230769231" cy="199.1153846153846" r="2.5"/><desc class="value">0.0000</desc><desc class="x left top">646.3269230769231</desc><desc class="y left top">199.1153846153846</desc><desc class="x_label">300.0</desc></g></g></g><g class="plot text-overlay" transform="translate(121, 48)"><g class="series serie-0 color-0"/><g class="series serie-1 color-1"/><g class="series serie-2 color-2"/><g class="series serie-3 color-3"/><g class="series serie-4 color-4"/><g class="series serie-5 color-5"/></g><g class="plot tooltip-overlay" transform="translate(121, 48)"><g class="tooltip" style="opacity: 0" transform="translate(0 0)"><rect class="tooltip-box" height="0" rx="0" ry="0" width="0"/><g class="text"/></g></g><g class="legends" transform="translate(131, 485)"><g class="legend reactive activate-serie" id="activate-serie-0"><rect class="color-0 reactive" height="12" width="12" x="0.0" y="1.5"/><text x="17.0" y="12.0">boeck2015/tempodetector2016_default</text></g><g class="legend reactive activate-serie" id="activate-serie-1"><rect class="color-1 reactive" height="12" width="12" x="329.5" y="1.5"/><text x="346.5" y="12.0">davies2009/mirex_qm_tempotracker</text></g><g class="legend reactive activate-serie" id="activate-serie-2"><rect class="color-2 reactive" height="12" width="12" x="0.0" y="24.0"/><text x="17.0" y="34.5">percival2014/stem</text></g><g class="legend reactive activate-serie" id="activate-serie-3"><rect class="color-3 reactive" height="12" width="12" x="329.5" y="24.0"/><text x="346.5" y="34.5">schreiber2014/default</text></g><g class="legend reactive activate-serie" id="activate-serie-4"><rect class="color-4 reactive" height="12" width="12" x="0.0" y="46.5"/><text x="17.0" y="57.0">schreiber2017/ismir2017</text></g><g class="legend reactive activate-serie" id="activate-serie-5"><rect class="color-5 reactive" height="12" width="12" x="329.5" y="46.5"/><text x="346.5" y="57.0">schreiber2017/mirex2017</text></g></g></g></svg>