<?xml version='1.0' encoding='utf-8'?>
<svg xmlns:xlink="http://www.w3.org/1999/xlink" xmlns="http://www.w3.org/2000/svg" id="chart-2e6df5c7-5e11-4a30-970f-7141d2fe3402" class="pygal-chart" viewBox="0 0 800 600"><!--Generated with pygal 2.4.0 (lxml) ©Kozea 2012-2016 on 2019-10-13--><!--http://pygal.org--><!--http://github.com/Kozea/pygal--><defs><style type="text/css">#chart-2e6df5c7-5e11-4a30-970f-7141d2fe3402{-webkit-user-select:none;-webkit-font-smoothing:antialiased;font-family:Helvetica,Arial,sans-serif}#chart-2e6df5c7-5e11-4a30-970f-7141d2fe3402 .title{font-family:Helvetica,Arial,sans-serif;font-size:18px}#chart-2e6df5c7-5e11-4a30-970f-7141d2fe3402 .legends .legend text{font-family:Helvetica,Arial,sans-serif;font-size:15px}#chart-2e6df5c7-5e11-4a30-970f-7141d2fe3402 .axis text{font-family:Helvetica,Arial,sans-serif;font-size:15px}#chart-2e6df5c7-5e11-4a30-970f-7141d2fe3402 .axis text.major{font-family:Helvetica,Arial,sans-serif;font-size:15px}#chart-2e6df5c7-5e11-4a30-970f-7141d2fe3402 .text-overlay text.value{font-family:Helvetica,Arial,sans-serif;font-size:15px}#chart-2e6df5c7-5e11-4a30-970f-7141d2fe3402 .text-overlay text.label{font-family:Helvetica,Arial,sans-serif;font-size:15px}#chart-2e6df5c7-5e11-4a30-970f-7141d2fe3402 .tooltip{font-family:Helvetica,Arial,sans-serif;font-size:14px}#chart-2e6df5c7-5e11-4a30-970f-7141d2fe3402 text.no_data{font-family:Helvetica,Arial,sans-serif;font-size:64px}
#chart-2e6df5c7-5e11-4a30-970f-7141d2fe3402{background-color:transparent}#chart-2e6df5c7-5e11-4a30-970f-7141d2fe3402 path,#chart-2e6df5c7-5e11-4a30-970f-7141d2fe3402 line,#chart-2e6df5c7-5e11-4a30-970f-7141d2fe3402 rect,#chart-2e6df5c7-5e11-4a30-970f-7141d2fe3402 circle{-webkit-transition:150ms;-moz-transition:150ms;transition:150ms}#chart-2e6df5c7-5e11-4a30-970f-7141d2fe3402 .graph &gt; .background{fill:transparent}#chart-2e6df5c7-5e11-4a30-970f-7141d2fe3402 .plot &gt; .background{fill:white}#chart-2e6df5c7-5e11-4a30-970f-7141d2fe3402 .graph{fill:rgba(0,0,0,.87)}#chart-2e6df5c7-5e11-4a30-970f-7141d2fe3402 text.no_data{fill:rgba(0,0,0,1)}#chart-2e6df5c7-5e11-4a30-970f-7141d2fe3402 .title{fill:rgba(0,0,0,1)}#chart-2e6df5c7-5e11-4a30-970f-7141d2fe3402 .legends .legend text{fill:rgba(0,0,0,.87)}#chart-2e6df5c7-5e11-4a30-970f-7141d2fe3402 .legends .legend:hover text{fill:rgba(0,0,0,1)}#chart-2e6df5c7-5e11-4a30-970f-7141d2fe3402 .axis .line{stroke:rgba(0,0,0,1)}#chart-2e6df5c7-5e11-4a30-970f-7141d2fe3402 .axis .guide.line{stroke:rgba(0,0,0,.54)}#chart-2e6df5c7-5e11-4a30-970f-7141d2fe3402 .axis .major.line{stroke:rgba(0,0,0,.87)}#chart-2e6df5c7-5e11-4a30-970f-7141d2fe3402 .axis text.major{fill:rgba(0,0,0,1)}#chart-2e6df5c7-5e11-4a30-970f-7141d2fe3402 .axis.y .guides:hover .guide.line,#chart-2e6df5c7-5e11-4a30-970f-7141d2fe3402 .line-graph .axis.x .guides:hover .guide.line,#chart-2e6df5c7-5e11-4a30-970f-7141d2fe3402 .stackedline-graph .axis.x .guides:hover .guide.line,#chart-2e6df5c7-5e11-4a30-970f-7141d2fe3402 .xy-graph .axis.x .guides:hover .guide.line{stroke:rgba(0,0,0,1)}#chart-2e6df5c7-5e11-4a30-970f-7141d2fe3402 .axis .guides:hover text{fill:rgba(0,0,0,1)}#chart-2e6df5c7-5e11-4a30-970f-7141d2fe3402 .reactive{fill-opacity:.7;stroke-opacity:.8}#chart-2e6df5c7-5e11-4a30-970f-7141d2fe3402 .ci{stroke:rgba(0,0,0,.87)}#chart-2e6df5c7-5e11-4a30-970f-7141d2fe3402 .reactive.active,#chart-2e6df5c7-5e11-4a30-970f-7141d2fe3402 .active .reactive{fill-opacity:.8;stroke-opacity:.9;stroke-width:4}#chart-2e6df5c7-5e11-4a30-970f-7141d2fe3402 .ci .reactive.active{stroke-width:1.5}#chart-2e6df5c7-5e11-4a30-970f-7141d2fe3402 .series text{fill:rgba(0,0,0,1)}#chart-2e6df5c7-5e11-4a30-970f-7141d2fe3402 .tooltip rect{fill:white;stroke:rgba(0,0,0,1);-webkit-transition:opacity 150ms;-moz-transition:opacity 150ms;transition:opacity 150ms}#chart-2e6df5c7-5e11-4a30-970f-7141d2fe3402 .tooltip .label{fill:rgba(0,0,0,.87)}#chart-2e6df5c7-5e11-4a30-970f-7141d2fe3402 .tooltip .label{fill:rgba(0,0,0,.87)}#chart-2e6df5c7-5e11-4a30-970f-7141d2fe3402 .tooltip .legend{font-size:.8em;fill:rgba(0,0,0,.54)}#chart-2e6df5c7-5e11-4a30-970f-7141d2fe3402 .tooltip .x_label{font-size:.6em;fill:rgba(0,0,0,1)}#chart-2e6df5c7-5e11-4a30-970f-7141d2fe3402 .tooltip .xlink{font-size:.5em;text-decoration:underline}#chart-2e6df5c7-5e11-4a30-970f-7141d2fe3402 .tooltip .value{font-size:1.5em}#chart-2e6df5c7-5e11-4a30-970f-7141d2fe3402 .bound{font-size:.5em}#chart-2e6df5c7-5e11-4a30-970f-7141d2fe3402 .max-value{font-size:.75em;fill:rgba(0,0,0,.54)}#chart-2e6df5c7-5e11-4a30-970f-7141d2fe3402 .map-element{fill:white;stroke:rgba(0,0,0,.54) !important}#chart-2e6df5c7-5e11-4a30-970f-7141d2fe3402 .map-element .reactive{fill-opacity:inherit;stroke-opacity:inherit}#chart-2e6df5c7-5e11-4a30-970f-7141d2fe3402 .color-0,#chart-2e6df5c7-5e11-4a30-970f-7141d2fe3402 .color-0 a:visited{stroke:#F44336;fill:#F44336}#chart-2e6df5c7-5e11-4a30-970f-7141d2fe3402 .color-1,#chart-2e6df5c7-5e11-4a30-970f-7141d2fe3402 .color-1 a:visited{stroke:#3F51B5;fill:#3F51B5}#chart-2e6df5c7-5e11-4a30-970f-7141d2fe3402 .color-2,#chart-2e6df5c7-5e11-4a30-970f-7141d2fe3402 .color-2 a:visited{stroke:#009688;fill:#009688}#chart-2e6df5c7-5e11-4a30-970f-7141d2fe3402 .color-3,#chart-2e6df5c7-5e11-4a30-970f-7141d2fe3402 .color-3 a:visited{stroke:#FFC107;fill:#FFC107}#chart-2e6df5c7-5e11-4a30-970f-7141d2fe3402 .color-4,#chart-2e6df5c7-5e11-4a30-970f-7141d2fe3402 .color-4 a:visited{stroke:#FF5722;fill:#FF5722}#chart-2e6df5c7-5e11-4a30-970f-7141d2fe3402 .color-5,#chart-2e6df5c7-5e11-4a30-970f-7141d2fe3402 .color-5 a:visited{stroke:#9C27B0;fill:#9C27B0}#chart-2e6df5c7-5e11-4a30-970f-7141d2fe3402 .text-overlay .color-0 text{fill:black}#chart-2e6df5c7-5e11-4a30-970f-7141d2fe3402 .text-overlay .color-1 text{fill:black}#chart-2e6df5c7-5e11-4a30-970f-7141d2fe3402 .text-overlay .color-2 text{fill:black}#chart-2e6df5c7-5e11-4a30-970f-7141d2fe3402 .text-overlay .color-3 text{fill:black}#chart-2e6df5c7-5e11-4a30-970f-7141d2fe3402 .text-overlay .color-4 text{fill:black}#chart-2e6df5c7-5e11-4a30-970f-7141d2fe3402 .text-overlay .color-5 text{fill:black}
#chart-2e6df5c7-5e11-4a30-970f-7141d2fe3402 text.no_data{text-anchor:middle}#chart-2e6df5c7-5e11-4a30-970f-7141d2fe3402 .guide.line{fill:none}#chart-2e6df5c7-5e11-4a30-970f-7141d2fe3402 .centered{text-anchor:middle}#chart-2e6df5c7-5e11-4a30-970f-7141d2fe3402 .title{text-anchor:middle}#chart-2e6df5c7-5e11-4a30-970f-7141d2fe3402 .legends .legend text{fill-opacity:1}#chart-2e6df5c7-5e11-4a30-970f-7141d2fe3402 .axis.x text{text-anchor:middle}#chart-2e6df5c7-5e11-4a30-970f-7141d2fe3402 .axis.x:not(.web) text[transform]{text-anchor:start}#chart-2e6df5c7-5e11-4a30-970f-7141d2fe3402 .axis.x:not(.web) text[transform].backwards{text-anchor:end}#chart-2e6df5c7-5e11-4a30-970f-7141d2fe3402 .axis.y text{text-anchor:end}#chart-2e6df5c7-5e11-4a30-970f-7141d2fe3402 .axis.y text[transform].backwards{text-anchor:start}#chart-2e6df5c7-5e11-4a30-970f-7141d2fe3402 .axis.y2 text{text-anchor:start}#chart-2e6df5c7-5e11-4a30-970f-7141d2fe3402 .axis.y2 text[transform].backwards{text-anchor:end}#chart-2e6df5c7-5e11-4a30-970f-7141d2fe3402 .axis .guide.line{stroke-dasharray:1}#chart-2e6df5c7-5e11-4a30-970f-7141d2fe3402 .axis .major.guide.line{stroke-dasharray:1}#chart-2e6df5c7-5e11-4a30-970f-7141d2fe3402 .horizontal .axis.y .guide.line,#chart-2e6df5c7-5e11-4a30-970f-7141d2fe3402 .horizontal .axis.y2 .guide.line,#chart-2e6df5c7-5e11-4a30-970f-7141d2fe3402 .vertical .axis.x .guide.line{opacity:0}#chart-2e6df5c7-5e11-4a30-970f-7141d2fe3402 .horizontal .axis.always_show .guide.line,#chart-2e6df5c7-5e11-4a30-970f-7141d2fe3402 .vertical .axis.always_show .guide.line{opacity:1 !important}#chart-2e6df5c7-5e11-4a30-970f-7141d2fe3402 .axis.y .guides:hover .guide.line,#chart-2e6df5c7-5e11-4a30-970f-7141d2fe3402 .axis.y2 .guides:hover .guide.line,#chart-2e6df5c7-5e11-4a30-970f-7141d2fe3402 .axis.x .guides:hover .guide.line{opacity:1}#chart-2e6df5c7-5e11-4a30-970f-7141d2fe3402 .axis .guides:hover text{opacity:1}#chart-2e6df5c7-5e11-4a30-970f-7141d2fe3402 .nofill{fill:none}#chart-2e6df5c7-5e11-4a30-970f-7141d2fe3402 .subtle-fill{fill-opacity:.2}#chart-2e6df5c7-5e11-4a30-970f-7141d2fe3402 .dot{stroke-width:1px;fill-opacity:1}#chart-2e6df5c7-5e11-4a30-970f-7141d2fe3402 .dot.active{stroke-width:5px}#chart-2e6df5c7-5e11-4a30-970f-7141d2fe3402 .dot.negative{fill:transparent}#chart-2e6df5c7-5e11-4a30-970f-7141d2fe3402 text,#chart-2e6df5c7-5e11-4a30-970f-7141d2fe3402 tspan{stroke:none !important}#chart-2e6df5c7-5e11-4a30-970f-7141d2fe3402 .series text.active{opacity:1}#chart-2e6df5c7-5e11-4a30-970f-7141d2fe3402 .tooltip rect{fill-opacity:.95;stroke-width:.5}#chart-2e6df5c7-5e11-4a30-970f-7141d2fe3402 .tooltip text{fill-opacity:1}#chart-2e6df5c7-5e11-4a30-970f-7141d2fe3402 .showable{visibility:hidden}#chart-2e6df5c7-5e11-4a30-970f-7141d2fe3402 .showable.shown{visibility:visible}#chart-2e6df5c7-5e11-4a30-970f-7141d2fe3402 .gauge-background{fill:rgba(229,229,229,1);stroke:none}#chart-2e6df5c7-5e11-4a30-970f-7141d2fe3402 .bg-lines{stroke:transparent;stroke-width:2px}</style><script type="text/javascript">window.pygal = window.pygal || {};window.pygal.config = window.pygal.config || {};window.pygal.config['2e6df5c7-5e11-4a30-970f-7141d2fe3402'] = {"allow_interruptions": false, "box_mode": "extremes", "classes": ["pygal-chart"], "css": ["file://style.css", "file://graph.css"], "defs": [], "disable_xml_declaration": false, "dots_size": 2.5, "dynamic_print_values": false, "explicit_size": false, "fill": false, "force_uri_protocol": "https", "formatter": null, "half_pie": false, "height": 600, "include_x_axis": false, "inner_radius": 0, "interpolate": null, "interpolation_parameters": {}, "interpolation_precision": 250, "inverse_y_axis": false, "js": ["//kozea.github.io/pygal.js/2.0.x/pygal-tooltips.min.js"], "legend_at_bottom": true, "legend_at_bottom_columns": 2, "legend_box_size": 12, "logarithmic": false, "margin": 20, "margin_bottom": 65, "margin_left": null, "margin_right": null, "margin_top": null, "max_scale": 16, "min_scale": 4, "missing_value_fill_truncation": "x", "no_data_text": "No data", "no_prefix": false, "order_min": null, "pretty_print": false, "print_labels": false, "print_values": false, "print_values_position": "center", "print_zeroes": true, "range": [-3.0, 3.0], "rounded_bars": null, "secondary_range": null, "show_dots": true, "show_legend": true, "show_minor_x_labels": false, "show_minor_y_labels": true, "show_only_major_dots": true, "show_x_guides": true, "show_x_labels": true, "show_y_guides": true, "show_y_labels": true, "spacing": 10, "stack_from_top": false, "strict": false, "stroke": true, "stroke_style": null, "style": {"background": "transparent", "ci_colors": [], "colors": ["#F44336", "#3F51B5", "#009688", "#FFC107", "#FF5722", "#9C27B0", "#03A9F4", "#8BC34A", "#FF9800", "#E91E63", "#2196F3", "#4CAF50", "#FFEB3B", "#673AB7", "#00BCD4", "#CDDC39", "#9E9E9E", "#607D8B"], "font_family": "Helvetica, Arial, sans-serif", "foreground": "rgba(0, 0, 0, .87)", "foreground_strong": "rgba(0, 0, 0, 1)", "foreground_subtle": "rgba(0, 0, 0, .54)", "guide_stroke_dasharray": 1, "label_font_family": "Helvetica, Arial, sans-serif", "label_font_size": 15, "legend_font_family": "Helvetica, Arial, sans-serif", "legend_font_size": 15, "major_guide_stroke_dasharray": 1, "major_label_font_family": "Helvetica, Arial, sans-serif", "major_label_font_size": 15, "no_data_font_family": "Helvetica, Arial, sans-serif", "no_data_font_size": 64, "opacity": ".7", "opacity_hover": ".8", "plot_background": "white", "stroke_opacity": ".8", "stroke_opacity_hover": ".9", "title_font_family": "Helvetica, Arial, sans-serif", "title_font_size": 18, "tooltip_font_family": "Helvetica, Arial, sans-serif", "tooltip_font_size": 14, "transition": "150ms", "value_background": "rgba(229, 229, 229, 1)", "value_colors": [], "value_font_family": "Helvetica, Arial, sans-serif", "value_font_size": 15, "value_label_font_family": "Helvetica, Arial, sans-serif", "value_label_font_size": 15}, "title": "Mean OE1 for Tempo T \u00b110.0 BPM", "tooltip_border_radius": 0, "tooltip_fancy_mode": true, "truncate_label": null, "truncate_legend": -1, "width": 800, "x_label_rotation": 90, "x_labels": ["0.0", "1.0", "2.0", "3.0", "4.0", "5.0", "6.0", "7.0", "8.0", "9.0", "10.0", "11.0", "12.0", "13.0", "14.0", "15.0", "16.0", "17.0", "18.0", "19.0", "20.0", "21.0", "22.0", "23.0", "24.0", "25.0", "26.0", "27.0", "28.0", "29.0", "30.0", "31.0", "32.0", "33.0", "34.0", "35.0", "36.0", "37.0", "38.0", "39.0", "40.0", "41.0", "42.0", "43.0", "44.0", "45.0", "46.0", "47.0", "48.0", "49.0", "50.0", "51.0", "52.0", "53.0", "54.0", "55.0", "56.0", "57.0", "58.0", "59.0", "60.0", "61.0", "62.0", "63.0", "64.0", "65.0", "66.0", "67.0", "68.0", "69.0", "70.0", "71.0", "72.0", "73.0", "74.0", "75.0", "76.0", "77.0", "78.0", "79.0", "80.0", "81.0", "82.0", "83.0", "84.0", "85.0", "86.0", "87.0", "88.0", "89.0", "90.0", "91.0", "92.0", "93.0", "94.0", "95.0", "96.0", "97.0", "98.0", "99.0", "100.0", "101.0", "102.0", "103.0", "104.0", "105.0", "106.0", "107.0", "108.0", "109.0", "110.0", "111.0", "112.0", "113.0", "114.0", "115.0", "116.0", "117.0", "118.0", "119.0", "120.0", "121.0", "122.0", "123.0", "124.0", "125.0", "126.0", "127.0", "128.0", "129.0", "130.0", "131.0", "132.0", "133.0", "134.0", "135.0", "136.0", "137.0", "138.0", "139.0", "140.0", "141.0", "142.0", "143.0", "144.0", "145.0", "146.0", "147.0", "148.0", "149.0", "150.0", "151.0", "152.0", "153.0", "154.0", "155.0", "156.0", "157.0", "158.0", "159.0", "160.0", "161.0", "162.0", "163.0", "164.0", "165.0", "166.0", "167.0", "168.0", "169.0", "170.0", "171.0", "172.0", "173.0", "174.0", "175.0", "176.0", "177.0", "178.0", "179.0", "180.0", "181.0", "182.0", "183.0", "184.0", "185.0", "186.0", "187.0", "188.0", "189.0", "190.0", "191.0", "192.0", "193.0", "194.0", "195.0", "196.0", "197.0", "198.0", "199.0", "200.0", "201.0", "202.0", "203.0", "204.0", "205.0", "206.0", "207.0", "208.0", "209.0", "210.0", "211.0", "212.0", "213.0", "214.0", "215.0", "216.0", "217.0", "218.0", "219.0", "220.0", "221.0", "222.0", "223.0", "224.0", "225.0", "226.0", "227.0", "228.0", "229.0", "230.0", "231.0", "232.0", "233.0", "234.0", "235.0", "236.0", "237.0", "238.0", "239.0", "240.0", "241.0", "242.0", "243.0", "244.0", "245.0", "246.0", "247.0", "248.0", "249.0", "250.0", "251.0", "252.0", "253.0", "254.0", "255.0", "256.0", "257.0", "258.0", "259.0", "260.0", "261.0", "262.0", "263.0", "264.0", "265.0", "266.0", "267.0", "268.0", "269.0", "270.0", "271.0", "272.0", "273.0", "274.0", "275.0", "276.0", "277.0", "278.0", "279.0", "280.0", "281.0", "282.0", "283.0", "284.0", "285.0", "286.0", "287.0", "288.0", "289.0", "290.0", "291.0", "292.0", "293.0", "294.0", "295.0", "296.0", "297.0", "298.0", "299.0", "300.0"], "x_labels_major": null, "x_labels_major_count": 11, "x_labels_major_every": null, "x_title": "T (BPM)", "xrange": null, "y_label_rotation": 0, "y_labels": null, "y_labels_major": null, "y_labels_major_count": null, "y_labels_major_every": null, "y_title": "Mean OE1 (TO)", "zero": 0, "legends": ["boeck2015/tempodetector2016_default", "davies2009/mirex_qm_tempotracker", "percival2014/stem", "schreiber2014/default", "schreiber2017/ismir2017", "schreiber2017/mirex2017"]}</script><script type="text/javascript" xlink:href="https://kozea.github.io/pygal.js/2.0.x/pygal-tooltips.min.js"/></defs><title>Mean OE1 for Tempo T ±10.0 BPM</title><g class="graph line-graph vertical"><rect class="background" height="600" width="800" x="0" y="0"/><g class="plot" transform="translate(121, 48)"><rect class="background" height="334.0" width="659.0" x="0" y="0"/><g class="axis y always_show"><g class="guides"><path class="guide line" d="M0.000000 316.871795 h659.000000"/><text class="" x="-5" y="322.12179487179486">-2.8000</text><title>-2.8000</title></g><g class="guides"><path class="guide line" d="M0.000000 295.461538 h659.000000"/><text class="" x="-5" y="300.71153846153845">-2.4000</text><title>-2.4000</title></g><g class="guides"><path class="guide line" d="M0.000000 274.051282 h659.000000"/><text class="" x="-5" y="279.30128205128204">-2.0000</text><title>-2.0000</title></g><g class="guides"><path class="guide line" d="M0.000000 252.641026 h659.000000"/><text class="" x="-5" y="257.89102564102564">-1.6000</text><title>-1.6000</title></g><g class="guides"><path class="guide line" d="M0.000000 231.230769 h659.000000"/><text class="" x="-5" y="236.48076923076923">-1.2000</text><title>-1.2000</title></g><g class="guides"><path class="guide line" d="M0.000000 209.820513 h659.000000"/><text class="" x="-5" y="215.07051282051282">-0.8000</text><title>-0.8000</title></g><g class="guides"><path class="guide line" d="M0.000000 188.410256 h659.000000"/><text class="" x="-5" y="193.6602564102564">-0.4000</text><title>-0.4000</title></g><g class="guides"><path class="major line" d="M0.000000 167.000000 h659.000000"/><text class="major" x="-5" y="172.25000000000003">0.0000</text><title>0.0000</title></g><g class="guides"><path class="guide line" d="M0.000000 145.589744 h659.000000"/><text class="" x="-5" y="150.8397435897436">0.4000</text><title>0.4000</title></g><g class="guides"><path class="guide line" d="M0.000000 124.179487 h659.000000"/><text class="" x="-5" y="129.42948717948718">0.8000</text><title>0.8000</title></g><g class="guides"><path class="guide line" d="M0.000000 102.769231 h659.000000"/><text class="" x="-5" y="108.01923076923077">1.2000</text><title>1.2000</title></g><g class="guides"><path class="guide line" d="M0.000000 81.358974 h659.000000"/><text class="" x="-5" y="86.60897435897434">1.6000</text><title>1.6000</title></g><g class="guides"><path class="guide line" d="M0.000000 59.948718 h659.000000"/><text class="" x="-5" y="65.19871794871796">2.0000</text><title>2.0000</title></g><g class="guides"><path class="guide line" d="M0.000000 38.538462 h659.000000"/><text class="" x="-5" y="43.78846153846155">2.4000</text><title>2.4000</title></g><g class="guides"><path class="guide line" d="M0.000000 17.128205 h659.000000"/><text class="" x="-5" y="22.37820512820514">2.8000</text><title>2.8000</title></g></g><g class="axis x always_show"><g class="guides"><path class="major line" d="M12.673077 0.000000 v334.000000"/><text class="major" x="12.673076923076922" y="351.5" transform="rotate(90 12.673077 351.500000)">0.0</text></g><g class="guides"><path class="major guide line" d="M76.038462 0.000000 v334.000000"/><text class="major" x="76.03846153846155" y="351.5" transform="rotate(90 76.038462 351.500000)">30.0</text></g><g class="guides"><path class="major guide line" d="M139.403846 0.000000 v334.000000"/><text class="major" x="139.40384615384613" y="351.5" transform="rotate(90 139.403846 351.500000)">60.0</text></g><g class="guides"><path class="major guide line" d="M202.769231 0.000000 v334.000000"/><text class="major" x="202.76923076923075" y="351.5" transform="rotate(90 202.769231 351.500000)">90.0</text></g><g class="guides"><path class="major guide line" d="M266.134615 0.000000 v334.000000"/><text class="major" x="266.1346153846154" y="351.5" transform="rotate(90 266.134615 351.500000)">120.0</text></g><g class="guides"><path class="major guide line" d="M329.500000 0.000000 v334.000000"/><text class="major" x="329.5" y="351.5" transform="rotate(90 329.500000 351.500000)">150.0</text></g><g class="guides"><path class="major guide line" d="M392.865385 0.000000 v334.000000"/><text class="major" x="392.8653846153846" y="351.5" transform="rotate(90 392.865385 351.500000)">180.0</text></g><g class="guides"><path class="major guide line" d="M456.230769 0.000000 v334.000000"/><text class="major" x="456.23076923076917" y="351.5" transform="rotate(90 456.230769 351.500000)">210.0</text></g><g class="guides"><path class="major guide line" d="M519.596154 0.000000 v334.000000"/><text class="major" x="519.5961538461538" y="351.5" transform="rotate(90 519.596154 351.500000)">240.0</text></g><g class="guides"><path class="major guide line" d="M582.961538 0.000000 v334.000000"/><text class="major" x="582.9615384615385" y="351.5" transform="rotate(90 582.961538 351.500000)">270.0</text></g><g class="guides"><path class="major guide line" d="M646.326923 0.000000 v334.000000"/><text class="major" x="646.3269230769231" y="351.5" transform="rotate(90 646.326923 351.500000)">300.0</text></g></g><g class="series serie-0 color-0"><path class="line reactive nofill" d="M12.673077 167.000000 L14.785256 167.000000 16.897436 167.000000 19.009615 167.000000 21.121795 167.000000 23.233974 167.000000 25.346154 167.000000 27.458333 167.000000 29.570513 167.000000 31.682692 167.000000 33.794872 167.000000 35.907051 167.000000 38.019231 167.000000 40.131410 167.000000 42.243590 167.000000 44.355769 167.000000 46.467949 167.000000 48.580128 167.000000 50.692308 167.000000 52.804487 167.000000 54.916667 167.000000 57.028846 167.000000 59.141026 167.000000 61.253205 167.000000 63.365385 167.000000 65.477564 167.000000 67.589744 167.000000 69.701923 167.000000 71.814103 82.649395 73.926282 80.050109 76.038462 80.050109 78.150641 80.050109 80.262821 80.050109 82.375000 80.050109 84.487179 80.050109 86.599359 80.050109 88.711538 80.050109 90.823718 80.050109 92.935897 80.050109 95.048077 110.761139 97.160256 110.761139 99.272436 110.761139 101.384615 110.761139 103.496795 111.183122 105.608974 111.183122 107.721154 109.822172 109.833333 119.586785 111.945513 118.573491 114.057692 121.624821 116.169872 134.483423 118.282051 131.808754 120.394231 131.808754 122.506410 130.213934 124.618590 133.257134 126.730769 133.257134 128.842949 135.633952 130.955128 137.814442 133.067308 137.981972 135.179487 139.514071 137.291667 140.636877 139.403846 140.636877 141.516026 139.776086 143.628205 140.936660 145.740385 143.056603 147.852564 143.056603 149.964744 145.841301 152.076923 145.758792 154.189103 147.270841 156.301282 150.716249 158.413462 149.973439 160.525641 152.457952 162.637821 152.457952 164.750000 154.844965 166.862179 154.052474 168.974359 151.380340 171.086538 150.528644 173.198718 149.412061 175.310897 151.121625 177.423077 149.948349 179.535256 146.391561 181.647436 146.391561 183.759615 150.341537 185.871795 147.115989 187.983974 141.893619 190.096154 145.977858 192.208333 141.488143 194.320513 135.232140 196.432692 141.617614 198.544872 141.617614 200.657051 141.617614 202.769231 141.617614 204.881410 141.617614 206.993590 141.617614 209.105769 141.617614 211.217949 149.197435 213.330128 149.197435 215.442308 148.109173 217.554487 148.109173 219.666667 148.109173 221.778846 148.109173 223.891026 148.109173 226.003205 153.102648 228.115385 153.102648 230.227564 159.104895 232.339744 155.457816 234.451923 158.558417 236.564103 158.558417 238.676282 154.257872 240.788462 154.257872 242.900641 154.257872 245.012821 154.257872 247.125000 154.257872 249.237179 160.724554 251.349359 160.724554 253.461538 162.058513 255.573718 162.815236 257.685897 166.507899 259.798077 166.507899 261.910256 166.341356 264.022436 166.341356 266.134615 166.371722 268.246795 165.847674 270.358974 165.847674 272.471154 165.847674 274.583333 165.847674 276.695513 165.983682 278.807692 165.983682 280.919872 165.983682 283.032051 165.983682 285.144231 165.983682 287.256410 165.983682 289.368590 166.146936 291.480769 165.848565 293.592949 165.848565 295.705128 165.590934 297.817308 165.389351 299.929487 165.630941 302.041667 165.734953 304.153846 165.791075 306.266026 165.791075 308.378205 165.658873 310.490385 166.459589 312.602564 166.459589 314.714744 166.459589 316.826923 166.459589 318.939103 166.459589 321.051282 166.459589 323.163462 166.459589 325.275641 166.459589 327.387821 166.459589 329.500000 165.245844 331.612179 164.804418 333.724359 164.804418 335.836538 164.804418 337.948718 164.804418 340.060897 164.804418 342.173077 163.757033 344.285256 159.177119 346.397436 159.177119 348.509615 159.177119 350.621795 159.177119 352.733974 159.177119 354.846154 159.177119 356.958333 159.177119 359.070513 159.177119 361.182692 159.177119 363.294872 159.177119 365.407051 159.177119 367.519231 159.177119 369.631410 159.177119 371.743590 165.837985 373.855769 165.837985 375.967949 165.230881 378.080128 165.230881 380.192308 165.230881 382.304487 165.230881 384.416667 165.230881 386.528846 165.230881 388.641026 165.230881 390.753205 165.230881 392.865385 165.230881 394.977564 165.230881 397.089744 165.230881 399.201923 164.838546 401.314103 178.761156 403.426282 178.761156 405.538462 178.761156 407.650641 178.761156 409.762821 178.761156 411.875000 186.985884 413.987179 192.272859 416.099359 192.272859 418.211538 201.489220 420.323718 201.489220 422.435897 201.489220 424.548077 201.489220 426.660256 201.489220 428.772436 201.489220 430.884615 201.489220 432.996795 201.489220 435.108974 201.489220 437.221154 206.248905 439.333333 206.248905 441.445513 220.195757 443.557692 220.084680 445.669872 220.084680 447.782051 220.084680 449.894231 220.084680 452.006410 220.084680 454.118590 220.184621 456.230769 220.184621 458.342949 220.184621 460.455128 220.184621 462.567308 220.184621 464.679487 220.184621 466.791667 220.184621 468.903846 220.184621 471.016026 220.184621 473.128205 220.184621 475.240385 220.184621 477.352564 220.184621 479.464744 219.841285 481.576923 219.841285 483.689103 167.000000 485.801282 167.000000 487.913462 167.000000 490.025641 167.000000 492.137821 167.000000 494.250000 167.000000 496.362179 167.000000 498.474359 167.000000 500.586538 167.000000 502.698718 167.000000 504.810897 167.000000 506.923077 221.562182 509.035256 221.562182 511.147436 221.562182 513.259615 221.562182 515.371795 221.562182 517.483974 221.562182 519.596154 221.562182 521.708333 221.562182 523.820513 221.562182 525.932692 221.562182 528.044872 221.562182 530.157051 221.562182 532.269231 221.562182 534.381410 221.562182 536.493590 221.562182 538.605769 221.562182 540.717949 221.562182 542.830128 221.562182 544.942308 221.562182 547.054487 221.562182 549.166667 167.000000 551.278846 167.000000 553.391026 167.000000 555.503205 167.000000 557.615385 167.000000 559.727564 167.000000 561.839744 167.000000 563.951923 167.000000 566.064103 167.000000 568.176282 167.000000 570.288462 167.000000 572.400641 167.000000 574.512821 167.000000 576.625000 167.000000 578.737179 167.000000 580.849359 167.000000 582.961538 167.000000 585.073718 167.000000 587.185897 167.000000 589.298077 167.000000 591.410256 167.000000 593.522436 167.000000 595.634615 274.049738 597.746795 274.049738 599.858974 274.049738 601.971154 274.049738 604.083333 274.049738 606.195513 274.049738 608.307692 274.049738 610.419872 262.628003 612.532051 262.628003 614.644231 262.628003 616.756410 262.628003 618.868590 262.628003 620.980769 262.628003 623.092949 262.628003 625.205128 247.941548 627.317308 247.941548 629.429487 247.941548 631.541667 247.941548 633.653846 247.941548 635.766026 247.941548 637.878205 234.887454 639.990385 234.887454 642.102564 234.887454 644.214744 234.887454 646.326923 234.887454"/></g><g class="series serie-1 color-1"><path class="line reactive nofill" d="M12.673077 167.000000 L14.785256 167.000000 16.897436 167.000000 19.009615 167.000000 21.121795 167.000000 23.233974 167.000000 25.346154 167.000000 27.458333 167.000000 29.570513 167.000000 31.682692 167.000000 33.794872 167.000000 35.907051 167.000000 38.019231 167.000000 40.131410 167.000000 42.243590 167.000000 44.355769 167.000000 46.467949 167.000000 48.580128 167.000000 50.692308 167.000000 52.804487 167.000000 54.916667 167.000000 57.028846 167.000000 59.141026 167.000000 61.253205 167.000000 63.365385 167.000000 65.477564 167.000000 67.589744 167.000000 69.701923 167.000000 71.814103 79.807480 73.926282 75.580057 76.038462 75.580057 78.150641 75.580057 80.262821 75.580057 82.375000 75.580057 84.487179 75.580057 86.599359 75.580057 88.711538 75.580057 90.823718 75.580057 92.935897 75.580057 95.048077 77.649372 97.160256 77.649372 99.272436 77.649372 101.384615 77.649372 103.496795 86.254750 105.608974 86.254750 107.721154 88.258682 109.833333 90.075686 111.945513 93.329630 114.057692 96.154029 116.169872 100.577205 118.282051 101.200620 120.394231 101.200620 122.506410 102.185056 124.618590 103.049799 126.730769 103.049799 128.842949 103.582062 130.955128 104.201506 133.067308 105.014075 135.179487 108.472348 137.291667 113.252571 139.403846 113.252571 141.516026 112.251369 143.628205 112.210786 145.740385 112.103758 147.852564 112.103758 149.964744 112.685986 152.076923 113.284920 154.189103 113.304540 156.301282 114.848378 158.413462 116.091796 160.525641 116.637704 162.637821 116.637704 164.750000 116.925722 166.862179 117.216639 168.974359 117.134761 171.086538 117.612463 173.198718 117.995191 175.310897 119.210712 177.423077 115.156713 179.535256 110.046609 181.647436 110.046609 183.759615 116.516434 185.871795 117.556129 187.983974 122.214250 190.096154 120.392086 192.208333 122.537372 194.320513 124.937664 196.432692 132.364700 198.544872 132.364700 200.657051 132.364700 202.769231 132.364700 204.881410 132.364700 206.993590 132.364700 209.105769 132.364700 211.217949 136.479230 213.330128 136.479230 215.442308 138.282828 217.554487 138.282828 219.666667 138.282828 221.778846 138.282828 223.891026 138.282828 226.003205 137.937793 228.115385 137.937793 230.227564 139.617111 232.339744 153.785032 234.451923 156.288712 236.564103 156.288712 238.676282 153.396645 240.788462 153.396645 242.900641 153.396645 245.012821 153.396645 247.125000 153.396645 249.237179 159.715974 251.349359 159.715974 253.461538 160.804384 255.573718 161.344895 257.685897 164.593148 259.798077 164.593148 261.910256 164.804751 264.022436 164.804751 266.134615 164.874329 268.246795 165.176692 270.358974 165.176692 272.471154 165.176692 274.583333 165.176692 276.695513 165.661769 278.807692 165.661769 280.919872 165.661769 283.032051 165.661769 285.144231 165.661769 287.256410 165.661769 289.368590 165.616785 291.480769 165.497209 293.592949 165.497209 295.705128 165.553739 297.817308 165.854996 299.929487 166.305279 302.041667 166.306321 304.153846 166.339456 306.266026 166.339456 308.378205 166.502470 310.490385 166.283845 312.602564 166.283845 314.714744 166.283845 316.826923 166.283845 318.939103 166.283845 321.051282 166.283845 323.163462 166.283845 325.275641 166.283845 327.387821 166.283845 329.500000 165.409706 331.612179 165.440265 333.724359 165.440265 335.836538 165.440265 337.948718 165.440265 340.060897 165.440265 342.173077 164.552632 344.285256 161.039006 346.397436 161.039006 348.509615 161.039006 350.621795 161.039006 352.733974 161.039006 354.846154 161.039006 356.958333 161.039006 359.070513 161.039006 361.182692 161.039006 363.294872 161.039006 365.407051 161.039006 367.519231 161.039006 369.631410 161.039006 371.743590 164.678771 373.855769 164.678771 375.967949 163.855201 378.080128 163.855201 380.192308 163.855201 382.304487 163.855201 384.416667 163.855201 386.528846 163.855201 388.641026 163.855201 390.753205 163.855201 392.865385 163.855201 394.977564 163.855201 397.089744 163.855201 399.201923 164.080477 401.314103 172.613050 403.426282 172.613050 405.538462 172.613050 407.650641 172.613050 409.762821 172.613050 411.875000 181.862888 413.987179 186.158917 416.099359 186.158917 418.211538 193.868012 420.323718 193.868012 422.435897 193.868012 424.548077 193.868012 426.660256 193.868012 428.772436 193.868012 430.884615 193.868012 432.996795 193.868012 435.108974 193.868012 437.221154 200.494705 439.333333 200.494705 441.445513 213.821239 443.557692 219.024729 445.669872 219.024729 447.782051 219.024729 449.894231 219.024729 452.006410 219.024729 454.118590 219.105974 456.230769 219.105974 458.342949 219.105974 460.455128 219.105974 462.567308 219.105974 464.679487 219.105974 466.791667 219.105974 468.903846 219.105974 471.016026 219.105974 473.128205 219.105974 475.240385 219.105974 477.352564 219.105974 479.464744 217.837165 481.576923 217.837165 483.689103 167.000000 485.801282 167.000000 487.913462 167.000000 490.025641 167.000000 492.137821 167.000000 494.250000 167.000000 496.362179 167.000000 498.474359 167.000000 500.586538 167.000000 502.698718 167.000000 504.810897 167.000000 506.923077 219.625888 509.035256 219.625888 511.147436 219.625888 513.259615 219.625888 515.371795 219.625888 517.483974 219.625888 519.596154 219.625888 521.708333 219.625888 523.820513 219.625888 525.932692 219.625888 528.044872 219.625888 530.157051 219.625888 532.269231 219.625888 534.381410 219.625888 536.493590 219.625888 538.605769 219.625888 540.717949 219.625888 542.830128 219.625888 544.942308 219.625888 547.054487 219.625888 549.166667 167.000000 551.278846 167.000000 553.391026 167.000000 555.503205 167.000000 557.615385 167.000000 559.727564 167.000000 561.839744 167.000000 563.951923 167.000000 566.064103 167.000000 568.176282 167.000000 570.288462 167.000000 572.400641 167.000000 574.512821 167.000000 576.625000 167.000000 578.737179 167.000000 580.849359 167.000000 582.961538 167.000000 585.073718 167.000000 587.185897 167.000000 589.298077 167.000000 591.410256 167.000000 593.522436 167.000000 595.634615 220.149334 597.746795 220.149334 599.858974 220.149334 601.971154 220.149334 604.083333 220.149334 606.195513 220.149334 608.307692 220.149334 610.419872 234.528059 612.532051 234.528059 614.644231 234.528059 616.756410 234.528059 618.868590 234.528059 620.980769 234.528059 623.092949 234.528059 625.205128 235.564736 627.317308 235.564736 629.429487 235.564736 631.541667 235.564736 633.653846 235.564736 635.766026 235.564736 637.878205 243.272437 639.990385 243.272437 642.102564 243.272437 644.214744 243.272437 646.326923 243.272437"/></g><g class="series serie-2 color-2"><path class="line reactive nofill" d="M12.673077 167.000000 L14.785256 167.000000 16.897436 167.000000 19.009615 167.000000 21.121795 167.000000 23.233974 167.000000 25.346154 167.000000 27.458333 167.000000 29.570513 167.000000 31.682692 167.000000 33.794872 167.000000 35.907051 167.000000 38.019231 167.000000 40.131410 167.000000 42.243590 167.000000 44.355769 167.000000 46.467949 167.000000 48.580128 167.000000 50.692308 167.000000 52.804487 167.000000 54.916667 167.000000 57.028846 167.000000 59.141026 167.000000 61.253205 167.000000 63.365385 167.000000 65.477564 167.000000 67.589744 167.000000 69.701923 167.000000 71.814103 80.245272 73.926282 76.045659 76.038462 76.045659 78.150641 76.045659 80.262821 76.045659 82.375000 76.045659 84.487179 76.045659 86.599359 76.045659 88.711538 76.045659 90.823718 76.045659 92.935897 76.045659 95.048077 90.961074 97.160256 90.961074 99.272436 90.961074 101.384615 90.961074 103.496795 96.338840 105.608974 96.338840 107.721154 104.376969 109.833333 109.051853 111.945513 109.471693 114.057692 115.782254 116.169872 124.101838 118.282051 122.324350 120.394231 122.324350 122.506410 121.473559 124.618590 120.808947 126.730769 120.808947 128.842949 124.170119 130.955128 123.389238 133.067308 121.946860 135.179487 124.424615 137.291667 126.151729 139.403846 126.151729 141.516026 130.344787 143.628205 129.517533 145.740385 129.514279 147.852564 129.514279 149.964744 128.446515 152.076923 127.623707 154.189103 128.334297 156.301282 129.157654 158.413462 128.924918 160.525641 130.254210 162.637821 130.254210 164.750000 131.334744 166.862179 132.523846 168.974359 134.396946 171.086538 132.389797 173.198718 133.757798 175.310897 137.409062 177.423077 134.985460 179.535256 134.281720 181.647436 134.281720 183.759615 126.668249 185.871795 129.738307 187.983974 134.157301 190.096154 139.618176 192.208333 145.147626 194.320513 153.059112 196.432692 155.688694 198.544872 155.688694 200.657051 155.688694 202.769231 155.688694 204.881410 155.688694 206.993590 155.688694 209.105769 155.688694 211.217949 153.987507 213.330128 153.987507 215.442308 151.758640 217.554487 151.758640 219.666667 151.758640 221.778846 151.758640 223.891026 151.758640 226.003205 152.616250 228.115385 152.616250 230.227564 158.657582 232.339744 154.525097 234.451923 165.311391 236.564103 165.311391 238.676282 164.863575 240.788462 164.863575 242.900641 164.863575 245.012821 164.863575 247.125000 164.863575 249.237179 165.562682 251.349359 165.562682 253.461538 176.559054 255.573718 174.869812 257.685897 178.398458 259.798077 178.398458 261.910256 176.568675 264.022436 176.568675 266.134615 175.290700 268.246795 179.538342 270.358974 179.538342 272.471154 179.538342 274.583333 179.538342 276.695513 178.620137 278.807692 178.620137 280.919872 178.620137 283.032051 178.620137 285.144231 178.620137 287.256410 178.620137 289.368590 177.253712 291.480769 180.394262 293.592949 180.394262 295.705128 173.702549 297.817308 175.158338 299.929487 173.856759 302.041667 185.522637 304.153846 188.370161 306.266026 188.370161 308.378205 192.041041 310.490385 187.745355 312.602564 187.745355 314.714744 187.745355 316.826923 187.745355 318.939103 187.745355 321.051282 187.745355 323.163462 187.745355 325.275641 187.745355 327.387821 187.745355 329.500000 191.211878 331.612179 196.189791 333.724359 196.189791 335.836538 196.189791 337.948718 196.189791 340.060897 196.189791 342.173077 216.528347 344.285256 208.544495 346.397436 208.544495 348.509615 208.544495 350.621795 208.544495 352.733974 208.544495 354.846154 208.544495 356.958333 208.544495 359.070513 208.544495 361.182692 208.544495 363.294872 208.544495 365.407051 208.544495 367.519231 208.544495 369.631410 208.544495 371.743590 220.245504 373.855769 220.245504 375.967949 218.401348 378.080128 218.401348 380.192308 218.401348 382.304487 218.401348 384.416667 218.401348 386.528846 218.401348 388.641026 218.401348 390.753205 218.401348 392.865385 218.401348 394.977564 218.401348 397.089744 218.401348 399.201923 219.018468 401.314103 219.430541 403.426282 219.430541 405.538462 219.430541 407.650641 219.430541 409.762821 219.430541 411.875000 219.542396 413.987179 219.366619 416.099359 219.366619 418.211538 220.303094 420.323718 220.303094 422.435897 220.303094 424.548077 220.303094 426.660256 220.303094 428.772436 220.303094 430.884615 220.303094 432.996795 220.303094 435.108974 220.303094 437.221154 220.517132 439.333333 220.517132 441.445513 220.420044 443.557692 220.337804 445.669872 220.337804 447.782051 220.337804 449.894231 220.337804 452.006410 220.337804 454.118590 220.511799 456.230769 220.511799 458.342949 220.511799 460.455128 220.511799 462.567308 220.511799 464.679487 220.511799 466.791667 220.511799 468.903846 220.511799 471.016026 220.511799 473.128205 220.511799 475.240385 220.511799 477.352564 220.511799 479.464744 219.864353 481.576923 219.864353 483.689103 167.000000 485.801282 167.000000 487.913462 167.000000 490.025641 167.000000 492.137821 167.000000 494.250000 167.000000 496.362179 167.000000 498.474359 167.000000 500.586538 167.000000 502.698718 167.000000 504.810897 167.000000 506.923077 221.443225 509.035256 221.443225 511.147436 221.443225 513.259615 221.443225 515.371795 221.443225 517.483974 221.443225 519.596154 221.443225 521.708333 221.443225 523.820513 221.443225 525.932692 221.443225 528.044872 221.443225 530.157051 221.443225 532.269231 221.443225 534.381410 221.443225 536.493590 221.443225 538.605769 221.443225 540.717949 221.443225 542.830128 221.443225 544.942308 221.443225 547.054487 221.443225 549.166667 167.000000 551.278846 167.000000 553.391026 167.000000 555.503205 167.000000 557.615385 167.000000 559.727564 167.000000 561.839744 167.000000 563.951923 167.000000 566.064103 167.000000 568.176282 167.000000 570.288462 167.000000 572.400641 167.000000 574.512821 167.000000 576.625000 167.000000 578.737179 167.000000 580.849359 167.000000 582.961538 167.000000 585.073718 167.000000 587.185897 167.000000 589.298077 167.000000 591.410256 167.000000 593.522436 167.000000 595.634615 274.209578 597.746795 274.209578 599.858974 274.209578 601.971154 274.209578 604.083333 274.209578 606.195513 274.209578 608.307692 274.209578 610.419872 247.297087 612.532051 247.297087 614.644231 247.297087 616.756410 247.297087 618.868590 247.297087 620.980769 247.297087 623.092949 247.297087 625.205128 255.105929 627.317308 255.105929 629.429487 255.105929 631.541667 255.105929 633.653846 255.105929 635.766026 255.105929 637.878205 245.554105 639.990385 245.554105 642.102564 245.554105 644.214744 245.554105 646.326923 245.554105"/></g><g class="series serie-3 color-3"><path class="line reactive nofill" d="M12.673077 167.000000 L14.785256 167.000000 16.897436 167.000000 19.009615 167.000000 21.121795 167.000000 23.233974 167.000000 25.346154 167.000000 27.458333 167.000000 29.570513 167.000000 31.682692 167.000000 33.794872 167.000000 35.907051 167.000000 38.019231 167.000000 40.131410 167.000000 42.243590 167.000000 44.355769 167.000000 46.467949 167.000000 48.580128 167.000000 50.692308 167.000000 52.804487 167.000000 54.916667 167.000000 57.028846 167.000000 59.141026 167.000000 61.253205 167.000000 63.365385 167.000000 65.477564 167.000000 67.589744 167.000000 69.701923 167.000000 71.814103 85.869666 73.926282 109.810596 76.038462 109.810596 78.150641 109.810596 80.262821 109.810596 82.375000 109.810596 84.487179 109.810596 86.599359 109.810596 88.711538 109.810596 90.823718 109.810596 92.935897 109.810596 95.048077 107.881022 97.160256 107.881022 99.272436 107.881022 101.384615 107.881022 103.496795 108.652390 105.608974 108.652390 107.721154 112.954528 109.833333 118.606170 111.945513 124.406969 114.057692 127.969137 116.169872 133.808480 118.282051 136.560458 120.394231 136.560458 122.506410 139.832289 124.618590 142.115292 126.730769 142.115292 128.842949 143.951077 130.955128 145.801466 133.067308 148.089466 135.179487 148.992456 137.291667 153.146567 139.403846 153.146567 141.516026 155.958249 143.628205 156.357061 145.740385 158.382590 147.852564 158.382590 149.964744 160.045790 152.076923 160.863245 154.189103 160.938312 156.301282 165.093444 158.413462 165.977452 160.525641 166.250934 162.637821 166.250934 164.750000 165.857205 166.862179 165.765797 168.974359 166.206916 171.086538 166.222010 173.198718 165.962403 175.310897 166.271892 177.423077 166.529310 179.535256 167.114899 181.647436 167.114899 183.759615 163.566086 185.871795 163.253120 187.983974 169.614975 190.096154 169.208044 192.208333 169.366317 194.320513 170.291434 196.432692 169.933662 198.544872 169.933662 200.657051 169.933662 202.769231 169.933662 204.881410 169.933662 206.993590 169.933662 209.105769 169.933662 211.217949 169.211152 213.330128 169.211152 215.442308 170.404724 217.554487 170.404724 219.666667 170.404724 221.778846 170.404724 223.891026 170.404724 226.003205 175.054479 228.115385 175.054479 230.227564 170.284993 232.339744 171.840795 234.451923 183.370643 236.564103 183.370643 238.676282 190.804676 240.788462 190.804676 242.900641 190.804676 245.012821 190.804676 247.125000 190.804676 249.237179 191.497286 251.349359 191.497286 253.461538 186.834770 255.573718 191.870902 257.685897 202.406706 259.798077 202.406706 261.910256 197.198862 264.022436 197.198862 266.134615 196.738545 268.246795 198.590710 270.358974 198.590710 272.471154 198.590710 274.583333 198.590710 276.695513 197.610757 278.807692 197.610757 280.919872 197.610757 283.032051 197.610757 285.144231 197.610757 287.256410 197.610757 289.368590 200.064869 291.480769 202.314862 293.592949 202.314862 295.705128 208.003221 297.817308 206.193553 299.929487 205.112898 302.041667 209.162717 304.153846 215.335705 306.266026 215.335705 308.378205 218.972268 310.490385 220.085117 312.602564 220.085117 314.714744 220.085117 316.826923 220.085117 318.939103 220.085117 321.051282 220.085117 323.163462 220.085117 325.275641 220.085117 327.387821 220.085117 329.500000 219.109414 331.612179 218.991743 333.724359 218.991743 335.836538 218.991743 337.948718 218.991743 340.060897 218.991743 342.173077 218.951752 344.285256 214.230904 346.397436 214.230904 348.509615 214.230904 350.621795 214.230904 352.733974 214.230904 354.846154 214.230904 356.958333 214.230904 359.070513 214.230904 361.182692 214.230904 363.294872 214.230904 365.407051 214.230904 367.519231 214.230904 369.631410 214.230904 371.743590 217.893835 373.855769 217.893835 375.967949 220.584850 378.080128 220.584850 380.192308 220.584850 382.304487 220.584850 384.416667 220.584850 386.528846 220.584850 388.641026 220.584850 390.753205 220.584850 392.865385 220.584850 394.977564 220.584850 397.089744 220.584850 399.201923 224.052158 401.314103 224.526034 403.426282 224.526034 405.538462 224.526034 407.650641 224.526034 409.762821 224.526034 411.875000 224.069154 413.987179 225.612984 416.099359 225.612984 418.211538 226.392024 420.323718 226.392024 422.435897 226.392024 424.548077 226.392024 426.660256 226.392024 428.772436 226.392024 430.884615 226.392024 432.996795 226.392024 435.108974 226.392024 437.221154 224.887316 439.333333 224.887316 441.445513 222.339171 443.557692 221.136341 445.669872 221.136341 447.782051 221.136341 449.894231 221.136341 452.006410 221.136341 454.118590 220.583693 456.230769 220.583693 458.342949 220.583693 460.455128 220.583693 462.567308 220.583693 464.679487 220.583693 466.791667 220.583693 468.903846 220.583693 471.016026 220.583693 473.128205 220.583693 475.240385 220.583693 477.352564 220.583693 479.464744 220.794192 481.576923 220.794192 483.689103 167.000000 485.801282 167.000000 487.913462 167.000000 490.025641 167.000000 492.137821 167.000000 494.250000 167.000000 496.362179 167.000000 498.474359 167.000000 500.586538 167.000000 502.698718 167.000000 504.810897 167.000000 506.923077 220.993048 509.035256 220.993048 511.147436 220.993048 513.259615 220.993048 515.371795 220.993048 517.483974 220.993048 519.596154 220.993048 521.708333 220.993048 523.820513 220.993048 525.932692 220.993048 528.044872 220.993048 530.157051 220.993048 532.269231 220.993048 534.381410 220.993048 536.493590 220.993048 538.605769 220.993048 540.717949 220.993048 542.830128 220.993048 544.942308 220.993048 547.054487 220.993048 549.166667 167.000000 551.278846 167.000000 553.391026 167.000000 555.503205 167.000000 557.615385 167.000000 559.727564 167.000000 561.839744 167.000000 563.951923 167.000000 566.064103 167.000000 568.176282 167.000000 570.288462 167.000000 572.400641 167.000000 574.512821 167.000000 576.625000 167.000000 578.737179 167.000000 580.849359 167.000000 582.961538 167.000000 585.073718 167.000000 587.185897 167.000000 589.298077 167.000000 591.410256 167.000000 593.522436 167.000000 595.634615 271.601149 597.746795 271.601149 599.858974 271.601149 601.971154 271.601149 604.083333 271.601149 606.195513 271.601149 608.307692 271.601149 610.419872 277.317427 612.532051 277.317427 614.644231 277.317427 616.756410 277.317427 618.868590 277.317427 620.980769 277.317427 623.092949 277.317427 625.205128 274.713654 627.317308 274.713654 629.429487 274.713654 631.541667 274.713654 633.653846 274.713654 635.766026 274.713654 637.878205 276.269906 639.990385 276.269906 642.102564 276.269906 644.214744 276.269906 646.326923 276.269906"/></g><g class="series serie-4 color-4"><path class="line reactive nofill" d="M12.673077 167.000000 L14.785256 167.000000 16.897436 167.000000 19.009615 167.000000 21.121795 167.000000 23.233974 167.000000 25.346154 167.000000 27.458333 167.000000 29.570513 167.000000 31.682692 167.000000 33.794872 167.000000 35.907051 167.000000 38.019231 167.000000 40.131410 167.000000 42.243590 167.000000 44.355769 167.000000 46.467949 167.000000 48.580128 167.000000 50.692308 167.000000 52.804487 167.000000 54.916667 167.000000 57.028846 167.000000 59.141026 167.000000 61.253205 167.000000 63.365385 167.000000 65.477564 167.000000 67.589744 167.000000 69.701923 167.000000 71.814103 58.273551 73.926282 67.057834 76.038462 67.057834 78.150641 67.057834 80.262821 67.057834 82.375000 67.057834 84.487179 67.057834 86.599359 67.057834 88.711538 67.057834 90.823718 67.057834 92.935897 67.057834 95.048077 75.505743 97.160256 75.505743 99.272436 75.505743 101.384615 75.505743 103.496795 84.545956 105.608974 84.545956 107.721154 99.618701 109.833333 114.540027 111.945513 122.177976 114.057692 135.602414 116.169872 147.647520 118.282051 142.925949 120.394231 142.925949 122.506410 140.218646 124.618590 142.461288 126.730769 142.461288 128.842949 143.951915 130.955128 145.509122 133.067308 148.341573 135.179487 146.051051 137.291667 151.305468 139.403846 151.305468 141.516026 146.436151 143.628205 147.291530 145.740385 148.918648 147.852564 148.918648 149.964744 148.878628 152.076923 145.570408 154.189103 144.550624 156.301282 144.613335 158.413462 142.912011 160.525641 145.410847 162.637821 145.410847 164.750000 147.427424 166.862179 146.113896 168.974359 143.854150 171.086538 142.655130 173.198718 141.005296 175.310897 136.478057 177.423077 138.939453 179.535256 132.811318 181.647436 132.811318 183.759615 138.164054 185.871795 132.574890 187.983974 129.853945 190.096154 136.084792 192.208333 131.503909 194.320513 136.115482 196.432692 142.175976 198.544872 142.175976 200.657051 142.175976 202.769231 142.175976 204.881410 142.175976 206.993590 142.175976 209.105769 142.175976 211.217949 150.230479 213.330128 150.230479 215.442308 153.466710 217.554487 153.466710 219.666667 153.466710 221.778846 153.466710 223.891026 153.466710 226.003205 158.888551 228.115385 158.888551 230.227564 166.689537 232.339744 166.414792 234.451923 165.181067 236.564103 165.181067 238.676282 164.562625 240.788462 164.562625 242.900641 164.562625 245.012821 164.562625 247.125000 164.562625 249.237179 165.260742 251.349359 165.260742 253.461538 165.414505 255.573718 165.455732 257.685897 174.622596 259.798077 174.622596 261.910256 173.393999 264.022436 173.393999 266.134615 179.111752 268.246795 177.152318 270.358974 177.152318 272.471154 177.152318 274.583333 177.152318 276.695513 178.957156 278.807692 178.957156 280.919872 178.957156 283.032051 178.957156 285.144231 178.957156 287.256410 178.957156 289.368590 183.493435 291.480769 188.503314 293.592949 188.503314 295.705128 192.248941 297.817308 197.566355 299.929487 200.867912 302.041667 192.673681 304.153846 196.481004 306.266026 196.481004 308.378205 192.705168 310.490385 198.950831 312.602564 198.950831 314.714744 198.950831 316.826923 198.950831 318.939103 198.950831 321.051282 198.950831 323.163462 198.950831 325.275641 198.950831 327.387821 198.950831 329.500000 200.024709 331.612179 196.072917 333.724359 196.072917 335.836538 196.072917 337.948718 196.072917 340.060897 196.072917 342.173077 180.525357 344.285256 205.394098 346.397436 205.394098 348.509615 205.394098 350.621795 205.394098 352.733974 205.394098 354.846154 205.394098 356.958333 205.394098 359.070513 205.394098 361.182692 205.394098 363.294872 205.394098 365.407051 205.394098 367.519231 205.394098 369.631410 205.394098 371.743590 220.568431 373.855769 220.568431 375.967949 218.487464 378.080128 218.487464 380.192308 218.487464 382.304487 218.487464 384.416667 218.487464 386.528846 218.487464 388.641026 218.487464 390.753205 218.487464 392.865385 218.487464 394.977564 218.487464 397.089744 218.487464 399.201923 228.725765 401.314103 239.671090 403.426282 239.671090 405.538462 239.671090 407.650641 239.671090 409.762821 239.671090 411.875000 235.485579 413.987179 239.214866 416.099359 239.214866 418.211538 246.817656 420.323718 246.817656 422.435897 246.817656 424.548077 246.817656 426.660256 246.817656 428.772436 246.817656 430.884615 246.817656 432.996795 246.817656 435.108974 246.817656 437.221154 240.177695 439.333333 240.177695 441.445513 232.550593 443.557692 219.231770 445.669872 219.231770 447.782051 219.231770 449.894231 219.231770 452.006410 219.231770 454.118590 219.475887 456.230769 219.475887 458.342949 219.475887 460.455128 219.475887 462.567308 219.475887 464.679487 219.475887 466.791667 219.475887 468.903846 219.475887 471.016026 219.475887 473.128205 219.475887 475.240385 219.475887 477.352564 219.475887 479.464744 218.693962 481.576923 218.693962 483.689103 167.000000 485.801282 167.000000 487.913462 167.000000 490.025641 167.000000 492.137821 167.000000 494.250000 167.000000 496.362179 167.000000 498.474359 167.000000 500.586538 167.000000 502.698718 167.000000 504.810897 167.000000 506.923077 305.980447 509.035256 305.980447 511.147436 305.980447 513.259615 305.980447 515.371795 305.980447 517.483974 305.980447 519.596154 305.980447 521.708333 305.980447 523.820513 305.980447 525.932692 305.980447 528.044872 305.980447 530.157051 305.980447 532.269231 305.980447 534.381410 305.980447 536.493590 305.980447 538.605769 305.980447 540.717949 305.980447 542.830128 305.980447 544.942308 305.980447 547.054487 305.980447 549.166667 167.000000 551.278846 167.000000 553.391026 167.000000 555.503205 167.000000 557.615385 167.000000 559.727564 167.000000 561.839744 167.000000 563.951923 167.000000 566.064103 167.000000 568.176282 167.000000 570.288462 167.000000 572.400641 167.000000 574.512821 167.000000 576.625000 167.000000 578.737179 167.000000 580.849359 167.000000 582.961538 167.000000 585.073718 167.000000 587.185897 167.000000 589.298077 167.000000 591.410256 167.000000 593.522436 167.000000 595.634615 274.461523 597.746795 274.461523 599.858974 274.461523 601.971154 274.461523 604.083333 274.461523 606.195513 274.461523 608.307692 274.461523 610.419872 288.870637 612.532051 288.870637 614.644231 288.870637 616.756410 288.870637 618.868590 288.870637 620.980769 288.870637 623.092949 288.870637 625.205128 265.822136 627.317308 265.822136 629.429487 265.822136 631.541667 265.822136 633.653846 265.822136 635.766026 265.822136 637.878205 261.502442 639.990385 261.502442 642.102564 261.502442 644.214744 261.502442 646.326923 261.502442"/></g><g class="series serie-5 color-5"><path class="line reactive nofill" d="M12.673077 167.000000 L14.785256 167.000000 16.897436 167.000000 19.009615 167.000000 21.121795 167.000000 23.233974 167.000000 25.346154 167.000000 27.458333 167.000000 29.570513 167.000000 31.682692 167.000000 33.794872 167.000000 35.907051 167.000000 38.019231 167.000000 40.131410 167.000000 42.243590 167.000000 44.355769 167.000000 46.467949 167.000000 48.580128 167.000000 50.692308 167.000000 52.804487 167.000000 54.916667 167.000000 57.028846 167.000000 59.141026 167.000000 61.253205 167.000000 63.365385 167.000000 65.477564 167.000000 67.589744 167.000000 69.701923 167.000000 71.814103 58.273551 73.926282 67.057834 76.038462 67.057834 78.150641 67.057834 80.262821 67.057834 82.375000 67.057834 84.487179 67.057834 86.599359 67.057834 88.711538 67.057834 90.823718 67.057834 92.935897 67.057834 95.048077 93.347621 97.160256 93.347621 99.272436 93.347621 101.384615 93.347621 103.496795 97.927365 105.608974 97.927365 107.721154 110.323828 109.833333 123.460966 111.945513 129.824496 114.057692 142.293118 116.169872 153.594813 118.282051 148.278513 120.394231 148.278513 122.506410 145.084613 124.618590 146.921757 126.730769 146.921757 128.842949 148.069272 130.955128 149.332382 133.067308 151.686925 135.179487 152.348185 137.291667 154.279115 139.403846 154.279115 141.516026 148.869134 143.628205 149.618731 145.740385 153.573052 147.852564 153.573052 149.964744 153.533031 152.076923 150.224812 154.189103 149.416591 156.301282 149.965899 158.413462 148.859305 160.525641 151.707981 162.637821 151.707981 164.750000 154.118129 166.862179 153.250648 168.974359 153.890208 171.086538 153.360259 173.198718 152.475076 175.310897 149.859467 177.423077 148.671388 179.535256 144.705905 181.647436 144.705905 183.759615 156.005934 185.871795 153.985147 187.983974 140.559073 190.096154 145.005732 192.208333 142.209037 194.320513 149.496893 196.432692 152.881104 198.544872 152.881104 200.657051 152.881104 202.769231 152.881104 204.881410 152.881104 206.993590 152.881104 209.105769 152.881104 211.217949 150.230479 213.330128 150.230479 215.442308 153.466710 217.554487 153.466710 219.666667 153.466710 221.778846 153.466710 223.891026 153.466710 226.003205 158.888551 228.115385 158.888551 230.227564 166.689537 232.339744 166.414792 234.451923 165.181067 236.564103 165.181067 238.676282 164.562625 240.788462 164.562625 242.900641 164.562625 245.012821 164.562625 247.125000 164.562625 249.237179 165.260742 251.349359 165.260742 253.461538 165.414505 255.573718 165.455732 257.685897 174.622596 259.798077 174.622596 261.910256 173.393999 264.022436 173.393999 266.134615 179.111752 268.246795 177.152318 270.358974 177.152318 272.471154 177.152318 274.583333 177.152318 276.695513 178.957156 278.807692 178.957156 280.919872 178.957156 283.032051 178.957156 285.144231 178.957156 287.256410 178.957156 289.368590 183.493435 291.480769 188.503314 293.592949 188.503314 295.705128 192.248941 297.817308 197.566355 299.929487 200.867912 302.041667 192.673681 304.153846 196.481004 306.266026 196.481004 308.378205 192.705168 310.490385 198.950831 312.602564 198.950831 314.714744 198.950831 316.826923 198.950831 318.939103 198.950831 321.051282 198.950831 323.163462 198.950831 325.275641 198.950831 327.387821 198.950831 329.500000 200.024709 331.612179 196.072917 333.724359 196.072917 335.836538 196.072917 337.948718 196.072917 340.060897 196.072917 342.173077 180.525357 344.285256 205.394098 346.397436 205.394098 348.509615 205.394098 350.621795 205.394098 352.733974 205.394098 354.846154 205.394098 356.958333 205.394098 359.070513 205.394098 361.182692 205.394098 363.294872 205.394098 365.407051 205.394098 367.519231 205.394098 369.631410 205.394098 371.743590 220.568431 373.855769 220.568431 375.967949 218.487464 378.080128 218.487464 380.192308 218.487464 382.304487 218.487464 384.416667 218.487464 386.528846 218.487464 388.641026 218.487464 390.753205 218.487464 392.865385 218.487464 394.977564 218.487464 397.089744 218.487464 399.201923 228.725765 401.314103 239.671090 403.426282 239.671090 405.538462 239.671090 407.650641 239.671090 409.762821 239.671090 411.875000 235.485579 413.987179 239.214866 416.099359 239.214866 418.211538 246.817656 420.323718 246.817656 422.435897 246.817656 424.548077 246.817656 426.660256 246.817656 428.772436 246.817656 430.884615 246.817656 432.996795 246.817656 435.108974 246.817656 437.221154 240.177695 439.333333 240.177695 441.445513 232.550593 443.557692 219.231770 445.669872 219.231770 447.782051 219.231770 449.894231 219.231770 452.006410 219.231770 454.118590 219.475887 456.230769 219.475887 458.342949 219.475887 460.455128 219.475887 462.567308 219.475887 464.679487 219.475887 466.791667 219.475887 468.903846 219.475887 471.016026 219.475887 473.128205 219.475887 475.240385 219.475887 477.352564 219.475887 479.464744 218.693962 481.576923 218.693962 483.689103 167.000000 485.801282 167.000000 487.913462 167.000000 490.025641 167.000000 492.137821 167.000000 494.250000 167.000000 496.362179 167.000000 498.474359 167.000000 500.586538 167.000000 502.698718 167.000000 504.810897 167.000000 506.923077 305.980447 509.035256 305.980447 511.147436 305.980447 513.259615 305.980447 515.371795 305.980447 517.483974 305.980447 519.596154 305.980447 521.708333 305.980447 523.820513 305.980447 525.932692 305.980447 528.044872 305.980447 530.157051 305.980447 532.269231 305.980447 534.381410 305.980447 536.493590 305.980447 538.605769 305.980447 540.717949 305.980447 542.830128 305.980447 544.942308 305.980447 547.054487 305.980447 549.166667 167.000000 551.278846 167.000000 553.391026 167.000000 555.503205 167.000000 557.615385 167.000000 559.727564 167.000000 561.839744 167.000000 563.951923 167.000000 566.064103 167.000000 568.176282 167.000000 570.288462 167.000000 572.400641 167.000000 574.512821 167.000000 576.625000 167.000000 578.737179 167.000000 580.849359 167.000000 582.961538 167.000000 585.073718 167.000000 587.185897 167.000000 589.298077 167.000000 591.410256 167.000000 593.522436 167.000000 595.634615 274.461523 597.746795 274.461523 599.858974 274.461523 601.971154 274.461523 604.083333 274.461523 606.195513 274.461523 608.307692 274.461523 610.419872 288.870637 612.532051 288.870637 614.644231 288.870637 616.756410 288.870637 618.868590 288.870637 620.980769 288.870637 623.092949 288.870637 625.205128 265.822136 627.317308 265.822136 629.429487 265.822136 631.541667 265.822136 633.653846 265.822136 635.766026 265.822136 637.878205 261.502442 639.990385 261.502442 642.102564 261.502442 644.214744 261.502442 646.326923 261.502442"/></g></g><g class="titles"><text class="title plot_title" x="400.0" y="28">Mean OE1 for Tempo T ±10.0 BPM</text><text class="title" x="450.5" y="465.0">T (BPM)</text><text class="title" x="0" y="243.0" transform="rotate(-90 0.000000 215.000000)">Mean OE1 (TO)</text></g><g class="plot overlay" transform="translate(121, 48)"><g class="series serie-0 color-0"><g class="dots"><circle class="dot reactive tooltip-trigger" cx="12.673076923076922" cy="167.00000000000003" r="2.5"/><desc class="value">0.0000</desc><desc class="x top">12.673076923076922</desc><desc class="y top">167.00000000000003</desc><desc class="x_label">0.0</desc></g><g class="dots"><circle class="dot reactive tooltip-trigger" cx="76.03846153846155" cy="80.05010892816051" r="2.5"/><desc class="value">1.6245</desc><desc class="x ">76.03846153846155</desc><desc class="y ">80.05010892816051</desc><desc class="x_label">30.0</desc></g><g class="dots"><circle class="dot reactive tooltip-trigger" cx="139.40384615384613" cy="140.63687742956327" r="2.5"/><desc class="value">0.4925</desc><desc class="x ">139.40384615384613</desc><desc class="y ">140.63687742956327</desc><desc class="x_label">60.0</desc></g><g class="dots"><circle class="dot reactive tooltip-trigger" cx="202.76923076923075" cy="141.6176135647555" r="2.5"/><desc class="value">0.4742</desc><desc class="x ">202.76923076923075</desc><desc class="y ">141.6176135647555</desc><desc class="x_label">90.0</desc></g><g class="dots"><circle class="dot reactive tooltip-trigger" cx="266.1346153846154" cy="166.37172209328514" r="2.5"/><desc class="value">0.0117</desc><desc class="x ">266.1346153846154</desc><desc class="y ">166.37172209328514</desc><desc class="x_label">120.0</desc></g><g class="dots"><circle class="dot reactive tooltip-trigger" cx="329.5" cy="165.24584404103942" r="2.5"/><desc class="value">0.0328</desc><desc class="x ">329.5</desc><desc class="y ">165.24584404103942</desc><desc class="x_label">150.0</desc></g><g class="dots"><circle class="dot reactive tooltip-trigger" cx="392.8653846153846" cy="165.23088075398707" r="2.5"/><desc class="value">0.0331</desc><desc class="x left">392.8653846153846</desc><desc class="y left">165.23088075398707</desc><desc class="x_label">180.0</desc></g><g class="dots"><circle class="dot reactive tooltip-trigger" cx="456.23076923076917" cy="220.18462149975016" r="2.5"/><desc class="value">-0.9936</desc><desc class="x left top">456.23076923076917</desc><desc class="y left top">220.18462149975016</desc><desc class="x_label">210.0</desc></g><g class="dots"><circle class="dot reactive tooltip-trigger" cx="519.5961538461538" cy="221.56218245281332" r="2.5"/><desc class="value">-1.0194</desc><desc class="x left top">519.5961538461538</desc><desc class="y left top">221.56218245281332</desc><desc class="x_label">240.0</desc></g><g class="dots"><circle class="dot reactive tooltip-trigger" cx="582.9615384615385" cy="167.00000000000003" r="2.5"/><desc class="value">0.0000</desc><desc class="x left top">582.9615384615385</desc><desc class="y left top">167.00000000000003</desc><desc class="x_label">270.0</desc></g><g class="dots"><circle class="dot reactive tooltip-trigger" cx="646.3269230769231" cy="234.88745389982583" r="2.5"/><desc class="value">-1.2683</desc><desc class="x left top">646.3269230769231</desc><desc class="y left top">234.88745389982583</desc><desc class="x_label">300.0</desc></g></g><g class="series serie-1 color-1"><g class="dots"><circle class="dot reactive tooltip-trigger" cx="12.673076923076922" cy="167.00000000000003" r="2.5"/><desc class="value">0.0000</desc><desc class="x top">12.673076923076922</desc><desc class="y top">167.00000000000003</desc><desc class="x_label">0.0</desc></g><g class="dots"><circle class="dot reactive tooltip-trigger" cx="76.03846153846155" cy="75.58005722546665" r="2.5"/><desc class="value">1.7080</desc><desc class="x ">76.03846153846155</desc><desc class="y ">75.58005722546665</desc><desc class="x_label">30.0</desc></g><g class="dots"><circle class="dot reactive tooltip-trigger" cx="139.40384615384613" cy="113.25257056701" r="2.5"/><desc class="value">1.0041</desc><desc class="x ">139.40384615384613</desc><desc class="y ">113.25257056701</desc><desc class="x_label">60.0</desc></g><g class="dots"><circle class="dot reactive tooltip-trigger" cx="202.76923076923075" cy="132.36470047449754" r="2.5"/><desc class="value">0.6471</desc><desc class="x ">202.76923076923075</desc><desc class="y ">132.36470047449754</desc><desc class="x_label">90.0</desc></g><g class="dots"><circle class="dot reactive tooltip-trigger" cx="266.1346153846154" cy="164.8743288948871" r="2.5"/><desc class="value">0.0397</desc><desc class="x ">266.1346153846154</desc><desc class="y ">164.8743288948871</desc><desc class="x_label">120.0</desc></g><g class="dots"><circle class="dot reactive tooltip-trigger" cx="329.5" cy="165.40970558585494" r="2.5"/><desc class="value">0.0297</desc><desc class="x ">329.5</desc><desc class="y ">165.40970558585494</desc><desc class="x_label">150.0</desc></g><g class="dots"><circle class="dot reactive tooltip-trigger" cx="392.8653846153846" cy="163.85520132981637" r="2.5"/><desc class="value">0.0588</desc><desc class="x left">392.8653846153846</desc><desc class="y left">163.85520132981637</desc><desc class="x_label">180.0</desc></g><g class="dots"><circle class="dot reactive tooltip-trigger" cx="456.23076923076917" cy="219.10597367728292" r="2.5"/><desc class="value">-0.9735</desc><desc class="x left top">456.23076923076917</desc><desc class="y left top">219.10597367728292</desc><desc class="x_label">210.0</desc></g><g class="dots"><circle class="dot reactive tooltip-trigger" cx="519.5961538461538" cy="219.62588820580487" r="2.5"/><desc class="value">-0.9832</desc><desc class="x left top">519.5961538461538</desc><desc class="y left top">219.62588820580487</desc><desc class="x_label">240.0</desc></g><g class="dots"><circle class="dot reactive tooltip-trigger" cx="582.9615384615385" cy="167.00000000000003" r="2.5"/><desc class="value">0.0000</desc><desc class="x left top">582.9615384615385</desc><desc class="y left top">167.00000000000003</desc><desc class="x_label">270.0</desc></g><g class="dots"><circle class="dot reactive tooltip-trigger" cx="646.3269230769231" cy="243.27243714786812" r="2.5"/><desc class="value">-1.4250</desc><desc class="x left top">646.3269230769231</desc><desc class="y left top">243.27243714786812</desc><desc class="x_label">300.0</desc></g></g><g class="series serie-2 color-2"><g class="dots"><circle class="dot reactive tooltip-trigger" cx="12.673076923076922" cy="167.00000000000003" r="2.5"/><desc class="value">0.0000</desc><desc class="x top">12.673076923076922</desc><desc class="y top">167.00000000000003</desc><desc class="x_label">0.0</desc></g><g class="dots"><circle class="dot reactive tooltip-trigger" cx="76.03846153846155" cy="76.04565929510318" r="2.5"/><desc class="value">1.6993</desc><desc class="x ">76.03846153846155</desc><desc class="y ">76.04565929510318</desc><desc class="x_label">30.0</desc></g><g class="dots"><circle class="dot reactive tooltip-trigger" cx="139.40384615384613" cy="126.15172885310312" r="2.5"/><desc class="value">0.7632</desc><desc class="x ">139.40384615384613</desc><desc class="y ">126.15172885310312</desc><desc class="x_label">60.0</desc></g><g class="dots"><circle class="dot reactive tooltip-trigger" cx="202.76923076923075" cy="155.68869433684864" r="2.5"/><desc class="value">0.2113</desc><desc class="x ">202.76923076923075</desc><desc class="y ">155.68869433684864</desc><desc class="x_label">90.0</desc></g><g class="dots"><circle class="dot reactive tooltip-trigger" cx="266.1346153846154" cy="175.29069999654573" r="2.5"/><desc class="value">-0.1549</desc><desc class="x top">266.1346153846154</desc><desc class="y top">175.29069999654573</desc><desc class="x_label">120.0</desc></g><g class="dots"><circle class="dot reactive tooltip-trigger" cx="329.5" cy="191.21187821114978" r="2.5"/><desc class="value">-0.4523</desc><desc class="x top">329.5</desc><desc class="y top">191.21187821114978</desc><desc class="x_label">150.0</desc></g><g class="dots"><circle class="dot reactive tooltip-trigger" cx="392.8653846153846" cy="218.40134771958543" r="2.5"/><desc class="value">-0.9603</desc><desc class="x left top">392.8653846153846</desc><desc class="y left top">218.40134771958543</desc><desc class="x_label">180.0</desc></g><g class="dots"><circle class="dot reactive tooltip-trigger" cx="456.23076923076917" cy="220.5117994600489" r="2.5"/><desc class="value">-0.9997</desc><desc class="x left top">456.23076923076917</desc><desc class="y left top">220.5117994600489</desc><desc class="x_label">210.0</desc></g><g class="dots"><circle class="dot reactive tooltip-trigger" cx="519.5961538461538" cy="221.44322481144746" r="2.5"/><desc class="value">-1.0171</desc><desc class="x left top">519.5961538461538</desc><desc class="y left top">221.44322481144746</desc><desc class="x_label">240.0</desc></g><g class="dots"><circle class="dot reactive tooltip-trigger" cx="582.9615384615385" cy="167.00000000000003" r="2.5"/><desc class="value">0.0000</desc><desc class="x left top">582.9615384615385</desc><desc class="y left top">167.00000000000003</desc><desc class="x_label">270.0</desc></g><g class="dots"><circle class="dot reactive tooltip-trigger" cx="646.3269230769231" cy="245.55410509824503" r="2.5"/><desc class="value">-1.4676</desc><desc class="x left top">646.3269230769231</desc><desc class="y left top">245.55410509824503</desc><desc class="x_label">300.0</desc></g></g><g class="series serie-3 color-3"><g class="dots"><circle class="dot reactive tooltip-trigger" cx="12.673076923076922" cy="167.00000000000003" r="2.5"/><desc class="value">0.0000</desc><desc class="x top">12.673076923076922</desc><desc class="y top">167.00000000000003</desc><desc class="x_label">0.0</desc></g><g class="dots"><circle class="dot reactive tooltip-trigger" cx="76.03846153846155" cy="109.81059621935285" r="2.5"/><desc class="value">1.0684</desc><desc class="x ">76.03846153846155</desc><desc class="y ">109.81059621935285</desc><desc class="x_label">30.0</desc></g><g class="dots"><circle class="dot reactive tooltip-trigger" cx="139.40384615384613" cy="153.1465666940834" r="2.5"/><desc class="value">0.2588</desc><desc class="x ">139.40384615384613</desc><desc class="y ">153.1465666940834</desc><desc class="x_label">60.0</desc></g><g class="dots"><circle class="dot reactive tooltip-trigger" cx="202.76923076923075" cy="169.93366208480688" r="2.5"/><desc class="value">-0.0548</desc><desc class="x top">202.76923076923075</desc><desc class="y top">169.93366208480688</desc><desc class="x_label">90.0</desc></g><g class="dots"><circle class="dot reactive tooltip-trigger" cx="266.1346153846154" cy="196.7385454868652" r="2.5"/><desc class="value">-0.5556</desc><desc class="x top">266.1346153846154</desc><desc class="y top">196.7385454868652</desc><desc class="x_label">120.0</desc></g><g class="dots"><circle class="dot reactive tooltip-trigger" cx="329.5" cy="219.1094144575738" r="2.5"/><desc class="value">-0.9735</desc><desc class="x top">329.5</desc><desc class="y top">219.1094144575738</desc><desc class="x_label">150.0</desc></g><g class="dots"><circle class="dot reactive tooltip-trigger" cx="392.8653846153846" cy="220.58485017131954" r="2.5"/><desc class="value">-1.0011</desc><desc class="x left top">392.8653846153846</desc><desc class="y left top">220.58485017131954</desc><desc class="x_label">180.0</desc></g><g class="dots"><circle class="dot reactive tooltip-trigger" cx="456.23076923076917" cy="220.58369282103203" r="2.5"/><desc class="value">-1.0011</desc><desc class="x left top">456.23076923076917</desc><desc class="y left top">220.58369282103203</desc><desc class="x_label">210.0</desc></g><g class="dots"><circle class="dot reactive tooltip-trigger" cx="519.5961538461538" cy="220.99304770966307" r="2.5"/><desc class="value">-1.0087</desc><desc class="x left top">519.5961538461538</desc><desc class="y left top">220.99304770966307</desc><desc class="x_label">240.0</desc></g><g class="dots"><circle class="dot reactive tooltip-trigger" cx="582.9615384615385" cy="167.00000000000003" r="2.5"/><desc class="value">0.0000</desc><desc class="x left top">582.9615384615385</desc><desc class="y left top">167.00000000000003</desc><desc class="x_label">270.0</desc></g><g class="dots"><circle class="dot reactive tooltip-trigger" cx="646.3269230769231" cy="276.269906115223" r="2.5"/><desc class="value">-2.0414</desc><desc class="x left top">646.3269230769231</desc><desc class="y left top">276.269906115223</desc><desc class="x_label">300.0</desc></g></g><g class="series serie-4 color-4"><g class="dots"><circle class="dot reactive tooltip-trigger" cx="12.673076923076922" cy="167.00000000000003" r="2.5"/><desc class="value">0.0000</desc><desc class="x top">12.673076923076922</desc><desc class="y top">167.00000000000003</desc><desc class="x_label">0.0</desc></g><g class="dots"><circle class="dot reactive tooltip-trigger" cx="76.03846153846155" cy="67.05783404269113" r="2.5"/><desc class="value">1.8672</desc><desc class="x ">76.03846153846155</desc><desc class="y ">67.05783404269113</desc><desc class="x_label">30.0</desc></g><g class="dots"><circle class="dot reactive tooltip-trigger" cx="139.40384615384613" cy="151.30546805539862" r="2.5"/><desc class="value">0.2932</desc><desc class="x ">139.40384615384613</desc><desc class="y ">151.30546805539862</desc><desc class="x_label">60.0</desc></g><g class="dots"><circle class="dot reactive tooltip-trigger" cx="202.76923076923075" cy="142.17597602518885" r="2.5"/><desc class="value">0.4638</desc><desc class="x ">202.76923076923075</desc><desc class="y ">142.17597602518885</desc><desc class="x_label">90.0</desc></g><g class="dots"><circle class="dot reactive tooltip-trigger" cx="266.1346153846154" cy="179.1117516407989" r="2.5"/><desc class="value">-0.2263</desc><desc class="x top">266.1346153846154</desc><desc class="y top">179.1117516407989</desc><desc class="x_label">120.0</desc></g><g class="dots"><circle class="dot reactive tooltip-trigger" cx="329.5" cy="200.02470928508995" r="2.5"/><desc class="value">-0.6170</desc><desc class="x top">329.5</desc><desc class="y top">200.02470928508995</desc><desc class="x_label">150.0</desc></g><g class="dots"><circle class="dot reactive tooltip-trigger" cx="392.8653846153846" cy="218.48746351601795" r="2.5"/><desc class="value">-0.9619</desc><desc class="x left top">392.8653846153846</desc><desc class="y left top">218.48746351601795</desc><desc class="x_label">180.0</desc></g><g class="dots"><circle class="dot reactive tooltip-trigger" cx="456.23076923076917" cy="219.47588702549177" r="2.5"/><desc class="value">-0.9804</desc><desc class="x left top">456.23076923076917</desc><desc class="y left top">219.47588702549177</desc><desc class="x_label">210.0</desc></g><g class="dots"><circle class="dot reactive tooltip-trigger" cx="519.5961538461538" cy="305.9804468571907" r="2.5"/><desc class="value">-2.5965</desc><desc class="x left top">519.5961538461538</desc><desc class="y left top">305.9804468571907</desc><desc class="x_label">240.0</desc></g><g class="dots"><circle class="dot reactive tooltip-trigger" cx="582.9615384615385" cy="167.00000000000003" r="2.5"/><desc class="value">0.0000</desc><desc class="x left top">582.9615384615385</desc><desc class="y left top">167.00000000000003</desc><desc class="x_label">270.0</desc></g><g class="dots"><circle class="dot reactive tooltip-trigger" cx="646.3269230769231" cy="261.5024421828743" r="2.5"/><desc class="value">-1.7656</desc><desc class="x left top">646.3269230769231</desc><desc class="y left top">261.5024421828743</desc><desc class="x_label">300.0</desc></g></g><g class="series serie-5 color-5"><g class="dots"><circle class="dot reactive tooltip-trigger" cx="12.673076923076922" cy="167.00000000000003" r="2.5"/><desc class="value">0.0000</desc><desc class="x top">12.673076923076922</desc><desc class="y top">167.00000000000003</desc><desc class="x_label">0.0</desc></g><g class="dots"><circle class="dot reactive tooltip-trigger" cx="76.03846153846155" cy="67.05783404269113" r="2.5"/><desc class="value">1.8672</desc><desc class="x ">76.03846153846155</desc><desc class="y ">67.05783404269113</desc><desc class="x_label">30.0</desc></g><g class="dots"><circle class="dot reactive tooltip-trigger" cx="139.40384615384613" cy="154.27911483896074" r="2.5"/><desc class="value">0.2377</desc><desc class="x ">139.40384615384613</desc><desc class="y ">154.27911483896074</desc><desc class="x_label">60.0</desc></g><g class="dots"><circle class="dot reactive tooltip-trigger" cx="202.76923076923075" cy="152.88110423031705" r="2.5"/><desc class="value">0.2638</desc><desc class="x ">202.76923076923075</desc><desc class="y ">152.88110423031705</desc><desc class="x_label">90.0</desc></g><g class="dots"><circle class="dot reactive tooltip-trigger" cx="266.1346153846154" cy="179.1117516407989" r="2.5"/><desc class="value">-0.2263</desc><desc class="x top">266.1346153846154</desc><desc class="y top">179.1117516407989</desc><desc class="x_label">120.0</desc></g><g class="dots"><circle class="dot reactive tooltip-trigger" cx="329.5" cy="200.02470928508995" r="2.5"/><desc class="value">-0.6170</desc><desc class="x top">329.5</desc><desc class="y top">200.02470928508995</desc><desc class="x_label">150.0</desc></g><g class="dots"><circle class="dot reactive tooltip-trigger" cx="392.8653846153846" cy="218.48746351601795" r="2.5"/><desc class="value">-0.9619</desc><desc class="x left top">392.8653846153846</desc><desc class="y left top">218.48746351601795</desc><desc class="x_label">180.0</desc></g><g class="dots"><circle class="dot reactive tooltip-trigger" cx="456.23076923076917" cy="219.47588702549177" r="2.5"/><desc class="value">-0.9804</desc><desc class="x left top">456.23076923076917</desc><desc class="y left top">219.47588702549177</desc><desc class="x_label">210.0</desc></g><g class="dots"><circle class="dot reactive tooltip-trigger" cx="519.5961538461538" cy="305.9804468571907" r="2.5"/><desc class="value">-2.5965</desc><desc class="x left top">519.5961538461538</desc><desc class="y left top">305.9804468571907</desc><desc class="x_label">240.0</desc></g><g class="dots"><circle class="dot reactive tooltip-trigger" cx="582.9615384615385" cy="167.00000000000003" r="2.5"/><desc class="value">0.0000</desc><desc class="x left top">582.9615384615385</desc><desc class="y left top">167.00000000000003</desc><desc class="x_label">270.0</desc></g><g class="dots"><circle class="dot reactive tooltip-trigger" cx="646.3269230769231" cy="261.5024421828743" r="2.5"/><desc class="value">-1.7656</desc><desc class="x left top">646.3269230769231</desc><desc class="y left top">261.5024421828743</desc><desc class="x_label">300.0</desc></g></g></g><g class="plot text-overlay" transform="translate(121, 48)"><g class="series serie-0 color-0"/><g class="series serie-1 color-1"/><g class="series serie-2 color-2"/><g class="series serie-3 color-3"/><g class="series serie-4 color-4"/><g class="series serie-5 color-5"/></g><g class="plot tooltip-overlay" transform="translate(121, 48)"><g class="tooltip" style="opacity: 0" transform="translate(0 0)"><rect class="tooltip-box" height="0" rx="0" ry="0" width="0"/><g class="text"/></g></g><g class="legends" transform="translate(131, 485)"><g class="legend reactive activate-serie" id="activate-serie-0"><rect class="color-0 reactive" height="12" width="12" x="0.0" y="1.5"/><text x="17.0" y="12.0">boeck2015/tempodetector2016_default</text></g><g class="legend reactive activate-serie" id="activate-serie-1"><rect class="color-1 reactive" height="12" width="12" x="329.5" y="1.5"/><text x="346.5" y="12.0">davies2009/mirex_qm_tempotracker</text></g><g class="legend reactive activate-serie" id="activate-serie-2"><rect class="color-2 reactive" height="12" width="12" x="0.0" y="24.0"/><text x="17.0" y="34.5">percival2014/stem</text></g><g class="legend reactive activate-serie" id="activate-serie-3"><rect class="color-3 reactive" height="12" width="12" x="329.5" y="24.0"/><text x="346.5" y="34.5">schreiber2014/default</text></g><g class="legend reactive activate-serie" id="activate-serie-4"><rect class="color-4 reactive" height="12" width="12" x="0.0" y="46.5"/><text x="17.0" y="57.0">schreiber2017/ismir2017</text></g><g class="legend reactive activate-serie" id="activate-serie-5"><rect class="color-5 reactive" height="12" width="12" x="329.5" y="46.5"/><text x="346.5" y="57.0">schreiber2017/mirex2017</text></g></g></g></svg>