<?xml version="1.0" encoding="utf-8" standalone="no"?>
<!DOCTYPE svg PUBLIC "-//W3C//DTD SVG 1.1//EN"
  "http://www.w3.org/Graphics/SVG/1.1/DTD/svg11.dtd">
<!-- Created with matplotlib (http://matplotlib.org/) -->
<svg height="370.338375pt" version="1.1" viewBox="0 0 628.046875 370.338375" width="628.046875pt" xmlns="http://www.w3.org/2000/svg" xmlns:xlink="http://www.w3.org/1999/xlink">
 <defs>
  <style type="text/css">
*{stroke-linecap:butt;stroke-linejoin:round;}
  </style>
 </defs>
 <g id="figure_1">
  <g id="patch_1">
   <path d="M -0 370.338375 
L 628.046875 370.338375 
L 628.046875 0 
L -0 0 
z
" style="fill:#ffffff;"/>
  </g>
  <g id="axes_1">
   <g id="patch_2">
    <path d="M 226.746875 332.782125 
L 617.346875 332.782125 
L 617.346875 22.318125 
L 226.746875 22.318125 
z
" style="fill:#ffffff;"/>
   </g>
   <g id="matplotlib.axis_1">
    <g id="xtick_1">
     <g id="line2d_1">
      <path clip-path="url(#p51d7ab51fe)" d="M 265.806875 332.782125 
L 265.806875 22.318125 
" style="fill:none;stroke:#b0b0b0;stroke-linecap:square;stroke-width:0.8;"/>
     </g>
     <g id="line2d_2">
      <defs>
       <path d="M 0 0 
L 0 3.5 
" id="m47de006da8" style="stroke:#000000;stroke-width:0.8;"/>
      </defs>
      <g>
       <use style="stroke:#000000;stroke-width:0.8;" x="265.806875" xlink:href="#m47de006da8" y="332.782125"/>
      </g>
     </g>
     <g id="text_1">
      <!-- −0.4 -->
      <defs>
       <path d="M 10.59375 35.5 
L 73.1875 35.5 
L 73.1875 27.203125 
L 10.59375 27.203125 
z
" id="DejaVuSans-2212"/>
       <path d="M 31.78125 66.40625 
Q 24.171875 66.40625 20.328125 58.90625 
Q 16.5 51.421875 16.5 36.375 
Q 16.5 21.390625 20.328125 13.890625 
Q 24.171875 6.390625 31.78125 6.390625 
Q 39.453125 6.390625 43.28125 13.890625 
Q 47.125 21.390625 47.125 36.375 
Q 47.125 51.421875 43.28125 58.90625 
Q 39.453125 66.40625 31.78125 66.40625 
z
M 31.78125 74.21875 
Q 44.046875 74.21875 50.515625 64.515625 
Q 56.984375 54.828125 56.984375 36.375 
Q 56.984375 17.96875 50.515625 8.265625 
Q 44.046875 -1.421875 31.78125 -1.421875 
Q 19.53125 -1.421875 13.0625 8.265625 
Q 6.59375 17.96875 6.59375 36.375 
Q 6.59375 54.828125 13.0625 64.515625 
Q 19.53125 74.21875 31.78125 74.21875 
z
" id="DejaVuSans-30"/>
       <path d="M 10.6875 12.40625 
L 21 12.40625 
L 21 0 
L 10.6875 0 
z
" id="DejaVuSans-2e"/>
       <path d="M 37.796875 64.3125 
L 12.890625 25.390625 
L 37.796875 25.390625 
z
M 35.203125 72.90625 
L 47.609375 72.90625 
L 47.609375 25.390625 
L 58.015625 25.390625 
L 58.015625 17.1875 
L 47.609375 17.1875 
L 47.609375 0 
L 37.796875 0 
L 37.796875 17.1875 
L 4.890625 17.1875 
L 4.890625 26.703125 
z
" id="DejaVuSans-34"/>
      </defs>
      <g transform="translate(253.665469 347.380562)scale(0.1 -0.1)">
       <use xlink:href="#DejaVuSans-2212"/>
       <use x="83.789062" xlink:href="#DejaVuSans-30"/>
       <use x="147.412109" xlink:href="#DejaVuSans-2e"/>
       <use x="179.199219" xlink:href="#DejaVuSans-34"/>
      </g>
     </g>
    </g>
    <g id="xtick_2">
     <g id="line2d_3">
      <path clip-path="url(#p51d7ab51fe)" d="M 343.926875 332.782125 
L 343.926875 22.318125 
" style="fill:none;stroke:#b0b0b0;stroke-linecap:square;stroke-width:0.8;"/>
     </g>
     <g id="line2d_4">
      <g>
       <use style="stroke:#000000;stroke-width:0.8;" x="343.926875" xlink:href="#m47de006da8" y="332.782125"/>
      </g>
     </g>
     <g id="text_2">
      <!-- −0.2 -->
      <defs>
       <path d="M 19.1875 8.296875 
L 53.609375 8.296875 
L 53.609375 0 
L 7.328125 0 
L 7.328125 8.296875 
Q 12.9375 14.109375 22.625 23.890625 
Q 32.328125 33.6875 34.8125 36.53125 
Q 39.546875 41.84375 41.421875 45.53125 
Q 43.3125 49.21875 43.3125 52.78125 
Q 43.3125 58.59375 39.234375 62.25 
Q 35.15625 65.921875 28.609375 65.921875 
Q 23.96875 65.921875 18.8125 64.3125 
Q 13.671875 62.703125 7.8125 59.421875 
L 7.8125 69.390625 
Q 13.765625 71.78125 18.9375 73 
Q 24.125 74.21875 28.421875 74.21875 
Q 39.75 74.21875 46.484375 68.546875 
Q 53.21875 62.890625 53.21875 53.421875 
Q 53.21875 48.921875 51.53125 44.890625 
Q 49.859375 40.875 45.40625 35.40625 
Q 44.1875 33.984375 37.640625 27.21875 
Q 31.109375 20.453125 19.1875 8.296875 
z
" id="DejaVuSans-32"/>
      </defs>
      <g transform="translate(331.785469 347.380562)scale(0.1 -0.1)">
       <use xlink:href="#DejaVuSans-2212"/>
       <use x="83.789062" xlink:href="#DejaVuSans-30"/>
       <use x="147.412109" xlink:href="#DejaVuSans-2e"/>
       <use x="179.199219" xlink:href="#DejaVuSans-32"/>
      </g>
     </g>
    </g>
    <g id="xtick_3">
     <g id="line2d_5">
      <path clip-path="url(#p51d7ab51fe)" d="M 422.046875 332.782125 
L 422.046875 22.318125 
" style="fill:none;stroke:#b0b0b0;stroke-linecap:square;stroke-width:0.8;"/>
     </g>
     <g id="line2d_6">
      <g>
       <use style="stroke:#000000;stroke-width:0.8;" x="422.046875" xlink:href="#m47de006da8" y="332.782125"/>
      </g>
     </g>
     <g id="text_3">
      <!-- 0.0 -->
      <g transform="translate(414.095312 347.380562)scale(0.1 -0.1)">
       <use xlink:href="#DejaVuSans-30"/>
       <use x="63.623047" xlink:href="#DejaVuSans-2e"/>
       <use x="95.410156" xlink:href="#DejaVuSans-30"/>
      </g>
     </g>
    </g>
    <g id="xtick_4">
     <g id="line2d_7">
      <path clip-path="url(#p51d7ab51fe)" d="M 500.166875 332.782125 
L 500.166875 22.318125 
" style="fill:none;stroke:#b0b0b0;stroke-linecap:square;stroke-width:0.8;"/>
     </g>
     <g id="line2d_8">
      <g>
       <use style="stroke:#000000;stroke-width:0.8;" x="500.166875" xlink:href="#m47de006da8" y="332.782125"/>
      </g>
     </g>
     <g id="text_4">
      <!-- 0.2 -->
      <g transform="translate(492.215312 347.380562)scale(0.1 -0.1)">
       <use xlink:href="#DejaVuSans-30"/>
       <use x="63.623047" xlink:href="#DejaVuSans-2e"/>
       <use x="95.410156" xlink:href="#DejaVuSans-32"/>
      </g>
     </g>
    </g>
    <g id="xtick_5">
     <g id="line2d_9">
      <path clip-path="url(#p51d7ab51fe)" d="M 578.286875 332.782125 
L 578.286875 22.318125 
" style="fill:none;stroke:#b0b0b0;stroke-linecap:square;stroke-width:0.8;"/>
     </g>
     <g id="line2d_10">
      <g>
       <use style="stroke:#000000;stroke-width:0.8;" x="578.286875" xlink:href="#m47de006da8" y="332.782125"/>
      </g>
     </g>
     <g id="text_5">
      <!-- 0.4 -->
      <g transform="translate(570.335312 347.380562)scale(0.1 -0.1)">
       <use xlink:href="#DejaVuSans-30"/>
       <use x="63.623047" xlink:href="#DejaVuSans-2e"/>
       <use x="95.410156" xlink:href="#DejaVuSans-34"/>
      </g>
     </g>
    </g>
    <g id="text_6">
     <!-- OE2 (TO) -->
     <defs>
      <path d="M 39.40625 66.21875 
Q 28.65625 66.21875 22.328125 58.203125 
Q 16.015625 50.203125 16.015625 36.375 
Q 16.015625 22.609375 22.328125 14.59375 
Q 28.65625 6.59375 39.40625 6.59375 
Q 50.140625 6.59375 56.421875 14.59375 
Q 62.703125 22.609375 62.703125 36.375 
Q 62.703125 50.203125 56.421875 58.203125 
Q 50.140625 66.21875 39.40625 66.21875 
z
M 39.40625 74.21875 
Q 54.734375 74.21875 63.90625 63.9375 
Q 73.09375 53.65625 73.09375 36.375 
Q 73.09375 19.140625 63.90625 8.859375 
Q 54.734375 -1.421875 39.40625 -1.421875 
Q 24.03125 -1.421875 14.8125 8.828125 
Q 5.609375 19.09375 5.609375 36.375 
Q 5.609375 53.65625 14.8125 63.9375 
Q 24.03125 74.21875 39.40625 74.21875 
z
" id="DejaVuSans-4f"/>
      <path d="M 9.8125 72.90625 
L 55.90625 72.90625 
L 55.90625 64.59375 
L 19.671875 64.59375 
L 19.671875 43.015625 
L 54.390625 43.015625 
L 54.390625 34.71875 
L 19.671875 34.71875 
L 19.671875 8.296875 
L 56.78125 8.296875 
L 56.78125 0 
L 9.8125 0 
z
" id="DejaVuSans-45"/>
      <path id="DejaVuSans-20"/>
      <path d="M 31 75.875 
Q 24.46875 64.65625 21.28125 53.65625 
Q 18.109375 42.671875 18.109375 31.390625 
Q 18.109375 20.125 21.3125 9.0625 
Q 24.515625 -2 31 -13.1875 
L 23.1875 -13.1875 
Q 15.875 -1.703125 12.234375 9.375 
Q 8.59375 20.453125 8.59375 31.390625 
Q 8.59375 42.28125 12.203125 53.3125 
Q 15.828125 64.359375 23.1875 75.875 
z
" id="DejaVuSans-28"/>
      <path d="M -0.296875 72.90625 
L 61.375 72.90625 
L 61.375 64.59375 
L 35.5 64.59375 
L 35.5 0 
L 25.59375 0 
L 25.59375 64.59375 
L -0.296875 64.59375 
z
" id="DejaVuSans-54"/>
      <path d="M 8.015625 75.875 
L 15.828125 75.875 
Q 23.140625 64.359375 26.78125 53.3125 
Q 30.421875 42.28125 30.421875 31.390625 
Q 30.421875 20.453125 26.78125 9.375 
Q 23.140625 -1.703125 15.828125 -13.1875 
L 8.015625 -13.1875 
Q 14.5 -2 17.703125 9.0625 
Q 20.90625 20.125 20.90625 31.390625 
Q 20.90625 42.671875 17.703125 53.65625 
Q 14.5 64.65625 8.015625 75.875 
z
" id="DejaVuSans-29"/>
     </defs>
     <g transform="translate(399.289844 361.058687)scale(0.1 -0.1)">
      <use xlink:href="#DejaVuSans-4f"/>
      <use x="78.710938" xlink:href="#DejaVuSans-45"/>
      <use x="141.894531" xlink:href="#DejaVuSans-32"/>
      <use x="205.517578" xlink:href="#DejaVuSans-20"/>
      <use x="237.304688" xlink:href="#DejaVuSans-28"/>
      <use x="276.318359" xlink:href="#DejaVuSans-54"/>
      <use x="337.402344" xlink:href="#DejaVuSans-4f"/>
      <use x="416.113281" xlink:href="#DejaVuSans-29"/>
     </g>
    </g>
   </g>
   <g id="matplotlib.axis_2">
    <g id="ytick_1">
     <g id="line2d_11">
      <path clip-path="url(#p51d7ab51fe)" d="M 226.746875 305.841034 
L 617.346875 305.841034 
" style="fill:none;stroke:#b0b0b0;stroke-linecap:square;stroke-width:0.8;"/>
     </g>
     <g id="line2d_12">
      <defs>
       <path d="M 0 0 
L -3.5 0 
" id="m601c3bde2d" style="stroke:#000000;stroke-width:0.8;"/>
      </defs>
      <g>
       <use style="stroke:#000000;stroke-width:0.8;" x="226.746875" xlink:href="#m601c3bde2d" y="305.841034"/>
      </g>
     </g>
     <g id="text_7">
      <!-- schreiber2017/mirex2017 -->
      <defs>
       <path d="M 44.28125 53.078125 
L 44.28125 44.578125 
Q 40.484375 46.53125 36.375 47.5 
Q 32.28125 48.484375 27.875 48.484375 
Q 21.1875 48.484375 17.84375 46.4375 
Q 14.5 44.390625 14.5 40.28125 
Q 14.5 37.15625 16.890625 35.375 
Q 19.28125 33.59375 26.515625 31.984375 
L 29.59375 31.296875 
Q 39.15625 29.25 43.1875 25.515625 
Q 47.21875 21.78125 47.21875 15.09375 
Q 47.21875 7.46875 41.1875 3.015625 
Q 35.15625 -1.421875 24.609375 -1.421875 
Q 20.21875 -1.421875 15.453125 -0.5625 
Q 10.6875 0.296875 5.421875 2 
L 5.421875 11.28125 
Q 10.40625 8.6875 15.234375 7.390625 
Q 20.0625 6.109375 24.8125 6.109375 
Q 31.15625 6.109375 34.5625 8.28125 
Q 37.984375 10.453125 37.984375 14.40625 
Q 37.984375 18.0625 35.515625 20.015625 
Q 33.0625 21.96875 24.703125 23.78125 
L 21.578125 24.515625 
Q 13.234375 26.265625 9.515625 29.90625 
Q 5.8125 33.546875 5.8125 39.890625 
Q 5.8125 47.609375 11.28125 51.796875 
Q 16.75 56 26.8125 56 
Q 31.78125 56 36.171875 55.265625 
Q 40.578125 54.546875 44.28125 53.078125 
z
" id="DejaVuSans-73"/>
       <path d="M 48.78125 52.59375 
L 48.78125 44.1875 
Q 44.96875 46.296875 41.140625 47.34375 
Q 37.3125 48.390625 33.40625 48.390625 
Q 24.65625 48.390625 19.8125 42.84375 
Q 14.984375 37.3125 14.984375 27.296875 
Q 14.984375 17.28125 19.8125 11.734375 
Q 24.65625 6.203125 33.40625 6.203125 
Q 37.3125 6.203125 41.140625 7.25 
Q 44.96875 8.296875 48.78125 10.40625 
L 48.78125 2.09375 
Q 45.015625 0.34375 40.984375 -0.53125 
Q 36.96875 -1.421875 32.421875 -1.421875 
Q 20.0625 -1.421875 12.78125 6.34375 
Q 5.515625 14.109375 5.515625 27.296875 
Q 5.515625 40.671875 12.859375 48.328125 
Q 20.21875 56 33.015625 56 
Q 37.15625 56 41.109375 55.140625 
Q 45.0625 54.296875 48.78125 52.59375 
z
" id="DejaVuSans-63"/>
       <path d="M 54.890625 33.015625 
L 54.890625 0 
L 45.90625 0 
L 45.90625 32.71875 
Q 45.90625 40.484375 42.875 44.328125 
Q 39.84375 48.1875 33.796875 48.1875 
Q 26.515625 48.1875 22.3125 43.546875 
Q 18.109375 38.921875 18.109375 30.90625 
L 18.109375 0 
L 9.078125 0 
L 9.078125 75.984375 
L 18.109375 75.984375 
L 18.109375 46.1875 
Q 21.34375 51.125 25.703125 53.5625 
Q 30.078125 56 35.796875 56 
Q 45.21875 56 50.046875 50.171875 
Q 54.890625 44.34375 54.890625 33.015625 
z
" id="DejaVuSans-68"/>
       <path d="M 41.109375 46.296875 
Q 39.59375 47.171875 37.8125 47.578125 
Q 36.03125 48 33.890625 48 
Q 26.265625 48 22.1875 43.046875 
Q 18.109375 38.09375 18.109375 28.8125 
L 18.109375 0 
L 9.078125 0 
L 9.078125 54.6875 
L 18.109375 54.6875 
L 18.109375 46.1875 
Q 20.953125 51.171875 25.484375 53.578125 
Q 30.03125 56 36.53125 56 
Q 37.453125 56 38.578125 55.875 
Q 39.703125 55.765625 41.0625 55.515625 
z
" id="DejaVuSans-72"/>
       <path d="M 56.203125 29.59375 
L 56.203125 25.203125 
L 14.890625 25.203125 
Q 15.484375 15.921875 20.484375 11.0625 
Q 25.484375 6.203125 34.421875 6.203125 
Q 39.59375 6.203125 44.453125 7.46875 
Q 49.3125 8.734375 54.109375 11.28125 
L 54.109375 2.78125 
Q 49.265625 0.734375 44.1875 -0.34375 
Q 39.109375 -1.421875 33.890625 -1.421875 
Q 20.796875 -1.421875 13.15625 6.1875 
Q 5.515625 13.8125 5.515625 26.8125 
Q 5.515625 40.234375 12.765625 48.109375 
Q 20.015625 56 32.328125 56 
Q 43.359375 56 49.78125 48.890625 
Q 56.203125 41.796875 56.203125 29.59375 
z
M 47.21875 32.234375 
Q 47.125 39.59375 43.09375 43.984375 
Q 39.0625 48.390625 32.421875 48.390625 
Q 24.90625 48.390625 20.390625 44.140625 
Q 15.875 39.890625 15.1875 32.171875 
z
" id="DejaVuSans-65"/>
       <path d="M 9.421875 54.6875 
L 18.40625 54.6875 
L 18.40625 0 
L 9.421875 0 
z
M 9.421875 75.984375 
L 18.40625 75.984375 
L 18.40625 64.59375 
L 9.421875 64.59375 
z
" id="DejaVuSans-69"/>
       <path d="M 48.6875 27.296875 
Q 48.6875 37.203125 44.609375 42.84375 
Q 40.53125 48.484375 33.40625 48.484375 
Q 26.265625 48.484375 22.1875 42.84375 
Q 18.109375 37.203125 18.109375 27.296875 
Q 18.109375 17.390625 22.1875 11.75 
Q 26.265625 6.109375 33.40625 6.109375 
Q 40.53125 6.109375 44.609375 11.75 
Q 48.6875 17.390625 48.6875 27.296875 
z
M 18.109375 46.390625 
Q 20.953125 51.265625 25.265625 53.625 
Q 29.59375 56 35.59375 56 
Q 45.5625 56 51.78125 48.09375 
Q 58.015625 40.1875 58.015625 27.296875 
Q 58.015625 14.40625 51.78125 6.484375 
Q 45.5625 -1.421875 35.59375 -1.421875 
Q 29.59375 -1.421875 25.265625 0.953125 
Q 20.953125 3.328125 18.109375 8.203125 
L 18.109375 0 
L 9.078125 0 
L 9.078125 75.984375 
L 18.109375 75.984375 
z
" id="DejaVuSans-62"/>
       <path d="M 12.40625 8.296875 
L 28.515625 8.296875 
L 28.515625 63.921875 
L 10.984375 60.40625 
L 10.984375 69.390625 
L 28.421875 72.90625 
L 38.28125 72.90625 
L 38.28125 8.296875 
L 54.390625 8.296875 
L 54.390625 0 
L 12.40625 0 
z
" id="DejaVuSans-31"/>
       <path d="M 8.203125 72.90625 
L 55.078125 72.90625 
L 55.078125 68.703125 
L 28.609375 0 
L 18.3125 0 
L 43.21875 64.59375 
L 8.203125 64.59375 
z
" id="DejaVuSans-37"/>
       <path d="M 25.390625 72.90625 
L 33.6875 72.90625 
L 8.296875 -9.28125 
L 0 -9.28125 
z
" id="DejaVuSans-2f"/>
       <path d="M 52 44.1875 
Q 55.375 50.25 60.0625 53.125 
Q 64.75 56 71.09375 56 
Q 79.640625 56 84.28125 50.015625 
Q 88.921875 44.046875 88.921875 33.015625 
L 88.921875 0 
L 79.890625 0 
L 79.890625 32.71875 
Q 79.890625 40.578125 77.09375 44.375 
Q 74.3125 48.1875 68.609375 48.1875 
Q 61.625 48.1875 57.5625 43.546875 
Q 53.515625 38.921875 53.515625 30.90625 
L 53.515625 0 
L 44.484375 0 
L 44.484375 32.71875 
Q 44.484375 40.625 41.703125 44.40625 
Q 38.921875 48.1875 33.109375 48.1875 
Q 26.21875 48.1875 22.15625 43.53125 
Q 18.109375 38.875 18.109375 30.90625 
L 18.109375 0 
L 9.078125 0 
L 9.078125 54.6875 
L 18.109375 54.6875 
L 18.109375 46.1875 
Q 21.1875 51.21875 25.484375 53.609375 
Q 29.78125 56 35.6875 56 
Q 41.65625 56 45.828125 52.96875 
Q 50 49.953125 52 44.1875 
z
" id="DejaVuSans-6d"/>
       <path d="M 54.890625 54.6875 
L 35.109375 28.078125 
L 55.90625 0 
L 45.3125 0 
L 29.390625 21.484375 
L 13.484375 0 
L 2.875 0 
L 24.125 28.609375 
L 4.6875 54.6875 
L 15.28125 54.6875 
L 29.78125 35.203125 
L 44.28125 54.6875 
z
" id="DejaVuSans-78"/>
      </defs>
      <g transform="translate(90.084375 309.640253)scale(0.1 -0.1)">
       <use xlink:href="#DejaVuSans-73"/>
       <use x="52.099609" xlink:href="#DejaVuSans-63"/>
       <use x="107.080078" xlink:href="#DejaVuSans-68"/>
       <use x="170.458984" xlink:href="#DejaVuSans-72"/>
       <use x="211.541016" xlink:href="#DejaVuSans-65"/>
       <use x="273.064453" xlink:href="#DejaVuSans-69"/>
       <use x="300.847656" xlink:href="#DejaVuSans-62"/>
       <use x="364.324219" xlink:href="#DejaVuSans-65"/>
       <use x="425.847656" xlink:href="#DejaVuSans-72"/>
       <use x="466.960938" xlink:href="#DejaVuSans-32"/>
       <use x="530.583984" xlink:href="#DejaVuSans-30"/>
       <use x="594.207031" xlink:href="#DejaVuSans-31"/>
       <use x="657.830078" xlink:href="#DejaVuSans-37"/>
       <use x="721.453125" xlink:href="#DejaVuSans-2f"/>
       <use x="755.144531" xlink:href="#DejaVuSans-6d"/>
       <use x="852.556641" xlink:href="#DejaVuSans-69"/>
       <use x="880.339844" xlink:href="#DejaVuSans-72"/>
       <use x="921.421875" xlink:href="#DejaVuSans-65"/>
       <use x="982.929688" xlink:href="#DejaVuSans-78"/>
       <use x="1042.109375" xlink:href="#DejaVuSans-32"/>
       <use x="1105.732422" xlink:href="#DejaVuSans-30"/>
       <use x="1169.355469" xlink:href="#DejaVuSans-31"/>
       <use x="1232.978516" xlink:href="#DejaVuSans-37"/>
      </g>
     </g>
    </g>
    <g id="ytick_2">
     <g id="line2d_13">
      <path clip-path="url(#p51d7ab51fe)" d="M 226.746875 254.52467 
L 617.346875 254.52467 
" style="fill:none;stroke:#b0b0b0;stroke-linecap:square;stroke-width:0.8;"/>
     </g>
     <g id="line2d_14">
      <g>
       <use style="stroke:#000000;stroke-width:0.8;" x="226.746875" xlink:href="#m601c3bde2d" y="254.52467"/>
      </g>
     </g>
     <g id="text_8">
      <!-- schreiber2017/ismir2017 -->
      <g transform="translate(94.164062 258.323889)scale(0.1 -0.1)">
       <use xlink:href="#DejaVuSans-73"/>
       <use x="52.099609" xlink:href="#DejaVuSans-63"/>
       <use x="107.080078" xlink:href="#DejaVuSans-68"/>
       <use x="170.458984" xlink:href="#DejaVuSans-72"/>
       <use x="211.541016" xlink:href="#DejaVuSans-65"/>
       <use x="273.064453" xlink:href="#DejaVuSans-69"/>
       <use x="300.847656" xlink:href="#DejaVuSans-62"/>
       <use x="364.324219" xlink:href="#DejaVuSans-65"/>
       <use x="425.847656" xlink:href="#DejaVuSans-72"/>
       <use x="466.960938" xlink:href="#DejaVuSans-32"/>
       <use x="530.583984" xlink:href="#DejaVuSans-30"/>
       <use x="594.207031" xlink:href="#DejaVuSans-31"/>
       <use x="657.830078" xlink:href="#DejaVuSans-37"/>
       <use x="721.453125" xlink:href="#DejaVuSans-2f"/>
       <use x="755.144531" xlink:href="#DejaVuSans-69"/>
       <use x="782.927734" xlink:href="#DejaVuSans-73"/>
       <use x="835.027344" xlink:href="#DejaVuSans-6d"/>
       <use x="932.439453" xlink:href="#DejaVuSans-69"/>
       <use x="960.222656" xlink:href="#DejaVuSans-72"/>
       <use x="1001.335938" xlink:href="#DejaVuSans-32"/>
       <use x="1064.958984" xlink:href="#DejaVuSans-30"/>
       <use x="1128.582031" xlink:href="#DejaVuSans-31"/>
       <use x="1192.205078" xlink:href="#DejaVuSans-37"/>
      </g>
     </g>
    </g>
    <g id="ytick_3">
     <g id="line2d_15">
      <path clip-path="url(#p51d7ab51fe)" d="M 226.746875 203.208307 
L 617.346875 203.208307 
" style="fill:none;stroke:#b0b0b0;stroke-linecap:square;stroke-width:0.8;"/>
     </g>
     <g id="line2d_16">
      <g>
       <use style="stroke:#000000;stroke-width:0.8;" x="226.746875" xlink:href="#m601c3bde2d" y="203.208307"/>
      </g>
     </g>
     <g id="text_9">
      <!-- schreiber2014/default -->
      <defs>
       <path d="M 45.40625 46.390625 
L 45.40625 75.984375 
L 54.390625 75.984375 
L 54.390625 0 
L 45.40625 0 
L 45.40625 8.203125 
Q 42.578125 3.328125 38.25 0.953125 
Q 33.9375 -1.421875 27.875 -1.421875 
Q 17.96875 -1.421875 11.734375 6.484375 
Q 5.515625 14.40625 5.515625 27.296875 
Q 5.515625 40.1875 11.734375 48.09375 
Q 17.96875 56 27.875 56 
Q 33.9375 56 38.25 53.625 
Q 42.578125 51.265625 45.40625 46.390625 
z
M 14.796875 27.296875 
Q 14.796875 17.390625 18.875 11.75 
Q 22.953125 6.109375 30.078125 6.109375 
Q 37.203125 6.109375 41.296875 11.75 
Q 45.40625 17.390625 45.40625 27.296875 
Q 45.40625 37.203125 41.296875 42.84375 
Q 37.203125 48.484375 30.078125 48.484375 
Q 22.953125 48.484375 18.875 42.84375 
Q 14.796875 37.203125 14.796875 27.296875 
z
" id="DejaVuSans-64"/>
       <path d="M 37.109375 75.984375 
L 37.109375 68.5 
L 28.515625 68.5 
Q 23.6875 68.5 21.796875 66.546875 
Q 19.921875 64.59375 19.921875 59.515625 
L 19.921875 54.6875 
L 34.71875 54.6875 
L 34.71875 47.703125 
L 19.921875 47.703125 
L 19.921875 0 
L 10.890625 0 
L 10.890625 47.703125 
L 2.296875 47.703125 
L 2.296875 54.6875 
L 10.890625 54.6875 
L 10.890625 58.5 
Q 10.890625 67.625 15.140625 71.796875 
Q 19.390625 75.984375 28.609375 75.984375 
z
" id="DejaVuSans-66"/>
       <path d="M 34.28125 27.484375 
Q 23.390625 27.484375 19.1875 25 
Q 14.984375 22.515625 14.984375 16.5 
Q 14.984375 11.71875 18.140625 8.90625 
Q 21.296875 6.109375 26.703125 6.109375 
Q 34.1875 6.109375 38.703125 11.40625 
Q 43.21875 16.703125 43.21875 25.484375 
L 43.21875 27.484375 
z
M 52.203125 31.203125 
L 52.203125 0 
L 43.21875 0 
L 43.21875 8.296875 
Q 40.140625 3.328125 35.546875 0.953125 
Q 30.953125 -1.421875 24.3125 -1.421875 
Q 15.921875 -1.421875 10.953125 3.296875 
Q 6 8.015625 6 15.921875 
Q 6 25.140625 12.171875 29.828125 
Q 18.359375 34.515625 30.609375 34.515625 
L 43.21875 34.515625 
L 43.21875 35.40625 
Q 43.21875 41.609375 39.140625 45 
Q 35.0625 48.390625 27.6875 48.390625 
Q 23 48.390625 18.546875 47.265625 
Q 14.109375 46.140625 10.015625 43.890625 
L 10.015625 52.203125 
Q 14.9375 54.109375 19.578125 55.046875 
Q 24.21875 56 28.609375 56 
Q 40.484375 56 46.34375 49.84375 
Q 52.203125 43.703125 52.203125 31.203125 
z
" id="DejaVuSans-61"/>
       <path d="M 8.5 21.578125 
L 8.5 54.6875 
L 17.484375 54.6875 
L 17.484375 21.921875 
Q 17.484375 14.15625 20.5 10.265625 
Q 23.53125 6.390625 29.59375 6.390625 
Q 36.859375 6.390625 41.078125 11.03125 
Q 45.3125 15.671875 45.3125 23.6875 
L 45.3125 54.6875 
L 54.296875 54.6875 
L 54.296875 0 
L 45.3125 0 
L 45.3125 8.40625 
Q 42.046875 3.421875 37.71875 1 
Q 33.40625 -1.421875 27.6875 -1.421875 
Q 18.265625 -1.421875 13.375 4.4375 
Q 8.5 10.296875 8.5 21.578125 
z
M 31.109375 56 
z
" id="DejaVuSans-75"/>
       <path d="M 9.421875 75.984375 
L 18.40625 75.984375 
L 18.40625 0 
L 9.421875 0 
z
" id="DejaVuSans-6c"/>
       <path d="M 18.3125 70.21875 
L 18.3125 54.6875 
L 36.8125 54.6875 
L 36.8125 47.703125 
L 18.3125 47.703125 
L 18.3125 18.015625 
Q 18.3125 11.328125 20.140625 9.421875 
Q 21.96875 7.515625 27.59375 7.515625 
L 36.8125 7.515625 
L 36.8125 0 
L 27.59375 0 
Q 17.1875 0 13.234375 3.875 
Q 9.28125 7.765625 9.28125 18.015625 
L 9.28125 47.703125 
L 2.6875 47.703125 
L 2.6875 54.6875 
L 9.28125 54.6875 
L 9.28125 70.21875 
z
" id="DejaVuSans-74"/>
      </defs>
      <g transform="translate(109.045312 207.007526)scale(0.1 -0.1)">
       <use xlink:href="#DejaVuSans-73"/>
       <use x="52.099609" xlink:href="#DejaVuSans-63"/>
       <use x="107.080078" xlink:href="#DejaVuSans-68"/>
       <use x="170.458984" xlink:href="#DejaVuSans-72"/>
       <use x="211.541016" xlink:href="#DejaVuSans-65"/>
       <use x="273.064453" xlink:href="#DejaVuSans-69"/>
       <use x="300.847656" xlink:href="#DejaVuSans-62"/>
       <use x="364.324219" xlink:href="#DejaVuSans-65"/>
       <use x="425.847656" xlink:href="#DejaVuSans-72"/>
       <use x="466.960938" xlink:href="#DejaVuSans-32"/>
       <use x="530.583984" xlink:href="#DejaVuSans-30"/>
       <use x="594.207031" xlink:href="#DejaVuSans-31"/>
       <use x="657.830078" xlink:href="#DejaVuSans-34"/>
       <use x="721.453125" xlink:href="#DejaVuSans-2f"/>
       <use x="755.144531" xlink:href="#DejaVuSans-64"/>
       <use x="818.621094" xlink:href="#DejaVuSans-65"/>
       <use x="880.144531" xlink:href="#DejaVuSans-66"/>
       <use x="915.349609" xlink:href="#DejaVuSans-61"/>
       <use x="976.628906" xlink:href="#DejaVuSans-75"/>
       <use x="1040.007812" xlink:href="#DejaVuSans-6c"/>
       <use x="1067.791016" xlink:href="#DejaVuSans-74"/>
      </g>
     </g>
    </g>
    <g id="ytick_4">
     <g id="line2d_17">
      <path clip-path="url(#p51d7ab51fe)" d="M 226.746875 151.891943 
L 617.346875 151.891943 
" style="fill:none;stroke:#b0b0b0;stroke-linecap:square;stroke-width:0.8;"/>
     </g>
     <g id="line2d_18">
      <g>
       <use style="stroke:#000000;stroke-width:0.8;" x="226.746875" xlink:href="#m601c3bde2d" y="151.891943"/>
      </g>
     </g>
     <g id="text_10">
      <!-- percival2014/stem -->
      <defs>
       <path d="M 18.109375 8.203125 
L 18.109375 -20.796875 
L 9.078125 -20.796875 
L 9.078125 54.6875 
L 18.109375 54.6875 
L 18.109375 46.390625 
Q 20.953125 51.265625 25.265625 53.625 
Q 29.59375 56 35.59375 56 
Q 45.5625 56 51.78125 48.09375 
Q 58.015625 40.1875 58.015625 27.296875 
Q 58.015625 14.40625 51.78125 6.484375 
Q 45.5625 -1.421875 35.59375 -1.421875 
Q 29.59375 -1.421875 25.265625 0.953125 
Q 20.953125 3.328125 18.109375 8.203125 
z
M 48.6875 27.296875 
Q 48.6875 37.203125 44.609375 42.84375 
Q 40.53125 48.484375 33.40625 48.484375 
Q 26.265625 48.484375 22.1875 42.84375 
Q 18.109375 37.203125 18.109375 27.296875 
Q 18.109375 17.390625 22.1875 11.75 
Q 26.265625 6.109375 33.40625 6.109375 
Q 40.53125 6.109375 44.609375 11.75 
Q 48.6875 17.390625 48.6875 27.296875 
z
" id="DejaVuSans-70"/>
       <path d="M 2.984375 54.6875 
L 12.5 54.6875 
L 29.59375 8.796875 
L 46.6875 54.6875 
L 56.203125 54.6875 
L 35.6875 0 
L 23.484375 0 
z
" id="DejaVuSans-76"/>
      </defs>
      <g transform="translate(126.19375 155.691162)scale(0.1 -0.1)">
       <use xlink:href="#DejaVuSans-70"/>
       <use x="63.476562" xlink:href="#DejaVuSans-65"/>
       <use x="125" xlink:href="#DejaVuSans-72"/>
       <use x="166.082031" xlink:href="#DejaVuSans-63"/>
       <use x="221.0625" xlink:href="#DejaVuSans-69"/>
       <use x="248.845703" xlink:href="#DejaVuSans-76"/>
       <use x="308.025391" xlink:href="#DejaVuSans-61"/>
       <use x="369.304688" xlink:href="#DejaVuSans-6c"/>
       <use x="397.087891" xlink:href="#DejaVuSans-32"/>
       <use x="460.710938" xlink:href="#DejaVuSans-30"/>
       <use x="524.333984" xlink:href="#DejaVuSans-31"/>
       <use x="587.957031" xlink:href="#DejaVuSans-34"/>
       <use x="651.580078" xlink:href="#DejaVuSans-2f"/>
       <use x="685.271484" xlink:href="#DejaVuSans-73"/>
       <use x="737.371094" xlink:href="#DejaVuSans-74"/>
       <use x="776.580078" xlink:href="#DejaVuSans-65"/>
       <use x="838.103516" xlink:href="#DejaVuSans-6d"/>
      </g>
     </g>
    </g>
    <g id="ytick_5">
     <g id="line2d_19">
      <path clip-path="url(#p51d7ab51fe)" d="M 226.746875 100.57558 
L 617.346875 100.57558 
" style="fill:none;stroke:#b0b0b0;stroke-linecap:square;stroke-width:0.8;"/>
     </g>
     <g id="line2d_20">
      <g>
       <use style="stroke:#000000;stroke-width:0.8;" x="226.746875" xlink:href="#m601c3bde2d" y="100.57558"/>
      </g>
     </g>
     <g id="text_11">
      <!-- davies2009/mirex_qm_tempotracker -->
      <defs>
       <path d="M 10.984375 1.515625 
L 10.984375 10.5 
Q 14.703125 8.734375 18.5 7.8125 
Q 22.3125 6.890625 25.984375 6.890625 
Q 35.75 6.890625 40.890625 13.453125 
Q 46.046875 20.015625 46.78125 33.40625 
Q 43.953125 29.203125 39.59375 26.953125 
Q 35.25 24.703125 29.984375 24.703125 
Q 19.046875 24.703125 12.671875 31.3125 
Q 6.296875 37.9375 6.296875 49.421875 
Q 6.296875 60.640625 12.9375 67.421875 
Q 19.578125 74.21875 30.609375 74.21875 
Q 43.265625 74.21875 49.921875 64.515625 
Q 56.59375 54.828125 56.59375 36.375 
Q 56.59375 19.140625 48.40625 8.859375 
Q 40.234375 -1.421875 26.421875 -1.421875 
Q 22.703125 -1.421875 18.890625 -0.6875 
Q 15.09375 0.046875 10.984375 1.515625 
z
M 30.609375 32.421875 
Q 37.25 32.421875 41.125 36.953125 
Q 45.015625 41.5 45.015625 49.421875 
Q 45.015625 57.28125 41.125 61.84375 
Q 37.25 66.40625 30.609375 66.40625 
Q 23.96875 66.40625 20.09375 61.84375 
Q 16.21875 57.28125 16.21875 49.421875 
Q 16.21875 41.5 20.09375 36.953125 
Q 23.96875 32.421875 30.609375 32.421875 
z
" id="DejaVuSans-39"/>
       <path d="M 50.984375 -16.609375 
L 50.984375 -23.578125 
L -0.984375 -23.578125 
L -0.984375 -16.609375 
z
" id="DejaVuSans-5f"/>
       <path d="M 14.796875 27.296875 
Q 14.796875 17.390625 18.875 11.75 
Q 22.953125 6.109375 30.078125 6.109375 
Q 37.203125 6.109375 41.296875 11.75 
Q 45.40625 17.390625 45.40625 27.296875 
Q 45.40625 37.203125 41.296875 42.84375 
Q 37.203125 48.484375 30.078125 48.484375 
Q 22.953125 48.484375 18.875 42.84375 
Q 14.796875 37.203125 14.796875 27.296875 
z
M 45.40625 8.203125 
Q 42.578125 3.328125 38.25 0.953125 
Q 33.9375 -1.421875 27.875 -1.421875 
Q 17.96875 -1.421875 11.734375 6.484375 
Q 5.515625 14.40625 5.515625 27.296875 
Q 5.515625 40.1875 11.734375 48.09375 
Q 17.96875 56 27.875 56 
Q 33.9375 56 38.25 53.625 
Q 42.578125 51.265625 45.40625 46.390625 
L 45.40625 54.6875 
L 54.390625 54.6875 
L 54.390625 -20.796875 
L 45.40625 -20.796875 
z
" id="DejaVuSans-71"/>
       <path d="M 30.609375 48.390625 
Q 23.390625 48.390625 19.1875 42.75 
Q 14.984375 37.109375 14.984375 27.296875 
Q 14.984375 17.484375 19.15625 11.84375 
Q 23.34375 6.203125 30.609375 6.203125 
Q 37.796875 6.203125 41.984375 11.859375 
Q 46.1875 17.53125 46.1875 27.296875 
Q 46.1875 37.015625 41.984375 42.703125 
Q 37.796875 48.390625 30.609375 48.390625 
z
M 30.609375 56 
Q 42.328125 56 49.015625 48.375 
Q 55.71875 40.765625 55.71875 27.296875 
Q 55.71875 13.875 49.015625 6.21875 
Q 42.328125 -1.421875 30.609375 -1.421875 
Q 18.84375 -1.421875 12.171875 6.21875 
Q 5.515625 13.875 5.515625 27.296875 
Q 5.515625 40.765625 12.171875 48.375 
Q 18.84375 56 30.609375 56 
z
" id="DejaVuSans-6f"/>
       <path d="M 9.078125 75.984375 
L 18.109375 75.984375 
L 18.109375 31.109375 
L 44.921875 54.6875 
L 56.390625 54.6875 
L 27.390625 29.109375 
L 57.625 0 
L 45.90625 0 
L 18.109375 26.703125 
L 18.109375 0 
L 9.078125 0 
z
" id="DejaVuSans-6b"/>
      </defs>
      <g transform="translate(35.617187 104.374798)scale(0.1 -0.1)">
       <use xlink:href="#DejaVuSans-64"/>
       <use x="63.476562" xlink:href="#DejaVuSans-61"/>
       <use x="124.755859" xlink:href="#DejaVuSans-76"/>
       <use x="183.935547" xlink:href="#DejaVuSans-69"/>
       <use x="211.71875" xlink:href="#DejaVuSans-65"/>
       <use x="273.242188" xlink:href="#DejaVuSans-73"/>
       <use x="325.341797" xlink:href="#DejaVuSans-32"/>
       <use x="388.964844" xlink:href="#DejaVuSans-30"/>
       <use x="452.587891" xlink:href="#DejaVuSans-30"/>
       <use x="516.210938" xlink:href="#DejaVuSans-39"/>
       <use x="579.833984" xlink:href="#DejaVuSans-2f"/>
       <use x="613.525391" xlink:href="#DejaVuSans-6d"/>
       <use x="710.9375" xlink:href="#DejaVuSans-69"/>
       <use x="738.720703" xlink:href="#DejaVuSans-72"/>
       <use x="779.802734" xlink:href="#DejaVuSans-65"/>
       <use x="841.310547" xlink:href="#DejaVuSans-78"/>
       <use x="900.490234" xlink:href="#DejaVuSans-5f"/>
       <use x="950.490234" xlink:href="#DejaVuSans-71"/>
       <use x="1013.966797" xlink:href="#DejaVuSans-6d"/>
       <use x="1111.378906" xlink:href="#DejaVuSans-5f"/>
       <use x="1161.378906" xlink:href="#DejaVuSans-74"/>
       <use x="1200.587891" xlink:href="#DejaVuSans-65"/>
       <use x="1262.111328" xlink:href="#DejaVuSans-6d"/>
       <use x="1359.523438" xlink:href="#DejaVuSans-70"/>
       <use x="1423" xlink:href="#DejaVuSans-6f"/>
       <use x="1484.181641" xlink:href="#DejaVuSans-74"/>
       <use x="1523.390625" xlink:href="#DejaVuSans-72"/>
       <use x="1564.503906" xlink:href="#DejaVuSans-61"/>
       <use x="1625.783203" xlink:href="#DejaVuSans-63"/>
       <use x="1680.763672" xlink:href="#DejaVuSans-6b"/>
       <use x="1738.626953" xlink:href="#DejaVuSans-65"/>
       <use x="1800.150391" xlink:href="#DejaVuSans-72"/>
      </g>
     </g>
    </g>
    <g id="ytick_6">
     <g id="line2d_21">
      <path clip-path="url(#p51d7ab51fe)" d="M 226.746875 49.259216 
L 617.346875 49.259216 
" style="fill:none;stroke:#b0b0b0;stroke-linecap:square;stroke-width:0.8;"/>
     </g>
     <g id="line2d_22">
      <g>
       <use style="stroke:#000000;stroke-width:0.8;" x="226.746875" xlink:href="#m601c3bde2d" y="49.259216"/>
      </g>
     </g>
     <g id="text_12">
      <!-- boeck2015/tempodetector2016_default -->
      <defs>
       <path d="M 10.796875 72.90625 
L 49.515625 72.90625 
L 49.515625 64.59375 
L 19.828125 64.59375 
L 19.828125 46.734375 
Q 21.96875 47.46875 24.109375 47.828125 
Q 26.265625 48.1875 28.421875 48.1875 
Q 40.625 48.1875 47.75 41.5 
Q 54.890625 34.8125 54.890625 23.390625 
Q 54.890625 11.625 47.5625 5.09375 
Q 40.234375 -1.421875 26.90625 -1.421875 
Q 22.3125 -1.421875 17.546875 -0.640625 
Q 12.796875 0.140625 7.71875 1.703125 
L 7.71875 11.625 
Q 12.109375 9.234375 16.796875 8.0625 
Q 21.484375 6.890625 26.703125 6.890625 
Q 35.15625 6.890625 40.078125 11.328125 
Q 45.015625 15.765625 45.015625 23.390625 
Q 45.015625 31 40.078125 35.4375 
Q 35.15625 39.890625 26.703125 39.890625 
Q 22.75 39.890625 18.8125 39.015625 
Q 14.890625 38.140625 10.796875 36.28125 
z
" id="DejaVuSans-35"/>
       <path d="M 33.015625 40.375 
Q 26.375 40.375 22.484375 35.828125 
Q 18.609375 31.296875 18.609375 23.390625 
Q 18.609375 15.53125 22.484375 10.953125 
Q 26.375 6.390625 33.015625 6.390625 
Q 39.65625 6.390625 43.53125 10.953125 
Q 47.40625 15.53125 47.40625 23.390625 
Q 47.40625 31.296875 43.53125 35.828125 
Q 39.65625 40.375 33.015625 40.375 
z
M 52.59375 71.296875 
L 52.59375 62.3125 
Q 48.875 64.0625 45.09375 64.984375 
Q 41.3125 65.921875 37.59375 65.921875 
Q 27.828125 65.921875 22.671875 59.328125 
Q 17.53125 52.734375 16.796875 39.40625 
Q 19.671875 43.65625 24.015625 45.921875 
Q 28.375 48.1875 33.59375 48.1875 
Q 44.578125 48.1875 50.953125 41.515625 
Q 57.328125 34.859375 57.328125 23.390625 
Q 57.328125 12.15625 50.6875 5.359375 
Q 44.046875 -1.421875 33.015625 -1.421875 
Q 20.359375 -1.421875 13.671875 8.265625 
Q 6.984375 17.96875 6.984375 36.375 
Q 6.984375 53.65625 15.1875 63.9375 
Q 23.390625 74.21875 37.203125 74.21875 
Q 40.921875 74.21875 44.703125 73.484375 
Q 48.484375 72.75 52.59375 71.296875 
z
" id="DejaVuSans-36"/>
      </defs>
      <g transform="translate(20.878125 53.058435)scale(0.1 -0.1)">
       <use xlink:href="#DejaVuSans-62"/>
       <use x="63.476562" xlink:href="#DejaVuSans-6f"/>
       <use x="124.658203" xlink:href="#DejaVuSans-65"/>
       <use x="186.181641" xlink:href="#DejaVuSans-63"/>
       <use x="241.162109" xlink:href="#DejaVuSans-6b"/>
       <use x="299.072266" xlink:href="#DejaVuSans-32"/>
       <use x="362.695312" xlink:href="#DejaVuSans-30"/>
       <use x="426.318359" xlink:href="#DejaVuSans-31"/>
       <use x="489.941406" xlink:href="#DejaVuSans-35"/>
       <use x="553.564453" xlink:href="#DejaVuSans-2f"/>
       <use x="587.255859" xlink:href="#DejaVuSans-74"/>
       <use x="626.464844" xlink:href="#DejaVuSans-65"/>
       <use x="687.988281" xlink:href="#DejaVuSans-6d"/>
       <use x="785.400391" xlink:href="#DejaVuSans-70"/>
       <use x="848.876953" xlink:href="#DejaVuSans-6f"/>
       <use x="910.058594" xlink:href="#DejaVuSans-64"/>
       <use x="973.535156" xlink:href="#DejaVuSans-65"/>
       <use x="1035.058594" xlink:href="#DejaVuSans-74"/>
       <use x="1074.267578" xlink:href="#DejaVuSans-65"/>
       <use x="1135.791016" xlink:href="#DejaVuSans-63"/>
       <use x="1190.771484" xlink:href="#DejaVuSans-74"/>
       <use x="1229.980469" xlink:href="#DejaVuSans-6f"/>
       <use x="1291.162109" xlink:href="#DejaVuSans-72"/>
       <use x="1332.275391" xlink:href="#DejaVuSans-32"/>
       <use x="1395.898438" xlink:href="#DejaVuSans-30"/>
       <use x="1459.521484" xlink:href="#DejaVuSans-31"/>
       <use x="1523.144531" xlink:href="#DejaVuSans-36"/>
       <use x="1586.767578" xlink:href="#DejaVuSans-5f"/>
       <use x="1636.767578" xlink:href="#DejaVuSans-64"/>
       <use x="1700.244141" xlink:href="#DejaVuSans-65"/>
       <use x="1761.767578" xlink:href="#DejaVuSans-66"/>
       <use x="1796.972656" xlink:href="#DejaVuSans-61"/>
       <use x="1858.251953" xlink:href="#DejaVuSans-75"/>
       <use x="1921.630859" xlink:href="#DejaVuSans-6c"/>
       <use x="1949.414062" xlink:href="#DejaVuSans-74"/>
      </g>
     </g>
    </g>
    <g id="text_13">
     <!-- Estimator -->
     <g transform="translate(14.798437 201.672781)rotate(-90)scale(0.1 -0.1)">
      <use xlink:href="#DejaVuSans-45"/>
      <use x="63.183594" xlink:href="#DejaVuSans-73"/>
      <use x="115.283203" xlink:href="#DejaVuSans-74"/>
      <use x="154.492188" xlink:href="#DejaVuSans-69"/>
      <use x="182.275391" xlink:href="#DejaVuSans-6d"/>
      <use x="279.6875" xlink:href="#DejaVuSans-61"/>
      <use x="340.966797" xlink:href="#DejaVuSans-74"/>
      <use x="380.175781" xlink:href="#DejaVuSans-6f"/>
      <use x="441.357422" xlink:href="#DejaVuSans-72"/>
     </g>
    </g>
   </g>
   <g id="PolyCollection_1">
    <path clip-path="url(#p51d7ab51fe)" d="M 420.519901 302.848102 
L 420.519901 308.833966 
L 420.548708 308.955372 
L 420.577514 309.065585 
L 420.606321 309.165158 
L 420.635127 309.255197 
L 420.663934 309.33732 
L 420.692741 309.413588 
L 420.721547 309.486412 
L 420.750354 309.558443 
L 420.779161 309.632453 
L 420.807967 309.711206 
L 420.836774 309.797333 
L 420.865581 309.893224 
L 420.894387 310.00092 
L 420.923194 310.12204 
L 420.952001 310.257721 
L 420.980807 310.408589 
L 421.009614 310.574754 
L 421.03842 310.755833 
L 421.067227 310.950995 
L 421.096034 311.159029 
L 421.12484 311.37843 
L 421.153647 311.60749 
L 421.182454 311.844409 
L 421.21126 312.087394 
L 421.240067 312.334763 
L 421.268874 312.585033 
L 421.29768 312.836992 
L 421.326487 313.089752 
L 421.355294 313.342776 
L 421.3841 313.595876 
L 421.412907 313.84918 
L 421.441713 314.103076 
L 421.47052 314.358124 
L 421.499327 314.614952 
L 421.528133 314.874139 
L 421.55694 315.136088 
L 421.585747 315.400907 
L 421.614553 315.668306 
L 421.64336 315.937515 
L 421.672167 316.207234 
L 421.700973 316.475629 
L 421.72978 316.740365 
L 421.758587 316.99868 
L 421.787393 317.24751 
L 421.8162 317.483637 
L 421.845006 317.703866 
L 421.873813 317.905214 
L 421.90262 318.085095 
L 421.931426 318.24149 
L 421.960233 318.373086 
L 421.98904 318.47937 
L 422.017846 318.560674 
L 422.046653 318.618167 
L 422.07546 318.653781 
L 422.104266 318.670086 
L 422.133073 318.670125 
L 422.16188 318.657201 
L 422.190686 318.634655 
L 422.219493 318.60563 
L 422.248299 318.572854 
L 422.277106 318.538443 
L 422.305913 318.503747 
L 422.334719 318.469252 
L 422.363526 318.434535 
L 422.392333 318.398284 
L 422.421139 318.358382 
L 422.449946 318.312039 
L 422.478753 318.255974 
L 422.507559 318.186635 
L 422.536366 318.10043 
L 422.565173 317.993967 
L 422.593979 317.864281 
L 422.622786 317.709029 
L 422.651592 317.526652 
L 422.680399 317.316481 
L 422.709206 317.078792 
L 422.738012 316.814797 
L 422.766819 316.52658 
L 422.795626 316.216985 
L 422.824432 315.889455 
L 422.853239 315.547842 
L 422.882046 315.196203 
L 422.910852 314.83859 
L 422.939659 314.478848 
L 422.968466 314.120441 
L 422.997272 313.766308 
L 423.026079 313.418767 
L 423.054885 313.079457 
L 423.083692 312.749336 
L 423.112499 312.428716 
L 423.141305 312.117342 
L 423.170112 311.814505 
L 423.198919 311.519169 
L 423.227725 311.230113 
L 423.256532 310.946077 
L 423.285339 310.665895 
L 423.314145 310.388606 
L 423.342952 310.113543 
L 423.371759 309.840399 
L 423.371759 301.841669 
L 423.371759 301.841669 
L 423.342952 301.568525 
L 423.314145 301.293462 
L 423.285339 301.016173 
L 423.256532 300.735991 
L 423.227725 300.451956 
L 423.198919 300.1629 
L 423.170112 299.867563 
L 423.141305 299.564726 
L 423.112499 299.253352 
L 423.083692 298.932732 
L 423.054885 298.602611 
L 423.026079 298.263302 
L 422.997272 297.91576 
L 422.968466 297.561628 
L 422.939659 297.20322 
L 422.910852 296.843478 
L 422.882046 296.485865 
L 422.853239 296.134227 
L 422.824432 295.792613 
L 422.795626 295.465083 
L 422.766819 295.155488 
L 422.738012 294.867272 
L 422.709206 294.603276 
L 422.680399 294.365587 
L 422.651592 294.155417 
L 422.622786 293.973039 
L 422.593979 293.817787 
L 422.565173 293.688101 
L 422.536366 293.581638 
L 422.507559 293.495433 
L 422.478753 293.426094 
L 422.449946 293.370029 
L 422.421139 293.323686 
L 422.392333 293.283784 
L 422.363526 293.247534 
L 422.334719 293.212816 
L 422.305913 293.178321 
L 422.277106 293.143625 
L 422.248299 293.109214 
L 422.219493 293.076438 
L 422.190686 293.047414 
L 422.16188 293.024867 
L 422.133073 293.011943 
L 422.104266 293.011982 
L 422.07546 293.028287 
L 422.046653 293.063901 
L 422.017846 293.121394 
L 421.98904 293.202699 
L 421.960233 293.308982 
L 421.931426 293.440578 
L 421.90262 293.596973 
L 421.873813 293.776854 
L 421.845006 293.978202 
L 421.8162 294.198431 
L 421.787393 294.434558 
L 421.758587 294.683388 
L 421.72978 294.941703 
L 421.700973 295.206439 
L 421.672167 295.474834 
L 421.64336 295.744553 
L 421.614553 296.013762 
L 421.585747 296.281161 
L 421.55694 296.54598 
L 421.528133 296.807929 
L 421.499327 297.067116 
L 421.47052 297.323944 
L 421.441713 297.578992 
L 421.412907 297.832888 
L 421.3841 298.086192 
L 421.355294 298.339292 
L 421.326487 298.592316 
L 421.29768 298.845077 
L 421.268874 299.097035 
L 421.240067 299.347305 
L 421.21126 299.594674 
L 421.182454 299.837659 
L 421.153647 300.074578 
L 421.12484 300.303639 
L 421.096034 300.523039 
L 421.067227 300.731074 
L 421.03842 300.926236 
L 421.009614 301.107314 
L 420.980807 301.273479 
L 420.952001 301.424347 
L 420.923194 301.560028 
L 420.894387 301.681148 
L 420.865581 301.788844 
L 420.836774 301.884735 
L 420.807967 301.970862 
L 420.779161 302.049615 
L 420.750354 302.123625 
L 420.721547 302.195656 
L 420.692741 302.26848 
L 420.663934 302.344748 
L 420.635127 302.426871 
L 420.606321 302.51691 
L 420.577514 302.616483 
L 420.548708 302.726697 
L 420.519901 302.848102 
z
" style="fill:#ff0000;fill-opacity:0.75;"/>
   </g>
   <g id="PolyCollection_2">
    <path clip-path="url(#p51d7ab51fe)" d="M 420.519901 251.531738 
L 420.519901 257.517603 
L 420.548708 257.639008 
L 420.577514 257.749221 
L 420.606321 257.848794 
L 420.635127 257.938833 
L 420.663934 258.020957 
L 420.692741 258.097224 
L 420.721547 258.170048 
L 420.750354 258.24208 
L 420.779161 258.31609 
L 420.807967 258.394842 
L 420.836774 258.48097 
L 420.865581 258.57686 
L 420.894387 258.684557 
L 420.923194 258.805677 
L 420.952001 258.941358 
L 420.980807 259.092226 
L 421.009614 259.25839 
L 421.03842 259.439469 
L 421.067227 259.634631 
L 421.096034 259.842665 
L 421.12484 260.062066 
L 421.153647 260.291126 
L 421.182454 260.528045 
L 421.21126 260.77103 
L 421.240067 261.0184 
L 421.268874 261.268669 
L 421.29768 261.520628 
L 421.326487 261.773388 
L 421.355294 262.026413 
L 421.3841 262.279512 
L 421.412907 262.532817 
L 421.441713 262.786712 
L 421.47052 263.04176 
L 421.499327 263.298589 
L 421.528133 263.557776 
L 421.55694 263.819725 
L 421.585747 264.084544 
L 421.614553 264.351943 
L 421.64336 264.621151 
L 421.672167 264.89087 
L 421.700973 265.159266 
L 421.72978 265.424001 
L 421.758587 265.682317 
L 421.787393 265.931147 
L 421.8162 266.167274 
L 421.845006 266.387502 
L 421.873813 266.58885 
L 421.90262 266.768731 
L 421.931426 266.925127 
L 421.960233 267.056723 
L 421.98904 267.163006 
L 422.017846 267.244311 
L 422.046653 267.301804 
L 422.07546 267.337417 
L 422.104266 267.353723 
L 422.133073 267.353761 
L 422.16188 267.340837 
L 422.190686 267.318291 
L 422.219493 267.289266 
L 422.248299 267.256491 
L 422.277106 267.222079 
L 422.305913 267.187383 
L 422.334719 267.152888 
L 422.363526 267.118171 
L 422.392333 267.081921 
L 422.421139 267.042019 
L 422.449946 266.995675 
L 422.478753 266.93961 
L 422.507559 266.870271 
L 422.536366 266.784066 
L 422.565173 266.677604 
L 422.593979 266.547917 
L 422.622786 266.392665 
L 422.651592 266.210288 
L 422.680399 266.000117 
L 422.709206 265.762428 
L 422.738012 265.498433 
L 422.766819 265.210216 
L 422.795626 264.900622 
L 422.824432 264.573091 
L 422.853239 264.231478 
L 422.882046 263.87984 
L 422.910852 263.522227 
L 422.939659 263.162485 
L 422.968466 262.804077 
L 422.997272 262.449944 
L 423.026079 262.102403 
L 423.054885 261.763093 
L 423.083692 261.432972 
L 423.112499 261.112352 
L 423.141305 260.800979 
L 423.170112 260.498142 
L 423.198919 260.202805 
L 423.227725 259.913749 
L 423.256532 259.629714 
L 423.285339 259.349532 
L 423.314145 259.072242 
L 423.342952 258.797179 
L 423.371759 258.524035 
L 423.371759 250.525306 
L 423.371759 250.525306 
L 423.342952 250.252161 
L 423.314145 249.977099 
L 423.285339 249.699809 
L 423.256532 249.419627 
L 423.227725 249.135592 
L 423.198919 248.846536 
L 423.170112 248.551199 
L 423.141305 248.248362 
L 423.112499 247.936989 
L 423.083692 247.616369 
L 423.054885 247.286248 
L 423.026079 246.946938 
L 422.997272 246.599397 
L 422.968466 246.245264 
L 422.939659 245.886856 
L 422.910852 245.527114 
L 422.882046 245.169501 
L 422.853239 244.817863 
L 422.824432 244.47625 
L 422.795626 244.148719 
L 422.766819 243.839124 
L 422.738012 243.550908 
L 422.709206 243.286913 
L 422.680399 243.049224 
L 422.651592 242.839053 
L 422.622786 242.656676 
L 422.593979 242.501424 
L 422.565173 242.371737 
L 422.536366 242.265275 
L 422.507559 242.17907 
L 422.478753 242.109731 
L 422.449946 242.053666 
L 422.421139 242.007322 
L 422.392333 241.96742 
L 422.363526 241.93117 
L 422.334719 241.896453 
L 422.305913 241.861958 
L 422.277106 241.827262 
L 422.248299 241.79285 
L 422.219493 241.760075 
L 422.190686 241.73105 
L 422.16188 241.708504 
L 422.133073 241.69558 
L 422.104266 241.695618 
L 422.07546 241.711924 
L 422.046653 241.747537 
L 422.017846 241.80503 
L 421.98904 241.886335 
L 421.960233 241.992618 
L 421.931426 242.124214 
L 421.90262 242.28061 
L 421.873813 242.460491 
L 421.845006 242.661839 
L 421.8162 242.882067 
L 421.787393 243.118194 
L 421.758587 243.367024 
L 421.72978 243.62534 
L 421.700973 243.890075 
L 421.672167 244.158471 
L 421.64336 244.42819 
L 421.614553 244.697398 
L 421.585747 244.964797 
L 421.55694 245.229616 
L 421.528133 245.491565 
L 421.499327 245.750752 
L 421.47052 246.007581 
L 421.441713 246.262628 
L 421.412907 246.516524 
L 421.3841 246.769828 
L 421.355294 247.022928 
L 421.326487 247.275953 
L 421.29768 247.528713 
L 421.268874 247.780672 
L 421.240067 248.030941 
L 421.21126 248.27831 
L 421.182454 248.521296 
L 421.153647 248.758215 
L 421.12484 248.987275 
L 421.096034 249.206675 
L 421.067227 249.41471 
L 421.03842 249.609872 
L 421.009614 249.790951 
L 420.980807 249.957115 
L 420.952001 250.107983 
L 420.923194 250.243664 
L 420.894387 250.364784 
L 420.865581 250.472481 
L 420.836774 250.568371 
L 420.807967 250.654499 
L 420.779161 250.733251 
L 420.750354 250.807261 
L 420.721547 250.879293 
L 420.692741 250.952117 
L 420.663934 251.028384 
L 420.635127 251.110508 
L 420.606321 251.200547 
L 420.577514 251.30012 
L 420.548708 251.410333 
L 420.519901 251.531738 
z
" style="fill:#ff0000;fill-opacity:0.75;"/>
   </g>
   <g id="PolyCollection_3">
    <path clip-path="url(#p51d7ab51fe)" d="M 259.94572 202.937492 
L 259.94572 203.479121 
L 261.698655 203.476985 
L 263.45159 203.468057 
L 265.204525 203.453145 
L 266.95746 203.43353 
L 268.710395 203.410825 
L 270.463329 203.386801 
L 272.216264 203.363213 
L 273.969199 203.34164 
L 275.722134 203.323363 
L 277.475069 203.309286 
L 279.228004 203.299898 
L 280.980939 203.295277 
L 282.733874 203.295113 
L 284.486808 203.29877 
L 286.239743 203.305346 
L 287.992678 203.313758 
L 289.745613 203.322831 
L 291.498548 203.3314 
L 293.251483 203.338399 
L 295.004418 203.342961 
L 296.757353 203.344482 
L 298.510287 203.342675 
L 300.263222 203.337576 
L 302.016157 203.329523 
L 303.769092 203.319104 
L 305.522027 203.307075 
L 307.274962 203.294279 
L 309.027897 203.281557 
L 310.780832 203.269684 
L 312.533766 203.259319 
L 314.286701 203.250982 
L 316.039636 203.245053 
L 317.792571 203.241779 
L 319.545506 203.241287 
L 321.298441 203.243596 
L 323.051376 203.248616 
L 324.804311 203.256145 
L 326.557245 203.26585 
L 328.31018 203.27726 
L 330.063115 203.28976 
L 331.81605 203.302608 
L 333.568985 203.314974 
L 335.32192 203.325995 
L 337.074855 203.334855 
L 338.827789 203.340866 
L 340.580724 203.343544 
L 342.333659 203.342666 
L 344.086594 203.338293 
L 345.839529 203.330761 
L 347.592464 203.320634 
L 349.345399 203.308638 
L 351.098334 203.295568 
L 352.851268 203.282205 
L 354.604203 203.269244 
L 356.357138 203.257236 
L 358.110073 203.246561 
L 359.863008 203.23743 
L 361.615943 203.229897 
L 363.368878 203.223894 
L 365.121813 203.219272 
L 366.874747 203.215834 
L 368.627682 203.213375 
L 370.380617 203.211707 
L 372.133552 203.210692 
L 373.886487 203.210261 
L 375.639422 203.210455 
L 377.392357 203.211476 
L 379.145292 203.213767 
L 380.898226 203.218147 
L 382.651161 203.225994 
L 384.404096 203.239521 
L 386.157031 203.262122 
L 387.909966 203.298806 
L 389.662901 203.356678 
L 391.415836 203.445403 
L 393.168771 203.577558 
L 394.921705 203.768721 
L 396.67464 204.037124 
L 398.427575 204.402696 
L 400.18051 204.885368 
L 401.933445 205.502601 
L 403.68638 206.266244 
L 405.439315 207.179054 
L 407.19225 208.231352 
L 408.945184 209.398463 
L 410.698119 210.639632 
L 412.451054 211.898982 
L 414.203989 213.108817 
L 415.956924 214.195193 
L 417.709859 215.0852 
L 419.462794 215.714998 
L 421.215728 216.037398 
L 422.968663 216.027721 
L 424.721598 215.686937 
L 426.474533 215.041521 
L 428.227468 214.140054 
L 429.980403 213.047177 
L 431.733338 211.835944 
L 433.486273 210.579816 
L 433.486273 195.836797 
L 433.486273 195.836797 
L 431.733338 194.58067 
L 429.980403 193.369436 
L 428.227468 192.27656 
L 426.474533 191.375093 
L 424.721598 190.729677 
L 422.968663 190.388893 
L 421.215728 190.379216 
L 419.462794 190.701616 
L 417.709859 191.331414 
L 415.956924 192.22142 
L 414.203989 193.307796 
L 412.451054 194.517632 
L 410.698119 195.776982 
L 408.945184 197.018151 
L 407.19225 198.185261 
L 405.439315 199.237559 
L 403.68638 200.15037 
L 401.933445 200.914013 
L 400.18051 201.531245 
L 398.427575 202.013918 
L 396.67464 202.37949 
L 394.921705 202.647892 
L 393.168771 202.839056 
L 391.415836 202.971211 
L 389.662901 203.059936 
L 387.909966 203.117807 
L 386.157031 203.154492 
L 384.404096 203.177093 
L 382.651161 203.19062 
L 380.898226 203.198467 
L 379.145292 203.202846 
L 377.392357 203.205138 
L 375.639422 203.206158 
L 373.886487 203.206353 
L 372.133552 203.205922 
L 370.380617 203.204907 
L 368.627682 203.203239 
L 366.874747 203.200779 
L 365.121813 203.197341 
L 363.368878 203.192719 
L 361.615943 203.186717 
L 359.863008 203.179184 
L 358.110073 203.170052 
L 356.357138 203.159378 
L 354.604203 203.147369 
L 352.851268 203.134408 
L 351.098334 203.121046 
L 349.345399 203.107976 
L 347.592464 203.095979 
L 345.839529 203.085853 
L 344.086594 203.078321 
L 342.333659 203.073948 
L 340.580724 203.07307 
L 338.827789 203.075748 
L 337.074855 203.081759 
L 335.32192 203.090618 
L 333.568985 203.101639 
L 331.81605 203.114005 
L 330.063115 203.126854 
L 328.31018 203.139354 
L 326.557245 203.150764 
L 324.804311 203.160469 
L 323.051376 203.167998 
L 321.298441 203.173018 
L 319.545506 203.175327 
L 317.792571 203.174834 
L 316.039636 203.17156 
L 314.286701 203.165632 
L 312.533766 203.157295 
L 310.780832 203.14693 
L 309.027897 203.135056 
L 307.274962 203.122335 
L 305.522027 203.109538 
L 303.769092 203.09751 
L 302.016157 203.087091 
L 300.263222 203.079038 
L 298.510287 203.073939 
L 296.757353 203.072131 
L 295.004418 203.073653 
L 293.251483 203.078215 
L 291.498548 203.085214 
L 289.745613 203.093782 
L 287.992678 203.102856 
L 286.239743 203.111268 
L 284.486808 203.117843 
L 282.733874 203.1215 
L 280.980939 203.121337 
L 279.228004 203.116715 
L 277.475069 203.107328 
L 275.722134 203.093251 
L 273.969199 203.074974 
L 272.216264 203.0534 
L 270.463329 203.029812 
L 268.710395 203.005788 
L 266.95746 202.983083 
L 265.204525 202.963469 
L 263.45159 202.948557 
L 261.698655 202.939628 
L 259.94572 202.937492 
z
" style="fill:#ff0000;fill-opacity:0.75;"/>
   </g>
   <g id="PolyCollection_4">
    <path clip-path="url(#p51d7ab51fe)" d="M 419.39918 151.297036 
L 419.39918 152.48685 
L 419.466748 152.554537 
L 419.534316 152.62921 
L 419.601884 152.71345 
L 419.669453 152.810192 
L 419.737021 152.922586 
L 419.804589 153.053883 
L 419.872157 153.207406 
L 419.939725 153.386606 
L 420.007293 153.595207 
L 420.074861 153.837405 
L 420.142429 154.118031 
L 420.209997 154.442619 
L 420.277566 154.81726 
L 420.345134 155.248182 
L 420.412702 155.741014 
L 420.48027 156.299774 
L 420.547838 156.925665 
L 420.615406 157.615883 
L 420.682974 158.362633 
L 420.750542 159.152613 
L 420.81811 159.967148 
L 420.885679 160.783091 
L 420.953247 161.574462 
L 421.020815 162.314681 
L 421.088383 162.979079 
L 421.155951 163.547341 
L 421.223519 164.005488 
L 421.291087 164.347094 
L 421.358655 164.57356 
L 421.426223 164.693451 
L 421.493792 164.721034 
L 421.56136 164.674353 
L 421.628928 164.573155 
L 421.696496 164.437028 
L 421.764064 164.283989 
L 421.831632 164.129626 
L 421.8992 163.986768 
L 421.966768 163.865535 
L 422.034336 163.773551 
L 422.101905 163.716121 
L 422.169473 163.696222 
L 422.237041 163.714245 
L 422.304609 163.767562 
L 422.372177 163.850043 
L 422.439745 163.951718 
L 422.507313 164.058777 
L 422.574881 164.154035 
L 422.642449 164.217925 
L 422.710018 164.229963 
L 422.777586 164.170552 
L 422.845154 164.022896 
L 422.912722 163.774805 
L 422.98029 163.420122 
L 423.047858 162.959602 
L 423.115426 162.401116 
L 423.182994 161.759143 
L 423.250562 161.053599 
L 423.31813 160.308158 
L 423.385699 159.548209 
L 423.453267 158.798717 
L 423.520835 158.082181 
L 423.588403 157.416917 
L 423.655971 156.815843 
L 423.723539 156.285868 
L 423.791107 155.82793 
L 423.858675 155.437656 
L 423.926243 155.106513 
L 423.993812 154.823298 
L 424.06138 154.57575 
L 424.128948 154.352078 
L 424.196516 154.142219 
L 424.264084 153.938696 
L 424.331652 153.737013 
L 424.39922 153.535603 
L 424.466788 153.335401 
L 424.534356 153.139162 
L 424.601925 152.950674 
L 424.669493 152.773987 
L 424.737061 152.612765 
L 424.804629 152.469846 
L 424.872197 152.347006 
L 424.939765 152.244927 
L 425.007333 152.163322 
L 425.074901 152.101157 
L 425.142469 152.056898 
L 425.210038 152.028752 
L 425.277606 152.01484 
L 425.345174 152.013302 
L 425.412742 152.022322 
L 425.48031 152.040098 
L 425.547878 152.064778 
L 425.615446 152.094393 
L 425.683014 152.126819 
L 425.750582 152.159794 
L 425.818151 152.190982 
L 425.885719 152.218114 
L 425.953287 152.239146 
L 426.020855 152.252449 
L 426.088423 152.256959 
L 426.088423 151.526927 
L 426.088423 151.526927 
L 426.020855 151.531438 
L 425.953287 151.54474 
L 425.885719 151.565773 
L 425.818151 151.592904 
L 425.750582 151.624093 
L 425.683014 151.657067 
L 425.615446 151.689493 
L 425.547878 151.719108 
L 425.48031 151.743788 
L 425.412742 151.761564 
L 425.345174 151.770584 
L 425.277606 151.769046 
L 425.210038 151.755135 
L 425.142469 151.726989 
L 425.074901 151.68273 
L 425.007333 151.620564 
L 424.939765 151.53896 
L 424.872197 151.43688 
L 424.804629 151.31404 
L 424.737061 151.171122 
L 424.669493 151.0099 
L 424.601925 150.833212 
L 424.534356 150.644724 
L 424.466788 150.448486 
L 424.39922 150.248283 
L 424.331652 150.046873 
L 424.264084 149.845191 
L 424.196516 149.641668 
L 424.128948 149.431809 
L 424.06138 149.208137 
L 423.993812 148.960589 
L 423.926243 148.677373 
L 423.858675 148.34623 
L 423.791107 147.955956 
L 423.723539 147.498019 
L 423.655971 146.968043 
L 423.588403 146.366969 
L 423.520835 145.701705 
L 423.453267 144.985169 
L 423.385699 144.235677 
L 423.31813 143.475729 
L 423.250562 142.730287 
L 423.182994 142.024744 
L 423.115426 141.38277 
L 423.047858 140.824285 
L 422.98029 140.363765 
L 422.912722 140.009081 
L 422.845154 139.76099 
L 422.777586 139.613335 
L 422.710018 139.553923 
L 422.642449 139.565962 
L 422.574881 139.629852 
L 422.507313 139.72511 
L 422.439745 139.832169 
L 422.372177 139.933844 
L 422.304609 140.016324 
L 422.237041 140.069641 
L 422.169473 140.087664 
L 422.101905 140.067765 
L 422.034336 140.010336 
L 421.966768 139.918352 
L 421.8992 139.797118 
L 421.831632 139.65426 
L 421.764064 139.499897 
L 421.696496 139.346858 
L 421.628928 139.210731 
L 421.56136 139.109533 
L 421.493792 139.062852 
L 421.426223 139.090436 
L 421.358655 139.210326 
L 421.291087 139.436793 
L 421.223519 139.778398 
L 421.155951 140.236545 
L 421.088383 140.804807 
L 421.020815 141.469206 
L 420.953247 142.209424 
L 420.885679 143.000796 
L 420.81811 143.816738 
L 420.750542 144.631274 
L 420.682974 145.421254 
L 420.615406 146.168004 
L 420.547838 146.858221 
L 420.48027 147.484112 
L 420.412702 148.042872 
L 420.345134 148.535705 
L 420.277566 148.966627 
L 420.209997 149.341268 
L 420.142429 149.665855 
L 420.074861 149.946482 
L 420.007293 150.188679 
L 419.939725 150.397281 
L 419.872157 150.57648 
L 419.804589 150.730003 
L 419.737021 150.861301 
L 419.669453 150.973695 
L 419.601884 151.070437 
L 419.534316 151.154676 
L 419.466748 151.229349 
L 419.39918 151.297036 
z
" style="fill:#ff0000;fill-opacity:0.75;"/>
   </g>
   <g id="PolyCollection_5">
    <path clip-path="url(#p51d7ab51fe)" d="M 421.909548 92.834221 
L 421.909548 108.316938 
L 423.583985 110.000066 
L 425.258422 111.501772 
L 426.932859 112.651546 
L 428.607296 113.311901 
L 430.281734 113.40467 
L 431.956171 112.925079 
L 433.630608 111.940559 
L 435.305045 110.575521 
L 436.979482 108.986708 
L 438.653919 107.335428 
L 440.328356 105.762823 
L 442.002793 104.372725 
L 443.67723 103.224323 
L 445.351667 102.334262 
L 447.026105 101.685744 
L 448.700542 101.241052 
L 450.374979 100.953955 
L 452.049416 100.779426 
L 453.723853 100.679532 
L 455.39829 100.625713 
L 457.072727 100.598425 
L 458.747164 100.585409 
L 460.421601 100.57957 
L 462.096038 100.577107 
L 463.770476 100.576131 
L 465.444913 100.575767 
L 467.11935 100.575639 
L 468.793787 100.575598 
L 470.468224 100.575585 
L 472.142661 100.575581 
L 473.817098 100.57558 
L 475.491535 100.57558 
L 477.165972 100.57558 
L 478.840409 100.57558 
L 480.514847 100.57558 
L 482.189284 100.57558 
L 483.863721 100.57558 
L 485.538158 100.57558 
L 487.212595 100.57558 
L 488.887032 100.57558 
L 490.561469 100.57558 
L 492.235906 100.57558 
L 493.910343 100.57558 
L 495.584781 100.57558 
L 497.259218 100.57558 
L 498.933655 100.57558 
L 500.608092 100.57558 
L 502.282529 100.57558 
L 503.956966 100.57558 
L 505.631403 100.57558 
L 507.30584 100.57558 
L 508.980277 100.57558 
L 510.654714 100.57558 
L 512.329152 100.57558 
L 514.003589 100.57558 
L 515.678026 100.57558 
L 517.352463 100.57558 
L 519.0269 100.57558 
L 520.701337 100.57558 
L 522.375774 100.57558 
L 524.050211 100.57558 
L 525.724648 100.57558 
L 527.399085 100.57558 
L 529.073523 100.57558 
L 530.74796 100.57558 
L 532.422397 100.57558 
L 534.096834 100.57558 
L 535.771271 100.57558 
L 537.445708 100.57558 
L 539.120145 100.57558 
L 540.794582 100.57558 
L 542.469019 100.57558 
L 544.143456 100.57558 
L 545.817894 100.57558 
L 547.492331 100.57558 
L 549.166768 100.57558 
L 550.841205 100.57558 
L 552.515642 100.57558 
L 554.190079 100.57558 
L 555.864516 100.57558 
L 557.538953 100.575583 
L 559.21339 100.57559 
L 560.887827 100.575611 
L 562.562265 100.575667 
L 564.236702 100.575809 
L 565.911139 100.576142 
L 567.585576 100.576872 
L 569.260013 100.578357 
L 570.93445 100.581163 
L 572.608887 100.586083 
L 574.283324 100.594066 
L 575.957761 100.606022 
L 577.632199 100.622486 
L 579.306636 100.643203 
L 580.981073 100.666796 
L 582.65551 100.690705 
L 584.329947 100.71153 
L 586.004384 100.725793 
L 587.678821 100.730872 
L 587.678821 100.420287 
L 587.678821 100.420287 
L 586.004384 100.425366 
L 584.329947 100.439629 
L 582.65551 100.460454 
L 580.981073 100.484363 
L 579.306636 100.507956 
L 577.632199 100.528673 
L 575.957761 100.545137 
L 574.283324 100.557093 
L 572.608887 100.565076 
L 570.93445 100.569996 
L 569.260013 100.572802 
L 567.585576 100.574287 
L 565.911139 100.575017 
L 564.236702 100.57535 
L 562.562265 100.575492 
L 560.887827 100.575548 
L 559.21339 100.575569 
L 557.538953 100.575576 
L 555.864516 100.575579 
L 554.190079 100.575579 
L 552.515642 100.575579 
L 550.841205 100.57558 
L 549.166768 100.57558 
L 547.492331 100.57558 
L 545.817894 100.57558 
L 544.143456 100.57558 
L 542.469019 100.57558 
L 540.794582 100.57558 
L 539.120145 100.57558 
L 537.445708 100.57558 
L 535.771271 100.57558 
L 534.096834 100.57558 
L 532.422397 100.57558 
L 530.74796 100.57558 
L 529.073523 100.57558 
L 527.399085 100.57558 
L 525.724648 100.57558 
L 524.050211 100.57558 
L 522.375774 100.57558 
L 520.701337 100.57558 
L 519.0269 100.57558 
L 517.352463 100.57558 
L 515.678026 100.57558 
L 514.003589 100.57558 
L 512.329152 100.57558 
L 510.654714 100.57558 
L 508.980277 100.57558 
L 507.30584 100.57558 
L 505.631403 100.57558 
L 503.956966 100.57558 
L 502.282529 100.57558 
L 500.608092 100.57558 
L 498.933655 100.57558 
L 497.259218 100.57558 
L 495.584781 100.57558 
L 493.910343 100.57558 
L 492.235906 100.57558 
L 490.561469 100.57558 
L 488.887032 100.57558 
L 487.212595 100.57558 
L 485.538158 100.57558 
L 483.863721 100.57558 
L 482.189284 100.57558 
L 480.514847 100.57558 
L 478.840409 100.57558 
L 477.165972 100.57558 
L 475.491535 100.575579 
L 473.817098 100.575579 
L 472.142661 100.575578 
L 470.468224 100.575574 
L 468.793787 100.575562 
L 467.11935 100.57552 
L 465.444913 100.575392 
L 463.770476 100.575028 
L 462.096038 100.574052 
L 460.421601 100.571589 
L 458.747164 100.56575 
L 457.072727 100.552734 
L 455.39829 100.525446 
L 453.723853 100.471627 
L 452.049416 100.371733 
L 450.374979 100.197204 
L 448.700542 99.910107 
L 447.026105 99.465415 
L 445.351667 98.816897 
L 443.67723 97.926836 
L 442.002793 96.778434 
L 440.328356 95.388336 
L 438.653919 93.815731 
L 436.979482 92.164451 
L 435.305045 90.575638 
L 433.630608 89.2106 
L 431.956171 88.22608 
L 430.281734 87.746489 
L 428.607296 87.839258 
L 426.932859 88.499613 
L 425.258422 89.649387 
L 423.583985 91.151093 
L 421.909548 92.834221 
z
" style="fill:#ff0000;fill-opacity:0.75;"/>
   </g>
   <g id="PolyCollection_6">
    <path clip-path="url(#p51d7ab51fe)" d="M 416.977853 48.685491 
L 416.977853 49.832941 
L 417.099765 49.92487 
L 417.221677 50.031052 
L 417.343589 50.153568 
L 417.465502 50.294338 
L 417.587414 50.454938 
L 417.709326 50.636439 
L 417.831239 50.839259 
L 417.953151 51.063069 
L 418.075063 51.306731 
L 418.196976 51.56828 
L 418.318888 51.844945 
L 418.4408 52.133183 
L 418.562713 52.428739 
L 418.684625 52.726716 
L 418.806537 53.021673 
L 418.92845 53.307775 
L 419.050362 53.579018 
L 419.172274 53.829571 
L 419.294187 54.054245 
L 419.416099 54.2491 
L 419.538011 54.412163 
L 419.659924 54.544191 
L 419.781836 54.649379 
L 419.903748 54.735883 
L 420.025661 54.816029 
L 420.147573 54.906037 
L 420.269485 55.025192 
L 420.391398 55.194397 
L 420.51331 55.434144 
L 420.635222 55.762064 
L 420.757134 56.190261 
L 420.879047 56.722792 
L 421.000959 57.353618 
L 421.122871 58.065442 
L 421.244784 58.829697 
L 421.366696 59.607893 
L 421.488608 60.354318 
L 421.610521 61.019893 
L 421.732433 61.556796 
L 421.854345 61.923313 
L 421.976258 62.088307 
L 422.09817 62.034681 
L 422.220082 61.761393 
L 422.341995 61.283709 
L 422.463907 60.631676 
L 422.585819 59.847025 
L 422.707732 58.978933 
L 422.829644 58.079215 
L 422.951556 57.197533 
L 423.073469 56.377212 
L 423.195381 55.652056 
L 423.317293 55.044444 
L 423.439206 54.564751 
L 423.561118 54.211997 
L 423.68303 53.975476 
L 423.804942 53.837057 
L 423.926855 53.773811 
L 424.048767 53.760665 
L 424.170679 53.772801 
L 424.292592 53.787641 
L 424.414504 53.786299 
L 424.536416 53.754466 
L 424.658329 53.682762 
L 424.780241 53.566625 
L 424.902153 53.405821 
L 425.024066 53.203707 
L 425.145978 52.966341 
L 425.26789 52.701549 
L 425.389803 52.418036 
L 425.511715 52.12461 
L 425.633627 51.829555 
L 425.75554 51.540187 
L 425.877452 51.262583 
L 425.999364 51.001485 
L 426.121277 50.760323 
L 426.243189 50.541344 
L 426.365101 50.345794 
L 426.487014 50.174122 
L 426.608926 50.026174 
L 426.730838 49.901355 
L 426.85275 49.79875 
L 426.974663 49.717203 
L 427.096575 49.655356 
L 427.218487 49.611661 
L 427.3404 49.584379 
L 427.462312 49.571572 
L 427.584224 49.571106 
L 427.706137 49.580665 
L 427.828049 49.597788 
L 427.949961 49.61993 
L 428.071874 49.644538 
L 428.193786 49.669145 
L 428.315698 49.691473 
L 428.437611 49.709533 
L 428.559523 49.72172 
L 428.681435 49.726885 
L 428.803348 49.724375 
L 428.92526 49.714052 
L 429.047172 49.696269 
L 429.047172 48.822163 
L 429.047172 48.822163 
L 428.92526 48.804379 
L 428.803348 48.794057 
L 428.681435 48.791547 
L 428.559523 48.796711 
L 428.437611 48.808899 
L 428.315698 48.826959 
L 428.193786 48.849287 
L 428.071874 48.873893 
L 427.949961 48.898501 
L 427.828049 48.920644 
L 427.706137 48.937767 
L 427.584224 48.947326 
L 427.462312 48.94686 
L 427.3404 48.934053 
L 427.218487 48.906771 
L 427.096575 48.863076 
L 426.974663 48.801228 
L 426.85275 48.719681 
L 426.730838 48.617077 
L 426.608926 48.492258 
L 426.487014 48.34431 
L 426.365101 48.172638 
L 426.243189 47.977088 
L 426.121277 47.758108 
L 425.999364 47.516946 
L 425.877452 47.255849 
L 425.75554 46.978245 
L 425.633627 46.688876 
L 425.511715 46.393821 
L 425.389803 46.100396 
L 425.26789 45.816883 
L 425.145978 45.552091 
L 425.024066 45.314725 
L 424.902153 45.112611 
L 424.780241 44.951807 
L 424.658329 44.83567 
L 424.536416 44.763966 
L 424.414504 44.732133 
L 424.292592 44.73079 
L 424.170679 44.745631 
L 424.048767 44.757767 
L 423.926855 44.744621 
L 423.804942 44.681375 
L 423.68303 44.542956 
L 423.561118 44.306435 
L 423.439206 43.953681 
L 423.317293 43.473988 
L 423.195381 42.866376 
L 423.073469 42.14122 
L 422.951556 41.320899 
L 422.829644 40.439217 
L 422.707732 39.539499 
L 422.585819 38.671407 
L 422.463907 37.886756 
L 422.341995 37.234722 
L 422.220082 36.757039 
L 422.09817 36.483751 
L 421.976258 36.430125 
L 421.854345 36.595118 
L 421.732433 36.961636 
L 421.610521 37.498539 
L 421.488608 38.164113 
L 421.366696 38.910539 
L 421.244784 39.688735 
L 421.122871 40.45299 
L 421.000959 41.164814 
L 420.879047 41.79564 
L 420.757134 42.32817 
L 420.635222 42.756368 
L 420.51331 43.084287 
L 420.391398 43.324035 
L 420.269485 43.49324 
L 420.147573 43.612395 
L 420.025661 43.702403 
L 419.903748 43.782548 
L 419.781836 43.869053 
L 419.659924 43.97424 
L 419.538011 44.106269 
L 419.416099 44.269332 
L 419.294187 44.464187 
L 419.172274 44.688861 
L 419.050362 44.939414 
L 418.92845 45.210657 
L 418.806537 45.496758 
L 418.684625 45.791716 
L 418.562713 46.089693 
L 418.4408 46.385249 
L 418.318888 46.673487 
L 418.196976 46.950151 
L 418.075063 47.211701 
L 417.953151 47.455362 
L 417.831239 47.679173 
L 417.709326 47.881993 
L 417.587414 48.063493 
L 417.465502 48.224094 
L 417.343589 48.364863 
L 417.221677 48.48738 
L 417.099765 48.593562 
L 416.977853 48.685491 
z
" style="fill:#ff0000;fill-opacity:0.75;"/>
   </g>
   <g id="LineCollection_1">
    <path clip-path="url(#p51d7ab51fe)" d="M 422.084551 312.25558 
L 422.084551 299.426489 
" style="fill:none;stroke:#000000;stroke-width:1.5;"/>
    <path clip-path="url(#p51d7ab51fe)" d="M 422.084551 260.939216 
L 422.084551 248.110125 
" style="fill:none;stroke:#000000;stroke-width:1.5;"/>
    <path clip-path="url(#p51d7ab51fe)" d="M 416.775098 209.622852 
L 416.775098 196.793761 
" style="fill:none;stroke:#000000;stroke-width:1.5;"/>
    <path clip-path="url(#p51d7ab51fe)" d="M 422.13884 158.306489 
L 422.13884 145.477398 
" style="fill:none;stroke:#000000;stroke-width:1.5;"/>
    <path clip-path="url(#p51d7ab51fe)" d="M 431.451602 106.990125 
L 431.451602 94.161034 
" style="fill:none;stroke:#000000;stroke-width:1.5;"/>
    <path clip-path="url(#p51d7ab51fe)" d="M 422.024657 55.673761 
L 422.024657 42.84467 
" style="fill:none;stroke:#000000;stroke-width:1.5;"/>
   </g>
   <g id="patch_3">
    <path d="M 226.746875 332.782125 
L 226.746875 22.318125 
" style="fill:none;stroke:#000000;stroke-linecap:square;stroke-linejoin:miter;stroke-width:0.8;"/>
   </g>
   <g id="patch_4">
    <path d="M 617.346875 332.782125 
L 617.346875 22.318125 
" style="fill:none;stroke:#000000;stroke-linecap:square;stroke-linejoin:miter;stroke-width:0.8;"/>
   </g>
   <g id="patch_5">
    <path d="M 226.746875 332.782125 
L 617.346875 332.782125 
" style="fill:none;stroke:#000000;stroke-linecap:square;stroke-linejoin:miter;stroke-width:0.8;"/>
   </g>
   <g id="patch_6">
    <path d="M 226.746875 22.318125 
L 617.346875 22.318125 
" style="fill:none;stroke:#000000;stroke-linecap:square;stroke-linejoin:miter;stroke-width:0.8;"/>
   </g>
   <g id="text_14">
    <!-- OE2 for 1.0 -->
    <g transform="translate(388.109375 16.318125)scale(0.12 -0.12)">
     <use xlink:href="#DejaVuSans-4f"/>
     <use x="78.710938" xlink:href="#DejaVuSans-45"/>
     <use x="141.894531" xlink:href="#DejaVuSans-32"/>
     <use x="205.517578" xlink:href="#DejaVuSans-20"/>
     <use x="237.304688" xlink:href="#DejaVuSans-66"/>
     <use x="272.509766" xlink:href="#DejaVuSans-6f"/>
     <use x="333.691406" xlink:href="#DejaVuSans-72"/>
     <use x="374.804688" xlink:href="#DejaVuSans-20"/>
     <use x="406.591797" xlink:href="#DejaVuSans-31"/>
     <use x="470.214844" xlink:href="#DejaVuSans-2e"/>
     <use x="502.001953" xlink:href="#DejaVuSans-30"/>
    </g>
   </g>
  </g>
 </g>
 <defs>
  <clipPath id="p51d7ab51fe">
   <rect height="310.464" width="390.6" x="226.746875" y="22.318125"/>
  </clipPath>
 </defs>
</svg>
