<?xml version='1.0' encoding='utf-8'?>
<svg xmlns:xlink="http://www.w3.org/1999/xlink" xmlns="http://www.w3.org/2000/svg" id="chart-f88fd1f4-fe57-47d6-b10c-1d3df6922e23" class="pygal-chart" viewBox="0 0 800 600"><!--Generated with pygal 2.4.0 (lxml) ©Kozea 2012-2016 on 2019-10-13--><!--http://pygal.org--><!--http://github.com/Kozea/pygal--><defs><style type="text/css">#chart-f88fd1f4-fe57-47d6-b10c-1d3df6922e23{-webkit-user-select:none;-webkit-font-smoothing:antialiased;font-family:Helvetica,Arial,sans-serif}#chart-f88fd1f4-fe57-47d6-b10c-1d3df6922e23 .title{font-family:Helvetica,Arial,sans-serif;font-size:18px}#chart-f88fd1f4-fe57-47d6-b10c-1d3df6922e23 .legends .legend text{font-family:Helvetica,Arial,sans-serif;font-size:15px}#chart-f88fd1f4-fe57-47d6-b10c-1d3df6922e23 .axis text{font-family:Helvetica,Arial,sans-serif;font-size:15px}#chart-f88fd1f4-fe57-47d6-b10c-1d3df6922e23 .axis text.major{font-family:Helvetica,Arial,sans-serif;font-size:15px}#chart-f88fd1f4-fe57-47d6-b10c-1d3df6922e23 .text-overlay text.value{font-family:Helvetica,Arial,sans-serif;font-size:15px}#chart-f88fd1f4-fe57-47d6-b10c-1d3df6922e23 .text-overlay text.label{font-family:Helvetica,Arial,sans-serif;font-size:15px}#chart-f88fd1f4-fe57-47d6-b10c-1d3df6922e23 .tooltip{font-family:Helvetica,Arial,sans-serif;font-size:14px}#chart-f88fd1f4-fe57-47d6-b10c-1d3df6922e23 text.no_data{font-family:Helvetica,Arial,sans-serif;font-size:64px}
#chart-f88fd1f4-fe57-47d6-b10c-1d3df6922e23{background-color:transparent}#chart-f88fd1f4-fe57-47d6-b10c-1d3df6922e23 path,#chart-f88fd1f4-fe57-47d6-b10c-1d3df6922e23 line,#chart-f88fd1f4-fe57-47d6-b10c-1d3df6922e23 rect,#chart-f88fd1f4-fe57-47d6-b10c-1d3df6922e23 circle{-webkit-transition:150ms;-moz-transition:150ms;transition:150ms}#chart-f88fd1f4-fe57-47d6-b10c-1d3df6922e23 .graph &gt; .background{fill:transparent}#chart-f88fd1f4-fe57-47d6-b10c-1d3df6922e23 .plot &gt; .background{fill:white}#chart-f88fd1f4-fe57-47d6-b10c-1d3df6922e23 .graph{fill:rgba(0,0,0,.87)}#chart-f88fd1f4-fe57-47d6-b10c-1d3df6922e23 text.no_data{fill:rgba(0,0,0,1)}#chart-f88fd1f4-fe57-47d6-b10c-1d3df6922e23 .title{fill:rgba(0,0,0,1)}#chart-f88fd1f4-fe57-47d6-b10c-1d3df6922e23 .legends .legend text{fill:rgba(0,0,0,.87)}#chart-f88fd1f4-fe57-47d6-b10c-1d3df6922e23 .legends .legend:hover text{fill:rgba(0,0,0,1)}#chart-f88fd1f4-fe57-47d6-b10c-1d3df6922e23 .axis .line{stroke:rgba(0,0,0,1)}#chart-f88fd1f4-fe57-47d6-b10c-1d3df6922e23 .axis .guide.line{stroke:rgba(0,0,0,.54)}#chart-f88fd1f4-fe57-47d6-b10c-1d3df6922e23 .axis .major.line{stroke:rgba(0,0,0,.87)}#chart-f88fd1f4-fe57-47d6-b10c-1d3df6922e23 .axis text.major{fill:rgba(0,0,0,1)}#chart-f88fd1f4-fe57-47d6-b10c-1d3df6922e23 .axis.y .guides:hover .guide.line,#chart-f88fd1f4-fe57-47d6-b10c-1d3df6922e23 .line-graph .axis.x .guides:hover .guide.line,#chart-f88fd1f4-fe57-47d6-b10c-1d3df6922e23 .stackedline-graph .axis.x .guides:hover .guide.line,#chart-f88fd1f4-fe57-47d6-b10c-1d3df6922e23 .xy-graph .axis.x .guides:hover .guide.line{stroke:rgba(0,0,0,1)}#chart-f88fd1f4-fe57-47d6-b10c-1d3df6922e23 .axis .guides:hover text{fill:rgba(0,0,0,1)}#chart-f88fd1f4-fe57-47d6-b10c-1d3df6922e23 .reactive{fill-opacity:.7;stroke-opacity:.8}#chart-f88fd1f4-fe57-47d6-b10c-1d3df6922e23 .ci{stroke:rgba(0,0,0,.87)}#chart-f88fd1f4-fe57-47d6-b10c-1d3df6922e23 .reactive.active,#chart-f88fd1f4-fe57-47d6-b10c-1d3df6922e23 .active .reactive{fill-opacity:.8;stroke-opacity:.9;stroke-width:4}#chart-f88fd1f4-fe57-47d6-b10c-1d3df6922e23 .ci .reactive.active{stroke-width:1.5}#chart-f88fd1f4-fe57-47d6-b10c-1d3df6922e23 .series text{fill:rgba(0,0,0,1)}#chart-f88fd1f4-fe57-47d6-b10c-1d3df6922e23 .tooltip rect{fill:white;stroke:rgba(0,0,0,1);-webkit-transition:opacity 150ms;-moz-transition:opacity 150ms;transition:opacity 150ms}#chart-f88fd1f4-fe57-47d6-b10c-1d3df6922e23 .tooltip .label{fill:rgba(0,0,0,.87)}#chart-f88fd1f4-fe57-47d6-b10c-1d3df6922e23 .tooltip .label{fill:rgba(0,0,0,.87)}#chart-f88fd1f4-fe57-47d6-b10c-1d3df6922e23 .tooltip .legend{font-size:.8em;fill:rgba(0,0,0,.54)}#chart-f88fd1f4-fe57-47d6-b10c-1d3df6922e23 .tooltip .x_label{font-size:.6em;fill:rgba(0,0,0,1)}#chart-f88fd1f4-fe57-47d6-b10c-1d3df6922e23 .tooltip .xlink{font-size:.5em;text-decoration:underline}#chart-f88fd1f4-fe57-47d6-b10c-1d3df6922e23 .tooltip .value{font-size:1.5em}#chart-f88fd1f4-fe57-47d6-b10c-1d3df6922e23 .bound{font-size:.5em}#chart-f88fd1f4-fe57-47d6-b10c-1d3df6922e23 .max-value{font-size:.75em;fill:rgba(0,0,0,.54)}#chart-f88fd1f4-fe57-47d6-b10c-1d3df6922e23 .map-element{fill:white;stroke:rgba(0,0,0,.54) !important}#chart-f88fd1f4-fe57-47d6-b10c-1d3df6922e23 .map-element .reactive{fill-opacity:inherit;stroke-opacity:inherit}#chart-f88fd1f4-fe57-47d6-b10c-1d3df6922e23 .color-0,#chart-f88fd1f4-fe57-47d6-b10c-1d3df6922e23 .color-0 a:visited{stroke:#F44336;fill:#F44336}#chart-f88fd1f4-fe57-47d6-b10c-1d3df6922e23 .color-1,#chart-f88fd1f4-fe57-47d6-b10c-1d3df6922e23 .color-1 a:visited{stroke:#3F51B5;fill:#3F51B5}#chart-f88fd1f4-fe57-47d6-b10c-1d3df6922e23 .color-2,#chart-f88fd1f4-fe57-47d6-b10c-1d3df6922e23 .color-2 a:visited{stroke:#009688;fill:#009688}#chart-f88fd1f4-fe57-47d6-b10c-1d3df6922e23 .color-3,#chart-f88fd1f4-fe57-47d6-b10c-1d3df6922e23 .color-3 a:visited{stroke:#FFC107;fill:#FFC107}#chart-f88fd1f4-fe57-47d6-b10c-1d3df6922e23 .color-4,#chart-f88fd1f4-fe57-47d6-b10c-1d3df6922e23 .color-4 a:visited{stroke:#FF5722;fill:#FF5722}#chart-f88fd1f4-fe57-47d6-b10c-1d3df6922e23 .color-5,#chart-f88fd1f4-fe57-47d6-b10c-1d3df6922e23 .color-5 a:visited{stroke:#9C27B0;fill:#9C27B0}#chart-f88fd1f4-fe57-47d6-b10c-1d3df6922e23 .text-overlay .color-0 text{fill:black}#chart-f88fd1f4-fe57-47d6-b10c-1d3df6922e23 .text-overlay .color-1 text{fill:black}#chart-f88fd1f4-fe57-47d6-b10c-1d3df6922e23 .text-overlay .color-2 text{fill:black}#chart-f88fd1f4-fe57-47d6-b10c-1d3df6922e23 .text-overlay .color-3 text{fill:black}#chart-f88fd1f4-fe57-47d6-b10c-1d3df6922e23 .text-overlay .color-4 text{fill:black}#chart-f88fd1f4-fe57-47d6-b10c-1d3df6922e23 .text-overlay .color-5 text{fill:black}
#chart-f88fd1f4-fe57-47d6-b10c-1d3df6922e23 text.no_data{text-anchor:middle}#chart-f88fd1f4-fe57-47d6-b10c-1d3df6922e23 .guide.line{fill:none}#chart-f88fd1f4-fe57-47d6-b10c-1d3df6922e23 .centered{text-anchor:middle}#chart-f88fd1f4-fe57-47d6-b10c-1d3df6922e23 .title{text-anchor:middle}#chart-f88fd1f4-fe57-47d6-b10c-1d3df6922e23 .legends .legend text{fill-opacity:1}#chart-f88fd1f4-fe57-47d6-b10c-1d3df6922e23 .axis.x text{text-anchor:middle}#chart-f88fd1f4-fe57-47d6-b10c-1d3df6922e23 .axis.x:not(.web) text[transform]{text-anchor:start}#chart-f88fd1f4-fe57-47d6-b10c-1d3df6922e23 .axis.x:not(.web) text[transform].backwards{text-anchor:end}#chart-f88fd1f4-fe57-47d6-b10c-1d3df6922e23 .axis.y text{text-anchor:end}#chart-f88fd1f4-fe57-47d6-b10c-1d3df6922e23 .axis.y text[transform].backwards{text-anchor:start}#chart-f88fd1f4-fe57-47d6-b10c-1d3df6922e23 .axis.y2 text{text-anchor:start}#chart-f88fd1f4-fe57-47d6-b10c-1d3df6922e23 .axis.y2 text[transform].backwards{text-anchor:end}#chart-f88fd1f4-fe57-47d6-b10c-1d3df6922e23 .axis .guide.line{stroke-dasharray:1}#chart-f88fd1f4-fe57-47d6-b10c-1d3df6922e23 .axis .major.guide.line{stroke-dasharray:1}#chart-f88fd1f4-fe57-47d6-b10c-1d3df6922e23 .horizontal .axis.y .guide.line,#chart-f88fd1f4-fe57-47d6-b10c-1d3df6922e23 .horizontal .axis.y2 .guide.line,#chart-f88fd1f4-fe57-47d6-b10c-1d3df6922e23 .vertical .axis.x .guide.line{opacity:0}#chart-f88fd1f4-fe57-47d6-b10c-1d3df6922e23 .horizontal .axis.always_show .guide.line,#chart-f88fd1f4-fe57-47d6-b10c-1d3df6922e23 .vertical .axis.always_show .guide.line{opacity:1 !important}#chart-f88fd1f4-fe57-47d6-b10c-1d3df6922e23 .axis.y .guides:hover .guide.line,#chart-f88fd1f4-fe57-47d6-b10c-1d3df6922e23 .axis.y2 .guides:hover .guide.line,#chart-f88fd1f4-fe57-47d6-b10c-1d3df6922e23 .axis.x .guides:hover .guide.line{opacity:1}#chart-f88fd1f4-fe57-47d6-b10c-1d3df6922e23 .axis .guides:hover text{opacity:1}#chart-f88fd1f4-fe57-47d6-b10c-1d3df6922e23 .nofill{fill:none}#chart-f88fd1f4-fe57-47d6-b10c-1d3df6922e23 .subtle-fill{fill-opacity:.2}#chart-f88fd1f4-fe57-47d6-b10c-1d3df6922e23 .dot{stroke-width:1px;fill-opacity:1}#chart-f88fd1f4-fe57-47d6-b10c-1d3df6922e23 .dot.active{stroke-width:5px}#chart-f88fd1f4-fe57-47d6-b10c-1d3df6922e23 .dot.negative{fill:transparent}#chart-f88fd1f4-fe57-47d6-b10c-1d3df6922e23 text,#chart-f88fd1f4-fe57-47d6-b10c-1d3df6922e23 tspan{stroke:none !important}#chart-f88fd1f4-fe57-47d6-b10c-1d3df6922e23 .series text.active{opacity:1}#chart-f88fd1f4-fe57-47d6-b10c-1d3df6922e23 .tooltip rect{fill-opacity:.95;stroke-width:.5}#chart-f88fd1f4-fe57-47d6-b10c-1d3df6922e23 .tooltip text{fill-opacity:1}#chart-f88fd1f4-fe57-47d6-b10c-1d3df6922e23 .showable{visibility:hidden}#chart-f88fd1f4-fe57-47d6-b10c-1d3df6922e23 .showable.shown{visibility:visible}#chart-f88fd1f4-fe57-47d6-b10c-1d3df6922e23 .gauge-background{fill:rgba(229,229,229,1);stroke:none}#chart-f88fd1f4-fe57-47d6-b10c-1d3df6922e23 .bg-lines{stroke:transparent;stroke-width:2px}</style><script type="text/javascript">window.pygal = window.pygal || {};window.pygal.config = window.pygal.config || {};window.pygal.config['f88fd1f4-fe57-47d6-b10c-1d3df6922e23'] = {"allow_interruptions": false, "box_mode": "extremes", "classes": ["pygal-chart"], "css": ["file://style.css", "file://graph.css"], "defs": [], "disable_xml_declaration": false, "dots_size": 2.5, "dynamic_print_values": false, "explicit_size": false, "fill": false, "force_uri_protocol": "https", "formatter": null, "half_pie": false, "height": 600, "include_x_axis": false, "inner_radius": 0, "interpolate": null, "interpolation_parameters": {}, "interpolation_precision": 250, "inverse_y_axis": false, "js": ["//kozea.github.io/pygal.js/2.0.x/pygal-tooltips.min.js"], "legend_at_bottom": true, "legend_at_bottom_columns": 2, "legend_box_size": 12, "logarithmic": false, "margin": 20, "margin_bottom": 65, "margin_left": null, "margin_right": null, "margin_top": null, "max_scale": 16, "min_scale": 4, "missing_value_fill_truncation": "x", "no_data_text": "No data", "no_prefix": false, "order_min": null, "pretty_print": false, "print_labels": false, "print_values": false, "print_values_position": "center", "print_zeroes": true, "range": [0.0, 2.0], "rounded_bars": null, "secondary_range": null, "show_dots": true, "show_legend": true, "show_minor_x_labels": false, "show_minor_y_labels": true, "show_only_major_dots": true, "show_x_guides": true, "show_x_labels": true, "show_y_guides": true, "show_y_labels": true, "spacing": 10, "stack_from_top": false, "strict": false, "stroke": true, "stroke_style": null, "style": {"background": "transparent", "ci_colors": [], "colors": ["#F44336", "#3F51B5", "#009688", "#FFC107", "#FF5722", "#9C27B0", "#03A9F4", "#8BC34A", "#FF9800", "#E91E63", "#2196F3", "#4CAF50", "#FFEB3B", "#673AB7", "#00BCD4", "#CDDC39", "#9E9E9E", "#607D8B"], "font_family": "Helvetica, Arial, sans-serif", "foreground": "rgba(0, 0, 0, .87)", "foreground_strong": "rgba(0, 0, 0, 1)", "foreground_subtle": "rgba(0, 0, 0, .54)", "guide_stroke_dasharray": 1, "label_font_family": "Helvetica, Arial, sans-serif", "label_font_size": 15, "legend_font_family": "Helvetica, Arial, sans-serif", "legend_font_size": 15, "major_guide_stroke_dasharray": 1, "major_label_font_family": "Helvetica, Arial, sans-serif", "major_label_font_size": 15, "no_data_font_family": "Helvetica, Arial, sans-serif", "no_data_font_size": 64, "opacity": ".7", "opacity_hover": ".8", "plot_background": "white", "stroke_opacity": ".8", "stroke_opacity_hover": ".9", "title_font_family": "Helvetica, Arial, sans-serif", "title_font_size": 18, "tooltip_font_family": "Helvetica, Arial, sans-serif", "tooltip_font_size": 14, "transition": "150ms", "value_background": "rgba(229, 229, 229, 1)", "value_colors": [], "value_font_family": "Helvetica, Arial, sans-serif", "value_font_size": 15, "value_label_font_family": "Helvetica, Arial, sans-serif", "value_label_font_size": 15}, "title": "Mean AOE1 for Tempo T \u00b110.0 BPM", "tooltip_border_radius": 0, "tooltip_fancy_mode": true, "truncate_label": null, "truncate_legend": -1, "width": 800, "x_label_rotation": 90, "x_labels": ["0.0", "1.0", "2.0", "3.0", "4.0", "5.0", "6.0", "7.0", "8.0", "9.0", "10.0", "11.0", "12.0", "13.0", "14.0", "15.0", "16.0", "17.0", "18.0", "19.0", "20.0", "21.0", "22.0", "23.0", "24.0", "25.0", "26.0", "27.0", "28.0", "29.0", "30.0", "31.0", "32.0", "33.0", "34.0", "35.0", "36.0", "37.0", "38.0", "39.0", "40.0", "41.0", "42.0", "43.0", "44.0", "45.0", "46.0", "47.0", "48.0", "49.0", "50.0", "51.0", "52.0", "53.0", "54.0", "55.0", "56.0", "57.0", "58.0", "59.0", "60.0", "61.0", "62.0", "63.0", "64.0", "65.0", "66.0", "67.0", "68.0", "69.0", "70.0", "71.0", "72.0", "73.0", "74.0", "75.0", "76.0", "77.0", "78.0", "79.0", "80.0", "81.0", "82.0", "83.0", "84.0", "85.0", "86.0", "87.0", "88.0", "89.0", "90.0", "91.0", "92.0", "93.0", "94.0", "95.0", "96.0", "97.0", "98.0", "99.0", "100.0", "101.0", "102.0", "103.0", "104.0", "105.0", "106.0", "107.0", "108.0", "109.0", "110.0", "111.0", "112.0", "113.0", "114.0", "115.0", "116.0", "117.0", "118.0", "119.0", "120.0", "121.0", "122.0", "123.0", "124.0", "125.0", "126.0", "127.0", "128.0", "129.0", "130.0", "131.0", "132.0", "133.0", "134.0", "135.0", "136.0", "137.0", "138.0", "139.0", "140.0", "141.0", "142.0", "143.0", "144.0", "145.0", "146.0", "147.0", "148.0", "149.0", "150.0", "151.0", "152.0", "153.0", "154.0", "155.0", "156.0", "157.0", "158.0", "159.0", "160.0", "161.0", "162.0", "163.0", "164.0", "165.0", "166.0", "167.0", "168.0", "169.0", "170.0", "171.0", "172.0", "173.0", "174.0", "175.0", "176.0", "177.0", "178.0", "179.0", "180.0", "181.0", "182.0", "183.0", "184.0", "185.0", "186.0", "187.0", "188.0", "189.0", "190.0", "191.0", "192.0", "193.0", "194.0", "195.0", "196.0", "197.0", "198.0", "199.0", "200.0", "201.0", "202.0", "203.0", "204.0", "205.0", "206.0", "207.0", "208.0", "209.0", "210.0", "211.0", "212.0", "213.0", "214.0", "215.0", "216.0", "217.0", "218.0", "219.0", "220.0", "221.0", "222.0", "223.0", "224.0", "225.0", "226.0", "227.0", "228.0", "229.0", "230.0", "231.0", "232.0", "233.0", "234.0", "235.0", "236.0", "237.0", "238.0", "239.0", "240.0", "241.0", "242.0", "243.0", "244.0", "245.0", "246.0", "247.0", "248.0", "249.0", "250.0", "251.0", "252.0", "253.0", "254.0", "255.0", "256.0", "257.0", "258.0", "259.0", "260.0", "261.0", "262.0", "263.0", "264.0", "265.0", "266.0", "267.0", "268.0", "269.0", "270.0", "271.0", "272.0", "273.0", "274.0", "275.0", "276.0", "277.0", "278.0", "279.0", "280.0", "281.0", "282.0", "283.0", "284.0", "285.0", "286.0", "287.0", "288.0", "289.0", "290.0", "291.0", "292.0", "293.0", "294.0", "295.0", "296.0", "297.0", "298.0", "299.0", "300.0"], "x_labels_major": null, "x_labels_major_count": 11, "x_labels_major_every": null, "x_title": "T (BPM)", "xrange": null, "y_label_rotation": 0, "y_labels": null, "y_labels_major": null, "y_labels_major_count": null, "y_labels_major_every": null, "y_title": "Mean AOE1 (TO)", "zero": 0, "legends": ["boeck2015/tempodetector2016_default", "davies2009/mirex_qm_tempotracker", "percival2014/stem", "schreiber2014/default", "schreiber2017/ismir2017", "schreiber2017/mirex2017"]}</script><script type="text/javascript" xlink:href="https://kozea.github.io/pygal.js/2.0.x/pygal-tooltips.min.js"/></defs><title>Mean AOE1 for Tempo T ±10.0 BPM</title><g class="graph line-graph vertical"><rect class="background" height="600" width="800" x="0" y="0"/><g class="plot" transform="translate(112, 48)"><rect class="background" height="334.0" width="668.0" x="0" y="0"/><g class="axis y always_show"><g class="guides"><path class="major line" d="M0.000000 327.576923 h668.000000"/><text class="major" x="-5" y="332.8269230769231">0.0000</text><title>0.0000</title></g><g class="guides"><path class="guide line" d="M0.000000 295.461538 h668.000000"/><text class="" x="-5" y="300.71153846153845">0.2000</text><title>0.2000</title></g><g class="guides"><path class="guide line" d="M0.000000 263.346154 h668.000000"/><text class="" x="-5" y="268.5961538461538">0.4000</text><title>0.4000</title></g><g class="guides"><path class="guide line" d="M0.000000 231.230769 h668.000000"/><text class="" x="-5" y="236.48076923076923">0.6000</text><title>0.6000</title></g><g class="guides"><path class="guide line" d="M0.000000 199.115385 h668.000000"/><text class="" x="-5" y="204.3653846153846">0.8000</text><title>0.8000</title></g><g class="guides"><path class="major guide line" d="M0.000000 167.000000 h668.000000"/><text class="major" x="-5" y="172.25">1.0000</text><title>1.0000</title></g><g class="guides"><path class="guide line" d="M0.000000 134.884615 h668.000000"/><text class="" x="-5" y="140.1346153846154">1.2000</text><title>1.2000</title></g><g class="guides"><path class="guide line" d="M0.000000 102.769231 h668.000000"/><text class="" x="-5" y="108.01923076923077">1.4000</text><title>1.4000</title></g><g class="guides"><path class="guide line" d="M0.000000 70.653846 h668.000000"/><text class="" x="-5" y="75.90384615384619">1.6000</text><title>1.6000</title></g><g class="guides"><path class="guide line" d="M0.000000 38.538462 h668.000000"/><text class="" x="-5" y="43.78846153846155">1.8000</text><title>1.8000</title></g><g class="guides"><path class="major guide line" d="M0.000000 6.423077 h668.000000"/><text class="major" x="-5" y="11.673076923076906">2.0000</text><title>2.0000</title></g></g><g class="axis x always_show"><g class="guides"><path class="major line" d="M12.846154 0.000000 v334.000000"/><text class="major" x="12.846153846153845" y="351.5" transform="rotate(90 12.846154 351.500000)">0.0</text></g><g class="guides"><path class="major guide line" d="M77.076923 0.000000 v334.000000"/><text class="major" x="77.07692307692308" y="351.5" transform="rotate(90 77.076923 351.500000)">30.0</text></g><g class="guides"><path class="major guide line" d="M141.307692 0.000000 v334.000000"/><text class="major" x="141.30769230769232" y="351.5" transform="rotate(90 141.307692 351.500000)">60.0</text></g><g class="guides"><path class="major guide line" d="M205.538462 0.000000 v334.000000"/><text class="major" x="205.53846153846152" y="351.5" transform="rotate(90 205.538462 351.500000)">90.0</text></g><g class="guides"><path class="major guide line" d="M269.769231 0.000000 v334.000000"/><text class="major" x="269.7692307692308" y="351.5" transform="rotate(90 269.769231 351.500000)">120.0</text></g><g class="guides"><path class="major guide line" d="M334.000000 0.000000 v334.000000"/><text class="major" x="334.0" y="351.5" transform="rotate(90 334.000000 351.500000)">150.0</text></g><g class="guides"><path class="major guide line" d="M398.230769 0.000000 v334.000000"/><text class="major" x="398.2307692307692" y="351.5" transform="rotate(90 398.230769 351.500000)">180.0</text></g><g class="guides"><path class="major guide line" d="M462.461538 0.000000 v334.000000"/><text class="major" x="462.46153846153845" y="351.5" transform="rotate(90 462.461538 351.500000)">210.0</text></g><g class="guides"><path class="major guide line" d="M526.692308 0.000000 v334.000000"/><text class="major" x="526.6923076923076" y="351.5" transform="rotate(90 526.692308 351.500000)">240.0</text></g><g class="guides"><path class="major guide line" d="M590.923077 0.000000 v334.000000"/><text class="major" x="590.9230769230769" y="351.5" transform="rotate(90 590.923077 351.500000)">270.0</text></g><g class="guides"><path class="major guide line" d="M655.153846 0.000000 v334.000000"/><text class="major" x="655.1538461538462" y="351.5" transform="rotate(90 655.153846 351.500000)">300.0</text></g></g><g class="series serie-0 color-0"><path class="line reactive nofill" d="M12.846154 327.576923 L14.987179 327.576923 17.128205 327.576923 19.269231 327.576923 21.410256 327.576923 23.551282 327.576923 25.692308 327.576923 27.833333 327.576923 29.974359 327.576923 32.115385 327.576923 34.256410 327.576923 36.397436 327.576923 38.538462 327.576923 40.679487 327.576923 42.820513 327.576923 44.961538 327.576923 47.102564 327.576923 49.243590 327.576923 51.384615 327.576923 53.525641 327.576923 55.666667 327.576923 57.807692 327.576923 59.948718 327.576923 62.089744 327.576923 64.230769 327.576923 66.371795 327.576923 68.512821 327.576923 70.653846 327.576923 72.794872 327.576923 74.935897 327.576923 77.076923 327.576923 79.217949 327.576923 81.358974 327.576923 83.500000 327.576923 85.641026 327.576923 87.782051 327.576923 89.923077 327.576923 92.064103 327.576923 94.205128 327.576923 96.346154 327.576923 98.487179 327.576923 100.628205 327.576923 102.769231 327.576923 104.910256 327.576923 107.051282 327.576923 109.192308 327.576923 111.333333 327.576923 113.474359 327.576923 115.615385 327.576923 117.756410 327.576923 119.897436 327.576923 122.038462 327.576923 124.179487 327.576923 126.320513 327.576923 128.461538 327.576923 130.602564 327.576923 132.743590 327.576923 134.884615 327.576923 137.025641 327.576923 139.166667 327.576923 141.307692 326.910996 143.448718 326.798374 145.589744 326.798374 147.730769 326.798374 149.871795 326.798374 152.012821 327.057890 154.153846 327.057890 156.294872 327.057890 158.435897 327.057890 160.576923 327.057890 162.717949 327.187649 164.858974 327.187649 167.000000 327.187649 169.141026 327.187649 171.282051 327.187649 173.423077 327.187649 175.564103 327.187649 177.705128 327.187649 179.846154 327.187649 181.987179 327.187649 184.128205 327.279866 186.269231 327.576923 188.410256 327.576923 190.551282 327.576923 192.692308 327.576923 194.833333 327.576923 196.974359 327.576923 199.115385 327.576923 201.256410 327.576923 203.397436 327.576923 205.538462 327.576923 207.679487 327.576923 209.820513 327.576923 211.961538 327.576923 214.102564 327.244641 216.243590 327.244641 218.384615 327.244641 220.525641 327.244641 222.666667 327.244641 224.807692 327.244641 226.948718 327.244641 229.089744 327.244641 231.230769 327.244641 233.371795 327.244641 235.512821 327.244641 237.653846 327.052253 239.794872 326.932043 241.935897 326.932043 244.076923 326.932043 246.217949 326.932043 248.358974 327.116295 250.500000 326.932043 252.641026 326.932043 254.782051 326.932043 256.923077 327.020035 259.064103 327.020035 261.205128 327.020035 263.346154 327.020035 265.487179 327.020035 267.628205 327.020035 269.769231 326.789952 271.910256 326.789952 274.051282 326.789952 276.192308 326.789952 278.333333 326.789952 280.474359 326.852924 282.615385 326.953354 284.756410 326.953354 286.897436 326.953354 289.038462 326.953354 291.179487 326.953354 293.320513 326.329786 295.461538 326.329786 297.602564 326.329786 299.743590 326.329786 301.884615 326.329786 304.025641 326.329786 306.166667 326.329786 308.307692 326.329786 310.448718 326.329786 312.589744 327.576923 314.730769 327.576923 316.871795 327.576923 319.012821 327.576923 321.153846 327.576923 323.294872 327.576923 325.435897 327.576923 327.576923 327.576923 329.717949 327.576923 331.858974 327.576923 334.000000 327.576923 336.141026 327.576923 338.282051 327.576923 340.423077 327.576923 342.564103 327.576923 344.705128 327.576923 346.846154 327.576923 348.987179 327.576923 351.128205 327.576923 353.269231 327.576923 355.410256 327.576923 357.551282 327.576923 359.692308 327.576923 361.833333 327.576923 363.974359 327.576923 366.115385 327.576923 368.256410 327.576923 370.397436 327.576923 372.538462 327.576923 374.679487 327.576923 376.820513 327.576923 378.961538 165.258893 381.102564 165.258893 383.243590 165.258893 385.384615 165.258893 387.525641 165.258893 389.666667 165.258893 391.807692 165.258893 393.948718 165.258893 396.089744 165.258893 398.230769 165.258893 400.371795 165.258893 402.512821 165.258893 404.653846 165.258893 406.794872 165.258893 408.935897 165.258893 411.076923 165.258893 413.217949 165.258893 415.358974 165.258893 417.500000 165.258893 419.641026 166.129446 421.782051 167.000000 423.923077 167.000000 426.064103 167.000000 428.205128 167.000000 430.346154 167.000000 432.487179 167.000000 434.628205 167.000000 436.769231 167.000000 438.910256 167.000000 441.051282 167.000000 443.192308 167.000000 445.333333 167.000000 447.474359 167.000000 449.615385 167.000000 451.756410 167.000000 453.897436 167.000000 456.038462 167.000000 458.179487 167.000000 460.320513 167.000000 462.461538 327.576923 464.602564 327.576923 466.743590 327.576923 468.884615 327.576923 471.025641 327.576923 473.166667 327.576923 475.307692 327.576923 477.448718 327.576923 479.589744 327.576923 481.730769 327.576923 483.871795 327.576923 486.012821 327.576923 488.153846 327.576923 490.294872 327.576923 492.435897 327.576923 494.576923 327.576923 496.717949 327.576923 498.858974 327.576923 501.000000 327.576923 503.141026 327.576923 505.282051 327.576923 507.423077 327.576923 509.564103 327.576923 511.705128 327.576923 513.846154 327.576923 515.987179 327.576923 518.128205 327.576923 520.269231 327.576923 522.410256 327.576923 524.551282 327.576923 526.692308 327.576923 528.833333 327.576923 530.974359 327.576923 533.115385 327.576923 535.256410 327.576923 537.397436 327.576923 539.538462 327.576923 541.679487 327.576923 543.820513 327.576923 545.961538 327.576923 548.102564 327.576923 550.243590 327.576923 552.384615 327.576923 554.525641 327.576923 556.666667 327.576923 558.807692 327.576923 560.948718 327.576923 563.089744 327.576923 565.230769 327.576923 567.371795 327.576923 569.512821 327.576923 571.653846 327.576923 573.794872 327.576923 575.935897 327.576923 578.076923 327.576923 580.217949 327.576923 582.358974 327.576923 584.500000 327.576923 586.641026 327.576923 588.782051 327.576923 590.923077 327.576923 593.064103 327.576923 595.205128 327.576923 597.346154 327.576923 599.487179 327.576923 601.628205 327.576923 603.769231 327.576923 605.910256 327.576923 608.051282 327.576923 610.192308 327.576923 612.333333 327.576923 614.474359 327.576923 616.615385 327.576923 618.756410 327.576923 620.897436 327.576923 623.038462 327.576923 625.179487 327.576923 627.320513 327.576923 629.461538 327.576923 631.602564 327.576923 633.743590 327.576923 635.884615 327.576923 638.025641 327.576923 640.166667 327.576923 642.307692 327.576923 644.448718 327.576923 646.589744 327.576923 648.730769 327.576923 650.871795 327.576923 653.012821 327.576923 655.153846 327.576923"/></g><g class="series serie-1 color-1"><path class="line reactive nofill" d="M12.846154 327.576923 L14.987179 327.576923 17.128205 327.576923 19.269231 327.576923 21.410256 327.576923 23.551282 327.576923 25.692308 327.576923 27.833333 327.576923 29.974359 327.576923 32.115385 327.576923 34.256410 327.576923 36.397436 327.576923 38.538462 327.576923 40.679487 327.576923 42.820513 327.576923 44.961538 327.576923 47.102564 327.576923 49.243590 327.576923 51.384615 327.576923 53.525641 327.576923 55.666667 327.576923 57.807692 327.576923 59.948718 327.576923 62.089744 327.576923 64.230769 327.576923 66.371795 327.576923 68.512821 327.576923 70.653846 327.576923 72.794872 327.576923 74.935897 327.576923 77.076923 327.576923 79.217949 327.576923 81.358974 327.576923 83.500000 327.576923 85.641026 327.576923 87.782051 327.576923 89.923077 327.576923 92.064103 327.576923 94.205128 327.576923 96.346154 327.576923 98.487179 327.576923 100.628205 327.576923 102.769231 327.576923 104.910256 327.576923 107.051282 327.576923 109.192308 327.576923 111.333333 327.576923 113.474359 327.576923 115.615385 327.576923 117.756410 327.576923 119.897436 327.576923 122.038462 327.576923 124.179487 327.576923 126.320513 327.576923 128.461538 327.576923 130.602564 327.576923 132.743590 327.576923 134.884615 327.576923 137.025641 327.576923 139.166667 327.576923 141.307692 161.094342 143.448718 243.093370 145.589744 243.093370 147.730769 243.093370 149.871795 243.093370 152.012821 216.706609 154.153846 216.706609 156.294872 216.706609 158.435897 216.706609 160.576923 216.706609 162.717949 243.884114 164.858974 243.884114 167.000000 243.884114 169.141026 243.884114 171.282051 243.884114 173.423077 243.884114 175.564103 243.884114 177.705128 243.884114 179.846154 243.884114 181.987179 243.884114 184.128205 271.480705 186.269231 244.674859 188.410256 244.674859 190.551282 244.674859 192.692308 244.674859 194.833333 325.416629 196.974359 325.416629 199.115385 325.416629 201.256410 325.416629 203.397436 325.416629 205.538462 325.416629 207.679487 324.509249 209.820513 324.509249 211.961538 324.509249 214.102564 324.371507 216.243590 324.371507 218.384615 324.371507 220.525641 324.371507 222.666667 324.371507 224.807692 324.371507 226.948718 324.371507 229.089744 324.371507 231.230769 324.371507 233.371795 324.371507 235.512821 324.371507 237.653846 323.865589 239.794872 324.007548 241.935897 324.007548 244.076923 324.007548 246.217949 324.007548 248.358974 324.925406 250.500000 325.091869 252.641026 325.091869 254.782051 325.091869 256.923077 325.340830 259.064103 325.340830 261.205128 325.340830 263.346154 325.340830 265.487179 325.340830 267.628205 325.340830 269.769231 324.447567 271.910256 324.447567 274.051282 324.447567 276.192308 324.447567 278.333333 324.447567 280.474359 324.867514 282.615385 324.940545 284.756410 324.940545 286.897436 324.940545 289.038462 324.940545 291.179487 324.940545 293.320513 322.661041 295.461538 322.661041 297.602564 322.661041 299.743590 322.661041 301.884615 322.661041 304.025641 322.661041 306.166667 322.661041 308.307692 322.661041 310.448718 322.661041 312.589744 327.576923 314.730769 327.576923 316.871795 327.576923 319.012821 327.576923 321.153846 327.576923 323.294872 327.576923 325.435897 327.576923 327.576923 327.576923 329.717949 327.576923 331.858974 327.576923 334.000000 327.576923 336.141026 327.576923 338.282051 327.576923 340.423077 327.576923 342.564103 327.576923 344.705128 327.576923 346.846154 327.576923 348.987179 327.576923 351.128205 327.576923 353.269231 327.576923 355.410256 327.576923 357.551282 327.576923 359.692308 327.576923 361.833333 327.576923 363.974359 327.576923 366.115385 327.576923 368.256410 327.576923 370.397436 327.576923 372.538462 327.576923 374.679487 327.576923 376.820513 327.576923 378.961538 168.128370 381.102564 168.128370 383.243590 168.128370 385.384615 168.128370 387.525641 168.128370 389.666667 168.128370 391.807692 168.128370 393.948718 168.128370 396.089744 168.128370 398.230769 168.128370 400.371795 168.128370 402.512821 168.128370 404.653846 168.128370 406.794872 168.128370 408.935897 168.128370 411.076923 168.128370 413.217949 168.128370 415.358974 168.128370 417.500000 168.128370 419.641026 169.098022 421.782051 170.067674 423.923077 170.067674 426.064103 170.067674 428.205128 170.067674 430.346154 170.067674 432.487179 170.067674 434.628205 170.067674 436.769231 170.067674 438.910256 170.067674 441.051282 170.067674 443.192308 170.067674 445.333333 170.067674 447.474359 170.067674 449.615385 170.067674 451.756410 170.067674 453.897436 170.067674 456.038462 170.067674 458.179487 170.067674 460.320513 170.067674 462.461538 327.576923 464.602564 327.576923 466.743590 327.576923 468.884615 327.576923 471.025641 327.576923 473.166667 327.576923 475.307692 327.576923 477.448718 327.576923 479.589744 327.576923 481.730769 327.576923 483.871795 327.576923 486.012821 327.576923 488.153846 327.576923 490.294872 327.576923 492.435897 327.576923 494.576923 327.576923 496.717949 327.576923 498.858974 327.576923 501.000000 327.576923 503.141026 327.576923 505.282051 327.576923 507.423077 327.576923 509.564103 327.576923 511.705128 327.576923 513.846154 327.576923 515.987179 327.576923 518.128205 327.576923 520.269231 327.576923 522.410256 327.576923 524.551282 327.576923 526.692308 327.576923 528.833333 327.576923 530.974359 327.576923 533.115385 327.576923 535.256410 327.576923 537.397436 327.576923 539.538462 327.576923 541.679487 327.576923 543.820513 327.576923 545.961538 327.576923 548.102564 327.576923 550.243590 327.576923 552.384615 327.576923 554.525641 327.576923 556.666667 327.576923 558.807692 327.576923 560.948718 327.576923 563.089744 327.576923 565.230769 327.576923 567.371795 327.576923 569.512821 327.576923 571.653846 327.576923 573.794872 327.576923 575.935897 327.576923 578.076923 327.576923 580.217949 327.576923 582.358974 327.576923 584.500000 327.576923 586.641026 327.576923 588.782051 327.576923 590.923077 327.576923 593.064103 327.576923 595.205128 327.576923 597.346154 327.576923 599.487179 327.576923 601.628205 327.576923 603.769231 327.576923 605.910256 327.576923 608.051282 327.576923 610.192308 327.576923 612.333333 327.576923 614.474359 327.576923 616.615385 327.576923 618.756410 327.576923 620.897436 327.576923 623.038462 327.576923 625.179487 327.576923 627.320513 327.576923 629.461538 327.576923 631.602564 327.576923 633.743590 327.576923 635.884615 327.576923 638.025641 327.576923 640.166667 327.576923 642.307692 327.576923 644.448718 327.576923 646.589744 327.576923 648.730769 327.576923 650.871795 327.576923 653.012821 327.576923 655.153846 327.576923"/></g><g class="series serie-2 color-2"><path class="line reactive nofill" d="M12.846154 327.576923 L14.987179 327.576923 17.128205 327.576923 19.269231 327.576923 21.410256 327.576923 23.551282 327.576923 25.692308 327.576923 27.833333 327.576923 29.974359 327.576923 32.115385 327.576923 34.256410 327.576923 36.397436 327.576923 38.538462 327.576923 40.679487 327.576923 42.820513 327.576923 44.961538 327.576923 47.102564 327.576923 49.243590 327.576923 51.384615 327.576923 53.525641 327.576923 55.666667 327.576923 57.807692 327.576923 59.948718 327.576923 62.089744 327.576923 64.230769 327.576923 66.371795 327.576923 68.512821 327.576923 70.653846 327.576923 72.794872 327.576923 74.935897 327.576923 77.076923 327.576923 79.217949 327.576923 81.358974 327.576923 83.500000 327.576923 85.641026 327.576923 87.782051 327.576923 89.923077 327.576923 92.064103 327.576923 94.205128 327.576923 96.346154 327.576923 98.487179 327.576923 100.628205 327.576923 102.769231 327.576923 104.910256 327.576923 107.051282 327.576923 109.192308 327.576923 111.333333 327.576923 113.474359 327.576923 115.615385 327.576923 117.756410 327.576923 119.897436 327.576923 122.038462 327.576923 124.179487 327.576923 126.320513 327.576923 128.461538 327.576923 130.602564 327.576923 132.743590 327.576923 134.884615 327.576923 137.025641 327.576923 139.166667 327.576923 141.307692 327.234983 143.448718 327.347605 145.589744 327.347605 147.730769 327.347605 149.871795 327.347605 152.012821 327.319055 154.153846 327.319055 156.294872 327.319055 158.435897 327.319055 160.576923 327.319055 162.717949 327.294184 164.858974 327.294184 167.000000 327.294184 169.141026 327.294184 171.282051 327.294184 173.423077 327.294184 175.564103 327.294184 177.705128 327.294184 179.846154 327.294184 181.987179 327.294184 184.128205 327.313917 186.269231 327.240762 188.410256 327.240762 190.551282 327.240762 192.692308 327.240762 194.833333 327.219568 196.974359 327.219568 199.115385 327.219568 201.256410 327.219568 203.397436 327.219568 205.538462 327.219568 207.679487 327.261878 209.820513 327.261878 211.961538 327.261878 214.102564 327.354180 216.243590 327.354180 218.384615 327.354180 220.525641 327.354180 222.666667 327.354180 224.807692 327.354180 226.948718 327.354180 229.089744 327.354180 231.230769 327.354180 233.371795 327.354180 235.512821 327.354180 237.653846 327.404084 239.794872 327.362000 241.935897 327.362000 244.076923 327.362000 246.217949 327.362000 248.358974 327.333438 250.500000 327.362062 252.641026 327.362062 254.782051 327.362062 256.923077 327.317881 259.064103 327.317881 261.205128 327.317881 263.346154 327.317881 265.487179 327.317881 267.628205 327.317881 269.769231 327.236391 271.910256 327.236391 274.051282 327.236391 276.192308 327.236391 278.333333 327.236391 280.474359 327.172910 282.615385 327.167721 284.756410 327.167721 286.897436 327.167721 289.038462 327.167721 291.179487 327.167721 293.320513 327.073409 295.461538 327.073409 297.602564 327.073409 299.743590 327.073409 301.884615 327.073409 304.025641 327.073409 306.166667 327.073409 308.307692 327.073409 310.448718 327.073409 312.589744 327.576923 314.730769 327.576923 316.871795 327.576923 319.012821 327.576923 321.153846 327.576923 323.294872 327.576923 325.435897 327.576923 327.576923 327.576923 329.717949 327.576923 331.858974 327.576923 334.000000 327.576923 336.141026 327.576923 338.282051 327.576923 340.423077 327.576923 342.564103 327.576923 344.705128 327.576923 346.846154 327.576923 348.987179 327.576923 351.128205 327.576923 353.269231 327.576923 355.410256 327.576923 357.551282 327.576923 359.692308 327.576923 361.833333 327.576923 363.974359 327.576923 366.115385 327.576923 368.256410 327.576923 370.397436 327.576923 372.538462 327.576923 374.679487 327.576923 376.820513 327.576923 378.961538 166.105097 381.102564 166.105097 383.243590 166.105097 385.384615 166.105097 387.525641 166.105097 389.666667 166.105097 391.807692 166.105097 393.948718 166.105097 396.089744 166.105097 398.230769 166.105097 400.371795 166.105097 402.512821 166.105097 404.653846 166.105097 406.794872 166.105097 408.935897 166.105097 411.076923 166.105097 413.217949 166.105097 415.358974 166.105097 417.500000 166.105097 419.641026 166.395026 421.782051 166.684955 423.923077 166.684955 426.064103 166.684955 428.205128 166.684955 430.346154 166.684955 432.487179 166.684955 434.628205 166.684955 436.769231 166.684955 438.910256 166.684955 441.051282 166.684955 443.192308 166.684955 445.333333 166.684955 447.474359 166.684955 449.615385 166.684955 451.756410 166.684955 453.897436 166.684955 456.038462 166.684955 458.179487 166.684955 460.320513 166.684955 462.461538 327.576923 464.602564 327.576923 466.743590 327.576923 468.884615 327.576923 471.025641 327.576923 473.166667 327.576923 475.307692 327.576923 477.448718 327.576923 479.589744 327.576923 481.730769 327.576923 483.871795 327.576923 486.012821 327.576923 488.153846 327.576923 490.294872 327.576923 492.435897 327.576923 494.576923 327.576923 496.717949 327.576923 498.858974 327.576923 501.000000 327.576923 503.141026 327.576923 505.282051 327.576923 507.423077 327.576923 509.564103 327.576923 511.705128 327.576923 513.846154 327.576923 515.987179 327.576923 518.128205 327.576923 520.269231 327.576923 522.410256 327.576923 524.551282 327.576923 526.692308 327.576923 528.833333 327.576923 530.974359 327.576923 533.115385 327.576923 535.256410 327.576923 537.397436 327.576923 539.538462 327.576923 541.679487 327.576923 543.820513 327.576923 545.961538 327.576923 548.102564 327.576923 550.243590 327.576923 552.384615 327.576923 554.525641 327.576923 556.666667 327.576923 558.807692 327.576923 560.948718 327.576923 563.089744 327.576923 565.230769 327.576923 567.371795 327.576923 569.512821 327.576923 571.653846 327.576923 573.794872 327.576923 575.935897 327.576923 578.076923 327.576923 580.217949 327.576923 582.358974 327.576923 584.500000 327.576923 586.641026 327.576923 588.782051 327.576923 590.923077 327.576923 593.064103 327.576923 595.205128 327.576923 597.346154 327.576923 599.487179 327.576923 601.628205 327.576923 603.769231 327.576923 605.910256 327.576923 608.051282 327.576923 610.192308 327.576923 612.333333 327.576923 614.474359 327.576923 616.615385 327.576923 618.756410 327.576923 620.897436 327.576923 623.038462 327.576923 625.179487 327.576923 627.320513 327.576923 629.461538 327.576923 631.602564 327.576923 633.743590 327.576923 635.884615 327.576923 638.025641 327.576923 640.166667 327.576923 642.307692 327.576923 644.448718 327.576923 646.589744 327.576923 648.730769 327.576923 650.871795 327.576923 653.012821 327.576923 655.153846 327.576923"/></g><g class="series serie-3 color-3"><path class="line reactive nofill" d="M12.846154 327.576923 L14.987179 327.576923 17.128205 327.576923 19.269231 327.576923 21.410256 327.576923 23.551282 327.576923 25.692308 327.576923 27.833333 327.576923 29.974359 327.576923 32.115385 327.576923 34.256410 327.576923 36.397436 327.576923 38.538462 327.576923 40.679487 327.576923 42.820513 327.576923 44.961538 327.576923 47.102564 327.576923 49.243590 327.576923 51.384615 327.576923 53.525641 327.576923 55.666667 327.576923 57.807692 327.576923 59.948718 327.576923 62.089744 327.576923 64.230769 327.576923 66.371795 327.576923 68.512821 327.576923 70.653846 327.576923 72.794872 327.576923 74.935897 327.576923 77.076923 327.576923 79.217949 327.576923 81.358974 327.576923 83.500000 327.576923 85.641026 327.576923 87.782051 327.576923 89.923077 327.576923 92.064103 327.576923 94.205128 327.576923 96.346154 327.576923 98.487179 327.576923 100.628205 327.576923 102.769231 327.576923 104.910256 327.576923 107.051282 327.576923 109.192308 327.576923 111.333333 327.576923 113.474359 327.576923 115.615385 327.576923 117.756410 327.576923 119.897436 327.576923 122.038462 327.576923 124.179487 327.576923 126.320513 327.576923 128.461538 327.576923 130.602564 327.576923 132.743590 327.576923 134.884615 327.576923 137.025641 327.576923 139.166667 327.576923 141.307692 166.951354 143.448718 213.964482 145.589744 213.964482 147.730769 213.964482 149.871795 213.964482 152.012821 251.665469 154.153846 251.665469 156.294872 251.665469 158.435897 251.665469 160.576923 251.665469 162.717949 270.643065 164.858974 270.643065 167.000000 270.643065 169.141026 270.643065 171.282051 270.643065 173.423077 270.643065 175.564103 270.643065 177.705128 270.643065 179.846154 270.643065 181.987179 270.643065 184.128205 305.206969 186.269231 327.321648 188.410256 327.321648 190.551282 327.321648 192.692308 327.321648 194.833333 327.575852 196.974359 327.575852 199.115385 327.575852 201.256410 327.575852 203.397436 327.575852 205.538462 327.575852 207.679487 327.302759 209.820513 327.302759 211.961538 327.302759 214.102564 327.220061 216.243590 327.220061 218.384615 327.220061 220.525641 327.220061 222.666667 327.220061 224.807692 327.220061 226.948718 327.220061 229.089744 327.220061 231.230769 327.220061 233.371795 327.220061 235.512821 327.220061 237.653846 327.258125 239.794872 327.267812 241.935897 327.267812 244.076923 327.267812 246.217949 327.267812 248.358974 327.345255 250.500000 327.362253 252.641026 327.362253 254.782051 327.362253 256.923077 327.439150 259.064103 327.439150 261.205128 327.439150 263.346154 327.439150 265.487179 327.439150 267.628205 327.439150 269.769231 327.315227 271.910256 327.315227 274.051282 327.315227 276.192308 327.315227 278.333333 327.315227 280.474359 327.303809 282.615385 327.303122 284.756410 327.303122 286.897436 327.303122 289.038462 327.303122 291.179487 327.303122 293.320513 327.067381 295.461538 327.067381 297.602564 327.067381 299.743590 327.067381 301.884615 327.067381 304.025641 327.067381 306.166667 327.067381 308.307692 327.067381 310.448718 327.067381 312.589744 327.576923 314.730769 327.576923 316.871795 327.576923 319.012821 327.576923 321.153846 327.576923 323.294872 327.576923 325.435897 327.576923 327.576923 327.576923 329.717949 327.576923 331.858974 327.576923 334.000000 327.576923 336.141026 327.576923 338.282051 327.576923 340.423077 327.576923 342.564103 327.576923 344.705128 327.576923 346.846154 327.576923 348.987179 327.576923 351.128205 327.576923 353.269231 327.576923 355.410256 327.576923 357.551282 327.576923 359.692308 327.576923 361.833333 327.576923 363.974359 327.576923 366.115385 327.576923 368.256410 327.576923 370.397436 327.576923 372.538462 327.576923 374.679487 327.576923 376.820513 327.576923 378.961538 166.560703 381.102564 166.560703 383.243590 166.560703 385.384615 166.560703 387.525641 166.560703 389.666667 166.560703 391.807692 166.560703 393.948718 166.560703 396.089744 166.560703 398.230769 166.560703 400.371795 166.560703 402.512821 166.560703 404.653846 166.560703 406.794872 166.560703 408.935897 166.560703 411.076923 166.560703 413.217949 166.560703 415.358974 166.560703 417.500000 166.560703 419.641026 166.769475 421.782051 166.978246 423.923077 166.978246 426.064103 166.978246 428.205128 166.978246 430.346154 166.978246 432.487179 166.978246 434.628205 166.978246 436.769231 166.978246 438.910256 166.978246 441.051282 166.978246 443.192308 166.978246 445.333333 166.978246 447.474359 166.978246 449.615385 166.978246 451.756410 166.978246 453.897436 166.978246 456.038462 166.978246 458.179487 166.978246 460.320513 166.978246 462.461538 327.576923 464.602564 327.576923 466.743590 327.576923 468.884615 327.576923 471.025641 327.576923 473.166667 327.576923 475.307692 327.576923 477.448718 327.576923 479.589744 327.576923 481.730769 327.576923 483.871795 327.576923 486.012821 327.576923 488.153846 327.576923 490.294872 327.576923 492.435897 327.576923 494.576923 327.576923 496.717949 327.576923 498.858974 327.576923 501.000000 327.576923 503.141026 327.576923 505.282051 327.576923 507.423077 327.576923 509.564103 327.576923 511.705128 327.576923 513.846154 327.576923 515.987179 327.576923 518.128205 327.576923 520.269231 327.576923 522.410256 327.576923 524.551282 327.576923 526.692308 327.576923 528.833333 327.576923 530.974359 327.576923 533.115385 327.576923 535.256410 327.576923 537.397436 327.576923 539.538462 327.576923 541.679487 327.576923 543.820513 327.576923 545.961538 327.576923 548.102564 327.576923 550.243590 327.576923 552.384615 327.576923 554.525641 327.576923 556.666667 327.576923 558.807692 327.576923 560.948718 327.576923 563.089744 327.576923 565.230769 327.576923 567.371795 327.576923 569.512821 327.576923 571.653846 327.576923 573.794872 327.576923 575.935897 327.576923 578.076923 327.576923 580.217949 327.576923 582.358974 327.576923 584.500000 327.576923 586.641026 327.576923 588.782051 327.576923 590.923077 327.576923 593.064103 327.576923 595.205128 327.576923 597.346154 327.576923 599.487179 327.576923 601.628205 327.576923 603.769231 327.576923 605.910256 327.576923 608.051282 327.576923 610.192308 327.576923 612.333333 327.576923 614.474359 327.576923 616.615385 327.576923 618.756410 327.576923 620.897436 327.576923 623.038462 327.576923 625.179487 327.576923 627.320513 327.576923 629.461538 327.576923 631.602564 327.576923 633.743590 327.576923 635.884615 327.576923 638.025641 327.576923 640.166667 327.576923 642.307692 327.576923 644.448718 327.576923 646.589744 327.576923 648.730769 327.576923 650.871795 327.576923 653.012821 327.576923 655.153846 327.576923"/></g><g class="series serie-4 color-4"><path class="line reactive nofill" d="M12.846154 327.576923 L14.987179 327.576923 17.128205 327.576923 19.269231 327.576923 21.410256 327.576923 23.551282 327.576923 25.692308 327.576923 27.833333 327.576923 29.974359 327.576923 32.115385 327.576923 34.256410 327.576923 36.397436 327.576923 38.538462 327.576923 40.679487 327.576923 42.820513 327.576923 44.961538 327.576923 47.102564 327.576923 49.243590 327.576923 51.384615 327.576923 53.525641 327.576923 55.666667 327.576923 57.807692 327.576923 59.948718 327.576923 62.089744 327.576923 64.230769 327.576923 66.371795 327.576923 68.512821 327.576923 70.653846 327.576923 72.794872 327.576923 74.935897 327.576923 77.076923 327.576923 79.217949 327.576923 81.358974 327.576923 83.500000 327.576923 85.641026 327.576923 87.782051 327.576923 89.923077 327.576923 92.064103 327.576923 94.205128 327.576923 96.346154 327.576923 98.487179 327.576923 100.628205 327.576923 102.769231 327.576923 104.910256 327.576923 107.051282 327.576923 109.192308 327.576923 111.333333 327.576923 113.474359 327.576923 115.615385 327.576923 117.756410 327.576923 119.897436 327.576923 122.038462 327.576923 124.179487 327.576923 126.320513 327.576923 128.461538 327.576923 130.602564 327.576923 132.743590 327.576923 134.884615 327.576923 137.025641 327.576923 139.166667 327.576923 141.307692 327.397827 143.448718 280.498570 145.589744 280.498570 147.730769 280.498570 149.871795 280.498570 152.012821 296.184106 154.153846 296.184106 156.294872 296.184106 158.435897 296.184106 160.576923 296.184106 162.717949 304.032042 164.858974 304.032042 167.000000 304.032042 169.141026 304.032042 171.282051 304.032042 173.423077 304.032042 175.564103 304.032042 177.705128 304.032042 179.846154 304.032042 181.987179 304.032042 184.128205 296.243447 186.269231 327.565514 188.410256 327.565514 190.551282 327.565514 192.692308 327.565514 194.833333 327.575852 196.974359 327.575852 199.115385 327.575852 201.256410 327.575852 203.397436 327.575852 205.538462 327.575852 207.679487 327.555169 209.820513 327.555169 211.961538 327.555169 214.102564 327.476095 216.243590 327.476095 218.384615 327.476095 220.525641 327.476095 222.666667 327.476095 224.807692 327.476095 226.948718 327.476095 229.089744 327.476095 231.230769 327.476095 233.371795 327.476095 235.512821 327.476095 237.653846 327.410432 239.794872 327.421142 241.935897 327.421142 244.076923 327.421142 246.217949 327.421142 248.358974 327.455082 250.500000 327.415047 252.641026 327.415047 254.782051 327.415047 256.923077 327.439322 259.064103 327.439322 261.205128 327.439322 263.346154 327.439322 265.487179 327.439322 267.628205 327.439322 269.769231 327.327051 271.910256 327.327051 274.051282 327.327051 276.192308 327.327051 278.333333 327.327051 280.474359 327.349773 282.615385 327.321220 284.756410 327.321220 286.897436 327.321220 289.038462 327.321220 291.179487 327.321220 293.320513 327.102509 295.461538 327.102509 297.602564 327.102509 299.743590 327.102509 301.884615 327.102509 304.025641 327.102509 306.166667 327.102509 308.307692 327.102509 310.448718 327.102509 312.589744 327.576923 314.730769 327.576923 316.871795 327.576923 319.012821 327.576923 321.153846 327.576923 323.294872 327.576923 325.435897 327.576923 327.576923 327.576923 329.717949 327.576923 331.858974 327.576923 334.000000 327.576923 336.141026 327.576923 338.282051 327.576923 340.423077 327.576923 342.564103 327.576923 344.705128 327.576923 346.846154 327.576923 348.987179 327.576923 351.128205 327.576923 353.269231 327.576923 355.410256 327.576923 357.551282 327.576923 359.692308 327.576923 361.833333 327.576923 363.974359 327.576923 366.115385 327.576923 368.256410 327.576923 370.397436 327.576923 372.538462 327.576923 374.679487 327.576923 376.820513 327.576923 378.961538 166.357764 381.102564 166.357764 383.243590 166.357764 385.384615 166.357764 387.525641 166.357764 389.666667 166.357764 391.807692 166.357764 393.948718 166.357764 396.089744 166.357764 398.230769 166.357764 400.371795 166.357764 402.512821 166.357764 404.653846 166.357764 406.794872 166.357764 408.935897 166.357764 411.076923 166.357764 413.217949 166.357764 415.358974 166.357764 417.500000 166.357764 419.641026 166.668005 421.782051 166.978246 423.923077 166.978246 426.064103 166.978246 428.205128 166.978246 430.346154 166.978246 432.487179 166.978246 434.628205 166.978246 436.769231 166.978246 438.910256 166.978246 441.051282 166.978246 443.192308 166.978246 445.333333 166.978246 447.474359 166.978246 449.615385 166.978246 451.756410 166.978246 453.897436 166.978246 456.038462 166.978246 458.179487 166.978246 460.320513 166.978246 462.461538 327.576923 464.602564 327.576923 466.743590 327.576923 468.884615 327.576923 471.025641 327.576923 473.166667 327.576923 475.307692 327.576923 477.448718 327.576923 479.589744 327.576923 481.730769 327.576923 483.871795 327.576923 486.012821 327.576923 488.153846 327.576923 490.294872 327.576923 492.435897 327.576923 494.576923 327.576923 496.717949 327.576923 498.858974 327.576923 501.000000 327.576923 503.141026 327.576923 505.282051 327.576923 507.423077 327.576923 509.564103 327.576923 511.705128 327.576923 513.846154 327.576923 515.987179 327.576923 518.128205 327.576923 520.269231 327.576923 522.410256 327.576923 524.551282 327.576923 526.692308 327.576923 528.833333 327.576923 530.974359 327.576923 533.115385 327.576923 535.256410 327.576923 537.397436 327.576923 539.538462 327.576923 541.679487 327.576923 543.820513 327.576923 545.961538 327.576923 548.102564 327.576923 550.243590 327.576923 552.384615 327.576923 554.525641 327.576923 556.666667 327.576923 558.807692 327.576923 560.948718 327.576923 563.089744 327.576923 565.230769 327.576923 567.371795 327.576923 569.512821 327.576923 571.653846 327.576923 573.794872 327.576923 575.935897 327.576923 578.076923 327.576923 580.217949 327.576923 582.358974 327.576923 584.500000 327.576923 586.641026 327.576923 588.782051 327.576923 590.923077 327.576923 593.064103 327.576923 595.205128 327.576923 597.346154 327.576923 599.487179 327.576923 601.628205 327.576923 603.769231 327.576923 605.910256 327.576923 608.051282 327.576923 610.192308 327.576923 612.333333 327.576923 614.474359 327.576923 616.615385 327.576923 618.756410 327.576923 620.897436 327.576923 623.038462 327.576923 625.179487 327.576923 627.320513 327.576923 629.461538 327.576923 631.602564 327.576923 633.743590 327.576923 635.884615 327.576923 638.025641 327.576923 640.166667 327.576923 642.307692 327.576923 644.448718 327.576923 646.589744 327.576923 648.730769 327.576923 650.871795 327.576923 653.012821 327.576923 655.153846 327.576923"/></g><g class="series serie-5 color-5"><path class="line reactive nofill" d="M12.846154 327.576923 L14.987179 327.576923 17.128205 327.576923 19.269231 327.576923 21.410256 327.576923 23.551282 327.576923 25.692308 327.576923 27.833333 327.576923 29.974359 327.576923 32.115385 327.576923 34.256410 327.576923 36.397436 327.576923 38.538462 327.576923 40.679487 327.576923 42.820513 327.576923 44.961538 327.576923 47.102564 327.576923 49.243590 327.576923 51.384615 327.576923 53.525641 327.576923 55.666667 327.576923 57.807692 327.576923 59.948718 327.576923 62.089744 327.576923 64.230769 327.576923 66.371795 327.576923 68.512821 327.576923 70.653846 327.576923 72.794872 327.576923 74.935897 327.576923 77.076923 327.576923 79.217949 327.576923 81.358974 327.576923 83.500000 327.576923 85.641026 327.576923 87.782051 327.576923 89.923077 327.576923 92.064103 327.576923 94.205128 327.576923 96.346154 327.576923 98.487179 327.576923 100.628205 327.576923 102.769231 327.576923 104.910256 327.576923 107.051282 327.576923 109.192308 327.576923 111.333333 327.576923 113.474359 327.576923 115.615385 327.576923 117.756410 327.576923 119.897436 327.576923 122.038462 327.576923 124.179487 327.576923 126.320513 327.576923 128.461538 327.576923 130.602564 327.576923 132.743590 327.576923 134.884615 327.576923 137.025641 327.576923 139.166667 327.576923 141.307692 327.397827 143.448718 280.498570 145.589744 280.498570 147.730769 280.498570 149.871795 280.498570 152.012821 296.184106 154.153846 296.184106 156.294872 296.184106 158.435897 296.184106 160.576923 296.184106 162.717949 304.032042 164.858974 304.032042 167.000000 304.032042 169.141026 304.032042 171.282051 304.032042 173.423077 304.032042 175.564103 304.032042 177.705128 304.032042 179.846154 304.032042 181.987179 304.032042 184.128205 296.243447 186.269231 327.565514 188.410256 327.565514 190.551282 327.565514 192.692308 327.565514 194.833333 327.575852 196.974359 327.575852 199.115385 327.575852 201.256410 327.575852 203.397436 327.575852 205.538462 327.575852 207.679487 327.555169 209.820513 327.555169 211.961538 327.555169 214.102564 327.476095 216.243590 327.476095 218.384615 327.476095 220.525641 327.476095 222.666667 327.476095 224.807692 327.476095 226.948718 327.476095 229.089744 327.476095 231.230769 327.476095 233.371795 327.476095 235.512821 327.476095 237.653846 327.410432 239.794872 327.421142 241.935897 327.421142 244.076923 327.421142 246.217949 327.421142 248.358974 327.455082 250.500000 327.415047 252.641026 327.415047 254.782051 327.415047 256.923077 327.439322 259.064103 327.439322 261.205128 327.439322 263.346154 327.439322 265.487179 327.439322 267.628205 327.439322 269.769231 327.327051 271.910256 327.327051 274.051282 327.327051 276.192308 327.327051 278.333333 327.327051 280.474359 327.349773 282.615385 327.321220 284.756410 327.321220 286.897436 327.321220 289.038462 327.321220 291.179487 327.321220 293.320513 327.102509 295.461538 327.102509 297.602564 327.102509 299.743590 327.102509 301.884615 327.102509 304.025641 327.102509 306.166667 327.102509 308.307692 327.102509 310.448718 327.102509 312.589744 327.576923 314.730769 327.576923 316.871795 327.576923 319.012821 327.576923 321.153846 327.576923 323.294872 327.576923 325.435897 327.576923 327.576923 327.576923 329.717949 327.576923 331.858974 327.576923 334.000000 327.576923 336.141026 327.576923 338.282051 327.576923 340.423077 327.576923 342.564103 327.576923 344.705128 327.576923 346.846154 327.576923 348.987179 327.576923 351.128205 327.576923 353.269231 327.576923 355.410256 327.576923 357.551282 327.576923 359.692308 327.576923 361.833333 327.576923 363.974359 327.576923 366.115385 327.576923 368.256410 327.576923 370.397436 327.576923 372.538462 327.576923 374.679487 327.576923 376.820513 327.576923 378.961538 166.357764 381.102564 166.357764 383.243590 166.357764 385.384615 166.357764 387.525641 166.357764 389.666667 166.357764 391.807692 166.357764 393.948718 166.357764 396.089744 166.357764 398.230769 166.357764 400.371795 166.357764 402.512821 166.357764 404.653846 166.357764 406.794872 166.357764 408.935897 166.357764 411.076923 166.357764 413.217949 166.357764 415.358974 166.357764 417.500000 166.357764 419.641026 166.668005 421.782051 166.978246 423.923077 166.978246 426.064103 166.978246 428.205128 166.978246 430.346154 166.978246 432.487179 166.978246 434.628205 166.978246 436.769231 166.978246 438.910256 166.978246 441.051282 166.978246 443.192308 166.978246 445.333333 166.978246 447.474359 166.978246 449.615385 166.978246 451.756410 166.978246 453.897436 166.978246 456.038462 166.978246 458.179487 166.978246 460.320513 166.978246 462.461538 327.576923 464.602564 327.576923 466.743590 327.576923 468.884615 327.576923 471.025641 327.576923 473.166667 327.576923 475.307692 327.576923 477.448718 327.576923 479.589744 327.576923 481.730769 327.576923 483.871795 327.576923 486.012821 327.576923 488.153846 327.576923 490.294872 327.576923 492.435897 327.576923 494.576923 327.576923 496.717949 327.576923 498.858974 327.576923 501.000000 327.576923 503.141026 327.576923 505.282051 327.576923 507.423077 327.576923 509.564103 327.576923 511.705128 327.576923 513.846154 327.576923 515.987179 327.576923 518.128205 327.576923 520.269231 327.576923 522.410256 327.576923 524.551282 327.576923 526.692308 327.576923 528.833333 327.576923 530.974359 327.576923 533.115385 327.576923 535.256410 327.576923 537.397436 327.576923 539.538462 327.576923 541.679487 327.576923 543.820513 327.576923 545.961538 327.576923 548.102564 327.576923 550.243590 327.576923 552.384615 327.576923 554.525641 327.576923 556.666667 327.576923 558.807692 327.576923 560.948718 327.576923 563.089744 327.576923 565.230769 327.576923 567.371795 327.576923 569.512821 327.576923 571.653846 327.576923 573.794872 327.576923 575.935897 327.576923 578.076923 327.576923 580.217949 327.576923 582.358974 327.576923 584.500000 327.576923 586.641026 327.576923 588.782051 327.576923 590.923077 327.576923 593.064103 327.576923 595.205128 327.576923 597.346154 327.576923 599.487179 327.576923 601.628205 327.576923 603.769231 327.576923 605.910256 327.576923 608.051282 327.576923 610.192308 327.576923 612.333333 327.576923 614.474359 327.576923 616.615385 327.576923 618.756410 327.576923 620.897436 327.576923 623.038462 327.576923 625.179487 327.576923 627.320513 327.576923 629.461538 327.576923 631.602564 327.576923 633.743590 327.576923 635.884615 327.576923 638.025641 327.576923 640.166667 327.576923 642.307692 327.576923 644.448718 327.576923 646.589744 327.576923 648.730769 327.576923 650.871795 327.576923 653.012821 327.576923 655.153846 327.576923"/></g></g><g class="titles"><text class="title plot_title" x="400.0" y="28">Mean AOE1 for Tempo T ±10.0 BPM</text><text class="title" x="446.0" y="465.0">T (BPM)</text><text class="title" x="0" y="243.0" transform="rotate(-90 0.000000 215.000000)">Mean AOE1 (TO)</text></g><g class="plot overlay" transform="translate(112, 48)"><g class="series serie-0 color-0"><g class="dots"><circle class="dot reactive tooltip-trigger" cx="12.846153846153845" cy="327.5769230769231" r="2.5"/><desc class="value">0.0000</desc><desc class="x top">12.846153846153845</desc><desc class="y top">327.5769230769231</desc><desc class="x_label">0.0</desc></g><g class="dots"><circle class="dot reactive tooltip-trigger" cx="77.07692307692308" cy="327.5769230769231" r="2.5"/><desc class="value">0.0000</desc><desc class="x top">77.07692307692308</desc><desc class="y top">327.5769230769231</desc><desc class="x_label">30.0</desc></g><g class="dots"><circle class="dot reactive tooltip-trigger" cx="141.30769230769232" cy="326.9109960156619" r="2.5"/><desc class="value">0.0041</desc><desc class="x top">141.30769230769232</desc><desc class="y top">326.9109960156619</desc><desc class="x_label">60.0</desc></g><g class="dots"><circle class="dot reactive tooltip-trigger" cx="205.53846153846152" cy="327.5769230769231" r="2.5"/><desc class="value">0.0000</desc><desc class="x top">205.53846153846152</desc><desc class="y top">327.5769230769231</desc><desc class="x_label">90.0</desc></g><g class="dots"><circle class="dot reactive tooltip-trigger" cx="269.7692307692308" cy="326.78995206485064" r="2.5"/><desc class="value">0.0049</desc><desc class="x top">269.7692307692308</desc><desc class="y top">326.78995206485064</desc><desc class="x_label">120.0</desc></g><g class="dots"><circle class="dot reactive tooltip-trigger" cx="334.0" cy="327.5769230769231" r="2.5"/><desc class="value">0.0000</desc><desc class="x top">334.0</desc><desc class="y top">327.5769230769231</desc><desc class="x_label">150.0</desc></g><g class="dots"><circle class="dot reactive tooltip-trigger" cx="398.2307692307692" cy="165.2588928799645" r="2.5"/><desc class="value">1.0108</desc><desc class="x left">398.2307692307692</desc><desc class="y left">165.2588928799645</desc><desc class="x_label">180.0</desc></g><g class="dots"><circle class="dot reactive tooltip-trigger" cx="462.46153846153845" cy="327.5769230769231" r="2.5"/><desc class="value">0.0000</desc><desc class="x left top">462.46153846153845</desc><desc class="y left top">327.5769230769231</desc><desc class="x_label">210.0</desc></g><g class="dots"><circle class="dot reactive tooltip-trigger" cx="526.6923076923076" cy="327.5769230769231" r="2.5"/><desc class="value">0.0000</desc><desc class="x left top">526.6923076923076</desc><desc class="y left top">327.5769230769231</desc><desc class="x_label">240.0</desc></g><g class="dots"><circle class="dot reactive tooltip-trigger" cx="590.9230769230769" cy="327.5769230769231" r="2.5"/><desc class="value">0.0000</desc><desc class="x left top">590.9230769230769</desc><desc class="y left top">327.5769230769231</desc><desc class="x_label">270.0</desc></g><g class="dots"><circle class="dot reactive tooltip-trigger" cx="655.1538461538462" cy="327.5769230769231" r="2.5"/><desc class="value">0.0000</desc><desc class="x left top">655.1538461538462</desc><desc class="y left top">327.5769230769231</desc><desc class="x_label">300.0</desc></g></g><g class="series serie-1 color-1"><g class="dots"><circle class="dot reactive tooltip-trigger" cx="12.846153846153845" cy="327.5769230769231" r="2.5"/><desc class="value">0.0000</desc><desc class="x top">12.846153846153845</desc><desc class="y top">327.5769230769231</desc><desc class="x_label">0.0</desc></g><g class="dots"><circle class="dot reactive tooltip-trigger" cx="77.07692307692308" cy="327.5769230769231" r="2.5"/><desc class="value">0.0000</desc><desc class="x top">77.07692307692308</desc><desc class="y top">327.5769230769231</desc><desc class="x_label">30.0</desc></g><g class="dots"><circle class="dot reactive tooltip-trigger" cx="141.30769230769232" cy="161.0943419315824" r="2.5"/><desc class="value">1.0368</desc><desc class="x ">141.30769230769232</desc><desc class="y ">161.0943419315824</desc><desc class="x_label">60.0</desc></g><g class="dots"><circle class="dot reactive tooltip-trigger" cx="205.53846153846152" cy="325.4166292730701" r="2.5"/><desc class="value">0.0135</desc><desc class="x top">205.53846153846152</desc><desc class="y top">325.4166292730701</desc><desc class="x_label">90.0</desc></g><g class="dots"><circle class="dot reactive tooltip-trigger" cx="269.7692307692308" cy="324.4475670480813" r="2.5"/><desc class="value">0.0195</desc><desc class="x top">269.7692307692308</desc><desc class="y top">324.4475670480813</desc><desc class="x_label">120.0</desc></g><g class="dots"><circle class="dot reactive tooltip-trigger" cx="334.0" cy="327.5769230769231" r="2.5"/><desc class="value">0.0000</desc><desc class="x top">334.0</desc><desc class="y top">327.5769230769231</desc><desc class="x_label">150.0</desc></g><g class="dots"><circle class="dot reactive tooltip-trigger" cx="398.2307692307692" cy="168.12836982732313" r="2.5"/><desc class="value">0.9930</desc><desc class="x left top">398.2307692307692</desc><desc class="y left top">168.12836982732313</desc><desc class="x_label">180.0</desc></g><g class="dots"><circle class="dot reactive tooltip-trigger" cx="462.46153846153845" cy="327.5769230769231" r="2.5"/><desc class="value">0.0000</desc><desc class="x left top">462.46153846153845</desc><desc class="y left top">327.5769230769231</desc><desc class="x_label">210.0</desc></g><g class="dots"><circle class="dot reactive tooltip-trigger" cx="526.6923076923076" cy="327.5769230769231" r="2.5"/><desc class="value">0.0000</desc><desc class="x left top">526.6923076923076</desc><desc class="y left top">327.5769230769231</desc><desc class="x_label">240.0</desc></g><g class="dots"><circle class="dot reactive tooltip-trigger" cx="590.9230769230769" cy="327.5769230769231" r="2.5"/><desc class="value">0.0000</desc><desc class="x left top">590.9230769230769</desc><desc class="y left top">327.5769230769231</desc><desc class="x_label">270.0</desc></g><g class="dots"><circle class="dot reactive tooltip-trigger" cx="655.1538461538462" cy="327.5769230769231" r="2.5"/><desc class="value">0.0000</desc><desc class="x left top">655.1538461538462</desc><desc class="y left top">327.5769230769231</desc><desc class="x_label">300.0</desc></g></g><g class="series serie-2 color-2"><g class="dots"><circle class="dot reactive tooltip-trigger" cx="12.846153846153845" cy="327.5769230769231" r="2.5"/><desc class="value">0.0000</desc><desc class="x top">12.846153846153845</desc><desc class="y top">327.5769230769231</desc><desc class="x_label">0.0</desc></g><g class="dots"><circle class="dot reactive tooltip-trigger" cx="77.07692307692308" cy="327.5769230769231" r="2.5"/><desc class="value">0.0000</desc><desc class="x top">77.07692307692308</desc><desc class="y top">327.5769230769231</desc><desc class="x_label">30.0</desc></g><g class="dots"><circle class="dot reactive tooltip-trigger" cx="141.30769230769232" cy="327.2349834241675" r="2.5"/><desc class="value">0.0021</desc><desc class="x top">141.30769230769232</desc><desc class="y top">327.2349834241675</desc><desc class="x_label">60.0</desc></g><g class="dots"><circle class="dot reactive tooltip-trigger" cx="205.53846153846152" cy="327.2195682638841" r="2.5"/><desc class="value">0.0022</desc><desc class="x top">205.53846153846152</desc><desc class="y top">327.2195682638841</desc><desc class="x_label">90.0</desc></g><g class="dots"><circle class="dot reactive tooltip-trigger" cx="269.7692307692308" cy="327.2363907454916" r="2.5"/><desc class="value">0.0021</desc><desc class="x top">269.7692307692308</desc><desc class="y top">327.2363907454916</desc><desc class="x_label">120.0</desc></g><g class="dots"><circle class="dot reactive tooltip-trigger" cx="334.0" cy="327.5769230769231" r="2.5"/><desc class="value">0.0000</desc><desc class="x top">334.0</desc><desc class="y top">327.5769230769231</desc><desc class="x_label">150.0</desc></g><g class="dots"><circle class="dot reactive tooltip-trigger" cx="398.2307692307692" cy="166.1050969319342" r="2.5"/><desc class="value">1.0056</desc><desc class="x left">398.2307692307692</desc><desc class="y left">166.1050969319342</desc><desc class="x_label">180.0</desc></g><g class="dots"><circle class="dot reactive tooltip-trigger" cx="462.46153846153845" cy="327.5769230769231" r="2.5"/><desc class="value">0.0000</desc><desc class="x left top">462.46153846153845</desc><desc class="y left top">327.5769230769231</desc><desc class="x_label">210.0</desc></g><g class="dots"><circle class="dot reactive tooltip-trigger" cx="526.6923076923076" cy="327.5769230769231" r="2.5"/><desc class="value">0.0000</desc><desc class="x left top">526.6923076923076</desc><desc class="y left top">327.5769230769231</desc><desc class="x_label">240.0</desc></g><g class="dots"><circle class="dot reactive tooltip-trigger" cx="590.9230769230769" cy="327.5769230769231" r="2.5"/><desc class="value">0.0000</desc><desc class="x left top">590.9230769230769</desc><desc class="y left top">327.5769230769231</desc><desc class="x_label">270.0</desc></g><g class="dots"><circle class="dot reactive tooltip-trigger" cx="655.1538461538462" cy="327.5769230769231" r="2.5"/><desc class="value">0.0000</desc><desc class="x left top">655.1538461538462</desc><desc class="y left top">327.5769230769231</desc><desc class="x_label">300.0</desc></g></g><g class="series serie-3 color-3"><g class="dots"><circle class="dot reactive tooltip-trigger" cx="12.846153846153845" cy="327.5769230769231" r="2.5"/><desc class="value">0.0000</desc><desc class="x top">12.846153846153845</desc><desc class="y top">327.5769230769231</desc><desc class="x_label">0.0</desc></g><g class="dots"><circle class="dot reactive tooltip-trigger" cx="77.07692307692308" cy="327.5769230769231" r="2.5"/><desc class="value">0.0000</desc><desc class="x top">77.07692307692308</desc><desc class="y top">327.5769230769231</desc><desc class="x_label">30.0</desc></g><g class="dots"><circle class="dot reactive tooltip-trigger" cx="141.30769230769232" cy="166.95135364290243" r="2.5"/><desc class="value">1.0003</desc><desc class="x ">141.30769230769232</desc><desc class="y ">166.95135364290243</desc><desc class="x_label">60.0</desc></g><g class="dots"><circle class="dot reactive tooltip-trigger" cx="205.53846153846152" cy="327.5758516355717" r="2.5"/><desc class="value">0.0000</desc><desc class="x top">205.53846153846152</desc><desc class="y top">327.5758516355717</desc><desc class="x_label">90.0</desc></g><g class="dots"><circle class="dot reactive tooltip-trigger" cx="269.7692307692308" cy="327.315227112844" r="2.5"/><desc class="value">0.0016</desc><desc class="x top">269.7692307692308</desc><desc class="y top">327.315227112844</desc><desc class="x_label">120.0</desc></g><g class="dots"><circle class="dot reactive tooltip-trigger" cx="334.0" cy="327.5769230769231" r="2.5"/><desc class="value">0.0000</desc><desc class="x top">334.0</desc><desc class="y top">327.5769230769231</desc><desc class="x_label">150.0</desc></g><g class="dots"><circle class="dot reactive tooltip-trigger" cx="398.2307692307692" cy="166.5607034082603" r="2.5"/><desc class="value">1.0027</desc><desc class="x left">398.2307692307692</desc><desc class="y left">166.5607034082603</desc><desc class="x_label">180.0</desc></g><g class="dots"><circle class="dot reactive tooltip-trigger" cx="462.46153846153845" cy="327.5769230769231" r="2.5"/><desc class="value">0.0000</desc><desc class="x left top">462.46153846153845</desc><desc class="y left top">327.5769230769231</desc><desc class="x_label">210.0</desc></g><g class="dots"><circle class="dot reactive tooltip-trigger" cx="526.6923076923076" cy="327.5769230769231" r="2.5"/><desc class="value">0.0000</desc><desc class="x left top">526.6923076923076</desc><desc class="y left top">327.5769230769231</desc><desc class="x_label">240.0</desc></g><g class="dots"><circle class="dot reactive tooltip-trigger" cx="590.9230769230769" cy="327.5769230769231" r="2.5"/><desc class="value">0.0000</desc><desc class="x left top">590.9230769230769</desc><desc class="y left top">327.5769230769231</desc><desc class="x_label">270.0</desc></g><g class="dots"><circle class="dot reactive tooltip-trigger" cx="655.1538461538462" cy="327.5769230769231" r="2.5"/><desc class="value">0.0000</desc><desc class="x left top">655.1538461538462</desc><desc class="y left top">327.5769230769231</desc><desc class="x_label">300.0</desc></g></g><g class="series serie-4 color-4"><g class="dots"><circle class="dot reactive tooltip-trigger" cx="12.846153846153845" cy="327.5769230769231" r="2.5"/><desc class="value">0.0000</desc><desc class="x top">12.846153846153845</desc><desc class="y top">327.5769230769231</desc><desc class="x_label">0.0</desc></g><g class="dots"><circle class="dot reactive tooltip-trigger" cx="77.07692307692308" cy="327.5769230769231" r="2.5"/><desc class="value">0.0000</desc><desc class="x top">77.07692307692308</desc><desc class="y top">327.5769230769231</desc><desc class="x_label">30.0</desc></g><g class="dots"><circle class="dot reactive tooltip-trigger" cx="141.30769230769232" cy="327.39782683759915" r="2.5"/><desc class="value">0.0011</desc><desc class="x top">141.30769230769232</desc><desc class="y top">327.39782683759915</desc><desc class="x_label">60.0</desc></g><g class="dots"><circle class="dot reactive tooltip-trigger" cx="205.53846153846152" cy="327.5758516355717" r="2.5"/><desc class="value">0.0000</desc><desc class="x top">205.53846153846152</desc><desc class="y top">327.5758516355717</desc><desc class="x_label">90.0</desc></g><g class="dots"><circle class="dot reactive tooltip-trigger" cx="269.7692307692308" cy="327.3270511200215" r="2.5"/><desc class="value">0.0016</desc><desc class="x top">269.7692307692308</desc><desc class="y top">327.3270511200215</desc><desc class="x_label">120.0</desc></g><g class="dots"><circle class="dot reactive tooltip-trigger" cx="334.0" cy="327.5769230769231" r="2.5"/><desc class="value">0.0000</desc><desc class="x top">334.0</desc><desc class="y top">327.5769230769231</desc><desc class="x_label">150.0</desc></g><g class="dots"><circle class="dot reactive tooltip-trigger" cx="398.2307692307692" cy="166.3577643958503" r="2.5"/><desc class="value">1.0040</desc><desc class="x left">398.2307692307692</desc><desc class="y left">166.3577643958503</desc><desc class="x_label">180.0</desc></g><g class="dots"><circle class="dot reactive tooltip-trigger" cx="462.46153846153845" cy="327.5769230769231" r="2.5"/><desc class="value">0.0000</desc><desc class="x left top">462.46153846153845</desc><desc class="y left top">327.5769230769231</desc><desc class="x_label">210.0</desc></g><g class="dots"><circle class="dot reactive tooltip-trigger" cx="526.6923076923076" cy="327.5769230769231" r="2.5"/><desc class="value">0.0000</desc><desc class="x left top">526.6923076923076</desc><desc class="y left top">327.5769230769231</desc><desc class="x_label">240.0</desc></g><g class="dots"><circle class="dot reactive tooltip-trigger" cx="590.9230769230769" cy="327.5769230769231" r="2.5"/><desc class="value">0.0000</desc><desc class="x left top">590.9230769230769</desc><desc class="y left top">327.5769230769231</desc><desc class="x_label">270.0</desc></g><g class="dots"><circle class="dot reactive tooltip-trigger" cx="655.1538461538462" cy="327.5769230769231" r="2.5"/><desc class="value">0.0000</desc><desc class="x left top">655.1538461538462</desc><desc class="y left top">327.5769230769231</desc><desc class="x_label">300.0</desc></g></g><g class="series serie-5 color-5"><g class="dots"><circle class="dot reactive tooltip-trigger" cx="12.846153846153845" cy="327.5769230769231" r="2.5"/><desc class="value">0.0000</desc><desc class="x top">12.846153846153845</desc><desc class="y top">327.5769230769231</desc><desc class="x_label">0.0</desc></g><g class="dots"><circle class="dot reactive tooltip-trigger" cx="77.07692307692308" cy="327.5769230769231" r="2.5"/><desc class="value">0.0000</desc><desc class="x top">77.07692307692308</desc><desc class="y top">327.5769230769231</desc><desc class="x_label">30.0</desc></g><g class="dots"><circle class="dot reactive tooltip-trigger" cx="141.30769230769232" cy="327.39782683759915" r="2.5"/><desc class="value">0.0011</desc><desc class="x top">141.30769230769232</desc><desc class="y top">327.39782683759915</desc><desc class="x_label">60.0</desc></g><g class="dots"><circle class="dot reactive tooltip-trigger" cx="205.53846153846152" cy="327.5758516355717" r="2.5"/><desc class="value">0.0000</desc><desc class="x top">205.53846153846152</desc><desc class="y top">327.5758516355717</desc><desc class="x_label">90.0</desc></g><g class="dots"><circle class="dot reactive tooltip-trigger" cx="269.7692307692308" cy="327.3270511200215" r="2.5"/><desc class="value">0.0016</desc><desc class="x top">269.7692307692308</desc><desc class="y top">327.3270511200215</desc><desc class="x_label">120.0</desc></g><g class="dots"><circle class="dot reactive tooltip-trigger" cx="334.0" cy="327.5769230769231" r="2.5"/><desc class="value">0.0000</desc><desc class="x top">334.0</desc><desc class="y top">327.5769230769231</desc><desc class="x_label">150.0</desc></g><g class="dots"><circle class="dot reactive tooltip-trigger" cx="398.2307692307692" cy="166.3577643958503" r="2.5"/><desc class="value">1.0040</desc><desc class="x left">398.2307692307692</desc><desc class="y left">166.3577643958503</desc><desc class="x_label">180.0</desc></g><g class="dots"><circle class="dot reactive tooltip-trigger" cx="462.46153846153845" cy="327.5769230769231" r="2.5"/><desc class="value">0.0000</desc><desc class="x left top">462.46153846153845</desc><desc class="y left top">327.5769230769231</desc><desc class="x_label">210.0</desc></g><g class="dots"><circle class="dot reactive tooltip-trigger" cx="526.6923076923076" cy="327.5769230769231" r="2.5"/><desc class="value">0.0000</desc><desc class="x left top">526.6923076923076</desc><desc class="y left top">327.5769230769231</desc><desc class="x_label">240.0</desc></g><g class="dots"><circle class="dot reactive tooltip-trigger" cx="590.9230769230769" cy="327.5769230769231" r="2.5"/><desc class="value">0.0000</desc><desc class="x left top">590.9230769230769</desc><desc class="y left top">327.5769230769231</desc><desc class="x_label">270.0</desc></g><g class="dots"><circle class="dot reactive tooltip-trigger" cx="655.1538461538462" cy="327.5769230769231" r="2.5"/><desc class="value">0.0000</desc><desc class="x left top">655.1538461538462</desc><desc class="y left top">327.5769230769231</desc><desc class="x_label">300.0</desc></g></g></g><g class="plot text-overlay" transform="translate(112, 48)"><g class="series serie-0 color-0"/><g class="series serie-1 color-1"/><g class="series serie-2 color-2"/><g class="series serie-3 color-3"/><g class="series serie-4 color-4"/><g class="series serie-5 color-5"/></g><g class="plot tooltip-overlay" transform="translate(112, 48)"><g class="tooltip" style="opacity: 0" transform="translate(0 0)"><rect class="tooltip-box" height="0" rx="0" ry="0" width="0"/><g class="text"/></g></g><g class="legends" transform="translate(122, 485)"><g class="legend reactive activate-serie" id="activate-serie-0"><rect class="color-0 reactive" height="12" width="12" x="0.0" y="1.5"/><text x="17.0" y="12.0">boeck2015/tempodetector2016_default</text></g><g class="legend reactive activate-serie" id="activate-serie-1"><rect class="color-1 reactive" height="12" width="12" x="334.0" y="1.5"/><text x="351.0" y="12.0">davies2009/mirex_qm_tempotracker</text></g><g class="legend reactive activate-serie" id="activate-serie-2"><rect class="color-2 reactive" height="12" width="12" x="0.0" y="24.0"/><text x="17.0" y="34.5">percival2014/stem</text></g><g class="legend reactive activate-serie" id="activate-serie-3"><rect class="color-3 reactive" height="12" width="12" x="334.0" y="24.0"/><text x="351.0" y="34.5">schreiber2014/default</text></g><g class="legend reactive activate-serie" id="activate-serie-4"><rect class="color-4 reactive" height="12" width="12" x="0.0" y="46.5"/><text x="17.0" y="57.0">schreiber2017/ismir2017</text></g><g class="legend reactive activate-serie" id="activate-serie-5"><rect class="color-5 reactive" height="12" width="12" x="334.0" y="46.5"/><text x="351.0" y="57.0">schreiber2017/mirex2017</text></g></g></g></svg>