<?xml version="1.0" encoding="utf-8" standalone="no"?>
<!DOCTYPE svg PUBLIC "-//W3C//DTD SVG 1.1//EN"
  "http://www.w3.org/Graphics/SVG/1.1/DTD/svg11.dtd">
<!-- Created with matplotlib (http://matplotlib.org/) -->
<svg height="370.338375pt" version="1.1" viewBox="0 0 632.498437 370.338375" width="632.498437pt" xmlns="http://www.w3.org/2000/svg" xmlns:xlink="http://www.w3.org/1999/xlink">
 <defs>
  <style type="text/css">
*{stroke-linecap:butt;stroke-linejoin:round;}
  </style>
 </defs>
 <g id="figure_1">
  <g id="patch_1">
   <path d="M -0 370.338375 
L 632.498438 370.338375 
L 632.498438 0 
L -0 0 
z
" style="fill:#ffffff;"/>
  </g>
  <g id="axes_1">
   <g id="patch_2">
    <path d="M 226.746875 332.782125 
L 617.346875 332.782125 
L 617.346875 22.318125 
L 226.746875 22.318125 
z
" style="fill:#ffffff;"/>
   </g>
   <g id="matplotlib.axis_1">
    <g id="xtick_1">
     <g id="line2d_1">
      <path clip-path="url(#p494008d637)" d="M 226.746875 332.782125 
L 226.746875 22.318125 
" style="fill:none;stroke:#b0b0b0;stroke-linecap:square;stroke-width:0.8;"/>
     </g>
     <g id="line2d_2">
      <defs>
       <path d="M 0 0 
L 0 3.5 
" id="m4c627e0f59" style="stroke:#000000;stroke-width:0.8;"/>
      </defs>
      <g>
       <use style="stroke:#000000;stroke-width:0.8;" x="226.746875" xlink:href="#m4c627e0f59" y="332.782125"/>
      </g>
     </g>
     <g id="text_1">
      <!-- 0.0 -->
      <defs>
       <path d="M 31.78125 66.40625 
Q 24.171875 66.40625 20.328125 58.90625 
Q 16.5 51.421875 16.5 36.375 
Q 16.5 21.390625 20.328125 13.890625 
Q 24.171875 6.390625 31.78125 6.390625 
Q 39.453125 6.390625 43.28125 13.890625 
Q 47.125 21.390625 47.125 36.375 
Q 47.125 51.421875 43.28125 58.90625 
Q 39.453125 66.40625 31.78125 66.40625 
z
M 31.78125 74.21875 
Q 44.046875 74.21875 50.515625 64.515625 
Q 56.984375 54.828125 56.984375 36.375 
Q 56.984375 17.96875 50.515625 8.265625 
Q 44.046875 -1.421875 31.78125 -1.421875 
Q 19.53125 -1.421875 13.0625 8.265625 
Q 6.59375 17.96875 6.59375 36.375 
Q 6.59375 54.828125 13.0625 64.515625 
Q 19.53125 74.21875 31.78125 74.21875 
z
" id="DejaVuSans-30"/>
       <path d="M 10.6875 12.40625 
L 21 12.40625 
L 21 0 
L 10.6875 0 
z
" id="DejaVuSans-2e"/>
      </defs>
      <g transform="translate(218.795312 347.380562)scale(0.1 -0.1)">
       <use xlink:href="#DejaVuSans-30"/>
       <use x="63.623047" xlink:href="#DejaVuSans-2e"/>
       <use x="95.410156" xlink:href="#DejaVuSans-30"/>
      </g>
     </g>
    </g>
    <g id="xtick_2">
     <g id="line2d_3">
      <path clip-path="url(#p494008d637)" d="M 291.846875 332.782125 
L 291.846875 22.318125 
" style="fill:none;stroke:#b0b0b0;stroke-linecap:square;stroke-width:0.8;"/>
     </g>
     <g id="line2d_4">
      <g>
       <use style="stroke:#000000;stroke-width:0.8;" x="291.846875" xlink:href="#m4c627e0f59" y="332.782125"/>
      </g>
     </g>
     <g id="text_2">
      <!-- 0.5 -->
      <defs>
       <path d="M 10.796875 72.90625 
L 49.515625 72.90625 
L 49.515625 64.59375 
L 19.828125 64.59375 
L 19.828125 46.734375 
Q 21.96875 47.46875 24.109375 47.828125 
Q 26.265625 48.1875 28.421875 48.1875 
Q 40.625 48.1875 47.75 41.5 
Q 54.890625 34.8125 54.890625 23.390625 
Q 54.890625 11.625 47.5625 5.09375 
Q 40.234375 -1.421875 26.90625 -1.421875 
Q 22.3125 -1.421875 17.546875 -0.640625 
Q 12.796875 0.140625 7.71875 1.703125 
L 7.71875 11.625 
Q 12.109375 9.234375 16.796875 8.0625 
Q 21.484375 6.890625 26.703125 6.890625 
Q 35.15625 6.890625 40.078125 11.328125 
Q 45.015625 15.765625 45.015625 23.390625 
Q 45.015625 31 40.078125 35.4375 
Q 35.15625 39.890625 26.703125 39.890625 
Q 22.75 39.890625 18.8125 39.015625 
Q 14.890625 38.140625 10.796875 36.28125 
z
" id="DejaVuSans-35"/>
      </defs>
      <g transform="translate(283.895312 347.380562)scale(0.1 -0.1)">
       <use xlink:href="#DejaVuSans-30"/>
       <use x="63.623047" xlink:href="#DejaVuSans-2e"/>
       <use x="95.410156" xlink:href="#DejaVuSans-35"/>
      </g>
     </g>
    </g>
    <g id="xtick_3">
     <g id="line2d_5">
      <path clip-path="url(#p494008d637)" d="M 356.946875 332.782125 
L 356.946875 22.318125 
" style="fill:none;stroke:#b0b0b0;stroke-linecap:square;stroke-width:0.8;"/>
     </g>
     <g id="line2d_6">
      <g>
       <use style="stroke:#000000;stroke-width:0.8;" x="356.946875" xlink:href="#m4c627e0f59" y="332.782125"/>
      </g>
     </g>
     <g id="text_3">
      <!-- 1.0 -->
      <defs>
       <path d="M 12.40625 8.296875 
L 28.515625 8.296875 
L 28.515625 63.921875 
L 10.984375 60.40625 
L 10.984375 69.390625 
L 28.421875 72.90625 
L 38.28125 72.90625 
L 38.28125 8.296875 
L 54.390625 8.296875 
L 54.390625 0 
L 12.40625 0 
z
" id="DejaVuSans-31"/>
      </defs>
      <g transform="translate(348.995312 347.380562)scale(0.1 -0.1)">
       <use xlink:href="#DejaVuSans-31"/>
       <use x="63.623047" xlink:href="#DejaVuSans-2e"/>
       <use x="95.410156" xlink:href="#DejaVuSans-30"/>
      </g>
     </g>
    </g>
    <g id="xtick_4">
     <g id="line2d_7">
      <path clip-path="url(#p494008d637)" d="M 422.046875 332.782125 
L 422.046875 22.318125 
" style="fill:none;stroke:#b0b0b0;stroke-linecap:square;stroke-width:0.8;"/>
     </g>
     <g id="line2d_8">
      <g>
       <use style="stroke:#000000;stroke-width:0.8;" x="422.046875" xlink:href="#m4c627e0f59" y="332.782125"/>
      </g>
     </g>
     <g id="text_4">
      <!-- 1.5 -->
      <g transform="translate(414.095312 347.380562)scale(0.1 -0.1)">
       <use xlink:href="#DejaVuSans-31"/>
       <use x="63.623047" xlink:href="#DejaVuSans-2e"/>
       <use x="95.410156" xlink:href="#DejaVuSans-35"/>
      </g>
     </g>
    </g>
    <g id="xtick_5">
     <g id="line2d_9">
      <path clip-path="url(#p494008d637)" d="M 487.146875 332.782125 
L 487.146875 22.318125 
" style="fill:none;stroke:#b0b0b0;stroke-linecap:square;stroke-width:0.8;"/>
     </g>
     <g id="line2d_10">
      <g>
       <use style="stroke:#000000;stroke-width:0.8;" x="487.146875" xlink:href="#m4c627e0f59" y="332.782125"/>
      </g>
     </g>
     <g id="text_5">
      <!-- 2.0 -->
      <defs>
       <path d="M 19.1875 8.296875 
L 53.609375 8.296875 
L 53.609375 0 
L 7.328125 0 
L 7.328125 8.296875 
Q 12.9375 14.109375 22.625 23.890625 
Q 32.328125 33.6875 34.8125 36.53125 
Q 39.546875 41.84375 41.421875 45.53125 
Q 43.3125 49.21875 43.3125 52.78125 
Q 43.3125 58.59375 39.234375 62.25 
Q 35.15625 65.921875 28.609375 65.921875 
Q 23.96875 65.921875 18.8125 64.3125 
Q 13.671875 62.703125 7.8125 59.421875 
L 7.8125 69.390625 
Q 13.765625 71.78125 18.9375 73 
Q 24.125 74.21875 28.421875 74.21875 
Q 39.75 74.21875 46.484375 68.546875 
Q 53.21875 62.890625 53.21875 53.421875 
Q 53.21875 48.921875 51.53125 44.890625 
Q 49.859375 40.875 45.40625 35.40625 
Q 44.1875 33.984375 37.640625 27.21875 
Q 31.109375 20.453125 19.1875 8.296875 
z
" id="DejaVuSans-32"/>
      </defs>
      <g transform="translate(479.195312 347.380562)scale(0.1 -0.1)">
       <use xlink:href="#DejaVuSans-32"/>
       <use x="63.623047" xlink:href="#DejaVuSans-2e"/>
       <use x="95.410156" xlink:href="#DejaVuSans-30"/>
      </g>
     </g>
    </g>
    <g id="xtick_6">
     <g id="line2d_11">
      <path clip-path="url(#p494008d637)" d="M 552.246875 332.782125 
L 552.246875 22.318125 
" style="fill:none;stroke:#b0b0b0;stroke-linecap:square;stroke-width:0.8;"/>
     </g>
     <g id="line2d_12">
      <g>
       <use style="stroke:#000000;stroke-width:0.8;" x="552.246875" xlink:href="#m4c627e0f59" y="332.782125"/>
      </g>
     </g>
     <g id="text_6">
      <!-- 2.5 -->
      <g transform="translate(544.295313 347.380562)scale(0.1 -0.1)">
       <use xlink:href="#DejaVuSans-32"/>
       <use x="63.623047" xlink:href="#DejaVuSans-2e"/>
       <use x="95.410156" xlink:href="#DejaVuSans-35"/>
      </g>
     </g>
    </g>
    <g id="xtick_7">
     <g id="line2d_13">
      <path clip-path="url(#p494008d637)" d="M 617.346875 332.782125 
L 617.346875 22.318125 
" style="fill:none;stroke:#b0b0b0;stroke-linecap:square;stroke-width:0.8;"/>
     </g>
     <g id="line2d_14">
      <g>
       <use style="stroke:#000000;stroke-width:0.8;" x="617.346875" xlink:href="#m4c627e0f59" y="332.782125"/>
      </g>
     </g>
     <g id="text_7">
      <!-- 3.0 -->
      <defs>
       <path d="M 40.578125 39.3125 
Q 47.65625 37.796875 51.625 33 
Q 55.609375 28.21875 55.609375 21.1875 
Q 55.609375 10.40625 48.1875 4.484375 
Q 40.765625 -1.421875 27.09375 -1.421875 
Q 22.515625 -1.421875 17.65625 -0.515625 
Q 12.796875 0.390625 7.625 2.203125 
L 7.625 11.71875 
Q 11.71875 9.328125 16.59375 8.109375 
Q 21.484375 6.890625 26.8125 6.890625 
Q 36.078125 6.890625 40.9375 10.546875 
Q 45.796875 14.203125 45.796875 21.1875 
Q 45.796875 27.640625 41.28125 31.265625 
Q 36.765625 34.90625 28.71875 34.90625 
L 20.21875 34.90625 
L 20.21875 43.015625 
L 29.109375 43.015625 
Q 36.375 43.015625 40.234375 45.921875 
Q 44.09375 48.828125 44.09375 54.296875 
Q 44.09375 59.90625 40.109375 62.90625 
Q 36.140625 65.921875 28.71875 65.921875 
Q 24.65625 65.921875 20.015625 65.03125 
Q 15.375 64.15625 9.8125 62.3125 
L 9.8125 71.09375 
Q 15.4375 72.65625 20.34375 73.4375 
Q 25.25 74.21875 29.59375 74.21875 
Q 40.828125 74.21875 47.359375 69.109375 
Q 53.90625 64.015625 53.90625 55.328125 
Q 53.90625 49.265625 50.4375 45.09375 
Q 46.96875 40.921875 40.578125 39.3125 
z
" id="DejaVuSans-33"/>
      </defs>
      <g transform="translate(609.395312 347.380562)scale(0.1 -0.1)">
       <use xlink:href="#DejaVuSans-33"/>
       <use x="63.623047" xlink:href="#DejaVuSans-2e"/>
       <use x="95.410156" xlink:href="#DejaVuSans-30"/>
      </g>
     </g>
    </g>
    <g id="text_8">
     <!-- AOE1 (TO) -->
     <defs>
      <path d="M 34.1875 63.1875 
L 20.796875 26.90625 
L 47.609375 26.90625 
z
M 28.609375 72.90625 
L 39.796875 72.90625 
L 67.578125 0 
L 57.328125 0 
L 50.6875 18.703125 
L 17.828125 18.703125 
L 11.1875 0 
L 0.78125 0 
z
" id="DejaVuSans-41"/>
      <path d="M 39.40625 66.21875 
Q 28.65625 66.21875 22.328125 58.203125 
Q 16.015625 50.203125 16.015625 36.375 
Q 16.015625 22.609375 22.328125 14.59375 
Q 28.65625 6.59375 39.40625 6.59375 
Q 50.140625 6.59375 56.421875 14.59375 
Q 62.703125 22.609375 62.703125 36.375 
Q 62.703125 50.203125 56.421875 58.203125 
Q 50.140625 66.21875 39.40625 66.21875 
z
M 39.40625 74.21875 
Q 54.734375 74.21875 63.90625 63.9375 
Q 73.09375 53.65625 73.09375 36.375 
Q 73.09375 19.140625 63.90625 8.859375 
Q 54.734375 -1.421875 39.40625 -1.421875 
Q 24.03125 -1.421875 14.8125 8.828125 
Q 5.609375 19.09375 5.609375 36.375 
Q 5.609375 53.65625 14.8125 63.9375 
Q 24.03125 74.21875 39.40625 74.21875 
z
" id="DejaVuSans-4f"/>
      <path d="M 9.8125 72.90625 
L 55.90625 72.90625 
L 55.90625 64.59375 
L 19.671875 64.59375 
L 19.671875 43.015625 
L 54.390625 43.015625 
L 54.390625 34.71875 
L 19.671875 34.71875 
L 19.671875 8.296875 
L 56.78125 8.296875 
L 56.78125 0 
L 9.8125 0 
z
" id="DejaVuSans-45"/>
      <path id="DejaVuSans-20"/>
      <path d="M 31 75.875 
Q 24.46875 64.65625 21.28125 53.65625 
Q 18.109375 42.671875 18.109375 31.390625 
Q 18.109375 20.125 21.3125 9.0625 
Q 24.515625 -2 31 -13.1875 
L 23.1875 -13.1875 
Q 15.875 -1.703125 12.234375 9.375 
Q 8.59375 20.453125 8.59375 31.390625 
Q 8.59375 42.28125 12.203125 53.3125 
Q 15.828125 64.359375 23.1875 75.875 
z
" id="DejaVuSans-28"/>
      <path d="M -0.296875 72.90625 
L 61.375 72.90625 
L 61.375 64.59375 
L 35.5 64.59375 
L 35.5 0 
L 25.59375 0 
L 25.59375 64.59375 
L -0.296875 64.59375 
z
" id="DejaVuSans-54"/>
      <path d="M 8.015625 75.875 
L 15.828125 75.875 
Q 23.140625 64.359375 26.78125 53.3125 
Q 30.421875 42.28125 30.421875 31.390625 
Q 30.421875 20.453125 26.78125 9.375 
Q 23.140625 -1.703125 15.828125 -13.1875 
L 8.015625 -13.1875 
Q 14.5 -2 17.703125 9.0625 
Q 20.90625 20.125 20.90625 31.390625 
Q 20.90625 42.671875 17.703125 53.65625 
Q 14.5 64.65625 8.015625 75.875 
z
" id="DejaVuSans-29"/>
     </defs>
     <g transform="translate(395.870313 361.058687)scale(0.1 -0.1)">
      <use xlink:href="#DejaVuSans-41"/>
      <use x="68.392578" xlink:href="#DejaVuSans-4f"/>
      <use x="147.103516" xlink:href="#DejaVuSans-45"/>
      <use x="210.287109" xlink:href="#DejaVuSans-31"/>
      <use x="273.910156" xlink:href="#DejaVuSans-20"/>
      <use x="305.697266" xlink:href="#DejaVuSans-28"/>
      <use x="344.710938" xlink:href="#DejaVuSans-54"/>
      <use x="405.794922" xlink:href="#DejaVuSans-4f"/>
      <use x="484.505859" xlink:href="#DejaVuSans-29"/>
     </g>
    </g>
   </g>
   <g id="matplotlib.axis_2">
    <g id="ytick_1">
     <g id="line2d_15">
      <path clip-path="url(#p494008d637)" d="M 226.746875 305.841034 
L 617.346875 305.841034 
" style="fill:none;stroke:#b0b0b0;stroke-linecap:square;stroke-width:0.8;"/>
     </g>
     <g id="line2d_16">
      <defs>
       <path d="M 0 0 
L -3.5 0 
" id="md606a731d9" style="stroke:#000000;stroke-width:0.8;"/>
      </defs>
      <g>
       <use style="stroke:#000000;stroke-width:0.8;" x="226.746875" xlink:href="#md606a731d9" y="305.841034"/>
      </g>
     </g>
     <g id="text_9">
      <!-- schreiber2017/mirex2017 -->
      <defs>
       <path d="M 44.28125 53.078125 
L 44.28125 44.578125 
Q 40.484375 46.53125 36.375 47.5 
Q 32.28125 48.484375 27.875 48.484375 
Q 21.1875 48.484375 17.84375 46.4375 
Q 14.5 44.390625 14.5 40.28125 
Q 14.5 37.15625 16.890625 35.375 
Q 19.28125 33.59375 26.515625 31.984375 
L 29.59375 31.296875 
Q 39.15625 29.25 43.1875 25.515625 
Q 47.21875 21.78125 47.21875 15.09375 
Q 47.21875 7.46875 41.1875 3.015625 
Q 35.15625 -1.421875 24.609375 -1.421875 
Q 20.21875 -1.421875 15.453125 -0.5625 
Q 10.6875 0.296875 5.421875 2 
L 5.421875 11.28125 
Q 10.40625 8.6875 15.234375 7.390625 
Q 20.0625 6.109375 24.8125 6.109375 
Q 31.15625 6.109375 34.5625 8.28125 
Q 37.984375 10.453125 37.984375 14.40625 
Q 37.984375 18.0625 35.515625 20.015625 
Q 33.0625 21.96875 24.703125 23.78125 
L 21.578125 24.515625 
Q 13.234375 26.265625 9.515625 29.90625 
Q 5.8125 33.546875 5.8125 39.890625 
Q 5.8125 47.609375 11.28125 51.796875 
Q 16.75 56 26.8125 56 
Q 31.78125 56 36.171875 55.265625 
Q 40.578125 54.546875 44.28125 53.078125 
z
" id="DejaVuSans-73"/>
       <path d="M 48.78125 52.59375 
L 48.78125 44.1875 
Q 44.96875 46.296875 41.140625 47.34375 
Q 37.3125 48.390625 33.40625 48.390625 
Q 24.65625 48.390625 19.8125 42.84375 
Q 14.984375 37.3125 14.984375 27.296875 
Q 14.984375 17.28125 19.8125 11.734375 
Q 24.65625 6.203125 33.40625 6.203125 
Q 37.3125 6.203125 41.140625 7.25 
Q 44.96875 8.296875 48.78125 10.40625 
L 48.78125 2.09375 
Q 45.015625 0.34375 40.984375 -0.53125 
Q 36.96875 -1.421875 32.421875 -1.421875 
Q 20.0625 -1.421875 12.78125 6.34375 
Q 5.515625 14.109375 5.515625 27.296875 
Q 5.515625 40.671875 12.859375 48.328125 
Q 20.21875 56 33.015625 56 
Q 37.15625 56 41.109375 55.140625 
Q 45.0625 54.296875 48.78125 52.59375 
z
" id="DejaVuSans-63"/>
       <path d="M 54.890625 33.015625 
L 54.890625 0 
L 45.90625 0 
L 45.90625 32.71875 
Q 45.90625 40.484375 42.875 44.328125 
Q 39.84375 48.1875 33.796875 48.1875 
Q 26.515625 48.1875 22.3125 43.546875 
Q 18.109375 38.921875 18.109375 30.90625 
L 18.109375 0 
L 9.078125 0 
L 9.078125 75.984375 
L 18.109375 75.984375 
L 18.109375 46.1875 
Q 21.34375 51.125 25.703125 53.5625 
Q 30.078125 56 35.796875 56 
Q 45.21875 56 50.046875 50.171875 
Q 54.890625 44.34375 54.890625 33.015625 
z
" id="DejaVuSans-68"/>
       <path d="M 41.109375 46.296875 
Q 39.59375 47.171875 37.8125 47.578125 
Q 36.03125 48 33.890625 48 
Q 26.265625 48 22.1875 43.046875 
Q 18.109375 38.09375 18.109375 28.8125 
L 18.109375 0 
L 9.078125 0 
L 9.078125 54.6875 
L 18.109375 54.6875 
L 18.109375 46.1875 
Q 20.953125 51.171875 25.484375 53.578125 
Q 30.03125 56 36.53125 56 
Q 37.453125 56 38.578125 55.875 
Q 39.703125 55.765625 41.0625 55.515625 
z
" id="DejaVuSans-72"/>
       <path d="M 56.203125 29.59375 
L 56.203125 25.203125 
L 14.890625 25.203125 
Q 15.484375 15.921875 20.484375 11.0625 
Q 25.484375 6.203125 34.421875 6.203125 
Q 39.59375 6.203125 44.453125 7.46875 
Q 49.3125 8.734375 54.109375 11.28125 
L 54.109375 2.78125 
Q 49.265625 0.734375 44.1875 -0.34375 
Q 39.109375 -1.421875 33.890625 -1.421875 
Q 20.796875 -1.421875 13.15625 6.1875 
Q 5.515625 13.8125 5.515625 26.8125 
Q 5.515625 40.234375 12.765625 48.109375 
Q 20.015625 56 32.328125 56 
Q 43.359375 56 49.78125 48.890625 
Q 56.203125 41.796875 56.203125 29.59375 
z
M 47.21875 32.234375 
Q 47.125 39.59375 43.09375 43.984375 
Q 39.0625 48.390625 32.421875 48.390625 
Q 24.90625 48.390625 20.390625 44.140625 
Q 15.875 39.890625 15.1875 32.171875 
z
" id="DejaVuSans-65"/>
       <path d="M 9.421875 54.6875 
L 18.40625 54.6875 
L 18.40625 0 
L 9.421875 0 
z
M 9.421875 75.984375 
L 18.40625 75.984375 
L 18.40625 64.59375 
L 9.421875 64.59375 
z
" id="DejaVuSans-69"/>
       <path d="M 48.6875 27.296875 
Q 48.6875 37.203125 44.609375 42.84375 
Q 40.53125 48.484375 33.40625 48.484375 
Q 26.265625 48.484375 22.1875 42.84375 
Q 18.109375 37.203125 18.109375 27.296875 
Q 18.109375 17.390625 22.1875 11.75 
Q 26.265625 6.109375 33.40625 6.109375 
Q 40.53125 6.109375 44.609375 11.75 
Q 48.6875 17.390625 48.6875 27.296875 
z
M 18.109375 46.390625 
Q 20.953125 51.265625 25.265625 53.625 
Q 29.59375 56 35.59375 56 
Q 45.5625 56 51.78125 48.09375 
Q 58.015625 40.1875 58.015625 27.296875 
Q 58.015625 14.40625 51.78125 6.484375 
Q 45.5625 -1.421875 35.59375 -1.421875 
Q 29.59375 -1.421875 25.265625 0.953125 
Q 20.953125 3.328125 18.109375 8.203125 
L 18.109375 0 
L 9.078125 0 
L 9.078125 75.984375 
L 18.109375 75.984375 
z
" id="DejaVuSans-62"/>
       <path d="M 8.203125 72.90625 
L 55.078125 72.90625 
L 55.078125 68.703125 
L 28.609375 0 
L 18.3125 0 
L 43.21875 64.59375 
L 8.203125 64.59375 
z
" id="DejaVuSans-37"/>
       <path d="M 25.390625 72.90625 
L 33.6875 72.90625 
L 8.296875 -9.28125 
L 0 -9.28125 
z
" id="DejaVuSans-2f"/>
       <path d="M 52 44.1875 
Q 55.375 50.25 60.0625 53.125 
Q 64.75 56 71.09375 56 
Q 79.640625 56 84.28125 50.015625 
Q 88.921875 44.046875 88.921875 33.015625 
L 88.921875 0 
L 79.890625 0 
L 79.890625 32.71875 
Q 79.890625 40.578125 77.09375 44.375 
Q 74.3125 48.1875 68.609375 48.1875 
Q 61.625 48.1875 57.5625 43.546875 
Q 53.515625 38.921875 53.515625 30.90625 
L 53.515625 0 
L 44.484375 0 
L 44.484375 32.71875 
Q 44.484375 40.625 41.703125 44.40625 
Q 38.921875 48.1875 33.109375 48.1875 
Q 26.21875 48.1875 22.15625 43.53125 
Q 18.109375 38.875 18.109375 30.90625 
L 18.109375 0 
L 9.078125 0 
L 9.078125 54.6875 
L 18.109375 54.6875 
L 18.109375 46.1875 
Q 21.1875 51.21875 25.484375 53.609375 
Q 29.78125 56 35.6875 56 
Q 41.65625 56 45.828125 52.96875 
Q 50 49.953125 52 44.1875 
z
" id="DejaVuSans-6d"/>
       <path d="M 54.890625 54.6875 
L 35.109375 28.078125 
L 55.90625 0 
L 45.3125 0 
L 29.390625 21.484375 
L 13.484375 0 
L 2.875 0 
L 24.125 28.609375 
L 4.6875 54.6875 
L 15.28125 54.6875 
L 29.78125 35.203125 
L 44.28125 54.6875 
z
" id="DejaVuSans-78"/>
      </defs>
      <g transform="translate(90.084375 309.640253)scale(0.1 -0.1)">
       <use xlink:href="#DejaVuSans-73"/>
       <use x="52.099609" xlink:href="#DejaVuSans-63"/>
       <use x="107.080078" xlink:href="#DejaVuSans-68"/>
       <use x="170.458984" xlink:href="#DejaVuSans-72"/>
       <use x="211.541016" xlink:href="#DejaVuSans-65"/>
       <use x="273.064453" xlink:href="#DejaVuSans-69"/>
       <use x="300.847656" xlink:href="#DejaVuSans-62"/>
       <use x="364.324219" xlink:href="#DejaVuSans-65"/>
       <use x="425.847656" xlink:href="#DejaVuSans-72"/>
       <use x="466.960938" xlink:href="#DejaVuSans-32"/>
       <use x="530.583984" xlink:href="#DejaVuSans-30"/>
       <use x="594.207031" xlink:href="#DejaVuSans-31"/>
       <use x="657.830078" xlink:href="#DejaVuSans-37"/>
       <use x="721.453125" xlink:href="#DejaVuSans-2f"/>
       <use x="755.144531" xlink:href="#DejaVuSans-6d"/>
       <use x="852.556641" xlink:href="#DejaVuSans-69"/>
       <use x="880.339844" xlink:href="#DejaVuSans-72"/>
       <use x="921.421875" xlink:href="#DejaVuSans-65"/>
       <use x="982.929688" xlink:href="#DejaVuSans-78"/>
       <use x="1042.109375" xlink:href="#DejaVuSans-32"/>
       <use x="1105.732422" xlink:href="#DejaVuSans-30"/>
       <use x="1169.355469" xlink:href="#DejaVuSans-31"/>
       <use x="1232.978516" xlink:href="#DejaVuSans-37"/>
      </g>
     </g>
    </g>
    <g id="ytick_2">
     <g id="line2d_17">
      <path clip-path="url(#p494008d637)" d="M 226.746875 254.52467 
L 617.346875 254.52467 
" style="fill:none;stroke:#b0b0b0;stroke-linecap:square;stroke-width:0.8;"/>
     </g>
     <g id="line2d_18">
      <g>
       <use style="stroke:#000000;stroke-width:0.8;" x="226.746875" xlink:href="#md606a731d9" y="254.52467"/>
      </g>
     </g>
     <g id="text_10">
      <!-- schreiber2017/ismir2017 -->
      <g transform="translate(94.164062 258.323889)scale(0.1 -0.1)">
       <use xlink:href="#DejaVuSans-73"/>
       <use x="52.099609" xlink:href="#DejaVuSans-63"/>
       <use x="107.080078" xlink:href="#DejaVuSans-68"/>
       <use x="170.458984" xlink:href="#DejaVuSans-72"/>
       <use x="211.541016" xlink:href="#DejaVuSans-65"/>
       <use x="273.064453" xlink:href="#DejaVuSans-69"/>
       <use x="300.847656" xlink:href="#DejaVuSans-62"/>
       <use x="364.324219" xlink:href="#DejaVuSans-65"/>
       <use x="425.847656" xlink:href="#DejaVuSans-72"/>
       <use x="466.960938" xlink:href="#DejaVuSans-32"/>
       <use x="530.583984" xlink:href="#DejaVuSans-30"/>
       <use x="594.207031" xlink:href="#DejaVuSans-31"/>
       <use x="657.830078" xlink:href="#DejaVuSans-37"/>
       <use x="721.453125" xlink:href="#DejaVuSans-2f"/>
       <use x="755.144531" xlink:href="#DejaVuSans-69"/>
       <use x="782.927734" xlink:href="#DejaVuSans-73"/>
       <use x="835.027344" xlink:href="#DejaVuSans-6d"/>
       <use x="932.439453" xlink:href="#DejaVuSans-69"/>
       <use x="960.222656" xlink:href="#DejaVuSans-72"/>
       <use x="1001.335938" xlink:href="#DejaVuSans-32"/>
       <use x="1064.958984" xlink:href="#DejaVuSans-30"/>
       <use x="1128.582031" xlink:href="#DejaVuSans-31"/>
       <use x="1192.205078" xlink:href="#DejaVuSans-37"/>
      </g>
     </g>
    </g>
    <g id="ytick_3">
     <g id="line2d_19">
      <path clip-path="url(#p494008d637)" d="M 226.746875 203.208307 
L 617.346875 203.208307 
" style="fill:none;stroke:#b0b0b0;stroke-linecap:square;stroke-width:0.8;"/>
     </g>
     <g id="line2d_20">
      <g>
       <use style="stroke:#000000;stroke-width:0.8;" x="226.746875" xlink:href="#md606a731d9" y="203.208307"/>
      </g>
     </g>
     <g id="text_11">
      <!-- schreiber2014/default -->
      <defs>
       <path d="M 37.796875 64.3125 
L 12.890625 25.390625 
L 37.796875 25.390625 
z
M 35.203125 72.90625 
L 47.609375 72.90625 
L 47.609375 25.390625 
L 58.015625 25.390625 
L 58.015625 17.1875 
L 47.609375 17.1875 
L 47.609375 0 
L 37.796875 0 
L 37.796875 17.1875 
L 4.890625 17.1875 
L 4.890625 26.703125 
z
" id="DejaVuSans-34"/>
       <path d="M 45.40625 46.390625 
L 45.40625 75.984375 
L 54.390625 75.984375 
L 54.390625 0 
L 45.40625 0 
L 45.40625 8.203125 
Q 42.578125 3.328125 38.25 0.953125 
Q 33.9375 -1.421875 27.875 -1.421875 
Q 17.96875 -1.421875 11.734375 6.484375 
Q 5.515625 14.40625 5.515625 27.296875 
Q 5.515625 40.1875 11.734375 48.09375 
Q 17.96875 56 27.875 56 
Q 33.9375 56 38.25 53.625 
Q 42.578125 51.265625 45.40625 46.390625 
z
M 14.796875 27.296875 
Q 14.796875 17.390625 18.875 11.75 
Q 22.953125 6.109375 30.078125 6.109375 
Q 37.203125 6.109375 41.296875 11.75 
Q 45.40625 17.390625 45.40625 27.296875 
Q 45.40625 37.203125 41.296875 42.84375 
Q 37.203125 48.484375 30.078125 48.484375 
Q 22.953125 48.484375 18.875 42.84375 
Q 14.796875 37.203125 14.796875 27.296875 
z
" id="DejaVuSans-64"/>
       <path d="M 37.109375 75.984375 
L 37.109375 68.5 
L 28.515625 68.5 
Q 23.6875 68.5 21.796875 66.546875 
Q 19.921875 64.59375 19.921875 59.515625 
L 19.921875 54.6875 
L 34.71875 54.6875 
L 34.71875 47.703125 
L 19.921875 47.703125 
L 19.921875 0 
L 10.890625 0 
L 10.890625 47.703125 
L 2.296875 47.703125 
L 2.296875 54.6875 
L 10.890625 54.6875 
L 10.890625 58.5 
Q 10.890625 67.625 15.140625 71.796875 
Q 19.390625 75.984375 28.609375 75.984375 
z
" id="DejaVuSans-66"/>
       <path d="M 34.28125 27.484375 
Q 23.390625 27.484375 19.1875 25 
Q 14.984375 22.515625 14.984375 16.5 
Q 14.984375 11.71875 18.140625 8.90625 
Q 21.296875 6.109375 26.703125 6.109375 
Q 34.1875 6.109375 38.703125 11.40625 
Q 43.21875 16.703125 43.21875 25.484375 
L 43.21875 27.484375 
z
M 52.203125 31.203125 
L 52.203125 0 
L 43.21875 0 
L 43.21875 8.296875 
Q 40.140625 3.328125 35.546875 0.953125 
Q 30.953125 -1.421875 24.3125 -1.421875 
Q 15.921875 -1.421875 10.953125 3.296875 
Q 6 8.015625 6 15.921875 
Q 6 25.140625 12.171875 29.828125 
Q 18.359375 34.515625 30.609375 34.515625 
L 43.21875 34.515625 
L 43.21875 35.40625 
Q 43.21875 41.609375 39.140625 45 
Q 35.0625 48.390625 27.6875 48.390625 
Q 23 48.390625 18.546875 47.265625 
Q 14.109375 46.140625 10.015625 43.890625 
L 10.015625 52.203125 
Q 14.9375 54.109375 19.578125 55.046875 
Q 24.21875 56 28.609375 56 
Q 40.484375 56 46.34375 49.84375 
Q 52.203125 43.703125 52.203125 31.203125 
z
" id="DejaVuSans-61"/>
       <path d="M 8.5 21.578125 
L 8.5 54.6875 
L 17.484375 54.6875 
L 17.484375 21.921875 
Q 17.484375 14.15625 20.5 10.265625 
Q 23.53125 6.390625 29.59375 6.390625 
Q 36.859375 6.390625 41.078125 11.03125 
Q 45.3125 15.671875 45.3125 23.6875 
L 45.3125 54.6875 
L 54.296875 54.6875 
L 54.296875 0 
L 45.3125 0 
L 45.3125 8.40625 
Q 42.046875 3.421875 37.71875 1 
Q 33.40625 -1.421875 27.6875 -1.421875 
Q 18.265625 -1.421875 13.375 4.4375 
Q 8.5 10.296875 8.5 21.578125 
z
M 31.109375 56 
z
" id="DejaVuSans-75"/>
       <path d="M 9.421875 75.984375 
L 18.40625 75.984375 
L 18.40625 0 
L 9.421875 0 
z
" id="DejaVuSans-6c"/>
       <path d="M 18.3125 70.21875 
L 18.3125 54.6875 
L 36.8125 54.6875 
L 36.8125 47.703125 
L 18.3125 47.703125 
L 18.3125 18.015625 
Q 18.3125 11.328125 20.140625 9.421875 
Q 21.96875 7.515625 27.59375 7.515625 
L 36.8125 7.515625 
L 36.8125 0 
L 27.59375 0 
Q 17.1875 0 13.234375 3.875 
Q 9.28125 7.765625 9.28125 18.015625 
L 9.28125 47.703125 
L 2.6875 47.703125 
L 2.6875 54.6875 
L 9.28125 54.6875 
L 9.28125 70.21875 
z
" id="DejaVuSans-74"/>
      </defs>
      <g transform="translate(109.045312 207.007526)scale(0.1 -0.1)">
       <use xlink:href="#DejaVuSans-73"/>
       <use x="52.099609" xlink:href="#DejaVuSans-63"/>
       <use x="107.080078" xlink:href="#DejaVuSans-68"/>
       <use x="170.458984" xlink:href="#DejaVuSans-72"/>
       <use x="211.541016" xlink:href="#DejaVuSans-65"/>
       <use x="273.064453" xlink:href="#DejaVuSans-69"/>
       <use x="300.847656" xlink:href="#DejaVuSans-62"/>
       <use x="364.324219" xlink:href="#DejaVuSans-65"/>
       <use x="425.847656" xlink:href="#DejaVuSans-72"/>
       <use x="466.960938" xlink:href="#DejaVuSans-32"/>
       <use x="530.583984" xlink:href="#DejaVuSans-30"/>
       <use x="594.207031" xlink:href="#DejaVuSans-31"/>
       <use x="657.830078" xlink:href="#DejaVuSans-34"/>
       <use x="721.453125" xlink:href="#DejaVuSans-2f"/>
       <use x="755.144531" xlink:href="#DejaVuSans-64"/>
       <use x="818.621094" xlink:href="#DejaVuSans-65"/>
       <use x="880.144531" xlink:href="#DejaVuSans-66"/>
       <use x="915.349609" xlink:href="#DejaVuSans-61"/>
       <use x="976.628906" xlink:href="#DejaVuSans-75"/>
       <use x="1040.007812" xlink:href="#DejaVuSans-6c"/>
       <use x="1067.791016" xlink:href="#DejaVuSans-74"/>
      </g>
     </g>
    </g>
    <g id="ytick_4">
     <g id="line2d_21">
      <path clip-path="url(#p494008d637)" d="M 226.746875 151.891943 
L 617.346875 151.891943 
" style="fill:none;stroke:#b0b0b0;stroke-linecap:square;stroke-width:0.8;"/>
     </g>
     <g id="line2d_22">
      <g>
       <use style="stroke:#000000;stroke-width:0.8;" x="226.746875" xlink:href="#md606a731d9" y="151.891943"/>
      </g>
     </g>
     <g id="text_12">
      <!-- percival2014/stem -->
      <defs>
       <path d="M 18.109375 8.203125 
L 18.109375 -20.796875 
L 9.078125 -20.796875 
L 9.078125 54.6875 
L 18.109375 54.6875 
L 18.109375 46.390625 
Q 20.953125 51.265625 25.265625 53.625 
Q 29.59375 56 35.59375 56 
Q 45.5625 56 51.78125 48.09375 
Q 58.015625 40.1875 58.015625 27.296875 
Q 58.015625 14.40625 51.78125 6.484375 
Q 45.5625 -1.421875 35.59375 -1.421875 
Q 29.59375 -1.421875 25.265625 0.953125 
Q 20.953125 3.328125 18.109375 8.203125 
z
M 48.6875 27.296875 
Q 48.6875 37.203125 44.609375 42.84375 
Q 40.53125 48.484375 33.40625 48.484375 
Q 26.265625 48.484375 22.1875 42.84375 
Q 18.109375 37.203125 18.109375 27.296875 
Q 18.109375 17.390625 22.1875 11.75 
Q 26.265625 6.109375 33.40625 6.109375 
Q 40.53125 6.109375 44.609375 11.75 
Q 48.6875 17.390625 48.6875 27.296875 
z
" id="DejaVuSans-70"/>
       <path d="M 2.984375 54.6875 
L 12.5 54.6875 
L 29.59375 8.796875 
L 46.6875 54.6875 
L 56.203125 54.6875 
L 35.6875 0 
L 23.484375 0 
z
" id="DejaVuSans-76"/>
      </defs>
      <g transform="translate(126.19375 155.691162)scale(0.1 -0.1)">
       <use xlink:href="#DejaVuSans-70"/>
       <use x="63.476562" xlink:href="#DejaVuSans-65"/>
       <use x="125" xlink:href="#DejaVuSans-72"/>
       <use x="166.082031" xlink:href="#DejaVuSans-63"/>
       <use x="221.0625" xlink:href="#DejaVuSans-69"/>
       <use x="248.845703" xlink:href="#DejaVuSans-76"/>
       <use x="308.025391" xlink:href="#DejaVuSans-61"/>
       <use x="369.304688" xlink:href="#DejaVuSans-6c"/>
       <use x="397.087891" xlink:href="#DejaVuSans-32"/>
       <use x="460.710938" xlink:href="#DejaVuSans-30"/>
       <use x="524.333984" xlink:href="#DejaVuSans-31"/>
       <use x="587.957031" xlink:href="#DejaVuSans-34"/>
       <use x="651.580078" xlink:href="#DejaVuSans-2f"/>
       <use x="685.271484" xlink:href="#DejaVuSans-73"/>
       <use x="737.371094" xlink:href="#DejaVuSans-74"/>
       <use x="776.580078" xlink:href="#DejaVuSans-65"/>
       <use x="838.103516" xlink:href="#DejaVuSans-6d"/>
      </g>
     </g>
    </g>
    <g id="ytick_5">
     <g id="line2d_23">
      <path clip-path="url(#p494008d637)" d="M 226.746875 100.57558 
L 617.346875 100.57558 
" style="fill:none;stroke:#b0b0b0;stroke-linecap:square;stroke-width:0.8;"/>
     </g>
     <g id="line2d_24">
      <g>
       <use style="stroke:#000000;stroke-width:0.8;" x="226.746875" xlink:href="#md606a731d9" y="100.57558"/>
      </g>
     </g>
     <g id="text_13">
      <!-- davies2009/mirex_qm_tempotracker -->
      <defs>
       <path d="M 10.984375 1.515625 
L 10.984375 10.5 
Q 14.703125 8.734375 18.5 7.8125 
Q 22.3125 6.890625 25.984375 6.890625 
Q 35.75 6.890625 40.890625 13.453125 
Q 46.046875 20.015625 46.78125 33.40625 
Q 43.953125 29.203125 39.59375 26.953125 
Q 35.25 24.703125 29.984375 24.703125 
Q 19.046875 24.703125 12.671875 31.3125 
Q 6.296875 37.9375 6.296875 49.421875 
Q 6.296875 60.640625 12.9375 67.421875 
Q 19.578125 74.21875 30.609375 74.21875 
Q 43.265625 74.21875 49.921875 64.515625 
Q 56.59375 54.828125 56.59375 36.375 
Q 56.59375 19.140625 48.40625 8.859375 
Q 40.234375 -1.421875 26.421875 -1.421875 
Q 22.703125 -1.421875 18.890625 -0.6875 
Q 15.09375 0.046875 10.984375 1.515625 
z
M 30.609375 32.421875 
Q 37.25 32.421875 41.125 36.953125 
Q 45.015625 41.5 45.015625 49.421875 
Q 45.015625 57.28125 41.125 61.84375 
Q 37.25 66.40625 30.609375 66.40625 
Q 23.96875 66.40625 20.09375 61.84375 
Q 16.21875 57.28125 16.21875 49.421875 
Q 16.21875 41.5 20.09375 36.953125 
Q 23.96875 32.421875 30.609375 32.421875 
z
" id="DejaVuSans-39"/>
       <path d="M 50.984375 -16.609375 
L 50.984375 -23.578125 
L -0.984375 -23.578125 
L -0.984375 -16.609375 
z
" id="DejaVuSans-5f"/>
       <path d="M 14.796875 27.296875 
Q 14.796875 17.390625 18.875 11.75 
Q 22.953125 6.109375 30.078125 6.109375 
Q 37.203125 6.109375 41.296875 11.75 
Q 45.40625 17.390625 45.40625 27.296875 
Q 45.40625 37.203125 41.296875 42.84375 
Q 37.203125 48.484375 30.078125 48.484375 
Q 22.953125 48.484375 18.875 42.84375 
Q 14.796875 37.203125 14.796875 27.296875 
z
M 45.40625 8.203125 
Q 42.578125 3.328125 38.25 0.953125 
Q 33.9375 -1.421875 27.875 -1.421875 
Q 17.96875 -1.421875 11.734375 6.484375 
Q 5.515625 14.40625 5.515625 27.296875 
Q 5.515625 40.1875 11.734375 48.09375 
Q 17.96875 56 27.875 56 
Q 33.9375 56 38.25 53.625 
Q 42.578125 51.265625 45.40625 46.390625 
L 45.40625 54.6875 
L 54.390625 54.6875 
L 54.390625 -20.796875 
L 45.40625 -20.796875 
z
" id="DejaVuSans-71"/>
       <path d="M 30.609375 48.390625 
Q 23.390625 48.390625 19.1875 42.75 
Q 14.984375 37.109375 14.984375 27.296875 
Q 14.984375 17.484375 19.15625 11.84375 
Q 23.34375 6.203125 30.609375 6.203125 
Q 37.796875 6.203125 41.984375 11.859375 
Q 46.1875 17.53125 46.1875 27.296875 
Q 46.1875 37.015625 41.984375 42.703125 
Q 37.796875 48.390625 30.609375 48.390625 
z
M 30.609375 56 
Q 42.328125 56 49.015625 48.375 
Q 55.71875 40.765625 55.71875 27.296875 
Q 55.71875 13.875 49.015625 6.21875 
Q 42.328125 -1.421875 30.609375 -1.421875 
Q 18.84375 -1.421875 12.171875 6.21875 
Q 5.515625 13.875 5.515625 27.296875 
Q 5.515625 40.765625 12.171875 48.375 
Q 18.84375 56 30.609375 56 
z
" id="DejaVuSans-6f"/>
       <path d="M 9.078125 75.984375 
L 18.109375 75.984375 
L 18.109375 31.109375 
L 44.921875 54.6875 
L 56.390625 54.6875 
L 27.390625 29.109375 
L 57.625 0 
L 45.90625 0 
L 18.109375 26.703125 
L 18.109375 0 
L 9.078125 0 
z
" id="DejaVuSans-6b"/>
      </defs>
      <g transform="translate(35.617187 104.374798)scale(0.1 -0.1)">
       <use xlink:href="#DejaVuSans-64"/>
       <use x="63.476562" xlink:href="#DejaVuSans-61"/>
       <use x="124.755859" xlink:href="#DejaVuSans-76"/>
       <use x="183.935547" xlink:href="#DejaVuSans-69"/>
       <use x="211.71875" xlink:href="#DejaVuSans-65"/>
       <use x="273.242188" xlink:href="#DejaVuSans-73"/>
       <use x="325.341797" xlink:href="#DejaVuSans-32"/>
       <use x="388.964844" xlink:href="#DejaVuSans-30"/>
       <use x="452.587891" xlink:href="#DejaVuSans-30"/>
       <use x="516.210938" xlink:href="#DejaVuSans-39"/>
       <use x="579.833984" xlink:href="#DejaVuSans-2f"/>
       <use x="613.525391" xlink:href="#DejaVuSans-6d"/>
       <use x="710.9375" xlink:href="#DejaVuSans-69"/>
       <use x="738.720703" xlink:href="#DejaVuSans-72"/>
       <use x="779.802734" xlink:href="#DejaVuSans-65"/>
       <use x="841.310547" xlink:href="#DejaVuSans-78"/>
       <use x="900.490234" xlink:href="#DejaVuSans-5f"/>
       <use x="950.490234" xlink:href="#DejaVuSans-71"/>
       <use x="1013.966797" xlink:href="#DejaVuSans-6d"/>
       <use x="1111.378906" xlink:href="#DejaVuSans-5f"/>
       <use x="1161.378906" xlink:href="#DejaVuSans-74"/>
       <use x="1200.587891" xlink:href="#DejaVuSans-65"/>
       <use x="1262.111328" xlink:href="#DejaVuSans-6d"/>
       <use x="1359.523438" xlink:href="#DejaVuSans-70"/>
       <use x="1423" xlink:href="#DejaVuSans-6f"/>
       <use x="1484.181641" xlink:href="#DejaVuSans-74"/>
       <use x="1523.390625" xlink:href="#DejaVuSans-72"/>
       <use x="1564.503906" xlink:href="#DejaVuSans-61"/>
       <use x="1625.783203" xlink:href="#DejaVuSans-63"/>
       <use x="1680.763672" xlink:href="#DejaVuSans-6b"/>
       <use x="1738.626953" xlink:href="#DejaVuSans-65"/>
       <use x="1800.150391" xlink:href="#DejaVuSans-72"/>
      </g>
     </g>
    </g>
    <g id="ytick_6">
     <g id="line2d_25">
      <path clip-path="url(#p494008d637)" d="M 226.746875 49.259216 
L 617.346875 49.259216 
" style="fill:none;stroke:#b0b0b0;stroke-linecap:square;stroke-width:0.8;"/>
     </g>
     <g id="line2d_26">
      <g>
       <use style="stroke:#000000;stroke-width:0.8;" x="226.746875" xlink:href="#md606a731d9" y="49.259216"/>
      </g>
     </g>
     <g id="text_14">
      <!-- boeck2015/tempodetector2016_default -->
      <defs>
       <path d="M 33.015625 40.375 
Q 26.375 40.375 22.484375 35.828125 
Q 18.609375 31.296875 18.609375 23.390625 
Q 18.609375 15.53125 22.484375 10.953125 
Q 26.375 6.390625 33.015625 6.390625 
Q 39.65625 6.390625 43.53125 10.953125 
Q 47.40625 15.53125 47.40625 23.390625 
Q 47.40625 31.296875 43.53125 35.828125 
Q 39.65625 40.375 33.015625 40.375 
z
M 52.59375 71.296875 
L 52.59375 62.3125 
Q 48.875 64.0625 45.09375 64.984375 
Q 41.3125 65.921875 37.59375 65.921875 
Q 27.828125 65.921875 22.671875 59.328125 
Q 17.53125 52.734375 16.796875 39.40625 
Q 19.671875 43.65625 24.015625 45.921875 
Q 28.375 48.1875 33.59375 48.1875 
Q 44.578125 48.1875 50.953125 41.515625 
Q 57.328125 34.859375 57.328125 23.390625 
Q 57.328125 12.15625 50.6875 5.359375 
Q 44.046875 -1.421875 33.015625 -1.421875 
Q 20.359375 -1.421875 13.671875 8.265625 
Q 6.984375 17.96875 6.984375 36.375 
Q 6.984375 53.65625 15.1875 63.9375 
Q 23.390625 74.21875 37.203125 74.21875 
Q 40.921875 74.21875 44.703125 73.484375 
Q 48.484375 72.75 52.59375 71.296875 
z
" id="DejaVuSans-36"/>
      </defs>
      <g transform="translate(20.878125 53.058435)scale(0.1 -0.1)">
       <use xlink:href="#DejaVuSans-62"/>
       <use x="63.476562" xlink:href="#DejaVuSans-6f"/>
       <use x="124.658203" xlink:href="#DejaVuSans-65"/>
       <use x="186.181641" xlink:href="#DejaVuSans-63"/>
       <use x="241.162109" xlink:href="#DejaVuSans-6b"/>
       <use x="299.072266" xlink:href="#DejaVuSans-32"/>
       <use x="362.695312" xlink:href="#DejaVuSans-30"/>
       <use x="426.318359" xlink:href="#DejaVuSans-31"/>
       <use x="489.941406" xlink:href="#DejaVuSans-35"/>
       <use x="553.564453" xlink:href="#DejaVuSans-2f"/>
       <use x="587.255859" xlink:href="#DejaVuSans-74"/>
       <use x="626.464844" xlink:href="#DejaVuSans-65"/>
       <use x="687.988281" xlink:href="#DejaVuSans-6d"/>
       <use x="785.400391" xlink:href="#DejaVuSans-70"/>
       <use x="848.876953" xlink:href="#DejaVuSans-6f"/>
       <use x="910.058594" xlink:href="#DejaVuSans-64"/>
       <use x="973.535156" xlink:href="#DejaVuSans-65"/>
       <use x="1035.058594" xlink:href="#DejaVuSans-74"/>
       <use x="1074.267578" xlink:href="#DejaVuSans-65"/>
       <use x="1135.791016" xlink:href="#DejaVuSans-63"/>
       <use x="1190.771484" xlink:href="#DejaVuSans-74"/>
       <use x="1229.980469" xlink:href="#DejaVuSans-6f"/>
       <use x="1291.162109" xlink:href="#DejaVuSans-72"/>
       <use x="1332.275391" xlink:href="#DejaVuSans-32"/>
       <use x="1395.898438" xlink:href="#DejaVuSans-30"/>
       <use x="1459.521484" xlink:href="#DejaVuSans-31"/>
       <use x="1523.144531" xlink:href="#DejaVuSans-36"/>
       <use x="1586.767578" xlink:href="#DejaVuSans-5f"/>
       <use x="1636.767578" xlink:href="#DejaVuSans-64"/>
       <use x="1700.244141" xlink:href="#DejaVuSans-65"/>
       <use x="1761.767578" xlink:href="#DejaVuSans-66"/>
       <use x="1796.972656" xlink:href="#DejaVuSans-61"/>
       <use x="1858.251953" xlink:href="#DejaVuSans-75"/>
       <use x="1921.630859" xlink:href="#DejaVuSans-6c"/>
       <use x="1949.414062" xlink:href="#DejaVuSans-74"/>
      </g>
     </g>
    </g>
    <g id="text_15">
     <!-- Estimator -->
     <g transform="translate(14.798437 201.672781)rotate(-90)scale(0.1 -0.1)">
      <use xlink:href="#DejaVuSans-45"/>
      <use x="63.183594" xlink:href="#DejaVuSans-73"/>
      <use x="115.283203" xlink:href="#DejaVuSans-74"/>
      <use x="154.492188" xlink:href="#DejaVuSans-69"/>
      <use x="182.275391" xlink:href="#DejaVuSans-6d"/>
      <use x="279.6875" xlink:href="#DejaVuSans-61"/>
      <use x="340.966797" xlink:href="#DejaVuSans-74"/>
      <use x="380.175781" xlink:href="#DejaVuSans-6f"/>
      <use x="441.357422" xlink:href="#DejaVuSans-72"/>
     </g>
    </g>
   </g>
   <g id="PolyCollection_1">
    <path clip-path="url(#p494008d637)" d="M 226.784979 293.019291 
L 226.784979 318.662777 
L 229.514738 318.670125 
L 232.244497 318.592396 
L 234.974256 318.431577 
L 237.704015 318.191357 
L 240.433774 317.877012 
L 243.163533 317.495232 
L 245.893292 317.053906 
L 248.623051 316.561876 
L 251.35281 316.028666 
L 254.082568 315.4642 
L 256.812327 314.878524 
L 259.542086 314.281536 
L 262.271845 313.68274 
L 265.001604 313.09103 
L 267.731363 312.514511 
L 270.461122 311.960356 
L 273.190881 311.434712 
L 275.92064 310.942643 
L 278.650399 310.488116 
L 281.380158 310.074017 
L 284.109917 309.702206 
L 286.839675 309.37359 
L 289.569434 309.088214 
L 292.299193 308.84537 
L 295.028952 308.643702 
L 297.758711 308.481319 
L 300.48847 308.355898 
L 303.218229 308.264782 
L 305.947988 308.205065 
L 308.677747 308.173664 
L 311.407506 308.167387 
L 314.137265 308.18298 
L 316.867023 308.217167 
L 319.596782 308.266685 
L 322.326541 308.328314 
L 325.0563 308.398897 
L 327.786059 308.475365 
L 330.515818 308.554761 
L 333.245577 308.634262 
L 335.975336 308.711214 
L 338.705095 308.783151 
L 341.434854 308.847839 
L 344.164613 308.903299 
L 346.894372 308.947843 
L 349.62413 308.980105 
L 352.353889 308.999061 
L 355.083648 309.004052 
L 357.813407 308.994791 
L 360.543166 308.971363 
L 363.272925 308.934215 
L 366.002684 308.884132 
L 368.732443 308.82221 
L 371.462202 308.749804 
L 374.191961 308.668485 
L 376.92172 308.579975 
L 379.651478 308.486089 
L 382.381237 308.388669 
L 385.110996 308.289519 
L 387.840755 308.190349 
L 390.570514 308.092717 
L 393.300273 307.997988 
L 396.030032 307.907297 
L 398.759791 307.821524 
L 401.48955 307.741285 
L 404.219309 307.666929 
L 406.949068 307.598552 
L 409.678827 307.536014 
L 412.408585 307.478975 
L 415.138344 307.426926 
L 417.868103 307.379231 
L 420.597862 307.335174 
L 423.327621 307.293996 
L 426.05738 307.254943 
L 428.787139 307.217296 
L 431.516898 307.180411 
L 434.246657 307.143736 
L 436.976416 307.106833 
L 439.706175 307.069388 
L 442.435933 307.031212 
L 445.165692 306.99224 
L 447.895451 306.952514 
L 450.62521 306.912173 
L 453.354969 306.871432 
L 456.084728 306.830558 
L 458.814487 306.789853 
L 461.544246 306.749624 
L 464.274005 306.710168 
L 467.003764 306.671755 
L 469.733523 306.634609 
L 472.463282 306.598899 
L 475.19304 306.564737 
L 477.922799 306.532169 
L 480.652558 306.501184 
L 483.382317 306.471715 
L 486.112076 306.443646 
L 488.841835 306.416829 
L 491.571594 306.391087 
L 494.301353 306.366235 
L 497.031112 306.342084 
L 497.031112 305.339984 
L 497.031112 305.339984 
L 494.301353 305.315833 
L 491.571594 305.290981 
L 488.841835 305.26524 
L 486.112076 305.238422 
L 483.382317 305.210354 
L 480.652558 305.180884 
L 477.922799 305.149899 
L 475.19304 305.117331 
L 472.463282 305.083169 
L 469.733523 305.047459 
L 467.003764 305.010313 
L 464.274005 304.9719 
L 461.544246 304.932445 
L 458.814487 304.892216 
L 456.084728 304.85151 
L 453.354969 304.810637 
L 450.62521 304.769895 
L 447.895451 304.729554 
L 445.165692 304.689828 
L 442.435933 304.650856 
L 439.706175 304.612681 
L 436.976416 304.575236 
L 434.246657 304.538333 
L 431.516898 304.501657 
L 428.787139 304.464772 
L 426.05738 304.427126 
L 423.327621 304.388072 
L 420.597862 304.346894 
L 417.868103 304.302837 
L 415.138344 304.255142 
L 412.408585 304.203093 
L 409.678827 304.146054 
L 406.949068 304.083517 
L 404.219309 304.015139 
L 401.48955 303.940783 
L 398.759791 303.860544 
L 396.030032 303.774771 
L 393.300273 303.68408 
L 390.570514 303.589351 
L 387.840755 303.491719 
L 385.110996 303.392549 
L 382.381237 303.293399 
L 379.651478 303.195979 
L 376.92172 303.102094 
L 374.191961 303.013584 
L 371.462202 302.932264 
L 368.732443 302.859858 
L 366.002684 302.797936 
L 363.272925 302.747854 
L 360.543166 302.710705 
L 357.813407 302.687277 
L 355.083648 302.678016 
L 352.353889 302.683007 
L 349.62413 302.701963 
L 346.894372 302.734225 
L 344.164613 302.778769 
L 341.434854 302.834229 
L 338.705095 302.898917 
L 335.975336 302.970855 
L 333.245577 303.047806 
L 330.515818 303.127307 
L 327.786059 303.206703 
L 325.0563 303.283171 
L 322.326541 303.353754 
L 319.596782 303.415383 
L 316.867023 303.464902 
L 314.137265 303.499088 
L 311.407506 303.514681 
L 308.677747 303.508404 
L 305.947988 303.477004 
L 303.218229 303.417286 
L 300.48847 303.32617 
L 297.758711 303.200749 
L 295.028952 303.038366 
L 292.299193 302.836699 
L 289.569434 302.593854 
L 286.839675 302.308479 
L 284.109917 301.979862 
L 281.380158 301.608051 
L 278.650399 301.193952 
L 275.92064 300.739425 
L 273.190881 300.247356 
L 270.461122 299.721712 
L 267.731363 299.167557 
L 265.001604 298.591038 
L 262.271845 297.999328 
L 259.542086 297.400532 
L 256.812327 296.803544 
L 254.082568 296.217868 
L 251.35281 295.653402 
L 248.623051 295.120192 
L 245.893292 294.628162 
L 243.163533 294.186836 
L 240.433774 293.805056 
L 237.704015 293.490711 
L 234.974256 293.250491 
L 232.244497 293.089672 
L 229.514738 293.011943 
L 226.784979 293.019291 
z
" style="fill:#ff0000;fill-opacity:0.75;"/>
   </g>
   <g id="PolyCollection_2">
    <path clip-path="url(#p494008d637)" d="M 226.784979 241.705814 
L 226.784979 267.343527 
L 229.514738 267.353761 
L 232.244497 267.2767 
L 234.974256 267.114328 
L 237.704015 266.870422 
L 240.433774 266.550415 
L 243.163533 266.161225 
L 245.893292 265.711017 
L 248.623051 265.208947 
L 251.35281 264.664873 
L 254.082568 264.089051 
L 256.812327 263.491844 
L 259.542086 262.883436 
L 262.271845 262.273571 
L 265.001604 261.671327 
L 267.731363 261.084932 
L 270.461122 260.52162 
L 273.190881 259.987531 
L 275.92064 259.487667 
L 278.650399 259.025876 
L 281.380158 258.604885 
L 284.109917 258.226361 
L 286.839675 257.890999 
L 289.569434 257.598628 
L 292.299193 257.348326 
L 295.028952 257.138544 
L 297.758711 256.967225 
L 300.48847 256.831919 
L 303.218229 256.729883 
L 305.947988 256.658177 
L 308.677747 256.613735 
L 311.407506 256.593434 
L 314.137265 256.594136 
L 316.867023 256.612732 
L 319.596782 256.646164 
L 322.326541 256.69145 
L 325.0563 256.7457 
L 327.786059 256.806127 
L 330.515818 256.870064 
L 333.245577 256.934982 
L 335.975336 256.998505 
L 338.705095 257.058432 
L 341.434854 257.112767 
L 344.164613 257.159738 
L 346.894372 257.197828 
L 349.62413 257.225799 
L 352.353889 257.242717 
L 355.083648 257.247964 
L 357.813407 257.241252 
L 360.543166 257.222624 
L 363.272925 257.192444 
L 366.002684 257.15138 
L 368.732443 257.100375 
L 371.462202 257.040608 
L 374.191961 256.973451 
L 376.92172 256.90041 
L 379.651478 256.823075 
L 382.381237 256.743056 
L 385.110996 256.661925 
L 387.840755 256.581164 
L 390.570514 256.502111 
L 393.300273 256.425923 
L 396.030032 256.353542 
L 398.759791 256.285673 
L 401.48955 256.222774 
L 404.219309 256.16506 
L 406.949068 256.11251 
L 409.678827 256.064894 
L 412.408585 256.021799 
L 415.138344 255.982669 
L 417.868103 255.946838 
L 420.597862 255.913581 
L 423.327621 255.882149 
L 426.05738 255.851814 
L 428.787139 255.821898 
L 431.516898 255.79181 
L 434.246657 255.761062 
L 436.976416 255.729289 
L 439.706175 255.696257 
L 442.435933 255.661859 
L 445.165692 255.626112 
L 447.895451 255.589142 
L 450.62521 255.55117 
L 453.354969 255.512485 
L 456.084728 255.473425 
L 458.814487 255.434351 
L 461.544246 255.395627 
L 464.274005 255.357595 
L 467.003764 255.320557 
L 469.733523 255.284767 
L 472.463282 255.250411 
L 475.19304 255.217611 
L 477.922799 255.186417 
L 480.652558 255.156817 
L 483.382317 255.128735 
L 486.112076 255.102048 
L 488.841835 255.076596 
L 491.571594 255.05219 
L 494.301353 255.028633 
L 497.031112 255.005725 
L 497.031112 254.043616 
L 497.031112 254.043616 
L 494.301353 254.020708 
L 491.571594 253.997151 
L 488.841835 253.972745 
L 486.112076 253.947292 
L 483.382317 253.920606 
L 480.652558 253.892524 
L 477.922799 253.862923 
L 475.19304 253.83173 
L 472.463282 253.79893 
L 469.733523 253.764574 
L 467.003764 253.728783 
L 464.274005 253.691746 
L 461.544246 253.653714 
L 458.814487 253.61499 
L 456.084728 253.575916 
L 453.354969 253.536856 
L 450.62521 253.498171 
L 447.895451 253.460198 
L 445.165692 253.423229 
L 442.435933 253.387482 
L 439.706175 253.353084 
L 436.976416 253.320052 
L 434.246657 253.288279 
L 431.516898 253.257531 
L 428.787139 253.227443 
L 426.05738 253.197527 
L 423.327621 253.167192 
L 420.597862 253.13576 
L 417.868103 253.102503 
L 415.138344 253.066672 
L 412.408585 253.027541 
L 409.678827 252.984447 
L 406.949068 252.936831 
L 404.219309 252.884281 
L 401.48955 252.826567 
L 398.759791 252.763668 
L 396.030032 252.695799 
L 393.300273 252.623418 
L 390.570514 252.54723 
L 387.840755 252.468177 
L 385.110996 252.387416 
L 382.381237 252.306285 
L 379.651478 252.226266 
L 376.92172 252.148931 
L 374.191961 252.07589 
L 371.462202 252.008733 
L 368.732443 251.948966 
L 366.002684 251.897961 
L 363.272925 251.856897 
L 360.543166 251.826717 
L 357.813407 251.808089 
L 355.083648 251.801377 
L 352.353889 251.806624 
L 349.62413 251.823542 
L 346.894372 251.851513 
L 344.164613 251.889603 
L 341.434854 251.936574 
L 338.705095 251.990908 
L 335.975336 252.050836 
L 333.245577 252.114359 
L 330.515818 252.179277 
L 327.786059 252.243214 
L 325.0563 252.303641 
L 322.326541 252.357891 
L 319.596782 252.403177 
L 316.867023 252.436609 
L 314.137265 252.455205 
L 311.407506 252.455907 
L 308.677747 252.435606 
L 305.947988 252.391164 
L 303.218229 252.319458 
L 300.48847 252.217422 
L 297.758711 252.082115 
L 295.028952 251.910797 
L 292.299193 251.701015 
L 289.569434 251.450713 
L 286.839675 251.158342 
L 284.109917 250.82298 
L 281.380158 250.444456 
L 278.650399 250.023465 
L 275.92064 249.561674 
L 273.190881 249.061809 
L 270.461122 248.527721 
L 267.731363 247.964409 
L 265.001604 247.378014 
L 262.271845 246.77577 
L 259.542086 246.165905 
L 256.812327 245.557497 
L 254.082568 244.96029 
L 251.35281 244.384468 
L 248.623051 243.840394 
L 245.893292 243.338324 
L 243.163533 242.888116 
L 240.433774 242.498926 
L 237.704015 242.178919 
L 234.974256 241.935013 
L 232.244497 241.772641 
L 229.514738 241.69558 
L 226.784979 241.705814 
z
" style="fill:#ff0000;fill-opacity:0.75;"/>
   </g>
   <g id="PolyCollection_3">
    <path clip-path="url(#p494008d637)" d="M 226.784979 190.632593 
L 226.784979 215.784021 
L 228.915627 215.952877 
L 231.046276 216.037398 
L 233.176924 216.036871 
L 235.307572 215.952443 
L 237.43822 215.787067 
L 239.568868 215.545393 
L 241.699516 215.233591 
L 243.830164 214.859136 
L 245.960812 214.430547 
L 248.09146 213.957096 
L 250.222108 213.448513 
L 252.352756 212.914686 
L 254.483404 212.365373 
L 256.614053 211.80994 
L 258.744701 211.257129 
L 260.875349 210.714872 
L 263.005997 210.190142 
L 265.136645 209.688852 
L 267.267293 209.215805 
L 269.397941 208.774677 
L 271.528589 208.368049 
L 273.659237 207.997468 
L 275.789885 207.663529 
L 277.920533 207.365991 
L 280.051181 207.103894 
L 282.18183 206.87569 
L 284.312478 206.679376 
L 286.443126 206.512619 
L 288.573774 206.372885 
L 290.704422 206.25754 
L 292.83507 206.16396 
L 294.965718 206.089607 
L 297.096366 206.032102 
L 299.227014 205.989276 
L 301.357662 205.959207 
L 303.48831 205.940242 
L 305.618958 205.930997 
L 307.749607 205.930354 
L 309.880255 205.937431 
L 312.010903 205.951552 
L 314.141551 205.972203 
L 316.272199 205.998977 
L 318.402847 206.031521 
L 320.533495 206.069476 
L 322.664143 206.112425 
L 324.794791 206.159839 
L 326.925439 206.211033 
L 329.056087 206.265136 
L 331.186735 206.321068 
L 333.317384 206.377539 
L 335.448032 206.433053 
L 337.57868 206.48594 
L 339.709328 206.534389 
L 341.839976 206.576507 
L 343.970624 206.610377 
L 346.101272 206.634132 
L 348.23192 206.646023 
L 350.362568 206.644497 
L 352.493216 206.62826 
L 354.623864 206.596342 
L 356.754513 206.548136 
L 358.885161 206.483439 
L 361.015809 206.402464 
L 363.146457 206.305842 
L 365.277105 206.194604 
L 367.407753 206.070148 
L 369.538401 205.934192 
L 371.669049 205.788714 
L 373.799697 205.635887 
L 375.930345 205.478006 
L 378.060993 205.317414 
L 380.191641 205.15643 
L 382.32229 204.997284 
L 384.452938 204.842052 
L 386.583586 204.692611 
L 388.714234 204.550596 
L 390.844882 204.417373 
L 392.97553 204.29402 
L 395.106178 204.18132 
L 397.236826 204.079769 
L 399.367474 203.989581 
L 401.498122 203.910715 
L 403.62877 203.842896 
L 405.759418 203.785644 
L 407.890067 203.738309 
L 410.020715 203.700099 
L 412.151363 203.670117 
L 414.282011 203.647393 
L 416.412659 203.630912 
L 418.543307 203.619642 
L 420.673955 203.612564 
L 422.804603 203.608689 
L 424.935251 203.60708 
L 427.065899 203.606872 
L 429.196547 203.607279 
L 431.327195 203.607611 
L 433.457844 203.607275 
L 435.588492 203.605787 
L 437.71914 203.602767 
L 437.71914 202.813847 
L 437.71914 202.813847 
L 435.588492 202.810827 
L 433.457844 202.809338 
L 431.327195 202.809003 
L 429.196547 202.809334 
L 427.065899 202.809742 
L 424.935251 202.809533 
L 422.804603 202.807925 
L 420.673955 202.80405 
L 418.543307 202.796971 
L 416.412659 202.785702 
L 414.282011 202.769221 
L 412.151363 202.746497 
L 410.020715 202.716515 
L 407.890067 202.678305 
L 405.759418 202.630969 
L 403.62877 202.573718 
L 401.498122 202.505899 
L 399.367474 202.427033 
L 397.236826 202.336845 
L 395.106178 202.235293 
L 392.97553 202.122594 
L 390.844882 201.99924 
L 388.714234 201.866017 
L 386.583586 201.724003 
L 384.452938 201.574562 
L 382.32229 201.41933 
L 380.191641 201.260183 
L 378.060993 201.0992 
L 375.930345 200.938608 
L 373.799697 200.780727 
L 371.669049 200.6279 
L 369.538401 200.482422 
L 367.407753 200.346465 
L 365.277105 200.222009 
L 363.146457 200.110772 
L 361.015809 200.01415 
L 358.885161 199.933175 
L 356.754513 199.868478 
L 354.623864 199.820272 
L 352.493216 199.788353 
L 350.362568 199.772117 
L 348.23192 199.770591 
L 346.101272 199.782482 
L 343.970624 199.806236 
L 341.839976 199.840106 
L 339.709328 199.882224 
L 337.57868 199.930674 
L 335.448032 199.98356 
L 333.317384 200.039075 
L 331.186735 200.095546 
L 329.056087 200.151478 
L 326.925439 200.205581 
L 324.794791 200.256775 
L 322.664143 200.304188 
L 320.533495 200.347137 
L 318.402847 200.385093 
L 316.272199 200.417636 
L 314.141551 200.44441 
L 312.010903 200.465061 
L 309.880255 200.479183 
L 307.749607 200.48626 
L 305.618958 200.485616 
L 303.48831 200.476372 
L 301.357662 200.457406 
L 299.227014 200.427337 
L 297.096366 200.384511 
L 294.965718 200.327006 
L 292.83507 200.252653 
L 290.704422 200.159073 
L 288.573774 200.043729 
L 286.443126 199.903994 
L 284.312478 199.737238 
L 282.18183 199.540923 
L 280.051181 199.312719 
L 277.920533 199.050622 
L 275.789885 198.753084 
L 273.659237 198.419146 
L 271.528589 198.048564 
L 269.397941 197.641937 
L 267.267293 197.200809 
L 265.136645 196.727761 
L 263.005997 196.226472 
L 260.875349 195.701741 
L 258.744701 195.159484 
L 256.614053 194.606674 
L 254.483404 194.05124 
L 252.352756 193.501927 
L 250.222108 192.968101 
L 248.09146 192.459518 
L 245.960812 191.986067 
L 243.830164 191.557477 
L 241.699516 191.183023 
L 239.568868 190.871221 
L 237.43822 190.629546 
L 235.307572 190.46417 
L 233.176924 190.379743 
L 231.046276 190.379216 
L 228.915627 190.463736 
L 226.784979 190.632593 
z
" style="fill:#ff0000;fill-opacity:0.75;"/>
   </g>
   <g id="PolyCollection_4">
    <path clip-path="url(#p494008d637)" d="M 226.792651 139.062852 
L 226.792651 164.721034 
L 228.41365 164.71744 
L 230.03465 164.661338 
L 231.655649 164.553417 
L 233.276649 164.394995 
L 234.897648 164.187995 
L 236.518648 163.934903 
L 238.139647 163.638722 
L 239.760647 163.302907 
L 241.381646 162.931306 
L 243.002646 162.528081 
L 244.623646 162.097633 
L 246.244645 161.644522 
L 247.865645 161.173389 
L 249.486644 160.688877 
L 251.107644 160.195559 
L 252.728643 159.697867 
L 254.349643 159.200032 
L 255.970642 158.706027 
L 257.591642 158.219525 
L 259.212641 157.743859 
L 260.833641 157.281997 
L 262.45464 156.836522 
L 264.07564 156.409625 
L 265.696639 156.003105 
L 267.317639 155.618374 
L 268.938639 155.256478 
L 270.559638 154.91811 
L 272.180638 154.603645 
L 273.801637 154.313163 
L 275.422637 154.046486 
L 277.043636 153.803213 
L 278.664636 153.582755 
L 280.285635 153.384369 
L 281.906635 153.207197 
L 283.527634 153.050295 
L 285.148634 152.912667 
L 286.769633 152.793289 
L 288.390633 152.691139 
L 290.011632 152.605213 
L 291.632632 152.534549 
L 293.253631 152.478235 
L 294.874631 152.435422 
L 296.495631 152.405333 
L 298.11663 152.387264 
L 299.73763 152.380585 
L 301.358629 152.384739 
L 302.979629 152.399235 
L 304.600628 152.423642 
L 306.221628 152.457581 
L 307.842627 152.500711 
L 309.463627 152.552719 
L 311.084626 152.613308 
L 312.705626 152.682182 
L 314.326625 152.759035 
L 315.947625 152.843534 
L 317.568624 152.935312 
L 319.189624 153.03395 
L 320.810624 153.138975 
L 322.431623 153.249844 
L 324.052623 153.365944 
L 325.673622 153.486581 
L 327.294622 153.610985 
L 328.915621 153.738308 
L 330.536621 153.867623 
L 332.15762 153.997938 
L 333.77862 154.128196 
L 335.399619 154.257291 
L 337.020619 154.38408 
L 338.641618 154.507394 
L 340.262618 154.626061 
L 341.883617 154.738917 
L 343.504617 154.844827 
L 345.125617 154.942706 
L 346.746616 155.031532 
L 348.367616 155.110369 
L 349.988615 155.17838 
L 351.609615 155.234845 
L 353.230614 155.279169 
L 354.851614 155.310899 
L 356.472613 155.329728 
L 358.093613 155.3355 
L 359.714612 155.328214 
L 361.335612 155.308019 
L 362.956611 155.275216 
L 364.577611 155.230246 
L 366.19861 155.173681 
L 367.81961 155.106215 
L 369.44061 155.028647 
L 371.061609 154.941865 
L 372.682609 154.846833 
L 374.303608 154.744569 
L 375.924608 154.636127 
L 377.545607 154.522583 
L 379.166607 154.405015 
L 380.787606 154.284485 
L 382.408606 154.162027 
L 384.029605 154.038632 
L 385.650605 153.915236 
L 387.271604 153.79271 
L 387.271604 149.991176 
L 387.271604 149.991176 
L 385.650605 149.86865 
L 384.029605 149.745254 
L 382.408606 149.621859 
L 380.787606 149.499402 
L 379.166607 149.378871 
L 377.545607 149.261303 
L 375.924608 149.147759 
L 374.303608 149.039317 
L 372.682609 148.937053 
L 371.061609 148.842021 
L 369.44061 148.75524 
L 367.81961 148.677672 
L 366.19861 148.610206 
L 364.577611 148.553641 
L 362.956611 148.50867 
L 361.335612 148.475867 
L 359.714612 148.455673 
L 358.093613 148.448386 
L 356.472613 148.454158 
L 354.851614 148.472987 
L 353.230614 148.504717 
L 351.609615 148.549042 
L 349.988615 148.605506 
L 348.367616 148.673517 
L 346.746616 148.752354 
L 345.125617 148.84118 
L 343.504617 148.939059 
L 341.883617 149.04497 
L 340.262618 149.157825 
L 338.641618 149.276492 
L 337.020619 149.399807 
L 335.399619 149.526595 
L 333.77862 149.655691 
L 332.15762 149.785949 
L 330.536621 149.916263 
L 328.915621 150.045579 
L 327.294622 150.172901 
L 325.673622 150.297306 
L 324.052623 150.417943 
L 322.431623 150.534042 
L 320.810624 150.644911 
L 319.189624 150.749936 
L 317.568624 150.848575 
L 315.947625 150.940352 
L 314.326625 151.024851 
L 312.705626 151.101704 
L 311.084626 151.170579 
L 309.463627 151.231168 
L 307.842627 151.283176 
L 306.221628 151.326306 
L 304.600628 151.360244 
L 302.979629 151.384652 
L 301.358629 151.399148 
L 299.73763 151.403302 
L 298.11663 151.396623 
L 296.495631 151.378554 
L 294.874631 151.348465 
L 293.253631 151.305652 
L 291.632632 151.249337 
L 290.011632 151.178673 
L 288.390633 151.092748 
L 286.769633 150.990598 
L 285.148634 150.87122 
L 283.527634 150.733591 
L 281.906635 150.576689 
L 280.285635 150.399517 
L 278.664636 150.201132 
L 277.043636 149.980673 
L 275.422637 149.737401 
L 273.801637 149.470724 
L 272.180638 149.180242 
L 270.559638 148.865776 
L 268.938639 148.527409 
L 267.317639 148.165512 
L 265.696639 147.780782 
L 264.07564 147.374261 
L 262.45464 146.947364 
L 260.833641 146.501889 
L 259.212641 146.040027 
L 257.591642 145.564362 
L 255.970642 145.07786 
L 254.349643 144.583855 
L 252.728643 144.086019 
L 251.107644 143.588327 
L 249.486644 143.095009 
L 247.865645 142.610497 
L 246.244645 142.139364 
L 244.623646 141.686253 
L 243.002646 141.255805 
L 241.381646 140.85258 
L 239.760647 140.480979 
L 238.139647 140.145165 
L 236.518648 139.848983 
L 234.897648 139.595891 
L 233.276649 139.388891 
L 231.655649 139.230469 
L 230.03465 139.122548 
L 228.41365 139.066446 
L 226.792651 139.062852 
z
" style="fill:#ff0000;fill-opacity:0.75;"/>
   </g>
   <g id="PolyCollection_5">
    <path clip-path="url(#p494008d637)" d="M 227.145047 87.816996 
L 227.145047 113.334163 
L 229.799829 113.40467 
L 232.454612 113.397406 
L 235.109394 113.313405 
L 237.764177 113.15524 
L 240.418959 112.926945 
L 243.073742 112.63389 
L 245.728525 112.282634 
L 248.383307 111.880726 
L 251.03809 111.436501 
L 253.692872 110.958852 
L 256.347655 110.457007 
L 259.002437 109.940304 
L 261.65722 109.417983 
L 264.312002 108.898999 
L 266.966785 108.391862 
L 269.621567 107.904499 
L 272.27635 107.444157 
L 274.931132 107.017326 
L 277.585915 106.6297 
L 280.240697 106.286156 
L 282.89548 105.990753 
L 285.550262 105.746754 
L 288.205045 105.55665 
L 290.859828 105.422189 
L 293.51461 105.34441 
L 296.169393 105.323664 
L 298.824175 105.359638 
L 301.478958 105.451363 
L 304.13374 105.597215 
L 306.788523 105.794907 
L 309.443305 106.041484 
L 312.098088 106.333304 
L 314.75287 106.666035 
L 317.407653 107.034652 
L 320.062435 107.433445 
L 322.717218 107.856058 
L 325.372 108.295531 
L 328.026783 108.744376 
L 330.681566 109.194683 
L 333.336348 109.638237 
L 335.991131 110.066674 
L 338.645913 110.471644 
L 341.300696 110.845 
L 343.955478 111.178989 
L 346.610261 111.466447 
L 349.265043 111.700988 
L 351.919826 111.877179 
L 354.574608 111.990697 
L 357.229391 112.038446 
L 359.884173 112.018656 
L 362.538956 111.930925 
L 365.193738 111.776232 
L 367.848521 111.556905 
L 370.503303 111.276539 
L 373.158086 110.939886 
L 375.812869 110.552708 
L 378.467651 110.121596 
L 381.122434 109.653777 
L 383.777216 109.156905 
L 386.431999 108.638847 
L 389.086781 108.107474 
L 391.741564 107.570464 
L 394.396346 107.035118 
L 397.051129 106.508207 
L 399.705911 105.995842 
L 402.360694 105.503373 
L 405.015476 105.03532 
L 407.670259 104.595337 
L 410.325041 104.186204 
L 412.979824 103.809843 
L 415.634606 103.46736 
L 418.289389 103.159108 
L 420.944172 102.88476 
L 423.598954 102.643395 
L 426.253737 102.433593 
L 428.908519 102.253526 
L 431.563302 102.101055 
L 434.218084 101.973815 
L 436.872867 101.869303 
L 439.527649 101.784945 
L 442.182432 101.71817 
L 444.837214 101.666458 
L 447.491997 101.627391 
L 450.146779 101.598684 
L 452.801562 101.578215 
L 455.456344 101.564042 
L 458.111127 101.554415 
L 460.76591 101.547781 
L 463.420692 101.542783 
L 466.075475 101.538258 
L 468.730257 101.533228 
L 471.38504 101.526893 
L 474.039822 101.518617 
L 476.694605 101.507916 
L 479.349387 101.494451 
L 482.00417 101.478005 
L 484.658952 101.458479 
L 487.313735 101.435876 
L 489.968517 101.410286 
L 489.968517 99.740873 
L 489.968517 99.740873 
L 487.313735 99.715283 
L 484.658952 99.69268 
L 482.00417 99.673155 
L 479.349387 99.656709 
L 476.694605 99.643243 
L 474.039822 99.632542 
L 471.38504 99.624266 
L 468.730257 99.617931 
L 466.075475 99.612901 
L 463.420692 99.608376 
L 460.76591 99.603378 
L 458.111127 99.596744 
L 455.456344 99.587117 
L 452.801562 99.572944 
L 450.146779 99.552475 
L 447.491997 99.523768 
L 444.837214 99.484701 
L 442.182432 99.432989 
L 439.527649 99.366214 
L 436.872867 99.281856 
L 434.218084 99.177344 
L 431.563302 99.050104 
L 428.908519 98.897633 
L 426.253737 98.717566 
L 423.598954 98.507764 
L 420.944172 98.2664 
L 418.289389 97.992051 
L 415.634606 97.683799 
L 412.979824 97.341316 
L 410.325041 96.964955 
L 407.670259 96.555822 
L 405.015476 96.115839 
L 402.360694 95.647786 
L 399.705911 95.155317 
L 397.051129 94.642952 
L 394.396346 94.116041 
L 391.741564 93.580695 
L 389.086781 93.043685 
L 386.431999 92.512312 
L 383.777216 91.994254 
L 381.122434 91.497382 
L 378.467651 91.029563 
L 375.812869 90.598451 
L 373.158086 90.211273 
L 370.503303 89.87462 
L 367.848521 89.594254 
L 365.193738 89.374927 
L 362.538956 89.220235 
L 359.884173 89.132503 
L 357.229391 89.112713 
L 354.574608 89.160462 
L 351.919826 89.27398 
L 349.265043 89.450171 
L 346.610261 89.684712 
L 343.955478 89.97217 
L 341.300696 90.306159 
L 338.645913 90.679515 
L 335.991131 91.084486 
L 333.336348 91.512922 
L 330.681566 91.956477 
L 328.026783 92.406783 
L 325.372 92.855629 
L 322.717218 93.295101 
L 320.062435 93.717714 
L 317.407653 94.116508 
L 314.75287 94.485124 
L 312.098088 94.817855 
L 309.443305 95.109675 
L 306.788523 95.356252 
L 304.13374 95.553944 
L 301.478958 95.699796 
L 298.824175 95.791521 
L 296.169393 95.827495 
L 293.51461 95.80675 
L 290.859828 95.72897 
L 288.205045 95.594509 
L 285.550262 95.404405 
L 282.89548 95.160406 
L 280.240697 94.865004 
L 277.585915 94.521459 
L 274.931132 94.133833 
L 272.27635 93.707003 
L 269.621567 93.24666 
L 266.966785 92.759297 
L 264.312002 92.25216 
L 261.65722 91.733177 
L 259.002437 91.210855 
L 256.347655 90.694152 
L 253.692872 90.192307 
L 251.03809 89.714658 
L 248.383307 89.270433 
L 245.728525 88.868525 
L 243.073742 88.517269 
L 240.418959 88.224215 
L 237.764177 87.995919 
L 235.109394 87.837754 
L 232.454612 87.753754 
L 229.799829 87.746489 
L 227.145047 87.816996 
z
" style="fill:#ff0000;fill-opacity:0.75;"/>
   </g>
   <g id="PolyCollection_6">
    <path clip-path="url(#p494008d637)" d="M 226.746875 36.444111 
L 226.746875 62.074321 
L 228.102762 62.088307 
L 229.458649 62.066878 
L 230.814536 62.01023 
L 232.170423 61.918855 
L 233.52631 61.793528 
L 234.882197 61.635302 
L 236.238084 61.445492 
L 237.593971 61.225657 
L 238.949858 60.97758 
L 240.305745 60.703244 
L 241.661632 60.404807 
L 243.017519 60.084572 
L 244.373406 59.744962 
L 245.729293 59.388487 
L 247.08518 59.017718 
L 248.441067 58.63525 
L 249.796954 58.243681 
L 251.152841 57.845579 
L 252.508728 57.443457 
L 253.864615 57.039747 
L 255.220502 56.636779 
L 256.576389 56.236763 
L 257.932276 55.841767 
L 259.288163 55.453707 
L 260.64405 55.07433 
L 261.999937 54.705214 
L 263.355824 54.347755 
L 264.711711 54.003165 
L 266.067598 53.672475 
L 267.423485 53.356536 
L 268.779372 53.056022 
L 270.135259 52.77144 
L 271.491146 52.503135 
L 272.847033 52.251304 
L 274.20292 52.016002 
L 275.558807 51.797163 
L 276.914694 51.594604 
L 278.270581 51.408046 
L 279.626468 51.237124 
L 280.982356 51.081403 
L 282.338243 50.940388 
L 283.69413 50.813544 
L 285.050017 50.700302 
L 286.405904 50.600076 
L 287.761791 50.512271 
L 289.117678 50.436292 
L 290.473565 50.371556 
L 291.829452 50.3175 
L 293.185339 50.273583 
L 294.541226 50.239297 
L 295.897113 50.214166 
L 297.253 50.197753 
L 298.608887 50.189658 
L 299.964774 50.189522 
L 301.320661 50.197024 
L 302.676548 50.211881 
L 304.032435 50.233844 
L 305.388322 50.262693 
L 306.744209 50.29824 
L 308.100096 50.340313 
L 309.455983 50.388762 
L 310.81187 50.443443 
L 312.167757 50.504221 
L 313.523644 50.570956 
L 314.879531 50.6435 
L 316.235418 50.721691 
L 317.591305 50.805345 
L 318.947192 50.894251 
L 320.303079 50.988168 
L 321.658966 51.086813 
L 323.014853 51.189866 
L 324.37074 51.296959 
L 325.726627 51.407677 
L 327.082514 51.521556 
L 328.438401 51.638082 
L 329.794288 51.75669 
L 331.150175 51.876771 
L 332.506062 51.997665 
L 333.861949 52.118676 
L 335.217836 52.239067 
L 336.573723 52.358072 
L 337.92961 52.4749 
L 339.285497 52.588743 
L 340.641384 52.698785 
L 341.997271 52.804209 
L 343.353158 52.90421 
L 344.709045 52.997999 
L 346.064932 53.084816 
L 347.420819 53.163941 
L 348.776706 53.2347 
L 350.132593 53.296475 
L 351.48848 53.348712 
L 352.844367 53.390932 
L 354.200254 53.42273 
L 355.556141 53.443789 
L 356.912028 53.453879 
L 358.267915 53.452863 
L 359.623802 53.440697 
L 360.979689 53.41743 
L 360.979689 45.101002 
L 360.979689 45.101002 
L 359.623802 45.077735 
L 358.267915 45.065569 
L 356.912028 45.064552 
L 355.556141 45.074643 
L 354.200254 45.095702 
L 352.844367 45.1275 
L 351.48848 45.16972 
L 350.132593 45.221957 
L 348.776706 45.283732 
L 347.420819 45.354491 
L 346.064932 45.433616 
L 344.709045 45.520433 
L 343.353158 45.614222 
L 341.997271 45.714223 
L 340.641384 45.819647 
L 339.285497 45.929689 
L 337.92961 46.043532 
L 336.573723 46.16036 
L 335.217836 46.279365 
L 333.861949 46.399756 
L 332.506062 46.520767 
L 331.150175 46.641661 
L 329.794288 46.761741 
L 328.438401 46.88035 
L 327.082514 46.996876 
L 325.726627 47.110755 
L 324.37074 47.221473 
L 323.014853 47.328566 
L 321.658966 47.431618 
L 320.303079 47.530264 
L 318.947192 47.624181 
L 317.591305 47.713087 
L 316.235418 47.796741 
L 314.879531 47.874932 
L 313.523644 47.947476 
L 312.167757 48.014211 
L 310.81187 48.074988 
L 309.455983 48.12967 
L 308.100096 48.178119 
L 306.744209 48.220192 
L 305.388322 48.255738 
L 304.032435 48.284588 
L 302.676548 48.30655 
L 301.320661 48.321407 
L 299.964774 48.32891 
L 298.608887 48.328774 
L 297.253 48.320679 
L 295.897113 48.304266 
L 294.541226 48.279135 
L 293.185339 48.244849 
L 291.829452 48.200932 
L 290.473565 48.146876 
L 289.117678 48.08214 
L 287.761791 48.006161 
L 286.405904 47.918355 
L 285.050017 47.818129 
L 283.69413 47.704888 
L 282.338243 47.578044 
L 280.982356 47.437029 
L 279.626468 47.281307 
L 278.270581 47.110385 
L 276.914694 46.923827 
L 275.558807 46.721269 
L 274.20292 46.50243 
L 272.847033 46.267128 
L 271.491146 46.015297 
L 270.135259 45.746992 
L 268.779372 45.46241 
L 267.423485 45.161896 
L 266.067598 44.845957 
L 264.711711 44.515267 
L 263.355824 44.170677 
L 261.999937 43.813217 
L 260.64405 43.444101 
L 259.288163 43.064725 
L 257.932276 42.676664 
L 256.576389 42.281668 
L 255.220502 41.881652 
L 253.864615 41.478685 
L 252.508728 41.074975 
L 251.152841 40.672853 
L 249.796954 40.274751 
L 248.441067 39.883182 
L 247.08518 39.500714 
L 245.729293 39.129945 
L 244.373406 38.77347 
L 243.017519 38.43386 
L 241.661632 38.113625 
L 240.305745 37.815187 
L 238.949858 37.540851 
L 237.593971 37.292774 
L 236.238084 37.07294 
L 234.882197 36.88313 
L 233.52631 36.724904 
L 232.170423 36.599577 
L 230.814536 36.508201 
L 229.458649 36.451554 
L 228.102762 36.430125 
L 226.746875 36.444111 
z
" style="fill:#ff0000;fill-opacity:0.75;"/>
   </g>
   <g id="LineCollection_1">
    <path clip-path="url(#p494008d637)" d="M 269.410145 312.25558 
L 269.410145 299.426489 
" style="fill:none;stroke:#000000;stroke-width:1.5;"/>
    <path clip-path="url(#p494008d637)" d="M 266.981134 260.939216 
L 266.981134 248.110125 
" style="fill:none;stroke:#000000;stroke-width:1.5;"/>
    <path clip-path="url(#p494008d637)" d="M 264.894939 209.622852 
L 264.894939 196.793761 
" style="fill:none;stroke:#000000;stroke-width:1.5;"/>
    <path clip-path="url(#p494008d637)" d="M 256.484413 158.306489 
L 256.484413 145.477398 
" style="fill:none;stroke:#000000;stroke-width:1.5;"/>
    <path clip-path="url(#p494008d637)" d="M 298.20669 106.990125 
L 298.20669 94.161034 
" style="fill:none;stroke:#000000;stroke-width:1.5;"/>
    <path clip-path="url(#p494008d637)" d="M 260.653094 55.673761 
L 260.653094 42.84467 
" style="fill:none;stroke:#000000;stroke-width:1.5;"/>
   </g>
   <g id="patch_3">
    <path d="M 226.746875 332.782125 
L 226.746875 22.318125 
" style="fill:none;stroke:#000000;stroke-linecap:square;stroke-linejoin:miter;stroke-width:0.8;"/>
   </g>
   <g id="patch_4">
    <path d="M 617.346875 332.782125 
L 617.346875 22.318125 
" style="fill:none;stroke:#000000;stroke-linecap:square;stroke-linejoin:miter;stroke-width:0.8;"/>
   </g>
   <g id="patch_5">
    <path d="M 226.746875 332.782125 
L 617.346875 332.782125 
" style="fill:none;stroke:#000000;stroke-linecap:square;stroke-linejoin:miter;stroke-width:0.8;"/>
   </g>
   <g id="patch_6">
    <path d="M 226.746875 22.318125 
L 617.346875 22.318125 
" style="fill:none;stroke:#000000;stroke-linecap:square;stroke-linejoin:miter;stroke-width:0.8;"/>
   </g>
   <g id="text_16">
    <!-- AOE1 for 1.0 -->
    <g transform="translate(384.005938 16.318125)scale(0.12 -0.12)">
     <use xlink:href="#DejaVuSans-41"/>
     <use x="68.392578" xlink:href="#DejaVuSans-4f"/>
     <use x="147.103516" xlink:href="#DejaVuSans-45"/>
     <use x="210.287109" xlink:href="#DejaVuSans-31"/>
     <use x="273.910156" xlink:href="#DejaVuSans-20"/>
     <use x="305.697266" xlink:href="#DejaVuSans-66"/>
     <use x="340.902344" xlink:href="#DejaVuSans-6f"/>
     <use x="402.083984" xlink:href="#DejaVuSans-72"/>
     <use x="443.197266" xlink:href="#DejaVuSans-20"/>
     <use x="474.984375" xlink:href="#DejaVuSans-31"/>
     <use x="538.607422" xlink:href="#DejaVuSans-2e"/>
     <use x="570.394531" xlink:href="#DejaVuSans-30"/>
    </g>
   </g>
  </g>
 </g>
 <defs>
  <clipPath id="p494008d637">
   <rect height="310.464" width="390.6" x="226.746875" y="22.318125"/>
  </clipPath>
 </defs>
</svg>
