<?xml version='1.0' encoding='utf-8'?>
<svg xmlns:xlink="http://www.w3.org/1999/xlink" xmlns="http://www.w3.org/2000/svg" id="chart-faa879e2-0c2e-46d0-b2a2-d4ff41df3d37" class="pygal-chart" viewBox="0 0 800 600"><!--Generated with pygal 2.4.0 (lxml) ©Kozea 2012-2016 on 2019-10-13--><!--http://pygal.org--><!--http://github.com/Kozea/pygal--><defs><style type="text/css">#chart-faa879e2-0c2e-46d0-b2a2-d4ff41df3d37{-webkit-user-select:none;-webkit-font-smoothing:antialiased;font-family:Helvetica,Arial,sans-serif}#chart-faa879e2-0c2e-46d0-b2a2-d4ff41df3d37 .title{font-family:Helvetica,Arial,sans-serif;font-size:18px}#chart-faa879e2-0c2e-46d0-b2a2-d4ff41df3d37 .legends .legend text{font-family:Helvetica,Arial,sans-serif;font-size:15px}#chart-faa879e2-0c2e-46d0-b2a2-d4ff41df3d37 .axis text{font-family:Helvetica,Arial,sans-serif;font-size:15px}#chart-faa879e2-0c2e-46d0-b2a2-d4ff41df3d37 .axis text.major{font-family:Helvetica,Arial,sans-serif;font-size:15px}#chart-faa879e2-0c2e-46d0-b2a2-d4ff41df3d37 .text-overlay text.value{font-family:Helvetica,Arial,sans-serif;font-size:15px}#chart-faa879e2-0c2e-46d0-b2a2-d4ff41df3d37 .text-overlay text.label{font-family:Helvetica,Arial,sans-serif;font-size:15px}#chart-faa879e2-0c2e-46d0-b2a2-d4ff41df3d37 .tooltip{font-family:Helvetica,Arial,sans-serif;font-size:14px}#chart-faa879e2-0c2e-46d0-b2a2-d4ff41df3d37 text.no_data{font-family:Helvetica,Arial,sans-serif;font-size:64px}
#chart-faa879e2-0c2e-46d0-b2a2-d4ff41df3d37{background-color:transparent}#chart-faa879e2-0c2e-46d0-b2a2-d4ff41df3d37 path,#chart-faa879e2-0c2e-46d0-b2a2-d4ff41df3d37 line,#chart-faa879e2-0c2e-46d0-b2a2-d4ff41df3d37 rect,#chart-faa879e2-0c2e-46d0-b2a2-d4ff41df3d37 circle{-webkit-transition:150ms;-moz-transition:150ms;transition:150ms}#chart-faa879e2-0c2e-46d0-b2a2-d4ff41df3d37 .graph &gt; .background{fill:transparent}#chart-faa879e2-0c2e-46d0-b2a2-d4ff41df3d37 .plot &gt; .background{fill:white}#chart-faa879e2-0c2e-46d0-b2a2-d4ff41df3d37 .graph{fill:rgba(0,0,0,.87)}#chart-faa879e2-0c2e-46d0-b2a2-d4ff41df3d37 text.no_data{fill:rgba(0,0,0,1)}#chart-faa879e2-0c2e-46d0-b2a2-d4ff41df3d37 .title{fill:rgba(0,0,0,1)}#chart-faa879e2-0c2e-46d0-b2a2-d4ff41df3d37 .legends .legend text{fill:rgba(0,0,0,.87)}#chart-faa879e2-0c2e-46d0-b2a2-d4ff41df3d37 .legends .legend:hover text{fill:rgba(0,0,0,1)}#chart-faa879e2-0c2e-46d0-b2a2-d4ff41df3d37 .axis .line{stroke:rgba(0,0,0,1)}#chart-faa879e2-0c2e-46d0-b2a2-d4ff41df3d37 .axis .guide.line{stroke:rgba(0,0,0,.54)}#chart-faa879e2-0c2e-46d0-b2a2-d4ff41df3d37 .axis .major.line{stroke:rgba(0,0,0,.87)}#chart-faa879e2-0c2e-46d0-b2a2-d4ff41df3d37 .axis text.major{fill:rgba(0,0,0,1)}#chart-faa879e2-0c2e-46d0-b2a2-d4ff41df3d37 .axis.y .guides:hover .guide.line,#chart-faa879e2-0c2e-46d0-b2a2-d4ff41df3d37 .line-graph .axis.x .guides:hover .guide.line,#chart-faa879e2-0c2e-46d0-b2a2-d4ff41df3d37 .stackedline-graph .axis.x .guides:hover .guide.line,#chart-faa879e2-0c2e-46d0-b2a2-d4ff41df3d37 .xy-graph .axis.x .guides:hover .guide.line{stroke:rgba(0,0,0,1)}#chart-faa879e2-0c2e-46d0-b2a2-d4ff41df3d37 .axis .guides:hover text{fill:rgba(0,0,0,1)}#chart-faa879e2-0c2e-46d0-b2a2-d4ff41df3d37 .reactive{fill-opacity:.7;stroke-opacity:.8}#chart-faa879e2-0c2e-46d0-b2a2-d4ff41df3d37 .ci{stroke:rgba(0,0,0,.87)}#chart-faa879e2-0c2e-46d0-b2a2-d4ff41df3d37 .reactive.active,#chart-faa879e2-0c2e-46d0-b2a2-d4ff41df3d37 .active .reactive{fill-opacity:.8;stroke-opacity:.9;stroke-width:4}#chart-faa879e2-0c2e-46d0-b2a2-d4ff41df3d37 .ci .reactive.active{stroke-width:1.5}#chart-faa879e2-0c2e-46d0-b2a2-d4ff41df3d37 .series text{fill:rgba(0,0,0,1)}#chart-faa879e2-0c2e-46d0-b2a2-d4ff41df3d37 .tooltip rect{fill:white;stroke:rgba(0,0,0,1);-webkit-transition:opacity 150ms;-moz-transition:opacity 150ms;transition:opacity 150ms}#chart-faa879e2-0c2e-46d0-b2a2-d4ff41df3d37 .tooltip .label{fill:rgba(0,0,0,.87)}#chart-faa879e2-0c2e-46d0-b2a2-d4ff41df3d37 .tooltip .label{fill:rgba(0,0,0,.87)}#chart-faa879e2-0c2e-46d0-b2a2-d4ff41df3d37 .tooltip .legend{font-size:.8em;fill:rgba(0,0,0,.54)}#chart-faa879e2-0c2e-46d0-b2a2-d4ff41df3d37 .tooltip .x_label{font-size:.6em;fill:rgba(0,0,0,1)}#chart-faa879e2-0c2e-46d0-b2a2-d4ff41df3d37 .tooltip .xlink{font-size:.5em;text-decoration:underline}#chart-faa879e2-0c2e-46d0-b2a2-d4ff41df3d37 .tooltip .value{font-size:1.5em}#chart-faa879e2-0c2e-46d0-b2a2-d4ff41df3d37 .bound{font-size:.5em}#chart-faa879e2-0c2e-46d0-b2a2-d4ff41df3d37 .max-value{font-size:.75em;fill:rgba(0,0,0,.54)}#chart-faa879e2-0c2e-46d0-b2a2-d4ff41df3d37 .map-element{fill:white;stroke:rgba(0,0,0,.54) !important}#chart-faa879e2-0c2e-46d0-b2a2-d4ff41df3d37 .map-element .reactive{fill-opacity:inherit;stroke-opacity:inherit}#chart-faa879e2-0c2e-46d0-b2a2-d4ff41df3d37 .color-0,#chart-faa879e2-0c2e-46d0-b2a2-d4ff41df3d37 .color-0 a:visited{stroke:#F44336;fill:#F44336}#chart-faa879e2-0c2e-46d0-b2a2-d4ff41df3d37 .color-1,#chart-faa879e2-0c2e-46d0-b2a2-d4ff41df3d37 .color-1 a:visited{stroke:#3F51B5;fill:#3F51B5}#chart-faa879e2-0c2e-46d0-b2a2-d4ff41df3d37 .color-2,#chart-faa879e2-0c2e-46d0-b2a2-d4ff41df3d37 .color-2 a:visited{stroke:#009688;fill:#009688}#chart-faa879e2-0c2e-46d0-b2a2-d4ff41df3d37 .color-3,#chart-faa879e2-0c2e-46d0-b2a2-d4ff41df3d37 .color-3 a:visited{stroke:#FFC107;fill:#FFC107}#chart-faa879e2-0c2e-46d0-b2a2-d4ff41df3d37 .color-4,#chart-faa879e2-0c2e-46d0-b2a2-d4ff41df3d37 .color-4 a:visited{stroke:#FF5722;fill:#FF5722}#chart-faa879e2-0c2e-46d0-b2a2-d4ff41df3d37 .color-5,#chart-faa879e2-0c2e-46d0-b2a2-d4ff41df3d37 .color-5 a:visited{stroke:#9C27B0;fill:#9C27B0}#chart-faa879e2-0c2e-46d0-b2a2-d4ff41df3d37 .text-overlay .color-0 text{fill:black}#chart-faa879e2-0c2e-46d0-b2a2-d4ff41df3d37 .text-overlay .color-1 text{fill:black}#chart-faa879e2-0c2e-46d0-b2a2-d4ff41df3d37 .text-overlay .color-2 text{fill:black}#chart-faa879e2-0c2e-46d0-b2a2-d4ff41df3d37 .text-overlay .color-3 text{fill:black}#chart-faa879e2-0c2e-46d0-b2a2-d4ff41df3d37 .text-overlay .color-4 text{fill:black}#chart-faa879e2-0c2e-46d0-b2a2-d4ff41df3d37 .text-overlay .color-5 text{fill:black}
#chart-faa879e2-0c2e-46d0-b2a2-d4ff41df3d37 text.no_data{text-anchor:middle}#chart-faa879e2-0c2e-46d0-b2a2-d4ff41df3d37 .guide.line{fill:none}#chart-faa879e2-0c2e-46d0-b2a2-d4ff41df3d37 .centered{text-anchor:middle}#chart-faa879e2-0c2e-46d0-b2a2-d4ff41df3d37 .title{text-anchor:middle}#chart-faa879e2-0c2e-46d0-b2a2-d4ff41df3d37 .legends .legend text{fill-opacity:1}#chart-faa879e2-0c2e-46d0-b2a2-d4ff41df3d37 .axis.x text{text-anchor:middle}#chart-faa879e2-0c2e-46d0-b2a2-d4ff41df3d37 .axis.x:not(.web) text[transform]{text-anchor:start}#chart-faa879e2-0c2e-46d0-b2a2-d4ff41df3d37 .axis.x:not(.web) text[transform].backwards{text-anchor:end}#chart-faa879e2-0c2e-46d0-b2a2-d4ff41df3d37 .axis.y text{text-anchor:end}#chart-faa879e2-0c2e-46d0-b2a2-d4ff41df3d37 .axis.y text[transform].backwards{text-anchor:start}#chart-faa879e2-0c2e-46d0-b2a2-d4ff41df3d37 .axis.y2 text{text-anchor:start}#chart-faa879e2-0c2e-46d0-b2a2-d4ff41df3d37 .axis.y2 text[transform].backwards{text-anchor:end}#chart-faa879e2-0c2e-46d0-b2a2-d4ff41df3d37 .axis .guide.line{stroke-dasharray:1}#chart-faa879e2-0c2e-46d0-b2a2-d4ff41df3d37 .axis .major.guide.line{stroke-dasharray:1}#chart-faa879e2-0c2e-46d0-b2a2-d4ff41df3d37 .horizontal .axis.y .guide.line,#chart-faa879e2-0c2e-46d0-b2a2-d4ff41df3d37 .horizontal .axis.y2 .guide.line,#chart-faa879e2-0c2e-46d0-b2a2-d4ff41df3d37 .vertical .axis.x .guide.line{opacity:0}#chart-faa879e2-0c2e-46d0-b2a2-d4ff41df3d37 .horizontal .axis.always_show .guide.line,#chart-faa879e2-0c2e-46d0-b2a2-d4ff41df3d37 .vertical .axis.always_show .guide.line{opacity:1 !important}#chart-faa879e2-0c2e-46d0-b2a2-d4ff41df3d37 .axis.y .guides:hover .guide.line,#chart-faa879e2-0c2e-46d0-b2a2-d4ff41df3d37 .axis.y2 .guides:hover .guide.line,#chart-faa879e2-0c2e-46d0-b2a2-d4ff41df3d37 .axis.x .guides:hover .guide.line{opacity:1}#chart-faa879e2-0c2e-46d0-b2a2-d4ff41df3d37 .axis .guides:hover text{opacity:1}#chart-faa879e2-0c2e-46d0-b2a2-d4ff41df3d37 .nofill{fill:none}#chart-faa879e2-0c2e-46d0-b2a2-d4ff41df3d37 .subtle-fill{fill-opacity:.2}#chart-faa879e2-0c2e-46d0-b2a2-d4ff41df3d37 .dot{stroke-width:1px;fill-opacity:1}#chart-faa879e2-0c2e-46d0-b2a2-d4ff41df3d37 .dot.active{stroke-width:5px}#chart-faa879e2-0c2e-46d0-b2a2-d4ff41df3d37 .dot.negative{fill:transparent}#chart-faa879e2-0c2e-46d0-b2a2-d4ff41df3d37 text,#chart-faa879e2-0c2e-46d0-b2a2-d4ff41df3d37 tspan{stroke:none !important}#chart-faa879e2-0c2e-46d0-b2a2-d4ff41df3d37 .series text.active{opacity:1}#chart-faa879e2-0c2e-46d0-b2a2-d4ff41df3d37 .tooltip rect{fill-opacity:.95;stroke-width:.5}#chart-faa879e2-0c2e-46d0-b2a2-d4ff41df3d37 .tooltip text{fill-opacity:1}#chart-faa879e2-0c2e-46d0-b2a2-d4ff41df3d37 .showable{visibility:hidden}#chart-faa879e2-0c2e-46d0-b2a2-d4ff41df3d37 .showable.shown{visibility:visible}#chart-faa879e2-0c2e-46d0-b2a2-d4ff41df3d37 .gauge-background{fill:rgba(229,229,229,1);stroke:none}#chart-faa879e2-0c2e-46d0-b2a2-d4ff41df3d37 .bg-lines{stroke:transparent;stroke-width:2px}</style><script type="text/javascript">window.pygal = window.pygal || {};window.pygal.config = window.pygal.config || {};window.pygal.config['faa879e2-0c2e-46d0-b2a2-d4ff41df3d37'] = {"allow_interruptions": false, "box_mode": "extremes", "classes": ["pygal-chart"], "css": ["file://style.css", "file://graph.css"], "defs": [], "disable_xml_declaration": false, "dots_size": 2.5, "dynamic_print_values": false, "explicit_size": false, "fill": false, "force_uri_protocol": "https", "formatter": null, "half_pie": false, "height": 600, "include_x_axis": false, "inner_radius": 0, "interpolate": null, "interpolation_parameters": {}, "interpolation_precision": 250, "inverse_y_axis": false, "js": ["//kozea.github.io/pygal.js/2.0.x/pygal-tooltips.min.js"], "legend_at_bottom": true, "legend_at_bottom_columns": 2, "legend_box_size": 12, "logarithmic": false, "margin": 20, "margin_bottom": 65, "margin_left": null, "margin_right": null, "margin_top": null, "max_scale": 16, "min_scale": 4, "missing_value_fill_truncation": "x", "no_data_text": "No data", "no_prefix": false, "order_min": null, "pretty_print": false, "print_labels": false, "print_values": false, "print_values_position": "center", "print_zeroes": true, "range": [0.0, 30.0], "rounded_bars": null, "secondary_range": null, "show_dots": true, "show_legend": true, "show_minor_x_labels": false, "show_minor_y_labels": true, "show_only_major_dots": true, "show_x_guides": true, "show_x_labels": true, "show_y_guides": true, "show_y_labels": true, "spacing": 10, "stack_from_top": false, "strict": false, "stroke": true, "stroke_style": null, "style": {"background": "transparent", "ci_colors": [], "colors": ["#F44336", "#3F51B5", "#009688", "#FFC107", "#FF5722", "#9C27B0", "#03A9F4", "#8BC34A", "#FF9800", "#E91E63", "#2196F3", "#4CAF50", "#FFEB3B", "#673AB7", "#00BCD4", "#CDDC39", "#9E9E9E", "#607D8B"], "font_family": "Helvetica, Arial, sans-serif", "foreground": "rgba(0, 0, 0, .87)", "foreground_strong": "rgba(0, 0, 0, 1)", "foreground_subtle": "rgba(0, 0, 0, .54)", "guide_stroke_dasharray": 1, "label_font_family": "Helvetica, Arial, sans-serif", "label_font_size": 15, "legend_font_family": "Helvetica, Arial, sans-serif", "legend_font_size": 15, "major_guide_stroke_dasharray": 1, "major_label_font_family": "Helvetica, Arial, sans-serif", "major_label_font_size": 15, "no_data_font_family": "Helvetica, Arial, sans-serif", "no_data_font_size": 64, "opacity": ".7", "opacity_hover": ".8", "plot_background": "white", "stroke_opacity": ".8", "stroke_opacity_hover": ".9", "title_font_family": "Helvetica, Arial, sans-serif", "title_font_size": 18, "tooltip_font_family": "Helvetica, Arial, sans-serif", "tooltip_font_size": 14, "transition": "150ms", "value_background": "rgba(229, 229, 229, 1)", "value_colors": [], "value_font_family": "Helvetica, Arial, sans-serif", "value_font_size": 15, "value_label_font_family": "Helvetica, Arial, sans-serif", "value_label_font_size": 15}, "title": "Percentage of Annotations for T \u00b15.0 BPM", "tooltip_border_radius": 0, "tooltip_fancy_mode": true, "truncate_label": null, "truncate_legend": -1, "width": 800, "x_label_rotation": 90, "x_labels": ["0.0", "1.0", "2.0", "3.0", "4.0", "5.0", "6.0", "7.0", "8.0", "9.0", "10.0", "11.0", "12.0", "13.0", "14.0", "15.0", "16.0", "17.0", "18.0", "19.0", "20.0", "21.0", "22.0", "23.0", "24.0", "25.0", "26.0", "27.0", "28.0", "29.0", "30.0", "31.0", "32.0", "33.0", "34.0", "35.0", "36.0", "37.0", "38.0", "39.0", "40.0", "41.0", "42.0", "43.0", "44.0", "45.0", "46.0", "47.0", "48.0", "49.0", "50.0", "51.0", "52.0", "53.0", "54.0", "55.0", "56.0", "57.0", "58.0", "59.0", "60.0", "61.0", "62.0", "63.0", "64.0", "65.0", "66.0", "67.0", "68.0", "69.0", "70.0", "71.0", "72.0", "73.0", "74.0", "75.0", "76.0", "77.0", "78.0", "79.0", "80.0", "81.0", "82.0", "83.0", "84.0", "85.0", "86.0", "87.0", "88.0", "89.0", "90.0", "91.0", "92.0", "93.0", "94.0", "95.0", "96.0", "97.0", "98.0", "99.0", "100.0", "101.0", "102.0", "103.0", "104.0", "105.0", "106.0", "107.0", "108.0", "109.0", "110.0", "111.0", "112.0", "113.0", "114.0", "115.0", "116.0", "117.0", "118.0", "119.0", "120.0", "121.0", "122.0", "123.0", "124.0", "125.0", "126.0", "127.0", "128.0", "129.0", "130.0", "131.0", "132.0", "133.0", "134.0", "135.0", "136.0", "137.0", "138.0", "139.0", "140.0", "141.0", "142.0", "143.0", "144.0", "145.0", "146.0", "147.0", "148.0", "149.0", "150.0", "151.0", "152.0", "153.0", "154.0", "155.0", "156.0", "157.0", "158.0", "159.0", "160.0", "161.0", "162.0", "163.0", "164.0", "165.0", "166.0", "167.0", "168.0", "169.0", "170.0", "171.0", "172.0", "173.0", "174.0", "175.0", "176.0", "177.0", "178.0", "179.0", "180.0", "181.0", "182.0", "183.0", "184.0", "185.0", "186.0", "187.0", "188.0", "189.0", "190.0", "191.0", "192.0", "193.0", "194.0", "195.0", "196.0", "197.0", "198.0", "199.0", "200.0", "201.0", "202.0", "203.0", "204.0", "205.0", "206.0", "207.0", "208.0", "209.0", "210.0", "211.0", "212.0", "213.0", "214.0", "215.0", "216.0", "217.0", "218.0", "219.0", "220.0", "221.0", "222.0", "223.0", "224.0", "225.0", "226.0", "227.0", "228.0", "229.0", "230.0", "231.0", "232.0", "233.0", "234.0", "235.0", "236.0", "237.0", "238.0", "239.0", "240.0", "241.0", "242.0", "243.0", "244.0", "245.0", "246.0", "247.0", "248.0", "249.0", "250.0", "251.0", "252.0", "253.0", "254.0", "255.0", "256.0", "257.0", "258.0", "259.0", "260.0", "261.0", "262.0", "263.0", "264.0", "265.0", "266.0", "267.0", "268.0", "269.0", "270.0", "271.0", "272.0", "273.0", "274.0", "275.0", "276.0", "277.0", "278.0", "279.0", "280.0", "281.0", "282.0", "283.0", "284.0", "285.0", "286.0", "287.0", "288.0", "289.0", "290.0", "291.0", "292.0", "293.0", "294.0", "295.0", "296.0", "297.0", "298.0", "299.0", "300.0"], "x_labels_major": null, "x_labels_major_count": 11, "x_labels_major_every": null, "x_title": "T (BPM)", "xrange": null, "y_label_rotation": 0, "y_labels": null, "y_labels_major": null, "y_labels_major_count": null, "y_labels_major_every": null, "y_title": "Values (%)", "zero": 0, "legends": ["boeck2015/tempodetector2016_default", "davies2009/mirex_qm_tempotracker", "percival2014/stem", "schreiber2014/default", "schreiber2017/ismir2017", "schreiber2017/mirex2017"]}</script><script type="text/javascript" xlink:href="https://kozea.github.io/pygal.js/2.0.x/pygal-tooltips.min.js"/></defs><title>Percentage of Annotations for T ±5.0 BPM</title><g class="graph line-graph vertical"><rect class="background" height="600" width="800" x="0" y="0"/><g class="plot" transform="translate(94, 48)"><rect class="background" height="334.0" width="686.0" x="0" y="0"/><g class="axis y always_show"><g class="guides"><path class="major line" d="M0.000000 327.576923 h686.000000"/><text class="major" x="-5" y="332.8269230769231">0.0</text><title>0.0</title></g><g class="guides"><path class="guide line" d="M0.000000 306.166667 h686.000000"/><text class="" x="-5" y="311.4166666666667">2.0</text><title>2.0</title></g><g class="guides"><path class="guide line" d="M0.000000 284.756410 h686.000000"/><text class="" x="-5" y="290.0064102564103">4.0</text><title>4.0</title></g><g class="guides"><path class="guide line" d="M0.000000 263.346154 h686.000000"/><text class="" x="-5" y="268.59615384615387">6.0</text><title>6.0</title></g><g class="guides"><path class="guide line" d="M0.000000 241.935897 h686.000000"/><text class="" x="-5" y="247.18589743589746">8.0</text><title>8.0</title></g><g class="guides"><path class="major guide line" d="M0.000000 220.525641 h686.000000"/><text class="major" x="-5" y="225.77564102564105">10.0</text><title>10.0</title></g><g class="guides"><path class="guide line" d="M0.000000 199.115385 h686.000000"/><text class="" x="-5" y="204.36538461538464">12.0</text><title>12.0</title></g><g class="guides"><path class="guide line" d="M0.000000 177.705128 h686.000000"/><text class="" x="-5" y="182.95512820512823">14.0</text><title>14.0</title></g><g class="guides"><path class="guide line" d="M0.000000 156.294872 h686.000000"/><text class="" x="-5" y="161.5448717948718">16.0</text><title>16.0</title></g><g class="guides"><path class="guide line" d="M0.000000 134.884615 h686.000000"/><text class="" x="-5" y="140.1346153846154">18.0</text><title>18.0</title></g><g class="guides"><path class="major guide line" d="M0.000000 113.474359 h686.000000"/><text class="major" x="-5" y="118.72435897435898">20.0</text><title>20.0</title></g><g class="guides"><path class="guide line" d="M0.000000 92.064103 h686.000000"/><text class="" x="-5" y="97.31410256410257">22.0</text><title>22.0</title></g><g class="guides"><path class="guide line" d="M0.000000 70.653846 h686.000000"/><text class="" x="-5" y="75.90384615384619">24.0</text><title>24.0</title></g><g class="guides"><path class="guide line" d="M0.000000 49.243590 h686.000000"/><text class="" x="-5" y="54.49358974358978">26.0</text><title>26.0</title></g><g class="guides"><path class="guide line" d="M0.000000 27.833333 h686.000000"/><text class="" x="-5" y="33.08333333333337">28.0</text><title>28.0</title></g><g class="guides"><path class="major guide line" d="M0.000000 6.423077 h686.000000"/><text class="major" x="-5" y="11.673076923076962">30.0</text><title>30.0</title></g></g><g class="axis x always_show"><g class="guides"><path class="major line" d="M13.192308 0.000000 v334.000000"/><text class="major" x="13.192307692307692" y="351.5" transform="rotate(90 13.192308 351.500000)">0.0</text></g><g class="guides"><path class="major guide line" d="M79.153846 0.000000 v334.000000"/><text class="major" x="79.15384615384616" y="351.5" transform="rotate(90 79.153846 351.500000)">30.0</text></g><g class="guides"><path class="major guide line" d="M145.115385 0.000000 v334.000000"/><text class="major" x="145.11538461538458" y="351.5" transform="rotate(90 145.115385 351.500000)">60.0</text></g><g class="guides"><path class="major guide line" d="M211.076923 0.000000 v334.000000"/><text class="major" x="211.07692307692307" y="351.5" transform="rotate(90 211.076923 351.500000)">90.0</text></g><g class="guides"><path class="major guide line" d="M277.038462 0.000000 v334.000000"/><text class="major" x="277.03846153846155" y="351.5" transform="rotate(90 277.038462 351.500000)">120.0</text></g><g class="guides"><path class="major guide line" d="M343.000000 0.000000 v334.000000"/><text class="major" x="343.0" y="351.5" transform="rotate(90 343.000000 351.500000)">150.0</text></g><g class="guides"><path class="major guide line" d="M408.961538 0.000000 v334.000000"/><text class="major" x="408.96153846153845" y="351.5" transform="rotate(90 408.961538 351.500000)">180.0</text></g><g class="guides"><path class="major guide line" d="M474.923077 0.000000 v334.000000"/><text class="major" x="474.92307692307685" y="351.5" transform="rotate(90 474.923077 351.500000)">210.0</text></g><g class="guides"><path class="major guide line" d="M540.884615 0.000000 v334.000000"/><text class="major" x="540.8846153846155" y="351.5" transform="rotate(90 540.884615 351.500000)">240.0</text></g><g class="guides"><path class="major guide line" d="M606.846154 0.000000 v334.000000"/><text class="major" x="606.8461538461538" y="351.5" transform="rotate(90 606.846154 351.500000)">270.0</text></g><g class="guides"><path class="major guide line" d="M672.807692 0.000000 v334.000000"/><text class="major" x="672.8076923076923" y="351.5" transform="rotate(90 672.807692 351.500000)">300.0</text></g></g><g class="series serie-0 color-0"><path class="line reactive nofill" d="M13.192308 327.576923 L15.391026 327.576923 17.589744 327.576923 19.788462 327.576923 21.987179 327.576923 24.185897 327.576923 26.384615 327.576923 28.583333 327.576923 30.782051 327.576923 32.980769 327.576923 35.179487 327.576923 37.378205 327.576923 39.576923 327.576923 41.775641 327.576923 43.974359 327.576923 46.173077 327.576923 48.371795 327.576923 50.570513 327.576923 52.769231 327.576923 54.967949 327.576923 57.166667 327.576923 59.365385 327.576923 61.564103 327.576923 63.762821 327.576923 65.961538 327.576923 68.160256 327.576923 70.358974 327.576923 72.557692 327.576923 74.756410 327.576923 76.955128 327.576923 79.153846 327.576923 81.352564 327.576923 83.551282 327.576923 85.750000 327.576923 87.948718 327.576923 90.147436 327.576923 92.346154 327.576923 94.544872 316.871795 96.743590 316.871795 98.942308 316.871795 101.141026 316.871795 103.339744 295.461538 105.538462 274.051282 107.737179 274.051282 109.935897 274.051282 112.134615 263.346154 114.333333 263.346154 116.532051 263.346154 118.730769 263.346154 120.929487 263.346154 123.128205 220.525641 125.326923 241.935897 127.525641 252.641026 129.724359 252.641026 131.923077 252.641026 134.121795 231.230769 136.320513 231.230769 138.519231 188.410256 140.717949 188.410256 142.916667 188.410256 145.115385 220.525641 147.314103 177.705128 149.512821 188.410256 151.711538 156.294872 153.910256 145.589744 156.108974 102.769231 158.307692 134.884615 160.506410 188.410256 162.705128 188.410256 164.903846 167.000000 167.102564 124.179487 169.301282 145.589744 171.500000 134.884615 173.698718 156.294872 175.897436 167.000000 178.096154 177.705128 180.294872 177.705128 182.493590 167.000000 184.692308 156.294872 186.891026 167.000000 189.089744 199.115385 191.288462 220.525641 193.487179 231.230769 195.685897 241.935897 197.884615 209.820513 200.083333 188.410256 202.282051 220.525641 204.480769 231.230769 206.679487 209.820513 208.878205 209.820513 211.076923 209.820513 213.275641 231.230769 215.474359 220.525641 217.673077 220.525641 219.871795 220.525641 222.070513 209.820513 224.269231 209.820513 226.467949 209.820513 228.666667 241.935897 230.865385 209.820513 233.064103 209.820513 235.262821 209.820513 237.461538 220.525641 239.660256 199.115385 241.858974 231.230769 244.057692 231.230769 246.256410 263.346154 248.455128 263.346154 250.653846 263.346154 252.852564 295.461538 255.051282 295.461538 257.250000 295.461538 259.448718 295.461538 261.647436 306.166667 263.846154 306.166667 266.044872 284.756410 268.243590 284.756410 270.442308 284.756410 272.641026 252.641026 274.839744 263.346154 277.038462 220.525641 279.237179 220.525641 281.435897 220.525641 283.634615 209.820513 285.833333 209.820513 288.032051 209.820513 290.230769 199.115385 292.429487 199.115385 294.628205 231.230769 296.826923 209.820513 299.025641 209.820513 301.224359 252.641026 303.423077 241.935897 305.621795 263.346154 307.820513 263.346154 310.019231 241.935897 312.217949 274.051282 314.416667 274.051282 316.615385 274.051282 318.814103 295.461538 321.012821 295.461538 323.211538 295.461538 325.410256 306.166667 327.608974 306.166667 329.807692 306.166667 332.006410 327.576923 334.205128 327.576923 336.403846 327.576923 338.602564 327.576923 340.801282 327.576923 343.000000 327.576923 345.198718 327.576923 347.397436 327.576923 349.596154 316.871795 351.794872 316.871795 353.993590 316.871795 356.192308 316.871795 358.391026 316.871795 360.589744 306.166667 362.788462 306.166667 364.987179 306.166667 367.185897 306.166667 369.384615 295.461538 371.583333 306.166667 373.782051 306.166667 375.980769 306.166667 378.179487 306.166667 380.378205 295.461538 382.576923 306.166667 384.775641 306.166667 386.974359 306.166667 389.173077 306.166667 391.371795 316.871795 393.570513 316.871795 395.769231 316.871795 397.967949 316.871795 400.166667 316.871795 402.365385 327.576923 404.564103 327.576923 406.762821 327.576923 408.961538 327.576923 411.160256 327.576923 413.358974 327.576923 415.557692 316.871795 417.756410 316.871795 419.955128 316.871795 422.153846 316.871795 424.352564 316.871795 426.551282 316.871795 428.750000 316.871795 430.948718 316.871795 433.147436 316.871795 435.346154 316.871795 437.544872 327.576923 439.743590 327.576923 441.942308 327.576923 444.141026 327.576923 446.339744 327.576923 448.538462 327.576923 450.737179 327.576923 452.935897 327.576923 455.134615 327.576923 457.333333 327.576923 459.532051 327.576923 461.730769 327.576923 463.929487 327.576923 466.128205 327.576923 468.326923 327.576923 470.525641 327.576923 472.724359 327.576923 474.923077 327.576923 477.121795 327.576923 479.320513 327.576923 481.519231 327.576923 483.717949 327.576923 485.916667 327.576923 488.115385 327.576923 490.314103 327.576923 492.512821 327.576923 494.711538 327.576923 496.910256 327.576923 499.108974 327.576923 501.307692 327.576923 503.506410 327.576923 505.705128 327.576923 507.903846 327.576923 510.102564 327.576923 512.301282 327.576923 514.500000 327.576923 516.698718 327.576923 518.897436 327.576923 521.096154 327.576923 523.294872 327.576923 525.493590 327.576923 527.692308 327.576923 529.891026 327.576923 532.089744 327.576923 534.288462 327.576923 536.487179 327.576923 538.685897 327.576923 540.884615 327.576923 543.083333 327.576923 545.282051 327.576923 547.480769 327.576923 549.679487 327.576923 551.878205 327.576923 554.076923 327.576923 556.275641 327.576923 558.474359 327.576923 560.673077 327.576923 562.871795 327.576923 565.070513 327.576923 567.269231 327.576923 569.467949 327.576923 571.666667 327.576923 573.865385 327.576923 576.064103 327.576923 578.262821 327.576923 580.461538 327.576923 582.660256 327.576923 584.858974 327.576923 587.057692 327.576923 589.256410 327.576923 591.455128 327.576923 593.653846 327.576923 595.852564 327.576923 598.051282 327.576923 600.250000 327.576923 602.448718 327.576923 604.647436 327.576923 606.846154 327.576923 609.044872 327.576923 611.243590 327.576923 613.442308 327.576923 615.641026 327.576923 617.839744 327.576923 620.038462 327.576923 622.237179 327.576923 624.435897 327.576923 626.634615 327.576923 628.833333 327.576923 631.032051 327.576923 633.230769 327.576923 635.429487 327.576923 637.628205 327.576923 639.826923 327.576923 642.025641 327.576923 644.224359 327.576923 646.423077 327.576923 648.621795 327.576923 650.820513 327.576923 653.019231 327.576923 655.217949 327.576923 657.416667 327.576923 659.615385 327.576923 661.814103 327.576923 664.012821 327.576923 666.211538 327.576923 668.410256 327.576923 670.608974 327.576923 672.807692 327.576923"/></g><g class="series serie-1 color-1"><path class="line reactive nofill" d="M13.192308 327.576923 L15.391026 327.576923 17.589744 327.576923 19.788462 327.576923 21.987179 327.576923 24.185897 327.576923 26.384615 327.576923 28.583333 327.576923 30.782051 327.576923 32.980769 327.576923 35.179487 327.576923 37.378205 327.576923 39.576923 327.576923 41.775641 327.576923 43.974359 327.576923 46.173077 327.576923 48.371795 327.576923 50.570513 327.576923 52.769231 327.576923 54.967949 327.576923 57.166667 327.576923 59.365385 327.576923 61.564103 327.576923 63.762821 327.576923 65.961538 327.576923 68.160256 327.576923 70.358974 327.576923 72.557692 327.576923 74.756410 327.576923 76.955128 327.576923 79.153846 327.576923 81.352564 327.576923 83.551282 327.576923 85.750000 327.576923 87.948718 327.576923 90.147436 327.576923 92.346154 327.576923 94.544872 327.576923 96.743590 327.576923 98.942308 327.576923 101.141026 327.576923 103.339744 327.576923 105.538462 327.576923 107.737179 327.576923 109.935897 327.576923 112.134615 327.576923 114.333333 327.576923 116.532051 327.576923 118.730769 327.576923 120.929487 327.576923 123.128205 327.576923 125.326923 327.576923 127.525641 327.576923 129.724359 327.576923 131.923077 327.576923 134.121795 327.576923 136.320513 327.576923 138.519231 327.576923 140.717949 327.576923 142.916667 327.576923 145.115385 327.576923 147.314103 327.576923 149.512821 327.576923 151.711538 327.576923 153.910256 327.576923 156.108974 327.576923 158.307692 327.576923 160.506410 327.576923 162.705128 327.576923 164.903846 327.576923 167.102564 327.576923 169.301282 327.576923 171.500000 327.576923 173.698718 327.576923 175.897436 327.576923 178.096154 327.576923 180.294872 306.166667 182.493590 306.166667 184.692308 306.166667 186.891026 295.461538 189.089744 284.756410 191.288462 284.756410 193.487179 284.756410 195.685897 274.051282 197.884615 274.051282 200.083333 252.641026 202.282051 231.230769 204.480769 231.230769 206.679487 199.115385 208.878205 199.115385 211.076923 209.820513 213.275641 177.705128 215.474359 177.705128 217.673077 177.705128 219.871795 177.705128 222.070513 156.294872 224.269231 199.115385 226.467949 156.294872 228.666667 188.410256 230.865385 177.705128 233.064103 177.705128 235.262821 177.705128 237.461538 177.705128 239.660256 177.705128 241.858974 177.705128 244.057692 167.000000 246.256410 167.000000 248.455128 209.820513 250.653846 199.115385 252.852564 220.525641 255.051282 209.820513 257.250000 241.935897 259.448718 241.935897 261.647436 252.641026 263.846154 252.641026 266.044872 306.166667 268.243590 284.756410 270.442308 284.756410 272.641026 295.461538 274.839744 231.230769 277.038462 241.935897 279.237179 241.935897 281.435897 134.884615 283.634615 134.884615 285.833333 134.884615 288.032051 92.064103 290.230769 113.474359 292.429487 113.474359 294.628205 38.538462 296.826923 102.769231 299.025641 102.769231 301.224359 38.538462 303.423077 145.589744 305.621795 145.589744 307.820513 145.589744 310.019231 177.705128 312.217949 177.705128 314.416667 177.705128 316.615385 252.641026 318.814103 188.410256 321.012821 188.410256 323.211538 252.641026 325.410256 252.641026 327.608974 231.230769 329.807692 231.230769 332.006410 241.935897 334.205128 241.935897 336.403846 199.115385 338.602564 199.115385 340.801282 263.346154 343.000000 263.346154 345.198718 263.346154 347.397436 220.525641 349.596154 241.935897 351.794872 241.935897 353.993590 241.935897 356.192308 241.935897 358.391026 263.346154 360.589744 263.346154 362.788462 263.346154 364.987179 263.346154 367.185897 263.346154 369.384615 274.051282 371.583333 274.051282 373.782051 274.051282 375.980769 274.051282 378.179487 274.051282 380.378205 295.461538 382.576923 274.051282 384.775641 274.051282 386.974359 274.051282 389.173077 274.051282 391.371795 306.166667 393.570513 306.166667 395.769231 295.461538 397.967949 295.461538 400.166667 295.461538 402.365385 295.461538 404.564103 316.871795 406.762821 316.871795 408.961538 316.871795 411.160256 316.871795 413.358974 316.871795 415.557692 316.871795 417.756410 327.576923 419.955128 327.576923 422.153846 327.576923 424.352564 327.576923 426.551282 327.576923 428.750000 327.576923 430.948718 327.576923 433.147436 327.576923 435.346154 327.576923 437.544872 327.576923 439.743590 327.576923 441.942308 327.576923 444.141026 327.576923 446.339744 327.576923 448.538462 327.576923 450.737179 327.576923 452.935897 327.576923 455.134615 327.576923 457.333333 327.576923 459.532051 327.576923 461.730769 327.576923 463.929487 327.576923 466.128205 327.576923 468.326923 327.576923 470.525641 327.576923 472.724359 327.576923 474.923077 327.576923 477.121795 327.576923 479.320513 327.576923 481.519231 327.576923 483.717949 327.576923 485.916667 327.576923 488.115385 327.576923 490.314103 327.576923 492.512821 327.576923 494.711538 327.576923 496.910256 327.576923 499.108974 327.576923 501.307692 327.576923 503.506410 327.576923 505.705128 327.576923 507.903846 327.576923 510.102564 327.576923 512.301282 327.576923 514.500000 327.576923 516.698718 327.576923 518.897436 327.576923 521.096154 327.576923 523.294872 327.576923 525.493590 327.576923 527.692308 327.576923 529.891026 327.576923 532.089744 327.576923 534.288462 327.576923 536.487179 327.576923 538.685897 327.576923 540.884615 327.576923 543.083333 327.576923 545.282051 327.576923 547.480769 327.576923 549.679487 327.576923 551.878205 327.576923 554.076923 327.576923 556.275641 327.576923 558.474359 327.576923 560.673077 327.576923 562.871795 327.576923 565.070513 327.576923 567.269231 327.576923 569.467949 327.576923 571.666667 327.576923 573.865385 327.576923 576.064103 327.576923 578.262821 327.576923 580.461538 327.576923 582.660256 327.576923 584.858974 327.576923 587.057692 327.576923 589.256410 327.576923 591.455128 327.576923 593.653846 327.576923 595.852564 327.576923 598.051282 327.576923 600.250000 327.576923 602.448718 327.576923 604.647436 327.576923 606.846154 327.576923 609.044872 327.576923 611.243590 327.576923 613.442308 327.576923 615.641026 327.576923 617.839744 327.576923 620.038462 327.576923 622.237179 327.576923 624.435897 327.576923 626.634615 327.576923 628.833333 327.576923 631.032051 327.576923 633.230769 327.576923 635.429487 327.576923 637.628205 327.576923 639.826923 327.576923 642.025641 327.576923 644.224359 327.576923 646.423077 327.576923 648.621795 327.576923 650.820513 327.576923 653.019231 327.576923 655.217949 327.576923 657.416667 327.576923 659.615385 327.576923 661.814103 327.576923 664.012821 327.576923 666.211538 327.576923 668.410256 327.576923 670.608974 327.576923 672.807692 327.576923"/></g><g class="series serie-2 color-2"><path class="line reactive nofill" d="M13.192308 327.576923 L15.391026 327.576923 17.589744 327.576923 19.788462 327.576923 21.987179 327.576923 24.185897 327.576923 26.384615 327.576923 28.583333 327.576923 30.782051 327.576923 32.980769 327.576923 35.179487 327.576923 37.378205 327.576923 39.576923 327.576923 41.775641 327.576923 43.974359 327.576923 46.173077 327.576923 48.371795 327.576923 50.570513 327.576923 52.769231 327.576923 54.967949 327.576923 57.166667 327.576923 59.365385 327.576923 61.564103 327.576923 63.762821 327.576923 65.961538 327.576923 68.160256 327.576923 70.358974 327.576923 72.557692 327.576923 74.756410 327.576923 76.955128 327.576923 79.153846 327.576923 81.352564 327.576923 83.551282 327.576923 85.750000 327.576923 87.948718 327.576923 90.147436 327.576923 92.346154 327.576923 94.544872 327.576923 96.743590 327.576923 98.942308 327.576923 101.141026 327.576923 103.339744 327.576923 105.538462 327.576923 107.737179 327.576923 109.935897 327.576923 112.134615 327.576923 114.333333 327.576923 116.532051 327.576923 118.730769 327.576923 120.929487 327.576923 123.128205 327.576923 125.326923 327.576923 127.525641 327.576923 129.724359 327.576923 131.923077 327.576923 134.121795 327.576923 136.320513 316.871795 138.519231 316.871795 140.717949 316.871795 142.916667 316.871795 145.115385 316.871795 147.314103 316.871795 149.512821 295.461538 151.711538 295.461538 153.910256 295.461538 156.108974 295.461538 158.307692 263.346154 160.506410 263.346154 162.705128 263.346154 164.903846 241.935897 167.102564 199.115385 169.301282 177.705128 171.500000 199.115385 173.698718 188.410256 175.897436 167.000000 178.096154 167.000000 180.294872 177.705128 182.493590 156.294872 184.692308 145.589744 186.891026 156.294872 189.089744 188.410256 191.288462 199.115385 193.487179 177.705128 195.685897 156.294872 197.884615 177.705128 200.083333 134.884615 202.282051 167.000000 204.480769 156.294872 206.679487 167.000000 208.878205 134.884615 211.076923 145.589744 213.275641 156.294872 215.474359 177.705128 217.673077 167.000000 219.871795 167.000000 222.070513 177.705128 224.269231 167.000000 226.467949 199.115385 228.666667 177.705128 230.865385 188.410256 233.064103 188.410256 235.262821 188.410256 237.461538 188.410256 239.660256 188.410256 241.858974 167.000000 244.057692 199.115385 246.256410 209.820513 248.455128 199.115385 250.653846 220.525641 252.852564 252.641026 255.051282 241.935897 257.250000 241.935897 259.448718 241.935897 261.647436 284.756410 263.846154 295.461538 266.044872 274.051282 268.243590 252.641026 270.442308 241.935897 272.641026 241.935897 274.839744 209.820513 277.038462 156.294872 279.237179 145.589744 281.435897 124.179487 283.634615 113.474359 285.833333 113.474359 288.032051 134.884615 290.230769 124.179487 292.429487 145.589744 294.628205 113.474359 296.826923 134.884615 299.025641 199.115385 301.224359 167.000000 303.423077 188.410256 305.621795 199.115385 307.820513 199.115385 310.019231 199.115385 312.217949 209.820513 314.416667 209.820513 316.615385 241.935897 318.814103 252.641026 321.012821 252.641026 323.211538 295.461538 325.410256 295.461538 327.608974 295.461538 329.807692 295.461538 332.006410 295.461538 334.205128 316.871795 336.403846 316.871795 338.602564 316.871795 340.801282 316.871795 343.000000 316.871795 345.198718 316.871795 347.397436 316.871795 349.596154 316.871795 351.794872 327.576923 353.993590 327.576923 356.192308 327.576923 358.391026 327.576923 360.589744 327.576923 362.788462 327.576923 364.987179 327.576923 367.185897 327.576923 369.384615 327.576923 371.583333 327.576923 373.782051 327.576923 375.980769 327.576923 378.179487 327.576923 380.378205 327.576923 382.576923 327.576923 384.775641 327.576923 386.974359 327.576923 389.173077 327.576923 391.371795 327.576923 393.570513 327.576923 395.769231 327.576923 397.967949 327.576923 400.166667 327.576923 402.365385 327.576923 404.564103 327.576923 406.762821 327.576923 408.961538 327.576923 411.160256 327.576923 413.358974 327.576923 415.557692 327.576923 417.756410 327.576923 419.955128 327.576923 422.153846 327.576923 424.352564 327.576923 426.551282 327.576923 428.750000 327.576923 430.948718 327.576923 433.147436 327.576923 435.346154 327.576923 437.544872 327.576923 439.743590 327.576923 441.942308 327.576923 444.141026 327.576923 446.339744 327.576923 448.538462 327.576923 450.737179 327.576923 452.935897 327.576923 455.134615 327.576923 457.333333 327.576923 459.532051 327.576923 461.730769 327.576923 463.929487 327.576923 466.128205 327.576923 468.326923 327.576923 470.525641 327.576923 472.724359 327.576923 474.923077 327.576923 477.121795 327.576923 479.320513 327.576923 481.519231 327.576923 483.717949 327.576923 485.916667 327.576923 488.115385 327.576923 490.314103 327.576923 492.512821 327.576923 494.711538 327.576923 496.910256 327.576923 499.108974 327.576923 501.307692 327.576923 503.506410 327.576923 505.705128 327.576923 507.903846 327.576923 510.102564 327.576923 512.301282 327.576923 514.500000 327.576923 516.698718 327.576923 518.897436 327.576923 521.096154 327.576923 523.294872 327.576923 525.493590 327.576923 527.692308 327.576923 529.891026 327.576923 532.089744 327.576923 534.288462 327.576923 536.487179 327.576923 538.685897 327.576923 540.884615 327.576923 543.083333 327.576923 545.282051 327.576923 547.480769 327.576923 549.679487 327.576923 551.878205 327.576923 554.076923 327.576923 556.275641 327.576923 558.474359 327.576923 560.673077 327.576923 562.871795 327.576923 565.070513 327.576923 567.269231 327.576923 569.467949 327.576923 571.666667 327.576923 573.865385 327.576923 576.064103 327.576923 578.262821 327.576923 580.461538 327.576923 582.660256 327.576923 584.858974 327.576923 587.057692 327.576923 589.256410 327.576923 591.455128 327.576923 593.653846 327.576923 595.852564 327.576923 598.051282 327.576923 600.250000 327.576923 602.448718 327.576923 604.647436 327.576923 606.846154 327.576923 609.044872 327.576923 611.243590 327.576923 613.442308 327.576923 615.641026 327.576923 617.839744 327.576923 620.038462 327.576923 622.237179 327.576923 624.435897 327.576923 626.634615 327.576923 628.833333 327.576923 631.032051 327.576923 633.230769 327.576923 635.429487 327.576923 637.628205 327.576923 639.826923 327.576923 642.025641 327.576923 644.224359 327.576923 646.423077 327.576923 648.621795 327.576923 650.820513 327.576923 653.019231 327.576923 655.217949 327.576923 657.416667 327.576923 659.615385 327.576923 661.814103 327.576923 664.012821 327.576923 666.211538 327.576923 668.410256 327.576923 670.608974 327.576923 672.807692 327.576923"/></g><g class="series serie-3 color-3"><path class="line reactive nofill" d="M13.192308 327.576923 L15.391026 327.576923 17.589744 327.576923 19.788462 327.576923 21.987179 327.576923 24.185897 327.576923 26.384615 327.576923 28.583333 327.576923 30.782051 327.576923 32.980769 327.576923 35.179487 327.576923 37.378205 327.576923 39.576923 327.576923 41.775641 327.576923 43.974359 327.576923 46.173077 327.576923 48.371795 327.576923 50.570513 327.576923 52.769231 327.576923 54.967949 327.576923 57.166667 327.576923 59.365385 327.576923 61.564103 327.576923 63.762821 327.576923 65.961538 327.576923 68.160256 327.576923 70.358974 327.576923 72.557692 327.576923 74.756410 327.576923 76.955128 327.576923 79.153846 327.576923 81.352564 327.576923 83.551282 327.576923 85.750000 327.576923 87.948718 327.576923 90.147436 327.576923 92.346154 327.576923 94.544872 327.576923 96.743590 327.576923 98.942308 327.576923 101.141026 327.576923 103.339744 327.576923 105.538462 327.576923 107.737179 327.576923 109.935897 327.576923 112.134615 327.576923 114.333333 327.576923 116.532051 327.576923 118.730769 327.576923 120.929487 327.576923 123.128205 327.576923 125.326923 327.576923 127.525641 327.576923 129.724359 327.576923 131.923077 327.576923 134.121795 316.871795 136.320513 316.871795 138.519231 316.871795 140.717949 306.166667 142.916667 295.461538 145.115385 284.756410 147.314103 284.756410 149.512821 284.756410 151.711538 274.051282 153.910256 263.346154 156.108974 252.641026 158.307692 241.935897 160.506410 241.935897 162.705128 252.641026 164.903846 231.230769 167.102564 209.820513 169.301282 199.115385 171.500000 177.705128 173.698718 188.410256 175.897436 188.410256 178.096154 199.115385 180.294872 177.705128 182.493590 156.294872 184.692308 156.294872 186.891026 177.705128 189.089744 199.115385 191.288462 199.115385 193.487179 199.115385 195.685897 199.115385 197.884615 177.705128 200.083333 145.589744 202.282051 177.705128 204.480769 188.410256 206.679487 167.000000 208.878205 134.884615 211.076923 145.589744 213.275641 156.294872 215.474359 167.000000 217.673077 167.000000 219.871795 167.000000 222.070513 167.000000 224.269231 145.589744 226.467949 156.294872 228.666667 156.294872 230.865385 177.705128 233.064103 156.294872 235.262821 156.294872 237.461538 167.000000 239.660256 156.294872 241.858974 145.589744 244.057692 177.705128 246.256410 199.115385 248.455128 188.410256 250.653846 209.820513 252.852564 220.525641 255.051282 241.935897 257.250000 241.935897 259.448718 241.935897 261.647436 252.641026 263.846154 284.756410 266.044872 284.756410 268.243590 252.641026 270.442308 231.230769 272.641026 209.820513 274.839744 209.820513 277.038462 167.000000 279.237179 156.294872 281.435897 134.884615 283.634615 134.884615 285.833333 145.589744 288.032051 145.589744 290.230769 156.294872 292.429487 188.410256 294.628205 177.705128 296.826923 177.705128 299.025641 209.820513 301.224359 188.410256 303.423077 209.820513 305.621795 209.820513 307.820513 209.820513 310.019231 209.820513 312.217949 231.230769 314.416667 231.230769 316.615385 263.346154 318.814103 274.051282 321.012821 284.756410 323.211538 316.871795 325.410256 316.871795 327.608974 316.871795 329.807692 306.166667 332.006410 316.871795 334.205128 316.871795 336.403846 316.871795 338.602564 316.871795 340.801282 316.871795 343.000000 316.871795 345.198718 316.871795 347.397436 316.871795 349.596154 306.166667 351.794872 316.871795 353.993590 316.871795 356.192308 316.871795 358.391026 316.871795 360.589744 316.871795 362.788462 316.871795 364.987179 316.871795 367.185897 316.871795 369.384615 316.871795 371.583333 327.576923 373.782051 327.576923 375.980769 327.576923 378.179487 327.576923 380.378205 327.576923 382.576923 327.576923 384.775641 327.576923 386.974359 327.576923 389.173077 327.576923 391.371795 327.576923 393.570513 327.576923 395.769231 327.576923 397.967949 327.576923 400.166667 327.576923 402.365385 327.576923 404.564103 327.576923 406.762821 327.576923 408.961538 327.576923 411.160256 327.576923 413.358974 327.576923 415.557692 327.576923 417.756410 327.576923 419.955128 327.576923 422.153846 327.576923 424.352564 327.576923 426.551282 327.576923 428.750000 327.576923 430.948718 327.576923 433.147436 327.576923 435.346154 327.576923 437.544872 327.576923 439.743590 327.576923 441.942308 327.576923 444.141026 327.576923 446.339744 327.576923 448.538462 327.576923 450.737179 327.576923 452.935897 327.576923 455.134615 327.576923 457.333333 327.576923 459.532051 327.576923 461.730769 327.576923 463.929487 327.576923 466.128205 327.576923 468.326923 327.576923 470.525641 327.576923 472.724359 327.576923 474.923077 327.576923 477.121795 327.576923 479.320513 327.576923 481.519231 327.576923 483.717949 327.576923 485.916667 327.576923 488.115385 327.576923 490.314103 327.576923 492.512821 327.576923 494.711538 327.576923 496.910256 327.576923 499.108974 327.576923 501.307692 327.576923 503.506410 327.576923 505.705128 327.576923 507.903846 327.576923 510.102564 327.576923 512.301282 327.576923 514.500000 327.576923 516.698718 327.576923 518.897436 327.576923 521.096154 327.576923 523.294872 327.576923 525.493590 327.576923 527.692308 327.576923 529.891026 327.576923 532.089744 327.576923 534.288462 327.576923 536.487179 327.576923 538.685897 327.576923 540.884615 327.576923 543.083333 327.576923 545.282051 327.576923 547.480769 327.576923 549.679487 327.576923 551.878205 327.576923 554.076923 327.576923 556.275641 327.576923 558.474359 327.576923 560.673077 327.576923 562.871795 327.576923 565.070513 327.576923 567.269231 327.576923 569.467949 327.576923 571.666667 327.576923 573.865385 327.576923 576.064103 327.576923 578.262821 327.576923 580.461538 327.576923 582.660256 327.576923 584.858974 327.576923 587.057692 327.576923 589.256410 327.576923 591.455128 327.576923 593.653846 327.576923 595.852564 327.576923 598.051282 327.576923 600.250000 327.576923 602.448718 327.576923 604.647436 327.576923 606.846154 327.576923 609.044872 327.576923 611.243590 327.576923 613.442308 327.576923 615.641026 327.576923 617.839744 327.576923 620.038462 327.576923 622.237179 327.576923 624.435897 327.576923 626.634615 327.576923 628.833333 327.576923 631.032051 327.576923 633.230769 327.576923 635.429487 327.576923 637.628205 327.576923 639.826923 327.576923 642.025641 327.576923 644.224359 327.576923 646.423077 327.576923 648.621795 327.576923 650.820513 327.576923 653.019231 327.576923 655.217949 327.576923 657.416667 327.576923 659.615385 327.576923 661.814103 327.576923 664.012821 327.576923 666.211538 327.576923 668.410256 327.576923 670.608974 327.576923 672.807692 327.576923"/></g><g class="series serie-4 color-4"><path class="line reactive nofill" d="M13.192308 327.576923 L15.391026 327.576923 17.589744 327.576923 19.788462 327.576923 21.987179 327.576923 24.185897 327.576923 26.384615 327.576923 28.583333 327.576923 30.782051 327.576923 32.980769 327.576923 35.179487 327.576923 37.378205 327.576923 39.576923 327.576923 41.775641 327.576923 43.974359 327.576923 46.173077 327.576923 48.371795 327.576923 50.570513 327.576923 52.769231 327.576923 54.967949 327.576923 57.166667 327.576923 59.365385 327.576923 61.564103 327.576923 63.762821 327.576923 65.961538 327.576923 68.160256 327.576923 70.358974 327.576923 72.557692 327.576923 74.756410 327.576923 76.955128 327.576923 79.153846 327.576923 81.352564 327.576923 83.551282 327.576923 85.750000 327.576923 87.948718 327.576923 90.147436 327.576923 92.346154 327.576923 94.544872 316.871795 96.743590 316.871795 98.942308 316.871795 101.141026 316.871795 103.339744 316.871795 105.538462 316.871795 107.737179 316.871795 109.935897 316.871795 112.134615 316.871795 114.333333 316.871795 116.532051 327.576923 118.730769 327.576923 120.929487 327.576923 123.128205 327.576923 125.326923 327.576923 127.525641 327.576923 129.724359 327.576923 131.923077 327.576923 134.121795 327.576923 136.320513 316.871795 138.519231 316.871795 140.717949 316.871795 142.916667 316.871795 145.115385 316.871795 147.314103 316.871795 149.512821 316.871795 151.711538 316.871795 153.910256 316.871795 156.108974 284.756410 158.307692 284.756410 160.506410 284.756410 162.705128 274.051282 164.903846 263.346154 167.102564 231.230769 169.301282 231.230769 171.500000 231.230769 173.698718 209.820513 175.897436 209.820513 178.096154 241.935897 180.294872 241.935897 182.493590 231.230769 184.692308 231.230769 186.891026 231.230769 189.089744 263.346154 191.288462 241.935897 193.487179 231.230769 195.685897 252.641026 197.884615 220.525641 200.083333 209.820513 202.282051 188.410256 204.480769 177.705128 206.679487 177.705128 208.878205 145.589744 211.076923 145.589744 213.275641 167.000000 215.474359 167.000000 217.673077 156.294872 219.871795 167.000000 222.070513 145.589744 224.269231 167.000000 226.467949 188.410256 228.666667 177.705128 230.865385 209.820513 233.064103 188.410256 235.262821 188.410256 237.461538 199.115385 239.660256 167.000000 241.858974 167.000000 244.057692 199.115385 246.256410 209.820513 248.455128 199.115385 250.653846 220.525641 252.852564 220.525641 255.051282 241.935897 257.250000 241.935897 259.448718 241.935897 261.647436 284.756410 263.846154 295.461538 266.044872 263.346154 268.243590 263.346154 270.442308 241.935897 272.641026 241.935897 274.839744 241.935897 277.038462 156.294872 279.237179 145.589744 281.435897 113.474359 283.634615 113.474359 285.833333 113.474359 288.032051 113.474359 290.230769 113.474359 292.429487 145.589744 294.628205 102.769231 296.826923 92.064103 299.025641 177.705128 301.224359 145.589744 303.423077 177.705128 305.621795 167.000000 307.820513 177.705128 310.019231 199.115385 312.217949 188.410256 314.416667 188.410256 316.615385 231.230769 318.814103 252.641026 321.012821 252.641026 323.211538 295.461538 325.410256 295.461538 327.608974 306.166667 329.807692 295.461538 332.006410 295.461538 334.205128 306.166667 336.403846 284.756410 338.602564 284.756410 340.801282 284.756410 343.000000 284.756410 345.198718 284.756410 347.397436 284.756410 349.596154 274.051282 351.794872 284.756410 353.993590 295.461538 356.192308 263.346154 358.391026 284.756410 360.589744 284.756410 362.788462 284.756410 364.987179 284.756410 367.185897 284.756410 369.384615 284.756410 371.583333 295.461538 373.782051 295.461538 375.980769 295.461538 378.179487 327.576923 380.378205 327.576923 382.576923 327.576923 384.775641 327.576923 386.974359 327.576923 389.173077 327.576923 391.371795 327.576923 393.570513 327.576923 395.769231 327.576923 397.967949 327.576923 400.166667 327.576923 402.365385 327.576923 404.564103 327.576923 406.762821 327.576923 408.961538 327.576923 411.160256 327.576923 413.358974 327.576923 415.557692 327.576923 417.756410 327.576923 419.955128 327.576923 422.153846 327.576923 424.352564 327.576923 426.551282 327.576923 428.750000 327.576923 430.948718 327.576923 433.147436 327.576923 435.346154 327.576923 437.544872 327.576923 439.743590 327.576923 441.942308 327.576923 444.141026 327.576923 446.339744 327.576923 448.538462 327.576923 450.737179 327.576923 452.935897 327.576923 455.134615 327.576923 457.333333 327.576923 459.532051 327.576923 461.730769 327.576923 463.929487 327.576923 466.128205 327.576923 468.326923 327.576923 470.525641 327.576923 472.724359 327.576923 474.923077 327.576923 477.121795 327.576923 479.320513 327.576923 481.519231 327.576923 483.717949 327.576923 485.916667 327.576923 488.115385 327.576923 490.314103 327.576923 492.512821 327.576923 494.711538 327.576923 496.910256 327.576923 499.108974 327.576923 501.307692 327.576923 503.506410 327.576923 505.705128 327.576923 507.903846 327.576923 510.102564 327.576923 512.301282 327.576923 514.500000 327.576923 516.698718 327.576923 518.897436 327.576923 521.096154 327.576923 523.294872 327.576923 525.493590 327.576923 527.692308 327.576923 529.891026 327.576923 532.089744 327.576923 534.288462 327.576923 536.487179 327.576923 538.685897 327.576923 540.884615 327.576923 543.083333 327.576923 545.282051 327.576923 547.480769 327.576923 549.679487 327.576923 551.878205 327.576923 554.076923 327.576923 556.275641 327.576923 558.474359 327.576923 560.673077 327.576923 562.871795 327.576923 565.070513 327.576923 567.269231 327.576923 569.467949 327.576923 571.666667 327.576923 573.865385 327.576923 576.064103 327.576923 578.262821 327.576923 580.461538 327.576923 582.660256 327.576923 584.858974 327.576923 587.057692 327.576923 589.256410 327.576923 591.455128 327.576923 593.653846 327.576923 595.852564 327.576923 598.051282 327.576923 600.250000 327.576923 602.448718 327.576923 604.647436 327.576923 606.846154 327.576923 609.044872 327.576923 611.243590 327.576923 613.442308 327.576923 615.641026 327.576923 617.839744 327.576923 620.038462 327.576923 622.237179 327.576923 624.435897 327.576923 626.634615 327.576923 628.833333 327.576923 631.032051 327.576923 633.230769 327.576923 635.429487 327.576923 637.628205 327.576923 639.826923 327.576923 642.025641 327.576923 644.224359 327.576923 646.423077 327.576923 648.621795 327.576923 650.820513 327.576923 653.019231 327.576923 655.217949 327.576923 657.416667 327.576923 659.615385 327.576923 661.814103 327.576923 664.012821 327.576923 666.211538 327.576923 668.410256 327.576923 670.608974 327.576923 672.807692 327.576923"/></g><g class="series serie-5 color-5"><path class="line reactive nofill" d="M13.192308 327.576923 L15.391026 327.576923 17.589744 327.576923 19.788462 327.576923 21.987179 327.576923 24.185897 327.576923 26.384615 327.576923 28.583333 327.576923 30.782051 327.576923 32.980769 327.576923 35.179487 327.576923 37.378205 327.576923 39.576923 327.576923 41.775641 327.576923 43.974359 327.576923 46.173077 327.576923 48.371795 327.576923 50.570513 327.576923 52.769231 327.576923 54.967949 327.576923 57.166667 327.576923 59.365385 327.576923 61.564103 327.576923 63.762821 327.576923 65.961538 327.576923 68.160256 327.576923 70.358974 327.576923 72.557692 327.576923 74.756410 327.576923 76.955128 327.576923 79.153846 327.576923 81.352564 327.576923 83.551282 327.576923 85.750000 327.576923 87.948718 327.576923 90.147436 327.576923 92.346154 327.576923 94.544872 316.871795 96.743590 316.871795 98.942308 316.871795 101.141026 316.871795 103.339744 316.871795 105.538462 316.871795 107.737179 316.871795 109.935897 316.871795 112.134615 316.871795 114.333333 316.871795 116.532051 327.576923 118.730769 327.576923 120.929487 327.576923 123.128205 327.576923 125.326923 327.576923 127.525641 327.576923 129.724359 327.576923 131.923077 327.576923 134.121795 327.576923 136.320513 316.871795 138.519231 316.871795 140.717949 316.871795 142.916667 316.871795 145.115385 316.871795 147.314103 316.871795 149.512821 316.871795 151.711538 316.871795 153.910256 316.871795 156.108974 284.756410 158.307692 284.756410 160.506410 284.756410 162.705128 274.051282 164.903846 263.346154 167.102564 231.230769 169.301282 231.230769 171.500000 231.230769 173.698718 209.820513 175.897436 209.820513 178.096154 241.935897 180.294872 241.935897 182.493590 231.230769 184.692308 231.230769 186.891026 231.230769 189.089744 263.346154 191.288462 241.935897 193.487179 231.230769 195.685897 252.641026 197.884615 220.525641 200.083333 209.820513 202.282051 188.410256 204.480769 177.705128 206.679487 177.705128 208.878205 145.589744 211.076923 145.589744 213.275641 167.000000 215.474359 167.000000 217.673077 156.294872 219.871795 167.000000 222.070513 145.589744 224.269231 167.000000 226.467949 188.410256 228.666667 177.705128 230.865385 209.820513 233.064103 188.410256 235.262821 188.410256 237.461538 199.115385 239.660256 167.000000 241.858974 167.000000 244.057692 199.115385 246.256410 209.820513 248.455128 199.115385 250.653846 220.525641 252.852564 220.525641 255.051282 241.935897 257.250000 241.935897 259.448718 241.935897 261.647436 284.756410 263.846154 295.461538 266.044872 263.346154 268.243590 263.346154 270.442308 241.935897 272.641026 241.935897 274.839744 241.935897 277.038462 156.294872 279.237179 145.589744 281.435897 113.474359 283.634615 113.474359 285.833333 113.474359 288.032051 113.474359 290.230769 113.474359 292.429487 145.589744 294.628205 102.769231 296.826923 92.064103 299.025641 177.705128 301.224359 145.589744 303.423077 177.705128 305.621795 167.000000 307.820513 177.705128 310.019231 199.115385 312.217949 188.410256 314.416667 188.410256 316.615385 231.230769 318.814103 252.641026 321.012821 252.641026 323.211538 295.461538 325.410256 295.461538 327.608974 306.166667 329.807692 295.461538 332.006410 295.461538 334.205128 306.166667 336.403846 284.756410 338.602564 284.756410 340.801282 284.756410 343.000000 284.756410 345.198718 284.756410 347.397436 284.756410 349.596154 274.051282 351.794872 284.756410 353.993590 295.461538 356.192308 263.346154 358.391026 284.756410 360.589744 284.756410 362.788462 284.756410 364.987179 284.756410 367.185897 284.756410 369.384615 284.756410 371.583333 295.461538 373.782051 295.461538 375.980769 295.461538 378.179487 327.576923 380.378205 327.576923 382.576923 327.576923 384.775641 327.576923 386.974359 327.576923 389.173077 327.576923 391.371795 327.576923 393.570513 327.576923 395.769231 327.576923 397.967949 327.576923 400.166667 327.576923 402.365385 327.576923 404.564103 327.576923 406.762821 327.576923 408.961538 327.576923 411.160256 327.576923 413.358974 327.576923 415.557692 327.576923 417.756410 327.576923 419.955128 327.576923 422.153846 327.576923 424.352564 327.576923 426.551282 327.576923 428.750000 327.576923 430.948718 327.576923 433.147436 327.576923 435.346154 327.576923 437.544872 327.576923 439.743590 327.576923 441.942308 327.576923 444.141026 327.576923 446.339744 327.576923 448.538462 327.576923 450.737179 327.576923 452.935897 327.576923 455.134615 327.576923 457.333333 327.576923 459.532051 327.576923 461.730769 327.576923 463.929487 327.576923 466.128205 327.576923 468.326923 327.576923 470.525641 327.576923 472.724359 327.576923 474.923077 327.576923 477.121795 327.576923 479.320513 327.576923 481.519231 327.576923 483.717949 327.576923 485.916667 327.576923 488.115385 327.576923 490.314103 327.576923 492.512821 327.576923 494.711538 327.576923 496.910256 327.576923 499.108974 327.576923 501.307692 327.576923 503.506410 327.576923 505.705128 327.576923 507.903846 327.576923 510.102564 327.576923 512.301282 327.576923 514.500000 327.576923 516.698718 327.576923 518.897436 327.576923 521.096154 327.576923 523.294872 327.576923 525.493590 327.576923 527.692308 327.576923 529.891026 327.576923 532.089744 327.576923 534.288462 327.576923 536.487179 327.576923 538.685897 327.576923 540.884615 327.576923 543.083333 327.576923 545.282051 327.576923 547.480769 327.576923 549.679487 327.576923 551.878205 327.576923 554.076923 327.576923 556.275641 327.576923 558.474359 327.576923 560.673077 327.576923 562.871795 327.576923 565.070513 327.576923 567.269231 327.576923 569.467949 327.576923 571.666667 327.576923 573.865385 327.576923 576.064103 327.576923 578.262821 327.576923 580.461538 327.576923 582.660256 327.576923 584.858974 327.576923 587.057692 327.576923 589.256410 327.576923 591.455128 327.576923 593.653846 327.576923 595.852564 327.576923 598.051282 327.576923 600.250000 327.576923 602.448718 327.576923 604.647436 327.576923 606.846154 327.576923 609.044872 327.576923 611.243590 327.576923 613.442308 327.576923 615.641026 327.576923 617.839744 327.576923 620.038462 327.576923 622.237179 327.576923 624.435897 327.576923 626.634615 327.576923 628.833333 327.576923 631.032051 327.576923 633.230769 327.576923 635.429487 327.576923 637.628205 327.576923 639.826923 327.576923 642.025641 327.576923 644.224359 327.576923 646.423077 327.576923 648.621795 327.576923 650.820513 327.576923 653.019231 327.576923 655.217949 327.576923 657.416667 327.576923 659.615385 327.576923 661.814103 327.576923 664.012821 327.576923 666.211538 327.576923 668.410256 327.576923 670.608974 327.576923 672.807692 327.576923"/></g></g><g class="titles"><text class="title plot_title" x="400.0" y="28">Percentage of Annotations for T ±5.0 BPM</text><text class="title" x="437.0" y="465.0">T (BPM)</text><text class="title" x="0" y="243.0" transform="rotate(-90 0.000000 215.000000)">Values (%)</text></g><g class="plot overlay" transform="translate(94, 48)"><g class="series serie-0 color-0"><g class="dots"><circle class="dot reactive tooltip-trigger" cx="13.192307692307692" cy="327.5769230769231" r="2.5"/><desc class="value">0.0</desc><desc class="x top">13.192307692307692</desc><desc class="y top">327.5769230769231</desc><desc class="x_label">0.0</desc></g><g class="dots"><circle class="dot reactive tooltip-trigger" cx="79.15384615384616" cy="327.5769230769231" r="2.5"/><desc class="value">0.0</desc><desc class="x top">79.15384615384616</desc><desc class="y top">327.5769230769231</desc><desc class="x_label">30.0</desc></g><g class="dots"><circle class="dot reactive tooltip-trigger" cx="145.11538461538458" cy="220.52564102564105" r="2.5"/><desc class="value">10.0</desc><desc class="x top">145.11538461538458</desc><desc class="y top">220.52564102564105</desc><desc class="x_label">60.0</desc></g><g class="dots"><circle class="dot reactive tooltip-trigger" cx="211.07692307692307" cy="209.82051282051282" r="2.5"/><desc class="value">11.0</desc><desc class="x top">211.07692307692307</desc><desc class="y top">209.82051282051282</desc><desc class="x_label">90.0</desc></g><g class="dots"><circle class="dot reactive tooltip-trigger" cx="277.03846153846155" cy="220.52564102564105" r="2.5"/><desc class="value">10.0</desc><desc class="x top">277.03846153846155</desc><desc class="y top">220.52564102564105</desc><desc class="x_label">120.0</desc></g><g class="dots"><circle class="dot reactive tooltip-trigger" cx="343.0" cy="327.5769230769231" r="2.5"/><desc class="value">0.0</desc><desc class="x top">343.0</desc><desc class="y top">327.5769230769231</desc><desc class="x_label">150.0</desc></g><g class="dots"><circle class="dot reactive tooltip-trigger" cx="408.96153846153845" cy="327.5769230769231" r="2.5"/><desc class="value">0.0</desc><desc class="x left top">408.96153846153845</desc><desc class="y left top">327.5769230769231</desc><desc class="x_label">180.0</desc></g><g class="dots"><circle class="dot reactive tooltip-trigger" cx="474.92307692307685" cy="327.5769230769231" r="2.5"/><desc class="value">0.0</desc><desc class="x left top">474.92307692307685</desc><desc class="y left top">327.5769230769231</desc><desc class="x_label">210.0</desc></g><g class="dots"><circle class="dot reactive tooltip-trigger" cx="540.8846153846155" cy="327.5769230769231" r="2.5"/><desc class="value">0.0</desc><desc class="x left top">540.8846153846155</desc><desc class="y left top">327.5769230769231</desc><desc class="x_label">240.0</desc></g><g class="dots"><circle class="dot reactive tooltip-trigger" cx="606.8461538461538" cy="327.5769230769231" r="2.5"/><desc class="value">0.0</desc><desc class="x left top">606.8461538461538</desc><desc class="y left top">327.5769230769231</desc><desc class="x_label">270.0</desc></g><g class="dots"><circle class="dot reactive tooltip-trigger" cx="672.8076923076923" cy="327.5769230769231" r="2.5"/><desc class="value">0.0</desc><desc class="x left top">672.8076923076923</desc><desc class="y left top">327.5769230769231</desc><desc class="x_label">300.0</desc></g></g><g class="series serie-1 color-1"><g class="dots"><circle class="dot reactive tooltip-trigger" cx="13.192307692307692" cy="327.5769230769231" r="2.5"/><desc class="value">0.0</desc><desc class="x top">13.192307692307692</desc><desc class="y top">327.5769230769231</desc><desc class="x_label">0.0</desc></g><g class="dots"><circle class="dot reactive tooltip-trigger" cx="79.15384615384616" cy="327.5769230769231" r="2.5"/><desc class="value">0.0</desc><desc class="x top">79.15384615384616</desc><desc class="y top">327.5769230769231</desc><desc class="x_label">30.0</desc></g><g class="dots"><circle class="dot reactive tooltip-trigger" cx="145.11538461538458" cy="327.5769230769231" r="2.5"/><desc class="value">0.0</desc><desc class="x top">145.11538461538458</desc><desc class="y top">327.5769230769231</desc><desc class="x_label">60.0</desc></g><g class="dots"><circle class="dot reactive tooltip-trigger" cx="211.07692307692307" cy="209.82051282051282" r="2.5"/><desc class="value">11.0</desc><desc class="x top">211.07692307692307</desc><desc class="y top">209.82051282051282</desc><desc class="x_label">90.0</desc></g><g class="dots"><circle class="dot reactive tooltip-trigger" cx="277.03846153846155" cy="241.93589743589746" r="2.5"/><desc class="value">8.0</desc><desc class="x top">277.03846153846155</desc><desc class="y top">241.93589743589746</desc><desc class="x_label">120.0</desc></g><g class="dots"><circle class="dot reactive tooltip-trigger" cx="343.0" cy="263.34615384615387" r="2.5"/><desc class="value">6.0</desc><desc class="x top">343.0</desc><desc class="y top">263.34615384615387</desc><desc class="x_label">150.0</desc></g><g class="dots"><circle class="dot reactive tooltip-trigger" cx="408.96153846153845" cy="316.87179487179486" r="2.5"/><desc class="value">1.0</desc><desc class="x left top">408.96153846153845</desc><desc class="y left top">316.87179487179486</desc><desc class="x_label">180.0</desc></g><g class="dots"><circle class="dot reactive tooltip-trigger" cx="474.92307692307685" cy="327.5769230769231" r="2.5"/><desc class="value">0.0</desc><desc class="x left top">474.92307692307685</desc><desc class="y left top">327.5769230769231</desc><desc class="x_label">210.0</desc></g><g class="dots"><circle class="dot reactive tooltip-trigger" cx="540.8846153846155" cy="327.5769230769231" r="2.5"/><desc class="value">0.0</desc><desc class="x left top">540.8846153846155</desc><desc class="y left top">327.5769230769231</desc><desc class="x_label">240.0</desc></g><g class="dots"><circle class="dot reactive tooltip-trigger" cx="606.8461538461538" cy="327.5769230769231" r="2.5"/><desc class="value">0.0</desc><desc class="x left top">606.8461538461538</desc><desc class="y left top">327.5769230769231</desc><desc class="x_label">270.0</desc></g><g class="dots"><circle class="dot reactive tooltip-trigger" cx="672.8076923076923" cy="327.5769230769231" r="2.5"/><desc class="value">0.0</desc><desc class="x left top">672.8076923076923</desc><desc class="y left top">327.5769230769231</desc><desc class="x_label">300.0</desc></g></g><g class="series serie-2 color-2"><g class="dots"><circle class="dot reactive tooltip-trigger" cx="13.192307692307692" cy="327.5769230769231" r="2.5"/><desc class="value">0.0</desc><desc class="x top">13.192307692307692</desc><desc class="y top">327.5769230769231</desc><desc class="x_label">0.0</desc></g><g class="dots"><circle class="dot reactive tooltip-trigger" cx="79.15384615384616" cy="327.5769230769231" r="2.5"/><desc class="value">0.0</desc><desc class="x top">79.15384615384616</desc><desc class="y top">327.5769230769231</desc><desc class="x_label">30.0</desc></g><g class="dots"><circle class="dot reactive tooltip-trigger" cx="145.11538461538458" cy="316.87179487179486" r="2.5"/><desc class="value">1.0</desc><desc class="x top">145.11538461538458</desc><desc class="y top">316.87179487179486</desc><desc class="x_label">60.0</desc></g><g class="dots"><circle class="dot reactive tooltip-trigger" cx="211.07692307692307" cy="145.5897435897436" r="2.5"/><desc class="value">17.0</desc><desc class="x ">211.07692307692307</desc><desc class="y ">145.5897435897436</desc><desc class="x_label">90.0</desc></g><g class="dots"><circle class="dot reactive tooltip-trigger" cx="277.03846153846155" cy="156.2948717948718" r="2.5"/><desc class="value">16.0</desc><desc class="x ">277.03846153846155</desc><desc class="y ">156.2948717948718</desc><desc class="x_label">120.0</desc></g><g class="dots"><circle class="dot reactive tooltip-trigger" cx="343.0" cy="316.87179487179486" r="2.5"/><desc class="value">1.0</desc><desc class="x top">343.0</desc><desc class="y top">316.87179487179486</desc><desc class="x_label">150.0</desc></g><g class="dots"><circle class="dot reactive tooltip-trigger" cx="408.96153846153845" cy="327.5769230769231" r="2.5"/><desc class="value">0.0</desc><desc class="x left top">408.96153846153845</desc><desc class="y left top">327.5769230769231</desc><desc class="x_label">180.0</desc></g><g class="dots"><circle class="dot reactive tooltip-trigger" cx="474.92307692307685" cy="327.5769230769231" r="2.5"/><desc class="value">0.0</desc><desc class="x left top">474.92307692307685</desc><desc class="y left top">327.5769230769231</desc><desc class="x_label">210.0</desc></g><g class="dots"><circle class="dot reactive tooltip-trigger" cx="540.8846153846155" cy="327.5769230769231" r="2.5"/><desc class="value">0.0</desc><desc class="x left top">540.8846153846155</desc><desc class="y left top">327.5769230769231</desc><desc class="x_label">240.0</desc></g><g class="dots"><circle class="dot reactive tooltip-trigger" cx="606.8461538461538" cy="327.5769230769231" r="2.5"/><desc class="value">0.0</desc><desc class="x left top">606.8461538461538</desc><desc class="y left top">327.5769230769231</desc><desc class="x_label">270.0</desc></g><g class="dots"><circle class="dot reactive tooltip-trigger" cx="672.8076923076923" cy="327.5769230769231" r="2.5"/><desc class="value">0.0</desc><desc class="x left top">672.8076923076923</desc><desc class="y left top">327.5769230769231</desc><desc class="x_label">300.0</desc></g></g><g class="series serie-3 color-3"><g class="dots"><circle class="dot reactive tooltip-trigger" cx="13.192307692307692" cy="327.5769230769231" r="2.5"/><desc class="value">0.0</desc><desc class="x top">13.192307692307692</desc><desc class="y top">327.5769230769231</desc><desc class="x_label">0.0</desc></g><g class="dots"><circle class="dot reactive tooltip-trigger" cx="79.15384615384616" cy="327.5769230769231" r="2.5"/><desc class="value">0.0</desc><desc class="x top">79.15384615384616</desc><desc class="y top">327.5769230769231</desc><desc class="x_label">30.0</desc></g><g class="dots"><circle class="dot reactive tooltip-trigger" cx="145.11538461538458" cy="284.7564102564103" r="2.5"/><desc class="value">4.0</desc><desc class="x top">145.11538461538458</desc><desc class="y top">284.7564102564103</desc><desc class="x_label">60.0</desc></g><g class="dots"><circle class="dot reactive tooltip-trigger" cx="211.07692307692307" cy="145.5897435897436" r="2.5"/><desc class="value">17.0</desc><desc class="x ">211.07692307692307</desc><desc class="y ">145.5897435897436</desc><desc class="x_label">90.0</desc></g><g class="dots"><circle class="dot reactive tooltip-trigger" cx="277.03846153846155" cy="167.00000000000003" r="2.5"/><desc class="value">15.0</desc><desc class="x top">277.03846153846155</desc><desc class="y top">167.00000000000003</desc><desc class="x_label">120.0</desc></g><g class="dots"><circle class="dot reactive tooltip-trigger" cx="343.0" cy="316.87179487179486" r="2.5"/><desc class="value">1.0</desc><desc class="x top">343.0</desc><desc class="y top">316.87179487179486</desc><desc class="x_label">150.0</desc></g><g class="dots"><circle class="dot reactive tooltip-trigger" cx="408.96153846153845" cy="327.5769230769231" r="2.5"/><desc class="value">0.0</desc><desc class="x left top">408.96153846153845</desc><desc class="y left top">327.5769230769231</desc><desc class="x_label">180.0</desc></g><g class="dots"><circle class="dot reactive tooltip-trigger" cx="474.92307692307685" cy="327.5769230769231" r="2.5"/><desc class="value">0.0</desc><desc class="x left top">474.92307692307685</desc><desc class="y left top">327.5769230769231</desc><desc class="x_label">210.0</desc></g><g class="dots"><circle class="dot reactive tooltip-trigger" cx="540.8846153846155" cy="327.5769230769231" r="2.5"/><desc class="value">0.0</desc><desc class="x left top">540.8846153846155</desc><desc class="y left top">327.5769230769231</desc><desc class="x_label">240.0</desc></g><g class="dots"><circle class="dot reactive tooltip-trigger" cx="606.8461538461538" cy="327.5769230769231" r="2.5"/><desc class="value">0.0</desc><desc class="x left top">606.8461538461538</desc><desc class="y left top">327.5769230769231</desc><desc class="x_label">270.0</desc></g><g class="dots"><circle class="dot reactive tooltip-trigger" cx="672.8076923076923" cy="327.5769230769231" r="2.5"/><desc class="value">0.0</desc><desc class="x left top">672.8076923076923</desc><desc class="y left top">327.5769230769231</desc><desc class="x_label">300.0</desc></g></g><g class="series serie-4 color-4"><g class="dots"><circle class="dot reactive tooltip-trigger" cx="13.192307692307692" cy="327.5769230769231" r="2.5"/><desc class="value">0.0</desc><desc class="x top">13.192307692307692</desc><desc class="y top">327.5769230769231</desc><desc class="x_label">0.0</desc></g><g class="dots"><circle class="dot reactive tooltip-trigger" cx="79.15384615384616" cy="327.5769230769231" r="2.5"/><desc class="value">0.0</desc><desc class="x top">79.15384615384616</desc><desc class="y top">327.5769230769231</desc><desc class="x_label">30.0</desc></g><g class="dots"><circle class="dot reactive tooltip-trigger" cx="145.11538461538458" cy="316.87179487179486" r="2.5"/><desc class="value">1.0</desc><desc class="x top">145.11538461538458</desc><desc class="y top">316.87179487179486</desc><desc class="x_label">60.0</desc></g><g class="dots"><circle class="dot reactive tooltip-trigger" cx="211.07692307692307" cy="145.5897435897436" r="2.5"/><desc class="value">17.0</desc><desc class="x ">211.07692307692307</desc><desc class="y ">145.5897435897436</desc><desc class="x_label">90.0</desc></g><g class="dots"><circle class="dot reactive tooltip-trigger" cx="277.03846153846155" cy="156.2948717948718" r="2.5"/><desc class="value">16.0</desc><desc class="x ">277.03846153846155</desc><desc class="y ">156.2948717948718</desc><desc class="x_label">120.0</desc></g><g class="dots"><circle class="dot reactive tooltip-trigger" cx="343.0" cy="284.7564102564103" r="2.5"/><desc class="value">4.0</desc><desc class="x top">343.0</desc><desc class="y top">284.7564102564103</desc><desc class="x_label">150.0</desc></g><g class="dots"><circle class="dot reactive tooltip-trigger" cx="408.96153846153845" cy="327.5769230769231" r="2.5"/><desc class="value">0.0</desc><desc class="x left top">408.96153846153845</desc><desc class="y left top">327.5769230769231</desc><desc class="x_label">180.0</desc></g><g class="dots"><circle class="dot reactive tooltip-trigger" cx="474.92307692307685" cy="327.5769230769231" r="2.5"/><desc class="value">0.0</desc><desc class="x left top">474.92307692307685</desc><desc class="y left top">327.5769230769231</desc><desc class="x_label">210.0</desc></g><g class="dots"><circle class="dot reactive tooltip-trigger" cx="540.8846153846155" cy="327.5769230769231" r="2.5"/><desc class="value">0.0</desc><desc class="x left top">540.8846153846155</desc><desc class="y left top">327.5769230769231</desc><desc class="x_label">240.0</desc></g><g class="dots"><circle class="dot reactive tooltip-trigger" cx="606.8461538461538" cy="327.5769230769231" r="2.5"/><desc class="value">0.0</desc><desc class="x left top">606.8461538461538</desc><desc class="y left top">327.5769230769231</desc><desc class="x_label">270.0</desc></g><g class="dots"><circle class="dot reactive tooltip-trigger" cx="672.8076923076923" cy="327.5769230769231" r="2.5"/><desc class="value">0.0</desc><desc class="x left top">672.8076923076923</desc><desc class="y left top">327.5769230769231</desc><desc class="x_label">300.0</desc></g></g><g class="series serie-5 color-5"><g class="dots"><circle class="dot reactive tooltip-trigger" cx="13.192307692307692" cy="327.5769230769231" r="2.5"/><desc class="value">0.0</desc><desc class="x top">13.192307692307692</desc><desc class="y top">327.5769230769231</desc><desc class="x_label">0.0</desc></g><g class="dots"><circle class="dot reactive tooltip-trigger" cx="79.15384615384616" cy="327.5769230769231" r="2.5"/><desc class="value">0.0</desc><desc class="x top">79.15384615384616</desc><desc class="y top">327.5769230769231</desc><desc class="x_label">30.0</desc></g><g class="dots"><circle class="dot reactive tooltip-trigger" cx="145.11538461538458" cy="316.87179487179486" r="2.5"/><desc class="value">1.0</desc><desc class="x top">145.11538461538458</desc><desc class="y top">316.87179487179486</desc><desc class="x_label">60.0</desc></g><g class="dots"><circle class="dot reactive tooltip-trigger" cx="211.07692307692307" cy="145.5897435897436" r="2.5"/><desc class="value">17.0</desc><desc class="x ">211.07692307692307</desc><desc class="y ">145.5897435897436</desc><desc class="x_label">90.0</desc></g><g class="dots"><circle class="dot reactive tooltip-trigger" cx="277.03846153846155" cy="156.2948717948718" r="2.5"/><desc class="value">16.0</desc><desc class="x ">277.03846153846155</desc><desc class="y ">156.2948717948718</desc><desc class="x_label">120.0</desc></g><g class="dots"><circle class="dot reactive tooltip-trigger" cx="343.0" cy="284.7564102564103" r="2.5"/><desc class="value">4.0</desc><desc class="x top">343.0</desc><desc class="y top">284.7564102564103</desc><desc class="x_label">150.0</desc></g><g class="dots"><circle class="dot reactive tooltip-trigger" cx="408.96153846153845" cy="327.5769230769231" r="2.5"/><desc class="value">0.0</desc><desc class="x left top">408.96153846153845</desc><desc class="y left top">327.5769230769231</desc><desc class="x_label">180.0</desc></g><g class="dots"><circle class="dot reactive tooltip-trigger" cx="474.92307692307685" cy="327.5769230769231" r="2.5"/><desc class="value">0.0</desc><desc class="x left top">474.92307692307685</desc><desc class="y left top">327.5769230769231</desc><desc class="x_label">210.0</desc></g><g class="dots"><circle class="dot reactive tooltip-trigger" cx="540.8846153846155" cy="327.5769230769231" r="2.5"/><desc class="value">0.0</desc><desc class="x left top">540.8846153846155</desc><desc class="y left top">327.5769230769231</desc><desc class="x_label">240.0</desc></g><g class="dots"><circle class="dot reactive tooltip-trigger" cx="606.8461538461538" cy="327.5769230769231" r="2.5"/><desc class="value">0.0</desc><desc class="x left top">606.8461538461538</desc><desc class="y left top">327.5769230769231</desc><desc class="x_label">270.0</desc></g><g class="dots"><circle class="dot reactive tooltip-trigger" cx="672.8076923076923" cy="327.5769230769231" r="2.5"/><desc class="value">0.0</desc><desc class="x left top">672.8076923076923</desc><desc class="y left top">327.5769230769231</desc><desc class="x_label">300.0</desc></g></g></g><g class="plot text-overlay" transform="translate(94, 48)"><g class="series serie-0 color-0"/><g class="series serie-1 color-1"/><g class="series serie-2 color-2"/><g class="series serie-3 color-3"/><g class="series serie-4 color-4"/><g class="series serie-5 color-5"/></g><g class="plot tooltip-overlay" transform="translate(94, 48)"><g class="tooltip" style="opacity: 0" transform="translate(0 0)"><rect class="tooltip-box" height="0" rx="0" ry="0" width="0"/><g class="text"/></g></g><g class="legends" transform="translate(104, 485)"><g class="legend reactive activate-serie" id="activate-serie-0"><rect class="color-0 reactive" height="12" width="12" x="0.0" y="1.5"/><text x="17.0" y="12.0">boeck2015/tempodetector2016_default</text></g><g class="legend reactive activate-serie" id="activate-serie-1"><rect class="color-1 reactive" height="12" width="12" x="343.0" y="1.5"/><text x="360.0" y="12.0">davies2009/mirex_qm_tempotracker</text></g><g class="legend reactive activate-serie" id="activate-serie-2"><rect class="color-2 reactive" height="12" width="12" x="0.0" y="24.0"/><text x="17.0" y="34.5">percival2014/stem</text></g><g class="legend reactive activate-serie" id="activate-serie-3"><rect class="color-3 reactive" height="12" width="12" x="343.0" y="24.0"/><text x="360.0" y="34.5">schreiber2014/default</text></g><g class="legend reactive activate-serie" id="activate-serie-4"><rect class="color-4 reactive" height="12" width="12" x="0.0" y="46.5"/><text x="17.0" y="57.0">schreiber2017/ismir2017</text></g><g class="legend reactive activate-serie" id="activate-serie-5"><rect class="color-5 reactive" height="12" width="12" x="343.0" y="46.5"/><text x="360.0" y="57.0">schreiber2017/mirex2017</text></g></g></g></svg>