<?xml version="1.0" encoding="utf-8" standalone="no"?>
<!DOCTYPE svg PUBLIC "-//W3C//DTD SVG 1.1//EN"
  "http://www.w3.org/Graphics/SVG/1.1/DTD/svg11.dtd">
<!-- Created with matplotlib (http://matplotlib.org/) -->
<svg height="381.426375pt" version="1.1" viewBox="0 0 632.498437 381.426375" width="632.498437pt" xmlns="http://www.w3.org/2000/svg" xmlns:xlink="http://www.w3.org/1999/xlink">
 <defs>
  <style type="text/css">
*{stroke-linecap:butt;stroke-linejoin:round;}
  </style>
 </defs>
 <g id="figure_1">
  <g id="patch_1">
   <path d="M -0 381.426375 
L 632.498438 381.426375 
L 632.498438 0 
L -0 0 
z
" style="fill:#ffffff;"/>
  </g>
  <g id="axes_1">
   <g id="patch_2">
    <path d="M 226.746875 343.870125 
L 617.346875 343.870125 
L 617.346875 22.318125 
L 226.746875 22.318125 
z
" style="fill:#ffffff;"/>
   </g>
   <g id="matplotlib.axis_1">
    <g id="xtick_1">
     <g id="line2d_1">
      <path clip-path="url(#p1a82d094ce)" d="M 226.746875 343.870125 
L 226.746875 22.318125 
" style="fill:none;stroke:#b0b0b0;stroke-linecap:square;stroke-width:0.8;"/>
     </g>
     <g id="line2d_2">
      <defs>
       <path d="M 0 0 
L 0 3.5 
" id="m9ec6f89a1e" style="stroke:#000000;stroke-width:0.8;"/>
      </defs>
      <g>
       <use style="stroke:#000000;stroke-width:0.8;" x="226.746875" xlink:href="#m9ec6f89a1e" y="343.870125"/>
      </g>
     </g>
     <g id="text_1">
      <!-- −2.0 -->
      <defs>
       <path d="M 10.59375 35.5 
L 73.1875 35.5 
L 73.1875 27.203125 
L 10.59375 27.203125 
z
" id="DejaVuSans-2212"/>
       <path d="M 19.1875 8.296875 
L 53.609375 8.296875 
L 53.609375 0 
L 7.328125 0 
L 7.328125 8.296875 
Q 12.9375 14.109375 22.625 23.890625 
Q 32.328125 33.6875 34.8125 36.53125 
Q 39.546875 41.84375 41.421875 45.53125 
Q 43.3125 49.21875 43.3125 52.78125 
Q 43.3125 58.59375 39.234375 62.25 
Q 35.15625 65.921875 28.609375 65.921875 
Q 23.96875 65.921875 18.8125 64.3125 
Q 13.671875 62.703125 7.8125 59.421875 
L 7.8125 69.390625 
Q 13.765625 71.78125 18.9375 73 
Q 24.125 74.21875 28.421875 74.21875 
Q 39.75 74.21875 46.484375 68.546875 
Q 53.21875 62.890625 53.21875 53.421875 
Q 53.21875 48.921875 51.53125 44.890625 
Q 49.859375 40.875 45.40625 35.40625 
Q 44.1875 33.984375 37.640625 27.21875 
Q 31.109375 20.453125 19.1875 8.296875 
z
" id="DejaVuSans-32"/>
       <path d="M 10.6875 12.40625 
L 21 12.40625 
L 21 0 
L 10.6875 0 
z
" id="DejaVuSans-2e"/>
       <path d="M 31.78125 66.40625 
Q 24.171875 66.40625 20.328125 58.90625 
Q 16.5 51.421875 16.5 36.375 
Q 16.5 21.390625 20.328125 13.890625 
Q 24.171875 6.390625 31.78125 6.390625 
Q 39.453125 6.390625 43.28125 13.890625 
Q 47.125 21.390625 47.125 36.375 
Q 47.125 51.421875 43.28125 58.90625 
Q 39.453125 66.40625 31.78125 66.40625 
z
M 31.78125 74.21875 
Q 44.046875 74.21875 50.515625 64.515625 
Q 56.984375 54.828125 56.984375 36.375 
Q 56.984375 17.96875 50.515625 8.265625 
Q 44.046875 -1.421875 31.78125 -1.421875 
Q 19.53125 -1.421875 13.0625 8.265625 
Q 6.59375 17.96875 6.59375 36.375 
Q 6.59375 54.828125 13.0625 64.515625 
Q 19.53125 74.21875 31.78125 74.21875 
z
" id="DejaVuSans-30"/>
      </defs>
      <g transform="translate(214.605469 358.468563)scale(0.1 -0.1)">
       <use xlink:href="#DejaVuSans-2212"/>
       <use x="83.789062" xlink:href="#DejaVuSans-32"/>
       <use x="147.412109" xlink:href="#DejaVuSans-2e"/>
       <use x="179.199219" xlink:href="#DejaVuSans-30"/>
      </g>
     </g>
    </g>
    <g id="xtick_2">
     <g id="line2d_3">
      <path clip-path="url(#p1a82d094ce)" d="M 275.571875 343.870125 
L 275.571875 22.318125 
" style="fill:none;stroke:#b0b0b0;stroke-linecap:square;stroke-width:0.8;"/>
     </g>
     <g id="line2d_4">
      <g>
       <use style="stroke:#000000;stroke-width:0.8;" x="275.571875" xlink:href="#m9ec6f89a1e" y="343.870125"/>
      </g>
     </g>
     <g id="text_2">
      <!-- −1.5 -->
      <defs>
       <path d="M 12.40625 8.296875 
L 28.515625 8.296875 
L 28.515625 63.921875 
L 10.984375 60.40625 
L 10.984375 69.390625 
L 28.421875 72.90625 
L 38.28125 72.90625 
L 38.28125 8.296875 
L 54.390625 8.296875 
L 54.390625 0 
L 12.40625 0 
z
" id="DejaVuSans-31"/>
       <path d="M 10.796875 72.90625 
L 49.515625 72.90625 
L 49.515625 64.59375 
L 19.828125 64.59375 
L 19.828125 46.734375 
Q 21.96875 47.46875 24.109375 47.828125 
Q 26.265625 48.1875 28.421875 48.1875 
Q 40.625 48.1875 47.75 41.5 
Q 54.890625 34.8125 54.890625 23.390625 
Q 54.890625 11.625 47.5625 5.09375 
Q 40.234375 -1.421875 26.90625 -1.421875 
Q 22.3125 -1.421875 17.546875 -0.640625 
Q 12.796875 0.140625 7.71875 1.703125 
L 7.71875 11.625 
Q 12.109375 9.234375 16.796875 8.0625 
Q 21.484375 6.890625 26.703125 6.890625 
Q 35.15625 6.890625 40.078125 11.328125 
Q 45.015625 15.765625 45.015625 23.390625 
Q 45.015625 31 40.078125 35.4375 
Q 35.15625 39.890625 26.703125 39.890625 
Q 22.75 39.890625 18.8125 39.015625 
Q 14.890625 38.140625 10.796875 36.28125 
z
" id="DejaVuSans-35"/>
      </defs>
      <g transform="translate(263.430469 358.468563)scale(0.1 -0.1)">
       <use xlink:href="#DejaVuSans-2212"/>
       <use x="83.789062" xlink:href="#DejaVuSans-31"/>
       <use x="147.412109" xlink:href="#DejaVuSans-2e"/>
       <use x="179.199219" xlink:href="#DejaVuSans-35"/>
      </g>
     </g>
    </g>
    <g id="xtick_3">
     <g id="line2d_5">
      <path clip-path="url(#p1a82d094ce)" d="M 324.396875 343.870125 
L 324.396875 22.318125 
" style="fill:none;stroke:#b0b0b0;stroke-linecap:square;stroke-width:0.8;"/>
     </g>
     <g id="line2d_6">
      <g>
       <use style="stroke:#000000;stroke-width:0.8;" x="324.396875" xlink:href="#m9ec6f89a1e" y="343.870125"/>
      </g>
     </g>
     <g id="text_3">
      <!-- −1.0 -->
      <g transform="translate(312.255469 358.468563)scale(0.1 -0.1)">
       <use xlink:href="#DejaVuSans-2212"/>
       <use x="83.789062" xlink:href="#DejaVuSans-31"/>
       <use x="147.412109" xlink:href="#DejaVuSans-2e"/>
       <use x="179.199219" xlink:href="#DejaVuSans-30"/>
      </g>
     </g>
    </g>
    <g id="xtick_4">
     <g id="line2d_7">
      <path clip-path="url(#p1a82d094ce)" d="M 373.221875 343.870125 
L 373.221875 22.318125 
" style="fill:none;stroke:#b0b0b0;stroke-linecap:square;stroke-width:0.8;"/>
     </g>
     <g id="line2d_8">
      <g>
       <use style="stroke:#000000;stroke-width:0.8;" x="373.221875" xlink:href="#m9ec6f89a1e" y="343.870125"/>
      </g>
     </g>
     <g id="text_4">
      <!-- −0.5 -->
      <g transform="translate(361.080469 358.468563)scale(0.1 -0.1)">
       <use xlink:href="#DejaVuSans-2212"/>
       <use x="83.789062" xlink:href="#DejaVuSans-30"/>
       <use x="147.412109" xlink:href="#DejaVuSans-2e"/>
       <use x="179.199219" xlink:href="#DejaVuSans-35"/>
      </g>
     </g>
    </g>
    <g id="xtick_5">
     <g id="line2d_9">
      <path clip-path="url(#p1a82d094ce)" d="M 422.046875 343.870125 
L 422.046875 22.318125 
" style="fill:none;stroke:#b0b0b0;stroke-linecap:square;stroke-width:0.8;"/>
     </g>
     <g id="line2d_10">
      <g>
       <use style="stroke:#000000;stroke-width:0.8;" x="422.046875" xlink:href="#m9ec6f89a1e" y="343.870125"/>
      </g>
     </g>
     <g id="text_5">
      <!-- 0.0 -->
      <g transform="translate(414.095312 358.468563)scale(0.1 -0.1)">
       <use xlink:href="#DejaVuSans-30"/>
       <use x="63.623047" xlink:href="#DejaVuSans-2e"/>
       <use x="95.410156" xlink:href="#DejaVuSans-30"/>
      </g>
     </g>
    </g>
    <g id="xtick_6">
     <g id="line2d_11">
      <path clip-path="url(#p1a82d094ce)" d="M 470.871875 343.870125 
L 470.871875 22.318125 
" style="fill:none;stroke:#b0b0b0;stroke-linecap:square;stroke-width:0.8;"/>
     </g>
     <g id="line2d_12">
      <g>
       <use style="stroke:#000000;stroke-width:0.8;" x="470.871875" xlink:href="#m9ec6f89a1e" y="343.870125"/>
      </g>
     </g>
     <g id="text_6">
      <!-- 0.5 -->
      <g transform="translate(462.920312 358.468563)scale(0.1 -0.1)">
       <use xlink:href="#DejaVuSans-30"/>
       <use x="63.623047" xlink:href="#DejaVuSans-2e"/>
       <use x="95.410156" xlink:href="#DejaVuSans-35"/>
      </g>
     </g>
    </g>
    <g id="xtick_7">
     <g id="line2d_13">
      <path clip-path="url(#p1a82d094ce)" d="M 519.696875 343.870125 
L 519.696875 22.318125 
" style="fill:none;stroke:#b0b0b0;stroke-linecap:square;stroke-width:0.8;"/>
     </g>
     <g id="line2d_14">
      <g>
       <use style="stroke:#000000;stroke-width:0.8;" x="519.696875" xlink:href="#m9ec6f89a1e" y="343.870125"/>
      </g>
     </g>
     <g id="text_7">
      <!-- 1.0 -->
      <g transform="translate(511.745312 358.468563)scale(0.1 -0.1)">
       <use xlink:href="#DejaVuSans-31"/>
       <use x="63.623047" xlink:href="#DejaVuSans-2e"/>
       <use x="95.410156" xlink:href="#DejaVuSans-30"/>
      </g>
     </g>
    </g>
    <g id="xtick_8">
     <g id="line2d_15">
      <path clip-path="url(#p1a82d094ce)" d="M 568.521875 343.870125 
L 568.521875 22.318125 
" style="fill:none;stroke:#b0b0b0;stroke-linecap:square;stroke-width:0.8;"/>
     </g>
     <g id="line2d_16">
      <g>
       <use style="stroke:#000000;stroke-width:0.8;" x="568.521875" xlink:href="#m9ec6f89a1e" y="343.870125"/>
      </g>
     </g>
     <g id="text_8">
      <!-- 1.5 -->
      <g transform="translate(560.570312 358.468563)scale(0.1 -0.1)">
       <use xlink:href="#DejaVuSans-31"/>
       <use x="63.623047" xlink:href="#DejaVuSans-2e"/>
       <use x="95.410156" xlink:href="#DejaVuSans-35"/>
      </g>
     </g>
    </g>
    <g id="xtick_9">
     <g id="line2d_17">
      <path clip-path="url(#p1a82d094ce)" d="M 617.346875 343.870125 
L 617.346875 22.318125 
" style="fill:none;stroke:#b0b0b0;stroke-linecap:square;stroke-width:0.8;"/>
     </g>
     <g id="line2d_18">
      <g>
       <use style="stroke:#000000;stroke-width:0.8;" x="617.346875" xlink:href="#m9ec6f89a1e" y="343.870125"/>
      </g>
     </g>
     <g id="text_9">
      <!-- 2.0 -->
      <g transform="translate(609.395313 358.468563)scale(0.1 -0.1)">
       <use xlink:href="#DejaVuSans-32"/>
       <use x="63.623047" xlink:href="#DejaVuSans-2e"/>
       <use x="95.410156" xlink:href="#DejaVuSans-30"/>
      </g>
     </g>
    </g>
    <g id="text_10">
     <!-- OE1 (TO) -->
     <defs>
      <path d="M 39.40625 66.21875 
Q 28.65625 66.21875 22.328125 58.203125 
Q 16.015625 50.203125 16.015625 36.375 
Q 16.015625 22.609375 22.328125 14.59375 
Q 28.65625 6.59375 39.40625 6.59375 
Q 50.140625 6.59375 56.421875 14.59375 
Q 62.703125 22.609375 62.703125 36.375 
Q 62.703125 50.203125 56.421875 58.203125 
Q 50.140625 66.21875 39.40625 66.21875 
z
M 39.40625 74.21875 
Q 54.734375 74.21875 63.90625 63.9375 
Q 73.09375 53.65625 73.09375 36.375 
Q 73.09375 19.140625 63.90625 8.859375 
Q 54.734375 -1.421875 39.40625 -1.421875 
Q 24.03125 -1.421875 14.8125 8.828125 
Q 5.609375 19.09375 5.609375 36.375 
Q 5.609375 53.65625 14.8125 63.9375 
Q 24.03125 74.21875 39.40625 74.21875 
z
" id="DejaVuSans-4f"/>
      <path d="M 9.8125 72.90625 
L 55.90625 72.90625 
L 55.90625 64.59375 
L 19.671875 64.59375 
L 19.671875 43.015625 
L 54.390625 43.015625 
L 54.390625 34.71875 
L 19.671875 34.71875 
L 19.671875 8.296875 
L 56.78125 8.296875 
L 56.78125 0 
L 9.8125 0 
z
" id="DejaVuSans-45"/>
      <path id="DejaVuSans-20"/>
      <path d="M 31 75.875 
Q 24.46875 64.65625 21.28125 53.65625 
Q 18.109375 42.671875 18.109375 31.390625 
Q 18.109375 20.125 21.3125 9.0625 
Q 24.515625 -2 31 -13.1875 
L 23.1875 -13.1875 
Q 15.875 -1.703125 12.234375 9.375 
Q 8.59375 20.453125 8.59375 31.390625 
Q 8.59375 42.28125 12.203125 53.3125 
Q 15.828125 64.359375 23.1875 75.875 
z
" id="DejaVuSans-28"/>
      <path d="M -0.296875 72.90625 
L 61.375 72.90625 
L 61.375 64.59375 
L 35.5 64.59375 
L 35.5 0 
L 25.59375 0 
L 25.59375 64.59375 
L -0.296875 64.59375 
z
" id="DejaVuSans-54"/>
      <path d="M 8.015625 75.875 
L 15.828125 75.875 
Q 23.140625 64.359375 26.78125 53.3125 
Q 30.421875 42.28125 30.421875 31.390625 
Q 30.421875 20.453125 26.78125 9.375 
Q 23.140625 -1.703125 15.828125 -13.1875 
L 8.015625 -13.1875 
Q 14.5 -2 17.703125 9.0625 
Q 20.90625 20.125 20.90625 31.390625 
Q 20.90625 42.671875 17.703125 53.65625 
Q 14.5 64.65625 8.015625 75.875 
z
" id="DejaVuSans-29"/>
     </defs>
     <g transform="translate(399.289844 372.146687)scale(0.1 -0.1)">
      <use xlink:href="#DejaVuSans-4f"/>
      <use x="78.710938" xlink:href="#DejaVuSans-45"/>
      <use x="141.894531" xlink:href="#DejaVuSans-31"/>
      <use x="205.517578" xlink:href="#DejaVuSans-20"/>
      <use x="237.304688" xlink:href="#DejaVuSans-28"/>
      <use x="276.318359" xlink:href="#DejaVuSans-54"/>
      <use x="337.402344" xlink:href="#DejaVuSans-4f"/>
      <use x="416.113281" xlink:href="#DejaVuSans-29"/>
     </g>
    </g>
   </g>
   <g id="matplotlib.axis_2">
    <g id="ytick_1">
     <g id="line2d_19">
      <path clip-path="url(#p1a82d094ce)" d="M 226.746875 320.656478 
L 617.346875 320.656478 
" style="fill:none;stroke:#b0b0b0;stroke-linecap:square;stroke-width:0.8;"/>
     </g>
     <g id="line2d_20">
      <defs>
       <path d="M 0 0 
L -3.5 0 
" id="m8c91bc2de7" style="stroke:#000000;stroke-width:0.8;"/>
      </defs>
      <g>
       <use style="stroke:#000000;stroke-width:0.8;" x="226.746875" xlink:href="#m8c91bc2de7" y="320.656478"/>
      </g>
     </g>
     <g id="text_11">
      <!-- schreiber2018/ismir2018 -->
      <defs>
       <path d="M 44.28125 53.078125 
L 44.28125 44.578125 
Q 40.484375 46.53125 36.375 47.5 
Q 32.28125 48.484375 27.875 48.484375 
Q 21.1875 48.484375 17.84375 46.4375 
Q 14.5 44.390625 14.5 40.28125 
Q 14.5 37.15625 16.890625 35.375 
Q 19.28125 33.59375 26.515625 31.984375 
L 29.59375 31.296875 
Q 39.15625 29.25 43.1875 25.515625 
Q 47.21875 21.78125 47.21875 15.09375 
Q 47.21875 7.46875 41.1875 3.015625 
Q 35.15625 -1.421875 24.609375 -1.421875 
Q 20.21875 -1.421875 15.453125 -0.5625 
Q 10.6875 0.296875 5.421875 2 
L 5.421875 11.28125 
Q 10.40625 8.6875 15.234375 7.390625 
Q 20.0625 6.109375 24.8125 6.109375 
Q 31.15625 6.109375 34.5625 8.28125 
Q 37.984375 10.453125 37.984375 14.40625 
Q 37.984375 18.0625 35.515625 20.015625 
Q 33.0625 21.96875 24.703125 23.78125 
L 21.578125 24.515625 
Q 13.234375 26.265625 9.515625 29.90625 
Q 5.8125 33.546875 5.8125 39.890625 
Q 5.8125 47.609375 11.28125 51.796875 
Q 16.75 56 26.8125 56 
Q 31.78125 56 36.171875 55.265625 
Q 40.578125 54.546875 44.28125 53.078125 
z
" id="DejaVuSans-73"/>
       <path d="M 48.78125 52.59375 
L 48.78125 44.1875 
Q 44.96875 46.296875 41.140625 47.34375 
Q 37.3125 48.390625 33.40625 48.390625 
Q 24.65625 48.390625 19.8125 42.84375 
Q 14.984375 37.3125 14.984375 27.296875 
Q 14.984375 17.28125 19.8125 11.734375 
Q 24.65625 6.203125 33.40625 6.203125 
Q 37.3125 6.203125 41.140625 7.25 
Q 44.96875 8.296875 48.78125 10.40625 
L 48.78125 2.09375 
Q 45.015625 0.34375 40.984375 -0.53125 
Q 36.96875 -1.421875 32.421875 -1.421875 
Q 20.0625 -1.421875 12.78125 6.34375 
Q 5.515625 14.109375 5.515625 27.296875 
Q 5.515625 40.671875 12.859375 48.328125 
Q 20.21875 56 33.015625 56 
Q 37.15625 56 41.109375 55.140625 
Q 45.0625 54.296875 48.78125 52.59375 
z
" id="DejaVuSans-63"/>
       <path d="M 54.890625 33.015625 
L 54.890625 0 
L 45.90625 0 
L 45.90625 32.71875 
Q 45.90625 40.484375 42.875 44.328125 
Q 39.84375 48.1875 33.796875 48.1875 
Q 26.515625 48.1875 22.3125 43.546875 
Q 18.109375 38.921875 18.109375 30.90625 
L 18.109375 0 
L 9.078125 0 
L 9.078125 75.984375 
L 18.109375 75.984375 
L 18.109375 46.1875 
Q 21.34375 51.125 25.703125 53.5625 
Q 30.078125 56 35.796875 56 
Q 45.21875 56 50.046875 50.171875 
Q 54.890625 44.34375 54.890625 33.015625 
z
" id="DejaVuSans-68"/>
       <path d="M 41.109375 46.296875 
Q 39.59375 47.171875 37.8125 47.578125 
Q 36.03125 48 33.890625 48 
Q 26.265625 48 22.1875 43.046875 
Q 18.109375 38.09375 18.109375 28.8125 
L 18.109375 0 
L 9.078125 0 
L 9.078125 54.6875 
L 18.109375 54.6875 
L 18.109375 46.1875 
Q 20.953125 51.171875 25.484375 53.578125 
Q 30.03125 56 36.53125 56 
Q 37.453125 56 38.578125 55.875 
Q 39.703125 55.765625 41.0625 55.515625 
z
" id="DejaVuSans-72"/>
       <path d="M 56.203125 29.59375 
L 56.203125 25.203125 
L 14.890625 25.203125 
Q 15.484375 15.921875 20.484375 11.0625 
Q 25.484375 6.203125 34.421875 6.203125 
Q 39.59375 6.203125 44.453125 7.46875 
Q 49.3125 8.734375 54.109375 11.28125 
L 54.109375 2.78125 
Q 49.265625 0.734375 44.1875 -0.34375 
Q 39.109375 -1.421875 33.890625 -1.421875 
Q 20.796875 -1.421875 13.15625 6.1875 
Q 5.515625 13.8125 5.515625 26.8125 
Q 5.515625 40.234375 12.765625 48.109375 
Q 20.015625 56 32.328125 56 
Q 43.359375 56 49.78125 48.890625 
Q 56.203125 41.796875 56.203125 29.59375 
z
M 47.21875 32.234375 
Q 47.125 39.59375 43.09375 43.984375 
Q 39.0625 48.390625 32.421875 48.390625 
Q 24.90625 48.390625 20.390625 44.140625 
Q 15.875 39.890625 15.1875 32.171875 
z
" id="DejaVuSans-65"/>
       <path d="M 9.421875 54.6875 
L 18.40625 54.6875 
L 18.40625 0 
L 9.421875 0 
z
M 9.421875 75.984375 
L 18.40625 75.984375 
L 18.40625 64.59375 
L 9.421875 64.59375 
z
" id="DejaVuSans-69"/>
       <path d="M 48.6875 27.296875 
Q 48.6875 37.203125 44.609375 42.84375 
Q 40.53125 48.484375 33.40625 48.484375 
Q 26.265625 48.484375 22.1875 42.84375 
Q 18.109375 37.203125 18.109375 27.296875 
Q 18.109375 17.390625 22.1875 11.75 
Q 26.265625 6.109375 33.40625 6.109375 
Q 40.53125 6.109375 44.609375 11.75 
Q 48.6875 17.390625 48.6875 27.296875 
z
M 18.109375 46.390625 
Q 20.953125 51.265625 25.265625 53.625 
Q 29.59375 56 35.59375 56 
Q 45.5625 56 51.78125 48.09375 
Q 58.015625 40.1875 58.015625 27.296875 
Q 58.015625 14.40625 51.78125 6.484375 
Q 45.5625 -1.421875 35.59375 -1.421875 
Q 29.59375 -1.421875 25.265625 0.953125 
Q 20.953125 3.328125 18.109375 8.203125 
L 18.109375 0 
L 9.078125 0 
L 9.078125 75.984375 
L 18.109375 75.984375 
z
" id="DejaVuSans-62"/>
       <path d="M 31.78125 34.625 
Q 24.75 34.625 20.71875 30.859375 
Q 16.703125 27.09375 16.703125 20.515625 
Q 16.703125 13.921875 20.71875 10.15625 
Q 24.75 6.390625 31.78125 6.390625 
Q 38.8125 6.390625 42.859375 10.171875 
Q 46.921875 13.96875 46.921875 20.515625 
Q 46.921875 27.09375 42.890625 30.859375 
Q 38.875 34.625 31.78125 34.625 
z
M 21.921875 38.8125 
Q 15.578125 40.375 12.03125 44.71875 
Q 8.5 49.078125 8.5 55.328125 
Q 8.5 64.0625 14.71875 69.140625 
Q 20.953125 74.21875 31.78125 74.21875 
Q 42.671875 74.21875 48.875 69.140625 
Q 55.078125 64.0625 55.078125 55.328125 
Q 55.078125 49.078125 51.53125 44.71875 
Q 48 40.375 41.703125 38.8125 
Q 48.828125 37.15625 52.796875 32.3125 
Q 56.78125 27.484375 56.78125 20.515625 
Q 56.78125 9.90625 50.3125 4.234375 
Q 43.84375 -1.421875 31.78125 -1.421875 
Q 19.734375 -1.421875 13.25 4.234375 
Q 6.78125 9.90625 6.78125 20.515625 
Q 6.78125 27.484375 10.78125 32.3125 
Q 14.796875 37.15625 21.921875 38.8125 
z
M 18.3125 54.390625 
Q 18.3125 48.734375 21.84375 45.5625 
Q 25.390625 42.390625 31.78125 42.390625 
Q 38.140625 42.390625 41.71875 45.5625 
Q 45.3125 48.734375 45.3125 54.390625 
Q 45.3125 60.0625 41.71875 63.234375 
Q 38.140625 66.40625 31.78125 66.40625 
Q 25.390625 66.40625 21.84375 63.234375 
Q 18.3125 60.0625 18.3125 54.390625 
z
" id="DejaVuSans-38"/>
       <path d="M 25.390625 72.90625 
L 33.6875 72.90625 
L 8.296875 -9.28125 
L 0 -9.28125 
z
" id="DejaVuSans-2f"/>
       <path d="M 52 44.1875 
Q 55.375 50.25 60.0625 53.125 
Q 64.75 56 71.09375 56 
Q 79.640625 56 84.28125 50.015625 
Q 88.921875 44.046875 88.921875 33.015625 
L 88.921875 0 
L 79.890625 0 
L 79.890625 32.71875 
Q 79.890625 40.578125 77.09375 44.375 
Q 74.3125 48.1875 68.609375 48.1875 
Q 61.625 48.1875 57.5625 43.546875 
Q 53.515625 38.921875 53.515625 30.90625 
L 53.515625 0 
L 44.484375 0 
L 44.484375 32.71875 
Q 44.484375 40.625 41.703125 44.40625 
Q 38.921875 48.1875 33.109375 48.1875 
Q 26.21875 48.1875 22.15625 43.53125 
Q 18.109375 38.875 18.109375 30.90625 
L 18.109375 0 
L 9.078125 0 
L 9.078125 54.6875 
L 18.109375 54.6875 
L 18.109375 46.1875 
Q 21.1875 51.21875 25.484375 53.609375 
Q 29.78125 56 35.6875 56 
Q 41.65625 56 45.828125 52.96875 
Q 50 49.953125 52 44.1875 
z
" id="DejaVuSans-6d"/>
      </defs>
      <g transform="translate(94.164062 324.455697)scale(0.1 -0.1)">
       <use xlink:href="#DejaVuSans-73"/>
       <use x="52.099609" xlink:href="#DejaVuSans-63"/>
       <use x="107.080078" xlink:href="#DejaVuSans-68"/>
       <use x="170.458984" xlink:href="#DejaVuSans-72"/>
       <use x="211.541016" xlink:href="#DejaVuSans-65"/>
       <use x="273.064453" xlink:href="#DejaVuSans-69"/>
       <use x="300.847656" xlink:href="#DejaVuSans-62"/>
       <use x="364.324219" xlink:href="#DejaVuSans-65"/>
       <use x="425.847656" xlink:href="#DejaVuSans-72"/>
       <use x="466.960938" xlink:href="#DejaVuSans-32"/>
       <use x="530.583984" xlink:href="#DejaVuSans-30"/>
       <use x="594.207031" xlink:href="#DejaVuSans-31"/>
       <use x="657.830078" xlink:href="#DejaVuSans-38"/>
       <use x="721.453125" xlink:href="#DejaVuSans-2f"/>
       <use x="755.144531" xlink:href="#DejaVuSans-69"/>
       <use x="782.927734" xlink:href="#DejaVuSans-73"/>
       <use x="835.027344" xlink:href="#DejaVuSans-6d"/>
       <use x="932.439453" xlink:href="#DejaVuSans-69"/>
       <use x="960.222656" xlink:href="#DejaVuSans-72"/>
       <use x="1001.335938" xlink:href="#DejaVuSans-32"/>
       <use x="1064.958984" xlink:href="#DejaVuSans-30"/>
       <use x="1128.582031" xlink:href="#DejaVuSans-31"/>
       <use x="1192.205078" xlink:href="#DejaVuSans-38"/>
      </g>
     </g>
    </g>
    <g id="ytick_2">
     <g id="line2d_21">
      <path clip-path="url(#p1a82d094ce)" d="M 226.746875 286.26589 
L 617.346875 286.26589 
" style="fill:none;stroke:#b0b0b0;stroke-linecap:square;stroke-width:0.8;"/>
     </g>
     <g id="line2d_22">
      <g>
       <use style="stroke:#000000;stroke-width:0.8;" x="226.746875" xlink:href="#m8c91bc2de7" y="286.26589"/>
      </g>
     </g>
     <g id="text_12">
      <!-- schreiber2018/fcn -->
      <defs>
       <path d="M 37.109375 75.984375 
L 37.109375 68.5 
L 28.515625 68.5 
Q 23.6875 68.5 21.796875 66.546875 
Q 19.921875 64.59375 19.921875 59.515625 
L 19.921875 54.6875 
L 34.71875 54.6875 
L 34.71875 47.703125 
L 19.921875 47.703125 
L 19.921875 0 
L 10.890625 0 
L 10.890625 47.703125 
L 2.296875 47.703125 
L 2.296875 54.6875 
L 10.890625 54.6875 
L 10.890625 58.5 
Q 10.890625 67.625 15.140625 71.796875 
Q 19.390625 75.984375 28.609375 75.984375 
z
" id="DejaVuSans-66"/>
       <path d="M 54.890625 33.015625 
L 54.890625 0 
L 45.90625 0 
L 45.90625 32.71875 
Q 45.90625 40.484375 42.875 44.328125 
Q 39.84375 48.1875 33.796875 48.1875 
Q 26.515625 48.1875 22.3125 43.546875 
Q 18.109375 38.921875 18.109375 30.90625 
L 18.109375 0 
L 9.078125 0 
L 9.078125 54.6875 
L 18.109375 54.6875 
L 18.109375 46.1875 
Q 21.34375 51.125 25.703125 53.5625 
Q 30.078125 56 35.796875 56 
Q 45.21875 56 50.046875 50.171875 
Q 54.890625 44.34375 54.890625 33.015625 
z
" id="DejaVuSans-6e"/>
      </defs>
      <g transform="translate(128.875 290.065108)scale(0.1 -0.1)">
       <use xlink:href="#DejaVuSans-73"/>
       <use x="52.099609" xlink:href="#DejaVuSans-63"/>
       <use x="107.080078" xlink:href="#DejaVuSans-68"/>
       <use x="170.458984" xlink:href="#DejaVuSans-72"/>
       <use x="211.541016" xlink:href="#DejaVuSans-65"/>
       <use x="273.064453" xlink:href="#DejaVuSans-69"/>
       <use x="300.847656" xlink:href="#DejaVuSans-62"/>
       <use x="364.324219" xlink:href="#DejaVuSans-65"/>
       <use x="425.847656" xlink:href="#DejaVuSans-72"/>
       <use x="466.960938" xlink:href="#DejaVuSans-32"/>
       <use x="530.583984" xlink:href="#DejaVuSans-30"/>
       <use x="594.207031" xlink:href="#DejaVuSans-31"/>
       <use x="657.830078" xlink:href="#DejaVuSans-38"/>
       <use x="721.453125" xlink:href="#DejaVuSans-2f"/>
       <use x="755.144531" xlink:href="#DejaVuSans-66"/>
       <use x="790.349609" xlink:href="#DejaVuSans-63"/>
       <use x="845.330078" xlink:href="#DejaVuSans-6e"/>
      </g>
     </g>
    </g>
    <g id="ytick_3">
     <g id="line2d_23">
      <path clip-path="url(#p1a82d094ce)" d="M 226.746875 251.875301 
L 617.346875 251.875301 
" style="fill:none;stroke:#b0b0b0;stroke-linecap:square;stroke-width:0.8;"/>
     </g>
     <g id="line2d_24">
      <g>
       <use style="stroke:#000000;stroke-width:0.8;" x="226.746875" xlink:href="#m8c91bc2de7" y="251.875301"/>
      </g>
     </g>
     <g id="text_13">
      <!-- schreiber2018/cnn -->
      <g transform="translate(126.057812 255.67452)scale(0.1 -0.1)">
       <use xlink:href="#DejaVuSans-73"/>
       <use x="52.099609" xlink:href="#DejaVuSans-63"/>
       <use x="107.080078" xlink:href="#DejaVuSans-68"/>
       <use x="170.458984" xlink:href="#DejaVuSans-72"/>
       <use x="211.541016" xlink:href="#DejaVuSans-65"/>
       <use x="273.064453" xlink:href="#DejaVuSans-69"/>
       <use x="300.847656" xlink:href="#DejaVuSans-62"/>
       <use x="364.324219" xlink:href="#DejaVuSans-65"/>
       <use x="425.847656" xlink:href="#DejaVuSans-72"/>
       <use x="466.960938" xlink:href="#DejaVuSans-32"/>
       <use x="530.583984" xlink:href="#DejaVuSans-30"/>
       <use x="594.207031" xlink:href="#DejaVuSans-31"/>
       <use x="657.830078" xlink:href="#DejaVuSans-38"/>
       <use x="721.453125" xlink:href="#DejaVuSans-2f"/>
       <use x="755.144531" xlink:href="#DejaVuSans-63"/>
       <use x="810.125" xlink:href="#DejaVuSans-6e"/>
       <use x="873.503906" xlink:href="#DejaVuSans-6e"/>
      </g>
     </g>
    </g>
    <g id="ytick_4">
     <g id="line2d_25">
      <path clip-path="url(#p1a82d094ce)" d="M 226.746875 217.484713 
L 617.346875 217.484713 
" style="fill:none;stroke:#b0b0b0;stroke-linecap:square;stroke-width:0.8;"/>
     </g>
     <g id="line2d_26">
      <g>
       <use style="stroke:#000000;stroke-width:0.8;" x="226.746875" xlink:href="#m8c91bc2de7" y="217.484713"/>
      </g>
     </g>
     <g id="text_14">
      <!-- schreiber2017/mirex2017 -->
      <defs>
       <path d="M 8.203125 72.90625 
L 55.078125 72.90625 
L 55.078125 68.703125 
L 28.609375 0 
L 18.3125 0 
L 43.21875 64.59375 
L 8.203125 64.59375 
z
" id="DejaVuSans-37"/>
       <path d="M 54.890625 54.6875 
L 35.109375 28.078125 
L 55.90625 0 
L 45.3125 0 
L 29.390625 21.484375 
L 13.484375 0 
L 2.875 0 
L 24.125 28.609375 
L 4.6875 54.6875 
L 15.28125 54.6875 
L 29.78125 35.203125 
L 44.28125 54.6875 
z
" id="DejaVuSans-78"/>
      </defs>
      <g transform="translate(90.084375 221.283932)scale(0.1 -0.1)">
       <use xlink:href="#DejaVuSans-73"/>
       <use x="52.099609" xlink:href="#DejaVuSans-63"/>
       <use x="107.080078" xlink:href="#DejaVuSans-68"/>
       <use x="170.458984" xlink:href="#DejaVuSans-72"/>
       <use x="211.541016" xlink:href="#DejaVuSans-65"/>
       <use x="273.064453" xlink:href="#DejaVuSans-69"/>
       <use x="300.847656" xlink:href="#DejaVuSans-62"/>
       <use x="364.324219" xlink:href="#DejaVuSans-65"/>
       <use x="425.847656" xlink:href="#DejaVuSans-72"/>
       <use x="466.960938" xlink:href="#DejaVuSans-32"/>
       <use x="530.583984" xlink:href="#DejaVuSans-30"/>
       <use x="594.207031" xlink:href="#DejaVuSans-31"/>
       <use x="657.830078" xlink:href="#DejaVuSans-37"/>
       <use x="721.453125" xlink:href="#DejaVuSans-2f"/>
       <use x="755.144531" xlink:href="#DejaVuSans-6d"/>
       <use x="852.556641" xlink:href="#DejaVuSans-69"/>
       <use x="880.339844" xlink:href="#DejaVuSans-72"/>
       <use x="921.421875" xlink:href="#DejaVuSans-65"/>
       <use x="982.929688" xlink:href="#DejaVuSans-78"/>
       <use x="1042.109375" xlink:href="#DejaVuSans-32"/>
       <use x="1105.732422" xlink:href="#DejaVuSans-30"/>
       <use x="1169.355469" xlink:href="#DejaVuSans-31"/>
       <use x="1232.978516" xlink:href="#DejaVuSans-37"/>
      </g>
     </g>
    </g>
    <g id="ytick_5">
     <g id="line2d_27">
      <path clip-path="url(#p1a82d094ce)" d="M 226.746875 183.094125 
L 617.346875 183.094125 
" style="fill:none;stroke:#b0b0b0;stroke-linecap:square;stroke-width:0.8;"/>
     </g>
     <g id="line2d_28">
      <g>
       <use style="stroke:#000000;stroke-width:0.8;" x="226.746875" xlink:href="#m8c91bc2de7" y="183.094125"/>
      </g>
     </g>
     <g id="text_15">
      <!-- schreiber2017/ismir2017 -->
      <g transform="translate(94.164062 186.893344)scale(0.1 -0.1)">
       <use xlink:href="#DejaVuSans-73"/>
       <use x="52.099609" xlink:href="#DejaVuSans-63"/>
       <use x="107.080078" xlink:href="#DejaVuSans-68"/>
       <use x="170.458984" xlink:href="#DejaVuSans-72"/>
       <use x="211.541016" xlink:href="#DejaVuSans-65"/>
       <use x="273.064453" xlink:href="#DejaVuSans-69"/>
       <use x="300.847656" xlink:href="#DejaVuSans-62"/>
       <use x="364.324219" xlink:href="#DejaVuSans-65"/>
       <use x="425.847656" xlink:href="#DejaVuSans-72"/>
       <use x="466.960938" xlink:href="#DejaVuSans-32"/>
       <use x="530.583984" xlink:href="#DejaVuSans-30"/>
       <use x="594.207031" xlink:href="#DejaVuSans-31"/>
       <use x="657.830078" xlink:href="#DejaVuSans-37"/>
       <use x="721.453125" xlink:href="#DejaVuSans-2f"/>
       <use x="755.144531" xlink:href="#DejaVuSans-69"/>
       <use x="782.927734" xlink:href="#DejaVuSans-73"/>
       <use x="835.027344" xlink:href="#DejaVuSans-6d"/>
       <use x="932.439453" xlink:href="#DejaVuSans-69"/>
       <use x="960.222656" xlink:href="#DejaVuSans-72"/>
       <use x="1001.335938" xlink:href="#DejaVuSans-32"/>
       <use x="1064.958984" xlink:href="#DejaVuSans-30"/>
       <use x="1128.582031" xlink:href="#DejaVuSans-31"/>
       <use x="1192.205078" xlink:href="#DejaVuSans-37"/>
      </g>
     </g>
    </g>
    <g id="ytick_6">
     <g id="line2d_29">
      <path clip-path="url(#p1a82d094ce)" d="M 226.746875 148.703537 
L 617.346875 148.703537 
" style="fill:none;stroke:#b0b0b0;stroke-linecap:square;stroke-width:0.8;"/>
     </g>
     <g id="line2d_30">
      <g>
       <use style="stroke:#000000;stroke-width:0.8;" x="226.746875" xlink:href="#m8c91bc2de7" y="148.703537"/>
      </g>
     </g>
     <g id="text_16">
      <!-- schreiber2014/default -->
      <defs>
       <path d="M 37.796875 64.3125 
L 12.890625 25.390625 
L 37.796875 25.390625 
z
M 35.203125 72.90625 
L 47.609375 72.90625 
L 47.609375 25.390625 
L 58.015625 25.390625 
L 58.015625 17.1875 
L 47.609375 17.1875 
L 47.609375 0 
L 37.796875 0 
L 37.796875 17.1875 
L 4.890625 17.1875 
L 4.890625 26.703125 
z
" id="DejaVuSans-34"/>
       <path d="M 45.40625 46.390625 
L 45.40625 75.984375 
L 54.390625 75.984375 
L 54.390625 0 
L 45.40625 0 
L 45.40625 8.203125 
Q 42.578125 3.328125 38.25 0.953125 
Q 33.9375 -1.421875 27.875 -1.421875 
Q 17.96875 -1.421875 11.734375 6.484375 
Q 5.515625 14.40625 5.515625 27.296875 
Q 5.515625 40.1875 11.734375 48.09375 
Q 17.96875 56 27.875 56 
Q 33.9375 56 38.25 53.625 
Q 42.578125 51.265625 45.40625 46.390625 
z
M 14.796875 27.296875 
Q 14.796875 17.390625 18.875 11.75 
Q 22.953125 6.109375 30.078125 6.109375 
Q 37.203125 6.109375 41.296875 11.75 
Q 45.40625 17.390625 45.40625 27.296875 
Q 45.40625 37.203125 41.296875 42.84375 
Q 37.203125 48.484375 30.078125 48.484375 
Q 22.953125 48.484375 18.875 42.84375 
Q 14.796875 37.203125 14.796875 27.296875 
z
" id="DejaVuSans-64"/>
       <path d="M 34.28125 27.484375 
Q 23.390625 27.484375 19.1875 25 
Q 14.984375 22.515625 14.984375 16.5 
Q 14.984375 11.71875 18.140625 8.90625 
Q 21.296875 6.109375 26.703125 6.109375 
Q 34.1875 6.109375 38.703125 11.40625 
Q 43.21875 16.703125 43.21875 25.484375 
L 43.21875 27.484375 
z
M 52.203125 31.203125 
L 52.203125 0 
L 43.21875 0 
L 43.21875 8.296875 
Q 40.140625 3.328125 35.546875 0.953125 
Q 30.953125 -1.421875 24.3125 -1.421875 
Q 15.921875 -1.421875 10.953125 3.296875 
Q 6 8.015625 6 15.921875 
Q 6 25.140625 12.171875 29.828125 
Q 18.359375 34.515625 30.609375 34.515625 
L 43.21875 34.515625 
L 43.21875 35.40625 
Q 43.21875 41.609375 39.140625 45 
Q 35.0625 48.390625 27.6875 48.390625 
Q 23 48.390625 18.546875 47.265625 
Q 14.109375 46.140625 10.015625 43.890625 
L 10.015625 52.203125 
Q 14.9375 54.109375 19.578125 55.046875 
Q 24.21875 56 28.609375 56 
Q 40.484375 56 46.34375 49.84375 
Q 52.203125 43.703125 52.203125 31.203125 
z
" id="DejaVuSans-61"/>
       <path d="M 8.5 21.578125 
L 8.5 54.6875 
L 17.484375 54.6875 
L 17.484375 21.921875 
Q 17.484375 14.15625 20.5 10.265625 
Q 23.53125 6.390625 29.59375 6.390625 
Q 36.859375 6.390625 41.078125 11.03125 
Q 45.3125 15.671875 45.3125 23.6875 
L 45.3125 54.6875 
L 54.296875 54.6875 
L 54.296875 0 
L 45.3125 0 
L 45.3125 8.40625 
Q 42.046875 3.421875 37.71875 1 
Q 33.40625 -1.421875 27.6875 -1.421875 
Q 18.265625 -1.421875 13.375 4.4375 
Q 8.5 10.296875 8.5 21.578125 
z
M 31.109375 56 
z
" id="DejaVuSans-75"/>
       <path d="M 9.421875 75.984375 
L 18.40625 75.984375 
L 18.40625 0 
L 9.421875 0 
z
" id="DejaVuSans-6c"/>
       <path d="M 18.3125 70.21875 
L 18.3125 54.6875 
L 36.8125 54.6875 
L 36.8125 47.703125 
L 18.3125 47.703125 
L 18.3125 18.015625 
Q 18.3125 11.328125 20.140625 9.421875 
Q 21.96875 7.515625 27.59375 7.515625 
L 36.8125 7.515625 
L 36.8125 0 
L 27.59375 0 
Q 17.1875 0 13.234375 3.875 
Q 9.28125 7.765625 9.28125 18.015625 
L 9.28125 47.703125 
L 2.6875 47.703125 
L 2.6875 54.6875 
L 9.28125 54.6875 
L 9.28125 70.21875 
z
" id="DejaVuSans-74"/>
      </defs>
      <g transform="translate(109.045312 152.502756)scale(0.1 -0.1)">
       <use xlink:href="#DejaVuSans-73"/>
       <use x="52.099609" xlink:href="#DejaVuSans-63"/>
       <use x="107.080078" xlink:href="#DejaVuSans-68"/>
       <use x="170.458984" xlink:href="#DejaVuSans-72"/>
       <use x="211.541016" xlink:href="#DejaVuSans-65"/>
       <use x="273.064453" xlink:href="#DejaVuSans-69"/>
       <use x="300.847656" xlink:href="#DejaVuSans-62"/>
       <use x="364.324219" xlink:href="#DejaVuSans-65"/>
       <use x="425.847656" xlink:href="#DejaVuSans-72"/>
       <use x="466.960938" xlink:href="#DejaVuSans-32"/>
       <use x="530.583984" xlink:href="#DejaVuSans-30"/>
       <use x="594.207031" xlink:href="#DejaVuSans-31"/>
       <use x="657.830078" xlink:href="#DejaVuSans-34"/>
       <use x="721.453125" xlink:href="#DejaVuSans-2f"/>
       <use x="755.144531" xlink:href="#DejaVuSans-64"/>
       <use x="818.621094" xlink:href="#DejaVuSans-65"/>
       <use x="880.144531" xlink:href="#DejaVuSans-66"/>
       <use x="915.349609" xlink:href="#DejaVuSans-61"/>
       <use x="976.628906" xlink:href="#DejaVuSans-75"/>
       <use x="1040.007812" xlink:href="#DejaVuSans-6c"/>
       <use x="1067.791016" xlink:href="#DejaVuSans-74"/>
      </g>
     </g>
    </g>
    <g id="ytick_7">
     <g id="line2d_31">
      <path clip-path="url(#p1a82d094ce)" d="M 226.746875 114.312949 
L 617.346875 114.312949 
" style="fill:none;stroke:#b0b0b0;stroke-linecap:square;stroke-width:0.8;"/>
     </g>
     <g id="line2d_32">
      <g>
       <use style="stroke:#000000;stroke-width:0.8;" x="226.746875" xlink:href="#m8c91bc2de7" y="114.312949"/>
      </g>
     </g>
     <g id="text_17">
      <!-- percival2014/stem -->
      <defs>
       <path d="M 18.109375 8.203125 
L 18.109375 -20.796875 
L 9.078125 -20.796875 
L 9.078125 54.6875 
L 18.109375 54.6875 
L 18.109375 46.390625 
Q 20.953125 51.265625 25.265625 53.625 
Q 29.59375 56 35.59375 56 
Q 45.5625 56 51.78125 48.09375 
Q 58.015625 40.1875 58.015625 27.296875 
Q 58.015625 14.40625 51.78125 6.484375 
Q 45.5625 -1.421875 35.59375 -1.421875 
Q 29.59375 -1.421875 25.265625 0.953125 
Q 20.953125 3.328125 18.109375 8.203125 
z
M 48.6875 27.296875 
Q 48.6875 37.203125 44.609375 42.84375 
Q 40.53125 48.484375 33.40625 48.484375 
Q 26.265625 48.484375 22.1875 42.84375 
Q 18.109375 37.203125 18.109375 27.296875 
Q 18.109375 17.390625 22.1875 11.75 
Q 26.265625 6.109375 33.40625 6.109375 
Q 40.53125 6.109375 44.609375 11.75 
Q 48.6875 17.390625 48.6875 27.296875 
z
" id="DejaVuSans-70"/>
       <path d="M 2.984375 54.6875 
L 12.5 54.6875 
L 29.59375 8.796875 
L 46.6875 54.6875 
L 56.203125 54.6875 
L 35.6875 0 
L 23.484375 0 
z
" id="DejaVuSans-76"/>
      </defs>
      <g transform="translate(126.19375 118.112167)scale(0.1 -0.1)">
       <use xlink:href="#DejaVuSans-70"/>
       <use x="63.476562" xlink:href="#DejaVuSans-65"/>
       <use x="125" xlink:href="#DejaVuSans-72"/>
       <use x="166.082031" xlink:href="#DejaVuSans-63"/>
       <use x="221.0625" xlink:href="#DejaVuSans-69"/>
       <use x="248.845703" xlink:href="#DejaVuSans-76"/>
       <use x="308.025391" xlink:href="#DejaVuSans-61"/>
       <use x="369.304688" xlink:href="#DejaVuSans-6c"/>
       <use x="397.087891" xlink:href="#DejaVuSans-32"/>
       <use x="460.710938" xlink:href="#DejaVuSans-30"/>
       <use x="524.333984" xlink:href="#DejaVuSans-31"/>
       <use x="587.957031" xlink:href="#DejaVuSans-34"/>
       <use x="651.580078" xlink:href="#DejaVuSans-2f"/>
       <use x="685.271484" xlink:href="#DejaVuSans-73"/>
       <use x="737.371094" xlink:href="#DejaVuSans-74"/>
       <use x="776.580078" xlink:href="#DejaVuSans-65"/>
       <use x="838.103516" xlink:href="#DejaVuSans-6d"/>
      </g>
     </g>
    </g>
    <g id="ytick_8">
     <g id="line2d_33">
      <path clip-path="url(#p1a82d094ce)" d="M 226.746875 79.92236 
L 617.346875 79.92236 
" style="fill:none;stroke:#b0b0b0;stroke-linecap:square;stroke-width:0.8;"/>
     </g>
     <g id="line2d_34">
      <g>
       <use style="stroke:#000000;stroke-width:0.8;" x="226.746875" xlink:href="#m8c91bc2de7" y="79.92236"/>
      </g>
     </g>
     <g id="text_18">
      <!-- davies2009/mirex_qm_tempotracker -->
      <defs>
       <path d="M 10.984375 1.515625 
L 10.984375 10.5 
Q 14.703125 8.734375 18.5 7.8125 
Q 22.3125 6.890625 25.984375 6.890625 
Q 35.75 6.890625 40.890625 13.453125 
Q 46.046875 20.015625 46.78125 33.40625 
Q 43.953125 29.203125 39.59375 26.953125 
Q 35.25 24.703125 29.984375 24.703125 
Q 19.046875 24.703125 12.671875 31.3125 
Q 6.296875 37.9375 6.296875 49.421875 
Q 6.296875 60.640625 12.9375 67.421875 
Q 19.578125 74.21875 30.609375 74.21875 
Q 43.265625 74.21875 49.921875 64.515625 
Q 56.59375 54.828125 56.59375 36.375 
Q 56.59375 19.140625 48.40625 8.859375 
Q 40.234375 -1.421875 26.421875 -1.421875 
Q 22.703125 -1.421875 18.890625 -0.6875 
Q 15.09375 0.046875 10.984375 1.515625 
z
M 30.609375 32.421875 
Q 37.25 32.421875 41.125 36.953125 
Q 45.015625 41.5 45.015625 49.421875 
Q 45.015625 57.28125 41.125 61.84375 
Q 37.25 66.40625 30.609375 66.40625 
Q 23.96875 66.40625 20.09375 61.84375 
Q 16.21875 57.28125 16.21875 49.421875 
Q 16.21875 41.5 20.09375 36.953125 
Q 23.96875 32.421875 30.609375 32.421875 
z
" id="DejaVuSans-39"/>
       <path d="M 50.984375 -16.609375 
L 50.984375 -23.578125 
L -0.984375 -23.578125 
L -0.984375 -16.609375 
z
" id="DejaVuSans-5f"/>
       <path d="M 14.796875 27.296875 
Q 14.796875 17.390625 18.875 11.75 
Q 22.953125 6.109375 30.078125 6.109375 
Q 37.203125 6.109375 41.296875 11.75 
Q 45.40625 17.390625 45.40625 27.296875 
Q 45.40625 37.203125 41.296875 42.84375 
Q 37.203125 48.484375 30.078125 48.484375 
Q 22.953125 48.484375 18.875 42.84375 
Q 14.796875 37.203125 14.796875 27.296875 
z
M 45.40625 8.203125 
Q 42.578125 3.328125 38.25 0.953125 
Q 33.9375 -1.421875 27.875 -1.421875 
Q 17.96875 -1.421875 11.734375 6.484375 
Q 5.515625 14.40625 5.515625 27.296875 
Q 5.515625 40.1875 11.734375 48.09375 
Q 17.96875 56 27.875 56 
Q 33.9375 56 38.25 53.625 
Q 42.578125 51.265625 45.40625 46.390625 
L 45.40625 54.6875 
L 54.390625 54.6875 
L 54.390625 -20.796875 
L 45.40625 -20.796875 
z
" id="DejaVuSans-71"/>
       <path d="M 30.609375 48.390625 
Q 23.390625 48.390625 19.1875 42.75 
Q 14.984375 37.109375 14.984375 27.296875 
Q 14.984375 17.484375 19.15625 11.84375 
Q 23.34375 6.203125 30.609375 6.203125 
Q 37.796875 6.203125 41.984375 11.859375 
Q 46.1875 17.53125 46.1875 27.296875 
Q 46.1875 37.015625 41.984375 42.703125 
Q 37.796875 48.390625 30.609375 48.390625 
z
M 30.609375 56 
Q 42.328125 56 49.015625 48.375 
Q 55.71875 40.765625 55.71875 27.296875 
Q 55.71875 13.875 49.015625 6.21875 
Q 42.328125 -1.421875 30.609375 -1.421875 
Q 18.84375 -1.421875 12.171875 6.21875 
Q 5.515625 13.875 5.515625 27.296875 
Q 5.515625 40.765625 12.171875 48.375 
Q 18.84375 56 30.609375 56 
z
" id="DejaVuSans-6f"/>
       <path d="M 9.078125 75.984375 
L 18.109375 75.984375 
L 18.109375 31.109375 
L 44.921875 54.6875 
L 56.390625 54.6875 
L 27.390625 29.109375 
L 57.625 0 
L 45.90625 0 
L 18.109375 26.703125 
L 18.109375 0 
L 9.078125 0 
z
" id="DejaVuSans-6b"/>
      </defs>
      <g transform="translate(35.617187 83.721579)scale(0.1 -0.1)">
       <use xlink:href="#DejaVuSans-64"/>
       <use x="63.476562" xlink:href="#DejaVuSans-61"/>
       <use x="124.755859" xlink:href="#DejaVuSans-76"/>
       <use x="183.935547" xlink:href="#DejaVuSans-69"/>
       <use x="211.71875" xlink:href="#DejaVuSans-65"/>
       <use x="273.242188" xlink:href="#DejaVuSans-73"/>
       <use x="325.341797" xlink:href="#DejaVuSans-32"/>
       <use x="388.964844" xlink:href="#DejaVuSans-30"/>
       <use x="452.587891" xlink:href="#DejaVuSans-30"/>
       <use x="516.210938" xlink:href="#DejaVuSans-39"/>
       <use x="579.833984" xlink:href="#DejaVuSans-2f"/>
       <use x="613.525391" xlink:href="#DejaVuSans-6d"/>
       <use x="710.9375" xlink:href="#DejaVuSans-69"/>
       <use x="738.720703" xlink:href="#DejaVuSans-72"/>
       <use x="779.802734" xlink:href="#DejaVuSans-65"/>
       <use x="841.310547" xlink:href="#DejaVuSans-78"/>
       <use x="900.490234" xlink:href="#DejaVuSans-5f"/>
       <use x="950.490234" xlink:href="#DejaVuSans-71"/>
       <use x="1013.966797" xlink:href="#DejaVuSans-6d"/>
       <use x="1111.378906" xlink:href="#DejaVuSans-5f"/>
       <use x="1161.378906" xlink:href="#DejaVuSans-74"/>
       <use x="1200.587891" xlink:href="#DejaVuSans-65"/>
       <use x="1262.111328" xlink:href="#DejaVuSans-6d"/>
       <use x="1359.523438" xlink:href="#DejaVuSans-70"/>
       <use x="1423" xlink:href="#DejaVuSans-6f"/>
       <use x="1484.181641" xlink:href="#DejaVuSans-74"/>
       <use x="1523.390625" xlink:href="#DejaVuSans-72"/>
       <use x="1564.503906" xlink:href="#DejaVuSans-61"/>
       <use x="1625.783203" xlink:href="#DejaVuSans-63"/>
       <use x="1680.763672" xlink:href="#DejaVuSans-6b"/>
       <use x="1738.626953" xlink:href="#DejaVuSans-65"/>
       <use x="1800.150391" xlink:href="#DejaVuSans-72"/>
      </g>
     </g>
    </g>
    <g id="ytick_9">
     <g id="line2d_35">
      <path clip-path="url(#p1a82d094ce)" d="M 226.746875 45.531772 
L 617.346875 45.531772 
" style="fill:none;stroke:#b0b0b0;stroke-linecap:square;stroke-width:0.8;"/>
     </g>
     <g id="line2d_36">
      <g>
       <use style="stroke:#000000;stroke-width:0.8;" x="226.746875" xlink:href="#m8c91bc2de7" y="45.531772"/>
      </g>
     </g>
     <g id="text_19">
      <!-- boeck2015/tempodetector2016_default -->
      <defs>
       <path d="M 33.015625 40.375 
Q 26.375 40.375 22.484375 35.828125 
Q 18.609375 31.296875 18.609375 23.390625 
Q 18.609375 15.53125 22.484375 10.953125 
Q 26.375 6.390625 33.015625 6.390625 
Q 39.65625 6.390625 43.53125 10.953125 
Q 47.40625 15.53125 47.40625 23.390625 
Q 47.40625 31.296875 43.53125 35.828125 
Q 39.65625 40.375 33.015625 40.375 
z
M 52.59375 71.296875 
L 52.59375 62.3125 
Q 48.875 64.0625 45.09375 64.984375 
Q 41.3125 65.921875 37.59375 65.921875 
Q 27.828125 65.921875 22.671875 59.328125 
Q 17.53125 52.734375 16.796875 39.40625 
Q 19.671875 43.65625 24.015625 45.921875 
Q 28.375 48.1875 33.59375 48.1875 
Q 44.578125 48.1875 50.953125 41.515625 
Q 57.328125 34.859375 57.328125 23.390625 
Q 57.328125 12.15625 50.6875 5.359375 
Q 44.046875 -1.421875 33.015625 -1.421875 
Q 20.359375 -1.421875 13.671875 8.265625 
Q 6.984375 17.96875 6.984375 36.375 
Q 6.984375 53.65625 15.1875 63.9375 
Q 23.390625 74.21875 37.203125 74.21875 
Q 40.921875 74.21875 44.703125 73.484375 
Q 48.484375 72.75 52.59375 71.296875 
z
" id="DejaVuSans-36"/>
      </defs>
      <g transform="translate(20.878125 49.330991)scale(0.1 -0.1)">
       <use xlink:href="#DejaVuSans-62"/>
       <use x="63.476562" xlink:href="#DejaVuSans-6f"/>
       <use x="124.658203" xlink:href="#DejaVuSans-65"/>
       <use x="186.181641" xlink:href="#DejaVuSans-63"/>
       <use x="241.162109" xlink:href="#DejaVuSans-6b"/>
       <use x="299.072266" xlink:href="#DejaVuSans-32"/>
       <use x="362.695312" xlink:href="#DejaVuSans-30"/>
       <use x="426.318359" xlink:href="#DejaVuSans-31"/>
       <use x="489.941406" xlink:href="#DejaVuSans-35"/>
       <use x="553.564453" xlink:href="#DejaVuSans-2f"/>
       <use x="587.255859" xlink:href="#DejaVuSans-74"/>
       <use x="626.464844" xlink:href="#DejaVuSans-65"/>
       <use x="687.988281" xlink:href="#DejaVuSans-6d"/>
       <use x="785.400391" xlink:href="#DejaVuSans-70"/>
       <use x="848.876953" xlink:href="#DejaVuSans-6f"/>
       <use x="910.058594" xlink:href="#DejaVuSans-64"/>
       <use x="973.535156" xlink:href="#DejaVuSans-65"/>
       <use x="1035.058594" xlink:href="#DejaVuSans-74"/>
       <use x="1074.267578" xlink:href="#DejaVuSans-65"/>
       <use x="1135.791016" xlink:href="#DejaVuSans-63"/>
       <use x="1190.771484" xlink:href="#DejaVuSans-74"/>
       <use x="1229.980469" xlink:href="#DejaVuSans-6f"/>
       <use x="1291.162109" xlink:href="#DejaVuSans-72"/>
       <use x="1332.275391" xlink:href="#DejaVuSans-32"/>
       <use x="1395.898438" xlink:href="#DejaVuSans-30"/>
       <use x="1459.521484" xlink:href="#DejaVuSans-31"/>
       <use x="1523.144531" xlink:href="#DejaVuSans-36"/>
       <use x="1586.767578" xlink:href="#DejaVuSans-5f"/>
       <use x="1636.767578" xlink:href="#DejaVuSans-64"/>
       <use x="1700.244141" xlink:href="#DejaVuSans-65"/>
       <use x="1761.767578" xlink:href="#DejaVuSans-66"/>
       <use x="1796.972656" xlink:href="#DejaVuSans-61"/>
       <use x="1858.251953" xlink:href="#DejaVuSans-75"/>
       <use x="1921.630859" xlink:href="#DejaVuSans-6c"/>
       <use x="1949.414062" xlink:href="#DejaVuSans-74"/>
      </g>
     </g>
    </g>
    <g id="text_20">
     <!-- Estimator -->
     <g transform="translate(14.798437 207.216781)rotate(-90)scale(0.1 -0.1)">
      <use xlink:href="#DejaVuSans-45"/>
      <use x="63.183594" xlink:href="#DejaVuSans-73"/>
      <use x="115.283203" xlink:href="#DejaVuSans-74"/>
      <use x="154.492188" xlink:href="#DejaVuSans-69"/>
      <use x="182.275391" xlink:href="#DejaVuSans-6d"/>
      <use x="279.6875" xlink:href="#DejaVuSans-61"/>
      <use x="340.966797" xlink:href="#DejaVuSans-74"/>
      <use x="380.175781" xlink:href="#DejaVuSans-6f"/>
      <use x="441.357422" xlink:href="#DejaVuSans-72"/>
     </g>
    </g>
   </g>
   <g id="PolyCollection_1">
    <path clip-path="url(#p1a82d094ce)" d="M 324.396875 320.04236 
L 324.396875 321.270596 
L 325.383239 321.269209 
L 326.369602 321.265067 
L 327.355966 321.258227 
L 328.34233 321.24878 
L 329.328693 321.236851 
L 330.315057 321.222597 
L 331.30142 321.206202 
L 332.287784 321.187874 
L 333.274148 321.167839 
L 334.260511 321.146341 
L 335.246875 321.123629 
L 336.233239 321.09996 
L 337.219602 321.075592 
L 338.205966 321.050776 
L 339.19233 321.025756 
L 340.178693 321.000764 
L 341.165057 320.976015 
L 342.15142 320.951708 
L 343.137784 320.928021 
L 344.124148 320.905108 
L 345.110511 320.883102 
L 346.096875 320.862114 
L 347.083239 320.842231 
L 348.069602 320.823516 
L 349.055966 320.806015 
L 350.04233 320.789749 
L 351.028693 320.774726 
L 352.015057 320.760936 
L 353.00142 320.748355 
L 353.987784 320.736949 
L 354.974148 320.726673 
L 355.960511 320.717476 
L 356.946875 320.709305 
L 357.933239 320.702101 
L 358.919602 320.695807 
L 359.905966 320.690369 
L 360.89233 320.685735 
L 361.878693 320.681862 
L 362.865057 320.678713 
L 363.85142 320.676262 
L 364.837784 320.674497 
L 365.824148 320.673419 
L 366.810511 320.673044 
L 367.796875 320.673412 
L 368.783239 320.67458 
L 369.769602 320.676633 
L 370.755966 320.679682 
L 371.74233 320.683869 
L 372.728693 320.689371 
L 373.715057 320.696404 
L 374.70142 320.705224 
L 375.687784 320.716134 
L 376.674148 320.729486 
L 377.660511 320.745686 
L 378.646875 320.765196 
L 379.633239 320.788536 
L 380.619602 320.81629 
L 381.605966 320.8491 
L 382.59233 320.887675 
L 383.578693 320.932779 
L 384.565057 320.985237 
L 385.55142 321.045923 
L 386.537784 321.115754 
L 387.524148 321.195682 
L 388.510511 321.286678 
L 389.496875 321.389719 
L 390.483239 321.505766 
L 391.469602 321.635748 
L 392.455966 321.780533 
L 393.44233 321.940908 
L 394.428693 322.117546 
L 395.415057 322.31098 
L 396.40142 322.521573 
L 397.387784 322.749487 
L 398.374148 322.994658 
L 399.360511 323.256764 
L 400.346875 323.535208 
L 401.333239 323.829092 
L 402.319602 324.137205 
L 403.305966 324.458014 
L 404.29233 324.789662 
L 405.278693 325.129972 
L 406.265057 325.47646 
L 407.25142 325.826357 
L 408.237784 326.17664 
L 409.224148 326.524068 
L 410.210511 326.865227 
L 411.196875 327.196586 
L 412.183239 327.514552 
L 413.169602 327.815536 
L 414.155966 328.096017 
L 415.14233 328.352613 
L 416.128693 328.582143 
L 417.115057 328.7817 
L 418.10142 328.948706 
L 419.087784 329.080968 
L 420.074148 329.176731 
L 421.060511 329.234711 
L 422.046875 329.254125 
L 422.046875 312.058831 
L 422.046875 312.058831 
L 421.060511 312.078245 
L 420.074148 312.136224 
L 419.087784 312.231987 
L 418.10142 312.36425 
L 417.115057 312.531256 
L 416.128693 312.730813 
L 415.14233 312.960343 
L 414.155966 313.216938 
L 413.169602 313.49742 
L 412.183239 313.798404 
L 411.196875 314.11637 
L 410.210511 314.447729 
L 409.224148 314.788888 
L 408.237784 315.136316 
L 407.25142 315.486599 
L 406.265057 315.836496 
L 405.278693 316.182984 
L 404.29233 316.523294 
L 403.305966 316.854942 
L 402.319602 317.175751 
L 401.333239 317.483864 
L 400.346875 317.777748 
L 399.360511 318.056191 
L 398.374148 318.318298 
L 397.387784 318.563469 
L 396.40142 318.791383 
L 395.415057 319.001976 
L 394.428693 319.195409 
L 393.44233 319.372048 
L 392.455966 319.532423 
L 391.469602 319.677208 
L 390.483239 319.80719 
L 389.496875 319.923237 
L 388.510511 320.026278 
L 387.524148 320.117274 
L 386.537784 320.197202 
L 385.55142 320.267033 
L 384.565057 320.327719 
L 383.578693 320.380177 
L 382.59233 320.425281 
L 381.605966 320.463855 
L 380.619602 320.496666 
L 379.633239 320.524419 
L 378.646875 320.54776 
L 377.660511 320.56727 
L 376.674148 320.58347 
L 375.687784 320.596822 
L 374.70142 320.607732 
L 373.715057 320.616552 
L 372.728693 320.623585 
L 371.74233 320.629087 
L 370.755966 320.633274 
L 369.769602 320.636323 
L 368.783239 320.638376 
L 367.796875 320.639544 
L 366.810511 320.639912 
L 365.824148 320.639537 
L 364.837784 320.638459 
L 363.85142 320.636693 
L 362.865057 320.634243 
L 361.878693 320.631094 
L 360.89233 320.627221 
L 359.905966 320.622587 
L 358.919602 320.617149 
L 357.933239 320.610855 
L 356.946875 320.603651 
L 355.960511 320.59548 
L 354.974148 320.586283 
L 353.987784 320.576007 
L 353.00142 320.564601 
L 352.015057 320.55202 
L 351.028693 320.53823 
L 350.04233 320.523207 
L 349.055966 320.506941 
L 348.069602 320.489439 
L 347.083239 320.470725 
L 346.096875 320.450841 
L 345.110511 320.429854 
L 344.124148 320.407848 
L 343.137784 320.384935 
L 342.15142 320.361247 
L 341.165057 320.336941 
L 340.178693 320.312192 
L 339.19233 320.2872 
L 338.205966 320.26218 
L 337.219602 320.237364 
L 336.233239 320.212996 
L 335.246875 320.189327 
L 334.260511 320.166615 
L 333.274148 320.145117 
L 332.287784 320.125082 
L 331.30142 320.106754 
L 330.315057 320.090359 
L 329.328693 320.076105 
L 328.34233 320.064176 
L 327.355966 320.054729 
L 326.369602 320.047888 
L 325.383239 320.043747 
L 324.396875 320.04236 
z
" style="fill:#ff0000;fill-opacity:0.75;"/>
   </g>
   <g id="PolyCollection_2">
    <path clip-path="url(#p1a82d094ce)" d="M 324.396875 285.651005 
L 324.396875 286.880775 
L 325.400916 286.879343 
L 326.404957 286.87507 
L 327.408998 286.868012 
L 328.41304 286.858269 
L 329.417081 286.845974 
L 330.421122 286.831292 
L 331.425163 286.81442 
L 332.429204 286.795576 
L 333.433245 286.775001 
L 334.437287 286.75295 
L 335.441328 286.729687 
L 336.445369 286.705481 
L 337.44941 286.680602 
L 338.453451 286.655311 
L 339.457492 286.629863 
L 340.461533 286.604495 
L 341.465575 286.579432 
L 342.469616 286.554873 
L 343.473657 286.531001 
L 344.477698 286.507971 
L 345.481739 286.485914 
L 346.48578 286.46494 
L 347.489822 286.44513 
L 348.493863 286.426545 
L 349.497904 286.409223 
L 350.501945 286.393182 
L 351.505986 286.378422 
L 352.510027 286.364925 
L 353.514068 286.352663 
L 354.51811 286.341594 
L 355.522151 286.331669 
L 356.526192 286.322832 
L 357.530233 286.315025 
L 358.534274 286.308187 
L 359.538315 286.302259 
L 360.542357 286.297187 
L 361.546398 286.292921 
L 362.550439 286.289419 
L 363.55448 286.28665 
L 364.558521 286.284595 
L 365.562562 286.283249 
L 366.566603 286.282625 
L 367.570645 286.282756 
L 368.574686 286.283695 
L 369.578727 286.285522 
L 370.582768 286.288347 
L 371.586809 286.292309 
L 372.59085 286.297584 
L 373.594892 286.304388 
L 374.598933 286.312981 
L 375.602974 286.323669 
L 376.607015 286.336812 
L 377.611056 286.352825 
L 378.615097 286.372181 
L 379.619139 286.395417 
L 380.62318 286.423135 
L 381.627221 286.456003 
L 382.631262 286.494752 
L 383.635303 286.54018 
L 384.639344 286.593145 
L 385.643385 286.654559 
L 386.647427 286.72538 
L 387.651468 286.806601 
L 388.655509 286.899239 
L 389.65955 287.004313 
L 390.663591 287.122829 
L 391.667632 287.255753 
L 392.671674 287.403989 
L 393.675715 287.56835 
L 394.679756 287.749526 
L 395.683797 287.948057 
L 396.687838 288.164298 
L 397.691879 288.398386 
L 398.69592 288.650214 
L 399.699962 288.919399 
L 400.704003 289.205261 
L 401.708044 289.506796 
L 402.712085 289.82267 
L 403.716126 290.151201 
L 404.720167 290.490367 
L 405.724209 290.837809 
L 406.72825 291.190848 
L 407.732291 291.54651 
L 408.736332 291.901562 
L 409.740373 292.252555 
L 410.744414 292.595875 
L 411.748455 292.927801 
L 412.752497 293.244573 
L 413.756538 293.542459 
L 414.760579 293.817826 
L 415.76462 294.067217 
L 416.768661 294.28742 
L 417.772702 294.475538 
L 418.776744 294.62905 
L 419.780785 294.745871 
L 420.784826 294.824395 
L 421.788867 294.863537 
L 422.792908 294.862751 
L 423.796949 294.82205 
L 423.796949 277.70973 
L 423.796949 277.70973 
L 422.792908 277.669028 
L 421.788867 277.668243 
L 420.784826 277.707384 
L 419.780785 277.785909 
L 418.776744 277.90273 
L 417.772702 278.056242 
L 416.768661 278.244359 
L 415.76462 278.464562 
L 414.760579 278.713953 
L 413.756538 278.98932 
L 412.752497 279.287206 
L 411.748455 279.603978 
L 410.744414 279.935904 
L 409.740373 280.279224 
L 408.736332 280.630217 
L 407.732291 280.985269 
L 406.72825 281.340931 
L 405.724209 281.69397 
L 404.720167 282.041412 
L 403.716126 282.380578 
L 402.712085 282.70911 
L 401.708044 283.024983 
L 400.704003 283.326519 
L 399.699962 283.61238 
L 398.69592 283.881566 
L 397.691879 284.133394 
L 396.687838 284.367482 
L 395.683797 284.583722 
L 394.679756 284.782253 
L 393.675715 284.96343 
L 392.671674 285.12779 
L 391.667632 285.276026 
L 390.663591 285.40895 
L 389.65955 285.527466 
L 388.655509 285.63254 
L 387.651468 285.725178 
L 386.647427 285.8064 
L 385.643385 285.877221 
L 384.639344 285.938634 
L 383.635303 285.991599 
L 382.631262 286.037028 
L 381.627221 286.075777 
L 380.62318 286.108644 
L 379.619139 286.136362 
L 378.615097 286.159599 
L 377.611056 286.178955 
L 376.607015 286.194967 
L 375.602974 286.20811 
L 374.598933 286.218798 
L 373.594892 286.227391 
L 372.59085 286.234195 
L 371.586809 286.239471 
L 370.582768 286.243432 
L 369.578727 286.246257 
L 368.574686 286.248085 
L 367.570645 286.249024 
L 366.566603 286.249154 
L 365.562562 286.24853 
L 364.558521 286.247184 
L 363.55448 286.245129 
L 362.550439 286.24236 
L 361.546398 286.238858 
L 360.542357 286.234592 
L 359.538315 286.22952 
L 358.534274 286.223593 
L 357.530233 286.216755 
L 356.526192 286.208947 
L 355.522151 286.20011 
L 354.51811 286.190185 
L 353.514068 286.179116 
L 352.510027 286.166854 
L 351.505986 286.153357 
L 350.501945 286.138597 
L 349.497904 286.122556 
L 348.493863 286.105234 
L 347.489822 286.086649 
L 346.48578 286.06684 
L 345.481739 286.045865 
L 344.477698 286.023809 
L 343.473657 286.000778 
L 342.469616 285.976906 
L 341.465575 285.952348 
L 340.461533 285.927284 
L 339.457492 285.901917 
L 338.453451 285.876468 
L 337.44941 285.851178 
L 336.445369 285.826298 
L 335.441328 285.802093 
L 334.437287 285.77883 
L 333.433245 285.756779 
L 332.429204 285.736204 
L 331.425163 285.71736 
L 330.421122 285.700487 
L 329.417081 285.685805 
L 328.41304 285.67351 
L 327.408998 285.663767 
L 326.404957 285.65671 
L 325.400916 285.652436 
L 324.396875 285.651005 
z
" style="fill:#ff0000;fill-opacity:0.75;"/>
   </g>
   <g id="PolyCollection_3">
    <path clip-path="url(#p1a82d094ce)" d="M 324.396875 251.260774 
L 324.396875 252.489829 
L 325.403424 252.488389 
L 326.409972 252.484089 
L 327.416521 252.476989 
L 328.42307 252.467188 
L 329.429618 252.45482 
L 330.436167 252.440055 
L 331.442716 252.42309 
L 332.449264 252.404146 
L 333.455813 252.383468 
L 334.462362 252.361312 
L 335.468911 252.337946 
L 336.475459 252.313642 
L 337.482008 252.28867 
L 338.488557 252.263296 
L 339.495105 252.237775 
L 340.501654 252.212348 
L 341.508203 252.187237 
L 342.514751 252.162646 
L 343.5213 252.138756 
L 344.527849 252.115721 
L 345.534397 252.093675 
L 346.540946 252.072724 
L 347.547495 252.052951 
L 348.554043 252.034414 
L 349.560592 252.017149 
L 350.567141 252.001174 
L 351.573689 251.986487 
L 352.580238 251.973069 
L 353.586787 251.960889 
L 354.593335 251.949905 
L 355.599884 251.940067 
L 356.606433 251.931318 
L 357.612982 251.923598 
L 358.61953 251.916847 
L 359.626079 251.911005 
L 360.632628 251.906017 
L 361.639176 251.901834 
L 362.645725 251.898416 
L 363.652274 251.895731 
L 364.658822 251.893763 
L 365.665371 251.892508 
L 366.67192 251.891983 
L 367.678468 251.892222 
L 368.685017 251.893284 
L 369.691566 251.895253 
L 370.698114 251.898244 
L 371.704663 251.902402 
L 372.711212 251.907913 
L 373.71776 251.914999 
L 374.724309 251.92393 
L 375.730858 251.935024 
L 376.737407 251.948654 
L 377.743955 251.965247 
L 378.750504 251.985293 
L 379.757053 252.009346 
L 380.763601 252.038025 
L 381.77015 252.072015 
L 382.776699 252.112069 
L 383.783247 252.159003 
L 384.789796 252.213696 
L 385.796345 252.277077 
L 386.802893 252.350123 
L 387.809442 252.433843 
L 388.815991 252.529265 
L 389.822539 252.637419 
L 390.829088 252.759312 
L 391.835637 252.895911 
L 392.842185 253.04811 
L 393.848734 253.216705 
L 394.855283 253.402364 
L 395.861831 253.605589 
L 396.86838 253.826692 
L 397.874929 254.065757 
L 398.881478 254.32261 
L 399.888026 254.596795 
L 400.894575 254.887545 
L 401.901124 255.193765 
L 402.907672 255.514018 
L 403.914221 255.846518 
L 404.92077 256.189133 
L 405.927318 256.539393 
L 406.933867 256.894509 
L 407.940416 257.251404 
L 408.946964 257.606747 
L 409.953513 257.957003 
L 410.960062 258.298487 
L 411.96661 258.62742 
L 412.973159 258.940007 
L 413.979708 259.2325 
L 414.986256 259.501274 
L 415.992805 259.742905 
L 416.999354 259.954236 
L 418.005903 260.132452 
L 419.012451 260.275137 
L 420.019 260.380332 
L 421.025549 260.446577 
L 422.032097 260.472949 
L 423.038646 260.459076 
L 424.045195 260.405155 
L 424.045195 243.345448 
L 424.045195 243.345448 
L 423.038646 243.291527 
L 422.032097 243.277654 
L 421.025549 243.304025 
L 420.019 243.370271 
L 419.012451 243.475466 
L 418.005903 243.618151 
L 416.999354 243.796366 
L 415.992805 244.007698 
L 414.986256 244.249329 
L 413.979708 244.518103 
L 412.973159 244.810596 
L 411.96661 245.123183 
L 410.960062 245.452116 
L 409.953513 245.793599 
L 408.946964 246.143856 
L 407.940416 246.499199 
L 406.933867 246.856094 
L 405.927318 247.21121 
L 404.92077 247.56147 
L 403.914221 247.904084 
L 402.907672 248.236585 
L 401.901124 248.556838 
L 400.894575 248.863058 
L 399.888026 249.153808 
L 398.881478 249.427993 
L 397.874929 249.684846 
L 396.86838 249.923911 
L 395.861831 250.145014 
L 394.855283 250.348239 
L 393.848734 250.533898 
L 392.842185 250.702493 
L 391.835637 250.854692 
L 390.829088 250.991291 
L 389.822539 251.113184 
L 388.815991 251.221338 
L 387.809442 251.31676 
L 386.802893 251.40048 
L 385.796345 251.473526 
L 384.789796 251.536907 
L 383.783247 251.5916 
L 382.776699 251.638534 
L 381.77015 251.678588 
L 380.763601 251.712578 
L 379.757053 251.741257 
L 378.750504 251.765309 
L 377.743955 251.785356 
L 376.737407 251.801949 
L 375.730858 251.815579 
L 374.724309 251.826673 
L 373.71776 251.835604 
L 372.711212 251.84269 
L 371.704663 251.8482 
L 370.698114 251.852359 
L 369.691566 251.85535 
L 368.685017 251.857319 
L 367.678468 251.858381 
L 366.67192 251.85862 
L 365.665371 251.858095 
L 364.658822 251.85684 
L 363.652274 251.854872 
L 362.645725 251.852187 
L 361.639176 251.848769 
L 360.632628 251.844586 
L 359.626079 251.839598 
L 358.61953 251.833756 
L 357.612982 251.827005 
L 356.606433 251.819285 
L 355.599884 251.810536 
L 354.593335 251.800697 
L 353.586787 251.789714 
L 352.580238 251.777534 
L 351.573689 251.764116 
L 350.567141 251.749429 
L 349.560592 251.733454 
L 348.554043 251.716189 
L 347.547495 251.697652 
L 346.540946 251.677879 
L 345.534397 251.656928 
L 344.527849 251.634882 
L 343.5213 251.611847 
L 342.514751 251.587957 
L 341.508203 251.563366 
L 340.501654 251.538255 
L 339.495105 251.512828 
L 338.488557 251.487307 
L 337.482008 251.461933 
L 336.475459 251.436961 
L 335.468911 251.412657 
L 334.462362 251.389291 
L 333.455813 251.367135 
L 332.449264 251.346457 
L 331.442716 251.327513 
L 330.436167 251.310548 
L 329.429618 251.295783 
L 328.42307 251.283415 
L 327.416521 251.273614 
L 326.409972 251.266514 
L 325.403424 251.262214 
L 324.396875 251.260774 
z
" style="fill:#ff0000;fill-opacity:0.75;"/>
   </g>
   <g id="PolyCollection_4">
    <path clip-path="url(#p1a82d094ce)" d="M 364.975521 216.870581 
L 364.975521 218.098845 
L 365.552507 218.097456 
L 366.129493 218.093306 
L 366.706478 218.086453 
L 367.283464 218.076988 
L 367.86045 218.065037 
L 368.437435 218.050757 
L 369.014421 218.034333 
L 369.591406 218.015974 
L 370.168392 217.995907 
L 370.745378 217.974375 
L 371.322363 217.95163 
L 371.899349 217.927929 
L 372.476335 217.90353 
L 373.05332 217.878685 
L 373.630306 217.85364 
L 374.207292 217.828625 
L 374.784277 217.803858 
L 375.361263 217.779536 
L 375.938249 217.755838 
L 376.515234 217.732918 
L 377.09222 217.71091 
L 377.669205 217.689923 
L 378.246191 217.670045 
L 378.823177 217.651339 
L 379.400162 217.633849 
L 379.977148 217.617598 
L 380.554134 217.602592 
L 381.131119 217.58882 
L 381.708105 217.57626 
L 382.285091 217.564875 
L 382.862076 217.554621 
L 383.439062 217.545447 
L 384.016047 217.537299 
L 384.593033 217.530118 
L 385.170019 217.523847 
L 385.747004 217.518432 
L 386.32399 217.513821 
L 386.900976 217.50997 
L 387.477961 217.506845 
L 388.054947 217.504418 
L 388.631933 217.502678 
L 389.208918 217.501626 
L 389.785904 217.501281 
L 390.362889 217.501681 
L 390.939875 217.502886 
L 391.516861 217.504982 
L 392.093846 217.508082 
L 392.670832 217.512329 
L 393.247818 217.517903 
L 393.824803 217.525022 
L 394.401789 217.533945 
L 394.978775 217.544978 
L 395.55576 217.558478 
L 396.132746 217.574852 
L 396.709731 217.594569 
L 397.286717 217.618153 
L 397.863703 217.646191 
L 398.440688 217.679334 
L 399.017674 217.718294 
L 399.59466 217.763841 
L 400.171645 217.816805 
L 400.748631 217.878066 
L 401.325617 217.948546 
L 401.902602 218.0292 
L 402.479588 218.121005 
L 403.056573 218.224938 
L 403.633559 218.341964 
L 404.210545 218.473009 
L 404.78753 218.61894 
L 405.364516 218.78054 
L 405.941502 218.958475 
L 406.518487 219.153269 
L 407.095473 219.365273 
L 407.672459 219.594635 
L 408.249444 219.841272 
L 408.82643 220.104845 
L 409.403416 220.38473 
L 409.980401 220.680007 
L 410.557387 220.989437 
L 411.134372 221.311458 
L 411.711358 221.644182 
L 412.288344 221.985401 
L 412.865329 222.332602 
L 413.442315 222.682987 
L 414.019301 223.033503 
L 414.596286 223.380885 
L 415.173272 223.721698 
L 415.750258 224.052393 
L 416.327243 224.369364 
L 416.904229 224.669015 
L 417.481214 224.947824 
L 418.0582 225.202414 
L 418.635186 225.429617 
L 419.212171 225.626544 
L 419.789157 225.790642 
L 420.366143 225.91975 
L 420.943128 226.01215 
L 421.520114 226.066599 
L 422.0971 226.08236 
L 422.0971 208.887066 
L 422.0971 208.887066 
L 421.520114 208.902828 
L 420.943128 208.957277 
L 420.366143 209.049676 
L 419.789157 209.178785 
L 419.212171 209.342883 
L 418.635186 209.53981 
L 418.0582 209.767013 
L 417.481214 210.021603 
L 416.904229 210.300412 
L 416.327243 210.600063 
L 415.750258 210.917034 
L 415.173272 211.247728 
L 414.596286 211.588541 
L 414.019301 211.935923 
L 413.442315 212.28644 
L 412.865329 212.636824 
L 412.288344 212.984025 
L 411.711358 213.325245 
L 411.134372 213.657969 
L 410.557387 213.97999 
L 409.980401 214.289419 
L 409.403416 214.584696 
L 408.82643 214.864582 
L 408.249444 215.128154 
L 407.672459 215.374792 
L 407.095473 215.604154 
L 406.518487 215.816158 
L 405.941502 216.010952 
L 405.364516 216.188886 
L 404.78753 216.350486 
L 404.210545 216.496418 
L 403.633559 216.627463 
L 403.056573 216.744488 
L 402.479588 216.848421 
L 401.902602 216.940226 
L 401.325617 217.020881 
L 400.748631 217.091361 
L 400.171645 217.152622 
L 399.59466 217.205586 
L 399.017674 217.251133 
L 398.440688 217.290092 
L 397.863703 217.323235 
L 397.286717 217.351274 
L 396.709731 217.374858 
L 396.132746 217.394574 
L 395.55576 217.410949 
L 394.978775 217.424448 
L 394.401789 217.435481 
L 393.824803 217.444404 
L 393.247818 217.451523 
L 392.670832 217.457097 
L 392.093846 217.461345 
L 391.516861 217.464444 
L 390.939875 217.46654 
L 390.362889 217.467746 
L 389.785904 217.468146 
L 389.208918 217.467801 
L 388.631933 217.466749 
L 388.054947 217.465008 
L 387.477961 217.462582 
L 386.900976 217.459456 
L 386.32399 217.455606 
L 385.747004 217.450995 
L 385.170019 217.445579 
L 384.593033 217.439309 
L 384.016047 217.432128 
L 383.439062 217.423979 
L 382.862076 217.414806 
L 382.285091 217.404552 
L 381.708105 217.393167 
L 381.131119 217.380606 
L 380.554134 217.366835 
L 379.977148 217.351828 
L 379.400162 217.335578 
L 378.823177 217.318087 
L 378.246191 217.299381 
L 377.669205 217.279503 
L 377.09222 217.258517 
L 376.515234 217.236509 
L 375.938249 217.213589 
L 375.361263 217.18989 
L 374.784277 217.165569 
L 374.207292 217.140801 
L 373.630306 217.115787 
L 373.05332 217.090741 
L 372.476335 217.065897 
L 371.899349 217.041497 
L 371.322363 217.017797 
L 370.745378 216.995052 
L 370.168392 216.97352 
L 369.591406 216.953453 
L 369.014421 216.935093 
L 368.437435 216.918669 
L 367.86045 216.90439 
L 367.283464 216.892439 
L 366.706478 216.882973 
L 366.129493 216.87612 
L 365.552507 216.871971 
L 364.975521 216.870581 
z
" style="fill:#ff0000;fill-opacity:0.75;"/>
   </g>
   <g id="PolyCollection_5">
    <path clip-path="url(#p1a82d094ce)" d="M 422.00895 174.496478 
L 422.00895 191.691772 
L 422.995563 191.679352 
L 423.982176 191.632874 
L 424.968789 191.553015 
L 425.955402 191.44086 
L 426.942015 191.297882 
L 427.928628 191.125915 
L 428.915242 190.927113 
L 429.901855 190.703912 
L 430.888468 190.458985 
L 431.875081 190.195187 
L 432.861694 189.915504 
L 433.848307 189.623002 
L 434.83492 189.320771 
L 435.821533 189.011875 
L 436.808146 188.6993 
L 437.794759 188.385914 
L 438.781372 188.07442 
L 439.767986 187.767325 
L 440.754599 187.46691 
L 441.741212 187.175206 
L 442.727825 186.893974 
L 443.714438 186.624703 
L 444.701051 186.368597 
L 445.687664 186.126582 
L 446.674277 185.89931 
L 447.66089 185.687173 
L 448.647503 185.490318 
L 449.634116 185.308669 
L 450.62073 185.141944 
L 451.607343 184.989688 
L 452.593956 184.85129 
L 453.580569 184.726015 
L 454.567182 184.61303 
L 455.553795 184.511427 
L 456.540408 184.420251 
L 457.527021 184.338521 
L 458.513634 184.265254 
L 459.500247 184.199479 
L 460.48686 184.14026 
L 461.473474 184.086705 
L 462.460087 184.037982 
L 463.4467 183.993324 
L 464.433313 183.952039 
L 465.419926 183.913513 
L 466.406539 183.877212 
L 467.393152 183.842683 
L 468.379765 183.809551 
L 469.366378 183.77752 
L 470.352991 183.746363 
L 471.339604 183.715922 
L 472.326218 183.686098 
L 473.312831 183.656849 
L 474.299444 183.628178 
L 475.286057 183.600129 
L 476.27267 183.572781 
L 477.259283 183.546239 
L 478.245896 183.520629 
L 479.232509 183.496089 
L 480.219122 183.472771 
L 481.205735 183.450825 
L 482.192348 183.430404 
L 483.178961 183.411657 
L 484.165575 183.394722 
L 485.152188 183.379728 
L 486.138801 183.366792 
L 487.125414 183.356013 
L 488.112027 183.347474 
L 489.09864 183.341241 
L 490.085253 183.337359 
L 491.071866 183.335854 
L 492.058479 183.336729 
L 493.045092 183.339969 
L 494.031705 183.345534 
L 495.018319 183.353365 
L 496.004932 183.363378 
L 496.991545 183.375469 
L 497.978158 183.389512 
L 498.964771 183.405361 
L 499.951384 183.422847 
L 500.937997 183.441782 
L 501.92461 183.461962 
L 502.911223 183.483162 
L 503.897836 183.505146 
L 504.884449 183.527662 
L 505.871063 183.550448 
L 506.857676 183.573236 
L 507.844289 183.595753 
L 508.830902 183.617722 
L 509.817515 183.638873 
L 510.804128 183.658939 
L 511.790741 183.677664 
L 512.777354 183.694805 
L 513.763967 183.710139 
L 514.75058 183.72346 
L 515.737193 183.734589 
L 516.723807 183.743375 
L 517.71042 183.749694 
L 518.697033 183.753456 
L 519.683646 183.754601 
L 519.683646 182.433649 
L 519.683646 182.433649 
L 518.697033 182.434794 
L 517.71042 182.438556 
L 516.723807 182.444875 
L 515.737193 182.453661 
L 514.75058 182.46479 
L 513.763967 182.478111 
L 512.777354 182.493445 
L 511.790741 182.510586 
L 510.804128 182.529311 
L 509.817515 182.549377 
L 508.830902 182.570528 
L 507.844289 182.592497 
L 506.857676 182.615014 
L 505.871063 182.637802 
L 504.884449 182.660588 
L 503.897836 182.683104 
L 502.911223 182.705088 
L 501.92461 182.726288 
L 500.937997 182.746468 
L 499.951384 182.765403 
L 498.964771 182.782889 
L 497.978158 182.798738 
L 496.991545 182.812781 
L 496.004932 182.824872 
L 495.018319 182.834885 
L 494.031705 182.842716 
L 493.045092 182.848281 
L 492.058479 182.851521 
L 491.071866 182.852396 
L 490.085253 182.850891 
L 489.09864 182.847009 
L 488.112027 182.840776 
L 487.125414 182.832237 
L 486.138801 182.821458 
L 485.152188 182.808522 
L 484.165575 182.793528 
L 483.178961 182.776593 
L 482.192348 182.757846 
L 481.205735 182.737425 
L 480.219122 182.715479 
L 479.232509 182.692161 
L 478.245896 182.667621 
L 477.259283 182.642011 
L 476.27267 182.615469 
L 475.286057 182.588121 
L 474.299444 182.560072 
L 473.312831 182.531401 
L 472.326218 182.502152 
L 471.339604 182.472328 
L 470.352991 182.441887 
L 469.366378 182.41073 
L 468.379765 182.378699 
L 467.393152 182.345567 
L 466.406539 182.311038 
L 465.419926 182.274737 
L 464.433313 182.236211 
L 463.4467 182.194926 
L 462.460087 182.150268 
L 461.473474 182.101545 
L 460.48686 182.04799 
L 459.500247 181.988771 
L 458.513634 181.922996 
L 457.527021 181.849729 
L 456.540408 181.767999 
L 455.553795 181.676823 
L 454.567182 181.57522 
L 453.580569 181.462235 
L 452.593956 181.33696 
L 451.607343 181.198562 
L 450.62073 181.046306 
L 449.634116 180.879581 
L 448.647503 180.697932 
L 447.66089 180.501077 
L 446.674277 180.28894 
L 445.687664 180.061668 
L 444.701051 179.819653 
L 443.714438 179.563547 
L 442.727825 179.294276 
L 441.741212 179.013044 
L 440.754599 178.72134 
L 439.767986 178.420925 
L 438.781372 178.11383 
L 437.794759 177.802336 
L 436.808146 177.48895 
L 435.821533 177.176375 
L 434.83492 176.867479 
L 433.848307 176.565248 
L 432.861694 176.272746 
L 431.875081 175.993063 
L 430.888468 175.729265 
L 429.901855 175.484338 
L 428.915242 175.261137 
L 427.928628 175.062335 
L 426.942015 174.890368 
L 425.955402 174.74739 
L 424.968789 174.635235 
L 423.982176 174.555376 
L 422.995563 174.508898 
L 422.00895 174.496478 
z
" style="fill:#ff0000;fill-opacity:0.75;"/>
   </g>
   <g id="PolyCollection_6">
    <path clip-path="url(#p1a82d094ce)" d="M 324.383646 147.174924 
L 324.383646 150.232149 
L 326.356213 150.231811 
L 328.32878 150.224364 
L 330.301347 150.210224 
L 332.273913 150.189972 
L 334.24648 150.164356 
L 336.219047 150.134282 
L 338.191614 150.100808 
L 340.164181 150.065135 
L 342.136748 150.028596 
L 344.109315 149.992637 
L 346.081882 149.958812 
L 348.054449 149.928756 
L 350.027016 149.904177 
L 351.999583 149.886833 
L 353.97215 149.878511 
L 355.944716 149.881011 
L 357.917283 149.896121 
L 359.88985 149.925592 
L 361.862417 149.971116 
L 363.834984 150.034292 
L 365.807551 150.116602 
L 367.780118 150.219377 
L 369.752685 150.343762 
L 371.725252 150.490682 
L 373.697819 150.660804 
L 375.670386 150.854504 
L 377.642953 151.071828 
L 379.615519 151.312463 
L 381.588086 151.575704 
L 383.560653 151.860433 
L 385.53322 152.165099 
L 387.505787 152.487712 
L 389.478354 152.825842 
L 391.450921 153.176627 
L 393.423488 153.536805 
L 395.396055 153.902741 
L 397.368622 154.270479 
L 399.341189 154.635801 
L 401.313755 154.994301 
L 403.286322 155.341462 
L 405.258889 155.672745 
L 407.231456 155.983686 
L 409.204023 156.269991 
L 411.17659 156.527631 
L 413.149157 156.752937 
L 415.121724 156.942686 
L 417.094291 157.094178 
L 419.066858 157.205298 
L 421.039425 157.274569 
L 423.011992 157.301184 
L 424.984558 157.285022 
L 426.957125 157.226645 
L 428.929692 157.127278 
L 430.902259 156.988773 
L 432.874826 156.813553 
L 434.847393 156.604546 
L 436.81996 156.365108 
L 438.792527 156.098936 
L 440.765094 155.809976 
L 442.737661 155.50233 
L 444.710228 155.180163 
L 446.682795 154.847616 
L 448.655361 154.508722 
L 450.627928 154.167331 
L 452.600495 153.827053 
L 454.573062 153.491198 
L 456.545629 153.162742 
L 458.518196 152.8443 
L 460.490763 152.538104 
L 462.46333 152.246006 
L 464.435897 151.969477 
L 466.408464 151.709624 
L 468.381031 151.467209 
L 470.353598 151.242677 
L 472.326164 151.036182 
L 474.298731 150.847623 
L 476.271298 150.676675 
L 478.243865 150.52282 
L 480.216432 150.385381 
L 482.188999 150.263549 
L 484.161566 150.156413 
L 486.134133 150.062981 
L 488.1067 149.982203 
L 490.079267 149.912991 
L 492.051834 149.854235 
L 494.0244 149.804817 
L 495.996967 149.763622 
L 497.969534 149.729553 
L 499.942101 149.70154 
L 501.914668 149.678547 
L 503.887235 149.659582 
L 505.859802 149.643707 
L 507.832369 149.630041 
L 509.804936 149.617771 
L 511.777503 149.606158 
L 513.75007 149.59454 
L 515.722637 149.582338 
L 517.695203 149.569061 
L 519.66777 149.554306 
L 519.66777 147.852767 
L 519.66777 147.852767 
L 517.695203 147.838012 
L 515.722637 147.824735 
L 513.75007 147.812534 
L 511.777503 147.800915 
L 509.804936 147.789302 
L 507.832369 147.777033 
L 505.859802 147.763367 
L 503.887235 147.747491 
L 501.914668 147.728526 
L 499.942101 147.705533 
L 497.969534 147.67752 
L 495.996967 147.643452 
L 494.0244 147.602257 
L 492.051834 147.552838 
L 490.079267 147.494082 
L 488.1067 147.424871 
L 486.134133 147.344093 
L 484.161566 147.250661 
L 482.188999 147.143524 
L 480.216432 147.021693 
L 478.243865 146.884253 
L 476.271298 146.730398 
L 474.298731 146.55945 
L 472.326164 146.370891 
L 470.353598 146.164397 
L 468.381031 145.939865 
L 466.408464 145.69745 
L 464.435897 145.437597 
L 462.46333 145.161067 
L 460.490763 144.868969 
L 458.518196 144.562774 
L 456.545629 144.244331 
L 454.573062 143.915876 
L 452.600495 143.580021 
L 450.627928 143.239742 
L 448.655361 142.898352 
L 446.682795 142.559457 
L 444.710228 142.22691 
L 442.737661 141.904744 
L 440.765094 141.597098 
L 438.792527 141.308138 
L 436.81996 141.041966 
L 434.847393 140.802528 
L 432.874826 140.593521 
L 430.902259 140.418301 
L 428.929692 140.279796 
L 426.957125 140.180429 
L 424.984558 140.122052 
L 423.011992 140.10589 
L 421.039425 140.132505 
L 419.066858 140.201776 
L 417.094291 140.312896 
L 415.121724 140.464387 
L 413.149157 140.654137 
L 411.17659 140.879443 
L 409.204023 141.137083 
L 407.231456 141.423387 
L 405.258889 141.734329 
L 403.286322 142.065612 
L 401.313755 142.412772 
L 399.341189 142.771272 
L 397.368622 143.136595 
L 395.396055 143.504333 
L 393.423488 143.870268 
L 391.450921 144.230446 
L 389.478354 144.581232 
L 387.505787 144.919361 
L 385.53322 145.241974 
L 383.560653 145.546641 
L 381.588086 145.831369 
L 379.615519 146.094611 
L 377.642953 146.335245 
L 375.670386 146.55257 
L 373.697819 146.74627 
L 371.725252 146.916392 
L 369.752685 147.063311 
L 367.780118 147.187697 
L 365.807551 147.290472 
L 363.834984 147.372782 
L 361.862417 147.435958 
L 359.88985 147.481481 
L 357.917283 147.510952 
L 355.944716 147.526062 
L 353.97215 147.528563 
L 351.999583 147.520241 
L 350.027016 147.502896 
L 348.054449 147.478317 
L 346.081882 147.448262 
L 344.109315 147.414436 
L 342.136748 147.378478 
L 340.164181 147.341938 
L 338.191614 147.306265 
L 336.219047 147.272792 
L 334.24648 147.242717 
L 332.273913 147.217101 
L 330.301347 147.19685 
L 328.32878 147.182709 
L 326.356213 147.175263 
L 324.383646 147.174924 
z
" style="fill:#ff0000;fill-opacity:0.75;"/>
   </g>
   <g id="PolyCollection_7">
    <path clip-path="url(#p1a82d094ce)" d="M 324.20529 112.99002 
L 324.20529 115.635877 
L 325.195784 115.634274 
L 326.186278 115.629452 
L 327.176772 115.621445 
L 328.167266 115.610315 
L 329.15776 115.596143 
L 330.148254 115.579035 
L 331.138748 115.559113 
L 332.129241 115.536524 
L 333.119735 115.511427 
L 334.110229 115.484002 
L 335.100723 115.454439 
L 336.091217 115.422942 
L 337.081711 115.389725 
L 338.072205 115.355008 
L 339.062699 115.31902 
L 340.053193 115.281991 
L 341.043687 115.244155 
L 342.034181 115.205745 
L 343.024675 115.166991 
L 344.015169 115.128123 
L 345.005663 115.089364 
L 345.996157 115.050933 
L 346.98665 115.013042 
L 347.977144 114.975895 
L 348.967638 114.93969 
L 349.958132 114.904617 
L 350.948626 114.870858 
L 351.93912 114.838589 
L 352.929614 114.807978 
L 353.920108 114.779188 
L 354.910602 114.752378 
L 355.901096 114.727704 
L 356.89159 114.705317 
L 357.882084 114.685372 
L 358.872578 114.668021 
L 359.863072 114.65342 
L 360.853566 114.641732 
L 361.84406 114.633122 
L 362.834553 114.627765 
L 363.825047 114.625846 
L 364.815541 114.62756 
L 365.806035 114.633113 
L 366.796529 114.642726 
L 367.787023 114.656633 
L 368.777517 114.675081 
L 369.768011 114.698335 
L 370.758505 114.726671 
L 371.748999 114.76038 
L 372.739493 114.799766 
L 373.729987 114.845143 
L 374.720481 114.896837 
L 375.710975 114.955177 
L 376.701469 115.020497 
L 377.691962 115.093133 
L 378.682456 115.173415 
L 379.67295 115.261666 
L 380.663444 115.358195 
L 381.653938 115.463292 
L 382.644432 115.577225 
L 383.634926 115.700229 
L 384.62542 115.832505 
L 385.615914 115.97421 
L 386.606408 116.12545 
L 387.596902 116.286278 
L 388.587396 116.456683 
L 389.57789 116.636587 
L 390.568384 116.825837 
L 391.558878 117.024201 
L 392.549371 117.231364 
L 393.539865 117.446922 
L 394.530359 117.670382 
L 395.520853 117.901156 
L 396.511347 118.138563 
L 397.501841 118.381828 
L 398.492335 118.630085 
L 399.482829 118.882376 
L 400.473323 119.137659 
L 401.463817 119.394807 
L 402.454311 119.652625 
L 403.444805 119.909847 
L 404.435299 120.165151 
L 405.425793 120.417169 
L 406.416287 120.664497 
L 407.406781 120.905708 
L 408.397274 121.139367 
L 409.387768 121.36404 
L 410.378262 121.578313 
L 411.368756 121.780805 
L 412.35925 121.970184 
L 413.349744 122.145177 
L 414.340238 122.304589 
L 415.330732 122.447317 
L 416.321226 122.572357 
L 417.31172 122.67882 
L 418.302214 122.765944 
L 419.292708 122.833098 
L 420.283202 122.879793 
L 421.273696 122.905689 
L 422.26419 122.910596 
L 422.26419 105.715301 
L 422.26419 105.715301 
L 421.273696 105.720208 
L 420.283202 105.746104 
L 419.292708 105.792799 
L 418.302214 105.859953 
L 417.31172 105.947077 
L 416.321226 106.05354 
L 415.330732 106.17858 
L 414.340238 106.321308 
L 413.349744 106.48072 
L 412.35925 106.655714 
L 411.368756 106.845092 
L 410.378262 107.047584 
L 409.387768 107.261857 
L 408.397274 107.48653 
L 407.406781 107.720189 
L 406.416287 107.9614 
L 405.425793 108.208728 
L 404.435299 108.460746 
L 403.444805 108.716051 
L 402.454311 108.973272 
L 401.463817 109.23109 
L 400.473323 109.488239 
L 399.482829 109.743521 
L 398.492335 109.995812 
L 397.501841 110.244069 
L 396.511347 110.487334 
L 395.520853 110.724741 
L 394.530359 110.955515 
L 393.539865 111.178975 
L 392.549371 111.394533 
L 391.558878 111.601696 
L 390.568384 111.80006 
L 389.57789 111.98931 
L 388.587396 112.169214 
L 387.596902 112.339619 
L 386.606408 112.500447 
L 385.615914 112.651688 
L 384.62542 112.793392 
L 383.634926 112.925668 
L 382.644432 113.048672 
L 381.653938 113.162605 
L 380.663444 113.267702 
L 379.67295 113.364231 
L 378.682456 113.452482 
L 377.691962 113.532764 
L 376.701469 113.6054 
L 375.710975 113.67072 
L 374.720481 113.72906 
L 373.729987 113.780754 
L 372.739493 113.826131 
L 371.748999 113.865517 
L 370.758505 113.899226 
L 369.768011 113.927562 
L 368.777517 113.950816 
L 367.787023 113.969264 
L 366.796529 113.983171 
L 365.806035 113.992784 
L 364.815541 113.998337 
L 363.825047 114.000051 
L 362.834553 113.998132 
L 361.84406 113.992775 
L 360.853566 113.984165 
L 359.863072 113.972477 
L 358.872578 113.957876 
L 357.882084 113.940525 
L 356.89159 113.92058 
L 355.901096 113.898193 
L 354.910602 113.873519 
L 353.920108 113.846709 
L 352.929614 113.81792 
L 351.93912 113.787308 
L 350.948626 113.755039 
L 349.958132 113.72128 
L 348.967638 113.686207 
L 347.977144 113.650002 
L 346.98665 113.612855 
L 345.996157 113.574964 
L 345.005663 113.536533 
L 344.015169 113.497774 
L 343.024675 113.458906 
L 342.034181 113.420152 
L 341.043687 113.381742 
L 340.053193 113.343906 
L 339.062699 113.306877 
L 338.072205 113.270889 
L 337.081711 113.236173 
L 336.091217 113.202955 
L 335.100723 113.171458 
L 334.110229 113.141895 
L 333.119735 113.11447 
L 332.129241 113.089373 
L 331.138748 113.066784 
L 330.148254 113.046863 
L 329.15776 113.029754 
L 328.167266 113.015582 
L 327.176772 113.004452 
L 326.186278 112.996445 
L 325.195784 112.991623 
L 324.20529 112.99002 
z
" style="fill:#ff0000;fill-opacity:0.75;"/>
   </g>
   <g id="PolyCollection_8">
    <path clip-path="url(#p1a82d094ce)" d="M 325.435698 78.313235 
L 325.435698 81.531486 
L 327.433615 81.540782 
L 329.431533 81.545733 
L 331.429451 81.546837 
L 333.427368 81.544722 
L 335.425286 81.540147 
L 337.423203 81.533997 
L 339.421121 81.527275 
L 341.419038 81.521096 
L 343.416956 81.516677 
L 345.414873 81.515321 
L 347.412791 81.518404 
L 349.410708 81.527357 
L 351.408626 81.543651 
L 353.406544 81.568768 
L 355.404461 81.604185 
L 357.402379 81.651348 
L 359.400296 81.711647 
L 361.398214 81.786386 
L 363.396131 81.876762 
L 365.394049 81.983831 
L 367.391966 82.108484 
L 369.389884 82.251419 
L 371.387801 82.413116 
L 373.385719 82.593809 
L 375.383637 82.793468 
L 377.381554 83.011777 
L 379.379472 83.248118 
L 381.377389 83.501561 
L 383.375307 83.770857 
L 385.373224 84.054436 
L 387.371142 84.350413 
L 389.369059 84.656598 
L 391.366977 84.970516 
L 393.364894 85.28943 
L 395.362812 85.610374 
L 397.36073 85.930192 
L 399.358647 86.245579 
L 401.356565 86.553135 
L 403.354482 86.849415 
L 405.3524 87.130989 
L 407.350317 87.3945 
L 409.348235 87.636727 
L 411.346152 87.854641 
L 413.34407 88.045465 
L 415.341987 88.206729 
L 417.339905 88.336317 
L 419.337823 88.432507 
L 421.33574 88.494014 
L 423.333658 88.520007 
L 425.331575 88.510133 
L 427.329493 88.464521 
L 429.32741 88.383779 
L 431.325328 88.268983 
L 433.323245 88.121656 
L 435.321163 87.943731 
L 437.31908 87.73752 
L 439.316998 87.505662 
L 441.314916 87.251072 
L 443.312833 86.976888 
L 445.310751 86.686408 
L 447.308668 86.383034 
L 449.306586 86.070209 
L 451.304503 85.751359 
L 453.302421 85.429837 
L 455.300338 85.108874 
L 457.298256 84.791529 
L 459.296173 84.480651 
L 461.294091 84.178842 
L 463.292009 83.888431 
L 465.289926 83.611449 
L 467.287844 83.34962 
L 469.285761 83.104352 
L 471.283679 82.87673 
L 473.281596 82.667526 
L 475.279514 82.477207 
L 477.277431 82.305948 
L 479.275349 82.153648 
L 481.273266 82.019955 
L 483.271184 81.904283 
L 485.269102 81.805845 
L 487.267019 81.723672 
L 489.264937 81.656645 
L 491.262854 81.60352 
L 493.260772 81.562956 
L 495.258689 81.53354 
L 497.256607 81.513817 
L 499.254524 81.502306 
L 501.252442 81.497533 
L 503.250359 81.498046 
L 505.248277 81.502437 
L 507.246195 81.509358 
L 509.244112 81.517541 
L 511.24203 81.525808 
L 513.239947 81.533086 
L 515.237865 81.538413 
L 517.235782 81.54095 
L 519.2337 81.539982 
L 521.231617 81.534925 
L 523.229535 81.525324 
L 523.229535 78.319396 
L 523.229535 78.319396 
L 521.231617 78.309795 
L 519.2337 78.304739 
L 517.235782 78.303771 
L 515.237865 78.306308 
L 513.239947 78.311635 
L 511.24203 78.318913 
L 509.244112 78.32718 
L 507.246195 78.335363 
L 505.248277 78.342284 
L 503.250359 78.346674 
L 501.252442 78.347187 
L 499.254524 78.342415 
L 497.256607 78.330904 
L 495.258689 78.31118 
L 493.260772 78.281765 
L 491.262854 78.241201 
L 489.264937 78.188076 
L 487.267019 78.121049 
L 485.269102 78.038876 
L 483.271184 77.940438 
L 481.273266 77.824766 
L 479.275349 77.691072 
L 477.277431 77.538772 
L 475.279514 77.367513 
L 473.281596 77.177195 
L 471.283679 76.967991 
L 469.285761 76.740369 
L 467.287844 76.4951 
L 465.289926 76.233272 
L 463.292009 75.95629 
L 461.294091 75.665878 
L 459.296173 75.364069 
L 457.298256 75.053191 
L 455.300338 74.735847 
L 453.302421 74.414884 
L 451.304503 74.093362 
L 449.306586 73.774511 
L 447.308668 73.461686 
L 445.310751 73.158312 
L 443.312833 72.867833 
L 441.314916 72.593649 
L 439.316998 72.339059 
L 437.31908 72.1072 
L 435.321163 71.900989 
L 433.323245 71.723065 
L 431.325328 71.575737 
L 429.32741 71.460942 
L 427.329493 71.3802 
L 425.331575 71.334587 
L 423.333658 71.324713 
L 421.33574 71.350707 
L 419.337823 71.412213 
L 417.339905 71.508404 
L 415.341987 71.637991 
L 413.34407 71.799255 
L 411.346152 71.99008 
L 409.348235 72.207994 
L 407.350317 72.450221 
L 405.3524 72.713732 
L 403.354482 72.995306 
L 401.356565 73.291585 
L 399.358647 73.599141 
L 397.36073 73.914528 
L 395.362812 74.234346 
L 393.364894 74.555291 
L 391.366977 74.874205 
L 389.369059 75.188122 
L 387.371142 75.494307 
L 385.373224 75.790284 
L 383.375307 76.073863 
L 381.377389 76.343159 
L 379.379472 76.596603 
L 377.381554 76.832944 
L 375.383637 77.051252 
L 373.385719 77.250912 
L 371.387801 77.431605 
L 369.389884 77.593301 
L 367.391966 77.736237 
L 365.394049 77.86089 
L 363.396131 77.967959 
L 361.398214 78.058334 
L 359.400296 78.133074 
L 357.402379 78.193372 
L 355.404461 78.240536 
L 353.406544 78.275953 
L 351.408626 78.30107 
L 349.410708 78.317363 
L 347.412791 78.326317 
L 345.414873 78.3294 
L 343.416956 78.328043 
L 341.419038 78.323624 
L 339.421121 78.317446 
L 337.423203 78.310724 
L 335.425286 78.304573 
L 333.427368 78.299998 
L 331.429451 78.297884 
L 329.431533 78.298987 
L 327.433615 78.303938 
L 325.435698 78.313235 
z
" style="fill:#ff0000;fill-opacity:0.75;"/>
   </g>
   <g id="PolyCollection_9">
    <path clip-path="url(#p1a82d094ce)" d="M 323.690712 44.208809 
L 323.690712 46.854735 
L 324.688908 46.85427 
L 325.687104 46.850536 
L 326.685299 46.843564 
L 327.683495 46.833404 
L 328.681691 46.820135 
L 329.679887 46.803855 
L 330.678082 46.784684 
L 331.676278 46.762763 
L 332.674474 46.738253 
L 333.67267 46.711328 
L 334.670865 46.68218 
L 335.669061 46.651013 
L 336.667257 46.618043 
L 337.665453 46.583493 
L 338.663648 46.547592 
L 339.661844 46.510577 
L 340.66004 46.472683 
L 341.658236 46.434149 
L 342.656431 46.395212 
L 343.654627 46.356104 
L 344.652823 46.317055 
L 345.651019 46.27829 
L 346.649214 46.240026 
L 347.64741 46.202473 
L 348.645606 46.165834 
L 349.643802 46.130305 
L 350.641997 46.096072 
L 351.640193 46.063317 
L 352.638389 46.032212 
L 353.636585 46.002925 
L 354.63478 45.975618 
L 355.632976 45.95045 
L 356.631172 45.927578 
L 357.629368 45.907157 
L 358.627563 45.889345 
L 359.625759 45.874299 
L 360.623955 45.862184 
L 361.622151 45.85317 
L 362.620346 45.847433 
L 363.618542 45.845161 
L 364.616738 45.846551 
L 365.614934 45.851814 
L 366.613129 45.861172 
L 367.611325 45.874864 
L 368.609521 45.893141 
L 369.607717 45.916271 
L 370.605912 45.944535 
L 371.604108 45.978229 
L 372.602304 46.017662 
L 373.600499 46.063155 
L 374.598695 46.115038 
L 375.596891 46.173647 
L 376.595087 46.239323 
L 377.593282 46.312407 
L 378.591478 46.393236 
L 379.589674 46.482138 
L 380.58787 46.579428 
L 381.586065 46.685403 
L 382.584261 46.800332 
L 383.582457 46.924456 
L 384.580653 47.057976 
L 385.578848 47.201051 
L 386.577044 47.353787 
L 387.57524 47.516234 
L 388.573436 47.688377 
L 389.571631 47.87013 
L 390.569827 48.061333 
L 391.568023 48.261742 
L 392.566219 48.471028 
L 393.564414 48.688772 
L 394.56261 48.914461 
L 395.560806 49.147486 
L 396.559002 49.387144 
L 397.557197 49.632633 
L 398.555393 49.883059 
L 399.553589 50.137434 
L 400.551785 50.394683 
L 401.54998 50.653651 
L 402.548176 50.913106 
L 403.546372 51.171749 
L 404.544568 51.428226 
L 405.542763 51.681134 
L 406.540959 51.92904 
L 407.539155 52.170486 
L 408.537351 52.404008 
L 409.535546 52.628149 
L 410.533742 52.841474 
L 411.531938 53.042584 
L 412.530134 53.230133 
L 413.528329 53.402841 
L 414.526525 53.559511 
L 415.524721 53.699038 
L 416.522917 53.820428 
L 417.521112 53.922806 
L 418.519308 54.005425 
L 419.517504 54.067682 
L 420.515699 54.109115 
L 421.513895 54.129419 
L 422.512091 54.128443 
L 422.512091 36.935101 
L 422.512091 36.935101 
L 421.513895 36.934125 
L 420.515699 36.954429 
L 419.517504 36.995863 
L 418.519308 37.058119 
L 417.521112 37.140739 
L 416.522917 37.243116 
L 415.524721 37.364506 
L 414.526525 37.504033 
L 413.528329 37.660703 
L 412.530134 37.833411 
L 411.531938 38.02096 
L 410.533742 38.22207 
L 409.535546 38.435395 
L 408.537351 38.659536 
L 407.539155 38.893058 
L 406.540959 39.134504 
L 405.542763 39.38241 
L 404.544568 39.635319 
L 403.546372 39.891795 
L 402.548176 40.150438 
L 401.54998 40.409893 
L 400.551785 40.668861 
L 399.553589 40.926111 
L 398.555393 41.180485 
L 397.557197 41.430911 
L 396.559002 41.6764 
L 395.560806 41.916058 
L 394.56261 42.149084 
L 393.564414 42.374772 
L 392.566219 42.592516 
L 391.568023 42.801802 
L 390.569827 43.002211 
L 389.571631 43.193414 
L 388.573436 43.375167 
L 387.57524 43.54731 
L 386.577044 43.709757 
L 385.578848 43.862493 
L 384.580653 44.005568 
L 383.582457 44.139088 
L 382.584261 44.263212 
L 381.586065 44.378142 
L 380.58787 44.484116 
L 379.589674 44.581406 
L 378.591478 44.670308 
L 377.593282 44.751137 
L 376.595087 44.824221 
L 375.596891 44.889897 
L 374.598695 44.948506 
L 373.600499 45.000389 
L 372.602304 45.045882 
L 371.604108 45.085315 
L 370.605912 45.11901 
L 369.607717 45.147273 
L 368.609521 45.170403 
L 367.611325 45.18868 
L 366.613129 45.202372 
L 365.614934 45.21173 
L 364.616738 45.216993 
L 363.618542 45.218383 
L 362.620346 45.216111 
L 361.622151 45.210374 
L 360.623955 45.20136 
L 359.625759 45.189245 
L 358.627563 45.174199 
L 357.629368 45.156387 
L 356.631172 45.135966 
L 355.632976 45.113094 
L 354.63478 45.087926 
L 353.636585 45.06062 
L 352.638389 45.031332 
L 351.640193 45.000227 
L 350.641997 44.967472 
L 349.643802 44.933239 
L 348.645606 44.89771 
L 347.64741 44.861071 
L 346.649214 44.823518 
L 345.651019 44.785254 
L 344.652823 44.746489 
L 343.654627 44.70744 
L 342.656431 44.668332 
L 341.658236 44.629395 
L 340.66004 44.590861 
L 339.661844 44.552967 
L 338.663648 44.515952 
L 337.665453 44.480051 
L 336.667257 44.445501 
L 335.669061 44.412531 
L 334.670865 44.381364 
L 333.67267 44.352216 
L 332.674474 44.325292 
L 331.676278 44.300781 
L 330.678082 44.27886 
L 329.679887 44.259689 
L 328.681691 44.243409 
L 327.683495 44.23014 
L 326.685299 44.21998 
L 325.687104 44.213008 
L 324.688908 44.209275 
L 323.690712 44.208809 
z
" style="fill:#ff0000;fill-opacity:0.75;"/>
   </g>
   <g id="LineCollection_1">
    <path clip-path="url(#p1a82d094ce)" d="M 415.536875 324.955301 
L 415.536875 316.357654 
" style="fill:none;stroke:#000000;stroke-width:1.5;"/>
    <path clip-path="url(#p1a82d094ce)" d="M 415.747 290.564713 
L 415.747 281.967066 
" style="fill:none;stroke:#000000;stroke-width:1.5;"/>
    <path clip-path="url(#p1a82d094ce)" d="M 415.670096 256.174125 
L 415.670096 247.576478 
" style="fill:none;stroke:#000000;stroke-width:1.5;"/>
    <path clip-path="url(#p1a82d094ce)" d="M 418.237874 221.783537 
L 418.237874 213.18589 
" style="fill:none;stroke:#000000;stroke-width:1.5;"/>
    <path clip-path="url(#p1a82d094ce)" d="M 431.257874 187.392949 
L 431.257874 178.795301 
" style="fill:none;stroke:#000000;stroke-width:1.5;"/>
    <path clip-path="url(#p1a82d094ce)" d="M 418.230167 153.00236 
L 418.230167 144.404713 
" style="fill:none;stroke:#000000;stroke-width:1.5;"/>
    <path clip-path="url(#p1a82d094ce)" d="M 408.960768 118.611772 
L 408.960768 110.014125 
" style="fill:none;stroke:#000000;stroke-width:1.5;"/>
    <path clip-path="url(#p1a82d094ce)" d="M 423.878075 84.221184 
L 423.878075 75.623537 
" style="fill:none;stroke:#000000;stroke-width:1.5;"/>
    <path clip-path="url(#p1a82d094ce)" d="M 408.910856 49.830596 
L 408.910856 41.232949 
" style="fill:none;stroke:#000000;stroke-width:1.5;"/>
   </g>
   <g id="patch_3">
    <path d="M 226.746875 343.870125 
L 226.746875 22.318125 
" style="fill:none;stroke:#000000;stroke-linecap:square;stroke-linejoin:miter;stroke-width:0.8;"/>
   </g>
   <g id="patch_4">
    <path d="M 617.346875 343.870125 
L 617.346875 22.318125 
" style="fill:none;stroke:#000000;stroke-linecap:square;stroke-linejoin:miter;stroke-width:0.8;"/>
   </g>
   <g id="patch_5">
    <path d="M 226.746875 343.870125 
L 617.346875 343.870125 
" style="fill:none;stroke:#000000;stroke-linecap:square;stroke-linejoin:miter;stroke-width:0.8;"/>
   </g>
   <g id="patch_6">
    <path d="M 226.746875 22.318125 
L 617.346875 22.318125 
" style="fill:none;stroke:#000000;stroke-linecap:square;stroke-linejoin:miter;stroke-width:0.8;"/>
   </g>
   <g id="text_21">
    <!-- OE1 for 0.1 -->
    <g transform="translate(388.109375 16.318125)scale(0.12 -0.12)">
     <use xlink:href="#DejaVuSans-4f"/>
     <use x="78.710938" xlink:href="#DejaVuSans-45"/>
     <use x="141.894531" xlink:href="#DejaVuSans-31"/>
     <use x="205.517578" xlink:href="#DejaVuSans-20"/>
     <use x="237.304688" xlink:href="#DejaVuSans-66"/>
     <use x="272.509766" xlink:href="#DejaVuSans-6f"/>
     <use x="333.691406" xlink:href="#DejaVuSans-72"/>
     <use x="374.804688" xlink:href="#DejaVuSans-20"/>
     <use x="406.591797" xlink:href="#DejaVuSans-30"/>
     <use x="470.214844" xlink:href="#DejaVuSans-2e"/>
     <use x="502.001953" xlink:href="#DejaVuSans-31"/>
    </g>
   </g>
  </g>
 </g>
 <defs>
  <clipPath id="p1a82d094ce">
   <rect height="321.552" width="390.6" x="226.746875" y="22.318125"/>
  </clipPath>
 </defs>
</svg>
