<?xml version="1.0" encoding="utf-8" standalone="no"?>
<!DOCTYPE svg PUBLIC "-//W3C//DTD SVG 1.1//EN"
  "http://www.w3.org/Graphics/SVG/1.1/DTD/svg11.dtd">
<!-- Created with matplotlib (https://matplotlib.org/) -->
<svg height="381.426375pt" version="1.1" viewBox="0 0 632.498437 381.426375" width="632.498437pt" xmlns="http://www.w3.org/2000/svg" xmlns:xlink="http://www.w3.org/1999/xlink">
 <metadata>
  <rdf:RDF xmlns:cc="http://creativecommons.org/ns#" xmlns:dc="http://purl.org/dc/elements/1.1/" xmlns:rdf="http://www.w3.org/1999/02/22-rdf-syntax-ns#">
   <cc:Work>
    <dc:type rdf:resource="http://purl.org/dc/dcmitype/StillImage"/>
    <dc:date>2020-10-14T08:44:44.128143</dc:date>
    <dc:format>image/svg+xml</dc:format>
    <dc:creator>
     <cc:Agent>
      <dc:title>Matplotlib v3.3.1, https://matplotlib.org/</dc:title>
     </cc:Agent>
    </dc:creator>
   </cc:Work>
  </rdf:RDF>
 </metadata>
 <defs>
  <style type="text/css">*{stroke-linecap:butt;stroke-linejoin:round;}</style>
 </defs>
 <g id="figure_1">
  <g id="patch_1">
   <path d="M -0 381.426375 
L 632.498438 381.426375 
L 632.498438 0 
L -0 0 
z
" style="fill:#ffffff;"/>
  </g>
  <g id="axes_1">
   <g id="patch_2">
    <path d="M 226.746875 343.870125 
L 617.346875 343.870125 
L 617.346875 22.318125 
L 226.746875 22.318125 
z
" style="fill:#ffffff;"/>
   </g>
   <g id="matplotlib.axis_1">
    <g id="xtick_1">
     <g id="line2d_1">
      <path clip-path="url(#p74e641a4ea)" d="M 226.746875 343.870125 
L 226.746875 22.318125 
" style="fill:none;stroke:#b0b0b0;stroke-linecap:square;stroke-width:0.8;"/>
     </g>
     <g id="line2d_2">
      <defs>
       <path d="M 0 0 
L 0 3.5 
" id="m7fb744fa2f" style="stroke:#000000;stroke-width:0.8;"/>
      </defs>
      <g>
       <use style="stroke:#000000;stroke-width:0.8;" x="226.746875" xlink:href="#m7fb744fa2f" y="343.870125"/>
      </g>
     </g>
     <g id="text_1">
      <!-- 0.0 -->
      <g transform="translate(218.795312 358.468563)scale(0.1 -0.1)">
       <defs>
        <path d="M 31.78125 66.40625 
Q 24.171875 66.40625 20.328125 58.90625 
Q 16.5 51.421875 16.5 36.375 
Q 16.5 21.390625 20.328125 13.890625 
Q 24.171875 6.390625 31.78125 6.390625 
Q 39.453125 6.390625 43.28125 13.890625 
Q 47.125 21.390625 47.125 36.375 
Q 47.125 51.421875 43.28125 58.90625 
Q 39.453125 66.40625 31.78125 66.40625 
z
M 31.78125 74.21875 
Q 44.046875 74.21875 50.515625 64.515625 
Q 56.984375 54.828125 56.984375 36.375 
Q 56.984375 17.96875 50.515625 8.265625 
Q 44.046875 -1.421875 31.78125 -1.421875 
Q 19.53125 -1.421875 13.0625 8.265625 
Q 6.59375 17.96875 6.59375 36.375 
Q 6.59375 54.828125 13.0625 64.515625 
Q 19.53125 74.21875 31.78125 74.21875 
z
" id="DejaVuSans-48"/>
        <path d="M 10.6875 12.40625 
L 21 12.40625 
L 21 0 
L 10.6875 0 
z
" id="DejaVuSans-46"/>
       </defs>
       <use xlink:href="#DejaVuSans-48"/>
       <use x="63.623047" xlink:href="#DejaVuSans-46"/>
       <use x="95.410156" xlink:href="#DejaVuSans-48"/>
      </g>
     </g>
    </g>
    <g id="xtick_2">
     <g id="line2d_3">
      <path clip-path="url(#p74e641a4ea)" d="M 291.846875 343.870125 
L 291.846875 22.318125 
" style="fill:none;stroke:#b0b0b0;stroke-linecap:square;stroke-width:0.8;"/>
     </g>
     <g id="line2d_4">
      <g>
       <use style="stroke:#000000;stroke-width:0.8;" x="291.846875" xlink:href="#m7fb744fa2f" y="343.870125"/>
      </g>
     </g>
     <g id="text_2">
      <!-- 0.5 -->
      <g transform="translate(283.895312 358.468563)scale(0.1 -0.1)">
       <defs>
        <path d="M 10.796875 72.90625 
L 49.515625 72.90625 
L 49.515625 64.59375 
L 19.828125 64.59375 
L 19.828125 46.734375 
Q 21.96875 47.46875 24.109375 47.828125 
Q 26.265625 48.1875 28.421875 48.1875 
Q 40.625 48.1875 47.75 41.5 
Q 54.890625 34.8125 54.890625 23.390625 
Q 54.890625 11.625 47.5625 5.09375 
Q 40.234375 -1.421875 26.90625 -1.421875 
Q 22.3125 -1.421875 17.546875 -0.640625 
Q 12.796875 0.140625 7.71875 1.703125 
L 7.71875 11.625 
Q 12.109375 9.234375 16.796875 8.0625 
Q 21.484375 6.890625 26.703125 6.890625 
Q 35.15625 6.890625 40.078125 11.328125 
Q 45.015625 15.765625 45.015625 23.390625 
Q 45.015625 31 40.078125 35.4375 
Q 35.15625 39.890625 26.703125 39.890625 
Q 22.75 39.890625 18.8125 39.015625 
Q 14.890625 38.140625 10.796875 36.28125 
z
" id="DejaVuSans-53"/>
       </defs>
       <use xlink:href="#DejaVuSans-48"/>
       <use x="63.623047" xlink:href="#DejaVuSans-46"/>
       <use x="95.410156" xlink:href="#DejaVuSans-53"/>
      </g>
     </g>
    </g>
    <g id="xtick_3">
     <g id="line2d_5">
      <path clip-path="url(#p74e641a4ea)" d="M 356.946875 343.870125 
L 356.946875 22.318125 
" style="fill:none;stroke:#b0b0b0;stroke-linecap:square;stroke-width:0.8;"/>
     </g>
     <g id="line2d_6">
      <g>
       <use style="stroke:#000000;stroke-width:0.8;" x="356.946875" xlink:href="#m7fb744fa2f" y="343.870125"/>
      </g>
     </g>
     <g id="text_3">
      <!-- 1.0 -->
      <g transform="translate(348.995312 358.468563)scale(0.1 -0.1)">
       <defs>
        <path d="M 12.40625 8.296875 
L 28.515625 8.296875 
L 28.515625 63.921875 
L 10.984375 60.40625 
L 10.984375 69.390625 
L 28.421875 72.90625 
L 38.28125 72.90625 
L 38.28125 8.296875 
L 54.390625 8.296875 
L 54.390625 0 
L 12.40625 0 
z
" id="DejaVuSans-49"/>
       </defs>
       <use xlink:href="#DejaVuSans-49"/>
       <use x="63.623047" xlink:href="#DejaVuSans-46"/>
       <use x="95.410156" xlink:href="#DejaVuSans-48"/>
      </g>
     </g>
    </g>
    <g id="xtick_4">
     <g id="line2d_7">
      <path clip-path="url(#p74e641a4ea)" d="M 422.046875 343.870125 
L 422.046875 22.318125 
" style="fill:none;stroke:#b0b0b0;stroke-linecap:square;stroke-width:0.8;"/>
     </g>
     <g id="line2d_8">
      <g>
       <use style="stroke:#000000;stroke-width:0.8;" x="422.046875" xlink:href="#m7fb744fa2f" y="343.870125"/>
      </g>
     </g>
     <g id="text_4">
      <!-- 1.5 -->
      <g transform="translate(414.095312 358.468563)scale(0.1 -0.1)">
       <use xlink:href="#DejaVuSans-49"/>
       <use x="63.623047" xlink:href="#DejaVuSans-46"/>
       <use x="95.410156" xlink:href="#DejaVuSans-53"/>
      </g>
     </g>
    </g>
    <g id="xtick_5">
     <g id="line2d_9">
      <path clip-path="url(#p74e641a4ea)" d="M 487.146875 343.870125 
L 487.146875 22.318125 
" style="fill:none;stroke:#b0b0b0;stroke-linecap:square;stroke-width:0.8;"/>
     </g>
     <g id="line2d_10">
      <g>
       <use style="stroke:#000000;stroke-width:0.8;" x="487.146875" xlink:href="#m7fb744fa2f" y="343.870125"/>
      </g>
     </g>
     <g id="text_5">
      <!-- 2.0 -->
      <g transform="translate(479.195312 358.468563)scale(0.1 -0.1)">
       <defs>
        <path d="M 19.1875 8.296875 
L 53.609375 8.296875 
L 53.609375 0 
L 7.328125 0 
L 7.328125 8.296875 
Q 12.9375 14.109375 22.625 23.890625 
Q 32.328125 33.6875 34.8125 36.53125 
Q 39.546875 41.84375 41.421875 45.53125 
Q 43.3125 49.21875 43.3125 52.78125 
Q 43.3125 58.59375 39.234375 62.25 
Q 35.15625 65.921875 28.609375 65.921875 
Q 23.96875 65.921875 18.8125 64.3125 
Q 13.671875 62.703125 7.8125 59.421875 
L 7.8125 69.390625 
Q 13.765625 71.78125 18.9375 73 
Q 24.125 74.21875 28.421875 74.21875 
Q 39.75 74.21875 46.484375 68.546875 
Q 53.21875 62.890625 53.21875 53.421875 
Q 53.21875 48.921875 51.53125 44.890625 
Q 49.859375 40.875 45.40625 35.40625 
Q 44.1875 33.984375 37.640625 27.21875 
Q 31.109375 20.453125 19.1875 8.296875 
z
" id="DejaVuSans-50"/>
       </defs>
       <use xlink:href="#DejaVuSans-50"/>
       <use x="63.623047" xlink:href="#DejaVuSans-46"/>
       <use x="95.410156" xlink:href="#DejaVuSans-48"/>
      </g>
     </g>
    </g>
    <g id="xtick_6">
     <g id="line2d_11">
      <path clip-path="url(#p74e641a4ea)" d="M 552.246875 343.870125 
L 552.246875 22.318125 
" style="fill:none;stroke:#b0b0b0;stroke-linecap:square;stroke-width:0.8;"/>
     </g>
     <g id="line2d_12">
      <g>
       <use style="stroke:#000000;stroke-width:0.8;" x="552.246875" xlink:href="#m7fb744fa2f" y="343.870125"/>
      </g>
     </g>
     <g id="text_6">
      <!-- 2.5 -->
      <g transform="translate(544.295313 358.468563)scale(0.1 -0.1)">
       <use xlink:href="#DejaVuSans-50"/>
       <use x="63.623047" xlink:href="#DejaVuSans-46"/>
       <use x="95.410156" xlink:href="#DejaVuSans-53"/>
      </g>
     </g>
    </g>
    <g id="xtick_7">
     <g id="line2d_13">
      <path clip-path="url(#p74e641a4ea)" d="M 617.346875 343.870125 
L 617.346875 22.318125 
" style="fill:none;stroke:#b0b0b0;stroke-linecap:square;stroke-width:0.8;"/>
     </g>
     <g id="line2d_14">
      <g>
       <use style="stroke:#000000;stroke-width:0.8;" x="617.346875" xlink:href="#m7fb744fa2f" y="343.870125"/>
      </g>
     </g>
     <g id="text_7">
      <!-- 3.0 -->
      <g transform="translate(609.395312 358.468563)scale(0.1 -0.1)">
       <defs>
        <path d="M 40.578125 39.3125 
Q 47.65625 37.796875 51.625 33 
Q 55.609375 28.21875 55.609375 21.1875 
Q 55.609375 10.40625 48.1875 4.484375 
Q 40.765625 -1.421875 27.09375 -1.421875 
Q 22.515625 -1.421875 17.65625 -0.515625 
Q 12.796875 0.390625 7.625 2.203125 
L 7.625 11.71875 
Q 11.71875 9.328125 16.59375 8.109375 
Q 21.484375 6.890625 26.8125 6.890625 
Q 36.078125 6.890625 40.9375 10.546875 
Q 45.796875 14.203125 45.796875 21.1875 
Q 45.796875 27.640625 41.28125 31.265625 
Q 36.765625 34.90625 28.71875 34.90625 
L 20.21875 34.90625 
L 20.21875 43.015625 
L 29.109375 43.015625 
Q 36.375 43.015625 40.234375 45.921875 
Q 44.09375 48.828125 44.09375 54.296875 
Q 44.09375 59.90625 40.109375 62.90625 
Q 36.140625 65.921875 28.71875 65.921875 
Q 24.65625 65.921875 20.015625 65.03125 
Q 15.375 64.15625 9.8125 62.3125 
L 9.8125 71.09375 
Q 15.4375 72.65625 20.34375 73.4375 
Q 25.25 74.21875 29.59375 74.21875 
Q 40.828125 74.21875 47.359375 69.109375 
Q 53.90625 64.015625 53.90625 55.328125 
Q 53.90625 49.265625 50.4375 45.09375 
Q 46.96875 40.921875 40.578125 39.3125 
z
" id="DejaVuSans-51"/>
       </defs>
       <use xlink:href="#DejaVuSans-51"/>
       <use x="63.623047" xlink:href="#DejaVuSans-46"/>
       <use x="95.410156" xlink:href="#DejaVuSans-48"/>
      </g>
     </g>
    </g>
    <g id="text_8">
     <!-- AOE1 (TO) -->
     <g transform="translate(395.957031 372.146687)scale(0.1 -0.1)">
      <defs>
       <path d="M 34.1875 63.1875 
L 20.796875 26.90625 
L 47.609375 26.90625 
z
M 28.609375 72.90625 
L 39.796875 72.90625 
L 67.578125 0 
L 57.328125 0 
L 50.6875 18.703125 
L 17.828125 18.703125 
L 11.1875 0 
L 0.78125 0 
z
" id="DejaVuSans-65"/>
       <path d="M 39.40625 66.21875 
Q 28.65625 66.21875 22.328125 58.203125 
Q 16.015625 50.203125 16.015625 36.375 
Q 16.015625 22.609375 22.328125 14.59375 
Q 28.65625 6.59375 39.40625 6.59375 
Q 50.140625 6.59375 56.421875 14.59375 
Q 62.703125 22.609375 62.703125 36.375 
Q 62.703125 50.203125 56.421875 58.203125 
Q 50.140625 66.21875 39.40625 66.21875 
z
M 39.40625 74.21875 
Q 54.734375 74.21875 63.90625 63.9375 
Q 73.09375 53.65625 73.09375 36.375 
Q 73.09375 19.140625 63.90625 8.859375 
Q 54.734375 -1.421875 39.40625 -1.421875 
Q 24.03125 -1.421875 14.8125 8.828125 
Q 5.609375 19.09375 5.609375 36.375 
Q 5.609375 53.65625 14.8125 63.9375 
Q 24.03125 74.21875 39.40625 74.21875 
z
" id="DejaVuSans-79"/>
       <path d="M 9.8125 72.90625 
L 55.90625 72.90625 
L 55.90625 64.59375 
L 19.671875 64.59375 
L 19.671875 43.015625 
L 54.390625 43.015625 
L 54.390625 34.71875 
L 19.671875 34.71875 
L 19.671875 8.296875 
L 56.78125 8.296875 
L 56.78125 0 
L 9.8125 0 
z
" id="DejaVuSans-69"/>
       <path id="DejaVuSans-32"/>
       <path d="M 31 75.875 
Q 24.46875 64.65625 21.28125 53.65625 
Q 18.109375 42.671875 18.109375 31.390625 
Q 18.109375 20.125 21.3125 9.0625 
Q 24.515625 -2 31 -13.1875 
L 23.1875 -13.1875 
Q 15.875 -1.703125 12.234375 9.375 
Q 8.59375 20.453125 8.59375 31.390625 
Q 8.59375 42.28125 12.203125 53.3125 
Q 15.828125 64.359375 23.1875 75.875 
z
" id="DejaVuSans-40"/>
       <path d="M -0.296875 72.90625 
L 61.375 72.90625 
L 61.375 64.59375 
L 35.5 64.59375 
L 35.5 0 
L 25.59375 0 
L 25.59375 64.59375 
L -0.296875 64.59375 
z
" id="DejaVuSans-84"/>
       <path d="M 8.015625 75.875 
L 15.828125 75.875 
Q 23.140625 64.359375 26.78125 53.3125 
Q 30.421875 42.28125 30.421875 31.390625 
Q 30.421875 20.453125 26.78125 9.375 
Q 23.140625 -1.703125 15.828125 -13.1875 
L 8.015625 -13.1875 
Q 14.5 -2 17.703125 9.0625 
Q 20.90625 20.125 20.90625 31.390625 
Q 20.90625 42.671875 17.703125 53.65625 
Q 14.5 64.65625 8.015625 75.875 
z
" id="DejaVuSans-41"/>
      </defs>
      <use xlink:href="#DejaVuSans-65"/>
      <use x="66.658203" xlink:href="#DejaVuSans-79"/>
      <use x="145.369141" xlink:href="#DejaVuSans-69"/>
      <use x="208.552734" xlink:href="#DejaVuSans-49"/>
      <use x="272.175781" xlink:href="#DejaVuSans-32"/>
      <use x="303.962891" xlink:href="#DejaVuSans-40"/>
      <use x="342.976562" xlink:href="#DejaVuSans-84"/>
      <use x="404.060547" xlink:href="#DejaVuSans-79"/>
      <use x="482.771484" xlink:href="#DejaVuSans-41"/>
     </g>
    </g>
   </g>
   <g id="matplotlib.axis_2">
    <g id="ytick_1">
     <g id="line2d_15">
      <path clip-path="url(#p74e641a4ea)" d="M 226.746875 320.656478 
L 617.346875 320.656478 
" style="fill:none;stroke:#b0b0b0;stroke-linecap:square;stroke-width:0.8;"/>
     </g>
     <g id="line2d_16">
      <defs>
       <path d="M 0 0 
L -3.5 0 
" id="m818f767d52" style="stroke:#000000;stroke-width:0.8;"/>
      </defs>
      <g>
       <use style="stroke:#000000;stroke-width:0.8;" x="226.746875" xlink:href="#m818f767d52" y="320.656478"/>
      </g>
     </g>
     <g id="text_9">
      <!-- schreiber2018/ismir2018 -->
      <g transform="translate(94.385937 324.455697)scale(0.1 -0.1)">
       <defs>
        <path d="M 44.28125 53.078125 
L 44.28125 44.578125 
Q 40.484375 46.53125 36.375 47.5 
Q 32.28125 48.484375 27.875 48.484375 
Q 21.1875 48.484375 17.84375 46.4375 
Q 14.5 44.390625 14.5 40.28125 
Q 14.5 37.15625 16.890625 35.375 
Q 19.28125 33.59375 26.515625 31.984375 
L 29.59375 31.296875 
Q 39.15625 29.25 43.1875 25.515625 
Q 47.21875 21.78125 47.21875 15.09375 
Q 47.21875 7.46875 41.1875 3.015625 
Q 35.15625 -1.421875 24.609375 -1.421875 
Q 20.21875 -1.421875 15.453125 -0.5625 
Q 10.6875 0.296875 5.421875 2 
L 5.421875 11.28125 
Q 10.40625 8.6875 15.234375 7.390625 
Q 20.0625 6.109375 24.8125 6.109375 
Q 31.15625 6.109375 34.5625 8.28125 
Q 37.984375 10.453125 37.984375 14.40625 
Q 37.984375 18.0625 35.515625 20.015625 
Q 33.0625 21.96875 24.703125 23.78125 
L 21.578125 24.515625 
Q 13.234375 26.265625 9.515625 29.90625 
Q 5.8125 33.546875 5.8125 39.890625 
Q 5.8125 47.609375 11.28125 51.796875 
Q 16.75 56 26.8125 56 
Q 31.78125 56 36.171875 55.265625 
Q 40.578125 54.546875 44.28125 53.078125 
z
" id="DejaVuSans-115"/>
        <path d="M 48.78125 52.59375 
L 48.78125 44.1875 
Q 44.96875 46.296875 41.140625 47.34375 
Q 37.3125 48.390625 33.40625 48.390625 
Q 24.65625 48.390625 19.8125 42.84375 
Q 14.984375 37.3125 14.984375 27.296875 
Q 14.984375 17.28125 19.8125 11.734375 
Q 24.65625 6.203125 33.40625 6.203125 
Q 37.3125 6.203125 41.140625 7.25 
Q 44.96875 8.296875 48.78125 10.40625 
L 48.78125 2.09375 
Q 45.015625 0.34375 40.984375 -0.53125 
Q 36.96875 -1.421875 32.421875 -1.421875 
Q 20.0625 -1.421875 12.78125 6.34375 
Q 5.515625 14.109375 5.515625 27.296875 
Q 5.515625 40.671875 12.859375 48.328125 
Q 20.21875 56 33.015625 56 
Q 37.15625 56 41.109375 55.140625 
Q 45.0625 54.296875 48.78125 52.59375 
z
" id="DejaVuSans-99"/>
        <path d="M 54.890625 33.015625 
L 54.890625 0 
L 45.90625 0 
L 45.90625 32.71875 
Q 45.90625 40.484375 42.875 44.328125 
Q 39.84375 48.1875 33.796875 48.1875 
Q 26.515625 48.1875 22.3125 43.546875 
Q 18.109375 38.921875 18.109375 30.90625 
L 18.109375 0 
L 9.078125 0 
L 9.078125 75.984375 
L 18.109375 75.984375 
L 18.109375 46.1875 
Q 21.34375 51.125 25.703125 53.5625 
Q 30.078125 56 35.796875 56 
Q 45.21875 56 50.046875 50.171875 
Q 54.890625 44.34375 54.890625 33.015625 
z
" id="DejaVuSans-104"/>
        <path d="M 41.109375 46.296875 
Q 39.59375 47.171875 37.8125 47.578125 
Q 36.03125 48 33.890625 48 
Q 26.265625 48 22.1875 43.046875 
Q 18.109375 38.09375 18.109375 28.8125 
L 18.109375 0 
L 9.078125 0 
L 9.078125 54.6875 
L 18.109375 54.6875 
L 18.109375 46.1875 
Q 20.953125 51.171875 25.484375 53.578125 
Q 30.03125 56 36.53125 56 
Q 37.453125 56 38.578125 55.875 
Q 39.703125 55.765625 41.0625 55.515625 
z
" id="DejaVuSans-114"/>
        <path d="M 56.203125 29.59375 
L 56.203125 25.203125 
L 14.890625 25.203125 
Q 15.484375 15.921875 20.484375 11.0625 
Q 25.484375 6.203125 34.421875 6.203125 
Q 39.59375 6.203125 44.453125 7.46875 
Q 49.3125 8.734375 54.109375 11.28125 
L 54.109375 2.78125 
Q 49.265625 0.734375 44.1875 -0.34375 
Q 39.109375 -1.421875 33.890625 -1.421875 
Q 20.796875 -1.421875 13.15625 6.1875 
Q 5.515625 13.8125 5.515625 26.8125 
Q 5.515625 40.234375 12.765625 48.109375 
Q 20.015625 56 32.328125 56 
Q 43.359375 56 49.78125 48.890625 
Q 56.203125 41.796875 56.203125 29.59375 
z
M 47.21875 32.234375 
Q 47.125 39.59375 43.09375 43.984375 
Q 39.0625 48.390625 32.421875 48.390625 
Q 24.90625 48.390625 20.390625 44.140625 
Q 15.875 39.890625 15.1875 32.171875 
z
" id="DejaVuSans-101"/>
        <path d="M 9.421875 54.6875 
L 18.40625 54.6875 
L 18.40625 0 
L 9.421875 0 
z
M 9.421875 75.984375 
L 18.40625 75.984375 
L 18.40625 64.59375 
L 9.421875 64.59375 
z
" id="DejaVuSans-105"/>
        <path d="M 48.6875 27.296875 
Q 48.6875 37.203125 44.609375 42.84375 
Q 40.53125 48.484375 33.40625 48.484375 
Q 26.265625 48.484375 22.1875 42.84375 
Q 18.109375 37.203125 18.109375 27.296875 
Q 18.109375 17.390625 22.1875 11.75 
Q 26.265625 6.109375 33.40625 6.109375 
Q 40.53125 6.109375 44.609375 11.75 
Q 48.6875 17.390625 48.6875 27.296875 
z
M 18.109375 46.390625 
Q 20.953125 51.265625 25.265625 53.625 
Q 29.59375 56 35.59375 56 
Q 45.5625 56 51.78125 48.09375 
Q 58.015625 40.1875 58.015625 27.296875 
Q 58.015625 14.40625 51.78125 6.484375 
Q 45.5625 -1.421875 35.59375 -1.421875 
Q 29.59375 -1.421875 25.265625 0.953125 
Q 20.953125 3.328125 18.109375 8.203125 
L 18.109375 0 
L 9.078125 0 
L 9.078125 75.984375 
L 18.109375 75.984375 
z
" id="DejaVuSans-98"/>
        <path d="M 31.78125 34.625 
Q 24.75 34.625 20.71875 30.859375 
Q 16.703125 27.09375 16.703125 20.515625 
Q 16.703125 13.921875 20.71875 10.15625 
Q 24.75 6.390625 31.78125 6.390625 
Q 38.8125 6.390625 42.859375 10.171875 
Q 46.921875 13.96875 46.921875 20.515625 
Q 46.921875 27.09375 42.890625 30.859375 
Q 38.875 34.625 31.78125 34.625 
z
M 21.921875 38.8125 
Q 15.578125 40.375 12.03125 44.71875 
Q 8.5 49.078125 8.5 55.328125 
Q 8.5 64.0625 14.71875 69.140625 
Q 20.953125 74.21875 31.78125 74.21875 
Q 42.671875 74.21875 48.875 69.140625 
Q 55.078125 64.0625 55.078125 55.328125 
Q 55.078125 49.078125 51.53125 44.71875 
Q 48 40.375 41.703125 38.8125 
Q 48.828125 37.15625 52.796875 32.3125 
Q 56.78125 27.484375 56.78125 20.515625 
Q 56.78125 9.90625 50.3125 4.234375 
Q 43.84375 -1.421875 31.78125 -1.421875 
Q 19.734375 -1.421875 13.25 4.234375 
Q 6.78125 9.90625 6.78125 20.515625 
Q 6.78125 27.484375 10.78125 32.3125 
Q 14.796875 37.15625 21.921875 38.8125 
z
M 18.3125 54.390625 
Q 18.3125 48.734375 21.84375 45.5625 
Q 25.390625 42.390625 31.78125 42.390625 
Q 38.140625 42.390625 41.71875 45.5625 
Q 45.3125 48.734375 45.3125 54.390625 
Q 45.3125 60.0625 41.71875 63.234375 
Q 38.140625 66.40625 31.78125 66.40625 
Q 25.390625 66.40625 21.84375 63.234375 
Q 18.3125 60.0625 18.3125 54.390625 
z
" id="DejaVuSans-56"/>
        <path d="M 25.390625 72.90625 
L 33.6875 72.90625 
L 8.296875 -9.28125 
L 0 -9.28125 
z
" id="DejaVuSans-47"/>
        <path d="M 52 44.1875 
Q 55.375 50.25 60.0625 53.125 
Q 64.75 56 71.09375 56 
Q 79.640625 56 84.28125 50.015625 
Q 88.921875 44.046875 88.921875 33.015625 
L 88.921875 0 
L 79.890625 0 
L 79.890625 32.71875 
Q 79.890625 40.578125 77.09375 44.375 
Q 74.3125 48.1875 68.609375 48.1875 
Q 61.625 48.1875 57.5625 43.546875 
Q 53.515625 38.921875 53.515625 30.90625 
L 53.515625 0 
L 44.484375 0 
L 44.484375 32.71875 
Q 44.484375 40.625 41.703125 44.40625 
Q 38.921875 48.1875 33.109375 48.1875 
Q 26.21875 48.1875 22.15625 43.53125 
Q 18.109375 38.875 18.109375 30.90625 
L 18.109375 0 
L 9.078125 0 
L 9.078125 54.6875 
L 18.109375 54.6875 
L 18.109375 46.1875 
Q 21.1875 51.21875 25.484375 53.609375 
Q 29.78125 56 35.6875 56 
Q 41.65625 56 45.828125 52.96875 
Q 50 49.953125 52 44.1875 
z
" id="DejaVuSans-109"/>
       </defs>
       <use xlink:href="#DejaVuSans-115"/>
       <use x="52.099609" xlink:href="#DejaVuSans-99"/>
       <use x="107.080078" xlink:href="#DejaVuSans-104"/>
       <use x="170.458984" xlink:href="#DejaVuSans-114"/>
       <use x="209.322266" xlink:href="#DejaVuSans-101"/>
       <use x="270.845703" xlink:href="#DejaVuSans-105"/>
       <use x="298.628906" xlink:href="#DejaVuSans-98"/>
       <use x="362.105469" xlink:href="#DejaVuSans-101"/>
       <use x="423.628906" xlink:href="#DejaVuSans-114"/>
       <use x="464.742188" xlink:href="#DejaVuSans-50"/>
       <use x="528.365234" xlink:href="#DejaVuSans-48"/>
       <use x="591.988281" xlink:href="#DejaVuSans-49"/>
       <use x="655.611328" xlink:href="#DejaVuSans-56"/>
       <use x="719.234375" xlink:href="#DejaVuSans-47"/>
       <use x="752.925781" xlink:href="#DejaVuSans-105"/>
       <use x="780.708984" xlink:href="#DejaVuSans-115"/>
       <use x="832.808594" xlink:href="#DejaVuSans-109"/>
       <use x="930.220703" xlink:href="#DejaVuSans-105"/>
       <use x="958.003906" xlink:href="#DejaVuSans-114"/>
       <use x="999.117188" xlink:href="#DejaVuSans-50"/>
       <use x="1062.740234" xlink:href="#DejaVuSans-48"/>
       <use x="1126.363281" xlink:href="#DejaVuSans-49"/>
       <use x="1189.986328" xlink:href="#DejaVuSans-56"/>
      </g>
     </g>
    </g>
    <g id="ytick_2">
     <g id="line2d_17">
      <path clip-path="url(#p74e641a4ea)" d="M 226.746875 286.26589 
L 617.346875 286.26589 
" style="fill:none;stroke:#b0b0b0;stroke-linecap:square;stroke-width:0.8;"/>
     </g>
     <g id="line2d_18">
      <g>
       <use style="stroke:#000000;stroke-width:0.8;" x="226.746875" xlink:href="#m818f767d52" y="286.26589"/>
      </g>
     </g>
     <g id="text_10">
      <!-- schreiber2018/fcn -->
      <g transform="translate(129.096875 290.065108)scale(0.1 -0.1)">
       <defs>
        <path d="M 37.109375 75.984375 
L 37.109375 68.5 
L 28.515625 68.5 
Q 23.6875 68.5 21.796875 66.546875 
Q 19.921875 64.59375 19.921875 59.515625 
L 19.921875 54.6875 
L 34.71875 54.6875 
L 34.71875 47.703125 
L 19.921875 47.703125 
L 19.921875 0 
L 10.890625 0 
L 10.890625 47.703125 
L 2.296875 47.703125 
L 2.296875 54.6875 
L 10.890625 54.6875 
L 10.890625 58.5 
Q 10.890625 67.625 15.140625 71.796875 
Q 19.390625 75.984375 28.609375 75.984375 
z
" id="DejaVuSans-102"/>
        <path d="M 54.890625 33.015625 
L 54.890625 0 
L 45.90625 0 
L 45.90625 32.71875 
Q 45.90625 40.484375 42.875 44.328125 
Q 39.84375 48.1875 33.796875 48.1875 
Q 26.515625 48.1875 22.3125 43.546875 
Q 18.109375 38.921875 18.109375 30.90625 
L 18.109375 0 
L 9.078125 0 
L 9.078125 54.6875 
L 18.109375 54.6875 
L 18.109375 46.1875 
Q 21.34375 51.125 25.703125 53.5625 
Q 30.078125 56 35.796875 56 
Q 45.21875 56 50.046875 50.171875 
Q 54.890625 44.34375 54.890625 33.015625 
z
" id="DejaVuSans-110"/>
       </defs>
       <use xlink:href="#DejaVuSans-115"/>
       <use x="52.099609" xlink:href="#DejaVuSans-99"/>
       <use x="107.080078" xlink:href="#DejaVuSans-104"/>
       <use x="170.458984" xlink:href="#DejaVuSans-114"/>
       <use x="209.322266" xlink:href="#DejaVuSans-101"/>
       <use x="270.845703" xlink:href="#DejaVuSans-105"/>
       <use x="298.628906" xlink:href="#DejaVuSans-98"/>
       <use x="362.105469" xlink:href="#DejaVuSans-101"/>
       <use x="423.628906" xlink:href="#DejaVuSans-114"/>
       <use x="464.742188" xlink:href="#DejaVuSans-50"/>
       <use x="528.365234" xlink:href="#DejaVuSans-48"/>
       <use x="591.988281" xlink:href="#DejaVuSans-49"/>
       <use x="655.611328" xlink:href="#DejaVuSans-56"/>
       <use x="719.234375" xlink:href="#DejaVuSans-47"/>
       <use x="752.925781" xlink:href="#DejaVuSans-102"/>
       <use x="788.130859" xlink:href="#DejaVuSans-99"/>
       <use x="843.111328" xlink:href="#DejaVuSans-110"/>
      </g>
     </g>
    </g>
    <g id="ytick_3">
     <g id="line2d_19">
      <path clip-path="url(#p74e641a4ea)" d="M 226.746875 251.875301 
L 617.346875 251.875301 
" style="fill:none;stroke:#b0b0b0;stroke-linecap:square;stroke-width:0.8;"/>
     </g>
     <g id="line2d_20">
      <g>
       <use style="stroke:#000000;stroke-width:0.8;" x="226.746875" xlink:href="#m818f767d52" y="251.875301"/>
      </g>
     </g>
     <g id="text_11">
      <!-- schreiber2018/cnn -->
      <g transform="translate(126.279687 255.67452)scale(0.1 -0.1)">
       <use xlink:href="#DejaVuSans-115"/>
       <use x="52.099609" xlink:href="#DejaVuSans-99"/>
       <use x="107.080078" xlink:href="#DejaVuSans-104"/>
       <use x="170.458984" xlink:href="#DejaVuSans-114"/>
       <use x="209.322266" xlink:href="#DejaVuSans-101"/>
       <use x="270.845703" xlink:href="#DejaVuSans-105"/>
       <use x="298.628906" xlink:href="#DejaVuSans-98"/>
       <use x="362.105469" xlink:href="#DejaVuSans-101"/>
       <use x="423.628906" xlink:href="#DejaVuSans-114"/>
       <use x="464.742188" xlink:href="#DejaVuSans-50"/>
       <use x="528.365234" xlink:href="#DejaVuSans-48"/>
       <use x="591.988281" xlink:href="#DejaVuSans-49"/>
       <use x="655.611328" xlink:href="#DejaVuSans-56"/>
       <use x="719.234375" xlink:href="#DejaVuSans-47"/>
       <use x="752.925781" xlink:href="#DejaVuSans-99"/>
       <use x="807.90625" xlink:href="#DejaVuSans-110"/>
       <use x="871.285156" xlink:href="#DejaVuSans-110"/>
      </g>
     </g>
    </g>
    <g id="ytick_4">
     <g id="line2d_21">
      <path clip-path="url(#p74e641a4ea)" d="M 226.746875 217.484713 
L 617.346875 217.484713 
" style="fill:none;stroke:#b0b0b0;stroke-linecap:square;stroke-width:0.8;"/>
     </g>
     <g id="line2d_22">
      <g>
       <use style="stroke:#000000;stroke-width:0.8;" x="226.746875" xlink:href="#m818f767d52" y="217.484713"/>
      </g>
     </g>
     <g id="text_12">
      <!-- schreiber2017/mirex2017 -->
      <g transform="translate(90.701562 221.283932)scale(0.1 -0.1)">
       <defs>
        <path d="M 8.203125 72.90625 
L 55.078125 72.90625 
L 55.078125 68.703125 
L 28.609375 0 
L 18.3125 0 
L 43.21875 64.59375 
L 8.203125 64.59375 
z
" id="DejaVuSans-55"/>
        <path d="M 54.890625 54.6875 
L 35.109375 28.078125 
L 55.90625 0 
L 45.3125 0 
L 29.390625 21.484375 
L 13.484375 0 
L 2.875 0 
L 24.125 28.609375 
L 4.6875 54.6875 
L 15.28125 54.6875 
L 29.78125 35.203125 
L 44.28125 54.6875 
z
" id="DejaVuSans-120"/>
       </defs>
       <use xlink:href="#DejaVuSans-115"/>
       <use x="52.099609" xlink:href="#DejaVuSans-99"/>
       <use x="107.080078" xlink:href="#DejaVuSans-104"/>
       <use x="170.458984" xlink:href="#DejaVuSans-114"/>
       <use x="209.322266" xlink:href="#DejaVuSans-101"/>
       <use x="270.845703" xlink:href="#DejaVuSans-105"/>
       <use x="298.628906" xlink:href="#DejaVuSans-98"/>
       <use x="362.105469" xlink:href="#DejaVuSans-101"/>
       <use x="423.628906" xlink:href="#DejaVuSans-114"/>
       <use x="464.742188" xlink:href="#DejaVuSans-50"/>
       <use x="528.365234" xlink:href="#DejaVuSans-48"/>
       <use x="591.988281" xlink:href="#DejaVuSans-49"/>
       <use x="655.611328" xlink:href="#DejaVuSans-55"/>
       <use x="719.234375" xlink:href="#DejaVuSans-47"/>
       <use x="752.925781" xlink:href="#DejaVuSans-109"/>
       <use x="850.337891" xlink:href="#DejaVuSans-105"/>
       <use x="878.121094" xlink:href="#DejaVuSans-114"/>
       <use x="916.984375" xlink:href="#DejaVuSans-101"/>
       <use x="976.757812" xlink:href="#DejaVuSans-120"/>
       <use x="1035.9375" xlink:href="#DejaVuSans-50"/>
       <use x="1099.560547" xlink:href="#DejaVuSans-48"/>
       <use x="1163.183594" xlink:href="#DejaVuSans-49"/>
       <use x="1226.806641" xlink:href="#DejaVuSans-55"/>
      </g>
     </g>
    </g>
    <g id="ytick_5">
     <g id="line2d_23">
      <path clip-path="url(#p74e641a4ea)" d="M 226.746875 183.094125 
L 617.346875 183.094125 
" style="fill:none;stroke:#b0b0b0;stroke-linecap:square;stroke-width:0.8;"/>
     </g>
     <g id="line2d_24">
      <g>
       <use style="stroke:#000000;stroke-width:0.8;" x="226.746875" xlink:href="#m818f767d52" y="183.094125"/>
      </g>
     </g>
     <g id="text_13">
      <!-- schreiber2017/ismir2017 -->
      <g transform="translate(94.385937 186.893344)scale(0.1 -0.1)">
       <use xlink:href="#DejaVuSans-115"/>
       <use x="52.099609" xlink:href="#DejaVuSans-99"/>
       <use x="107.080078" xlink:href="#DejaVuSans-104"/>
       <use x="170.458984" xlink:href="#DejaVuSans-114"/>
       <use x="209.322266" xlink:href="#DejaVuSans-101"/>
       <use x="270.845703" xlink:href="#DejaVuSans-105"/>
       <use x="298.628906" xlink:href="#DejaVuSans-98"/>
       <use x="362.105469" xlink:href="#DejaVuSans-101"/>
       <use x="423.628906" xlink:href="#DejaVuSans-114"/>
       <use x="464.742188" xlink:href="#DejaVuSans-50"/>
       <use x="528.365234" xlink:href="#DejaVuSans-48"/>
       <use x="591.988281" xlink:href="#DejaVuSans-49"/>
       <use x="655.611328" xlink:href="#DejaVuSans-55"/>
       <use x="719.234375" xlink:href="#DejaVuSans-47"/>
       <use x="752.925781" xlink:href="#DejaVuSans-105"/>
       <use x="780.708984" xlink:href="#DejaVuSans-115"/>
       <use x="832.808594" xlink:href="#DejaVuSans-109"/>
       <use x="930.220703" xlink:href="#DejaVuSans-105"/>
       <use x="958.003906" xlink:href="#DejaVuSans-114"/>
       <use x="999.117188" xlink:href="#DejaVuSans-50"/>
       <use x="1062.740234" xlink:href="#DejaVuSans-48"/>
       <use x="1126.363281" xlink:href="#DejaVuSans-49"/>
       <use x="1189.986328" xlink:href="#DejaVuSans-55"/>
      </g>
     </g>
    </g>
    <g id="ytick_6">
     <g id="line2d_25">
      <path clip-path="url(#p74e641a4ea)" d="M 226.746875 148.703537 
L 617.346875 148.703537 
" style="fill:none;stroke:#b0b0b0;stroke-linecap:square;stroke-width:0.8;"/>
     </g>
     <g id="line2d_26">
      <g>
       <use style="stroke:#000000;stroke-width:0.8;" x="226.746875" xlink:href="#m818f767d52" y="148.703537"/>
      </g>
     </g>
     <g id="text_14">
      <!-- schreiber2014/default -->
      <g transform="translate(109.267187 152.502756)scale(0.1 -0.1)">
       <defs>
        <path d="M 37.796875 64.3125 
L 12.890625 25.390625 
L 37.796875 25.390625 
z
M 35.203125 72.90625 
L 47.609375 72.90625 
L 47.609375 25.390625 
L 58.015625 25.390625 
L 58.015625 17.1875 
L 47.609375 17.1875 
L 47.609375 0 
L 37.796875 0 
L 37.796875 17.1875 
L 4.890625 17.1875 
L 4.890625 26.703125 
z
" id="DejaVuSans-52"/>
        <path d="M 45.40625 46.390625 
L 45.40625 75.984375 
L 54.390625 75.984375 
L 54.390625 0 
L 45.40625 0 
L 45.40625 8.203125 
Q 42.578125 3.328125 38.25 0.953125 
Q 33.9375 -1.421875 27.875 -1.421875 
Q 17.96875 -1.421875 11.734375 6.484375 
Q 5.515625 14.40625 5.515625 27.296875 
Q 5.515625 40.1875 11.734375 48.09375 
Q 17.96875 56 27.875 56 
Q 33.9375 56 38.25 53.625 
Q 42.578125 51.265625 45.40625 46.390625 
z
M 14.796875 27.296875 
Q 14.796875 17.390625 18.875 11.75 
Q 22.953125 6.109375 30.078125 6.109375 
Q 37.203125 6.109375 41.296875 11.75 
Q 45.40625 17.390625 45.40625 27.296875 
Q 45.40625 37.203125 41.296875 42.84375 
Q 37.203125 48.484375 30.078125 48.484375 
Q 22.953125 48.484375 18.875 42.84375 
Q 14.796875 37.203125 14.796875 27.296875 
z
" id="DejaVuSans-100"/>
        <path d="M 34.28125 27.484375 
Q 23.390625 27.484375 19.1875 25 
Q 14.984375 22.515625 14.984375 16.5 
Q 14.984375 11.71875 18.140625 8.90625 
Q 21.296875 6.109375 26.703125 6.109375 
Q 34.1875 6.109375 38.703125 11.40625 
Q 43.21875 16.703125 43.21875 25.484375 
L 43.21875 27.484375 
z
M 52.203125 31.203125 
L 52.203125 0 
L 43.21875 0 
L 43.21875 8.296875 
Q 40.140625 3.328125 35.546875 0.953125 
Q 30.953125 -1.421875 24.3125 -1.421875 
Q 15.921875 -1.421875 10.953125 3.296875 
Q 6 8.015625 6 15.921875 
Q 6 25.140625 12.171875 29.828125 
Q 18.359375 34.515625 30.609375 34.515625 
L 43.21875 34.515625 
L 43.21875 35.40625 
Q 43.21875 41.609375 39.140625 45 
Q 35.0625 48.390625 27.6875 48.390625 
Q 23 48.390625 18.546875 47.265625 
Q 14.109375 46.140625 10.015625 43.890625 
L 10.015625 52.203125 
Q 14.9375 54.109375 19.578125 55.046875 
Q 24.21875 56 28.609375 56 
Q 40.484375 56 46.34375 49.84375 
Q 52.203125 43.703125 52.203125 31.203125 
z
" id="DejaVuSans-97"/>
        <path d="M 8.5 21.578125 
L 8.5 54.6875 
L 17.484375 54.6875 
L 17.484375 21.921875 
Q 17.484375 14.15625 20.5 10.265625 
Q 23.53125 6.390625 29.59375 6.390625 
Q 36.859375 6.390625 41.078125 11.03125 
Q 45.3125 15.671875 45.3125 23.6875 
L 45.3125 54.6875 
L 54.296875 54.6875 
L 54.296875 0 
L 45.3125 0 
L 45.3125 8.40625 
Q 42.046875 3.421875 37.71875 1 
Q 33.40625 -1.421875 27.6875 -1.421875 
Q 18.265625 -1.421875 13.375 4.4375 
Q 8.5 10.296875 8.5 21.578125 
z
M 31.109375 56 
z
" id="DejaVuSans-117"/>
        <path d="M 9.421875 75.984375 
L 18.40625 75.984375 
L 18.40625 0 
L 9.421875 0 
z
" id="DejaVuSans-108"/>
        <path d="M 18.3125 70.21875 
L 18.3125 54.6875 
L 36.8125 54.6875 
L 36.8125 47.703125 
L 18.3125 47.703125 
L 18.3125 18.015625 
Q 18.3125 11.328125 20.140625 9.421875 
Q 21.96875 7.515625 27.59375 7.515625 
L 36.8125 7.515625 
L 36.8125 0 
L 27.59375 0 
Q 17.1875 0 13.234375 3.875 
Q 9.28125 7.765625 9.28125 18.015625 
L 9.28125 47.703125 
L 2.6875 47.703125 
L 2.6875 54.6875 
L 9.28125 54.6875 
L 9.28125 70.21875 
z
" id="DejaVuSans-116"/>
       </defs>
       <use xlink:href="#DejaVuSans-115"/>
       <use x="52.099609" xlink:href="#DejaVuSans-99"/>
       <use x="107.080078" xlink:href="#DejaVuSans-104"/>
       <use x="170.458984" xlink:href="#DejaVuSans-114"/>
       <use x="209.322266" xlink:href="#DejaVuSans-101"/>
       <use x="270.845703" xlink:href="#DejaVuSans-105"/>
       <use x="298.628906" xlink:href="#DejaVuSans-98"/>
       <use x="362.105469" xlink:href="#DejaVuSans-101"/>
       <use x="423.628906" xlink:href="#DejaVuSans-114"/>
       <use x="464.742188" xlink:href="#DejaVuSans-50"/>
       <use x="528.365234" xlink:href="#DejaVuSans-48"/>
       <use x="591.988281" xlink:href="#DejaVuSans-49"/>
       <use x="655.611328" xlink:href="#DejaVuSans-52"/>
       <use x="719.234375" xlink:href="#DejaVuSans-47"/>
       <use x="752.925781" xlink:href="#DejaVuSans-100"/>
       <use x="816.402344" xlink:href="#DejaVuSans-101"/>
       <use x="877.925781" xlink:href="#DejaVuSans-102"/>
       <use x="913.130859" xlink:href="#DejaVuSans-97"/>
       <use x="974.410156" xlink:href="#DejaVuSans-117"/>
       <use x="1037.789062" xlink:href="#DejaVuSans-108"/>
       <use x="1065.572266" xlink:href="#DejaVuSans-116"/>
      </g>
     </g>
    </g>
    <g id="ytick_7">
     <g id="line2d_27">
      <path clip-path="url(#p74e641a4ea)" d="M 226.746875 114.312949 
L 617.346875 114.312949 
" style="fill:none;stroke:#b0b0b0;stroke-linecap:square;stroke-width:0.8;"/>
     </g>
     <g id="line2d_28">
      <g>
       <use style="stroke:#000000;stroke-width:0.8;" x="226.746875" xlink:href="#m818f767d52" y="114.312949"/>
      </g>
     </g>
     <g id="text_15">
      <!-- percival2014/stem -->
      <g transform="translate(126.415625 118.112167)scale(0.1 -0.1)">
       <defs>
        <path d="M 18.109375 8.203125 
L 18.109375 -20.796875 
L 9.078125 -20.796875 
L 9.078125 54.6875 
L 18.109375 54.6875 
L 18.109375 46.390625 
Q 20.953125 51.265625 25.265625 53.625 
Q 29.59375 56 35.59375 56 
Q 45.5625 56 51.78125 48.09375 
Q 58.015625 40.1875 58.015625 27.296875 
Q 58.015625 14.40625 51.78125 6.484375 
Q 45.5625 -1.421875 35.59375 -1.421875 
Q 29.59375 -1.421875 25.265625 0.953125 
Q 20.953125 3.328125 18.109375 8.203125 
z
M 48.6875 27.296875 
Q 48.6875 37.203125 44.609375 42.84375 
Q 40.53125 48.484375 33.40625 48.484375 
Q 26.265625 48.484375 22.1875 42.84375 
Q 18.109375 37.203125 18.109375 27.296875 
Q 18.109375 17.390625 22.1875 11.75 
Q 26.265625 6.109375 33.40625 6.109375 
Q 40.53125 6.109375 44.609375 11.75 
Q 48.6875 17.390625 48.6875 27.296875 
z
" id="DejaVuSans-112"/>
        <path d="M 2.984375 54.6875 
L 12.5 54.6875 
L 29.59375 8.796875 
L 46.6875 54.6875 
L 56.203125 54.6875 
L 35.6875 0 
L 23.484375 0 
z
" id="DejaVuSans-118"/>
       </defs>
       <use xlink:href="#DejaVuSans-112"/>
       <use x="63.476562" xlink:href="#DejaVuSans-101"/>
       <use x="125" xlink:href="#DejaVuSans-114"/>
       <use x="163.863281" xlink:href="#DejaVuSans-99"/>
       <use x="218.84375" xlink:href="#DejaVuSans-105"/>
       <use x="246.626953" xlink:href="#DejaVuSans-118"/>
       <use x="305.806641" xlink:href="#DejaVuSans-97"/>
       <use x="367.085938" xlink:href="#DejaVuSans-108"/>
       <use x="394.869141" xlink:href="#DejaVuSans-50"/>
       <use x="458.492188" xlink:href="#DejaVuSans-48"/>
       <use x="522.115234" xlink:href="#DejaVuSans-49"/>
       <use x="585.738281" xlink:href="#DejaVuSans-52"/>
       <use x="649.361328" xlink:href="#DejaVuSans-47"/>
       <use x="683.052734" xlink:href="#DejaVuSans-115"/>
       <use x="735.152344" xlink:href="#DejaVuSans-116"/>
       <use x="774.361328" xlink:href="#DejaVuSans-101"/>
       <use x="835.884766" xlink:href="#DejaVuSans-109"/>
      </g>
     </g>
    </g>
    <g id="ytick_8">
     <g id="line2d_29">
      <path clip-path="url(#p74e641a4ea)" d="M 226.746875 79.92236 
L 617.346875 79.92236 
" style="fill:none;stroke:#b0b0b0;stroke-linecap:square;stroke-width:0.8;"/>
     </g>
     <g id="line2d_30">
      <g>
       <use style="stroke:#000000;stroke-width:0.8;" x="226.746875" xlink:href="#m818f767d52" y="79.92236"/>
      </g>
     </g>
     <g id="text_16">
      <!-- davies2009/mirex_qm_tempotracker -->
      <g transform="translate(36.370312 83.721579)scale(0.1 -0.1)">
       <defs>
        <path d="M 10.984375 1.515625 
L 10.984375 10.5 
Q 14.703125 8.734375 18.5 7.8125 
Q 22.3125 6.890625 25.984375 6.890625 
Q 35.75 6.890625 40.890625 13.453125 
Q 46.046875 20.015625 46.78125 33.40625 
Q 43.953125 29.203125 39.59375 26.953125 
Q 35.25 24.703125 29.984375 24.703125 
Q 19.046875 24.703125 12.671875 31.3125 
Q 6.296875 37.9375 6.296875 49.421875 
Q 6.296875 60.640625 12.9375 67.421875 
Q 19.578125 74.21875 30.609375 74.21875 
Q 43.265625 74.21875 49.921875 64.515625 
Q 56.59375 54.828125 56.59375 36.375 
Q 56.59375 19.140625 48.40625 8.859375 
Q 40.234375 -1.421875 26.421875 -1.421875 
Q 22.703125 -1.421875 18.890625 -0.6875 
Q 15.09375 0.046875 10.984375 1.515625 
z
M 30.609375 32.421875 
Q 37.25 32.421875 41.125 36.953125 
Q 45.015625 41.5 45.015625 49.421875 
Q 45.015625 57.28125 41.125 61.84375 
Q 37.25 66.40625 30.609375 66.40625 
Q 23.96875 66.40625 20.09375 61.84375 
Q 16.21875 57.28125 16.21875 49.421875 
Q 16.21875 41.5 20.09375 36.953125 
Q 23.96875 32.421875 30.609375 32.421875 
z
" id="DejaVuSans-57"/>
        <path d="M 50.984375 -16.609375 
L 50.984375 -23.578125 
L -0.984375 -23.578125 
L -0.984375 -16.609375 
z
" id="DejaVuSans-95"/>
        <path d="M 14.796875 27.296875 
Q 14.796875 17.390625 18.875 11.75 
Q 22.953125 6.109375 30.078125 6.109375 
Q 37.203125 6.109375 41.296875 11.75 
Q 45.40625 17.390625 45.40625 27.296875 
Q 45.40625 37.203125 41.296875 42.84375 
Q 37.203125 48.484375 30.078125 48.484375 
Q 22.953125 48.484375 18.875 42.84375 
Q 14.796875 37.203125 14.796875 27.296875 
z
M 45.40625 8.203125 
Q 42.578125 3.328125 38.25 0.953125 
Q 33.9375 -1.421875 27.875 -1.421875 
Q 17.96875 -1.421875 11.734375 6.484375 
Q 5.515625 14.40625 5.515625 27.296875 
Q 5.515625 40.1875 11.734375 48.09375 
Q 17.96875 56 27.875 56 
Q 33.9375 56 38.25 53.625 
Q 42.578125 51.265625 45.40625 46.390625 
L 45.40625 54.6875 
L 54.390625 54.6875 
L 54.390625 -20.796875 
L 45.40625 -20.796875 
z
" id="DejaVuSans-113"/>
        <path d="M 30.609375 48.390625 
Q 23.390625 48.390625 19.1875 42.75 
Q 14.984375 37.109375 14.984375 27.296875 
Q 14.984375 17.484375 19.15625 11.84375 
Q 23.34375 6.203125 30.609375 6.203125 
Q 37.796875 6.203125 41.984375 11.859375 
Q 46.1875 17.53125 46.1875 27.296875 
Q 46.1875 37.015625 41.984375 42.703125 
Q 37.796875 48.390625 30.609375 48.390625 
z
M 30.609375 56 
Q 42.328125 56 49.015625 48.375 
Q 55.71875 40.765625 55.71875 27.296875 
Q 55.71875 13.875 49.015625 6.21875 
Q 42.328125 -1.421875 30.609375 -1.421875 
Q 18.84375 -1.421875 12.171875 6.21875 
Q 5.515625 13.875 5.515625 27.296875 
Q 5.515625 40.765625 12.171875 48.375 
Q 18.84375 56 30.609375 56 
z
" id="DejaVuSans-111"/>
        <path d="M 9.078125 75.984375 
L 18.109375 75.984375 
L 18.109375 31.109375 
L 44.921875 54.6875 
L 56.390625 54.6875 
L 27.390625 29.109375 
L 57.625 0 
L 45.90625 0 
L 18.109375 26.703125 
L 18.109375 0 
L 9.078125 0 
z
" id="DejaVuSans-107"/>
       </defs>
       <use xlink:href="#DejaVuSans-100"/>
       <use x="63.476562" xlink:href="#DejaVuSans-97"/>
       <use x="124.755859" xlink:href="#DejaVuSans-118"/>
       <use x="183.935547" xlink:href="#DejaVuSans-105"/>
       <use x="211.71875" xlink:href="#DejaVuSans-101"/>
       <use x="273.242188" xlink:href="#DejaVuSans-115"/>
       <use x="325.341797" xlink:href="#DejaVuSans-50"/>
       <use x="388.964844" xlink:href="#DejaVuSans-48"/>
       <use x="452.587891" xlink:href="#DejaVuSans-48"/>
       <use x="516.210938" xlink:href="#DejaVuSans-57"/>
       <use x="579.833984" xlink:href="#DejaVuSans-47"/>
       <use x="613.525391" xlink:href="#DejaVuSans-109"/>
       <use x="710.9375" xlink:href="#DejaVuSans-105"/>
       <use x="738.720703" xlink:href="#DejaVuSans-114"/>
       <use x="777.583984" xlink:href="#DejaVuSans-101"/>
       <use x="837.357422" xlink:href="#DejaVuSans-120"/>
       <use x="896.537109" xlink:href="#DejaVuSans-95"/>
       <use x="946.537109" xlink:href="#DejaVuSans-113"/>
       <use x="1010.013672" xlink:href="#DejaVuSans-109"/>
       <use x="1107.425781" xlink:href="#DejaVuSans-95"/>
       <use x="1157.425781" xlink:href="#DejaVuSans-116"/>
       <use x="1196.634766" xlink:href="#DejaVuSans-101"/>
       <use x="1258.158203" xlink:href="#DejaVuSans-109"/>
       <use x="1355.570312" xlink:href="#DejaVuSans-112"/>
       <use x="1419.046875" xlink:href="#DejaVuSans-111"/>
       <use x="1480.228516" xlink:href="#DejaVuSans-116"/>
       <use x="1519.4375" xlink:href="#DejaVuSans-114"/>
       <use x="1560.550781" xlink:href="#DejaVuSans-97"/>
       <use x="1621.830078" xlink:href="#DejaVuSans-99"/>
       <use x="1676.810547" xlink:href="#DejaVuSans-107"/>
       <use x="1731.095703" xlink:href="#DejaVuSans-101"/>
       <use x="1792.619141" xlink:href="#DejaVuSans-114"/>
      </g>
     </g>
    </g>
    <g id="ytick_9">
     <g id="line2d_31">
      <path clip-path="url(#p74e641a4ea)" d="M 226.746875 45.531772 
L 617.346875 45.531772 
" style="fill:none;stroke:#b0b0b0;stroke-linecap:square;stroke-width:0.8;"/>
     </g>
     <g id="line2d_32">
      <g>
       <use style="stroke:#000000;stroke-width:0.8;" x="226.746875" xlink:href="#m818f767d52" y="45.531772"/>
      </g>
     </g>
     <g id="text_17">
      <!-- boeck2015/tempodetector2016_default -->
      <g transform="translate(20.878125 49.330991)scale(0.1 -0.1)">
       <defs>
        <path d="M 33.015625 40.375 
Q 26.375 40.375 22.484375 35.828125 
Q 18.609375 31.296875 18.609375 23.390625 
Q 18.609375 15.53125 22.484375 10.953125 
Q 26.375 6.390625 33.015625 6.390625 
Q 39.65625 6.390625 43.53125 10.953125 
Q 47.40625 15.53125 47.40625 23.390625 
Q 47.40625 31.296875 43.53125 35.828125 
Q 39.65625 40.375 33.015625 40.375 
z
M 52.59375 71.296875 
L 52.59375 62.3125 
Q 48.875 64.0625 45.09375 64.984375 
Q 41.3125 65.921875 37.59375 65.921875 
Q 27.828125 65.921875 22.671875 59.328125 
Q 17.53125 52.734375 16.796875 39.40625 
Q 19.671875 43.65625 24.015625 45.921875 
Q 28.375 48.1875 33.59375 48.1875 
Q 44.578125 48.1875 50.953125 41.515625 
Q 57.328125 34.859375 57.328125 23.390625 
Q 57.328125 12.15625 50.6875 5.359375 
Q 44.046875 -1.421875 33.015625 -1.421875 
Q 20.359375 -1.421875 13.671875 8.265625 
Q 6.984375 17.96875 6.984375 36.375 
Q 6.984375 53.65625 15.1875 63.9375 
Q 23.390625 74.21875 37.203125 74.21875 
Q 40.921875 74.21875 44.703125 73.484375 
Q 48.484375 72.75 52.59375 71.296875 
z
" id="DejaVuSans-54"/>
       </defs>
       <use xlink:href="#DejaVuSans-98"/>
       <use x="63.476562" xlink:href="#DejaVuSans-111"/>
       <use x="124.658203" xlink:href="#DejaVuSans-101"/>
       <use x="186.181641" xlink:href="#DejaVuSans-99"/>
       <use x="241.162109" xlink:href="#DejaVuSans-107"/>
       <use x="299.072266" xlink:href="#DejaVuSans-50"/>
       <use x="362.695312" xlink:href="#DejaVuSans-48"/>
       <use x="426.318359" xlink:href="#DejaVuSans-49"/>
       <use x="489.941406" xlink:href="#DejaVuSans-53"/>
       <use x="553.564453" xlink:href="#DejaVuSans-47"/>
       <use x="587.255859" xlink:href="#DejaVuSans-116"/>
       <use x="626.464844" xlink:href="#DejaVuSans-101"/>
       <use x="687.988281" xlink:href="#DejaVuSans-109"/>
       <use x="785.400391" xlink:href="#DejaVuSans-112"/>
       <use x="848.876953" xlink:href="#DejaVuSans-111"/>
       <use x="910.058594" xlink:href="#DejaVuSans-100"/>
       <use x="973.535156" xlink:href="#DejaVuSans-101"/>
       <use x="1035.058594" xlink:href="#DejaVuSans-116"/>
       <use x="1074.267578" xlink:href="#DejaVuSans-101"/>
       <use x="1135.791016" xlink:href="#DejaVuSans-99"/>
       <use x="1190.771484" xlink:href="#DejaVuSans-116"/>
       <use x="1229.980469" xlink:href="#DejaVuSans-111"/>
       <use x="1291.162109" xlink:href="#DejaVuSans-114"/>
       <use x="1332.275391" xlink:href="#DejaVuSans-50"/>
       <use x="1395.898438" xlink:href="#DejaVuSans-48"/>
       <use x="1459.521484" xlink:href="#DejaVuSans-49"/>
       <use x="1523.144531" xlink:href="#DejaVuSans-54"/>
       <use x="1586.767578" xlink:href="#DejaVuSans-95"/>
       <use x="1636.767578" xlink:href="#DejaVuSans-100"/>
       <use x="1700.244141" xlink:href="#DejaVuSans-101"/>
       <use x="1761.767578" xlink:href="#DejaVuSans-102"/>
       <use x="1796.972656" xlink:href="#DejaVuSans-97"/>
       <use x="1858.251953" xlink:href="#DejaVuSans-117"/>
       <use x="1921.630859" xlink:href="#DejaVuSans-108"/>
       <use x="1949.414062" xlink:href="#DejaVuSans-116"/>
      </g>
     </g>
    </g>
    <g id="text_18">
     <!-- Estimator -->
     <g transform="translate(14.798437 207.216781)rotate(-90)scale(0.1 -0.1)">
      <use xlink:href="#DejaVuSans-69"/>
      <use x="63.183594" xlink:href="#DejaVuSans-115"/>
      <use x="115.283203" xlink:href="#DejaVuSans-116"/>
      <use x="154.492188" xlink:href="#DejaVuSans-105"/>
      <use x="182.275391" xlink:href="#DejaVuSans-109"/>
      <use x="279.6875" xlink:href="#DejaVuSans-97"/>
      <use x="340.966797" xlink:href="#DejaVuSans-116"/>
      <use x="380.175781" xlink:href="#DejaVuSans-111"/>
      <use x="441.357422" xlink:href="#DejaVuSans-114"/>
     </g>
    </g>
   </g>
   <g id="PolyCollection_1">
    <path clip-path="url(#p74e641a4ea)" d="M 226.746875 312.094329 
L 226.746875 329.218627 
L 229.383413 329.254125 
L 232.019952 329.170811 
L 234.65649 328.973442 
L 237.293028 328.671513 
L 239.929566 328.27855 
L 242.566105 327.81115 
L 245.202643 327.287851 
L 247.839181 326.727958 
L 250.475719 326.150394 
L 253.112258 325.572707 
L 255.748796 325.01027 
L 258.385334 324.475728 
L 261.021872 323.978716 
L 263.658411 323.525809 
L 266.294949 323.120698 
L 268.931487 322.764524 
L 271.568025 322.456326 
L 274.204564 322.193536 
L 276.841102 321.97249 
L 279.47764 321.788897 
L 282.114178 321.638247 
L 284.750717 321.516149 
L 287.387255 321.418569 
L 290.023793 321.342007 
L 292.660331 321.283583 
L 295.29687 321.241074 
L 297.933408 321.212889 
L 300.569946 321.198014 
L 303.206485 321.195924 
L 305.843023 321.206469 
L 308.479561 321.229756 
L 311.116099 321.266009 
L 313.752638 321.31543 
L 316.389176 321.378062 
L 319.025714 321.453656 
L 321.662252 321.541554 
L 324.298791 321.64059 
L 326.935329 321.74903 
L 329.571867 321.86454 
L 332.208405 321.984209 
L 334.844944 322.104615 
L 337.481482 322.221941 
L 340.11802 322.332139 
L 342.754558 322.431125 
L 345.391097 322.515001 
L 348.027635 322.58028 
L 350.664173 322.624099 
L 353.300711 322.644402 
L 355.93725 322.640073 
L 358.573788 322.611004 
L 361.210326 322.558104 
L 363.846864 322.483234 
L 366.483403 322.389078 
L 369.119941 322.278964 
L 371.756479 322.156657 
L 374.393017 322.026126 
L 377.029556 321.891324 
L 379.666094 321.755985 
L 382.302632 321.623456 
L 384.939171 321.496571 
L 387.575709 321.377579 
L 390.212247 321.268119 
L 392.848785 321.169227 
L 395.485324 321.081395 
L 398.121862 321.004637 
L 400.7584 320.938586 
L 403.394938 320.882584 
L 406.031477 320.835772 
L 408.668015 320.797182 
L 411.304553 320.765796 
L 413.941091 320.740615 
L 416.57763 320.720693 
L 419.214168 320.705167 
L 421.850706 320.693278 
L 424.487244 320.684375 
L 427.123783 320.677916 
L 429.760321 320.673464 
L 432.396859 320.670679 
L 435.033397 320.669302 
L 437.669936 320.669151 
L 440.306474 320.670098 
L 442.943012 320.672062 
L 445.57955 320.674994 
L 448.216089 320.678858 
L 450.852627 320.683625 
L 453.489165 320.689254 
L 456.125704 320.695682 
L 458.762242 320.702817 
L 461.39878 320.71053 
L 464.035318 320.718651 
L 466.671857 320.726971 
L 469.308395 320.735247 
L 471.944933 320.743209 
L 474.581471 320.750576 
L 477.21801 320.757069 
L 479.854548 320.762429 
L 482.491086 320.766432 
L 485.127624 320.768906 
L 487.764163 320.769742 
L 487.764163 320.543213 
L 487.764163 320.543213 
L 485.127624 320.54405 
L 482.491086 320.546524 
L 479.854548 320.550527 
L 477.21801 320.555886 
L 474.581471 320.56238 
L 471.944933 320.569747 
L 469.308395 320.577709 
L 466.671857 320.585985 
L 464.035318 320.594305 
L 461.39878 320.602426 
L 458.762242 320.610139 
L 456.125704 320.617274 
L 453.489165 320.623702 
L 450.852627 320.629331 
L 448.216089 320.634098 
L 445.57955 320.637962 
L 442.943012 320.640894 
L 440.306474 320.642858 
L 437.669936 320.643805 
L 435.033397 320.643654 
L 432.396859 320.642277 
L 429.760321 320.639492 
L 427.123783 320.63504 
L 424.487244 320.628581 
L 421.850706 320.619678 
L 419.214168 320.607789 
L 416.57763 320.592263 
L 413.941091 320.572341 
L 411.304553 320.54716 
L 408.668015 320.515774 
L 406.031477 320.477183 
L 403.394938 320.430372 
L 400.7584 320.374369 
L 398.121862 320.308319 
L 395.485324 320.231561 
L 392.848785 320.143729 
L 390.212247 320.044837 
L 387.575709 319.935377 
L 384.939171 319.816385 
L 382.302632 319.6895 
L 379.666094 319.55697 
L 377.029556 319.421632 
L 374.393017 319.28683 
L 371.756479 319.156299 
L 369.119941 319.033992 
L 366.483403 318.923878 
L 363.846864 318.829721 
L 361.210326 318.754852 
L 358.573788 318.701952 
L 355.93725 318.672883 
L 353.300711 318.668554 
L 350.664173 318.688857 
L 348.027635 318.732676 
L 345.391097 318.797955 
L 342.754558 318.88183 
L 340.11802 318.980816 
L 337.481482 319.091014 
L 334.844944 319.208341 
L 332.208405 319.328747 
L 329.571867 319.448416 
L 326.935329 319.563926 
L 324.298791 319.672366 
L 321.662252 319.771402 
L 319.025714 319.8593 
L 316.389176 319.934894 
L 313.752638 319.997526 
L 311.116099 320.046947 
L 308.479561 320.0832 
L 305.843023 320.106487 
L 303.206485 320.117032 
L 300.569946 320.114942 
L 297.933408 320.100067 
L 295.29687 320.071882 
L 292.660331 320.029372 
L 290.023793 319.970949 
L 287.387255 319.894387 
L 284.750717 319.796807 
L 282.114178 319.674708 
L 279.47764 319.524059 
L 276.841102 319.340466 
L 274.204564 319.11942 
L 271.568025 318.85663 
L 268.931487 318.548432 
L 266.294949 318.192258 
L 263.658411 317.787147 
L 261.021872 317.33424 
L 258.385334 316.837228 
L 255.748796 316.302686 
L 253.112258 315.740249 
L 250.475719 315.162562 
L 247.839181 314.584998 
L 245.202643 314.025104 
L 242.566105 313.501806 
L 239.929566 313.034406 
L 237.293028 312.641443 
L 234.65649 312.339514 
L 232.019952 312.142145 
L 229.383413 312.058831 
L 226.746875 312.094329 
z
" style="fill:#ff0000;fill-opacity:0.75;"/>
   </g>
   <g id="PolyCollection_2">
    <path clip-path="url(#p74e641a4ea)" d="M 226.746875 277.716628 
L 226.746875 294.815152 
L 228.614729 294.863537 
L 230.482583 294.836788 
L 232.350438 294.736131 
L 234.218292 294.564764 
L 236.086146 294.3277 
L 237.954 294.031538 
L 239.821854 293.684166 
L 241.689709 293.294426 
L 243.557563 292.871741 
L 245.425417 292.425753 
L 247.293271 291.965961 
L 249.161126 291.501405 
L 251.02898 291.040387 
L 252.896834 290.590257 
L 254.764688 290.157259 
L 256.632542 289.74644 
L 258.500397 289.361624 
L 260.368251 289.005442 
L 262.236105 288.67941 
L 264.103959 288.384044 
L 265.971813 288.118999 
L 267.839668 287.883227 
L 269.707522 287.67514 
L 271.575376 287.492763 
L 273.44323 287.333885 
L 275.311085 287.196186 
L 277.178939 287.077347 
L 279.046793 286.975135 
L 280.914647 286.88747 
L 282.782501 286.812468 
L 284.650356 286.74847 
L 286.51821 286.694045 
L 288.386064 286.647993 
L 290.253918 286.60933 
L 292.121772 286.577272 
L 293.989627 286.551208 
L 295.857481 286.530681 
L 297.725335 286.515362 
L 299.593189 286.505033 
L 301.461044 286.499563 
L 303.328898 286.498894 
L 305.196752 286.503028 
L 307.064606 286.51201 
L 308.93246 286.525926 
L 310.800315 286.544879 
L 312.668169 286.56899 
L 314.536023 286.598373 
L 316.403877 286.633128 
L 318.271731 286.673321 
L 320.139586 286.718962 
L 322.00744 286.769985 
L 323.875294 286.826228 
L 325.743148 286.88741 
L 327.611003 286.953113 
L 329.478857 287.022764 
L 331.346711 287.095628 
L 333.214565 287.170802 
L 335.082419 287.247223 
L 336.950274 287.32368 
L 338.818128 287.398838 
L 340.685982 287.471272 
L 342.553836 287.539508 
L 344.42169 287.60207 
L 346.289545 287.657532 
L 348.157399 287.704575 
L 350.025253 287.742035 
L 351.893107 287.768955 
L 353.760962 287.784628 
L 355.628816 287.788623 
L 357.49667 287.780811 
L 359.364524 287.76137 
L 361.232378 287.730777 
L 363.100233 287.689791 
L 364.968087 287.63942 
L 366.835941 287.580878 
L 368.703795 287.51554 
L 370.571649 287.444884 
L 372.439504 287.370437 
L 374.307358 287.293719 
L 376.175212 287.216193 
L 378.043066 287.13922 
L 379.910921 287.064022 
L 381.778775 286.991655 
L 383.646629 286.922985 
L 385.514483 286.858687 
L 387.382337 286.799236 
L 389.250192 286.744922 
L 391.118046 286.695856 
L 392.9859 286.651996 
L 394.853754 286.613165 
L 396.721608 286.579078 
L 398.589463 286.549365 
L 400.457317 286.523601 
L 402.325171 286.501323 
L 404.193025 286.482058 
L 406.06088 286.465337 
L 407.928734 286.450716 
L 409.796588 286.437782 
L 411.664442 286.42617 
L 411.664442 286.105609 
L 411.664442 286.105609 
L 409.796588 286.093997 
L 407.928734 286.081064 
L 406.06088 286.066442 
L 404.193025 286.049722 
L 402.325171 286.030457 
L 400.457317 286.008179 
L 398.589463 285.982414 
L 396.721608 285.952702 
L 394.853754 285.918615 
L 392.9859 285.879784 
L 391.118046 285.835924 
L 389.250192 285.786858 
L 387.382337 285.732543 
L 385.514483 285.673093 
L 383.646629 285.608794 
L 381.778775 285.540125 
L 379.910921 285.467757 
L 378.043066 285.39256 
L 376.175212 285.315587 
L 374.307358 285.238061 
L 372.439504 285.161342 
L 370.571649 285.086895 
L 368.703795 285.016239 
L 366.835941 284.950901 
L 364.968087 284.89236 
L 363.100233 284.841988 
L 361.232378 284.801002 
L 359.364524 284.770409 
L 357.49667 284.750968 
L 355.628816 284.743157 
L 353.760962 284.747152 
L 351.893107 284.762824 
L 350.025253 284.789745 
L 348.157399 284.827205 
L 346.289545 284.874247 
L 344.42169 284.92971 
L 342.553836 284.992272 
L 340.685982 285.060508 
L 338.818128 285.132942 
L 336.950274 285.2081 
L 335.082419 285.284556 
L 333.214565 285.360977 
L 331.346711 285.436151 
L 329.478857 285.509015 
L 327.611003 285.578666 
L 325.743148 285.644369 
L 323.875294 285.705552 
L 322.00744 285.761795 
L 320.139586 285.812818 
L 318.271731 285.858458 
L 316.403877 285.898651 
L 314.536023 285.933407 
L 312.668169 285.96279 
L 310.800315 285.9869 
L 308.93246 286.005854 
L 307.064606 286.019769 
L 305.196752 286.028752 
L 303.328898 286.032885 
L 301.461044 286.032216 
L 299.593189 286.026746 
L 297.725335 286.016417 
L 295.857481 286.001099 
L 293.989627 285.980572 
L 292.121772 285.954507 
L 290.253918 285.922449 
L 288.386064 285.883787 
L 286.51821 285.837735 
L 284.650356 285.78331 
L 282.782501 285.719311 
L 280.914647 285.64431 
L 279.046793 285.556645 
L 277.178939 285.454432 
L 275.311085 285.335593 
L 273.44323 285.197895 
L 271.575376 285.039017 
L 269.707522 284.85664 
L 267.839668 284.648552 
L 265.971813 284.41278 
L 264.103959 284.147735 
L 262.236105 283.852369 
L 260.368251 283.526338 
L 258.500397 283.170156 
L 256.632542 282.78534 
L 254.764688 282.37452 
L 252.896834 281.941522 
L 251.02898 281.491393 
L 249.161126 281.030375 
L 247.293271 280.565818 
L 245.425417 280.106026 
L 243.557563 279.660038 
L 241.689709 279.237354 
L 239.821854 278.847613 
L 237.954 278.500242 
L 236.086146 278.204079 
L 234.218292 277.967015 
L 232.350438 277.795648 
L 230.482583 277.694992 
L 228.614729 277.668243 
L 226.746875 277.716628 
z
" style="fill:#ff0000;fill-opacity:0.75;"/>
   </g>
   <g id="PolyCollection_3">
    <path clip-path="url(#p74e641a4ea)" d="M 226.746875 243.304874 
L 226.746875 260.445729 
L 229.414518 260.472949 
L 232.082162 260.396593 
L 234.749805 260.220642 
L 237.417448 259.952702 
L 240.085091 259.603507 
L 242.752735 259.186235 
L 245.420378 258.715708 
L 248.088021 258.20754 
L 250.755664 257.677303 
L 253.423308 257.139764 
L 256.090951 256.608256 
L 258.758594 256.094207 
L 261.426237 255.606837 
L 264.093881 255.153047 
L 266.761524 254.737455 
L 269.429167 254.362576 
L 272.09681 254.029099 
L 274.764454 253.736223 
L 277.432097 253.482029 
L 280.09974 253.263842 
L 282.767383 253.078565 
L 285.435027 252.922965 
L 288.10267 252.793903 
L 290.770313 252.688498 
L 293.437956 252.604239 
L 296.1056 252.539033 
L 298.773243 252.491218 
L 301.440886 252.459528 
L 304.10853 252.443037 
L 306.776173 252.44108 
L 309.443816 252.453159 
L 312.111459 252.478846 
L 314.779103 252.517679 
L 317.446746 252.569066 
L 320.114389 252.632195 
L 322.782032 252.705963 
L 325.449676 252.788916 
L 328.117319 252.879224 
L 330.784962 252.974676 
L 333.452605 253.072709 
L 336.120249 253.170472 
L 338.787892 253.264918 
L 341.455535 253.352921 
L 344.123178 253.431414 
L 346.790822 253.497534 
L 349.458465 253.548771 
L 352.126108 253.583101 
L 354.793751 253.599092 
L 357.461395 253.59599 
L 360.129038 253.573752 
L 362.796681 253.533048 
L 365.464325 253.475212 
L 368.131968 253.402169 
L 370.799611 253.316315 
L 373.467254 253.220386 
L 376.134898 253.117312 
L 378.802541 253.010074 
L 381.470184 252.901561 
L 384.137827 252.794459 
L 386.805471 252.691148 
L 389.473114 252.593635 
L 392.140757 252.503513 
L 394.8084 252.421949 
L 397.476044 252.349683 
L 400.143687 252.287064 
L 402.81133 252.234089 
L 405.478973 252.19045 
L 408.146617 252.155594 
L 410.81426 252.128776 
L 413.481903 252.109118 
L 416.149546 252.095653 
L 418.81719 252.087376 
L 421.484833 252.083279 
L 424.152476 252.08239 
L 426.820119 252.083795 
L 429.487763 252.086663 
L 432.155406 252.090263 
L 434.823049 252.093978 
L 437.490693 252.097308 
L 440.158336 252.099875 
L 442.825979 252.101422 
L 445.493622 252.101803 
L 448.161266 252.100976 
L 450.828909 252.098984 
L 453.496552 252.095941 
L 456.164195 252.092009 
L 458.831839 252.087379 
L 461.499482 252.082248 
L 464.167125 252.076804 
L 466.834768 252.071206 
L 469.502412 252.065574 
L 472.170055 252.059984 
L 474.837698 252.05446 
L 477.505341 252.048984 
L 480.172985 252.043498 
L 482.840628 252.037914 
L 485.508271 252.032134 
L 488.175914 252.026056 
L 490.843558 252.019591 
L 490.843558 251.731012 
L 490.843558 251.731012 
L 488.175914 251.724547 
L 485.508271 251.718469 
L 482.840628 251.712689 
L 480.172985 251.707105 
L 477.505341 251.701619 
L 474.837698 251.696143 
L 472.170055 251.690619 
L 469.502412 251.685029 
L 466.834768 251.679397 
L 464.167125 251.673799 
L 461.499482 251.668355 
L 458.831839 251.663224 
L 456.164195 251.658594 
L 453.496552 251.654662 
L 450.828909 251.651619 
L 448.161266 251.649627 
L 445.493622 251.6488 
L 442.825979 251.649181 
L 440.158336 251.650728 
L 437.490693 251.653295 
L 434.823049 251.656625 
L 432.155406 251.660339 
L 429.487763 251.66394 
L 426.820119 251.666808 
L 424.152476 251.668213 
L 421.484833 251.667324 
L 418.81719 251.663227 
L 416.149546 251.65495 
L 413.481903 251.641485 
L 410.81426 251.621826 
L 408.146617 251.595009 
L 405.478973 251.560153 
L 402.81133 251.516514 
L 400.143687 251.463539 
L 397.476044 251.40092 
L 394.8084 251.328654 
L 392.140757 251.247089 
L 389.473114 251.156968 
L 386.805471 251.059455 
L 384.137827 250.956144 
L 381.470184 250.849041 
L 378.802541 250.740529 
L 376.134898 250.633291 
L 373.467254 250.530217 
L 370.799611 250.434288 
L 368.131968 250.348434 
L 365.464325 250.275391 
L 362.796681 250.217555 
L 360.129038 250.176851 
L 357.461395 250.154613 
L 354.793751 250.151511 
L 352.126108 250.167502 
L 349.458465 250.201832 
L 346.790822 250.253069 
L 344.123178 250.319189 
L 341.455535 250.397682 
L 338.787892 250.485685 
L 336.120249 250.580131 
L 333.452605 250.677894 
L 330.784962 250.775927 
L 328.117319 250.871379 
L 325.449676 250.961687 
L 322.782032 251.04464 
L 320.114389 251.118408 
L 317.446746 251.181537 
L 314.779103 251.232924 
L 312.111459 251.271757 
L 309.443816 251.297444 
L 306.776173 251.309523 
L 304.10853 251.307566 
L 301.440886 251.291075 
L 298.773243 251.259385 
L 296.1056 251.21157 
L 293.437956 251.146364 
L 290.770313 251.062104 
L 288.10267 250.9567 
L 285.435027 250.827638 
L 282.767383 250.672038 
L 280.09974 250.486761 
L 277.432097 250.268574 
L 274.764454 250.01438 
L 272.09681 249.721504 
L 269.429167 249.388027 
L 266.761524 249.013148 
L 264.093881 248.597556 
L 261.426237 248.143766 
L 258.758594 247.656396 
L 256.090951 247.142347 
L 253.423308 246.610839 
L 250.755664 246.0733 
L 248.088021 245.543062 
L 245.420378 245.034895 
L 242.752735 244.564368 
L 240.085091 244.147096 
L 237.417448 243.797901 
L 234.749805 243.529961 
L 232.082162 243.354009 
L 229.414518 243.277654 
L 226.746875 243.304874 
z
" style="fill:#ff0000;fill-opacity:0.75;"/>
   </g>
   <g id="PolyCollection_4">
    <path clip-path="url(#p74e641a4ea)" d="M 226.747744 208.895649 
L 226.747744 226.073777 
L 229.410767 226.08236 
L 232.07379 225.985377 
L 234.736813 225.787298 
L 237.399835 225.496357 
L 240.062858 225.12404 
L 242.725881 224.684383 
L 245.388904 224.193133 
L 248.051927 223.666864 
L 250.71495 223.122092 
L 253.377973 222.57446 
L 256.040996 222.038063 
L 258.704019 221.524922 
L 261.367042 221.044653 
L 264.030065 220.604323 
L 266.693088 220.208475 
L 269.35611 219.859309 
L 272.019133 219.556978 
L 274.682156 219.299956 
L 277.345179 219.085448 
L 280.008202 218.909804 
L 282.671225 218.768905 
L 285.334248 218.658499 
L 287.997271 218.574479 
L 290.660294 218.513085 
L 293.323317 218.471047 
L 295.98634 218.445652 
L 298.649363 218.434759 
L 301.312386 218.436769 
L 303.975408 218.450552 
L 306.638431 218.475353 
L 309.301454 218.510676 
L 311.964477 218.556165 
L 314.6275 218.611475 
L 317.290523 218.676159 
L 319.953546 218.74956 
L 322.616569 218.830722 
L 325.279592 218.918325 
L 327.942615 219.010652 
L 330.605638 219.105581 
L 333.268661 219.200615 
L 335.931684 219.292946 
L 338.594706 219.379556 
L 341.257729 219.457333 
L 343.920752 219.523226 
L 346.583775 219.574393 
L 349.246798 219.60836 
L 351.909821 219.623168 
L 354.572844 219.617486 
L 357.235867 219.590704 
L 359.89889 219.542977 
L 362.561913 219.475221 
L 365.224936 219.389072 
L 367.887959 219.286792 
L 370.550982 219.171152 
L 373.214004 219.045273 
L 375.877027 218.912473 
L 378.54005 218.77609 
L 381.203073 218.639337 
L 383.866096 218.505159 
L 386.529119 218.376127 
L 389.192142 218.254364 
L 391.855165 218.141502 
L 394.518188 218.038673 
L 397.181211 217.94653 
L 399.844234 217.865292 
L 402.507257 217.794805 
L 405.17028 217.734614 
L 407.833302 217.684045 
L 410.496325 217.64227 
L 413.159348 217.608386 
L 415.822371 217.581467 
L 418.485394 217.560617 
L 421.148417 217.545004 
L 423.81144 217.533883 
L 426.474463 217.526612 
L 429.137486 217.522653 
L 431.800509 217.521567 
L 434.463532 217.523006 
L 437.126555 217.526694 
L 439.789577 217.532411 
L 442.4526 217.539976 
L 445.115623 217.54922 
L 447.778646 217.559977 
L 450.441669 217.57206 
L 453.104692 217.585254 
L 455.767715 217.599305 
L 458.430738 217.613916 
L 461.093761 217.628749 
L 463.756784 217.643428 
L 466.419807 217.657555 
L 469.08283 217.670719 
L 471.745853 217.682514 
L 474.408875 217.692562 
L 477.071898 217.700527 
L 479.734921 217.706135 
L 482.397944 217.70919 
L 485.060967 217.709583 
L 487.72399 217.707299 
L 490.387013 217.70242 
L 490.387013 217.267006 
L 490.387013 217.267006 
L 487.72399 217.262127 
L 485.060967 217.259844 
L 482.397944 217.260237 
L 479.734921 217.263292 
L 477.071898 217.2689 
L 474.408875 217.276864 
L 471.745853 217.286912 
L 469.08283 217.298708 
L 466.419807 217.311871 
L 463.756784 217.325998 
L 461.093761 217.340678 
L 458.430738 217.35551 
L 455.767715 217.370121 
L 453.104692 217.384172 
L 450.441669 217.397366 
L 447.778646 217.40945 
L 445.115623 217.420206 
L 442.4526 217.429451 
L 439.789577 217.437015 
L 437.126555 217.442733 
L 434.463532 217.446421 
L 431.800509 217.447859 
L 429.137486 217.446773 
L 426.474463 217.442814 
L 423.81144 217.435543 
L 421.148417 217.424423 
L 418.485394 217.40881 
L 415.822371 217.38796 
L 413.159348 217.361041 
L 410.496325 217.327156 
L 407.833302 217.285382 
L 405.17028 217.234812 
L 402.507257 217.174622 
L 399.844234 217.104135 
L 397.181211 217.022896 
L 394.518188 216.930753 
L 391.855165 216.827924 
L 389.192142 216.715062 
L 386.529119 216.5933 
L 383.866096 216.464268 
L 381.203073 216.33009 
L 378.54005 216.193336 
L 375.877027 216.056954 
L 373.214004 215.924153 
L 370.550982 215.798275 
L 367.887959 215.682634 
L 365.224936 215.580355 
L 362.561913 215.494205 
L 359.89889 215.42645 
L 357.235867 215.378722 
L 354.572844 215.351941 
L 351.909821 215.346259 
L 349.246798 215.361066 
L 346.583775 215.395034 
L 343.920752 215.4462 
L 341.257729 215.512093 
L 338.594706 215.589871 
L 335.931684 215.67648 
L 333.268661 215.768812 
L 330.605638 215.863845 
L 327.942615 215.958774 
L 325.279592 216.051101 
L 322.616569 216.138705 
L 319.953546 216.219866 
L 317.290523 216.293267 
L 314.6275 216.357951 
L 311.964477 216.413262 
L 309.301454 216.45875 
L 306.638431 216.494074 
L 303.975408 216.518875 
L 301.312386 216.532658 
L 298.649363 216.534667 
L 295.98634 216.523775 
L 293.323317 216.498379 
L 290.660294 216.456341 
L 287.997271 216.394948 
L 285.334248 216.310927 
L 282.671225 216.200521 
L 280.008202 216.059622 
L 277.345179 215.883979 
L 274.682156 215.669471 
L 272.019133 215.412449 
L 269.35611 215.110117 
L 266.693088 214.760952 
L 264.030065 214.365104 
L 261.367042 213.924773 
L 258.704019 213.444505 
L 256.040996 212.931363 
L 253.377973 212.394966 
L 250.71495 211.847335 
L 248.051927 211.302562 
L 245.388904 210.776294 
L 242.725881 210.285044 
L 240.062858 209.845386 
L 237.399835 209.47307 
L 234.736813 209.182129 
L 232.07379 208.984049 
L 229.410767 208.887066 
L 226.747744 208.895649 
z
" style="fill:#ff0000;fill-opacity:0.75;"/>
   </g>
   <g id="PolyCollection_5">
    <path clip-path="url(#p74e641a4ea)" d="M 226.747744 174.526694 
L 226.747744 191.661556 
L 229.410767 191.691772 
L 232.07379 191.611353 
L 234.736813 191.424706 
L 237.399835 191.140407 
L 240.062858 190.770613 
L 242.725881 190.330254 
L 245.388904 189.836087 
L 248.051927 189.305682 
L 250.71495 188.756427 
L 253.377973 188.204639 
L 256.040996 187.664825 
L 258.704019 187.149144 
L 261.367042 186.667086 
L 264.030065 186.225365 
L 266.693088 185.828009 
L 269.35611 185.476606 
L 272.019133 185.170664 
L 274.682156 184.908051 
L 277.345179 184.685451 
L 280.008202 184.498813 
L 282.671225 184.343762 
L 285.334248 184.215939 
L 287.997271 184.111276 
L 290.660294 184.026192 
L 293.323317 183.957713 
L 295.98634 183.903527 
L 298.649363 183.861983 
L 301.312386 183.832043 
L 303.975408 183.813196 
L 306.638431 183.805349 
L 309.301454 183.808695 
L 311.964477 183.823575 
L 314.6275 183.850334 
L 317.290523 183.889173 
L 319.953546 183.940027 
L 322.616569 184.00244 
L 325.279592 184.075481 
L 327.942615 184.157683 
L 330.605638 184.247025 
L 333.268661 184.340953 
L 335.931684 184.43645 
L 338.594706 184.530142 
L 341.257729 184.618453 
L 343.920752 184.697778 
L 346.583775 184.764677 
L 349.246798 184.816073 
L 351.909821 184.84943 
L 354.572844 184.862909 
L 357.235867 184.855478 
L 359.89889 184.826973 
L 362.561913 184.778097 
L 365.224936 184.710373 
L 367.887959 184.626033 
L 370.550982 184.527877 
L 373.214004 184.419095 
L 375.877027 184.303081 
L 378.54005 184.183242 
L 381.203073 184.062827 
L 383.866096 183.94478 
L 386.529119 183.831629 
L 389.192142 183.725413 
L 391.855165 183.627648 
L 394.518188 183.539328 
L 397.181211 183.460963 
L 399.844234 183.392634 
L 402.507257 183.334068 
L 405.17028 183.284717 
L 407.833302 183.243843 
L 410.496325 183.210592 
L 413.159348 183.184068 
L 415.822371 183.163382 
L 418.485394 183.1477 
L 421.148417 183.136272 
L 423.81144 183.128451 
L 426.474463 183.123696 
L 429.137486 183.121577 
L 431.800509 183.121761 
L 434.463532 183.124002 
L 437.126555 183.12812 
L 439.789577 183.133986 
L 442.4526 183.141496 
L 445.115623 183.150558 
L 447.778646 183.161064 
L 450.441669 183.172882 
L 453.104692 183.185838 
L 455.767715 183.199709 
L 458.430738 183.214218 
L 461.093761 183.229034 
L 463.756784 183.243781 
L 466.419807 183.258048 
L 469.08283 183.271405 
L 471.745853 183.283423 
L 474.408875 183.293695 
L 477.071898 183.30186 
L 479.734921 183.307621 
L 482.397944 183.310763 
L 485.060967 183.311167 
L 487.72399 183.30882 
L 490.387013 183.303808 
L 490.387013 182.884442 
L 490.387013 182.884442 
L 487.72399 182.87943 
L 485.060967 182.877083 
L 482.397944 182.877487 
L 479.734921 182.880629 
L 477.071898 182.88639 
L 474.408875 182.894555 
L 471.745853 182.904827 
L 469.08283 182.916845 
L 466.419807 182.930202 
L 463.756784 182.944469 
L 461.093761 182.959216 
L 458.430738 182.974032 
L 455.767715 182.988541 
L 453.104692 183.002412 
L 450.441669 183.015368 
L 447.778646 183.027186 
L 445.115623 183.037692 
L 442.4526 183.046754 
L 439.789577 183.054264 
L 437.126555 183.06013 
L 434.463532 183.064248 
L 431.800509 183.066489 
L 429.137486 183.066673 
L 426.474463 183.064554 
L 423.81144 183.059799 
L 421.148417 183.051978 
L 418.485394 183.04055 
L 415.822371 183.024868 
L 413.159348 183.004182 
L 410.496325 182.977658 
L 407.833302 182.944407 
L 405.17028 182.903533 
L 402.507257 182.854182 
L 399.844234 182.795616 
L 397.181211 182.727287 
L 394.518188 182.648922 
L 391.855165 182.560602 
L 389.192142 182.462837 
L 386.529119 182.356621 
L 383.866096 182.24347 
L 381.203073 182.125423 
L 378.54005 182.005008 
L 375.877027 181.885169 
L 373.214004 181.769155 
L 370.550982 181.660373 
L 367.887959 181.562217 
L 365.224936 181.477877 
L 362.561913 181.410153 
L 359.89889 181.361277 
L 357.235867 181.332772 
L 354.572844 181.325341 
L 351.909821 181.33882 
L 349.246798 181.372177 
L 346.583775 181.423573 
L 343.920752 181.490472 
L 341.257729 181.569797 
L 338.594706 181.658108 
L 335.931684 181.7518 
L 333.268661 181.847297 
L 330.605638 181.941225 
L 327.942615 182.030567 
L 325.279592 182.112769 
L 322.616569 182.18581 
L 319.953546 182.248223 
L 317.290523 182.299077 
L 314.6275 182.337916 
L 311.964477 182.364675 
L 309.301454 182.379555 
L 306.638431 182.382901 
L 303.975408 182.375054 
L 301.312386 182.356207 
L 298.649363 182.326267 
L 295.98634 182.284723 
L 293.323317 182.230537 
L 290.660294 182.162058 
L 287.997271 182.076974 
L 285.334248 181.972311 
L 282.671225 181.844488 
L 280.008202 181.689437 
L 277.345179 181.502799 
L 274.682156 181.280199 
L 272.019133 181.017586 
L 269.35611 180.711644 
L 266.693088 180.360241 
L 264.030065 179.962885 
L 261.367042 179.521164 
L 258.704019 179.039106 
L 256.040996 178.523425 
L 253.377973 177.983611 
L 250.71495 177.431823 
L 248.051927 176.882568 
L 245.388904 176.352163 
L 242.725881 175.857996 
L 240.062858 175.417637 
L 237.399835 175.047843 
L 234.736813 174.763544 
L 232.07379 174.576897 
L 229.410767 174.496478 
L 226.747744 174.526694 
z
" style="fill:#ff0000;fill-opacity:0.75;"/>
   </g>
   <g id="PolyCollection_6">
    <path clip-path="url(#p74e641a4ea)" d="M 226.747744 140.162031 
L 226.747744 157.245043 
L 228.999962 157.301184 
L 231.25218 157.265768 
L 233.504398 157.141282 
L 235.756616 156.933184 
L 238.008834 156.649578 
L 240.261052 156.300746 
L 242.513271 155.898575 
L 244.765489 155.455926 
L 247.017707 154.985995 
L 249.269925 154.501691 
L 251.522143 154.015098 
L 253.774361 153.537022 
L 256.026579 153.076662 
L 258.278797 152.641409 
L 260.531015 152.236765 
L 262.783233 151.866378 
L 265.035452 151.532171 
L 267.28767 151.234552 
L 269.539888 150.972659 
L 271.792106 150.744643 
L 274.044324 150.547952 
L 276.296542 150.379592 
L 278.54876 150.236373 
L 280.800978 150.115107 
L 283.053196 150.012771 
L 285.305415 149.926622 
L 287.557633 149.854282 
L 289.809851 149.793776 
L 292.062069 149.743549 
L 294.314287 149.702453 
L 296.566505 149.669724 
L 298.818723 149.644937 
L 301.070941 149.627957 
L 303.323159 149.618889 
L 305.575378 149.618012 
L 307.827596 149.625722 
L 310.079814 149.642464 
L 312.332032 149.668674 
L 314.58425 149.704703 
L 316.836468 149.75076 
L 319.088686 149.806842 
L 321.340904 149.872676 
L 323.593122 149.947668 
L 325.84534 150.030862 
L 328.097559 150.120911 
L 330.349777 150.216074 
L 332.601995 150.314233 
L 334.854213 150.412929 
L 337.106431 150.509432 
L 339.358649 150.600827 
L 341.610867 150.684128 
L 343.863085 150.756399 
L 346.115303 150.814894 
L 348.367522 150.857186 
L 350.61974 150.881294 
L 352.871958 150.885787 
L 355.124176 150.869871 
L 357.376394 150.833428 
L 359.628612 150.777036 
L 361.88083 150.701937 
L 364.133048 150.609977 
L 366.385266 150.503511 
L 368.637485 150.385286 
L 370.889703 150.258302 
L 373.141921 150.125672 
L 375.394139 149.990483 
L 377.646357 149.855665 
L 379.898575 149.723883 
L 382.150793 149.597451 
L 384.403011 149.478274 
L 386.655229 149.367819 
L 388.907447 149.267109 
L 391.159666 149.176746 
L 393.411884 149.096947 
L 395.664102 149.027598 
L 397.91632 148.968316 
L 400.168538 148.918513 
L 402.420756 148.877455 
L 404.672974 148.844325 
L 406.925192 148.818265 
L 409.17741 148.798423 
L 411.429629 148.783975 
L 413.681847 148.774152 
L 415.934065 148.768244 
L 418.186283 148.765608 
L 420.438501 148.765664 
L 422.690719 148.767888 
L 424.942937 148.771807 
L 427.195155 148.77699 
L 429.447373 148.783038 
L 431.699592 148.789582 
L 433.95181 148.796278 
L 436.204028 148.802808 
L 438.456246 148.808879 
L 440.708464 148.814229 
L 442.960682 148.818634 
L 445.2129 148.821909 
L 447.465118 148.823915 
L 449.717336 148.824565 
L 449.717336 148.582509 
L 449.717336 148.582509 
L 447.465118 148.583159 
L 445.2129 148.585165 
L 442.960682 148.588439 
L 440.708464 148.592844 
L 438.456246 148.598195 
L 436.204028 148.604266 
L 433.95181 148.610795 
L 431.699592 148.617491 
L 429.447373 148.624035 
L 427.195155 148.630083 
L 424.942937 148.635266 
L 422.690719 148.639185 
L 420.438501 148.64141 
L 418.186283 148.641465 
L 415.934065 148.638829 
L 413.681847 148.632921 
L 411.429629 148.623098 
L 409.17741 148.608651 
L 406.925192 148.588808 
L 404.672974 148.562749 
L 402.420756 148.529618 
L 400.168538 148.488561 
L 397.91632 148.438757 
L 395.664102 148.379476 
L 393.411884 148.310127 
L 391.159666 148.230327 
L 388.907447 148.139964 
L 386.655229 148.039255 
L 384.403011 147.9288 
L 382.150793 147.809623 
L 379.898575 147.683191 
L 377.646357 147.551408 
L 375.394139 147.41659 
L 373.141921 147.281401 
L 370.889703 147.148772 
L 368.637485 147.021787 
L 366.385266 146.903562 
L 364.133048 146.797097 
L 361.88083 146.705136 
L 359.628612 146.630037 
L 357.376394 146.573645 
L 355.124176 146.537203 
L 352.871958 146.521286 
L 350.61974 146.52578 
L 348.367522 146.549887 
L 346.115303 146.592179 
L 343.863085 146.650674 
L 341.610867 146.722946 
L 339.358649 146.806246 
L 337.106431 146.897641 
L 334.854213 146.994144 
L 332.601995 147.09284 
L 330.349777 147.190999 
L 328.097559 147.286163 
L 325.84534 147.376212 
L 323.593122 147.459405 
L 321.340904 147.534398 
L 319.088686 147.600232 
L 316.836468 147.656313 
L 314.58425 147.70237 
L 312.332032 147.7384 
L 310.079814 147.764609 
L 307.827596 147.781352 
L 305.575378 147.789061 
L 303.323159 147.788184 
L 301.070941 147.779116 
L 298.818723 147.762137 
L 296.566505 147.737349 
L 294.314287 147.70462 
L 292.062069 147.663525 
L 289.809851 147.613297 
L 287.557633 147.552791 
L 285.305415 147.480451 
L 283.053196 147.394303 
L 280.800978 147.291966 
L 278.54876 147.1707 
L 276.296542 147.027481 
L 274.044324 146.859122 
L 271.792106 146.66243 
L 269.539888 146.434415 
L 267.28767 146.172522 
L 265.035452 145.874902 
L 262.783233 145.540696 
L 260.531015 145.170308 
L 258.278797 144.765664 
L 256.026579 144.330412 
L 253.774361 143.870052 
L 251.522143 143.391975 
L 249.269925 142.905382 
L 247.017707 142.421079 
L 244.765489 141.951147 
L 242.513271 141.508499 
L 240.261052 141.106327 
L 238.008834 140.757495 
L 235.756616 140.47389 
L 233.504398 140.265791 
L 231.25218 140.141305 
L 228.999962 140.10589 
L 226.747744 140.162031 
z
" style="fill:#ff0000;fill-opacity:0.75;"/>
   </g>
   <g id="PolyCollection_7">
    <path clip-path="url(#p74e641a4ea)" d="M 226.751227 105.738022 
L 226.751227 122.887876 
L 229.476871 122.910596 
L 232.202515 122.825663 
L 234.928159 122.637526 
L 237.653803 122.354522 
L 240.379446 121.988306 
L 243.10509 121.553094 
L 245.830734 121.064774 
L 248.556378 120.539981 
L 251.282022 119.995189 
L 254.007666 119.445903 
L 256.73331 118.906002 
L 259.458954 118.387253 
L 262.184598 117.899027 
L 264.910242 117.448207 
L 267.635886 117.03926 
L 270.36153 116.674448 
L 273.087174 116.354147 
L 275.812818 116.077213 
L 278.538462 115.841379 
L 281.264106 115.64364 
L 283.98975 115.480603 
L 286.715394 115.348792 
L 289.441038 115.244883 
L 292.166682 115.165888 
L 294.892326 115.109276 
L 297.61797 115.073027 
L 300.343614 115.055656 
L 303.069258 115.056173 
L 305.794902 115.074014 
L 308.520546 115.108945 
L 311.24619 115.160924 
L 313.971834 115.229962 
L 316.697478 115.315952 
L 319.423121 115.418512 
L 322.148765 115.536825 
L 324.874409 115.669501 
L 327.600053 115.814474 
L 330.325697 115.968941 
L 333.051341 116.129364 
L 335.776985 116.291521 
L 338.502629 116.450633 
L 341.228273 116.601552 
L 343.953917 116.738987 
L 346.679561 116.857783 
L 349.405205 116.953204 
L 352.130849 117.02121 
L 354.856493 117.058708 
L 357.582137 117.063745 
L 360.307781 117.035636 
L 363.033425 116.975004 
L 365.759069 116.883743 
L 368.484713 116.764895 
L 371.210357 116.622454 
L 373.936001 116.461124 
L 376.661645 116.286044 
L 379.387289 116.102494 
L 382.112933 115.915629 
L 384.838577 115.730232 
L 387.564221 115.550522 
L 390.289865 115.380012 
L 393.015509 115.221434 
L 395.741153 115.076711 
L 398.466797 114.946991 
L 401.19244 114.832712 
L 403.918084 114.733708 
L 406.643728 114.649322 
L 409.369372 114.57853 
L 412.095016 114.520067 
L 414.82066 114.472528 
L 417.546304 114.43447 
L 420.271948 114.404483 
L 422.997592 114.38125 
L 425.723236 114.363579 
L 428.44888 114.350431 
L 431.174524 114.340924 
L 433.900168 114.334333 
L 436.625812 114.330081 
L 439.351456 114.327719 
L 442.0771 114.326914 
L 444.802744 114.327427 
L 447.528388 114.329093 
L 450.254032 114.331802 
L 452.979676 114.335478 
L 455.70532 114.340069 
L 458.430964 114.345524 
L 461.156608 114.351784 
L 463.882252 114.358771 
L 466.607896 114.366377 
L 469.33354 114.374462 
L 472.059184 114.382852 
L 474.784828 114.391338 
L 477.510472 114.399685 
L 480.236116 114.40764 
L 482.961759 114.41494 
L 485.687403 114.421331 
L 488.413047 114.426577 
L 491.138691 114.43048 
L 493.864335 114.432886 
L 496.589979 114.433698 
L 496.589979 114.192199 
L 496.589979 114.192199 
L 493.864335 114.193011 
L 491.138691 114.195417 
L 488.413047 114.19932 
L 485.687403 114.204566 
L 482.961759 114.210957 
L 480.236116 114.218257 
L 477.510472 114.226212 
L 474.784828 114.234559 
L 472.059184 114.243045 
L 469.33354 114.251435 
L 466.607896 114.25952 
L 463.882252 114.267126 
L 461.156608 114.274113 
L 458.430964 114.280373 
L 455.70532 114.285828 
L 452.979676 114.290419 
L 450.254032 114.294095 
L 447.528388 114.296804 
L 444.802744 114.29847 
L 442.0771 114.298983 
L 439.351456 114.298178 
L 436.625812 114.295816 
L 433.900168 114.291564 
L 431.174524 114.284973 
L 428.44888 114.275466 
L 425.723236 114.262318 
L 422.997592 114.244647 
L 420.271948 114.221414 
L 417.546304 114.191427 
L 414.82066 114.15337 
L 412.095016 114.105831 
L 409.369372 114.047367 
L 406.643728 113.976576 
L 403.918084 113.892189 
L 401.19244 113.793185 
L 398.466797 113.678907 
L 395.741153 113.549186 
L 393.015509 113.404463 
L 390.289865 113.245885 
L 387.564221 113.075375 
L 384.838577 112.895665 
L 382.112933 112.710268 
L 379.387289 112.523403 
L 376.661645 112.339853 
L 373.936001 112.164773 
L 371.210357 112.003443 
L 368.484713 111.861002 
L 365.759069 111.742154 
L 363.033425 111.650893 
L 360.307781 111.590261 
L 357.582137 111.562152 
L 354.856493 111.567189 
L 352.130849 111.604687 
L 349.405205 111.672693 
L 346.679561 111.768114 
L 343.953917 111.88691 
L 341.228273 112.024345 
L 338.502629 112.175264 
L 335.776985 112.334376 
L 333.051341 112.496533 
L 330.325697 112.656956 
L 327.600053 112.811423 
L 324.874409 112.956396 
L 322.148765 113.089072 
L 319.423121 113.207385 
L 316.697478 113.309945 
L 313.971834 113.395935 
L 311.24619 113.464973 
L 308.520546 113.516952 
L 305.794902 113.551883 
L 303.069258 113.569724 
L 300.343614 113.570241 
L 297.61797 113.55287 
L 294.892326 113.516622 
L 292.166682 113.460009 
L 289.441038 113.381014 
L 286.715394 113.277105 
L 283.98975 113.145294 
L 281.264106 112.982257 
L 278.538462 112.784518 
L 275.812818 112.548684 
L 273.087174 112.27175 
L 270.36153 111.951449 
L 267.635886 111.586637 
L 264.910242 111.17769 
L 262.184598 110.72687 
L 259.458954 110.238644 
L 256.73331 109.719895 
L 254.007666 109.179994 
L 251.282022 108.630709 
L 248.556378 108.085916 
L 245.830734 107.561123 
L 243.10509 107.072803 
L 240.379446 106.637591 
L 237.653803 106.271375 
L 234.928159 105.988371 
L 232.202515 105.800234 
L 229.476871 105.715301 
L 226.751227 105.738022 
z
" style="fill:#ff0000;fill-opacity:0.75;"/>
   </g>
   <g id="PolyCollection_8">
    <path clip-path="url(#p74e641a4ea)" d="M 226.935402 71.443383 
L 226.935402 88.401338 
L 229.694433 88.504114 
L 232.453465 88.520007 
L 235.212496 88.449887 
L 237.971527 88.297406 
L 240.730558 88.068777 
L 243.48959 87.772406 
L 246.248621 87.418427 
L 249.007652 87.018169 
L 251.766684 86.58358 
L 254.525715 86.126676 
L 257.284746 85.659025 
L 260.043778 85.191302 
L 262.802809 84.732957 
L 265.56184 84.291971 
L 268.320872 83.874739 
L 271.079903 83.486053 
L 273.838934 83.129177 
L 276.597965 82.806 
L 279.356997 82.517239 
L 282.116028 82.262678 
L 284.875059 82.041411 
L 287.634091 81.852083 
L 290.393122 81.693103 
L 293.152153 81.562821 
L 295.911185 81.459667 
L 298.670216 81.382242 
L 301.429247 81.329361 
L 304.188279 81.300054 
L 306.94731 81.293534 
L 309.706341 81.309125 
L 312.465372 81.346174 
L 315.224404 81.403948 
L 317.983435 81.481519 
L 320.742466 81.577664 
L 323.501498 81.690767 
L 326.260529 81.818749 
L 329.01956 81.959026 
L 331.778592 82.108496 
L 334.537623 82.26357 
L 337.296654 82.420238 
L 340.055686 82.574175 
L 342.814717 82.720877 
L 345.573748 82.855826 
L 348.33278 82.974671 
L 351.091811 83.073414 
L 353.850842 83.14859 
L 356.609873 83.197431 
L 359.368905 83.217991 
L 362.127936 83.209239 
L 364.886967 83.171106 
L 367.645999 83.104473 
L 370.40503 83.011121 
L 373.164061 82.893626 
L 375.923093 82.755223 
L 378.682124 82.599635 
L 381.441155 82.430894 
L 384.200187 82.253148 
L 386.959218 82.070486 
L 389.718249 81.886772 
L 392.47728 81.705513 
L 395.236312 81.529755 
L 397.995343 81.362019 
L 400.754374 81.204268 
L 403.513406 81.05791 
L 406.272437 80.923828 
L 409.031468 80.802433 
L 411.7905 80.693735 
L 414.549531 80.597414 
L 417.308562 80.512905 
L 420.067594 80.439469 
L 422.826625 80.376264 
L 425.585656 80.322399 
L 428.344687 80.27698 
L 431.103719 80.239145 
L 433.86275 80.208077 
L 436.621781 80.183024 
L 439.380813 80.163293 
L 442.139844 80.148249 
L 444.898875 80.137311 
L 447.657907 80.129937 
L 450.416938 80.125619 
L 453.175969 80.123875 
L 455.935001 80.124241 
L 458.694032 80.126271 
L 461.453063 80.129534 
L 464.212094 80.133618 
L 466.971126 80.13813 
L 469.730157 80.142701 
L 472.489188 80.146993 
L 475.24822 80.150701 
L 478.007251 80.15356 
L 480.766282 80.155346 
L 483.525314 80.15588 
L 486.284345 80.155032 
L 489.043376 80.152716 
L 491.802408 80.148896 
L 494.561439 80.143581 
L 497.32047 80.136823 
L 500.079501 80.128713 
L 500.079501 79.716008 
L 500.079501 79.716008 
L 497.32047 79.707898 
L 494.561439 79.701139 
L 491.802408 79.695824 
L 489.043376 79.692004 
L 486.284345 79.689689 
L 483.525314 79.68884 
L 480.766282 79.689375 
L 478.007251 79.691161 
L 475.24822 79.69402 
L 472.489188 79.697728 
L 469.730157 79.70202 
L 466.971126 79.706591 
L 464.212094 79.711102 
L 461.453063 79.715186 
L 458.694032 79.71845 
L 455.935001 79.72048 
L 453.175969 79.720846 
L 450.416938 79.719101 
L 447.657907 79.714783 
L 444.898875 79.70741 
L 442.139844 79.696471 
L 439.380813 79.681428 
L 436.621781 79.661697 
L 433.86275 79.636643 
L 431.103719 79.605576 
L 428.344687 79.56774 
L 425.585656 79.522322 
L 422.826625 79.468457 
L 420.067594 79.405251 
L 417.308562 79.331815 
L 414.549531 79.247306 
L 411.7905 79.150986 
L 409.031468 79.042287 
L 406.272437 78.920893 
L 403.513406 78.786811 
L 400.754374 78.640452 
L 397.995343 78.482701 
L 395.236312 78.314965 
L 392.47728 78.139207 
L 389.718249 77.957948 
L 386.959218 77.774234 
L 384.200187 77.591572 
L 381.441155 77.413827 
L 378.682124 77.245086 
L 375.923093 77.089498 
L 373.164061 76.951094 
L 370.40503 76.8336 
L 367.645999 76.740247 
L 364.886967 76.673615 
L 362.127936 76.635481 
L 359.368905 76.62673 
L 356.609873 76.64729 
L 353.850842 76.69613 
L 351.091811 76.771307 
L 348.33278 76.87005 
L 345.573748 76.988894 
L 342.814717 77.123843 
L 340.055686 77.270545 
L 337.296654 77.424482 
L 334.537623 77.581151 
L 331.778592 77.736225 
L 329.01956 77.885695 
L 326.260529 78.025971 
L 323.501498 78.153954 
L 320.742466 78.267056 
L 317.983435 78.363201 
L 315.224404 78.440773 
L 312.465372 78.498546 
L 309.706341 78.535596 
L 306.94731 78.551186 
L 304.188279 78.544666 
L 301.429247 78.515359 
L 298.670216 78.462478 
L 295.911185 78.385053 
L 293.152153 78.2819 
L 290.393122 78.151618 
L 287.634091 77.992637 
L 284.875059 77.803309 
L 282.116028 77.582043 
L 279.356997 77.327481 
L 276.597965 77.038721 
L 273.838934 76.715543 
L 271.079903 76.358667 
L 268.320872 75.969981 
L 265.56184 75.552749 
L 262.802809 75.111763 
L 260.043778 74.653418 
L 257.284746 74.185696 
L 254.525715 73.718044 
L 251.766684 73.261141 
L 249.007652 72.826552 
L 246.248621 72.426293 
L 243.48959 72.072315 
L 240.730558 71.775944 
L 237.971527 71.547315 
L 235.212496 71.394834 
L 232.453465 71.324713 
L 229.694433 71.340606 
L 226.935402 71.443383 
z
" style="fill:#ff0000;fill-opacity:0.75;"/>
   </g>
   <g id="PolyCollection_9">
    <path clip-path="url(#p74e641a4ea)" d="M 226.746875 36.945742 
L 226.746875 54.117802 
L 229.406015 54.129419 
L 232.065155 54.052052 
L 234.724295 53.888513 
L 237.383435 53.64428 
L 240.042575 53.327204 
L 242.701716 52.947108 
L 245.360856 52.515292 
L 248.019996 52.04399 
L 250.679136 51.545814 
L 253.338276 51.033214 
L 255.997416 50.517992 
L 258.656556 50.010895 
L 261.315696 49.521301 
L 263.974836 49.057014 
L 266.633976 48.624161 
L 269.293116 48.227193 
L 271.952257 47.86897 
L 274.611397 47.550916 
L 277.270537 47.273229 
L 279.929677 47.035115 
L 282.588817 46.835037 
L 285.247957 46.670956 
L 287.907097 46.540552 
L 290.566237 46.441412 
L 293.225377 46.371181 
L 295.884517 46.327672 
L 298.543658 46.308926 
L 301.202798 46.313242 
L 303.861938 46.339157 
L 306.521078 46.385406 
L 309.180218 46.450848 
L 311.839358 46.53438 
L 314.498498 46.634842 
L 317.157638 46.750913 
L 319.816778 46.881026 
L 322.475918 47.023288 
L 325.135058 47.175425 
L 327.794199 47.334758 
L 330.453339 47.498204 
L 333.112479 47.662313 
L 335.771619 47.823347 
L 338.430759 47.977374 
L 341.089899 48.120405 
L 343.749039 48.248536 
L 346.408179 48.358117 
L 349.067319 48.445899 
L 351.726459 48.509193 
L 354.385599 48.545993 
L 357.04474 48.555074 
L 359.70388 48.536055 
L 362.36302 48.489417 
L 365.02216 48.416483 
L 367.6813 48.319351 
L 370.34044 48.200792 
L 372.99958 48.064121 
L 375.65872 47.913042 
L 378.31786 47.751486 
L 380.977 47.583441 
L 383.63614 47.412795 
L 386.295281 47.243193 
L 388.954421 47.077918 
L 391.613561 46.919796 
L 394.272701 46.771135 
L 396.931841 46.63369 
L 399.590981 46.508659 
L 402.250121 46.396701 
L 404.909261 46.297983 
L 407.568401 46.212234 
L 410.227541 46.138816 
L 412.886682 46.076805 
L 415.545822 46.025065 
L 418.204962 45.98233 
L 420.864102 45.947275 
L 423.523242 45.91858 
L 426.182382 45.894988 
L 428.841522 45.875348 
L 431.500662 45.858648 
L 434.159802 45.844035 
L 436.818942 45.830827 
L 439.478082 45.818512 
L 442.137223 45.806736 
L 444.796363 45.795291 
L 447.455503 45.784088 
L 450.114643 45.773133 
L 452.773783 45.762501 
L 455.432923 45.752301 
L 458.092063 45.742661 
L 460.751203 45.733694 
L 463.410343 45.725491 
L 466.069483 45.718097 
L 468.728623 45.711514 
L 471.387764 45.705693 
L 474.046904 45.700539 
L 476.706044 45.695915 
L 479.365184 45.691661 
L 482.024324 45.687595 
L 484.683464 45.683537 
L 487.342604 45.679314 
L 490.001744 45.674777 
L 490.001744 45.388767 
L 490.001744 45.388767 
L 487.342604 45.38423 
L 484.683464 45.380007 
L 482.024324 45.375949 
L 479.365184 45.371883 
L 476.706044 45.367629 
L 474.046904 45.363006 
L 471.387764 45.357851 
L 468.728623 45.35203 
L 466.069483 45.345447 
L 463.410343 45.338054 
L 460.751203 45.32985 
L 458.092063 45.320883 
L 455.432923 45.311243 
L 452.773783 45.301043 
L 450.114643 45.290411 
L 447.455503 45.279456 
L 444.796363 45.268253 
L 442.137223 45.256808 
L 439.478082 45.245032 
L 436.818942 45.232717 
L 434.159802 45.219509 
L 431.500662 45.204896 
L 428.841522 45.188196 
L 426.182382 45.168556 
L 423.523242 45.144964 
L 420.864102 45.116269 
L 418.204962 45.081214 
L 415.545822 45.038479 
L 412.886682 44.986739 
L 410.227541 44.924728 
L 407.568401 44.851311 
L 404.909261 44.765561 
L 402.250121 44.666843 
L 399.590981 44.554886 
L 396.931841 44.429854 
L 394.272701 44.292409 
L 391.613561 44.143748 
L 388.954421 43.985626 
L 386.295281 43.820351 
L 383.63614 43.650749 
L 380.977 43.480103 
L 378.31786 43.312058 
L 375.65872 43.150502 
L 372.99958 42.999424 
L 370.34044 42.862752 
L 367.6813 42.744193 
L 365.02216 42.647061 
L 362.36302 42.574127 
L 359.70388 42.527489 
L 357.04474 42.50847 
L 354.385599 42.517551 
L 351.726459 42.554351 
L 349.067319 42.617645 
L 346.408179 42.705427 
L 343.749039 42.815008 
L 341.089899 42.94314 
L 338.430759 43.08617 
L 335.771619 43.240197 
L 333.112479 43.401231 
L 330.453339 43.565341 
L 327.794199 43.728786 
L 325.135058 43.888119 
L 322.475918 44.040256 
L 319.816778 44.182518 
L 317.157638 44.312631 
L 314.498498 44.428702 
L 311.839358 44.529164 
L 309.180218 44.612696 
L 306.521078 44.678138 
L 303.861938 44.724387 
L 301.202798 44.750302 
L 298.543658 44.754618 
L 295.884517 44.735872 
L 293.225377 44.692363 
L 290.566237 44.622133 
L 287.907097 44.522992 
L 285.247957 44.392588 
L 282.588817 44.228507 
L 279.929677 44.028429 
L 277.270537 43.790315 
L 274.611397 43.512628 
L 271.952257 43.194574 
L 269.293116 42.836351 
L 266.633976 42.439383 
L 263.974836 42.00653 
L 261.315696 41.542243 
L 258.656556 41.052649 
L 255.997416 40.545552 
L 253.338276 40.03033 
L 250.679136 39.51773 
L 248.019996 39.019554 
L 245.360856 38.548253 
L 242.701716 38.116436 
L 240.042575 37.73634 
L 237.383435 37.419264 
L 234.724295 37.175031 
L 232.065155 37.011492 
L 229.406015 36.934125 
L 226.746875 36.945742 
z
" style="fill:#ff0000;fill-opacity:0.75;"/>
   </g>
   <g id="LineCollection_1">
    <path clip-path="url(#p74e641a4ea)" d="M 257.269257 324.955301 
L 257.269257 316.357654 
" style="fill:none;stroke:#000000;stroke-width:1.5;"/>
    <path clip-path="url(#p74e641a4ea)" d="M 251.809982 290.564713 
L 251.809982 281.967066 
" style="fill:none;stroke:#000000;stroke-width:1.5;"/>
    <path clip-path="url(#p74e641a4ea)" d="M 258.326234 256.174125 
L 258.326234 247.576478 
" style="fill:none;stroke:#000000;stroke-width:1.5;"/>
    <path clip-path="url(#p74e641a4ea)" d="M 260.972758 221.783537 
L 260.972758 213.18589 
" style="fill:none;stroke:#000000;stroke-width:1.5;"/>
    <path clip-path="url(#p74e641a4ea)" d="M 257.580229 187.392949 
L 257.580229 178.795301 
" style="fill:none;stroke:#000000;stroke-width:1.5;"/>
    <path clip-path="url(#p74e641a4ea)" d="M 259.60423 153.00236 
L 259.60423 144.404713 
" style="fill:none;stroke:#000000;stroke-width:1.5;"/>
    <path clip-path="url(#p74e641a4ea)" d="M 263.773333 118.611772 
L 263.773333 110.014125 
" style="fill:none;stroke:#000000;stroke-width:1.5;"/>
    <path clip-path="url(#p74e641a4ea)" d="M 275.552003 84.221184 
L 275.552003 75.623537 
" style="fill:none;stroke:#000000;stroke-width:1.5;"/>
    <path clip-path="url(#p74e641a4ea)" d="M 269.078113 49.830596 
L 269.078113 41.232949 
" style="fill:none;stroke:#000000;stroke-width:1.5;"/>
   </g>
   <g id="patch_3">
    <path d="M 226.746875 343.870125 
L 226.746875 22.318125 
" style="fill:none;stroke:#000000;stroke-linecap:square;stroke-linejoin:miter;stroke-width:0.8;"/>
   </g>
   <g id="patch_4">
    <path d="M 617.346875 343.870125 
L 617.346875 22.318125 
" style="fill:none;stroke:#000000;stroke-linecap:square;stroke-linejoin:miter;stroke-width:0.8;"/>
   </g>
   <g id="patch_5">
    <path d="M 226.746875 343.870125 
L 617.346875 343.870125 
" style="fill:none;stroke:#000000;stroke-linecap:square;stroke-linejoin:miter;stroke-width:0.8;"/>
   </g>
   <g id="patch_6">
    <path d="M 226.746875 22.318125 
L 617.346875 22.318125 
" style="fill:none;stroke:#000000;stroke-linecap:square;stroke-linejoin:miter;stroke-width:0.8;"/>
   </g>
   <g id="text_19">
    <!-- AOE1 for 1.0 -->
    <g transform="translate(384.11 16.318125)scale(0.12 -0.12)">
     <use xlink:href="#DejaVuSans-65"/>
     <use x="66.658203" xlink:href="#DejaVuSans-79"/>
     <use x="145.369141" xlink:href="#DejaVuSans-69"/>
     <use x="208.552734" xlink:href="#DejaVuSans-49"/>
     <use x="272.175781" xlink:href="#DejaVuSans-32"/>
     <use x="303.962891" xlink:href="#DejaVuSans-102"/>
     <use x="339.167969" xlink:href="#DejaVuSans-111"/>
     <use x="400.349609" xlink:href="#DejaVuSans-114"/>
     <use x="441.462891" xlink:href="#DejaVuSans-32"/>
     <use x="473.25" xlink:href="#DejaVuSans-49"/>
     <use x="536.873047" xlink:href="#DejaVuSans-46"/>
     <use x="568.660156" xlink:href="#DejaVuSans-48"/>
    </g>
   </g>
  </g>
 </g>
 <defs>
  <clipPath id="p74e641a4ea">
   <rect height="321.552" width="390.6" x="226.746875" y="22.318125"/>
  </clipPath>
 </defs>
</svg>
