<?xml version='1.0' encoding='utf-8'?>
<svg xmlns:xlink="http://www.w3.org/1999/xlink" xmlns="http://www.w3.org/2000/svg" id="chart-87fec9ce-3fc9-47f9-a4b4-875da77760f6" class="pygal-chart" viewBox="0 0 800 600"><!--Generated with pygal 2.4.0 (lxml) ©Kozea 2012-2016 on 2019-10-13--><!--http://pygal.org--><!--http://github.com/Kozea/pygal--><defs><style type="text/css">#chart-87fec9ce-3fc9-47f9-a4b4-875da77760f6{-webkit-user-select:none;-webkit-font-smoothing:antialiased;font-family:Helvetica,Arial,sans-serif}#chart-87fec9ce-3fc9-47f9-a4b4-875da77760f6 .title{font-family:Helvetica,Arial,sans-serif;font-size:18px}#chart-87fec9ce-3fc9-47f9-a4b4-875da77760f6 .legends .legend text{font-family:Helvetica,Arial,sans-serif;font-size:15px}#chart-87fec9ce-3fc9-47f9-a4b4-875da77760f6 .axis text{font-family:Helvetica,Arial,sans-serif;font-size:15px}#chart-87fec9ce-3fc9-47f9-a4b4-875da77760f6 .axis text.major{font-family:Helvetica,Arial,sans-serif;font-size:15px}#chart-87fec9ce-3fc9-47f9-a4b4-875da77760f6 .text-overlay text.value{font-family:Helvetica,Arial,sans-serif;font-size:15px}#chart-87fec9ce-3fc9-47f9-a4b4-875da77760f6 .text-overlay text.label{font-family:Helvetica,Arial,sans-serif;font-size:15px}#chart-87fec9ce-3fc9-47f9-a4b4-875da77760f6 .tooltip{font-family:Helvetica,Arial,sans-serif;font-size:14px}#chart-87fec9ce-3fc9-47f9-a4b4-875da77760f6 text.no_data{font-family:Helvetica,Arial,sans-serif;font-size:64px}
#chart-87fec9ce-3fc9-47f9-a4b4-875da77760f6{background-color:transparent}#chart-87fec9ce-3fc9-47f9-a4b4-875da77760f6 path,#chart-87fec9ce-3fc9-47f9-a4b4-875da77760f6 line,#chart-87fec9ce-3fc9-47f9-a4b4-875da77760f6 rect,#chart-87fec9ce-3fc9-47f9-a4b4-875da77760f6 circle{-webkit-transition:150ms;-moz-transition:150ms;transition:150ms}#chart-87fec9ce-3fc9-47f9-a4b4-875da77760f6 .graph &gt; .background{fill:transparent}#chart-87fec9ce-3fc9-47f9-a4b4-875da77760f6 .plot &gt; .background{fill:white}#chart-87fec9ce-3fc9-47f9-a4b4-875da77760f6 .graph{fill:rgba(0,0,0,.87)}#chart-87fec9ce-3fc9-47f9-a4b4-875da77760f6 text.no_data{fill:rgba(0,0,0,1)}#chart-87fec9ce-3fc9-47f9-a4b4-875da77760f6 .title{fill:rgba(0,0,0,1)}#chart-87fec9ce-3fc9-47f9-a4b4-875da77760f6 .legends .legend text{fill:rgba(0,0,0,.87)}#chart-87fec9ce-3fc9-47f9-a4b4-875da77760f6 .legends .legend:hover text{fill:rgba(0,0,0,1)}#chart-87fec9ce-3fc9-47f9-a4b4-875da77760f6 .axis .line{stroke:rgba(0,0,0,1)}#chart-87fec9ce-3fc9-47f9-a4b4-875da77760f6 .axis .guide.line{stroke:rgba(0,0,0,.54)}#chart-87fec9ce-3fc9-47f9-a4b4-875da77760f6 .axis .major.line{stroke:rgba(0,0,0,.87)}#chart-87fec9ce-3fc9-47f9-a4b4-875da77760f6 .axis text.major{fill:rgba(0,0,0,1)}#chart-87fec9ce-3fc9-47f9-a4b4-875da77760f6 .axis.y .guides:hover .guide.line,#chart-87fec9ce-3fc9-47f9-a4b4-875da77760f6 .line-graph .axis.x .guides:hover .guide.line,#chart-87fec9ce-3fc9-47f9-a4b4-875da77760f6 .stackedline-graph .axis.x .guides:hover .guide.line,#chart-87fec9ce-3fc9-47f9-a4b4-875da77760f6 .xy-graph .axis.x .guides:hover .guide.line{stroke:rgba(0,0,0,1)}#chart-87fec9ce-3fc9-47f9-a4b4-875da77760f6 .axis .guides:hover text{fill:rgba(0,0,0,1)}#chart-87fec9ce-3fc9-47f9-a4b4-875da77760f6 .reactive{fill-opacity:.7;stroke-opacity:.8}#chart-87fec9ce-3fc9-47f9-a4b4-875da77760f6 .ci{stroke:rgba(0,0,0,.87)}#chart-87fec9ce-3fc9-47f9-a4b4-875da77760f6 .reactive.active,#chart-87fec9ce-3fc9-47f9-a4b4-875da77760f6 .active .reactive{fill-opacity:.8;stroke-opacity:.9;stroke-width:4}#chart-87fec9ce-3fc9-47f9-a4b4-875da77760f6 .ci .reactive.active{stroke-width:1.5}#chart-87fec9ce-3fc9-47f9-a4b4-875da77760f6 .series text{fill:rgba(0,0,0,1)}#chart-87fec9ce-3fc9-47f9-a4b4-875da77760f6 .tooltip rect{fill:white;stroke:rgba(0,0,0,1);-webkit-transition:opacity 150ms;-moz-transition:opacity 150ms;transition:opacity 150ms}#chart-87fec9ce-3fc9-47f9-a4b4-875da77760f6 .tooltip .label{fill:rgba(0,0,0,.87)}#chart-87fec9ce-3fc9-47f9-a4b4-875da77760f6 .tooltip .label{fill:rgba(0,0,0,.87)}#chart-87fec9ce-3fc9-47f9-a4b4-875da77760f6 .tooltip .legend{font-size:.8em;fill:rgba(0,0,0,.54)}#chart-87fec9ce-3fc9-47f9-a4b4-875da77760f6 .tooltip .x_label{font-size:.6em;fill:rgba(0,0,0,1)}#chart-87fec9ce-3fc9-47f9-a4b4-875da77760f6 .tooltip .xlink{font-size:.5em;text-decoration:underline}#chart-87fec9ce-3fc9-47f9-a4b4-875da77760f6 .tooltip .value{font-size:1.5em}#chart-87fec9ce-3fc9-47f9-a4b4-875da77760f6 .bound{font-size:.5em}#chart-87fec9ce-3fc9-47f9-a4b4-875da77760f6 .max-value{font-size:.75em;fill:rgba(0,0,0,.54)}#chart-87fec9ce-3fc9-47f9-a4b4-875da77760f6 .map-element{fill:white;stroke:rgba(0,0,0,.54) !important}#chart-87fec9ce-3fc9-47f9-a4b4-875da77760f6 .map-element .reactive{fill-opacity:inherit;stroke-opacity:inherit}#chart-87fec9ce-3fc9-47f9-a4b4-875da77760f6 .color-0,#chart-87fec9ce-3fc9-47f9-a4b4-875da77760f6 .color-0 a:visited{stroke:#F44336;fill:#F44336}#chart-87fec9ce-3fc9-47f9-a4b4-875da77760f6 .color-1,#chart-87fec9ce-3fc9-47f9-a4b4-875da77760f6 .color-1 a:visited{stroke:#3F51B5;fill:#3F51B5}#chart-87fec9ce-3fc9-47f9-a4b4-875da77760f6 .color-2,#chart-87fec9ce-3fc9-47f9-a4b4-875da77760f6 .color-2 a:visited{stroke:#009688;fill:#009688}#chart-87fec9ce-3fc9-47f9-a4b4-875da77760f6 .color-3,#chart-87fec9ce-3fc9-47f9-a4b4-875da77760f6 .color-3 a:visited{stroke:#FFC107;fill:#FFC107}#chart-87fec9ce-3fc9-47f9-a4b4-875da77760f6 .color-4,#chart-87fec9ce-3fc9-47f9-a4b4-875da77760f6 .color-4 a:visited{stroke:#FF5722;fill:#FF5722}#chart-87fec9ce-3fc9-47f9-a4b4-875da77760f6 .color-5,#chart-87fec9ce-3fc9-47f9-a4b4-875da77760f6 .color-5 a:visited{stroke:#9C27B0;fill:#9C27B0}#chart-87fec9ce-3fc9-47f9-a4b4-875da77760f6 .text-overlay .color-0 text{fill:black}#chart-87fec9ce-3fc9-47f9-a4b4-875da77760f6 .text-overlay .color-1 text{fill:black}#chart-87fec9ce-3fc9-47f9-a4b4-875da77760f6 .text-overlay .color-2 text{fill:black}#chart-87fec9ce-3fc9-47f9-a4b4-875da77760f6 .text-overlay .color-3 text{fill:black}#chart-87fec9ce-3fc9-47f9-a4b4-875da77760f6 .text-overlay .color-4 text{fill:black}#chart-87fec9ce-3fc9-47f9-a4b4-875da77760f6 .text-overlay .color-5 text{fill:black}
#chart-87fec9ce-3fc9-47f9-a4b4-875da77760f6 text.no_data{text-anchor:middle}#chart-87fec9ce-3fc9-47f9-a4b4-875da77760f6 .guide.line{fill:none}#chart-87fec9ce-3fc9-47f9-a4b4-875da77760f6 .centered{text-anchor:middle}#chart-87fec9ce-3fc9-47f9-a4b4-875da77760f6 .title{text-anchor:middle}#chart-87fec9ce-3fc9-47f9-a4b4-875da77760f6 .legends .legend text{fill-opacity:1}#chart-87fec9ce-3fc9-47f9-a4b4-875da77760f6 .axis.x text{text-anchor:middle}#chart-87fec9ce-3fc9-47f9-a4b4-875da77760f6 .axis.x:not(.web) text[transform]{text-anchor:start}#chart-87fec9ce-3fc9-47f9-a4b4-875da77760f6 .axis.x:not(.web) text[transform].backwards{text-anchor:end}#chart-87fec9ce-3fc9-47f9-a4b4-875da77760f6 .axis.y text{text-anchor:end}#chart-87fec9ce-3fc9-47f9-a4b4-875da77760f6 .axis.y text[transform].backwards{text-anchor:start}#chart-87fec9ce-3fc9-47f9-a4b4-875da77760f6 .axis.y2 text{text-anchor:start}#chart-87fec9ce-3fc9-47f9-a4b4-875da77760f6 .axis.y2 text[transform].backwards{text-anchor:end}#chart-87fec9ce-3fc9-47f9-a4b4-875da77760f6 .axis .guide.line{stroke-dasharray:1}#chart-87fec9ce-3fc9-47f9-a4b4-875da77760f6 .axis .major.guide.line{stroke-dasharray:1}#chart-87fec9ce-3fc9-47f9-a4b4-875da77760f6 .horizontal .axis.y .guide.line,#chart-87fec9ce-3fc9-47f9-a4b4-875da77760f6 .horizontal .axis.y2 .guide.line,#chart-87fec9ce-3fc9-47f9-a4b4-875da77760f6 .vertical .axis.x .guide.line{opacity:0}#chart-87fec9ce-3fc9-47f9-a4b4-875da77760f6 .horizontal .axis.always_show .guide.line,#chart-87fec9ce-3fc9-47f9-a4b4-875da77760f6 .vertical .axis.always_show .guide.line{opacity:1 !important}#chart-87fec9ce-3fc9-47f9-a4b4-875da77760f6 .axis.y .guides:hover .guide.line,#chart-87fec9ce-3fc9-47f9-a4b4-875da77760f6 .axis.y2 .guides:hover .guide.line,#chart-87fec9ce-3fc9-47f9-a4b4-875da77760f6 .axis.x .guides:hover .guide.line{opacity:1}#chart-87fec9ce-3fc9-47f9-a4b4-875da77760f6 .axis .guides:hover text{opacity:1}#chart-87fec9ce-3fc9-47f9-a4b4-875da77760f6 .nofill{fill:none}#chart-87fec9ce-3fc9-47f9-a4b4-875da77760f6 .subtle-fill{fill-opacity:.2}#chart-87fec9ce-3fc9-47f9-a4b4-875da77760f6 .dot{stroke-width:1px;fill-opacity:1}#chart-87fec9ce-3fc9-47f9-a4b4-875da77760f6 .dot.active{stroke-width:5px}#chart-87fec9ce-3fc9-47f9-a4b4-875da77760f6 .dot.negative{fill:transparent}#chart-87fec9ce-3fc9-47f9-a4b4-875da77760f6 text,#chart-87fec9ce-3fc9-47f9-a4b4-875da77760f6 tspan{stroke:none !important}#chart-87fec9ce-3fc9-47f9-a4b4-875da77760f6 .series text.active{opacity:1}#chart-87fec9ce-3fc9-47f9-a4b4-875da77760f6 .tooltip rect{fill-opacity:.95;stroke-width:.5}#chart-87fec9ce-3fc9-47f9-a4b4-875da77760f6 .tooltip text{fill-opacity:1}#chart-87fec9ce-3fc9-47f9-a4b4-875da77760f6 .showable{visibility:hidden}#chart-87fec9ce-3fc9-47f9-a4b4-875da77760f6 .showable.shown{visibility:visible}#chart-87fec9ce-3fc9-47f9-a4b4-875da77760f6 .gauge-background{fill:rgba(229,229,229,1);stroke:none}#chart-87fec9ce-3fc9-47f9-a4b4-875da77760f6 .bg-lines{stroke:transparent;stroke-width:2px}</style><script type="text/javascript">window.pygal = window.pygal || {};window.pygal.config = window.pygal.config || {};window.pygal.config['87fec9ce-3fc9-47f9-a4b4-875da77760f6'] = {"allow_interruptions": false, "box_mode": "extremes", "classes": ["pygal-chart"], "css": ["file://style.css", "file://graph.css"], "defs": [], "disable_xml_declaration": false, "dots_size": 2.5, "dynamic_print_values": false, "explicit_size": false, "fill": false, "force_uri_protocol": "https", "formatter": null, "half_pie": false, "height": 600, "include_x_axis": false, "inner_radius": 0, "interpolate": null, "interpolation_parameters": {}, "interpolation_precision": 250, "inverse_y_axis": false, "js": ["//kozea.github.io/pygal.js/2.0.x/pygal-tooltips.min.js"], "legend_at_bottom": true, "legend_at_bottom_columns": 2, "legend_box_size": 12, "logarithmic": false, "margin": 20, "margin_bottom": 65, "margin_left": null, "margin_right": null, "margin_top": null, "max_scale": 16, "min_scale": 4, "missing_value_fill_truncation": "x", "no_data_text": "No data", "no_prefix": false, "order_min": null, "pretty_print": false, "print_labels": false, "print_values": false, "print_values_position": "center", "print_zeroes": true, "range": [-2.0, 3.0], "rounded_bars": null, "secondary_range": null, "show_dots": true, "show_legend": true, "show_minor_x_labels": false, "show_minor_y_labels": true, "show_only_major_dots": true, "show_x_guides": true, "show_x_labels": true, "show_y_guides": true, "show_y_labels": true, "spacing": 10, "stack_from_top": false, "strict": false, "stroke": true, "stroke_style": null, "style": {"background": "transparent", "ci_colors": [], "colors": ["#F44336", "#3F51B5", "#009688", "#FFC107", "#FF5722", "#9C27B0", "#03A9F4", "#8BC34A", "#FF9800", "#E91E63", "#2196F3", "#4CAF50", "#FFEB3B", "#673AB7", "#00BCD4", "#CDDC39", "#9E9E9E", "#607D8B"], "font_family": "Helvetica, Arial, sans-serif", "foreground": "rgba(0, 0, 0, .87)", "foreground_strong": "rgba(0, 0, 0, 1)", "foreground_subtle": "rgba(0, 0, 0, .54)", "guide_stroke_dasharray": 1, "label_font_family": "Helvetica, Arial, sans-serif", "label_font_size": 15, "legend_font_family": "Helvetica, Arial, sans-serif", "legend_font_size": 15, "major_guide_stroke_dasharray": 1, "major_label_font_family": "Helvetica, Arial, sans-serif", "major_label_font_size": 15, "no_data_font_family": "Helvetica, Arial, sans-serif", "no_data_font_size": 64, "opacity": ".7", "opacity_hover": ".8", "plot_background": "white", "stroke_opacity": ".8", "stroke_opacity_hover": ".9", "title_font_family": "Helvetica, Arial, sans-serif", "title_font_size": 18, "tooltip_font_family": "Helvetica, Arial, sans-serif", "tooltip_font_size": 14, "transition": "150ms", "value_background": "rgba(229, 229, 229, 1)", "value_colors": [], "value_font_family": "Helvetica, Arial, sans-serif", "value_font_size": 15, "value_label_font_family": "Helvetica, Arial, sans-serif", "value_label_font_size": 15}, "title": "Mean OE1 for Tempo T \u00b110.0 BPM", "tooltip_border_radius": 0, "tooltip_fancy_mode": true, "truncate_label": null, "truncate_legend": -1, "width": 800, "x_label_rotation": 90, "x_labels": ["0.0", "1.0", "2.0", "3.0", "4.0", "5.0", "6.0", "7.0", "8.0", "9.0", "10.0", "11.0", "12.0", "13.0", "14.0", "15.0", "16.0", "17.0", "18.0", "19.0", "20.0", "21.0", "22.0", "23.0", "24.0", "25.0", "26.0", "27.0", "28.0", "29.0", "30.0", "31.0", "32.0", "33.0", "34.0", "35.0", "36.0", "37.0", "38.0", "39.0", "40.0", "41.0", "42.0", "43.0", "44.0", "45.0", "46.0", "47.0", "48.0", "49.0", "50.0", "51.0", "52.0", "53.0", "54.0", "55.0", "56.0", "57.0", "58.0", "59.0", "60.0", "61.0", "62.0", "63.0", "64.0", "65.0", "66.0", "67.0", "68.0", "69.0", "70.0", "71.0", "72.0", "73.0", "74.0", "75.0", "76.0", "77.0", "78.0", "79.0", "80.0", "81.0", "82.0", "83.0", "84.0", "85.0", "86.0", "87.0", "88.0", "89.0", "90.0", "91.0", "92.0", "93.0", "94.0", "95.0", "96.0", "97.0", "98.0", "99.0", "100.0", "101.0", "102.0", "103.0", "104.0", "105.0", "106.0", "107.0", "108.0", "109.0", "110.0", "111.0", "112.0", "113.0", "114.0", "115.0", "116.0", "117.0", "118.0", "119.0", "120.0", "121.0", "122.0", "123.0", "124.0", "125.0", "126.0", "127.0", "128.0", "129.0", "130.0", "131.0", "132.0", "133.0", "134.0", "135.0", "136.0", "137.0", "138.0", "139.0", "140.0", "141.0", "142.0", "143.0", "144.0", "145.0", "146.0", "147.0", "148.0", "149.0", "150.0", "151.0", "152.0", "153.0", "154.0", "155.0", "156.0", "157.0", "158.0", "159.0", "160.0", "161.0", "162.0", "163.0", "164.0", "165.0", "166.0", "167.0", "168.0", "169.0", "170.0", "171.0", "172.0", "173.0", "174.0", "175.0", "176.0", "177.0", "178.0", "179.0", "180.0", "181.0", "182.0", "183.0", "184.0", "185.0", "186.0", "187.0", "188.0", "189.0", "190.0", "191.0", "192.0", "193.0", "194.0", "195.0", "196.0", "197.0", "198.0", "199.0", "200.0", "201.0", "202.0", "203.0", "204.0", "205.0", "206.0", "207.0", "208.0", "209.0", "210.0", "211.0", "212.0", "213.0", "214.0", "215.0", "216.0", "217.0", "218.0", "219.0", "220.0", "221.0", "222.0", "223.0", "224.0", "225.0", "226.0", "227.0", "228.0", "229.0", "230.0", "231.0", "232.0", "233.0", "234.0", "235.0", "236.0", "237.0", "238.0", "239.0", "240.0", "241.0", "242.0", "243.0", "244.0", "245.0", "246.0", "247.0", "248.0", "249.0", "250.0", "251.0", "252.0", "253.0", "254.0", "255.0", "256.0", "257.0", "258.0", "259.0", "260.0", "261.0", "262.0", "263.0", "264.0", "265.0", "266.0", "267.0", "268.0", "269.0", "270.0", "271.0", "272.0", "273.0", "274.0", "275.0", "276.0", "277.0", "278.0", "279.0", "280.0", "281.0", "282.0", "283.0", "284.0", "285.0", "286.0", "287.0", "288.0", "289.0", "290.0", "291.0", "292.0", "293.0", "294.0", "295.0", "296.0", "297.0", "298.0", "299.0", "300.0"], "x_labels_major": null, "x_labels_major_count": 11, "x_labels_major_every": null, "x_title": "T (BPM)", "xrange": null, "y_label_rotation": 0, "y_labels": null, "y_labels_major": null, "y_labels_major_count": null, "y_labels_major_every": null, "y_title": "Mean OE1 (TO)", "zero": 0, "legends": ["boeck2015/tempodetector2016_default", "davies2009/mirex_qm_tempotracker", "percival2014/stem", "schreiber2014/default", "schreiber2017/ismir2017", "schreiber2017/mirex2017"]}</script><script type="text/javascript" xlink:href="https://kozea.github.io/pygal.js/2.0.x/pygal-tooltips.min.js"/></defs><title>Mean OE1 for Tempo T ±10.0 BPM</title><g class="graph line-graph vertical"><rect class="background" height="600" width="800" x="0" y="0"/><g class="plot" transform="translate(121, 48)"><rect class="background" height="334.0" width="659.0" x="0" y="0"/><g class="axis y always_show"><g class="guides"><path class="guide line" d="M0.000000 327.576923 h659.000000"/><text class="" x="-5" y="332.8269230769231">-2.0000</text><title>-2.0000</title></g><g class="guides"><path class="guide line" d="M0.000000 301.884615 h659.000000"/><text class="" x="-5" y="307.13461538461536">-1.6000</text><title>-1.6000</title></g><g class="guides"><path class="guide line" d="M0.000000 276.192308 h659.000000"/><text class="" x="-5" y="281.4423076923077">-1.2000</text><title>-1.2000</title></g><g class="guides"><path class="guide line" d="M0.000000 250.500000 h659.000000"/><text class="" x="-5" y="255.75">-0.8000</text><title>-0.8000</title></g><g class="guides"><path class="guide line" d="M0.000000 224.807692 h659.000000"/><text class="" x="-5" y="230.0576923076923">-0.4000</text><title>-0.4000</title></g><g class="guides"><path class="major line" d="M0.000000 199.115385 h659.000000"/><text class="major" x="-5" y="204.3653846153846">0.0000</text><title>0.0000</title></g><g class="guides"><path class="guide line" d="M0.000000 173.423077 h659.000000"/><text class="" x="-5" y="178.67307692307693">0.4000</text><title>0.4000</title></g><g class="guides"><path class="guide line" d="M0.000000 147.730769 h659.000000"/><text class="" x="-5" y="152.9807692307692">0.8000</text><title>0.8000</title></g><g class="guides"><path class="guide line" d="M0.000000 122.038462 h659.000000"/><text class="" x="-5" y="127.28846153846155">1.2000</text><title>1.2000</title></g><g class="guides"><path class="guide line" d="M0.000000 96.346154 h659.000000"/><text class="" x="-5" y="101.59615384615387">1.6000</text><title>1.6000</title></g><g class="guides"><path class="guide line" d="M0.000000 70.653846 h659.000000"/><text class="" x="-5" y="75.90384615384619">2.0000</text><title>2.0000</title></g><g class="guides"><path class="guide line" d="M0.000000 44.961538 h659.000000"/><text class="" x="-5" y="50.21153846153845">2.4000</text><title>2.4000</title></g><g class="guides"><path class="guide line" d="M0.000000 19.269231 h659.000000"/><text class="" x="-5" y="24.519230769230774">2.8000</text><title>2.8000</title></g></g><g class="axis x always_show"><g class="guides"><path class="major line" d="M12.673077 0.000000 v334.000000"/><text class="major" x="12.673076923076922" y="351.5" transform="rotate(90 12.673077 351.500000)">0.0</text></g><g class="guides"><path class="major guide line" d="M76.038462 0.000000 v334.000000"/><text class="major" x="76.03846153846155" y="351.5" transform="rotate(90 76.038462 351.500000)">30.0</text></g><g class="guides"><path class="major guide line" d="M139.403846 0.000000 v334.000000"/><text class="major" x="139.40384615384613" y="351.5" transform="rotate(90 139.403846 351.500000)">60.0</text></g><g class="guides"><path class="major guide line" d="M202.769231 0.000000 v334.000000"/><text class="major" x="202.76923076923075" y="351.5" transform="rotate(90 202.769231 351.500000)">90.0</text></g><g class="guides"><path class="major guide line" d="M266.134615 0.000000 v334.000000"/><text class="major" x="266.1346153846154" y="351.5" transform="rotate(90 266.134615 351.500000)">120.0</text></g><g class="guides"><path class="major guide line" d="M329.500000 0.000000 v334.000000"/><text class="major" x="329.5" y="351.5" transform="rotate(90 329.500000 351.500000)">150.0</text></g><g class="guides"><path class="major guide line" d="M392.865385 0.000000 v334.000000"/><text class="major" x="392.8653846153846" y="351.5" transform="rotate(90 392.865385 351.500000)">180.0</text></g><g class="guides"><path class="major guide line" d="M456.230769 0.000000 v334.000000"/><text class="major" x="456.23076923076917" y="351.5" transform="rotate(90 456.230769 351.500000)">210.0</text></g><g class="guides"><path class="major guide line" d="M519.596154 0.000000 v334.000000"/><text class="major" x="519.5961538461538" y="351.5" transform="rotate(90 519.596154 351.500000)">240.0</text></g><g class="guides"><path class="major guide line" d="M582.961538 0.000000 v334.000000"/><text class="major" x="582.9615384615385" y="351.5" transform="rotate(90 582.961538 351.500000)">270.0</text></g><g class="guides"><path class="major guide line" d="M646.326923 0.000000 v334.000000"/><text class="major" x="646.3269230769231" y="351.5" transform="rotate(90 646.326923 351.500000)">300.0</text></g></g><g class="series serie-0 color-0"><path class="line reactive nofill" d="M12.673077 199.115385 L14.785256 199.115385 16.897436 199.115385 19.009615 199.115385 21.121795 199.115385 23.233974 199.115385 25.346154 199.115385 27.458333 199.115385 29.570513 199.115385 31.682692 199.115385 33.794872 199.115385 35.907051 199.115385 38.019231 199.115385 40.131410 199.115385 42.243590 199.115385 44.355769 199.115385 46.467949 199.115385 48.580128 199.115385 50.692308 199.115385 52.804487 199.115385 54.916667 199.115385 57.028846 199.115385 59.141026 199.115385 61.253205 199.115385 63.365385 199.115385 65.477564 199.115385 67.589744 199.115385 69.701923 199.115385 71.814103 161.262442 73.926282 161.262442 76.038462 161.262442 78.150641 161.262442 80.262821 161.262442 82.375000 161.262442 84.487179 161.262442 86.599359 161.262442 88.711538 148.073065 90.823718 148.073065 92.935897 148.073065 95.048077 148.073065 97.160256 148.073065 99.272436 148.073065 101.384615 148.073065 103.496795 148.073065 105.608974 164.950664 107.721154 164.950664 109.833333 164.950664 111.945513 164.950664 114.057692 177.569547 116.169872 183.126276 118.282051 177.693067 120.394231 177.693067 122.506410 177.693067 124.618590 175.066854 126.730769 166.782267 128.842949 166.782267 130.955128 170.326554 133.067308 173.184404 135.179487 173.184404 137.291667 173.184404 139.403846 173.184404 141.516026 175.475003 143.628205 172.046488 145.740385 174.213936 147.852564 174.245509 149.964744 173.353309 152.076923 173.353309 154.189103 173.353309 156.301282 171.512896 158.413462 169.337237 160.525641 166.855811 162.637821 170.907412 164.750000 170.907412 166.862179 171.438726 168.974359 177.737860 171.086538 177.737860 173.198718 177.737860 175.310897 175.813569 177.423077 177.698402 179.535256 179.398089 181.647436 179.398089 183.759615 180.825446 185.871795 184.401802 187.983974 184.316399 190.096154 184.166900 192.208333 187.187425 194.320513 188.119731 196.432692 188.119731 198.544872 188.119731 200.657051 188.119731 202.769231 188.132625 204.881410 198.875842 206.993590 198.875842 209.105769 198.825168 211.217949 198.825168 213.330128 198.782142 215.442308 198.782142 217.554487 198.782142 219.666667 198.839332 221.778846 204.135897 223.891026 204.135897 226.003205 204.711918 228.115385 204.711918 230.227564 205.271803 232.339744 206.171690 234.451923 205.553694 236.564103 204.968730 238.676282 205.082780 240.788462 205.082780 242.900641 205.082780 245.012821 205.179998 247.125000 205.812973 249.237179 204.578884 251.349359 205.148016 253.461538 205.148016 255.573718 205.831933 257.685897 205.831933 259.798077 205.161775 261.910256 205.766166 264.022436 199.367618 266.134615 199.367618 268.246795 199.293267 270.358974 199.293267 272.471154 199.293267 274.583333 199.293267 276.695513 199.193487 278.807692 199.093401 280.919872 199.020288 283.032051 199.020288 285.144231 199.020288 287.256410 199.020288 289.368590 198.562682 291.480769 198.665513 293.592949 198.665513 295.705128 198.665513 297.817308 198.665513 299.929487 198.665513 302.041667 198.768173 304.153846 198.768173 306.266026 198.768173 308.378205 198.768173 310.490385 198.768173 312.602564 220.293909 314.714744 220.293909 316.826923 220.293909 318.939103 220.293909 321.051282 231.231619 323.163462 263.345382 325.275641 263.344223 327.387821 263.344223 329.500000 263.344223 331.612179 263.344223 333.724359 263.344223 335.836538 263.344223 337.948718 263.344223 340.060897 263.344223 342.173077 263.344223 344.285256 263.344223 346.397436 263.344223 348.509615 263.344223 350.621795 263.344223 352.733974 263.344223 354.846154 263.343065 356.958333 263.343065 359.070513 263.343065 361.182692 263.343065 363.294872 263.343065 365.407051 263.343065 367.519231 199.115385 369.631410 199.115385 371.743590 199.115385 373.855769 199.115385 375.967949 199.115385 378.080128 199.115385 380.192308 199.115385 382.304487 199.115385 384.416667 199.115385 386.528846 199.115385 388.641026 199.115385 390.753205 199.115385 392.865385 199.115385 394.977564 199.115385 397.089744 199.115385 399.201923 199.115385 401.314103 199.115385 403.426282 199.115385 405.538462 199.115385 407.650641 199.115385 409.762821 199.115385 411.875000 199.115385 413.987179 199.115385 416.099359 199.115385 418.211538 199.115385 420.323718 199.115385 422.435897 199.115385 424.548077 199.115385 426.660256 199.115385 428.772436 199.115385 430.884615 199.115385 432.996795 199.115385 435.108974 199.115385 437.221154 199.115385 439.333333 199.115385 441.445513 199.115385 443.557692 199.115385 445.669872 199.115385 447.782051 199.115385 449.894231 199.115385 452.006410 199.115385 454.118590 199.115385 456.230769 199.115385 458.342949 199.115385 460.455128 199.115385 462.567308 199.115385 464.679487 199.115385 466.791667 199.115385 468.903846 199.115385 471.016026 199.115385 473.128205 199.115385 475.240385 199.115385 477.352564 199.115385 479.464744 199.115385 481.576923 199.115385 483.689103 199.115385 485.801282 199.115385 487.913462 199.115385 490.025641 199.115385 492.137821 199.115385 494.250000 199.115385 496.362179 199.115385 498.474359 199.115385 500.586538 199.115385 502.698718 199.115385 504.810897 199.115385 506.923077 199.115385 509.035256 199.115385 511.147436 199.115385 513.259615 199.115385 515.371795 199.115385 517.483974 199.115385 519.596154 199.115385 521.708333 199.115385 523.820513 199.115385 525.932692 199.115385 528.044872 199.115385 530.157051 199.115385 532.269231 199.115385 534.381410 199.115385 536.493590 199.115385 538.605769 199.115385 540.717949 199.115385 542.830128 199.115385 544.942308 199.115385 547.054487 199.115385 549.166667 199.115385 551.278846 199.115385 553.391026 199.115385 555.503205 199.115385 557.615385 199.115385 559.727564 199.115385 561.839744 199.115385 563.951923 199.115385 566.064103 199.115385 568.176282 199.115385 570.288462 199.115385 572.400641 199.115385 574.512821 199.115385 576.625000 199.115385 578.737179 199.115385 580.849359 199.115385 582.961538 199.115385 585.073718 199.115385 587.185897 199.115385 589.298077 199.115385 591.410256 199.115385 593.522436 199.115385 595.634615 199.115385 597.746795 199.115385 599.858974 199.115385 601.971154 199.115385 604.083333 199.115385 606.195513 199.115385 608.307692 199.115385 610.419872 199.115385 612.532051 199.115385 614.644231 199.115385 616.756410 199.115385 618.868590 199.115385 620.980769 199.115385 623.092949 199.115385 625.205128 199.115385 627.317308 199.115385 629.429487 199.115385 631.541667 199.115385 633.653846 199.115385 635.766026 199.115385 637.878205 199.115385 639.990385 199.115385 642.102564 199.115385 644.214744 199.115385 646.326923 199.115385"/></g><g class="series serie-1 color-1"><path class="line reactive nofill" d="M12.673077 199.115385 L14.785256 199.115385 16.897436 199.115385 19.009615 199.115385 21.121795 199.115385 23.233974 199.115385 25.346154 199.115385 27.458333 199.115385 29.570513 199.115385 31.682692 199.115385 33.794872 199.115385 35.907051 199.115385 38.019231 199.115385 40.131410 199.115385 42.243590 199.115385 44.355769 199.115385 46.467949 199.115385 48.580128 199.115385 50.692308 199.115385 52.804487 199.115385 54.916667 199.115385 57.028846 199.115385 59.141026 199.115385 61.253205 199.115385 63.365385 199.115385 65.477564 199.115385 67.589744 199.115385 69.701923 199.115385 71.814103 86.197724 73.926282 86.197724 76.038462 86.197724 78.150641 86.197724 80.262821 86.197724 82.375000 86.197724 84.487179 86.197724 86.599359 86.197724 88.711538 77.729793 90.823718 77.729793 92.935897 77.729793 95.048077 77.729793 97.160256 77.729793 99.272436 77.729793 101.384615 77.729793 103.496795 77.729793 105.608974 96.118780 107.721154 96.118780 109.833333 96.118780 111.945513 96.118780 114.057692 111.798678 116.169872 117.019010 118.282051 122.505378 120.394231 122.505378 122.506410 122.505378 124.618590 125.334601 126.730769 126.973293 128.842949 126.973293 130.955128 133.385675 133.067308 133.331566 135.179487 133.331566 137.291667 133.331566 139.403846 133.331566 141.516026 133.365106 143.628205 133.408272 145.740385 133.371691 147.852564 133.460860 149.964744 134.669257 152.076923 134.669257 154.189103 134.669257 156.301282 134.771531 158.413462 134.932418 160.525641 134.796539 162.637821 134.703678 164.750000 134.703678 166.862179 134.829594 168.974359 135.046515 171.086538 135.046515 173.198718 135.046515 175.310897 135.246691 177.423077 140.436950 179.535256 142.800516 181.647436 142.800516 183.759615 149.036188 185.871795 150.201810 187.983974 155.166085 190.096154 159.986653 192.208333 163.161710 194.320513 160.829213 196.432692 160.829213 198.544872 160.829213 200.657051 160.829213 202.769231 166.288728 204.881410 185.655250 206.993590 185.655250 209.105769 186.813861 211.217949 186.813861 213.330128 187.756460 215.442308 187.756460 217.554487 187.756460 219.666667 187.688386 221.778846 189.886776 223.891026 189.886776 226.003205 192.007015 228.115385 192.007015 230.227564 191.460888 232.339744 190.876172 234.451923 191.654936 236.564103 192.183414 238.676282 197.893141 240.788462 197.893141 242.900641 197.893141 245.012821 197.699766 247.125000 197.597777 249.237179 197.657772 251.349359 197.590299 253.461538 197.590299 255.573718 197.536824 257.685897 197.536824 259.798077 197.519817 261.910256 197.600508 264.022436 197.606787 266.134615 197.606787 268.246795 197.653099 270.358974 197.653099 272.471154 197.653099 274.583333 197.653099 276.695513 197.508711 278.807692 197.679561 280.919872 197.877384 283.032051 197.877384 285.144231 197.877384 287.256410 197.877384 289.368590 198.258577 291.480769 198.459131 293.592949 198.459131 295.705128 198.459131 297.817308 198.459131 299.929487 198.459131 302.041667 199.013821 304.153846 199.013821 306.266026 199.013821 308.378205 199.013821 310.490385 199.013821 312.602564 198.105187 314.714744 198.105187 316.826923 198.105187 318.939103 198.105187 321.051282 197.825711 323.163462 196.287919 325.275641 196.655906 327.387821 196.655906 329.500000 196.655906 331.612179 196.655906 333.724359 196.655906 335.836538 196.655906 337.948718 196.655906 340.060897 196.655906 342.173077 196.655906 344.285256 196.655906 346.397436 196.655906 348.509615 196.655906 350.621795 196.655906 352.733974 196.655906 354.846154 197.023893 356.958333 197.023893 359.070513 197.023893 361.182692 197.023893 363.294872 197.023893 365.407051 197.023893 367.519231 199.115385 369.631410 199.115385 371.743590 199.115385 373.855769 199.115385 375.967949 199.115385 378.080128 199.115385 380.192308 199.115385 382.304487 199.115385 384.416667 199.115385 386.528846 199.115385 388.641026 199.115385 390.753205 199.115385 392.865385 199.115385 394.977564 199.115385 397.089744 199.115385 399.201923 199.115385 401.314103 199.115385 403.426282 199.115385 405.538462 199.115385 407.650641 199.115385 409.762821 199.115385 411.875000 199.115385 413.987179 199.115385 416.099359 199.115385 418.211538 199.115385 420.323718 199.115385 422.435897 199.115385 424.548077 199.115385 426.660256 199.115385 428.772436 199.115385 430.884615 199.115385 432.996795 199.115385 435.108974 199.115385 437.221154 199.115385 439.333333 199.115385 441.445513 199.115385 443.557692 199.115385 445.669872 199.115385 447.782051 199.115385 449.894231 199.115385 452.006410 199.115385 454.118590 199.115385 456.230769 199.115385 458.342949 199.115385 460.455128 199.115385 462.567308 199.115385 464.679487 199.115385 466.791667 199.115385 468.903846 199.115385 471.016026 199.115385 473.128205 199.115385 475.240385 199.115385 477.352564 199.115385 479.464744 199.115385 481.576923 199.115385 483.689103 199.115385 485.801282 199.115385 487.913462 199.115385 490.025641 199.115385 492.137821 199.115385 494.250000 199.115385 496.362179 199.115385 498.474359 199.115385 500.586538 199.115385 502.698718 199.115385 504.810897 199.115385 506.923077 199.115385 509.035256 199.115385 511.147436 199.115385 513.259615 199.115385 515.371795 199.115385 517.483974 199.115385 519.596154 199.115385 521.708333 199.115385 523.820513 199.115385 525.932692 199.115385 528.044872 199.115385 530.157051 199.115385 532.269231 199.115385 534.381410 199.115385 536.493590 199.115385 538.605769 199.115385 540.717949 199.115385 542.830128 199.115385 544.942308 199.115385 547.054487 199.115385 549.166667 199.115385 551.278846 199.115385 553.391026 199.115385 555.503205 199.115385 557.615385 199.115385 559.727564 199.115385 561.839744 199.115385 563.951923 199.115385 566.064103 199.115385 568.176282 199.115385 570.288462 199.115385 572.400641 199.115385 574.512821 199.115385 576.625000 199.115385 578.737179 199.115385 580.849359 199.115385 582.961538 199.115385 585.073718 199.115385 587.185897 199.115385 589.298077 199.115385 591.410256 199.115385 593.522436 199.115385 595.634615 199.115385 597.746795 199.115385 599.858974 199.115385 601.971154 199.115385 604.083333 199.115385 606.195513 199.115385 608.307692 199.115385 610.419872 199.115385 612.532051 199.115385 614.644231 199.115385 616.756410 199.115385 618.868590 199.115385 620.980769 199.115385 623.092949 199.115385 625.205128 199.115385 627.317308 199.115385 629.429487 199.115385 631.541667 199.115385 633.653846 199.115385 635.766026 199.115385 637.878205 199.115385 639.990385 199.115385 642.102564 199.115385 644.214744 199.115385 646.326923 199.115385"/></g><g class="series serie-2 color-2"><path class="line reactive nofill" d="M12.673077 199.115385 L14.785256 199.115385 16.897436 199.115385 19.009615 199.115385 21.121795 199.115385 23.233974 199.115385 25.346154 199.115385 27.458333 199.115385 29.570513 199.115385 31.682692 199.115385 33.794872 199.115385 35.907051 199.115385 38.019231 199.115385 40.131410 199.115385 42.243590 199.115385 44.355769 199.115385 46.467949 199.115385 48.580128 199.115385 50.692308 199.115385 52.804487 199.115385 54.916667 199.115385 57.028846 199.115385 59.141026 199.115385 61.253205 199.115385 63.365385 199.115385 65.477564 199.115385 67.589744 199.115385 69.701923 199.115385 71.814103 119.924702 73.926282 119.924702 76.038462 119.924702 78.150641 119.924702 80.262821 119.924702 82.375000 119.924702 84.487179 119.924702 86.599359 119.924702 88.711538 127.528667 90.823718 127.528667 92.935897 127.528667 95.048077 127.528667 97.160256 127.528667 99.272436 127.528667 101.384615 127.528667 103.496795 127.528667 105.608974 151.217332 107.721154 151.217332 109.833333 151.217332 111.945513 151.217332 114.057692 177.930498 116.169872 183.142194 118.282051 177.790320 120.394231 177.790320 122.506410 177.790320 124.618590 175.072814 126.730769 167.051121 128.842949 167.051121 130.955128 170.597620 133.067308 166.883089 135.179487 166.883089 137.291667 166.883089 139.403846 166.883089 141.516026 169.734867 143.628205 172.153244 145.740385 174.253113 147.852564 174.305379 149.964744 173.568461 152.076923 173.568461 154.189103 173.568461 156.301282 171.675908 158.413462 169.591187 160.525641 176.271308 162.637821 179.143973 164.750000 179.143973 166.862179 180.890213 168.974359 188.544523 171.086538 188.544523 173.198718 188.544523 175.310897 193.552906 177.423077 193.983530 179.535256 194.391804 181.647436 194.391804 183.759615 194.792785 185.871795 194.487969 187.983974 194.463848 190.096154 194.333331 192.208333 198.979664 194.320513 199.050559 196.432692 199.050559 198.544872 199.050559 200.657051 199.050559 202.769231 199.111680 204.881410 199.065508 206.993590 199.065508 209.105769 199.047002 211.217949 199.047002 213.330128 199.009516 215.442308 199.009516 217.554487 199.009516 219.666667 198.964473 221.778846 198.961347 223.891026 198.961347 226.003205 198.999876 228.115385 198.999876 230.227564 198.986067 232.339744 199.142587 234.451923 199.146089 236.564103 204.927909 238.676282 204.854786 240.788462 204.854786 242.900641 204.854786 245.012821 204.779053 247.125000 205.377341 249.237179 204.300800 251.349359 204.795242 253.461538 204.795242 255.573718 205.415049 257.685897 205.415049 259.798077 204.889840 261.910256 205.560836 264.022436 206.261642 266.134615 206.261642 268.246795 207.079267 270.358974 207.079267 272.471154 207.079267 274.583333 207.079267 276.695513 208.208075 278.807692 199.053508 280.919872 199.188533 283.032051 199.188533 285.144231 199.188533 287.256410 199.188533 289.368590 199.221865 291.480769 199.424375 293.592949 199.424375 295.705128 199.424375 297.817308 199.424375 299.929487 199.424375 302.041667 199.317684 304.153846 199.317684 306.266026 199.317684 308.378205 199.317684 310.490385 199.317684 312.602564 220.640125 314.714744 220.640125 316.826923 220.640125 318.939103 220.640125 321.051282 231.628118 323.163462 263.285007 325.275641 263.343212 327.387821 263.343212 329.500000 263.343212 331.612179 263.343212 333.724359 263.343212 335.836538 263.343212 337.948718 263.343212 340.060897 263.343212 342.173077 263.343212 344.285256 263.343212 346.397436 263.343212 348.509615 263.343212 350.621795 263.343212 352.733974 263.343212 354.846154 263.401417 356.958333 263.401417 359.070513 263.401417 361.182692 263.401417 363.294872 263.401417 365.407051 263.401417 367.519231 199.115385 369.631410 199.115385 371.743590 199.115385 373.855769 199.115385 375.967949 199.115385 378.080128 199.115385 380.192308 199.115385 382.304487 199.115385 384.416667 199.115385 386.528846 199.115385 388.641026 199.115385 390.753205 199.115385 392.865385 199.115385 394.977564 199.115385 397.089744 199.115385 399.201923 199.115385 401.314103 199.115385 403.426282 199.115385 405.538462 199.115385 407.650641 199.115385 409.762821 199.115385 411.875000 199.115385 413.987179 199.115385 416.099359 199.115385 418.211538 199.115385 420.323718 199.115385 422.435897 199.115385 424.548077 199.115385 426.660256 199.115385 428.772436 199.115385 430.884615 199.115385 432.996795 199.115385 435.108974 199.115385 437.221154 199.115385 439.333333 199.115385 441.445513 199.115385 443.557692 199.115385 445.669872 199.115385 447.782051 199.115385 449.894231 199.115385 452.006410 199.115385 454.118590 199.115385 456.230769 199.115385 458.342949 199.115385 460.455128 199.115385 462.567308 199.115385 464.679487 199.115385 466.791667 199.115385 468.903846 199.115385 471.016026 199.115385 473.128205 199.115385 475.240385 199.115385 477.352564 199.115385 479.464744 199.115385 481.576923 199.115385 483.689103 199.115385 485.801282 199.115385 487.913462 199.115385 490.025641 199.115385 492.137821 199.115385 494.250000 199.115385 496.362179 199.115385 498.474359 199.115385 500.586538 199.115385 502.698718 199.115385 504.810897 199.115385 506.923077 199.115385 509.035256 199.115385 511.147436 199.115385 513.259615 199.115385 515.371795 199.115385 517.483974 199.115385 519.596154 199.115385 521.708333 199.115385 523.820513 199.115385 525.932692 199.115385 528.044872 199.115385 530.157051 199.115385 532.269231 199.115385 534.381410 199.115385 536.493590 199.115385 538.605769 199.115385 540.717949 199.115385 542.830128 199.115385 544.942308 199.115385 547.054487 199.115385 549.166667 199.115385 551.278846 199.115385 553.391026 199.115385 555.503205 199.115385 557.615385 199.115385 559.727564 199.115385 561.839744 199.115385 563.951923 199.115385 566.064103 199.115385 568.176282 199.115385 570.288462 199.115385 572.400641 199.115385 574.512821 199.115385 576.625000 199.115385 578.737179 199.115385 580.849359 199.115385 582.961538 199.115385 585.073718 199.115385 587.185897 199.115385 589.298077 199.115385 591.410256 199.115385 593.522436 199.115385 595.634615 199.115385 597.746795 199.115385 599.858974 199.115385 601.971154 199.115385 604.083333 199.115385 606.195513 199.115385 608.307692 199.115385 610.419872 199.115385 612.532051 199.115385 614.644231 199.115385 616.756410 199.115385 618.868590 199.115385 620.980769 199.115385 623.092949 199.115385 625.205128 199.115385 627.317308 199.115385 629.429487 199.115385 631.541667 199.115385 633.653846 199.115385 635.766026 199.115385 637.878205 199.115385 639.990385 199.115385 642.102564 199.115385 644.214744 199.115385 646.326923 199.115385"/></g><g class="series serie-3 color-3"><path class="line reactive nofill" d="M12.673077 199.115385 L14.785256 199.115385 16.897436 199.115385 19.009615 199.115385 21.121795 199.115385 23.233974 199.115385 25.346154 199.115385 27.458333 199.115385 29.570513 199.115385 31.682692 199.115385 33.794872 199.115385 35.907051 199.115385 38.019231 199.115385 40.131410 199.115385 42.243590 199.115385 44.355769 199.115385 46.467949 199.115385 48.580128 199.115385 50.692308 199.115385 52.804487 199.115385 54.916667 199.115385 57.028846 199.115385 59.141026 199.115385 61.253205 199.115385 63.365385 199.115385 65.477564 199.115385 67.589744 199.115385 69.701923 199.115385 71.814103 95.037728 73.926282 95.037728 76.038462 95.037728 78.150641 95.037728 80.262821 95.037728 82.375000 95.037728 84.487179 95.037728 86.599359 95.037728 88.711538 114.276413 90.823718 114.276413 92.935897 114.276413 95.048077 114.276413 97.160256 114.276413 99.272436 114.276413 101.384615 114.276413 103.496795 114.276413 105.608974 141.396517 107.721154 141.396517 109.833333 141.396517 111.945513 141.396517 114.057692 177.015068 116.169872 183.725875 118.282051 177.885957 120.394231 177.885957 122.506410 177.885957 124.618590 174.951620 126.730769 171.752554 128.842949 171.752554 130.955128 176.001161 133.067308 178.302024 135.179487 178.302024 137.291667 178.302024 139.403846 178.302024 141.516026 177.165294 143.628205 179.136756 145.740385 175.869840 147.852564 176.264478 149.964744 179.600663 152.076923 179.600663 154.189103 179.600663 156.301282 178.008326 158.413462 176.019867 160.525641 177.967830 162.637821 184.891061 164.750000 184.891061 166.862179 187.568554 168.974359 192.337264 171.086538 192.337264 173.198718 192.337264 175.310897 191.730671 177.423077 192.854372 179.535256 193.199554 181.647436 193.199554 183.759615 194.800613 185.871795 194.337365 187.983974 199.616812 190.096154 197.795671 192.208333 197.161091 194.320513 197.460863 196.432692 197.460863 198.544872 197.460863 200.657051 197.460863 202.769231 197.575730 204.881410 196.864774 206.993590 196.864774 209.105769 197.330081 211.217949 197.330081 213.330128 197.544817 215.442308 197.544817 217.554487 197.544817 219.666667 197.242116 221.778846 197.400853 223.891026 197.400853 226.003205 199.041178 228.115385 199.041178 230.227564 198.415330 232.339744 200.784568 234.451923 200.635435 236.564103 206.306034 238.676282 206.158382 240.788462 206.158382 242.900641 206.158382 245.012821 209.866267 247.125000 210.873871 249.237179 208.859205 251.349359 209.484301 253.461538 209.484301 255.573718 210.442040 257.685897 210.442040 259.798077 213.252423 261.910256 214.419397 264.022436 216.105266 266.134615 216.105266 268.246795 217.861537 270.358974 217.861537 272.471154 217.861537 274.583333 217.861537 276.695513 220.514150 278.807692 216.848410 280.919872 222.595759 283.032051 222.595759 285.144231 222.595759 287.256410 222.595759 289.368590 223.129093 291.480769 239.357906 293.592949 239.357906 295.705128 239.357906 297.817308 239.357906 299.929487 239.357906 302.041667 238.358733 304.153846 238.358733 306.266026 238.358733 308.378205 238.358733 310.490385 238.358733 312.602564 246.667947 314.714744 246.667947 316.826923 246.667947 318.939103 246.667947 321.051282 251.326000 323.163462 263.286373 325.275641 263.288347 327.387821 263.288347 329.500000 263.288347 331.612179 263.288347 333.724359 263.288347 335.836538 263.288347 337.948718 263.288347 340.060897 263.288347 342.173077 263.288347 344.285256 263.288347 346.397436 263.288347 348.509615 263.288347 350.621795 263.288347 352.733974 263.288347 354.846154 263.290321 356.958333 263.290321 359.070513 263.290321 361.182692 263.290321 363.294872 263.290321 365.407051 263.290321 367.519231 199.115385 369.631410 199.115385 371.743590 199.115385 373.855769 199.115385 375.967949 199.115385 378.080128 199.115385 380.192308 199.115385 382.304487 199.115385 384.416667 199.115385 386.528846 199.115385 388.641026 199.115385 390.753205 199.115385 392.865385 199.115385 394.977564 199.115385 397.089744 199.115385 399.201923 199.115385 401.314103 199.115385 403.426282 199.115385 405.538462 199.115385 407.650641 199.115385 409.762821 199.115385 411.875000 199.115385 413.987179 199.115385 416.099359 199.115385 418.211538 199.115385 420.323718 199.115385 422.435897 199.115385 424.548077 199.115385 426.660256 199.115385 428.772436 199.115385 430.884615 199.115385 432.996795 199.115385 435.108974 199.115385 437.221154 199.115385 439.333333 199.115385 441.445513 199.115385 443.557692 199.115385 445.669872 199.115385 447.782051 199.115385 449.894231 199.115385 452.006410 199.115385 454.118590 199.115385 456.230769 199.115385 458.342949 199.115385 460.455128 199.115385 462.567308 199.115385 464.679487 199.115385 466.791667 199.115385 468.903846 199.115385 471.016026 199.115385 473.128205 199.115385 475.240385 199.115385 477.352564 199.115385 479.464744 199.115385 481.576923 199.115385 483.689103 199.115385 485.801282 199.115385 487.913462 199.115385 490.025641 199.115385 492.137821 199.115385 494.250000 199.115385 496.362179 199.115385 498.474359 199.115385 500.586538 199.115385 502.698718 199.115385 504.810897 199.115385 506.923077 199.115385 509.035256 199.115385 511.147436 199.115385 513.259615 199.115385 515.371795 199.115385 517.483974 199.115385 519.596154 199.115385 521.708333 199.115385 523.820513 199.115385 525.932692 199.115385 528.044872 199.115385 530.157051 199.115385 532.269231 199.115385 534.381410 199.115385 536.493590 199.115385 538.605769 199.115385 540.717949 199.115385 542.830128 199.115385 544.942308 199.115385 547.054487 199.115385 549.166667 199.115385 551.278846 199.115385 553.391026 199.115385 555.503205 199.115385 557.615385 199.115385 559.727564 199.115385 561.839744 199.115385 563.951923 199.115385 566.064103 199.115385 568.176282 199.115385 570.288462 199.115385 572.400641 199.115385 574.512821 199.115385 576.625000 199.115385 578.737179 199.115385 580.849359 199.115385 582.961538 199.115385 585.073718 199.115385 587.185897 199.115385 589.298077 199.115385 591.410256 199.115385 593.522436 199.115385 595.634615 199.115385 597.746795 199.115385 599.858974 199.115385 601.971154 199.115385 604.083333 199.115385 606.195513 199.115385 608.307692 199.115385 610.419872 199.115385 612.532051 199.115385 614.644231 199.115385 616.756410 199.115385 618.868590 199.115385 620.980769 199.115385 623.092949 199.115385 625.205128 199.115385 627.317308 199.115385 629.429487 199.115385 631.541667 199.115385 633.653846 199.115385 635.766026 199.115385 637.878205 199.115385 639.990385 199.115385 642.102564 199.115385 644.214744 199.115385 646.326923 199.115385"/></g><g class="series serie-4 color-4"><path class="line reactive nofill" d="M12.673077 199.115385 L14.785256 199.115385 16.897436 199.115385 19.009615 199.115385 21.121795 199.115385 23.233974 199.115385 25.346154 199.115385 27.458333 199.115385 29.570513 199.115385 31.682692 199.115385 33.794872 199.115385 35.907051 199.115385 38.019231 199.115385 40.131410 199.115385 42.243590 199.115385 44.355769 199.115385 46.467949 199.115385 48.580128 199.115385 50.692308 199.115385 52.804487 199.115385 54.916667 199.115385 57.028846 199.115385 59.141026 199.115385 61.253205 199.115385 63.365385 199.115385 65.477564 199.115385 67.589744 199.115385 69.701923 199.115385 71.814103 65.777716 73.926282 65.777716 76.038462 65.777716 78.150641 65.777716 80.262821 65.777716 82.375000 65.777716 84.487179 65.777716 86.599359 65.777716 88.711538 100.124068 90.823718 100.124068 92.935897 100.124068 95.048077 100.124068 97.160256 100.124068 99.272436 100.124068 101.384615 100.124068 103.496795 100.124068 105.608974 111.368625 107.721154 111.368625 109.833333 111.368625 111.945513 111.368625 114.057692 156.784049 116.169872 167.810966 118.282051 167.528463 120.394231 167.528463 122.506410 167.528463 124.618590 175.333287 126.730769 166.895321 128.842949 166.895321 130.955128 170.498087 133.067308 173.387742 135.179487 173.387742 137.291667 173.387742 139.403846 173.387742 141.516026 175.419811 143.628205 177.484495 145.740385 179.130645 147.852564 184.199737 149.964744 186.349327 152.076923 186.349327 154.189103 186.349327 156.301282 185.229709 158.413462 184.024939 160.525641 180.509327 162.637821 186.862354 164.750000 186.862354 166.862179 185.164439 168.974359 193.834603 171.086538 193.834603 173.198718 193.834603 175.310897 193.329145 177.423077 193.942876 179.535256 194.294854 181.647436 194.294854 183.759615 197.304183 185.871795 197.081735 187.983974 197.048358 190.096154 200.283939 192.208333 200.277080 194.320513 205.310224 196.432692 205.310224 198.544872 205.310224 200.657051 205.310224 202.769231 205.385194 204.881410 213.036352 206.993590 213.036352 209.105769 211.703942 211.217949 211.703942 213.330128 210.665142 215.442308 210.665142 217.554487 210.665142 219.666667 210.503529 221.778846 210.561374 223.891026 210.561374 226.003205 208.364981 228.115385 208.364981 230.227564 209.356423 232.339744 205.749527 234.451923 205.110306 236.564103 204.520608 238.676282 198.926006 240.788462 198.926006 242.900641 198.926006 245.012821 207.755570 247.125000 208.626397 249.237179 207.043966 251.349359 207.831613 253.461538 207.831613 255.573718 208.690941 257.685897 208.690941 259.798077 207.726499 261.910256 208.623694 264.022436 209.669356 266.134615 209.669356 268.246795 211.197493 270.358974 211.197493 272.471154 211.197493 274.583333 211.197493 276.695513 212.888947 278.807692 227.412224 280.919872 242.077888 283.032051 242.077888 285.144231 242.077888 287.256410 242.077888 289.368590 239.685221 291.480769 266.720828 293.592949 266.720828 295.705128 266.720828 297.817308 266.720828 299.929487 266.720828 302.041667 301.040199 304.153846 301.040199 306.266026 301.040199 308.378205 301.040199 310.490385 301.040199 312.602564 267.045332 314.714744 267.045332 316.826923 267.045332 318.939103 267.045332 321.051282 250.424713 323.163462 199.055597 325.275641 199.057575 327.387821 199.057575 329.500000 199.057575 331.612179 199.057575 333.724359 199.057575 335.836538 199.057575 337.948718 199.057575 340.060897 199.057575 342.173077 199.057575 344.285256 199.057575 346.397436 199.057575 348.509615 199.057575 350.621795 199.057575 352.733974 199.057575 354.846154 199.059552 356.958333 199.059552 359.070513 199.059552 361.182692 199.059552 363.294872 199.059552 365.407051 199.059552 367.519231 199.115385 369.631410 199.115385 371.743590 199.115385 373.855769 199.115385 375.967949 199.115385 378.080128 199.115385 380.192308 199.115385 382.304487 199.115385 384.416667 199.115385 386.528846 199.115385 388.641026 199.115385 390.753205 199.115385 392.865385 199.115385 394.977564 199.115385 397.089744 199.115385 399.201923 199.115385 401.314103 199.115385 403.426282 199.115385 405.538462 199.115385 407.650641 199.115385 409.762821 199.115385 411.875000 199.115385 413.987179 199.115385 416.099359 199.115385 418.211538 199.115385 420.323718 199.115385 422.435897 199.115385 424.548077 199.115385 426.660256 199.115385 428.772436 199.115385 430.884615 199.115385 432.996795 199.115385 435.108974 199.115385 437.221154 199.115385 439.333333 199.115385 441.445513 199.115385 443.557692 199.115385 445.669872 199.115385 447.782051 199.115385 449.894231 199.115385 452.006410 199.115385 454.118590 199.115385 456.230769 199.115385 458.342949 199.115385 460.455128 199.115385 462.567308 199.115385 464.679487 199.115385 466.791667 199.115385 468.903846 199.115385 471.016026 199.115385 473.128205 199.115385 475.240385 199.115385 477.352564 199.115385 479.464744 199.115385 481.576923 199.115385 483.689103 199.115385 485.801282 199.115385 487.913462 199.115385 490.025641 199.115385 492.137821 199.115385 494.250000 199.115385 496.362179 199.115385 498.474359 199.115385 500.586538 199.115385 502.698718 199.115385 504.810897 199.115385 506.923077 199.115385 509.035256 199.115385 511.147436 199.115385 513.259615 199.115385 515.371795 199.115385 517.483974 199.115385 519.596154 199.115385 521.708333 199.115385 523.820513 199.115385 525.932692 199.115385 528.044872 199.115385 530.157051 199.115385 532.269231 199.115385 534.381410 199.115385 536.493590 199.115385 538.605769 199.115385 540.717949 199.115385 542.830128 199.115385 544.942308 199.115385 547.054487 199.115385 549.166667 199.115385 551.278846 199.115385 553.391026 199.115385 555.503205 199.115385 557.615385 199.115385 559.727564 199.115385 561.839744 199.115385 563.951923 199.115385 566.064103 199.115385 568.176282 199.115385 570.288462 199.115385 572.400641 199.115385 574.512821 199.115385 576.625000 199.115385 578.737179 199.115385 580.849359 199.115385 582.961538 199.115385 585.073718 199.115385 587.185897 199.115385 589.298077 199.115385 591.410256 199.115385 593.522436 199.115385 595.634615 199.115385 597.746795 199.115385 599.858974 199.115385 601.971154 199.115385 604.083333 199.115385 606.195513 199.115385 608.307692 199.115385 610.419872 199.115385 612.532051 199.115385 614.644231 199.115385 616.756410 199.115385 618.868590 199.115385 620.980769 199.115385 623.092949 199.115385 625.205128 199.115385 627.317308 199.115385 629.429487 199.115385 631.541667 199.115385 633.653846 199.115385 635.766026 199.115385 637.878205 199.115385 639.990385 199.115385 642.102564 199.115385 644.214744 199.115385 646.326923 199.115385"/></g><g class="series serie-5 color-5"><path class="line reactive nofill" d="M12.673077 199.115385 L14.785256 199.115385 16.897436 199.115385 19.009615 199.115385 21.121795 199.115385 23.233974 199.115385 25.346154 199.115385 27.458333 199.115385 29.570513 199.115385 31.682692 199.115385 33.794872 199.115385 35.907051 199.115385 38.019231 199.115385 40.131410 199.115385 42.243590 199.115385 44.355769 199.115385 46.467949 199.115385 48.580128 199.115385 50.692308 199.115385 52.804487 199.115385 54.916667 199.115385 57.028846 199.115385 59.141026 199.115385 61.253205 199.115385 63.365385 199.115385 65.477564 199.115385 67.589744 199.115385 69.701923 199.115385 71.814103 65.777716 73.926282 65.777716 76.038462 65.777716 78.150641 65.777716 80.262821 65.777716 82.375000 65.777716 84.487179 65.777716 86.599359 65.777716 88.711538 100.124068 90.823718 100.124068 92.935897 100.124068 95.048077 100.124068 97.160256 100.124068 99.272436 100.124068 101.384615 100.124068 103.496795 100.124068 105.608974 132.778881 107.721154 132.778881 109.833333 132.778881 111.945513 132.778881 114.057692 178.194305 116.169872 183.868658 118.282051 178.233591 120.394231 178.233591 122.506410 178.233591 124.618590 183.362133 126.730769 173.318398 128.842949 173.318398 130.955128 177.634840 133.067308 179.810819 135.179487 179.810819 137.291667 179.810819 139.403846 179.810819 141.516026 181.258972 143.628205 182.837059 145.740385 184.071473 147.852564 184.199737 149.964744 186.349327 152.076923 186.349327 154.189103 186.349327 156.301282 185.229709 158.413462 184.024939 160.525641 180.509327 162.637821 186.862354 164.750000 186.862354 166.862179 185.164439 168.974359 193.834603 171.086538 193.834603 173.198718 193.834603 175.310897 193.329145 177.423077 199.295440 179.535256 199.235683 181.647436 199.235683 183.759615 206.480007 185.871795 206.963391 187.983974 206.930015 190.096154 210.165596 192.208333 211.955402 194.320513 216.015352 196.432692 216.015352 198.544872 216.015352 200.657051 216.015352 202.769231 216.090321 204.881410 225.882506 206.993590 225.882506 209.105769 223.382264 211.217949 223.382264 213.330128 221.370270 215.442308 221.370270 217.554487 221.370270 219.666667 215.856093 221.778846 215.913938 223.891026 215.913938 226.003205 208.364981 228.115385 208.364981 230.227564 209.356423 232.339744 205.749527 234.451923 205.110306 236.564103 204.520608 238.676282 198.926006 240.788462 198.926006 242.900641 198.926006 245.012821 207.755570 247.125000 208.626397 249.237179 207.043966 251.349359 207.831613 253.461538 207.831613 255.573718 208.690941 257.685897 208.690941 259.798077 207.726499 261.910256 208.623694 264.022436 209.669356 266.134615 209.669356 268.246795 211.197493 270.358974 211.197493 272.471154 211.197493 274.583333 211.197493 276.695513 212.888947 278.807692 227.412224 280.919872 242.077888 283.032051 242.077888 285.144231 242.077888 287.256410 242.077888 289.368590 239.685221 291.480769 266.720828 293.592949 266.720828 295.705128 266.720828 297.817308 266.720828 299.929487 266.720828 302.041667 301.040199 304.153846 301.040199 306.266026 301.040199 308.378205 301.040199 310.490385 301.040199 312.602564 267.045332 314.714744 267.045332 316.826923 267.045332 318.939103 267.045332 321.051282 250.424713 323.163462 199.055597 325.275641 199.057575 327.387821 199.057575 329.500000 199.057575 331.612179 199.057575 333.724359 199.057575 335.836538 199.057575 337.948718 199.057575 340.060897 199.057575 342.173077 199.057575 344.285256 199.057575 346.397436 199.057575 348.509615 199.057575 350.621795 199.057575 352.733974 199.057575 354.846154 199.059552 356.958333 199.059552 359.070513 199.059552 361.182692 199.059552 363.294872 199.059552 365.407051 199.059552 367.519231 199.115385 369.631410 199.115385 371.743590 199.115385 373.855769 199.115385 375.967949 199.115385 378.080128 199.115385 380.192308 199.115385 382.304487 199.115385 384.416667 199.115385 386.528846 199.115385 388.641026 199.115385 390.753205 199.115385 392.865385 199.115385 394.977564 199.115385 397.089744 199.115385 399.201923 199.115385 401.314103 199.115385 403.426282 199.115385 405.538462 199.115385 407.650641 199.115385 409.762821 199.115385 411.875000 199.115385 413.987179 199.115385 416.099359 199.115385 418.211538 199.115385 420.323718 199.115385 422.435897 199.115385 424.548077 199.115385 426.660256 199.115385 428.772436 199.115385 430.884615 199.115385 432.996795 199.115385 435.108974 199.115385 437.221154 199.115385 439.333333 199.115385 441.445513 199.115385 443.557692 199.115385 445.669872 199.115385 447.782051 199.115385 449.894231 199.115385 452.006410 199.115385 454.118590 199.115385 456.230769 199.115385 458.342949 199.115385 460.455128 199.115385 462.567308 199.115385 464.679487 199.115385 466.791667 199.115385 468.903846 199.115385 471.016026 199.115385 473.128205 199.115385 475.240385 199.115385 477.352564 199.115385 479.464744 199.115385 481.576923 199.115385 483.689103 199.115385 485.801282 199.115385 487.913462 199.115385 490.025641 199.115385 492.137821 199.115385 494.250000 199.115385 496.362179 199.115385 498.474359 199.115385 500.586538 199.115385 502.698718 199.115385 504.810897 199.115385 506.923077 199.115385 509.035256 199.115385 511.147436 199.115385 513.259615 199.115385 515.371795 199.115385 517.483974 199.115385 519.596154 199.115385 521.708333 199.115385 523.820513 199.115385 525.932692 199.115385 528.044872 199.115385 530.157051 199.115385 532.269231 199.115385 534.381410 199.115385 536.493590 199.115385 538.605769 199.115385 540.717949 199.115385 542.830128 199.115385 544.942308 199.115385 547.054487 199.115385 549.166667 199.115385 551.278846 199.115385 553.391026 199.115385 555.503205 199.115385 557.615385 199.115385 559.727564 199.115385 561.839744 199.115385 563.951923 199.115385 566.064103 199.115385 568.176282 199.115385 570.288462 199.115385 572.400641 199.115385 574.512821 199.115385 576.625000 199.115385 578.737179 199.115385 580.849359 199.115385 582.961538 199.115385 585.073718 199.115385 587.185897 199.115385 589.298077 199.115385 591.410256 199.115385 593.522436 199.115385 595.634615 199.115385 597.746795 199.115385 599.858974 199.115385 601.971154 199.115385 604.083333 199.115385 606.195513 199.115385 608.307692 199.115385 610.419872 199.115385 612.532051 199.115385 614.644231 199.115385 616.756410 199.115385 618.868590 199.115385 620.980769 199.115385 623.092949 199.115385 625.205128 199.115385 627.317308 199.115385 629.429487 199.115385 631.541667 199.115385 633.653846 199.115385 635.766026 199.115385 637.878205 199.115385 639.990385 199.115385 642.102564 199.115385 644.214744 199.115385 646.326923 199.115385"/></g></g><g class="titles"><text class="title plot_title" x="400.0" y="28">Mean OE1 for Tempo T ±10.0 BPM</text><text class="title" x="450.5" y="465.0">T (BPM)</text><text class="title" x="0" y="243.0" transform="rotate(-90 0.000000 215.000000)">Mean OE1 (TO)</text></g><g class="plot overlay" transform="translate(121, 48)"><g class="series serie-0 color-0"><g class="dots"><circle class="dot reactive tooltip-trigger" cx="12.673076923076922" cy="199.1153846153846" r="2.5"/><desc class="value">0.0000</desc><desc class="x top">12.673076923076922</desc><desc class="y top">199.1153846153846</desc><desc class="x_label">0.0</desc></g><g class="dots"><circle class="dot reactive tooltip-trigger" cx="76.03846153846155" cy="161.2624415424482" r="2.5"/><desc class="value">0.5893</desc><desc class="x ">76.03846153846155</desc><desc class="y ">161.2624415424482</desc><desc class="x_label">30.0</desc></g><g class="dots"><circle class="dot reactive tooltip-trigger" cx="139.40384615384613" cy="173.18440418293716" r="2.5"/><desc class="value">0.4037</desc><desc class="x top">139.40384615384613</desc><desc class="y top">173.18440418293716</desc><desc class="x_label">60.0</desc></g><g class="dots"><circle class="dot reactive tooltip-trigger" cx="202.76923076923075" cy="188.13262518466092" r="2.5"/><desc class="value">0.1710</desc><desc class="x top">202.76923076923075</desc><desc class="y top">188.13262518466092</desc><desc class="x_label">90.0</desc></g><g class="dots"><circle class="dot reactive tooltip-trigger" cx="266.1346153846154" cy="199.36761784570237" r="2.5"/><desc class="value">-0.0039</desc><desc class="x top">266.1346153846154</desc><desc class="y top">199.36761784570237</desc><desc class="x_label">120.0</desc></g><g class="dots"><circle class="dot reactive tooltip-trigger" cx="329.5" cy="263.3442233440809" r="2.5"/><desc class="value">-1.0000</desc><desc class="x top">329.5</desc><desc class="y top">263.3442233440809</desc><desc class="x_label">150.0</desc></g><g class="dots"><circle class="dot reactive tooltip-trigger" cx="392.8653846153846" cy="199.1153846153846" r="2.5"/><desc class="value">0.0000</desc><desc class="x left top">392.8653846153846</desc><desc class="y left top">199.1153846153846</desc><desc class="x_label">180.0</desc></g><g class="dots"><circle class="dot reactive tooltip-trigger" cx="456.23076923076917" cy="199.1153846153846" r="2.5"/><desc class="value">0.0000</desc><desc class="x left top">456.23076923076917</desc><desc class="y left top">199.1153846153846</desc><desc class="x_label">210.0</desc></g><g class="dots"><circle class="dot reactive tooltip-trigger" cx="519.5961538461538" cy="199.1153846153846" r="2.5"/><desc class="value">0.0000</desc><desc class="x left top">519.5961538461538</desc><desc class="y left top">199.1153846153846</desc><desc class="x_label">240.0</desc></g><g class="dots"><circle class="dot reactive tooltip-trigger" cx="582.9615384615385" cy="199.1153846153846" r="2.5"/><desc class="value">0.0000</desc><desc class="x left top">582.9615384615385</desc><desc class="y left top">199.1153846153846</desc><desc class="x_label">270.0</desc></g><g class="dots"><circle class="dot reactive tooltip-trigger" cx="646.3269230769231" cy="199.1153846153846" r="2.5"/><desc class="value">0.0000</desc><desc class="x left top">646.3269230769231</desc><desc class="y left top">199.1153846153846</desc><desc class="x_label">300.0</desc></g></g><g class="series serie-1 color-1"><g class="dots"><circle class="dot reactive tooltip-trigger" cx="12.673076923076922" cy="199.1153846153846" r="2.5"/><desc class="value">0.0000</desc><desc class="x top">12.673076923076922</desc><desc class="y top">199.1153846153846</desc><desc class="x_label">0.0</desc></g><g class="dots"><circle class="dot reactive tooltip-trigger" cx="76.03846153846155" cy="86.19772380110925" r="2.5"/><desc class="value">1.7580</desc><desc class="x ">76.03846153846155</desc><desc class="y ">86.19772380110925</desc><desc class="x_label">30.0</desc></g><g class="dots"><circle class="dot reactive tooltip-trigger" cx="139.40384615384613" cy="133.33156551015304" r="2.5"/><desc class="value">1.0242</desc><desc class="x ">139.40384615384613</desc><desc class="y ">133.33156551015304</desc><desc class="x_label">60.0</desc></g><g class="dots"><circle class="dot reactive tooltip-trigger" cx="202.76923076923075" cy="166.28872810343344" r="2.5"/><desc class="value">0.5111</desc><desc class="x ">202.76923076923075</desc><desc class="y ">166.28872810343344</desc><desc class="x_label">90.0</desc></g><g class="dots"><circle class="dot reactive tooltip-trigger" cx="266.1346153846154" cy="197.60678700392467" r="2.5"/><desc class="value">0.0235</desc><desc class="x top">266.1346153846154</desc><desc class="y top">197.60678700392467</desc><desc class="x_label">120.0</desc></g><g class="dots"><circle class="dot reactive tooltip-trigger" cx="329.5" cy="196.65590569529078" r="2.5"/><desc class="value">0.0383</desc><desc class="x top">329.5</desc><desc class="y top">196.65590569529078</desc><desc class="x_label">150.0</desc></g><g class="dots"><circle class="dot reactive tooltip-trigger" cx="392.8653846153846" cy="199.1153846153846" r="2.5"/><desc class="value">0.0000</desc><desc class="x left top">392.8653846153846</desc><desc class="y left top">199.1153846153846</desc><desc class="x_label">180.0</desc></g><g class="dots"><circle class="dot reactive tooltip-trigger" cx="456.23076923076917" cy="199.1153846153846" r="2.5"/><desc class="value">0.0000</desc><desc class="x left top">456.23076923076917</desc><desc class="y left top">199.1153846153846</desc><desc class="x_label">210.0</desc></g><g class="dots"><circle class="dot reactive tooltip-trigger" cx="519.5961538461538" cy="199.1153846153846" r="2.5"/><desc class="value">0.0000</desc><desc class="x left top">519.5961538461538</desc><desc class="y left top">199.1153846153846</desc><desc class="x_label">240.0</desc></g><g class="dots"><circle class="dot reactive tooltip-trigger" cx="582.9615384615385" cy="199.1153846153846" r="2.5"/><desc class="value">0.0000</desc><desc class="x left top">582.9615384615385</desc><desc class="y left top">199.1153846153846</desc><desc class="x_label">270.0</desc></g><g class="dots"><circle class="dot reactive tooltip-trigger" cx="646.3269230769231" cy="199.1153846153846" r="2.5"/><desc class="value">0.0000</desc><desc class="x left top">646.3269230769231</desc><desc class="y left top">199.1153846153846</desc><desc class="x_label">300.0</desc></g></g><g class="series serie-2 color-2"><g class="dots"><circle class="dot reactive tooltip-trigger" cx="12.673076923076922" cy="199.1153846153846" r="2.5"/><desc class="value">0.0000</desc><desc class="x top">12.673076923076922</desc><desc class="y top">199.1153846153846</desc><desc class="x_label">0.0</desc></g><g class="dots"><circle class="dot reactive tooltip-trigger" cx="76.03846153846155" cy="119.92470221124972" r="2.5"/><desc class="value">1.2329</desc><desc class="x ">76.03846153846155</desc><desc class="y ">119.92470221124972</desc><desc class="x_label">30.0</desc></g><g class="dots"><circle class="dot reactive tooltip-trigger" cx="139.40384615384613" cy="166.8830886321672" r="2.5"/><desc class="value">0.5018</desc><desc class="x ">139.40384615384613</desc><desc class="y ">166.8830886321672</desc><desc class="x_label">60.0</desc></g><g class="dots"><circle class="dot reactive tooltip-trigger" cx="202.76923076923075" cy="199.11168016954588" r="2.5"/><desc class="value">0.0001</desc><desc class="x top">202.76923076923075</desc><desc class="y top">199.11168016954588</desc><desc class="x_label">90.0</desc></g><g class="dots"><circle class="dot reactive tooltip-trigger" cx="266.1346153846154" cy="206.26164249892665" r="2.5"/><desc class="value">-0.1113</desc><desc class="x top">266.1346153846154</desc><desc class="y top">206.26164249892665</desc><desc class="x_label">120.0</desc></g><g class="dots"><circle class="dot reactive tooltip-trigger" cx="329.5" cy="263.3432122856744" r="2.5"/><desc class="value">-1.0000</desc><desc class="x top">329.5</desc><desc class="y top">263.3432122856744</desc><desc class="x_label">150.0</desc></g><g class="dots"><circle class="dot reactive tooltip-trigger" cx="392.8653846153846" cy="199.1153846153846" r="2.5"/><desc class="value">0.0000</desc><desc class="x left top">392.8653846153846</desc><desc class="y left top">199.1153846153846</desc><desc class="x_label">180.0</desc></g><g class="dots"><circle class="dot reactive tooltip-trigger" cx="456.23076923076917" cy="199.1153846153846" r="2.5"/><desc class="value">0.0000</desc><desc class="x left top">456.23076923076917</desc><desc class="y left top">199.1153846153846</desc><desc class="x_label">210.0</desc></g><g class="dots"><circle class="dot reactive tooltip-trigger" cx="519.5961538461538" cy="199.1153846153846" r="2.5"/><desc class="value">0.0000</desc><desc class="x left top">519.5961538461538</desc><desc class="y left top">199.1153846153846</desc><desc class="x_label">240.0</desc></g><g class="dots"><circle class="dot reactive tooltip-trigger" cx="582.9615384615385" cy="199.1153846153846" r="2.5"/><desc class="value">0.0000</desc><desc class="x left top">582.9615384615385</desc><desc class="y left top">199.1153846153846</desc><desc class="x_label">270.0</desc></g><g class="dots"><circle class="dot reactive tooltip-trigger" cx="646.3269230769231" cy="199.1153846153846" r="2.5"/><desc class="value">0.0000</desc><desc class="x left top">646.3269230769231</desc><desc class="y left top">199.1153846153846</desc><desc class="x_label">300.0</desc></g></g><g class="series serie-3 color-3"><g class="dots"><circle class="dot reactive tooltip-trigger" cx="12.673076923076922" cy="199.1153846153846" r="2.5"/><desc class="value">0.0000</desc><desc class="x top">12.673076923076922</desc><desc class="y top">199.1153846153846</desc><desc class="x_label">0.0</desc></g><g class="dots"><circle class="dot reactive tooltip-trigger" cx="76.03846153846155" cy="95.03772831121472" r="2.5"/><desc class="value">1.6204</desc><desc class="x ">76.03846153846155</desc><desc class="y ">95.03772831121472</desc><desc class="x_label">30.0</desc></g><g class="dots"><circle class="dot reactive tooltip-trigger" cx="139.40384615384613" cy="178.30202379051772" r="2.5"/><desc class="value">0.3240</desc><desc class="x top">139.40384615384613</desc><desc class="y top">178.30202379051772</desc><desc class="x_label">60.0</desc></g><g class="dots"><circle class="dot reactive tooltip-trigger" cx="202.76923076923075" cy="197.575729875893" r="2.5"/><desc class="value">0.0240</desc><desc class="x top">202.76923076923075</desc><desc class="y top">197.575729875893</desc><desc class="x_label">90.0</desc></g><g class="dots"><circle class="dot reactive tooltip-trigger" cx="266.1346153846154" cy="216.10526561813617" r="2.5"/><desc class="value">-0.2645</desc><desc class="x top">266.1346153846154</desc><desc class="y top">216.10526561813617</desc><desc class="x_label">120.0</desc></g><g class="dots"><circle class="dot reactive tooltip-trigger" cx="329.5" cy="263.28834698548167" r="2.5"/><desc class="value">-0.9991</desc><desc class="x top">329.5</desc><desc class="y top">263.28834698548167</desc><desc class="x_label">150.0</desc></g><g class="dots"><circle class="dot reactive tooltip-trigger" cx="392.8653846153846" cy="199.1153846153846" r="2.5"/><desc class="value">0.0000</desc><desc class="x left top">392.8653846153846</desc><desc class="y left top">199.1153846153846</desc><desc class="x_label">180.0</desc></g><g class="dots"><circle class="dot reactive tooltip-trigger" cx="456.23076923076917" cy="199.1153846153846" r="2.5"/><desc class="value">0.0000</desc><desc class="x left top">456.23076923076917</desc><desc class="y left top">199.1153846153846</desc><desc class="x_label">210.0</desc></g><g class="dots"><circle class="dot reactive tooltip-trigger" cx="519.5961538461538" cy="199.1153846153846" r="2.5"/><desc class="value">0.0000</desc><desc class="x left top">519.5961538461538</desc><desc class="y left top">199.1153846153846</desc><desc class="x_label">240.0</desc></g><g class="dots"><circle class="dot reactive tooltip-trigger" cx="582.9615384615385" cy="199.1153846153846" r="2.5"/><desc class="value">0.0000</desc><desc class="x left top">582.9615384615385</desc><desc class="y left top">199.1153846153846</desc><desc class="x_label">270.0</desc></g><g class="dots"><circle class="dot reactive tooltip-trigger" cx="646.3269230769231" cy="199.1153846153846" r="2.5"/><desc class="value">0.0000</desc><desc class="x left top">646.3269230769231</desc><desc class="y left top">199.1153846153846</desc><desc class="x_label">300.0</desc></g></g><g class="series serie-4 color-4"><g class="dots"><circle class="dot reactive tooltip-trigger" cx="12.673076923076922" cy="199.1153846153846" r="2.5"/><desc class="value">0.0000</desc><desc class="x top">12.673076923076922</desc><desc class="y top">199.1153846153846</desc><desc class="x_label">0.0</desc></g><g class="dots"><circle class="dot reactive tooltip-trigger" cx="76.03846153846155" cy="65.77771611994933" r="2.5"/><desc class="value">2.0759</desc><desc class="x ">76.03846153846155</desc><desc class="y ">65.77771611994933</desc><desc class="x_label">30.0</desc></g><g class="dots"><circle class="dot reactive tooltip-trigger" cx="139.40384615384613" cy="173.3877424739465" r="2.5"/><desc class="value">0.4006</desc><desc class="x top">139.40384615384613</desc><desc class="y top">173.3877424739465</desc><desc class="x_label">60.0</desc></g><g class="dots"><circle class="dot reactive tooltip-trigger" cx="202.76923076923075" cy="205.38519352161026" r="2.5"/><desc class="value">-0.0976</desc><desc class="x top">202.76923076923075</desc><desc class="y top">205.38519352161026</desc><desc class="x_label">90.0</desc></g><g class="dots"><circle class="dot reactive tooltip-trigger" cx="266.1346153846154" cy="209.6693557392759" r="2.5"/><desc class="value">-0.1643</desc><desc class="x top">266.1346153846154</desc><desc class="y top">209.6693557392759</desc><desc class="x_label">120.0</desc></g><g class="dots"><circle class="dot reactive tooltip-trigger" cx="329.5" cy="199.0575747064432" r="2.5"/><desc class="value">0.0009</desc><desc class="x top">329.5</desc><desc class="y top">199.0575747064432</desc><desc class="x_label">150.0</desc></g><g class="dots"><circle class="dot reactive tooltip-trigger" cx="392.8653846153846" cy="199.1153846153846" r="2.5"/><desc class="value">0.0000</desc><desc class="x left top">392.8653846153846</desc><desc class="y left top">199.1153846153846</desc><desc class="x_label">180.0</desc></g><g class="dots"><circle class="dot reactive tooltip-trigger" cx="456.23076923076917" cy="199.1153846153846" r="2.5"/><desc class="value">0.0000</desc><desc class="x left top">456.23076923076917</desc><desc class="y left top">199.1153846153846</desc><desc class="x_label">210.0</desc></g><g class="dots"><circle class="dot reactive tooltip-trigger" cx="519.5961538461538" cy="199.1153846153846" r="2.5"/><desc class="value">0.0000</desc><desc class="x left top">519.5961538461538</desc><desc class="y left top">199.1153846153846</desc><desc class="x_label">240.0</desc></g><g class="dots"><circle class="dot reactive tooltip-trigger" cx="582.9615384615385" cy="199.1153846153846" r="2.5"/><desc class="value">0.0000</desc><desc class="x left top">582.9615384615385</desc><desc class="y left top">199.1153846153846</desc><desc class="x_label">270.0</desc></g><g class="dots"><circle class="dot reactive tooltip-trigger" cx="646.3269230769231" cy="199.1153846153846" r="2.5"/><desc class="value">0.0000</desc><desc class="x left top">646.3269230769231</desc><desc class="y left top">199.1153846153846</desc><desc class="x_label">300.0</desc></g></g><g class="series serie-5 color-5"><g class="dots"><circle class="dot reactive tooltip-trigger" cx="12.673076923076922" cy="199.1153846153846" r="2.5"/><desc class="value">0.0000</desc><desc class="x top">12.673076923076922</desc><desc class="y top">199.1153846153846</desc><desc class="x_label">0.0</desc></g><g class="dots"><circle class="dot reactive tooltip-trigger" cx="76.03846153846155" cy="65.77771611994933" r="2.5"/><desc class="value">2.0759</desc><desc class="x ">76.03846153846155</desc><desc class="y ">65.77771611994933</desc><desc class="x_label">30.0</desc></g><g class="dots"><circle class="dot reactive tooltip-trigger" cx="139.40384615384613" cy="179.81081939702344" r="2.5"/><desc class="value">0.3006</desc><desc class="x top">139.40384615384613</desc><desc class="y top">179.81081939702344</desc><desc class="x_label">60.0</desc></g><g class="dots"><circle class="dot reactive tooltip-trigger" cx="202.76923076923075" cy="216.0903213947871" r="2.5"/><desc class="value">-0.2643</desc><desc class="x top">202.76923076923075</desc><desc class="y top">216.0903213947871</desc><desc class="x_label">90.0</desc></g><g class="dots"><circle class="dot reactive tooltip-trigger" cx="266.1346153846154" cy="209.6693557392759" r="2.5"/><desc class="value">-0.1643</desc><desc class="x top">266.1346153846154</desc><desc class="y top">209.6693557392759</desc><desc class="x_label">120.0</desc></g><g class="dots"><circle class="dot reactive tooltip-trigger" cx="329.5" cy="199.0575747064432" r="2.5"/><desc class="value">0.0009</desc><desc class="x top">329.5</desc><desc class="y top">199.0575747064432</desc><desc class="x_label">150.0</desc></g><g class="dots"><circle class="dot reactive tooltip-trigger" cx="392.8653846153846" cy="199.1153846153846" r="2.5"/><desc class="value">0.0000</desc><desc class="x left top">392.8653846153846</desc><desc class="y left top">199.1153846153846</desc><desc class="x_label">180.0</desc></g><g class="dots"><circle class="dot reactive tooltip-trigger" cx="456.23076923076917" cy="199.1153846153846" r="2.5"/><desc class="value">0.0000</desc><desc class="x left top">456.23076923076917</desc><desc class="y left top">199.1153846153846</desc><desc class="x_label">210.0</desc></g><g class="dots"><circle class="dot reactive tooltip-trigger" cx="519.5961538461538" cy="199.1153846153846" r="2.5"/><desc class="value">0.0000</desc><desc class="x left top">519.5961538461538</desc><desc class="y left top">199.1153846153846</desc><desc class="x_label">240.0</desc></g><g class="dots"><circle class="dot reactive tooltip-trigger" cx="582.9615384615385" cy="199.1153846153846" r="2.5"/><desc class="value">0.0000</desc><desc class="x left top">582.9615384615385</desc><desc class="y left top">199.1153846153846</desc><desc class="x_label">270.0</desc></g><g class="dots"><circle class="dot reactive tooltip-trigger" cx="646.3269230769231" cy="199.1153846153846" r="2.5"/><desc class="value">0.0000</desc><desc class="x left top">646.3269230769231</desc><desc class="y left top">199.1153846153846</desc><desc class="x_label">300.0</desc></g></g></g><g class="plot text-overlay" transform="translate(121, 48)"><g class="series serie-0 color-0"/><g class="series serie-1 color-1"/><g class="series serie-2 color-2"/><g class="series serie-3 color-3"/><g class="series serie-4 color-4"/><g class="series serie-5 color-5"/></g><g class="plot tooltip-overlay" transform="translate(121, 48)"><g class="tooltip" style="opacity: 0" transform="translate(0 0)"><rect class="tooltip-box" height="0" rx="0" ry="0" width="0"/><g class="text"/></g></g><g class="legends" transform="translate(131, 485)"><g class="legend reactive activate-serie" id="activate-serie-0"><rect class="color-0 reactive" height="12" width="12" x="0.0" y="1.5"/><text x="17.0" y="12.0">boeck2015/tempodetector2016_default</text></g><g class="legend reactive activate-serie" id="activate-serie-1"><rect class="color-1 reactive" height="12" width="12" x="329.5" y="1.5"/><text x="346.5" y="12.0">davies2009/mirex_qm_tempotracker</text></g><g class="legend reactive activate-serie" id="activate-serie-2"><rect class="color-2 reactive" height="12" width="12" x="0.0" y="24.0"/><text x="17.0" y="34.5">percival2014/stem</text></g><g class="legend reactive activate-serie" id="activate-serie-3"><rect class="color-3 reactive" height="12" width="12" x="329.5" y="24.0"/><text x="346.5" y="34.5">schreiber2014/default</text></g><g class="legend reactive activate-serie" id="activate-serie-4"><rect class="color-4 reactive" height="12" width="12" x="0.0" y="46.5"/><text x="17.0" y="57.0">schreiber2017/ismir2017</text></g><g class="legend reactive activate-serie" id="activate-serie-5"><rect class="color-5 reactive" height="12" width="12" x="329.5" y="46.5"/><text x="346.5" y="57.0">schreiber2017/mirex2017</text></g></g></g></svg>