<?xml version='1.0' encoding='utf-8'?>
<svg xmlns:xlink="http://www.w3.org/1999/xlink" xmlns="http://www.w3.org/2000/svg" id="chart-7c524094-d576-4402-9aa4-15179236aa6b" class="pygal-chart" viewBox="0 0 800 600"><!--Generated with pygal 2.4.0 (lxml) ©Kozea 2012-2016 on 2019-10-13--><!--http://pygal.org--><!--http://github.com/Kozea/pygal--><defs><style type="text/css">#chart-7c524094-d576-4402-9aa4-15179236aa6b{-webkit-user-select:none;-webkit-font-smoothing:antialiased;font-family:Helvetica,Arial,sans-serif}#chart-7c524094-d576-4402-9aa4-15179236aa6b .title{font-family:Helvetica,Arial,sans-serif;font-size:18px}#chart-7c524094-d576-4402-9aa4-15179236aa6b .legends .legend text{font-family:Helvetica,Arial,sans-serif;font-size:15px}#chart-7c524094-d576-4402-9aa4-15179236aa6b .axis text{font-family:Helvetica,Arial,sans-serif;font-size:15px}#chart-7c524094-d576-4402-9aa4-15179236aa6b .axis text.major{font-family:Helvetica,Arial,sans-serif;font-size:15px}#chart-7c524094-d576-4402-9aa4-15179236aa6b .text-overlay text.value{font-family:Helvetica,Arial,sans-serif;font-size:15px}#chart-7c524094-d576-4402-9aa4-15179236aa6b .text-overlay text.label{font-family:Helvetica,Arial,sans-serif;font-size:15px}#chart-7c524094-d576-4402-9aa4-15179236aa6b .tooltip{font-family:Helvetica,Arial,sans-serif;font-size:14px}#chart-7c524094-d576-4402-9aa4-15179236aa6b text.no_data{font-family:Helvetica,Arial,sans-serif;font-size:64px}
#chart-7c524094-d576-4402-9aa4-15179236aa6b{background-color:transparent}#chart-7c524094-d576-4402-9aa4-15179236aa6b path,#chart-7c524094-d576-4402-9aa4-15179236aa6b line,#chart-7c524094-d576-4402-9aa4-15179236aa6b rect,#chart-7c524094-d576-4402-9aa4-15179236aa6b circle{-webkit-transition:150ms;-moz-transition:150ms;transition:150ms}#chart-7c524094-d576-4402-9aa4-15179236aa6b .graph &gt; .background{fill:transparent}#chart-7c524094-d576-4402-9aa4-15179236aa6b .plot &gt; .background{fill:white}#chart-7c524094-d576-4402-9aa4-15179236aa6b .graph{fill:rgba(0,0,0,.87)}#chart-7c524094-d576-4402-9aa4-15179236aa6b text.no_data{fill:rgba(0,0,0,1)}#chart-7c524094-d576-4402-9aa4-15179236aa6b .title{fill:rgba(0,0,0,1)}#chart-7c524094-d576-4402-9aa4-15179236aa6b .legends .legend text{fill:rgba(0,0,0,.87)}#chart-7c524094-d576-4402-9aa4-15179236aa6b .legends .legend:hover text{fill:rgba(0,0,0,1)}#chart-7c524094-d576-4402-9aa4-15179236aa6b .axis .line{stroke:rgba(0,0,0,1)}#chart-7c524094-d576-4402-9aa4-15179236aa6b .axis .guide.line{stroke:rgba(0,0,0,.54)}#chart-7c524094-d576-4402-9aa4-15179236aa6b .axis .major.line{stroke:rgba(0,0,0,.87)}#chart-7c524094-d576-4402-9aa4-15179236aa6b .axis text.major{fill:rgba(0,0,0,1)}#chart-7c524094-d576-4402-9aa4-15179236aa6b .axis.y .guides:hover .guide.line,#chart-7c524094-d576-4402-9aa4-15179236aa6b .line-graph .axis.x .guides:hover .guide.line,#chart-7c524094-d576-4402-9aa4-15179236aa6b .stackedline-graph .axis.x .guides:hover .guide.line,#chart-7c524094-d576-4402-9aa4-15179236aa6b .xy-graph .axis.x .guides:hover .guide.line{stroke:rgba(0,0,0,1)}#chart-7c524094-d576-4402-9aa4-15179236aa6b .axis .guides:hover text{fill:rgba(0,0,0,1)}#chart-7c524094-d576-4402-9aa4-15179236aa6b .reactive{fill-opacity:.7;stroke-opacity:.8}#chart-7c524094-d576-4402-9aa4-15179236aa6b .ci{stroke:rgba(0,0,0,.87)}#chart-7c524094-d576-4402-9aa4-15179236aa6b .reactive.active,#chart-7c524094-d576-4402-9aa4-15179236aa6b .active .reactive{fill-opacity:.8;stroke-opacity:.9;stroke-width:4}#chart-7c524094-d576-4402-9aa4-15179236aa6b .ci .reactive.active{stroke-width:1.5}#chart-7c524094-d576-4402-9aa4-15179236aa6b .series text{fill:rgba(0,0,0,1)}#chart-7c524094-d576-4402-9aa4-15179236aa6b .tooltip rect{fill:white;stroke:rgba(0,0,0,1);-webkit-transition:opacity 150ms;-moz-transition:opacity 150ms;transition:opacity 150ms}#chart-7c524094-d576-4402-9aa4-15179236aa6b .tooltip .label{fill:rgba(0,0,0,.87)}#chart-7c524094-d576-4402-9aa4-15179236aa6b .tooltip .label{fill:rgba(0,0,0,.87)}#chart-7c524094-d576-4402-9aa4-15179236aa6b .tooltip .legend{font-size:.8em;fill:rgba(0,0,0,.54)}#chart-7c524094-d576-4402-9aa4-15179236aa6b .tooltip .x_label{font-size:.6em;fill:rgba(0,0,0,1)}#chart-7c524094-d576-4402-9aa4-15179236aa6b .tooltip .xlink{font-size:.5em;text-decoration:underline}#chart-7c524094-d576-4402-9aa4-15179236aa6b .tooltip .value{font-size:1.5em}#chart-7c524094-d576-4402-9aa4-15179236aa6b .bound{font-size:.5em}#chart-7c524094-d576-4402-9aa4-15179236aa6b .max-value{font-size:.75em;fill:rgba(0,0,0,.54)}#chart-7c524094-d576-4402-9aa4-15179236aa6b .map-element{fill:white;stroke:rgba(0,0,0,.54) !important}#chart-7c524094-d576-4402-9aa4-15179236aa6b .map-element .reactive{fill-opacity:inherit;stroke-opacity:inherit}#chart-7c524094-d576-4402-9aa4-15179236aa6b .color-0,#chart-7c524094-d576-4402-9aa4-15179236aa6b .color-0 a:visited{stroke:#F44336;fill:#F44336}#chart-7c524094-d576-4402-9aa4-15179236aa6b .color-1,#chart-7c524094-d576-4402-9aa4-15179236aa6b .color-1 a:visited{stroke:#3F51B5;fill:#3F51B5}#chart-7c524094-d576-4402-9aa4-15179236aa6b .color-2,#chart-7c524094-d576-4402-9aa4-15179236aa6b .color-2 a:visited{stroke:#009688;fill:#009688}#chart-7c524094-d576-4402-9aa4-15179236aa6b .color-3,#chart-7c524094-d576-4402-9aa4-15179236aa6b .color-3 a:visited{stroke:#FFC107;fill:#FFC107}#chart-7c524094-d576-4402-9aa4-15179236aa6b .color-4,#chart-7c524094-d576-4402-9aa4-15179236aa6b .color-4 a:visited{stroke:#FF5722;fill:#FF5722}#chart-7c524094-d576-4402-9aa4-15179236aa6b .color-5,#chart-7c524094-d576-4402-9aa4-15179236aa6b .color-5 a:visited{stroke:#9C27B0;fill:#9C27B0}#chart-7c524094-d576-4402-9aa4-15179236aa6b .text-overlay .color-0 text{fill:black}#chart-7c524094-d576-4402-9aa4-15179236aa6b .text-overlay .color-1 text{fill:black}#chart-7c524094-d576-4402-9aa4-15179236aa6b .text-overlay .color-2 text{fill:black}#chart-7c524094-d576-4402-9aa4-15179236aa6b .text-overlay .color-3 text{fill:black}#chart-7c524094-d576-4402-9aa4-15179236aa6b .text-overlay .color-4 text{fill:black}#chart-7c524094-d576-4402-9aa4-15179236aa6b .text-overlay .color-5 text{fill:black}
#chart-7c524094-d576-4402-9aa4-15179236aa6b text.no_data{text-anchor:middle}#chart-7c524094-d576-4402-9aa4-15179236aa6b .guide.line{fill:none}#chart-7c524094-d576-4402-9aa4-15179236aa6b .centered{text-anchor:middle}#chart-7c524094-d576-4402-9aa4-15179236aa6b .title{text-anchor:middle}#chart-7c524094-d576-4402-9aa4-15179236aa6b .legends .legend text{fill-opacity:1}#chart-7c524094-d576-4402-9aa4-15179236aa6b .axis.x text{text-anchor:middle}#chart-7c524094-d576-4402-9aa4-15179236aa6b .axis.x:not(.web) text[transform]{text-anchor:start}#chart-7c524094-d576-4402-9aa4-15179236aa6b .axis.x:not(.web) text[transform].backwards{text-anchor:end}#chart-7c524094-d576-4402-9aa4-15179236aa6b .axis.y text{text-anchor:end}#chart-7c524094-d576-4402-9aa4-15179236aa6b .axis.y text[transform].backwards{text-anchor:start}#chart-7c524094-d576-4402-9aa4-15179236aa6b .axis.y2 text{text-anchor:start}#chart-7c524094-d576-4402-9aa4-15179236aa6b .axis.y2 text[transform].backwards{text-anchor:end}#chart-7c524094-d576-4402-9aa4-15179236aa6b .axis .guide.line{stroke-dasharray:1}#chart-7c524094-d576-4402-9aa4-15179236aa6b .axis .major.guide.line{stroke-dasharray:1}#chart-7c524094-d576-4402-9aa4-15179236aa6b .horizontal .axis.y .guide.line,#chart-7c524094-d576-4402-9aa4-15179236aa6b .horizontal .axis.y2 .guide.line,#chart-7c524094-d576-4402-9aa4-15179236aa6b .vertical .axis.x .guide.line{opacity:0}#chart-7c524094-d576-4402-9aa4-15179236aa6b .horizontal .axis.always_show .guide.line,#chart-7c524094-d576-4402-9aa4-15179236aa6b .vertical .axis.always_show .guide.line{opacity:1 !important}#chart-7c524094-d576-4402-9aa4-15179236aa6b .axis.y .guides:hover .guide.line,#chart-7c524094-d576-4402-9aa4-15179236aa6b .axis.y2 .guides:hover .guide.line,#chart-7c524094-d576-4402-9aa4-15179236aa6b .axis.x .guides:hover .guide.line{opacity:1}#chart-7c524094-d576-4402-9aa4-15179236aa6b .axis .guides:hover text{opacity:1}#chart-7c524094-d576-4402-9aa4-15179236aa6b .nofill{fill:none}#chart-7c524094-d576-4402-9aa4-15179236aa6b .subtle-fill{fill-opacity:.2}#chart-7c524094-d576-4402-9aa4-15179236aa6b .dot{stroke-width:1px;fill-opacity:1}#chart-7c524094-d576-4402-9aa4-15179236aa6b .dot.active{stroke-width:5px}#chart-7c524094-d576-4402-9aa4-15179236aa6b .dot.negative{fill:transparent}#chart-7c524094-d576-4402-9aa4-15179236aa6b text,#chart-7c524094-d576-4402-9aa4-15179236aa6b tspan{stroke:none !important}#chart-7c524094-d576-4402-9aa4-15179236aa6b .series text.active{opacity:1}#chart-7c524094-d576-4402-9aa4-15179236aa6b .tooltip rect{fill-opacity:.95;stroke-width:.5}#chart-7c524094-d576-4402-9aa4-15179236aa6b .tooltip text{fill-opacity:1}#chart-7c524094-d576-4402-9aa4-15179236aa6b .showable{visibility:hidden}#chart-7c524094-d576-4402-9aa4-15179236aa6b .showable.shown{visibility:visible}#chart-7c524094-d576-4402-9aa4-15179236aa6b .gauge-background{fill:rgba(229,229,229,1);stroke:none}#chart-7c524094-d576-4402-9aa4-15179236aa6b .bg-lines{stroke:transparent;stroke-width:2px}</style><script type="text/javascript">window.pygal = window.pygal || {};window.pygal.config = window.pygal.config || {};window.pygal.config['7c524094-d576-4402-9aa4-15179236aa6b'] = {"allow_interruptions": false, "box_mode": "extremes", "classes": ["pygal-chart"], "css": ["file://style.css", "file://graph.css"], "defs": [], "disable_xml_declaration": false, "dots_size": 2.5, "dynamic_print_values": false, "explicit_size": false, "fill": false, "force_uri_protocol": "https", "formatter": null, "half_pie": false, "height": 600, "include_x_axis": false, "inner_radius": 0, "interpolate": null, "interpolation_parameters": {}, "interpolation_precision": 250, "inverse_y_axis": false, "js": ["//kozea.github.io/pygal.js/2.0.x/pygal-tooltips.min.js"], "legend_at_bottom": true, "legend_at_bottom_columns": 2, "legend_box_size": 12, "logarithmic": false, "margin": 20, "margin_bottom": 65, "margin_left": null, "margin_right": null, "margin_top": null, "max_scale": 16, "min_scale": 4, "missing_value_fill_truncation": "x", "no_data_text": "No data", "no_prefix": false, "order_min": null, "pretty_print": false, "print_labels": false, "print_values": false, "print_values_position": "center", "print_zeroes": true, "range": [0.0, 100.0], "rounded_bars": null, "secondary_range": null, "show_dots": true, "show_legend": true, "show_minor_x_labels": false, "show_minor_y_labels": true, "show_only_major_dots": true, "show_x_guides": true, "show_x_labels": true, "show_y_guides": true, "show_y_labels": true, "spacing": 10, "stack_from_top": false, "strict": false, "stroke": true, "stroke_style": null, "style": {"background": "transparent", "ci_colors": [], "colors": ["#F44336", "#3F51B5", "#009688", "#FFC107", "#FF5722", "#9C27B0", "#03A9F4", "#8BC34A", "#FF9800", "#E91E63", "#2196F3", "#4CAF50", "#FFEB3B", "#673AB7", "#00BCD4", "#CDDC39", "#9E9E9E", "#607D8B"], "font_family": "Helvetica, Arial, sans-serif", "foreground": "rgba(0, 0, 0, .87)", "foreground_strong": "rgba(0, 0, 0, 1)", "foreground_subtle": "rgba(0, 0, 0, .54)", "guide_stroke_dasharray": 1, "label_font_family": "Helvetica, Arial, sans-serif", "label_font_size": 15, "legend_font_family": "Helvetica, Arial, sans-serif", "legend_font_size": 15, "major_guide_stroke_dasharray": 1, "major_label_font_family": "Helvetica, Arial, sans-serif", "major_label_font_size": 15, "no_data_font_family": "Helvetica, Arial, sans-serif", "no_data_font_size": 64, "opacity": ".7", "opacity_hover": ".8", "plot_background": "white", "stroke_opacity": ".8", "stroke_opacity_hover": ".9", "title_font_family": "Helvetica, Arial, sans-serif", "title_font_size": 18, "tooltip_font_family": "Helvetica, Arial, sans-serif", "tooltip_font_size": 14, "transition": "150ms", "value_background": "rgba(229, 229, 229, 1)", "value_colors": [], "value_font_family": "Helvetica, Arial, sans-serif", "value_font_size": 15, "value_label_font_family": "Helvetica, Arial, sans-serif", "value_label_font_size": 15}, "title": "Mean Accuracy1 for Tempo T \u00b110.0 BPM", "tooltip_border_radius": 0, "tooltip_fancy_mode": true, "truncate_label": null, "truncate_legend": -1, "width": 800, "x_label_rotation": 90, "x_labels": ["0.0", "1.0", "2.0", "3.0", "4.0", "5.0", "6.0", "7.0", "8.0", "9.0", "10.0", "11.0", "12.0", "13.0", "14.0", "15.0", "16.0", "17.0", "18.0", "19.0", "20.0", "21.0", "22.0", "23.0", "24.0", "25.0", "26.0", "27.0", "28.0", "29.0", "30.0", "31.0", "32.0", "33.0", "34.0", "35.0", "36.0", "37.0", "38.0", "39.0", "40.0", "41.0", "42.0", "43.0", "44.0", "45.0", "46.0", "47.0", "48.0", "49.0", "50.0", "51.0", "52.0", "53.0", "54.0", "55.0", "56.0", "57.0", "58.0", "59.0", "60.0", "61.0", "62.0", "63.0", "64.0", "65.0", "66.0", "67.0", "68.0", "69.0", "70.0", "71.0", "72.0", "73.0", "74.0", "75.0", "76.0", "77.0", "78.0", "79.0", "80.0", "81.0", "82.0", "83.0", "84.0", "85.0", "86.0", "87.0", "88.0", "89.0", "90.0", "91.0", "92.0", "93.0", "94.0", "95.0", "96.0", "97.0", "98.0", "99.0", "100.0", "101.0", "102.0", "103.0", "104.0", "105.0", "106.0", "107.0", "108.0", "109.0", "110.0", "111.0", "112.0", "113.0", "114.0", "115.0", "116.0", "117.0", "118.0", "119.0", "120.0", "121.0", "122.0", "123.0", "124.0", "125.0", "126.0", "127.0", "128.0", "129.0", "130.0", "131.0", "132.0", "133.0", "134.0", "135.0", "136.0", "137.0", "138.0", "139.0", "140.0", "141.0", "142.0", "143.0", "144.0", "145.0", "146.0", "147.0", "148.0", "149.0", "150.0", "151.0", "152.0", "153.0", "154.0", "155.0", "156.0", "157.0", "158.0", "159.0", "160.0", "161.0", "162.0", "163.0", "164.0", "165.0", "166.0", "167.0", "168.0", "169.0", "170.0", "171.0", "172.0", "173.0", "174.0", "175.0", "176.0", "177.0", "178.0", "179.0", "180.0", "181.0", "182.0", "183.0", "184.0", "185.0", "186.0", "187.0", "188.0", "189.0", "190.0", "191.0", "192.0", "193.0", "194.0", "195.0", "196.0", "197.0", "198.0", "199.0", "200.0", "201.0", "202.0", "203.0", "204.0", "205.0", "206.0", "207.0", "208.0", "209.0", "210.0", "211.0", "212.0", "213.0", "214.0", "215.0", "216.0", "217.0", "218.0", "219.0", "220.0", "221.0", "222.0", "223.0", "224.0", "225.0", "226.0", "227.0", "228.0", "229.0", "230.0", "231.0", "232.0", "233.0", "234.0", "235.0", "236.0", "237.0", "238.0", "239.0", "240.0", "241.0", "242.0", "243.0", "244.0", "245.0", "246.0", "247.0", "248.0", "249.0", "250.0", "251.0", "252.0", "253.0", "254.0", "255.0", "256.0", "257.0", "258.0", "259.0", "260.0", "261.0", "262.0", "263.0", "264.0", "265.0", "266.0", "267.0", "268.0", "269.0", "270.0", "271.0", "272.0", "273.0", "274.0", "275.0", "276.0", "277.0", "278.0", "279.0", "280.0", "281.0", "282.0", "283.0", "284.0", "285.0", "286.0", "287.0", "288.0", "289.0", "290.0", "291.0", "292.0", "293.0", "294.0", "295.0", "296.0", "297.0", "298.0", "299.0", "300.0"], "x_labels_major": null, "x_labels_major_count": 11, "x_labels_major_every": null, "x_title": "T (BPM)", "xrange": null, "y_label_rotation": 0, "y_labels": null, "y_labels_major": null, "y_labels_major_count": null, "y_labels_major_every": null, "y_title": "Mean Accuracy1 (%)", "zero": 0, "legends": ["boeck2015/tempodetector2016_default", "davies2009/mirex_qm_tempotracker", "percival2014/stem", "schreiber2014/default", "schreiber2017/ismir2017", "schreiber2017/mirex2017"]}</script><script type="text/javascript" xlink:href="https://kozea.github.io/pygal.js/2.0.x/pygal-tooltips.min.js"/></defs><title>Mean Accuracy1 for Tempo T ±10.0 BPM</title><g class="graph line-graph vertical"><rect class="background" height="600" width="800" x="0" y="0"/><g class="plot" transform="translate(103, 48)"><rect class="background" height="334.0" width="677.0" x="0" y="0"/><g class="axis y always_show"><g class="guides"><path class="major line" d="M0.000000 327.576923 h677.000000"/><text class="major" x="-5" y="332.8269230769231">0.0</text><title>0.0</title></g><g class="guides"><path class="guide line" d="M0.000000 295.461538 h677.000000"/><text class="" x="-5" y="300.71153846153845">10.0</text><title>10.0</title></g><g class="guides"><path class="guide line" d="M0.000000 263.346154 h677.000000"/><text class="" x="-5" y="268.5961538461538">20.0</text><title>20.0</title></g><g class="guides"><path class="guide line" d="M0.000000 231.230769 h677.000000"/><text class="" x="-5" y="236.48076923076923">30.0</text><title>30.0</title></g><g class="guides"><path class="guide line" d="M0.000000 199.115385 h677.000000"/><text class="" x="-5" y="204.3653846153846">40.0</text><title>40.0</title></g><g class="guides"><path class="major guide line" d="M0.000000 167.000000 h677.000000"/><text class="major" x="-5" y="172.25">50.0</text><title>50.0</title></g><g class="guides"><path class="guide line" d="M0.000000 134.884615 h677.000000"/><text class="" x="-5" y="140.1346153846154">60.0</text><title>60.0</title></g><g class="guides"><path class="guide line" d="M0.000000 102.769231 h677.000000"/><text class="" x="-5" y="108.01923076923077">70.0</text><title>70.0</title></g><g class="guides"><path class="guide line" d="M0.000000 70.653846 h677.000000"/><text class="" x="-5" y="75.90384615384613">80.0</text><title>80.0</title></g><g class="guides"><path class="guide line" d="M0.000000 38.538462 h677.000000"/><text class="" x="-5" y="43.78846153846155">90.0</text><title>90.0</title></g><g class="guides"><path class="major guide line" d="M0.000000 6.423077 h677.000000"/><text class="major" x="-5" y="11.673076923076906">100.0</text><title>100.0</title></g></g><g class="axis x always_show"><g class="guides"><path class="major line" d="M13.019231 0.000000 v334.000000"/><text class="major" x="13.01923076923077" y="351.5" transform="rotate(90 13.019231 351.500000)">0.0</text></g><g class="guides"><path class="major guide line" d="M78.115385 0.000000 v334.000000"/><text class="major" x="78.11538461538463" y="351.5" transform="rotate(90 78.115385 351.500000)">30.0</text></g><g class="guides"><path class="major guide line" d="M143.211538 0.000000 v334.000000"/><text class="major" x="143.21153846153845" y="351.5" transform="rotate(90 143.211538 351.500000)">60.0</text></g><g class="guides"><path class="major guide line" d="M208.307692 0.000000 v334.000000"/><text class="major" x="208.30769230769232" y="351.5" transform="rotate(90 208.307692 351.500000)">90.0</text></g><g class="guides"><path class="major guide line" d="M273.403846 0.000000 v334.000000"/><text class="major" x="273.4038461538462" y="351.5" transform="rotate(90 273.403846 351.500000)">120.0</text></g><g class="guides"><path class="major guide line" d="M338.500000 0.000000 v334.000000"/><text class="major" x="338.5" y="351.5" transform="rotate(90 338.500000 351.500000)">150.0</text></g><g class="guides"><path class="major guide line" d="M403.596154 0.000000 v334.000000"/><text class="major" x="403.59615384615387" y="351.5" transform="rotate(90 403.596154 351.500000)">180.0</text></g><g class="guides"><path class="major guide line" d="M468.692308 0.000000 v334.000000"/><text class="major" x="468.6923076923077" y="351.5" transform="rotate(90 468.692308 351.500000)">210.0</text></g><g class="guides"><path class="major guide line" d="M533.788462 0.000000 v334.000000"/><text class="major" x="533.7884615384615" y="351.5" transform="rotate(90 533.788462 351.500000)">240.0</text></g><g class="guides"><path class="major guide line" d="M598.884615 0.000000 v334.000000"/><text class="major" x="598.8846153846154" y="351.5" transform="rotate(90 598.884615 351.500000)">270.0</text></g><g class="guides"><path class="major guide line" d="M663.980769 0.000000 v334.000000"/><text class="major" x="663.9807692307692" y="351.5" transform="rotate(90 663.980769 351.500000)">300.0</text></g></g><g class="series serie-0 color-0"><path class="line reactive nofill" d="M13.019231 6.423077 L15.189103 6.423077 17.358974 6.423077 19.528846 6.423077 21.698718 6.423077 23.868590 6.423077 26.038462 6.423077 28.208333 6.423077 30.378205 6.423077 32.548077 6.423077 34.717949 6.423077 36.887821 6.423077 39.057692 6.423077 41.227564 6.423077 43.397436 6.423077 45.567308 6.423077 47.737179 6.423077 49.907051 6.423077 52.076923 6.423077 54.246795 6.423077 56.416667 6.423077 58.586538 6.423077 60.756410 6.423077 62.926282 6.423077 65.096154 6.423077 67.266026 6.423077 69.435897 6.423077 71.605769 6.423077 73.775641 6.423077 75.945513 6.423077 78.115385 6.423077 80.285256 6.423077 82.455128 6.423077 84.625000 6.423077 86.794872 6.423077 88.964744 6.423077 91.134615 6.423077 93.304487 6.423077 95.474359 6.423077 97.644231 6.423077 99.814103 6.423077 101.983974 6.423077 104.153846 6.423077 106.323718 6.423077 108.493590 6.423077 110.663462 6.423077 112.833333 6.423077 115.003205 6.423077 117.173077 6.423077 119.342949 6.423077 121.512821 6.423077 123.682692 6.423077 125.852564 6.423077 128.022436 6.423077 130.192308 6.423077 132.362179 6.423077 134.532051 6.423077 136.701923 6.423077 138.871795 6.423077 141.041667 6.423077 143.211538 6.423077 145.381410 6.423077 147.551282 6.423077 149.721154 6.423077 151.891026 6.423077 154.060897 6.423077 156.230769 6.423077 158.400641 6.423077 160.570513 6.423077 162.740385 6.423077 164.910256 6.423077 167.080128 6.423077 169.250000 6.423077 171.419872 6.423077 173.589744 6.423077 175.759615 6.423077 177.929487 6.423077 180.099359 6.423077 182.269231 6.423077 184.439103 6.423077 186.608974 6.423077 188.778846 6.423077 190.948718 6.423077 193.118590 6.423077 195.288462 6.423077 197.458333 6.423077 199.628205 6.423077 201.798077 6.423077 203.967949 6.423077 206.137821 6.423077 208.307692 6.423077 210.477564 6.423077 212.647436 6.423077 214.817308 6.423077 216.987179 6.423077 219.157051 6.423077 221.326923 6.423077 223.496795 6.423077 225.666667 6.423077 227.836538 6.423077 230.006410 6.423077 232.176282 6.423077 234.346154 6.423077 236.516026 6.423077 238.685897 6.423077 240.855769 6.423077 243.025641 6.423077 245.195513 6.423077 247.365385 6.423077 249.535256 6.423077 251.705128 6.423077 253.875000 6.423077 256.044872 6.423077 258.214744 6.423077 260.384615 6.423077 262.554487 6.423077 264.724359 6.423077 266.894231 6.423077 269.064103 6.423077 271.233974 6.423077 273.403846 6.423077 275.573718 6.423077 277.743590 6.423077 279.913462 6.423077 282.083333 6.423077 284.253205 6.423077 286.423077 6.423077 288.592949 6.423077 290.762821 6.423077 292.932692 6.423077 295.102564 6.423077 297.272436 6.423077 299.442308 6.423077 301.612179 6.423077 303.782051 6.423077 305.951923 6.423077 308.121795 6.423077 310.291667 6.423077 312.461538 6.423077 314.631410 6.423077 316.801282 6.423077 318.971154 6.423077 321.141026 6.423077 323.310897 6.423077 325.480769 6.423077 327.650641 6.423077 329.820513 6.423077 331.990385 6.423077 334.160256 6.423077 336.330128 6.423077 338.500000 6.423077 340.669872 6.423077 342.839744 6.423077 345.009615 6.423077 347.179487 6.423077 349.349359 6.423077 351.519231 6.423077 353.689103 6.423077 355.858974 6.423077 358.028846 6.423077 360.198718 6.423077 362.368590 6.423077 364.538462 6.423077 366.708333 6.423077 368.878205 6.423077 371.048077 6.423077 373.217949 6.423077 375.387821 6.423077 377.557692 6.423077 379.727564 6.423077 381.897436 327.576923 384.067308 327.576923 386.237179 327.576923 388.407051 327.576923 390.576923 327.576923 392.746795 327.576923 394.916667 327.576923 397.086538 327.576923 399.256410 327.576923 401.426282 327.576923 403.596154 327.576923 405.766026 327.576923 407.935897 327.576923 410.105769 327.576923 412.275641 327.576923 414.445513 327.576923 416.615385 327.576923 418.785256 327.576923 420.955128 327.576923 423.125000 327.576923 425.294872 327.576923 427.464744 327.576923 429.634615 327.576923 431.804487 327.576923 433.974359 327.576923 436.144231 327.576923 438.314103 327.576923 440.483974 327.576923 442.653846 327.576923 444.823718 327.576923 446.993590 327.576923 449.163462 327.576923 451.333333 327.576923 453.503205 327.576923 455.673077 327.576923 457.842949 327.576923 460.012821 327.576923 462.182692 327.576923 464.352564 327.576923 466.522436 327.576923 468.692308 327.576923 470.862179 6.423077 473.032051 6.423077 475.201923 6.423077 477.371795 6.423077 479.541667 6.423077 481.711538 6.423077 483.881410 6.423077 486.051282 6.423077 488.221154 6.423077 490.391026 6.423077 492.560897 6.423077 494.730769 6.423077 496.900641 6.423077 499.070513 6.423077 501.240385 6.423077 503.410256 6.423077 505.580128 6.423077 507.750000 6.423077 509.919872 6.423077 512.089744 6.423077 514.259615 6.423077 516.429487 6.423077 518.599359 6.423077 520.769231 6.423077 522.939103 6.423077 525.108974 6.423077 527.278846 6.423077 529.448718 6.423077 531.618590 6.423077 533.788462 6.423077 535.958333 6.423077 538.128205 6.423077 540.298077 6.423077 542.467949 6.423077 544.637821 6.423077 546.807692 6.423077 548.977564 6.423077 551.147436 6.423077 553.317308 6.423077 555.487179 6.423077 557.657051 6.423077 559.826923 6.423077 561.996795 6.423077 564.166667 6.423077 566.336538 6.423077 568.506410 6.423077 570.676282 6.423077 572.846154 6.423077 575.016026 6.423077 577.185897 6.423077 579.355769 6.423077 581.525641 6.423077 583.695513 6.423077 585.865385 6.423077 588.035256 6.423077 590.205128 6.423077 592.375000 6.423077 594.544872 6.423077 596.714744 6.423077 598.884615 6.423077 601.054487 6.423077 603.224359 6.423077 605.394231 6.423077 607.564103 6.423077 609.733974 6.423077 611.903846 6.423077 614.073718 6.423077 616.243590 6.423077 618.413462 6.423077 620.583333 6.423077 622.753205 6.423077 624.923077 6.423077 627.092949 6.423077 629.262821 6.423077 631.432692 6.423077 633.602564 6.423077 635.772436 6.423077 637.942308 6.423077 640.112179 6.423077 642.282051 6.423077 644.451923 6.423077 646.621795 6.423077 648.791667 6.423077 650.961538 6.423077 653.131410 6.423077 655.301282 6.423077 657.471154 6.423077 659.641026 6.423077 661.810897 6.423077 663.980769 6.423077"/></g><g class="series serie-1 color-1"><path class="line reactive nofill" d="M13.019231 6.423077 L15.189103 6.423077 17.358974 6.423077 19.528846 6.423077 21.698718 6.423077 23.868590 6.423077 26.038462 6.423077 28.208333 6.423077 30.378205 6.423077 32.548077 6.423077 34.717949 6.423077 36.887821 6.423077 39.057692 6.423077 41.227564 6.423077 43.397436 6.423077 45.567308 6.423077 47.737179 6.423077 49.907051 6.423077 52.076923 6.423077 54.246795 6.423077 56.416667 6.423077 58.586538 6.423077 60.756410 6.423077 62.926282 6.423077 65.096154 6.423077 67.266026 6.423077 69.435897 6.423077 71.605769 6.423077 73.775641 6.423077 75.945513 6.423077 78.115385 6.423077 80.285256 6.423077 82.455128 6.423077 84.625000 6.423077 86.794872 6.423077 88.964744 6.423077 91.134615 6.423077 93.304487 6.423077 95.474359 6.423077 97.644231 6.423077 99.814103 6.423077 101.983974 6.423077 104.153846 6.423077 106.323718 6.423077 108.493590 6.423077 110.663462 6.423077 112.833333 6.423077 115.003205 6.423077 117.173077 6.423077 119.342949 6.423077 121.512821 6.423077 123.682692 6.423077 125.852564 6.423077 128.022436 6.423077 130.192308 6.423077 132.362179 6.423077 134.532051 6.423077 136.701923 6.423077 138.871795 6.423077 141.041667 6.423077 143.211538 167.000000 145.381410 167.000000 147.551282 167.000000 149.721154 167.000000 151.891026 167.000000 154.060897 220.525641 156.230769 220.525641 158.400641 220.525641 160.570513 220.525641 162.740385 220.525641 164.910256 167.000000 167.080128 167.000000 169.250000 167.000000 171.419872 167.000000 173.589744 167.000000 175.759615 167.000000 177.929487 167.000000 180.099359 167.000000 182.269231 167.000000 184.439103 167.000000 186.608974 167.000000 188.778846 167.000000 190.948718 167.000000 193.118590 167.000000 195.288462 167.000000 197.458333 167.000000 199.628205 6.423077 201.798077 6.423077 203.967949 6.423077 206.137821 6.423077 208.307692 6.423077 210.477564 6.423077 212.647436 6.423077 214.817308 6.423077 216.987179 6.423077 219.157051 6.423077 221.326923 6.423077 223.496795 6.423077 225.666667 6.423077 227.836538 6.423077 230.006410 6.423077 232.176282 6.423077 234.346154 6.423077 236.516026 6.423077 238.685897 6.423077 240.855769 6.423077 243.025641 6.423077 245.195513 6.423077 247.365385 6.423077 249.535256 6.423077 251.705128 6.423077 253.875000 6.423077 256.044872 6.423077 258.214744 6.423077 260.384615 6.423077 262.554487 6.423077 264.724359 6.423077 266.894231 6.423077 269.064103 6.423077 271.233974 6.423077 273.403846 6.423077 275.573718 6.423077 277.743590 6.423077 279.913462 6.423077 282.083333 6.423077 284.253205 6.423077 286.423077 6.423077 288.592949 6.423077 290.762821 6.423077 292.932692 6.423077 295.102564 6.423077 297.272436 6.423077 299.442308 6.423077 301.612179 6.423077 303.782051 6.423077 305.951923 6.423077 308.121795 6.423077 310.291667 6.423077 312.461538 6.423077 314.631410 6.423077 316.801282 6.423077 318.971154 6.423077 321.141026 6.423077 323.310897 6.423077 325.480769 6.423077 327.650641 6.423077 329.820513 6.423077 331.990385 6.423077 334.160256 6.423077 336.330128 6.423077 338.500000 6.423077 340.669872 6.423077 342.839744 6.423077 345.009615 6.423077 347.179487 6.423077 349.349359 6.423077 351.519231 6.423077 353.689103 6.423077 355.858974 6.423077 358.028846 6.423077 360.198718 6.423077 362.368590 6.423077 364.538462 6.423077 366.708333 6.423077 368.878205 6.423077 371.048077 6.423077 373.217949 6.423077 375.387821 6.423077 377.557692 6.423077 379.727564 6.423077 381.897436 327.576923 384.067308 327.576923 386.237179 327.576923 388.407051 327.576923 390.576923 327.576923 392.746795 327.576923 394.916667 327.576923 397.086538 327.576923 399.256410 327.576923 401.426282 327.576923 403.596154 327.576923 405.766026 327.576923 407.935897 327.576923 410.105769 327.576923 412.275641 327.576923 414.445513 327.576923 416.615385 327.576923 418.785256 327.576923 420.955128 327.576923 423.125000 327.576923 425.294872 327.576923 427.464744 327.576923 429.634615 327.576923 431.804487 327.576923 433.974359 327.576923 436.144231 327.576923 438.314103 327.576923 440.483974 327.576923 442.653846 327.576923 444.823718 327.576923 446.993590 327.576923 449.163462 327.576923 451.333333 327.576923 453.503205 327.576923 455.673077 327.576923 457.842949 327.576923 460.012821 327.576923 462.182692 327.576923 464.352564 327.576923 466.522436 327.576923 468.692308 327.576923 470.862179 6.423077 473.032051 6.423077 475.201923 6.423077 477.371795 6.423077 479.541667 6.423077 481.711538 6.423077 483.881410 6.423077 486.051282 6.423077 488.221154 6.423077 490.391026 6.423077 492.560897 6.423077 494.730769 6.423077 496.900641 6.423077 499.070513 6.423077 501.240385 6.423077 503.410256 6.423077 505.580128 6.423077 507.750000 6.423077 509.919872 6.423077 512.089744 6.423077 514.259615 6.423077 516.429487 6.423077 518.599359 6.423077 520.769231 6.423077 522.939103 6.423077 525.108974 6.423077 527.278846 6.423077 529.448718 6.423077 531.618590 6.423077 533.788462 6.423077 535.958333 6.423077 538.128205 6.423077 540.298077 6.423077 542.467949 6.423077 544.637821 6.423077 546.807692 6.423077 548.977564 6.423077 551.147436 6.423077 553.317308 6.423077 555.487179 6.423077 557.657051 6.423077 559.826923 6.423077 561.996795 6.423077 564.166667 6.423077 566.336538 6.423077 568.506410 6.423077 570.676282 6.423077 572.846154 6.423077 575.016026 6.423077 577.185897 6.423077 579.355769 6.423077 581.525641 6.423077 583.695513 6.423077 585.865385 6.423077 588.035256 6.423077 590.205128 6.423077 592.375000 6.423077 594.544872 6.423077 596.714744 6.423077 598.884615 6.423077 601.054487 6.423077 603.224359 6.423077 605.394231 6.423077 607.564103 6.423077 609.733974 6.423077 611.903846 6.423077 614.073718 6.423077 616.243590 6.423077 618.413462 6.423077 620.583333 6.423077 622.753205 6.423077 624.923077 6.423077 627.092949 6.423077 629.262821 6.423077 631.432692 6.423077 633.602564 6.423077 635.772436 6.423077 637.942308 6.423077 640.112179 6.423077 642.282051 6.423077 644.451923 6.423077 646.621795 6.423077 648.791667 6.423077 650.961538 6.423077 653.131410 6.423077 655.301282 6.423077 657.471154 6.423077 659.641026 6.423077 661.810897 6.423077 663.980769 6.423077"/></g><g class="series serie-2 color-2"><path class="line reactive nofill" d="M13.019231 6.423077 L15.189103 6.423077 17.358974 6.423077 19.528846 6.423077 21.698718 6.423077 23.868590 6.423077 26.038462 6.423077 28.208333 6.423077 30.378205 6.423077 32.548077 6.423077 34.717949 6.423077 36.887821 6.423077 39.057692 6.423077 41.227564 6.423077 43.397436 6.423077 45.567308 6.423077 47.737179 6.423077 49.907051 6.423077 52.076923 6.423077 54.246795 6.423077 56.416667 6.423077 58.586538 6.423077 60.756410 6.423077 62.926282 6.423077 65.096154 6.423077 67.266026 6.423077 69.435897 6.423077 71.605769 6.423077 73.775641 6.423077 75.945513 6.423077 78.115385 6.423077 80.285256 6.423077 82.455128 6.423077 84.625000 6.423077 86.794872 6.423077 88.964744 6.423077 91.134615 6.423077 93.304487 6.423077 95.474359 6.423077 97.644231 6.423077 99.814103 6.423077 101.983974 6.423077 104.153846 6.423077 106.323718 6.423077 108.493590 6.423077 110.663462 6.423077 112.833333 6.423077 115.003205 6.423077 117.173077 6.423077 119.342949 6.423077 121.512821 6.423077 123.682692 6.423077 125.852564 6.423077 128.022436 6.423077 130.192308 6.423077 132.362179 6.423077 134.532051 6.423077 136.701923 6.423077 138.871795 6.423077 141.041667 6.423077 143.211538 6.423077 145.381410 6.423077 147.551282 6.423077 149.721154 6.423077 151.891026 6.423077 154.060897 6.423077 156.230769 6.423077 158.400641 6.423077 160.570513 6.423077 162.740385 6.423077 164.910256 6.423077 167.080128 6.423077 169.250000 6.423077 171.419872 6.423077 173.589744 6.423077 175.759615 6.423077 177.929487 6.423077 180.099359 6.423077 182.269231 6.423077 184.439103 6.423077 186.608974 6.423077 188.778846 6.423077 190.948718 6.423077 193.118590 6.423077 195.288462 6.423077 197.458333 6.423077 199.628205 6.423077 201.798077 6.423077 203.967949 6.423077 206.137821 6.423077 208.307692 6.423077 210.477564 6.423077 212.647436 6.423077 214.817308 6.423077 216.987179 6.423077 219.157051 6.423077 221.326923 6.423077 223.496795 6.423077 225.666667 6.423077 227.836538 6.423077 230.006410 6.423077 232.176282 6.423077 234.346154 6.423077 236.516026 6.423077 238.685897 6.423077 240.855769 6.423077 243.025641 6.423077 245.195513 6.423077 247.365385 6.423077 249.535256 6.423077 251.705128 6.423077 253.875000 6.423077 256.044872 6.423077 258.214744 6.423077 260.384615 6.423077 262.554487 6.423077 264.724359 6.423077 266.894231 6.423077 269.064103 6.423077 271.233974 6.423077 273.403846 6.423077 275.573718 6.423077 277.743590 6.423077 279.913462 6.423077 282.083333 6.423077 284.253205 6.423077 286.423077 6.423077 288.592949 6.423077 290.762821 6.423077 292.932692 6.423077 295.102564 6.423077 297.272436 6.423077 299.442308 6.423077 301.612179 6.423077 303.782051 6.423077 305.951923 6.423077 308.121795 6.423077 310.291667 6.423077 312.461538 6.423077 314.631410 6.423077 316.801282 6.423077 318.971154 6.423077 321.141026 6.423077 323.310897 6.423077 325.480769 6.423077 327.650641 6.423077 329.820513 6.423077 331.990385 6.423077 334.160256 6.423077 336.330128 6.423077 338.500000 6.423077 340.669872 6.423077 342.839744 6.423077 345.009615 6.423077 347.179487 6.423077 349.349359 6.423077 351.519231 6.423077 353.689103 6.423077 355.858974 6.423077 358.028846 6.423077 360.198718 6.423077 362.368590 6.423077 364.538462 6.423077 366.708333 6.423077 368.878205 6.423077 371.048077 6.423077 373.217949 6.423077 375.387821 6.423077 377.557692 6.423077 379.727564 6.423077 381.897436 327.576923 384.067308 327.576923 386.237179 327.576923 388.407051 327.576923 390.576923 327.576923 392.746795 327.576923 394.916667 327.576923 397.086538 327.576923 399.256410 327.576923 401.426282 327.576923 403.596154 327.576923 405.766026 327.576923 407.935897 327.576923 410.105769 327.576923 412.275641 327.576923 414.445513 327.576923 416.615385 327.576923 418.785256 327.576923 420.955128 327.576923 423.125000 327.576923 425.294872 327.576923 427.464744 327.576923 429.634615 327.576923 431.804487 327.576923 433.974359 327.576923 436.144231 327.576923 438.314103 327.576923 440.483974 327.576923 442.653846 327.576923 444.823718 327.576923 446.993590 327.576923 449.163462 327.576923 451.333333 327.576923 453.503205 327.576923 455.673077 327.576923 457.842949 327.576923 460.012821 327.576923 462.182692 327.576923 464.352564 327.576923 466.522436 327.576923 468.692308 327.576923 470.862179 6.423077 473.032051 6.423077 475.201923 6.423077 477.371795 6.423077 479.541667 6.423077 481.711538 6.423077 483.881410 6.423077 486.051282 6.423077 488.221154 6.423077 490.391026 6.423077 492.560897 6.423077 494.730769 6.423077 496.900641 6.423077 499.070513 6.423077 501.240385 6.423077 503.410256 6.423077 505.580128 6.423077 507.750000 6.423077 509.919872 6.423077 512.089744 6.423077 514.259615 6.423077 516.429487 6.423077 518.599359 6.423077 520.769231 6.423077 522.939103 6.423077 525.108974 6.423077 527.278846 6.423077 529.448718 6.423077 531.618590 6.423077 533.788462 6.423077 535.958333 6.423077 538.128205 6.423077 540.298077 6.423077 542.467949 6.423077 544.637821 6.423077 546.807692 6.423077 548.977564 6.423077 551.147436 6.423077 553.317308 6.423077 555.487179 6.423077 557.657051 6.423077 559.826923 6.423077 561.996795 6.423077 564.166667 6.423077 566.336538 6.423077 568.506410 6.423077 570.676282 6.423077 572.846154 6.423077 575.016026 6.423077 577.185897 6.423077 579.355769 6.423077 581.525641 6.423077 583.695513 6.423077 585.865385 6.423077 588.035256 6.423077 590.205128 6.423077 592.375000 6.423077 594.544872 6.423077 596.714744 6.423077 598.884615 6.423077 601.054487 6.423077 603.224359 6.423077 605.394231 6.423077 607.564103 6.423077 609.733974 6.423077 611.903846 6.423077 614.073718 6.423077 616.243590 6.423077 618.413462 6.423077 620.583333 6.423077 622.753205 6.423077 624.923077 6.423077 627.092949 6.423077 629.262821 6.423077 631.432692 6.423077 633.602564 6.423077 635.772436 6.423077 637.942308 6.423077 640.112179 6.423077 642.282051 6.423077 644.451923 6.423077 646.621795 6.423077 648.791667 6.423077 650.961538 6.423077 653.131410 6.423077 655.301282 6.423077 657.471154 6.423077 659.641026 6.423077 661.810897 6.423077 663.980769 6.423077"/></g><g class="series serie-3 color-3"><path class="line reactive nofill" d="M13.019231 6.423077 L15.189103 6.423077 17.358974 6.423077 19.528846 6.423077 21.698718 6.423077 23.868590 6.423077 26.038462 6.423077 28.208333 6.423077 30.378205 6.423077 32.548077 6.423077 34.717949 6.423077 36.887821 6.423077 39.057692 6.423077 41.227564 6.423077 43.397436 6.423077 45.567308 6.423077 47.737179 6.423077 49.907051 6.423077 52.076923 6.423077 54.246795 6.423077 56.416667 6.423077 58.586538 6.423077 60.756410 6.423077 62.926282 6.423077 65.096154 6.423077 67.266026 6.423077 69.435897 6.423077 71.605769 6.423077 73.775641 6.423077 75.945513 6.423077 78.115385 6.423077 80.285256 6.423077 82.455128 6.423077 84.625000 6.423077 86.794872 6.423077 88.964744 6.423077 91.134615 6.423077 93.304487 6.423077 95.474359 6.423077 97.644231 6.423077 99.814103 6.423077 101.983974 6.423077 104.153846 6.423077 106.323718 6.423077 108.493590 6.423077 110.663462 6.423077 112.833333 6.423077 115.003205 6.423077 117.173077 6.423077 119.342949 6.423077 121.512821 6.423077 123.682692 6.423077 125.852564 6.423077 128.022436 6.423077 130.192308 6.423077 132.362179 6.423077 134.532051 6.423077 136.701923 6.423077 138.871795 6.423077 141.041667 6.423077 143.211538 327.576923 145.381410 327.576923 147.551282 327.576923 149.721154 327.576923 151.891026 327.576923 154.060897 220.525641 156.230769 220.525641 158.400641 220.525641 160.570513 220.525641 162.740385 220.525641 164.910256 167.000000 167.080128 167.000000 169.250000 167.000000 171.419872 167.000000 173.589744 167.000000 175.759615 167.000000 177.929487 167.000000 180.099359 167.000000 182.269231 167.000000 184.439103 167.000000 186.608974 167.000000 188.778846 6.423077 190.948718 6.423077 193.118590 6.423077 195.288462 6.423077 197.458333 6.423077 199.628205 6.423077 201.798077 6.423077 203.967949 6.423077 206.137821 6.423077 208.307692 6.423077 210.477564 6.423077 212.647436 6.423077 214.817308 6.423077 216.987179 6.423077 219.157051 6.423077 221.326923 6.423077 223.496795 6.423077 225.666667 6.423077 227.836538 6.423077 230.006410 6.423077 232.176282 6.423077 234.346154 6.423077 236.516026 6.423077 238.685897 6.423077 240.855769 6.423077 243.025641 6.423077 245.195513 6.423077 247.365385 6.423077 249.535256 6.423077 251.705128 6.423077 253.875000 6.423077 256.044872 6.423077 258.214744 6.423077 260.384615 6.423077 262.554487 6.423077 264.724359 6.423077 266.894231 6.423077 269.064103 6.423077 271.233974 6.423077 273.403846 6.423077 275.573718 6.423077 277.743590 6.423077 279.913462 6.423077 282.083333 6.423077 284.253205 6.423077 286.423077 6.423077 288.592949 6.423077 290.762821 6.423077 292.932692 6.423077 295.102564 6.423077 297.272436 6.423077 299.442308 6.423077 301.612179 6.423077 303.782051 6.423077 305.951923 6.423077 308.121795 6.423077 310.291667 6.423077 312.461538 6.423077 314.631410 6.423077 316.801282 6.423077 318.971154 6.423077 321.141026 6.423077 323.310897 6.423077 325.480769 6.423077 327.650641 6.423077 329.820513 6.423077 331.990385 6.423077 334.160256 6.423077 336.330128 6.423077 338.500000 6.423077 340.669872 6.423077 342.839744 6.423077 345.009615 6.423077 347.179487 6.423077 349.349359 6.423077 351.519231 6.423077 353.689103 6.423077 355.858974 6.423077 358.028846 6.423077 360.198718 6.423077 362.368590 6.423077 364.538462 6.423077 366.708333 6.423077 368.878205 6.423077 371.048077 6.423077 373.217949 6.423077 375.387821 6.423077 377.557692 6.423077 379.727564 6.423077 381.897436 327.576923 384.067308 327.576923 386.237179 327.576923 388.407051 327.576923 390.576923 327.576923 392.746795 327.576923 394.916667 327.576923 397.086538 327.576923 399.256410 327.576923 401.426282 327.576923 403.596154 327.576923 405.766026 327.576923 407.935897 327.576923 410.105769 327.576923 412.275641 327.576923 414.445513 327.576923 416.615385 327.576923 418.785256 327.576923 420.955128 327.576923 423.125000 327.576923 425.294872 327.576923 427.464744 327.576923 429.634615 327.576923 431.804487 327.576923 433.974359 327.576923 436.144231 327.576923 438.314103 327.576923 440.483974 327.576923 442.653846 327.576923 444.823718 327.576923 446.993590 327.576923 449.163462 327.576923 451.333333 327.576923 453.503205 327.576923 455.673077 327.576923 457.842949 327.576923 460.012821 327.576923 462.182692 327.576923 464.352564 327.576923 466.522436 327.576923 468.692308 327.576923 470.862179 6.423077 473.032051 6.423077 475.201923 6.423077 477.371795 6.423077 479.541667 6.423077 481.711538 6.423077 483.881410 6.423077 486.051282 6.423077 488.221154 6.423077 490.391026 6.423077 492.560897 6.423077 494.730769 6.423077 496.900641 6.423077 499.070513 6.423077 501.240385 6.423077 503.410256 6.423077 505.580128 6.423077 507.750000 6.423077 509.919872 6.423077 512.089744 6.423077 514.259615 6.423077 516.429487 6.423077 518.599359 6.423077 520.769231 6.423077 522.939103 6.423077 525.108974 6.423077 527.278846 6.423077 529.448718 6.423077 531.618590 6.423077 533.788462 6.423077 535.958333 6.423077 538.128205 6.423077 540.298077 6.423077 542.467949 6.423077 544.637821 6.423077 546.807692 6.423077 548.977564 6.423077 551.147436 6.423077 553.317308 6.423077 555.487179 6.423077 557.657051 6.423077 559.826923 6.423077 561.996795 6.423077 564.166667 6.423077 566.336538 6.423077 568.506410 6.423077 570.676282 6.423077 572.846154 6.423077 575.016026 6.423077 577.185897 6.423077 579.355769 6.423077 581.525641 6.423077 583.695513 6.423077 585.865385 6.423077 588.035256 6.423077 590.205128 6.423077 592.375000 6.423077 594.544872 6.423077 596.714744 6.423077 598.884615 6.423077 601.054487 6.423077 603.224359 6.423077 605.394231 6.423077 607.564103 6.423077 609.733974 6.423077 611.903846 6.423077 614.073718 6.423077 616.243590 6.423077 618.413462 6.423077 620.583333 6.423077 622.753205 6.423077 624.923077 6.423077 627.092949 6.423077 629.262821 6.423077 631.432692 6.423077 633.602564 6.423077 635.772436 6.423077 637.942308 6.423077 640.112179 6.423077 642.282051 6.423077 644.451923 6.423077 646.621795 6.423077 648.791667 6.423077 650.961538 6.423077 653.131410 6.423077 655.301282 6.423077 657.471154 6.423077 659.641026 6.423077 661.810897 6.423077 663.980769 6.423077"/></g><g class="series serie-4 color-4"><path class="line reactive nofill" d="M13.019231 6.423077 L15.189103 6.423077 17.358974 6.423077 19.528846 6.423077 21.698718 6.423077 23.868590 6.423077 26.038462 6.423077 28.208333 6.423077 30.378205 6.423077 32.548077 6.423077 34.717949 6.423077 36.887821 6.423077 39.057692 6.423077 41.227564 6.423077 43.397436 6.423077 45.567308 6.423077 47.737179 6.423077 49.907051 6.423077 52.076923 6.423077 54.246795 6.423077 56.416667 6.423077 58.586538 6.423077 60.756410 6.423077 62.926282 6.423077 65.096154 6.423077 67.266026 6.423077 69.435897 6.423077 71.605769 6.423077 73.775641 6.423077 75.945513 6.423077 78.115385 6.423077 80.285256 6.423077 82.455128 6.423077 84.625000 6.423077 86.794872 6.423077 88.964744 6.423077 91.134615 6.423077 93.304487 6.423077 95.474359 6.423077 97.644231 6.423077 99.814103 6.423077 101.983974 6.423077 104.153846 6.423077 106.323718 6.423077 108.493590 6.423077 110.663462 6.423077 112.833333 6.423077 115.003205 6.423077 117.173077 6.423077 119.342949 6.423077 121.512821 6.423077 123.682692 6.423077 125.852564 6.423077 128.022436 6.423077 130.192308 6.423077 132.362179 6.423077 134.532051 6.423077 136.701923 6.423077 138.871795 6.423077 141.041667 6.423077 143.211538 167.000000 145.381410 167.000000 147.551282 167.000000 149.721154 167.000000 151.891026 167.000000 154.060897 113.474359 156.230769 113.474359 158.400641 113.474359 160.570513 113.474359 162.740385 113.474359 164.910256 86.711538 167.080128 86.711538 169.250000 86.711538 171.419872 86.711538 173.589744 86.711538 175.759615 86.711538 177.929487 86.711538 180.099359 86.711538 182.269231 86.711538 184.439103 86.711538 186.608974 86.711538 188.778846 6.423077 190.948718 6.423077 193.118590 6.423077 195.288462 6.423077 197.458333 6.423077 199.628205 6.423077 201.798077 6.423077 203.967949 6.423077 206.137821 6.423077 208.307692 6.423077 210.477564 6.423077 212.647436 6.423077 214.817308 6.423077 216.987179 6.423077 219.157051 6.423077 221.326923 6.423077 223.496795 6.423077 225.666667 6.423077 227.836538 6.423077 230.006410 6.423077 232.176282 6.423077 234.346154 6.423077 236.516026 6.423077 238.685897 6.423077 240.855769 6.423077 243.025641 6.423077 245.195513 6.423077 247.365385 6.423077 249.535256 6.423077 251.705128 6.423077 253.875000 6.423077 256.044872 6.423077 258.214744 6.423077 260.384615 6.423077 262.554487 6.423077 264.724359 6.423077 266.894231 6.423077 269.064103 6.423077 271.233974 6.423077 273.403846 6.423077 275.573718 6.423077 277.743590 6.423077 279.913462 6.423077 282.083333 6.423077 284.253205 6.423077 286.423077 6.423077 288.592949 6.423077 290.762821 6.423077 292.932692 6.423077 295.102564 6.423077 297.272436 6.423077 299.442308 6.423077 301.612179 6.423077 303.782051 6.423077 305.951923 6.423077 308.121795 6.423077 310.291667 6.423077 312.461538 6.423077 314.631410 6.423077 316.801282 6.423077 318.971154 6.423077 321.141026 6.423077 323.310897 6.423077 325.480769 6.423077 327.650641 6.423077 329.820513 6.423077 331.990385 6.423077 334.160256 6.423077 336.330128 6.423077 338.500000 6.423077 340.669872 6.423077 342.839744 6.423077 345.009615 6.423077 347.179487 6.423077 349.349359 6.423077 351.519231 6.423077 353.689103 6.423077 355.858974 6.423077 358.028846 6.423077 360.198718 6.423077 362.368590 6.423077 364.538462 6.423077 366.708333 6.423077 368.878205 6.423077 371.048077 6.423077 373.217949 6.423077 375.387821 6.423077 377.557692 6.423077 379.727564 6.423077 381.897436 327.576923 384.067308 327.576923 386.237179 327.576923 388.407051 327.576923 390.576923 327.576923 392.746795 327.576923 394.916667 327.576923 397.086538 327.576923 399.256410 327.576923 401.426282 327.576923 403.596154 327.576923 405.766026 327.576923 407.935897 327.576923 410.105769 327.576923 412.275641 327.576923 414.445513 327.576923 416.615385 327.576923 418.785256 327.576923 420.955128 327.576923 423.125000 327.576923 425.294872 327.576923 427.464744 327.576923 429.634615 327.576923 431.804487 327.576923 433.974359 327.576923 436.144231 327.576923 438.314103 327.576923 440.483974 327.576923 442.653846 327.576923 444.823718 327.576923 446.993590 327.576923 449.163462 327.576923 451.333333 327.576923 453.503205 327.576923 455.673077 327.576923 457.842949 327.576923 460.012821 327.576923 462.182692 327.576923 464.352564 327.576923 466.522436 327.576923 468.692308 327.576923 470.862179 6.423077 473.032051 6.423077 475.201923 6.423077 477.371795 6.423077 479.541667 6.423077 481.711538 6.423077 483.881410 6.423077 486.051282 6.423077 488.221154 6.423077 490.391026 6.423077 492.560897 6.423077 494.730769 6.423077 496.900641 6.423077 499.070513 6.423077 501.240385 6.423077 503.410256 6.423077 505.580128 6.423077 507.750000 6.423077 509.919872 6.423077 512.089744 6.423077 514.259615 6.423077 516.429487 6.423077 518.599359 6.423077 520.769231 6.423077 522.939103 6.423077 525.108974 6.423077 527.278846 6.423077 529.448718 6.423077 531.618590 6.423077 533.788462 6.423077 535.958333 6.423077 538.128205 6.423077 540.298077 6.423077 542.467949 6.423077 544.637821 6.423077 546.807692 6.423077 548.977564 6.423077 551.147436 6.423077 553.317308 6.423077 555.487179 6.423077 557.657051 6.423077 559.826923 6.423077 561.996795 6.423077 564.166667 6.423077 566.336538 6.423077 568.506410 6.423077 570.676282 6.423077 572.846154 6.423077 575.016026 6.423077 577.185897 6.423077 579.355769 6.423077 581.525641 6.423077 583.695513 6.423077 585.865385 6.423077 588.035256 6.423077 590.205128 6.423077 592.375000 6.423077 594.544872 6.423077 596.714744 6.423077 598.884615 6.423077 601.054487 6.423077 603.224359 6.423077 605.394231 6.423077 607.564103 6.423077 609.733974 6.423077 611.903846 6.423077 614.073718 6.423077 616.243590 6.423077 618.413462 6.423077 620.583333 6.423077 622.753205 6.423077 624.923077 6.423077 627.092949 6.423077 629.262821 6.423077 631.432692 6.423077 633.602564 6.423077 635.772436 6.423077 637.942308 6.423077 640.112179 6.423077 642.282051 6.423077 644.451923 6.423077 646.621795 6.423077 648.791667 6.423077 650.961538 6.423077 653.131410 6.423077 655.301282 6.423077 657.471154 6.423077 659.641026 6.423077 661.810897 6.423077 663.980769 6.423077"/></g><g class="series serie-5 color-5"><path class="line reactive nofill" d="M13.019231 6.423077 L15.189103 6.423077 17.358974 6.423077 19.528846 6.423077 21.698718 6.423077 23.868590 6.423077 26.038462 6.423077 28.208333 6.423077 30.378205 6.423077 32.548077 6.423077 34.717949 6.423077 36.887821 6.423077 39.057692 6.423077 41.227564 6.423077 43.397436 6.423077 45.567308 6.423077 47.737179 6.423077 49.907051 6.423077 52.076923 6.423077 54.246795 6.423077 56.416667 6.423077 58.586538 6.423077 60.756410 6.423077 62.926282 6.423077 65.096154 6.423077 67.266026 6.423077 69.435897 6.423077 71.605769 6.423077 73.775641 6.423077 75.945513 6.423077 78.115385 6.423077 80.285256 6.423077 82.455128 6.423077 84.625000 6.423077 86.794872 6.423077 88.964744 6.423077 91.134615 6.423077 93.304487 6.423077 95.474359 6.423077 97.644231 6.423077 99.814103 6.423077 101.983974 6.423077 104.153846 6.423077 106.323718 6.423077 108.493590 6.423077 110.663462 6.423077 112.833333 6.423077 115.003205 6.423077 117.173077 6.423077 119.342949 6.423077 121.512821 6.423077 123.682692 6.423077 125.852564 6.423077 128.022436 6.423077 130.192308 6.423077 132.362179 6.423077 134.532051 6.423077 136.701923 6.423077 138.871795 6.423077 141.041667 6.423077 143.211538 167.000000 145.381410 167.000000 147.551282 167.000000 149.721154 167.000000 151.891026 167.000000 154.060897 113.474359 156.230769 113.474359 158.400641 113.474359 160.570513 113.474359 162.740385 113.474359 164.910256 86.711538 167.080128 86.711538 169.250000 86.711538 171.419872 86.711538 173.589744 86.711538 175.759615 86.711538 177.929487 86.711538 180.099359 86.711538 182.269231 86.711538 184.439103 86.711538 186.608974 86.711538 188.778846 6.423077 190.948718 6.423077 193.118590 6.423077 195.288462 6.423077 197.458333 6.423077 199.628205 6.423077 201.798077 6.423077 203.967949 6.423077 206.137821 6.423077 208.307692 6.423077 210.477564 6.423077 212.647436 6.423077 214.817308 6.423077 216.987179 6.423077 219.157051 6.423077 221.326923 6.423077 223.496795 6.423077 225.666667 6.423077 227.836538 6.423077 230.006410 6.423077 232.176282 6.423077 234.346154 6.423077 236.516026 6.423077 238.685897 6.423077 240.855769 6.423077 243.025641 6.423077 245.195513 6.423077 247.365385 6.423077 249.535256 6.423077 251.705128 6.423077 253.875000 6.423077 256.044872 6.423077 258.214744 6.423077 260.384615 6.423077 262.554487 6.423077 264.724359 6.423077 266.894231 6.423077 269.064103 6.423077 271.233974 6.423077 273.403846 6.423077 275.573718 6.423077 277.743590 6.423077 279.913462 6.423077 282.083333 6.423077 284.253205 6.423077 286.423077 6.423077 288.592949 6.423077 290.762821 6.423077 292.932692 6.423077 295.102564 6.423077 297.272436 6.423077 299.442308 6.423077 301.612179 6.423077 303.782051 6.423077 305.951923 6.423077 308.121795 6.423077 310.291667 6.423077 312.461538 6.423077 314.631410 6.423077 316.801282 6.423077 318.971154 6.423077 321.141026 6.423077 323.310897 6.423077 325.480769 6.423077 327.650641 6.423077 329.820513 6.423077 331.990385 6.423077 334.160256 6.423077 336.330128 6.423077 338.500000 6.423077 340.669872 6.423077 342.839744 6.423077 345.009615 6.423077 347.179487 6.423077 349.349359 6.423077 351.519231 6.423077 353.689103 6.423077 355.858974 6.423077 358.028846 6.423077 360.198718 6.423077 362.368590 6.423077 364.538462 6.423077 366.708333 6.423077 368.878205 6.423077 371.048077 6.423077 373.217949 6.423077 375.387821 6.423077 377.557692 6.423077 379.727564 6.423077 381.897436 327.576923 384.067308 327.576923 386.237179 327.576923 388.407051 327.576923 390.576923 327.576923 392.746795 327.576923 394.916667 327.576923 397.086538 327.576923 399.256410 327.576923 401.426282 327.576923 403.596154 327.576923 405.766026 327.576923 407.935897 327.576923 410.105769 327.576923 412.275641 327.576923 414.445513 327.576923 416.615385 327.576923 418.785256 327.576923 420.955128 327.576923 423.125000 327.576923 425.294872 327.576923 427.464744 327.576923 429.634615 327.576923 431.804487 327.576923 433.974359 327.576923 436.144231 327.576923 438.314103 327.576923 440.483974 327.576923 442.653846 327.576923 444.823718 327.576923 446.993590 327.576923 449.163462 327.576923 451.333333 327.576923 453.503205 327.576923 455.673077 327.576923 457.842949 327.576923 460.012821 327.576923 462.182692 327.576923 464.352564 327.576923 466.522436 327.576923 468.692308 327.576923 470.862179 6.423077 473.032051 6.423077 475.201923 6.423077 477.371795 6.423077 479.541667 6.423077 481.711538 6.423077 483.881410 6.423077 486.051282 6.423077 488.221154 6.423077 490.391026 6.423077 492.560897 6.423077 494.730769 6.423077 496.900641 6.423077 499.070513 6.423077 501.240385 6.423077 503.410256 6.423077 505.580128 6.423077 507.750000 6.423077 509.919872 6.423077 512.089744 6.423077 514.259615 6.423077 516.429487 6.423077 518.599359 6.423077 520.769231 6.423077 522.939103 6.423077 525.108974 6.423077 527.278846 6.423077 529.448718 6.423077 531.618590 6.423077 533.788462 6.423077 535.958333 6.423077 538.128205 6.423077 540.298077 6.423077 542.467949 6.423077 544.637821 6.423077 546.807692 6.423077 548.977564 6.423077 551.147436 6.423077 553.317308 6.423077 555.487179 6.423077 557.657051 6.423077 559.826923 6.423077 561.996795 6.423077 564.166667 6.423077 566.336538 6.423077 568.506410 6.423077 570.676282 6.423077 572.846154 6.423077 575.016026 6.423077 577.185897 6.423077 579.355769 6.423077 581.525641 6.423077 583.695513 6.423077 585.865385 6.423077 588.035256 6.423077 590.205128 6.423077 592.375000 6.423077 594.544872 6.423077 596.714744 6.423077 598.884615 6.423077 601.054487 6.423077 603.224359 6.423077 605.394231 6.423077 607.564103 6.423077 609.733974 6.423077 611.903846 6.423077 614.073718 6.423077 616.243590 6.423077 618.413462 6.423077 620.583333 6.423077 622.753205 6.423077 624.923077 6.423077 627.092949 6.423077 629.262821 6.423077 631.432692 6.423077 633.602564 6.423077 635.772436 6.423077 637.942308 6.423077 640.112179 6.423077 642.282051 6.423077 644.451923 6.423077 646.621795 6.423077 648.791667 6.423077 650.961538 6.423077 653.131410 6.423077 655.301282 6.423077 657.471154 6.423077 659.641026 6.423077 661.810897 6.423077 663.980769 6.423077"/></g></g><g class="titles"><text class="title plot_title" x="400.0" y="28">Mean Accuracy1 for Tempo T ±10.0 BPM</text><text class="title" x="441.5" y="465.0">T (BPM)</text><text class="title" x="0" y="243.0" transform="rotate(-90 0.000000 215.000000)">Mean Accuracy1 (%)</text></g><g class="plot overlay" transform="translate(103, 48)"><g class="series serie-0 color-0"><g class="dots"><circle class="dot reactive tooltip-trigger" cx="13.01923076923077" cy="6.423076923076906" r="2.5"/><desc class="value">100.0</desc><desc class="x ">13.01923076923077</desc><desc class="y ">6.423076923076906</desc><desc class="x_label">0.0</desc></g><g class="dots"><circle class="dot reactive tooltip-trigger" cx="78.11538461538463" cy="6.423076923076906" r="2.5"/><desc class="value">100.0</desc><desc class="x ">78.11538461538463</desc><desc class="y ">6.423076923076906</desc><desc class="x_label">30.0</desc></g><g class="dots"><circle class="dot reactive tooltip-trigger" cx="143.21153846153845" cy="6.423076923076906" r="2.5"/><desc class="value">100.0</desc><desc class="x ">143.21153846153845</desc><desc class="y ">6.423076923076906</desc><desc class="x_label">60.0</desc></g><g class="dots"><circle class="dot reactive tooltip-trigger" cx="208.30769230769232" cy="6.423076923076906" r="2.5"/><desc class="value">100.0</desc><desc class="x ">208.30769230769232</desc><desc class="y ">6.423076923076906</desc><desc class="x_label">90.0</desc></g><g class="dots"><circle class="dot reactive tooltip-trigger" cx="273.4038461538462" cy="6.423076923076906" r="2.5"/><desc class="value">100.0</desc><desc class="x ">273.4038461538462</desc><desc class="y ">6.423076923076906</desc><desc class="x_label">120.0</desc></g><g class="dots"><circle class="dot reactive tooltip-trigger" cx="338.5" cy="6.423076923076906" r="2.5"/><desc class="value">100.0</desc><desc class="x ">338.5</desc><desc class="y ">6.423076923076906</desc><desc class="x_label">150.0</desc></g><g class="dots"><circle class="dot reactive tooltip-trigger" cx="403.59615384615387" cy="327.5769230769231" r="2.5"/><desc class="value">0.0</desc><desc class="x left top">403.59615384615387</desc><desc class="y left top">327.5769230769231</desc><desc class="x_label">180.0</desc></g><g class="dots"><circle class="dot reactive tooltip-trigger" cx="468.6923076923077" cy="327.5769230769231" r="2.5"/><desc class="value">0.0</desc><desc class="x left top">468.6923076923077</desc><desc class="y left top">327.5769230769231</desc><desc class="x_label">210.0</desc></g><g class="dots"><circle class="dot reactive tooltip-trigger" cx="533.7884615384615" cy="6.423076923076906" r="2.5"/><desc class="value">100.0</desc><desc class="x left">533.7884615384615</desc><desc class="y left">6.423076923076906</desc><desc class="x_label">240.0</desc></g><g class="dots"><circle class="dot reactive tooltip-trigger" cx="598.8846153846154" cy="6.423076923076906" r="2.5"/><desc class="value">100.0</desc><desc class="x left">598.8846153846154</desc><desc class="y left">6.423076923076906</desc><desc class="x_label">270.0</desc></g><g class="dots"><circle class="dot reactive tooltip-trigger" cx="663.9807692307692" cy="6.423076923076906" r="2.5"/><desc class="value">100.0</desc><desc class="x left">663.9807692307692</desc><desc class="y left">6.423076923076906</desc><desc class="x_label">300.0</desc></g></g><g class="series serie-1 color-1"><g class="dots"><circle class="dot reactive tooltip-trigger" cx="13.01923076923077" cy="6.423076923076906" r="2.5"/><desc class="value">100.0</desc><desc class="x ">13.01923076923077</desc><desc class="y ">6.423076923076906</desc><desc class="x_label">0.0</desc></g><g class="dots"><circle class="dot reactive tooltip-trigger" cx="78.11538461538463" cy="6.423076923076906" r="2.5"/><desc class="value">100.0</desc><desc class="x ">78.11538461538463</desc><desc class="y ">6.423076923076906</desc><desc class="x_label">30.0</desc></g><g class="dots"><circle class="dot reactive tooltip-trigger" cx="143.21153846153845" cy="167.0" r="2.5"/><desc class="value">50.0</desc><desc class="x ">143.21153846153845</desc><desc class="y ">167.0</desc><desc class="x_label">60.0</desc></g><g class="dots"><circle class="dot reactive tooltip-trigger" cx="208.30769230769232" cy="6.423076923076906" r="2.5"/><desc class="value">100.0</desc><desc class="x ">208.30769230769232</desc><desc class="y ">6.423076923076906</desc><desc class="x_label">90.0</desc></g><g class="dots"><circle class="dot reactive tooltip-trigger" cx="273.4038461538462" cy="6.423076923076906" r="2.5"/><desc class="value">100.0</desc><desc class="x ">273.4038461538462</desc><desc class="y ">6.423076923076906</desc><desc class="x_label">120.0</desc></g><g class="dots"><circle class="dot reactive tooltip-trigger" cx="338.5" cy="6.423076923076906" r="2.5"/><desc class="value">100.0</desc><desc class="x ">338.5</desc><desc class="y ">6.423076923076906</desc><desc class="x_label">150.0</desc></g><g class="dots"><circle class="dot reactive tooltip-trigger" cx="403.59615384615387" cy="327.5769230769231" r="2.5"/><desc class="value">0.0</desc><desc class="x left top">403.59615384615387</desc><desc class="y left top">327.5769230769231</desc><desc class="x_label">180.0</desc></g><g class="dots"><circle class="dot reactive tooltip-trigger" cx="468.6923076923077" cy="327.5769230769231" r="2.5"/><desc class="value">0.0</desc><desc class="x left top">468.6923076923077</desc><desc class="y left top">327.5769230769231</desc><desc class="x_label">210.0</desc></g><g class="dots"><circle class="dot reactive tooltip-trigger" cx="533.7884615384615" cy="6.423076923076906" r="2.5"/><desc class="value">100.0</desc><desc class="x left">533.7884615384615</desc><desc class="y left">6.423076923076906</desc><desc class="x_label">240.0</desc></g><g class="dots"><circle class="dot reactive tooltip-trigger" cx="598.8846153846154" cy="6.423076923076906" r="2.5"/><desc class="value">100.0</desc><desc class="x left">598.8846153846154</desc><desc class="y left">6.423076923076906</desc><desc class="x_label">270.0</desc></g><g class="dots"><circle class="dot reactive tooltip-trigger" cx="663.9807692307692" cy="6.423076923076906" r="2.5"/><desc class="value">100.0</desc><desc class="x left">663.9807692307692</desc><desc class="y left">6.423076923076906</desc><desc class="x_label">300.0</desc></g></g><g class="series serie-2 color-2"><g class="dots"><circle class="dot reactive tooltip-trigger" cx="13.01923076923077" cy="6.423076923076906" r="2.5"/><desc class="value">100.0</desc><desc class="x ">13.01923076923077</desc><desc class="y ">6.423076923076906</desc><desc class="x_label">0.0</desc></g><g class="dots"><circle class="dot reactive tooltip-trigger" cx="78.11538461538463" cy="6.423076923076906" r="2.5"/><desc class="value">100.0</desc><desc class="x ">78.11538461538463</desc><desc class="y ">6.423076923076906</desc><desc class="x_label">30.0</desc></g><g class="dots"><circle class="dot reactive tooltip-trigger" cx="143.21153846153845" cy="6.423076923076906" r="2.5"/><desc class="value">100.0</desc><desc class="x ">143.21153846153845</desc><desc class="y ">6.423076923076906</desc><desc class="x_label">60.0</desc></g><g class="dots"><circle class="dot reactive tooltip-trigger" cx="208.30769230769232" cy="6.423076923076906" r="2.5"/><desc class="value">100.0</desc><desc class="x ">208.30769230769232</desc><desc class="y ">6.423076923076906</desc><desc class="x_label">90.0</desc></g><g class="dots"><circle class="dot reactive tooltip-trigger" cx="273.4038461538462" cy="6.423076923076906" r="2.5"/><desc class="value">100.0</desc><desc class="x ">273.4038461538462</desc><desc class="y ">6.423076923076906</desc><desc class="x_label">120.0</desc></g><g class="dots"><circle class="dot reactive tooltip-trigger" cx="338.5" cy="6.423076923076906" r="2.5"/><desc class="value">100.0</desc><desc class="x ">338.5</desc><desc class="y ">6.423076923076906</desc><desc class="x_label">150.0</desc></g><g class="dots"><circle class="dot reactive tooltip-trigger" cx="403.59615384615387" cy="327.5769230769231" r="2.5"/><desc class="value">0.0</desc><desc class="x left top">403.59615384615387</desc><desc class="y left top">327.5769230769231</desc><desc class="x_label">180.0</desc></g><g class="dots"><circle class="dot reactive tooltip-trigger" cx="468.6923076923077" cy="327.5769230769231" r="2.5"/><desc class="value">0.0</desc><desc class="x left top">468.6923076923077</desc><desc class="y left top">327.5769230769231</desc><desc class="x_label">210.0</desc></g><g class="dots"><circle class="dot reactive tooltip-trigger" cx="533.7884615384615" cy="6.423076923076906" r="2.5"/><desc class="value">100.0</desc><desc class="x left">533.7884615384615</desc><desc class="y left">6.423076923076906</desc><desc class="x_label">240.0</desc></g><g class="dots"><circle class="dot reactive tooltip-trigger" cx="598.8846153846154" cy="6.423076923076906" r="2.5"/><desc class="value">100.0</desc><desc class="x left">598.8846153846154</desc><desc class="y left">6.423076923076906</desc><desc class="x_label">270.0</desc></g><g class="dots"><circle class="dot reactive tooltip-trigger" cx="663.9807692307692" cy="6.423076923076906" r="2.5"/><desc class="value">100.0</desc><desc class="x left">663.9807692307692</desc><desc class="y left">6.423076923076906</desc><desc class="x_label">300.0</desc></g></g><g class="series serie-3 color-3"><g class="dots"><circle class="dot reactive tooltip-trigger" cx="13.01923076923077" cy="6.423076923076906" r="2.5"/><desc class="value">100.0</desc><desc class="x ">13.01923076923077</desc><desc class="y ">6.423076923076906</desc><desc class="x_label">0.0</desc></g><g class="dots"><circle class="dot reactive tooltip-trigger" cx="78.11538461538463" cy="6.423076923076906" r="2.5"/><desc class="value">100.0</desc><desc class="x ">78.11538461538463</desc><desc class="y ">6.423076923076906</desc><desc class="x_label">30.0</desc></g><g class="dots"><circle class="dot reactive tooltip-trigger" cx="143.21153846153845" cy="327.5769230769231" r="2.5"/><desc class="value">0.0</desc><desc class="x top">143.21153846153845</desc><desc class="y top">327.5769230769231</desc><desc class="x_label">60.0</desc></g><g class="dots"><circle class="dot reactive tooltip-trigger" cx="208.30769230769232" cy="6.423076923076906" r="2.5"/><desc class="value">100.0</desc><desc class="x ">208.30769230769232</desc><desc class="y ">6.423076923076906</desc><desc class="x_label">90.0</desc></g><g class="dots"><circle class="dot reactive tooltip-trigger" cx="273.4038461538462" cy="6.423076923076906" r="2.5"/><desc class="value">100.0</desc><desc class="x ">273.4038461538462</desc><desc class="y ">6.423076923076906</desc><desc class="x_label">120.0</desc></g><g class="dots"><circle class="dot reactive tooltip-trigger" cx="338.5" cy="6.423076923076906" r="2.5"/><desc class="value">100.0</desc><desc class="x ">338.5</desc><desc class="y ">6.423076923076906</desc><desc class="x_label">150.0</desc></g><g class="dots"><circle class="dot reactive tooltip-trigger" cx="403.59615384615387" cy="327.5769230769231" r="2.5"/><desc class="value">0.0</desc><desc class="x left top">403.59615384615387</desc><desc class="y left top">327.5769230769231</desc><desc class="x_label">180.0</desc></g><g class="dots"><circle class="dot reactive tooltip-trigger" cx="468.6923076923077" cy="327.5769230769231" r="2.5"/><desc class="value">0.0</desc><desc class="x left top">468.6923076923077</desc><desc class="y left top">327.5769230769231</desc><desc class="x_label">210.0</desc></g><g class="dots"><circle class="dot reactive tooltip-trigger" cx="533.7884615384615" cy="6.423076923076906" r="2.5"/><desc class="value">100.0</desc><desc class="x left">533.7884615384615</desc><desc class="y left">6.423076923076906</desc><desc class="x_label">240.0</desc></g><g class="dots"><circle class="dot reactive tooltip-trigger" cx="598.8846153846154" cy="6.423076923076906" r="2.5"/><desc class="value">100.0</desc><desc class="x left">598.8846153846154</desc><desc class="y left">6.423076923076906</desc><desc class="x_label">270.0</desc></g><g class="dots"><circle class="dot reactive tooltip-trigger" cx="663.9807692307692" cy="6.423076923076906" r="2.5"/><desc class="value">100.0</desc><desc class="x left">663.9807692307692</desc><desc class="y left">6.423076923076906</desc><desc class="x_label">300.0</desc></g></g><g class="series serie-4 color-4"><g class="dots"><circle class="dot reactive tooltip-trigger" cx="13.01923076923077" cy="6.423076923076906" r="2.5"/><desc class="value">100.0</desc><desc class="x ">13.01923076923077</desc><desc class="y ">6.423076923076906</desc><desc class="x_label">0.0</desc></g><g class="dots"><circle class="dot reactive tooltip-trigger" cx="78.11538461538463" cy="6.423076923076906" r="2.5"/><desc class="value">100.0</desc><desc class="x ">78.11538461538463</desc><desc class="y ">6.423076923076906</desc><desc class="x_label">30.0</desc></g><g class="dots"><circle class="dot reactive tooltip-trigger" cx="143.21153846153845" cy="167.0" r="2.5"/><desc class="value">50.0</desc><desc class="x ">143.21153846153845</desc><desc class="y ">167.0</desc><desc class="x_label">60.0</desc></g><g class="dots"><circle class="dot reactive tooltip-trigger" cx="208.30769230769232" cy="6.423076923076906" r="2.5"/><desc class="value">100.0</desc><desc class="x ">208.30769230769232</desc><desc class="y ">6.423076923076906</desc><desc class="x_label">90.0</desc></g><g class="dots"><circle class="dot reactive tooltip-trigger" cx="273.4038461538462" cy="6.423076923076906" r="2.5"/><desc class="value">100.0</desc><desc class="x ">273.4038461538462</desc><desc class="y ">6.423076923076906</desc><desc class="x_label">120.0</desc></g><g class="dots"><circle class="dot reactive tooltip-trigger" cx="338.5" cy="6.423076923076906" r="2.5"/><desc class="value">100.0</desc><desc class="x ">338.5</desc><desc class="y ">6.423076923076906</desc><desc class="x_label">150.0</desc></g><g class="dots"><circle class="dot reactive tooltip-trigger" cx="403.59615384615387" cy="327.5769230769231" r="2.5"/><desc class="value">0.0</desc><desc class="x left top">403.59615384615387</desc><desc class="y left top">327.5769230769231</desc><desc class="x_label">180.0</desc></g><g class="dots"><circle class="dot reactive tooltip-trigger" cx="468.6923076923077" cy="327.5769230769231" r="2.5"/><desc class="value">0.0</desc><desc class="x left top">468.6923076923077</desc><desc class="y left top">327.5769230769231</desc><desc class="x_label">210.0</desc></g><g class="dots"><circle class="dot reactive tooltip-trigger" cx="533.7884615384615" cy="6.423076923076906" r="2.5"/><desc class="value">100.0</desc><desc class="x left">533.7884615384615</desc><desc class="y left">6.423076923076906</desc><desc class="x_label">240.0</desc></g><g class="dots"><circle class="dot reactive tooltip-trigger" cx="598.8846153846154" cy="6.423076923076906" r="2.5"/><desc class="value">100.0</desc><desc class="x left">598.8846153846154</desc><desc class="y left">6.423076923076906</desc><desc class="x_label">270.0</desc></g><g class="dots"><circle class="dot reactive tooltip-trigger" cx="663.9807692307692" cy="6.423076923076906" r="2.5"/><desc class="value">100.0</desc><desc class="x left">663.9807692307692</desc><desc class="y left">6.423076923076906</desc><desc class="x_label">300.0</desc></g></g><g class="series serie-5 color-5"><g class="dots"><circle class="dot reactive tooltip-trigger" cx="13.01923076923077" cy="6.423076923076906" r="2.5"/><desc class="value">100.0</desc><desc class="x ">13.01923076923077</desc><desc class="y ">6.423076923076906</desc><desc class="x_label">0.0</desc></g><g class="dots"><circle class="dot reactive tooltip-trigger" cx="78.11538461538463" cy="6.423076923076906" r="2.5"/><desc class="value">100.0</desc><desc class="x ">78.11538461538463</desc><desc class="y ">6.423076923076906</desc><desc class="x_label">30.0</desc></g><g class="dots"><circle class="dot reactive tooltip-trigger" cx="143.21153846153845" cy="167.0" r="2.5"/><desc class="value">50.0</desc><desc class="x ">143.21153846153845</desc><desc class="y ">167.0</desc><desc class="x_label">60.0</desc></g><g class="dots"><circle class="dot reactive tooltip-trigger" cx="208.30769230769232" cy="6.423076923076906" r="2.5"/><desc class="value">100.0</desc><desc class="x ">208.30769230769232</desc><desc class="y ">6.423076923076906</desc><desc class="x_label">90.0</desc></g><g class="dots"><circle class="dot reactive tooltip-trigger" cx="273.4038461538462" cy="6.423076923076906" r="2.5"/><desc class="value">100.0</desc><desc class="x ">273.4038461538462</desc><desc class="y ">6.423076923076906</desc><desc class="x_label">120.0</desc></g><g class="dots"><circle class="dot reactive tooltip-trigger" cx="338.5" cy="6.423076923076906" r="2.5"/><desc class="value">100.0</desc><desc class="x ">338.5</desc><desc class="y ">6.423076923076906</desc><desc class="x_label">150.0</desc></g><g class="dots"><circle class="dot reactive tooltip-trigger" cx="403.59615384615387" cy="327.5769230769231" r="2.5"/><desc class="value">0.0</desc><desc class="x left top">403.59615384615387</desc><desc class="y left top">327.5769230769231</desc><desc class="x_label">180.0</desc></g><g class="dots"><circle class="dot reactive tooltip-trigger" cx="468.6923076923077" cy="327.5769230769231" r="2.5"/><desc class="value">0.0</desc><desc class="x left top">468.6923076923077</desc><desc class="y left top">327.5769230769231</desc><desc class="x_label">210.0</desc></g><g class="dots"><circle class="dot reactive tooltip-trigger" cx="533.7884615384615" cy="6.423076923076906" r="2.5"/><desc class="value">100.0</desc><desc class="x left">533.7884615384615</desc><desc class="y left">6.423076923076906</desc><desc class="x_label">240.0</desc></g><g class="dots"><circle class="dot reactive tooltip-trigger" cx="598.8846153846154" cy="6.423076923076906" r="2.5"/><desc class="value">100.0</desc><desc class="x left">598.8846153846154</desc><desc class="y left">6.423076923076906</desc><desc class="x_label">270.0</desc></g><g class="dots"><circle class="dot reactive tooltip-trigger" cx="663.9807692307692" cy="6.423076923076906" r="2.5"/><desc class="value">100.0</desc><desc class="x left">663.9807692307692</desc><desc class="y left">6.423076923076906</desc><desc class="x_label">300.0</desc></g></g></g><g class="plot text-overlay" transform="translate(103, 48)"><g class="series serie-0 color-0"/><g class="series serie-1 color-1"/><g class="series serie-2 color-2"/><g class="series serie-3 color-3"/><g class="series serie-4 color-4"/><g class="series serie-5 color-5"/></g><g class="plot tooltip-overlay" transform="translate(103, 48)"><g class="tooltip" style="opacity: 0" transform="translate(0 0)"><rect class="tooltip-box" height="0" rx="0" ry="0" width="0"/><g class="text"/></g></g><g class="legends" transform="translate(113, 485)"><g class="legend reactive activate-serie" id="activate-serie-0"><rect class="color-0 reactive" height="12" width="12" x="0.0" y="1.5"/><text x="17.0" y="12.0">boeck2015/tempodetector2016_default</text></g><g class="legend reactive activate-serie" id="activate-serie-1"><rect class="color-1 reactive" height="12" width="12" x="338.5" y="1.5"/><text x="355.5" y="12.0">davies2009/mirex_qm_tempotracker</text></g><g class="legend reactive activate-serie" id="activate-serie-2"><rect class="color-2 reactive" height="12" width="12" x="0.0" y="24.0"/><text x="17.0" y="34.5">percival2014/stem</text></g><g class="legend reactive activate-serie" id="activate-serie-3"><rect class="color-3 reactive" height="12" width="12" x="338.5" y="24.0"/><text x="355.5" y="34.5">schreiber2014/default</text></g><g class="legend reactive activate-serie" id="activate-serie-4"><rect class="color-4 reactive" height="12" width="12" x="0.0" y="46.5"/><text x="17.0" y="57.0">schreiber2017/ismir2017</text></g><g class="legend reactive activate-serie" id="activate-serie-5"><rect class="color-5 reactive" height="12" width="12" x="338.5" y="46.5"/><text x="355.5" y="57.0">schreiber2017/mirex2017</text></g></g></g></svg>