<?xml version="1.0" encoding="utf-8" standalone="no"?>
<!DOCTYPE svg PUBLIC "-//W3C//DTD SVG 1.1//EN"
  "http://www.w3.org/Graphics/SVG/1.1/DTD/svg11.dtd">
<!-- Created with matplotlib (http://matplotlib.org/) -->
<svg height="381.426375pt" version="1.1" viewBox="0 0 632.498437 381.426375" width="632.498437pt" xmlns="http://www.w3.org/2000/svg" xmlns:xlink="http://www.w3.org/1999/xlink">
 <defs>
  <style type="text/css">
*{stroke-linecap:butt;stroke-linejoin:round;}
  </style>
 </defs>
 <g id="figure_1">
  <g id="patch_1">
   <path d="M -0 381.426375 
L 632.498438 381.426375 
L 632.498438 0 
L -0 0 
z
" style="fill:#ffffff;"/>
  </g>
  <g id="axes_1">
   <g id="patch_2">
    <path d="M 226.746875 343.870125 
L 617.346875 343.870125 
L 617.346875 22.318125 
L 226.746875 22.318125 
z
" style="fill:#ffffff;"/>
   </g>
   <g id="matplotlib.axis_1">
    <g id="xtick_1">
     <g id="line2d_1">
      <path clip-path="url(#p3ad97658c4)" d="M 226.746875 343.870125 
L 226.746875 22.318125 
" style="fill:none;stroke:#b0b0b0;stroke-linecap:square;stroke-width:0.8;"/>
     </g>
     <g id="line2d_2">
      <defs>
       <path d="M 0 0 
L 0 3.5 
" id="m9c365be00d" style="stroke:#000000;stroke-width:0.8;"/>
      </defs>
      <g>
       <use style="stroke:#000000;stroke-width:0.8;" x="226.746875" xlink:href="#m9c365be00d" y="343.870125"/>
      </g>
     </g>
     <g id="text_1">
      <!-- 0.0 -->
      <defs>
       <path d="M 31.78125 66.40625 
Q 24.171875 66.40625 20.328125 58.90625 
Q 16.5 51.421875 16.5 36.375 
Q 16.5 21.390625 20.328125 13.890625 
Q 24.171875 6.390625 31.78125 6.390625 
Q 39.453125 6.390625 43.28125 13.890625 
Q 47.125 21.390625 47.125 36.375 
Q 47.125 51.421875 43.28125 58.90625 
Q 39.453125 66.40625 31.78125 66.40625 
z
M 31.78125 74.21875 
Q 44.046875 74.21875 50.515625 64.515625 
Q 56.984375 54.828125 56.984375 36.375 
Q 56.984375 17.96875 50.515625 8.265625 
Q 44.046875 -1.421875 31.78125 -1.421875 
Q 19.53125 -1.421875 13.0625 8.265625 
Q 6.59375 17.96875 6.59375 36.375 
Q 6.59375 54.828125 13.0625 64.515625 
Q 19.53125 74.21875 31.78125 74.21875 
z
" id="DejaVuSans-30"/>
       <path d="M 10.6875 12.40625 
L 21 12.40625 
L 21 0 
L 10.6875 0 
z
" id="DejaVuSans-2e"/>
      </defs>
      <g transform="translate(218.795312 358.468563)scale(0.1 -0.1)">
       <use xlink:href="#DejaVuSans-30"/>
       <use x="63.623047" xlink:href="#DejaVuSans-2e"/>
       <use x="95.410156" xlink:href="#DejaVuSans-30"/>
      </g>
     </g>
    </g>
    <g id="xtick_2">
     <g id="line2d_3">
      <path clip-path="url(#p3ad97658c4)" d="M 291.846875 343.870125 
L 291.846875 22.318125 
" style="fill:none;stroke:#b0b0b0;stroke-linecap:square;stroke-width:0.8;"/>
     </g>
     <g id="line2d_4">
      <g>
       <use style="stroke:#000000;stroke-width:0.8;" x="291.846875" xlink:href="#m9c365be00d" y="343.870125"/>
      </g>
     </g>
     <g id="text_2">
      <!-- 0.5 -->
      <defs>
       <path d="M 10.796875 72.90625 
L 49.515625 72.90625 
L 49.515625 64.59375 
L 19.828125 64.59375 
L 19.828125 46.734375 
Q 21.96875 47.46875 24.109375 47.828125 
Q 26.265625 48.1875 28.421875 48.1875 
Q 40.625 48.1875 47.75 41.5 
Q 54.890625 34.8125 54.890625 23.390625 
Q 54.890625 11.625 47.5625 5.09375 
Q 40.234375 -1.421875 26.90625 -1.421875 
Q 22.3125 -1.421875 17.546875 -0.640625 
Q 12.796875 0.140625 7.71875 1.703125 
L 7.71875 11.625 
Q 12.109375 9.234375 16.796875 8.0625 
Q 21.484375 6.890625 26.703125 6.890625 
Q 35.15625 6.890625 40.078125 11.328125 
Q 45.015625 15.765625 45.015625 23.390625 
Q 45.015625 31 40.078125 35.4375 
Q 35.15625 39.890625 26.703125 39.890625 
Q 22.75 39.890625 18.8125 39.015625 
Q 14.890625 38.140625 10.796875 36.28125 
z
" id="DejaVuSans-35"/>
      </defs>
      <g transform="translate(283.895312 358.468563)scale(0.1 -0.1)">
       <use xlink:href="#DejaVuSans-30"/>
       <use x="63.623047" xlink:href="#DejaVuSans-2e"/>
       <use x="95.410156" xlink:href="#DejaVuSans-35"/>
      </g>
     </g>
    </g>
    <g id="xtick_3">
     <g id="line2d_5">
      <path clip-path="url(#p3ad97658c4)" d="M 356.946875 343.870125 
L 356.946875 22.318125 
" style="fill:none;stroke:#b0b0b0;stroke-linecap:square;stroke-width:0.8;"/>
     </g>
     <g id="line2d_6">
      <g>
       <use style="stroke:#000000;stroke-width:0.8;" x="356.946875" xlink:href="#m9c365be00d" y="343.870125"/>
      </g>
     </g>
     <g id="text_3">
      <!-- 1.0 -->
      <defs>
       <path d="M 12.40625 8.296875 
L 28.515625 8.296875 
L 28.515625 63.921875 
L 10.984375 60.40625 
L 10.984375 69.390625 
L 28.421875 72.90625 
L 38.28125 72.90625 
L 38.28125 8.296875 
L 54.390625 8.296875 
L 54.390625 0 
L 12.40625 0 
z
" id="DejaVuSans-31"/>
      </defs>
      <g transform="translate(348.995312 358.468563)scale(0.1 -0.1)">
       <use xlink:href="#DejaVuSans-31"/>
       <use x="63.623047" xlink:href="#DejaVuSans-2e"/>
       <use x="95.410156" xlink:href="#DejaVuSans-30"/>
      </g>
     </g>
    </g>
    <g id="xtick_4">
     <g id="line2d_7">
      <path clip-path="url(#p3ad97658c4)" d="M 422.046875 343.870125 
L 422.046875 22.318125 
" style="fill:none;stroke:#b0b0b0;stroke-linecap:square;stroke-width:0.8;"/>
     </g>
     <g id="line2d_8">
      <g>
       <use style="stroke:#000000;stroke-width:0.8;" x="422.046875" xlink:href="#m9c365be00d" y="343.870125"/>
      </g>
     </g>
     <g id="text_4">
      <!-- 1.5 -->
      <g transform="translate(414.095312 358.468563)scale(0.1 -0.1)">
       <use xlink:href="#DejaVuSans-31"/>
       <use x="63.623047" xlink:href="#DejaVuSans-2e"/>
       <use x="95.410156" xlink:href="#DejaVuSans-35"/>
      </g>
     </g>
    </g>
    <g id="xtick_5">
     <g id="line2d_9">
      <path clip-path="url(#p3ad97658c4)" d="M 487.146875 343.870125 
L 487.146875 22.318125 
" style="fill:none;stroke:#b0b0b0;stroke-linecap:square;stroke-width:0.8;"/>
     </g>
     <g id="line2d_10">
      <g>
       <use style="stroke:#000000;stroke-width:0.8;" x="487.146875" xlink:href="#m9c365be00d" y="343.870125"/>
      </g>
     </g>
     <g id="text_5">
      <!-- 2.0 -->
      <defs>
       <path d="M 19.1875 8.296875 
L 53.609375 8.296875 
L 53.609375 0 
L 7.328125 0 
L 7.328125 8.296875 
Q 12.9375 14.109375 22.625 23.890625 
Q 32.328125 33.6875 34.8125 36.53125 
Q 39.546875 41.84375 41.421875 45.53125 
Q 43.3125 49.21875 43.3125 52.78125 
Q 43.3125 58.59375 39.234375 62.25 
Q 35.15625 65.921875 28.609375 65.921875 
Q 23.96875 65.921875 18.8125 64.3125 
Q 13.671875 62.703125 7.8125 59.421875 
L 7.8125 69.390625 
Q 13.765625 71.78125 18.9375 73 
Q 24.125 74.21875 28.421875 74.21875 
Q 39.75 74.21875 46.484375 68.546875 
Q 53.21875 62.890625 53.21875 53.421875 
Q 53.21875 48.921875 51.53125 44.890625 
Q 49.859375 40.875 45.40625 35.40625 
Q 44.1875 33.984375 37.640625 27.21875 
Q 31.109375 20.453125 19.1875 8.296875 
z
" id="DejaVuSans-32"/>
      </defs>
      <g transform="translate(479.195312 358.468563)scale(0.1 -0.1)">
       <use xlink:href="#DejaVuSans-32"/>
       <use x="63.623047" xlink:href="#DejaVuSans-2e"/>
       <use x="95.410156" xlink:href="#DejaVuSans-30"/>
      </g>
     </g>
    </g>
    <g id="xtick_6">
     <g id="line2d_11">
      <path clip-path="url(#p3ad97658c4)" d="M 552.246875 343.870125 
L 552.246875 22.318125 
" style="fill:none;stroke:#b0b0b0;stroke-linecap:square;stroke-width:0.8;"/>
     </g>
     <g id="line2d_12">
      <g>
       <use style="stroke:#000000;stroke-width:0.8;" x="552.246875" xlink:href="#m9c365be00d" y="343.870125"/>
      </g>
     </g>
     <g id="text_6">
      <!-- 2.5 -->
      <g transform="translate(544.295313 358.468563)scale(0.1 -0.1)">
       <use xlink:href="#DejaVuSans-32"/>
       <use x="63.623047" xlink:href="#DejaVuSans-2e"/>
       <use x="95.410156" xlink:href="#DejaVuSans-35"/>
      </g>
     </g>
    </g>
    <g id="xtick_7">
     <g id="line2d_13">
      <path clip-path="url(#p3ad97658c4)" d="M 617.346875 343.870125 
L 617.346875 22.318125 
" style="fill:none;stroke:#b0b0b0;stroke-linecap:square;stroke-width:0.8;"/>
     </g>
     <g id="line2d_14">
      <g>
       <use style="stroke:#000000;stroke-width:0.8;" x="617.346875" xlink:href="#m9c365be00d" y="343.870125"/>
      </g>
     </g>
     <g id="text_7">
      <!-- 3.0 -->
      <defs>
       <path d="M 40.578125 39.3125 
Q 47.65625 37.796875 51.625 33 
Q 55.609375 28.21875 55.609375 21.1875 
Q 55.609375 10.40625 48.1875 4.484375 
Q 40.765625 -1.421875 27.09375 -1.421875 
Q 22.515625 -1.421875 17.65625 -0.515625 
Q 12.796875 0.390625 7.625 2.203125 
L 7.625 11.71875 
Q 11.71875 9.328125 16.59375 8.109375 
Q 21.484375 6.890625 26.8125 6.890625 
Q 36.078125 6.890625 40.9375 10.546875 
Q 45.796875 14.203125 45.796875 21.1875 
Q 45.796875 27.640625 41.28125 31.265625 
Q 36.765625 34.90625 28.71875 34.90625 
L 20.21875 34.90625 
L 20.21875 43.015625 
L 29.109375 43.015625 
Q 36.375 43.015625 40.234375 45.921875 
Q 44.09375 48.828125 44.09375 54.296875 
Q 44.09375 59.90625 40.109375 62.90625 
Q 36.140625 65.921875 28.71875 65.921875 
Q 24.65625 65.921875 20.015625 65.03125 
Q 15.375 64.15625 9.8125 62.3125 
L 9.8125 71.09375 
Q 15.4375 72.65625 20.34375 73.4375 
Q 25.25 74.21875 29.59375 74.21875 
Q 40.828125 74.21875 47.359375 69.109375 
Q 53.90625 64.015625 53.90625 55.328125 
Q 53.90625 49.265625 50.4375 45.09375 
Q 46.96875 40.921875 40.578125 39.3125 
z
" id="DejaVuSans-33"/>
      </defs>
      <g transform="translate(609.395312 358.468563)scale(0.1 -0.1)">
       <use xlink:href="#DejaVuSans-33"/>
       <use x="63.623047" xlink:href="#DejaVuSans-2e"/>
       <use x="95.410156" xlink:href="#DejaVuSans-30"/>
      </g>
     </g>
    </g>
    <g id="text_8">
     <!-- AOE1 (TO) -->
     <defs>
      <path d="M 34.1875 63.1875 
L 20.796875 26.90625 
L 47.609375 26.90625 
z
M 28.609375 72.90625 
L 39.796875 72.90625 
L 67.578125 0 
L 57.328125 0 
L 50.6875 18.703125 
L 17.828125 18.703125 
L 11.1875 0 
L 0.78125 0 
z
" id="DejaVuSans-41"/>
      <path d="M 39.40625 66.21875 
Q 28.65625 66.21875 22.328125 58.203125 
Q 16.015625 50.203125 16.015625 36.375 
Q 16.015625 22.609375 22.328125 14.59375 
Q 28.65625 6.59375 39.40625 6.59375 
Q 50.140625 6.59375 56.421875 14.59375 
Q 62.703125 22.609375 62.703125 36.375 
Q 62.703125 50.203125 56.421875 58.203125 
Q 50.140625 66.21875 39.40625 66.21875 
z
M 39.40625 74.21875 
Q 54.734375 74.21875 63.90625 63.9375 
Q 73.09375 53.65625 73.09375 36.375 
Q 73.09375 19.140625 63.90625 8.859375 
Q 54.734375 -1.421875 39.40625 -1.421875 
Q 24.03125 -1.421875 14.8125 8.828125 
Q 5.609375 19.09375 5.609375 36.375 
Q 5.609375 53.65625 14.8125 63.9375 
Q 24.03125 74.21875 39.40625 74.21875 
z
" id="DejaVuSans-4f"/>
      <path d="M 9.8125 72.90625 
L 55.90625 72.90625 
L 55.90625 64.59375 
L 19.671875 64.59375 
L 19.671875 43.015625 
L 54.390625 43.015625 
L 54.390625 34.71875 
L 19.671875 34.71875 
L 19.671875 8.296875 
L 56.78125 8.296875 
L 56.78125 0 
L 9.8125 0 
z
" id="DejaVuSans-45"/>
      <path id="DejaVuSans-20"/>
      <path d="M 31 75.875 
Q 24.46875 64.65625 21.28125 53.65625 
Q 18.109375 42.671875 18.109375 31.390625 
Q 18.109375 20.125 21.3125 9.0625 
Q 24.515625 -2 31 -13.1875 
L 23.1875 -13.1875 
Q 15.875 -1.703125 12.234375 9.375 
Q 8.59375 20.453125 8.59375 31.390625 
Q 8.59375 42.28125 12.203125 53.3125 
Q 15.828125 64.359375 23.1875 75.875 
z
" id="DejaVuSans-28"/>
      <path d="M -0.296875 72.90625 
L 61.375 72.90625 
L 61.375 64.59375 
L 35.5 64.59375 
L 35.5 0 
L 25.59375 0 
L 25.59375 64.59375 
L -0.296875 64.59375 
z
" id="DejaVuSans-54"/>
      <path d="M 8.015625 75.875 
L 15.828125 75.875 
Q 23.140625 64.359375 26.78125 53.3125 
Q 30.421875 42.28125 30.421875 31.390625 
Q 30.421875 20.453125 26.78125 9.375 
Q 23.140625 -1.703125 15.828125 -13.1875 
L 8.015625 -13.1875 
Q 14.5 -2 17.703125 9.0625 
Q 20.90625 20.125 20.90625 31.390625 
Q 20.90625 42.671875 17.703125 53.65625 
Q 14.5 64.65625 8.015625 75.875 
z
" id="DejaVuSans-29"/>
     </defs>
     <g transform="translate(395.870313 372.146687)scale(0.1 -0.1)">
      <use xlink:href="#DejaVuSans-41"/>
      <use x="68.392578" xlink:href="#DejaVuSans-4f"/>
      <use x="147.103516" xlink:href="#DejaVuSans-45"/>
      <use x="210.287109" xlink:href="#DejaVuSans-31"/>
      <use x="273.910156" xlink:href="#DejaVuSans-20"/>
      <use x="305.697266" xlink:href="#DejaVuSans-28"/>
      <use x="344.710938" xlink:href="#DejaVuSans-54"/>
      <use x="405.794922" xlink:href="#DejaVuSans-4f"/>
      <use x="484.505859" xlink:href="#DejaVuSans-29"/>
     </g>
    </g>
   </g>
   <g id="matplotlib.axis_2">
    <g id="ytick_1">
     <g id="line2d_15">
      <path clip-path="url(#p3ad97658c4)" d="M 226.746875 320.656478 
L 617.346875 320.656478 
" style="fill:none;stroke:#b0b0b0;stroke-linecap:square;stroke-width:0.8;"/>
     </g>
     <g id="line2d_16">
      <defs>
       <path d="M 0 0 
L -3.5 0 
" id="m93a43e49e5" style="stroke:#000000;stroke-width:0.8;"/>
      </defs>
      <g>
       <use style="stroke:#000000;stroke-width:0.8;" x="226.746875" xlink:href="#m93a43e49e5" y="320.656478"/>
      </g>
     </g>
     <g id="text_9">
      <!-- schreiber2018/ismir2018 -->
      <defs>
       <path d="M 44.28125 53.078125 
L 44.28125 44.578125 
Q 40.484375 46.53125 36.375 47.5 
Q 32.28125 48.484375 27.875 48.484375 
Q 21.1875 48.484375 17.84375 46.4375 
Q 14.5 44.390625 14.5 40.28125 
Q 14.5 37.15625 16.890625 35.375 
Q 19.28125 33.59375 26.515625 31.984375 
L 29.59375 31.296875 
Q 39.15625 29.25 43.1875 25.515625 
Q 47.21875 21.78125 47.21875 15.09375 
Q 47.21875 7.46875 41.1875 3.015625 
Q 35.15625 -1.421875 24.609375 -1.421875 
Q 20.21875 -1.421875 15.453125 -0.5625 
Q 10.6875 0.296875 5.421875 2 
L 5.421875 11.28125 
Q 10.40625 8.6875 15.234375 7.390625 
Q 20.0625 6.109375 24.8125 6.109375 
Q 31.15625 6.109375 34.5625 8.28125 
Q 37.984375 10.453125 37.984375 14.40625 
Q 37.984375 18.0625 35.515625 20.015625 
Q 33.0625 21.96875 24.703125 23.78125 
L 21.578125 24.515625 
Q 13.234375 26.265625 9.515625 29.90625 
Q 5.8125 33.546875 5.8125 39.890625 
Q 5.8125 47.609375 11.28125 51.796875 
Q 16.75 56 26.8125 56 
Q 31.78125 56 36.171875 55.265625 
Q 40.578125 54.546875 44.28125 53.078125 
z
" id="DejaVuSans-73"/>
       <path d="M 48.78125 52.59375 
L 48.78125 44.1875 
Q 44.96875 46.296875 41.140625 47.34375 
Q 37.3125 48.390625 33.40625 48.390625 
Q 24.65625 48.390625 19.8125 42.84375 
Q 14.984375 37.3125 14.984375 27.296875 
Q 14.984375 17.28125 19.8125 11.734375 
Q 24.65625 6.203125 33.40625 6.203125 
Q 37.3125 6.203125 41.140625 7.25 
Q 44.96875 8.296875 48.78125 10.40625 
L 48.78125 2.09375 
Q 45.015625 0.34375 40.984375 -0.53125 
Q 36.96875 -1.421875 32.421875 -1.421875 
Q 20.0625 -1.421875 12.78125 6.34375 
Q 5.515625 14.109375 5.515625 27.296875 
Q 5.515625 40.671875 12.859375 48.328125 
Q 20.21875 56 33.015625 56 
Q 37.15625 56 41.109375 55.140625 
Q 45.0625 54.296875 48.78125 52.59375 
z
" id="DejaVuSans-63"/>
       <path d="M 54.890625 33.015625 
L 54.890625 0 
L 45.90625 0 
L 45.90625 32.71875 
Q 45.90625 40.484375 42.875 44.328125 
Q 39.84375 48.1875 33.796875 48.1875 
Q 26.515625 48.1875 22.3125 43.546875 
Q 18.109375 38.921875 18.109375 30.90625 
L 18.109375 0 
L 9.078125 0 
L 9.078125 75.984375 
L 18.109375 75.984375 
L 18.109375 46.1875 
Q 21.34375 51.125 25.703125 53.5625 
Q 30.078125 56 35.796875 56 
Q 45.21875 56 50.046875 50.171875 
Q 54.890625 44.34375 54.890625 33.015625 
z
" id="DejaVuSans-68"/>
       <path d="M 41.109375 46.296875 
Q 39.59375 47.171875 37.8125 47.578125 
Q 36.03125 48 33.890625 48 
Q 26.265625 48 22.1875 43.046875 
Q 18.109375 38.09375 18.109375 28.8125 
L 18.109375 0 
L 9.078125 0 
L 9.078125 54.6875 
L 18.109375 54.6875 
L 18.109375 46.1875 
Q 20.953125 51.171875 25.484375 53.578125 
Q 30.03125 56 36.53125 56 
Q 37.453125 56 38.578125 55.875 
Q 39.703125 55.765625 41.0625 55.515625 
z
" id="DejaVuSans-72"/>
       <path d="M 56.203125 29.59375 
L 56.203125 25.203125 
L 14.890625 25.203125 
Q 15.484375 15.921875 20.484375 11.0625 
Q 25.484375 6.203125 34.421875 6.203125 
Q 39.59375 6.203125 44.453125 7.46875 
Q 49.3125 8.734375 54.109375 11.28125 
L 54.109375 2.78125 
Q 49.265625 0.734375 44.1875 -0.34375 
Q 39.109375 -1.421875 33.890625 -1.421875 
Q 20.796875 -1.421875 13.15625 6.1875 
Q 5.515625 13.8125 5.515625 26.8125 
Q 5.515625 40.234375 12.765625 48.109375 
Q 20.015625 56 32.328125 56 
Q 43.359375 56 49.78125 48.890625 
Q 56.203125 41.796875 56.203125 29.59375 
z
M 47.21875 32.234375 
Q 47.125 39.59375 43.09375 43.984375 
Q 39.0625 48.390625 32.421875 48.390625 
Q 24.90625 48.390625 20.390625 44.140625 
Q 15.875 39.890625 15.1875 32.171875 
z
" id="DejaVuSans-65"/>
       <path d="M 9.421875 54.6875 
L 18.40625 54.6875 
L 18.40625 0 
L 9.421875 0 
z
M 9.421875 75.984375 
L 18.40625 75.984375 
L 18.40625 64.59375 
L 9.421875 64.59375 
z
" id="DejaVuSans-69"/>
       <path d="M 48.6875 27.296875 
Q 48.6875 37.203125 44.609375 42.84375 
Q 40.53125 48.484375 33.40625 48.484375 
Q 26.265625 48.484375 22.1875 42.84375 
Q 18.109375 37.203125 18.109375 27.296875 
Q 18.109375 17.390625 22.1875 11.75 
Q 26.265625 6.109375 33.40625 6.109375 
Q 40.53125 6.109375 44.609375 11.75 
Q 48.6875 17.390625 48.6875 27.296875 
z
M 18.109375 46.390625 
Q 20.953125 51.265625 25.265625 53.625 
Q 29.59375 56 35.59375 56 
Q 45.5625 56 51.78125 48.09375 
Q 58.015625 40.1875 58.015625 27.296875 
Q 58.015625 14.40625 51.78125 6.484375 
Q 45.5625 -1.421875 35.59375 -1.421875 
Q 29.59375 -1.421875 25.265625 0.953125 
Q 20.953125 3.328125 18.109375 8.203125 
L 18.109375 0 
L 9.078125 0 
L 9.078125 75.984375 
L 18.109375 75.984375 
z
" id="DejaVuSans-62"/>
       <path d="M 31.78125 34.625 
Q 24.75 34.625 20.71875 30.859375 
Q 16.703125 27.09375 16.703125 20.515625 
Q 16.703125 13.921875 20.71875 10.15625 
Q 24.75 6.390625 31.78125 6.390625 
Q 38.8125 6.390625 42.859375 10.171875 
Q 46.921875 13.96875 46.921875 20.515625 
Q 46.921875 27.09375 42.890625 30.859375 
Q 38.875 34.625 31.78125 34.625 
z
M 21.921875 38.8125 
Q 15.578125 40.375 12.03125 44.71875 
Q 8.5 49.078125 8.5 55.328125 
Q 8.5 64.0625 14.71875 69.140625 
Q 20.953125 74.21875 31.78125 74.21875 
Q 42.671875 74.21875 48.875 69.140625 
Q 55.078125 64.0625 55.078125 55.328125 
Q 55.078125 49.078125 51.53125 44.71875 
Q 48 40.375 41.703125 38.8125 
Q 48.828125 37.15625 52.796875 32.3125 
Q 56.78125 27.484375 56.78125 20.515625 
Q 56.78125 9.90625 50.3125 4.234375 
Q 43.84375 -1.421875 31.78125 -1.421875 
Q 19.734375 -1.421875 13.25 4.234375 
Q 6.78125 9.90625 6.78125 20.515625 
Q 6.78125 27.484375 10.78125 32.3125 
Q 14.796875 37.15625 21.921875 38.8125 
z
M 18.3125 54.390625 
Q 18.3125 48.734375 21.84375 45.5625 
Q 25.390625 42.390625 31.78125 42.390625 
Q 38.140625 42.390625 41.71875 45.5625 
Q 45.3125 48.734375 45.3125 54.390625 
Q 45.3125 60.0625 41.71875 63.234375 
Q 38.140625 66.40625 31.78125 66.40625 
Q 25.390625 66.40625 21.84375 63.234375 
Q 18.3125 60.0625 18.3125 54.390625 
z
" id="DejaVuSans-38"/>
       <path d="M 25.390625 72.90625 
L 33.6875 72.90625 
L 8.296875 -9.28125 
L 0 -9.28125 
z
" id="DejaVuSans-2f"/>
       <path d="M 52 44.1875 
Q 55.375 50.25 60.0625 53.125 
Q 64.75 56 71.09375 56 
Q 79.640625 56 84.28125 50.015625 
Q 88.921875 44.046875 88.921875 33.015625 
L 88.921875 0 
L 79.890625 0 
L 79.890625 32.71875 
Q 79.890625 40.578125 77.09375 44.375 
Q 74.3125 48.1875 68.609375 48.1875 
Q 61.625 48.1875 57.5625 43.546875 
Q 53.515625 38.921875 53.515625 30.90625 
L 53.515625 0 
L 44.484375 0 
L 44.484375 32.71875 
Q 44.484375 40.625 41.703125 44.40625 
Q 38.921875 48.1875 33.109375 48.1875 
Q 26.21875 48.1875 22.15625 43.53125 
Q 18.109375 38.875 18.109375 30.90625 
L 18.109375 0 
L 9.078125 0 
L 9.078125 54.6875 
L 18.109375 54.6875 
L 18.109375 46.1875 
Q 21.1875 51.21875 25.484375 53.609375 
Q 29.78125 56 35.6875 56 
Q 41.65625 56 45.828125 52.96875 
Q 50 49.953125 52 44.1875 
z
" id="DejaVuSans-6d"/>
      </defs>
      <g transform="translate(94.164062 324.455697)scale(0.1 -0.1)">
       <use xlink:href="#DejaVuSans-73"/>
       <use x="52.099609" xlink:href="#DejaVuSans-63"/>
       <use x="107.080078" xlink:href="#DejaVuSans-68"/>
       <use x="170.458984" xlink:href="#DejaVuSans-72"/>
       <use x="211.541016" xlink:href="#DejaVuSans-65"/>
       <use x="273.064453" xlink:href="#DejaVuSans-69"/>
       <use x="300.847656" xlink:href="#DejaVuSans-62"/>
       <use x="364.324219" xlink:href="#DejaVuSans-65"/>
       <use x="425.847656" xlink:href="#DejaVuSans-72"/>
       <use x="466.960938" xlink:href="#DejaVuSans-32"/>
       <use x="530.583984" xlink:href="#DejaVuSans-30"/>
       <use x="594.207031" xlink:href="#DejaVuSans-31"/>
       <use x="657.830078" xlink:href="#DejaVuSans-38"/>
       <use x="721.453125" xlink:href="#DejaVuSans-2f"/>
       <use x="755.144531" xlink:href="#DejaVuSans-69"/>
       <use x="782.927734" xlink:href="#DejaVuSans-73"/>
       <use x="835.027344" xlink:href="#DejaVuSans-6d"/>
       <use x="932.439453" xlink:href="#DejaVuSans-69"/>
       <use x="960.222656" xlink:href="#DejaVuSans-72"/>
       <use x="1001.335938" xlink:href="#DejaVuSans-32"/>
       <use x="1064.958984" xlink:href="#DejaVuSans-30"/>
       <use x="1128.582031" xlink:href="#DejaVuSans-31"/>
       <use x="1192.205078" xlink:href="#DejaVuSans-38"/>
      </g>
     </g>
    </g>
    <g id="ytick_2">
     <g id="line2d_17">
      <path clip-path="url(#p3ad97658c4)" d="M 226.746875 286.26589 
L 617.346875 286.26589 
" style="fill:none;stroke:#b0b0b0;stroke-linecap:square;stroke-width:0.8;"/>
     </g>
     <g id="line2d_18">
      <g>
       <use style="stroke:#000000;stroke-width:0.8;" x="226.746875" xlink:href="#m93a43e49e5" y="286.26589"/>
      </g>
     </g>
     <g id="text_10">
      <!-- schreiber2018/fcn -->
      <defs>
       <path d="M 37.109375 75.984375 
L 37.109375 68.5 
L 28.515625 68.5 
Q 23.6875 68.5 21.796875 66.546875 
Q 19.921875 64.59375 19.921875 59.515625 
L 19.921875 54.6875 
L 34.71875 54.6875 
L 34.71875 47.703125 
L 19.921875 47.703125 
L 19.921875 0 
L 10.890625 0 
L 10.890625 47.703125 
L 2.296875 47.703125 
L 2.296875 54.6875 
L 10.890625 54.6875 
L 10.890625 58.5 
Q 10.890625 67.625 15.140625 71.796875 
Q 19.390625 75.984375 28.609375 75.984375 
z
" id="DejaVuSans-66"/>
       <path d="M 54.890625 33.015625 
L 54.890625 0 
L 45.90625 0 
L 45.90625 32.71875 
Q 45.90625 40.484375 42.875 44.328125 
Q 39.84375 48.1875 33.796875 48.1875 
Q 26.515625 48.1875 22.3125 43.546875 
Q 18.109375 38.921875 18.109375 30.90625 
L 18.109375 0 
L 9.078125 0 
L 9.078125 54.6875 
L 18.109375 54.6875 
L 18.109375 46.1875 
Q 21.34375 51.125 25.703125 53.5625 
Q 30.078125 56 35.796875 56 
Q 45.21875 56 50.046875 50.171875 
Q 54.890625 44.34375 54.890625 33.015625 
z
" id="DejaVuSans-6e"/>
      </defs>
      <g transform="translate(128.875 290.065108)scale(0.1 -0.1)">
       <use xlink:href="#DejaVuSans-73"/>
       <use x="52.099609" xlink:href="#DejaVuSans-63"/>
       <use x="107.080078" xlink:href="#DejaVuSans-68"/>
       <use x="170.458984" xlink:href="#DejaVuSans-72"/>
       <use x="211.541016" xlink:href="#DejaVuSans-65"/>
       <use x="273.064453" xlink:href="#DejaVuSans-69"/>
       <use x="300.847656" xlink:href="#DejaVuSans-62"/>
       <use x="364.324219" xlink:href="#DejaVuSans-65"/>
       <use x="425.847656" xlink:href="#DejaVuSans-72"/>
       <use x="466.960938" xlink:href="#DejaVuSans-32"/>
       <use x="530.583984" xlink:href="#DejaVuSans-30"/>
       <use x="594.207031" xlink:href="#DejaVuSans-31"/>
       <use x="657.830078" xlink:href="#DejaVuSans-38"/>
       <use x="721.453125" xlink:href="#DejaVuSans-2f"/>
       <use x="755.144531" xlink:href="#DejaVuSans-66"/>
       <use x="790.349609" xlink:href="#DejaVuSans-63"/>
       <use x="845.330078" xlink:href="#DejaVuSans-6e"/>
      </g>
     </g>
    </g>
    <g id="ytick_3">
     <g id="line2d_19">
      <path clip-path="url(#p3ad97658c4)" d="M 226.746875 251.875301 
L 617.346875 251.875301 
" style="fill:none;stroke:#b0b0b0;stroke-linecap:square;stroke-width:0.8;"/>
     </g>
     <g id="line2d_20">
      <g>
       <use style="stroke:#000000;stroke-width:0.8;" x="226.746875" xlink:href="#m93a43e49e5" y="251.875301"/>
      </g>
     </g>
     <g id="text_11">
      <!-- schreiber2018/cnn -->
      <g transform="translate(126.057812 255.67452)scale(0.1 -0.1)">
       <use xlink:href="#DejaVuSans-73"/>
       <use x="52.099609" xlink:href="#DejaVuSans-63"/>
       <use x="107.080078" xlink:href="#DejaVuSans-68"/>
       <use x="170.458984" xlink:href="#DejaVuSans-72"/>
       <use x="211.541016" xlink:href="#DejaVuSans-65"/>
       <use x="273.064453" xlink:href="#DejaVuSans-69"/>
       <use x="300.847656" xlink:href="#DejaVuSans-62"/>
       <use x="364.324219" xlink:href="#DejaVuSans-65"/>
       <use x="425.847656" xlink:href="#DejaVuSans-72"/>
       <use x="466.960938" xlink:href="#DejaVuSans-32"/>
       <use x="530.583984" xlink:href="#DejaVuSans-30"/>
       <use x="594.207031" xlink:href="#DejaVuSans-31"/>
       <use x="657.830078" xlink:href="#DejaVuSans-38"/>
       <use x="721.453125" xlink:href="#DejaVuSans-2f"/>
       <use x="755.144531" xlink:href="#DejaVuSans-63"/>
       <use x="810.125" xlink:href="#DejaVuSans-6e"/>
       <use x="873.503906" xlink:href="#DejaVuSans-6e"/>
      </g>
     </g>
    </g>
    <g id="ytick_4">
     <g id="line2d_21">
      <path clip-path="url(#p3ad97658c4)" d="M 226.746875 217.484713 
L 617.346875 217.484713 
" style="fill:none;stroke:#b0b0b0;stroke-linecap:square;stroke-width:0.8;"/>
     </g>
     <g id="line2d_22">
      <g>
       <use style="stroke:#000000;stroke-width:0.8;" x="226.746875" xlink:href="#m93a43e49e5" y="217.484713"/>
      </g>
     </g>
     <g id="text_12">
      <!-- schreiber2017/mirex2017 -->
      <defs>
       <path d="M 8.203125 72.90625 
L 55.078125 72.90625 
L 55.078125 68.703125 
L 28.609375 0 
L 18.3125 0 
L 43.21875 64.59375 
L 8.203125 64.59375 
z
" id="DejaVuSans-37"/>
       <path d="M 54.890625 54.6875 
L 35.109375 28.078125 
L 55.90625 0 
L 45.3125 0 
L 29.390625 21.484375 
L 13.484375 0 
L 2.875 0 
L 24.125 28.609375 
L 4.6875 54.6875 
L 15.28125 54.6875 
L 29.78125 35.203125 
L 44.28125 54.6875 
z
" id="DejaVuSans-78"/>
      </defs>
      <g transform="translate(90.084375 221.283932)scale(0.1 -0.1)">
       <use xlink:href="#DejaVuSans-73"/>
       <use x="52.099609" xlink:href="#DejaVuSans-63"/>
       <use x="107.080078" xlink:href="#DejaVuSans-68"/>
       <use x="170.458984" xlink:href="#DejaVuSans-72"/>
       <use x="211.541016" xlink:href="#DejaVuSans-65"/>
       <use x="273.064453" xlink:href="#DejaVuSans-69"/>
       <use x="300.847656" xlink:href="#DejaVuSans-62"/>
       <use x="364.324219" xlink:href="#DejaVuSans-65"/>
       <use x="425.847656" xlink:href="#DejaVuSans-72"/>
       <use x="466.960938" xlink:href="#DejaVuSans-32"/>
       <use x="530.583984" xlink:href="#DejaVuSans-30"/>
       <use x="594.207031" xlink:href="#DejaVuSans-31"/>
       <use x="657.830078" xlink:href="#DejaVuSans-37"/>
       <use x="721.453125" xlink:href="#DejaVuSans-2f"/>
       <use x="755.144531" xlink:href="#DejaVuSans-6d"/>
       <use x="852.556641" xlink:href="#DejaVuSans-69"/>
       <use x="880.339844" xlink:href="#DejaVuSans-72"/>
       <use x="921.421875" xlink:href="#DejaVuSans-65"/>
       <use x="982.929688" xlink:href="#DejaVuSans-78"/>
       <use x="1042.109375" xlink:href="#DejaVuSans-32"/>
       <use x="1105.732422" xlink:href="#DejaVuSans-30"/>
       <use x="1169.355469" xlink:href="#DejaVuSans-31"/>
       <use x="1232.978516" xlink:href="#DejaVuSans-37"/>
      </g>
     </g>
    </g>
    <g id="ytick_5">
     <g id="line2d_23">
      <path clip-path="url(#p3ad97658c4)" d="M 226.746875 183.094125 
L 617.346875 183.094125 
" style="fill:none;stroke:#b0b0b0;stroke-linecap:square;stroke-width:0.8;"/>
     </g>
     <g id="line2d_24">
      <g>
       <use style="stroke:#000000;stroke-width:0.8;" x="226.746875" xlink:href="#m93a43e49e5" y="183.094125"/>
      </g>
     </g>
     <g id="text_13">
      <!-- schreiber2017/ismir2017 -->
      <g transform="translate(94.164062 186.893344)scale(0.1 -0.1)">
       <use xlink:href="#DejaVuSans-73"/>
       <use x="52.099609" xlink:href="#DejaVuSans-63"/>
       <use x="107.080078" xlink:href="#DejaVuSans-68"/>
       <use x="170.458984" xlink:href="#DejaVuSans-72"/>
       <use x="211.541016" xlink:href="#DejaVuSans-65"/>
       <use x="273.064453" xlink:href="#DejaVuSans-69"/>
       <use x="300.847656" xlink:href="#DejaVuSans-62"/>
       <use x="364.324219" xlink:href="#DejaVuSans-65"/>
       <use x="425.847656" xlink:href="#DejaVuSans-72"/>
       <use x="466.960938" xlink:href="#DejaVuSans-32"/>
       <use x="530.583984" xlink:href="#DejaVuSans-30"/>
       <use x="594.207031" xlink:href="#DejaVuSans-31"/>
       <use x="657.830078" xlink:href="#DejaVuSans-37"/>
       <use x="721.453125" xlink:href="#DejaVuSans-2f"/>
       <use x="755.144531" xlink:href="#DejaVuSans-69"/>
       <use x="782.927734" xlink:href="#DejaVuSans-73"/>
       <use x="835.027344" xlink:href="#DejaVuSans-6d"/>
       <use x="932.439453" xlink:href="#DejaVuSans-69"/>
       <use x="960.222656" xlink:href="#DejaVuSans-72"/>
       <use x="1001.335938" xlink:href="#DejaVuSans-32"/>
       <use x="1064.958984" xlink:href="#DejaVuSans-30"/>
       <use x="1128.582031" xlink:href="#DejaVuSans-31"/>
       <use x="1192.205078" xlink:href="#DejaVuSans-37"/>
      </g>
     </g>
    </g>
    <g id="ytick_6">
     <g id="line2d_25">
      <path clip-path="url(#p3ad97658c4)" d="M 226.746875 148.703537 
L 617.346875 148.703537 
" style="fill:none;stroke:#b0b0b0;stroke-linecap:square;stroke-width:0.8;"/>
     </g>
     <g id="line2d_26">
      <g>
       <use style="stroke:#000000;stroke-width:0.8;" x="226.746875" xlink:href="#m93a43e49e5" y="148.703537"/>
      </g>
     </g>
     <g id="text_14">
      <!-- schreiber2014/default -->
      <defs>
       <path d="M 37.796875 64.3125 
L 12.890625 25.390625 
L 37.796875 25.390625 
z
M 35.203125 72.90625 
L 47.609375 72.90625 
L 47.609375 25.390625 
L 58.015625 25.390625 
L 58.015625 17.1875 
L 47.609375 17.1875 
L 47.609375 0 
L 37.796875 0 
L 37.796875 17.1875 
L 4.890625 17.1875 
L 4.890625 26.703125 
z
" id="DejaVuSans-34"/>
       <path d="M 45.40625 46.390625 
L 45.40625 75.984375 
L 54.390625 75.984375 
L 54.390625 0 
L 45.40625 0 
L 45.40625 8.203125 
Q 42.578125 3.328125 38.25 0.953125 
Q 33.9375 -1.421875 27.875 -1.421875 
Q 17.96875 -1.421875 11.734375 6.484375 
Q 5.515625 14.40625 5.515625 27.296875 
Q 5.515625 40.1875 11.734375 48.09375 
Q 17.96875 56 27.875 56 
Q 33.9375 56 38.25 53.625 
Q 42.578125 51.265625 45.40625 46.390625 
z
M 14.796875 27.296875 
Q 14.796875 17.390625 18.875 11.75 
Q 22.953125 6.109375 30.078125 6.109375 
Q 37.203125 6.109375 41.296875 11.75 
Q 45.40625 17.390625 45.40625 27.296875 
Q 45.40625 37.203125 41.296875 42.84375 
Q 37.203125 48.484375 30.078125 48.484375 
Q 22.953125 48.484375 18.875 42.84375 
Q 14.796875 37.203125 14.796875 27.296875 
z
" id="DejaVuSans-64"/>
       <path d="M 34.28125 27.484375 
Q 23.390625 27.484375 19.1875 25 
Q 14.984375 22.515625 14.984375 16.5 
Q 14.984375 11.71875 18.140625 8.90625 
Q 21.296875 6.109375 26.703125 6.109375 
Q 34.1875 6.109375 38.703125 11.40625 
Q 43.21875 16.703125 43.21875 25.484375 
L 43.21875 27.484375 
z
M 52.203125 31.203125 
L 52.203125 0 
L 43.21875 0 
L 43.21875 8.296875 
Q 40.140625 3.328125 35.546875 0.953125 
Q 30.953125 -1.421875 24.3125 -1.421875 
Q 15.921875 -1.421875 10.953125 3.296875 
Q 6 8.015625 6 15.921875 
Q 6 25.140625 12.171875 29.828125 
Q 18.359375 34.515625 30.609375 34.515625 
L 43.21875 34.515625 
L 43.21875 35.40625 
Q 43.21875 41.609375 39.140625 45 
Q 35.0625 48.390625 27.6875 48.390625 
Q 23 48.390625 18.546875 47.265625 
Q 14.109375 46.140625 10.015625 43.890625 
L 10.015625 52.203125 
Q 14.9375 54.109375 19.578125 55.046875 
Q 24.21875 56 28.609375 56 
Q 40.484375 56 46.34375 49.84375 
Q 52.203125 43.703125 52.203125 31.203125 
z
" id="DejaVuSans-61"/>
       <path d="M 8.5 21.578125 
L 8.5 54.6875 
L 17.484375 54.6875 
L 17.484375 21.921875 
Q 17.484375 14.15625 20.5 10.265625 
Q 23.53125 6.390625 29.59375 6.390625 
Q 36.859375 6.390625 41.078125 11.03125 
Q 45.3125 15.671875 45.3125 23.6875 
L 45.3125 54.6875 
L 54.296875 54.6875 
L 54.296875 0 
L 45.3125 0 
L 45.3125 8.40625 
Q 42.046875 3.421875 37.71875 1 
Q 33.40625 -1.421875 27.6875 -1.421875 
Q 18.265625 -1.421875 13.375 4.4375 
Q 8.5 10.296875 8.5 21.578125 
z
M 31.109375 56 
z
" id="DejaVuSans-75"/>
       <path d="M 9.421875 75.984375 
L 18.40625 75.984375 
L 18.40625 0 
L 9.421875 0 
z
" id="DejaVuSans-6c"/>
       <path d="M 18.3125 70.21875 
L 18.3125 54.6875 
L 36.8125 54.6875 
L 36.8125 47.703125 
L 18.3125 47.703125 
L 18.3125 18.015625 
Q 18.3125 11.328125 20.140625 9.421875 
Q 21.96875 7.515625 27.59375 7.515625 
L 36.8125 7.515625 
L 36.8125 0 
L 27.59375 0 
Q 17.1875 0 13.234375 3.875 
Q 9.28125 7.765625 9.28125 18.015625 
L 9.28125 47.703125 
L 2.6875 47.703125 
L 2.6875 54.6875 
L 9.28125 54.6875 
L 9.28125 70.21875 
z
" id="DejaVuSans-74"/>
      </defs>
      <g transform="translate(109.045312 152.502756)scale(0.1 -0.1)">
       <use xlink:href="#DejaVuSans-73"/>
       <use x="52.099609" xlink:href="#DejaVuSans-63"/>
       <use x="107.080078" xlink:href="#DejaVuSans-68"/>
       <use x="170.458984" xlink:href="#DejaVuSans-72"/>
       <use x="211.541016" xlink:href="#DejaVuSans-65"/>
       <use x="273.064453" xlink:href="#DejaVuSans-69"/>
       <use x="300.847656" xlink:href="#DejaVuSans-62"/>
       <use x="364.324219" xlink:href="#DejaVuSans-65"/>
       <use x="425.847656" xlink:href="#DejaVuSans-72"/>
       <use x="466.960938" xlink:href="#DejaVuSans-32"/>
       <use x="530.583984" xlink:href="#DejaVuSans-30"/>
       <use x="594.207031" xlink:href="#DejaVuSans-31"/>
       <use x="657.830078" xlink:href="#DejaVuSans-34"/>
       <use x="721.453125" xlink:href="#DejaVuSans-2f"/>
       <use x="755.144531" xlink:href="#DejaVuSans-64"/>
       <use x="818.621094" xlink:href="#DejaVuSans-65"/>
       <use x="880.144531" xlink:href="#DejaVuSans-66"/>
       <use x="915.349609" xlink:href="#DejaVuSans-61"/>
       <use x="976.628906" xlink:href="#DejaVuSans-75"/>
       <use x="1040.007812" xlink:href="#DejaVuSans-6c"/>
       <use x="1067.791016" xlink:href="#DejaVuSans-74"/>
      </g>
     </g>
    </g>
    <g id="ytick_7">
     <g id="line2d_27">
      <path clip-path="url(#p3ad97658c4)" d="M 226.746875 114.312949 
L 617.346875 114.312949 
" style="fill:none;stroke:#b0b0b0;stroke-linecap:square;stroke-width:0.8;"/>
     </g>
     <g id="line2d_28">
      <g>
       <use style="stroke:#000000;stroke-width:0.8;" x="226.746875" xlink:href="#m93a43e49e5" y="114.312949"/>
      </g>
     </g>
     <g id="text_15">
      <!-- percival2014/stem -->
      <defs>
       <path d="M 18.109375 8.203125 
L 18.109375 -20.796875 
L 9.078125 -20.796875 
L 9.078125 54.6875 
L 18.109375 54.6875 
L 18.109375 46.390625 
Q 20.953125 51.265625 25.265625 53.625 
Q 29.59375 56 35.59375 56 
Q 45.5625 56 51.78125 48.09375 
Q 58.015625 40.1875 58.015625 27.296875 
Q 58.015625 14.40625 51.78125 6.484375 
Q 45.5625 -1.421875 35.59375 -1.421875 
Q 29.59375 -1.421875 25.265625 0.953125 
Q 20.953125 3.328125 18.109375 8.203125 
z
M 48.6875 27.296875 
Q 48.6875 37.203125 44.609375 42.84375 
Q 40.53125 48.484375 33.40625 48.484375 
Q 26.265625 48.484375 22.1875 42.84375 
Q 18.109375 37.203125 18.109375 27.296875 
Q 18.109375 17.390625 22.1875 11.75 
Q 26.265625 6.109375 33.40625 6.109375 
Q 40.53125 6.109375 44.609375 11.75 
Q 48.6875 17.390625 48.6875 27.296875 
z
" id="DejaVuSans-70"/>
       <path d="M 2.984375 54.6875 
L 12.5 54.6875 
L 29.59375 8.796875 
L 46.6875 54.6875 
L 56.203125 54.6875 
L 35.6875 0 
L 23.484375 0 
z
" id="DejaVuSans-76"/>
      </defs>
      <g transform="translate(126.19375 118.112167)scale(0.1 -0.1)">
       <use xlink:href="#DejaVuSans-70"/>
       <use x="63.476562" xlink:href="#DejaVuSans-65"/>
       <use x="125" xlink:href="#DejaVuSans-72"/>
       <use x="166.082031" xlink:href="#DejaVuSans-63"/>
       <use x="221.0625" xlink:href="#DejaVuSans-69"/>
       <use x="248.845703" xlink:href="#DejaVuSans-76"/>
       <use x="308.025391" xlink:href="#DejaVuSans-61"/>
       <use x="369.304688" xlink:href="#DejaVuSans-6c"/>
       <use x="397.087891" xlink:href="#DejaVuSans-32"/>
       <use x="460.710938" xlink:href="#DejaVuSans-30"/>
       <use x="524.333984" xlink:href="#DejaVuSans-31"/>
       <use x="587.957031" xlink:href="#DejaVuSans-34"/>
       <use x="651.580078" xlink:href="#DejaVuSans-2f"/>
       <use x="685.271484" xlink:href="#DejaVuSans-73"/>
       <use x="737.371094" xlink:href="#DejaVuSans-74"/>
       <use x="776.580078" xlink:href="#DejaVuSans-65"/>
       <use x="838.103516" xlink:href="#DejaVuSans-6d"/>
      </g>
     </g>
    </g>
    <g id="ytick_8">
     <g id="line2d_29">
      <path clip-path="url(#p3ad97658c4)" d="M 226.746875 79.92236 
L 617.346875 79.92236 
" style="fill:none;stroke:#b0b0b0;stroke-linecap:square;stroke-width:0.8;"/>
     </g>
     <g id="line2d_30">
      <g>
       <use style="stroke:#000000;stroke-width:0.8;" x="226.746875" xlink:href="#m93a43e49e5" y="79.92236"/>
      </g>
     </g>
     <g id="text_16">
      <!-- davies2009/mirex_qm_tempotracker -->
      <defs>
       <path d="M 10.984375 1.515625 
L 10.984375 10.5 
Q 14.703125 8.734375 18.5 7.8125 
Q 22.3125 6.890625 25.984375 6.890625 
Q 35.75 6.890625 40.890625 13.453125 
Q 46.046875 20.015625 46.78125 33.40625 
Q 43.953125 29.203125 39.59375 26.953125 
Q 35.25 24.703125 29.984375 24.703125 
Q 19.046875 24.703125 12.671875 31.3125 
Q 6.296875 37.9375 6.296875 49.421875 
Q 6.296875 60.640625 12.9375 67.421875 
Q 19.578125 74.21875 30.609375 74.21875 
Q 43.265625 74.21875 49.921875 64.515625 
Q 56.59375 54.828125 56.59375 36.375 
Q 56.59375 19.140625 48.40625 8.859375 
Q 40.234375 -1.421875 26.421875 -1.421875 
Q 22.703125 -1.421875 18.890625 -0.6875 
Q 15.09375 0.046875 10.984375 1.515625 
z
M 30.609375 32.421875 
Q 37.25 32.421875 41.125 36.953125 
Q 45.015625 41.5 45.015625 49.421875 
Q 45.015625 57.28125 41.125 61.84375 
Q 37.25 66.40625 30.609375 66.40625 
Q 23.96875 66.40625 20.09375 61.84375 
Q 16.21875 57.28125 16.21875 49.421875 
Q 16.21875 41.5 20.09375 36.953125 
Q 23.96875 32.421875 30.609375 32.421875 
z
" id="DejaVuSans-39"/>
       <path d="M 50.984375 -16.609375 
L 50.984375 -23.578125 
L -0.984375 -23.578125 
L -0.984375 -16.609375 
z
" id="DejaVuSans-5f"/>
       <path d="M 14.796875 27.296875 
Q 14.796875 17.390625 18.875 11.75 
Q 22.953125 6.109375 30.078125 6.109375 
Q 37.203125 6.109375 41.296875 11.75 
Q 45.40625 17.390625 45.40625 27.296875 
Q 45.40625 37.203125 41.296875 42.84375 
Q 37.203125 48.484375 30.078125 48.484375 
Q 22.953125 48.484375 18.875 42.84375 
Q 14.796875 37.203125 14.796875 27.296875 
z
M 45.40625 8.203125 
Q 42.578125 3.328125 38.25 0.953125 
Q 33.9375 -1.421875 27.875 -1.421875 
Q 17.96875 -1.421875 11.734375 6.484375 
Q 5.515625 14.40625 5.515625 27.296875 
Q 5.515625 40.1875 11.734375 48.09375 
Q 17.96875 56 27.875 56 
Q 33.9375 56 38.25 53.625 
Q 42.578125 51.265625 45.40625 46.390625 
L 45.40625 54.6875 
L 54.390625 54.6875 
L 54.390625 -20.796875 
L 45.40625 -20.796875 
z
" id="DejaVuSans-71"/>
       <path d="M 30.609375 48.390625 
Q 23.390625 48.390625 19.1875 42.75 
Q 14.984375 37.109375 14.984375 27.296875 
Q 14.984375 17.484375 19.15625 11.84375 
Q 23.34375 6.203125 30.609375 6.203125 
Q 37.796875 6.203125 41.984375 11.859375 
Q 46.1875 17.53125 46.1875 27.296875 
Q 46.1875 37.015625 41.984375 42.703125 
Q 37.796875 48.390625 30.609375 48.390625 
z
M 30.609375 56 
Q 42.328125 56 49.015625 48.375 
Q 55.71875 40.765625 55.71875 27.296875 
Q 55.71875 13.875 49.015625 6.21875 
Q 42.328125 -1.421875 30.609375 -1.421875 
Q 18.84375 -1.421875 12.171875 6.21875 
Q 5.515625 13.875 5.515625 27.296875 
Q 5.515625 40.765625 12.171875 48.375 
Q 18.84375 56 30.609375 56 
z
" id="DejaVuSans-6f"/>
       <path d="M 9.078125 75.984375 
L 18.109375 75.984375 
L 18.109375 31.109375 
L 44.921875 54.6875 
L 56.390625 54.6875 
L 27.390625 29.109375 
L 57.625 0 
L 45.90625 0 
L 18.109375 26.703125 
L 18.109375 0 
L 9.078125 0 
z
" id="DejaVuSans-6b"/>
      </defs>
      <g transform="translate(35.617187 83.721579)scale(0.1 -0.1)">
       <use xlink:href="#DejaVuSans-64"/>
       <use x="63.476562" xlink:href="#DejaVuSans-61"/>
       <use x="124.755859" xlink:href="#DejaVuSans-76"/>
       <use x="183.935547" xlink:href="#DejaVuSans-69"/>
       <use x="211.71875" xlink:href="#DejaVuSans-65"/>
       <use x="273.242188" xlink:href="#DejaVuSans-73"/>
       <use x="325.341797" xlink:href="#DejaVuSans-32"/>
       <use x="388.964844" xlink:href="#DejaVuSans-30"/>
       <use x="452.587891" xlink:href="#DejaVuSans-30"/>
       <use x="516.210938" xlink:href="#DejaVuSans-39"/>
       <use x="579.833984" xlink:href="#DejaVuSans-2f"/>
       <use x="613.525391" xlink:href="#DejaVuSans-6d"/>
       <use x="710.9375" xlink:href="#DejaVuSans-69"/>
       <use x="738.720703" xlink:href="#DejaVuSans-72"/>
       <use x="779.802734" xlink:href="#DejaVuSans-65"/>
       <use x="841.310547" xlink:href="#DejaVuSans-78"/>
       <use x="900.490234" xlink:href="#DejaVuSans-5f"/>
       <use x="950.490234" xlink:href="#DejaVuSans-71"/>
       <use x="1013.966797" xlink:href="#DejaVuSans-6d"/>
       <use x="1111.378906" xlink:href="#DejaVuSans-5f"/>
       <use x="1161.378906" xlink:href="#DejaVuSans-74"/>
       <use x="1200.587891" xlink:href="#DejaVuSans-65"/>
       <use x="1262.111328" xlink:href="#DejaVuSans-6d"/>
       <use x="1359.523438" xlink:href="#DejaVuSans-70"/>
       <use x="1423" xlink:href="#DejaVuSans-6f"/>
       <use x="1484.181641" xlink:href="#DejaVuSans-74"/>
       <use x="1523.390625" xlink:href="#DejaVuSans-72"/>
       <use x="1564.503906" xlink:href="#DejaVuSans-61"/>
       <use x="1625.783203" xlink:href="#DejaVuSans-63"/>
       <use x="1680.763672" xlink:href="#DejaVuSans-6b"/>
       <use x="1738.626953" xlink:href="#DejaVuSans-65"/>
       <use x="1800.150391" xlink:href="#DejaVuSans-72"/>
      </g>
     </g>
    </g>
    <g id="ytick_9">
     <g id="line2d_31">
      <path clip-path="url(#p3ad97658c4)" d="M 226.746875 45.531772 
L 617.346875 45.531772 
" style="fill:none;stroke:#b0b0b0;stroke-linecap:square;stroke-width:0.8;"/>
     </g>
     <g id="line2d_32">
      <g>
       <use style="stroke:#000000;stroke-width:0.8;" x="226.746875" xlink:href="#m93a43e49e5" y="45.531772"/>
      </g>
     </g>
     <g id="text_17">
      <!-- boeck2015/tempodetector2016_default -->
      <defs>
       <path d="M 33.015625 40.375 
Q 26.375 40.375 22.484375 35.828125 
Q 18.609375 31.296875 18.609375 23.390625 
Q 18.609375 15.53125 22.484375 10.953125 
Q 26.375 6.390625 33.015625 6.390625 
Q 39.65625 6.390625 43.53125 10.953125 
Q 47.40625 15.53125 47.40625 23.390625 
Q 47.40625 31.296875 43.53125 35.828125 
Q 39.65625 40.375 33.015625 40.375 
z
M 52.59375 71.296875 
L 52.59375 62.3125 
Q 48.875 64.0625 45.09375 64.984375 
Q 41.3125 65.921875 37.59375 65.921875 
Q 27.828125 65.921875 22.671875 59.328125 
Q 17.53125 52.734375 16.796875 39.40625 
Q 19.671875 43.65625 24.015625 45.921875 
Q 28.375 48.1875 33.59375 48.1875 
Q 44.578125 48.1875 50.953125 41.515625 
Q 57.328125 34.859375 57.328125 23.390625 
Q 57.328125 12.15625 50.6875 5.359375 
Q 44.046875 -1.421875 33.015625 -1.421875 
Q 20.359375 -1.421875 13.671875 8.265625 
Q 6.984375 17.96875 6.984375 36.375 
Q 6.984375 53.65625 15.1875 63.9375 
Q 23.390625 74.21875 37.203125 74.21875 
Q 40.921875 74.21875 44.703125 73.484375 
Q 48.484375 72.75 52.59375 71.296875 
z
" id="DejaVuSans-36"/>
      </defs>
      <g transform="translate(20.878125 49.330991)scale(0.1 -0.1)">
       <use xlink:href="#DejaVuSans-62"/>
       <use x="63.476562" xlink:href="#DejaVuSans-6f"/>
       <use x="124.658203" xlink:href="#DejaVuSans-65"/>
       <use x="186.181641" xlink:href="#DejaVuSans-63"/>
       <use x="241.162109" xlink:href="#DejaVuSans-6b"/>
       <use x="299.072266" xlink:href="#DejaVuSans-32"/>
       <use x="362.695312" xlink:href="#DejaVuSans-30"/>
       <use x="426.318359" xlink:href="#DejaVuSans-31"/>
       <use x="489.941406" xlink:href="#DejaVuSans-35"/>
       <use x="553.564453" xlink:href="#DejaVuSans-2f"/>
       <use x="587.255859" xlink:href="#DejaVuSans-74"/>
       <use x="626.464844" xlink:href="#DejaVuSans-65"/>
       <use x="687.988281" xlink:href="#DejaVuSans-6d"/>
       <use x="785.400391" xlink:href="#DejaVuSans-70"/>
       <use x="848.876953" xlink:href="#DejaVuSans-6f"/>
       <use x="910.058594" xlink:href="#DejaVuSans-64"/>
       <use x="973.535156" xlink:href="#DejaVuSans-65"/>
       <use x="1035.058594" xlink:href="#DejaVuSans-74"/>
       <use x="1074.267578" xlink:href="#DejaVuSans-65"/>
       <use x="1135.791016" xlink:href="#DejaVuSans-63"/>
       <use x="1190.771484" xlink:href="#DejaVuSans-74"/>
       <use x="1229.980469" xlink:href="#DejaVuSans-6f"/>
       <use x="1291.162109" xlink:href="#DejaVuSans-72"/>
       <use x="1332.275391" xlink:href="#DejaVuSans-32"/>
       <use x="1395.898438" xlink:href="#DejaVuSans-30"/>
       <use x="1459.521484" xlink:href="#DejaVuSans-31"/>
       <use x="1523.144531" xlink:href="#DejaVuSans-36"/>
       <use x="1586.767578" xlink:href="#DejaVuSans-5f"/>
       <use x="1636.767578" xlink:href="#DejaVuSans-64"/>
       <use x="1700.244141" xlink:href="#DejaVuSans-65"/>
       <use x="1761.767578" xlink:href="#DejaVuSans-66"/>
       <use x="1796.972656" xlink:href="#DejaVuSans-61"/>
       <use x="1858.251953" xlink:href="#DejaVuSans-75"/>
       <use x="1921.630859" xlink:href="#DejaVuSans-6c"/>
       <use x="1949.414062" xlink:href="#DejaVuSans-74"/>
      </g>
     </g>
    </g>
    <g id="text_18">
     <!-- Estimator -->
     <g transform="translate(14.798437 207.216781)rotate(-90)scale(0.1 -0.1)">
      <use xlink:href="#DejaVuSans-45"/>
      <use x="63.183594" xlink:href="#DejaVuSans-73"/>
      <use x="115.283203" xlink:href="#DejaVuSans-74"/>
      <use x="154.492188" xlink:href="#DejaVuSans-69"/>
      <use x="182.275391" xlink:href="#DejaVuSans-6d"/>
      <use x="279.6875" xlink:href="#DejaVuSans-61"/>
      <use x="340.966797" xlink:href="#DejaVuSans-74"/>
      <use x="380.175781" xlink:href="#DejaVuSans-6f"/>
      <use x="441.357422" xlink:href="#DejaVuSans-72"/>
     </g>
    </g>
   </g>
   <g id="PolyCollection_1">
    <path clip-path="url(#p3ad97658c4)" d="M 227.075881 312.292458 
L 227.075881 329.020498 
L 229.487835 329.151175 
L 231.899789 329.229186 
L 234.311743 329.254125 
L 236.723698 329.226766 
L 239.135652 329.149034 
L 241.547606 329.023937 
L 243.95956 328.855458 
L 246.371514 328.648418 
L 248.783468 328.408316 
L 251.195422 328.141147 
L 253.607376 327.853219 
L 256.019331 327.550958 
L 258.431285 327.240737 
L 260.843239 326.928699 
L 263.255193 326.620619 
L 265.667147 326.321778 
L 268.079101 326.036872 
L 270.491055 325.769945 
L 272.90301 325.524357 
L 275.314964 325.302773 
L 277.726918 325.107182 
L 280.138872 324.938938 
L 282.550826 324.798808 
L 284.96278 324.687049 
L 287.374734 324.603473 
L 289.786688 324.54753 
L 292.198643 324.518382 
L 294.610597 324.514966 
L 297.022551 324.536058 
L 299.434505 324.580315 
L 301.846459 324.646311 
L 304.258413 324.732551 
L 306.670367 324.837479 
L 309.082322 324.959468 
L 311.494276 325.096804 
L 313.90623 325.247656 
L 316.318184 325.410047 
L 318.730138 325.581825 
L 321.142092 325.760636 
L 323.554046 325.9439 
L 325.966 326.128808 
L 328.377955 326.312321 
L 330.789909 326.491197 
L 333.201863 326.662022 
L 335.613817 326.82127 
L 338.025771 326.96537 
L 340.437725 327.090795 
L 342.849679 327.194151 
L 345.261633 327.272284 
L 347.673588 327.322378 
L 350.085542 327.342061 
L 352.497496 327.329487 
L 354.90945 327.28342 
L 357.321404 327.203288 
L 359.733358 327.089225 
L 362.145312 326.942078 
L 364.557267 326.763399 
L 366.969221 326.555403 
L 369.381175 326.320915 
L 371.793129 326.063279 
L 374.205083 325.786264 
L 376.617037 325.493953 
L 379.028991 325.190618 
L 381.440945 324.880605 
L 383.8529 324.568207 
L 386.264854 324.25756 
L 388.676808 323.952534 
L 391.088762 323.656656 
L 393.500716 323.373032 
L 395.91267 323.104306 
L 398.324624 322.85262 
L 400.736579 322.619607 
L 403.148533 322.406395 
L 405.560487 322.213621 
L 407.972441 322.041469 
L 410.384395 321.889707 
L 412.796349 321.75774 
L 415.208303 321.644663 
L 417.620257 321.549315 
L 420.032212 321.470337 
L 422.444166 321.406225 
L 424.85612 321.355382 
L 427.268074 321.316165 
L 429.680028 321.28692 
L 432.091982 321.266027 
L 434.503936 321.251923 
L 436.91589 321.24313 
L 439.327845 321.238275 
L 441.739799 321.236102 
L 444.151753 321.235485 
L 446.563707 321.235437 
L 448.975661 321.235109 
L 451.387615 321.233791 
L 453.799569 321.230915 
L 456.211524 321.226043 
L 458.623478 321.218868 
L 461.035432 321.209198 
L 463.447386 321.196955 
L 465.85934 321.182157 
L 465.85934 320.130799 
L 465.85934 320.130799 
L 463.447386 320.116001 
L 461.035432 320.103758 
L 458.623478 320.094088 
L 456.211524 320.086913 
L 453.799569 320.082041 
L 451.387615 320.079164 
L 448.975661 320.077847 
L 446.563707 320.077518 
L 444.151753 320.07747 
L 441.739799 320.076854 
L 439.327845 320.074681 
L 436.91589 320.069826 
L 434.503936 320.061033 
L 432.091982 320.046929 
L 429.680028 320.026036 
L 427.268074 319.996791 
L 424.85612 319.957573 
L 422.444166 319.906731 
L 420.032212 319.842619 
L 417.620257 319.763641 
L 415.208303 319.668293 
L 412.796349 319.555215 
L 410.384395 319.423249 
L 407.972441 319.271487 
L 405.560487 319.099335 
L 403.148533 318.906561 
L 400.736579 318.693348 
L 398.324624 318.460336 
L 395.91267 318.20865 
L 393.500716 317.939923 
L 391.088762 317.6563 
L 388.676808 317.360421 
L 386.264854 317.055396 
L 383.8529 316.744749 
L 381.440945 316.432351 
L 379.028991 316.122337 
L 376.617037 315.819003 
L 374.205083 315.526692 
L 371.793129 315.249677 
L 369.381175 314.992041 
L 366.969221 314.757553 
L 364.557267 314.549557 
L 362.145312 314.370878 
L 359.733358 314.22373 
L 357.321404 314.109667 
L 354.90945 314.029536 
L 352.497496 313.983469 
L 350.085542 313.970895 
L 347.673588 313.990577 
L 345.261633 314.040672 
L 342.849679 314.118805 
L 340.437725 314.222161 
L 338.025771 314.347585 
L 335.613817 314.491686 
L 333.201863 314.650934 
L 330.789909 314.821759 
L 328.377955 315.000635 
L 325.966 315.184148 
L 323.554046 315.369056 
L 321.142092 315.55232 
L 318.730138 315.731131 
L 316.318184 315.902909 
L 313.90623 316.0653 
L 311.494276 316.216152 
L 309.082322 316.353488 
L 306.670367 316.475477 
L 304.258413 316.580405 
L 301.846459 316.666645 
L 299.434505 316.732641 
L 297.022551 316.776898 
L 294.610597 316.79799 
L 292.198643 316.794574 
L 289.786688 316.765426 
L 287.374734 316.709483 
L 284.96278 316.625907 
L 282.550826 316.514147 
L 280.138872 316.374018 
L 277.726918 316.205774 
L 275.314964 316.010183 
L 272.90301 315.788599 
L 270.491055 315.543011 
L 268.079101 315.276084 
L 265.667147 314.991178 
L 263.255193 314.692337 
L 260.843239 314.384257 
L 258.431285 314.072219 
L 256.019331 313.761997 
L 253.607376 313.459737 
L 251.195422 313.171809 
L 248.783468 312.90464 
L 246.371514 312.664538 
L 243.95956 312.457498 
L 241.547606 312.289018 
L 239.135652 312.163922 
L 236.723698 312.08619 
L 234.311743 312.058831 
L 231.899789 312.08377 
L 229.487835 312.161781 
L 227.075881 312.292458 
z
" style="fill:#ff0000;fill-opacity:0.75;"/>
   </g>
   <g id="PolyCollection_2">
    <path clip-path="url(#p3ad97658c4)" d="M 226.804799 277.937916 
L 226.804799 294.593864 
L 229.445935 294.735467 
L 232.087072 294.825627 
L 234.728208 294.863537 
L 237.369344 294.849502 
L 240.010481 294.784935 
L 242.651617 294.672302 
L 245.292754 294.515041 
L 247.93389 294.317449 
L 250.575027 294.084547 
L 253.216163 293.821919 
L 255.857299 293.53555 
L 258.498436 293.231658 
L 261.139572 292.916524 
L 263.780709 292.596335 
L 266.421845 292.277048 
L 269.062981 291.964261 
L 271.704118 291.663116 
L 274.345254 291.378222 
L 276.986391 291.113603 
L 279.627527 290.872661 
L 282.268663 290.658174 
L 284.9098 290.472294 
L 287.550936 290.31657 
L 290.192073 290.19198 
L 292.833209 290.09896 
L 295.474345 290.037449 
L 298.115482 290.006919 
L 300.756618 290.006417 
L 303.397755 290.034589 
L 306.038891 290.08971 
L 308.680027 290.169709 
L 311.321164 290.27218 
L 313.9623 290.394407 
L 316.603437 290.533381 
L 319.244573 290.685819 
L 321.885709 290.848197 
L 324.526846 291.016784 
L 327.167982 291.187684 
L 329.809119 291.356898 
L 332.450255 291.520386 
L 335.091392 291.674147 
L 337.732528 291.814301 
L 340.373664 291.937183 
L 343.014801 292.039434 
L 345.655937 292.11809 
L 348.297074 292.170675 
L 350.93821 292.195268 
L 353.579346 292.190571 
L 356.220483 292.155949 
L 358.861619 292.091458 
L 361.502756 291.997837 
L 364.143892 291.876496 
L 366.785028 291.729461 
L 369.426165 291.559313 
L 372.067301 291.3691 
L 374.708438 291.162235 
L 377.349574 290.942384 
L 379.99071 290.713347 
L 382.631847 290.47894 
L 385.272983 290.242876 
L 387.91412 290.00866 
L 390.555256 289.779493 
L 393.196392 289.558192 
L 395.837529 289.34713 
L 398.478665 289.148198 
L 401.119802 288.962779 
L 403.760938 288.791755 
L 406.402074 288.635523 
L 409.043211 288.494029 
L 411.684347 288.366821 
L 414.325484 288.253104 
L 416.96662 288.151815 
L 419.607756 288.061687 
L 422.248893 287.981327 
L 424.890029 287.909279 
L 427.531166 287.844094 
L 430.172302 287.78438 
L 432.813439 287.728853 
L 435.454575 287.67637 
L 438.095711 287.625957 
L 440.736848 287.576819 
L 443.377984 287.528349 
L 446.019121 287.480118 
L 448.660257 287.431866 
L 451.301393 287.38348 
L 453.94253 287.334971 
L 456.583666 287.286447 
L 459.224803 287.238088 
L 461.865939 287.190118 
L 464.507075 287.142782 
L 467.148212 287.09632 
L 469.789348 287.050956 
L 472.430485 287.006884 
L 475.071621 286.964253 
L 477.712757 286.923171 
L 480.353894 286.883701 
L 482.99503 286.845862 
L 485.636167 286.809638 
L 488.277303 286.774983 
L 488.277303 285.756796 
L 488.277303 285.756796 
L 485.636167 285.722141 
L 482.99503 285.685917 
L 480.353894 285.648078 
L 477.712757 285.608608 
L 475.071621 285.567527 
L 472.430485 285.524896 
L 469.789348 285.480823 
L 467.148212 285.43546 
L 464.507075 285.388998 
L 461.865939 285.341661 
L 459.224803 285.293691 
L 456.583666 285.245333 
L 453.94253 285.196809 
L 451.301393 285.148299 
L 448.660257 285.099913 
L 446.019121 285.051661 
L 443.377984 285.00343 
L 440.736848 284.95496 
L 438.095711 284.905822 
L 435.454575 284.855409 
L 432.813439 284.802926 
L 430.172302 284.747399 
L 427.531166 284.687685 
L 424.890029 284.6225 
L 422.248893 284.550452 
L 419.607756 284.470092 
L 416.96662 284.379965 
L 414.325484 284.278675 
L 411.684347 284.164959 
L 409.043211 284.03775 
L 406.402074 283.896256 
L 403.760938 283.740024 
L 401.119802 283.569001 
L 398.478665 283.383582 
L 395.837529 283.184649 
L 393.196392 282.973587 
L 390.555256 282.752286 
L 387.91412 282.523119 
L 385.272983 282.288903 
L 382.631847 282.05284 
L 379.99071 281.818433 
L 377.349574 281.589396 
L 374.708438 281.369545 
L 372.067301 281.162679 
L 369.426165 280.972466 
L 366.785028 280.802319 
L 364.143892 280.655284 
L 361.502756 280.533942 
L 358.861619 280.440322 
L 356.220483 280.37583 
L 353.579346 280.341209 
L 350.93821 280.336512 
L 348.297074 280.361105 
L 345.655937 280.413689 
L 343.014801 280.492346 
L 340.373664 280.594596 
L 337.732528 280.717478 
L 335.091392 280.857633 
L 332.450255 281.011394 
L 329.809119 281.174882 
L 327.167982 281.344096 
L 324.526846 281.514996 
L 321.885709 281.683582 
L 319.244573 281.845961 
L 316.603437 281.998399 
L 313.9623 282.137372 
L 311.321164 282.2596 
L 308.680027 282.362071 
L 306.038891 282.442069 
L 303.397755 282.497191 
L 300.756618 282.525363 
L 298.115482 282.52486 
L 295.474345 282.49433 
L 292.833209 282.432819 
L 290.192073 282.339799 
L 287.550936 282.215209 
L 284.9098 282.059486 
L 282.268663 281.873605 
L 279.627527 281.659118 
L 276.986391 281.418177 
L 274.345254 281.153557 
L 271.704118 280.868664 
L 269.062981 280.567519 
L 266.421845 280.254731 
L 263.780709 279.935444 
L 261.139572 279.615256 
L 258.498436 279.300121 
L 255.857299 278.996229 
L 253.216163 278.709861 
L 250.575027 278.447233 
L 247.93389 278.21433 
L 245.292754 278.016739 
L 242.651617 277.859478 
L 240.010481 277.746844 
L 237.369344 277.682277 
L 234.728208 277.668243 
L 232.087072 277.706152 
L 229.445935 277.796312 
L 226.804799 277.937916 
z
" style="fill:#ff0000;fill-opacity:0.75;"/>
   </g>
   <g id="PolyCollection_3">
    <path clip-path="url(#p3ad97658c4)" d="M 226.804799 243.532161 
L 226.804799 260.218441 
L 229.445935 260.351872 
L 232.087072 260.436761 
L 234.728208 260.472949 
L 237.369344 260.461338 
L 240.010481 260.403864 
L 242.651617 260.303424 
L 245.292754 260.163775 
L 247.93389 259.989415 
L 250.575027 259.785435 
L 253.216163 259.557361 
L 255.857299 259.310989 
L 258.498436 259.052225 
L 261.139572 258.786928 
L 263.780709 258.520768 
L 266.421845 258.2591 
L 269.062981 258.006858 
L 271.704118 257.768478 
L 274.345254 257.547836 
L 276.986391 257.34821 
L 279.627527 257.172269 
L 282.268663 257.022069 
L 284.9098 256.899076 
L 287.550936 256.804186 
L 290.192073 256.737766 
L 292.833209 256.699688 
L 295.474345 256.689372 
L 298.115482 256.70582 
L 300.756618 256.747652 
L 303.397755 256.813135 
L 306.038891 256.900213 
L 308.680027 257.006524 
L 311.321164 257.129425 
L 313.9623 257.266011 
L 316.603437 257.413135 
L 319.244573 257.567437 
L 321.885709 257.725375 
L 324.526846 257.883263 
L 327.167982 258.037321 
L 329.809119 258.183733 
L 332.450255 258.318714 
L 335.091392 258.438583 
L 337.732528 258.539847 
L 340.373664 258.619282 
L 343.014801 258.674025 
L 345.655937 258.701647 
L 348.297074 258.700235 
L 350.93821 258.668454 
L 353.579346 258.605595 
L 356.220483 258.511609 
L 358.861619 258.387118 
L 361.502756 258.233409 
L 364.143892 258.052402 
L 366.785028 257.846597 
L 369.426165 257.619007 
L 372.067301 257.373069 
L 374.708438 257.112541 
L 377.349574 256.841396 
L 379.99071 256.563702 
L 382.631847 256.283512 
L 385.272983 256.004745 
L 387.91412 255.73109 
L 390.555256 255.465911 
L 393.196392 255.21217 
L 395.837529 254.97237 
L 398.478665 254.748514 
L 401.119802 254.542082 
L 403.760938 254.354033 
L 406.402074 254.184815 
L 409.043211 254.034396 
L 411.684347 253.902312 
L 414.325484 253.787719 
L 416.96662 253.689455 
L 419.607756 253.606111 
L 422.248893 253.536091 
L 424.890029 253.47769 
L 427.531166 253.429151 
L 430.172302 253.388724 
L 432.813439 253.35472 
L 435.454575 253.325549 
L 438.095711 253.299758 
L 440.736848 253.27605 
L 443.377984 253.253304 
L 446.019121 253.230579 
L 448.660257 253.207113 
L 451.301393 253.182318 
L 453.94253 253.155767 
L 456.583666 253.127177 
L 459.224803 253.096393 
L 461.865939 253.063368 
L 464.507075 253.028144 
L 467.148212 252.990832 
L 469.789348 252.951599 
L 472.430485 252.910647 
L 475.071621 252.868209 
L 477.712757 252.82453 
L 480.353894 252.779867 
L 482.99503 252.734477 
L 485.636167 252.688616 
L 488.277303 252.642537 
L 488.277303 251.108066 
L 488.277303 251.108066 
L 485.636167 251.061987 
L 482.99503 251.016126 
L 480.353894 250.970736 
L 477.712757 250.926073 
L 475.071621 250.882394 
L 472.430485 250.839956 
L 469.789348 250.799004 
L 467.148212 250.759771 
L 464.507075 250.722459 
L 461.865939 250.687235 
L 459.224803 250.65421 
L 456.583666 250.623426 
L 453.94253 250.594836 
L 451.301393 250.568284 
L 448.660257 250.54349 
L 446.019121 250.520024 
L 443.377984 250.497299 
L 440.736848 250.474553 
L 438.095711 250.450845 
L 435.454575 250.425053 
L 432.813439 250.395883 
L 430.172302 250.361879 
L 427.531166 250.321452 
L 424.890029 250.272913 
L 422.248893 250.214512 
L 419.607756 250.144492 
L 416.96662 250.061147 
L 414.325484 249.962884 
L 411.684347 249.848291 
L 409.043211 249.716207 
L 406.402074 249.565788 
L 403.760938 249.39657 
L 401.119802 249.208521 
L 398.478665 249.002089 
L 395.837529 248.778233 
L 393.196392 248.538433 
L 390.555256 248.284692 
L 387.91412 248.019513 
L 385.272983 247.745858 
L 382.631847 247.467091 
L 379.99071 247.186901 
L 377.349574 246.909207 
L 374.708438 246.638062 
L 372.067301 246.377534 
L 369.426165 246.131596 
L 366.785028 245.904006 
L 364.143892 245.698201 
L 361.502756 245.517194 
L 358.861619 245.363485 
L 356.220483 245.238994 
L 353.579346 245.145008 
L 350.93821 245.082149 
L 348.297074 245.050368 
L 345.655937 245.048956 
L 343.014801 245.076578 
L 340.373664 245.131321 
L 337.732528 245.210756 
L 335.091392 245.31202 
L 332.450255 245.431889 
L 329.809119 245.566869 
L 327.167982 245.713282 
L 324.526846 245.86734 
L 321.885709 246.025228 
L 319.244573 246.183166 
L 316.603437 246.337468 
L 313.9623 246.484592 
L 311.321164 246.621178 
L 308.680027 246.744079 
L 306.038891 246.85039 
L 303.397755 246.937468 
L 300.756618 247.002951 
L 298.115482 247.044783 
L 295.474345 247.061231 
L 292.833209 247.050915 
L 290.192073 247.012837 
L 287.550936 246.946417 
L 284.9098 246.851527 
L 282.268663 246.728534 
L 279.627527 246.578334 
L 276.986391 246.402393 
L 274.345254 246.202767 
L 271.704118 245.982125 
L 269.062981 245.743745 
L 266.421845 245.491503 
L 263.780709 245.229835 
L 261.139572 244.963675 
L 258.498436 244.698378 
L 255.857299 244.439614 
L 253.216163 244.193242 
L 250.575027 243.965168 
L 247.93389 243.761188 
L 245.292754 243.586828 
L 242.651617 243.447179 
L 240.010481 243.346739 
L 237.369344 243.289265 
L 234.728208 243.277654 
L 232.087072 243.313842 
L 229.445935 243.398731 
L 226.804799 243.532161 
z
" style="fill:#ff0000;fill-opacity:0.75;"/>
   </g>
   <g id="PolyCollection_4">
    <path clip-path="url(#p3ad97658c4)" d="M 227.328305 209.259752 
L 227.328305 225.709675 
L 229.962815 225.870082 
L 232.597325 225.98623 
L 235.231835 226.057053 
L 237.866344 226.08236 
L 240.500854 226.062846 
L 243.135364 226.000062 
L 245.769874 225.896377 
L 248.404384 225.754904 
L 251.038894 225.579415 
L 253.673403 225.374234 
L 256.307913 225.144128 
L 258.942423 224.894181 
L 261.576933 224.629674 
L 264.211443 224.355964 
L 266.845952 224.07837 
L 269.480462 223.802066 
L 272.114972 223.531993 
L 274.749482 223.272773 
L 277.383992 223.028648 
L 280.018502 222.803426 
L 282.653011 222.600441 
L 285.287521 222.422529 
L 287.922031 222.272008 
L 290.556541 222.150674 
L 293.191051 222.059794 
L 295.825561 222.000112 
L 298.46007 221.971853 
L 301.09458 221.974733 
L 303.72909 222.007963 
L 306.3636 222.070267 
L 308.99811 222.159888 
L 311.63262 222.274609 
L 314.267129 222.411767 
L 316.901639 222.568283 
L 319.536149 222.740695 
L 322.170659 222.925196 
L 324.805169 223.117689 
L 327.439678 223.313848 
L 330.074188 223.509189 
L 332.708698 223.699159 
L 335.343208 223.879222 
L 337.977718 224.044961 
L 340.612228 224.192179 
L 343.246737 224.317005 
L 345.881247 224.415991 
L 348.515757 224.486207 
L 351.150267 224.525321 
L 353.784777 224.531667 
L 356.419287 224.504289 
L 359.053796 224.442975 
L 361.688306 224.348256 
L 364.322816 224.221388 
L 366.957326 224.064313 
L 369.591836 223.879591 
L 372.226346 223.67032 
L 374.860855 223.440037 
L 377.495365 223.192604 
L 380.129875 222.932093 
L 382.764385 222.662663 
L 385.398895 222.38844 
L 388.033404 222.113406 
L 390.667914 221.841292 
L 393.302424 221.575496 
L 395.936934 221.319007 
L 398.571444 221.074351 
L 401.205954 220.843559 
L 403.840463 220.628155 
L 406.474973 220.429154 
L 409.109483 220.247087 
L 411.743993 220.082037 
L 414.378503 219.933683 
L 417.013013 219.801359 
L 419.647522 219.684116 
L 422.282032 219.580785 
L 424.916542 219.490044 
L 427.551052 219.410478 
L 430.185562 219.340636 
L 432.820072 219.279082 
L 435.454581 219.224435 
L 438.089091 219.175405 
L 440.723601 219.130812 
L 443.358111 219.08961 
L 445.992621 219.050887 
L 448.62713 219.013868 
L 451.26164 218.977911 
L 453.89615 218.942497 
L 456.53066 218.907215 
L 459.16517 218.871749 
L 461.79968 218.835861 
L 464.434189 218.79938 
L 467.068699 218.762183 
L 469.703209 218.724187 
L 472.337719 218.685339 
L 474.972229 218.64561 
L 477.606739 218.60499 
L 480.241248 218.563483 
L 482.875758 218.521116 
L 485.510268 218.477927 
L 488.144778 218.433979 
L 488.144778 216.535447 
L 488.144778 216.535447 
L 485.510268 216.491499 
L 482.875758 216.448311 
L 480.241248 216.405943 
L 477.606739 216.364437 
L 474.972229 216.323816 
L 472.337719 216.284087 
L 469.703209 216.24524 
L 467.068699 216.207244 
L 464.434189 216.170046 
L 461.79968 216.133565 
L 459.16517 216.097678 
L 456.53066 216.062212 
L 453.89615 216.026929 
L 451.26164 215.991515 
L 448.62713 215.955559 
L 445.992621 215.91854 
L 443.358111 215.879816 
L 440.723601 215.838614 
L 438.089091 215.794022 
L 435.454581 215.744991 
L 432.820072 215.690344 
L 430.185562 215.62879 
L 427.551052 215.558949 
L 424.916542 215.479383 
L 422.282032 215.388642 
L 419.647522 215.285311 
L 417.013013 215.168068 
L 414.378503 215.035744 
L 411.743993 214.88739 
L 409.109483 214.722339 
L 406.474973 214.540273 
L 403.840463 214.341272 
L 401.205954 214.125867 
L 398.571444 213.895076 
L 395.936934 213.65042 
L 393.302424 213.39393 
L 390.667914 213.128134 
L 388.033404 212.856021 
L 385.398895 212.580986 
L 382.764385 212.306764 
L 380.129875 212.037334 
L 377.495365 211.776823 
L 374.860855 211.52939 
L 372.226346 211.299106 
L 369.591836 211.089835 
L 366.957326 210.905113 
L 364.322816 210.748038 
L 361.688306 210.621171 
L 359.053796 210.526451 
L 356.419287 210.465138 
L 353.784777 210.43776 
L 351.150267 210.444105 
L 348.515757 210.483219 
L 345.881247 210.553435 
L 343.246737 210.652421 
L 340.612228 210.777247 
L 337.977718 210.924466 
L 335.343208 211.090204 
L 332.708698 211.270267 
L 330.074188 211.460237 
L 327.439678 211.655579 
L 324.805169 211.851737 
L 322.170659 212.04423 
L 319.536149 212.228731 
L 316.901639 212.401143 
L 314.267129 212.55766 
L 311.63262 212.694818 
L 308.99811 212.809538 
L 306.3636 212.899159 
L 303.72909 212.961463 
L 301.09458 212.994694 
L 298.46007 212.997573 
L 295.825561 212.969314 
L 293.191051 212.909632 
L 290.556541 212.818752 
L 287.922031 212.697418 
L 285.287521 212.546898 
L 282.653011 212.368986 
L 280.018502 212.166001 
L 277.383992 211.940778 
L 274.749482 211.696654 
L 272.114972 211.437434 
L 269.480462 211.16736 
L 266.845952 210.891057 
L 264.211443 210.613462 
L 261.576933 210.339752 
L 258.942423 210.075245 
L 256.307913 209.825298 
L 253.673403 209.595192 
L 251.038894 209.390012 
L 248.404384 209.214523 
L 245.769874 209.07305 
L 243.135364 208.969365 
L 240.500854 208.906581 
L 237.866344 208.887066 
L 235.231835 208.912374 
L 232.597325 208.983196 
L 229.962815 209.099344 
L 227.328305 209.259752 
z
" style="fill:#ff0000;fill-opacity:0.75;"/>
   </g>
   <g id="PolyCollection_5">
    <path clip-path="url(#p3ad97658c4)" d="M 227.328305 176.678926 
L 227.328305 189.509324 
L 229.962815 189.642641 
L 232.597325 189.743794 
L 235.231835 189.812064 
L 237.866344 189.847372 
L 240.500854 189.850284 
L 243.135364 189.821996 
L 245.769874 189.764298 
L 248.404384 189.679535 
L 251.038894 189.570539 
L 253.673403 189.440562 
L 256.307913 189.293202 
L 258.942423 189.132314 
L 261.576933 188.961935 
L 264.211443 188.786195 
L 266.845952 188.609245 
L 269.480462 188.43518 
L 272.114972 188.267975 
L 274.749482 188.111424 
L 277.383992 187.969091 
L 280.018502 187.84426 
L 282.653011 187.739904 
L 285.287521 187.658645 
L 287.922031 187.602727 
L 290.556541 187.573993 
L 293.191051 187.573856 
L 295.825561 187.603279 
L 298.46007 187.662756 
L 301.09458 187.752287 
L 303.72909 187.871364 
L 306.3636 188.018956 
L 308.99811 188.193494 
L 311.63262 188.392872 
L 314.267129 188.614446 
L 316.901639 188.855053 
L 319.536149 189.111032 
L 322.170659 189.378268 
L 324.805169 189.652243 
L 327.439678 189.928111 
L 330.074188 190.200778 
L 332.708698 190.465006 
L 335.343208 190.71552 
L 337.977718 190.947133 
L 340.612228 191.154869 
L 343.246737 191.334093 
L 345.881247 191.480634 
L 348.515757 191.590902 
L 351.150267 191.661993 
L 353.784777 191.691772 
L 356.419287 191.678943 
L 359.053796 191.623083 
L 361.688306 191.52466 
L 364.322816 191.38502 
L 366.957326 191.20634 
L 369.591836 190.991565 
L 372.226346 190.744313 
L 374.860855 190.468768 
L 377.495365 190.169549 
L 380.129875 189.851576 
L 382.764385 189.519926 
L 385.398895 189.179694 
L 388.033404 188.835854 
L 390.667914 188.493137 
L 393.302424 188.155921 
L 395.936934 187.828139 
L 398.571444 187.513208 
L 401.205954 187.213981 
L 403.840463 186.932719 
L 406.474973 186.671086 
L 409.109483 186.430164 
L 411.743993 186.210486 
L 414.378503 186.01208 
L 417.013013 185.83453 
L 419.647522 185.677039 
L 422.282032 185.538501 
L 424.916542 185.417573 
L 427.551052 185.312739 
L 430.185562 185.222382 
L 432.820072 185.144837 
L 435.454581 185.078442 
L 438.089091 185.02158 
L 440.723601 184.972714 
L 443.358111 184.930403 
L 445.992621 184.893324 
L 448.62713 184.860275 
L 451.26164 184.830181 
L 453.89615 184.802085 
L 456.53066 184.775145 
L 459.16517 184.748625 
L 461.79968 184.721885 
L 464.434189 184.694371 
L 467.068699 184.66561 
L 469.703209 184.635199 
L 472.337719 184.602803 
L 474.972229 184.568155 
L 477.606739 184.531046 
L 480.241248 184.491337 
L 482.875758 184.448948 
L 485.510268 184.403869 
L 488.144778 184.356154 
L 488.144778 181.832096 
L 488.144778 181.832096 
L 485.510268 181.784381 
L 482.875758 181.739302 
L 480.241248 181.696913 
L 477.606739 181.657204 
L 474.972229 181.620095 
L 472.337719 181.585447 
L 469.703209 181.553051 
L 467.068699 181.52264 
L 464.434189 181.493879 
L 461.79968 181.466365 
L 459.16517 181.439625 
L 456.53066 181.413105 
L 453.89615 181.386165 
L 451.26164 181.358069 
L 448.62713 181.327975 
L 445.992621 181.294926 
L 443.358111 181.257847 
L 440.723601 181.215536 
L 438.089091 181.16667 
L 435.454581 181.109808 
L 432.820072 181.043413 
L 430.185562 180.965868 
L 427.551052 180.875511 
L 424.916542 180.770677 
L 422.282032 180.649749 
L 419.647522 180.511211 
L 417.013013 180.35372 
L 414.378503 180.17617 
L 411.743993 179.977764 
L 409.109483 179.758086 
L 406.474973 179.517164 
L 403.840463 179.255531 
L 401.205954 178.974269 
L 398.571444 178.675042 
L 395.936934 178.360111 
L 393.302424 178.032329 
L 390.667914 177.695113 
L 388.033404 177.352396 
L 385.398895 177.008556 
L 382.764385 176.668324 
L 380.129875 176.336674 
L 377.495365 176.018701 
L 374.860855 175.719482 
L 372.226346 175.443937 
L 369.591836 175.196685 
L 366.957326 174.98191 
L 364.322816 174.80323 
L 361.688306 174.66359 
L 359.053796 174.565167 
L 356.419287 174.509307 
L 353.784777 174.496478 
L 351.150267 174.526257 
L 348.515757 174.597348 
L 345.881247 174.707616 
L 343.246737 174.854157 
L 340.612228 175.033381 
L 337.977718 175.241117 
L 335.343208 175.47273 
L 332.708698 175.723244 
L 330.074188 175.987472 
L 327.439678 176.260139 
L 324.805169 176.536007 
L 322.170659 176.809982 
L 319.536149 177.077218 
L 316.901639 177.333197 
L 314.267129 177.573804 
L 311.63262 177.795378 
L 308.99811 177.994756 
L 306.3636 178.169294 
L 303.72909 178.316886 
L 301.09458 178.435963 
L 298.46007 178.525494 
L 295.825561 178.584971 
L 293.191051 178.614394 
L 290.556541 178.614257 
L 287.922031 178.585523 
L 285.287521 178.529605 
L 282.653011 178.448346 
L 280.018502 178.34399 
L 277.383992 178.219159 
L 274.749482 178.076826 
L 272.114972 177.920275 
L 269.480462 177.75307 
L 266.845952 177.579005 
L 264.211443 177.402055 
L 261.576933 177.226315 
L 258.942423 177.055936 
L 256.307913 176.895048 
L 253.673403 176.747688 
L 251.038894 176.617711 
L 248.404384 176.508715 
L 245.769874 176.423952 
L 243.135364 176.366254 
L 240.500854 176.337966 
L 237.866344 176.340878 
L 235.231835 176.376186 
L 232.597325 176.444456 
L 229.962815 176.545609 
L 227.328305 176.678926 
z
" style="fill:#ff0000;fill-opacity:0.75;"/>
   </g>
   <g id="PolyCollection_6">
    <path clip-path="url(#p3ad97658c4)" d="M 227.16864 140.583046 
L 227.16864 156.824027 
L 230.015385 157.021786 
L 232.862131 157.168198 
L 235.708876 157.261507 
L 238.555621 157.301184 
L 241.402367 157.287934 
L 244.249112 157.223674 
L 247.095857 157.111464 
L 249.942603 156.955392 
L 252.789348 156.760441 
L 255.636093 156.532319 
L 258.482839 156.277282 
L 261.329584 156.00194 
L 264.176329 155.713069 
L 267.023075 155.417434 
L 269.86982 155.121614 
L 272.716566 154.83186 
L 275.563311 154.553966 
L 278.410056 154.293169 
L 281.256802 154.054066 
L 284.103547 153.840568 
L 286.950292 153.655859 
L 289.797038 153.502383 
L 292.643783 153.381844 
L 295.490528 153.295213 
L 298.337274 153.24275 
L 301.184019 153.224031 
L 304.030764 153.237973 
L 306.87751 153.282869 
L 309.724255 153.356429 
L 312.571001 153.455816 
L 315.417746 153.577696 
L 318.264491 153.718289 
L 321.111237 153.873431 
L 323.957982 154.038645 
L 326.804727 154.209219 
L 329.651473 154.3803 
L 332.498218 154.546986 
L 335.344963 154.704438 
L 338.191709 154.847989 
L 341.038454 154.973256 
L 343.885199 155.07625 
L 346.731945 155.153479 
L 349.57869 155.202041 
L 352.425436 155.219698 
L 355.272181 155.204935 
L 358.118926 155.156994 
L 360.965672 155.075887 
L 363.812417 154.962379 
L 366.659162 154.817952 
L 369.505908 154.644744 
L 372.352653 154.445465 
L 375.199398 154.223301 
L 378.046144 153.981807 
L 380.892889 153.724787 
L 383.739635 153.456176 
L 386.58638 153.179929 
L 389.433125 152.89991 
L 392.279871 152.619797 
L 395.126616 152.343001 
L 397.973361 152.072604 
L 400.820107 151.811308 
L 403.666852 151.561408 
L 406.513597 151.324779 
L 409.360343 151.102878 
L 412.207088 150.896761 
L 415.053833 150.70711 
L 417.900579 150.534261 
L 420.747324 150.378251 
L 423.59407 150.238851 
L 426.440815 150.115612 
L 429.28756 150.0079 
L 432.134306 149.914938 
L 434.981051 149.835829 
L 437.827796 149.769593 
L 440.674542 149.715181 
L 443.521287 149.671502 
L 446.368032 149.637434 
L 449.214778 149.611839 
L 452.061523 149.593574 
L 454.908268 149.5815 
L 457.755014 149.574494 
L 460.601759 149.571461 
L 463.448505 149.571337 
L 466.29525 149.573108 
L 469.141995 149.575816 
L 471.988741 149.578574 
L 474.835486 149.580573 
L 477.682231 149.581096 
L 480.528977 149.579523 
L 483.375722 149.575343 
L 486.222467 149.568153 
L 489.069213 149.557663 
L 491.915958 149.543697 
L 494.762703 149.526188 
L 497.609449 149.505174 
L 500.456194 149.480786 
L 503.30294 149.453244 
L 506.149685 149.422838 
L 508.99643 149.389923 
L 508.99643 148.017151 
L 508.99643 148.017151 
L 506.149685 147.984235 
L 503.30294 147.95383 
L 500.456194 147.926287 
L 497.609449 147.901899 
L 494.762703 147.880885 
L 491.915958 147.863377 
L 489.069213 147.849411 
L 486.222467 147.838921 
L 483.375722 147.83173 
L 480.528977 147.82755 
L 477.682231 147.825978 
L 474.835486 147.826501 
L 471.988741 147.8285 
L 469.141995 147.831258 
L 466.29525 147.833966 
L 463.448505 147.835737 
L 460.601759 147.835613 
L 457.755014 147.832579 
L 454.908268 147.825574 
L 452.061523 147.8135 
L 449.214778 147.795235 
L 446.368032 147.769639 
L 443.521287 147.735572 
L 440.674542 147.691893 
L 437.827796 147.637481 
L 434.981051 147.571244 
L 432.134306 147.492136 
L 429.28756 147.399173 
L 426.440815 147.291462 
L 423.59407 147.168223 
L 420.747324 147.028823 
L 417.900579 146.872812 
L 415.053833 146.699964 
L 412.207088 146.510312 
L 409.360343 146.304196 
L 406.513597 146.082295 
L 403.666852 145.845666 
L 400.820107 145.595765 
L 397.973361 145.334469 
L 395.126616 145.064072 
L 392.279871 144.787277 
L 389.433125 144.507164 
L 386.58638 144.227144 
L 383.739635 143.950897 
L 380.892889 143.682287 
L 378.046144 143.425266 
L 375.199398 143.183772 
L 372.352653 142.961609 
L 369.505908 142.76233 
L 366.659162 142.589121 
L 363.812417 142.444695 
L 360.965672 142.331187 
L 358.118926 142.25008 
L 355.272181 142.202139 
L 352.425436 142.187376 
L 349.57869 142.205032 
L 346.731945 142.253594 
L 343.885199 142.330823 
L 341.038454 142.433817 
L 338.191709 142.559084 
L 335.344963 142.702636 
L 332.498218 142.860088 
L 329.651473 143.026774 
L 326.804727 143.197854 
L 323.957982 143.368429 
L 321.111237 143.533643 
L 318.264491 143.688785 
L 315.417746 143.829378 
L 312.571001 143.951257 
L 309.724255 144.050644 
L 306.87751 144.124204 
L 304.030764 144.169101 
L 301.184019 144.183042 
L 298.337274 144.164323 
L 295.490528 144.111861 
L 292.643783 144.02523 
L 289.797038 143.90469 
L 286.950292 143.751214 
L 284.103547 143.566505 
L 281.256802 143.353007 
L 278.410056 143.113905 
L 275.563311 142.853107 
L 272.716566 142.575213 
L 269.86982 142.28546 
L 267.023075 141.98964 
L 264.176329 141.694004 
L 261.329584 141.405134 
L 258.482839 141.129791 
L 255.636093 140.874754 
L 252.789348 140.646633 
L 249.942603 140.451682 
L 247.095857 140.29561 
L 244.249112 140.183399 
L 241.402367 140.11914 
L 238.555621 140.10589 
L 235.708876 140.145566 
L 232.862131 140.238876 
L 230.015385 140.385287 
L 227.16864 140.583046 
z
" style="fill:#ff0000;fill-opacity:0.75;"/>
   </g>
   <g id="PolyCollection_7">
    <path clip-path="url(#p3ad97658c4)" d="M 226.935267 108.847006 
L 226.935267 119.778891 
L 229.567557 119.871542 
L 232.199846 119.931497 
L 234.832136 119.958696 
L 237.464425 119.953843 
L 240.096715 119.918377 
L 242.729004 119.854424 
L 245.361294 119.764722 
L 247.993583 119.652529 
L 250.625873 119.521518 
L 253.258162 119.375663 
L 255.890452 119.219119 
L 258.522741 119.056112 
L 261.155031 118.890833 
L 263.78732 118.727341 
L 266.41961 118.569485 
L 269.051899 118.420846 
L 271.684189 118.28469 
L 274.316478 118.163943 
L 276.948768 118.061183 
L 279.581057 117.97864 
L 282.213346 117.918212 
L 284.845636 117.881484 
L 287.477925 117.869748 
L 290.110215 117.884025 
L 292.742504 117.92508 
L 295.374794 117.993425 
L 298.007083 118.089315 
L 300.639373 118.212737 
L 303.271662 118.363379 
L 305.903952 118.540597 
L 308.536241 118.74337 
L 311.168531 118.970258 
L 313.80082 119.219348 
L 316.43311 119.488225 
L 319.065399 119.773934 
L 321.697689 120.072969 
L 324.329978 120.381282 
L 326.962268 120.694308 
L 329.594557 121.007024 
L 332.226847 121.314029 
L 334.859136 121.60965 
L 337.491426 121.888072 
L 340.123715 122.143493 
L 342.756005 122.37028 
L 345.388294 122.56314 
L 348.020583 122.717294 
L 350.652873 122.828631 
L 353.285162 122.893852 
L 355.917452 122.910596 
L 358.549741 122.877518 
L 361.182031 122.794355 
L 363.81432 122.661933 
L 366.44661 122.48215 
L 369.078899 122.257913 
L 371.711189 121.993042 
L 374.343478 121.692146 
L 376.975768 121.360466 
L 379.608057 121.003714 
L 382.240347 120.62789 
L 384.872636 120.239102 
L 387.504926 119.843396 
L 390.137215 119.446591 
L 392.769505 119.054137 
L 395.401794 118.670995 
L 398.034084 118.301544 
L 400.666373 117.949512 
L 403.298663 117.617937 
L 405.930952 117.309158 
L 408.563241 117.024818 
L 411.195531 116.765907 
L 413.82782 116.5328 
L 416.46011 116.325328 
L 419.092399 116.142841 
L 421.724689 115.984292 
L 424.356978 115.848308 
L 426.989268 115.733267 
L 429.621557 115.637371 
L 432.253847 115.55871 
L 434.886136 115.495318 
L 437.518426 115.445226 
L 440.150715 115.406501 
L 442.783005 115.377278 
L 445.415294 115.355789 
L 448.047584 115.340379 
L 450.679873 115.329519 
L 453.312163 115.321819 
L 455.944452 115.316026 
L 458.576742 115.311028 
L 461.209031 115.305856 
L 463.841321 115.299679 
L 466.47361 115.291801 
L 469.1059 115.281657 
L 471.738189 115.26881 
L 474.370478 115.252944 
L 477.002768 115.233859 
L 479.635057 115.211464 
L 482.267347 115.185772 
L 484.899636 115.156887 
L 487.531926 115.125003 
L 487.531926 113.500895 
L 487.531926 113.500895 
L 484.899636 113.46901 
L 482.267347 113.440125 
L 479.635057 113.414433 
L 477.002768 113.392038 
L 474.370478 113.372953 
L 471.738189 113.357087 
L 469.1059 113.34424 
L 466.47361 113.334096 
L 463.841321 113.326218 
L 461.209031 113.320041 
L 458.576742 113.314869 
L 455.944452 113.309871 
L 453.312163 113.304078 
L 450.679873 113.296378 
L 448.047584 113.285518 
L 445.415294 113.270108 
L 442.783005 113.248619 
L 440.150715 113.219396 
L 437.518426 113.180671 
L 434.886136 113.130579 
L 432.253847 113.067187 
L 429.621557 112.988526 
L 426.989268 112.89263 
L 424.356978 112.777589 
L 421.724689 112.641605 
L 419.092399 112.483056 
L 416.46011 112.30057 
L 413.82782 112.093097 
L 411.195531 111.85999 
L 408.563241 111.601079 
L 405.930952 111.31674 
L 403.298663 111.00796 
L 400.666373 110.676385 
L 398.034084 110.324353 
L 395.401794 109.954902 
L 392.769505 109.57176 
L 390.137215 109.179306 
L 387.504926 108.782501 
L 384.872636 108.386795 
L 382.240347 107.998007 
L 379.608057 107.622183 
L 376.975768 107.265431 
L 374.343478 106.933751 
L 371.711189 106.632855 
L 369.078899 106.367984 
L 366.44661 106.143747 
L 363.81432 105.963964 
L 361.182031 105.831542 
L 358.549741 105.748379 
L 355.917452 105.715301 
L 353.285162 105.732045 
L 350.652873 105.797267 
L 348.020583 105.908603 
L 345.388294 106.062757 
L 342.756005 106.255618 
L 340.123715 106.482404 
L 337.491426 106.737825 
L 334.859136 107.016248 
L 332.226847 107.311868 
L 329.594557 107.618873 
L 326.962268 107.931589 
L 324.329978 108.244615 
L 321.697689 108.552928 
L 319.065399 108.851963 
L 316.43311 109.137672 
L 313.80082 109.406549 
L 311.168531 109.655639 
L 308.536241 109.882527 
L 305.903952 110.0853 
L 303.271662 110.262518 
L 300.639373 110.41316 
L 298.007083 110.536582 
L 295.374794 110.632472 
L 292.742504 110.700817 
L 290.110215 110.741872 
L 287.477925 110.756149 
L 284.845636 110.744414 
L 282.213346 110.707685 
L 279.581057 110.647257 
L 276.948768 110.564714 
L 274.316478 110.461954 
L 271.684189 110.341207 
L 269.051899 110.205051 
L 266.41961 110.056412 
L 263.78732 109.898556 
L 261.155031 109.735064 
L 258.522741 109.569785 
L 255.890452 109.406778 
L 253.258162 109.250234 
L 250.625873 109.104379 
L 247.993583 108.973368 
L 245.361294 108.861176 
L 242.729004 108.771473 
L 240.096715 108.70752 
L 237.464425 108.672054 
L 234.832136 108.667201 
L 232.199846 108.6944 
L 229.567557 108.754355 
L 226.935267 108.847006 
z
" style="fill:#ff0000;fill-opacity:0.75;"/>
   </g>
   <g id="PolyCollection_8">
    <path clip-path="url(#p3ad97658c4)" d="M 228.195642 73.771923 
L 228.195642 86.072797 
L 230.531111 86.135674 
L 232.86658 86.167865 
L 235.202049 86.16935 
L 237.537518 86.140636 
L 239.872987 86.082746 
L 242.208457 85.997194 
L 244.543926 85.885944 
L 246.879395 85.751361 
L 249.214864 85.596146 
L 251.550333 85.423278 
L 253.885802 85.235938 
L 256.221271 85.037438 
L 258.556741 84.831153 
L 260.89221 84.620451 
L 263.227679 84.408632 
L 265.563148 84.198876 
L 267.898617 83.994197 
L 270.234086 83.797406 
L 272.569556 83.611087 
L 274.905025 83.437581 
L 277.240494 83.27898 
L 279.575963 83.137126 
L 281.911432 83.013621 
L 284.246901 82.909839 
L 286.58237 82.826945 
L 288.91784 82.765906 
L 291.253309 82.727516 
L 293.588778 82.712402 
L 295.924247 82.721044 
L 298.259716 82.753774 
L 300.595185 82.81078 
L 302.930654 82.892102 
L 305.266124 82.997618 
L 307.601593 83.127032 
L 309.937062 83.279855 
L 312.272531 83.455378 
L 314.608 83.652653 
L 316.943469 83.870471 
L 319.278939 84.107338 
L 321.614408 84.361461 
L 323.949877 84.630744 
L 326.285346 84.91278 
L 328.620815 85.204863 
L 330.956284 85.504008 
L 333.291753 85.806976 
L 335.627223 86.110321 
L 337.962692 86.410432 
L 340.298161 86.703599 
L 342.63363 86.986075 
L 344.969099 87.254155 
L 347.304568 87.504241 
L 349.640037 87.732931 
L 351.975507 87.937083 
L 354.310976 88.11389 
L 356.646445 88.260944 
L 358.981914 88.376285 
L 361.317383 88.458449 
L 363.652852 88.506492 
L 365.988322 88.520007 
L 368.323791 88.49913 
L 370.65926 88.444519 
L 372.994729 88.357336 
L 375.330198 88.2392 
L 377.665667 88.092144 
L 380.001136 87.918553 
L 382.336606 87.721099 
L 384.672075 87.50267 
L 387.007544 87.266302 
L 389.343013 87.015103 
L 391.678482 86.752187 
L 394.013951 86.480609 
L 396.34942 86.203307 
L 398.68489 85.923048 
L 401.020359 85.642392 
L 403.355828 85.363654 
L 405.691297 85.088884 
L 408.026766 84.819847 
L 410.362235 84.558025 
L 412.697705 84.304611 
L 415.033174 84.060525 
L 417.368643 83.826424 
L 419.704112 83.602727 
L 422.039581 83.389638 
L 424.37505 83.187171 
L 426.710519 82.995178 
L 429.045989 82.813381 
L 431.381458 82.641397 
L 433.716927 82.478768 
L 436.052396 82.324983 
L 438.387865 82.179501 
L 440.723334 82.041773 
L 443.058804 81.911257 
L 445.394273 81.787436 
L 447.729742 81.66982 
L 450.065211 81.557964 
L 452.40068 81.451467 
L 454.736149 81.349978 
L 457.071618 81.253192 
L 459.407088 81.160854 
L 459.407088 78.683867 
L 459.407088 78.683867 
L 457.071618 78.591529 
L 454.736149 78.494743 
L 452.40068 78.393253 
L 450.065211 78.286756 
L 447.729742 78.174901 
L 445.394273 78.057285 
L 443.058804 77.933463 
L 440.723334 77.802948 
L 438.387865 77.66522 
L 436.052396 77.519738 
L 433.716927 77.365952 
L 431.381458 77.203323 
L 429.045989 77.03134 
L 426.710519 76.849543 
L 424.37505 76.65755 
L 422.039581 76.455082 
L 419.704112 76.241993 
L 417.368643 76.018297 
L 415.033174 75.784196 
L 412.697705 75.540109 
L 410.362235 75.286695 
L 408.026766 75.024873 
L 405.691297 74.755837 
L 403.355828 74.481067 
L 401.020359 74.202329 
L 398.68489 73.921673 
L 396.34942 73.641414 
L 394.013951 73.364111 
L 391.678482 73.092533 
L 389.343013 72.829618 
L 387.007544 72.578419 
L 384.672075 72.342051 
L 382.336606 72.123622 
L 380.001136 71.926167 
L 377.665667 71.752576 
L 375.330198 71.605521 
L 372.994729 71.487385 
L 370.65926 71.400201 
L 368.323791 71.345591 
L 365.988322 71.324713 
L 363.652852 71.338229 
L 361.317383 71.386271 
L 358.981914 71.468435 
L 356.646445 71.583777 
L 354.310976 71.730831 
L 351.975507 71.907638 
L 349.640037 72.11179 
L 347.304568 72.340479 
L 344.969099 72.590566 
L 342.63363 72.858645 
L 340.298161 73.141122 
L 337.962692 73.434289 
L 335.627223 73.7344 
L 333.291753 74.037744 
L 330.956284 74.340713 
L 328.620815 74.639858 
L 326.285346 74.931941 
L 323.949877 75.213976 
L 321.614408 75.483259 
L 319.278939 75.737383 
L 316.943469 75.974249 
L 314.608 76.192067 
L 312.272531 76.389343 
L 309.937062 76.564866 
L 307.601593 76.717689 
L 305.266124 76.847103 
L 302.930654 76.952619 
L 300.595185 77.03394 
L 298.259716 77.090946 
L 295.924247 77.123676 
L 293.588778 77.132318 
L 291.253309 77.117205 
L 288.91784 77.078814 
L 286.58237 77.017776 
L 284.246901 76.934881 
L 281.911432 76.8311 
L 279.575963 76.707595 
L 277.240494 76.565741 
L 274.905025 76.407139 
L 272.569556 76.233634 
L 270.234086 76.047315 
L 267.898617 75.850524 
L 265.563148 75.645844 
L 263.227679 75.436089 
L 260.89221 75.22427 
L 258.556741 75.013567 
L 256.221271 74.807282 
L 253.885802 74.608783 
L 251.550333 74.421443 
L 249.214864 74.248575 
L 246.879395 74.09336 
L 244.543926 73.958776 
L 242.208457 73.847527 
L 239.872987 73.761975 
L 237.537518 73.704085 
L 235.202049 73.67537 
L 232.86658 73.676855 
L 230.531111 73.709047 
L 228.195642 73.771923 
z
" style="fill:#ff0000;fill-opacity:0.75;"/>
   </g>
   <g id="PolyCollection_9">
    <path clip-path="url(#p3ad97658c4)" d="M 226.748753 37.051872 
L 226.748753 54.011672 
L 229.379 54.097297 
L 232.009246 54.129419 
L 234.639492 54.107929 
L 237.269738 54.033797 
L 239.899984 53.909037 
L 242.53023 53.736645 
L 245.160476 53.520494 
L 247.790722 53.26522 
L 250.420968 52.97607 
L 253.051214 52.658753 
L 255.681461 52.319274 
L 258.311707 51.963775 
L 260.941953 51.598375 
L 263.572199 51.229027 
L 266.202445 50.861398 
L 268.832691 50.500754 
L 271.462937 50.15188 
L 274.093183 49.819021 
L 276.723429 49.505842 
L 279.353676 49.215414 
L 281.983922 48.950212 
L 284.614168 48.712143 
L 287.244414 48.502567 
L 289.87466 48.322344 
L 292.504906 48.171875 
L 295.135152 48.051148 
L 297.765398 47.959785 
L 300.395644 47.897077 
L 303.025891 47.862027 
L 305.656137 47.85337 
L 308.286383 47.869603 
L 310.916629 47.908999 
L 313.546875 47.969618 
L 316.177121 48.049319 
L 318.807367 48.145767 
L 321.437613 48.256447 
L 324.067859 48.37867 
L 326.698106 48.509602 
L 329.328352 48.64628 
L 331.958598 48.785651 
L 334.588844 48.92461 
L 337.21909 49.060047 
L 339.849336 49.188909 
L 342.479582 49.30825 
L 345.109828 49.415304 
L 347.740074 49.507544 
L 350.370321 49.582745 
L 353.000567 49.639042 
L 355.630813 49.674977 
L 358.261059 49.689541 
L 360.891305 49.682197 
L 363.521551 49.652897 
L 366.151797 49.602075 
L 368.782043 49.530631 
L 371.412289 49.439898 
L 374.042536 49.331597 
L 376.672782 49.207776 
L 379.303028 49.070744 
L 381.933274 48.922996 
L 384.56352 48.767137 
L 387.193766 48.605799 
L 389.824012 48.441566 
L 392.454258 48.276908 
L 395.084504 48.114112 
L 397.714751 47.95523 
L 400.344997 47.802041 
L 402.975243 47.656018 
L 405.605489 47.518315 
L 408.235735 47.38976 
L 410.865981 47.270864 
L 413.496227 47.16184 
L 416.126473 47.06263 
L 418.756719 46.972937 
L 421.386966 46.892265 
L 424.017212 46.819964 
L 426.647458 46.755267 
L 429.277704 46.697337 
L 431.90795 46.645301 
L 434.538196 46.59829 
L 437.168442 46.555466 
L 439.798688 46.516049 
L 442.428934 46.479332 
L 445.059181 46.444695 
L 447.689427 46.411614 
L 450.319673 46.379659 
L 452.949919 46.348493 
L 455.580165 46.317865 
L 458.210411 46.287601 
L 460.840657 46.257591 
L 463.470903 46.22778 
L 466.101149 46.198155 
L 468.731395 46.168733 
L 471.361642 46.139549 
L 473.991888 46.110653 
L 476.622134 46.082097 
L 479.25238 46.053934 
L 481.882626 46.026214 
L 484.512872 45.998979 
L 487.143118 45.972268 
L 487.143118 45.091276 
L 487.143118 45.091276 
L 484.512872 45.064565 
L 481.882626 45.03733 
L 479.25238 45.00961 
L 476.622134 44.981447 
L 473.991888 44.952892 
L 471.361642 44.923995 
L 468.731395 44.894812 
L 466.101149 44.865389 
L 463.470903 44.835764 
L 460.840657 44.805953 
L 458.210411 44.775943 
L 455.580165 44.745679 
L 452.949919 44.715051 
L 450.319673 44.683885 
L 447.689427 44.65193 
L 445.059181 44.618849 
L 442.428934 44.584213 
L 439.798688 44.547495 
L 437.168442 44.508078 
L 434.538196 44.465254 
L 431.90795 44.418243 
L 429.277704 44.366207 
L 426.647458 44.308277 
L 424.017212 44.24358 
L 421.386966 44.171279 
L 418.756719 44.090607 
L 416.126473 44.000914 
L 413.496227 43.901704 
L 410.865981 43.79268 
L 408.235735 43.673784 
L 405.605489 43.545229 
L 402.975243 43.407526 
L 400.344997 43.261504 
L 397.714751 43.108314 
L 395.084504 42.949432 
L 392.454258 42.786636 
L 389.824012 42.621978 
L 387.193766 42.457746 
L 384.56352 42.296407 
L 381.933274 42.140548 
L 379.303028 41.9928 
L 376.672782 41.855769 
L 374.042536 41.731947 
L 371.412289 41.623646 
L 368.782043 41.532913 
L 366.151797 41.461469 
L 363.521551 41.410647 
L 360.891305 41.381347 
L 358.261059 41.374003 
L 355.630813 41.388567 
L 353.000567 41.424502 
L 350.370321 41.480799 
L 347.740074 41.556 
L 345.109828 41.64824 
L 342.479582 41.755294 
L 339.849336 41.874636 
L 337.21909 42.003497 
L 334.588844 42.138934 
L 331.958598 42.277893 
L 329.328352 42.417264 
L 326.698106 42.553942 
L 324.067859 42.684874 
L 321.437613 42.807098 
L 318.807367 42.917777 
L 316.177121 43.014225 
L 313.546875 43.093926 
L 310.916629 43.154545 
L 308.286383 43.193941 
L 305.656137 43.210174 
L 303.025891 43.201518 
L 300.395644 43.166467 
L 297.765398 43.103759 
L 295.135152 43.012396 
L 292.504906 42.891669 
L 289.87466 42.7412 
L 287.244414 42.560977 
L 284.614168 42.351401 
L 281.983922 42.113332 
L 279.353676 41.848131 
L 276.723429 41.557702 
L 274.093183 41.244523 
L 271.462937 40.911664 
L 268.832691 40.56279 
L 266.202445 40.202146 
L 263.572199 39.834517 
L 260.941953 39.46517 
L 258.311707 39.099769 
L 255.681461 38.74427 
L 253.051214 38.404791 
L 250.420968 38.087474 
L 247.790722 37.798324 
L 245.160476 37.54305 
L 242.53023 37.326899 
L 239.899984 37.154507 
L 237.269738 37.029747 
L 234.639492 36.955615 
L 232.009246 36.934125 
L 229.379 36.966247 
L 226.748753 37.051872 
z
" style="fill:#ff0000;fill-opacity:0.75;"/>
   </g>
   <g id="LineCollection_1">
    <path clip-path="url(#p3ad97658c4)" d="M 292.774072 324.955301 
L 292.774072 316.357654 
" style="fill:none;stroke:#000000;stroke-width:1.5;"/>
    <path clip-path="url(#p3ad97658c4)" d="M 296.665829 290.564713 
L 296.665829 281.967066 
" style="fill:none;stroke:#000000;stroke-width:1.5;"/>
    <path clip-path="url(#p3ad97658c4)" d="M 300.020579 256.174125 
L 300.020579 247.576478 
" style="fill:none;stroke:#000000;stroke-width:1.5;"/>
    <path clip-path="url(#p3ad97658c4)" d="M 305.364309 221.783537 
L 305.364309 213.18589 
" style="fill:none;stroke:#000000;stroke-width:1.5;"/>
    <path clip-path="url(#p3ad97658c4)" d="M 319.979242 187.392949 
L 319.979242 178.795301 
" style="fill:none;stroke:#000000;stroke-width:1.5;"/>
    <path clip-path="url(#p3ad97658c4)" d="M 302.517243 153.00236 
L 302.517243 144.404713 
" style="fill:none;stroke:#000000;stroke-width:1.5;"/>
    <path clip-path="url(#p3ad97658c4)" d="M 318.523244 118.611772 
L 318.523244 110.014125 
" style="fill:none;stroke:#000000;stroke-width:1.5;"/>
    <path clip-path="url(#p3ad97658c4)" d="M 321.449938 84.221184 
L 321.449938 75.623537 
" style="fill:none;stroke:#000000;stroke-width:1.5;"/>
    <path clip-path="url(#p3ad97658c4)" d="M 285.801467 49.830596 
L 285.801467 41.232949 
" style="fill:none;stroke:#000000;stroke-width:1.5;"/>
   </g>
   <g id="patch_3">
    <path d="M 226.746875 343.870125 
L 226.746875 22.318125 
" style="fill:none;stroke:#000000;stroke-linecap:square;stroke-linejoin:miter;stroke-width:0.8;"/>
   </g>
   <g id="patch_4">
    <path d="M 617.346875 343.870125 
L 617.346875 22.318125 
" style="fill:none;stroke:#000000;stroke-linecap:square;stroke-linejoin:miter;stroke-width:0.8;"/>
   </g>
   <g id="patch_5">
    <path d="M 226.746875 343.870125 
L 617.346875 343.870125 
" style="fill:none;stroke:#000000;stroke-linecap:square;stroke-linejoin:miter;stroke-width:0.8;"/>
   </g>
   <g id="patch_6">
    <path d="M 226.746875 22.318125 
L 617.346875 22.318125 
" style="fill:none;stroke:#000000;stroke-linecap:square;stroke-linejoin:miter;stroke-width:0.8;"/>
   </g>
   <g id="text_19">
    <!-- AOE1 for 1.0 -->
    <g transform="translate(384.005938 16.318125)scale(0.12 -0.12)">
     <use xlink:href="#DejaVuSans-41"/>
     <use x="68.392578" xlink:href="#DejaVuSans-4f"/>
     <use x="147.103516" xlink:href="#DejaVuSans-45"/>
     <use x="210.287109" xlink:href="#DejaVuSans-31"/>
     <use x="273.910156" xlink:href="#DejaVuSans-20"/>
     <use x="305.697266" xlink:href="#DejaVuSans-66"/>
     <use x="340.902344" xlink:href="#DejaVuSans-6f"/>
     <use x="402.083984" xlink:href="#DejaVuSans-72"/>
     <use x="443.197266" xlink:href="#DejaVuSans-20"/>
     <use x="474.984375" xlink:href="#DejaVuSans-31"/>
     <use x="538.607422" xlink:href="#DejaVuSans-2e"/>
     <use x="570.394531" xlink:href="#DejaVuSans-30"/>
    </g>
   </g>
  </g>
 </g>
 <defs>
  <clipPath id="p3ad97658c4">
   <rect height="321.552" width="390.6" x="226.746875" y="22.318125"/>
  </clipPath>
 </defs>
</svg>
