<?xml version="1.0" encoding="utf-8" standalone="no"?>
<!DOCTYPE svg PUBLIC "-//W3C//DTD SVG 1.1//EN"
  "http://www.w3.org/Graphics/SVG/1.1/DTD/svg11.dtd">
<!-- Created with matplotlib (http://matplotlib.org/) -->
<svg height="381.426375pt" version="1.1" viewBox="0 0 632.498437 381.426375" width="632.498437pt" xmlns="http://www.w3.org/2000/svg" xmlns:xlink="http://www.w3.org/1999/xlink">
 <defs>
  <style type="text/css">
*{stroke-linecap:butt;stroke-linejoin:round;}
  </style>
 </defs>
 <g id="figure_1">
  <g id="patch_1">
   <path d="M -0 381.426375 
L 632.498438 381.426375 
L 632.498438 0 
L -0 0 
z
" style="fill:#ffffff;"/>
  </g>
  <g id="axes_1">
   <g id="patch_2">
    <path d="M 226.746875 343.870125 
L 617.346875 343.870125 
L 617.346875 22.318125 
L 226.746875 22.318125 
z
" style="fill:#ffffff;"/>
   </g>
   <g id="matplotlib.axis_1">
    <g id="xtick_1">
     <g id="line2d_1">
      <path clip-path="url(#p1539bad298)" d="M 226.746875 343.870125 
L 226.746875 22.318125 
" style="fill:none;stroke:#b0b0b0;stroke-linecap:square;stroke-width:0.8;"/>
     </g>
     <g id="line2d_2">
      <defs>
       <path d="M 0 0 
L 0 3.5 
" id="me7c8714dbb" style="stroke:#000000;stroke-width:0.8;"/>
      </defs>
      <g>
       <use style="stroke:#000000;stroke-width:0.8;" x="226.746875" xlink:href="#me7c8714dbb" y="343.870125"/>
      </g>
     </g>
     <g id="text_1">
      <!-- 0.0 -->
      <defs>
       <path d="M 31.78125 66.40625 
Q 24.171875 66.40625 20.328125 58.90625 
Q 16.5 51.421875 16.5 36.375 
Q 16.5 21.390625 20.328125 13.890625 
Q 24.171875 6.390625 31.78125 6.390625 
Q 39.453125 6.390625 43.28125 13.890625 
Q 47.125 21.390625 47.125 36.375 
Q 47.125 51.421875 43.28125 58.90625 
Q 39.453125 66.40625 31.78125 66.40625 
z
M 31.78125 74.21875 
Q 44.046875 74.21875 50.515625 64.515625 
Q 56.984375 54.828125 56.984375 36.375 
Q 56.984375 17.96875 50.515625 8.265625 
Q 44.046875 -1.421875 31.78125 -1.421875 
Q 19.53125 -1.421875 13.0625 8.265625 
Q 6.59375 17.96875 6.59375 36.375 
Q 6.59375 54.828125 13.0625 64.515625 
Q 19.53125 74.21875 31.78125 74.21875 
z
" id="DejaVuSans-30"/>
       <path d="M 10.6875 12.40625 
L 21 12.40625 
L 21 0 
L 10.6875 0 
z
" id="DejaVuSans-2e"/>
      </defs>
      <g transform="translate(218.795312 358.468563)scale(0.1 -0.1)">
       <use xlink:href="#DejaVuSans-30"/>
       <use x="63.623047" xlink:href="#DejaVuSans-2e"/>
       <use x="95.410156" xlink:href="#DejaVuSans-30"/>
      </g>
     </g>
    </g>
    <g id="xtick_2">
     <g id="line2d_3">
      <path clip-path="url(#p1539bad298)" d="M 304.866875 343.870125 
L 304.866875 22.318125 
" style="fill:none;stroke:#b0b0b0;stroke-linecap:square;stroke-width:0.8;"/>
     </g>
     <g id="line2d_4">
      <g>
       <use style="stroke:#000000;stroke-width:0.8;" x="304.866875" xlink:href="#me7c8714dbb" y="343.870125"/>
      </g>
     </g>
     <g id="text_2">
      <!-- 0.2 -->
      <defs>
       <path d="M 19.1875 8.296875 
L 53.609375 8.296875 
L 53.609375 0 
L 7.328125 0 
L 7.328125 8.296875 
Q 12.9375 14.109375 22.625 23.890625 
Q 32.328125 33.6875 34.8125 36.53125 
Q 39.546875 41.84375 41.421875 45.53125 
Q 43.3125 49.21875 43.3125 52.78125 
Q 43.3125 58.59375 39.234375 62.25 
Q 35.15625 65.921875 28.609375 65.921875 
Q 23.96875 65.921875 18.8125 64.3125 
Q 13.671875 62.703125 7.8125 59.421875 
L 7.8125 69.390625 
Q 13.765625 71.78125 18.9375 73 
Q 24.125 74.21875 28.421875 74.21875 
Q 39.75 74.21875 46.484375 68.546875 
Q 53.21875 62.890625 53.21875 53.421875 
Q 53.21875 48.921875 51.53125 44.890625 
Q 49.859375 40.875 45.40625 35.40625 
Q 44.1875 33.984375 37.640625 27.21875 
Q 31.109375 20.453125 19.1875 8.296875 
z
" id="DejaVuSans-32"/>
      </defs>
      <g transform="translate(296.915312 358.468563)scale(0.1 -0.1)">
       <use xlink:href="#DejaVuSans-30"/>
       <use x="63.623047" xlink:href="#DejaVuSans-2e"/>
       <use x="95.410156" xlink:href="#DejaVuSans-32"/>
      </g>
     </g>
    </g>
    <g id="xtick_3">
     <g id="line2d_5">
      <path clip-path="url(#p1539bad298)" d="M 382.986875 343.870125 
L 382.986875 22.318125 
" style="fill:none;stroke:#b0b0b0;stroke-linecap:square;stroke-width:0.8;"/>
     </g>
     <g id="line2d_6">
      <g>
       <use style="stroke:#000000;stroke-width:0.8;" x="382.986875" xlink:href="#me7c8714dbb" y="343.870125"/>
      </g>
     </g>
     <g id="text_3">
      <!-- 0.4 -->
      <defs>
       <path d="M 37.796875 64.3125 
L 12.890625 25.390625 
L 37.796875 25.390625 
z
M 35.203125 72.90625 
L 47.609375 72.90625 
L 47.609375 25.390625 
L 58.015625 25.390625 
L 58.015625 17.1875 
L 47.609375 17.1875 
L 47.609375 0 
L 37.796875 0 
L 37.796875 17.1875 
L 4.890625 17.1875 
L 4.890625 26.703125 
z
" id="DejaVuSans-34"/>
      </defs>
      <g transform="translate(375.035313 358.468563)scale(0.1 -0.1)">
       <use xlink:href="#DejaVuSans-30"/>
       <use x="63.623047" xlink:href="#DejaVuSans-2e"/>
       <use x="95.410156" xlink:href="#DejaVuSans-34"/>
      </g>
     </g>
    </g>
    <g id="xtick_4">
     <g id="line2d_7">
      <path clip-path="url(#p1539bad298)" d="M 461.106875 343.870125 
L 461.106875 22.318125 
" style="fill:none;stroke:#b0b0b0;stroke-linecap:square;stroke-width:0.8;"/>
     </g>
     <g id="line2d_8">
      <g>
       <use style="stroke:#000000;stroke-width:0.8;" x="461.106875" xlink:href="#me7c8714dbb" y="343.870125"/>
      </g>
     </g>
     <g id="text_4">
      <!-- 0.6 -->
      <defs>
       <path d="M 33.015625 40.375 
Q 26.375 40.375 22.484375 35.828125 
Q 18.609375 31.296875 18.609375 23.390625 
Q 18.609375 15.53125 22.484375 10.953125 
Q 26.375 6.390625 33.015625 6.390625 
Q 39.65625 6.390625 43.53125 10.953125 
Q 47.40625 15.53125 47.40625 23.390625 
Q 47.40625 31.296875 43.53125 35.828125 
Q 39.65625 40.375 33.015625 40.375 
z
M 52.59375 71.296875 
L 52.59375 62.3125 
Q 48.875 64.0625 45.09375 64.984375 
Q 41.3125 65.921875 37.59375 65.921875 
Q 27.828125 65.921875 22.671875 59.328125 
Q 17.53125 52.734375 16.796875 39.40625 
Q 19.671875 43.65625 24.015625 45.921875 
Q 28.375 48.1875 33.59375 48.1875 
Q 44.578125 48.1875 50.953125 41.515625 
Q 57.328125 34.859375 57.328125 23.390625 
Q 57.328125 12.15625 50.6875 5.359375 
Q 44.046875 -1.421875 33.015625 -1.421875 
Q 20.359375 -1.421875 13.671875 8.265625 
Q 6.984375 17.96875 6.984375 36.375 
Q 6.984375 53.65625 15.1875 63.9375 
Q 23.390625 74.21875 37.203125 74.21875 
Q 40.921875 74.21875 44.703125 73.484375 
Q 48.484375 72.75 52.59375 71.296875 
z
" id="DejaVuSans-36"/>
      </defs>
      <g transform="translate(453.155313 358.468563)scale(0.1 -0.1)">
       <use xlink:href="#DejaVuSans-30"/>
       <use x="63.623047" xlink:href="#DejaVuSans-2e"/>
       <use x="95.410156" xlink:href="#DejaVuSans-36"/>
      </g>
     </g>
    </g>
    <g id="xtick_5">
     <g id="line2d_9">
      <path clip-path="url(#p1539bad298)" d="M 539.226875 343.870125 
L 539.226875 22.318125 
" style="fill:none;stroke:#b0b0b0;stroke-linecap:square;stroke-width:0.8;"/>
     </g>
     <g id="line2d_10">
      <g>
       <use style="stroke:#000000;stroke-width:0.8;" x="539.226875" xlink:href="#me7c8714dbb" y="343.870125"/>
      </g>
     </g>
     <g id="text_5">
      <!-- 0.8 -->
      <defs>
       <path d="M 31.78125 34.625 
Q 24.75 34.625 20.71875 30.859375 
Q 16.703125 27.09375 16.703125 20.515625 
Q 16.703125 13.921875 20.71875 10.15625 
Q 24.75 6.390625 31.78125 6.390625 
Q 38.8125 6.390625 42.859375 10.171875 
Q 46.921875 13.96875 46.921875 20.515625 
Q 46.921875 27.09375 42.890625 30.859375 
Q 38.875 34.625 31.78125 34.625 
z
M 21.921875 38.8125 
Q 15.578125 40.375 12.03125 44.71875 
Q 8.5 49.078125 8.5 55.328125 
Q 8.5 64.0625 14.71875 69.140625 
Q 20.953125 74.21875 31.78125 74.21875 
Q 42.671875 74.21875 48.875 69.140625 
Q 55.078125 64.0625 55.078125 55.328125 
Q 55.078125 49.078125 51.53125 44.71875 
Q 48 40.375 41.703125 38.8125 
Q 48.828125 37.15625 52.796875 32.3125 
Q 56.78125 27.484375 56.78125 20.515625 
Q 56.78125 9.90625 50.3125 4.234375 
Q 43.84375 -1.421875 31.78125 -1.421875 
Q 19.734375 -1.421875 13.25 4.234375 
Q 6.78125 9.90625 6.78125 20.515625 
Q 6.78125 27.484375 10.78125 32.3125 
Q 14.796875 37.15625 21.921875 38.8125 
z
M 18.3125 54.390625 
Q 18.3125 48.734375 21.84375 45.5625 
Q 25.390625 42.390625 31.78125 42.390625 
Q 38.140625 42.390625 41.71875 45.5625 
Q 45.3125 48.734375 45.3125 54.390625 
Q 45.3125 60.0625 41.71875 63.234375 
Q 38.140625 66.40625 31.78125 66.40625 
Q 25.390625 66.40625 21.84375 63.234375 
Q 18.3125 60.0625 18.3125 54.390625 
z
" id="DejaVuSans-38"/>
      </defs>
      <g transform="translate(531.275313 358.468563)scale(0.1 -0.1)">
       <use xlink:href="#DejaVuSans-30"/>
       <use x="63.623047" xlink:href="#DejaVuSans-2e"/>
       <use x="95.410156" xlink:href="#DejaVuSans-38"/>
      </g>
     </g>
    </g>
    <g id="xtick_6">
     <g id="line2d_11">
      <path clip-path="url(#p1539bad298)" d="M 617.346875 343.870125 
L 617.346875 22.318125 
" style="fill:none;stroke:#b0b0b0;stroke-linecap:square;stroke-width:0.8;"/>
     </g>
     <g id="line2d_12">
      <g>
       <use style="stroke:#000000;stroke-width:0.8;" x="617.346875" xlink:href="#me7c8714dbb" y="343.870125"/>
      </g>
     </g>
     <g id="text_6">
      <!-- 1.0 -->
      <defs>
       <path d="M 12.40625 8.296875 
L 28.515625 8.296875 
L 28.515625 63.921875 
L 10.984375 60.40625 
L 10.984375 69.390625 
L 28.421875 72.90625 
L 38.28125 72.90625 
L 38.28125 8.296875 
L 54.390625 8.296875 
L 54.390625 0 
L 12.40625 0 
z
" id="DejaVuSans-31"/>
      </defs>
      <g transform="translate(609.395313 358.468563)scale(0.1 -0.1)">
       <use xlink:href="#DejaVuSans-31"/>
       <use x="63.623047" xlink:href="#DejaVuSans-2e"/>
       <use x="95.410156" xlink:href="#DejaVuSans-30"/>
      </g>
     </g>
    </g>
    <g id="text_7">
     <!-- AOE2 (TO) -->
     <defs>
      <path d="M 34.1875 63.1875 
L 20.796875 26.90625 
L 47.609375 26.90625 
z
M 28.609375 72.90625 
L 39.796875 72.90625 
L 67.578125 0 
L 57.328125 0 
L 50.6875 18.703125 
L 17.828125 18.703125 
L 11.1875 0 
L 0.78125 0 
z
" id="DejaVuSans-41"/>
      <path d="M 39.40625 66.21875 
Q 28.65625 66.21875 22.328125 58.203125 
Q 16.015625 50.203125 16.015625 36.375 
Q 16.015625 22.609375 22.328125 14.59375 
Q 28.65625 6.59375 39.40625 6.59375 
Q 50.140625 6.59375 56.421875 14.59375 
Q 62.703125 22.609375 62.703125 36.375 
Q 62.703125 50.203125 56.421875 58.203125 
Q 50.140625 66.21875 39.40625 66.21875 
z
M 39.40625 74.21875 
Q 54.734375 74.21875 63.90625 63.9375 
Q 73.09375 53.65625 73.09375 36.375 
Q 73.09375 19.140625 63.90625 8.859375 
Q 54.734375 -1.421875 39.40625 -1.421875 
Q 24.03125 -1.421875 14.8125 8.828125 
Q 5.609375 19.09375 5.609375 36.375 
Q 5.609375 53.65625 14.8125 63.9375 
Q 24.03125 74.21875 39.40625 74.21875 
z
" id="DejaVuSans-4f"/>
      <path d="M 9.8125 72.90625 
L 55.90625 72.90625 
L 55.90625 64.59375 
L 19.671875 64.59375 
L 19.671875 43.015625 
L 54.390625 43.015625 
L 54.390625 34.71875 
L 19.671875 34.71875 
L 19.671875 8.296875 
L 56.78125 8.296875 
L 56.78125 0 
L 9.8125 0 
z
" id="DejaVuSans-45"/>
      <path id="DejaVuSans-20"/>
      <path d="M 31 75.875 
Q 24.46875 64.65625 21.28125 53.65625 
Q 18.109375 42.671875 18.109375 31.390625 
Q 18.109375 20.125 21.3125 9.0625 
Q 24.515625 -2 31 -13.1875 
L 23.1875 -13.1875 
Q 15.875 -1.703125 12.234375 9.375 
Q 8.59375 20.453125 8.59375 31.390625 
Q 8.59375 42.28125 12.203125 53.3125 
Q 15.828125 64.359375 23.1875 75.875 
z
" id="DejaVuSans-28"/>
      <path d="M -0.296875 72.90625 
L 61.375 72.90625 
L 61.375 64.59375 
L 35.5 64.59375 
L 35.5 0 
L 25.59375 0 
L 25.59375 64.59375 
L -0.296875 64.59375 
z
" id="DejaVuSans-54"/>
      <path d="M 8.015625 75.875 
L 15.828125 75.875 
Q 23.140625 64.359375 26.78125 53.3125 
Q 30.421875 42.28125 30.421875 31.390625 
Q 30.421875 20.453125 26.78125 9.375 
Q 23.140625 -1.703125 15.828125 -13.1875 
L 8.015625 -13.1875 
Q 14.5 -2 17.703125 9.0625 
Q 20.90625 20.125 20.90625 31.390625 
Q 20.90625 42.671875 17.703125 53.65625 
Q 14.5 64.65625 8.015625 75.875 
z
" id="DejaVuSans-29"/>
     </defs>
     <g transform="translate(395.870313 372.146687)scale(0.1 -0.1)">
      <use xlink:href="#DejaVuSans-41"/>
      <use x="68.392578" xlink:href="#DejaVuSans-4f"/>
      <use x="147.103516" xlink:href="#DejaVuSans-45"/>
      <use x="210.287109" xlink:href="#DejaVuSans-32"/>
      <use x="273.910156" xlink:href="#DejaVuSans-20"/>
      <use x="305.697266" xlink:href="#DejaVuSans-28"/>
      <use x="344.710938" xlink:href="#DejaVuSans-54"/>
      <use x="405.794922" xlink:href="#DejaVuSans-4f"/>
      <use x="484.505859" xlink:href="#DejaVuSans-29"/>
     </g>
    </g>
   </g>
   <g id="matplotlib.axis_2">
    <g id="ytick_1">
     <g id="line2d_13">
      <path clip-path="url(#p1539bad298)" d="M 226.746875 320.656478 
L 617.346875 320.656478 
" style="fill:none;stroke:#b0b0b0;stroke-linecap:square;stroke-width:0.8;"/>
     </g>
     <g id="line2d_14">
      <defs>
       <path d="M 0 0 
L -3.5 0 
" id="mb68ea54813" style="stroke:#000000;stroke-width:0.8;"/>
      </defs>
      <g>
       <use style="stroke:#000000;stroke-width:0.8;" x="226.746875" xlink:href="#mb68ea54813" y="320.656478"/>
      </g>
     </g>
     <g id="text_8">
      <!-- schreiber2018/ismir2018 -->
      <defs>
       <path d="M 44.28125 53.078125 
L 44.28125 44.578125 
Q 40.484375 46.53125 36.375 47.5 
Q 32.28125 48.484375 27.875 48.484375 
Q 21.1875 48.484375 17.84375 46.4375 
Q 14.5 44.390625 14.5 40.28125 
Q 14.5 37.15625 16.890625 35.375 
Q 19.28125 33.59375 26.515625 31.984375 
L 29.59375 31.296875 
Q 39.15625 29.25 43.1875 25.515625 
Q 47.21875 21.78125 47.21875 15.09375 
Q 47.21875 7.46875 41.1875 3.015625 
Q 35.15625 -1.421875 24.609375 -1.421875 
Q 20.21875 -1.421875 15.453125 -0.5625 
Q 10.6875 0.296875 5.421875 2 
L 5.421875 11.28125 
Q 10.40625 8.6875 15.234375 7.390625 
Q 20.0625 6.109375 24.8125 6.109375 
Q 31.15625 6.109375 34.5625 8.28125 
Q 37.984375 10.453125 37.984375 14.40625 
Q 37.984375 18.0625 35.515625 20.015625 
Q 33.0625 21.96875 24.703125 23.78125 
L 21.578125 24.515625 
Q 13.234375 26.265625 9.515625 29.90625 
Q 5.8125 33.546875 5.8125 39.890625 
Q 5.8125 47.609375 11.28125 51.796875 
Q 16.75 56 26.8125 56 
Q 31.78125 56 36.171875 55.265625 
Q 40.578125 54.546875 44.28125 53.078125 
z
" id="DejaVuSans-73"/>
       <path d="M 48.78125 52.59375 
L 48.78125 44.1875 
Q 44.96875 46.296875 41.140625 47.34375 
Q 37.3125 48.390625 33.40625 48.390625 
Q 24.65625 48.390625 19.8125 42.84375 
Q 14.984375 37.3125 14.984375 27.296875 
Q 14.984375 17.28125 19.8125 11.734375 
Q 24.65625 6.203125 33.40625 6.203125 
Q 37.3125 6.203125 41.140625 7.25 
Q 44.96875 8.296875 48.78125 10.40625 
L 48.78125 2.09375 
Q 45.015625 0.34375 40.984375 -0.53125 
Q 36.96875 -1.421875 32.421875 -1.421875 
Q 20.0625 -1.421875 12.78125 6.34375 
Q 5.515625 14.109375 5.515625 27.296875 
Q 5.515625 40.671875 12.859375 48.328125 
Q 20.21875 56 33.015625 56 
Q 37.15625 56 41.109375 55.140625 
Q 45.0625 54.296875 48.78125 52.59375 
z
" id="DejaVuSans-63"/>
       <path d="M 54.890625 33.015625 
L 54.890625 0 
L 45.90625 0 
L 45.90625 32.71875 
Q 45.90625 40.484375 42.875 44.328125 
Q 39.84375 48.1875 33.796875 48.1875 
Q 26.515625 48.1875 22.3125 43.546875 
Q 18.109375 38.921875 18.109375 30.90625 
L 18.109375 0 
L 9.078125 0 
L 9.078125 75.984375 
L 18.109375 75.984375 
L 18.109375 46.1875 
Q 21.34375 51.125 25.703125 53.5625 
Q 30.078125 56 35.796875 56 
Q 45.21875 56 50.046875 50.171875 
Q 54.890625 44.34375 54.890625 33.015625 
z
" id="DejaVuSans-68"/>
       <path d="M 41.109375 46.296875 
Q 39.59375 47.171875 37.8125 47.578125 
Q 36.03125 48 33.890625 48 
Q 26.265625 48 22.1875 43.046875 
Q 18.109375 38.09375 18.109375 28.8125 
L 18.109375 0 
L 9.078125 0 
L 9.078125 54.6875 
L 18.109375 54.6875 
L 18.109375 46.1875 
Q 20.953125 51.171875 25.484375 53.578125 
Q 30.03125 56 36.53125 56 
Q 37.453125 56 38.578125 55.875 
Q 39.703125 55.765625 41.0625 55.515625 
z
" id="DejaVuSans-72"/>
       <path d="M 56.203125 29.59375 
L 56.203125 25.203125 
L 14.890625 25.203125 
Q 15.484375 15.921875 20.484375 11.0625 
Q 25.484375 6.203125 34.421875 6.203125 
Q 39.59375 6.203125 44.453125 7.46875 
Q 49.3125 8.734375 54.109375 11.28125 
L 54.109375 2.78125 
Q 49.265625 0.734375 44.1875 -0.34375 
Q 39.109375 -1.421875 33.890625 -1.421875 
Q 20.796875 -1.421875 13.15625 6.1875 
Q 5.515625 13.8125 5.515625 26.8125 
Q 5.515625 40.234375 12.765625 48.109375 
Q 20.015625 56 32.328125 56 
Q 43.359375 56 49.78125 48.890625 
Q 56.203125 41.796875 56.203125 29.59375 
z
M 47.21875 32.234375 
Q 47.125 39.59375 43.09375 43.984375 
Q 39.0625 48.390625 32.421875 48.390625 
Q 24.90625 48.390625 20.390625 44.140625 
Q 15.875 39.890625 15.1875 32.171875 
z
" id="DejaVuSans-65"/>
       <path d="M 9.421875 54.6875 
L 18.40625 54.6875 
L 18.40625 0 
L 9.421875 0 
z
M 9.421875 75.984375 
L 18.40625 75.984375 
L 18.40625 64.59375 
L 9.421875 64.59375 
z
" id="DejaVuSans-69"/>
       <path d="M 48.6875 27.296875 
Q 48.6875 37.203125 44.609375 42.84375 
Q 40.53125 48.484375 33.40625 48.484375 
Q 26.265625 48.484375 22.1875 42.84375 
Q 18.109375 37.203125 18.109375 27.296875 
Q 18.109375 17.390625 22.1875 11.75 
Q 26.265625 6.109375 33.40625 6.109375 
Q 40.53125 6.109375 44.609375 11.75 
Q 48.6875 17.390625 48.6875 27.296875 
z
M 18.109375 46.390625 
Q 20.953125 51.265625 25.265625 53.625 
Q 29.59375 56 35.59375 56 
Q 45.5625 56 51.78125 48.09375 
Q 58.015625 40.1875 58.015625 27.296875 
Q 58.015625 14.40625 51.78125 6.484375 
Q 45.5625 -1.421875 35.59375 -1.421875 
Q 29.59375 -1.421875 25.265625 0.953125 
Q 20.953125 3.328125 18.109375 8.203125 
L 18.109375 0 
L 9.078125 0 
L 9.078125 75.984375 
L 18.109375 75.984375 
z
" id="DejaVuSans-62"/>
       <path d="M 25.390625 72.90625 
L 33.6875 72.90625 
L 8.296875 -9.28125 
L 0 -9.28125 
z
" id="DejaVuSans-2f"/>
       <path d="M 52 44.1875 
Q 55.375 50.25 60.0625 53.125 
Q 64.75 56 71.09375 56 
Q 79.640625 56 84.28125 50.015625 
Q 88.921875 44.046875 88.921875 33.015625 
L 88.921875 0 
L 79.890625 0 
L 79.890625 32.71875 
Q 79.890625 40.578125 77.09375 44.375 
Q 74.3125 48.1875 68.609375 48.1875 
Q 61.625 48.1875 57.5625 43.546875 
Q 53.515625 38.921875 53.515625 30.90625 
L 53.515625 0 
L 44.484375 0 
L 44.484375 32.71875 
Q 44.484375 40.625 41.703125 44.40625 
Q 38.921875 48.1875 33.109375 48.1875 
Q 26.21875 48.1875 22.15625 43.53125 
Q 18.109375 38.875 18.109375 30.90625 
L 18.109375 0 
L 9.078125 0 
L 9.078125 54.6875 
L 18.109375 54.6875 
L 18.109375 46.1875 
Q 21.1875 51.21875 25.484375 53.609375 
Q 29.78125 56 35.6875 56 
Q 41.65625 56 45.828125 52.96875 
Q 50 49.953125 52 44.1875 
z
" id="DejaVuSans-6d"/>
      </defs>
      <g transform="translate(94.164062 324.455697)scale(0.1 -0.1)">
       <use xlink:href="#DejaVuSans-73"/>
       <use x="52.099609" xlink:href="#DejaVuSans-63"/>
       <use x="107.080078" xlink:href="#DejaVuSans-68"/>
       <use x="170.458984" xlink:href="#DejaVuSans-72"/>
       <use x="211.541016" xlink:href="#DejaVuSans-65"/>
       <use x="273.064453" xlink:href="#DejaVuSans-69"/>
       <use x="300.847656" xlink:href="#DejaVuSans-62"/>
       <use x="364.324219" xlink:href="#DejaVuSans-65"/>
       <use x="425.847656" xlink:href="#DejaVuSans-72"/>
       <use x="466.960938" xlink:href="#DejaVuSans-32"/>
       <use x="530.583984" xlink:href="#DejaVuSans-30"/>
       <use x="594.207031" xlink:href="#DejaVuSans-31"/>
       <use x="657.830078" xlink:href="#DejaVuSans-38"/>
       <use x="721.453125" xlink:href="#DejaVuSans-2f"/>
       <use x="755.144531" xlink:href="#DejaVuSans-69"/>
       <use x="782.927734" xlink:href="#DejaVuSans-73"/>
       <use x="835.027344" xlink:href="#DejaVuSans-6d"/>
       <use x="932.439453" xlink:href="#DejaVuSans-69"/>
       <use x="960.222656" xlink:href="#DejaVuSans-72"/>
       <use x="1001.335938" xlink:href="#DejaVuSans-32"/>
       <use x="1064.958984" xlink:href="#DejaVuSans-30"/>
       <use x="1128.582031" xlink:href="#DejaVuSans-31"/>
       <use x="1192.205078" xlink:href="#DejaVuSans-38"/>
      </g>
     </g>
    </g>
    <g id="ytick_2">
     <g id="line2d_15">
      <path clip-path="url(#p1539bad298)" d="M 226.746875 286.26589 
L 617.346875 286.26589 
" style="fill:none;stroke:#b0b0b0;stroke-linecap:square;stroke-width:0.8;"/>
     </g>
     <g id="line2d_16">
      <g>
       <use style="stroke:#000000;stroke-width:0.8;" x="226.746875" xlink:href="#mb68ea54813" y="286.26589"/>
      </g>
     </g>
     <g id="text_9">
      <!-- schreiber2018/fcn -->
      <defs>
       <path d="M 37.109375 75.984375 
L 37.109375 68.5 
L 28.515625 68.5 
Q 23.6875 68.5 21.796875 66.546875 
Q 19.921875 64.59375 19.921875 59.515625 
L 19.921875 54.6875 
L 34.71875 54.6875 
L 34.71875 47.703125 
L 19.921875 47.703125 
L 19.921875 0 
L 10.890625 0 
L 10.890625 47.703125 
L 2.296875 47.703125 
L 2.296875 54.6875 
L 10.890625 54.6875 
L 10.890625 58.5 
Q 10.890625 67.625 15.140625 71.796875 
Q 19.390625 75.984375 28.609375 75.984375 
z
" id="DejaVuSans-66"/>
       <path d="M 54.890625 33.015625 
L 54.890625 0 
L 45.90625 0 
L 45.90625 32.71875 
Q 45.90625 40.484375 42.875 44.328125 
Q 39.84375 48.1875 33.796875 48.1875 
Q 26.515625 48.1875 22.3125 43.546875 
Q 18.109375 38.921875 18.109375 30.90625 
L 18.109375 0 
L 9.078125 0 
L 9.078125 54.6875 
L 18.109375 54.6875 
L 18.109375 46.1875 
Q 21.34375 51.125 25.703125 53.5625 
Q 30.078125 56 35.796875 56 
Q 45.21875 56 50.046875 50.171875 
Q 54.890625 44.34375 54.890625 33.015625 
z
" id="DejaVuSans-6e"/>
      </defs>
      <g transform="translate(128.875 290.065108)scale(0.1 -0.1)">
       <use xlink:href="#DejaVuSans-73"/>
       <use x="52.099609" xlink:href="#DejaVuSans-63"/>
       <use x="107.080078" xlink:href="#DejaVuSans-68"/>
       <use x="170.458984" xlink:href="#DejaVuSans-72"/>
       <use x="211.541016" xlink:href="#DejaVuSans-65"/>
       <use x="273.064453" xlink:href="#DejaVuSans-69"/>
       <use x="300.847656" xlink:href="#DejaVuSans-62"/>
       <use x="364.324219" xlink:href="#DejaVuSans-65"/>
       <use x="425.847656" xlink:href="#DejaVuSans-72"/>
       <use x="466.960938" xlink:href="#DejaVuSans-32"/>
       <use x="530.583984" xlink:href="#DejaVuSans-30"/>
       <use x="594.207031" xlink:href="#DejaVuSans-31"/>
       <use x="657.830078" xlink:href="#DejaVuSans-38"/>
       <use x="721.453125" xlink:href="#DejaVuSans-2f"/>
       <use x="755.144531" xlink:href="#DejaVuSans-66"/>
       <use x="790.349609" xlink:href="#DejaVuSans-63"/>
       <use x="845.330078" xlink:href="#DejaVuSans-6e"/>
      </g>
     </g>
    </g>
    <g id="ytick_3">
     <g id="line2d_17">
      <path clip-path="url(#p1539bad298)" d="M 226.746875 251.875301 
L 617.346875 251.875301 
" style="fill:none;stroke:#b0b0b0;stroke-linecap:square;stroke-width:0.8;"/>
     </g>
     <g id="line2d_18">
      <g>
       <use style="stroke:#000000;stroke-width:0.8;" x="226.746875" xlink:href="#mb68ea54813" y="251.875301"/>
      </g>
     </g>
     <g id="text_10">
      <!-- schreiber2018/cnn -->
      <g transform="translate(126.057812 255.67452)scale(0.1 -0.1)">
       <use xlink:href="#DejaVuSans-73"/>
       <use x="52.099609" xlink:href="#DejaVuSans-63"/>
       <use x="107.080078" xlink:href="#DejaVuSans-68"/>
       <use x="170.458984" xlink:href="#DejaVuSans-72"/>
       <use x="211.541016" xlink:href="#DejaVuSans-65"/>
       <use x="273.064453" xlink:href="#DejaVuSans-69"/>
       <use x="300.847656" xlink:href="#DejaVuSans-62"/>
       <use x="364.324219" xlink:href="#DejaVuSans-65"/>
       <use x="425.847656" xlink:href="#DejaVuSans-72"/>
       <use x="466.960938" xlink:href="#DejaVuSans-32"/>
       <use x="530.583984" xlink:href="#DejaVuSans-30"/>
       <use x="594.207031" xlink:href="#DejaVuSans-31"/>
       <use x="657.830078" xlink:href="#DejaVuSans-38"/>
       <use x="721.453125" xlink:href="#DejaVuSans-2f"/>
       <use x="755.144531" xlink:href="#DejaVuSans-63"/>
       <use x="810.125" xlink:href="#DejaVuSans-6e"/>
       <use x="873.503906" xlink:href="#DejaVuSans-6e"/>
      </g>
     </g>
    </g>
    <g id="ytick_4">
     <g id="line2d_19">
      <path clip-path="url(#p1539bad298)" d="M 226.746875 217.484713 
L 617.346875 217.484713 
" style="fill:none;stroke:#b0b0b0;stroke-linecap:square;stroke-width:0.8;"/>
     </g>
     <g id="line2d_20">
      <g>
       <use style="stroke:#000000;stroke-width:0.8;" x="226.746875" xlink:href="#mb68ea54813" y="217.484713"/>
      </g>
     </g>
     <g id="text_11">
      <!-- schreiber2017/mirex2017 -->
      <defs>
       <path d="M 8.203125 72.90625 
L 55.078125 72.90625 
L 55.078125 68.703125 
L 28.609375 0 
L 18.3125 0 
L 43.21875 64.59375 
L 8.203125 64.59375 
z
" id="DejaVuSans-37"/>
       <path d="M 54.890625 54.6875 
L 35.109375 28.078125 
L 55.90625 0 
L 45.3125 0 
L 29.390625 21.484375 
L 13.484375 0 
L 2.875 0 
L 24.125 28.609375 
L 4.6875 54.6875 
L 15.28125 54.6875 
L 29.78125 35.203125 
L 44.28125 54.6875 
z
" id="DejaVuSans-78"/>
      </defs>
      <g transform="translate(90.084375 221.283932)scale(0.1 -0.1)">
       <use xlink:href="#DejaVuSans-73"/>
       <use x="52.099609" xlink:href="#DejaVuSans-63"/>
       <use x="107.080078" xlink:href="#DejaVuSans-68"/>
       <use x="170.458984" xlink:href="#DejaVuSans-72"/>
       <use x="211.541016" xlink:href="#DejaVuSans-65"/>
       <use x="273.064453" xlink:href="#DejaVuSans-69"/>
       <use x="300.847656" xlink:href="#DejaVuSans-62"/>
       <use x="364.324219" xlink:href="#DejaVuSans-65"/>
       <use x="425.847656" xlink:href="#DejaVuSans-72"/>
       <use x="466.960938" xlink:href="#DejaVuSans-32"/>
       <use x="530.583984" xlink:href="#DejaVuSans-30"/>
       <use x="594.207031" xlink:href="#DejaVuSans-31"/>
       <use x="657.830078" xlink:href="#DejaVuSans-37"/>
       <use x="721.453125" xlink:href="#DejaVuSans-2f"/>
       <use x="755.144531" xlink:href="#DejaVuSans-6d"/>
       <use x="852.556641" xlink:href="#DejaVuSans-69"/>
       <use x="880.339844" xlink:href="#DejaVuSans-72"/>
       <use x="921.421875" xlink:href="#DejaVuSans-65"/>
       <use x="982.929688" xlink:href="#DejaVuSans-78"/>
       <use x="1042.109375" xlink:href="#DejaVuSans-32"/>
       <use x="1105.732422" xlink:href="#DejaVuSans-30"/>
       <use x="1169.355469" xlink:href="#DejaVuSans-31"/>
       <use x="1232.978516" xlink:href="#DejaVuSans-37"/>
      </g>
     </g>
    </g>
    <g id="ytick_5">
     <g id="line2d_21">
      <path clip-path="url(#p1539bad298)" d="M 226.746875 183.094125 
L 617.346875 183.094125 
" style="fill:none;stroke:#b0b0b0;stroke-linecap:square;stroke-width:0.8;"/>
     </g>
     <g id="line2d_22">
      <g>
       <use style="stroke:#000000;stroke-width:0.8;" x="226.746875" xlink:href="#mb68ea54813" y="183.094125"/>
      </g>
     </g>
     <g id="text_12">
      <!-- schreiber2017/ismir2017 -->
      <g transform="translate(94.164062 186.893344)scale(0.1 -0.1)">
       <use xlink:href="#DejaVuSans-73"/>
       <use x="52.099609" xlink:href="#DejaVuSans-63"/>
       <use x="107.080078" xlink:href="#DejaVuSans-68"/>
       <use x="170.458984" xlink:href="#DejaVuSans-72"/>
       <use x="211.541016" xlink:href="#DejaVuSans-65"/>
       <use x="273.064453" xlink:href="#DejaVuSans-69"/>
       <use x="300.847656" xlink:href="#DejaVuSans-62"/>
       <use x="364.324219" xlink:href="#DejaVuSans-65"/>
       <use x="425.847656" xlink:href="#DejaVuSans-72"/>
       <use x="466.960938" xlink:href="#DejaVuSans-32"/>
       <use x="530.583984" xlink:href="#DejaVuSans-30"/>
       <use x="594.207031" xlink:href="#DejaVuSans-31"/>
       <use x="657.830078" xlink:href="#DejaVuSans-37"/>
       <use x="721.453125" xlink:href="#DejaVuSans-2f"/>
       <use x="755.144531" xlink:href="#DejaVuSans-69"/>
       <use x="782.927734" xlink:href="#DejaVuSans-73"/>
       <use x="835.027344" xlink:href="#DejaVuSans-6d"/>
       <use x="932.439453" xlink:href="#DejaVuSans-69"/>
       <use x="960.222656" xlink:href="#DejaVuSans-72"/>
       <use x="1001.335938" xlink:href="#DejaVuSans-32"/>
       <use x="1064.958984" xlink:href="#DejaVuSans-30"/>
       <use x="1128.582031" xlink:href="#DejaVuSans-31"/>
       <use x="1192.205078" xlink:href="#DejaVuSans-37"/>
      </g>
     </g>
    </g>
    <g id="ytick_6">
     <g id="line2d_23">
      <path clip-path="url(#p1539bad298)" d="M 226.746875 148.703537 
L 617.346875 148.703537 
" style="fill:none;stroke:#b0b0b0;stroke-linecap:square;stroke-width:0.8;"/>
     </g>
     <g id="line2d_24">
      <g>
       <use style="stroke:#000000;stroke-width:0.8;" x="226.746875" xlink:href="#mb68ea54813" y="148.703537"/>
      </g>
     </g>
     <g id="text_13">
      <!-- schreiber2014/default -->
      <defs>
       <path d="M 45.40625 46.390625 
L 45.40625 75.984375 
L 54.390625 75.984375 
L 54.390625 0 
L 45.40625 0 
L 45.40625 8.203125 
Q 42.578125 3.328125 38.25 0.953125 
Q 33.9375 -1.421875 27.875 -1.421875 
Q 17.96875 -1.421875 11.734375 6.484375 
Q 5.515625 14.40625 5.515625 27.296875 
Q 5.515625 40.1875 11.734375 48.09375 
Q 17.96875 56 27.875 56 
Q 33.9375 56 38.25 53.625 
Q 42.578125 51.265625 45.40625 46.390625 
z
M 14.796875 27.296875 
Q 14.796875 17.390625 18.875 11.75 
Q 22.953125 6.109375 30.078125 6.109375 
Q 37.203125 6.109375 41.296875 11.75 
Q 45.40625 17.390625 45.40625 27.296875 
Q 45.40625 37.203125 41.296875 42.84375 
Q 37.203125 48.484375 30.078125 48.484375 
Q 22.953125 48.484375 18.875 42.84375 
Q 14.796875 37.203125 14.796875 27.296875 
z
" id="DejaVuSans-64"/>
       <path d="M 34.28125 27.484375 
Q 23.390625 27.484375 19.1875 25 
Q 14.984375 22.515625 14.984375 16.5 
Q 14.984375 11.71875 18.140625 8.90625 
Q 21.296875 6.109375 26.703125 6.109375 
Q 34.1875 6.109375 38.703125 11.40625 
Q 43.21875 16.703125 43.21875 25.484375 
L 43.21875 27.484375 
z
M 52.203125 31.203125 
L 52.203125 0 
L 43.21875 0 
L 43.21875 8.296875 
Q 40.140625 3.328125 35.546875 0.953125 
Q 30.953125 -1.421875 24.3125 -1.421875 
Q 15.921875 -1.421875 10.953125 3.296875 
Q 6 8.015625 6 15.921875 
Q 6 25.140625 12.171875 29.828125 
Q 18.359375 34.515625 30.609375 34.515625 
L 43.21875 34.515625 
L 43.21875 35.40625 
Q 43.21875 41.609375 39.140625 45 
Q 35.0625 48.390625 27.6875 48.390625 
Q 23 48.390625 18.546875 47.265625 
Q 14.109375 46.140625 10.015625 43.890625 
L 10.015625 52.203125 
Q 14.9375 54.109375 19.578125 55.046875 
Q 24.21875 56 28.609375 56 
Q 40.484375 56 46.34375 49.84375 
Q 52.203125 43.703125 52.203125 31.203125 
z
" id="DejaVuSans-61"/>
       <path d="M 8.5 21.578125 
L 8.5 54.6875 
L 17.484375 54.6875 
L 17.484375 21.921875 
Q 17.484375 14.15625 20.5 10.265625 
Q 23.53125 6.390625 29.59375 6.390625 
Q 36.859375 6.390625 41.078125 11.03125 
Q 45.3125 15.671875 45.3125 23.6875 
L 45.3125 54.6875 
L 54.296875 54.6875 
L 54.296875 0 
L 45.3125 0 
L 45.3125 8.40625 
Q 42.046875 3.421875 37.71875 1 
Q 33.40625 -1.421875 27.6875 -1.421875 
Q 18.265625 -1.421875 13.375 4.4375 
Q 8.5 10.296875 8.5 21.578125 
z
M 31.109375 56 
z
" id="DejaVuSans-75"/>
       <path d="M 9.421875 75.984375 
L 18.40625 75.984375 
L 18.40625 0 
L 9.421875 0 
z
" id="DejaVuSans-6c"/>
       <path d="M 18.3125 70.21875 
L 18.3125 54.6875 
L 36.8125 54.6875 
L 36.8125 47.703125 
L 18.3125 47.703125 
L 18.3125 18.015625 
Q 18.3125 11.328125 20.140625 9.421875 
Q 21.96875 7.515625 27.59375 7.515625 
L 36.8125 7.515625 
L 36.8125 0 
L 27.59375 0 
Q 17.1875 0 13.234375 3.875 
Q 9.28125 7.765625 9.28125 18.015625 
L 9.28125 47.703125 
L 2.6875 47.703125 
L 2.6875 54.6875 
L 9.28125 54.6875 
L 9.28125 70.21875 
z
" id="DejaVuSans-74"/>
      </defs>
      <g transform="translate(109.045312 152.502756)scale(0.1 -0.1)">
       <use xlink:href="#DejaVuSans-73"/>
       <use x="52.099609" xlink:href="#DejaVuSans-63"/>
       <use x="107.080078" xlink:href="#DejaVuSans-68"/>
       <use x="170.458984" xlink:href="#DejaVuSans-72"/>
       <use x="211.541016" xlink:href="#DejaVuSans-65"/>
       <use x="273.064453" xlink:href="#DejaVuSans-69"/>
       <use x="300.847656" xlink:href="#DejaVuSans-62"/>
       <use x="364.324219" xlink:href="#DejaVuSans-65"/>
       <use x="425.847656" xlink:href="#DejaVuSans-72"/>
       <use x="466.960938" xlink:href="#DejaVuSans-32"/>
       <use x="530.583984" xlink:href="#DejaVuSans-30"/>
       <use x="594.207031" xlink:href="#DejaVuSans-31"/>
       <use x="657.830078" xlink:href="#DejaVuSans-34"/>
       <use x="721.453125" xlink:href="#DejaVuSans-2f"/>
       <use x="755.144531" xlink:href="#DejaVuSans-64"/>
       <use x="818.621094" xlink:href="#DejaVuSans-65"/>
       <use x="880.144531" xlink:href="#DejaVuSans-66"/>
       <use x="915.349609" xlink:href="#DejaVuSans-61"/>
       <use x="976.628906" xlink:href="#DejaVuSans-75"/>
       <use x="1040.007812" xlink:href="#DejaVuSans-6c"/>
       <use x="1067.791016" xlink:href="#DejaVuSans-74"/>
      </g>
     </g>
    </g>
    <g id="ytick_7">
     <g id="line2d_25">
      <path clip-path="url(#p1539bad298)" d="M 226.746875 114.312949 
L 617.346875 114.312949 
" style="fill:none;stroke:#b0b0b0;stroke-linecap:square;stroke-width:0.8;"/>
     </g>
     <g id="line2d_26">
      <g>
       <use style="stroke:#000000;stroke-width:0.8;" x="226.746875" xlink:href="#mb68ea54813" y="114.312949"/>
      </g>
     </g>
     <g id="text_14">
      <!-- percival2014/stem -->
      <defs>
       <path d="M 18.109375 8.203125 
L 18.109375 -20.796875 
L 9.078125 -20.796875 
L 9.078125 54.6875 
L 18.109375 54.6875 
L 18.109375 46.390625 
Q 20.953125 51.265625 25.265625 53.625 
Q 29.59375 56 35.59375 56 
Q 45.5625 56 51.78125 48.09375 
Q 58.015625 40.1875 58.015625 27.296875 
Q 58.015625 14.40625 51.78125 6.484375 
Q 45.5625 -1.421875 35.59375 -1.421875 
Q 29.59375 -1.421875 25.265625 0.953125 
Q 20.953125 3.328125 18.109375 8.203125 
z
M 48.6875 27.296875 
Q 48.6875 37.203125 44.609375 42.84375 
Q 40.53125 48.484375 33.40625 48.484375 
Q 26.265625 48.484375 22.1875 42.84375 
Q 18.109375 37.203125 18.109375 27.296875 
Q 18.109375 17.390625 22.1875 11.75 
Q 26.265625 6.109375 33.40625 6.109375 
Q 40.53125 6.109375 44.609375 11.75 
Q 48.6875 17.390625 48.6875 27.296875 
z
" id="DejaVuSans-70"/>
       <path d="M 2.984375 54.6875 
L 12.5 54.6875 
L 29.59375 8.796875 
L 46.6875 54.6875 
L 56.203125 54.6875 
L 35.6875 0 
L 23.484375 0 
z
" id="DejaVuSans-76"/>
      </defs>
      <g transform="translate(126.19375 118.112167)scale(0.1 -0.1)">
       <use xlink:href="#DejaVuSans-70"/>
       <use x="63.476562" xlink:href="#DejaVuSans-65"/>
       <use x="125" xlink:href="#DejaVuSans-72"/>
       <use x="166.082031" xlink:href="#DejaVuSans-63"/>
       <use x="221.0625" xlink:href="#DejaVuSans-69"/>
       <use x="248.845703" xlink:href="#DejaVuSans-76"/>
       <use x="308.025391" xlink:href="#DejaVuSans-61"/>
       <use x="369.304688" xlink:href="#DejaVuSans-6c"/>
       <use x="397.087891" xlink:href="#DejaVuSans-32"/>
       <use x="460.710938" xlink:href="#DejaVuSans-30"/>
       <use x="524.333984" xlink:href="#DejaVuSans-31"/>
       <use x="587.957031" xlink:href="#DejaVuSans-34"/>
       <use x="651.580078" xlink:href="#DejaVuSans-2f"/>
       <use x="685.271484" xlink:href="#DejaVuSans-73"/>
       <use x="737.371094" xlink:href="#DejaVuSans-74"/>
       <use x="776.580078" xlink:href="#DejaVuSans-65"/>
       <use x="838.103516" xlink:href="#DejaVuSans-6d"/>
      </g>
     </g>
    </g>
    <g id="ytick_8">
     <g id="line2d_27">
      <path clip-path="url(#p1539bad298)" d="M 226.746875 79.92236 
L 617.346875 79.92236 
" style="fill:none;stroke:#b0b0b0;stroke-linecap:square;stroke-width:0.8;"/>
     </g>
     <g id="line2d_28">
      <g>
       <use style="stroke:#000000;stroke-width:0.8;" x="226.746875" xlink:href="#mb68ea54813" y="79.92236"/>
      </g>
     </g>
     <g id="text_15">
      <!-- davies2009/mirex_qm_tempotracker -->
      <defs>
       <path d="M 10.984375 1.515625 
L 10.984375 10.5 
Q 14.703125 8.734375 18.5 7.8125 
Q 22.3125 6.890625 25.984375 6.890625 
Q 35.75 6.890625 40.890625 13.453125 
Q 46.046875 20.015625 46.78125 33.40625 
Q 43.953125 29.203125 39.59375 26.953125 
Q 35.25 24.703125 29.984375 24.703125 
Q 19.046875 24.703125 12.671875 31.3125 
Q 6.296875 37.9375 6.296875 49.421875 
Q 6.296875 60.640625 12.9375 67.421875 
Q 19.578125 74.21875 30.609375 74.21875 
Q 43.265625 74.21875 49.921875 64.515625 
Q 56.59375 54.828125 56.59375 36.375 
Q 56.59375 19.140625 48.40625 8.859375 
Q 40.234375 -1.421875 26.421875 -1.421875 
Q 22.703125 -1.421875 18.890625 -0.6875 
Q 15.09375 0.046875 10.984375 1.515625 
z
M 30.609375 32.421875 
Q 37.25 32.421875 41.125 36.953125 
Q 45.015625 41.5 45.015625 49.421875 
Q 45.015625 57.28125 41.125 61.84375 
Q 37.25 66.40625 30.609375 66.40625 
Q 23.96875 66.40625 20.09375 61.84375 
Q 16.21875 57.28125 16.21875 49.421875 
Q 16.21875 41.5 20.09375 36.953125 
Q 23.96875 32.421875 30.609375 32.421875 
z
" id="DejaVuSans-39"/>
       <path d="M 50.984375 -16.609375 
L 50.984375 -23.578125 
L -0.984375 -23.578125 
L -0.984375 -16.609375 
z
" id="DejaVuSans-5f"/>
       <path d="M 14.796875 27.296875 
Q 14.796875 17.390625 18.875 11.75 
Q 22.953125 6.109375 30.078125 6.109375 
Q 37.203125 6.109375 41.296875 11.75 
Q 45.40625 17.390625 45.40625 27.296875 
Q 45.40625 37.203125 41.296875 42.84375 
Q 37.203125 48.484375 30.078125 48.484375 
Q 22.953125 48.484375 18.875 42.84375 
Q 14.796875 37.203125 14.796875 27.296875 
z
M 45.40625 8.203125 
Q 42.578125 3.328125 38.25 0.953125 
Q 33.9375 -1.421875 27.875 -1.421875 
Q 17.96875 -1.421875 11.734375 6.484375 
Q 5.515625 14.40625 5.515625 27.296875 
Q 5.515625 40.1875 11.734375 48.09375 
Q 17.96875 56 27.875 56 
Q 33.9375 56 38.25 53.625 
Q 42.578125 51.265625 45.40625 46.390625 
L 45.40625 54.6875 
L 54.390625 54.6875 
L 54.390625 -20.796875 
L 45.40625 -20.796875 
z
" id="DejaVuSans-71"/>
       <path d="M 30.609375 48.390625 
Q 23.390625 48.390625 19.1875 42.75 
Q 14.984375 37.109375 14.984375 27.296875 
Q 14.984375 17.484375 19.15625 11.84375 
Q 23.34375 6.203125 30.609375 6.203125 
Q 37.796875 6.203125 41.984375 11.859375 
Q 46.1875 17.53125 46.1875 27.296875 
Q 46.1875 37.015625 41.984375 42.703125 
Q 37.796875 48.390625 30.609375 48.390625 
z
M 30.609375 56 
Q 42.328125 56 49.015625 48.375 
Q 55.71875 40.765625 55.71875 27.296875 
Q 55.71875 13.875 49.015625 6.21875 
Q 42.328125 -1.421875 30.609375 -1.421875 
Q 18.84375 -1.421875 12.171875 6.21875 
Q 5.515625 13.875 5.515625 27.296875 
Q 5.515625 40.765625 12.171875 48.375 
Q 18.84375 56 30.609375 56 
z
" id="DejaVuSans-6f"/>
       <path d="M 9.078125 75.984375 
L 18.109375 75.984375 
L 18.109375 31.109375 
L 44.921875 54.6875 
L 56.390625 54.6875 
L 27.390625 29.109375 
L 57.625 0 
L 45.90625 0 
L 18.109375 26.703125 
L 18.109375 0 
L 9.078125 0 
z
" id="DejaVuSans-6b"/>
      </defs>
      <g transform="translate(35.617187 83.721579)scale(0.1 -0.1)">
       <use xlink:href="#DejaVuSans-64"/>
       <use x="63.476562" xlink:href="#DejaVuSans-61"/>
       <use x="124.755859" xlink:href="#DejaVuSans-76"/>
       <use x="183.935547" xlink:href="#DejaVuSans-69"/>
       <use x="211.71875" xlink:href="#DejaVuSans-65"/>
       <use x="273.242188" xlink:href="#DejaVuSans-73"/>
       <use x="325.341797" xlink:href="#DejaVuSans-32"/>
       <use x="388.964844" xlink:href="#DejaVuSans-30"/>
       <use x="452.587891" xlink:href="#DejaVuSans-30"/>
       <use x="516.210938" xlink:href="#DejaVuSans-39"/>
       <use x="579.833984" xlink:href="#DejaVuSans-2f"/>
       <use x="613.525391" xlink:href="#DejaVuSans-6d"/>
       <use x="710.9375" xlink:href="#DejaVuSans-69"/>
       <use x="738.720703" xlink:href="#DejaVuSans-72"/>
       <use x="779.802734" xlink:href="#DejaVuSans-65"/>
       <use x="841.310547" xlink:href="#DejaVuSans-78"/>
       <use x="900.490234" xlink:href="#DejaVuSans-5f"/>
       <use x="950.490234" xlink:href="#DejaVuSans-71"/>
       <use x="1013.966797" xlink:href="#DejaVuSans-6d"/>
       <use x="1111.378906" xlink:href="#DejaVuSans-5f"/>
       <use x="1161.378906" xlink:href="#DejaVuSans-74"/>
       <use x="1200.587891" xlink:href="#DejaVuSans-65"/>
       <use x="1262.111328" xlink:href="#DejaVuSans-6d"/>
       <use x="1359.523438" xlink:href="#DejaVuSans-70"/>
       <use x="1423" xlink:href="#DejaVuSans-6f"/>
       <use x="1484.181641" xlink:href="#DejaVuSans-74"/>
       <use x="1523.390625" xlink:href="#DejaVuSans-72"/>
       <use x="1564.503906" xlink:href="#DejaVuSans-61"/>
       <use x="1625.783203" xlink:href="#DejaVuSans-63"/>
       <use x="1680.763672" xlink:href="#DejaVuSans-6b"/>
       <use x="1738.626953" xlink:href="#DejaVuSans-65"/>
       <use x="1800.150391" xlink:href="#DejaVuSans-72"/>
      </g>
     </g>
    </g>
    <g id="ytick_9">
     <g id="line2d_29">
      <path clip-path="url(#p1539bad298)" d="M 226.746875 45.531772 
L 617.346875 45.531772 
" style="fill:none;stroke:#b0b0b0;stroke-linecap:square;stroke-width:0.8;"/>
     </g>
     <g id="line2d_30">
      <g>
       <use style="stroke:#000000;stroke-width:0.8;" x="226.746875" xlink:href="#mb68ea54813" y="45.531772"/>
      </g>
     </g>
     <g id="text_16">
      <!-- boeck2015/tempodetector2016_default -->
      <defs>
       <path d="M 10.796875 72.90625 
L 49.515625 72.90625 
L 49.515625 64.59375 
L 19.828125 64.59375 
L 19.828125 46.734375 
Q 21.96875 47.46875 24.109375 47.828125 
Q 26.265625 48.1875 28.421875 48.1875 
Q 40.625 48.1875 47.75 41.5 
Q 54.890625 34.8125 54.890625 23.390625 
Q 54.890625 11.625 47.5625 5.09375 
Q 40.234375 -1.421875 26.90625 -1.421875 
Q 22.3125 -1.421875 17.546875 -0.640625 
Q 12.796875 0.140625 7.71875 1.703125 
L 7.71875 11.625 
Q 12.109375 9.234375 16.796875 8.0625 
Q 21.484375 6.890625 26.703125 6.890625 
Q 35.15625 6.890625 40.078125 11.328125 
Q 45.015625 15.765625 45.015625 23.390625 
Q 45.015625 31 40.078125 35.4375 
Q 35.15625 39.890625 26.703125 39.890625 
Q 22.75 39.890625 18.8125 39.015625 
Q 14.890625 38.140625 10.796875 36.28125 
z
" id="DejaVuSans-35"/>
      </defs>
      <g transform="translate(20.878125 49.330991)scale(0.1 -0.1)">
       <use xlink:href="#DejaVuSans-62"/>
       <use x="63.476562" xlink:href="#DejaVuSans-6f"/>
       <use x="124.658203" xlink:href="#DejaVuSans-65"/>
       <use x="186.181641" xlink:href="#DejaVuSans-63"/>
       <use x="241.162109" xlink:href="#DejaVuSans-6b"/>
       <use x="299.072266" xlink:href="#DejaVuSans-32"/>
       <use x="362.695312" xlink:href="#DejaVuSans-30"/>
       <use x="426.318359" xlink:href="#DejaVuSans-31"/>
       <use x="489.941406" xlink:href="#DejaVuSans-35"/>
       <use x="553.564453" xlink:href="#DejaVuSans-2f"/>
       <use x="587.255859" xlink:href="#DejaVuSans-74"/>
       <use x="626.464844" xlink:href="#DejaVuSans-65"/>
       <use x="687.988281" xlink:href="#DejaVuSans-6d"/>
       <use x="785.400391" xlink:href="#DejaVuSans-70"/>
       <use x="848.876953" xlink:href="#DejaVuSans-6f"/>
       <use x="910.058594" xlink:href="#DejaVuSans-64"/>
       <use x="973.535156" xlink:href="#DejaVuSans-65"/>
       <use x="1035.058594" xlink:href="#DejaVuSans-74"/>
       <use x="1074.267578" xlink:href="#DejaVuSans-65"/>
       <use x="1135.791016" xlink:href="#DejaVuSans-63"/>
       <use x="1190.771484" xlink:href="#DejaVuSans-74"/>
       <use x="1229.980469" xlink:href="#DejaVuSans-6f"/>
       <use x="1291.162109" xlink:href="#DejaVuSans-72"/>
       <use x="1332.275391" xlink:href="#DejaVuSans-32"/>
       <use x="1395.898438" xlink:href="#DejaVuSans-30"/>
       <use x="1459.521484" xlink:href="#DejaVuSans-31"/>
       <use x="1523.144531" xlink:href="#DejaVuSans-36"/>
       <use x="1586.767578" xlink:href="#DejaVuSans-5f"/>
       <use x="1636.767578" xlink:href="#DejaVuSans-64"/>
       <use x="1700.244141" xlink:href="#DejaVuSans-65"/>
       <use x="1761.767578" xlink:href="#DejaVuSans-66"/>
       <use x="1796.972656" xlink:href="#DejaVuSans-61"/>
       <use x="1858.251953" xlink:href="#DejaVuSans-75"/>
       <use x="1921.630859" xlink:href="#DejaVuSans-6c"/>
       <use x="1949.414062" xlink:href="#DejaVuSans-74"/>
      </g>
     </g>
    </g>
    <g id="text_17">
     <!-- Estimator -->
     <g transform="translate(14.798437 207.216781)rotate(-90)scale(0.1 -0.1)">
      <use xlink:href="#DejaVuSans-45"/>
      <use x="63.183594" xlink:href="#DejaVuSans-73"/>
      <use x="115.283203" xlink:href="#DejaVuSans-74"/>
      <use x="154.492188" xlink:href="#DejaVuSans-69"/>
      <use x="182.275391" xlink:href="#DejaVuSans-6d"/>
      <use x="279.6875" xlink:href="#DejaVuSans-61"/>
      <use x="340.966797" xlink:href="#DejaVuSans-74"/>
      <use x="380.175781" xlink:href="#DejaVuSans-6f"/>
      <use x="441.357422" xlink:href="#DejaVuSans-72"/>
     </g>
    </g>
   </g>
   <g id="PolyCollection_1">
    <path clip-path="url(#p1539bad298)" d="M 227.31011 312.907812 
L 227.31011 328.405144 
L 229.121833 328.651015 
L 230.933556 328.858292 
L 232.745278 329.024066 
L 234.557001 329.146133 
L 236.368724 329.22304 
L 238.180446 329.254125 
L 239.992169 329.239521 
L 241.803892 329.180143 
L 243.615614 329.077652 
L 245.427337 328.934395 
L 247.23906 328.753333 
L 249.050783 328.537949 
L 250.862505 328.292151 
L 252.674228 328.020161 
L 254.485951 327.726407 
L 256.297673 327.415416 
L 258.109396 327.091709 
L 259.921119 326.759706 
L 261.732842 326.423639 
L 263.544564 326.087481 
L 265.356287 325.754886 
L 267.16801 325.42914 
L 268.979732 325.113133 
L 270.791455 324.809338 
L 272.603178 324.519807 
L 274.414901 324.246174 
L 276.226623 323.989667 
L 278.038346 323.751137 
L 279.850069 323.531078 
L 281.661791 323.329666 
L 283.473514 323.146787 
L 285.285237 322.982084 
L 287.096959 322.834982 
L 288.908682 322.704734 
L 290.720405 322.59045 
L 292.532128 322.491132 
L 294.34385 322.405703 
L 296.155573 322.333034 
L 297.967296 322.27197 
L 299.779018 322.221348 
L 301.590741 322.180018 
L 303.402464 322.146857 
L 305.214187 322.120782 
L 307.025909 322.100762 
L 308.837632 322.085825 
L 310.649355 322.075064 
L 312.461077 322.067643 
L 314.2728 322.062799 
L 316.084523 322.059843 
L 317.896246 322.058162 
L 319.707968 322.057218 
L 321.519691 322.056547 
L 323.331414 322.055754 
L 325.143136 322.054514 
L 326.954859 322.052566 
L 328.766582 322.049711 
L 330.578304 322.045802 
L 332.390027 322.040749 
L 334.20175 322.034505 
L 336.013473 322.027063 
L 337.825195 322.018457 
L 339.636918 322.008746 
L 341.448641 321.998017 
L 343.260363 321.986379 
L 345.072086 321.973955 
L 346.883809 321.960877 
L 348.695532 321.947287 
L 350.507254 321.933327 
L 352.318977 321.919139 
L 354.1307 321.904861 
L 355.942422 321.890621 
L 357.754145 321.876537 
L 359.565868 321.862714 
L 361.377591 321.849237 
L 363.189313 321.836177 
L 365.001036 321.823578 
L 366.812759 321.811466 
L 368.624481 321.799838 
L 370.436204 321.788666 
L 372.247927 321.777893 
L 374.059649 321.767435 
L 375.871372 321.757181 
L 377.683095 321.746991 
L 379.494818 321.736704 
L 381.30654 321.726136 
L 383.118263 321.715084 
L 384.929986 321.703334 
L 386.741708 321.690667 
L 388.553431 321.67686 
L 390.365154 321.6617 
L 392.176877 321.644986 
L 393.988599 321.626539 
L 395.800322 321.60621 
L 397.612045 321.583881 
L 399.423767 321.559479 
L 401.23549 321.532973 
L 403.047213 321.50438 
L 404.858936 321.473767 
L 406.670658 321.441249 
L 406.670658 319.871707 
L 406.670658 319.871707 
L 404.858936 319.839189 
L 403.047213 319.808576 
L 401.23549 319.779983 
L 399.423767 319.753477 
L 397.612045 319.729075 
L 395.800322 319.706746 
L 393.988599 319.686417 
L 392.176877 319.66797 
L 390.365154 319.651256 
L 388.553431 319.636096 
L 386.741708 319.622289 
L 384.929986 319.609621 
L 383.118263 319.597872 
L 381.30654 319.58682 
L 379.494818 319.576252 
L 377.683095 319.565965 
L 375.871372 319.555775 
L 374.059649 319.545521 
L 372.247927 319.535063 
L 370.436204 319.52429 
L 368.624481 319.513117 
L 366.812759 319.501489 
L 365.001036 319.489377 
L 363.189313 319.476779 
L 361.377591 319.463719 
L 359.565868 319.450242 
L 357.754145 319.436419 
L 355.942422 319.422335 
L 354.1307 319.408095 
L 352.318977 319.393816 
L 350.507254 319.379629 
L 348.695532 319.365669 
L 346.883809 319.352079 
L 345.072086 319.339001 
L 343.260363 319.326576 
L 341.448641 319.314938 
L 339.636918 319.30421 
L 337.825195 319.294499 
L 336.013473 319.285892 
L 334.20175 319.278451 
L 332.390027 319.272207 
L 330.578304 319.267154 
L 328.766582 319.263245 
L 326.954859 319.26039 
L 325.143136 319.258442 
L 323.331414 319.257202 
L 321.519691 319.256409 
L 319.707968 319.255738 
L 317.896246 319.254794 
L 316.084523 319.253113 
L 314.2728 319.250157 
L 312.461077 319.245312 
L 310.649355 319.237891 
L 308.837632 319.227131 
L 307.025909 319.212194 
L 305.214187 319.192174 
L 303.402464 319.166099 
L 301.590741 319.132938 
L 299.779018 319.091607 
L 297.967296 319.040986 
L 296.155573 318.979922 
L 294.34385 318.907253 
L 292.532128 318.821824 
L 290.720405 318.722506 
L 288.908682 318.608222 
L 287.096959 318.477974 
L 285.285237 318.330872 
L 283.473514 318.166168 
L 281.661791 317.98329 
L 279.850069 317.781878 
L 278.038346 317.561819 
L 276.226623 317.323289 
L 274.414901 317.066782 
L 272.603178 316.793149 
L 270.791455 316.503618 
L 268.979732 316.199823 
L 267.16801 315.883816 
L 265.356287 315.55807 
L 263.544564 315.225474 
L 261.732842 314.889317 
L 259.921119 314.55325 
L 258.109396 314.221247 
L 256.297673 313.89754 
L 254.485951 313.586549 
L 252.674228 313.292795 
L 250.862505 313.020805 
L 249.050783 312.775007 
L 247.23906 312.559623 
L 245.427337 312.378561 
L 243.615614 312.235304 
L 241.803892 312.132813 
L 239.992169 312.073435 
L 238.180446 312.058831 
L 236.368724 312.089916 
L 234.557001 312.166823 
L 232.745278 312.28889 
L 230.933556 312.454664 
L 229.121833 312.661941 
L 227.31011 312.907812 
z
" style="fill:#ff0000;fill-opacity:0.75;"/>
   </g>
   <g id="PolyCollection_2">
    <path clip-path="url(#p1539bad298)" d="M 226.920647 278.806646 
L 226.920647 293.725134 
L 228.590658 294.006666 
L 230.26067 294.253037 
L 231.930682 294.460863 
L 233.600693 294.627427 
L 235.270705 294.750737 
L 236.940717 294.829581 
L 238.610729 294.863537 
L 240.28074 294.852976 
L 241.950752 294.799026 
L 243.620764 294.703523 
L 245.290775 294.568938 
L 246.960787 294.398284 
L 248.630799 294.195019 
L 250.300811 293.962938 
L 251.970822 293.706056 
L 253.640834 293.428505 
L 255.310846 293.134424 
L 256.980857 292.827868 
L 258.650869 292.512725 
L 260.320881 292.192646 
L 261.990893 291.87099 
L 263.660904 291.550791 
L 265.330916 291.234732 
L 267.000928 290.925134 
L 268.670939 290.623963 
L 270.340951 290.332842 
L 272.010963 290.05307 
L 273.680975 289.78565 
L 275.350986 289.531318 
L 277.020998 289.290579 
L 278.69101 289.06373 
L 280.361021 288.850896 
L 282.031033 288.652057 
L 283.701045 288.467066 
L 285.371057 288.295677 
L 287.041068 288.137558 
L 288.71108 287.992305 
L 290.381092 287.859456 
L 292.051103 287.738499 
L 293.721115 287.628882 
L 295.391127 287.530018 
L 297.061139 287.441294 
L 298.73115 287.362075 
L 300.401162 287.291715 
L 302.071174 287.229563 
L 303.741185 287.174967 
L 305.411197 287.12729 
L 307.081209 287.08591 
L 308.751221 287.050233 
L 310.421232 287.019701 
L 312.091244 286.993796 
L 313.761256 286.972046 
L 315.431267 286.954035 
L 317.101279 286.9394 
L 318.771291 286.927835 
L 320.441303 286.919092 
L 322.111314 286.912978 
L 323.781326 286.909351 
L 325.451338 286.908114 
L 327.121349 286.909212 
L 328.791361 286.912619 
L 330.461373 286.918332 
L 332.131385 286.926363 
L 333.801396 286.936725 
L 335.471408 286.949428 
L 337.14142 286.964463 
L 338.811432 286.981802 
L 340.481443 287.001383 
L 342.151455 287.02311 
L 343.821467 287.046847 
L 345.491478 287.07241 
L 347.16149 287.099576 
L 348.831502 287.128074 
L 350.501514 287.157592 
L 352.171525 287.187779 
L 353.841537 287.218252 
L 355.511549 287.248596 
L 357.18156 287.278378 
L 358.851572 287.307149 
L 360.521584 287.334455 
L 362.191596 287.359841 
L 363.861607 287.382865 
L 365.531619 287.4031 
L 367.201631 287.420147 
L 368.871642 287.43364 
L 370.541654 287.443253 
L 372.211666 287.448707 
L 373.881678 287.449775 
L 375.551689 287.446291 
L 377.221701 287.438149 
L 378.891713 287.42531 
L 380.561724 287.4078 
L 382.231736 287.385717 
L 383.901748 287.359222 
L 385.57176 287.328546 
L 387.241771 287.293977 
L 388.911783 287.255863 
L 390.581795 287.214599 
L 392.251806 287.170624 
L 392.251806 285.361156 
L 392.251806 285.361156 
L 390.581795 285.31718 
L 388.911783 285.275916 
L 387.241771 285.237802 
L 385.57176 285.203233 
L 383.901748 285.172557 
L 382.231736 285.146063 
L 380.561724 285.123979 
L 378.891713 285.10647 
L 377.221701 285.09363 
L 375.551689 285.085488 
L 373.881678 285.082004 
L 372.211666 285.083073 
L 370.541654 285.088526 
L 368.871642 285.098139 
L 367.201631 285.111632 
L 365.531619 285.128679 
L 363.861607 285.148915 
L 362.191596 285.171938 
L 360.521584 285.197325 
L 358.851572 285.22463 
L 357.18156 285.253401 
L 355.511549 285.283183 
L 353.841537 285.313528 
L 352.171525 285.344 
L 350.501514 285.374188 
L 348.831502 285.403706 
L 347.16149 285.432203 
L 345.491478 285.459369 
L 343.821467 285.484933 
L 342.151455 285.508669 
L 340.481443 285.530396 
L 338.811432 285.549978 
L 337.14142 285.567316 
L 335.471408 285.582352 
L 333.801396 285.595054 
L 332.131385 285.605416 
L 330.461373 285.613447 
L 328.791361 285.61916 
L 327.121349 285.622567 
L 325.451338 285.623665 
L 323.781326 285.622428 
L 322.111314 285.618801 
L 320.441303 285.612687 
L 318.771291 285.603944 
L 317.101279 285.592379 
L 315.431267 285.577744 
L 313.761256 285.559733 
L 312.091244 285.537984 
L 310.421232 285.512078 
L 308.751221 285.481546 
L 307.081209 285.44587 
L 305.411197 285.40449 
L 303.741185 285.356812 
L 302.071174 285.302217 
L 300.401162 285.240064 
L 298.73115 285.169705 
L 297.061139 285.090486 
L 295.391127 285.001761 
L 293.721115 284.902897 
L 292.051103 284.79328 
L 290.381092 284.672324 
L 288.71108 284.539475 
L 287.041068 284.394222 
L 285.371057 284.236102 
L 283.701045 284.064713 
L 282.031033 283.879723 
L 280.361021 283.680883 
L 278.69101 283.46805 
L 277.020998 283.241201 
L 275.350986 283.000461 
L 273.680975 282.74613 
L 272.010963 282.478709 
L 270.340951 282.198937 
L 268.670939 281.907816 
L 267.000928 281.606646 
L 265.330916 281.297048 
L 263.660904 280.980988 
L 261.990893 280.660789 
L 260.320881 280.339134 
L 258.650869 280.019054 
L 256.980857 279.703911 
L 255.310846 279.397356 
L 253.640834 279.103275 
L 251.970822 278.825723 
L 250.300811 278.568842 
L 248.630799 278.33676 
L 246.960787 278.133496 
L 245.290775 277.962841 
L 243.620764 277.828256 
L 241.950752 277.732754 
L 240.28074 277.678804 
L 238.610729 277.668243 
L 236.940717 277.702199 
L 235.270705 277.781042 
L 233.600693 277.904353 
L 231.930682 278.070916 
L 230.26067 278.278743 
L 228.590658 278.525113 
L 226.920647 278.806646 
z
" style="fill:#ff0000;fill-opacity:0.75;"/>
   </g>
   <g id="PolyCollection_3">
    <path clip-path="url(#p1539bad298)" d="M 226.920647 243.891798 
L 226.920647 259.858805 
L 228.691764 260.060569 
L 230.462881 260.224582 
L 232.233998 260.348806 
L 234.005115 260.431838 
L 235.776232 260.472949 
L 237.54735 260.472092 
L 239.318467 260.429906 
L 241.089584 260.347683 
L 242.860701 260.227335 
L 244.631818 260.071332 
L 246.402936 259.882635 
L 248.174053 259.664614 
L 249.94517 259.420958 
L 251.716287 259.155582 
L 253.487404 258.872531 
L 255.258521 258.57589 
L 257.029639 258.269691 
L 258.800756 257.957836 
L 260.571873 257.644021 
L 262.34299 257.331677 
L 264.114107 257.023924 
L 265.885224 256.723527 
L 267.656342 256.432879 
L 269.427459 256.153986 
L 271.198576 255.888466 
L 272.969693 255.637556 
L 274.74081 255.402133 
L 276.511927 255.182739 
L 278.283045 254.979604 
L 280.054162 254.792687 
L 281.825279 254.621708 
L 283.596396 254.466183 
L 285.367513 254.325462 
L 287.138631 254.198766 
L 288.909748 254.085213 
L 290.680865 253.983854 
L 292.451982 253.893698 
L 294.223099 253.813737 
L 295.994216 253.742963 
L 297.765334 253.680391 
L 299.536451 253.625073 
L 301.307568 253.576105 
L 303.078685 253.532648 
L 304.849802 253.493923 
L 306.620919 253.459229 
L 308.392037 253.427941 
L 310.163154 253.399513 
L 311.934271 253.373482 
L 313.705388 253.349468 
L 315.476505 253.327173 
L 317.247622 253.306374 
L 319.01874 253.286927 
L 320.789857 253.268757 
L 322.560974 253.251852 
L 324.332091 253.236257 
L 326.103208 253.222066 
L 327.874326 253.209411 
L 329.645443 253.198453 
L 331.41656 253.189369 
L 333.187677 253.182345 
L 334.958794 253.177562 
L 336.729911 253.175185 
L 338.501029 253.175355 
L 340.272146 253.178175 
L 342.043263 253.183707 
L 343.81438 253.19196 
L 345.585497 253.20289 
L 347.356614 253.216388 
L 349.127732 253.232286 
L 350.898849 253.25035 
L 352.669966 253.270286 
L 354.441083 253.291743 
L 356.2122 253.314313 
L 357.983317 253.337546 
L 359.754435 253.360949 
L 361.525552 253.384003 
L 363.296669 253.406168 
L 365.067786 253.426896 
L 366.838903 253.445641 
L 368.610021 253.46187 
L 370.381138 253.475078 
L 372.152255 253.484793 
L 373.923372 253.490589 
L 375.694489 253.492094 
L 377.465606 253.489001 
L 379.236724 253.481067 
L 381.007841 253.468126 
L 382.778958 253.450089 
L 384.550075 253.426942 
L 386.321192 253.398752 
L 388.092309 253.365661 
L 389.863427 253.327884 
L 391.634544 253.285705 
L 393.405661 253.239467 
L 395.176778 253.189568 
L 396.947895 253.136451 
L 398.719013 253.080595 
L 400.49013 253.022504 
L 402.261247 252.962698 
L 402.261247 250.787905 
L 402.261247 250.787905 
L 400.49013 250.728099 
L 398.719013 250.670008 
L 396.947895 250.614152 
L 395.176778 250.561035 
L 393.405661 250.511136 
L 391.634544 250.464898 
L 389.863427 250.422719 
L 388.092309 250.384942 
L 386.321192 250.351851 
L 384.550075 250.323661 
L 382.778958 250.300514 
L 381.007841 250.282476 
L 379.236724 250.269536 
L 377.465606 250.261602 
L 375.694489 250.258509 
L 373.923372 250.260014 
L 372.152255 250.26581 
L 370.381138 250.275525 
L 368.610021 250.288733 
L 366.838903 250.304962 
L 365.067786 250.323707 
L 363.296669 250.344435 
L 361.525552 250.3666 
L 359.754435 250.389654 
L 357.983317 250.413057 
L 356.2122 250.43629 
L 354.441083 250.45886 
L 352.669966 250.480317 
L 350.898849 250.500253 
L 349.127732 250.518317 
L 347.356614 250.534215 
L 345.585497 250.547713 
L 343.81438 250.558642 
L 342.043263 250.566896 
L 340.272146 250.572428 
L 338.501029 250.575248 
L 336.729911 250.575418 
L 334.958794 250.573041 
L 333.187677 250.568258 
L 331.41656 250.561234 
L 329.645443 250.55215 
L 327.874326 250.541192 
L 326.103208 250.528537 
L 324.332091 250.514346 
L 322.560974 250.498751 
L 320.789857 250.481846 
L 319.01874 250.463676 
L 317.247622 250.444229 
L 315.476505 250.42343 
L 313.705388 250.401134 
L 311.934271 250.377121 
L 310.163154 250.35109 
L 308.392037 250.322662 
L 306.620919 250.291374 
L 304.849802 250.25668 
L 303.078685 250.217955 
L 301.307568 250.174497 
L 299.536451 250.12553 
L 297.765334 250.070212 
L 295.994216 250.00764 
L 294.223099 249.936866 
L 292.451982 249.856904 
L 290.680865 249.766749 
L 288.909748 249.66539 
L 287.138631 249.551837 
L 285.367513 249.425141 
L 283.596396 249.28442 
L 281.825279 249.128895 
L 280.054162 248.957916 
L 278.283045 248.770999 
L 276.511927 248.567864 
L 274.74081 248.34847 
L 272.969693 248.113047 
L 271.198576 247.862137 
L 269.427459 247.596617 
L 267.656342 247.317724 
L 265.885224 247.027076 
L 264.114107 246.726679 
L 262.34299 246.418926 
L 260.571873 246.106582 
L 258.800756 245.792767 
L 257.029639 245.480912 
L 255.258521 245.174713 
L 253.487404 244.878072 
L 251.716287 244.595021 
L 249.94517 244.329645 
L 248.174053 244.085989 
L 246.402936 243.867968 
L 244.631818 243.679271 
L 242.860701 243.523268 
L 241.089584 243.40292 
L 239.318467 243.320697 
L 237.54735 243.278511 
L 235.776232 243.277654 
L 234.005115 243.318765 
L 232.233998 243.401797 
L 230.462881 243.526021 
L 228.691764 243.690034 
L 226.920647 243.891798 
z
" style="fill:#ff0000;fill-opacity:0.75;"/>
   </g>
   <g id="PolyCollection_4">
    <path clip-path="url(#p1539bad298)" d="M 227.05913 209.715978 
L 227.05913 225.253448 
L 228.723727 225.483626 
L 230.388324 225.679452 
L 232.052921 225.838592 
L 233.717518 225.959284 
L 235.382115 226.040379 
L 237.046712 226.081362 
L 238.711309 226.08236 
L 240.375906 226.044123 
L 242.040503 225.967996 
L 243.7051 225.855871 
L 245.369697 225.710128 
L 247.034294 225.533564 
L 248.698891 225.329312 
L 250.363488 225.100755 
L 252.028085 224.851441 
L 253.692682 224.584995 
L 255.357279 224.305035 
L 257.021876 224.015096 
L 258.686473 223.718563 
L 260.35107 223.418612 
L 262.015667 223.118163 
L 263.680264 222.819846 
L 265.344861 222.525979 
L 267.009457 222.238553 
L 268.674054 221.959239 
L 270.338651 221.689391 
L 272.003248 221.430068 
L 273.667845 221.182054 
L 275.332442 220.945893 
L 276.997039 220.721915 
L 278.661636 220.510276 
L 280.326233 220.310985 
L 281.99083 220.123937 
L 283.655427 219.948947 
L 285.320024 219.785769 
L 286.984621 219.63412 
L 288.649218 219.493695 
L 290.313815 219.364184 
L 291.978412 219.245272 
L 293.643009 219.136649 
L 295.307606 219.03801 
L 296.972203 218.94905 
L 298.6368 218.869458 
L 300.301397 218.798918 
L 301.965994 218.737097 
L 303.630591 218.683639 
L 305.295188 218.638162 
L 306.959785 218.600255 
L 308.624382 218.56947 
L 310.288979 218.545325 
L 311.953576 218.527307 
L 313.618173 218.514873 
L 315.28277 218.507455 
L 316.947367 218.504469 
L 318.611964 218.505323 
L 320.276561 218.509427 
L 321.941158 218.516202 
L 323.605755 218.52509 
L 325.270352 218.535568 
L 326.934949 218.547152 
L 328.599546 218.559409 
L 330.264143 218.571962 
L 331.92874 218.584494 
L 333.593337 218.596756 
L 335.257934 218.608559 
L 336.922531 218.61978 
L 338.587128 218.630358 
L 340.251725 218.640284 
L 341.916322 218.649599 
L 343.580918 218.658382 
L 345.245515 218.666744 
L 346.910112 218.674812 
L 348.574709 218.682723 
L 350.239306 218.690611 
L 351.903903 218.698597 
L 353.5685 218.706777 
L 355.233097 218.715214 
L 356.897694 218.723934 
L 358.562291 218.732913 
L 360.226888 218.742078 
L 361.891485 218.751307 
L 363.556082 218.760421 
L 365.220679 218.769194 
L 366.885276 218.777355 
L 368.549873 218.784593 
L 370.21447 218.790567 
L 371.879067 218.794913 
L 373.543664 218.797259 
L 375.208261 218.797233 
L 376.872858 218.794476 
L 378.537455 218.788655 
L 380.202052 218.779475 
L 381.866649 218.766687 
L 383.531246 218.7501 
L 385.195843 218.729588 
L 386.86044 218.705095 
L 388.525037 218.676639 
L 390.189634 218.644314 
L 391.854231 218.608288 
L 391.854231 216.361138 
L 391.854231 216.361138 
L 390.189634 216.325112 
L 388.525037 216.292787 
L 386.86044 216.264331 
L 385.195843 216.239838 
L 383.531246 216.219326 
L 381.866649 216.202739 
L 380.202052 216.189951 
L 378.537455 216.180771 
L 376.872858 216.174951 
L 375.208261 216.172194 
L 373.543664 216.172167 
L 371.879067 216.174513 
L 370.21447 216.178859 
L 368.549873 216.184833 
L 366.885276 216.192071 
L 365.220679 216.200232 
L 363.556082 216.209006 
L 361.891485 216.21812 
L 360.226888 216.227348 
L 358.562291 216.236514 
L 356.897694 216.245493 
L 355.233097 216.254212 
L 353.5685 216.26265 
L 351.903903 216.270829 
L 350.239306 216.278815 
L 348.574709 216.286704 
L 346.910112 216.294615 
L 345.245515 216.302683 
L 343.580918 216.311044 
L 341.916322 216.319828 
L 340.251725 216.329142 
L 338.587128 216.339068 
L 336.922531 216.349646 
L 335.257934 216.360868 
L 333.593337 216.372671 
L 331.92874 216.384932 
L 330.264143 216.397465 
L 328.599546 216.410018 
L 326.934949 216.422275 
L 325.270352 216.433859 
L 323.605755 216.444337 
L 321.941158 216.453225 
L 320.276561 216.459999 
L 318.611964 216.464103 
L 316.947367 216.464957 
L 315.28277 216.461971 
L 313.618173 216.454553 
L 311.953576 216.442119 
L 310.288979 216.424101 
L 308.624382 216.399957 
L 306.959785 216.369171 
L 305.295188 216.331264 
L 303.630591 216.285788 
L 301.965994 216.23233 
L 300.301397 216.170508 
L 298.6368 216.099968 
L 296.972203 216.020377 
L 295.307606 215.931416 
L 293.643009 215.832777 
L 291.978412 215.724155 
L 290.313815 215.605243 
L 288.649218 215.475731 
L 286.984621 215.335307 
L 285.320024 215.183657 
L 283.655427 215.020479 
L 281.99083 214.845489 
L 280.326233 214.658442 
L 278.661636 214.45915 
L 276.997039 214.247511 
L 275.332442 214.023534 
L 273.667845 213.787373 
L 272.003248 213.539359 
L 270.338651 213.280035 
L 268.674054 213.010187 
L 267.009457 212.730873 
L 265.344861 212.443448 
L 263.680264 212.14958 
L 262.015667 211.851264 
L 260.35107 211.550815 
L 258.686473 211.250864 
L 257.021876 210.954331 
L 255.357279 210.664392 
L 253.692682 210.384431 
L 252.028085 210.117985 
L 250.363488 209.868671 
L 248.698891 209.640115 
L 247.034294 209.435863 
L 245.369697 209.259299 
L 243.7051 209.113556 
L 242.040503 209.001431 
L 240.375906 208.925303 
L 238.711309 208.887066 
L 237.046712 208.888064 
L 235.382115 208.929048 
L 233.717518 209.010142 
L 232.052921 209.130834 
L 230.388324 209.289974 
L 228.723727 209.485801 
L 227.05913 209.715978 
z
" style="fill:#ff0000;fill-opacity:0.75;"/>
   </g>
   <g id="PolyCollection_5">
    <path clip-path="url(#p1539bad298)" d="M 227.05913 175.287503 
L 227.05913 190.900747 
L 228.723727 191.117609 
L 230.388324 191.302367 
L 232.052921 191.453 
L 233.717518 191.567983 
L 235.382115 191.646319 
L 237.046712 191.687551 
L 238.711309 191.691772 
L 240.375906 191.659607 
L 242.040503 191.592193 
L 243.7051 191.491137 
L 245.369697 191.358474 
L 247.034294 191.196602 
L 248.698891 191.008224 
L 250.363488 190.796276 
L 252.028085 190.563858 
L 253.692682 190.314159 
L 255.357279 190.050391 
L 257.021876 189.775726 
L 258.686473 189.493233 
L 260.35107 189.205833 
L 262.015667 188.916251 
L 263.680264 188.626988 
L 265.344861 188.340295 
L 267.009457 188.058157 
L 268.674054 187.782292 
L 270.338651 187.514148 
L 272.003248 187.254919 
L 273.667845 187.005552 
L 275.332442 186.766775 
L 276.997039 186.539116 
L 278.661636 186.322925 
L 280.326233 186.118407 
L 281.99083 185.925641 
L 283.655427 185.744605 
L 285.320024 185.575199 
L 286.984621 185.417262 
L 288.649218 185.270589 
L 290.313815 185.134943 
L 291.978412 185.010064 
L 293.643009 184.895674 
L 295.307606 184.791484 
L 296.972203 184.697191 
L 298.6368 184.612479 
L 300.301397 184.537019 
L 301.965994 184.470464 
L 303.630591 184.412447 
L 305.295188 184.362577 
L 306.959785 184.320441 
L 308.624382 184.285599 
L 310.288979 184.257589 
L 311.953576 184.235925 
L 313.618173 184.220101 
L 315.28277 184.209598 
L 316.947367 184.203888 
L 318.611964 184.20244 
L 320.276561 184.204729 
L 321.941158 184.210246 
L 323.605755 184.2185 
L 325.270352 184.22903 
L 326.934949 184.241412 
L 328.599546 184.255262 
L 330.264143 184.270243 
L 331.92874 184.286065 
L 333.593337 184.30249 
L 335.257934 184.31933 
L 336.922531 184.336442 
L 338.587128 184.35373 
L 340.251725 184.371134 
L 341.916322 184.388626 
L 343.580918 184.406203 
L 345.245515 184.423875 
L 346.910112 184.44166 
L 348.574709 184.459571 
L 350.239306 184.477611 
L 351.903903 184.495761 
L 353.5685 184.513974 
L 355.233097 184.532169 
L 356.897694 184.550229 
L 358.562291 184.567991 
L 360.226888 184.585254 
L 361.891485 184.601772 
L 363.556082 184.617262 
L 365.220679 184.631405 
L 366.885276 184.643857 
L 368.549873 184.654251 
L 370.21447 184.66221 
L 371.879067 184.667358 
L 373.543664 184.669326 
L 375.208261 184.66777 
L 376.872858 184.662374 
L 378.537455 184.652866 
L 380.202052 184.639026 
L 381.866649 184.620693 
L 383.531246 184.597771 
L 385.195843 184.570237 
L 386.86044 184.53814 
L 388.525037 184.501605 
L 390.189634 184.460829 
L 391.854231 184.416079 
L 391.854231 181.772171 
L 391.854231 181.772171 
L 390.189634 181.727421 
L 388.525037 181.686645 
L 386.86044 181.65011 
L 385.195843 181.618013 
L 383.531246 181.590479 
L 381.866649 181.567557 
L 380.202052 181.549224 
L 378.537455 181.535384 
L 376.872858 181.525876 
L 375.208261 181.52048 
L 373.543664 181.518924 
L 371.879067 181.520892 
L 370.21447 181.52604 
L 368.549873 181.533999 
L 366.885276 181.544393 
L 365.220679 181.556845 
L 363.556082 181.570988 
L 361.891485 181.586478 
L 360.226888 181.602996 
L 358.562291 181.620259 
L 356.897694 181.638021 
L 355.233097 181.656081 
L 353.5685 181.674276 
L 351.903903 181.692489 
L 350.239306 181.710639 
L 348.574709 181.728679 
L 346.910112 181.74659 
L 345.245515 181.764375 
L 343.580918 181.782047 
L 341.916322 181.799624 
L 340.251725 181.817116 
L 338.587128 181.83452 
L 336.922531 181.851808 
L 335.257934 181.86892 
L 333.593337 181.88576 
L 331.92874 181.902185 
L 330.264143 181.918007 
L 328.599546 181.932988 
L 326.934949 181.946838 
L 325.270352 181.95922 
L 323.605755 181.96975 
L 321.941158 181.978004 
L 320.276561 181.983521 
L 318.611964 181.98581 
L 316.947367 181.984362 
L 315.28277 181.978652 
L 313.618173 181.968149 
L 311.953576 181.952325 
L 310.288979 181.930661 
L 308.624382 181.902651 
L 306.959785 181.867809 
L 305.295188 181.825673 
L 303.630591 181.775803 
L 301.965994 181.717786 
L 300.301397 181.651231 
L 298.6368 181.575771 
L 296.972203 181.491059 
L 295.307606 181.396766 
L 293.643009 181.292576 
L 291.978412 181.178186 
L 290.313815 181.053307 
L 288.649218 180.917661 
L 286.984621 180.770988 
L 285.320024 180.613051 
L 283.655427 180.443645 
L 281.99083 180.262609 
L 280.326233 180.069843 
L 278.661636 179.865325 
L 276.997039 179.649134 
L 275.332442 179.421475 
L 273.667845 179.182698 
L 272.003248 178.933331 
L 270.338651 178.674102 
L 268.674054 178.405958 
L 267.009457 178.130093 
L 265.344861 177.847955 
L 263.680264 177.561262 
L 262.015667 177.271999 
L 260.35107 176.982417 
L 258.686473 176.695017 
L 257.021876 176.412524 
L 255.357279 176.137859 
L 253.692682 175.874091 
L 252.028085 175.624392 
L 250.363488 175.391974 
L 248.698891 175.180026 
L 247.034294 174.991648 
L 245.369697 174.829776 
L 243.7051 174.697113 
L 242.040503 174.596057 
L 240.375906 174.528643 
L 238.711309 174.496478 
L 237.046712 174.500699 
L 235.382115 174.541931 
L 233.717518 174.620267 
L 232.052921 174.73525 
L 230.388324 174.885883 
L 228.723727 175.070641 
L 227.05913 175.287503 
z
" style="fill:#ff0000;fill-opacity:0.75;"/>
   </g>
   <g id="PolyCollection_6">
    <path clip-path="url(#p1539bad298)" d="M 227.85935 141.473495 
L 227.85935 155.933578 
L 230.147732 156.264495 
L 232.436114 156.555795 
L 234.724497 156.803118 
L 237.012879 157.003081 
L 239.301261 157.153366 
L 241.589643 157.252764 
L 243.878025 157.301184 
L 246.166408 157.299604 
L 248.45479 157.249993 
L 250.743172 157.155199 
L 253.031554 157.018806 
L 255.319936 156.844978 
L 257.608319 156.638297 
L 259.896701 156.403594 
L 262.185083 156.145793 
L 264.473465 155.869773 
L 266.761847 155.580239 
L 269.05023 155.281624 
L 271.338612 154.97801 
L 273.626994 154.673081 
L 275.915376 154.370085 
L 278.203758 154.071833 
L 280.492141 153.7807 
L 282.780523 153.498648 
L 285.068905 153.227258 
L 287.357287 152.967766 
L 289.645669 152.721104 
L 291.934052 152.487939 
L 294.222434 152.268713 
L 296.510816 152.063677 
L 298.799198 151.872927 
L 301.08758 151.69642 
L 303.375963 151.53401 
L 305.664345 151.385452 
L 307.952727 151.250426 
L 310.241109 151.128543 
L 312.529491 151.019356 
L 314.817874 150.922364 
L 317.106256 150.83702 
L 319.394638 150.762734 
L 321.68302 150.69888 
L 323.971402 150.644795 
L 326.259785 150.599785 
L 328.548167 150.563127 
L 330.836549 150.534069 
L 333.124931 150.511831 
L 335.413313 150.495608 
L 337.701696 150.484566 
L 339.990078 150.477849 
L 342.27846 150.474573 
L 344.566842 150.473834 
L 346.855224 150.474712 
L 349.143607 150.476276 
L 351.431989 150.477597 
L 353.720371 150.47776 
L 356.008753 150.475884 
L 358.297135 150.471134 
L 360.585518 150.462748 
L 362.8739 150.450058 
L 365.162282 150.432509 
L 367.450664 150.40968 
L 369.739047 150.381302 
L 372.027429 150.347266 
L 374.315811 150.307632 
L 376.604193 150.262627 
L 378.892575 150.212642 
L 381.180958 150.15821 
L 383.46934 150.099995 
L 385.757722 150.038759 
L 388.046104 149.975338 
L 390.334486 149.910607 
L 392.622869 149.845449 
L 394.911251 149.780722 
L 397.199633 149.717232 
L 399.488015 149.655709 
L 401.776397 149.596784 
L 404.06478 149.540977 
L 406.353162 149.488689 
L 408.641544 149.440199 
L 410.929926 149.395667 
L 413.218308 149.355142 
L 415.506691 149.318572 
L 417.795073 149.285816 
L 420.083455 149.256662 
L 422.371837 149.230839 
L 424.660219 149.208031 
L 426.948602 149.187893 
L 429.236984 149.170061 
L 431.525366 149.154162 
L 433.813748 149.139828 
L 436.10213 149.126696 
L 438.390513 149.114422 
L 440.678895 149.102682 
L 442.967277 149.091178 
L 445.255659 149.079647 
L 447.544041 149.067858 
L 449.832424 149.055623 
L 452.120806 149.042796 
L 454.409188 149.029275 
L 454.409188 148.377799 
L 454.409188 148.377799 
L 452.120806 148.364278 
L 449.832424 148.35145 
L 447.544041 148.339215 
L 445.255659 148.327427 
L 442.967277 148.315895 
L 440.678895 148.304392 
L 438.390513 148.292651 
L 436.10213 148.280377 
L 433.813748 148.267245 
L 431.525366 148.252911 
L 429.236984 148.237013 
L 426.948602 148.219181 
L 424.660219 148.199042 
L 422.371837 148.176234 
L 420.083455 148.150411 
L 417.795073 148.121258 
L 415.506691 148.088502 
L 413.218308 148.051932 
L 410.929926 148.011407 
L 408.641544 147.966875 
L 406.353162 147.918385 
L 404.06478 147.866096 
L 401.776397 147.810289 
L 399.488015 147.751364 
L 397.199633 147.689841 
L 394.911251 147.626352 
L 392.622869 147.561625 
L 390.334486 147.496467 
L 388.046104 147.431735 
L 385.757722 147.368314 
L 383.46934 147.307079 
L 381.180958 147.248863 
L 378.892575 147.194432 
L 376.604193 147.144446 
L 374.315811 147.099442 
L 372.027429 147.059808 
L 369.739047 147.025771 
L 367.450664 146.997393 
L 365.162282 146.974565 
L 362.8739 146.957016 
L 360.585518 146.944326 
L 358.297135 146.93594 
L 356.008753 146.93119 
L 353.720371 146.929313 
L 351.431989 146.929477 
L 349.143607 146.930798 
L 346.855224 146.932362 
L 344.566842 146.933239 
L 342.27846 146.932501 
L 339.990078 146.929225 
L 337.701696 146.922507 
L 335.413313 146.911466 
L 333.124931 146.895243 
L 330.836549 146.873005 
L 328.548167 146.843947 
L 326.259785 146.807289 
L 323.971402 146.762279 
L 321.68302 146.708194 
L 319.394638 146.64434 
L 317.106256 146.570054 
L 314.817874 146.48471 
L 312.529491 146.387717 
L 310.241109 146.27853 
L 307.952727 146.156648 
L 305.664345 146.021622 
L 303.375963 145.873064 
L 301.08758 145.710653 
L 298.799198 145.534147 
L 296.510816 145.343396 
L 294.222434 145.138361 
L 291.934052 144.919135 
L 289.645669 144.68597 
L 287.357287 144.439308 
L 285.068905 144.179816 
L 282.780523 143.908426 
L 280.492141 143.626374 
L 278.203758 143.33524 
L 275.915376 143.036988 
L 273.626994 142.733993 
L 271.338612 142.429063 
L 269.05023 142.12545 
L 266.761847 141.826834 
L 264.473465 141.5373 
L 262.185083 141.26128 
L 259.896701 141.00348 
L 257.608319 140.768776 
L 255.319936 140.562095 
L 253.031554 140.388267 
L 250.743172 140.251874 
L 248.45479 140.15708 
L 246.166408 140.10747 
L 243.878025 140.10589 
L 241.589643 140.154309 
L 239.301261 140.253708 
L 237.012879 140.403992 
L 234.724497 140.603955 
L 232.436114 140.851279 
L 230.147732 141.142579 
L 227.85935 141.473495 
z
" style="fill:#ff0000;fill-opacity:0.75;"/>
   </g>
   <g id="PolyCollection_7">
    <path clip-path="url(#p1539bad298)" d="M 226.884813 106.191043 
L 226.884813 122.434855 
L 228.664055 122.609639 
L 230.443297 122.74577 
L 232.22254 122.841752 
L 234.001782 122.896747 
L 235.781025 122.910596 
L 237.560267 122.883809 
L 239.33951 122.817555 
L 241.118752 122.713618 
L 242.897995 122.574342 
L 244.677237 122.402567 
L 246.45648 122.201545 
L 248.235722 121.974852 
L 250.014965 121.726293 
L 251.794207 121.459805 
L 253.573449 121.179365 
L 255.352692 120.888892 
L 257.131934 120.59217 
L 258.911177 120.292767 
L 260.690419 119.993977 
L 262.469662 119.698765 
L 264.248904 119.40973 
L 266.028147 119.129084 
L 267.807389 118.858638 
L 269.586632 118.599804 
L 271.365874 118.353613 
L 273.145116 118.120732 
L 274.924359 117.901497 
L 276.703601 117.695951 
L 278.482844 117.503888 
L 280.262086 117.324888 
L 282.041329 117.158372 
L 283.820571 117.003637 
L 285.599814 116.859901 
L 287.379056 116.726337 
L 289.158299 116.602111 
L 290.937541 116.486404 
L 292.716783 116.378442 
L 294.496026 116.277507 
L 296.275268 116.182954 
L 298.054511 116.094219 
L 299.833753 116.010822 
L 301.612996 115.932369 
L 303.392238 115.85855 
L 305.171481 115.789132 
L 306.950723 115.723957 
L 308.729966 115.662931 
L 310.509208 115.606015 
L 312.28845 115.553219 
L 314.067693 115.504595 
L 315.846935 115.460221 
L 317.626178 115.4202 
L 319.40542 115.38465 
L 321.184663 115.353691 
L 322.963905 115.327446 
L 324.743148 115.306026 
L 326.52239 115.289529 
L 328.301633 115.278028 
L 330.080875 115.271567 
L 331.860117 115.270156 
L 333.63936 115.273763 
L 335.418602 115.282309 
L 337.197845 115.295664 
L 338.977087 115.313642 
L 340.75633 115.336001 
L 342.535572 115.362437 
L 344.314815 115.392588 
L 346.094057 115.426032 
L 347.8733 115.462293 
L 349.652542 115.500841 
L 351.431784 115.541105 
L 353.211027 115.582472 
L 354.990269 115.624302 
L 356.769512 115.665937 
L 358.548754 115.706707 
L 360.327997 115.74595 
L 362.107239 115.783016 
L 363.886482 115.81728 
L 365.665724 115.848158 
L 367.444967 115.875111 
L 369.224209 115.897656 
L 371.003451 115.915377 
L 372.782694 115.927926 
L 374.561936 115.935034 
L 376.341179 115.936509 
L 378.120421 115.932239 
L 379.899664 115.922193 
L 381.678906 115.906418 
L 383.458149 115.885034 
L 385.237391 115.858234 
L 387.016634 115.826272 
L 388.795876 115.789464 
L 390.575118 115.748173 
L 392.354361 115.702807 
L 394.133603 115.653807 
L 395.912846 115.601642 
L 397.692088 115.5468 
L 399.471331 115.489779 
L 401.250573 115.43108 
L 403.029816 115.3712 
L 403.029816 113.254697 
L 403.029816 113.254697 
L 401.250573 113.194817 
L 399.471331 113.136118 
L 397.692088 113.079097 
L 395.912846 113.024255 
L 394.133603 112.97209 
L 392.354361 112.923091 
L 390.575118 112.877724 
L 388.795876 112.836433 
L 387.016634 112.799625 
L 385.237391 112.767664 
L 383.458149 112.740863 
L 381.678906 112.719479 
L 379.899664 112.703704 
L 378.120421 112.693658 
L 376.341179 112.689388 
L 374.561936 112.690863 
L 372.782694 112.697971 
L 371.003451 112.71052 
L 369.224209 112.728241 
L 367.444967 112.750786 
L 365.665724 112.777739 
L 363.886482 112.808617 
L 362.107239 112.842881 
L 360.327997 112.879947 
L 358.548754 112.91919 
L 356.769512 112.95996 
L 354.990269 113.001595 
L 353.211027 113.043425 
L 351.431784 113.084792 
L 349.652542 113.125056 
L 347.8733 113.163604 
L 346.094057 113.199865 
L 344.314815 113.233309 
L 342.535572 113.26346 
L 340.75633 113.289896 
L 338.977087 113.312255 
L 337.197845 113.330233 
L 335.418602 113.343588 
L 333.63936 113.352134 
L 331.860117 113.355741 
L 330.080875 113.35433 
L 328.301633 113.347869 
L 326.52239 113.336368 
L 324.743148 113.319871 
L 322.963905 113.298451 
L 321.184663 113.272206 
L 319.40542 113.241247 
L 317.626178 113.205697 
L 315.846935 113.165676 
L 314.067693 113.121302 
L 312.28845 113.072678 
L 310.509208 113.019883 
L 308.729966 112.962966 
L 306.950723 112.90194 
L 305.171481 112.836765 
L 303.392238 112.767347 
L 301.612996 112.693528 
L 299.833753 112.615076 
L 298.054511 112.531678 
L 296.275268 112.442943 
L 294.496026 112.34839 
L 292.716783 112.247455 
L 290.937541 112.139493 
L 289.158299 112.023786 
L 287.379056 111.89956 
L 285.599814 111.765996 
L 283.820571 111.62226 
L 282.041329 111.467525 
L 280.262086 111.301009 
L 278.482844 111.122009 
L 276.703601 110.929946 
L 274.924359 110.724401 
L 273.145116 110.505165 
L 271.365874 110.272284 
L 269.586632 110.026093 
L 267.807389 109.767259 
L 266.028147 109.496813 
L 264.248904 109.216167 
L 262.469662 108.927132 
L 260.690419 108.63192 
L 258.911177 108.33313 
L 257.131934 108.033727 
L 255.352692 107.737005 
L 253.573449 107.446532 
L 251.794207 107.166092 
L 250.014965 106.899604 
L 248.235722 106.651045 
L 246.45648 106.424352 
L 244.677237 106.22333 
L 242.897995 106.051555 
L 241.118752 105.91228 
L 239.33951 105.808342 
L 237.560267 105.742088 
L 235.781025 105.715301 
L 234.001782 105.72915 
L 232.22254 105.784145 
L 230.443297 105.880127 
L 228.664055 106.016258 
L 226.884813 106.191043 
z
" style="fill:#ff0000;fill-opacity:0.75;"/>
   </g>
   <g id="PolyCollection_8">
    <path clip-path="url(#p1539bad298)" d="M 227.847756 72.778686 
L 227.847756 87.066035 
L 229.767037 87.439891 
L 231.686318 87.767655 
L 233.605599 88.042429 
L 235.52488 88.25852 
L 237.444161 88.411657 
L 239.363442 88.499155 
L 241.282723 88.520007 
L 243.202004 88.474908 
L 245.121285 88.366203 
L 247.040566 88.197771 
L 248.959847 87.974845 
L 250.879128 87.703786 
L 252.798409 87.391817 
L 254.71769 87.04674 
L 256.636971 86.676646 
L 258.556252 86.289632 
L 260.475533 85.893541 
L 262.394814 85.495732 
L 264.314095 85.102893 
L 266.233376 84.720892 
L 268.152657 84.354684 
L 270.071938 84.008254 
L 271.991219 83.68461 
L 273.9105 83.38581 
L 275.829781 83.113027 
L 277.749062 82.866629 
L 279.668343 82.646289 
L 281.587624 82.4511 
L 283.506905 82.279692 
L 285.426186 82.130357 
L 287.345467 82.001157 
L 289.264748 81.890031 
L 291.184029 81.794881 
L 293.10331 81.71365 
L 295.022591 81.644376 
L 296.941872 81.585236 
L 298.861153 81.534568 
L 300.780434 81.490884 
L 302.699715 81.452866 
L 304.618997 81.419358 
L 306.538278 81.389342 
L 308.457559 81.361923 
L 310.37684 81.336302 
L 312.296121 81.311759 
L 314.215402 81.287635 
L 316.134683 81.263327 
L 318.053964 81.238279 
L 319.973245 81.211994 
L 321.892526 81.184038 
L 323.811807 81.154056 
L 325.731088 81.121794 
L 327.650369 81.087108 
L 329.56965 81.049987 
L 331.488931 81.010555 
L 333.408212 80.969082 
L 335.327493 80.925973 
L 337.246774 80.881762 
L 339.166055 80.837084 
L 341.085336 80.792654 
L 343.004617 80.749229 
L 344.923898 80.707574 
L 346.843179 80.668424 
L 348.76246 80.632443 
L 350.681741 80.6002 
L 352.601022 80.57213 
L 354.520303 80.548525 
L 356.439584 80.529514 
L 358.358865 80.515061 
L 360.278146 80.504973 
L 362.197427 80.498909 
L 364.116708 80.4964 
L 366.035989 80.496873 
L 367.95527 80.499682 
L 369.874551 80.504136 
L 371.793832 80.509531 
L 373.713113 80.515177 
L 375.632394 80.520432 
L 377.551675 80.524716 
L 379.470956 80.527539 
L 381.390237 80.528508 
L 383.309518 80.52734 
L 385.228799 80.52386 
L 387.14808 80.518 
L 389.067361 80.509788 
L 390.986642 80.499341 
L 392.905923 80.486841 
L 394.825204 80.472524 
L 396.744485 80.456658 
L 398.663766 80.439524 
L 400.583047 80.421399 
L 402.502328 80.402542 
L 404.421609 80.383184 
L 406.34089 80.363517 
L 408.260171 80.343692 
L 410.179452 80.323819 
L 412.098733 80.303973 
L 414.018014 80.284195 
L 415.937295 80.264508 
L 417.856576 80.244917 
L 417.856576 79.599804 
L 417.856576 79.599804 
L 415.937295 79.580213 
L 414.018014 79.560525 
L 412.098733 79.540748 
L 410.179452 79.520902 
L 408.260171 79.501029 
L 406.34089 79.481204 
L 404.421609 79.461536 
L 402.502328 79.442178 
L 400.583047 79.423322 
L 398.663766 79.405197 
L 396.744485 79.388063 
L 394.825204 79.372196 
L 392.905923 79.35788 
L 390.986642 79.34538 
L 389.067361 79.334932 
L 387.14808 79.326721 
L 385.228799 79.32086 
L 383.309518 79.31738 
L 381.390237 79.316212 
L 379.470956 79.317182 
L 377.551675 79.320005 
L 375.632394 79.324289 
L 373.713113 79.329543 
L 371.793832 79.33519 
L 369.874551 79.340584 
L 367.95527 79.345039 
L 366.035989 79.347848 
L 364.116708 79.348321 
L 362.197427 79.345811 
L 360.278146 79.339747 
L 358.358865 79.329659 
L 356.439584 79.315207 
L 354.520303 79.296195 
L 352.601022 79.27259 
L 350.681741 79.244521 
L 348.76246 79.212277 
L 346.843179 79.176297 
L 344.923898 79.137146 
L 343.004617 79.095492 
L 341.085336 79.052067 
L 339.166055 79.007637 
L 337.246774 78.962959 
L 335.327493 78.918747 
L 333.408212 78.875639 
L 331.488931 78.834166 
L 329.56965 78.794734 
L 327.650369 78.757612 
L 325.731088 78.722927 
L 323.811807 78.690664 
L 321.892526 78.660683 
L 319.973245 78.632726 
L 318.053964 78.606441 
L 316.134683 78.581394 
L 314.215402 78.557085 
L 312.296121 78.532962 
L 310.37684 78.508419 
L 308.457559 78.482798 
L 306.538278 78.455379 
L 304.618997 78.425363 
L 302.699715 78.391854 
L 300.780434 78.353837 
L 298.861153 78.310152 
L 296.941872 78.259484 
L 295.022591 78.200344 
L 293.10331 78.131071 
L 291.184029 78.04984 
L 289.264748 77.95469 
L 287.345467 77.843563 
L 285.426186 77.714364 
L 283.506905 77.565028 
L 281.587624 77.393621 
L 279.668343 77.198431 
L 277.749062 76.978092 
L 275.829781 76.731694 
L 273.9105 76.45891 
L 271.991219 76.160111 
L 270.071938 75.836466 
L 268.152657 75.490036 
L 266.233376 75.123828 
L 264.314095 74.741827 
L 262.394814 74.348988 
L 260.475533 73.951179 
L 258.556252 73.555088 
L 256.636971 73.168074 
L 254.71769 72.797981 
L 252.798409 72.452904 
L 250.879128 72.140934 
L 248.959847 71.869875 
L 247.040566 71.64695 
L 245.121285 71.478518 
L 243.202004 71.369813 
L 241.282723 71.324713 
L 239.363442 71.345565 
L 237.444161 71.433063 
L 235.52488 71.586201 
L 233.605599 71.802291 
L 231.686318 72.077066 
L 229.767037 72.40483 
L 227.847756 72.778686 
z
" style="fill:#ff0000;fill-opacity:0.75;"/>
   </g>
   <g id="PolyCollection_9">
    <path clip-path="url(#p1539bad298)" d="M 226.75251 37.693208 
L 226.75251 53.370336 
L 228.465794 53.639252 
L 230.179077 53.85275 
L 231.892361 54.006968 
L 233.605644 54.099489 
L 235.318928 54.129419 
L 237.032212 54.0974 
L 238.745495 54.005556 
L 240.458779 53.857384 
L 242.172062 53.657587 
L 243.885346 53.411864 
L 245.598629 53.126675 
L 247.311913 52.808979 
L 249.025197 52.465978 
L 250.73848 52.10486 
L 252.451764 51.732574 
L 254.165047 51.355626 
L 255.878331 50.979917 
L 257.591615 50.610623 
L 259.304898 50.252116 
L 261.018182 49.907929 
L 262.731465 49.580758 
L 264.444749 49.272497 
L 266.158032 48.984303 
L 267.871316 48.716676 
L 269.5846 48.469558 
L 271.297883 48.242432 
L 273.011167 48.034427 
L 274.72445 47.844411 
L 276.437734 47.671086 
L 278.151017 47.513059 
L 279.864301 47.368909 
L 281.577585 47.237243 
L 283.290868 47.11673 
L 285.004152 47.006133 
L 286.717435 46.904327 
L 288.430719 46.810309 
L 290.144002 46.723201 
L 291.857286 46.642251 
L 293.57057 46.566823 
L 295.283853 46.496397 
L 296.997137 46.43055 
L 298.71042 46.368953 
L 300.423704 46.311355 
L 302.136987 46.257568 
L 303.850271 46.207459 
L 305.563555 46.160936 
L 307.276838 46.117929 
L 308.990122 46.078387 
L 310.703405 46.042257 
L 312.416689 46.00948 
L 314.129972 45.979982 
L 315.843256 45.953665 
L 317.55654 45.930407 
L 319.269823 45.910059 
L 320.983107 45.892445 
L 322.69639 45.877372 
L 324.409674 45.86463 
L 326.122957 45.854002 
L 327.836241 45.845277 
L 329.549525 45.838251 
L 331.262808 45.832743 
L 332.976092 45.828597 
L 334.689375 45.825691 
L 336.402659 45.823941 
L 338.115942 45.8233 
L 339.829226 45.823756 
L 341.54251 45.825334 
L 343.255793 45.828082 
L 344.969077 45.832073 
L 346.68236 45.83739 
L 348.395644 45.84412 
L 350.108927 45.852341 
L 351.822211 45.862121 
L 353.535495 45.873502 
L 355.248778 45.886495 
L 356.962062 45.901076 
L 358.675345 45.91718 
L 360.388629 45.934694 
L 362.101912 45.953463 
L 363.815196 45.973281 
L 365.52848 45.993893 
L 367.241763 46.015004 
L 368.955047 46.036271 
L 370.66833 46.057319 
L 372.381614 46.07774 
L 374.094897 46.097104 
L 375.808181 46.114972 
L 377.521465 46.130901 
L 379.234748 46.144461 
L 380.948032 46.155248 
L 382.661315 46.162899 
L 384.374599 46.167101 
L 386.087882 46.167609 
L 387.801166 46.164255 
L 389.51445 46.156954 
L 391.227733 46.145714 
L 392.941017 46.130635 
L 394.6543 46.111909 
L 396.367584 46.089813 
L 396.367584 44.973731 
L 396.367584 44.973731 
L 394.6543 44.951635 
L 392.941017 44.932909 
L 391.227733 44.91783 
L 389.51445 44.90659 
L 387.801166 44.899289 
L 386.087882 44.895935 
L 384.374599 44.896443 
L 382.661315 44.900645 
L 380.948032 44.908296 
L 379.234748 44.919084 
L 377.521465 44.932644 
L 375.808181 44.948572 
L 374.094897 44.96644 
L 372.381614 44.985805 
L 370.66833 45.006225 
L 368.955047 45.027273 
L 367.241763 45.048541 
L 365.52848 45.069651 
L 363.815196 45.090264 
L 362.101912 45.110081 
L 360.388629 45.12885 
L 358.675345 45.146365 
L 356.962062 45.162468 
L 355.248778 45.177049 
L 353.535495 45.190042 
L 351.822211 45.201423 
L 350.108927 45.211203 
L 348.395644 45.219425 
L 346.68236 45.226154 
L 344.969077 45.231471 
L 343.255793 45.235462 
L 341.54251 45.238211 
L 339.829226 45.239788 
L 338.115942 45.240244 
L 336.402659 45.239603 
L 334.689375 45.237853 
L 332.976092 45.234947 
L 331.262808 45.230801 
L 329.549525 45.225293 
L 327.836241 45.218267 
L 326.122957 45.209542 
L 324.409674 45.198915 
L 322.69639 45.186172 
L 320.983107 45.171099 
L 319.269823 45.153485 
L 317.55654 45.133137 
L 315.843256 45.109879 
L 314.129972 45.083562 
L 312.416689 45.054064 
L 310.703405 45.021288 
L 308.990122 44.985157 
L 307.276838 44.945615 
L 305.563555 44.902608 
L 303.850271 44.856085 
L 302.136987 44.805976 
L 300.423704 44.75219 
L 298.71042 44.694591 
L 296.997137 44.632994 
L 295.283853 44.567147 
L 293.57057 44.496721 
L 291.857286 44.421293 
L 290.144002 44.340343 
L 288.430719 44.253235 
L 286.717435 44.159217 
L 285.004152 44.057411 
L 283.290868 43.946814 
L 281.577585 43.826301 
L 279.864301 43.694635 
L 278.151017 43.550485 
L 276.437734 43.392458 
L 274.72445 43.219133 
L 273.011167 43.029118 
L 271.297883 42.821112 
L 269.5846 42.593987 
L 267.871316 42.346868 
L 266.158032 42.079241 
L 264.444749 41.791047 
L 262.731465 41.482786 
L 261.018182 41.155615 
L 259.304898 40.811428 
L 257.591615 40.452922 
L 255.878331 40.083627 
L 254.165047 39.707918 
L 252.451764 39.33097 
L 250.73848 38.958684 
L 249.025197 38.597566 
L 247.311913 38.254565 
L 245.598629 37.936869 
L 243.885346 37.65168 
L 242.172062 37.405958 
L 240.458779 37.20616 
L 238.745495 37.057988 
L 237.032212 36.966144 
L 235.318928 36.934125 
L 233.605644 36.964055 
L 231.892361 37.056576 
L 230.179077 37.210794 
L 228.465794 37.424292 
L 226.75251 37.693208 
z
" style="fill:#ff0000;fill-opacity:0.75;"/>
   </g>
   <g id="LineCollection_1">
    <path clip-path="url(#p1539bad298)" d="M 265.488727 324.955301 
L 265.488727 316.357654 
" style="fill:none;stroke:#000000;stroke-width:1.5;"/>
    <path clip-path="url(#p1539bad298)" d="M 260.890472 290.564713 
L 260.890472 281.967066 
" style="fill:none;stroke:#000000;stroke-width:1.5;"/>
    <path clip-path="url(#p1539bad298)" d="M 266.916281 256.174125 
L 266.916281 247.576478 
" style="fill:none;stroke:#000000;stroke-width:1.5;"/>
    <path clip-path="url(#p1539bad298)" d="M 263.859203 221.783537 
L 263.859203 213.18589 
" style="fill:none;stroke:#000000;stroke-width:1.5;"/>
    <path clip-path="url(#p1539bad298)" d="M 266.078557 187.392949 
L 266.078557 178.795301 
" style="fill:none;stroke:#000000;stroke-width:1.5;"/>
    <path clip-path="url(#p1539bad298)" d="M 275.30436 153.00236 
L 275.30436 144.404713 
" style="fill:none;stroke:#000000;stroke-width:1.5;"/>
    <path clip-path="url(#p1539bad298)" d="M 264.801027 118.611772 
L 264.801027 110.014125 
" style="fill:none;stroke:#000000;stroke-width:1.5;"/>
    <path clip-path="url(#p1539bad298)" d="M 262.325023 84.221184 
L 262.325023 75.623537 
" style="fill:none;stroke:#000000;stroke-width:1.5;"/>
    <path clip-path="url(#p1539bad298)" d="M 252.17709 49.830596 
L 252.17709 41.232949 
" style="fill:none;stroke:#000000;stroke-width:1.5;"/>
   </g>
   <g id="patch_3">
    <path d="M 226.746875 343.870125 
L 226.746875 22.318125 
" style="fill:none;stroke:#000000;stroke-linecap:square;stroke-linejoin:miter;stroke-width:0.8;"/>
   </g>
   <g id="patch_4">
    <path d="M 617.346875 343.870125 
L 617.346875 22.318125 
" style="fill:none;stroke:#000000;stroke-linecap:square;stroke-linejoin:miter;stroke-width:0.8;"/>
   </g>
   <g id="patch_5">
    <path d="M 226.746875 343.870125 
L 617.346875 343.870125 
" style="fill:none;stroke:#000000;stroke-linecap:square;stroke-linejoin:miter;stroke-width:0.8;"/>
   </g>
   <g id="patch_6">
    <path d="M 226.746875 22.318125 
L 617.346875 22.318125 
" style="fill:none;stroke:#000000;stroke-linecap:square;stroke-linejoin:miter;stroke-width:0.8;"/>
   </g>
   <g id="text_18">
    <!-- AOE2 for 1.0 -->
    <g transform="translate(384.005938 16.318125)scale(0.12 -0.12)">
     <use xlink:href="#DejaVuSans-41"/>
     <use x="68.392578" xlink:href="#DejaVuSans-4f"/>
     <use x="147.103516" xlink:href="#DejaVuSans-45"/>
     <use x="210.287109" xlink:href="#DejaVuSans-32"/>
     <use x="273.910156" xlink:href="#DejaVuSans-20"/>
     <use x="305.697266" xlink:href="#DejaVuSans-66"/>
     <use x="340.902344" xlink:href="#DejaVuSans-6f"/>
     <use x="402.083984" xlink:href="#DejaVuSans-72"/>
     <use x="443.197266" xlink:href="#DejaVuSans-20"/>
     <use x="474.984375" xlink:href="#DejaVuSans-31"/>
     <use x="538.607422" xlink:href="#DejaVuSans-2e"/>
     <use x="570.394531" xlink:href="#DejaVuSans-30"/>
    </g>
   </g>
  </g>
 </g>
 <defs>
  <clipPath id="p1539bad298">
   <rect height="321.552" width="390.6" x="226.746875" y="22.318125"/>
  </clipPath>
 </defs>
</svg>
