<?xml version="1.0" encoding="utf-8" standalone="no"?>
<!DOCTYPE svg PUBLIC "-//W3C//DTD SVG 1.1//EN"
  "http://www.w3.org/Graphics/SVG/1.1/DTD/svg11.dtd">
<!-- Created with matplotlib (http://matplotlib.org/) -->
<svg height="370.338375pt" version="1.1" viewBox="0 0 632.498437 370.338375" width="632.498437pt" xmlns="http://www.w3.org/2000/svg" xmlns:xlink="http://www.w3.org/1999/xlink">
 <defs>
  <style type="text/css">
*{stroke-linecap:butt;stroke-linejoin:round;}
  </style>
 </defs>
 <g id="figure_1">
  <g id="patch_1">
   <path d="M -0 370.338375 
L 632.498438 370.338375 
L 632.498438 0 
L -0 0 
z
" style="fill:#ffffff;"/>
  </g>
  <g id="axes_1">
   <g id="patch_2">
    <path d="M 226.746875 332.782125 
L 617.346875 332.782125 
L 617.346875 22.318125 
L 226.746875 22.318125 
z
" style="fill:#ffffff;"/>
   </g>
   <g id="matplotlib.axis_1">
    <g id="xtick_1">
     <g id="line2d_1">
      <path clip-path="url(#pba66a49fef)" d="M 226.746875 332.782125 
L 226.746875 22.318125 
" style="fill:none;stroke:#b0b0b0;stroke-linecap:square;stroke-width:0.8;"/>
     </g>
     <g id="line2d_2">
      <defs>
       <path d="M 0 0 
L 0 3.5 
" id="m7df5869771" style="stroke:#000000;stroke-width:0.8;"/>
      </defs>
      <g>
       <use style="stroke:#000000;stroke-width:0.8;" x="226.746875" xlink:href="#m7df5869771" y="332.782125"/>
      </g>
     </g>
     <g id="text_1">
      <!-- 0.0 -->
      <defs>
       <path d="M 31.78125 66.40625 
Q 24.171875 66.40625 20.328125 58.90625 
Q 16.5 51.421875 16.5 36.375 
Q 16.5 21.390625 20.328125 13.890625 
Q 24.171875 6.390625 31.78125 6.390625 
Q 39.453125 6.390625 43.28125 13.890625 
Q 47.125 21.390625 47.125 36.375 
Q 47.125 51.421875 43.28125 58.90625 
Q 39.453125 66.40625 31.78125 66.40625 
z
M 31.78125 74.21875 
Q 44.046875 74.21875 50.515625 64.515625 
Q 56.984375 54.828125 56.984375 36.375 
Q 56.984375 17.96875 50.515625 8.265625 
Q 44.046875 -1.421875 31.78125 -1.421875 
Q 19.53125 -1.421875 13.0625 8.265625 
Q 6.59375 17.96875 6.59375 36.375 
Q 6.59375 54.828125 13.0625 64.515625 
Q 19.53125 74.21875 31.78125 74.21875 
z
" id="DejaVuSans-30"/>
       <path d="M 10.6875 12.40625 
L 21 12.40625 
L 21 0 
L 10.6875 0 
z
" id="DejaVuSans-2e"/>
      </defs>
      <g transform="translate(218.795312 347.380562)scale(0.1 -0.1)">
       <use xlink:href="#DejaVuSans-30"/>
       <use x="63.623047" xlink:href="#DejaVuSans-2e"/>
       <use x="95.410156" xlink:href="#DejaVuSans-30"/>
      </g>
     </g>
    </g>
    <g id="xtick_2">
     <g id="line2d_3">
      <path clip-path="url(#pba66a49fef)" d="M 304.866875 332.782125 
L 304.866875 22.318125 
" style="fill:none;stroke:#b0b0b0;stroke-linecap:square;stroke-width:0.8;"/>
     </g>
     <g id="line2d_4">
      <g>
       <use style="stroke:#000000;stroke-width:0.8;" x="304.866875" xlink:href="#m7df5869771" y="332.782125"/>
      </g>
     </g>
     <g id="text_2">
      <!-- 0.1 -->
      <defs>
       <path d="M 12.40625 8.296875 
L 28.515625 8.296875 
L 28.515625 63.921875 
L 10.984375 60.40625 
L 10.984375 69.390625 
L 28.421875 72.90625 
L 38.28125 72.90625 
L 38.28125 8.296875 
L 54.390625 8.296875 
L 54.390625 0 
L 12.40625 0 
z
" id="DejaVuSans-31"/>
      </defs>
      <g transform="translate(296.915312 347.380562)scale(0.1 -0.1)">
       <use xlink:href="#DejaVuSans-30"/>
       <use x="63.623047" xlink:href="#DejaVuSans-2e"/>
       <use x="95.410156" xlink:href="#DejaVuSans-31"/>
      </g>
     </g>
    </g>
    <g id="xtick_3">
     <g id="line2d_5">
      <path clip-path="url(#pba66a49fef)" d="M 382.986875 332.782125 
L 382.986875 22.318125 
" style="fill:none;stroke:#b0b0b0;stroke-linecap:square;stroke-width:0.8;"/>
     </g>
     <g id="line2d_6">
      <g>
       <use style="stroke:#000000;stroke-width:0.8;" x="382.986875" xlink:href="#m7df5869771" y="332.782125"/>
      </g>
     </g>
     <g id="text_3">
      <!-- 0.2 -->
      <defs>
       <path d="M 19.1875 8.296875 
L 53.609375 8.296875 
L 53.609375 0 
L 7.328125 0 
L 7.328125 8.296875 
Q 12.9375 14.109375 22.625 23.890625 
Q 32.328125 33.6875 34.8125 36.53125 
Q 39.546875 41.84375 41.421875 45.53125 
Q 43.3125 49.21875 43.3125 52.78125 
Q 43.3125 58.59375 39.234375 62.25 
Q 35.15625 65.921875 28.609375 65.921875 
Q 23.96875 65.921875 18.8125 64.3125 
Q 13.671875 62.703125 7.8125 59.421875 
L 7.8125 69.390625 
Q 13.765625 71.78125 18.9375 73 
Q 24.125 74.21875 28.421875 74.21875 
Q 39.75 74.21875 46.484375 68.546875 
Q 53.21875 62.890625 53.21875 53.421875 
Q 53.21875 48.921875 51.53125 44.890625 
Q 49.859375 40.875 45.40625 35.40625 
Q 44.1875 33.984375 37.640625 27.21875 
Q 31.109375 20.453125 19.1875 8.296875 
z
" id="DejaVuSans-32"/>
      </defs>
      <g transform="translate(375.035313 347.380562)scale(0.1 -0.1)">
       <use xlink:href="#DejaVuSans-30"/>
       <use x="63.623047" xlink:href="#DejaVuSans-2e"/>
       <use x="95.410156" xlink:href="#DejaVuSans-32"/>
      </g>
     </g>
    </g>
    <g id="xtick_4">
     <g id="line2d_7">
      <path clip-path="url(#pba66a49fef)" d="M 461.106875 332.782125 
L 461.106875 22.318125 
" style="fill:none;stroke:#b0b0b0;stroke-linecap:square;stroke-width:0.8;"/>
     </g>
     <g id="line2d_8">
      <g>
       <use style="stroke:#000000;stroke-width:0.8;" x="461.106875" xlink:href="#m7df5869771" y="332.782125"/>
      </g>
     </g>
     <g id="text_4">
      <!-- 0.3 -->
      <defs>
       <path d="M 40.578125 39.3125 
Q 47.65625 37.796875 51.625 33 
Q 55.609375 28.21875 55.609375 21.1875 
Q 55.609375 10.40625 48.1875 4.484375 
Q 40.765625 -1.421875 27.09375 -1.421875 
Q 22.515625 -1.421875 17.65625 -0.515625 
Q 12.796875 0.390625 7.625 2.203125 
L 7.625 11.71875 
Q 11.71875 9.328125 16.59375 8.109375 
Q 21.484375 6.890625 26.8125 6.890625 
Q 36.078125 6.890625 40.9375 10.546875 
Q 45.796875 14.203125 45.796875 21.1875 
Q 45.796875 27.640625 41.28125 31.265625 
Q 36.765625 34.90625 28.71875 34.90625 
L 20.21875 34.90625 
L 20.21875 43.015625 
L 29.109375 43.015625 
Q 36.375 43.015625 40.234375 45.921875 
Q 44.09375 48.828125 44.09375 54.296875 
Q 44.09375 59.90625 40.109375 62.90625 
Q 36.140625 65.921875 28.71875 65.921875 
Q 24.65625 65.921875 20.015625 65.03125 
Q 15.375 64.15625 9.8125 62.3125 
L 9.8125 71.09375 
Q 15.4375 72.65625 20.34375 73.4375 
Q 25.25 74.21875 29.59375 74.21875 
Q 40.828125 74.21875 47.359375 69.109375 
Q 53.90625 64.015625 53.90625 55.328125 
Q 53.90625 49.265625 50.4375 45.09375 
Q 46.96875 40.921875 40.578125 39.3125 
z
" id="DejaVuSans-33"/>
      </defs>
      <g transform="translate(453.155313 347.380562)scale(0.1 -0.1)">
       <use xlink:href="#DejaVuSans-30"/>
       <use x="63.623047" xlink:href="#DejaVuSans-2e"/>
       <use x="95.410156" xlink:href="#DejaVuSans-33"/>
      </g>
     </g>
    </g>
    <g id="xtick_5">
     <g id="line2d_9">
      <path clip-path="url(#pba66a49fef)" d="M 539.226875 332.782125 
L 539.226875 22.318125 
" style="fill:none;stroke:#b0b0b0;stroke-linecap:square;stroke-width:0.8;"/>
     </g>
     <g id="line2d_10">
      <g>
       <use style="stroke:#000000;stroke-width:0.8;" x="539.226875" xlink:href="#m7df5869771" y="332.782125"/>
      </g>
     </g>
     <g id="text_5">
      <!-- 0.4 -->
      <defs>
       <path d="M 37.796875 64.3125 
L 12.890625 25.390625 
L 37.796875 25.390625 
z
M 35.203125 72.90625 
L 47.609375 72.90625 
L 47.609375 25.390625 
L 58.015625 25.390625 
L 58.015625 17.1875 
L 47.609375 17.1875 
L 47.609375 0 
L 37.796875 0 
L 37.796875 17.1875 
L 4.890625 17.1875 
L 4.890625 26.703125 
z
" id="DejaVuSans-34"/>
      </defs>
      <g transform="translate(531.275313 347.380562)scale(0.1 -0.1)">
       <use xlink:href="#DejaVuSans-30"/>
       <use x="63.623047" xlink:href="#DejaVuSans-2e"/>
       <use x="95.410156" xlink:href="#DejaVuSans-34"/>
      </g>
     </g>
    </g>
    <g id="xtick_6">
     <g id="line2d_11">
      <path clip-path="url(#pba66a49fef)" d="M 617.346875 332.782125 
L 617.346875 22.318125 
" style="fill:none;stroke:#b0b0b0;stroke-linecap:square;stroke-width:0.8;"/>
     </g>
     <g id="line2d_12">
      <g>
       <use style="stroke:#000000;stroke-width:0.8;" x="617.346875" xlink:href="#m7df5869771" y="332.782125"/>
      </g>
     </g>
     <g id="text_6">
      <!-- 0.5 -->
      <defs>
       <path d="M 10.796875 72.90625 
L 49.515625 72.90625 
L 49.515625 64.59375 
L 19.828125 64.59375 
L 19.828125 46.734375 
Q 21.96875 47.46875 24.109375 47.828125 
Q 26.265625 48.1875 28.421875 48.1875 
Q 40.625 48.1875 47.75 41.5 
Q 54.890625 34.8125 54.890625 23.390625 
Q 54.890625 11.625 47.5625 5.09375 
Q 40.234375 -1.421875 26.90625 -1.421875 
Q 22.3125 -1.421875 17.546875 -0.640625 
Q 12.796875 0.140625 7.71875 1.703125 
L 7.71875 11.625 
Q 12.109375 9.234375 16.796875 8.0625 
Q 21.484375 6.890625 26.703125 6.890625 
Q 35.15625 6.890625 40.078125 11.328125 
Q 45.015625 15.765625 45.015625 23.390625 
Q 45.015625 31 40.078125 35.4375 
Q 35.15625 39.890625 26.703125 39.890625 
Q 22.75 39.890625 18.8125 39.015625 
Q 14.890625 38.140625 10.796875 36.28125 
z
" id="DejaVuSans-35"/>
      </defs>
      <g transform="translate(609.395313 347.380562)scale(0.1 -0.1)">
       <use xlink:href="#DejaVuSans-30"/>
       <use x="63.623047" xlink:href="#DejaVuSans-2e"/>
       <use x="95.410156" xlink:href="#DejaVuSans-35"/>
      </g>
     </g>
    </g>
    <g id="text_7">
     <!-- AOE2 (TO) -->
     <defs>
      <path d="M 34.1875 63.1875 
L 20.796875 26.90625 
L 47.609375 26.90625 
z
M 28.609375 72.90625 
L 39.796875 72.90625 
L 67.578125 0 
L 57.328125 0 
L 50.6875 18.703125 
L 17.828125 18.703125 
L 11.1875 0 
L 0.78125 0 
z
" id="DejaVuSans-41"/>
      <path d="M 39.40625 66.21875 
Q 28.65625 66.21875 22.328125 58.203125 
Q 16.015625 50.203125 16.015625 36.375 
Q 16.015625 22.609375 22.328125 14.59375 
Q 28.65625 6.59375 39.40625 6.59375 
Q 50.140625 6.59375 56.421875 14.59375 
Q 62.703125 22.609375 62.703125 36.375 
Q 62.703125 50.203125 56.421875 58.203125 
Q 50.140625 66.21875 39.40625 66.21875 
z
M 39.40625 74.21875 
Q 54.734375 74.21875 63.90625 63.9375 
Q 73.09375 53.65625 73.09375 36.375 
Q 73.09375 19.140625 63.90625 8.859375 
Q 54.734375 -1.421875 39.40625 -1.421875 
Q 24.03125 -1.421875 14.8125 8.828125 
Q 5.609375 19.09375 5.609375 36.375 
Q 5.609375 53.65625 14.8125 63.9375 
Q 24.03125 74.21875 39.40625 74.21875 
z
" id="DejaVuSans-4f"/>
      <path d="M 9.8125 72.90625 
L 55.90625 72.90625 
L 55.90625 64.59375 
L 19.671875 64.59375 
L 19.671875 43.015625 
L 54.390625 43.015625 
L 54.390625 34.71875 
L 19.671875 34.71875 
L 19.671875 8.296875 
L 56.78125 8.296875 
L 56.78125 0 
L 9.8125 0 
z
" id="DejaVuSans-45"/>
      <path id="DejaVuSans-20"/>
      <path d="M 31 75.875 
Q 24.46875 64.65625 21.28125 53.65625 
Q 18.109375 42.671875 18.109375 31.390625 
Q 18.109375 20.125 21.3125 9.0625 
Q 24.515625 -2 31 -13.1875 
L 23.1875 -13.1875 
Q 15.875 -1.703125 12.234375 9.375 
Q 8.59375 20.453125 8.59375 31.390625 
Q 8.59375 42.28125 12.203125 53.3125 
Q 15.828125 64.359375 23.1875 75.875 
z
" id="DejaVuSans-28"/>
      <path d="M -0.296875 72.90625 
L 61.375 72.90625 
L 61.375 64.59375 
L 35.5 64.59375 
L 35.5 0 
L 25.59375 0 
L 25.59375 64.59375 
L -0.296875 64.59375 
z
" id="DejaVuSans-54"/>
      <path d="M 8.015625 75.875 
L 15.828125 75.875 
Q 23.140625 64.359375 26.78125 53.3125 
Q 30.421875 42.28125 30.421875 31.390625 
Q 30.421875 20.453125 26.78125 9.375 
Q 23.140625 -1.703125 15.828125 -13.1875 
L 8.015625 -13.1875 
Q 14.5 -2 17.703125 9.0625 
Q 20.90625 20.125 20.90625 31.390625 
Q 20.90625 42.671875 17.703125 53.65625 
Q 14.5 64.65625 8.015625 75.875 
z
" id="DejaVuSans-29"/>
     </defs>
     <g transform="translate(395.870313 361.058687)scale(0.1 -0.1)">
      <use xlink:href="#DejaVuSans-41"/>
      <use x="68.392578" xlink:href="#DejaVuSans-4f"/>
      <use x="147.103516" xlink:href="#DejaVuSans-45"/>
      <use x="210.287109" xlink:href="#DejaVuSans-32"/>
      <use x="273.910156" xlink:href="#DejaVuSans-20"/>
      <use x="305.697266" xlink:href="#DejaVuSans-28"/>
      <use x="344.710938" xlink:href="#DejaVuSans-54"/>
      <use x="405.794922" xlink:href="#DejaVuSans-4f"/>
      <use x="484.505859" xlink:href="#DejaVuSans-29"/>
     </g>
    </g>
   </g>
   <g id="matplotlib.axis_2">
    <g id="ytick_1">
     <g id="line2d_13">
      <path clip-path="url(#pba66a49fef)" d="M 226.746875 305.841034 
L 617.346875 305.841034 
" style="fill:none;stroke:#b0b0b0;stroke-linecap:square;stroke-width:0.8;"/>
     </g>
     <g id="line2d_14">
      <defs>
       <path d="M 0 0 
L -3.5 0 
" id="mf2fb84e593" style="stroke:#000000;stroke-width:0.8;"/>
      </defs>
      <g>
       <use style="stroke:#000000;stroke-width:0.8;" x="226.746875" xlink:href="#mf2fb84e593" y="305.841034"/>
      </g>
     </g>
     <g id="text_8">
      <!-- schreiber2017/mirex2017 -->
      <defs>
       <path d="M 44.28125 53.078125 
L 44.28125 44.578125 
Q 40.484375 46.53125 36.375 47.5 
Q 32.28125 48.484375 27.875 48.484375 
Q 21.1875 48.484375 17.84375 46.4375 
Q 14.5 44.390625 14.5 40.28125 
Q 14.5 37.15625 16.890625 35.375 
Q 19.28125 33.59375 26.515625 31.984375 
L 29.59375 31.296875 
Q 39.15625 29.25 43.1875 25.515625 
Q 47.21875 21.78125 47.21875 15.09375 
Q 47.21875 7.46875 41.1875 3.015625 
Q 35.15625 -1.421875 24.609375 -1.421875 
Q 20.21875 -1.421875 15.453125 -0.5625 
Q 10.6875 0.296875 5.421875 2 
L 5.421875 11.28125 
Q 10.40625 8.6875 15.234375 7.390625 
Q 20.0625 6.109375 24.8125 6.109375 
Q 31.15625 6.109375 34.5625 8.28125 
Q 37.984375 10.453125 37.984375 14.40625 
Q 37.984375 18.0625 35.515625 20.015625 
Q 33.0625 21.96875 24.703125 23.78125 
L 21.578125 24.515625 
Q 13.234375 26.265625 9.515625 29.90625 
Q 5.8125 33.546875 5.8125 39.890625 
Q 5.8125 47.609375 11.28125 51.796875 
Q 16.75 56 26.8125 56 
Q 31.78125 56 36.171875 55.265625 
Q 40.578125 54.546875 44.28125 53.078125 
z
" id="DejaVuSans-73"/>
       <path d="M 48.78125 52.59375 
L 48.78125 44.1875 
Q 44.96875 46.296875 41.140625 47.34375 
Q 37.3125 48.390625 33.40625 48.390625 
Q 24.65625 48.390625 19.8125 42.84375 
Q 14.984375 37.3125 14.984375 27.296875 
Q 14.984375 17.28125 19.8125 11.734375 
Q 24.65625 6.203125 33.40625 6.203125 
Q 37.3125 6.203125 41.140625 7.25 
Q 44.96875 8.296875 48.78125 10.40625 
L 48.78125 2.09375 
Q 45.015625 0.34375 40.984375 -0.53125 
Q 36.96875 -1.421875 32.421875 -1.421875 
Q 20.0625 -1.421875 12.78125 6.34375 
Q 5.515625 14.109375 5.515625 27.296875 
Q 5.515625 40.671875 12.859375 48.328125 
Q 20.21875 56 33.015625 56 
Q 37.15625 56 41.109375 55.140625 
Q 45.0625 54.296875 48.78125 52.59375 
z
" id="DejaVuSans-63"/>
       <path d="M 54.890625 33.015625 
L 54.890625 0 
L 45.90625 0 
L 45.90625 32.71875 
Q 45.90625 40.484375 42.875 44.328125 
Q 39.84375 48.1875 33.796875 48.1875 
Q 26.515625 48.1875 22.3125 43.546875 
Q 18.109375 38.921875 18.109375 30.90625 
L 18.109375 0 
L 9.078125 0 
L 9.078125 75.984375 
L 18.109375 75.984375 
L 18.109375 46.1875 
Q 21.34375 51.125 25.703125 53.5625 
Q 30.078125 56 35.796875 56 
Q 45.21875 56 50.046875 50.171875 
Q 54.890625 44.34375 54.890625 33.015625 
z
" id="DejaVuSans-68"/>
       <path d="M 41.109375 46.296875 
Q 39.59375 47.171875 37.8125 47.578125 
Q 36.03125 48 33.890625 48 
Q 26.265625 48 22.1875 43.046875 
Q 18.109375 38.09375 18.109375 28.8125 
L 18.109375 0 
L 9.078125 0 
L 9.078125 54.6875 
L 18.109375 54.6875 
L 18.109375 46.1875 
Q 20.953125 51.171875 25.484375 53.578125 
Q 30.03125 56 36.53125 56 
Q 37.453125 56 38.578125 55.875 
Q 39.703125 55.765625 41.0625 55.515625 
z
" id="DejaVuSans-72"/>
       <path d="M 56.203125 29.59375 
L 56.203125 25.203125 
L 14.890625 25.203125 
Q 15.484375 15.921875 20.484375 11.0625 
Q 25.484375 6.203125 34.421875 6.203125 
Q 39.59375 6.203125 44.453125 7.46875 
Q 49.3125 8.734375 54.109375 11.28125 
L 54.109375 2.78125 
Q 49.265625 0.734375 44.1875 -0.34375 
Q 39.109375 -1.421875 33.890625 -1.421875 
Q 20.796875 -1.421875 13.15625 6.1875 
Q 5.515625 13.8125 5.515625 26.8125 
Q 5.515625 40.234375 12.765625 48.109375 
Q 20.015625 56 32.328125 56 
Q 43.359375 56 49.78125 48.890625 
Q 56.203125 41.796875 56.203125 29.59375 
z
M 47.21875 32.234375 
Q 47.125 39.59375 43.09375 43.984375 
Q 39.0625 48.390625 32.421875 48.390625 
Q 24.90625 48.390625 20.390625 44.140625 
Q 15.875 39.890625 15.1875 32.171875 
z
" id="DejaVuSans-65"/>
       <path d="M 9.421875 54.6875 
L 18.40625 54.6875 
L 18.40625 0 
L 9.421875 0 
z
M 9.421875 75.984375 
L 18.40625 75.984375 
L 18.40625 64.59375 
L 9.421875 64.59375 
z
" id="DejaVuSans-69"/>
       <path d="M 48.6875 27.296875 
Q 48.6875 37.203125 44.609375 42.84375 
Q 40.53125 48.484375 33.40625 48.484375 
Q 26.265625 48.484375 22.1875 42.84375 
Q 18.109375 37.203125 18.109375 27.296875 
Q 18.109375 17.390625 22.1875 11.75 
Q 26.265625 6.109375 33.40625 6.109375 
Q 40.53125 6.109375 44.609375 11.75 
Q 48.6875 17.390625 48.6875 27.296875 
z
M 18.109375 46.390625 
Q 20.953125 51.265625 25.265625 53.625 
Q 29.59375 56 35.59375 56 
Q 45.5625 56 51.78125 48.09375 
Q 58.015625 40.1875 58.015625 27.296875 
Q 58.015625 14.40625 51.78125 6.484375 
Q 45.5625 -1.421875 35.59375 -1.421875 
Q 29.59375 -1.421875 25.265625 0.953125 
Q 20.953125 3.328125 18.109375 8.203125 
L 18.109375 0 
L 9.078125 0 
L 9.078125 75.984375 
L 18.109375 75.984375 
z
" id="DejaVuSans-62"/>
       <path d="M 8.203125 72.90625 
L 55.078125 72.90625 
L 55.078125 68.703125 
L 28.609375 0 
L 18.3125 0 
L 43.21875 64.59375 
L 8.203125 64.59375 
z
" id="DejaVuSans-37"/>
       <path d="M 25.390625 72.90625 
L 33.6875 72.90625 
L 8.296875 -9.28125 
L 0 -9.28125 
z
" id="DejaVuSans-2f"/>
       <path d="M 52 44.1875 
Q 55.375 50.25 60.0625 53.125 
Q 64.75 56 71.09375 56 
Q 79.640625 56 84.28125 50.015625 
Q 88.921875 44.046875 88.921875 33.015625 
L 88.921875 0 
L 79.890625 0 
L 79.890625 32.71875 
Q 79.890625 40.578125 77.09375 44.375 
Q 74.3125 48.1875 68.609375 48.1875 
Q 61.625 48.1875 57.5625 43.546875 
Q 53.515625 38.921875 53.515625 30.90625 
L 53.515625 0 
L 44.484375 0 
L 44.484375 32.71875 
Q 44.484375 40.625 41.703125 44.40625 
Q 38.921875 48.1875 33.109375 48.1875 
Q 26.21875 48.1875 22.15625 43.53125 
Q 18.109375 38.875 18.109375 30.90625 
L 18.109375 0 
L 9.078125 0 
L 9.078125 54.6875 
L 18.109375 54.6875 
L 18.109375 46.1875 
Q 21.1875 51.21875 25.484375 53.609375 
Q 29.78125 56 35.6875 56 
Q 41.65625 56 45.828125 52.96875 
Q 50 49.953125 52 44.1875 
z
" id="DejaVuSans-6d"/>
       <path d="M 54.890625 54.6875 
L 35.109375 28.078125 
L 55.90625 0 
L 45.3125 0 
L 29.390625 21.484375 
L 13.484375 0 
L 2.875 0 
L 24.125 28.609375 
L 4.6875 54.6875 
L 15.28125 54.6875 
L 29.78125 35.203125 
L 44.28125 54.6875 
z
" id="DejaVuSans-78"/>
      </defs>
      <g transform="translate(90.084375 309.640253)scale(0.1 -0.1)">
       <use xlink:href="#DejaVuSans-73"/>
       <use x="52.099609" xlink:href="#DejaVuSans-63"/>
       <use x="107.080078" xlink:href="#DejaVuSans-68"/>
       <use x="170.458984" xlink:href="#DejaVuSans-72"/>
       <use x="211.541016" xlink:href="#DejaVuSans-65"/>
       <use x="273.064453" xlink:href="#DejaVuSans-69"/>
       <use x="300.847656" xlink:href="#DejaVuSans-62"/>
       <use x="364.324219" xlink:href="#DejaVuSans-65"/>
       <use x="425.847656" xlink:href="#DejaVuSans-72"/>
       <use x="466.960938" xlink:href="#DejaVuSans-32"/>
       <use x="530.583984" xlink:href="#DejaVuSans-30"/>
       <use x="594.207031" xlink:href="#DejaVuSans-31"/>
       <use x="657.830078" xlink:href="#DejaVuSans-37"/>
       <use x="721.453125" xlink:href="#DejaVuSans-2f"/>
       <use x="755.144531" xlink:href="#DejaVuSans-6d"/>
       <use x="852.556641" xlink:href="#DejaVuSans-69"/>
       <use x="880.339844" xlink:href="#DejaVuSans-72"/>
       <use x="921.421875" xlink:href="#DejaVuSans-65"/>
       <use x="982.929688" xlink:href="#DejaVuSans-78"/>
       <use x="1042.109375" xlink:href="#DejaVuSans-32"/>
       <use x="1105.732422" xlink:href="#DejaVuSans-30"/>
       <use x="1169.355469" xlink:href="#DejaVuSans-31"/>
       <use x="1232.978516" xlink:href="#DejaVuSans-37"/>
      </g>
     </g>
    </g>
    <g id="ytick_2">
     <g id="line2d_15">
      <path clip-path="url(#pba66a49fef)" d="M 226.746875 254.52467 
L 617.346875 254.52467 
" style="fill:none;stroke:#b0b0b0;stroke-linecap:square;stroke-width:0.8;"/>
     </g>
     <g id="line2d_16">
      <g>
       <use style="stroke:#000000;stroke-width:0.8;" x="226.746875" xlink:href="#mf2fb84e593" y="254.52467"/>
      </g>
     </g>
     <g id="text_9">
      <!-- schreiber2017/ismir2017 -->
      <g transform="translate(94.164062 258.323889)scale(0.1 -0.1)">
       <use xlink:href="#DejaVuSans-73"/>
       <use x="52.099609" xlink:href="#DejaVuSans-63"/>
       <use x="107.080078" xlink:href="#DejaVuSans-68"/>
       <use x="170.458984" xlink:href="#DejaVuSans-72"/>
       <use x="211.541016" xlink:href="#DejaVuSans-65"/>
       <use x="273.064453" xlink:href="#DejaVuSans-69"/>
       <use x="300.847656" xlink:href="#DejaVuSans-62"/>
       <use x="364.324219" xlink:href="#DejaVuSans-65"/>
       <use x="425.847656" xlink:href="#DejaVuSans-72"/>
       <use x="466.960938" xlink:href="#DejaVuSans-32"/>
       <use x="530.583984" xlink:href="#DejaVuSans-30"/>
       <use x="594.207031" xlink:href="#DejaVuSans-31"/>
       <use x="657.830078" xlink:href="#DejaVuSans-37"/>
       <use x="721.453125" xlink:href="#DejaVuSans-2f"/>
       <use x="755.144531" xlink:href="#DejaVuSans-69"/>
       <use x="782.927734" xlink:href="#DejaVuSans-73"/>
       <use x="835.027344" xlink:href="#DejaVuSans-6d"/>
       <use x="932.439453" xlink:href="#DejaVuSans-69"/>
       <use x="960.222656" xlink:href="#DejaVuSans-72"/>
       <use x="1001.335938" xlink:href="#DejaVuSans-32"/>
       <use x="1064.958984" xlink:href="#DejaVuSans-30"/>
       <use x="1128.582031" xlink:href="#DejaVuSans-31"/>
       <use x="1192.205078" xlink:href="#DejaVuSans-37"/>
      </g>
     </g>
    </g>
    <g id="ytick_3">
     <g id="line2d_17">
      <path clip-path="url(#pba66a49fef)" d="M 226.746875 203.208307 
L 617.346875 203.208307 
" style="fill:none;stroke:#b0b0b0;stroke-linecap:square;stroke-width:0.8;"/>
     </g>
     <g id="line2d_18">
      <g>
       <use style="stroke:#000000;stroke-width:0.8;" x="226.746875" xlink:href="#mf2fb84e593" y="203.208307"/>
      </g>
     </g>
     <g id="text_10">
      <!-- schreiber2014/default -->
      <defs>
       <path d="M 45.40625 46.390625 
L 45.40625 75.984375 
L 54.390625 75.984375 
L 54.390625 0 
L 45.40625 0 
L 45.40625 8.203125 
Q 42.578125 3.328125 38.25 0.953125 
Q 33.9375 -1.421875 27.875 -1.421875 
Q 17.96875 -1.421875 11.734375 6.484375 
Q 5.515625 14.40625 5.515625 27.296875 
Q 5.515625 40.1875 11.734375 48.09375 
Q 17.96875 56 27.875 56 
Q 33.9375 56 38.25 53.625 
Q 42.578125 51.265625 45.40625 46.390625 
z
M 14.796875 27.296875 
Q 14.796875 17.390625 18.875 11.75 
Q 22.953125 6.109375 30.078125 6.109375 
Q 37.203125 6.109375 41.296875 11.75 
Q 45.40625 17.390625 45.40625 27.296875 
Q 45.40625 37.203125 41.296875 42.84375 
Q 37.203125 48.484375 30.078125 48.484375 
Q 22.953125 48.484375 18.875 42.84375 
Q 14.796875 37.203125 14.796875 27.296875 
z
" id="DejaVuSans-64"/>
       <path d="M 37.109375 75.984375 
L 37.109375 68.5 
L 28.515625 68.5 
Q 23.6875 68.5 21.796875 66.546875 
Q 19.921875 64.59375 19.921875 59.515625 
L 19.921875 54.6875 
L 34.71875 54.6875 
L 34.71875 47.703125 
L 19.921875 47.703125 
L 19.921875 0 
L 10.890625 0 
L 10.890625 47.703125 
L 2.296875 47.703125 
L 2.296875 54.6875 
L 10.890625 54.6875 
L 10.890625 58.5 
Q 10.890625 67.625 15.140625 71.796875 
Q 19.390625 75.984375 28.609375 75.984375 
z
" id="DejaVuSans-66"/>
       <path d="M 34.28125 27.484375 
Q 23.390625 27.484375 19.1875 25 
Q 14.984375 22.515625 14.984375 16.5 
Q 14.984375 11.71875 18.140625 8.90625 
Q 21.296875 6.109375 26.703125 6.109375 
Q 34.1875 6.109375 38.703125 11.40625 
Q 43.21875 16.703125 43.21875 25.484375 
L 43.21875 27.484375 
z
M 52.203125 31.203125 
L 52.203125 0 
L 43.21875 0 
L 43.21875 8.296875 
Q 40.140625 3.328125 35.546875 0.953125 
Q 30.953125 -1.421875 24.3125 -1.421875 
Q 15.921875 -1.421875 10.953125 3.296875 
Q 6 8.015625 6 15.921875 
Q 6 25.140625 12.171875 29.828125 
Q 18.359375 34.515625 30.609375 34.515625 
L 43.21875 34.515625 
L 43.21875 35.40625 
Q 43.21875 41.609375 39.140625 45 
Q 35.0625 48.390625 27.6875 48.390625 
Q 23 48.390625 18.546875 47.265625 
Q 14.109375 46.140625 10.015625 43.890625 
L 10.015625 52.203125 
Q 14.9375 54.109375 19.578125 55.046875 
Q 24.21875 56 28.609375 56 
Q 40.484375 56 46.34375 49.84375 
Q 52.203125 43.703125 52.203125 31.203125 
z
" id="DejaVuSans-61"/>
       <path d="M 8.5 21.578125 
L 8.5 54.6875 
L 17.484375 54.6875 
L 17.484375 21.921875 
Q 17.484375 14.15625 20.5 10.265625 
Q 23.53125 6.390625 29.59375 6.390625 
Q 36.859375 6.390625 41.078125 11.03125 
Q 45.3125 15.671875 45.3125 23.6875 
L 45.3125 54.6875 
L 54.296875 54.6875 
L 54.296875 0 
L 45.3125 0 
L 45.3125 8.40625 
Q 42.046875 3.421875 37.71875 1 
Q 33.40625 -1.421875 27.6875 -1.421875 
Q 18.265625 -1.421875 13.375 4.4375 
Q 8.5 10.296875 8.5 21.578125 
z
M 31.109375 56 
z
" id="DejaVuSans-75"/>
       <path d="M 9.421875 75.984375 
L 18.40625 75.984375 
L 18.40625 0 
L 9.421875 0 
z
" id="DejaVuSans-6c"/>
       <path d="M 18.3125 70.21875 
L 18.3125 54.6875 
L 36.8125 54.6875 
L 36.8125 47.703125 
L 18.3125 47.703125 
L 18.3125 18.015625 
Q 18.3125 11.328125 20.140625 9.421875 
Q 21.96875 7.515625 27.59375 7.515625 
L 36.8125 7.515625 
L 36.8125 0 
L 27.59375 0 
Q 17.1875 0 13.234375 3.875 
Q 9.28125 7.765625 9.28125 18.015625 
L 9.28125 47.703125 
L 2.6875 47.703125 
L 2.6875 54.6875 
L 9.28125 54.6875 
L 9.28125 70.21875 
z
" id="DejaVuSans-74"/>
      </defs>
      <g transform="translate(109.045312 207.007526)scale(0.1 -0.1)">
       <use xlink:href="#DejaVuSans-73"/>
       <use x="52.099609" xlink:href="#DejaVuSans-63"/>
       <use x="107.080078" xlink:href="#DejaVuSans-68"/>
       <use x="170.458984" xlink:href="#DejaVuSans-72"/>
       <use x="211.541016" xlink:href="#DejaVuSans-65"/>
       <use x="273.064453" xlink:href="#DejaVuSans-69"/>
       <use x="300.847656" xlink:href="#DejaVuSans-62"/>
       <use x="364.324219" xlink:href="#DejaVuSans-65"/>
       <use x="425.847656" xlink:href="#DejaVuSans-72"/>
       <use x="466.960938" xlink:href="#DejaVuSans-32"/>
       <use x="530.583984" xlink:href="#DejaVuSans-30"/>
       <use x="594.207031" xlink:href="#DejaVuSans-31"/>
       <use x="657.830078" xlink:href="#DejaVuSans-34"/>
       <use x="721.453125" xlink:href="#DejaVuSans-2f"/>
       <use x="755.144531" xlink:href="#DejaVuSans-64"/>
       <use x="818.621094" xlink:href="#DejaVuSans-65"/>
       <use x="880.144531" xlink:href="#DejaVuSans-66"/>
       <use x="915.349609" xlink:href="#DejaVuSans-61"/>
       <use x="976.628906" xlink:href="#DejaVuSans-75"/>
       <use x="1040.007812" xlink:href="#DejaVuSans-6c"/>
       <use x="1067.791016" xlink:href="#DejaVuSans-74"/>
      </g>
     </g>
    </g>
    <g id="ytick_4">
     <g id="line2d_19">
      <path clip-path="url(#pba66a49fef)" d="M 226.746875 151.891943 
L 617.346875 151.891943 
" style="fill:none;stroke:#b0b0b0;stroke-linecap:square;stroke-width:0.8;"/>
     </g>
     <g id="line2d_20">
      <g>
       <use style="stroke:#000000;stroke-width:0.8;" x="226.746875" xlink:href="#mf2fb84e593" y="151.891943"/>
      </g>
     </g>
     <g id="text_11">
      <!-- percival2014/stem -->
      <defs>
       <path d="M 18.109375 8.203125 
L 18.109375 -20.796875 
L 9.078125 -20.796875 
L 9.078125 54.6875 
L 18.109375 54.6875 
L 18.109375 46.390625 
Q 20.953125 51.265625 25.265625 53.625 
Q 29.59375 56 35.59375 56 
Q 45.5625 56 51.78125 48.09375 
Q 58.015625 40.1875 58.015625 27.296875 
Q 58.015625 14.40625 51.78125 6.484375 
Q 45.5625 -1.421875 35.59375 -1.421875 
Q 29.59375 -1.421875 25.265625 0.953125 
Q 20.953125 3.328125 18.109375 8.203125 
z
M 48.6875 27.296875 
Q 48.6875 37.203125 44.609375 42.84375 
Q 40.53125 48.484375 33.40625 48.484375 
Q 26.265625 48.484375 22.1875 42.84375 
Q 18.109375 37.203125 18.109375 27.296875 
Q 18.109375 17.390625 22.1875 11.75 
Q 26.265625 6.109375 33.40625 6.109375 
Q 40.53125 6.109375 44.609375 11.75 
Q 48.6875 17.390625 48.6875 27.296875 
z
" id="DejaVuSans-70"/>
       <path d="M 2.984375 54.6875 
L 12.5 54.6875 
L 29.59375 8.796875 
L 46.6875 54.6875 
L 56.203125 54.6875 
L 35.6875 0 
L 23.484375 0 
z
" id="DejaVuSans-76"/>
      </defs>
      <g transform="translate(126.19375 155.691162)scale(0.1 -0.1)">
       <use xlink:href="#DejaVuSans-70"/>
       <use x="63.476562" xlink:href="#DejaVuSans-65"/>
       <use x="125" xlink:href="#DejaVuSans-72"/>
       <use x="166.082031" xlink:href="#DejaVuSans-63"/>
       <use x="221.0625" xlink:href="#DejaVuSans-69"/>
       <use x="248.845703" xlink:href="#DejaVuSans-76"/>
       <use x="308.025391" xlink:href="#DejaVuSans-61"/>
       <use x="369.304688" xlink:href="#DejaVuSans-6c"/>
       <use x="397.087891" xlink:href="#DejaVuSans-32"/>
       <use x="460.710938" xlink:href="#DejaVuSans-30"/>
       <use x="524.333984" xlink:href="#DejaVuSans-31"/>
       <use x="587.957031" xlink:href="#DejaVuSans-34"/>
       <use x="651.580078" xlink:href="#DejaVuSans-2f"/>
       <use x="685.271484" xlink:href="#DejaVuSans-73"/>
       <use x="737.371094" xlink:href="#DejaVuSans-74"/>
       <use x="776.580078" xlink:href="#DejaVuSans-65"/>
       <use x="838.103516" xlink:href="#DejaVuSans-6d"/>
      </g>
     </g>
    </g>
    <g id="ytick_5">
     <g id="line2d_21">
      <path clip-path="url(#pba66a49fef)" d="M 226.746875 100.57558 
L 617.346875 100.57558 
" style="fill:none;stroke:#b0b0b0;stroke-linecap:square;stroke-width:0.8;"/>
     </g>
     <g id="line2d_22">
      <g>
       <use style="stroke:#000000;stroke-width:0.8;" x="226.746875" xlink:href="#mf2fb84e593" y="100.57558"/>
      </g>
     </g>
     <g id="text_12">
      <!-- davies2009/mirex_qm_tempotracker -->
      <defs>
       <path d="M 10.984375 1.515625 
L 10.984375 10.5 
Q 14.703125 8.734375 18.5 7.8125 
Q 22.3125 6.890625 25.984375 6.890625 
Q 35.75 6.890625 40.890625 13.453125 
Q 46.046875 20.015625 46.78125 33.40625 
Q 43.953125 29.203125 39.59375 26.953125 
Q 35.25 24.703125 29.984375 24.703125 
Q 19.046875 24.703125 12.671875 31.3125 
Q 6.296875 37.9375 6.296875 49.421875 
Q 6.296875 60.640625 12.9375 67.421875 
Q 19.578125 74.21875 30.609375 74.21875 
Q 43.265625 74.21875 49.921875 64.515625 
Q 56.59375 54.828125 56.59375 36.375 
Q 56.59375 19.140625 48.40625 8.859375 
Q 40.234375 -1.421875 26.421875 -1.421875 
Q 22.703125 -1.421875 18.890625 -0.6875 
Q 15.09375 0.046875 10.984375 1.515625 
z
M 30.609375 32.421875 
Q 37.25 32.421875 41.125 36.953125 
Q 45.015625 41.5 45.015625 49.421875 
Q 45.015625 57.28125 41.125 61.84375 
Q 37.25 66.40625 30.609375 66.40625 
Q 23.96875 66.40625 20.09375 61.84375 
Q 16.21875 57.28125 16.21875 49.421875 
Q 16.21875 41.5 20.09375 36.953125 
Q 23.96875 32.421875 30.609375 32.421875 
z
" id="DejaVuSans-39"/>
       <path d="M 50.984375 -16.609375 
L 50.984375 -23.578125 
L -0.984375 -23.578125 
L -0.984375 -16.609375 
z
" id="DejaVuSans-5f"/>
       <path d="M 14.796875 27.296875 
Q 14.796875 17.390625 18.875 11.75 
Q 22.953125 6.109375 30.078125 6.109375 
Q 37.203125 6.109375 41.296875 11.75 
Q 45.40625 17.390625 45.40625 27.296875 
Q 45.40625 37.203125 41.296875 42.84375 
Q 37.203125 48.484375 30.078125 48.484375 
Q 22.953125 48.484375 18.875 42.84375 
Q 14.796875 37.203125 14.796875 27.296875 
z
M 45.40625 8.203125 
Q 42.578125 3.328125 38.25 0.953125 
Q 33.9375 -1.421875 27.875 -1.421875 
Q 17.96875 -1.421875 11.734375 6.484375 
Q 5.515625 14.40625 5.515625 27.296875 
Q 5.515625 40.1875 11.734375 48.09375 
Q 17.96875 56 27.875 56 
Q 33.9375 56 38.25 53.625 
Q 42.578125 51.265625 45.40625 46.390625 
L 45.40625 54.6875 
L 54.390625 54.6875 
L 54.390625 -20.796875 
L 45.40625 -20.796875 
z
" id="DejaVuSans-71"/>
       <path d="M 30.609375 48.390625 
Q 23.390625 48.390625 19.1875 42.75 
Q 14.984375 37.109375 14.984375 27.296875 
Q 14.984375 17.484375 19.15625 11.84375 
Q 23.34375 6.203125 30.609375 6.203125 
Q 37.796875 6.203125 41.984375 11.859375 
Q 46.1875 17.53125 46.1875 27.296875 
Q 46.1875 37.015625 41.984375 42.703125 
Q 37.796875 48.390625 30.609375 48.390625 
z
M 30.609375 56 
Q 42.328125 56 49.015625 48.375 
Q 55.71875 40.765625 55.71875 27.296875 
Q 55.71875 13.875 49.015625 6.21875 
Q 42.328125 -1.421875 30.609375 -1.421875 
Q 18.84375 -1.421875 12.171875 6.21875 
Q 5.515625 13.875 5.515625 27.296875 
Q 5.515625 40.765625 12.171875 48.375 
Q 18.84375 56 30.609375 56 
z
" id="DejaVuSans-6f"/>
       <path d="M 9.078125 75.984375 
L 18.109375 75.984375 
L 18.109375 31.109375 
L 44.921875 54.6875 
L 56.390625 54.6875 
L 27.390625 29.109375 
L 57.625 0 
L 45.90625 0 
L 18.109375 26.703125 
L 18.109375 0 
L 9.078125 0 
z
" id="DejaVuSans-6b"/>
      </defs>
      <g transform="translate(35.617187 104.374798)scale(0.1 -0.1)">
       <use xlink:href="#DejaVuSans-64"/>
       <use x="63.476562" xlink:href="#DejaVuSans-61"/>
       <use x="124.755859" xlink:href="#DejaVuSans-76"/>
       <use x="183.935547" xlink:href="#DejaVuSans-69"/>
       <use x="211.71875" xlink:href="#DejaVuSans-65"/>
       <use x="273.242188" xlink:href="#DejaVuSans-73"/>
       <use x="325.341797" xlink:href="#DejaVuSans-32"/>
       <use x="388.964844" xlink:href="#DejaVuSans-30"/>
       <use x="452.587891" xlink:href="#DejaVuSans-30"/>
       <use x="516.210938" xlink:href="#DejaVuSans-39"/>
       <use x="579.833984" xlink:href="#DejaVuSans-2f"/>
       <use x="613.525391" xlink:href="#DejaVuSans-6d"/>
       <use x="710.9375" xlink:href="#DejaVuSans-69"/>
       <use x="738.720703" xlink:href="#DejaVuSans-72"/>
       <use x="779.802734" xlink:href="#DejaVuSans-65"/>
       <use x="841.310547" xlink:href="#DejaVuSans-78"/>
       <use x="900.490234" xlink:href="#DejaVuSans-5f"/>
       <use x="950.490234" xlink:href="#DejaVuSans-71"/>
       <use x="1013.966797" xlink:href="#DejaVuSans-6d"/>
       <use x="1111.378906" xlink:href="#DejaVuSans-5f"/>
       <use x="1161.378906" xlink:href="#DejaVuSans-74"/>
       <use x="1200.587891" xlink:href="#DejaVuSans-65"/>
       <use x="1262.111328" xlink:href="#DejaVuSans-6d"/>
       <use x="1359.523438" xlink:href="#DejaVuSans-70"/>
       <use x="1423" xlink:href="#DejaVuSans-6f"/>
       <use x="1484.181641" xlink:href="#DejaVuSans-74"/>
       <use x="1523.390625" xlink:href="#DejaVuSans-72"/>
       <use x="1564.503906" xlink:href="#DejaVuSans-61"/>
       <use x="1625.783203" xlink:href="#DejaVuSans-63"/>
       <use x="1680.763672" xlink:href="#DejaVuSans-6b"/>
       <use x="1738.626953" xlink:href="#DejaVuSans-65"/>
       <use x="1800.150391" xlink:href="#DejaVuSans-72"/>
      </g>
     </g>
    </g>
    <g id="ytick_6">
     <g id="line2d_23">
      <path clip-path="url(#pba66a49fef)" d="M 226.746875 49.259216 
L 617.346875 49.259216 
" style="fill:none;stroke:#b0b0b0;stroke-linecap:square;stroke-width:0.8;"/>
     </g>
     <g id="line2d_24">
      <g>
       <use style="stroke:#000000;stroke-width:0.8;" x="226.746875" xlink:href="#mf2fb84e593" y="49.259216"/>
      </g>
     </g>
     <g id="text_13">
      <!-- boeck2015/tempodetector2016_default -->
      <defs>
       <path d="M 33.015625 40.375 
Q 26.375 40.375 22.484375 35.828125 
Q 18.609375 31.296875 18.609375 23.390625 
Q 18.609375 15.53125 22.484375 10.953125 
Q 26.375 6.390625 33.015625 6.390625 
Q 39.65625 6.390625 43.53125 10.953125 
Q 47.40625 15.53125 47.40625 23.390625 
Q 47.40625 31.296875 43.53125 35.828125 
Q 39.65625 40.375 33.015625 40.375 
z
M 52.59375 71.296875 
L 52.59375 62.3125 
Q 48.875 64.0625 45.09375 64.984375 
Q 41.3125 65.921875 37.59375 65.921875 
Q 27.828125 65.921875 22.671875 59.328125 
Q 17.53125 52.734375 16.796875 39.40625 
Q 19.671875 43.65625 24.015625 45.921875 
Q 28.375 48.1875 33.59375 48.1875 
Q 44.578125 48.1875 50.953125 41.515625 
Q 57.328125 34.859375 57.328125 23.390625 
Q 57.328125 12.15625 50.6875 5.359375 
Q 44.046875 -1.421875 33.015625 -1.421875 
Q 20.359375 -1.421875 13.671875 8.265625 
Q 6.984375 17.96875 6.984375 36.375 
Q 6.984375 53.65625 15.1875 63.9375 
Q 23.390625 74.21875 37.203125 74.21875 
Q 40.921875 74.21875 44.703125 73.484375 
Q 48.484375 72.75 52.59375 71.296875 
z
" id="DejaVuSans-36"/>
      </defs>
      <g transform="translate(20.878125 53.058435)scale(0.1 -0.1)">
       <use xlink:href="#DejaVuSans-62"/>
       <use x="63.476562" xlink:href="#DejaVuSans-6f"/>
       <use x="124.658203" xlink:href="#DejaVuSans-65"/>
       <use x="186.181641" xlink:href="#DejaVuSans-63"/>
       <use x="241.162109" xlink:href="#DejaVuSans-6b"/>
       <use x="299.072266" xlink:href="#DejaVuSans-32"/>
       <use x="362.695312" xlink:href="#DejaVuSans-30"/>
       <use x="426.318359" xlink:href="#DejaVuSans-31"/>
       <use x="489.941406" xlink:href="#DejaVuSans-35"/>
       <use x="553.564453" xlink:href="#DejaVuSans-2f"/>
       <use x="587.255859" xlink:href="#DejaVuSans-74"/>
       <use x="626.464844" xlink:href="#DejaVuSans-65"/>
       <use x="687.988281" xlink:href="#DejaVuSans-6d"/>
       <use x="785.400391" xlink:href="#DejaVuSans-70"/>
       <use x="848.876953" xlink:href="#DejaVuSans-6f"/>
       <use x="910.058594" xlink:href="#DejaVuSans-64"/>
       <use x="973.535156" xlink:href="#DejaVuSans-65"/>
       <use x="1035.058594" xlink:href="#DejaVuSans-74"/>
       <use x="1074.267578" xlink:href="#DejaVuSans-65"/>
       <use x="1135.791016" xlink:href="#DejaVuSans-63"/>
       <use x="1190.771484" xlink:href="#DejaVuSans-74"/>
       <use x="1229.980469" xlink:href="#DejaVuSans-6f"/>
       <use x="1291.162109" xlink:href="#DejaVuSans-72"/>
       <use x="1332.275391" xlink:href="#DejaVuSans-32"/>
       <use x="1395.898438" xlink:href="#DejaVuSans-30"/>
       <use x="1459.521484" xlink:href="#DejaVuSans-31"/>
       <use x="1523.144531" xlink:href="#DejaVuSans-36"/>
       <use x="1586.767578" xlink:href="#DejaVuSans-5f"/>
       <use x="1636.767578" xlink:href="#DejaVuSans-64"/>
       <use x="1700.244141" xlink:href="#DejaVuSans-65"/>
       <use x="1761.767578" xlink:href="#DejaVuSans-66"/>
       <use x="1796.972656" xlink:href="#DejaVuSans-61"/>
       <use x="1858.251953" xlink:href="#DejaVuSans-75"/>
       <use x="1921.630859" xlink:href="#DejaVuSans-6c"/>
       <use x="1949.414062" xlink:href="#DejaVuSans-74"/>
      </g>
     </g>
    </g>
    <g id="text_14">
     <!-- Estimator -->
     <g transform="translate(14.798437 201.672781)rotate(-90)scale(0.1 -0.1)">
      <use xlink:href="#DejaVuSans-45"/>
      <use x="63.183594" xlink:href="#DejaVuSans-73"/>
      <use x="115.283203" xlink:href="#DejaVuSans-74"/>
      <use x="154.492188" xlink:href="#DejaVuSans-69"/>
      <use x="182.275391" xlink:href="#DejaVuSans-6d"/>
      <use x="279.6875" xlink:href="#DejaVuSans-61"/>
      <use x="340.966797" xlink:href="#DejaVuSans-74"/>
      <use x="380.175781" xlink:href="#DejaVuSans-6f"/>
      <use x="441.357422" xlink:href="#DejaVuSans-72"/>
     </g>
    </g>
   </g>
   <g id="PolyCollection_1">
    <path clip-path="url(#pba66a49fef)" d="M 226.752017 297.511476 
L 226.752017 314.170592 
L 226.782813 314.607099 
L 226.813609 315.016466 
L 226.844405 315.395005 
L 226.875201 315.739812 
L 226.905997 316.048863 
L 226.936793 316.321055 
L 226.967589 316.556228 
L 226.998385 316.75514 
L 227.029181 316.919418 
L 227.059977 317.051473 
L 227.090773 317.154391 
L 227.121569 317.231807 
L 227.152365 317.287766 
L 227.183161 317.32657 
L 227.213957 317.352632 
L 227.244753 317.370329 
L 227.275549 317.383868 
L 227.306345 317.397156 
L 227.337141 317.413696 
L 227.367938 317.436489 
L 227.398734 317.46796 
L 227.42953 317.509901 
L 227.460326 317.563428 
L 227.491122 317.628963 
L 227.521918 317.706221 
L 227.552714 317.794232 
L 227.58351 317.891362 
L 227.614306 317.995363 
L 227.645102 318.103436 
L 227.675898 318.212303 
L 227.706694 318.318309 
L 227.73749 318.417521 
L 227.768286 318.505849 
L 227.799082 318.579169 
L 227.829878 318.633459 
L 227.860674 318.664923 
L 227.89147 318.670125 
L 227.922266 318.646103 
L 227.953062 318.590478 
L 227.983858 318.501539 
L 228.014654 318.378309 
L 228.04545 318.220588 
L 228.076246 318.028966 
L 228.107042 317.80481 
L 228.137838 317.550225 
L 228.168634 317.267986 
L 228.19943 316.961456 
L 228.230226 316.634472 
L 228.261022 316.291233 
L 228.291818 315.936163 
L 228.322614 315.573787 
L 228.35341 315.208594 
L 228.384206 314.84492 
L 228.415002 314.486835 
L 228.445798 314.138048 
L 228.476594 313.801832 
L 228.50739 313.480969 
L 228.538186 313.177712 
L 228.568982 312.893777 
L 228.599778 312.630345 
L 228.630574 312.388088 
L 228.66137 312.167206 
L 228.692166 311.967479 
L 228.722962 311.788326 
L 228.753758 311.628862 
L 228.784555 311.487969 
L 228.815351 311.364355 
L 228.846147 311.256607 
L 228.876943 311.163248 
L 228.907739 311.082773 
L 228.938535 311.013687 
L 228.969331 310.954526 
L 229.000127 310.903877 
L 229.030923 310.86038 
L 229.061719 310.822736 
L 229.092515 310.7897 
L 229.123311 310.760077 
L 229.154107 310.732711 
L 229.184903 310.706479 
L 229.215699 310.68028 
L 229.246495 310.653032 
L 229.277291 310.623668 
L 229.308087 310.591134 
L 229.338883 310.554398 
L 229.369679 310.512453 
L 229.400475 310.464334 
L 229.431271 310.409127 
L 229.462067 310.345992 
L 229.492863 310.274182 
L 229.523659 310.193061 
L 229.554455 310.10213 
L 229.585251 310.001043 
L 229.616047 309.88963 
L 229.646843 309.767911 
L 229.677639 309.636103 
L 229.708435 309.494635 
L 229.739231 309.344139 
L 229.770027 309.185451 
L 229.800823 309.019594 
L 229.800823 302.662474 
L 229.800823 302.662474 
L 229.770027 302.496617 
L 229.739231 302.337929 
L 229.708435 302.187433 
L 229.677639 302.045965 
L 229.646843 301.914157 
L 229.616047 301.792438 
L 229.585251 301.681025 
L 229.554455 301.579939 
L 229.523659 301.489007 
L 229.492863 301.407886 
L 229.462067 301.336076 
L 229.431271 301.272941 
L 229.400475 301.217735 
L 229.369679 301.169615 
L 229.338883 301.12767 
L 229.308087 301.090934 
L 229.277291 301.0584 
L 229.246495 301.029036 
L 229.215699 301.001788 
L 229.184903 300.975589 
L 229.154107 300.949357 
L 229.123311 300.921991 
L 229.092515 300.892368 
L 229.061719 300.859332 
L 229.030923 300.821688 
L 229.000127 300.778191 
L 228.969331 300.727542 
L 228.938535 300.668381 
L 228.907739 300.599295 
L 228.876943 300.518821 
L 228.846147 300.425461 
L 228.815351 300.317714 
L 228.784555 300.194099 
L 228.753758 300.053207 
L 228.722962 299.893743 
L 228.692166 299.714589 
L 228.66137 299.514862 
L 228.630574 299.29398 
L 228.599778 299.051723 
L 228.568982 298.788291 
L 228.538186 298.504356 
L 228.50739 298.201099 
L 228.476594 297.880236 
L 228.445798 297.54402 
L 228.415002 297.195233 
L 228.384206 296.837148 
L 228.35341 296.473474 
L 228.322614 296.108281 
L 228.291818 295.745905 
L 228.261022 295.390835 
L 228.230226 295.047596 
L 228.19943 294.720612 
L 228.168634 294.414082 
L 228.137838 294.131844 
L 228.107042 293.877258 
L 228.076246 293.653102 
L 228.04545 293.46148 
L 228.014654 293.303759 
L 227.983858 293.180529 
L 227.953062 293.09159 
L 227.922266 293.035965 
L 227.89147 293.011943 
L 227.860674 293.017145 
L 227.829878 293.048609 
L 227.799082 293.102899 
L 227.768286 293.176219 
L 227.73749 293.264547 
L 227.706694 293.363759 
L 227.675898 293.469765 
L 227.645102 293.578632 
L 227.614306 293.686705 
L 227.58351 293.790706 
L 227.552714 293.887836 
L 227.521918 293.975847 
L 227.491122 294.053106 
L 227.460326 294.11864 
L 227.42953 294.172167 
L 227.398734 294.214108 
L 227.367938 294.24558 
L 227.337141 294.268372 
L 227.306345 294.284912 
L 227.275549 294.2982 
L 227.244753 294.311739 
L 227.213957 294.329436 
L 227.183161 294.355498 
L 227.152365 294.394302 
L 227.121569 294.450261 
L 227.090773 294.527678 
L 227.059977 294.630595 
L 227.029181 294.76265 
L 226.998385 294.926928 
L 226.967589 295.12584 
L 226.936793 295.361013 
L 226.905997 295.633205 
L 226.875201 295.942256 
L 226.844405 296.287064 
L 226.813609 296.665602 
L 226.782813 297.07497 
L 226.752017 297.511476 
z
" style="fill:#ff0000;fill-opacity:0.75;"/>
   </g>
   <g id="PolyCollection_2">
    <path clip-path="url(#pba66a49fef)" d="M 226.752017 246.195112 
L 226.752017 262.854229 
L 226.782813 263.290735 
L 226.813609 263.700103 
L 226.844405 264.078641 
L 226.875201 264.423448 
L 226.905997 264.732499 
L 226.936793 265.004692 
L 226.967589 265.239864 
L 226.998385 265.438777 
L 227.029181 265.603055 
L 227.059977 265.735109 
L 227.090773 265.838027 
L 227.121569 265.915443 
L 227.152365 265.971402 
L 227.183161 266.010206 
L 227.213957 266.036268 
L 227.244753 266.053966 
L 227.275549 266.067504 
L 227.306345 266.080792 
L 227.337141 266.097332 
L 227.367938 266.120125 
L 227.398734 266.151596 
L 227.42953 266.193537 
L 227.460326 266.247065 
L 227.491122 266.312599 
L 227.521918 266.389857 
L 227.552714 266.477868 
L 227.58351 266.574998 
L 227.614306 266.679 
L 227.645102 266.787072 
L 227.675898 266.89594 
L 227.706694 267.001946 
L 227.73749 267.101158 
L 227.768286 267.189485 
L 227.799082 267.262806 
L 227.829878 267.317095 
L 227.860674 267.348559 
L 227.89147 267.353761 
L 227.922266 267.32974 
L 227.953062 267.274115 
L 227.983858 267.185175 
L 228.014654 267.061946 
L 228.04545 266.904225 
L 228.076246 266.712603 
L 228.107042 266.488447 
L 228.137838 266.233861 
L 228.168634 265.951623 
L 228.19943 265.645092 
L 228.230226 265.318109 
L 228.261022 264.974869 
L 228.291818 264.6198 
L 228.322614 264.257423 
L 228.35341 263.89223 
L 228.384206 263.528556 
L 228.415002 263.170471 
L 228.445798 262.821684 
L 228.476594 262.485469 
L 228.50739 262.164605 
L 228.538186 261.861349 
L 228.568982 261.577414 
L 228.599778 261.313982 
L 228.630574 261.071724 
L 228.66137 260.850842 
L 228.692166 260.651116 
L 228.722962 260.471962 
L 228.753758 260.312498 
L 228.784555 260.171606 
L 228.815351 260.047991 
L 228.846147 259.940243 
L 228.876943 259.846884 
L 228.907739 259.766409 
L 228.938535 259.697323 
L 228.969331 259.638163 
L 229.000127 259.587513 
L 229.030923 259.544016 
L 229.061719 259.506372 
L 229.092515 259.473336 
L 229.123311 259.443713 
L 229.154107 259.416348 
L 229.184903 259.390116 
L 229.215699 259.363917 
L 229.246495 259.336669 
L 229.277291 259.307304 
L 229.308087 259.27477 
L 229.338883 259.238034 
L 229.369679 259.196089 
L 229.400475 259.14797 
L 229.431271 259.092763 
L 229.462067 259.029629 
L 229.492863 258.957818 
L 229.523659 258.876697 
L 229.554455 258.785766 
L 229.585251 258.684679 
L 229.616047 258.573267 
L 229.646843 258.451547 
L 229.677639 258.31974 
L 229.708435 258.178271 
L 229.739231 258.027776 
L 229.770027 257.869088 
L 229.800823 257.703231 
L 229.800823 251.34611 
L 229.800823 251.34611 
L 229.770027 251.180253 
L 229.739231 251.021565 
L 229.708435 250.871069 
L 229.677639 250.729601 
L 229.646843 250.597794 
L 229.616047 250.476074 
L 229.585251 250.364662 
L 229.554455 250.263575 
L 229.523659 250.172644 
L 229.492863 250.091523 
L 229.462067 250.019712 
L 229.431271 249.956578 
L 229.400475 249.901371 
L 229.369679 249.853251 
L 229.338883 249.811307 
L 229.308087 249.774571 
L 229.277291 249.742037 
L 229.246495 249.712672 
L 229.215699 249.685424 
L 229.184903 249.659225 
L 229.154107 249.632993 
L 229.123311 249.605627 
L 229.092515 249.576004 
L 229.061719 249.542969 
L 229.030923 249.505325 
L 229.000127 249.461828 
L 228.969331 249.411178 
L 228.938535 249.352018 
L 228.907739 249.282932 
L 228.876943 249.202457 
L 228.846147 249.109098 
L 228.815351 249.00135 
L 228.784555 248.877735 
L 228.753758 248.736843 
L 228.722962 248.577379 
L 228.692166 248.398225 
L 228.66137 248.198498 
L 228.630574 247.977617 
L 228.599778 247.735359 
L 228.568982 247.471927 
L 228.538186 247.187992 
L 228.50739 246.884736 
L 228.476594 246.563872 
L 228.445798 246.227656 
L 228.415002 245.87887 
L 228.384206 245.520784 
L 228.35341 245.157111 
L 228.322614 244.791918 
L 228.291818 244.429541 
L 228.261022 244.074472 
L 228.230226 243.731232 
L 228.19943 243.404249 
L 228.168634 243.097718 
L 228.137838 242.81548 
L 228.107042 242.560894 
L 228.076246 242.336738 
L 228.04545 242.145116 
L 228.014654 241.987395 
L 227.983858 241.864165 
L 227.953062 241.775226 
L 227.922266 241.719601 
L 227.89147 241.69558 
L 227.860674 241.700781 
L 227.829878 241.732246 
L 227.799082 241.786535 
L 227.768286 241.859856 
L 227.73749 241.948183 
L 227.706694 242.047395 
L 227.675898 242.153401 
L 227.645102 242.262269 
L 227.614306 242.370341 
L 227.58351 242.474343 
L 227.552714 242.571473 
L 227.521918 242.659483 
L 227.491122 242.736742 
L 227.460326 242.802276 
L 227.42953 242.855804 
L 227.398734 242.897745 
L 227.367938 242.929216 
L 227.337141 242.952009 
L 227.306345 242.968548 
L 227.275549 242.981837 
L 227.244753 242.995375 
L 227.213957 243.013073 
L 227.183161 243.039135 
L 227.152365 243.077939 
L 227.121569 243.133897 
L 227.090773 243.211314 
L 227.059977 243.314232 
L 227.029181 243.446286 
L 226.998385 243.610564 
L 226.967589 243.809476 
L 226.936793 244.044649 
L 226.905997 244.316842 
L 226.875201 244.625892 
L 226.844405 244.9707 
L 226.813609 245.349238 
L 226.782813 245.758606 
L 226.752017 246.195112 
z
" style="fill:#ff0000;fill-opacity:0.75;"/>
   </g>
   <g id="PolyCollection_3">
    <path clip-path="url(#pba66a49fef)" d="M 226.752088 190.379216 
L 226.752088 216.037398 
L 230.026806 216.028016 
L 233.301524 215.724341 
L 236.576242 215.147562 
L 239.85096 214.336577 
L 243.125678 213.343649 
L 246.400396 212.22885 
L 249.675115 211.0541 
L 252.949833 209.877617 
L 256.224551 208.749443 
L 259.499269 207.708477 
L 262.773987 206.781156 
L 266.048705 205.981657 
L 269.323423 205.313316 
L 272.598142 204.770819 
L 275.87286 204.342747 
L 279.147578 204.014063 
L 282.422296 203.768287 
L 285.697014 203.58918 
L 288.971732 203.461893 
L 292.246451 203.373625 
L 295.521169 203.313864 
L 298.795887 203.274344 
L 302.070605 203.248807 
L 305.345323 203.232684 
L 308.620041 203.222746 
L 311.894759 203.216787 
L 315.169478 203.21335 
L 318.444196 203.211508 
L 321.718914 203.210702 
L 324.993632 203.210623 
L 328.26835 203.211136 
L 331.543068 203.212221 
L 334.817787 203.21394 
L 338.092505 203.216411 
L 341.367223 203.219788 
L 344.641941 203.224237 
L 347.916659 203.229918 
L 351.191377 203.236952 
L 354.466095 203.245395 
L 357.740814 203.255212 
L 361.015532 203.266247 
L 364.29025 203.278214 
L 367.564968 203.29069 
L 370.839686 203.303134 
L 374.114404 203.314917 
L 377.389122 203.325376 
L 380.663841 203.333871 
L 383.938559 203.339851 
L 387.213277 203.342913 
L 390.487995 203.342849 
L 393.762713 203.33967 
L 397.037431 203.333609 
L 400.31215 203.325093 
L 403.586868 203.314703 
L 406.861586 203.303116 
L 410.136304 203.291044 
L 413.411022 203.279177 
L 416.68574 203.268142 
L 419.960458 203.258467 
L 423.235177 203.250571 
L 426.509895 203.244764 
L 429.784613 203.241254 
L 433.059331 203.240157 
L 436.334049 203.241508 
L 439.608767 203.245265 
L 442.883485 203.251301 
L 446.158204 203.2594 
L 449.432922 203.26924 
L 452.70764 203.280393 
L 455.982358 203.292319 
L 459.257076 203.304388 
L 462.531794 203.315911 
L 465.806513 203.326185 
L 469.081231 203.334556 
L 472.355949 203.340482 
L 475.630667 203.343591 
L 478.905385 203.343733 
L 482.180103 203.341002 
L 485.454821 203.335746 
L 488.72954 203.328544 
L 492.004258 203.320168 
L 495.278976 203.311519 
L 498.553694 203.303568 
L 501.828412 203.29728 
L 505.10313 203.293545 
L 508.377849 203.293116 
L 511.652567 203.29655 
L 514.927285 203.304157 
L 518.202003 203.31596 
L 521.476721 203.331673 
L 524.751439 203.350683 
L 528.026157 203.372072 
L 531.300876 203.394655 
L 534.575594 203.417053 
L 537.850312 203.437792 
L 541.12503 203.455427 
L 544.399748 203.46867 
L 547.674466 203.476514 
L 550.949184 203.47833 
L 550.949184 202.938284 
L 550.949184 202.938284 
L 547.674466 202.9401 
L 544.399748 202.947943 
L 541.12503 202.961186 
L 537.850312 202.978821 
L 534.575594 202.999561 
L 531.300876 203.021958 
L 528.026157 203.044541 
L 524.751439 203.06593 
L 521.476721 203.084941 
L 518.202003 203.100653 
L 514.927285 203.112457 
L 511.652567 203.120064 
L 508.377849 203.123498 
L 505.10313 203.123069 
L 501.828412 203.119334 
L 498.553694 203.113046 
L 495.278976 203.105095 
L 492.004258 203.096446 
L 488.72954 203.088069 
L 485.454821 203.080868 
L 482.180103 203.075612 
L 478.905385 203.072881 
L 475.630667 203.073022 
L 472.355949 203.076132 
L 469.081231 203.082058 
L 465.806513 203.090429 
L 462.531794 203.100703 
L 459.257076 203.112226 
L 455.982358 203.124295 
L 452.70764 203.136221 
L 449.432922 203.147373 
L 446.158204 203.157214 
L 442.883485 203.165312 
L 439.608767 203.171349 
L 436.334049 203.175105 
L 433.059331 203.176457 
L 429.784613 203.17536 
L 426.509895 203.17185 
L 423.235177 203.166043 
L 419.960458 203.158147 
L 416.68574 203.148472 
L 413.411022 203.137436 
L 410.136304 203.12557 
L 406.861586 203.113498 
L 403.586868 203.101911 
L 400.31215 203.09152 
L 397.037431 203.083004 
L 393.762713 203.076943 
L 390.487995 203.073765 
L 387.213277 203.073701 
L 383.938559 203.076763 
L 380.663841 203.082743 
L 377.389122 203.091238 
L 374.114404 203.101697 
L 370.839686 203.11348 
L 367.564968 203.125923 
L 364.29025 203.138399 
L 361.015532 203.150366 
L 357.740814 203.161402 
L 354.466095 203.171218 
L 351.191377 203.179662 
L 347.916659 203.186696 
L 344.641941 203.192376 
L 341.367223 203.196826 
L 338.092505 203.200203 
L 334.817787 203.202674 
L 331.543068 203.204393 
L 328.26835 203.205477 
L 324.993632 203.20599 
L 321.718914 203.205912 
L 318.444196 203.205106 
L 315.169478 203.203263 
L 311.894759 203.199826 
L 308.620041 203.193868 
L 305.345323 203.18393 
L 302.070605 203.167807 
L 298.795887 203.14227 
L 295.521169 203.102749 
L 292.246451 203.042988 
L 288.971732 202.95472 
L 285.697014 202.827434 
L 282.422296 202.648327 
L 279.147578 202.402551 
L 275.87286 202.073867 
L 272.598142 201.645795 
L 269.323423 201.103298 
L 266.048705 200.434957 
L 262.773987 199.635458 
L 259.499269 198.708137 
L 256.224551 197.667171 
L 252.949833 196.538996 
L 249.675115 195.362513 
L 246.400396 194.187764 
L 243.125678 193.072965 
L 239.85096 192.080036 
L 236.576242 191.269051 
L 233.301524 190.692273 
L 230.026806 190.388597 
L 226.752088 190.379216 
z
" style="fill:#ff0000;fill-opacity:0.75;"/>
   </g>
   <g id="PolyCollection_4">
    <path clip-path="url(#pba66a49fef)" d="M 226.871518 145.924915 
L 226.871518 157.858971 
L 226.951906 158.415725 
L 227.032295 158.938363 
L 227.112683 159.423759 
L 227.193071 159.873052 
L 227.27346 160.291232 
L 227.353848 160.68625 
L 227.434237 161.067736 
L 227.514625 161.445459 
L 227.595013 161.827672 
L 227.675402 162.219505 
L 227.75579 162.621619 
L 227.836179 163.029284 
L 227.916567 163.432071 
L 227.996956 163.814273 
L 228.077344 164.156075 
L 228.157732 164.435404 
L 228.238121 164.630231 
L 228.318509 164.721034 
L 228.398898 164.693063 
L 228.479286 164.538058 
L 228.559674 164.255178 
L 228.640063 163.851025 
L 228.720451 163.338814 
L 228.80084 162.73687 
L 228.881228 162.066738 
L 228.961617 161.351229 
L 229.042005 160.612656 
L 229.122393 159.87147 
L 229.202782 159.145352 
L 229.28317 158.448779 
L 229.363559 157.792945 
L 229.443947 157.185948 
L 229.524335 156.633119 
L 229.604724 156.137407 
L 229.685112 155.699769 
L 229.765501 155.319529 
L 229.845889 154.994703 
L 229.926278 154.722264 
L 230.006666 154.498359 
L 230.087054 154.318468 
L 230.167443 154.177504 
L 230.247831 154.069877 
L 230.32822 153.989555 
L 230.408608 153.930145 
L 230.488996 153.885047 
L 230.569385 153.847679 
L 230.649773 153.81179 
L 230.730162 153.771824 
L 230.81055 153.723281 
L 230.890939 153.663027 
L 230.971327 153.589494 
L 231.051715 153.502715 
L 231.132104 153.404195 
L 231.212492 153.296626 
L 231.292881 153.183482 
L 231.373269 153.068553 
L 231.453657 152.95549 
L 231.534046 152.847419 
L 231.614434 152.746661 
L 231.694823 152.654599 
L 231.775211 152.57169 
L 231.8556 152.497588 
L 231.935988 152.431371 
L 232.016376 152.371797 
L 232.096765 152.31756 
L 232.177153 152.267509 
L 232.257542 152.220787 
L 232.33793 152.176897 
L 232.418318 152.13569 
L 232.498707 152.097289 
L 232.579095 152.061985 
L 232.659484 152.03012 
L 232.739872 152.001988 
L 232.820261 151.97776 
L 232.900649 151.957451 
L 232.981037 151.94092 
L 233.061426 151.927903 
L 233.141814 151.918052 
L 233.222203 151.911 
L 233.302591 151.906407 
L 233.382979 151.90401 
L 233.463368 151.903652 
L 233.543756 151.905298 
L 233.624145 151.909036 
L 233.704533 151.915055 
L 233.784922 151.923613 
L 233.86531 151.934977 
L 233.945698 151.949361 
L 234.026087 151.96685 
L 234.106475 151.987323 
L 234.186864 152.010392 
L 234.267252 152.035364 
L 234.34764 152.061239 
L 234.428029 152.086753 
L 234.508417 152.110465 
L 234.588806 152.130887 
L 234.669194 152.146632 
L 234.749583 152.156573 
L 234.829971 152.159973 
L 234.829971 151.623914 
L 234.829971 151.623914 
L 234.749583 151.627313 
L 234.669194 151.637254 
L 234.588806 151.653 
L 234.508417 151.673421 
L 234.428029 151.697133 
L 234.34764 151.722647 
L 234.267252 151.748522 
L 234.186864 151.773494 
L 234.106475 151.796564 
L 234.026087 151.817037 
L 233.945698 151.834526 
L 233.86531 151.84891 
L 233.784922 151.860274 
L 233.704533 151.868831 
L 233.624145 151.874851 
L 233.543756 151.878588 
L 233.463368 151.880234 
L 233.382979 151.879876 
L 233.302591 151.877479 
L 233.222203 151.872887 
L 233.141814 151.865834 
L 233.061426 151.855984 
L 232.981037 151.842966 
L 232.900649 151.826436 
L 232.820261 151.806127 
L 232.739872 151.781898 
L 232.659484 151.753766 
L 232.579095 151.721902 
L 232.498707 151.686597 
L 232.418318 151.648196 
L 232.33793 151.606989 
L 232.257542 151.5631 
L 232.177153 151.516378 
L 232.096765 151.466326 
L 232.016376 151.41209 
L 231.935988 151.352515 
L 231.8556 151.286298 
L 231.775211 151.212197 
L 231.694823 151.129287 
L 231.614434 151.037226 
L 231.534046 150.936467 
L 231.453657 150.828396 
L 231.373269 150.715334 
L 231.292881 150.600404 
L 231.212492 150.48726 
L 231.132104 150.379691 
L 231.051715 150.281172 
L 230.971327 150.194392 
L 230.890939 150.120859 
L 230.81055 150.060606 
L 230.730162 150.012062 
L 230.649773 149.972096 
L 230.569385 149.936208 
L 230.488996 149.89884 
L 230.408608 149.853741 
L 230.32822 149.794332 
L 230.247831 149.714009 
L 230.167443 149.606382 
L 230.087054 149.465418 
L 230.006666 149.285528 
L 229.926278 149.061623 
L 229.845889 148.789183 
L 229.765501 148.464357 
L 229.685112 148.084118 
L 229.604724 147.646479 
L 229.524335 147.150767 
L 229.443947 146.597938 
L 229.363559 145.990941 
L 229.28317 145.335107 
L 229.202782 144.638534 
L 229.122393 143.912417 
L 229.042005 143.17123 
L 228.961617 142.432658 
L 228.881228 141.717149 
L 228.80084 141.047017 
L 228.720451 140.445072 
L 228.640063 139.932862 
L 228.559674 139.528709 
L 228.479286 139.245828 
L 228.398898 139.090823 
L 228.318509 139.062852 
L 228.238121 139.153656 
L 228.157732 139.348482 
L 228.077344 139.627811 
L 227.996956 139.969614 
L 227.916567 140.351816 
L 227.836179 140.754603 
L 227.75579 141.162267 
L 227.675402 141.564381 
L 227.595013 141.956214 
L 227.514625 142.338427 
L 227.434237 142.716151 
L 227.353848 143.097637 
L 227.27346 143.492654 
L 227.193071 143.910834 
L 227.112683 144.360127 
L 227.032295 144.845523 
L 226.951906 145.368162 
L 226.871518 145.924915 
z
" style="fill:#ff0000;fill-opacity:0.75;"/>
   </g>
   <g id="PolyCollection_5">
    <path clip-path="url(#pba66a49fef)" d="M 227.021529 92.531932 
L 227.021529 108.619227 
L 230.364855 110.288331 
L 233.70818 111.7472 
L 237.051506 112.828681 
L 240.394831 113.403466 
L 243.738157 113.40467 
L 247.081483 112.839469 
L 250.424808 111.785469 
L 253.768134 110.373686 
L 257.11146 108.763098 
L 260.454785 107.113118 
L 263.798111 105.559904 
L 267.141437 104.200707 
L 270.484762 103.088049 
L 273.828088 102.233028 
L 277.171414 101.615091 
L 280.514739 101.194683 
L 283.858065 100.925327 
L 287.20139 100.762797 
L 290.544716 100.670445 
L 293.888042 100.621042 
L 297.231367 100.596168 
L 300.574693 100.584384 
L 303.918019 100.579132 
L 307.261344 100.576931 
L 310.60467 100.576064 
L 313.947996 100.575743 
L 317.291321 100.575632 
L 320.634647 100.575595 
L 323.977972 100.575584 
L 327.321298 100.575581 
L 330.664624 100.57558 
L 334.007949 100.57558 
L 337.351275 100.57558 
L 340.694601 100.57558 
L 344.037926 100.57558 
L 347.381252 100.57558 
L 350.724578 100.57558 
L 354.067903 100.57558 
L 357.411229 100.57558 
L 360.754555 100.57558 
L 364.09788 100.57558 
L 367.441206 100.57558 
L 370.784531 100.57558 
L 374.127857 100.57558 
L 377.471183 100.57558 
L 380.814508 100.57558 
L 384.157834 100.57558 
L 387.50116 100.57558 
L 390.844485 100.57558 
L 394.187811 100.57558 
L 397.531137 100.57558 
L 400.874462 100.57558 
L 404.217788 100.57558 
L 407.561113 100.57558 
L 410.904439 100.57558 
L 414.247765 100.57558 
L 417.59109 100.57558 
L 420.934416 100.57558 
L 424.277742 100.57558 
L 427.621067 100.57558 
L 430.964393 100.57558 
L 434.307719 100.57558 
L 437.651044 100.57558 
L 440.99437 100.57558 
L 444.337695 100.57558 
L 447.681021 100.57558 
L 451.024347 100.57558 
L 454.367672 100.57558 
L 457.710998 100.57558 
L 461.054324 100.57558 
L 464.397649 100.57558 
L 467.740975 100.57558 
L 471.084301 100.57558 
L 474.427626 100.57558 
L 477.770952 100.57558 
L 481.114278 100.57558 
L 484.457603 100.57558 
L 487.800929 100.57558 
L 491.144254 100.57558 
L 494.48758 100.575581 
L 497.830906 100.575583 
L 501.174231 100.57559 
L 504.517557 100.575612 
L 507.860883 100.575669 
L 511.204208 100.575814 
L 514.547534 100.576154 
L 517.89086 100.576895 
L 521.234185 100.5784 
L 524.577511 100.581237 
L 527.920836 100.5862 
L 531.264162 100.594239 
L 534.607488 100.60626 
L 537.950813 100.622789 
L 541.294139 100.643562 
L 544.637465 100.667196 
L 547.98079 100.691125 
L 551.324116 100.711956 
L 554.667442 100.726216 
L 558.010767 100.731294 
L 558.010767 100.419865 
L 558.010767 100.419865 
L 554.667442 100.424943 
L 551.324116 100.439203 
L 547.98079 100.460034 
L 544.637465 100.483963 
L 541.294139 100.507597 
L 537.950813 100.52837 
L 534.607488 100.544899 
L 531.264162 100.55692 
L 527.920836 100.564959 
L 524.577511 100.569922 
L 521.234185 100.572759 
L 517.89086 100.574264 
L 514.547534 100.575005 
L 511.204208 100.575345 
L 507.860883 100.57549 
L 504.517557 100.575547 
L 501.174231 100.575569 
L 497.830906 100.575576 
L 494.48758 100.575579 
L 491.144254 100.575579 
L 487.800929 100.575579 
L 484.457603 100.57558 
L 481.114278 100.57558 
L 477.770952 100.57558 
L 474.427626 100.57558 
L 471.084301 100.57558 
L 467.740975 100.57558 
L 464.397649 100.57558 
L 461.054324 100.57558 
L 457.710998 100.57558 
L 454.367672 100.57558 
L 451.024347 100.57558 
L 447.681021 100.57558 
L 444.337695 100.57558 
L 440.99437 100.57558 
L 437.651044 100.57558 
L 434.307719 100.57558 
L 430.964393 100.57558 
L 427.621067 100.57558 
L 424.277742 100.57558 
L 420.934416 100.57558 
L 417.59109 100.57558 
L 414.247765 100.57558 
L 410.904439 100.57558 
L 407.561113 100.57558 
L 404.217788 100.57558 
L 400.874462 100.57558 
L 397.531137 100.57558 
L 394.187811 100.57558 
L 390.844485 100.57558 
L 387.50116 100.57558 
L 384.157834 100.57558 
L 380.814508 100.57558 
L 377.471183 100.57558 
L 374.127857 100.57558 
L 370.784531 100.57558 
L 367.441206 100.57558 
L 364.09788 100.57558 
L 360.754555 100.57558 
L 357.411229 100.57558 
L 354.067903 100.57558 
L 350.724578 100.57558 
L 347.381252 100.57558 
L 344.037926 100.57558 
L 340.694601 100.57558 
L 337.351275 100.57558 
L 334.007949 100.575579 
L 330.664624 100.575579 
L 327.321298 100.575578 
L 323.977972 100.575575 
L 320.634647 100.575564 
L 317.291321 100.575527 
L 313.947996 100.575416 
L 310.60467 100.575095 
L 307.261344 100.574228 
L 303.918019 100.572027 
L 300.574693 100.566775 
L 297.231367 100.554991 
L 293.888042 100.530117 
L 290.544716 100.480714 
L 287.20139 100.388363 
L 283.858065 100.225832 
L 280.514739 99.956476 
L 277.171414 99.536068 
L 273.828088 98.918131 
L 270.484762 98.06311 
L 267.141437 96.950452 
L 263.798111 95.591255 
L 260.454785 94.038041 
L 257.11146 92.388061 
L 253.768134 90.777473 
L 250.424808 89.36569 
L 247.081483 88.31169 
L 243.738157 87.746489 
L 240.394831 87.747693 
L 237.051506 88.322478 
L 233.70818 89.403959 
L 230.364855 90.862828 
L 227.021529 92.531932 
z
" style="fill:#ff0000;fill-opacity:0.75;"/>
   </g>
   <g id="PolyCollection_6">
    <path clip-path="url(#pba66a49fef)" d="M 226.746875 36.434168 
L 226.746875 62.084264 
L 226.888295 62.088307 
L 227.029715 61.939814 
L 227.171135 61.647564 
L 227.312556 61.226132 
L 227.453976 60.69509 
L 227.595396 60.077914 
L 227.736816 59.400706 
L 227.878236 58.69082 
L 228.019656 57.975489 
L 228.161076 57.280563 
L 228.302497 56.629403 
L 228.443917 56.042017 
L 228.585337 55.534438 
L 228.726757 55.118373 
L 228.868177 54.801096 
L 229.009597 54.58555 
L 229.151017 54.470644 
L 229.292438 54.451668 
L 229.433858 54.520811 
L 229.575278 54.667739 
L 229.716698 54.880184 
L 229.858118 55.14455 
L 229.999538 55.446489 
L 230.140959 55.771455 
L 230.282379 56.105211 
L 230.423799 56.434284 
L 230.565219 56.746362 
L 230.706639 57.030621 
L 230.848059 57.277971 
L 230.989479 57.48122 
L 231.1309 57.635148 
L 231.27232 57.736495 
L 231.41374 57.783861 
L 231.55516 57.777545 
L 231.69658 57.719311 
L 231.838 57.612133 
L 231.97942 57.459913 
L 232.120841 57.267199 
L 232.262261 57.038931 
L 232.403681 56.78021 
L 232.545101 56.49612 
L 232.686521 56.191581 
L 232.827941 55.871255 
L 232.969361 55.53949 
L 233.110782 55.200284 
L 233.252202 54.857279 
L 233.393622 54.513767 
L 233.535042 54.172698 
L 233.676462 53.836694 
L 233.817882 53.508063 
L 233.959302 53.188807 
L 234.100723 52.880636 
L 234.242143 52.584981 
L 234.383563 52.303007 
L 234.524983 52.035634 
L 234.666403 51.783554 
L 234.807823 51.547249 
L 234.949244 51.327017 
L 235.090664 51.12298 
L 235.232084 50.935108 
L 235.373504 50.763217 
L 235.514924 50.606986 
L 235.656344 50.465956 
L 235.797764 50.339535 
L 235.939185 50.227013 
L 236.080605 50.127567 
L 236.222025 50.04029 
L 236.363445 49.964206 
L 236.504865 49.898311 
L 236.646285 49.8416 
L 236.787705 49.793108 
L 236.929126 49.751935 
L 237.070546 49.717275 
L 237.211966 49.688432 
L 237.353386 49.664828 
L 237.494806 49.645997 
L 237.636226 49.63157 
L 237.777646 49.621255 
L 237.919067 49.614804 
L 238.060487 49.611988 
L 238.201907 49.612562 
L 238.343327 49.616242 
L 238.484747 49.622684 
L 238.626167 49.631472 
L 238.767587 49.642119 
L 238.909008 49.654067 
L 239.050428 49.666703 
L 239.191848 49.67938 
L 239.333268 49.69144 
L 239.474688 49.702235 
L 239.616108 49.711161 
L 239.757529 49.717675 
L 239.898949 49.721317 
L 240.040369 49.721731 
L 240.181789 49.718672 
L 240.323209 49.712015 
L 240.464629 49.70176 
L 240.606049 49.688022 
L 240.74747 49.67103 
L 240.74747 48.847402 
L 240.74747 48.847402 
L 240.606049 48.83041 
L 240.464629 48.816672 
L 240.323209 48.806417 
L 240.181789 48.79976 
L 240.040369 48.796701 
L 239.898949 48.797115 
L 239.757529 48.800757 
L 239.616108 48.80727 
L 239.474688 48.816197 
L 239.333268 48.826992 
L 239.191848 48.839052 
L 239.050428 48.851729 
L 238.909008 48.864365 
L 238.767587 48.876313 
L 238.626167 48.886959 
L 238.484747 48.895748 
L 238.343327 48.90219 
L 238.201907 48.90587 
L 238.060487 48.906444 
L 237.919067 48.903628 
L 237.777646 48.897177 
L 237.636226 48.886861 
L 237.494806 48.872435 
L 237.353386 48.853603 
L 237.211966 48.83 
L 237.070546 48.801157 
L 236.929126 48.766497 
L 236.787705 48.725323 
L 236.646285 48.676831 
L 236.504865 48.620121 
L 236.363445 48.554226 
L 236.222025 48.478142 
L 236.080605 48.390864 
L 235.939185 48.291419 
L 235.797764 48.178897 
L 235.656344 48.052476 
L 235.514924 47.911446 
L 235.373504 47.755215 
L 235.232084 47.583324 
L 235.090664 47.395451 
L 234.949244 47.191415 
L 234.807823 46.971183 
L 234.666403 46.734878 
L 234.524983 46.482797 
L 234.383563 46.215425 
L 234.242143 45.933451 
L 234.100723 45.637796 
L 233.959302 45.329625 
L 233.817882 45.010369 
L 233.676462 44.681738 
L 233.535042 44.345734 
L 233.393622 44.004665 
L 233.252202 43.661153 
L 233.110782 43.318148 
L 232.969361 42.978941 
L 232.827941 42.647176 
L 232.686521 42.326851 
L 232.545101 42.022312 
L 232.403681 41.738221 
L 232.262261 41.479501 
L 232.120841 41.251233 
L 231.97942 41.058519 
L 231.838 40.906298 
L 231.69658 40.799121 
L 231.55516 40.740887 
L 231.41374 40.73457 
L 231.27232 40.781937 
L 231.1309 40.883284 
L 230.989479 41.037212 
L 230.848059 41.240461 
L 230.706639 41.487811 
L 230.565219 41.77207 
L 230.423799 42.084148 
L 230.282379 42.413221 
L 230.140959 42.746977 
L 229.999538 43.071943 
L 229.858118 43.373882 
L 229.716698 43.638248 
L 229.575278 43.850693 
L 229.433858 43.99762 
L 229.292438 44.066764 
L 229.151017 44.047788 
L 229.009597 43.932882 
L 228.868177 43.717336 
L 228.726757 43.400059 
L 228.585337 42.983994 
L 228.443917 42.476415 
L 228.302497 41.889029 
L 228.161076 41.237869 
L 228.019656 40.542942 
L 227.878236 39.827612 
L 227.736816 39.117725 
L 227.595396 38.440518 
L 227.453976 37.823342 
L 227.312556 37.2923 
L 227.171135 36.870868 
L 227.029715 36.578617 
L 226.888295 36.430125 
L 226.746875 36.434168 
z
" style="fill:#ff0000;fill-opacity:0.75;"/>
   </g>
   <g id="LineCollection_1">
    <path clip-path="url(#pba66a49fef)" d="M 227.934412 312.25558 
L 227.934412 299.426489 
" style="fill:none;stroke:#000000;stroke-width:1.5;"/>
    <path clip-path="url(#pba66a49fef)" d="M 227.934412 260.939216 
L 227.934412 248.110125 
" style="fill:none;stroke:#000000;stroke-width:1.5;"/>
    <path clip-path="url(#pba66a49fef)" d="M 238.930876 209.622852 
L 238.930876 196.793761 
" style="fill:none;stroke:#000000;stroke-width:1.5;"/>
    <path clip-path="url(#pba66a49fef)" d="M 228.460481 158.306489 
L 228.460481 145.477398 
" style="fill:none;stroke:#000000;stroke-width:1.5;"/>
    <path clip-path="url(#pba66a49fef)" d="M 245.561822 106.990125 
L 245.561822 94.161034 
" style="fill:none;stroke:#000000;stroke-width:1.5;"/>
    <path clip-path="url(#pba66a49fef)" d="M 229.54074 55.673761 
L 229.54074 42.84467 
" style="fill:none;stroke:#000000;stroke-width:1.5;"/>
   </g>
   <g id="patch_3">
    <path d="M 226.746875 332.782125 
L 226.746875 22.318125 
" style="fill:none;stroke:#000000;stroke-linecap:square;stroke-linejoin:miter;stroke-width:0.8;"/>
   </g>
   <g id="patch_4">
    <path d="M 617.346875 332.782125 
L 617.346875 22.318125 
" style="fill:none;stroke:#000000;stroke-linecap:square;stroke-linejoin:miter;stroke-width:0.8;"/>
   </g>
   <g id="patch_5">
    <path d="M 226.746875 332.782125 
L 617.346875 332.782125 
" style="fill:none;stroke:#000000;stroke-linecap:square;stroke-linejoin:miter;stroke-width:0.8;"/>
   </g>
   <g id="patch_6">
    <path d="M 226.746875 22.318125 
L 617.346875 22.318125 
" style="fill:none;stroke:#000000;stroke-linecap:square;stroke-linejoin:miter;stroke-width:0.8;"/>
   </g>
   <g id="text_15">
    <!-- AOE2 for 1.0 -->
    <g transform="translate(384.005938 16.318125)scale(0.12 -0.12)">
     <use xlink:href="#DejaVuSans-41"/>
     <use x="68.392578" xlink:href="#DejaVuSans-4f"/>
     <use x="147.103516" xlink:href="#DejaVuSans-45"/>
     <use x="210.287109" xlink:href="#DejaVuSans-32"/>
     <use x="273.910156" xlink:href="#DejaVuSans-20"/>
     <use x="305.697266" xlink:href="#DejaVuSans-66"/>
     <use x="340.902344" xlink:href="#DejaVuSans-6f"/>
     <use x="402.083984" xlink:href="#DejaVuSans-72"/>
     <use x="443.197266" xlink:href="#DejaVuSans-20"/>
     <use x="474.984375" xlink:href="#DejaVuSans-31"/>
     <use x="538.607422" xlink:href="#DejaVuSans-2e"/>
     <use x="570.394531" xlink:href="#DejaVuSans-30"/>
    </g>
   </g>
  </g>
 </g>
 <defs>
  <clipPath id="pba66a49fef">
   <rect height="310.464" width="390.6" x="226.746875" y="22.318125"/>
  </clipPath>
 </defs>
</svg>
