<?xml version='1.0' encoding='utf-8'?>
<svg xmlns:xlink="http://www.w3.org/1999/xlink" xmlns="http://www.w3.org/2000/svg" id="chart-1cc47809-6fbd-4259-8613-93137b3af36a" class="pygal-chart" viewBox="0 0 800 600"><!--Generated with pygal 2.4.0 (lxml) ©Kozea 2012-2016 on 2019-10-13--><!--http://pygal.org--><!--http://github.com/Kozea/pygal--><defs><style type="text/css">#chart-1cc47809-6fbd-4259-8613-93137b3af36a{-webkit-user-select:none;-webkit-font-smoothing:antialiased;font-family:Helvetica,Arial,sans-serif}#chart-1cc47809-6fbd-4259-8613-93137b3af36a .title{font-family:Helvetica,Arial,sans-serif;font-size:18px}#chart-1cc47809-6fbd-4259-8613-93137b3af36a .legends .legend text{font-family:Helvetica,Arial,sans-serif;font-size:15px}#chart-1cc47809-6fbd-4259-8613-93137b3af36a .axis text{font-family:Helvetica,Arial,sans-serif;font-size:15px}#chart-1cc47809-6fbd-4259-8613-93137b3af36a .axis text.major{font-family:Helvetica,Arial,sans-serif;font-size:15px}#chart-1cc47809-6fbd-4259-8613-93137b3af36a .text-overlay text.value{font-family:Helvetica,Arial,sans-serif;font-size:15px}#chart-1cc47809-6fbd-4259-8613-93137b3af36a .text-overlay text.label{font-family:Helvetica,Arial,sans-serif;font-size:15px}#chart-1cc47809-6fbd-4259-8613-93137b3af36a .tooltip{font-family:Helvetica,Arial,sans-serif;font-size:14px}#chart-1cc47809-6fbd-4259-8613-93137b3af36a text.no_data{font-family:Helvetica,Arial,sans-serif;font-size:64px}
#chart-1cc47809-6fbd-4259-8613-93137b3af36a{background-color:transparent}#chart-1cc47809-6fbd-4259-8613-93137b3af36a path,#chart-1cc47809-6fbd-4259-8613-93137b3af36a line,#chart-1cc47809-6fbd-4259-8613-93137b3af36a rect,#chart-1cc47809-6fbd-4259-8613-93137b3af36a circle{-webkit-transition:150ms;-moz-transition:150ms;transition:150ms}#chart-1cc47809-6fbd-4259-8613-93137b3af36a .graph &gt; .background{fill:transparent}#chart-1cc47809-6fbd-4259-8613-93137b3af36a .plot &gt; .background{fill:white}#chart-1cc47809-6fbd-4259-8613-93137b3af36a .graph{fill:rgba(0,0,0,.87)}#chart-1cc47809-6fbd-4259-8613-93137b3af36a text.no_data{fill:rgba(0,0,0,1)}#chart-1cc47809-6fbd-4259-8613-93137b3af36a .title{fill:rgba(0,0,0,1)}#chart-1cc47809-6fbd-4259-8613-93137b3af36a .legends .legend text{fill:rgba(0,0,0,.87)}#chart-1cc47809-6fbd-4259-8613-93137b3af36a .legends .legend:hover text{fill:rgba(0,0,0,1)}#chart-1cc47809-6fbd-4259-8613-93137b3af36a .axis .line{stroke:rgba(0,0,0,1)}#chart-1cc47809-6fbd-4259-8613-93137b3af36a .axis .guide.line{stroke:rgba(0,0,0,.54)}#chart-1cc47809-6fbd-4259-8613-93137b3af36a .axis .major.line{stroke:rgba(0,0,0,.87)}#chart-1cc47809-6fbd-4259-8613-93137b3af36a .axis text.major{fill:rgba(0,0,0,1)}#chart-1cc47809-6fbd-4259-8613-93137b3af36a .axis.y .guides:hover .guide.line,#chart-1cc47809-6fbd-4259-8613-93137b3af36a .line-graph .axis.x .guides:hover .guide.line,#chart-1cc47809-6fbd-4259-8613-93137b3af36a .stackedline-graph .axis.x .guides:hover .guide.line,#chart-1cc47809-6fbd-4259-8613-93137b3af36a .xy-graph .axis.x .guides:hover .guide.line{stroke:rgba(0,0,0,1)}#chart-1cc47809-6fbd-4259-8613-93137b3af36a .axis .guides:hover text{fill:rgba(0,0,0,1)}#chart-1cc47809-6fbd-4259-8613-93137b3af36a .reactive{fill-opacity:.7;stroke-opacity:.8}#chart-1cc47809-6fbd-4259-8613-93137b3af36a .ci{stroke:rgba(0,0,0,.87)}#chart-1cc47809-6fbd-4259-8613-93137b3af36a .reactive.active,#chart-1cc47809-6fbd-4259-8613-93137b3af36a .active .reactive{fill-opacity:.8;stroke-opacity:.9;stroke-width:4}#chart-1cc47809-6fbd-4259-8613-93137b3af36a .ci .reactive.active{stroke-width:1.5}#chart-1cc47809-6fbd-4259-8613-93137b3af36a .series text{fill:rgba(0,0,0,1)}#chart-1cc47809-6fbd-4259-8613-93137b3af36a .tooltip rect{fill:white;stroke:rgba(0,0,0,1);-webkit-transition:opacity 150ms;-moz-transition:opacity 150ms;transition:opacity 150ms}#chart-1cc47809-6fbd-4259-8613-93137b3af36a .tooltip .label{fill:rgba(0,0,0,.87)}#chart-1cc47809-6fbd-4259-8613-93137b3af36a .tooltip .label{fill:rgba(0,0,0,.87)}#chart-1cc47809-6fbd-4259-8613-93137b3af36a .tooltip .legend{font-size:.8em;fill:rgba(0,0,0,.54)}#chart-1cc47809-6fbd-4259-8613-93137b3af36a .tooltip .x_label{font-size:.6em;fill:rgba(0,0,0,1)}#chart-1cc47809-6fbd-4259-8613-93137b3af36a .tooltip .xlink{font-size:.5em;text-decoration:underline}#chart-1cc47809-6fbd-4259-8613-93137b3af36a .tooltip .value{font-size:1.5em}#chart-1cc47809-6fbd-4259-8613-93137b3af36a .bound{font-size:.5em}#chart-1cc47809-6fbd-4259-8613-93137b3af36a .max-value{font-size:.75em;fill:rgba(0,0,0,.54)}#chart-1cc47809-6fbd-4259-8613-93137b3af36a .map-element{fill:white;stroke:rgba(0,0,0,.54) !important}#chart-1cc47809-6fbd-4259-8613-93137b3af36a .map-element .reactive{fill-opacity:inherit;stroke-opacity:inherit}#chart-1cc47809-6fbd-4259-8613-93137b3af36a .color-0,#chart-1cc47809-6fbd-4259-8613-93137b3af36a .color-0 a:visited{stroke:#F44336;fill:#F44336}#chart-1cc47809-6fbd-4259-8613-93137b3af36a .color-1,#chart-1cc47809-6fbd-4259-8613-93137b3af36a .color-1 a:visited{stroke:#3F51B5;fill:#3F51B5}#chart-1cc47809-6fbd-4259-8613-93137b3af36a .color-2,#chart-1cc47809-6fbd-4259-8613-93137b3af36a .color-2 a:visited{stroke:#009688;fill:#009688}#chart-1cc47809-6fbd-4259-8613-93137b3af36a .color-3,#chart-1cc47809-6fbd-4259-8613-93137b3af36a .color-3 a:visited{stroke:#FFC107;fill:#FFC107}#chart-1cc47809-6fbd-4259-8613-93137b3af36a .color-4,#chart-1cc47809-6fbd-4259-8613-93137b3af36a .color-4 a:visited{stroke:#FF5722;fill:#FF5722}#chart-1cc47809-6fbd-4259-8613-93137b3af36a .color-5,#chart-1cc47809-6fbd-4259-8613-93137b3af36a .color-5 a:visited{stroke:#9C27B0;fill:#9C27B0}#chart-1cc47809-6fbd-4259-8613-93137b3af36a .text-overlay .color-0 text{fill:black}#chart-1cc47809-6fbd-4259-8613-93137b3af36a .text-overlay .color-1 text{fill:black}#chart-1cc47809-6fbd-4259-8613-93137b3af36a .text-overlay .color-2 text{fill:black}#chart-1cc47809-6fbd-4259-8613-93137b3af36a .text-overlay .color-3 text{fill:black}#chart-1cc47809-6fbd-4259-8613-93137b3af36a .text-overlay .color-4 text{fill:black}#chart-1cc47809-6fbd-4259-8613-93137b3af36a .text-overlay .color-5 text{fill:black}
#chart-1cc47809-6fbd-4259-8613-93137b3af36a text.no_data{text-anchor:middle}#chart-1cc47809-6fbd-4259-8613-93137b3af36a .guide.line{fill:none}#chart-1cc47809-6fbd-4259-8613-93137b3af36a .centered{text-anchor:middle}#chart-1cc47809-6fbd-4259-8613-93137b3af36a .title{text-anchor:middle}#chart-1cc47809-6fbd-4259-8613-93137b3af36a .legends .legend text{fill-opacity:1}#chart-1cc47809-6fbd-4259-8613-93137b3af36a .axis.x text{text-anchor:middle}#chart-1cc47809-6fbd-4259-8613-93137b3af36a .axis.x:not(.web) text[transform]{text-anchor:start}#chart-1cc47809-6fbd-4259-8613-93137b3af36a .axis.x:not(.web) text[transform].backwards{text-anchor:end}#chart-1cc47809-6fbd-4259-8613-93137b3af36a .axis.y text{text-anchor:end}#chart-1cc47809-6fbd-4259-8613-93137b3af36a .axis.y text[transform].backwards{text-anchor:start}#chart-1cc47809-6fbd-4259-8613-93137b3af36a .axis.y2 text{text-anchor:start}#chart-1cc47809-6fbd-4259-8613-93137b3af36a .axis.y2 text[transform].backwards{text-anchor:end}#chart-1cc47809-6fbd-4259-8613-93137b3af36a .axis .guide.line{stroke-dasharray:1}#chart-1cc47809-6fbd-4259-8613-93137b3af36a .axis .major.guide.line{stroke-dasharray:1}#chart-1cc47809-6fbd-4259-8613-93137b3af36a .horizontal .axis.y .guide.line,#chart-1cc47809-6fbd-4259-8613-93137b3af36a .horizontal .axis.y2 .guide.line,#chart-1cc47809-6fbd-4259-8613-93137b3af36a .vertical .axis.x .guide.line{opacity:0}#chart-1cc47809-6fbd-4259-8613-93137b3af36a .horizontal .axis.always_show .guide.line,#chart-1cc47809-6fbd-4259-8613-93137b3af36a .vertical .axis.always_show .guide.line{opacity:1 !important}#chart-1cc47809-6fbd-4259-8613-93137b3af36a .axis.y .guides:hover .guide.line,#chart-1cc47809-6fbd-4259-8613-93137b3af36a .axis.y2 .guides:hover .guide.line,#chart-1cc47809-6fbd-4259-8613-93137b3af36a .axis.x .guides:hover .guide.line{opacity:1}#chart-1cc47809-6fbd-4259-8613-93137b3af36a .axis .guides:hover text{opacity:1}#chart-1cc47809-6fbd-4259-8613-93137b3af36a .nofill{fill:none}#chart-1cc47809-6fbd-4259-8613-93137b3af36a .subtle-fill{fill-opacity:.2}#chart-1cc47809-6fbd-4259-8613-93137b3af36a .dot{stroke-width:1px;fill-opacity:1}#chart-1cc47809-6fbd-4259-8613-93137b3af36a .dot.active{stroke-width:5px}#chart-1cc47809-6fbd-4259-8613-93137b3af36a .dot.negative{fill:transparent}#chart-1cc47809-6fbd-4259-8613-93137b3af36a text,#chart-1cc47809-6fbd-4259-8613-93137b3af36a tspan{stroke:none !important}#chart-1cc47809-6fbd-4259-8613-93137b3af36a .series text.active{opacity:1}#chart-1cc47809-6fbd-4259-8613-93137b3af36a .tooltip rect{fill-opacity:.95;stroke-width:.5}#chart-1cc47809-6fbd-4259-8613-93137b3af36a .tooltip text{fill-opacity:1}#chart-1cc47809-6fbd-4259-8613-93137b3af36a .showable{visibility:hidden}#chart-1cc47809-6fbd-4259-8613-93137b3af36a .showable.shown{visibility:visible}#chart-1cc47809-6fbd-4259-8613-93137b3af36a .gauge-background{fill:rgba(229,229,229,1);stroke:none}#chart-1cc47809-6fbd-4259-8613-93137b3af36a .bg-lines{stroke:transparent;stroke-width:2px}</style><script type="text/javascript">window.pygal = window.pygal || {};window.pygal.config = window.pygal.config || {};window.pygal.config['1cc47809-6fbd-4259-8613-93137b3af36a'] = {"allow_interruptions": false, "box_mode": "extremes", "classes": ["pygal-chart"], "css": ["file://style.css", "file://graph.css"], "defs": [], "disable_xml_declaration": false, "dots_size": 2.5, "dynamic_print_values": false, "explicit_size": false, "fill": false, "force_uri_protocol": "https", "formatter": null, "half_pie": false, "height": 600, "include_x_axis": false, "inner_radius": 0, "interpolate": null, "interpolation_parameters": {}, "interpolation_precision": 250, "inverse_y_axis": false, "js": ["//kozea.github.io/pygal.js/2.0.x/pygal-tooltips.min.js"], "legend_at_bottom": true, "legend_at_bottom_columns": 2, "legend_box_size": 12, "logarithmic": false, "margin": 20, "margin_bottom": 65, "margin_left": null, "margin_right": null, "margin_top": null, "max_scale": 16, "min_scale": 4, "missing_value_fill_truncation": "x", "no_data_text": "No data", "no_prefix": false, "order_min": null, "pretty_print": false, "print_labels": false, "print_values": false, "print_values_position": "center", "print_zeroes": true, "range": [0.0, 50.0], "rounded_bars": null, "secondary_range": null, "show_dots": true, "show_legend": true, "show_minor_x_labels": false, "show_minor_y_labels": true, "show_only_major_dots": true, "show_x_guides": true, "show_x_labels": true, "show_y_guides": true, "show_y_labels": true, "spacing": 10, "stack_from_top": false, "strict": false, "stroke": true, "stroke_style": null, "style": {"background": "transparent", "ci_colors": [], "colors": ["#F44336", "#3F51B5", "#009688", "#FFC107", "#FF5722", "#9C27B0", "#03A9F4", "#8BC34A", "#FF9800", "#E91E63", "#2196F3", "#4CAF50", "#FFEB3B", "#673AB7", "#00BCD4", "#CDDC39", "#9E9E9E", "#607D8B"], "font_family": "Helvetica, Arial, sans-serif", "foreground": "rgba(0, 0, 0, .87)", "foreground_strong": "rgba(0, 0, 0, 1)", "foreground_subtle": "rgba(0, 0, 0, .54)", "guide_stroke_dasharray": 1, "label_font_family": "Helvetica, Arial, sans-serif", "label_font_size": 15, "legend_font_family": "Helvetica, Arial, sans-serif", "legend_font_size": 15, "major_guide_stroke_dasharray": 1, "major_label_font_family": "Helvetica, Arial, sans-serif", "major_label_font_size": 15, "no_data_font_family": "Helvetica, Arial, sans-serif", "no_data_font_size": 64, "opacity": ".7", "opacity_hover": ".8", "plot_background": "white", "stroke_opacity": ".8", "stroke_opacity_hover": ".9", "title_font_family": "Helvetica, Arial, sans-serif", "title_font_size": 18, "tooltip_font_family": "Helvetica, Arial, sans-serif", "tooltip_font_size": 14, "transition": "150ms", "value_background": "rgba(229, 229, 229, 1)", "value_colors": [], "value_font_family": "Helvetica, Arial, sans-serif", "value_font_size": 15, "value_label_font_family": "Helvetica, Arial, sans-serif", "value_label_font_size": 15}, "title": "Percentage of Annotations for T \u00b15.0 BPM", "tooltip_border_radius": 0, "tooltip_fancy_mode": true, "truncate_label": null, "truncate_legend": -1, "width": 800, "x_label_rotation": 90, "x_labels": ["0.0", "1.0", "2.0", "3.0", "4.0", "5.0", "6.0", "7.0", "8.0", "9.0", "10.0", "11.0", "12.0", "13.0", "14.0", "15.0", "16.0", "17.0", "18.0", "19.0", "20.0", "21.0", "22.0", "23.0", "24.0", "25.0", "26.0", "27.0", "28.0", "29.0", "30.0", "31.0", "32.0", "33.0", "34.0", "35.0", "36.0", "37.0", "38.0", "39.0", "40.0", "41.0", "42.0", "43.0", "44.0", "45.0", "46.0", "47.0", "48.0", "49.0", "50.0", "51.0", "52.0", "53.0", "54.0", "55.0", "56.0", "57.0", "58.0", "59.0", "60.0", "61.0", "62.0", "63.0", "64.0", "65.0", "66.0", "67.0", "68.0", "69.0", "70.0", "71.0", "72.0", "73.0", "74.0", "75.0", "76.0", "77.0", "78.0", "79.0", "80.0", "81.0", "82.0", "83.0", "84.0", "85.0", "86.0", "87.0", "88.0", "89.0", "90.0", "91.0", "92.0", "93.0", "94.0", "95.0", "96.0", "97.0", "98.0", "99.0", "100.0", "101.0", "102.0", "103.0", "104.0", "105.0", "106.0", "107.0", "108.0", "109.0", "110.0", "111.0", "112.0", "113.0", "114.0", "115.0", "116.0", "117.0", "118.0", "119.0", "120.0", "121.0", "122.0", "123.0", "124.0", "125.0", "126.0", "127.0", "128.0", "129.0", "130.0", "131.0", "132.0", "133.0", "134.0", "135.0", "136.0", "137.0", "138.0", "139.0", "140.0", "141.0", "142.0", "143.0", "144.0", "145.0", "146.0", "147.0", "148.0", "149.0", "150.0", "151.0", "152.0", "153.0", "154.0", "155.0", "156.0", "157.0", "158.0", "159.0", "160.0", "161.0", "162.0", "163.0", "164.0", "165.0", "166.0", "167.0", "168.0", "169.0", "170.0", "171.0", "172.0", "173.0", "174.0", "175.0", "176.0", "177.0", "178.0", "179.0", "180.0", "181.0", "182.0", "183.0", "184.0", "185.0", "186.0", "187.0", "188.0", "189.0", "190.0", "191.0", "192.0", "193.0", "194.0", "195.0", "196.0", "197.0", "198.0", "199.0", "200.0", "201.0", "202.0", "203.0", "204.0", "205.0", "206.0", "207.0", "208.0", "209.0", "210.0", "211.0", "212.0", "213.0", "214.0", "215.0", "216.0", "217.0", "218.0", "219.0", "220.0", "221.0", "222.0", "223.0", "224.0", "225.0", "226.0", "227.0", "228.0", "229.0", "230.0", "231.0", "232.0", "233.0", "234.0", "235.0", "236.0", "237.0", "238.0", "239.0", "240.0", "241.0", "242.0", "243.0", "244.0", "245.0", "246.0", "247.0", "248.0", "249.0", "250.0", "251.0", "252.0", "253.0", "254.0", "255.0", "256.0", "257.0", "258.0", "259.0", "260.0", "261.0", "262.0", "263.0", "264.0", "265.0", "266.0", "267.0", "268.0", "269.0", "270.0", "271.0", "272.0", "273.0", "274.0", "275.0", "276.0", "277.0", "278.0", "279.0", "280.0", "281.0", "282.0", "283.0", "284.0", "285.0", "286.0", "287.0", "288.0", "289.0", "290.0", "291.0", "292.0", "293.0", "294.0", "295.0", "296.0", "297.0", "298.0", "299.0", "300.0"], "x_labels_major": null, "x_labels_major_count": 11, "x_labels_major_every": null, "x_title": "T (BPM)", "xrange": null, "y_label_rotation": 0, "y_labels": null, "y_labels_major": null, "y_labels_major_count": null, "y_labels_major_every": null, "y_title": "Values (%)", "zero": 0, "legends": ["boeck2015/tempodetector2016_default", "davies2009/mirex_qm_tempotracker", "percival2014/stem", "schreiber2014/default", "schreiber2017/ismir2017", "schreiber2017/mirex2017"]}</script><script type="text/javascript" xlink:href="https://kozea.github.io/pygal.js/2.0.x/pygal-tooltips.min.js"/></defs><title>Percentage of Annotations for T ±5.0 BPM</title><g class="graph line-graph vertical"><rect class="background" height="600" width="800" x="0" y="0"/><g class="plot" transform="translate(94, 48)"><rect class="background" height="334.0" width="686.0" x="0" y="0"/><g class="axis y always_show"><g class="guides"><path class="major line" d="M0.000000 327.576923 h686.000000"/><text class="major" x="-5" y="332.8269230769231">0.0</text><title>0.0</title></g><g class="guides"><path class="guide line" d="M0.000000 263.346154 h686.000000"/><text class="" x="-5" y="268.5961538461538">10.0</text><title>10.0</title></g><g class="guides"><path class="guide line" d="M0.000000 199.115385 h686.000000"/><text class="" x="-5" y="204.3653846153846">20.0</text><title>20.0</title></g><g class="guides"><path class="guide line" d="M0.000000 134.884615 h686.000000"/><text class="" x="-5" y="140.1346153846154">30.0</text><title>30.0</title></g><g class="guides"><path class="guide line" d="M0.000000 70.653846 h686.000000"/><text class="" x="-5" y="75.90384615384613">40.0</text><title>40.0</title></g><g class="guides"><path class="major guide line" d="M0.000000 6.423077 h686.000000"/><text class="major" x="-5" y="11.673076923076906">50.0</text><title>50.0</title></g></g><g class="axis x always_show"><g class="guides"><path class="major line" d="M13.192308 0.000000 v334.000000"/><text class="major" x="13.192307692307692" y="351.5" transform="rotate(90 13.192308 351.500000)">0.0</text></g><g class="guides"><path class="major guide line" d="M79.153846 0.000000 v334.000000"/><text class="major" x="79.15384615384616" y="351.5" transform="rotate(90 79.153846 351.500000)">30.0</text></g><g class="guides"><path class="major guide line" d="M145.115385 0.000000 v334.000000"/><text class="major" x="145.11538461538458" y="351.5" transform="rotate(90 145.115385 351.500000)">60.0</text></g><g class="guides"><path class="major guide line" d="M211.076923 0.000000 v334.000000"/><text class="major" x="211.07692307692307" y="351.5" transform="rotate(90 211.076923 351.500000)">90.0</text></g><g class="guides"><path class="major guide line" d="M277.038462 0.000000 v334.000000"/><text class="major" x="277.03846153846155" y="351.5" transform="rotate(90 277.038462 351.500000)">120.0</text></g><g class="guides"><path class="major guide line" d="M343.000000 0.000000 v334.000000"/><text class="major" x="343.0" y="351.5" transform="rotate(90 343.000000 351.500000)">150.0</text></g><g class="guides"><path class="major guide line" d="M408.961538 0.000000 v334.000000"/><text class="major" x="408.96153846153845" y="351.5" transform="rotate(90 408.961538 351.500000)">180.0</text></g><g class="guides"><path class="major guide line" d="M474.923077 0.000000 v334.000000"/><text class="major" x="474.92307692307685" y="351.5" transform="rotate(90 474.923077 351.500000)">210.0</text></g><g class="guides"><path class="major guide line" d="M540.884615 0.000000 v334.000000"/><text class="major" x="540.8846153846155" y="351.5" transform="rotate(90 540.884615 351.500000)">240.0</text></g><g class="guides"><path class="major guide line" d="M606.846154 0.000000 v334.000000"/><text class="major" x="606.8461538461538" y="351.5" transform="rotate(90 606.846154 351.500000)">270.0</text></g><g class="guides"><path class="major guide line" d="M672.807692 0.000000 v334.000000"/><text class="major" x="672.8076923076923" y="351.5" transform="rotate(90 672.807692 351.500000)">300.0</text></g></g><g class="series serie-0 color-0"><path class="line reactive nofill" d="M13.192308 327.576923 L15.391026 327.576923 17.589744 327.576923 19.788462 327.576923 21.987179 327.576923 24.185897 327.576923 26.384615 327.576923 28.583333 327.576923 30.782051 327.576923 32.980769 327.576923 35.179487 327.576923 37.378205 327.576923 39.576923 327.576923 41.775641 327.576923 43.974359 327.576923 46.173077 327.576923 48.371795 327.576923 50.570513 327.576923 52.769231 327.576923 54.967949 327.576923 57.166667 327.576923 59.365385 327.576923 61.564103 327.576923 63.762821 327.576923 65.961538 327.576923 68.160256 327.576923 70.358974 327.576923 72.557692 327.576923 74.756410 327.576923 76.955128 327.576923 79.153846 327.576923 81.352564 327.576923 83.551282 327.576923 85.750000 327.576923 87.948718 327.576923 90.147436 327.576923 92.346154 327.576923 94.544872 327.576923 96.743590 327.576923 98.942308 327.576923 101.141026 327.576923 103.339744 317.047289 105.538462 317.047289 107.737179 317.047289 109.935897 317.047289 112.134615 317.047289 114.333333 317.047289 116.532051 317.047289 118.730769 317.047289 120.929487 317.047289 123.128205 306.517654 125.326923 317.047289 127.525641 317.047289 129.724359 317.047289 131.923077 306.517654 134.121795 306.517654 136.320513 306.517654 138.519231 306.517654 140.717949 295.988020 142.916667 295.988020 145.115385 306.517654 147.314103 295.988020 149.512821 285.458386 151.711538 274.928752 153.910256 274.928752 156.108974 274.928752 158.307692 243.339849 160.506410 232.810214 162.705128 232.810214 164.903846 222.280580 167.102564 211.750946 169.301282 211.750946 171.500000 222.280580 173.698718 222.280580 175.897436 232.810214 178.096154 222.280580 180.294872 253.869483 182.493590 264.399117 184.692308 274.928752 186.891026 285.458386 189.089744 285.458386 191.288462 306.517654 193.487179 306.517654 195.685897 317.047289 197.884615 317.047289 200.083333 317.047289 202.282051 327.576923 204.480769 327.576923 206.679487 327.576923 208.878205 317.047289 211.076923 317.047289 213.275641 317.047289 215.474359 295.988020 217.673077 295.988020 219.871795 285.458386 222.070513 274.928752 224.269231 274.928752 226.467949 274.928752 228.666667 274.928752 230.865385 285.458386 233.064103 285.458386 235.262821 274.928752 237.461538 295.988020 239.660256 274.928752 241.858974 285.458386 244.057692 285.458386 246.256410 295.988020 248.455128 285.458386 250.653846 285.458386 252.852564 274.928752 255.051282 274.928752 257.250000 274.928752 259.448718 274.928752 261.647436 285.458386 263.846154 285.458386 266.044872 253.869483 268.243590 253.869483 270.442308 264.399117 272.641026 211.750946 274.839744 222.280580 277.038462 211.750946 279.237179 222.280580 281.435897 222.280580 283.634615 211.750946 285.833333 211.750946 288.032051 211.750946 290.230769 222.280580 292.429487 222.280580 294.628205 274.928752 296.826923 274.928752 299.025641 274.928752 301.224359 285.458386 303.423077 274.928752 305.621795 295.988020 307.820513 295.988020 310.019231 253.869483 312.217949 274.928752 314.416667 274.928752 316.615385 264.399117 318.814103 264.399117 321.012821 264.399117 323.211538 264.399117 325.410256 243.339849 327.608974 243.339849 329.807692 243.339849 332.006410 264.399117 334.205128 264.399117 336.403846 264.399117 338.602564 274.928752 340.801282 253.869483 343.000000 253.869483 345.198718 253.869483 347.397436 285.458386 349.596154 285.458386 351.794872 285.458386 353.993590 285.458386 356.192308 306.517654 358.391026 306.517654 360.589744 306.517654 362.788462 327.576923 364.987179 327.576923 367.185897 327.576923 369.384615 327.576923 371.583333 327.576923 373.782051 327.576923 375.980769 327.576923 378.179487 327.576923 380.378205 317.047289 382.576923 317.047289 384.775641 317.047289 386.974359 317.047289 389.173077 317.047289 391.371795 306.517654 393.570513 306.517654 395.769231 306.517654 397.967949 306.517654 400.166667 306.517654 402.365385 306.517654 404.564103 306.517654 406.762821 306.517654 408.961538 306.517654 411.160256 306.517654 413.358974 317.047289 415.557692 306.517654 417.756410 306.517654 419.955128 306.517654 422.153846 306.517654 424.352564 317.047289 426.551282 317.047289 428.750000 317.047289 430.948718 317.047289 433.147436 317.047289 435.346154 317.047289 437.544872 327.576923 439.743590 327.576923 441.942308 317.047289 444.141026 317.047289 446.339744 317.047289 448.538462 317.047289 450.737179 317.047289 452.935897 317.047289 455.134615 317.047289 457.333333 317.047289 459.532051 317.047289 461.730769 317.047289 463.929487 317.047289 466.128205 327.576923 468.326923 327.576923 470.525641 327.576923 472.724359 327.576923 474.923077 327.576923 477.121795 327.576923 479.320513 327.576923 481.519231 327.576923 483.717949 327.576923 485.916667 327.576923 488.115385 327.576923 490.314103 327.576923 492.512821 327.576923 494.711538 327.576923 496.910256 327.576923 499.108974 327.576923 501.307692 327.576923 503.506410 327.576923 505.705128 327.576923 507.903846 327.576923 510.102564 327.576923 512.301282 327.576923 514.500000 327.576923 516.698718 327.576923 518.897436 327.576923 521.096154 327.576923 523.294872 327.576923 525.493590 327.576923 527.692308 327.576923 529.891026 327.576923 532.089744 327.576923 534.288462 327.576923 536.487179 327.576923 538.685897 327.576923 540.884615 327.576923 543.083333 327.576923 545.282051 327.576923 547.480769 327.576923 549.679487 327.576923 551.878205 327.576923 554.076923 327.576923 556.275641 327.576923 558.474359 327.576923 560.673077 327.576923 562.871795 327.576923 565.070513 327.576923 567.269231 327.576923 569.467949 327.576923 571.666667 327.576923 573.865385 327.576923 576.064103 327.576923 578.262821 327.576923 580.461538 327.576923 582.660256 327.576923 584.858974 327.576923 587.057692 327.576923 589.256410 327.576923 591.455128 327.576923 593.653846 327.576923 595.852564 327.576923 598.051282 327.576923 600.250000 327.576923 602.448718 327.576923 604.647436 327.576923 606.846154 327.576923 609.044872 327.576923 611.243590 327.576923 613.442308 327.576923 615.641026 327.576923 617.839744 327.576923 620.038462 327.576923 622.237179 327.576923 624.435897 327.576923 626.634615 327.576923 628.833333 327.576923 631.032051 327.576923 633.230769 327.576923 635.429487 327.576923 637.628205 327.576923 639.826923 327.576923 642.025641 327.576923 644.224359 327.576923 646.423077 327.576923 648.621795 327.576923 650.820513 327.576923 653.019231 327.576923 655.217949 327.576923 657.416667 327.576923 659.615385 327.576923 661.814103 327.576923 664.012821 327.576923 666.211538 327.576923 668.410256 327.576923 670.608974 327.576923 672.807692 327.576923"/></g><g class="series serie-1 color-1"><path class="line reactive nofill" d="M13.192308 327.576923 L15.391026 327.576923 17.589744 327.576923 19.788462 327.576923 21.987179 327.576923 24.185897 327.576923 26.384615 327.576923 28.583333 327.576923 30.782051 327.576923 32.980769 327.576923 35.179487 327.576923 37.378205 327.576923 39.576923 327.576923 41.775641 327.576923 43.974359 327.576923 46.173077 327.576923 48.371795 327.576923 50.570513 327.576923 52.769231 327.576923 54.967949 327.576923 57.166667 327.576923 59.365385 327.576923 61.564103 327.576923 63.762821 327.576923 65.961538 327.576923 68.160256 327.576923 70.358974 327.576923 72.557692 327.576923 74.756410 327.576923 76.955128 327.576923 79.153846 327.576923 81.352564 327.576923 83.551282 327.576923 85.750000 327.576923 87.948718 327.576923 90.147436 327.576923 92.346154 327.576923 94.544872 327.576923 96.743590 327.576923 98.942308 327.576923 101.141026 327.576923 103.339744 327.576923 105.538462 327.576923 107.737179 327.576923 109.935897 327.576923 112.134615 327.576923 114.333333 327.576923 116.532051 327.576923 118.730769 327.576923 120.929487 327.576923 123.128205 327.576923 125.326923 327.576923 127.525641 327.576923 129.724359 327.576923 131.923077 327.576923 134.121795 327.576923 136.320513 327.576923 138.519231 327.576923 140.717949 327.576923 142.916667 327.576923 145.115385 327.576923 147.314103 327.576923 149.512821 327.576923 151.711538 327.576923 153.910256 327.576923 156.108974 327.576923 158.307692 306.517654 160.506410 306.517654 162.705128 306.517654 164.903846 306.517654 167.102564 306.517654 169.301282 306.517654 171.500000 306.517654 173.698718 306.517654 175.897436 306.517654 178.096154 306.517654 180.294872 327.576923 182.493590 327.576923 184.692308 327.576923 186.891026 327.576923 189.089744 327.576923 191.288462 327.576923 193.487179 327.576923 195.685897 327.576923 197.884615 327.576923 200.083333 327.576923 202.282051 327.576923 204.480769 327.576923 206.679487 327.576923 208.878205 327.576923 211.076923 327.576923 213.275641 327.576923 215.474359 327.576923 217.673077 327.576923 219.871795 327.576923 222.070513 327.576923 224.269231 327.576923 226.467949 306.517654 228.666667 306.517654 230.865385 295.988020 233.064103 295.988020 235.262821 285.458386 237.461538 285.458386 239.660256 274.928752 241.858974 274.928752 244.057692 264.399117 246.256410 264.399117 248.455128 285.458386 250.653846 285.458386 252.852564 295.988020 255.051282 285.458386 257.250000 295.988020 259.448718 295.988020 261.647436 295.988020 263.846154 295.988020 266.044872 306.517654 268.243590 285.458386 270.442308 285.458386 272.641026 285.458386 274.839744 243.339849 277.038462 253.869483 279.237179 253.869483 281.435897 222.280580 283.634615 232.810214 285.833333 232.810214 288.032051 148.573140 290.230769 169.632409 292.429487 169.632409 294.628205 127.513871 296.826923 169.632409 299.025641 169.632409 301.224359 138.043506 303.423077 169.632409 305.621795 169.632409 307.820513 169.632409 310.019231 222.280580 312.217949 222.280580 314.416667 222.280580 316.615385 264.399117 318.814103 201.221311 321.012821 201.221311 323.211538 232.810214 325.410256 232.810214 327.608974 169.632409 329.807692 169.632409 332.006410 201.221311 334.205128 201.221311 336.403846 169.632409 338.602564 169.632409 340.801282 232.810214 343.000000 232.810214 345.198718 232.810214 347.397436 211.750946 349.596154 274.928752 351.794872 274.928752 353.993590 274.928752 356.192308 274.928752 358.391026 285.458386 360.589744 285.458386 362.788462 285.458386 364.987179 285.458386 367.185897 285.458386 369.384615 306.517654 371.583333 306.517654 373.782051 306.517654 375.980769 306.517654 378.179487 306.517654 380.378205 327.576923 382.576923 317.047289 384.775641 317.047289 386.974359 317.047289 389.173077 317.047289 391.371795 317.047289 393.570513 317.047289 395.769231 317.047289 397.967949 317.047289 400.166667 317.047289 402.365385 317.047289 404.564103 327.576923 406.762821 327.576923 408.961538 317.047289 411.160256 317.047289 413.358974 317.047289 415.557692 317.047289 417.756410 317.047289 419.955128 317.047289 422.153846 317.047289 424.352564 295.988020 426.551282 295.988020 428.750000 295.988020 430.948718 306.517654 433.147436 306.517654 435.346154 306.517654 437.544872 306.517654 439.743590 295.988020 441.942308 295.988020 444.141026 295.988020 446.339744 317.047289 448.538462 317.047289 450.737179 317.047289 452.935897 317.047289 455.134615 317.047289 457.333333 317.047289 459.532051 317.047289 461.730769 327.576923 463.929487 327.576923 466.128205 327.576923 468.326923 327.576923 470.525641 327.576923 472.724359 327.576923 474.923077 327.576923 477.121795 327.576923 479.320513 327.576923 481.519231 327.576923 483.717949 327.576923 485.916667 327.576923 488.115385 327.576923 490.314103 327.576923 492.512821 327.576923 494.711538 327.576923 496.910256 327.576923 499.108974 327.576923 501.307692 327.576923 503.506410 327.576923 505.705128 327.576923 507.903846 327.576923 510.102564 327.576923 512.301282 327.576923 514.500000 327.576923 516.698718 327.576923 518.897436 327.576923 521.096154 327.576923 523.294872 327.576923 525.493590 327.576923 527.692308 327.576923 529.891026 327.576923 532.089744 327.576923 534.288462 327.576923 536.487179 327.576923 538.685897 327.576923 540.884615 327.576923 543.083333 327.576923 545.282051 327.576923 547.480769 327.576923 549.679487 327.576923 551.878205 327.576923 554.076923 327.576923 556.275641 327.576923 558.474359 327.576923 560.673077 327.576923 562.871795 327.576923 565.070513 327.576923 567.269231 327.576923 569.467949 327.576923 571.666667 327.576923 573.865385 327.576923 576.064103 327.576923 578.262821 327.576923 580.461538 327.576923 582.660256 327.576923 584.858974 327.576923 587.057692 327.576923 589.256410 327.576923 591.455128 327.576923 593.653846 327.576923 595.852564 327.576923 598.051282 327.576923 600.250000 327.576923 602.448718 327.576923 604.647436 327.576923 606.846154 327.576923 609.044872 327.576923 611.243590 327.576923 613.442308 327.576923 615.641026 327.576923 617.839744 327.576923 620.038462 327.576923 622.237179 327.576923 624.435897 327.576923 626.634615 327.576923 628.833333 327.576923 631.032051 327.576923 633.230769 327.576923 635.429487 327.576923 637.628205 327.576923 639.826923 327.576923 642.025641 327.576923 644.224359 327.576923 646.423077 327.576923 648.621795 327.576923 650.820513 327.576923 653.019231 327.576923 655.217949 327.576923 657.416667 327.576923 659.615385 327.576923 661.814103 327.576923 664.012821 327.576923 666.211538 327.576923 668.410256 327.576923 670.608974 327.576923 672.807692 327.576923"/></g><g class="series serie-2 color-2"><path class="line reactive nofill" d="M13.192308 327.576923 L15.391026 327.576923 17.589744 327.576923 19.788462 327.576923 21.987179 327.576923 24.185897 327.576923 26.384615 327.576923 28.583333 327.576923 30.782051 327.576923 32.980769 327.576923 35.179487 327.576923 37.378205 327.576923 39.576923 327.576923 41.775641 327.576923 43.974359 327.576923 46.173077 327.576923 48.371795 327.576923 50.570513 327.576923 52.769231 327.576923 54.967949 327.576923 57.166667 327.576923 59.365385 327.576923 61.564103 327.576923 63.762821 327.576923 65.961538 327.576923 68.160256 327.576923 70.358974 327.576923 72.557692 327.576923 74.756410 327.576923 76.955128 327.576923 79.153846 327.576923 81.352564 327.576923 83.551282 327.576923 85.750000 327.576923 87.948718 327.576923 90.147436 327.576923 92.346154 327.576923 94.544872 327.576923 96.743590 327.576923 98.942308 327.576923 101.141026 327.576923 103.339744 327.576923 105.538462 327.576923 107.737179 327.576923 109.935897 327.576923 112.134615 327.576923 114.333333 327.576923 116.532051 327.576923 118.730769 327.576923 120.929487 327.576923 123.128205 327.576923 125.326923 327.576923 127.525641 327.576923 129.724359 327.576923 131.923077 327.576923 134.121795 317.047289 136.320513 317.047289 138.519231 306.517654 140.717949 306.517654 142.916667 306.517654 145.115385 306.517654 147.314103 306.517654 149.512821 306.517654 151.711538 295.988020 153.910256 295.988020 156.108974 295.988020 158.307692 274.928752 160.506410 264.399117 162.705128 253.869483 164.903846 243.339849 167.102564 243.339849 169.301282 243.339849 171.500000 243.339849 173.698718 243.339849 175.897436 222.280580 178.096154 232.810214 180.294872 243.339849 182.493590 264.399117 184.692308 274.928752 186.891026 285.458386 189.089744 285.458386 191.288462 285.458386 193.487179 274.928752 195.685897 274.928752 197.884615 274.928752 200.083333 253.869483 202.282051 264.399117 204.480769 264.399117 206.679487 264.399117 208.878205 243.339849 211.076923 243.339849 213.275641 232.810214 215.474359 222.280580 217.673077 222.280580 219.871795 243.339849 222.070513 253.869483 224.269231 253.869483 226.467949 253.869483 228.666667 253.869483 230.865385 274.928752 233.064103 264.399117 235.262821 274.928752 237.461538 295.988020 239.660256 285.458386 241.858974 285.458386 244.057692 295.988020 246.256410 295.988020 248.455128 295.988020 250.653846 295.988020 252.852564 295.988020 255.051282 306.517654 257.250000 295.988020 259.448718 274.928752 261.647436 295.988020 263.846154 295.988020 266.044872 295.988020 268.243590 285.458386 270.442308 274.928752 272.641026 274.928752 274.839744 264.399117 277.038462 243.339849 279.237179 243.339849 281.435897 253.869483 283.634615 253.869483 285.833333 253.869483 288.032051 253.869483 290.230769 211.750946 292.429487 211.750946 294.628205 211.750946 296.826923 211.750946 299.025641 232.810214 301.224359 243.339849 303.423077 253.869483 305.621795 243.339849 307.820513 243.339849 310.019231 243.339849 312.217949 285.458386 314.416667 264.399117 316.615385 264.399117 318.814103 274.928752 321.012821 264.399117 323.211538 264.399117 325.410256 222.280580 327.608974 222.280580 329.807692 211.750946 332.006410 211.750946 334.205128 211.750946 336.403846 232.810214 338.602564 232.810214 340.801282 232.810214 343.000000 243.339849 345.198718 243.339849 347.397436 285.458386 349.596154 295.988020 351.794872 306.517654 353.993590 306.517654 356.192308 317.047289 358.391026 327.576923 360.589744 327.576923 362.788462 327.576923 364.987179 327.576923 367.185897 327.576923 369.384615 327.576923 371.583333 327.576923 373.782051 327.576923 375.980769 327.576923 378.179487 327.576923 380.378205 327.576923 382.576923 327.576923 384.775641 327.576923 386.974359 327.576923 389.173077 327.576923 391.371795 327.576923 393.570513 327.576923 395.769231 327.576923 397.967949 327.576923 400.166667 327.576923 402.365385 327.576923 404.564103 327.576923 406.762821 327.576923 408.961538 327.576923 411.160256 327.576923 413.358974 327.576923 415.557692 327.576923 417.756410 327.576923 419.955128 327.576923 422.153846 327.576923 424.352564 327.576923 426.551282 327.576923 428.750000 327.576923 430.948718 327.576923 433.147436 327.576923 435.346154 327.576923 437.544872 327.576923 439.743590 327.576923 441.942308 327.576923 444.141026 327.576923 446.339744 327.576923 448.538462 327.576923 450.737179 327.576923 452.935897 327.576923 455.134615 327.576923 457.333333 327.576923 459.532051 327.576923 461.730769 327.576923 463.929487 327.576923 466.128205 327.576923 468.326923 327.576923 470.525641 327.576923 472.724359 327.576923 474.923077 327.576923 477.121795 327.576923 479.320513 327.576923 481.519231 327.576923 483.717949 327.576923 485.916667 327.576923 488.115385 327.576923 490.314103 327.576923 492.512821 327.576923 494.711538 327.576923 496.910256 327.576923 499.108974 327.576923 501.307692 327.576923 503.506410 327.576923 505.705128 327.576923 507.903846 327.576923 510.102564 327.576923 512.301282 327.576923 514.500000 327.576923 516.698718 327.576923 518.897436 327.576923 521.096154 327.576923 523.294872 327.576923 525.493590 327.576923 527.692308 327.576923 529.891026 327.576923 532.089744 327.576923 534.288462 327.576923 536.487179 327.576923 538.685897 327.576923 540.884615 327.576923 543.083333 327.576923 545.282051 327.576923 547.480769 327.576923 549.679487 327.576923 551.878205 327.576923 554.076923 327.576923 556.275641 327.576923 558.474359 327.576923 560.673077 327.576923 562.871795 327.576923 565.070513 327.576923 567.269231 327.576923 569.467949 327.576923 571.666667 327.576923 573.865385 327.576923 576.064103 327.576923 578.262821 327.576923 580.461538 327.576923 582.660256 327.576923 584.858974 327.576923 587.057692 327.576923 589.256410 327.576923 591.455128 327.576923 593.653846 327.576923 595.852564 327.576923 598.051282 327.576923 600.250000 327.576923 602.448718 327.576923 604.647436 327.576923 606.846154 327.576923 609.044872 327.576923 611.243590 327.576923 613.442308 327.576923 615.641026 327.576923 617.839744 327.576923 620.038462 327.576923 622.237179 327.576923 624.435897 327.576923 626.634615 327.576923 628.833333 327.576923 631.032051 327.576923 633.230769 327.576923 635.429487 327.576923 637.628205 327.576923 639.826923 327.576923 642.025641 327.576923 644.224359 327.576923 646.423077 327.576923 648.621795 327.576923 650.820513 327.576923 653.019231 327.576923 655.217949 327.576923 657.416667 327.576923 659.615385 327.576923 661.814103 327.576923 664.012821 327.576923 666.211538 327.576923 668.410256 327.576923 670.608974 327.576923 672.807692 327.576923"/></g><g class="series serie-3 color-3"><path class="line reactive nofill" d="M13.192308 327.576923 L15.391026 327.576923 17.589744 327.576923 19.788462 327.576923 21.987179 327.576923 24.185897 327.576923 26.384615 327.576923 28.583333 327.576923 30.782051 327.576923 32.980769 327.576923 35.179487 327.576923 37.378205 327.576923 39.576923 327.576923 41.775641 327.576923 43.974359 327.576923 46.173077 327.576923 48.371795 327.576923 50.570513 327.576923 52.769231 327.576923 54.967949 327.576923 57.166667 327.576923 59.365385 327.576923 61.564103 327.576923 63.762821 327.576923 65.961538 327.576923 68.160256 327.576923 70.358974 327.576923 72.557692 327.576923 74.756410 327.576923 76.955128 327.576923 79.153846 327.576923 81.352564 327.576923 83.551282 327.576923 85.750000 327.576923 87.948718 327.576923 90.147436 327.576923 92.346154 327.576923 94.544872 327.576923 96.743590 327.576923 98.942308 327.576923 101.141026 327.576923 103.339744 327.576923 105.538462 327.576923 107.737179 327.576923 109.935897 327.576923 112.134615 317.047289 114.333333 317.047289 116.532051 317.047289 118.730769 317.047289 120.929487 317.047289 123.128205 317.047289 125.326923 317.047289 127.525641 317.047289 129.724359 306.517654 131.923077 295.988020 134.121795 295.988020 136.320513 295.988020 138.519231 295.988020 140.717949 274.928752 142.916667 243.339849 145.115385 243.339849 147.314103 190.691677 149.512821 190.691677 151.711538 180.162043 153.910256 180.162043 156.108974 180.162043 158.307692 159.102774 160.506410 127.513871 162.705128 95.924968 164.903846 95.924968 167.102564 95.924968 169.301282 116.984237 171.500000 106.454603 173.698718 116.984237 175.897436 127.513871 178.096154 127.513871 180.294872 148.573140 182.493590 169.632409 184.692308 222.280580 186.891026 253.869483 189.089744 243.339849 191.288462 274.928752 193.487179 274.928752 195.685897 264.399117 197.884615 264.399117 200.083333 274.928752 202.282051 264.399117 204.480769 274.928752 206.679487 243.339849 208.878205 243.339849 211.076923 253.869483 213.275641 232.810214 215.474359 232.810214 217.673077 253.869483 219.871795 253.869483 222.070513 243.339849 224.269231 253.869483 226.467949 253.869483 228.666667 285.458386 230.865385 285.458386 233.064103 285.458386 235.262821 285.458386 237.461538 295.988020 239.660256 295.988020 241.858974 285.458386 244.057692 285.458386 246.256410 264.399117 248.455128 264.399117 250.653846 264.399117 252.852564 253.869483 255.051282 253.869483 257.250000 274.928752 259.448718 274.928752 261.647436 274.928752 263.846154 285.458386 266.044872 295.988020 268.243590 295.988020 270.442308 285.458386 272.641026 285.458386 274.839744 295.988020 277.038462 295.988020 279.237179 295.988020 281.435897 295.988020 283.634615 295.988020 285.833333 295.988020 288.032051 285.458386 290.230769 306.517654 292.429487 317.047289 294.628205 317.047289 296.826923 317.047289 299.025641 317.047289 301.224359 317.047289 303.423077 317.047289 305.621795 317.047289 307.820513 317.047289 310.019231 327.576923 312.217949 327.576923 314.416667 327.576923 316.615385 327.576923 318.814103 327.576923 321.012821 327.576923 323.211538 327.576923 325.410256 327.576923 327.608974 327.576923 329.807692 327.576923 332.006410 327.576923 334.205128 327.576923 336.403846 327.576923 338.602564 327.576923 340.801282 327.576923 343.000000 327.576923 345.198718 327.576923 347.397436 327.576923 349.596154 327.576923 351.794872 327.576923 353.993590 327.576923 356.192308 327.576923 358.391026 327.576923 360.589744 327.576923 362.788462 327.576923 364.987179 327.576923 367.185897 327.576923 369.384615 327.576923 371.583333 327.576923 373.782051 327.576923 375.980769 327.576923 378.179487 327.576923 380.378205 327.576923 382.576923 327.576923 384.775641 327.576923 386.974359 327.576923 389.173077 327.576923 391.371795 327.576923 393.570513 327.576923 395.769231 327.576923 397.967949 327.576923 400.166667 327.576923 402.365385 327.576923 404.564103 327.576923 406.762821 327.576923 408.961538 327.576923 411.160256 327.576923 413.358974 327.576923 415.557692 327.576923 417.756410 327.576923 419.955128 327.576923 422.153846 327.576923 424.352564 327.576923 426.551282 327.576923 428.750000 327.576923 430.948718 327.576923 433.147436 327.576923 435.346154 327.576923 437.544872 327.576923 439.743590 327.576923 441.942308 327.576923 444.141026 327.576923 446.339744 327.576923 448.538462 327.576923 450.737179 327.576923 452.935897 327.576923 455.134615 327.576923 457.333333 327.576923 459.532051 327.576923 461.730769 327.576923 463.929487 327.576923 466.128205 327.576923 468.326923 327.576923 470.525641 327.576923 472.724359 327.576923 474.923077 327.576923 477.121795 327.576923 479.320513 327.576923 481.519231 327.576923 483.717949 327.576923 485.916667 327.576923 488.115385 327.576923 490.314103 327.576923 492.512821 327.576923 494.711538 327.576923 496.910256 327.576923 499.108974 327.576923 501.307692 327.576923 503.506410 327.576923 505.705128 327.576923 507.903846 327.576923 510.102564 327.576923 512.301282 327.576923 514.500000 327.576923 516.698718 327.576923 518.897436 327.576923 521.096154 327.576923 523.294872 327.576923 525.493590 327.576923 527.692308 327.576923 529.891026 327.576923 532.089744 327.576923 534.288462 327.576923 536.487179 327.576923 538.685897 327.576923 540.884615 327.576923 543.083333 327.576923 545.282051 327.576923 547.480769 327.576923 549.679487 327.576923 551.878205 327.576923 554.076923 327.576923 556.275641 327.576923 558.474359 327.576923 560.673077 327.576923 562.871795 327.576923 565.070513 327.576923 567.269231 327.576923 569.467949 327.576923 571.666667 327.576923 573.865385 327.576923 576.064103 327.576923 578.262821 327.576923 580.461538 327.576923 582.660256 327.576923 584.858974 327.576923 587.057692 327.576923 589.256410 327.576923 591.455128 327.576923 593.653846 327.576923 595.852564 327.576923 598.051282 327.576923 600.250000 327.576923 602.448718 327.576923 604.647436 327.576923 606.846154 327.576923 609.044872 327.576923 611.243590 327.576923 613.442308 327.576923 615.641026 327.576923 617.839744 327.576923 620.038462 327.576923 622.237179 327.576923 624.435897 327.576923 626.634615 327.576923 628.833333 327.576923 631.032051 327.576923 633.230769 327.576923 635.429487 327.576923 637.628205 327.576923 639.826923 327.576923 642.025641 327.576923 644.224359 327.576923 646.423077 327.576923 648.621795 327.576923 650.820513 327.576923 653.019231 327.576923 655.217949 327.576923 657.416667 327.576923 659.615385 327.576923 661.814103 327.576923 664.012821 327.576923 666.211538 327.576923 668.410256 327.576923 670.608974 327.576923 672.807692 327.576923"/></g><g class="series serie-4 color-4"><path class="line reactive nofill" d="M13.192308 327.576923 L15.391026 327.576923 17.589744 327.576923 19.788462 327.576923 21.987179 327.576923 24.185897 327.576923 26.384615 327.576923 28.583333 327.576923 30.782051 327.576923 32.980769 327.576923 35.179487 327.576923 37.378205 327.576923 39.576923 327.576923 41.775641 327.576923 43.974359 327.576923 46.173077 327.576923 48.371795 327.576923 50.570513 327.576923 52.769231 327.576923 54.967949 327.576923 57.166667 327.576923 59.365385 327.576923 61.564103 327.576923 63.762821 327.576923 65.961538 327.576923 68.160256 327.576923 70.358974 327.576923 72.557692 327.576923 74.756410 327.576923 76.955128 327.576923 79.153846 327.576923 81.352564 327.576923 83.551282 327.576923 85.750000 327.576923 87.948718 327.576923 90.147436 327.576923 92.346154 317.047289 94.544872 306.517654 96.743590 306.517654 98.942308 306.517654 101.141026 306.517654 103.339744 306.517654 105.538462 306.517654 107.737179 295.988020 109.935897 295.988020 112.134615 285.458386 114.333333 285.458386 116.532051 295.988020 118.730769 295.988020 120.929487 295.988020 123.128205 295.988020 125.326923 295.988020 127.525641 285.458386 129.724359 295.988020 131.923077 285.458386 134.121795 285.458386 136.320513 295.988020 138.519231 295.988020 140.717949 274.928752 142.916667 264.399117 145.115385 264.399117 147.314103 264.399117 149.512821 232.810214 151.711538 222.280580 153.910256 232.810214 156.108974 232.810214 158.307692 190.691677 160.506410 180.162043 162.705128 190.691677 164.903846 180.162043 167.102564 180.162043 169.301282 180.162043 171.500000 222.280580 173.698718 232.810214 175.897436 232.810214 178.096154 243.339849 180.294872 285.458386 182.493590 295.988020 184.692308 295.988020 186.891026 317.047289 189.089744 317.047289 191.288462 317.047289 193.487179 317.047289 195.685897 317.047289 197.884615 317.047289 200.083333 306.517654 202.282051 306.517654 204.480769 295.988020 206.679487 295.988020 208.878205 295.988020 211.076923 295.988020 213.275641 285.458386 215.474359 274.928752 217.673077 264.399117 219.871795 264.399117 222.070513 274.928752 224.269231 274.928752 226.467949 274.928752 228.666667 285.458386 230.865385 285.458386 233.064103 285.458386 235.262821 285.458386 237.461538 285.458386 239.660256 295.988020 241.858974 274.928752 244.057692 274.928752 246.256410 274.928752 248.455128 285.458386 250.653846 285.458386 252.852564 285.458386 255.051282 285.458386 257.250000 295.988020 259.448718 306.517654 261.647436 306.517654 263.846154 327.576923 266.044872 327.576923 268.243590 317.047289 270.442308 306.517654 272.641026 306.517654 274.839744 306.517654 277.038462 274.928752 279.237179 264.399117 281.435897 243.339849 283.634615 243.339849 285.833333 232.810214 288.032051 222.280580 290.230769 232.810214 292.429487 243.339849 294.628205 243.339849 296.826923 243.339849 299.025641 274.928752 301.224359 285.458386 303.423077 306.517654 305.621795 306.517654 307.820513 295.988020 310.019231 295.988020 312.217949 285.458386 314.416667 285.458386 316.615385 274.928752 318.814103 253.869483 321.012821 232.810214 323.211538 232.810214 325.410256 232.810214 327.608974 232.810214 329.807692 253.869483 332.006410 264.399117 334.205128 274.928752 336.403846 253.869483 338.602564 264.399117 340.801282 285.458386 343.000000 306.517654 345.198718 285.458386 347.397436 285.458386 349.596154 285.458386 351.794872 285.458386 353.993590 285.458386 356.192308 285.458386 358.391026 306.517654 360.589744 306.517654 362.788462 306.517654 364.987179 306.517654 367.185897 327.576923 369.384615 327.576923 371.583333 327.576923 373.782051 327.576923 375.980769 327.576923 378.179487 327.576923 380.378205 327.576923 382.576923 327.576923 384.775641 327.576923 386.974359 317.047289 389.173077 317.047289 391.371795 317.047289 393.570513 317.047289 395.769231 317.047289 397.967949 317.047289 400.166667 317.047289 402.365385 317.047289 404.564103 317.047289 406.762821 317.047289 408.961538 327.576923 411.160256 327.576923 413.358974 327.576923 415.557692 327.576923 417.756410 327.576923 419.955128 327.576923 422.153846 327.576923 424.352564 327.576923 426.551282 327.576923 428.750000 327.576923 430.948718 327.576923 433.147436 327.576923 435.346154 327.576923 437.544872 327.576923 439.743590 327.576923 441.942308 327.576923 444.141026 327.576923 446.339744 327.576923 448.538462 327.576923 450.737179 327.576923 452.935897 327.576923 455.134615 327.576923 457.333333 327.576923 459.532051 327.576923 461.730769 327.576923 463.929487 327.576923 466.128205 327.576923 468.326923 327.576923 470.525641 327.576923 472.724359 327.576923 474.923077 327.576923 477.121795 327.576923 479.320513 327.576923 481.519231 327.576923 483.717949 327.576923 485.916667 327.576923 488.115385 327.576923 490.314103 327.576923 492.512821 327.576923 494.711538 327.576923 496.910256 327.576923 499.108974 327.576923 501.307692 327.576923 503.506410 327.576923 505.705128 327.576923 507.903846 327.576923 510.102564 327.576923 512.301282 327.576923 514.500000 327.576923 516.698718 327.576923 518.897436 327.576923 521.096154 327.576923 523.294872 327.576923 525.493590 327.576923 527.692308 327.576923 529.891026 327.576923 532.089744 327.576923 534.288462 327.576923 536.487179 327.576923 538.685897 327.576923 540.884615 327.576923 543.083333 327.576923 545.282051 327.576923 547.480769 327.576923 549.679487 327.576923 551.878205 327.576923 554.076923 327.576923 556.275641 327.576923 558.474359 327.576923 560.673077 327.576923 562.871795 327.576923 565.070513 327.576923 567.269231 327.576923 569.467949 327.576923 571.666667 327.576923 573.865385 327.576923 576.064103 327.576923 578.262821 327.576923 580.461538 327.576923 582.660256 327.576923 584.858974 327.576923 587.057692 327.576923 589.256410 327.576923 591.455128 327.576923 593.653846 327.576923 595.852564 327.576923 598.051282 327.576923 600.250000 327.576923 602.448718 327.576923 604.647436 327.576923 606.846154 327.576923 609.044872 327.576923 611.243590 327.576923 613.442308 327.576923 615.641026 327.576923 617.839744 327.576923 620.038462 327.576923 622.237179 327.576923 624.435897 327.576923 626.634615 327.576923 628.833333 327.576923 631.032051 327.576923 633.230769 327.576923 635.429487 327.576923 637.628205 327.576923 639.826923 327.576923 642.025641 327.576923 644.224359 327.576923 646.423077 327.576923 648.621795 327.576923 650.820513 327.576923 653.019231 327.576923 655.217949 327.576923 657.416667 327.576923 659.615385 327.576923 661.814103 327.576923 664.012821 327.576923 666.211538 327.576923 668.410256 327.576923 670.608974 327.576923 672.807692 327.576923"/></g><g class="series serie-5 color-5"><path class="line reactive nofill" d="M13.192308 327.576923 L15.391026 327.576923 17.589744 327.576923 19.788462 327.576923 21.987179 327.576923 24.185897 327.576923 26.384615 327.576923 28.583333 327.576923 30.782051 327.576923 32.980769 327.576923 35.179487 327.576923 37.378205 327.576923 39.576923 327.576923 41.775641 327.576923 43.974359 327.576923 46.173077 327.576923 48.371795 327.576923 50.570513 327.576923 52.769231 327.576923 54.967949 327.576923 57.166667 327.576923 59.365385 327.576923 61.564103 327.576923 63.762821 327.576923 65.961538 327.576923 68.160256 327.576923 70.358974 327.576923 72.557692 327.576923 74.756410 327.576923 76.955128 327.576923 79.153846 327.576923 81.352564 327.576923 83.551282 327.576923 85.750000 327.576923 87.948718 327.576923 90.147436 327.576923 92.346154 317.047289 94.544872 306.517654 96.743590 306.517654 98.942308 306.517654 101.141026 306.517654 103.339744 295.988020 105.538462 295.988020 107.737179 285.458386 109.935897 285.458386 112.134615 274.928752 114.333333 274.928752 116.532051 285.458386 118.730769 285.458386 120.929487 285.458386 123.128205 285.458386 125.326923 295.988020 127.525641 285.458386 129.724359 295.988020 131.923077 285.458386 134.121795 285.458386 136.320513 295.988020 138.519231 295.988020 140.717949 274.928752 142.916667 264.399117 145.115385 253.869483 147.314103 253.869483 149.512821 222.280580 151.711538 211.750946 153.910256 222.280580 156.108974 222.280580 158.307692 180.162043 160.506410 159.102774 162.705128 169.632409 164.903846 159.102774 167.102564 169.632409 169.301282 169.632409 171.500000 211.750946 173.698718 222.280580 175.897436 222.280580 178.096154 232.810214 180.294872 274.928752 182.493590 295.988020 184.692308 295.988020 186.891026 317.047289 189.089744 317.047289 191.288462 317.047289 193.487179 317.047289 195.685897 306.517654 197.884615 306.517654 200.083333 295.988020 202.282051 295.988020 204.480769 295.988020 206.679487 295.988020 208.878205 295.988020 211.076923 295.988020 213.275641 285.458386 215.474359 274.928752 217.673077 274.928752 219.871795 274.928752 222.070513 285.458386 224.269231 285.458386 226.467949 274.928752 228.666667 285.458386 230.865385 285.458386 233.064103 285.458386 235.262821 285.458386 237.461538 285.458386 239.660256 295.988020 241.858974 274.928752 244.057692 274.928752 246.256410 274.928752 248.455128 285.458386 250.653846 285.458386 252.852564 285.458386 255.051282 285.458386 257.250000 295.988020 259.448718 306.517654 261.647436 306.517654 263.846154 327.576923 266.044872 327.576923 268.243590 317.047289 270.442308 306.517654 272.641026 306.517654 274.839744 306.517654 277.038462 274.928752 279.237179 264.399117 281.435897 243.339849 283.634615 243.339849 285.833333 243.339849 288.032051 232.810214 290.230769 243.339849 292.429487 253.869483 294.628205 253.869483 296.826923 253.869483 299.025641 285.458386 301.224359 295.988020 303.423077 317.047289 305.621795 317.047289 307.820513 295.988020 310.019231 295.988020 312.217949 285.458386 314.416667 285.458386 316.615385 274.928752 318.814103 264.399117 321.012821 243.339849 323.211538 243.339849 325.410256 243.339849 327.608974 243.339849 329.807692 264.399117 332.006410 274.928752 334.205128 285.458386 336.403846 264.399117 338.602564 274.928752 340.801282 285.458386 343.000000 306.517654 345.198718 285.458386 347.397436 285.458386 349.596154 285.458386 351.794872 285.458386 353.993590 285.458386 356.192308 285.458386 358.391026 306.517654 360.589744 306.517654 362.788462 306.517654 364.987179 306.517654 367.185897 327.576923 369.384615 327.576923 371.583333 327.576923 373.782051 327.576923 375.980769 327.576923 378.179487 327.576923 380.378205 327.576923 382.576923 327.576923 384.775641 327.576923 386.974359 327.576923 389.173077 327.576923 391.371795 327.576923 393.570513 327.576923 395.769231 327.576923 397.967949 327.576923 400.166667 327.576923 402.365385 327.576923 404.564103 327.576923 406.762821 327.576923 408.961538 327.576923 411.160256 327.576923 413.358974 327.576923 415.557692 327.576923 417.756410 327.576923 419.955128 327.576923 422.153846 327.576923 424.352564 327.576923 426.551282 327.576923 428.750000 327.576923 430.948718 327.576923 433.147436 327.576923 435.346154 327.576923 437.544872 327.576923 439.743590 327.576923 441.942308 327.576923 444.141026 327.576923 446.339744 327.576923 448.538462 327.576923 450.737179 327.576923 452.935897 327.576923 455.134615 327.576923 457.333333 327.576923 459.532051 327.576923 461.730769 327.576923 463.929487 327.576923 466.128205 327.576923 468.326923 327.576923 470.525641 327.576923 472.724359 327.576923 474.923077 327.576923 477.121795 327.576923 479.320513 327.576923 481.519231 327.576923 483.717949 327.576923 485.916667 327.576923 488.115385 327.576923 490.314103 327.576923 492.512821 327.576923 494.711538 327.576923 496.910256 327.576923 499.108974 327.576923 501.307692 327.576923 503.506410 327.576923 505.705128 327.576923 507.903846 327.576923 510.102564 327.576923 512.301282 327.576923 514.500000 327.576923 516.698718 327.576923 518.897436 327.576923 521.096154 327.576923 523.294872 327.576923 525.493590 327.576923 527.692308 327.576923 529.891026 327.576923 532.089744 327.576923 534.288462 327.576923 536.487179 327.576923 538.685897 327.576923 540.884615 327.576923 543.083333 327.576923 545.282051 327.576923 547.480769 327.576923 549.679487 327.576923 551.878205 327.576923 554.076923 327.576923 556.275641 327.576923 558.474359 327.576923 560.673077 327.576923 562.871795 327.576923 565.070513 327.576923 567.269231 327.576923 569.467949 327.576923 571.666667 327.576923 573.865385 327.576923 576.064103 327.576923 578.262821 327.576923 580.461538 327.576923 582.660256 327.576923 584.858974 327.576923 587.057692 327.576923 589.256410 327.576923 591.455128 327.576923 593.653846 327.576923 595.852564 327.576923 598.051282 327.576923 600.250000 327.576923 602.448718 327.576923 604.647436 327.576923 606.846154 327.576923 609.044872 327.576923 611.243590 327.576923 613.442308 327.576923 615.641026 327.576923 617.839744 327.576923 620.038462 327.576923 622.237179 327.576923 624.435897 327.576923 626.634615 327.576923 628.833333 327.576923 631.032051 327.576923 633.230769 327.576923 635.429487 327.576923 637.628205 327.576923 639.826923 327.576923 642.025641 327.576923 644.224359 327.576923 646.423077 327.576923 648.621795 327.576923 650.820513 327.576923 653.019231 327.576923 655.217949 327.576923 657.416667 327.576923 659.615385 327.576923 661.814103 327.576923 664.012821 327.576923 666.211538 327.576923 668.410256 327.576923 670.608974 327.576923 672.807692 327.576923"/></g></g><g class="titles"><text class="title plot_title" x="400.0" y="28">Percentage of Annotations for T ±5.0 BPM</text><text class="title" x="437.0" y="465.0">T (BPM)</text><text class="title" x="0" y="243.0" transform="rotate(-90 0.000000 215.000000)">Values (%)</text></g><g class="plot overlay" transform="translate(94, 48)"><g class="series serie-0 color-0"><g class="dots"><circle class="dot reactive tooltip-trigger" cx="13.192307692307692" cy="327.5769230769231" r="2.5"/><desc class="value">0.0</desc><desc class="x top">13.192307692307692</desc><desc class="y top">327.5769230769231</desc><desc class="x_label">0.0</desc></g><g class="dots"><circle class="dot reactive tooltip-trigger" cx="79.15384615384616" cy="327.5769230769231" r="2.5"/><desc class="value">0.0</desc><desc class="x top">79.15384615384616</desc><desc class="y top">327.5769230769231</desc><desc class="x_label">30.0</desc></g><g class="dots"><circle class="dot reactive tooltip-trigger" cx="145.11538461538458" cy="306.5176544766709" r="2.5"/><desc class="value">3.3</desc><desc class="x top">145.11538461538458</desc><desc class="y top">306.5176544766709</desc><desc class="x_label">60.0</desc></g><g class="dots"><circle class="dot reactive tooltip-trigger" cx="211.07692307692307" cy="317.04728877679696" r="2.5"/><desc class="value">1.6</desc><desc class="x top">211.07692307692307</desc><desc class="y top">317.04728877679696</desc><desc class="x_label">90.0</desc></g><g class="dots"><circle class="dot reactive tooltip-trigger" cx="277.03846153846155" cy="211.75094577553594" r="2.5"/><desc class="value">18.0</desc><desc class="x top">277.03846153846155</desc><desc class="y top">211.75094577553594</desc><desc class="x_label">120.0</desc></g><g class="dots"><circle class="dot reactive tooltip-trigger" cx="343.0" cy="253.86948297604036" r="2.5"/><desc class="value">11.5</desc><desc class="x top">343.0</desc><desc class="y top">253.86948297604036</desc><desc class="x_label">150.0</desc></g><g class="dots"><circle class="dot reactive tooltip-trigger" cx="408.96153846153845" cy="306.5176544766709" r="2.5"/><desc class="value">3.3</desc><desc class="x left top">408.96153846153845</desc><desc class="y left top">306.5176544766709</desc><desc class="x_label">180.0</desc></g><g class="dots"><circle class="dot reactive tooltip-trigger" cx="474.92307692307685" cy="327.5769230769231" r="2.5"/><desc class="value">0.0</desc><desc class="x left top">474.92307692307685</desc><desc class="y left top">327.5769230769231</desc><desc class="x_label">210.0</desc></g><g class="dots"><circle class="dot reactive tooltip-trigger" cx="540.8846153846155" cy="327.5769230769231" r="2.5"/><desc class="value">0.0</desc><desc class="x left top">540.8846153846155</desc><desc class="y left top">327.5769230769231</desc><desc class="x_label">240.0</desc></g><g class="dots"><circle class="dot reactive tooltip-trigger" cx="606.8461538461538" cy="327.5769230769231" r="2.5"/><desc class="value">0.0</desc><desc class="x left top">606.8461538461538</desc><desc class="y left top">327.5769230769231</desc><desc class="x_label">270.0</desc></g><g class="dots"><circle class="dot reactive tooltip-trigger" cx="672.8076923076923" cy="327.5769230769231" r="2.5"/><desc class="value">0.0</desc><desc class="x left top">672.8076923076923</desc><desc class="y left top">327.5769230769231</desc><desc class="x_label">300.0</desc></g></g><g class="series serie-1 color-1"><g class="dots"><circle class="dot reactive tooltip-trigger" cx="13.192307692307692" cy="327.5769230769231" r="2.5"/><desc class="value">0.0</desc><desc class="x top">13.192307692307692</desc><desc class="y top">327.5769230769231</desc><desc class="x_label">0.0</desc></g><g class="dots"><circle class="dot reactive tooltip-trigger" cx="79.15384615384616" cy="327.5769230769231" r="2.5"/><desc class="value">0.0</desc><desc class="x top">79.15384615384616</desc><desc class="y top">327.5769230769231</desc><desc class="x_label">30.0</desc></g><g class="dots"><circle class="dot reactive tooltip-trigger" cx="145.11538461538458" cy="327.5769230769231" r="2.5"/><desc class="value">0.0</desc><desc class="x top">145.11538461538458</desc><desc class="y top">327.5769230769231</desc><desc class="x_label">60.0</desc></g><g class="dots"><circle class="dot reactive tooltip-trigger" cx="211.07692307692307" cy="327.5769230769231" r="2.5"/><desc class="value">0.0</desc><desc class="x top">211.07692307692307</desc><desc class="y top">327.5769230769231</desc><desc class="x_label">90.0</desc></g><g class="dots"><circle class="dot reactive tooltip-trigger" cx="277.03846153846155" cy="253.86948297604036" r="2.5"/><desc class="value">11.5</desc><desc class="x top">277.03846153846155</desc><desc class="y top">253.86948297604036</desc><desc class="x_label">120.0</desc></g><g class="dots"><circle class="dot reactive tooltip-trigger" cx="343.0" cy="232.81021437578815" r="2.5"/><desc class="value">14.8</desc><desc class="x top">343.0</desc><desc class="y top">232.81021437578815</desc><desc class="x_label">150.0</desc></g><g class="dots"><circle class="dot reactive tooltip-trigger" cx="408.96153846153845" cy="317.04728877679696" r="2.5"/><desc class="value">1.6</desc><desc class="x left top">408.96153846153845</desc><desc class="y left top">317.04728877679696</desc><desc class="x_label">180.0</desc></g><g class="dots"><circle class="dot reactive tooltip-trigger" cx="474.92307692307685" cy="327.5769230769231" r="2.5"/><desc class="value">0.0</desc><desc class="x left top">474.92307692307685</desc><desc class="y left top">327.5769230769231</desc><desc class="x_label">210.0</desc></g><g class="dots"><circle class="dot reactive tooltip-trigger" cx="540.8846153846155" cy="327.5769230769231" r="2.5"/><desc class="value">0.0</desc><desc class="x left top">540.8846153846155</desc><desc class="y left top">327.5769230769231</desc><desc class="x_label">240.0</desc></g><g class="dots"><circle class="dot reactive tooltip-trigger" cx="606.8461538461538" cy="327.5769230769231" r="2.5"/><desc class="value">0.0</desc><desc class="x left top">606.8461538461538</desc><desc class="y left top">327.5769230769231</desc><desc class="x_label">270.0</desc></g><g class="dots"><circle class="dot reactive tooltip-trigger" cx="672.8076923076923" cy="327.5769230769231" r="2.5"/><desc class="value">0.0</desc><desc class="x left top">672.8076923076923</desc><desc class="y left top">327.5769230769231</desc><desc class="x_label">300.0</desc></g></g><g class="series serie-2 color-2"><g class="dots"><circle class="dot reactive tooltip-trigger" cx="13.192307692307692" cy="327.5769230769231" r="2.5"/><desc class="value">0.0</desc><desc class="x top">13.192307692307692</desc><desc class="y top">327.5769230769231</desc><desc class="x_label">0.0</desc></g><g class="dots"><circle class="dot reactive tooltip-trigger" cx="79.15384615384616" cy="327.5769230769231" r="2.5"/><desc class="value">0.0</desc><desc class="x top">79.15384615384616</desc><desc class="y top">327.5769230769231</desc><desc class="x_label">30.0</desc></g><g class="dots"><circle class="dot reactive tooltip-trigger" cx="145.11538461538458" cy="306.5176544766709" r="2.5"/><desc class="value">3.3</desc><desc class="x top">145.11538461538458</desc><desc class="y top">306.5176544766709</desc><desc class="x_label">60.0</desc></g><g class="dots"><circle class="dot reactive tooltip-trigger" cx="211.07692307692307" cy="243.33984867591425" r="2.5"/><desc class="value">13.1</desc><desc class="x top">211.07692307692307</desc><desc class="y top">243.33984867591425</desc><desc class="x_label">90.0</desc></g><g class="dots"><circle class="dot reactive tooltip-trigger" cx="277.03846153846155" cy="243.33984867591425" r="2.5"/><desc class="value">13.1</desc><desc class="x top">277.03846153846155</desc><desc class="y top">243.33984867591425</desc><desc class="x_label">120.0</desc></g><g class="dots"><circle class="dot reactive tooltip-trigger" cx="343.0" cy="243.33984867591425" r="2.5"/><desc class="value">13.1</desc><desc class="x top">343.0</desc><desc class="y top">243.33984867591425</desc><desc class="x_label">150.0</desc></g><g class="dots"><circle class="dot reactive tooltip-trigger" cx="408.96153846153845" cy="327.5769230769231" r="2.5"/><desc class="value">0.0</desc><desc class="x left top">408.96153846153845</desc><desc class="y left top">327.5769230769231</desc><desc class="x_label">180.0</desc></g><g class="dots"><circle class="dot reactive tooltip-trigger" cx="474.92307692307685" cy="327.5769230769231" r="2.5"/><desc class="value">0.0</desc><desc class="x left top">474.92307692307685</desc><desc class="y left top">327.5769230769231</desc><desc class="x_label">210.0</desc></g><g class="dots"><circle class="dot reactive tooltip-trigger" cx="540.8846153846155" cy="327.5769230769231" r="2.5"/><desc class="value">0.0</desc><desc class="x left top">540.8846153846155</desc><desc class="y left top">327.5769230769231</desc><desc class="x_label">240.0</desc></g><g class="dots"><circle class="dot reactive tooltip-trigger" cx="606.8461538461538" cy="327.5769230769231" r="2.5"/><desc class="value">0.0</desc><desc class="x left top">606.8461538461538</desc><desc class="y left top">327.5769230769231</desc><desc class="x_label">270.0</desc></g><g class="dots"><circle class="dot reactive tooltip-trigger" cx="672.8076923076923" cy="327.5769230769231" r="2.5"/><desc class="value">0.0</desc><desc class="x left top">672.8076923076923</desc><desc class="y left top">327.5769230769231</desc><desc class="x_label">300.0</desc></g></g><g class="series serie-3 color-3"><g class="dots"><circle class="dot reactive tooltip-trigger" cx="13.192307692307692" cy="327.5769230769231" r="2.5"/><desc class="value">0.0</desc><desc class="x top">13.192307692307692</desc><desc class="y top">327.5769230769231</desc><desc class="x_label">0.0</desc></g><g class="dots"><circle class="dot reactive tooltip-trigger" cx="79.15384615384616" cy="327.5769230769231" r="2.5"/><desc class="value">0.0</desc><desc class="x top">79.15384615384616</desc><desc class="y top">327.5769230769231</desc><desc class="x_label">30.0</desc></g><g class="dots"><circle class="dot reactive tooltip-trigger" cx="145.11538461538458" cy="243.33984867591425" r="2.5"/><desc class="value">13.1</desc><desc class="x top">145.11538461538458</desc><desc class="y top">243.33984867591425</desc><desc class="x_label">60.0</desc></g><g class="dots"><circle class="dot reactive tooltip-trigger" cx="211.07692307692307" cy="253.86948297604036" r="2.5"/><desc class="value">11.5</desc><desc class="x top">211.07692307692307</desc><desc class="y top">253.86948297604036</desc><desc class="x_label">90.0</desc></g><g class="dots"><circle class="dot reactive tooltip-trigger" cx="277.03846153846155" cy="295.98802017654475" r="2.5"/><desc class="value">4.9</desc><desc class="x top">277.03846153846155</desc><desc class="y top">295.98802017654475</desc><desc class="x_label">120.0</desc></g><g class="dots"><circle class="dot reactive tooltip-trigger" cx="343.0" cy="327.5769230769231" r="2.5"/><desc class="value">0.0</desc><desc class="x top">343.0</desc><desc class="y top">327.5769230769231</desc><desc class="x_label">150.0</desc></g><g class="dots"><circle class="dot reactive tooltip-trigger" cx="408.96153846153845" cy="327.5769230769231" r="2.5"/><desc class="value">0.0</desc><desc class="x left top">408.96153846153845</desc><desc class="y left top">327.5769230769231</desc><desc class="x_label">180.0</desc></g><g class="dots"><circle class="dot reactive tooltip-trigger" cx="474.92307692307685" cy="327.5769230769231" r="2.5"/><desc class="value">0.0</desc><desc class="x left top">474.92307692307685</desc><desc class="y left top">327.5769230769231</desc><desc class="x_label">210.0</desc></g><g class="dots"><circle class="dot reactive tooltip-trigger" cx="540.8846153846155" cy="327.5769230769231" r="2.5"/><desc class="value">0.0</desc><desc class="x left top">540.8846153846155</desc><desc class="y left top">327.5769230769231</desc><desc class="x_label">240.0</desc></g><g class="dots"><circle class="dot reactive tooltip-trigger" cx="606.8461538461538" cy="327.5769230769231" r="2.5"/><desc class="value">0.0</desc><desc class="x left top">606.8461538461538</desc><desc class="y left top">327.5769230769231</desc><desc class="x_label">270.0</desc></g><g class="dots"><circle class="dot reactive tooltip-trigger" cx="672.8076923076923" cy="327.5769230769231" r="2.5"/><desc class="value">0.0</desc><desc class="x left top">672.8076923076923</desc><desc class="y left top">327.5769230769231</desc><desc class="x_label">300.0</desc></g></g><g class="series serie-4 color-4"><g class="dots"><circle class="dot reactive tooltip-trigger" cx="13.192307692307692" cy="327.5769230769231" r="2.5"/><desc class="value">0.0</desc><desc class="x top">13.192307692307692</desc><desc class="y top">327.5769230769231</desc><desc class="x_label">0.0</desc></g><g class="dots"><circle class="dot reactive tooltip-trigger" cx="79.15384615384616" cy="327.5769230769231" r="2.5"/><desc class="value">0.0</desc><desc class="x top">79.15384615384616</desc><desc class="y top">327.5769230769231</desc><desc class="x_label">30.0</desc></g><g class="dots"><circle class="dot reactive tooltip-trigger" cx="145.11538461538458" cy="264.39911727616646" r="2.5"/><desc class="value">9.8</desc><desc class="x top">145.11538461538458</desc><desc class="y top">264.39911727616646</desc><desc class="x_label">60.0</desc></g><g class="dots"><circle class="dot reactive tooltip-trigger" cx="211.07692307692307" cy="295.98802017654475" r="2.5"/><desc class="value">4.9</desc><desc class="x top">211.07692307692307</desc><desc class="y top">295.98802017654475</desc><desc class="x_label">90.0</desc></g><g class="dots"><circle class="dot reactive tooltip-trigger" cx="277.03846153846155" cy="274.92875157629254" r="2.5"/><desc class="value">8.2</desc><desc class="x top">277.03846153846155</desc><desc class="y top">274.92875157629254</desc><desc class="x_label">120.0</desc></g><g class="dots"><circle class="dot reactive tooltip-trigger" cx="343.0" cy="306.5176544766709" r="2.5"/><desc class="value">3.3</desc><desc class="x top">343.0</desc><desc class="y top">306.5176544766709</desc><desc class="x_label">150.0</desc></g><g class="dots"><circle class="dot reactive tooltip-trigger" cx="408.96153846153845" cy="327.5769230769231" r="2.5"/><desc class="value">0.0</desc><desc class="x left top">408.96153846153845</desc><desc class="y left top">327.5769230769231</desc><desc class="x_label">180.0</desc></g><g class="dots"><circle class="dot reactive tooltip-trigger" cx="474.92307692307685" cy="327.5769230769231" r="2.5"/><desc class="value">0.0</desc><desc class="x left top">474.92307692307685</desc><desc class="y left top">327.5769230769231</desc><desc class="x_label">210.0</desc></g><g class="dots"><circle class="dot reactive tooltip-trigger" cx="540.8846153846155" cy="327.5769230769231" r="2.5"/><desc class="value">0.0</desc><desc class="x left top">540.8846153846155</desc><desc class="y left top">327.5769230769231</desc><desc class="x_label">240.0</desc></g><g class="dots"><circle class="dot reactive tooltip-trigger" cx="606.8461538461538" cy="327.5769230769231" r="2.5"/><desc class="value">0.0</desc><desc class="x left top">606.8461538461538</desc><desc class="y left top">327.5769230769231</desc><desc class="x_label">270.0</desc></g><g class="dots"><circle class="dot reactive tooltip-trigger" cx="672.8076923076923" cy="327.5769230769231" r="2.5"/><desc class="value">0.0</desc><desc class="x left top">672.8076923076923</desc><desc class="y left top">327.5769230769231</desc><desc class="x_label">300.0</desc></g></g><g class="series serie-5 color-5"><g class="dots"><circle class="dot reactive tooltip-trigger" cx="13.192307692307692" cy="327.5769230769231" r="2.5"/><desc class="value">0.0</desc><desc class="x top">13.192307692307692</desc><desc class="y top">327.5769230769231</desc><desc class="x_label">0.0</desc></g><g class="dots"><circle class="dot reactive tooltip-trigger" cx="79.15384615384616" cy="327.5769230769231" r="2.5"/><desc class="value">0.0</desc><desc class="x top">79.15384615384616</desc><desc class="y top">327.5769230769231</desc><desc class="x_label">30.0</desc></g><g class="dots"><circle class="dot reactive tooltip-trigger" cx="145.11538461538458" cy="253.86948297604036" r="2.5"/><desc class="value">11.5</desc><desc class="x top">145.11538461538458</desc><desc class="y top">253.86948297604036</desc><desc class="x_label">60.0</desc></g><g class="dots"><circle class="dot reactive tooltip-trigger" cx="211.07692307692307" cy="295.98802017654475" r="2.5"/><desc class="value">4.9</desc><desc class="x top">211.07692307692307</desc><desc class="y top">295.98802017654475</desc><desc class="x_label">90.0</desc></g><g class="dots"><circle class="dot reactive tooltip-trigger" cx="277.03846153846155" cy="274.92875157629254" r="2.5"/><desc class="value">8.2</desc><desc class="x top">277.03846153846155</desc><desc class="y top">274.92875157629254</desc><desc class="x_label">120.0</desc></g><g class="dots"><circle class="dot reactive tooltip-trigger" cx="343.0" cy="306.5176544766709" r="2.5"/><desc class="value">3.3</desc><desc class="x top">343.0</desc><desc class="y top">306.5176544766709</desc><desc class="x_label">150.0</desc></g><g class="dots"><circle class="dot reactive tooltip-trigger" cx="408.96153846153845" cy="327.5769230769231" r="2.5"/><desc class="value">0.0</desc><desc class="x left top">408.96153846153845</desc><desc class="y left top">327.5769230769231</desc><desc class="x_label">180.0</desc></g><g class="dots"><circle class="dot reactive tooltip-trigger" cx="474.92307692307685" cy="327.5769230769231" r="2.5"/><desc class="value">0.0</desc><desc class="x left top">474.92307692307685</desc><desc class="y left top">327.5769230769231</desc><desc class="x_label">210.0</desc></g><g class="dots"><circle class="dot reactive tooltip-trigger" cx="540.8846153846155" cy="327.5769230769231" r="2.5"/><desc class="value">0.0</desc><desc class="x left top">540.8846153846155</desc><desc class="y left top">327.5769230769231</desc><desc class="x_label">240.0</desc></g><g class="dots"><circle class="dot reactive tooltip-trigger" cx="606.8461538461538" cy="327.5769230769231" r="2.5"/><desc class="value">0.0</desc><desc class="x left top">606.8461538461538</desc><desc class="y left top">327.5769230769231</desc><desc class="x_label">270.0</desc></g><g class="dots"><circle class="dot reactive tooltip-trigger" cx="672.8076923076923" cy="327.5769230769231" r="2.5"/><desc class="value">0.0</desc><desc class="x left top">672.8076923076923</desc><desc class="y left top">327.5769230769231</desc><desc class="x_label">300.0</desc></g></g></g><g class="plot text-overlay" transform="translate(94, 48)"><g class="series serie-0 color-0"/><g class="series serie-1 color-1"/><g class="series serie-2 color-2"/><g class="series serie-3 color-3"/><g class="series serie-4 color-4"/><g class="series serie-5 color-5"/></g><g class="plot tooltip-overlay" transform="translate(94, 48)"><g class="tooltip" style="opacity: 0" transform="translate(0 0)"><rect class="tooltip-box" height="0" rx="0" ry="0" width="0"/><g class="text"/></g></g><g class="legends" transform="translate(104, 485)"><g class="legend reactive activate-serie" id="activate-serie-0"><rect class="color-0 reactive" height="12" width="12" x="0.0" y="1.5"/><text x="17.0" y="12.0">boeck2015/tempodetector2016_default</text></g><g class="legend reactive activate-serie" id="activate-serie-1"><rect class="color-1 reactive" height="12" width="12" x="343.0" y="1.5"/><text x="360.0" y="12.0">davies2009/mirex_qm_tempotracker</text></g><g class="legend reactive activate-serie" id="activate-serie-2"><rect class="color-2 reactive" height="12" width="12" x="0.0" y="24.0"/><text x="17.0" y="34.5">percival2014/stem</text></g><g class="legend reactive activate-serie" id="activate-serie-3"><rect class="color-3 reactive" height="12" width="12" x="343.0" y="24.0"/><text x="360.0" y="34.5">schreiber2014/default</text></g><g class="legend reactive activate-serie" id="activate-serie-4"><rect class="color-4 reactive" height="12" width="12" x="0.0" y="46.5"/><text x="17.0" y="57.0">schreiber2017/ismir2017</text></g><g class="legend reactive activate-serie" id="activate-serie-5"><rect class="color-5 reactive" height="12" width="12" x="343.0" y="46.5"/><text x="360.0" y="57.0">schreiber2017/mirex2017</text></g></g></g></svg>