<?xml version="1.0" encoding="utf-8" standalone="no"?>
<!DOCTYPE svg PUBLIC "-//W3C//DTD SVG 1.1//EN"
  "http://www.w3.org/Graphics/SVG/1.1/DTD/svg11.dtd">
<!-- Created with matplotlib (http://matplotlib.org/) -->
<svg height="370.338375pt" version="1.1" viewBox="0 0 635.679688 370.338375" width="635.679688pt" xmlns="http://www.w3.org/2000/svg" xmlns:xlink="http://www.w3.org/1999/xlink">
 <defs>
  <style type="text/css">
*{stroke-linecap:butt;stroke-linejoin:round;}
  </style>
 </defs>
 <g id="figure_1">
  <g id="patch_1">
   <path d="M -0 370.338375 
L 635.679688 370.338375 
L 635.679688 0 
L -0 0 
z
" style="fill:#ffffff;"/>
  </g>
  <g id="axes_1">
   <g id="patch_2">
    <path d="M 226.746875 332.782125 
L 617.346875 332.782125 
L 617.346875 22.318125 
L 226.746875 22.318125 
z
" style="fill:#ffffff;"/>
   </g>
   <g id="matplotlib.axis_1">
    <g id="xtick_1">
     <g id="line2d_1">
      <path clip-path="url(#pd1aab0e57b)" d="M 226.746875 332.782125 
L 226.746875 22.318125 
" style="fill:none;stroke:#b0b0b0;stroke-linecap:square;stroke-width:0.8;"/>
     </g>
     <g id="line2d_2">
      <defs>
       <path d="M 0 0 
L 0 3.5 
" id="mead0170323" style="stroke:#000000;stroke-width:0.8;"/>
      </defs>
      <g>
       <use style="stroke:#000000;stroke-width:0.8;" x="226.746875" xlink:href="#mead0170323" y="332.782125"/>
      </g>
     </g>
     <g id="text_1">
      <!-- 0.00 -->
      <defs>
       <path d="M 31.78125 66.40625 
Q 24.171875 66.40625 20.328125 58.90625 
Q 16.5 51.421875 16.5 36.375 
Q 16.5 21.390625 20.328125 13.890625 
Q 24.171875 6.390625 31.78125 6.390625 
Q 39.453125 6.390625 43.28125 13.890625 
Q 47.125 21.390625 47.125 36.375 
Q 47.125 51.421875 43.28125 58.90625 
Q 39.453125 66.40625 31.78125 66.40625 
z
M 31.78125 74.21875 
Q 44.046875 74.21875 50.515625 64.515625 
Q 56.984375 54.828125 56.984375 36.375 
Q 56.984375 17.96875 50.515625 8.265625 
Q 44.046875 -1.421875 31.78125 -1.421875 
Q 19.53125 -1.421875 13.0625 8.265625 
Q 6.59375 17.96875 6.59375 36.375 
Q 6.59375 54.828125 13.0625 64.515625 
Q 19.53125 74.21875 31.78125 74.21875 
z
" id="DejaVuSans-30"/>
       <path d="M 10.6875 12.40625 
L 21 12.40625 
L 21 0 
L 10.6875 0 
z
" id="DejaVuSans-2e"/>
      </defs>
      <g transform="translate(215.614062 347.380562)scale(0.1 -0.1)">
       <use xlink:href="#DejaVuSans-30"/>
       <use x="63.623047" xlink:href="#DejaVuSans-2e"/>
       <use x="95.410156" xlink:href="#DejaVuSans-30"/>
       <use x="159.033203" xlink:href="#DejaVuSans-30"/>
      </g>
     </g>
    </g>
    <g id="xtick_2">
     <g id="line2d_3">
      <path clip-path="url(#pd1aab0e57b)" d="M 275.571875 332.782125 
L 275.571875 22.318125 
" style="fill:none;stroke:#b0b0b0;stroke-linecap:square;stroke-width:0.8;"/>
     </g>
     <g id="line2d_4">
      <g>
       <use style="stroke:#000000;stroke-width:0.8;" x="275.571875" xlink:href="#mead0170323" y="332.782125"/>
      </g>
     </g>
     <g id="text_2">
      <!-- 0.25 -->
      <defs>
       <path d="M 19.1875 8.296875 
L 53.609375 8.296875 
L 53.609375 0 
L 7.328125 0 
L 7.328125 8.296875 
Q 12.9375 14.109375 22.625 23.890625 
Q 32.328125 33.6875 34.8125 36.53125 
Q 39.546875 41.84375 41.421875 45.53125 
Q 43.3125 49.21875 43.3125 52.78125 
Q 43.3125 58.59375 39.234375 62.25 
Q 35.15625 65.921875 28.609375 65.921875 
Q 23.96875 65.921875 18.8125 64.3125 
Q 13.671875 62.703125 7.8125 59.421875 
L 7.8125 69.390625 
Q 13.765625 71.78125 18.9375 73 
Q 24.125 74.21875 28.421875 74.21875 
Q 39.75 74.21875 46.484375 68.546875 
Q 53.21875 62.890625 53.21875 53.421875 
Q 53.21875 48.921875 51.53125 44.890625 
Q 49.859375 40.875 45.40625 35.40625 
Q 44.1875 33.984375 37.640625 27.21875 
Q 31.109375 20.453125 19.1875 8.296875 
z
" id="DejaVuSans-32"/>
       <path d="M 10.796875 72.90625 
L 49.515625 72.90625 
L 49.515625 64.59375 
L 19.828125 64.59375 
L 19.828125 46.734375 
Q 21.96875 47.46875 24.109375 47.828125 
Q 26.265625 48.1875 28.421875 48.1875 
Q 40.625 48.1875 47.75 41.5 
Q 54.890625 34.8125 54.890625 23.390625 
Q 54.890625 11.625 47.5625 5.09375 
Q 40.234375 -1.421875 26.90625 -1.421875 
Q 22.3125 -1.421875 17.546875 -0.640625 
Q 12.796875 0.140625 7.71875 1.703125 
L 7.71875 11.625 
Q 12.109375 9.234375 16.796875 8.0625 
Q 21.484375 6.890625 26.703125 6.890625 
Q 35.15625 6.890625 40.078125 11.328125 
Q 45.015625 15.765625 45.015625 23.390625 
Q 45.015625 31 40.078125 35.4375 
Q 35.15625 39.890625 26.703125 39.890625 
Q 22.75 39.890625 18.8125 39.015625 
Q 14.890625 38.140625 10.796875 36.28125 
z
" id="DejaVuSans-35"/>
      </defs>
      <g transform="translate(264.439062 347.380562)scale(0.1 -0.1)">
       <use xlink:href="#DejaVuSans-30"/>
       <use x="63.623047" xlink:href="#DejaVuSans-2e"/>
       <use x="95.410156" xlink:href="#DejaVuSans-32"/>
       <use x="159.033203" xlink:href="#DejaVuSans-35"/>
      </g>
     </g>
    </g>
    <g id="xtick_3">
     <g id="line2d_5">
      <path clip-path="url(#pd1aab0e57b)" d="M 324.396875 332.782125 
L 324.396875 22.318125 
" style="fill:none;stroke:#b0b0b0;stroke-linecap:square;stroke-width:0.8;"/>
     </g>
     <g id="line2d_6">
      <g>
       <use style="stroke:#000000;stroke-width:0.8;" x="324.396875" xlink:href="#mead0170323" y="332.782125"/>
      </g>
     </g>
     <g id="text_3">
      <!-- 0.50 -->
      <g transform="translate(313.264063 347.380562)scale(0.1 -0.1)">
       <use xlink:href="#DejaVuSans-30"/>
       <use x="63.623047" xlink:href="#DejaVuSans-2e"/>
       <use x="95.410156" xlink:href="#DejaVuSans-35"/>
       <use x="159.033203" xlink:href="#DejaVuSans-30"/>
      </g>
     </g>
    </g>
    <g id="xtick_4">
     <g id="line2d_7">
      <path clip-path="url(#pd1aab0e57b)" d="M 373.221875 332.782125 
L 373.221875 22.318125 
" style="fill:none;stroke:#b0b0b0;stroke-linecap:square;stroke-width:0.8;"/>
     </g>
     <g id="line2d_8">
      <g>
       <use style="stroke:#000000;stroke-width:0.8;" x="373.221875" xlink:href="#mead0170323" y="332.782125"/>
      </g>
     </g>
     <g id="text_4">
      <!-- 0.75 -->
      <defs>
       <path d="M 8.203125 72.90625 
L 55.078125 72.90625 
L 55.078125 68.703125 
L 28.609375 0 
L 18.3125 0 
L 43.21875 64.59375 
L 8.203125 64.59375 
z
" id="DejaVuSans-37"/>
      </defs>
      <g transform="translate(362.089063 347.380562)scale(0.1 -0.1)">
       <use xlink:href="#DejaVuSans-30"/>
       <use x="63.623047" xlink:href="#DejaVuSans-2e"/>
       <use x="95.410156" xlink:href="#DejaVuSans-37"/>
       <use x="159.033203" xlink:href="#DejaVuSans-35"/>
      </g>
     </g>
    </g>
    <g id="xtick_5">
     <g id="line2d_9">
      <path clip-path="url(#pd1aab0e57b)" d="M 422.046875 332.782125 
L 422.046875 22.318125 
" style="fill:none;stroke:#b0b0b0;stroke-linecap:square;stroke-width:0.8;"/>
     </g>
     <g id="line2d_10">
      <g>
       <use style="stroke:#000000;stroke-width:0.8;" x="422.046875" xlink:href="#mead0170323" y="332.782125"/>
      </g>
     </g>
     <g id="text_5">
      <!-- 1.00 -->
      <defs>
       <path d="M 12.40625 8.296875 
L 28.515625 8.296875 
L 28.515625 63.921875 
L 10.984375 60.40625 
L 10.984375 69.390625 
L 28.421875 72.90625 
L 38.28125 72.90625 
L 38.28125 8.296875 
L 54.390625 8.296875 
L 54.390625 0 
L 12.40625 0 
z
" id="DejaVuSans-31"/>
      </defs>
      <g transform="translate(410.914062 347.380562)scale(0.1 -0.1)">
       <use xlink:href="#DejaVuSans-31"/>
       <use x="63.623047" xlink:href="#DejaVuSans-2e"/>
       <use x="95.410156" xlink:href="#DejaVuSans-30"/>
       <use x="159.033203" xlink:href="#DejaVuSans-30"/>
      </g>
     </g>
    </g>
    <g id="xtick_6">
     <g id="line2d_11">
      <path clip-path="url(#pd1aab0e57b)" d="M 470.871875 332.782125 
L 470.871875 22.318125 
" style="fill:none;stroke:#b0b0b0;stroke-linecap:square;stroke-width:0.8;"/>
     </g>
     <g id="line2d_12">
      <g>
       <use style="stroke:#000000;stroke-width:0.8;" x="470.871875" xlink:href="#mead0170323" y="332.782125"/>
      </g>
     </g>
     <g id="text_6">
      <!-- 1.25 -->
      <g transform="translate(459.739063 347.380562)scale(0.1 -0.1)">
       <use xlink:href="#DejaVuSans-31"/>
       <use x="63.623047" xlink:href="#DejaVuSans-2e"/>
       <use x="95.410156" xlink:href="#DejaVuSans-32"/>
       <use x="159.033203" xlink:href="#DejaVuSans-35"/>
      </g>
     </g>
    </g>
    <g id="xtick_7">
     <g id="line2d_13">
      <path clip-path="url(#pd1aab0e57b)" d="M 519.696875 332.782125 
L 519.696875 22.318125 
" style="fill:none;stroke:#b0b0b0;stroke-linecap:square;stroke-width:0.8;"/>
     </g>
     <g id="line2d_14">
      <g>
       <use style="stroke:#000000;stroke-width:0.8;" x="519.696875" xlink:href="#mead0170323" y="332.782125"/>
      </g>
     </g>
     <g id="text_7">
      <!-- 1.50 -->
      <g transform="translate(508.564063 347.380562)scale(0.1 -0.1)">
       <use xlink:href="#DejaVuSans-31"/>
       <use x="63.623047" xlink:href="#DejaVuSans-2e"/>
       <use x="95.410156" xlink:href="#DejaVuSans-35"/>
       <use x="159.033203" xlink:href="#DejaVuSans-30"/>
      </g>
     </g>
    </g>
    <g id="xtick_8">
     <g id="line2d_15">
      <path clip-path="url(#pd1aab0e57b)" d="M 568.521875 332.782125 
L 568.521875 22.318125 
" style="fill:none;stroke:#b0b0b0;stroke-linecap:square;stroke-width:0.8;"/>
     </g>
     <g id="line2d_16">
      <g>
       <use style="stroke:#000000;stroke-width:0.8;" x="568.521875" xlink:href="#mead0170323" y="332.782125"/>
      </g>
     </g>
     <g id="text_8">
      <!-- 1.75 -->
      <g transform="translate(557.389063 347.380562)scale(0.1 -0.1)">
       <use xlink:href="#DejaVuSans-31"/>
       <use x="63.623047" xlink:href="#DejaVuSans-2e"/>
       <use x="95.410156" xlink:href="#DejaVuSans-37"/>
       <use x="159.033203" xlink:href="#DejaVuSans-35"/>
      </g>
     </g>
    </g>
    <g id="xtick_9">
     <g id="line2d_17">
      <path clip-path="url(#pd1aab0e57b)" d="M 617.346875 332.782125 
L 617.346875 22.318125 
" style="fill:none;stroke:#b0b0b0;stroke-linecap:square;stroke-width:0.8;"/>
     </g>
     <g id="line2d_18">
      <g>
       <use style="stroke:#000000;stroke-width:0.8;" x="617.346875" xlink:href="#mead0170323" y="332.782125"/>
      </g>
     </g>
     <g id="text_9">
      <!-- 2.00 -->
      <g transform="translate(606.214063 347.380562)scale(0.1 -0.1)">
       <use xlink:href="#DejaVuSans-32"/>
       <use x="63.623047" xlink:href="#DejaVuSans-2e"/>
       <use x="95.410156" xlink:href="#DejaVuSans-30"/>
       <use x="159.033203" xlink:href="#DejaVuSans-30"/>
      </g>
     </g>
    </g>
    <g id="text_10">
     <!-- AOE1 (TO) -->
     <defs>
      <path d="M 34.1875 63.1875 
L 20.796875 26.90625 
L 47.609375 26.90625 
z
M 28.609375 72.90625 
L 39.796875 72.90625 
L 67.578125 0 
L 57.328125 0 
L 50.6875 18.703125 
L 17.828125 18.703125 
L 11.1875 0 
L 0.78125 0 
z
" id="DejaVuSans-41"/>
      <path d="M 39.40625 66.21875 
Q 28.65625 66.21875 22.328125 58.203125 
Q 16.015625 50.203125 16.015625 36.375 
Q 16.015625 22.609375 22.328125 14.59375 
Q 28.65625 6.59375 39.40625 6.59375 
Q 50.140625 6.59375 56.421875 14.59375 
Q 62.703125 22.609375 62.703125 36.375 
Q 62.703125 50.203125 56.421875 58.203125 
Q 50.140625 66.21875 39.40625 66.21875 
z
M 39.40625 74.21875 
Q 54.734375 74.21875 63.90625 63.9375 
Q 73.09375 53.65625 73.09375 36.375 
Q 73.09375 19.140625 63.90625 8.859375 
Q 54.734375 -1.421875 39.40625 -1.421875 
Q 24.03125 -1.421875 14.8125 8.828125 
Q 5.609375 19.09375 5.609375 36.375 
Q 5.609375 53.65625 14.8125 63.9375 
Q 24.03125 74.21875 39.40625 74.21875 
z
" id="DejaVuSans-4f"/>
      <path d="M 9.8125 72.90625 
L 55.90625 72.90625 
L 55.90625 64.59375 
L 19.671875 64.59375 
L 19.671875 43.015625 
L 54.390625 43.015625 
L 54.390625 34.71875 
L 19.671875 34.71875 
L 19.671875 8.296875 
L 56.78125 8.296875 
L 56.78125 0 
L 9.8125 0 
z
" id="DejaVuSans-45"/>
      <path id="DejaVuSans-20"/>
      <path d="M 31 75.875 
Q 24.46875 64.65625 21.28125 53.65625 
Q 18.109375 42.671875 18.109375 31.390625 
Q 18.109375 20.125 21.3125 9.0625 
Q 24.515625 -2 31 -13.1875 
L 23.1875 -13.1875 
Q 15.875 -1.703125 12.234375 9.375 
Q 8.59375 20.453125 8.59375 31.390625 
Q 8.59375 42.28125 12.203125 53.3125 
Q 15.828125 64.359375 23.1875 75.875 
z
" id="DejaVuSans-28"/>
      <path d="M -0.296875 72.90625 
L 61.375 72.90625 
L 61.375 64.59375 
L 35.5 64.59375 
L 35.5 0 
L 25.59375 0 
L 25.59375 64.59375 
L -0.296875 64.59375 
z
" id="DejaVuSans-54"/>
      <path d="M 8.015625 75.875 
L 15.828125 75.875 
Q 23.140625 64.359375 26.78125 53.3125 
Q 30.421875 42.28125 30.421875 31.390625 
Q 30.421875 20.453125 26.78125 9.375 
Q 23.140625 -1.703125 15.828125 -13.1875 
L 8.015625 -13.1875 
Q 14.5 -2 17.703125 9.0625 
Q 20.90625 20.125 20.90625 31.390625 
Q 20.90625 42.671875 17.703125 53.65625 
Q 14.5 64.65625 8.015625 75.875 
z
" id="DejaVuSans-29"/>
     </defs>
     <g transform="translate(395.870313 361.058687)scale(0.1 -0.1)">
      <use xlink:href="#DejaVuSans-41"/>
      <use x="68.392578" xlink:href="#DejaVuSans-4f"/>
      <use x="147.103516" xlink:href="#DejaVuSans-45"/>
      <use x="210.287109" xlink:href="#DejaVuSans-31"/>
      <use x="273.910156" xlink:href="#DejaVuSans-20"/>
      <use x="305.697266" xlink:href="#DejaVuSans-28"/>
      <use x="344.710938" xlink:href="#DejaVuSans-54"/>
      <use x="405.794922" xlink:href="#DejaVuSans-4f"/>
      <use x="484.505859" xlink:href="#DejaVuSans-29"/>
     </g>
    </g>
   </g>
   <g id="matplotlib.axis_2">
    <g id="ytick_1">
     <g id="line2d_19">
      <path clip-path="url(#pd1aab0e57b)" d="M 226.746875 305.841034 
L 617.346875 305.841034 
" style="fill:none;stroke:#b0b0b0;stroke-linecap:square;stroke-width:0.8;"/>
     </g>
     <g id="line2d_20">
      <defs>
       <path d="M 0 0 
L -3.5 0 
" id="m464b62f435" style="stroke:#000000;stroke-width:0.8;"/>
      </defs>
      <g>
       <use style="stroke:#000000;stroke-width:0.8;" x="226.746875" xlink:href="#m464b62f435" y="305.841034"/>
      </g>
     </g>
     <g id="text_11">
      <!-- schreiber2017/mirex2017 -->
      <defs>
       <path d="M 44.28125 53.078125 
L 44.28125 44.578125 
Q 40.484375 46.53125 36.375 47.5 
Q 32.28125 48.484375 27.875 48.484375 
Q 21.1875 48.484375 17.84375 46.4375 
Q 14.5 44.390625 14.5 40.28125 
Q 14.5 37.15625 16.890625 35.375 
Q 19.28125 33.59375 26.515625 31.984375 
L 29.59375 31.296875 
Q 39.15625 29.25 43.1875 25.515625 
Q 47.21875 21.78125 47.21875 15.09375 
Q 47.21875 7.46875 41.1875 3.015625 
Q 35.15625 -1.421875 24.609375 -1.421875 
Q 20.21875 -1.421875 15.453125 -0.5625 
Q 10.6875 0.296875 5.421875 2 
L 5.421875 11.28125 
Q 10.40625 8.6875 15.234375 7.390625 
Q 20.0625 6.109375 24.8125 6.109375 
Q 31.15625 6.109375 34.5625 8.28125 
Q 37.984375 10.453125 37.984375 14.40625 
Q 37.984375 18.0625 35.515625 20.015625 
Q 33.0625 21.96875 24.703125 23.78125 
L 21.578125 24.515625 
Q 13.234375 26.265625 9.515625 29.90625 
Q 5.8125 33.546875 5.8125 39.890625 
Q 5.8125 47.609375 11.28125 51.796875 
Q 16.75 56 26.8125 56 
Q 31.78125 56 36.171875 55.265625 
Q 40.578125 54.546875 44.28125 53.078125 
z
" id="DejaVuSans-73"/>
       <path d="M 48.78125 52.59375 
L 48.78125 44.1875 
Q 44.96875 46.296875 41.140625 47.34375 
Q 37.3125 48.390625 33.40625 48.390625 
Q 24.65625 48.390625 19.8125 42.84375 
Q 14.984375 37.3125 14.984375 27.296875 
Q 14.984375 17.28125 19.8125 11.734375 
Q 24.65625 6.203125 33.40625 6.203125 
Q 37.3125 6.203125 41.140625 7.25 
Q 44.96875 8.296875 48.78125 10.40625 
L 48.78125 2.09375 
Q 45.015625 0.34375 40.984375 -0.53125 
Q 36.96875 -1.421875 32.421875 -1.421875 
Q 20.0625 -1.421875 12.78125 6.34375 
Q 5.515625 14.109375 5.515625 27.296875 
Q 5.515625 40.671875 12.859375 48.328125 
Q 20.21875 56 33.015625 56 
Q 37.15625 56 41.109375 55.140625 
Q 45.0625 54.296875 48.78125 52.59375 
z
" id="DejaVuSans-63"/>
       <path d="M 54.890625 33.015625 
L 54.890625 0 
L 45.90625 0 
L 45.90625 32.71875 
Q 45.90625 40.484375 42.875 44.328125 
Q 39.84375 48.1875 33.796875 48.1875 
Q 26.515625 48.1875 22.3125 43.546875 
Q 18.109375 38.921875 18.109375 30.90625 
L 18.109375 0 
L 9.078125 0 
L 9.078125 75.984375 
L 18.109375 75.984375 
L 18.109375 46.1875 
Q 21.34375 51.125 25.703125 53.5625 
Q 30.078125 56 35.796875 56 
Q 45.21875 56 50.046875 50.171875 
Q 54.890625 44.34375 54.890625 33.015625 
z
" id="DejaVuSans-68"/>
       <path d="M 41.109375 46.296875 
Q 39.59375 47.171875 37.8125 47.578125 
Q 36.03125 48 33.890625 48 
Q 26.265625 48 22.1875 43.046875 
Q 18.109375 38.09375 18.109375 28.8125 
L 18.109375 0 
L 9.078125 0 
L 9.078125 54.6875 
L 18.109375 54.6875 
L 18.109375 46.1875 
Q 20.953125 51.171875 25.484375 53.578125 
Q 30.03125 56 36.53125 56 
Q 37.453125 56 38.578125 55.875 
Q 39.703125 55.765625 41.0625 55.515625 
z
" id="DejaVuSans-72"/>
       <path d="M 56.203125 29.59375 
L 56.203125 25.203125 
L 14.890625 25.203125 
Q 15.484375 15.921875 20.484375 11.0625 
Q 25.484375 6.203125 34.421875 6.203125 
Q 39.59375 6.203125 44.453125 7.46875 
Q 49.3125 8.734375 54.109375 11.28125 
L 54.109375 2.78125 
Q 49.265625 0.734375 44.1875 -0.34375 
Q 39.109375 -1.421875 33.890625 -1.421875 
Q 20.796875 -1.421875 13.15625 6.1875 
Q 5.515625 13.8125 5.515625 26.8125 
Q 5.515625 40.234375 12.765625 48.109375 
Q 20.015625 56 32.328125 56 
Q 43.359375 56 49.78125 48.890625 
Q 56.203125 41.796875 56.203125 29.59375 
z
M 47.21875 32.234375 
Q 47.125 39.59375 43.09375 43.984375 
Q 39.0625 48.390625 32.421875 48.390625 
Q 24.90625 48.390625 20.390625 44.140625 
Q 15.875 39.890625 15.1875 32.171875 
z
" id="DejaVuSans-65"/>
       <path d="M 9.421875 54.6875 
L 18.40625 54.6875 
L 18.40625 0 
L 9.421875 0 
z
M 9.421875 75.984375 
L 18.40625 75.984375 
L 18.40625 64.59375 
L 9.421875 64.59375 
z
" id="DejaVuSans-69"/>
       <path d="M 48.6875 27.296875 
Q 48.6875 37.203125 44.609375 42.84375 
Q 40.53125 48.484375 33.40625 48.484375 
Q 26.265625 48.484375 22.1875 42.84375 
Q 18.109375 37.203125 18.109375 27.296875 
Q 18.109375 17.390625 22.1875 11.75 
Q 26.265625 6.109375 33.40625 6.109375 
Q 40.53125 6.109375 44.609375 11.75 
Q 48.6875 17.390625 48.6875 27.296875 
z
M 18.109375 46.390625 
Q 20.953125 51.265625 25.265625 53.625 
Q 29.59375 56 35.59375 56 
Q 45.5625 56 51.78125 48.09375 
Q 58.015625 40.1875 58.015625 27.296875 
Q 58.015625 14.40625 51.78125 6.484375 
Q 45.5625 -1.421875 35.59375 -1.421875 
Q 29.59375 -1.421875 25.265625 0.953125 
Q 20.953125 3.328125 18.109375 8.203125 
L 18.109375 0 
L 9.078125 0 
L 9.078125 75.984375 
L 18.109375 75.984375 
z
" id="DejaVuSans-62"/>
       <path d="M 25.390625 72.90625 
L 33.6875 72.90625 
L 8.296875 -9.28125 
L 0 -9.28125 
z
" id="DejaVuSans-2f"/>
       <path d="M 52 44.1875 
Q 55.375 50.25 60.0625 53.125 
Q 64.75 56 71.09375 56 
Q 79.640625 56 84.28125 50.015625 
Q 88.921875 44.046875 88.921875 33.015625 
L 88.921875 0 
L 79.890625 0 
L 79.890625 32.71875 
Q 79.890625 40.578125 77.09375 44.375 
Q 74.3125 48.1875 68.609375 48.1875 
Q 61.625 48.1875 57.5625 43.546875 
Q 53.515625 38.921875 53.515625 30.90625 
L 53.515625 0 
L 44.484375 0 
L 44.484375 32.71875 
Q 44.484375 40.625 41.703125 44.40625 
Q 38.921875 48.1875 33.109375 48.1875 
Q 26.21875 48.1875 22.15625 43.53125 
Q 18.109375 38.875 18.109375 30.90625 
L 18.109375 0 
L 9.078125 0 
L 9.078125 54.6875 
L 18.109375 54.6875 
L 18.109375 46.1875 
Q 21.1875 51.21875 25.484375 53.609375 
Q 29.78125 56 35.6875 56 
Q 41.65625 56 45.828125 52.96875 
Q 50 49.953125 52 44.1875 
z
" id="DejaVuSans-6d"/>
       <path d="M 54.890625 54.6875 
L 35.109375 28.078125 
L 55.90625 0 
L 45.3125 0 
L 29.390625 21.484375 
L 13.484375 0 
L 2.875 0 
L 24.125 28.609375 
L 4.6875 54.6875 
L 15.28125 54.6875 
L 29.78125 35.203125 
L 44.28125 54.6875 
z
" id="DejaVuSans-78"/>
      </defs>
      <g transform="translate(90.084375 309.640253)scale(0.1 -0.1)">
       <use xlink:href="#DejaVuSans-73"/>
       <use x="52.099609" xlink:href="#DejaVuSans-63"/>
       <use x="107.080078" xlink:href="#DejaVuSans-68"/>
       <use x="170.458984" xlink:href="#DejaVuSans-72"/>
       <use x="211.541016" xlink:href="#DejaVuSans-65"/>
       <use x="273.064453" xlink:href="#DejaVuSans-69"/>
       <use x="300.847656" xlink:href="#DejaVuSans-62"/>
       <use x="364.324219" xlink:href="#DejaVuSans-65"/>
       <use x="425.847656" xlink:href="#DejaVuSans-72"/>
       <use x="466.960938" xlink:href="#DejaVuSans-32"/>
       <use x="530.583984" xlink:href="#DejaVuSans-30"/>
       <use x="594.207031" xlink:href="#DejaVuSans-31"/>
       <use x="657.830078" xlink:href="#DejaVuSans-37"/>
       <use x="721.453125" xlink:href="#DejaVuSans-2f"/>
       <use x="755.144531" xlink:href="#DejaVuSans-6d"/>
       <use x="852.556641" xlink:href="#DejaVuSans-69"/>
       <use x="880.339844" xlink:href="#DejaVuSans-72"/>
       <use x="921.421875" xlink:href="#DejaVuSans-65"/>
       <use x="982.929688" xlink:href="#DejaVuSans-78"/>
       <use x="1042.109375" xlink:href="#DejaVuSans-32"/>
       <use x="1105.732422" xlink:href="#DejaVuSans-30"/>
       <use x="1169.355469" xlink:href="#DejaVuSans-31"/>
       <use x="1232.978516" xlink:href="#DejaVuSans-37"/>
      </g>
     </g>
    </g>
    <g id="ytick_2">
     <g id="line2d_21">
      <path clip-path="url(#pd1aab0e57b)" d="M 226.746875 254.52467 
L 617.346875 254.52467 
" style="fill:none;stroke:#b0b0b0;stroke-linecap:square;stroke-width:0.8;"/>
     </g>
     <g id="line2d_22">
      <g>
       <use style="stroke:#000000;stroke-width:0.8;" x="226.746875" xlink:href="#m464b62f435" y="254.52467"/>
      </g>
     </g>
     <g id="text_12">
      <!-- schreiber2017/ismir2017 -->
      <g transform="translate(94.164062 258.323889)scale(0.1 -0.1)">
       <use xlink:href="#DejaVuSans-73"/>
       <use x="52.099609" xlink:href="#DejaVuSans-63"/>
       <use x="107.080078" xlink:href="#DejaVuSans-68"/>
       <use x="170.458984" xlink:href="#DejaVuSans-72"/>
       <use x="211.541016" xlink:href="#DejaVuSans-65"/>
       <use x="273.064453" xlink:href="#DejaVuSans-69"/>
       <use x="300.847656" xlink:href="#DejaVuSans-62"/>
       <use x="364.324219" xlink:href="#DejaVuSans-65"/>
       <use x="425.847656" xlink:href="#DejaVuSans-72"/>
       <use x="466.960938" xlink:href="#DejaVuSans-32"/>
       <use x="530.583984" xlink:href="#DejaVuSans-30"/>
       <use x="594.207031" xlink:href="#DejaVuSans-31"/>
       <use x="657.830078" xlink:href="#DejaVuSans-37"/>
       <use x="721.453125" xlink:href="#DejaVuSans-2f"/>
       <use x="755.144531" xlink:href="#DejaVuSans-69"/>
       <use x="782.927734" xlink:href="#DejaVuSans-73"/>
       <use x="835.027344" xlink:href="#DejaVuSans-6d"/>
       <use x="932.439453" xlink:href="#DejaVuSans-69"/>
       <use x="960.222656" xlink:href="#DejaVuSans-72"/>
       <use x="1001.335938" xlink:href="#DejaVuSans-32"/>
       <use x="1064.958984" xlink:href="#DejaVuSans-30"/>
       <use x="1128.582031" xlink:href="#DejaVuSans-31"/>
       <use x="1192.205078" xlink:href="#DejaVuSans-37"/>
      </g>
     </g>
    </g>
    <g id="ytick_3">
     <g id="line2d_23">
      <path clip-path="url(#pd1aab0e57b)" d="M 226.746875 203.208307 
L 617.346875 203.208307 
" style="fill:none;stroke:#b0b0b0;stroke-linecap:square;stroke-width:0.8;"/>
     </g>
     <g id="line2d_24">
      <g>
       <use style="stroke:#000000;stroke-width:0.8;" x="226.746875" xlink:href="#m464b62f435" y="203.208307"/>
      </g>
     </g>
     <g id="text_13">
      <!-- schreiber2014/default -->
      <defs>
       <path d="M 37.796875 64.3125 
L 12.890625 25.390625 
L 37.796875 25.390625 
z
M 35.203125 72.90625 
L 47.609375 72.90625 
L 47.609375 25.390625 
L 58.015625 25.390625 
L 58.015625 17.1875 
L 47.609375 17.1875 
L 47.609375 0 
L 37.796875 0 
L 37.796875 17.1875 
L 4.890625 17.1875 
L 4.890625 26.703125 
z
" id="DejaVuSans-34"/>
       <path d="M 45.40625 46.390625 
L 45.40625 75.984375 
L 54.390625 75.984375 
L 54.390625 0 
L 45.40625 0 
L 45.40625 8.203125 
Q 42.578125 3.328125 38.25 0.953125 
Q 33.9375 -1.421875 27.875 -1.421875 
Q 17.96875 -1.421875 11.734375 6.484375 
Q 5.515625 14.40625 5.515625 27.296875 
Q 5.515625 40.1875 11.734375 48.09375 
Q 17.96875 56 27.875 56 
Q 33.9375 56 38.25 53.625 
Q 42.578125 51.265625 45.40625 46.390625 
z
M 14.796875 27.296875 
Q 14.796875 17.390625 18.875 11.75 
Q 22.953125 6.109375 30.078125 6.109375 
Q 37.203125 6.109375 41.296875 11.75 
Q 45.40625 17.390625 45.40625 27.296875 
Q 45.40625 37.203125 41.296875 42.84375 
Q 37.203125 48.484375 30.078125 48.484375 
Q 22.953125 48.484375 18.875 42.84375 
Q 14.796875 37.203125 14.796875 27.296875 
z
" id="DejaVuSans-64"/>
       <path d="M 37.109375 75.984375 
L 37.109375 68.5 
L 28.515625 68.5 
Q 23.6875 68.5 21.796875 66.546875 
Q 19.921875 64.59375 19.921875 59.515625 
L 19.921875 54.6875 
L 34.71875 54.6875 
L 34.71875 47.703125 
L 19.921875 47.703125 
L 19.921875 0 
L 10.890625 0 
L 10.890625 47.703125 
L 2.296875 47.703125 
L 2.296875 54.6875 
L 10.890625 54.6875 
L 10.890625 58.5 
Q 10.890625 67.625 15.140625 71.796875 
Q 19.390625 75.984375 28.609375 75.984375 
z
" id="DejaVuSans-66"/>
       <path d="M 34.28125 27.484375 
Q 23.390625 27.484375 19.1875 25 
Q 14.984375 22.515625 14.984375 16.5 
Q 14.984375 11.71875 18.140625 8.90625 
Q 21.296875 6.109375 26.703125 6.109375 
Q 34.1875 6.109375 38.703125 11.40625 
Q 43.21875 16.703125 43.21875 25.484375 
L 43.21875 27.484375 
z
M 52.203125 31.203125 
L 52.203125 0 
L 43.21875 0 
L 43.21875 8.296875 
Q 40.140625 3.328125 35.546875 0.953125 
Q 30.953125 -1.421875 24.3125 -1.421875 
Q 15.921875 -1.421875 10.953125 3.296875 
Q 6 8.015625 6 15.921875 
Q 6 25.140625 12.171875 29.828125 
Q 18.359375 34.515625 30.609375 34.515625 
L 43.21875 34.515625 
L 43.21875 35.40625 
Q 43.21875 41.609375 39.140625 45 
Q 35.0625 48.390625 27.6875 48.390625 
Q 23 48.390625 18.546875 47.265625 
Q 14.109375 46.140625 10.015625 43.890625 
L 10.015625 52.203125 
Q 14.9375 54.109375 19.578125 55.046875 
Q 24.21875 56 28.609375 56 
Q 40.484375 56 46.34375 49.84375 
Q 52.203125 43.703125 52.203125 31.203125 
z
" id="DejaVuSans-61"/>
       <path d="M 8.5 21.578125 
L 8.5 54.6875 
L 17.484375 54.6875 
L 17.484375 21.921875 
Q 17.484375 14.15625 20.5 10.265625 
Q 23.53125 6.390625 29.59375 6.390625 
Q 36.859375 6.390625 41.078125 11.03125 
Q 45.3125 15.671875 45.3125 23.6875 
L 45.3125 54.6875 
L 54.296875 54.6875 
L 54.296875 0 
L 45.3125 0 
L 45.3125 8.40625 
Q 42.046875 3.421875 37.71875 1 
Q 33.40625 -1.421875 27.6875 -1.421875 
Q 18.265625 -1.421875 13.375 4.4375 
Q 8.5 10.296875 8.5 21.578125 
z
M 31.109375 56 
z
" id="DejaVuSans-75"/>
       <path d="M 9.421875 75.984375 
L 18.40625 75.984375 
L 18.40625 0 
L 9.421875 0 
z
" id="DejaVuSans-6c"/>
       <path d="M 18.3125 70.21875 
L 18.3125 54.6875 
L 36.8125 54.6875 
L 36.8125 47.703125 
L 18.3125 47.703125 
L 18.3125 18.015625 
Q 18.3125 11.328125 20.140625 9.421875 
Q 21.96875 7.515625 27.59375 7.515625 
L 36.8125 7.515625 
L 36.8125 0 
L 27.59375 0 
Q 17.1875 0 13.234375 3.875 
Q 9.28125 7.765625 9.28125 18.015625 
L 9.28125 47.703125 
L 2.6875 47.703125 
L 2.6875 54.6875 
L 9.28125 54.6875 
L 9.28125 70.21875 
z
" id="DejaVuSans-74"/>
      </defs>
      <g transform="translate(109.045312 207.007526)scale(0.1 -0.1)">
       <use xlink:href="#DejaVuSans-73"/>
       <use x="52.099609" xlink:href="#DejaVuSans-63"/>
       <use x="107.080078" xlink:href="#DejaVuSans-68"/>
       <use x="170.458984" xlink:href="#DejaVuSans-72"/>
       <use x="211.541016" xlink:href="#DejaVuSans-65"/>
       <use x="273.064453" xlink:href="#DejaVuSans-69"/>
       <use x="300.847656" xlink:href="#DejaVuSans-62"/>
       <use x="364.324219" xlink:href="#DejaVuSans-65"/>
       <use x="425.847656" xlink:href="#DejaVuSans-72"/>
       <use x="466.960938" xlink:href="#DejaVuSans-32"/>
       <use x="530.583984" xlink:href="#DejaVuSans-30"/>
       <use x="594.207031" xlink:href="#DejaVuSans-31"/>
       <use x="657.830078" xlink:href="#DejaVuSans-34"/>
       <use x="721.453125" xlink:href="#DejaVuSans-2f"/>
       <use x="755.144531" xlink:href="#DejaVuSans-64"/>
       <use x="818.621094" xlink:href="#DejaVuSans-65"/>
       <use x="880.144531" xlink:href="#DejaVuSans-66"/>
       <use x="915.349609" xlink:href="#DejaVuSans-61"/>
       <use x="976.628906" xlink:href="#DejaVuSans-75"/>
       <use x="1040.007812" xlink:href="#DejaVuSans-6c"/>
       <use x="1067.791016" xlink:href="#DejaVuSans-74"/>
      </g>
     </g>
    </g>
    <g id="ytick_4">
     <g id="line2d_25">
      <path clip-path="url(#pd1aab0e57b)" d="M 226.746875 151.891943 
L 617.346875 151.891943 
" style="fill:none;stroke:#b0b0b0;stroke-linecap:square;stroke-width:0.8;"/>
     </g>
     <g id="line2d_26">
      <g>
       <use style="stroke:#000000;stroke-width:0.8;" x="226.746875" xlink:href="#m464b62f435" y="151.891943"/>
      </g>
     </g>
     <g id="text_14">
      <!-- percival2014/stem -->
      <defs>
       <path d="M 18.109375 8.203125 
L 18.109375 -20.796875 
L 9.078125 -20.796875 
L 9.078125 54.6875 
L 18.109375 54.6875 
L 18.109375 46.390625 
Q 20.953125 51.265625 25.265625 53.625 
Q 29.59375 56 35.59375 56 
Q 45.5625 56 51.78125 48.09375 
Q 58.015625 40.1875 58.015625 27.296875 
Q 58.015625 14.40625 51.78125 6.484375 
Q 45.5625 -1.421875 35.59375 -1.421875 
Q 29.59375 -1.421875 25.265625 0.953125 
Q 20.953125 3.328125 18.109375 8.203125 
z
M 48.6875 27.296875 
Q 48.6875 37.203125 44.609375 42.84375 
Q 40.53125 48.484375 33.40625 48.484375 
Q 26.265625 48.484375 22.1875 42.84375 
Q 18.109375 37.203125 18.109375 27.296875 
Q 18.109375 17.390625 22.1875 11.75 
Q 26.265625 6.109375 33.40625 6.109375 
Q 40.53125 6.109375 44.609375 11.75 
Q 48.6875 17.390625 48.6875 27.296875 
z
" id="DejaVuSans-70"/>
       <path d="M 2.984375 54.6875 
L 12.5 54.6875 
L 29.59375 8.796875 
L 46.6875 54.6875 
L 56.203125 54.6875 
L 35.6875 0 
L 23.484375 0 
z
" id="DejaVuSans-76"/>
      </defs>
      <g transform="translate(126.19375 155.691162)scale(0.1 -0.1)">
       <use xlink:href="#DejaVuSans-70"/>
       <use x="63.476562" xlink:href="#DejaVuSans-65"/>
       <use x="125" xlink:href="#DejaVuSans-72"/>
       <use x="166.082031" xlink:href="#DejaVuSans-63"/>
       <use x="221.0625" xlink:href="#DejaVuSans-69"/>
       <use x="248.845703" xlink:href="#DejaVuSans-76"/>
       <use x="308.025391" xlink:href="#DejaVuSans-61"/>
       <use x="369.304688" xlink:href="#DejaVuSans-6c"/>
       <use x="397.087891" xlink:href="#DejaVuSans-32"/>
       <use x="460.710938" xlink:href="#DejaVuSans-30"/>
       <use x="524.333984" xlink:href="#DejaVuSans-31"/>
       <use x="587.957031" xlink:href="#DejaVuSans-34"/>
       <use x="651.580078" xlink:href="#DejaVuSans-2f"/>
       <use x="685.271484" xlink:href="#DejaVuSans-73"/>
       <use x="737.371094" xlink:href="#DejaVuSans-74"/>
       <use x="776.580078" xlink:href="#DejaVuSans-65"/>
       <use x="838.103516" xlink:href="#DejaVuSans-6d"/>
      </g>
     </g>
    </g>
    <g id="ytick_5">
     <g id="line2d_27">
      <path clip-path="url(#pd1aab0e57b)" d="M 226.746875 100.57558 
L 617.346875 100.57558 
" style="fill:none;stroke:#b0b0b0;stroke-linecap:square;stroke-width:0.8;"/>
     </g>
     <g id="line2d_28">
      <g>
       <use style="stroke:#000000;stroke-width:0.8;" x="226.746875" xlink:href="#m464b62f435" y="100.57558"/>
      </g>
     </g>
     <g id="text_15">
      <!-- davies2009/mirex_qm_tempotracker -->
      <defs>
       <path d="M 10.984375 1.515625 
L 10.984375 10.5 
Q 14.703125 8.734375 18.5 7.8125 
Q 22.3125 6.890625 25.984375 6.890625 
Q 35.75 6.890625 40.890625 13.453125 
Q 46.046875 20.015625 46.78125 33.40625 
Q 43.953125 29.203125 39.59375 26.953125 
Q 35.25 24.703125 29.984375 24.703125 
Q 19.046875 24.703125 12.671875 31.3125 
Q 6.296875 37.9375 6.296875 49.421875 
Q 6.296875 60.640625 12.9375 67.421875 
Q 19.578125 74.21875 30.609375 74.21875 
Q 43.265625 74.21875 49.921875 64.515625 
Q 56.59375 54.828125 56.59375 36.375 
Q 56.59375 19.140625 48.40625 8.859375 
Q 40.234375 -1.421875 26.421875 -1.421875 
Q 22.703125 -1.421875 18.890625 -0.6875 
Q 15.09375 0.046875 10.984375 1.515625 
z
M 30.609375 32.421875 
Q 37.25 32.421875 41.125 36.953125 
Q 45.015625 41.5 45.015625 49.421875 
Q 45.015625 57.28125 41.125 61.84375 
Q 37.25 66.40625 30.609375 66.40625 
Q 23.96875 66.40625 20.09375 61.84375 
Q 16.21875 57.28125 16.21875 49.421875 
Q 16.21875 41.5 20.09375 36.953125 
Q 23.96875 32.421875 30.609375 32.421875 
z
" id="DejaVuSans-39"/>
       <path d="M 50.984375 -16.609375 
L 50.984375 -23.578125 
L -0.984375 -23.578125 
L -0.984375 -16.609375 
z
" id="DejaVuSans-5f"/>
       <path d="M 14.796875 27.296875 
Q 14.796875 17.390625 18.875 11.75 
Q 22.953125 6.109375 30.078125 6.109375 
Q 37.203125 6.109375 41.296875 11.75 
Q 45.40625 17.390625 45.40625 27.296875 
Q 45.40625 37.203125 41.296875 42.84375 
Q 37.203125 48.484375 30.078125 48.484375 
Q 22.953125 48.484375 18.875 42.84375 
Q 14.796875 37.203125 14.796875 27.296875 
z
M 45.40625 8.203125 
Q 42.578125 3.328125 38.25 0.953125 
Q 33.9375 -1.421875 27.875 -1.421875 
Q 17.96875 -1.421875 11.734375 6.484375 
Q 5.515625 14.40625 5.515625 27.296875 
Q 5.515625 40.1875 11.734375 48.09375 
Q 17.96875 56 27.875 56 
Q 33.9375 56 38.25 53.625 
Q 42.578125 51.265625 45.40625 46.390625 
L 45.40625 54.6875 
L 54.390625 54.6875 
L 54.390625 -20.796875 
L 45.40625 -20.796875 
z
" id="DejaVuSans-71"/>
       <path d="M 30.609375 48.390625 
Q 23.390625 48.390625 19.1875 42.75 
Q 14.984375 37.109375 14.984375 27.296875 
Q 14.984375 17.484375 19.15625 11.84375 
Q 23.34375 6.203125 30.609375 6.203125 
Q 37.796875 6.203125 41.984375 11.859375 
Q 46.1875 17.53125 46.1875 27.296875 
Q 46.1875 37.015625 41.984375 42.703125 
Q 37.796875 48.390625 30.609375 48.390625 
z
M 30.609375 56 
Q 42.328125 56 49.015625 48.375 
Q 55.71875 40.765625 55.71875 27.296875 
Q 55.71875 13.875 49.015625 6.21875 
Q 42.328125 -1.421875 30.609375 -1.421875 
Q 18.84375 -1.421875 12.171875 6.21875 
Q 5.515625 13.875 5.515625 27.296875 
Q 5.515625 40.765625 12.171875 48.375 
Q 18.84375 56 30.609375 56 
z
" id="DejaVuSans-6f"/>
       <path d="M 9.078125 75.984375 
L 18.109375 75.984375 
L 18.109375 31.109375 
L 44.921875 54.6875 
L 56.390625 54.6875 
L 27.390625 29.109375 
L 57.625 0 
L 45.90625 0 
L 18.109375 26.703125 
L 18.109375 0 
L 9.078125 0 
z
" id="DejaVuSans-6b"/>
      </defs>
      <g transform="translate(35.617187 104.374798)scale(0.1 -0.1)">
       <use xlink:href="#DejaVuSans-64"/>
       <use x="63.476562" xlink:href="#DejaVuSans-61"/>
       <use x="124.755859" xlink:href="#DejaVuSans-76"/>
       <use x="183.935547" xlink:href="#DejaVuSans-69"/>
       <use x="211.71875" xlink:href="#DejaVuSans-65"/>
       <use x="273.242188" xlink:href="#DejaVuSans-73"/>
       <use x="325.341797" xlink:href="#DejaVuSans-32"/>
       <use x="388.964844" xlink:href="#DejaVuSans-30"/>
       <use x="452.587891" xlink:href="#DejaVuSans-30"/>
       <use x="516.210938" xlink:href="#DejaVuSans-39"/>
       <use x="579.833984" xlink:href="#DejaVuSans-2f"/>
       <use x="613.525391" xlink:href="#DejaVuSans-6d"/>
       <use x="710.9375" xlink:href="#DejaVuSans-69"/>
       <use x="738.720703" xlink:href="#DejaVuSans-72"/>
       <use x="779.802734" xlink:href="#DejaVuSans-65"/>
       <use x="841.310547" xlink:href="#DejaVuSans-78"/>
       <use x="900.490234" xlink:href="#DejaVuSans-5f"/>
       <use x="950.490234" xlink:href="#DejaVuSans-71"/>
       <use x="1013.966797" xlink:href="#DejaVuSans-6d"/>
       <use x="1111.378906" xlink:href="#DejaVuSans-5f"/>
       <use x="1161.378906" xlink:href="#DejaVuSans-74"/>
       <use x="1200.587891" xlink:href="#DejaVuSans-65"/>
       <use x="1262.111328" xlink:href="#DejaVuSans-6d"/>
       <use x="1359.523438" xlink:href="#DejaVuSans-70"/>
       <use x="1423" xlink:href="#DejaVuSans-6f"/>
       <use x="1484.181641" xlink:href="#DejaVuSans-74"/>
       <use x="1523.390625" xlink:href="#DejaVuSans-72"/>
       <use x="1564.503906" xlink:href="#DejaVuSans-61"/>
       <use x="1625.783203" xlink:href="#DejaVuSans-63"/>
       <use x="1680.763672" xlink:href="#DejaVuSans-6b"/>
       <use x="1738.626953" xlink:href="#DejaVuSans-65"/>
       <use x="1800.150391" xlink:href="#DejaVuSans-72"/>
      </g>
     </g>
    </g>
    <g id="ytick_6">
     <g id="line2d_29">
      <path clip-path="url(#pd1aab0e57b)" d="M 226.746875 49.259216 
L 617.346875 49.259216 
" style="fill:none;stroke:#b0b0b0;stroke-linecap:square;stroke-width:0.8;"/>
     </g>
     <g id="line2d_30">
      <g>
       <use style="stroke:#000000;stroke-width:0.8;" x="226.746875" xlink:href="#m464b62f435" y="49.259216"/>
      </g>
     </g>
     <g id="text_16">
      <!-- boeck2015/tempodetector2016_default -->
      <defs>
       <path d="M 33.015625 40.375 
Q 26.375 40.375 22.484375 35.828125 
Q 18.609375 31.296875 18.609375 23.390625 
Q 18.609375 15.53125 22.484375 10.953125 
Q 26.375 6.390625 33.015625 6.390625 
Q 39.65625 6.390625 43.53125 10.953125 
Q 47.40625 15.53125 47.40625 23.390625 
Q 47.40625 31.296875 43.53125 35.828125 
Q 39.65625 40.375 33.015625 40.375 
z
M 52.59375 71.296875 
L 52.59375 62.3125 
Q 48.875 64.0625 45.09375 64.984375 
Q 41.3125 65.921875 37.59375 65.921875 
Q 27.828125 65.921875 22.671875 59.328125 
Q 17.53125 52.734375 16.796875 39.40625 
Q 19.671875 43.65625 24.015625 45.921875 
Q 28.375 48.1875 33.59375 48.1875 
Q 44.578125 48.1875 50.953125 41.515625 
Q 57.328125 34.859375 57.328125 23.390625 
Q 57.328125 12.15625 50.6875 5.359375 
Q 44.046875 -1.421875 33.015625 -1.421875 
Q 20.359375 -1.421875 13.671875 8.265625 
Q 6.984375 17.96875 6.984375 36.375 
Q 6.984375 53.65625 15.1875 63.9375 
Q 23.390625 74.21875 37.203125 74.21875 
Q 40.921875 74.21875 44.703125 73.484375 
Q 48.484375 72.75 52.59375 71.296875 
z
" id="DejaVuSans-36"/>
      </defs>
      <g transform="translate(20.878125 53.058435)scale(0.1 -0.1)">
       <use xlink:href="#DejaVuSans-62"/>
       <use x="63.476562" xlink:href="#DejaVuSans-6f"/>
       <use x="124.658203" xlink:href="#DejaVuSans-65"/>
       <use x="186.181641" xlink:href="#DejaVuSans-63"/>
       <use x="241.162109" xlink:href="#DejaVuSans-6b"/>
       <use x="299.072266" xlink:href="#DejaVuSans-32"/>
       <use x="362.695312" xlink:href="#DejaVuSans-30"/>
       <use x="426.318359" xlink:href="#DejaVuSans-31"/>
       <use x="489.941406" xlink:href="#DejaVuSans-35"/>
       <use x="553.564453" xlink:href="#DejaVuSans-2f"/>
       <use x="587.255859" xlink:href="#DejaVuSans-74"/>
       <use x="626.464844" xlink:href="#DejaVuSans-65"/>
       <use x="687.988281" xlink:href="#DejaVuSans-6d"/>
       <use x="785.400391" xlink:href="#DejaVuSans-70"/>
       <use x="848.876953" xlink:href="#DejaVuSans-6f"/>
       <use x="910.058594" xlink:href="#DejaVuSans-64"/>
       <use x="973.535156" xlink:href="#DejaVuSans-65"/>
       <use x="1035.058594" xlink:href="#DejaVuSans-74"/>
       <use x="1074.267578" xlink:href="#DejaVuSans-65"/>
       <use x="1135.791016" xlink:href="#DejaVuSans-63"/>
       <use x="1190.771484" xlink:href="#DejaVuSans-74"/>
       <use x="1229.980469" xlink:href="#DejaVuSans-6f"/>
       <use x="1291.162109" xlink:href="#DejaVuSans-72"/>
       <use x="1332.275391" xlink:href="#DejaVuSans-32"/>
       <use x="1395.898438" xlink:href="#DejaVuSans-30"/>
       <use x="1459.521484" xlink:href="#DejaVuSans-31"/>
       <use x="1523.144531" xlink:href="#DejaVuSans-36"/>
       <use x="1586.767578" xlink:href="#DejaVuSans-5f"/>
       <use x="1636.767578" xlink:href="#DejaVuSans-64"/>
       <use x="1700.244141" xlink:href="#DejaVuSans-65"/>
       <use x="1761.767578" xlink:href="#DejaVuSans-66"/>
       <use x="1796.972656" xlink:href="#DejaVuSans-61"/>
       <use x="1858.251953" xlink:href="#DejaVuSans-75"/>
       <use x="1921.630859" xlink:href="#DejaVuSans-6c"/>
       <use x="1949.414062" xlink:href="#DejaVuSans-74"/>
      </g>
     </g>
    </g>
    <g id="text_17">
     <!-- Estimator -->
     <g transform="translate(14.798437 201.672781)rotate(-90)scale(0.1 -0.1)">
      <use xlink:href="#DejaVuSans-45"/>
      <use x="63.183594" xlink:href="#DejaVuSans-73"/>
      <use x="115.283203" xlink:href="#DejaVuSans-74"/>
      <use x="154.492188" xlink:href="#DejaVuSans-69"/>
      <use x="182.275391" xlink:href="#DejaVuSans-6d"/>
      <use x="279.6875" xlink:href="#DejaVuSans-61"/>
      <use x="340.966797" xlink:href="#DejaVuSans-74"/>
      <use x="380.175781" xlink:href="#DejaVuSans-6f"/>
      <use x="441.357422" xlink:href="#DejaVuSans-72"/>
     </g>
    </g>
   </g>
   <g id="PolyCollection_1">
    <path clip-path="url(#pd1aab0e57b)" d="M 226.74759 293.011943 
L 226.74759 318.670125 
L 228.720898 318.656354 
L 230.694206 318.586156 
L 232.667514 318.460461 
L 234.640823 318.280921 
L 236.614131 318.049877 
L 238.587439 317.770305 
L 240.560748 317.445757 
L 242.534056 317.080281 
L 244.507364 316.678339 
L 246.480673 316.244717 
L 248.453981 315.78443 
L 250.427289 315.302629 
L 252.400597 314.804501 
L 254.373906 314.295182 
L 256.347214 313.779671 
L 258.320522 313.262752 
L 260.293831 312.748924 
L 262.267139 312.242347 
L 264.240447 311.746789 
L 266.213756 311.265596 
L 268.187064 310.801667 
L 270.160372 310.357437 
L 272.13368 309.934883 
L 274.106989 309.535526 
L 276.080297 309.16045 
L 278.053605 308.810329 
L 280.026914 308.485453 
L 282.000222 308.185767 
L 283.97353 307.910908 
L 285.946839 307.660249 
L 287.920147 307.432937 
L 289.893455 307.227936 
L 291.866763 307.044068 
L 293.840072 306.880051 
L 295.81338 306.734532 
L 297.786688 306.606124 
L 299.759997 306.493431 
L 301.733305 306.395071 
L 303.706613 306.309704 
L 305.679922 306.236041 
L 307.65323 306.172864 
L 309.626538 306.119034 
L 311.599846 306.073497 
L 313.573155 306.035294 
L 315.546463 306.003556 
L 317.519771 305.977512 
L 319.49308 305.956482 
L 321.466388 305.939877 
L 323.439696 305.927199 
L 325.413004 305.918031 
L 327.386313 305.912035 
L 329.359621 305.90895 
L 331.332929 305.908582 
L 333.306238 305.910804 
L 335.279546 305.915546 
L 337.252854 305.922796 
L 339.226163 305.932587 
L 341.199471 305.945002 
L 343.172779 305.960159 
L 345.146087 305.978215 
L 347.119396 305.999353 
L 349.092704 306.023782 
L 351.066012 306.051727 
L 353.039321 306.083428 
L 355.012629 306.119127 
L 356.985937 306.159066 
L 358.959246 306.203478 
L 360.932554 306.252578 
L 362.905862 306.306555 
L 364.87917 306.365566 
L 366.852479 306.429723 
L 368.825787 306.49909 
L 370.799095 306.573667 
L 372.772404 306.65339 
L 374.745712 306.738119 
L 376.71902 306.827634 
L 378.692329 306.921625 
L 380.665637 307.019697 
L 382.638945 307.12136 
L 384.612253 307.226031 
L 386.585562 307.333038 
L 388.55887 307.441623 
L 390.532178 307.550947 
L 392.505487 307.6601 
L 394.478795 307.768112 
L 396.452103 307.873965 
L 398.425412 307.976611 
L 400.39872 308.074982 
L 402.372028 308.168016 
L 404.345336 308.254669 
L 406.318645 308.33394 
L 408.291953 308.404883 
L 410.265261 308.466634 
L 412.23857 308.518422 
L 414.211878 308.559587 
L 416.185186 308.589595 
L 418.158494 308.608049 
L 420.131803 308.614698 
L 422.105111 308.609441 
L 422.105111 303.072628 
L 422.105111 303.072628 
L 420.131803 303.06737 
L 418.158494 303.074019 
L 416.185186 303.092473 
L 414.211878 303.122482 
L 412.23857 303.163647 
L 410.265261 303.215434 
L 408.291953 303.277185 
L 406.318645 303.348128 
L 404.345336 303.427399 
L 402.372028 303.514052 
L 400.39872 303.607086 
L 398.425412 303.705458 
L 396.452103 303.808103 
L 394.478795 303.913957 
L 392.505487 304.021969 
L 390.532178 304.131122 
L 388.55887 304.240445 
L 386.585562 304.34903 
L 384.612253 304.456037 
L 382.638945 304.560708 
L 380.665637 304.662371 
L 378.692329 304.760443 
L 376.71902 304.854435 
L 374.745712 304.943949 
L 372.772404 305.028678 
L 370.799095 305.108401 
L 368.825787 305.182979 
L 366.852479 305.252345 
L 364.87917 305.316502 
L 362.905862 305.375513 
L 360.932554 305.42949 
L 358.959246 305.47859 
L 356.985937 305.523002 
L 355.012629 305.562941 
L 353.039321 305.59864 
L 351.066012 305.630341 
L 349.092704 305.658286 
L 347.119396 305.682715 
L 345.146087 305.703853 
L 343.172779 305.721909 
L 341.199471 305.737066 
L 339.226163 305.749481 
L 337.252854 305.759273 
L 335.279546 305.766522 
L 333.306238 305.771264 
L 331.332929 305.773486 
L 329.359621 305.773118 
L 327.386313 305.770033 
L 325.413004 305.764037 
L 323.439696 305.754869 
L 321.466388 305.742191 
L 319.49308 305.725587 
L 317.519771 305.704556 
L 315.546463 305.678512 
L 313.573155 305.646774 
L 311.599846 305.608571 
L 309.626538 305.563034 
L 307.65323 305.509204 
L 305.679922 305.446027 
L 303.706613 305.372364 
L 301.733305 305.286997 
L 299.759997 305.188637 
L 297.786688 305.075944 
L 295.81338 304.947536 
L 293.840072 304.802018 
L 291.866763 304.638 
L 289.893455 304.454132 
L 287.920147 304.249131 
L 285.946839 304.021819 
L 283.97353 303.77116 
L 282.000222 303.496302 
L 280.026914 303.196616 
L 278.053605 302.871739 
L 276.080297 302.521618 
L 274.106989 302.146542 
L 272.13368 301.747185 
L 270.160372 301.324631 
L 268.187064 300.880401 
L 266.213756 300.416472 
L 264.240447 299.935279 
L 262.267139 299.439722 
L 260.293831 298.933144 
L 258.320522 298.419317 
L 256.347214 297.902397 
L 254.373906 297.386886 
L 252.400597 296.877567 
L 250.427289 296.379439 
L 248.453981 295.897638 
L 246.480673 295.437352 
L 244.507364 295.00373 
L 242.534056 294.601787 
L 240.560748 294.236311 
L 238.587439 293.911763 
L 236.614131 293.632191 
L 234.640823 293.401147 
L 232.667514 293.221607 
L 230.694206 293.095912 
L 228.720898 293.025714 
L 226.74759 293.011943 
z
" style="fill:#ff0000;fill-opacity:0.75;"/>
   </g>
   <g id="PolyCollection_2">
    <path clip-path="url(#pd1aab0e57b)" d="M 226.74759 241.69558 
L 226.74759 267.353761 
L 228.720898 267.33999 
L 230.694206 267.269792 
L 232.667514 267.144097 
L 234.640823 266.964557 
L 236.614131 266.733513 
L 238.587439 266.453942 
L 240.560748 266.129394 
L 242.534056 265.763917 
L 244.507364 265.361975 
L 246.480673 264.928353 
L 248.453981 264.468067 
L 250.427289 263.986265 
L 252.400597 263.488137 
L 254.373906 262.978818 
L 256.347214 262.463307 
L 258.320522 261.946388 
L 260.293831 261.43256 
L 262.267139 260.925983 
L 264.240447 260.430425 
L 266.213756 259.949233 
L 268.187064 259.485303 
L 270.160372 259.041074 
L 272.13368 258.618519 
L 274.106989 258.219162 
L 276.080297 257.844087 
L 278.053605 257.493965 
L 280.026914 257.169089 
L 282.000222 256.869403 
L 283.97353 256.594545 
L 285.946839 256.343886 
L 287.920147 256.116574 
L 289.893455 255.911572 
L 291.866763 255.727704 
L 293.840072 255.563687 
L 295.81338 255.418168 
L 297.786688 255.289761 
L 299.759997 255.177067 
L 301.733305 255.078708 
L 303.706613 254.99334 
L 305.679922 254.919677 
L 307.65323 254.8565 
L 309.626538 254.80267 
L 311.599846 254.757134 
L 313.573155 254.71893 
L 315.546463 254.687193 
L 317.519771 254.661148 
L 319.49308 254.640118 
L 321.466388 254.623514 
L 323.439696 254.610836 
L 325.413004 254.601667 
L 327.386313 254.595672 
L 329.359621 254.592586 
L 331.332929 254.592219 
L 333.306238 254.59444 
L 335.279546 254.599183 
L 337.252854 254.606432 
L 339.226163 254.616224 
L 341.199471 254.628638 
L 343.172779 254.643796 
L 345.146087 254.661851 
L 347.119396 254.682989 
L 349.092704 254.707418 
L 351.066012 254.735364 
L 353.039321 254.767064 
L 355.012629 254.802763 
L 356.985937 254.842702 
L 358.959246 254.887114 
L 360.932554 254.936214 
L 362.905862 254.990192 
L 364.87917 255.049202 
L 366.852479 255.11336 
L 368.825787 255.182726 
L 370.799095 255.257303 
L 372.772404 255.337026 
L 374.745712 255.421756 
L 376.71902 255.51127 
L 378.692329 255.605262 
L 380.665637 255.703334 
L 382.638945 255.804996 
L 384.612253 255.909667 
L 386.585562 256.016674 
L 388.55887 256.125259 
L 390.532178 256.234583 
L 392.505487 256.343736 
L 394.478795 256.451748 
L 396.452103 256.557602 
L 398.425412 256.660247 
L 400.39872 256.758618 
L 402.372028 256.851652 
L 404.345336 256.938306 
L 406.318645 257.017576 
L 408.291953 257.08852 
L 410.265261 257.15027 
L 412.23857 257.202058 
L 414.211878 257.243223 
L 416.185186 257.273231 
L 418.158494 257.291686 
L 420.131803 257.298335 
L 422.105111 257.293077 
L 422.105111 251.756264 
L 422.105111 251.756264 
L 420.131803 251.751006 
L 418.158494 251.757655 
L 416.185186 251.77611 
L 414.211878 251.806118 
L 412.23857 251.847283 
L 410.265261 251.899071 
L 408.291953 251.960821 
L 406.318645 252.031765 
L 404.345336 252.111035 
L 402.372028 252.197689 
L 400.39872 252.290722 
L 398.425412 252.389094 
L 396.452103 252.491739 
L 394.478795 252.597593 
L 392.505487 252.705605 
L 390.532178 252.814758 
L 388.55887 252.924082 
L 386.585562 253.032667 
L 384.612253 253.139674 
L 382.638945 253.244345 
L 380.665637 253.346007 
L 378.692329 253.444079 
L 376.71902 253.538071 
L 374.745712 253.627585 
L 372.772404 253.712314 
L 370.799095 253.792038 
L 368.825787 253.866615 
L 366.852479 253.935981 
L 364.87917 254.000139 
L 362.905862 254.059149 
L 360.932554 254.113127 
L 358.959246 254.162226 
L 356.985937 254.206638 
L 355.012629 254.246578 
L 353.039321 254.282277 
L 351.066012 254.313977 
L 349.092704 254.341923 
L 347.119396 254.366351 
L 345.146087 254.387489 
L 343.172779 254.405545 
L 341.199471 254.420703 
L 339.226163 254.433117 
L 337.252854 254.442909 
L 335.279546 254.450158 
L 333.306238 254.454901 
L 331.332929 254.457122 
L 329.359621 254.456755 
L 327.386313 254.453669 
L 325.413004 254.447674 
L 323.439696 254.438505 
L 321.466388 254.425827 
L 319.49308 254.409223 
L 317.519771 254.388193 
L 315.546463 254.362148 
L 313.573155 254.330411 
L 311.599846 254.292207 
L 309.626538 254.246671 
L 307.65323 254.19284 
L 305.679922 254.129663 
L 303.706613 254.056001 
L 301.733305 253.970633 
L 299.759997 253.872274 
L 297.786688 253.75958 
L 295.81338 253.631172 
L 293.840072 253.485654 
L 291.866763 253.321637 
L 289.893455 253.137768 
L 287.920147 252.932767 
L 285.946839 252.705455 
L 283.97353 252.454796 
L 282.000222 252.179938 
L 280.026914 251.880252 
L 278.053605 251.555376 
L 276.080297 251.205254 
L 274.106989 250.830179 
L 272.13368 250.430822 
L 270.160372 250.008267 
L 268.187064 249.564038 
L 266.213756 249.100108 
L 264.240447 248.618916 
L 262.267139 248.123358 
L 260.293831 247.616781 
L 258.320522 247.102953 
L 256.347214 246.586034 
L 254.373906 246.070523 
L 252.400597 245.561204 
L 250.427289 245.063075 
L 248.453981 244.581274 
L 246.480673 244.120988 
L 244.507364 243.687366 
L 242.534056 243.285424 
L 240.560748 242.919947 
L 238.587439 242.595399 
L 236.614131 242.315828 
L 234.640823 242.084784 
L 232.667514 241.905244 
L 230.694206 241.779548 
L 228.720898 241.709351 
L 226.74759 241.69558 
z
" style="fill:#ff0000;fill-opacity:0.75;"/>
   </g>
   <g id="PolyCollection_3">
    <path clip-path="url(#pd1aab0e57b)" d="M 226.748178 190.379216 
L 226.748178 216.037398 
L 228.724154 216.033034 
L 230.700129 215.960508 
L 232.676105 215.821113 
L 234.652081 215.617208 
L 236.628056 215.352158 
L 238.604032 215.030236 
L 240.580008 214.656521 
L 242.555983 214.236761 
L 244.531959 213.777231 
L 246.507935 213.284581 
L 248.48391 212.765678 
L 250.459886 212.227449 
L 252.435862 211.676735 
L 254.411837 211.120154 
L 256.387813 210.56397 
L 258.363788 210.013995 
L 260.339764 209.475495 
L 262.31574 208.953124 
L 264.291715 208.450884 
L 266.267691 207.972091 
L 268.243667 207.519379 
L 270.219642 207.094707 
L 272.195618 206.699389 
L 274.171594 206.334137 
L 276.147569 205.999115 
L 278.123545 205.693997 
L 280.099521 205.418037 
L 282.075496 205.170134 
L 284.051472 204.948901 
L 286.027448 204.752735 
L 288.003423 204.579877 
L 289.979399 204.428473 
L 291.955374 204.296624 
L 293.93135 204.182433 
L 295.907326 204.084043 
L 297.883301 203.999666 
L 299.859277 203.927615 
L 301.835253 203.866311 
L 303.811228 203.814307 
L 305.787204 203.770286 
L 307.76318 203.733066 
L 309.739155 203.701603 
L 311.715131 203.67498 
L 313.691107 203.652406 
L 315.667082 203.633203 
L 317.643058 203.616803 
L 319.619034 203.602731 
L 321.595009 203.590602 
L 323.570985 203.580107 
L 325.54696 203.571009 
L 327.522936 203.563128 
L 329.498912 203.556341 
L 331.474887 203.550571 
L 333.450863 203.545783 
L 335.426839 203.54198 
L 337.402814 203.539199 
L 339.37879 203.53751 
L 341.354766 203.537007 
L 343.330741 203.537816 
L 345.306717 203.540084 
L 347.282693 203.543983 
L 349.258668 203.549706 
L 351.234644 203.557465 
L 353.21062 203.567489 
L 355.186595 203.580023 
L 357.162571 203.595319 
L 359.138546 203.61364 
L 361.114522 203.635245 
L 363.090498 203.660393 
L 365.066473 203.689329 
L 367.042449 203.722279 
L 369.018425 203.759441 
L 370.9944 203.800976 
L 372.970376 203.847002 
L 374.946352 203.897577 
L 376.922327 203.952696 
L 378.898303 204.012281 
L 380.874279 204.076168 
L 382.850254 204.144106 
L 384.82623 204.215748 
L 386.802206 204.290648 
L 388.778181 204.368262 
L 390.754157 204.447944 
L 392.730132 204.528957 
L 394.706108 204.610477 
L 396.682084 204.691604 
L 398.658059 204.771375 
L 400.634035 204.848782 
L 402.610011 204.922788 
L 404.585986 204.992353 
L 406.561962 205.056451 
L 408.537938 205.114097 
L 410.513913 205.164369 
L 412.489889 205.20643 
L 414.465865 205.239553 
L 416.44184 205.263135 
L 418.417816 205.276716 
L 420.393792 205.279994 
L 422.369767 205.272826 
L 422.369767 201.143787 
L 422.369767 201.143787 
L 420.393792 201.13662 
L 418.417816 201.139897 
L 416.44184 201.153479 
L 414.465865 201.177061 
L 412.489889 201.210183 
L 410.513913 201.252245 
L 408.537938 201.302517 
L 406.561962 201.360163 
L 404.585986 201.424261 
L 402.610011 201.493825 
L 400.634035 201.567832 
L 398.658059 201.645238 
L 396.682084 201.725009 
L 394.706108 201.806136 
L 392.730132 201.887656 
L 390.754157 201.96867 
L 388.778181 202.048352 
L 386.802206 202.125965 
L 384.82623 202.200866 
L 382.850254 202.272508 
L 380.874279 202.340446 
L 378.898303 202.404333 
L 376.922327 202.463917 
L 374.946352 202.519037 
L 372.970376 202.569612 
L 370.9944 202.615637 
L 369.018425 202.657173 
L 367.042449 202.694335 
L 365.066473 202.727284 
L 363.090498 202.75622 
L 361.114522 202.781368 
L 359.138546 202.802974 
L 357.162571 202.821294 
L 355.186595 202.836591 
L 353.21062 202.849125 
L 351.234644 202.859149 
L 349.258668 202.866908 
L 347.282693 202.87263 
L 345.306717 202.876529 
L 343.330741 202.878797 
L 341.354766 202.879606 
L 339.37879 202.879104 
L 337.402814 202.877414 
L 335.426839 202.874634 
L 333.450863 202.870831 
L 331.474887 202.866043 
L 329.498912 202.860272 
L 327.522936 202.853485 
L 325.54696 202.845605 
L 323.570985 202.836506 
L 321.595009 202.826012 
L 319.619034 202.813883 
L 317.643058 202.799811 
L 315.667082 202.78341 
L 313.691107 202.764208 
L 311.715131 202.741633 
L 309.739155 202.71501 
L 307.76318 202.683547 
L 305.787204 202.646328 
L 303.811228 202.602307 
L 301.835253 202.550302 
L 299.859277 202.488999 
L 297.883301 202.416947 
L 295.907326 202.332571 
L 293.93135 202.23418 
L 291.955374 202.119989 
L 289.979399 201.988141 
L 288.003423 201.836737 
L 286.027448 201.663879 
L 284.051472 201.467713 
L 282.075496 201.24648 
L 280.099521 200.998576 
L 278.123545 200.722616 
L 276.147569 200.417499 
L 274.171594 200.082477 
L 272.195618 199.717225 
L 270.219642 199.321907 
L 268.243667 198.897234 
L 266.267691 198.444522 
L 264.291715 197.96573 
L 262.31574 197.463489 
L 260.339764 196.941119 
L 258.363788 196.402618 
L 256.387813 195.852643 
L 254.411837 195.29646 
L 252.435862 194.739878 
L 250.459886 194.189165 
L 248.48391 193.650936 
L 246.507935 193.132032 
L 244.531959 192.639383 
L 242.555983 192.179853 
L 240.580008 191.760093 
L 238.604032 191.386378 
L 236.628056 191.064456 
L 234.652081 190.799405 
L 232.676105 190.595501 
L 230.700129 190.456106 
L 228.724154 190.38358 
L 226.748178 190.379216 
z
" style="fill:#ff0000;fill-opacity:0.75;"/>
   </g>
   <g id="PolyCollection_4">
    <path clip-path="url(#pd1aab0e57b)" d="M 226.748729 139.063619 
L 226.748729 164.720267 
L 228.725718 164.721034 
L 230.702707 164.653682 
L 232.679697 164.519319 
L 234.656686 164.320108 
L 236.633675 164.05921 
L 238.610665 163.740698 
L 240.587654 163.369452 
L 242.564643 162.951037 
L 244.541633 162.491563 
L 246.518622 161.997536 
L 248.495611 161.475706 
L 250.472601 160.932919 
L 252.44959 160.375966 
L 254.426579 159.811449 
L 256.403569 159.245654 
L 258.380558 158.68445 
L 260.357547 158.133193 
L 262.334537 157.596658 
L 264.311526 157.078995 
L 266.288515 156.583693 
L 268.265505 156.113575 
L 270.242494 155.670804 
L 272.219483 155.256909 
L 274.196473 154.872818 
L 276.173462 154.518911 
L 278.150451 154.195073 
L 280.127441 153.900758 
L 282.10443 153.635051 
L 284.081419 153.396738 
L 286.058409 153.184367 
L 288.035398 152.996311 
L 290.012387 152.830823 
L 291.989377 152.686092 
L 293.966366 152.560283 
L 295.943355 152.45158 
L 297.920344 152.358215 
L 299.897334 152.278497 
L 301.874323 152.210831 
L 303.851312 152.153729 
L 305.828302 152.105825 
L 307.805291 152.065875 
L 309.78228 152.032757 
L 311.75927 152.005474 
L 313.736259 151.983147 
L 315.713248 151.965009 
L 317.690238 151.950398 
L 319.667227 151.938749 
L 321.644216 151.929586 
L 323.621206 151.922516 
L 325.598195 151.917217 
L 327.575184 151.913436 
L 329.552174 151.910979 
L 331.529163 151.909704 
L 333.506152 151.909523 
L 335.483142 151.910389 
L 337.460131 151.912298 
L 339.43712 151.915284 
L 341.41411 151.919419 
L 343.391099 151.924806 
L 345.368088 151.931584 
L 347.345078 151.939919 
L 349.322067 151.950007 
L 351.299056 151.962072 
L 353.276046 151.976361 
L 355.253035 151.99314 
L 357.230024 152.012694 
L 359.207014 152.03532 
L 361.184003 152.061321 
L 363.160992 152.090999 
L 365.137982 152.12465 
L 367.114971 152.162549 
L 369.09196 152.20495 
L 371.06895 152.252065 
L 373.045939 152.304061 
L 375.022928 152.361044 
L 376.999918 152.423053 
L 378.976907 152.490042 
L 380.953896 152.561879 
L 382.930886 152.638328 
L 384.907875 152.719053 
L 386.884864 152.803603 
L 388.861854 152.891419 
L 390.838843 152.98183 
L 392.815832 153.074058 
L 394.792822 153.167228 
L 396.769811 153.260378 
L 398.7468 153.352471 
L 400.72379 153.442419 
L 402.700779 153.529094 
L 404.677768 153.611361 
L 406.654758 153.688094 
L 408.631747 153.758206 
L 410.608736 153.820673 
L 412.585726 153.874559 
L 414.562715 153.919038 
L 416.539704 153.953417 
L 418.516693 153.977154 
L 420.493683 153.98987 
L 422.470672 153.99136 
L 422.470672 149.792526 
L 422.470672 149.792526 
L 420.493683 149.794016 
L 418.516693 149.806732 
L 416.539704 149.830469 
L 414.562715 149.864849 
L 412.585726 149.909328 
L 410.608736 149.963214 
L 408.631747 150.025681 
L 406.654758 150.095793 
L 404.677768 150.172526 
L 402.700779 150.254792 
L 400.72379 150.341468 
L 398.7468 150.431415 
L 396.769811 150.523509 
L 394.792822 150.616658 
L 392.815832 150.709828 
L 390.838843 150.802057 
L 388.861854 150.892467 
L 386.884864 150.980283 
L 384.907875 151.064834 
L 382.930886 151.145558 
L 380.953896 151.222008 
L 378.976907 151.293844 
L 376.999918 151.360834 
L 375.022928 151.422842 
L 373.045939 151.479826 
L 371.06895 151.531822 
L 369.09196 151.578937 
L 367.114971 151.621337 
L 365.137982 151.659237 
L 363.160992 151.692887 
L 361.184003 151.722565 
L 359.207014 151.748566 
L 357.230024 151.771192 
L 355.253035 151.790747 
L 353.276046 151.807526 
L 351.299056 151.821814 
L 349.322067 151.833879 
L 347.345078 151.843968 
L 345.368088 151.852303 
L 343.391099 151.85908 
L 341.41411 151.864468 
L 339.43712 151.868602 
L 337.460131 151.871589 
L 335.483142 151.873498 
L 333.506152 151.874363 
L 331.529163 151.874182 
L 329.552174 151.872908 
L 327.575184 151.87045 
L 325.598195 151.866669 
L 323.621206 151.86137 
L 321.644216 151.8543 
L 319.667227 151.845137 
L 317.690238 151.833488 
L 315.713248 151.818877 
L 313.736259 151.800739 
L 311.75927 151.778412 
L 309.78228 151.75113 
L 307.805291 151.718012 
L 305.828302 151.678061 
L 303.851312 151.630157 
L 301.874323 151.573056 
L 299.897334 151.505389 
L 297.920344 151.425672 
L 295.943355 151.332307 
L 293.966366 151.223603 
L 291.989377 151.097794 
L 290.012387 150.953063 
L 288.035398 150.787576 
L 286.058409 150.599519 
L 284.081419 150.387148 
L 282.10443 150.148835 
L 280.127441 149.883129 
L 278.150451 149.588813 
L 276.173462 149.264975 
L 274.196473 148.911068 
L 272.219483 148.526978 
L 270.242494 148.113082 
L 268.265505 147.670312 
L 266.288515 147.200194 
L 264.311526 146.704891 
L 262.334537 146.187228 
L 260.357547 145.650694 
L 258.380558 145.099436 
L 256.403569 144.538232 
L 254.426579 143.972438 
L 252.44959 143.40792 
L 250.472601 142.850967 
L 248.495611 142.30818 
L 246.518622 141.786351 
L 244.541633 141.292323 
L 242.564643 140.832849 
L 240.587654 140.414434 
L 238.610665 140.043189 
L 236.633675 139.724676 
L 234.656686 139.463778 
L 232.679697 139.264568 
L 230.702707 139.130205 
L 228.725718 139.062852 
L 226.748729 139.063619 
z
" style="fill:#ff0000;fill-opacity:0.75;"/>
   </g>
   <g id="PolyCollection_5">
    <path clip-path="url(#pd1aab0e57b)" d="M 227.180918 87.840971 
L 227.180918 113.310188 
L 229.234205 113.383529 
L 231.287491 113.40467 
L 233.340778 113.373374 
L 235.394064 113.290042 
L 237.447351 113.155714 
L 239.500637 112.972044 
L 241.553924 112.741266 
L 243.60721 112.466148 
L 245.660497 112.149943 
L 247.713784 111.796319 
L 249.76707 111.409292 
L 251.820357 110.993149 
L 253.873643 110.552374 
L 255.92693 110.091562 
L 257.980216 109.615349 
L 260.033503 109.128329 
L 262.08679 108.634989 
L 264.140076 108.13964 
L 266.193363 107.64636 
L 268.246649 107.158947 
L 270.299936 106.680874 
L 272.353222 106.215258 
L 274.406509 105.764839 
L 276.459796 105.331963 
L 278.513082 104.91858 
L 280.566369 104.526246 
L 282.619655 104.156134 
L 284.672942 103.809048 
L 286.726228 103.48545 
L 288.779515 103.185483 
L 290.832802 102.909002 
L 292.886088 102.655608 
L 294.939375 102.424681 
L 296.992661 102.215412 
L 299.045948 102.026843 
L 301.099234 101.857895 
L 303.152521 101.707399 
L 305.205808 101.57413 
L 307.259094 101.456832 
L 309.312381 101.354239 
L 311.365667 101.265101 
L 313.418954 101.188201 
L 315.47224 101.122372 
L 317.525527 101.066506 
L 319.578814 101.019572 
L 321.6321 100.980616 
L 323.685387 100.948776 
L 325.738673 100.923277 
L 327.79196 100.903442 
L 329.845246 100.888685 
L 331.898533 100.878517 
L 333.951819 100.872542 
L 336.005106 100.870454 
L 338.058393 100.872032 
L 340.111679 100.877139 
L 342.164966 100.885716 
L 344.218252 100.897773 
L 346.271539 100.913387 
L 348.324825 100.932691 
L 350.378112 100.95587 
L 352.431399 100.983149 
L 354.484685 101.014784 
L 356.537972 101.051056 
L 358.591258 101.092257 
L 360.644545 101.138681 
L 362.697831 101.190612 
L 364.751118 101.248311 
L 366.804405 101.31201 
L 368.857691 101.381894 
L 370.910978 101.458091 
L 372.964264 101.540663 
L 375.017551 101.629596 
L 377.070837 101.724786 
L 379.124124 101.826037 
L 381.177411 101.933048 
L 383.230697 102.045413 
L 385.283984 102.162615 
L 387.33727 102.284027 
L 389.390557 102.408911 
L 391.443843 102.536426 
L 393.49713 102.66563 
L 395.550417 102.795492 
L 397.603703 102.924905 
L 399.65699 103.052697 
L 401.710276 103.177649 
L 403.763563 103.298512 
L 405.816849 103.41403 
L 407.870136 103.522956 
L 409.923423 103.624079 
L 411.976709 103.71624 
L 414.029996 103.798358 
L 416.083282 103.869448 
L 418.136569 103.928638 
L 420.189855 103.975191 
L 422.243142 104.008517 
L 424.296428 104.028182 
L 426.349715 104.03392 
L 428.403002 104.025639 
L 430.456288 104.003419 
L 430.456288 97.14774 
L 430.456288 97.14774 
L 428.403002 97.12552 
L 426.349715 97.117239 
L 424.296428 97.122977 
L 422.243142 97.142642 
L 420.189855 97.175968 
L 418.136569 97.222521 
L 416.083282 97.281712 
L 414.029996 97.352801 
L 411.976709 97.434919 
L 409.923423 97.52708 
L 407.870136 97.628203 
L 405.816849 97.737129 
L 403.763563 97.852647 
L 401.710276 97.973511 
L 399.65699 98.098462 
L 397.603703 98.226254 
L 395.550417 98.355667 
L 393.49713 98.485529 
L 391.443843 98.614733 
L 389.390557 98.742248 
L 387.33727 98.867132 
L 385.283984 98.988544 
L 383.230697 99.105746 
L 381.177411 99.218111 
L 379.124124 99.325122 
L 377.070837 99.426373 
L 375.017551 99.521563 
L 372.964264 99.610496 
L 370.910978 99.693068 
L 368.857691 99.769265 
L 366.804405 99.839149 
L 364.751118 99.902848 
L 362.697831 99.960547 
L 360.644545 100.012478 
L 358.591258 100.058902 
L 356.537972 100.100103 
L 354.484685 100.136375 
L 352.431399 100.16801 
L 350.378112 100.195289 
L 348.324825 100.218468 
L 346.271539 100.237772 
L 344.218252 100.253386 
L 342.164966 100.265443 
L 340.111679 100.27402 
L 338.058393 100.279127 
L 336.005106 100.280705 
L 333.951819 100.278617 
L 331.898533 100.272642 
L 329.845246 100.262474 
L 327.79196 100.247718 
L 325.738673 100.227882 
L 323.685387 100.202383 
L 321.6321 100.170543 
L 319.578814 100.131588 
L 317.525527 100.084653 
L 315.47224 100.028787 
L 313.418954 99.962958 
L 311.365667 99.886058 
L 309.312381 99.79692 
L 307.259094 99.694327 
L 305.205808 99.577029 
L 303.152521 99.44376 
L 301.099234 99.293265 
L 299.045948 99.124316 
L 296.992661 98.935747 
L 294.939375 98.726478 
L 292.886088 98.495551 
L 290.832802 98.242157 
L 288.779515 97.965676 
L 286.726228 97.665709 
L 284.672942 97.342111 
L 282.619655 96.995025 
L 280.566369 96.624913 
L 278.513082 96.232579 
L 276.459796 95.819197 
L 274.406509 95.38632 
L 272.353222 94.935901 
L 270.299936 94.470285 
L 268.246649 93.992212 
L 266.193363 93.504799 
L 264.140076 93.011519 
L 262.08679 92.51617 
L 260.033503 92.02283 
L 257.980216 91.53581 
L 255.92693 91.059597 
L 253.873643 90.598785 
L 251.820357 90.15801 
L 249.76707 89.741867 
L 247.713784 89.35484 
L 245.660497 89.001216 
L 243.60721 88.685011 
L 241.553924 88.409894 
L 239.500637 88.179115 
L 237.447351 87.995445 
L 235.394064 87.861117 
L 233.340778 87.777785 
L 231.287491 87.746489 
L 229.234205 87.767631 
L 227.180918 87.840971 
z
" style="fill:#ff0000;fill-opacity:0.75;"/>
   </g>
   <g id="PolyCollection_6">
    <path clip-path="url(#pd1aab0e57b)" d="M 226.746875 36.430125 
L 226.746875 62.088307 
L 229.876286 62.079084 
L 233.005696 61.982585 
L 236.135107 61.800807 
L 239.264517 61.537456 
L 242.393928 61.197825 
L 245.523338 60.788616 
L 248.652749 60.317723 
L 251.782159 59.793978 
L 254.91157 59.226878 
L 258.040981 58.626303 
L 261.170391 58.002236 
L 264.299802 57.364493 
L 267.429212 56.722481 
L 270.558623 56.084986 
L 273.688033 55.459996 
L 276.817444 54.85457 
L 279.946855 54.274747 
L 283.076265 53.7255 
L 286.205676 53.21073 
L 289.335086 52.733301 
L 292.464497 52.295098 
L 295.593907 51.897124 
L 298.723318 51.539606 
L 301.852728 51.22212 
L 304.982139 50.943722 
L 308.11155 50.703078 
L 311.24096 50.498593 
L 314.370371 50.328528 
L 317.499781 50.191105 
L 320.629192 50.084598 
L 323.758602 50.007407 
L 326.888013 49.958111 
L 330.017424 49.935501 
L 333.146834 49.938601 
L 336.276245 49.966662 
L 339.405655 50.019145 
L 342.535066 50.095682 
L 345.664476 50.19603 
L 348.793887 50.320012 
L 351.923297 50.467441 
L 355.052708 50.638053 
L 358.182119 50.83142 
L 361.311529 51.046879 
L 364.44094 51.283455 
L 367.57035 51.539795 
L 370.699761 51.814115 
L 373.829171 52.104161 
L 376.958582 52.407184 
L 380.087992 52.71994 
L 383.217403 53.038713 
L 386.346814 53.359352 
L 389.476224 53.677343 
L 392.605635 53.987891 
L 395.735045 54.286029 
L 398.864456 54.56674 
L 401.993866 54.825088 
L 405.123277 55.056361 
L 408.252688 55.256206 
L 411.382098 55.420767 
L 414.511509 55.546806 
L 417.640919 55.631811 
L 420.77033 55.674075 
L 423.89974 55.672759 
L 427.029151 55.627918 
L 430.158561 55.5405 
L 433.287972 55.412316 
L 436.417383 55.245977 
L 439.546793 55.044812 
L 442.676204 54.812755 
L 445.805614 54.554227 
L 448.935025 54.27399 
L 452.064435 53.977013 
L 455.193846 53.668324 
L 458.323257 53.352876 
L 461.452667 53.035423 
L 464.582078 52.720404 
L 467.711488 52.411854 
L 470.840899 52.113331 
L 473.970309 51.827866 
L 477.09972 51.557931 
L 480.22913 51.305432 
L 483.358541 51.071717 
L 486.487952 50.857604 
L 489.617362 50.66342 
L 492.746773 50.489053 
L 495.876183 50.334007 
L 499.005594 50.197465 
L 502.135004 50.078356 
L 505.264415 49.975413 
L 508.393825 49.887236 
L 511.523236 49.812347 
L 514.652647 49.74924 
L 517.782057 49.69642 
L 520.911468 49.652446 
L 524.040878 49.615951 
L 527.170289 49.585671 
L 530.299699 49.560458 
L 533.42911 49.539288 
L 536.558521 49.521267 
L 536.558521 48.997165 
L 536.558521 48.997165 
L 533.42911 48.979143 
L 530.299699 48.957973 
L 527.170289 48.93276 
L 524.040878 48.902481 
L 520.911468 48.865986 
L 517.782057 48.822012 
L 514.652647 48.769192 
L 511.523236 48.706085 
L 508.393825 48.631196 
L 505.264415 48.543019 
L 502.135004 48.440076 
L 499.005594 48.320966 
L 495.876183 48.184425 
L 492.746773 48.029378 
L 489.617362 47.855012 
L 486.487952 47.660828 
L 483.358541 47.446715 
L 480.22913 47.213 
L 477.09972 46.9605 
L 473.970309 46.690565 
L 470.840899 46.405101 
L 467.711488 46.106578 
L 464.582078 45.798028 
L 461.452667 45.483009 
L 458.323257 45.165555 
L 455.193846 44.850108 
L 452.064435 44.541419 
L 448.935025 44.244442 
L 445.805614 43.964205 
L 442.676204 43.705676 
L 439.546793 43.47362 
L 436.417383 43.272455 
L 433.287972 43.106116 
L 430.158561 42.977931 
L 427.029151 42.890514 
L 423.89974 42.845673 
L 420.77033 42.844357 
L 417.640919 42.886621 
L 414.511509 42.971626 
L 411.382098 43.097665 
L 408.252688 43.262226 
L 405.123277 43.462071 
L 401.993866 43.693343 
L 398.864456 43.951692 
L 395.735045 44.232403 
L 392.605635 44.530541 
L 389.476224 44.841089 
L 386.346814 45.159079 
L 383.217403 45.479719 
L 380.087992 45.798491 
L 376.958582 46.111248 
L 373.829171 46.414271 
L 370.699761 46.704317 
L 367.57035 46.978637 
L 364.44094 47.234977 
L 361.311529 47.471553 
L 358.182119 47.687012 
L 355.052708 47.880379 
L 351.923297 48.050991 
L 348.793887 48.19842 
L 345.664476 48.322402 
L 342.535066 48.42275 
L 339.405655 48.499287 
L 336.276245 48.551769 
L 333.146834 48.579831 
L 330.017424 48.582931 
L 326.888013 48.560321 
L 323.758602 48.511024 
L 320.629192 48.433834 
L 317.499781 48.327327 
L 314.370371 48.189904 
L 311.24096 48.019839 
L 308.11155 47.815354 
L 304.982139 47.57471 
L 301.852728 47.296312 
L 298.723318 46.978826 
L 295.593907 46.621308 
L 292.464497 46.223333 
L 289.335086 45.785131 
L 286.205676 45.307701 
L 283.076265 44.792932 
L 279.946855 44.243685 
L 276.817444 43.663862 
L 273.688033 43.058436 
L 270.558623 42.433446 
L 267.429212 41.795951 
L 264.299802 41.153939 
L 261.170391 40.516195 
L 258.040981 39.892128 
L 254.91157 39.291554 
L 251.782159 38.724454 
L 248.652749 38.200709 
L 245.523338 37.729816 
L 242.393928 37.320607 
L 239.264517 36.980976 
L 236.135107 36.717625 
L 233.005696 36.535847 
L 229.876286 36.439348 
L 226.746875 36.430125 
z
" style="fill:#ff0000;fill-opacity:0.75;"/>
   </g>
   <g id="LineCollection_1">
    <path clip-path="url(#pd1aab0e57b)" d="M 261.946898 312.25558 
L 261.946898 299.426489 
" style="fill:none;stroke:#000000;stroke-width:1.5;"/>
    <path clip-path="url(#pd1aab0e57b)" d="M 261.946898 260.939216 
L 261.946898 248.110125 
" style="fill:none;stroke:#000000;stroke-width:1.5;"/>
    <path clip-path="url(#pd1aab0e57b)" d="M 256.944581 209.622852 
L 256.944581 196.793761 
" style="fill:none;stroke:#000000;stroke-width:1.5;"/>
    <path clip-path="url(#pd1aab0e57b)" d="M 255.015749 158.306489 
L 255.015749 145.477398 
" style="fill:none;stroke:#000000;stroke-width:1.5;"/>
    <path clip-path="url(#pd1aab0e57b)" d="M 273.202758 106.990125 
L 273.202758 94.161034 
" style="fill:none;stroke:#000000;stroke-width:1.5;"/>
    <path clip-path="url(#pd1aab0e57b)" d="M 295.208159 55.673761 
L 295.208159 42.84467 
" style="fill:none;stroke:#000000;stroke-width:1.5;"/>
   </g>
   <g id="patch_3">
    <path d="M 226.746875 332.782125 
L 226.746875 22.318125 
" style="fill:none;stroke:#000000;stroke-linecap:square;stroke-linejoin:miter;stroke-width:0.8;"/>
   </g>
   <g id="patch_4">
    <path d="M 617.346875 332.782125 
L 617.346875 22.318125 
" style="fill:none;stroke:#000000;stroke-linecap:square;stroke-linejoin:miter;stroke-width:0.8;"/>
   </g>
   <g id="patch_5">
    <path d="M 226.746875 332.782125 
L 617.346875 332.782125 
" style="fill:none;stroke:#000000;stroke-linecap:square;stroke-linejoin:miter;stroke-width:0.8;"/>
   </g>
   <g id="patch_6">
    <path d="M 226.746875 22.318125 
L 617.346875 22.318125 
" style="fill:none;stroke:#000000;stroke-linecap:square;stroke-linejoin:miter;stroke-width:0.8;"/>
   </g>
   <g id="text_18">
    <!-- AOE1 for 0.1 -->
    <g transform="translate(384.005938 16.318125)scale(0.12 -0.12)">
     <use xlink:href="#DejaVuSans-41"/>
     <use x="68.392578" xlink:href="#DejaVuSans-4f"/>
     <use x="147.103516" xlink:href="#DejaVuSans-45"/>
     <use x="210.287109" xlink:href="#DejaVuSans-31"/>
     <use x="273.910156" xlink:href="#DejaVuSans-20"/>
     <use x="305.697266" xlink:href="#DejaVuSans-66"/>
     <use x="340.902344" xlink:href="#DejaVuSans-6f"/>
     <use x="402.083984" xlink:href="#DejaVuSans-72"/>
     <use x="443.197266" xlink:href="#DejaVuSans-20"/>
     <use x="474.984375" xlink:href="#DejaVuSans-30"/>
     <use x="538.607422" xlink:href="#DejaVuSans-2e"/>
     <use x="570.394531" xlink:href="#DejaVuSans-31"/>
    </g>
   </g>
  </g>
 </g>
 <defs>
  <clipPath id="pd1aab0e57b">
   <rect height="310.464" width="390.6" x="226.746875" y="22.318125"/>
  </clipPath>
 </defs>
</svg>
