<?xml version="1.0" encoding="utf-8" standalone="no"?>
<!DOCTYPE svg PUBLIC "-//W3C//DTD SVG 1.1//EN"
  "http://www.w3.org/Graphics/SVG/1.1/DTD/svg11.dtd">
<!-- Created with matplotlib (http://matplotlib.org/) -->
<svg height="381.426375pt" version="1.1" viewBox="0 0 632.498437 381.426375" width="632.498437pt" xmlns="http://www.w3.org/2000/svg" xmlns:xlink="http://www.w3.org/1999/xlink">
 <defs>
  <style type="text/css">
*{stroke-linecap:butt;stroke-linejoin:round;}
  </style>
 </defs>
 <g id="figure_1">
  <g id="patch_1">
   <path d="M -0 381.426375 
L 632.498438 381.426375 
L 632.498438 0 
L -0 0 
z
" style="fill:#ffffff;"/>
  </g>
  <g id="axes_1">
   <g id="patch_2">
    <path d="M 226.746875 343.870125 
L 617.346875 343.870125 
L 617.346875 22.318125 
L 226.746875 22.318125 
z
" style="fill:#ffffff;"/>
   </g>
   <g id="matplotlib.axis_1">
    <g id="xtick_1">
     <g id="line2d_1">
      <path clip-path="url(#p280ded6d5b)" d="M 226.746875 343.870125 
L 226.746875 22.318125 
" style="fill:none;stroke:#b0b0b0;stroke-linecap:square;stroke-width:0.8;"/>
     </g>
     <g id="line2d_2">
      <defs>
       <path d="M 0 0 
L 0 3.5 
" id="m61bfdea7a9" style="stroke:#000000;stroke-width:0.8;"/>
      </defs>
      <g>
       <use style="stroke:#000000;stroke-width:0.8;" x="226.746875" xlink:href="#m61bfdea7a9" y="343.870125"/>
      </g>
     </g>
     <g id="text_1">
      <!-- 0.0 -->
      <defs>
       <path d="M 31.78125 66.40625 
Q 24.171875 66.40625 20.328125 58.90625 
Q 16.5 51.421875 16.5 36.375 
Q 16.5 21.390625 20.328125 13.890625 
Q 24.171875 6.390625 31.78125 6.390625 
Q 39.453125 6.390625 43.28125 13.890625 
Q 47.125 21.390625 47.125 36.375 
Q 47.125 51.421875 43.28125 58.90625 
Q 39.453125 66.40625 31.78125 66.40625 
z
M 31.78125 74.21875 
Q 44.046875 74.21875 50.515625 64.515625 
Q 56.984375 54.828125 56.984375 36.375 
Q 56.984375 17.96875 50.515625 8.265625 
Q 44.046875 -1.421875 31.78125 -1.421875 
Q 19.53125 -1.421875 13.0625 8.265625 
Q 6.59375 17.96875 6.59375 36.375 
Q 6.59375 54.828125 13.0625 64.515625 
Q 19.53125 74.21875 31.78125 74.21875 
z
" id="DejaVuSans-30"/>
       <path d="M 10.6875 12.40625 
L 21 12.40625 
L 21 0 
L 10.6875 0 
z
" id="DejaVuSans-2e"/>
      </defs>
      <g transform="translate(218.795312 358.468563)scale(0.1 -0.1)">
       <use xlink:href="#DejaVuSans-30"/>
       <use x="63.623047" xlink:href="#DejaVuSans-2e"/>
       <use x="95.410156" xlink:href="#DejaVuSans-30"/>
      </g>
     </g>
    </g>
    <g id="xtick_2">
     <g id="line2d_3">
      <path clip-path="url(#p280ded6d5b)" d="M 304.866875 343.870125 
L 304.866875 22.318125 
" style="fill:none;stroke:#b0b0b0;stroke-linecap:square;stroke-width:0.8;"/>
     </g>
     <g id="line2d_4">
      <g>
       <use style="stroke:#000000;stroke-width:0.8;" x="304.866875" xlink:href="#m61bfdea7a9" y="343.870125"/>
      </g>
     </g>
     <g id="text_2">
      <!-- 0.1 -->
      <defs>
       <path d="M 12.40625 8.296875 
L 28.515625 8.296875 
L 28.515625 63.921875 
L 10.984375 60.40625 
L 10.984375 69.390625 
L 28.421875 72.90625 
L 38.28125 72.90625 
L 38.28125 8.296875 
L 54.390625 8.296875 
L 54.390625 0 
L 12.40625 0 
z
" id="DejaVuSans-31"/>
      </defs>
      <g transform="translate(296.915312 358.468563)scale(0.1 -0.1)">
       <use xlink:href="#DejaVuSans-30"/>
       <use x="63.623047" xlink:href="#DejaVuSans-2e"/>
       <use x="95.410156" xlink:href="#DejaVuSans-31"/>
      </g>
     </g>
    </g>
    <g id="xtick_3">
     <g id="line2d_5">
      <path clip-path="url(#p280ded6d5b)" d="M 382.986875 343.870125 
L 382.986875 22.318125 
" style="fill:none;stroke:#b0b0b0;stroke-linecap:square;stroke-width:0.8;"/>
     </g>
     <g id="line2d_6">
      <g>
       <use style="stroke:#000000;stroke-width:0.8;" x="382.986875" xlink:href="#m61bfdea7a9" y="343.870125"/>
      </g>
     </g>
     <g id="text_3">
      <!-- 0.2 -->
      <defs>
       <path d="M 19.1875 8.296875 
L 53.609375 8.296875 
L 53.609375 0 
L 7.328125 0 
L 7.328125 8.296875 
Q 12.9375 14.109375 22.625 23.890625 
Q 32.328125 33.6875 34.8125 36.53125 
Q 39.546875 41.84375 41.421875 45.53125 
Q 43.3125 49.21875 43.3125 52.78125 
Q 43.3125 58.59375 39.234375 62.25 
Q 35.15625 65.921875 28.609375 65.921875 
Q 23.96875 65.921875 18.8125 64.3125 
Q 13.671875 62.703125 7.8125 59.421875 
L 7.8125 69.390625 
Q 13.765625 71.78125 18.9375 73 
Q 24.125 74.21875 28.421875 74.21875 
Q 39.75 74.21875 46.484375 68.546875 
Q 53.21875 62.890625 53.21875 53.421875 
Q 53.21875 48.921875 51.53125 44.890625 
Q 49.859375 40.875 45.40625 35.40625 
Q 44.1875 33.984375 37.640625 27.21875 
Q 31.109375 20.453125 19.1875 8.296875 
z
" id="DejaVuSans-32"/>
      </defs>
      <g transform="translate(375.035313 358.468563)scale(0.1 -0.1)">
       <use xlink:href="#DejaVuSans-30"/>
       <use x="63.623047" xlink:href="#DejaVuSans-2e"/>
       <use x="95.410156" xlink:href="#DejaVuSans-32"/>
      </g>
     </g>
    </g>
    <g id="xtick_4">
     <g id="line2d_7">
      <path clip-path="url(#p280ded6d5b)" d="M 461.106875 343.870125 
L 461.106875 22.318125 
" style="fill:none;stroke:#b0b0b0;stroke-linecap:square;stroke-width:0.8;"/>
     </g>
     <g id="line2d_8">
      <g>
       <use style="stroke:#000000;stroke-width:0.8;" x="461.106875" xlink:href="#m61bfdea7a9" y="343.870125"/>
      </g>
     </g>
     <g id="text_4">
      <!-- 0.3 -->
      <defs>
       <path d="M 40.578125 39.3125 
Q 47.65625 37.796875 51.625 33 
Q 55.609375 28.21875 55.609375 21.1875 
Q 55.609375 10.40625 48.1875 4.484375 
Q 40.765625 -1.421875 27.09375 -1.421875 
Q 22.515625 -1.421875 17.65625 -0.515625 
Q 12.796875 0.390625 7.625 2.203125 
L 7.625 11.71875 
Q 11.71875 9.328125 16.59375 8.109375 
Q 21.484375 6.890625 26.8125 6.890625 
Q 36.078125 6.890625 40.9375 10.546875 
Q 45.796875 14.203125 45.796875 21.1875 
Q 45.796875 27.640625 41.28125 31.265625 
Q 36.765625 34.90625 28.71875 34.90625 
L 20.21875 34.90625 
L 20.21875 43.015625 
L 29.109375 43.015625 
Q 36.375 43.015625 40.234375 45.921875 
Q 44.09375 48.828125 44.09375 54.296875 
Q 44.09375 59.90625 40.109375 62.90625 
Q 36.140625 65.921875 28.71875 65.921875 
Q 24.65625 65.921875 20.015625 65.03125 
Q 15.375 64.15625 9.8125 62.3125 
L 9.8125 71.09375 
Q 15.4375 72.65625 20.34375 73.4375 
Q 25.25 74.21875 29.59375 74.21875 
Q 40.828125 74.21875 47.359375 69.109375 
Q 53.90625 64.015625 53.90625 55.328125 
Q 53.90625 49.265625 50.4375 45.09375 
Q 46.96875 40.921875 40.578125 39.3125 
z
" id="DejaVuSans-33"/>
      </defs>
      <g transform="translate(453.155313 358.468563)scale(0.1 -0.1)">
       <use xlink:href="#DejaVuSans-30"/>
       <use x="63.623047" xlink:href="#DejaVuSans-2e"/>
       <use x="95.410156" xlink:href="#DejaVuSans-33"/>
      </g>
     </g>
    </g>
    <g id="xtick_5">
     <g id="line2d_9">
      <path clip-path="url(#p280ded6d5b)" d="M 539.226875 343.870125 
L 539.226875 22.318125 
" style="fill:none;stroke:#b0b0b0;stroke-linecap:square;stroke-width:0.8;"/>
     </g>
     <g id="line2d_10">
      <g>
       <use style="stroke:#000000;stroke-width:0.8;" x="539.226875" xlink:href="#m61bfdea7a9" y="343.870125"/>
      </g>
     </g>
     <g id="text_5">
      <!-- 0.4 -->
      <defs>
       <path d="M 37.796875 64.3125 
L 12.890625 25.390625 
L 37.796875 25.390625 
z
M 35.203125 72.90625 
L 47.609375 72.90625 
L 47.609375 25.390625 
L 58.015625 25.390625 
L 58.015625 17.1875 
L 47.609375 17.1875 
L 47.609375 0 
L 37.796875 0 
L 37.796875 17.1875 
L 4.890625 17.1875 
L 4.890625 26.703125 
z
" id="DejaVuSans-34"/>
      </defs>
      <g transform="translate(531.275313 358.468563)scale(0.1 -0.1)">
       <use xlink:href="#DejaVuSans-30"/>
       <use x="63.623047" xlink:href="#DejaVuSans-2e"/>
       <use x="95.410156" xlink:href="#DejaVuSans-34"/>
      </g>
     </g>
    </g>
    <g id="xtick_6">
     <g id="line2d_11">
      <path clip-path="url(#p280ded6d5b)" d="M 617.346875 343.870125 
L 617.346875 22.318125 
" style="fill:none;stroke:#b0b0b0;stroke-linecap:square;stroke-width:0.8;"/>
     </g>
     <g id="line2d_12">
      <g>
       <use style="stroke:#000000;stroke-width:0.8;" x="617.346875" xlink:href="#m61bfdea7a9" y="343.870125"/>
      </g>
     </g>
     <g id="text_6">
      <!-- 0.5 -->
      <defs>
       <path d="M 10.796875 72.90625 
L 49.515625 72.90625 
L 49.515625 64.59375 
L 19.828125 64.59375 
L 19.828125 46.734375 
Q 21.96875 47.46875 24.109375 47.828125 
Q 26.265625 48.1875 28.421875 48.1875 
Q 40.625 48.1875 47.75 41.5 
Q 54.890625 34.8125 54.890625 23.390625 
Q 54.890625 11.625 47.5625 5.09375 
Q 40.234375 -1.421875 26.90625 -1.421875 
Q 22.3125 -1.421875 17.546875 -0.640625 
Q 12.796875 0.140625 7.71875 1.703125 
L 7.71875 11.625 
Q 12.109375 9.234375 16.796875 8.0625 
Q 21.484375 6.890625 26.703125 6.890625 
Q 35.15625 6.890625 40.078125 11.328125 
Q 45.015625 15.765625 45.015625 23.390625 
Q 45.015625 31 40.078125 35.4375 
Q 35.15625 39.890625 26.703125 39.890625 
Q 22.75 39.890625 18.8125 39.015625 
Q 14.890625 38.140625 10.796875 36.28125 
z
" id="DejaVuSans-35"/>
      </defs>
      <g transform="translate(609.395313 358.468563)scale(0.1 -0.1)">
       <use xlink:href="#DejaVuSans-30"/>
       <use x="63.623047" xlink:href="#DejaVuSans-2e"/>
       <use x="95.410156" xlink:href="#DejaVuSans-35"/>
      </g>
     </g>
    </g>
    <g id="text_7">
     <!-- AOE2 (TO) -->
     <defs>
      <path d="M 34.1875 63.1875 
L 20.796875 26.90625 
L 47.609375 26.90625 
z
M 28.609375 72.90625 
L 39.796875 72.90625 
L 67.578125 0 
L 57.328125 0 
L 50.6875 18.703125 
L 17.828125 18.703125 
L 11.1875 0 
L 0.78125 0 
z
" id="DejaVuSans-41"/>
      <path d="M 39.40625 66.21875 
Q 28.65625 66.21875 22.328125 58.203125 
Q 16.015625 50.203125 16.015625 36.375 
Q 16.015625 22.609375 22.328125 14.59375 
Q 28.65625 6.59375 39.40625 6.59375 
Q 50.140625 6.59375 56.421875 14.59375 
Q 62.703125 22.609375 62.703125 36.375 
Q 62.703125 50.203125 56.421875 58.203125 
Q 50.140625 66.21875 39.40625 66.21875 
z
M 39.40625 74.21875 
Q 54.734375 74.21875 63.90625 63.9375 
Q 73.09375 53.65625 73.09375 36.375 
Q 73.09375 19.140625 63.90625 8.859375 
Q 54.734375 -1.421875 39.40625 -1.421875 
Q 24.03125 -1.421875 14.8125 8.828125 
Q 5.609375 19.09375 5.609375 36.375 
Q 5.609375 53.65625 14.8125 63.9375 
Q 24.03125 74.21875 39.40625 74.21875 
z
" id="DejaVuSans-4f"/>
      <path d="M 9.8125 72.90625 
L 55.90625 72.90625 
L 55.90625 64.59375 
L 19.671875 64.59375 
L 19.671875 43.015625 
L 54.390625 43.015625 
L 54.390625 34.71875 
L 19.671875 34.71875 
L 19.671875 8.296875 
L 56.78125 8.296875 
L 56.78125 0 
L 9.8125 0 
z
" id="DejaVuSans-45"/>
      <path id="DejaVuSans-20"/>
      <path d="M 31 75.875 
Q 24.46875 64.65625 21.28125 53.65625 
Q 18.109375 42.671875 18.109375 31.390625 
Q 18.109375 20.125 21.3125 9.0625 
Q 24.515625 -2 31 -13.1875 
L 23.1875 -13.1875 
Q 15.875 -1.703125 12.234375 9.375 
Q 8.59375 20.453125 8.59375 31.390625 
Q 8.59375 42.28125 12.203125 53.3125 
Q 15.828125 64.359375 23.1875 75.875 
z
" id="DejaVuSans-28"/>
      <path d="M -0.296875 72.90625 
L 61.375 72.90625 
L 61.375 64.59375 
L 35.5 64.59375 
L 35.5 0 
L 25.59375 0 
L 25.59375 64.59375 
L -0.296875 64.59375 
z
" id="DejaVuSans-54"/>
      <path d="M 8.015625 75.875 
L 15.828125 75.875 
Q 23.140625 64.359375 26.78125 53.3125 
Q 30.421875 42.28125 30.421875 31.390625 
Q 30.421875 20.453125 26.78125 9.375 
Q 23.140625 -1.703125 15.828125 -13.1875 
L 8.015625 -13.1875 
Q 14.5 -2 17.703125 9.0625 
Q 20.90625 20.125 20.90625 31.390625 
Q 20.90625 42.671875 17.703125 53.65625 
Q 14.5 64.65625 8.015625 75.875 
z
" id="DejaVuSans-29"/>
     </defs>
     <g transform="translate(395.870313 372.146687)scale(0.1 -0.1)">
      <use xlink:href="#DejaVuSans-41"/>
      <use x="68.392578" xlink:href="#DejaVuSans-4f"/>
      <use x="147.103516" xlink:href="#DejaVuSans-45"/>
      <use x="210.287109" xlink:href="#DejaVuSans-32"/>
      <use x="273.910156" xlink:href="#DejaVuSans-20"/>
      <use x="305.697266" xlink:href="#DejaVuSans-28"/>
      <use x="344.710938" xlink:href="#DejaVuSans-54"/>
      <use x="405.794922" xlink:href="#DejaVuSans-4f"/>
      <use x="484.505859" xlink:href="#DejaVuSans-29"/>
     </g>
    </g>
   </g>
   <g id="matplotlib.axis_2">
    <g id="ytick_1">
     <g id="line2d_13">
      <path clip-path="url(#p280ded6d5b)" d="M 226.746875 320.656478 
L 617.346875 320.656478 
" style="fill:none;stroke:#b0b0b0;stroke-linecap:square;stroke-width:0.8;"/>
     </g>
     <g id="line2d_14">
      <defs>
       <path d="M 0 0 
L -3.5 0 
" id="m94466a1bae" style="stroke:#000000;stroke-width:0.8;"/>
      </defs>
      <g>
       <use style="stroke:#000000;stroke-width:0.8;" x="226.746875" xlink:href="#m94466a1bae" y="320.656478"/>
      </g>
     </g>
     <g id="text_8">
      <!-- schreiber2018/ismir2018 -->
      <defs>
       <path d="M 44.28125 53.078125 
L 44.28125 44.578125 
Q 40.484375 46.53125 36.375 47.5 
Q 32.28125 48.484375 27.875 48.484375 
Q 21.1875 48.484375 17.84375 46.4375 
Q 14.5 44.390625 14.5 40.28125 
Q 14.5 37.15625 16.890625 35.375 
Q 19.28125 33.59375 26.515625 31.984375 
L 29.59375 31.296875 
Q 39.15625 29.25 43.1875 25.515625 
Q 47.21875 21.78125 47.21875 15.09375 
Q 47.21875 7.46875 41.1875 3.015625 
Q 35.15625 -1.421875 24.609375 -1.421875 
Q 20.21875 -1.421875 15.453125 -0.5625 
Q 10.6875 0.296875 5.421875 2 
L 5.421875 11.28125 
Q 10.40625 8.6875 15.234375 7.390625 
Q 20.0625 6.109375 24.8125 6.109375 
Q 31.15625 6.109375 34.5625 8.28125 
Q 37.984375 10.453125 37.984375 14.40625 
Q 37.984375 18.0625 35.515625 20.015625 
Q 33.0625 21.96875 24.703125 23.78125 
L 21.578125 24.515625 
Q 13.234375 26.265625 9.515625 29.90625 
Q 5.8125 33.546875 5.8125 39.890625 
Q 5.8125 47.609375 11.28125 51.796875 
Q 16.75 56 26.8125 56 
Q 31.78125 56 36.171875 55.265625 
Q 40.578125 54.546875 44.28125 53.078125 
z
" id="DejaVuSans-73"/>
       <path d="M 48.78125 52.59375 
L 48.78125 44.1875 
Q 44.96875 46.296875 41.140625 47.34375 
Q 37.3125 48.390625 33.40625 48.390625 
Q 24.65625 48.390625 19.8125 42.84375 
Q 14.984375 37.3125 14.984375 27.296875 
Q 14.984375 17.28125 19.8125 11.734375 
Q 24.65625 6.203125 33.40625 6.203125 
Q 37.3125 6.203125 41.140625 7.25 
Q 44.96875 8.296875 48.78125 10.40625 
L 48.78125 2.09375 
Q 45.015625 0.34375 40.984375 -0.53125 
Q 36.96875 -1.421875 32.421875 -1.421875 
Q 20.0625 -1.421875 12.78125 6.34375 
Q 5.515625 14.109375 5.515625 27.296875 
Q 5.515625 40.671875 12.859375 48.328125 
Q 20.21875 56 33.015625 56 
Q 37.15625 56 41.109375 55.140625 
Q 45.0625 54.296875 48.78125 52.59375 
z
" id="DejaVuSans-63"/>
       <path d="M 54.890625 33.015625 
L 54.890625 0 
L 45.90625 0 
L 45.90625 32.71875 
Q 45.90625 40.484375 42.875 44.328125 
Q 39.84375 48.1875 33.796875 48.1875 
Q 26.515625 48.1875 22.3125 43.546875 
Q 18.109375 38.921875 18.109375 30.90625 
L 18.109375 0 
L 9.078125 0 
L 9.078125 75.984375 
L 18.109375 75.984375 
L 18.109375 46.1875 
Q 21.34375 51.125 25.703125 53.5625 
Q 30.078125 56 35.796875 56 
Q 45.21875 56 50.046875 50.171875 
Q 54.890625 44.34375 54.890625 33.015625 
z
" id="DejaVuSans-68"/>
       <path d="M 41.109375 46.296875 
Q 39.59375 47.171875 37.8125 47.578125 
Q 36.03125 48 33.890625 48 
Q 26.265625 48 22.1875 43.046875 
Q 18.109375 38.09375 18.109375 28.8125 
L 18.109375 0 
L 9.078125 0 
L 9.078125 54.6875 
L 18.109375 54.6875 
L 18.109375 46.1875 
Q 20.953125 51.171875 25.484375 53.578125 
Q 30.03125 56 36.53125 56 
Q 37.453125 56 38.578125 55.875 
Q 39.703125 55.765625 41.0625 55.515625 
z
" id="DejaVuSans-72"/>
       <path d="M 56.203125 29.59375 
L 56.203125 25.203125 
L 14.890625 25.203125 
Q 15.484375 15.921875 20.484375 11.0625 
Q 25.484375 6.203125 34.421875 6.203125 
Q 39.59375 6.203125 44.453125 7.46875 
Q 49.3125 8.734375 54.109375 11.28125 
L 54.109375 2.78125 
Q 49.265625 0.734375 44.1875 -0.34375 
Q 39.109375 -1.421875 33.890625 -1.421875 
Q 20.796875 -1.421875 13.15625 6.1875 
Q 5.515625 13.8125 5.515625 26.8125 
Q 5.515625 40.234375 12.765625 48.109375 
Q 20.015625 56 32.328125 56 
Q 43.359375 56 49.78125 48.890625 
Q 56.203125 41.796875 56.203125 29.59375 
z
M 47.21875 32.234375 
Q 47.125 39.59375 43.09375 43.984375 
Q 39.0625 48.390625 32.421875 48.390625 
Q 24.90625 48.390625 20.390625 44.140625 
Q 15.875 39.890625 15.1875 32.171875 
z
" id="DejaVuSans-65"/>
       <path d="M 9.421875 54.6875 
L 18.40625 54.6875 
L 18.40625 0 
L 9.421875 0 
z
M 9.421875 75.984375 
L 18.40625 75.984375 
L 18.40625 64.59375 
L 9.421875 64.59375 
z
" id="DejaVuSans-69"/>
       <path d="M 48.6875 27.296875 
Q 48.6875 37.203125 44.609375 42.84375 
Q 40.53125 48.484375 33.40625 48.484375 
Q 26.265625 48.484375 22.1875 42.84375 
Q 18.109375 37.203125 18.109375 27.296875 
Q 18.109375 17.390625 22.1875 11.75 
Q 26.265625 6.109375 33.40625 6.109375 
Q 40.53125 6.109375 44.609375 11.75 
Q 48.6875 17.390625 48.6875 27.296875 
z
M 18.109375 46.390625 
Q 20.953125 51.265625 25.265625 53.625 
Q 29.59375 56 35.59375 56 
Q 45.5625 56 51.78125 48.09375 
Q 58.015625 40.1875 58.015625 27.296875 
Q 58.015625 14.40625 51.78125 6.484375 
Q 45.5625 -1.421875 35.59375 -1.421875 
Q 29.59375 -1.421875 25.265625 0.953125 
Q 20.953125 3.328125 18.109375 8.203125 
L 18.109375 0 
L 9.078125 0 
L 9.078125 75.984375 
L 18.109375 75.984375 
z
" id="DejaVuSans-62"/>
       <path d="M 31.78125 34.625 
Q 24.75 34.625 20.71875 30.859375 
Q 16.703125 27.09375 16.703125 20.515625 
Q 16.703125 13.921875 20.71875 10.15625 
Q 24.75 6.390625 31.78125 6.390625 
Q 38.8125 6.390625 42.859375 10.171875 
Q 46.921875 13.96875 46.921875 20.515625 
Q 46.921875 27.09375 42.890625 30.859375 
Q 38.875 34.625 31.78125 34.625 
z
M 21.921875 38.8125 
Q 15.578125 40.375 12.03125 44.71875 
Q 8.5 49.078125 8.5 55.328125 
Q 8.5 64.0625 14.71875 69.140625 
Q 20.953125 74.21875 31.78125 74.21875 
Q 42.671875 74.21875 48.875 69.140625 
Q 55.078125 64.0625 55.078125 55.328125 
Q 55.078125 49.078125 51.53125 44.71875 
Q 48 40.375 41.703125 38.8125 
Q 48.828125 37.15625 52.796875 32.3125 
Q 56.78125 27.484375 56.78125 20.515625 
Q 56.78125 9.90625 50.3125 4.234375 
Q 43.84375 -1.421875 31.78125 -1.421875 
Q 19.734375 -1.421875 13.25 4.234375 
Q 6.78125 9.90625 6.78125 20.515625 
Q 6.78125 27.484375 10.78125 32.3125 
Q 14.796875 37.15625 21.921875 38.8125 
z
M 18.3125 54.390625 
Q 18.3125 48.734375 21.84375 45.5625 
Q 25.390625 42.390625 31.78125 42.390625 
Q 38.140625 42.390625 41.71875 45.5625 
Q 45.3125 48.734375 45.3125 54.390625 
Q 45.3125 60.0625 41.71875 63.234375 
Q 38.140625 66.40625 31.78125 66.40625 
Q 25.390625 66.40625 21.84375 63.234375 
Q 18.3125 60.0625 18.3125 54.390625 
z
" id="DejaVuSans-38"/>
       <path d="M 25.390625 72.90625 
L 33.6875 72.90625 
L 8.296875 -9.28125 
L 0 -9.28125 
z
" id="DejaVuSans-2f"/>
       <path d="M 52 44.1875 
Q 55.375 50.25 60.0625 53.125 
Q 64.75 56 71.09375 56 
Q 79.640625 56 84.28125 50.015625 
Q 88.921875 44.046875 88.921875 33.015625 
L 88.921875 0 
L 79.890625 0 
L 79.890625 32.71875 
Q 79.890625 40.578125 77.09375 44.375 
Q 74.3125 48.1875 68.609375 48.1875 
Q 61.625 48.1875 57.5625 43.546875 
Q 53.515625 38.921875 53.515625 30.90625 
L 53.515625 0 
L 44.484375 0 
L 44.484375 32.71875 
Q 44.484375 40.625 41.703125 44.40625 
Q 38.921875 48.1875 33.109375 48.1875 
Q 26.21875 48.1875 22.15625 43.53125 
Q 18.109375 38.875 18.109375 30.90625 
L 18.109375 0 
L 9.078125 0 
L 9.078125 54.6875 
L 18.109375 54.6875 
L 18.109375 46.1875 
Q 21.1875 51.21875 25.484375 53.609375 
Q 29.78125 56 35.6875 56 
Q 41.65625 56 45.828125 52.96875 
Q 50 49.953125 52 44.1875 
z
" id="DejaVuSans-6d"/>
      </defs>
      <g transform="translate(94.164062 324.455697)scale(0.1 -0.1)">
       <use xlink:href="#DejaVuSans-73"/>
       <use x="52.099609" xlink:href="#DejaVuSans-63"/>
       <use x="107.080078" xlink:href="#DejaVuSans-68"/>
       <use x="170.458984" xlink:href="#DejaVuSans-72"/>
       <use x="211.541016" xlink:href="#DejaVuSans-65"/>
       <use x="273.064453" xlink:href="#DejaVuSans-69"/>
       <use x="300.847656" xlink:href="#DejaVuSans-62"/>
       <use x="364.324219" xlink:href="#DejaVuSans-65"/>
       <use x="425.847656" xlink:href="#DejaVuSans-72"/>
       <use x="466.960938" xlink:href="#DejaVuSans-32"/>
       <use x="530.583984" xlink:href="#DejaVuSans-30"/>
       <use x="594.207031" xlink:href="#DejaVuSans-31"/>
       <use x="657.830078" xlink:href="#DejaVuSans-38"/>
       <use x="721.453125" xlink:href="#DejaVuSans-2f"/>
       <use x="755.144531" xlink:href="#DejaVuSans-69"/>
       <use x="782.927734" xlink:href="#DejaVuSans-73"/>
       <use x="835.027344" xlink:href="#DejaVuSans-6d"/>
       <use x="932.439453" xlink:href="#DejaVuSans-69"/>
       <use x="960.222656" xlink:href="#DejaVuSans-72"/>
       <use x="1001.335938" xlink:href="#DejaVuSans-32"/>
       <use x="1064.958984" xlink:href="#DejaVuSans-30"/>
       <use x="1128.582031" xlink:href="#DejaVuSans-31"/>
       <use x="1192.205078" xlink:href="#DejaVuSans-38"/>
      </g>
     </g>
    </g>
    <g id="ytick_2">
     <g id="line2d_15">
      <path clip-path="url(#p280ded6d5b)" d="M 226.746875 286.26589 
L 617.346875 286.26589 
" style="fill:none;stroke:#b0b0b0;stroke-linecap:square;stroke-width:0.8;"/>
     </g>
     <g id="line2d_16">
      <g>
       <use style="stroke:#000000;stroke-width:0.8;" x="226.746875" xlink:href="#m94466a1bae" y="286.26589"/>
      </g>
     </g>
     <g id="text_9">
      <!-- schreiber2018/fcn -->
      <defs>
       <path d="M 37.109375 75.984375 
L 37.109375 68.5 
L 28.515625 68.5 
Q 23.6875 68.5 21.796875 66.546875 
Q 19.921875 64.59375 19.921875 59.515625 
L 19.921875 54.6875 
L 34.71875 54.6875 
L 34.71875 47.703125 
L 19.921875 47.703125 
L 19.921875 0 
L 10.890625 0 
L 10.890625 47.703125 
L 2.296875 47.703125 
L 2.296875 54.6875 
L 10.890625 54.6875 
L 10.890625 58.5 
Q 10.890625 67.625 15.140625 71.796875 
Q 19.390625 75.984375 28.609375 75.984375 
z
" id="DejaVuSans-66"/>
       <path d="M 54.890625 33.015625 
L 54.890625 0 
L 45.90625 0 
L 45.90625 32.71875 
Q 45.90625 40.484375 42.875 44.328125 
Q 39.84375 48.1875 33.796875 48.1875 
Q 26.515625 48.1875 22.3125 43.546875 
Q 18.109375 38.921875 18.109375 30.90625 
L 18.109375 0 
L 9.078125 0 
L 9.078125 54.6875 
L 18.109375 54.6875 
L 18.109375 46.1875 
Q 21.34375 51.125 25.703125 53.5625 
Q 30.078125 56 35.796875 56 
Q 45.21875 56 50.046875 50.171875 
Q 54.890625 44.34375 54.890625 33.015625 
z
" id="DejaVuSans-6e"/>
      </defs>
      <g transform="translate(128.875 290.065108)scale(0.1 -0.1)">
       <use xlink:href="#DejaVuSans-73"/>
       <use x="52.099609" xlink:href="#DejaVuSans-63"/>
       <use x="107.080078" xlink:href="#DejaVuSans-68"/>
       <use x="170.458984" xlink:href="#DejaVuSans-72"/>
       <use x="211.541016" xlink:href="#DejaVuSans-65"/>
       <use x="273.064453" xlink:href="#DejaVuSans-69"/>
       <use x="300.847656" xlink:href="#DejaVuSans-62"/>
       <use x="364.324219" xlink:href="#DejaVuSans-65"/>
       <use x="425.847656" xlink:href="#DejaVuSans-72"/>
       <use x="466.960938" xlink:href="#DejaVuSans-32"/>
       <use x="530.583984" xlink:href="#DejaVuSans-30"/>
       <use x="594.207031" xlink:href="#DejaVuSans-31"/>
       <use x="657.830078" xlink:href="#DejaVuSans-38"/>
       <use x="721.453125" xlink:href="#DejaVuSans-2f"/>
       <use x="755.144531" xlink:href="#DejaVuSans-66"/>
       <use x="790.349609" xlink:href="#DejaVuSans-63"/>
       <use x="845.330078" xlink:href="#DejaVuSans-6e"/>
      </g>
     </g>
    </g>
    <g id="ytick_3">
     <g id="line2d_17">
      <path clip-path="url(#p280ded6d5b)" d="M 226.746875 251.875301 
L 617.346875 251.875301 
" style="fill:none;stroke:#b0b0b0;stroke-linecap:square;stroke-width:0.8;"/>
     </g>
     <g id="line2d_18">
      <g>
       <use style="stroke:#000000;stroke-width:0.8;" x="226.746875" xlink:href="#m94466a1bae" y="251.875301"/>
      </g>
     </g>
     <g id="text_10">
      <!-- schreiber2018/cnn -->
      <g transform="translate(126.057812 255.67452)scale(0.1 -0.1)">
       <use xlink:href="#DejaVuSans-73"/>
       <use x="52.099609" xlink:href="#DejaVuSans-63"/>
       <use x="107.080078" xlink:href="#DejaVuSans-68"/>
       <use x="170.458984" xlink:href="#DejaVuSans-72"/>
       <use x="211.541016" xlink:href="#DejaVuSans-65"/>
       <use x="273.064453" xlink:href="#DejaVuSans-69"/>
       <use x="300.847656" xlink:href="#DejaVuSans-62"/>
       <use x="364.324219" xlink:href="#DejaVuSans-65"/>
       <use x="425.847656" xlink:href="#DejaVuSans-72"/>
       <use x="466.960938" xlink:href="#DejaVuSans-32"/>
       <use x="530.583984" xlink:href="#DejaVuSans-30"/>
       <use x="594.207031" xlink:href="#DejaVuSans-31"/>
       <use x="657.830078" xlink:href="#DejaVuSans-38"/>
       <use x="721.453125" xlink:href="#DejaVuSans-2f"/>
       <use x="755.144531" xlink:href="#DejaVuSans-63"/>
       <use x="810.125" xlink:href="#DejaVuSans-6e"/>
       <use x="873.503906" xlink:href="#DejaVuSans-6e"/>
      </g>
     </g>
    </g>
    <g id="ytick_4">
     <g id="line2d_19">
      <path clip-path="url(#p280ded6d5b)" d="M 226.746875 217.484713 
L 617.346875 217.484713 
" style="fill:none;stroke:#b0b0b0;stroke-linecap:square;stroke-width:0.8;"/>
     </g>
     <g id="line2d_20">
      <g>
       <use style="stroke:#000000;stroke-width:0.8;" x="226.746875" xlink:href="#m94466a1bae" y="217.484713"/>
      </g>
     </g>
     <g id="text_11">
      <!-- schreiber2017/mirex2017 -->
      <defs>
       <path d="M 8.203125 72.90625 
L 55.078125 72.90625 
L 55.078125 68.703125 
L 28.609375 0 
L 18.3125 0 
L 43.21875 64.59375 
L 8.203125 64.59375 
z
" id="DejaVuSans-37"/>
       <path d="M 54.890625 54.6875 
L 35.109375 28.078125 
L 55.90625 0 
L 45.3125 0 
L 29.390625 21.484375 
L 13.484375 0 
L 2.875 0 
L 24.125 28.609375 
L 4.6875 54.6875 
L 15.28125 54.6875 
L 29.78125 35.203125 
L 44.28125 54.6875 
z
" id="DejaVuSans-78"/>
      </defs>
      <g transform="translate(90.084375 221.283932)scale(0.1 -0.1)">
       <use xlink:href="#DejaVuSans-73"/>
       <use x="52.099609" xlink:href="#DejaVuSans-63"/>
       <use x="107.080078" xlink:href="#DejaVuSans-68"/>
       <use x="170.458984" xlink:href="#DejaVuSans-72"/>
       <use x="211.541016" xlink:href="#DejaVuSans-65"/>
       <use x="273.064453" xlink:href="#DejaVuSans-69"/>
       <use x="300.847656" xlink:href="#DejaVuSans-62"/>
       <use x="364.324219" xlink:href="#DejaVuSans-65"/>
       <use x="425.847656" xlink:href="#DejaVuSans-72"/>
       <use x="466.960938" xlink:href="#DejaVuSans-32"/>
       <use x="530.583984" xlink:href="#DejaVuSans-30"/>
       <use x="594.207031" xlink:href="#DejaVuSans-31"/>
       <use x="657.830078" xlink:href="#DejaVuSans-37"/>
       <use x="721.453125" xlink:href="#DejaVuSans-2f"/>
       <use x="755.144531" xlink:href="#DejaVuSans-6d"/>
       <use x="852.556641" xlink:href="#DejaVuSans-69"/>
       <use x="880.339844" xlink:href="#DejaVuSans-72"/>
       <use x="921.421875" xlink:href="#DejaVuSans-65"/>
       <use x="982.929688" xlink:href="#DejaVuSans-78"/>
       <use x="1042.109375" xlink:href="#DejaVuSans-32"/>
       <use x="1105.732422" xlink:href="#DejaVuSans-30"/>
       <use x="1169.355469" xlink:href="#DejaVuSans-31"/>
       <use x="1232.978516" xlink:href="#DejaVuSans-37"/>
      </g>
     </g>
    </g>
    <g id="ytick_5">
     <g id="line2d_21">
      <path clip-path="url(#p280ded6d5b)" d="M 226.746875 183.094125 
L 617.346875 183.094125 
" style="fill:none;stroke:#b0b0b0;stroke-linecap:square;stroke-width:0.8;"/>
     </g>
     <g id="line2d_22">
      <g>
       <use style="stroke:#000000;stroke-width:0.8;" x="226.746875" xlink:href="#m94466a1bae" y="183.094125"/>
      </g>
     </g>
     <g id="text_12">
      <!-- schreiber2017/ismir2017 -->
      <g transform="translate(94.164062 186.893344)scale(0.1 -0.1)">
       <use xlink:href="#DejaVuSans-73"/>
       <use x="52.099609" xlink:href="#DejaVuSans-63"/>
       <use x="107.080078" xlink:href="#DejaVuSans-68"/>
       <use x="170.458984" xlink:href="#DejaVuSans-72"/>
       <use x="211.541016" xlink:href="#DejaVuSans-65"/>
       <use x="273.064453" xlink:href="#DejaVuSans-69"/>
       <use x="300.847656" xlink:href="#DejaVuSans-62"/>
       <use x="364.324219" xlink:href="#DejaVuSans-65"/>
       <use x="425.847656" xlink:href="#DejaVuSans-72"/>
       <use x="466.960938" xlink:href="#DejaVuSans-32"/>
       <use x="530.583984" xlink:href="#DejaVuSans-30"/>
       <use x="594.207031" xlink:href="#DejaVuSans-31"/>
       <use x="657.830078" xlink:href="#DejaVuSans-37"/>
       <use x="721.453125" xlink:href="#DejaVuSans-2f"/>
       <use x="755.144531" xlink:href="#DejaVuSans-69"/>
       <use x="782.927734" xlink:href="#DejaVuSans-73"/>
       <use x="835.027344" xlink:href="#DejaVuSans-6d"/>
       <use x="932.439453" xlink:href="#DejaVuSans-69"/>
       <use x="960.222656" xlink:href="#DejaVuSans-72"/>
       <use x="1001.335938" xlink:href="#DejaVuSans-32"/>
       <use x="1064.958984" xlink:href="#DejaVuSans-30"/>
       <use x="1128.582031" xlink:href="#DejaVuSans-31"/>
       <use x="1192.205078" xlink:href="#DejaVuSans-37"/>
      </g>
     </g>
    </g>
    <g id="ytick_6">
     <g id="line2d_23">
      <path clip-path="url(#p280ded6d5b)" d="M 226.746875 148.703537 
L 617.346875 148.703537 
" style="fill:none;stroke:#b0b0b0;stroke-linecap:square;stroke-width:0.8;"/>
     </g>
     <g id="line2d_24">
      <g>
       <use style="stroke:#000000;stroke-width:0.8;" x="226.746875" xlink:href="#m94466a1bae" y="148.703537"/>
      </g>
     </g>
     <g id="text_13">
      <!-- schreiber2014/default -->
      <defs>
       <path d="M 45.40625 46.390625 
L 45.40625 75.984375 
L 54.390625 75.984375 
L 54.390625 0 
L 45.40625 0 
L 45.40625 8.203125 
Q 42.578125 3.328125 38.25 0.953125 
Q 33.9375 -1.421875 27.875 -1.421875 
Q 17.96875 -1.421875 11.734375 6.484375 
Q 5.515625 14.40625 5.515625 27.296875 
Q 5.515625 40.1875 11.734375 48.09375 
Q 17.96875 56 27.875 56 
Q 33.9375 56 38.25 53.625 
Q 42.578125 51.265625 45.40625 46.390625 
z
M 14.796875 27.296875 
Q 14.796875 17.390625 18.875 11.75 
Q 22.953125 6.109375 30.078125 6.109375 
Q 37.203125 6.109375 41.296875 11.75 
Q 45.40625 17.390625 45.40625 27.296875 
Q 45.40625 37.203125 41.296875 42.84375 
Q 37.203125 48.484375 30.078125 48.484375 
Q 22.953125 48.484375 18.875 42.84375 
Q 14.796875 37.203125 14.796875 27.296875 
z
" id="DejaVuSans-64"/>
       <path d="M 34.28125 27.484375 
Q 23.390625 27.484375 19.1875 25 
Q 14.984375 22.515625 14.984375 16.5 
Q 14.984375 11.71875 18.140625 8.90625 
Q 21.296875 6.109375 26.703125 6.109375 
Q 34.1875 6.109375 38.703125 11.40625 
Q 43.21875 16.703125 43.21875 25.484375 
L 43.21875 27.484375 
z
M 52.203125 31.203125 
L 52.203125 0 
L 43.21875 0 
L 43.21875 8.296875 
Q 40.140625 3.328125 35.546875 0.953125 
Q 30.953125 -1.421875 24.3125 -1.421875 
Q 15.921875 -1.421875 10.953125 3.296875 
Q 6 8.015625 6 15.921875 
Q 6 25.140625 12.171875 29.828125 
Q 18.359375 34.515625 30.609375 34.515625 
L 43.21875 34.515625 
L 43.21875 35.40625 
Q 43.21875 41.609375 39.140625 45 
Q 35.0625 48.390625 27.6875 48.390625 
Q 23 48.390625 18.546875 47.265625 
Q 14.109375 46.140625 10.015625 43.890625 
L 10.015625 52.203125 
Q 14.9375 54.109375 19.578125 55.046875 
Q 24.21875 56 28.609375 56 
Q 40.484375 56 46.34375 49.84375 
Q 52.203125 43.703125 52.203125 31.203125 
z
" id="DejaVuSans-61"/>
       <path d="M 8.5 21.578125 
L 8.5 54.6875 
L 17.484375 54.6875 
L 17.484375 21.921875 
Q 17.484375 14.15625 20.5 10.265625 
Q 23.53125 6.390625 29.59375 6.390625 
Q 36.859375 6.390625 41.078125 11.03125 
Q 45.3125 15.671875 45.3125 23.6875 
L 45.3125 54.6875 
L 54.296875 54.6875 
L 54.296875 0 
L 45.3125 0 
L 45.3125 8.40625 
Q 42.046875 3.421875 37.71875 1 
Q 33.40625 -1.421875 27.6875 -1.421875 
Q 18.265625 -1.421875 13.375 4.4375 
Q 8.5 10.296875 8.5 21.578125 
z
M 31.109375 56 
z
" id="DejaVuSans-75"/>
       <path d="M 9.421875 75.984375 
L 18.40625 75.984375 
L 18.40625 0 
L 9.421875 0 
z
" id="DejaVuSans-6c"/>
       <path d="M 18.3125 70.21875 
L 18.3125 54.6875 
L 36.8125 54.6875 
L 36.8125 47.703125 
L 18.3125 47.703125 
L 18.3125 18.015625 
Q 18.3125 11.328125 20.140625 9.421875 
Q 21.96875 7.515625 27.59375 7.515625 
L 36.8125 7.515625 
L 36.8125 0 
L 27.59375 0 
Q 17.1875 0 13.234375 3.875 
Q 9.28125 7.765625 9.28125 18.015625 
L 9.28125 47.703125 
L 2.6875 47.703125 
L 2.6875 54.6875 
L 9.28125 54.6875 
L 9.28125 70.21875 
z
" id="DejaVuSans-74"/>
      </defs>
      <g transform="translate(109.045312 152.502756)scale(0.1 -0.1)">
       <use xlink:href="#DejaVuSans-73"/>
       <use x="52.099609" xlink:href="#DejaVuSans-63"/>
       <use x="107.080078" xlink:href="#DejaVuSans-68"/>
       <use x="170.458984" xlink:href="#DejaVuSans-72"/>
       <use x="211.541016" xlink:href="#DejaVuSans-65"/>
       <use x="273.064453" xlink:href="#DejaVuSans-69"/>
       <use x="300.847656" xlink:href="#DejaVuSans-62"/>
       <use x="364.324219" xlink:href="#DejaVuSans-65"/>
       <use x="425.847656" xlink:href="#DejaVuSans-72"/>
       <use x="466.960938" xlink:href="#DejaVuSans-32"/>
       <use x="530.583984" xlink:href="#DejaVuSans-30"/>
       <use x="594.207031" xlink:href="#DejaVuSans-31"/>
       <use x="657.830078" xlink:href="#DejaVuSans-34"/>
       <use x="721.453125" xlink:href="#DejaVuSans-2f"/>
       <use x="755.144531" xlink:href="#DejaVuSans-64"/>
       <use x="818.621094" xlink:href="#DejaVuSans-65"/>
       <use x="880.144531" xlink:href="#DejaVuSans-66"/>
       <use x="915.349609" xlink:href="#DejaVuSans-61"/>
       <use x="976.628906" xlink:href="#DejaVuSans-75"/>
       <use x="1040.007812" xlink:href="#DejaVuSans-6c"/>
       <use x="1067.791016" xlink:href="#DejaVuSans-74"/>
      </g>
     </g>
    </g>
    <g id="ytick_7">
     <g id="line2d_25">
      <path clip-path="url(#p280ded6d5b)" d="M 226.746875 114.312949 
L 617.346875 114.312949 
" style="fill:none;stroke:#b0b0b0;stroke-linecap:square;stroke-width:0.8;"/>
     </g>
     <g id="line2d_26">
      <g>
       <use style="stroke:#000000;stroke-width:0.8;" x="226.746875" xlink:href="#m94466a1bae" y="114.312949"/>
      </g>
     </g>
     <g id="text_14">
      <!-- percival2014/stem -->
      <defs>
       <path d="M 18.109375 8.203125 
L 18.109375 -20.796875 
L 9.078125 -20.796875 
L 9.078125 54.6875 
L 18.109375 54.6875 
L 18.109375 46.390625 
Q 20.953125 51.265625 25.265625 53.625 
Q 29.59375 56 35.59375 56 
Q 45.5625 56 51.78125 48.09375 
Q 58.015625 40.1875 58.015625 27.296875 
Q 58.015625 14.40625 51.78125 6.484375 
Q 45.5625 -1.421875 35.59375 -1.421875 
Q 29.59375 -1.421875 25.265625 0.953125 
Q 20.953125 3.328125 18.109375 8.203125 
z
M 48.6875 27.296875 
Q 48.6875 37.203125 44.609375 42.84375 
Q 40.53125 48.484375 33.40625 48.484375 
Q 26.265625 48.484375 22.1875 42.84375 
Q 18.109375 37.203125 18.109375 27.296875 
Q 18.109375 17.390625 22.1875 11.75 
Q 26.265625 6.109375 33.40625 6.109375 
Q 40.53125 6.109375 44.609375 11.75 
Q 48.6875 17.390625 48.6875 27.296875 
z
" id="DejaVuSans-70"/>
       <path d="M 2.984375 54.6875 
L 12.5 54.6875 
L 29.59375 8.796875 
L 46.6875 54.6875 
L 56.203125 54.6875 
L 35.6875 0 
L 23.484375 0 
z
" id="DejaVuSans-76"/>
      </defs>
      <g transform="translate(126.19375 118.112167)scale(0.1 -0.1)">
       <use xlink:href="#DejaVuSans-70"/>
       <use x="63.476562" xlink:href="#DejaVuSans-65"/>
       <use x="125" xlink:href="#DejaVuSans-72"/>
       <use x="166.082031" xlink:href="#DejaVuSans-63"/>
       <use x="221.0625" xlink:href="#DejaVuSans-69"/>
       <use x="248.845703" xlink:href="#DejaVuSans-76"/>
       <use x="308.025391" xlink:href="#DejaVuSans-61"/>
       <use x="369.304688" xlink:href="#DejaVuSans-6c"/>
       <use x="397.087891" xlink:href="#DejaVuSans-32"/>
       <use x="460.710938" xlink:href="#DejaVuSans-30"/>
       <use x="524.333984" xlink:href="#DejaVuSans-31"/>
       <use x="587.957031" xlink:href="#DejaVuSans-34"/>
       <use x="651.580078" xlink:href="#DejaVuSans-2f"/>
       <use x="685.271484" xlink:href="#DejaVuSans-73"/>
       <use x="737.371094" xlink:href="#DejaVuSans-74"/>
       <use x="776.580078" xlink:href="#DejaVuSans-65"/>
       <use x="838.103516" xlink:href="#DejaVuSans-6d"/>
      </g>
     </g>
    </g>
    <g id="ytick_8">
     <g id="line2d_27">
      <path clip-path="url(#p280ded6d5b)" d="M 226.746875 79.92236 
L 617.346875 79.92236 
" style="fill:none;stroke:#b0b0b0;stroke-linecap:square;stroke-width:0.8;"/>
     </g>
     <g id="line2d_28">
      <g>
       <use style="stroke:#000000;stroke-width:0.8;" x="226.746875" xlink:href="#m94466a1bae" y="79.92236"/>
      </g>
     </g>
     <g id="text_15">
      <!-- davies2009/mirex_qm_tempotracker -->
      <defs>
       <path d="M 10.984375 1.515625 
L 10.984375 10.5 
Q 14.703125 8.734375 18.5 7.8125 
Q 22.3125 6.890625 25.984375 6.890625 
Q 35.75 6.890625 40.890625 13.453125 
Q 46.046875 20.015625 46.78125 33.40625 
Q 43.953125 29.203125 39.59375 26.953125 
Q 35.25 24.703125 29.984375 24.703125 
Q 19.046875 24.703125 12.671875 31.3125 
Q 6.296875 37.9375 6.296875 49.421875 
Q 6.296875 60.640625 12.9375 67.421875 
Q 19.578125 74.21875 30.609375 74.21875 
Q 43.265625 74.21875 49.921875 64.515625 
Q 56.59375 54.828125 56.59375 36.375 
Q 56.59375 19.140625 48.40625 8.859375 
Q 40.234375 -1.421875 26.421875 -1.421875 
Q 22.703125 -1.421875 18.890625 -0.6875 
Q 15.09375 0.046875 10.984375 1.515625 
z
M 30.609375 32.421875 
Q 37.25 32.421875 41.125 36.953125 
Q 45.015625 41.5 45.015625 49.421875 
Q 45.015625 57.28125 41.125 61.84375 
Q 37.25 66.40625 30.609375 66.40625 
Q 23.96875 66.40625 20.09375 61.84375 
Q 16.21875 57.28125 16.21875 49.421875 
Q 16.21875 41.5 20.09375 36.953125 
Q 23.96875 32.421875 30.609375 32.421875 
z
" id="DejaVuSans-39"/>
       <path d="M 50.984375 -16.609375 
L 50.984375 -23.578125 
L -0.984375 -23.578125 
L -0.984375 -16.609375 
z
" id="DejaVuSans-5f"/>
       <path d="M 14.796875 27.296875 
Q 14.796875 17.390625 18.875 11.75 
Q 22.953125 6.109375 30.078125 6.109375 
Q 37.203125 6.109375 41.296875 11.75 
Q 45.40625 17.390625 45.40625 27.296875 
Q 45.40625 37.203125 41.296875 42.84375 
Q 37.203125 48.484375 30.078125 48.484375 
Q 22.953125 48.484375 18.875 42.84375 
Q 14.796875 37.203125 14.796875 27.296875 
z
M 45.40625 8.203125 
Q 42.578125 3.328125 38.25 0.953125 
Q 33.9375 -1.421875 27.875 -1.421875 
Q 17.96875 -1.421875 11.734375 6.484375 
Q 5.515625 14.40625 5.515625 27.296875 
Q 5.515625 40.1875 11.734375 48.09375 
Q 17.96875 56 27.875 56 
Q 33.9375 56 38.25 53.625 
Q 42.578125 51.265625 45.40625 46.390625 
L 45.40625 54.6875 
L 54.390625 54.6875 
L 54.390625 -20.796875 
L 45.40625 -20.796875 
z
" id="DejaVuSans-71"/>
       <path d="M 30.609375 48.390625 
Q 23.390625 48.390625 19.1875 42.75 
Q 14.984375 37.109375 14.984375 27.296875 
Q 14.984375 17.484375 19.15625 11.84375 
Q 23.34375 6.203125 30.609375 6.203125 
Q 37.796875 6.203125 41.984375 11.859375 
Q 46.1875 17.53125 46.1875 27.296875 
Q 46.1875 37.015625 41.984375 42.703125 
Q 37.796875 48.390625 30.609375 48.390625 
z
M 30.609375 56 
Q 42.328125 56 49.015625 48.375 
Q 55.71875 40.765625 55.71875 27.296875 
Q 55.71875 13.875 49.015625 6.21875 
Q 42.328125 -1.421875 30.609375 -1.421875 
Q 18.84375 -1.421875 12.171875 6.21875 
Q 5.515625 13.875 5.515625 27.296875 
Q 5.515625 40.765625 12.171875 48.375 
Q 18.84375 56 30.609375 56 
z
" id="DejaVuSans-6f"/>
       <path d="M 9.078125 75.984375 
L 18.109375 75.984375 
L 18.109375 31.109375 
L 44.921875 54.6875 
L 56.390625 54.6875 
L 27.390625 29.109375 
L 57.625 0 
L 45.90625 0 
L 18.109375 26.703125 
L 18.109375 0 
L 9.078125 0 
z
" id="DejaVuSans-6b"/>
      </defs>
      <g transform="translate(35.617187 83.721579)scale(0.1 -0.1)">
       <use xlink:href="#DejaVuSans-64"/>
       <use x="63.476562" xlink:href="#DejaVuSans-61"/>
       <use x="124.755859" xlink:href="#DejaVuSans-76"/>
       <use x="183.935547" xlink:href="#DejaVuSans-69"/>
       <use x="211.71875" xlink:href="#DejaVuSans-65"/>
       <use x="273.242188" xlink:href="#DejaVuSans-73"/>
       <use x="325.341797" xlink:href="#DejaVuSans-32"/>
       <use x="388.964844" xlink:href="#DejaVuSans-30"/>
       <use x="452.587891" xlink:href="#DejaVuSans-30"/>
       <use x="516.210938" xlink:href="#DejaVuSans-39"/>
       <use x="579.833984" xlink:href="#DejaVuSans-2f"/>
       <use x="613.525391" xlink:href="#DejaVuSans-6d"/>
       <use x="710.9375" xlink:href="#DejaVuSans-69"/>
       <use x="738.720703" xlink:href="#DejaVuSans-72"/>
       <use x="779.802734" xlink:href="#DejaVuSans-65"/>
       <use x="841.310547" xlink:href="#DejaVuSans-78"/>
       <use x="900.490234" xlink:href="#DejaVuSans-5f"/>
       <use x="950.490234" xlink:href="#DejaVuSans-71"/>
       <use x="1013.966797" xlink:href="#DejaVuSans-6d"/>
       <use x="1111.378906" xlink:href="#DejaVuSans-5f"/>
       <use x="1161.378906" xlink:href="#DejaVuSans-74"/>
       <use x="1200.587891" xlink:href="#DejaVuSans-65"/>
       <use x="1262.111328" xlink:href="#DejaVuSans-6d"/>
       <use x="1359.523438" xlink:href="#DejaVuSans-70"/>
       <use x="1423" xlink:href="#DejaVuSans-6f"/>
       <use x="1484.181641" xlink:href="#DejaVuSans-74"/>
       <use x="1523.390625" xlink:href="#DejaVuSans-72"/>
       <use x="1564.503906" xlink:href="#DejaVuSans-61"/>
       <use x="1625.783203" xlink:href="#DejaVuSans-63"/>
       <use x="1680.763672" xlink:href="#DejaVuSans-6b"/>
       <use x="1738.626953" xlink:href="#DejaVuSans-65"/>
       <use x="1800.150391" xlink:href="#DejaVuSans-72"/>
      </g>
     </g>
    </g>
    <g id="ytick_9">
     <g id="line2d_29">
      <path clip-path="url(#p280ded6d5b)" d="M 226.746875 45.531772 
L 617.346875 45.531772 
" style="fill:none;stroke:#b0b0b0;stroke-linecap:square;stroke-width:0.8;"/>
     </g>
     <g id="line2d_30">
      <g>
       <use style="stroke:#000000;stroke-width:0.8;" x="226.746875" xlink:href="#m94466a1bae" y="45.531772"/>
      </g>
     </g>
     <g id="text_16">
      <!-- boeck2015/tempodetector2016_default -->
      <defs>
       <path d="M 33.015625 40.375 
Q 26.375 40.375 22.484375 35.828125 
Q 18.609375 31.296875 18.609375 23.390625 
Q 18.609375 15.53125 22.484375 10.953125 
Q 26.375 6.390625 33.015625 6.390625 
Q 39.65625 6.390625 43.53125 10.953125 
Q 47.40625 15.53125 47.40625 23.390625 
Q 47.40625 31.296875 43.53125 35.828125 
Q 39.65625 40.375 33.015625 40.375 
z
M 52.59375 71.296875 
L 52.59375 62.3125 
Q 48.875 64.0625 45.09375 64.984375 
Q 41.3125 65.921875 37.59375 65.921875 
Q 27.828125 65.921875 22.671875 59.328125 
Q 17.53125 52.734375 16.796875 39.40625 
Q 19.671875 43.65625 24.015625 45.921875 
Q 28.375 48.1875 33.59375 48.1875 
Q 44.578125 48.1875 50.953125 41.515625 
Q 57.328125 34.859375 57.328125 23.390625 
Q 57.328125 12.15625 50.6875 5.359375 
Q 44.046875 -1.421875 33.015625 -1.421875 
Q 20.359375 -1.421875 13.671875 8.265625 
Q 6.984375 17.96875 6.984375 36.375 
Q 6.984375 53.65625 15.1875 63.9375 
Q 23.390625 74.21875 37.203125 74.21875 
Q 40.921875 74.21875 44.703125 73.484375 
Q 48.484375 72.75 52.59375 71.296875 
z
" id="DejaVuSans-36"/>
      </defs>
      <g transform="translate(20.878125 49.330991)scale(0.1 -0.1)">
       <use xlink:href="#DejaVuSans-62"/>
       <use x="63.476562" xlink:href="#DejaVuSans-6f"/>
       <use x="124.658203" xlink:href="#DejaVuSans-65"/>
       <use x="186.181641" xlink:href="#DejaVuSans-63"/>
       <use x="241.162109" xlink:href="#DejaVuSans-6b"/>
       <use x="299.072266" xlink:href="#DejaVuSans-32"/>
       <use x="362.695312" xlink:href="#DejaVuSans-30"/>
       <use x="426.318359" xlink:href="#DejaVuSans-31"/>
       <use x="489.941406" xlink:href="#DejaVuSans-35"/>
       <use x="553.564453" xlink:href="#DejaVuSans-2f"/>
       <use x="587.255859" xlink:href="#DejaVuSans-74"/>
       <use x="626.464844" xlink:href="#DejaVuSans-65"/>
       <use x="687.988281" xlink:href="#DejaVuSans-6d"/>
       <use x="785.400391" xlink:href="#DejaVuSans-70"/>
       <use x="848.876953" xlink:href="#DejaVuSans-6f"/>
       <use x="910.058594" xlink:href="#DejaVuSans-64"/>
       <use x="973.535156" xlink:href="#DejaVuSans-65"/>
       <use x="1035.058594" xlink:href="#DejaVuSans-74"/>
       <use x="1074.267578" xlink:href="#DejaVuSans-65"/>
       <use x="1135.791016" xlink:href="#DejaVuSans-63"/>
       <use x="1190.771484" xlink:href="#DejaVuSans-74"/>
       <use x="1229.980469" xlink:href="#DejaVuSans-6f"/>
       <use x="1291.162109" xlink:href="#DejaVuSans-72"/>
       <use x="1332.275391" xlink:href="#DejaVuSans-32"/>
       <use x="1395.898438" xlink:href="#DejaVuSans-30"/>
       <use x="1459.521484" xlink:href="#DejaVuSans-31"/>
       <use x="1523.144531" xlink:href="#DejaVuSans-36"/>
       <use x="1586.767578" xlink:href="#DejaVuSans-5f"/>
       <use x="1636.767578" xlink:href="#DejaVuSans-64"/>
       <use x="1700.244141" xlink:href="#DejaVuSans-65"/>
       <use x="1761.767578" xlink:href="#DejaVuSans-66"/>
       <use x="1796.972656" xlink:href="#DejaVuSans-61"/>
       <use x="1858.251953" xlink:href="#DejaVuSans-75"/>
       <use x="1921.630859" xlink:href="#DejaVuSans-6c"/>
       <use x="1949.414062" xlink:href="#DejaVuSans-74"/>
      </g>
     </g>
    </g>
    <g id="text_17">
     <!-- Estimator -->
     <g transform="translate(14.798437 207.216781)rotate(-90)scale(0.1 -0.1)">
      <use xlink:href="#DejaVuSans-45"/>
      <use x="63.183594" xlink:href="#DejaVuSans-73"/>
      <use x="115.283203" xlink:href="#DejaVuSans-74"/>
      <use x="154.492188" xlink:href="#DejaVuSans-69"/>
      <use x="182.275391" xlink:href="#DejaVuSans-6d"/>
      <use x="279.6875" xlink:href="#DejaVuSans-61"/>
      <use x="340.966797" xlink:href="#DejaVuSans-74"/>
      <use x="380.175781" xlink:href="#DejaVuSans-6f"/>
      <use x="441.357422" xlink:href="#DejaVuSans-72"/>
     </g>
    </g>
   </g>
   <g id="PolyCollection_1">
    <path clip-path="url(#p280ded6d5b)" d="M 226.746875 312.058831 
L 226.746875 329.254125 
L 227.886243 329.090316 
L 229.02561 328.561401 
L 230.164978 327.742553 
L 231.304346 326.739911 
L 232.443713 325.668383 
L 233.583081 324.630644 
L 234.722449 323.702465 
L 235.861816 322.926807 
L 237.001184 322.316052 
L 238.140551 321.859638 
L 239.279919 321.533607 
L 240.419287 321.309215 
L 241.558654 321.15901 
L 242.698022 321.060095 
L 243.83739 320.99516 
L 244.976757 320.952174 
L 246.116125 320.923488 
L 247.255493 320.90481 
L 248.39486 320.894229 
L 249.534228 320.891277 
L 250.673596 320.896046 
L 251.812963 320.908372 
L 252.952331 320.927224 
L 254.091699 320.9504 
L 255.231066 320.974617 
L 256.370434 320.995971 
L 257.509802 321.010634 
L 258.649169 321.015582 
L 259.788537 321.009157 
L 260.927904 320.991309 
L 262.067272 320.963488 
L 263.20664 320.92826 
L 264.346007 320.88876 
L 265.485375 320.84815 
L 266.624743 320.809176 
L 267.76411 320.773903 
L 268.903478 320.743609 
L 270.042846 320.718824 
L 271.182213 320.699465 
L 272.321581 320.685012 
L 273.460949 320.674695 
L 274.600316 320.667652 
L 275.739684 320.663057 
L 276.879052 320.660193 
L 278.018419 320.658488 
L 279.157787 320.657519 
L 280.297154 320.656994 
L 281.436522 320.656723 
L 282.57589 320.656589 
L 283.715257 320.656526 
L 284.854625 320.656498 
L 285.993993 320.656486 
L 287.13336 320.656481 
L 288.272728 320.656479 
L 289.412096 320.656478 
L 290.551463 320.656478 
L 291.690831 320.656478 
L 292.830199 320.656478 
L 293.969566 320.656478 
L 295.108934 320.656478 
L 296.248302 320.656478 
L 297.387669 320.656478 
L 298.527037 320.656478 
L 299.666404 320.656478 
L 300.805772 320.656478 
L 301.94514 320.656478 
L 303.084507 320.656478 
L 304.223875 320.656478 
L 305.363243 320.656478 
L 306.50261 320.656478 
L 307.641978 320.656478 
L 308.781346 320.656478 
L 309.920713 320.656478 
L 311.060081 320.656478 
L 312.199449 320.656478 
L 313.338816 320.656478 
L 314.478184 320.656479 
L 315.617552 320.656481 
L 316.756919 320.656485 
L 317.896287 320.656496 
L 319.035655 320.656521 
L 320.175022 320.656577 
L 321.31439 320.656694 
L 322.453757 320.656931 
L 323.593125 320.65738 
L 324.732493 320.658193 
L 325.87186 320.659587 
L 327.011228 320.661852 
L 328.150596 320.665335 
L 329.289963 320.670396 
L 330.429331 320.677334 
L 331.568699 320.686279 
L 332.708066 320.69708 
L 333.847434 320.709226 
L 334.986802 320.721821 
L 336.126169 320.733661 
L 337.265537 320.743411 
L 338.404905 320.749843 
L 339.544272 320.752091 
L 339.544272 320.560865 
L 339.544272 320.560865 
L 338.404905 320.563113 
L 337.265537 320.569545 
L 336.126169 320.579295 
L 334.986802 320.591135 
L 333.847434 320.60373 
L 332.708066 320.615876 
L 331.568699 320.626677 
L 330.429331 320.635622 
L 329.289963 320.64256 
L 328.150596 320.647621 
L 327.011228 320.651104 
L 325.87186 320.653369 
L 324.732493 320.654763 
L 323.593125 320.655576 
L 322.453757 320.656025 
L 321.31439 320.656261 
L 320.175022 320.656379 
L 319.035655 320.656435 
L 317.896287 320.65646 
L 316.756919 320.656471 
L 315.617552 320.656475 
L 314.478184 320.656477 
L 313.338816 320.656478 
L 312.199449 320.656478 
L 311.060081 320.656478 
L 309.920713 320.656478 
L 308.781346 320.656478 
L 307.641978 320.656478 
L 306.50261 320.656478 
L 305.363243 320.656478 
L 304.223875 320.656478 
L 303.084507 320.656478 
L 301.94514 320.656478 
L 300.805772 320.656478 
L 299.666404 320.656478 
L 298.527037 320.656478 
L 297.387669 320.656478 
L 296.248302 320.656478 
L 295.108934 320.656478 
L 293.969566 320.656478 
L 292.830199 320.656478 
L 291.690831 320.656478 
L 290.551463 320.656478 
L 289.412096 320.656478 
L 288.272728 320.656477 
L 287.13336 320.656475 
L 285.993993 320.65647 
L 284.854625 320.656458 
L 283.715257 320.65643 
L 282.57589 320.656367 
L 281.436522 320.656233 
L 280.297154 320.655962 
L 279.157787 320.655437 
L 278.018419 320.654468 
L 276.879052 320.652763 
L 275.739684 320.649899 
L 274.600316 320.645304 
L 273.460949 320.638261 
L 272.321581 320.627944 
L 271.182213 320.613491 
L 270.042846 320.594131 
L 268.903478 320.569347 
L 267.76411 320.539052 
L 266.624743 320.50378 
L 265.485375 320.464806 
L 264.346007 320.424195 
L 263.20664 320.384696 
L 262.067272 320.349468 
L 260.927904 320.321647 
L 259.788537 320.303799 
L 258.649169 320.297374 
L 257.509802 320.302322 
L 256.370434 320.316985 
L 255.231066 320.338339 
L 254.091699 320.362556 
L 252.952331 320.385731 
L 251.812963 320.404584 
L 250.673596 320.41691 
L 249.534228 320.421679 
L 248.39486 320.418727 
L 247.255493 320.408146 
L 246.116125 320.389468 
L 244.976757 320.360782 
L 243.83739 320.317796 
L 242.698022 320.252861 
L 241.558654 320.153946 
L 240.419287 320.003741 
L 239.279919 319.779349 
L 238.140551 319.453318 
L 237.001184 318.996904 
L 235.861816 318.386149 
L 234.722449 317.610491 
L 233.583081 316.682312 
L 232.443713 315.644573 
L 231.304346 314.573045 
L 230.164978 313.570403 
L 229.02561 312.751555 
L 227.886243 312.22264 
L 226.746875 312.058831 
z
" style="fill:#ff0000;fill-opacity:0.75;"/>
   </g>
   <g id="PolyCollection_2">
    <path clip-path="url(#p280ded6d5b)" d="M 226.746875 277.668243 
L 226.746875 294.863537 
L 227.886243 294.753692 
L 229.02561 294.287642 
L 230.164978 293.5341 
L 231.304346 292.591685 
L 232.443713 291.568152 
L 233.583081 290.56078 
L 234.722449 289.64269 
L 235.861816 288.85729 
L 237.001184 288.220152 
L 238.140551 287.725742 
L 239.279919 287.355817 
L 240.419287 287.086941 
L 241.558654 286.895781 
L 242.698022 286.762005 
L 243.83739 286.669362 
L 244.976757 286.605678 
L 246.116125 286.562403 
L 247.255493 286.53401 
L 248.39486 286.517332 
L 249.534228 286.510822 
L 250.673596 286.513734 
L 251.812963 286.525305 
L 252.952331 286.544083 
L 254.091699 286.567571 
L 255.231066 286.592267 
L 256.370434 286.614096 
L 257.509802 286.629098 
L 258.649169 286.634156 
L 259.788537 286.627562 
L 260.927904 286.609261 
L 262.067272 286.580739 
L 263.20664 286.544622 
L 264.346007 286.504124 
L 265.485375 286.462484 
L 266.624743 286.42252 
L 267.76411 286.386349 
L 268.903478 286.35528 
L 270.042846 286.329859 
L 271.182213 286.310001 
L 272.321581 286.295174 
L 273.460949 286.284588 
L 274.600316 286.277361 
L 275.739684 286.272645 
L 276.879052 286.269705 
L 278.018419 286.267954 
L 279.157787 286.26696 
L 280.297154 286.26642 
L 281.436522 286.266141 
L 282.57589 286.266004 
L 283.715257 286.265939 
L 284.854625 286.26591 
L 285.993993 286.265898 
L 287.13336 286.265893 
L 288.272728 286.265891 
L 289.412096 286.26589 
L 290.551463 286.26589 
L 291.690831 286.26589 
L 292.830199 286.26589 
L 293.969566 286.26589 
L 295.108934 286.26589 
L 296.248302 286.26589 
L 297.387669 286.26589 
L 298.527037 286.26589 
L 299.666404 286.26589 
L 300.805772 286.26589 
L 301.94514 286.26589 
L 303.084507 286.26589 
L 304.223875 286.26589 
L 305.363243 286.26589 
L 306.50261 286.26589 
L 307.641978 286.26589 
L 308.781346 286.26589 
L 309.920713 286.26589 
L 311.060081 286.26589 
L 312.199449 286.26589 
L 313.338816 286.26589 
L 314.478184 286.265891 
L 315.617552 286.265892 
L 316.756919 286.265897 
L 317.896287 286.265908 
L 319.035655 286.265934 
L 320.175022 286.265991 
L 321.31439 286.266112 
L 322.453757 286.266355 
L 323.593125 286.266817 
L 324.732493 286.267652 
L 325.87186 286.269082 
L 327.011228 286.271407 
L 328.150596 286.274981 
L 329.289963 286.280173 
L 330.429331 286.28729 
L 331.568699 286.296463 
L 332.708066 286.307539 
L 333.847434 286.319992 
L 334.986802 286.332904 
L 336.126169 286.345043 
L 337.265537 286.355037 
L 338.404905 286.36163 
L 339.544272 286.363934 
L 339.544272 286.167846 
L 339.544272 286.167846 
L 338.404905 286.17015 
L 337.265537 286.176742 
L 336.126169 286.186737 
L 334.986802 286.198875 
L 333.847434 286.211787 
L 332.708066 286.22424 
L 331.568699 286.235316 
L 330.429331 286.244489 
L 329.289963 286.251606 
L 328.150596 286.256799 
L 327.011228 286.260373 
L 325.87186 286.262697 
L 324.732493 286.264128 
L 323.593125 286.264963 
L 322.453757 286.265425 
L 321.31439 286.265667 
L 320.175022 286.265788 
L 319.035655 286.265846 
L 317.896287 286.265871 
L 316.756919 286.265882 
L 315.617552 286.265887 
L 314.478184 286.265889 
L 313.338816 286.265889 
L 312.199449 286.26589 
L 311.060081 286.26589 
L 309.920713 286.26589 
L 308.781346 286.26589 
L 307.641978 286.26589 
L 306.50261 286.26589 
L 305.363243 286.26589 
L 304.223875 286.26589 
L 303.084507 286.26589 
L 301.94514 286.26589 
L 300.805772 286.26589 
L 299.666404 286.26589 
L 298.527037 286.26589 
L 297.387669 286.26589 
L 296.248302 286.26589 
L 295.108934 286.26589 
L 293.969566 286.26589 
L 292.830199 286.26589 
L 291.690831 286.26589 
L 290.551463 286.26589 
L 289.412096 286.265889 
L 288.272728 286.265889 
L 287.13336 286.265887 
L 285.993993 286.265882 
L 284.854625 286.265869 
L 283.715257 286.26584 
L 282.57589 286.265776 
L 281.436522 286.265638 
L 280.297154 286.265359 
L 279.157787 286.26482 
L 278.018419 286.263825 
L 276.879052 286.262074 
L 275.739684 286.259134 
L 274.600316 286.254418 
L 273.460949 286.247191 
L 272.321581 286.236605 
L 271.182213 286.221778 
L 270.042846 286.20192 
L 268.903478 286.176499 
L 267.76411 286.145431 
L 266.624743 286.109259 
L 265.485375 286.069296 
L 264.346007 286.027656 
L 263.20664 285.987157 
L 262.067272 285.95104 
L 260.927904 285.922518 
L 259.788537 285.904217 
L 258.649169 285.897623 
L 257.509802 285.902682 
L 256.370434 285.917683 
L 255.231066 285.939512 
L 254.091699 285.964208 
L 252.952331 285.987696 
L 251.812963 286.006474 
L 250.673596 286.018045 
L 249.534228 286.020958 
L 248.39486 286.014448 
L 247.255493 285.997769 
L 246.116125 285.969376 
L 244.976757 285.926101 
L 243.83739 285.862418 
L 242.698022 285.769774 
L 241.558654 285.635999 
L 240.419287 285.444838 
L 239.279919 285.175963 
L 238.140551 284.806038 
L 237.001184 284.311628 
L 235.861816 283.674489 
L 234.722449 282.889089 
L 233.583081 281.971 
L 232.443713 280.963627 
L 231.304346 279.940094 
L 230.164978 278.997679 
L 229.02561 278.244137 
L 227.886243 277.778087 
L 226.746875 277.668243 
z
" style="fill:#ff0000;fill-opacity:0.75;"/>
   </g>
   <g id="PolyCollection_3">
    <path clip-path="url(#p280ded6d5b)" d="M 226.746875 243.277654 
L 226.746875 260.472949 
L 227.886243 260.315128 
L 229.02561 259.79607 
L 230.164978 258.99067 
L 231.304346 258.00421 
L 232.443713 256.950255 
L 233.583081 255.929798 
L 234.722449 255.016814 
L 235.861816 254.252607 
L 237.001184 253.648308 
L 238.140551 253.192719 
L 239.279919 252.86198 
L 240.419287 252.628156 
L 241.558654 252.465136 
L 242.698022 252.351633 
L 243.83739 252.271912 
L 244.976757 252.215236 
L 246.116125 252.174814 
L 247.255493 252.146759 
L 248.39486 252.129164 
L 249.534228 252.121301 
L 250.673596 252.122855 
L 251.812963 252.133229 
L 252.952331 252.150997 
L 254.091699 252.17364 
L 255.231066 252.197639 
L 256.370434 252.218927 
L 257.509802 252.23357 
L 258.649169 252.238478 
L 259.788537 252.231953 
L 260.927904 252.213927 
L 262.067272 252.18585 
L 263.20664 252.150296 
L 264.346007 252.110418 
L 265.485375 252.069401 
L 266.624743 252.030018 
L 267.76411 251.994354 
L 268.903478 251.963703 
L 270.042846 251.938608 
L 271.182213 251.918991 
L 272.321581 251.904333 
L 273.460949 251.893857 
L 274.600316 251.886699 
L 275.739684 251.882022 
L 276.879052 251.879102 
L 278.018419 251.877362 
L 279.157787 251.876371 
L 280.297154 251.875833 
L 281.436522 251.875554 
L 282.57589 251.875416 
L 283.715257 251.875351 
L 284.854625 251.875322 
L 285.993993 251.87531 
L 287.13336 251.875305 
L 288.272728 251.875303 
L 289.412096 251.875302 
L 290.551463 251.875302 
L 291.690831 251.875302 
L 292.830199 251.875301 
L 293.969566 251.875301 
L 295.108934 251.875301 
L 296.248302 251.875301 
L 297.387669 251.875301 
L 298.527037 251.875301 
L 299.666404 251.875301 
L 300.805772 251.875301 
L 301.94514 251.875301 
L 303.084507 251.875301 
L 304.223875 251.875301 
L 305.363243 251.875301 
L 306.50261 251.875301 
L 307.641978 251.875301 
L 308.781346 251.875301 
L 309.920713 251.875301 
L 311.060081 251.875302 
L 312.199449 251.875302 
L 313.338816 251.875302 
L 314.478184 251.875302 
L 315.617552 251.875304 
L 316.756919 251.875309 
L 317.896287 251.87532 
L 319.035655 251.875346 
L 320.175022 251.875404 
L 321.31439 251.875525 
L 322.453757 251.875767 
L 323.593125 251.876227 
L 324.732493 251.877058 
L 325.87186 251.878479 
L 327.011228 251.880784 
L 328.150596 251.884323 
L 329.289963 251.889458 
L 330.429331 251.896486 
L 331.568699 251.905536 
L 332.708066 251.916453 
L 333.847434 251.928718 
L 334.986802 251.941426 
L 336.126169 251.953366 
L 337.265537 251.963193 
L 338.404905 251.969674 
L 339.544272 251.971938 
L 339.544272 251.778665 
L 339.544272 251.778665 
L 338.404905 251.780929 
L 337.265537 251.78741 
L 336.126169 251.797237 
L 334.986802 251.809177 
L 333.847434 251.821885 
L 332.708066 251.83415 
L 331.568699 251.845067 
L 330.429331 251.854117 
L 329.289963 251.861145 
L 328.150596 251.86628 
L 327.011228 251.869819 
L 325.87186 251.872124 
L 324.732493 251.873545 
L 323.593125 251.874376 
L 322.453757 251.874836 
L 321.31439 251.875078 
L 320.175022 251.875199 
L 319.035655 251.875257 
L 317.896287 251.875283 
L 316.756919 251.875294 
L 315.617552 251.875299 
L 314.478184 251.8753 
L 313.338816 251.875301 
L 312.199449 251.875301 
L 311.060081 251.875301 
L 309.920713 251.875301 
L 308.781346 251.875301 
L 307.641978 251.875301 
L 306.50261 251.875301 
L 305.363243 251.875301 
L 304.223875 251.875301 
L 303.084507 251.875301 
L 301.94514 251.875301 
L 300.805772 251.875301 
L 299.666404 251.875301 
L 298.527037 251.875301 
L 297.387669 251.875301 
L 296.248302 251.875301 
L 295.108934 251.875301 
L 293.969566 251.875301 
L 292.830199 251.875301 
L 291.690831 251.875301 
L 290.551463 251.875301 
L 289.412096 251.875301 
L 288.272728 251.8753 
L 287.13336 251.875298 
L 285.993993 251.875293 
L 284.854625 251.875281 
L 283.715257 251.875252 
L 282.57589 251.875187 
L 281.436522 251.875049 
L 280.297154 251.87477 
L 279.157787 251.874232 
L 278.018419 251.873241 
L 276.879052 251.871501 
L 275.739684 251.868581 
L 274.600316 251.863904 
L 273.460949 251.856746 
L 272.321581 251.84627 
L 271.182213 251.831612 
L 270.042846 251.811995 
L 268.903478 251.7869 
L 267.76411 251.756249 
L 266.624743 251.720585 
L 265.485375 251.681202 
L 264.346007 251.640185 
L 263.20664 251.600307 
L 262.067272 251.564753 
L 260.927904 251.536676 
L 259.788537 251.51865 
L 258.649169 251.512125 
L 257.509802 251.517033 
L 256.370434 251.531676 
L 255.231066 251.552964 
L 254.091699 251.576963 
L 252.952331 251.599606 
L 251.812963 251.617374 
L 250.673596 251.627748 
L 249.534228 251.629302 
L 248.39486 251.621439 
L 247.255493 251.603844 
L 246.116125 251.575789 
L 244.976757 251.535367 
L 243.83739 251.47869 
L 242.698022 251.39897 
L 241.558654 251.285466 
L 240.419287 251.122447 
L 239.279919 250.888623 
L 238.140551 250.557884 
L 237.001184 250.102295 
L 235.861816 249.497996 
L 234.722449 248.733789 
L 233.583081 247.820805 
L 232.443713 246.800348 
L 231.304346 245.746393 
L 230.164978 244.759933 
L 229.02561 243.954533 
L 227.886243 243.435475 
L 226.746875 243.277654 
z
" style="fill:#ff0000;fill-opacity:0.75;"/>
   </g>
   <g id="PolyCollection_4">
    <path clip-path="url(#p280ded6d5b)" d="M 226.749733 208.887066 
L 226.749733 226.08236 
L 227.714392 226.009928 
L 228.67905 225.60061 
L 229.643708 224.907884 
L 230.608367 224.014767 
L 231.573025 223.017784 
L 232.537683 222.010163 
L 233.502342 221.068255 
L 234.467 220.243697 
L 235.431658 219.561909 
L 236.396317 219.025766 
L 237.360975 218.622223 
L 238.325633 218.329605 
L 239.290292 218.123763 
L 240.25495 217.982241 
L 241.219608 217.886367 
L 242.184267 217.821741 
L 243.148925 217.777806 
L 244.113583 217.747075 
L 245.078242 217.7244 
L 246.0429 217.706455 
L 247.007558 217.6914 
L 247.972217 217.678649 
L 248.936875 217.668626 
L 249.901533 217.662461 
L 250.866192 217.661581 
L 251.83085 217.66726 
L 252.795508 217.680179 
L 253.760167 217.700082 
L 254.724825 217.72562 
L 255.689483 217.754395 
L 256.654142 217.78324 
L 257.6188 217.808659 
L 258.583458 217.827352 
L 259.548117 217.836718 
L 260.512775 217.835234 
L 261.477433 217.822646 
L 262.442092 217.799934 
L 263.40675 217.769098 
L 264.371408 217.732791 
L 265.336067 217.693912 
L 266.300725 217.655205 
L 267.265383 217.618954 
L 268.230042 217.586792 
L 269.1947 217.559647 
L 270.159358 217.53779 
L 271.124017 217.520971 
L 272.088675 217.508588 
L 273.053333 217.49986 
L 274.017992 217.493966 
L 274.98265 217.490154 
L 275.947308 217.487791 
L 276.911967 217.486387 
L 277.876625 217.485589 
L 278.841283 217.485153 
L 279.805942 217.484926 
L 280.7706 217.484812 
L 281.735258 217.484757 
L 282.699917 217.484732 
L 283.664575 217.484721 
L 284.629233 217.484716 
L 285.593892 217.484714 
L 286.55855 217.484714 
L 287.523208 217.484713 
L 288.487867 217.484713 
L 289.452525 217.484713 
L 290.417183 217.484713 
L 291.381842 217.484713 
L 292.3465 217.484713 
L 293.311158 217.484713 
L 294.275817 217.484713 
L 295.240475 217.484713 
L 296.205133 217.484713 
L 297.169792 217.484713 
L 298.13445 217.484713 
L 299.099108 217.484714 
L 300.063767 217.484714 
L 301.028425 217.484716 
L 301.993083 217.484721 
L 302.957742 217.484732 
L 303.9224 217.484757 
L 304.887058 217.48481 
L 305.851717 217.484916 
L 306.816375 217.485124 
L 307.781033 217.485509 
L 308.745692 217.486189 
L 309.71035 217.487338 
L 310.675008 217.489186 
L 311.639667 217.492017 
L 312.604325 217.496142 
L 313.568983 217.501849 
L 314.533642 217.509335 
L 315.4983 217.518614 
L 316.462958 217.529441 
L 317.427617 217.541263 
L 318.392275 217.553225 
L 319.356933 217.564252 
L 320.321592 217.573199 
L 321.28625 217.579044 
L 322.250908 217.581076 
L 322.250908 217.38835 
L 322.250908 217.38835 
L 321.28625 217.390383 
L 320.321592 217.396227 
L 319.356933 217.405175 
L 318.392275 217.416202 
L 317.427617 217.428164 
L 316.462958 217.439985 
L 315.4983 217.450813 
L 314.533642 217.460091 
L 313.568983 217.467577 
L 312.604325 217.473285 
L 311.639667 217.47741 
L 310.675008 217.48024 
L 309.71035 217.482088 
L 308.745692 217.483237 
L 307.781033 217.483918 
L 306.816375 217.484303 
L 305.851717 217.48451 
L 304.887058 217.484617 
L 303.9224 217.484669 
L 302.957742 217.484694 
L 301.993083 217.484705 
L 301.028425 217.48471 
L 300.063767 217.484712 
L 299.099108 217.484713 
L 298.13445 217.484713 
L 297.169792 217.484713 
L 296.205133 217.484713 
L 295.240475 217.484713 
L 294.275817 217.484713 
L 293.311158 217.484713 
L 292.3465 217.484713 
L 291.381842 217.484713 
L 290.417183 217.484713 
L 289.452525 217.484713 
L 288.487867 217.484713 
L 287.523208 217.484713 
L 286.55855 217.484713 
L 285.593892 217.484712 
L 284.629233 217.48471 
L 283.664575 217.484706 
L 282.699917 217.484695 
L 281.735258 217.484669 
L 280.7706 217.484615 
L 279.805942 217.484501 
L 278.841283 217.484273 
L 277.876625 217.483838 
L 276.911967 217.483039 
L 275.947308 217.481636 
L 274.98265 217.479273 
L 274.017992 217.47546 
L 273.053333 217.469567 
L 272.088675 217.460838 
L 271.124017 217.448456 
L 270.159358 217.431637 
L 269.1947 217.409779 
L 268.230042 217.382634 
L 267.265383 217.350473 
L 266.300725 217.314221 
L 265.336067 217.275514 
L 264.371408 217.236635 
L 263.40675 217.200329 
L 262.442092 217.169492 
L 261.477433 217.146781 
L 260.512775 217.134192 
L 259.548117 217.132709 
L 258.583458 217.142075 
L 257.6188 217.160768 
L 256.654142 217.186187 
L 255.689483 217.215032 
L 254.724825 217.243807 
L 253.760167 217.269344 
L 252.795508 217.289248 
L 251.83085 217.302166 
L 250.866192 217.307846 
L 249.901533 217.306966 
L 248.936875 217.3008 
L 247.972217 217.290778 
L 247.007558 217.278026 
L 246.0429 217.262971 
L 245.078242 217.245027 
L 244.113583 217.222352 
L 243.148925 217.19162 
L 242.184267 217.147686 
L 241.219608 217.08306 
L 240.25495 216.987185 
L 239.290292 216.845664 
L 238.325633 216.639822 
L 237.360975 216.347203 
L 236.396317 215.943661 
L 235.431658 215.407517 
L 234.467 214.72573 
L 233.502342 213.901171 
L 232.537683 212.959264 
L 231.573025 211.951643 
L 230.608367 210.954659 
L 229.643708 210.061543 
L 228.67905 209.368817 
L 227.714392 208.959498 
L 226.749733 208.887066 
z
" style="fill:#ff0000;fill-opacity:0.75;"/>
   </g>
   <g id="PolyCollection_5">
    <path clip-path="url(#p280ded6d5b)" d="M 226.749733 174.496478 
L 226.749733 191.691772 
L 227.714392 191.61934 
L 228.67905 191.210022 
L 229.643708 190.517297 
L 230.608367 189.62418 
L 231.573025 188.627196 
L 232.537683 187.619576 
L 233.502342 186.677668 
L 234.467 185.853109 
L 235.431658 185.171321 
L 236.396317 184.635178 
L 237.360975 184.231635 
L 238.325633 183.939016 
L 239.290292 183.733174 
L 240.25495 183.591653 
L 241.219608 183.495779 
L 242.184267 183.431153 
L 243.148925 183.387218 
L 244.113583 183.356486 
L 245.078242 183.333811 
L 246.0429 183.315867 
L 247.007558 183.300812 
L 247.972217 183.28806 
L 248.936875 183.278038 
L 249.901533 183.271872 
L 250.866192 183.270993 
L 251.83085 183.276672 
L 252.795508 183.28959 
L 253.760167 183.309494 
L 254.724825 183.335032 
L 255.689483 183.363807 
L 256.654142 183.392652 
L 257.6188 183.418071 
L 258.583458 183.436764 
L 259.548117 183.44613 
L 260.512775 183.444646 
L 261.477433 183.432057 
L 262.442092 183.409346 
L 263.40675 183.378509 
L 264.371408 183.342203 
L 265.336067 183.303324 
L 266.300725 183.264617 
L 267.265383 183.228365 
L 268.230042 183.196204 
L 269.1947 183.169059 
L 270.159358 183.147202 
L 271.124017 183.130383 
L 272.088675 183.118 
L 273.053333 183.109271 
L 274.017992 183.103378 
L 274.98265 183.099566 
L 275.947308 183.097203 
L 276.911967 183.095799 
L 277.876625 183.095001 
L 278.841283 183.094565 
L 279.805942 183.094337 
L 280.7706 183.094223 
L 281.735258 183.094169 
L 282.699917 183.094144 
L 283.664575 183.094133 
L 284.629233 183.094128 
L 285.593892 183.094126 
L 286.55855 183.094125 
L 287.523208 183.094125 
L 288.487867 183.094125 
L 289.452525 183.094125 
L 290.417183 183.094125 
L 291.381842 183.094125 
L 292.3465 183.094125 
L 293.311158 183.094125 
L 294.275817 183.094125 
L 295.240475 183.094125 
L 296.205133 183.094125 
L 297.169792 183.094125 
L 298.13445 183.094125 
L 299.099108 183.094125 
L 300.063767 183.094126 
L 301.028425 183.094128 
L 301.993083 183.094133 
L 302.957742 183.094144 
L 303.9224 183.094169 
L 304.887058 183.094221 
L 305.851717 183.094328 
L 306.816375 183.094536 
L 307.781033 183.09492 
L 308.745692 183.095601 
L 309.71035 183.09675 
L 310.675008 183.098598 
L 311.639667 183.101429 
L 312.604325 183.105553 
L 313.568983 183.111261 
L 314.533642 183.118747 
L 315.4983 183.128026 
L 316.462958 183.138853 
L 317.427617 183.150675 
L 318.392275 183.162636 
L 319.356933 183.173664 
L 320.321592 183.182611 
L 321.28625 183.188456 
L 322.250908 183.190488 
L 322.250908 182.997762 
L 322.250908 182.997762 
L 321.28625 182.999794 
L 320.321592 183.005639 
L 319.356933 183.014586 
L 318.392275 183.025614 
L 317.427617 183.037575 
L 316.462958 183.049397 
L 315.4983 183.060224 
L 314.533642 183.069503 
L 313.568983 183.076989 
L 312.604325 183.082697 
L 311.639667 183.086821 
L 310.675008 183.089652 
L 309.71035 183.0915 
L 308.745692 183.092649 
L 307.781033 183.09333 
L 306.816375 183.093714 
L 305.851717 183.093922 
L 304.887058 183.094029 
L 303.9224 183.094081 
L 302.957742 183.094106 
L 301.993083 183.094117 
L 301.028425 183.094122 
L 300.063767 183.094124 
L 299.099108 183.094125 
L 298.13445 183.094125 
L 297.169792 183.094125 
L 296.205133 183.094125 
L 295.240475 183.094125 
L 294.275817 183.094125 
L 293.311158 183.094125 
L 292.3465 183.094125 
L 291.381842 183.094125 
L 290.417183 183.094125 
L 289.452525 183.094125 
L 288.487867 183.094125 
L 287.523208 183.094125 
L 286.55855 183.094125 
L 285.593892 183.094124 
L 284.629233 183.094122 
L 283.664575 183.094117 
L 282.699917 183.094106 
L 281.735258 183.094081 
L 280.7706 183.094027 
L 279.805942 183.093913 
L 278.841283 183.093685 
L 277.876625 183.093249 
L 276.911967 183.092451 
L 275.947308 183.091047 
L 274.98265 183.088684 
L 274.017992 183.084872 
L 273.053333 183.078979 
L 272.088675 183.07025 
L 271.124017 183.057867 
L 270.159358 183.041048 
L 269.1947 183.019191 
L 268.230042 182.992046 
L 267.265383 182.959885 
L 266.300725 182.923633 
L 265.336067 182.884926 
L 264.371408 182.846047 
L 263.40675 182.809741 
L 262.442092 182.778904 
L 261.477433 182.756193 
L 260.512775 182.743604 
L 259.548117 182.74212 
L 258.583458 182.751486 
L 257.6188 182.770179 
L 256.654142 182.795598 
L 255.689483 182.824443 
L 254.724825 182.853218 
L 253.760167 182.878756 
L 252.795508 182.89866 
L 251.83085 182.911578 
L 250.866192 182.917257 
L 249.901533 182.916378 
L 248.936875 182.910212 
L 247.972217 182.90019 
L 247.007558 182.887438 
L 246.0429 182.872383 
L 245.078242 182.854439 
L 244.113583 182.831764 
L 243.148925 182.801032 
L 242.184267 182.757097 
L 241.219608 182.692471 
L 240.25495 182.596597 
L 239.290292 182.455076 
L 238.325633 182.249234 
L 237.360975 181.956615 
L 236.396317 181.553072 
L 235.431658 181.016929 
L 234.467 180.335141 
L 233.502342 179.510582 
L 232.537683 178.568674 
L 231.573025 177.561054 
L 230.608367 176.56407 
L 229.643708 175.670953 
L 228.67905 174.978228 
L 227.714392 174.56891 
L 226.749733 174.496478 
z
" style="fill:#ff0000;fill-opacity:0.75;"/>
   </g>
   <g id="PolyCollection_6">
    <path clip-path="url(#p280ded6d5b)" d="M 226.752088 140.106639 
L 226.752088 157.300435 
L 230.031548 157.301184 
L 233.311009 157.122092 
L 236.590469 156.776263 
L 239.86993 156.286707 
L 243.14939 155.683835 
L 246.428851 155.002341 
L 249.708312 154.277934 
L 252.987772 153.54433 
L 256.267233 152.830839 
L 259.546693 152.160768 
L 262.826154 151.550695 
L 266.105614 151.010535 
L 269.385075 150.544242 
L 272.664535 150.150911 
L 275.943996 149.826071 
L 279.223457 149.562958 
L 282.502917 149.353644 
L 285.782378 149.189924 
L 289.061838 149.063957 
L 292.341299 148.968657 
L 295.620759 148.897888 
L 298.90022 148.846508 
L 302.179681 148.810316 
L 305.459141 148.785944 
L 308.738602 148.770719 
L 312.018062 148.762529 
L 315.297523 148.759694 
L 318.576983 148.760858 
L 321.856444 148.764903 
L 325.135905 148.770884 
L 328.415365 148.777991 
L 331.694826 148.785527 
L 334.974286 148.792909 
L 338.253747 148.799671 
L 341.533207 148.805482 
L 344.812668 148.810148 
L 348.092129 148.813621 
L 351.371589 148.81598 
L 354.65105 148.817405 
L 357.93051 148.818137 
L 361.209971 148.818432 
L 364.489431 148.818511 
L 367.768892 148.818519 
L 371.048353 148.818501 
L 374.327813 148.818388 
L 377.607274 148.818017 
L 380.886734 148.817151 
L 384.166195 148.815528 
L 387.445655 148.812906 
L 390.725116 148.809104 
L 394.004577 148.804041 
L 397.284037 148.797752 
L 400.563498 148.790387 
L 403.842958 148.782205 
L 407.122419 148.773541 
L 410.401879 148.764775 
L 413.68134 148.756298 
L 416.960801 148.748484 
L 420.240261 148.741663 
L 423.519722 148.736108 
L 426.799182 148.732029 
L 430.078643 148.72957 
L 433.358103 148.728812 
L 436.637564 148.729776 
L 439.917025 148.73242 
L 443.196485 148.736642 
L 446.475946 148.742269 
L 449.755406 148.749056 
L 453.034867 148.756688 
L 456.314327 148.764779 
L 459.593788 148.772895 
L 462.873249 148.780568 
L 466.152709 148.787336 
L 469.43217 148.792777 
L 472.71163 148.796552 
L 475.991091 148.798438 
L 479.270551 148.798359 
L 482.550012 148.796399 
L 485.829473 148.792804 
L 489.108933 148.787972 
L 492.388394 148.782418 
L 495.667854 148.776744 
L 498.947315 148.771592 
L 502.226775 148.767597 
L 505.506236 148.765346 
L 508.785697 148.765331 
L 512.065157 148.767912 
L 515.344618 148.773286 
L 518.624078 148.781457 
L 521.903539 148.792224 
L 525.182999 148.805174 
L 528.46246 148.819695 
L 531.74192 148.835002 
L 535.021381 148.850188 
L 538.300842 148.864284 
L 541.580302 148.87634 
L 544.859763 148.885505 
L 548.139223 148.891106 
L 551.418684 148.892709 
L 551.418684 148.514365 
L 551.418684 148.514365 
L 548.139223 148.515968 
L 544.859763 148.521568 
L 541.580302 148.530733 
L 538.300842 148.542789 
L 535.021381 148.556885 
L 531.74192 148.572071 
L 528.46246 148.587379 
L 525.182999 148.6019 
L 521.903539 148.61485 
L 518.624078 148.625617 
L 515.344618 148.633788 
L 512.065157 148.639161 
L 508.785697 148.641742 
L 505.506236 148.641727 
L 502.226775 148.639476 
L 498.947315 148.635482 
L 495.667854 148.630329 
L 492.388394 148.624655 
L 489.108933 148.619101 
L 485.829473 148.614269 
L 482.550012 148.610675 
L 479.270551 148.608715 
L 475.991091 148.608635 
L 472.71163 148.610521 
L 469.43217 148.614296 
L 466.152709 148.619738 
L 462.873249 148.626506 
L 459.593788 148.634179 
L 456.314327 148.642294 
L 453.034867 148.650386 
L 449.755406 148.658017 
L 446.475946 148.664805 
L 443.196485 148.670431 
L 439.917025 148.674653 
L 436.637564 148.677298 
L 433.358103 148.678262 
L 430.078643 148.677504 
L 426.799182 148.675044 
L 423.519722 148.670965 
L 420.240261 148.66541 
L 416.960801 148.658589 
L 413.68134 148.650775 
L 410.401879 148.642299 
L 407.122419 148.633532 
L 403.842958 148.624868 
L 400.563498 148.616686 
L 397.284037 148.609322 
L 394.004577 148.603032 
L 390.725116 148.59797 
L 387.445655 148.594168 
L 384.166195 148.591546 
L 380.886734 148.589923 
L 377.607274 148.589057 
L 374.327813 148.588685 
L 371.048353 148.588573 
L 367.768892 148.588554 
L 364.489431 148.588563 
L 361.209971 148.588641 
L 357.93051 148.588936 
L 354.65105 148.589669 
L 351.371589 148.591093 
L 348.092129 148.593452 
L 344.812668 148.596925 
L 341.533207 148.601592 
L 338.253747 148.607402 
L 334.974286 148.614164 
L 331.694826 148.621546 
L 328.415365 148.629083 
L 325.135905 148.63619 
L 321.856444 148.642171 
L 318.576983 148.646216 
L 315.297523 148.64738 
L 312.018062 148.644545 
L 308.738602 148.636355 
L 305.459141 148.62113 
L 302.179681 148.596757 
L 298.90022 148.560566 
L 295.620759 148.509186 
L 292.341299 148.438416 
L 289.061838 148.343117 
L 285.782378 148.21715 
L 282.502917 148.05343 
L 279.223457 147.844115 
L 275.943996 147.581003 
L 272.664535 147.256163 
L 269.385075 146.862832 
L 266.105614 146.396539 
L 262.826154 145.856379 
L 259.546693 145.246306 
L 256.267233 144.576235 
L 252.987772 143.862743 
L 249.708312 143.129139 
L 246.428851 142.404733 
L 243.14939 141.723239 
L 239.86993 141.120366 
L 236.590469 140.630811 
L 233.311009 140.284982 
L 230.031548 140.10589 
L 226.752088 140.106639 
z
" style="fill:#ff0000;fill-opacity:0.75;"/>
   </g>
   <g id="PolyCollection_7">
    <path clip-path="url(#p280ded6d5b)" d="M 226.75429 106.001458 
L 226.75429 122.624439 
L 227.805735 122.910596 
L 228.857181 122.824265 
L 229.908627 122.380757 
L 230.960072 121.640837 
L 232.011518 120.697527 
L 233.062963 119.657251 
L 234.114409 118.620554 
L 235.165855 117.667147 
L 236.2173 116.848039 
L 237.268746 116.185067 
L 238.320191 115.67607 
L 239.371637 115.302943 
L 240.423083 115.03986 
L 241.474528 114.859838 
L 242.525974 114.738876 
L 243.577419 114.657828 
L 244.628865 114.602655 
L 245.680311 114.563795 
L 246.731756 114.535249 
L 247.783202 114.513704 
L 248.834648 114.497801 
L 249.886093 114.487514 
L 250.937539 114.483595 
L 251.988984 114.487012 
L 253.04043 114.498416 
L 254.091876 114.517691 
L 255.143321 114.543649 
L 256.194767 114.573961 
L 257.246212 114.605326 
L 258.297658 114.633891 
L 259.349104 114.655803 
L 260.400549 114.667828 
L 261.451995 114.667871 
L 262.50344 114.655316 
L 263.554886 114.631096 
L 264.606332 114.597492 
L 265.657777 114.557706 
L 266.709223 114.5153 
L 267.760668 114.473644 
L 268.812114 114.435461 
L 269.86356 114.402568 
L 270.915005 114.375821 
L 271.966451 114.355229 
L 273.017897 114.340191 
L 274.069342 114.329761 
L 275.120788 114.322882 
L 276.172233 114.318566 
L 277.223679 114.315988 
L 278.275125 114.314522 
L 279.32657 114.313727 
L 280.378016 114.313317 
L 281.429461 114.313115 
L 282.480907 114.313021 
L 283.532353 114.312978 
L 284.583798 114.31296 
L 285.635244 114.312953 
L 286.686689 114.31295 
L 287.738135 114.312949 
L 288.789581 114.312949 
L 289.841026 114.312949 
L 290.892472 114.312949 
L 291.943917 114.312949 
L 292.995363 114.312949 
L 294.046809 114.312949 
L 295.098254 114.312949 
L 296.1497 114.312949 
L 297.201146 114.312949 
L 298.252591 114.312949 
L 299.304037 114.312949 
L 300.355482 114.312949 
L 301.406928 114.312949 
L 302.458374 114.312949 
L 303.509819 114.312949 
L 304.561265 114.312949 
L 305.61271 114.312949 
L 306.664156 114.312949 
L 307.715602 114.31295 
L 308.767047 114.312952 
L 309.818493 114.312958 
L 310.869938 114.312972 
L 311.921384 114.313004 
L 312.97283 114.313072 
L 314.024275 114.313212 
L 315.075721 114.313487 
L 316.127167 114.314 
L 317.178612 114.314908 
L 318.230058 114.316435 
L 319.281503 114.318873 
L 320.332949 114.322563 
L 321.384395 114.327847 
L 322.43584 114.334995 
L 323.487286 114.344102 
L 324.538731 114.354988 
L 325.590177 114.367122 
L 326.641623 114.379613 
L 327.693068 114.391287 
L 328.744514 114.400858 
L 329.795959 114.407152 
L 330.847405 114.409349 
L 330.847405 114.216548 
L 330.847405 114.216548 
L 329.795959 114.218745 
L 328.744514 114.22504 
L 327.693068 114.23461 
L 326.641623 114.246284 
L 325.590177 114.258775 
L 324.538731 114.270909 
L 323.487286 114.281795 
L 322.43584 114.290902 
L 321.384395 114.29805 
L 320.332949 114.303334 
L 319.281503 114.307024 
L 318.230058 114.309462 
L 317.178612 114.310989 
L 316.127167 114.311897 
L 315.075721 114.31241 
L 314.024275 114.312685 
L 312.97283 114.312825 
L 311.921384 114.312894 
L 310.869938 114.312925 
L 309.818493 114.312939 
L 308.767047 114.312945 
L 307.715602 114.312947 
L 306.664156 114.312948 
L 305.61271 114.312948 
L 304.561265 114.312948 
L 303.509819 114.312949 
L 302.458374 114.312949 
L 301.406928 114.312949 
L 300.355482 114.312949 
L 299.304037 114.312949 
L 298.252591 114.312949 
L 297.201146 114.312949 
L 296.1497 114.312949 
L 295.098254 114.312949 
L 294.046809 114.312949 
L 292.995363 114.312949 
L 291.943917 114.312949 
L 290.892472 114.312949 
L 289.841026 114.312948 
L 288.789581 114.312948 
L 287.738135 114.312948 
L 286.686689 114.312947 
L 285.635244 114.312944 
L 284.583798 114.312937 
L 283.532353 114.312919 
L 282.480907 114.312876 
L 281.429461 114.312782 
L 280.378016 114.31258 
L 279.32657 114.31217 
L 278.275125 114.311375 
L 277.223679 114.309909 
L 276.172233 114.307331 
L 275.120788 114.303015 
L 274.069342 114.296136 
L 273.017897 114.285706 
L 271.966451 114.270668 
L 270.915005 114.250076 
L 269.86356 114.223329 
L 268.812114 114.190436 
L 267.760668 114.152253 
L 266.709223 114.110597 
L 265.657777 114.068191 
L 264.606332 114.028405 
L 263.554886 113.994801 
L 262.50344 113.970581 
L 261.451995 113.958026 
L 260.400549 113.958069 
L 259.349104 113.970094 
L 258.297658 113.992006 
L 257.246212 114.020571 
L 256.194767 114.051936 
L 255.143321 114.082248 
L 254.091876 114.108206 
L 253.04043 114.127481 
L 251.988984 114.138885 
L 250.937539 114.142302 
L 249.886093 114.138383 
L 248.834648 114.128096 
L 247.783202 114.112193 
L 246.731756 114.090648 
L 245.680311 114.062102 
L 244.628865 114.023242 
L 243.577419 113.968069 
L 242.525974 113.887021 
L 241.474528 113.766059 
L 240.423083 113.586037 
L 239.371637 113.322954 
L 238.320191 112.949827 
L 237.268746 112.44083 
L 236.2173 111.777858 
L 235.165855 110.95875 
L 234.114409 110.005343 
L 233.062963 108.968646 
L 232.011518 107.92837 
L 230.960072 106.98506 
L 229.908627 106.245141 
L 228.857181 105.801632 
L 227.805735 105.715301 
L 226.75429 106.001458 
z
" style="fill:#ff0000;fill-opacity:0.75;"/>
   </g>
   <g id="PolyCollection_8">
    <path clip-path="url(#p280ded6d5b)" d="M 228.483047 73.797455 
L 228.483047 86.047265 
L 231.823 87.03458 
L 235.162952 87.824821 
L 238.502905 88.336345 
L 241.842858 88.520007 
L 245.18281 88.366555 
L 248.522763 87.905659 
L 251.862716 87.197762 
L 255.202668 86.321713 
L 258.542621 85.361576 
L 261.882574 84.395286 
L 265.222527 83.486594 
L 268.562479 82.6806 
L 271.902432 82.002553 
L 275.242385 81.459353 
L 278.582337 81.043095 
L 281.92229 80.735918 
L 285.262243 80.515242 
L 288.602195 80.358455 
L 291.942148 80.246281 
L 295.282101 80.164458 
L 298.622054 80.103823 
L 301.962006 80.059287 
L 305.301959 80.028321 
L 308.641912 80.009491 
L 311.981864 80.001373 
L 315.321817 80.001959 
L 318.66177 80.008515 
L 322.001723 80.017792 
L 325.341675 80.02648 
L 328.681628 80.031756 
L 332.021581 80.031776 
L 335.361533 80.025966 
L 338.701486 80.015001 
L 342.041439 80.000492 
L 345.381391 79.984479 
L 348.721344 79.968907 
L 352.061297 79.955229 
L 355.40125 79.944231 
L 358.741202 79.936074 
L 362.081155 79.930463 
L 365.421108 79.926871 
L 368.76106 79.924727 
L 372.101013 79.92353 
L 375.440966 79.922905 
L 378.780918 79.922599 
L 382.120871 79.922459 
L 385.460824 79.922399 
L 388.800777 79.922374 
L 392.140729 79.922365 
L 395.480682 79.922362 
L 398.820635 79.922361 
L 402.160587 79.92236 
L 405.50054 79.92236 
L 408.840493 79.92236 
L 412.180446 79.92236 
L 415.520398 79.92236 
L 418.860351 79.92236 
L 422.200304 79.92236 
L 425.540256 79.92236 
L 428.880209 79.92236 
L 432.220162 79.92236 
L 435.560114 79.92236 
L 438.900067 79.92236 
L 442.24002 79.92236 
L 445.579973 79.92236 
L 448.919925 79.92236 
L 452.259878 79.92236 
L 455.599831 79.92236 
L 458.939783 79.92236 
L 462.279736 79.92236 
L 465.619689 79.92236 
L 468.959641 79.92236 
L 472.299594 79.92236 
L 475.639547 79.92236 
L 478.9795 79.92236 
L 482.319452 79.92236 
L 485.659405 79.92236 
L 488.999358 79.922361 
L 492.33931 79.922361 
L 495.679263 79.922363 
L 499.019216 79.922367 
L 502.359169 79.922381 
L 505.699121 79.922414 
L 509.039074 79.922496 
L 512.379027 79.922682 
L 515.718979 79.923078 
L 519.058932 79.923869 
L 522.398885 79.925349 
L 525.738837 79.92794 
L 529.07879 79.932175 
L 532.418743 79.938629 
L 535.758696 79.947769 
L 539.098648 79.959755 
L 542.438601 79.974217 
L 545.778554 79.990123 
L 549.118506 80.005796 
L 552.458459 80.019166 
L 555.798412 80.028195 
L 559.138364 80.031388 
L 559.138364 79.813333 
L 559.138364 79.813333 
L 555.798412 79.816526 
L 552.458459 79.825555 
L 549.118506 79.838924 
L 545.778554 79.854598 
L 542.438601 79.870503 
L 539.098648 79.884966 
L 535.758696 79.896951 
L 532.418743 79.906092 
L 529.07879 79.912545 
L 525.738837 79.916781 
L 522.398885 79.919371 
L 519.058932 79.920852 
L 515.718979 79.921643 
L 512.379027 79.922039 
L 509.039074 79.922224 
L 505.699121 79.922306 
L 502.359169 79.92234 
L 499.019216 79.922353 
L 495.679263 79.922358 
L 492.33931 79.92236 
L 488.999358 79.92236 
L 485.659405 79.92236 
L 482.319452 79.92236 
L 478.9795 79.92236 
L 475.639547 79.92236 
L 472.299594 79.92236 
L 468.959641 79.92236 
L 465.619689 79.92236 
L 462.279736 79.92236 
L 458.939783 79.92236 
L 455.599831 79.92236 
L 452.259878 79.92236 
L 448.919925 79.92236 
L 445.579973 79.92236 
L 442.24002 79.92236 
L 438.900067 79.92236 
L 435.560114 79.92236 
L 432.220162 79.92236 
L 428.880209 79.92236 
L 425.540256 79.92236 
L 422.200304 79.92236 
L 418.860351 79.92236 
L 415.520398 79.92236 
L 412.180446 79.92236 
L 408.840493 79.92236 
L 405.50054 79.92236 
L 402.160587 79.92236 
L 398.820635 79.92236 
L 395.480682 79.922359 
L 392.140729 79.922355 
L 388.800777 79.922346 
L 385.460824 79.922322 
L 382.120871 79.922261 
L 378.780918 79.922121 
L 375.440966 79.921815 
L 372.101013 79.921191 
L 368.76106 79.919994 
L 365.421108 79.917849 
L 362.081155 79.914258 
L 358.741202 79.908647 
L 355.40125 79.900489 
L 352.061297 79.889492 
L 348.721344 79.875814 
L 345.381391 79.860242 
L 342.041439 79.844229 
L 338.701486 79.82972 
L 335.361533 79.818754 
L 332.021581 79.812944 
L 328.681628 79.812965 
L 325.341675 79.81824 
L 322.001723 79.826929 
L 318.66177 79.836206 
L 315.321817 79.842762 
L 311.981864 79.843348 
L 308.641912 79.83523 
L 305.301959 79.816399 
L 301.962006 79.785434 
L 298.622054 79.740898 
L 295.282101 79.680263 
L 291.942148 79.59844 
L 288.602195 79.486266 
L 285.262243 79.329478 
L 281.92229 79.108802 
L 278.582337 78.801626 
L 275.242385 78.385368 
L 271.902432 77.842167 
L 268.562479 77.164121 
L 265.222527 76.358127 
L 261.882574 75.449435 
L 258.542621 74.483145 
L 255.202668 73.523007 
L 251.862716 72.646958 
L 248.522763 71.939062 
L 245.18281 71.478165 
L 241.842858 71.324713 
L 238.502905 71.508375 
L 235.162952 72.0199 
L 231.823 72.810141 
L 228.483047 73.797455 
z
" style="fill:#ff0000;fill-opacity:0.75;"/>
   </g>
   <g id="PolyCollection_9">
    <path clip-path="url(#p280ded6d5b)" d="M 226.746875 37.815512 
L 226.746875 53.248032 
L 227.795076 53.83328 
L 228.843277 54.129419 
L 229.891479 54.108215 
L 230.93968 53.777032 
L 231.987881 53.176826 
L 233.036082 52.374168 
L 234.084284 51.449397 
L 235.132485 50.483791 
L 236.180686 49.5485 
L 237.228887 48.697185 
L 238.277089 47.963058 
L 239.32529 47.35989 
L 240.373491 46.885747 
L 241.421692 46.527991 
L 242.469893 46.268234 
L 243.518095 46.086395 
L 244.566296 45.963522 
L 245.614497 45.883382 
L 246.662698 45.83311 
L 247.7109 45.803188 
L 248.759101 45.787042 
L 249.807302 45.780443 
L 250.855503 45.780829 
L 251.903705 45.786617 
L 252.951906 45.796593 
L 254.000107 45.809421 
L 255.048308 45.823359 
L 256.096509 45.836211 
L 257.144711 45.845537 
L 258.192912 45.849038 
L 259.241113 45.845033 
L 260.289314 45.832868 
L 261.337516 45.813141 
L 262.385717 45.787654 
L 263.433918 45.759091 
L 264.482119 45.730493 
L 265.530321 45.704662 
L 266.578522 45.683634 
L 267.626723 45.668345 
L 268.674924 45.658552 
L 269.723125 45.653017 
L 270.771327 45.649884 
L 271.819528 45.647151 
L 272.867729 45.643107 
L 273.91593 45.636659 
L 274.964132 45.627462 
L 276.012333 45.615875 
L 277.060534 45.602757 
L 278.108735 45.589195 
L 279.156937 45.576244 
L 280.205138 45.564723 
L 281.253339 45.555121 
L 282.30154 45.547591 
L 283.349741 45.542018 
L 284.397943 45.538116 
L 285.446144 45.535527 
L 286.494345 45.533896 
L 287.542546 45.532921 
L 288.590748 45.532366 
L 289.638949 45.532065 
L 290.68715 45.531911 
L 291.735351 45.531835 
L 292.783553 45.531799 
L 293.831754 45.531783 
L 294.879955 45.531776 
L 295.928156 45.531774 
L 296.976357 45.531773 
L 298.024559 45.531772 
L 299.07276 45.531772 
L 300.120961 45.531772 
L 301.169162 45.531772 
L 302.217364 45.531772 
L 303.265565 45.531772 
L 304.313766 45.531772 
L 305.361967 45.531772 
L 306.410169 45.531773 
L 307.45837 45.531774 
L 308.506571 45.531777 
L 309.554772 45.531784 
L 310.602973 45.531802 
L 311.651175 45.53184 
L 312.699376 45.531923 
L 313.747577 45.532089 
L 314.795778 45.532411 
L 315.84398 45.533002 
L 316.892181 45.534036 
L 317.940382 45.535754 
L 318.988583 45.538466 
L 320.036785 45.542529 
L 321.084986 45.548295 
L 322.133187 45.55603 
L 323.181388 45.565814 
L 324.229589 45.577432 
L 325.277791 45.590312 
L 326.325992 45.603509 
L 327.374193 45.615798 
L 328.422394 45.625845 
L 329.470596 45.632441 
L 330.518797 45.63474 
L 330.518797 45.428804 
L 330.518797 45.428804 
L 329.470596 45.431104 
L 328.422394 45.437699 
L 327.374193 45.447746 
L 326.325992 45.460035 
L 325.277791 45.473232 
L 324.229589 45.486112 
L 323.181388 45.497731 
L 322.133187 45.507514 
L 321.084986 45.515249 
L 320.036785 45.521015 
L 318.988583 45.525078 
L 317.940382 45.527791 
L 316.892181 45.529508 
L 315.84398 45.530542 
L 314.795778 45.531133 
L 313.747577 45.531455 
L 312.699376 45.531622 
L 311.651175 45.531704 
L 310.602973 45.531742 
L 309.554772 45.53176 
L 308.506571 45.531767 
L 307.45837 45.53177 
L 306.410169 45.531771 
L 305.361967 45.531772 
L 304.313766 45.531772 
L 303.265565 45.531772 
L 302.217364 45.531772 
L 301.169162 45.531772 
L 300.120961 45.531772 
L 299.07276 45.531772 
L 298.024559 45.531772 
L 296.976357 45.531771 
L 295.928156 45.53177 
L 294.879955 45.531768 
L 293.831754 45.531761 
L 292.783553 45.531745 
L 291.735351 45.53171 
L 290.68715 45.531634 
L 289.638949 45.531479 
L 288.590748 45.531178 
L 287.542546 45.530623 
L 286.494345 45.529648 
L 285.446144 45.528017 
L 284.397943 45.525428 
L 283.349741 45.521526 
L 282.30154 45.515953 
L 281.253339 45.508423 
L 280.205138 45.498821 
L 279.156937 45.4873 
L 278.108735 45.474349 
L 277.060534 45.460787 
L 276.012333 45.447669 
L 274.964132 45.436082 
L 273.91593 45.426885 
L 272.867729 45.420437 
L 271.819528 45.416393 
L 270.771327 45.41366 
L 269.723125 45.410528 
L 268.674924 45.404993 
L 267.626723 45.395199 
L 266.578522 45.37991 
L 265.530321 45.358882 
L 264.482119 45.333052 
L 263.433918 45.304453 
L 262.385717 45.27589 
L 261.337516 45.250403 
L 260.289314 45.230676 
L 259.241113 45.218511 
L 258.192912 45.214506 
L 257.144711 45.218007 
L 256.096509 45.227333 
L 255.048308 45.240185 
L 254.000107 45.254123 
L 252.951906 45.266951 
L 251.903705 45.276927 
L 250.855503 45.282716 
L 249.807302 45.283101 
L 248.759101 45.276502 
L 247.7109 45.260356 
L 246.662698 45.230434 
L 245.614497 45.180162 
L 244.566296 45.100022 
L 243.518095 44.977149 
L 242.469893 44.795311 
L 241.421692 44.535553 
L 240.373491 44.177798 
L 239.32529 43.703654 
L 238.277089 43.100486 
L 237.228887 42.36636 
L 236.180686 41.515045 
L 235.132485 40.579754 
L 234.084284 39.614147 
L 233.036082 38.689377 
L 231.987881 37.886718 
L 230.93968 37.286513 
L 229.891479 36.955329 
L 228.843277 36.934125 
L 227.795076 37.230264 
L 226.746875 37.815512 
z
" style="fill:#ff0000;fill-opacity:0.75;"/>
   </g>
   <g id="LineCollection_1">
    <path clip-path="url(#p280ded6d5b)" d="M 229.919321 324.955301 
L 229.919321 316.357654 
" style="fill:none;stroke:#000000;stroke-width:1.5;"/>
    <path clip-path="url(#p280ded6d5b)" d="M 230.188382 290.564713 
L 230.188382 281.967066 
" style="fill:none;stroke:#000000;stroke-width:1.5;"/>
    <path clip-path="url(#p280ded6d5b)" d="M 230.036114 256.174125 
L 230.036114 247.576478 
" style="fill:none;stroke:#000000;stroke-width:1.5;"/>
    <path clip-path="url(#p280ded6d5b)" d="M 229.973999 221.783537 
L 229.973999 213.18589 
" style="fill:none;stroke:#000000;stroke-width:1.5;"/>
    <path clip-path="url(#p280ded6d5b)" d="M 229.973999 187.392949 
L 229.973999 178.795301 
" style="fill:none;stroke:#000000;stroke-width:1.5;"/>
    <path clip-path="url(#p280ded6d5b)" d="M 241.093601 153.00236 
L 241.093601 144.404713 
" style="fill:none;stroke:#000000;stroke-width:1.5;"/>
    <path clip-path="url(#p280ded6d5b)" d="M 231.008096 118.611772 
L 231.008096 110.014125 
" style="fill:none;stroke:#000000;stroke-width:1.5;"/>
    <path clip-path="url(#p280ded6d5b)" d="M 247.915081 84.221184 
L 247.915081 75.623537 
" style="fill:none;stroke:#000000;stroke-width:1.5;"/>
    <path clip-path="url(#p280ded6d5b)" d="M 232.249371 49.830596 
L 232.249371 41.232949 
" style="fill:none;stroke:#000000;stroke-width:1.5;"/>
   </g>
   <g id="patch_3">
    <path d="M 226.746875 343.870125 
L 226.746875 22.318125 
" style="fill:none;stroke:#000000;stroke-linecap:square;stroke-linejoin:miter;stroke-width:0.8;"/>
   </g>
   <g id="patch_4">
    <path d="M 617.346875 343.870125 
L 617.346875 22.318125 
" style="fill:none;stroke:#000000;stroke-linecap:square;stroke-linejoin:miter;stroke-width:0.8;"/>
   </g>
   <g id="patch_5">
    <path d="M 226.746875 343.870125 
L 617.346875 343.870125 
" style="fill:none;stroke:#000000;stroke-linecap:square;stroke-linejoin:miter;stroke-width:0.8;"/>
   </g>
   <g id="patch_6">
    <path d="M 226.746875 22.318125 
L 617.346875 22.318125 
" style="fill:none;stroke:#000000;stroke-linecap:square;stroke-linejoin:miter;stroke-width:0.8;"/>
   </g>
   <g id="text_18">
    <!-- AOE2 for 0.1 -->
    <g transform="translate(384.005938 16.318125)scale(0.12 -0.12)">
     <use xlink:href="#DejaVuSans-41"/>
     <use x="68.392578" xlink:href="#DejaVuSans-4f"/>
     <use x="147.103516" xlink:href="#DejaVuSans-45"/>
     <use x="210.287109" xlink:href="#DejaVuSans-32"/>
     <use x="273.910156" xlink:href="#DejaVuSans-20"/>
     <use x="305.697266" xlink:href="#DejaVuSans-66"/>
     <use x="340.902344" xlink:href="#DejaVuSans-6f"/>
     <use x="402.083984" xlink:href="#DejaVuSans-72"/>
     <use x="443.197266" xlink:href="#DejaVuSans-20"/>
     <use x="474.984375" xlink:href="#DejaVuSans-30"/>
     <use x="538.607422" xlink:href="#DejaVuSans-2e"/>
     <use x="570.394531" xlink:href="#DejaVuSans-31"/>
    </g>
   </g>
  </g>
 </g>
 <defs>
  <clipPath id="p280ded6d5b">
   <rect height="321.552" width="390.6" x="226.746875" y="22.318125"/>
  </clipPath>
 </defs>
</svg>
