<?xml version="1.0" encoding="utf-8" standalone="no"?>
<!DOCTYPE svg PUBLIC "-//W3C//DTD SVG 1.1//EN"
  "http://www.w3.org/Graphics/SVG/1.1/DTD/svg11.dtd">
<!-- Created with matplotlib (http://matplotlib.org/) -->
<svg height="370.338375pt" version="1.1" viewBox="0 0 628.046875 370.338375" width="628.046875pt" xmlns="http://www.w3.org/2000/svg" xmlns:xlink="http://www.w3.org/1999/xlink">
 <defs>
  <style type="text/css">
*{stroke-linecap:butt;stroke-linejoin:round;}
  </style>
 </defs>
 <g id="figure_1">
  <g id="patch_1">
   <path d="M -0 370.338375 
L 628.046875 370.338375 
L 628.046875 0 
L -0 0 
z
" style="fill:#ffffff;"/>
  </g>
  <g id="axes_1">
   <g id="patch_2">
    <path d="M 226.746875 332.782125 
L 617.346875 332.782125 
L 617.346875 22.318125 
L 226.746875 22.318125 
z
" style="fill:#ffffff;"/>
   </g>
   <g id="matplotlib.axis_1">
    <g id="xtick_1">
     <g id="line2d_1">
      <path clip-path="url(#p977cb29a97)" d="M 226.746875 332.782125 
L 226.746875 22.318125 
" style="fill:none;stroke:#b0b0b0;stroke-linecap:square;stroke-width:0.8;"/>
     </g>
     <g id="line2d_2">
      <defs>
       <path d="M 0 0 
L 0 3.5 
" id="mcc7d2e3275" style="stroke:#000000;stroke-width:0.8;"/>
      </defs>
      <g>
       <use style="stroke:#000000;stroke-width:0.8;" x="226.746875" xlink:href="#mcc7d2e3275" y="332.782125"/>
      </g>
     </g>
     <g id="text_1">
      <!-- −2 -->
      <defs>
       <path d="M 10.59375 35.5 
L 73.1875 35.5 
L 73.1875 27.203125 
L 10.59375 27.203125 
z
" id="DejaVuSans-2212"/>
       <path d="M 19.1875 8.296875 
L 53.609375 8.296875 
L 53.609375 0 
L 7.328125 0 
L 7.328125 8.296875 
Q 12.9375 14.109375 22.625 23.890625 
Q 32.328125 33.6875 34.8125 36.53125 
Q 39.546875 41.84375 41.421875 45.53125 
Q 43.3125 49.21875 43.3125 52.78125 
Q 43.3125 58.59375 39.234375 62.25 
Q 35.15625 65.921875 28.609375 65.921875 
Q 23.96875 65.921875 18.8125 64.3125 
Q 13.671875 62.703125 7.8125 59.421875 
L 7.8125 69.390625 
Q 13.765625 71.78125 18.9375 73 
Q 24.125 74.21875 28.421875 74.21875 
Q 39.75 74.21875 46.484375 68.546875 
Q 53.21875 62.890625 53.21875 53.421875 
Q 53.21875 48.921875 51.53125 44.890625 
Q 49.859375 40.875 45.40625 35.40625 
Q 44.1875 33.984375 37.640625 27.21875 
Q 31.109375 20.453125 19.1875 8.296875 
z
" id="DejaVuSans-32"/>
      </defs>
      <g transform="translate(219.375781 347.380562)scale(0.1 -0.1)">
       <use xlink:href="#DejaVuSans-2212"/>
       <use x="83.789062" xlink:href="#DejaVuSans-32"/>
      </g>
     </g>
    </g>
    <g id="xtick_2">
     <g id="line2d_3">
      <path clip-path="url(#p977cb29a97)" d="M 304.866875 332.782125 
L 304.866875 22.318125 
" style="fill:none;stroke:#b0b0b0;stroke-linecap:square;stroke-width:0.8;"/>
     </g>
     <g id="line2d_4">
      <g>
       <use style="stroke:#000000;stroke-width:0.8;" x="304.866875" xlink:href="#mcc7d2e3275" y="332.782125"/>
      </g>
     </g>
     <g id="text_2">
      <!-- −1 -->
      <defs>
       <path d="M 12.40625 8.296875 
L 28.515625 8.296875 
L 28.515625 63.921875 
L 10.984375 60.40625 
L 10.984375 69.390625 
L 28.421875 72.90625 
L 38.28125 72.90625 
L 38.28125 8.296875 
L 54.390625 8.296875 
L 54.390625 0 
L 12.40625 0 
z
" id="DejaVuSans-31"/>
      </defs>
      <g transform="translate(297.495781 347.380562)scale(0.1 -0.1)">
       <use xlink:href="#DejaVuSans-2212"/>
       <use x="83.789062" xlink:href="#DejaVuSans-31"/>
      </g>
     </g>
    </g>
    <g id="xtick_3">
     <g id="line2d_5">
      <path clip-path="url(#p977cb29a97)" d="M 382.986875 332.782125 
L 382.986875 22.318125 
" style="fill:none;stroke:#b0b0b0;stroke-linecap:square;stroke-width:0.8;"/>
     </g>
     <g id="line2d_6">
      <g>
       <use style="stroke:#000000;stroke-width:0.8;" x="382.986875" xlink:href="#mcc7d2e3275" y="332.782125"/>
      </g>
     </g>
     <g id="text_3">
      <!-- 0 -->
      <defs>
       <path d="M 31.78125 66.40625 
Q 24.171875 66.40625 20.328125 58.90625 
Q 16.5 51.421875 16.5 36.375 
Q 16.5 21.390625 20.328125 13.890625 
Q 24.171875 6.390625 31.78125 6.390625 
Q 39.453125 6.390625 43.28125 13.890625 
Q 47.125 21.390625 47.125 36.375 
Q 47.125 51.421875 43.28125 58.90625 
Q 39.453125 66.40625 31.78125 66.40625 
z
M 31.78125 74.21875 
Q 44.046875 74.21875 50.515625 64.515625 
Q 56.984375 54.828125 56.984375 36.375 
Q 56.984375 17.96875 50.515625 8.265625 
Q 44.046875 -1.421875 31.78125 -1.421875 
Q 19.53125 -1.421875 13.0625 8.265625 
Q 6.59375 17.96875 6.59375 36.375 
Q 6.59375 54.828125 13.0625 64.515625 
Q 19.53125 74.21875 31.78125 74.21875 
z
" id="DejaVuSans-30"/>
      </defs>
      <g transform="translate(379.805625 347.380562)scale(0.1 -0.1)">
       <use xlink:href="#DejaVuSans-30"/>
      </g>
     </g>
    </g>
    <g id="xtick_4">
     <g id="line2d_7">
      <path clip-path="url(#p977cb29a97)" d="M 461.106875 332.782125 
L 461.106875 22.318125 
" style="fill:none;stroke:#b0b0b0;stroke-linecap:square;stroke-width:0.8;"/>
     </g>
     <g id="line2d_8">
      <g>
       <use style="stroke:#000000;stroke-width:0.8;" x="461.106875" xlink:href="#mcc7d2e3275" y="332.782125"/>
      </g>
     </g>
     <g id="text_4">
      <!-- 1 -->
      <g transform="translate(457.925625 347.380562)scale(0.1 -0.1)">
       <use xlink:href="#DejaVuSans-31"/>
      </g>
     </g>
    </g>
    <g id="xtick_5">
     <g id="line2d_9">
      <path clip-path="url(#p977cb29a97)" d="M 539.226875 332.782125 
L 539.226875 22.318125 
" style="fill:none;stroke:#b0b0b0;stroke-linecap:square;stroke-width:0.8;"/>
     </g>
     <g id="line2d_10">
      <g>
       <use style="stroke:#000000;stroke-width:0.8;" x="539.226875" xlink:href="#mcc7d2e3275" y="332.782125"/>
      </g>
     </g>
     <g id="text_5">
      <!-- 2 -->
      <g transform="translate(536.045625 347.380562)scale(0.1 -0.1)">
       <use xlink:href="#DejaVuSans-32"/>
      </g>
     </g>
    </g>
    <g id="xtick_6">
     <g id="line2d_11">
      <path clip-path="url(#p977cb29a97)" d="M 617.346875 332.782125 
L 617.346875 22.318125 
" style="fill:none;stroke:#b0b0b0;stroke-linecap:square;stroke-width:0.8;"/>
     </g>
     <g id="line2d_12">
      <g>
       <use style="stroke:#000000;stroke-width:0.8;" x="617.346875" xlink:href="#mcc7d2e3275" y="332.782125"/>
      </g>
     </g>
     <g id="text_6">
      <!-- 3 -->
      <defs>
       <path d="M 40.578125 39.3125 
Q 47.65625 37.796875 51.625 33 
Q 55.609375 28.21875 55.609375 21.1875 
Q 55.609375 10.40625 48.1875 4.484375 
Q 40.765625 -1.421875 27.09375 -1.421875 
Q 22.515625 -1.421875 17.65625 -0.515625 
Q 12.796875 0.390625 7.625 2.203125 
L 7.625 11.71875 
Q 11.71875 9.328125 16.59375 8.109375 
Q 21.484375 6.890625 26.8125 6.890625 
Q 36.078125 6.890625 40.9375 10.546875 
Q 45.796875 14.203125 45.796875 21.1875 
Q 45.796875 27.640625 41.28125 31.265625 
Q 36.765625 34.90625 28.71875 34.90625 
L 20.21875 34.90625 
L 20.21875 43.015625 
L 29.109375 43.015625 
Q 36.375 43.015625 40.234375 45.921875 
Q 44.09375 48.828125 44.09375 54.296875 
Q 44.09375 59.90625 40.109375 62.90625 
Q 36.140625 65.921875 28.71875 65.921875 
Q 24.65625 65.921875 20.015625 65.03125 
Q 15.375 64.15625 9.8125 62.3125 
L 9.8125 71.09375 
Q 15.4375 72.65625 20.34375 73.4375 
Q 25.25 74.21875 29.59375 74.21875 
Q 40.828125 74.21875 47.359375 69.109375 
Q 53.90625 64.015625 53.90625 55.328125 
Q 53.90625 49.265625 50.4375 45.09375 
Q 46.96875 40.921875 40.578125 39.3125 
z
" id="DejaVuSans-33"/>
      </defs>
      <g transform="translate(614.165625 347.380562)scale(0.1 -0.1)">
       <use xlink:href="#DejaVuSans-33"/>
      </g>
     </g>
    </g>
    <g id="text_7">
     <!-- OE1 (TO) -->
     <defs>
      <path d="M 39.40625 66.21875 
Q 28.65625 66.21875 22.328125 58.203125 
Q 16.015625 50.203125 16.015625 36.375 
Q 16.015625 22.609375 22.328125 14.59375 
Q 28.65625 6.59375 39.40625 6.59375 
Q 50.140625 6.59375 56.421875 14.59375 
Q 62.703125 22.609375 62.703125 36.375 
Q 62.703125 50.203125 56.421875 58.203125 
Q 50.140625 66.21875 39.40625 66.21875 
z
M 39.40625 74.21875 
Q 54.734375 74.21875 63.90625 63.9375 
Q 73.09375 53.65625 73.09375 36.375 
Q 73.09375 19.140625 63.90625 8.859375 
Q 54.734375 -1.421875 39.40625 -1.421875 
Q 24.03125 -1.421875 14.8125 8.828125 
Q 5.609375 19.09375 5.609375 36.375 
Q 5.609375 53.65625 14.8125 63.9375 
Q 24.03125 74.21875 39.40625 74.21875 
z
" id="DejaVuSans-4f"/>
      <path d="M 9.8125 72.90625 
L 55.90625 72.90625 
L 55.90625 64.59375 
L 19.671875 64.59375 
L 19.671875 43.015625 
L 54.390625 43.015625 
L 54.390625 34.71875 
L 19.671875 34.71875 
L 19.671875 8.296875 
L 56.78125 8.296875 
L 56.78125 0 
L 9.8125 0 
z
" id="DejaVuSans-45"/>
      <path id="DejaVuSans-20"/>
      <path d="M 31 75.875 
Q 24.46875 64.65625 21.28125 53.65625 
Q 18.109375 42.671875 18.109375 31.390625 
Q 18.109375 20.125 21.3125 9.0625 
Q 24.515625 -2 31 -13.1875 
L 23.1875 -13.1875 
Q 15.875 -1.703125 12.234375 9.375 
Q 8.59375 20.453125 8.59375 31.390625 
Q 8.59375 42.28125 12.203125 53.3125 
Q 15.828125 64.359375 23.1875 75.875 
z
" id="DejaVuSans-28"/>
      <path d="M -0.296875 72.90625 
L 61.375 72.90625 
L 61.375 64.59375 
L 35.5 64.59375 
L 35.5 0 
L 25.59375 0 
L 25.59375 64.59375 
L -0.296875 64.59375 
z
" id="DejaVuSans-54"/>
      <path d="M 8.015625 75.875 
L 15.828125 75.875 
Q 23.140625 64.359375 26.78125 53.3125 
Q 30.421875 42.28125 30.421875 31.390625 
Q 30.421875 20.453125 26.78125 9.375 
Q 23.140625 -1.703125 15.828125 -13.1875 
L 8.015625 -13.1875 
Q 14.5 -2 17.703125 9.0625 
Q 20.90625 20.125 20.90625 31.390625 
Q 20.90625 42.671875 17.703125 53.65625 
Q 14.5 64.65625 8.015625 75.875 
z
" id="DejaVuSans-29"/>
     </defs>
     <g transform="translate(399.289844 361.058687)scale(0.1 -0.1)">
      <use xlink:href="#DejaVuSans-4f"/>
      <use x="78.710938" xlink:href="#DejaVuSans-45"/>
      <use x="141.894531" xlink:href="#DejaVuSans-31"/>
      <use x="205.517578" xlink:href="#DejaVuSans-20"/>
      <use x="237.304688" xlink:href="#DejaVuSans-28"/>
      <use x="276.318359" xlink:href="#DejaVuSans-54"/>
      <use x="337.402344" xlink:href="#DejaVuSans-4f"/>
      <use x="416.113281" xlink:href="#DejaVuSans-29"/>
     </g>
    </g>
   </g>
   <g id="matplotlib.axis_2">
    <g id="ytick_1">
     <g id="line2d_13">
      <path clip-path="url(#p977cb29a97)" d="M 226.746875 305.841034 
L 617.346875 305.841034 
" style="fill:none;stroke:#b0b0b0;stroke-linecap:square;stroke-width:0.8;"/>
     </g>
     <g id="line2d_14">
      <defs>
       <path d="M 0 0 
L -3.5 0 
" id="mdd26b493e0" style="stroke:#000000;stroke-width:0.8;"/>
      </defs>
      <g>
       <use style="stroke:#000000;stroke-width:0.8;" x="226.746875" xlink:href="#mdd26b493e0" y="305.841034"/>
      </g>
     </g>
     <g id="text_8">
      <!-- schreiber2017/mirex2017 -->
      <defs>
       <path d="M 44.28125 53.078125 
L 44.28125 44.578125 
Q 40.484375 46.53125 36.375 47.5 
Q 32.28125 48.484375 27.875 48.484375 
Q 21.1875 48.484375 17.84375 46.4375 
Q 14.5 44.390625 14.5 40.28125 
Q 14.5 37.15625 16.890625 35.375 
Q 19.28125 33.59375 26.515625 31.984375 
L 29.59375 31.296875 
Q 39.15625 29.25 43.1875 25.515625 
Q 47.21875 21.78125 47.21875 15.09375 
Q 47.21875 7.46875 41.1875 3.015625 
Q 35.15625 -1.421875 24.609375 -1.421875 
Q 20.21875 -1.421875 15.453125 -0.5625 
Q 10.6875 0.296875 5.421875 2 
L 5.421875 11.28125 
Q 10.40625 8.6875 15.234375 7.390625 
Q 20.0625 6.109375 24.8125 6.109375 
Q 31.15625 6.109375 34.5625 8.28125 
Q 37.984375 10.453125 37.984375 14.40625 
Q 37.984375 18.0625 35.515625 20.015625 
Q 33.0625 21.96875 24.703125 23.78125 
L 21.578125 24.515625 
Q 13.234375 26.265625 9.515625 29.90625 
Q 5.8125 33.546875 5.8125 39.890625 
Q 5.8125 47.609375 11.28125 51.796875 
Q 16.75 56 26.8125 56 
Q 31.78125 56 36.171875 55.265625 
Q 40.578125 54.546875 44.28125 53.078125 
z
" id="DejaVuSans-73"/>
       <path d="M 48.78125 52.59375 
L 48.78125 44.1875 
Q 44.96875 46.296875 41.140625 47.34375 
Q 37.3125 48.390625 33.40625 48.390625 
Q 24.65625 48.390625 19.8125 42.84375 
Q 14.984375 37.3125 14.984375 27.296875 
Q 14.984375 17.28125 19.8125 11.734375 
Q 24.65625 6.203125 33.40625 6.203125 
Q 37.3125 6.203125 41.140625 7.25 
Q 44.96875 8.296875 48.78125 10.40625 
L 48.78125 2.09375 
Q 45.015625 0.34375 40.984375 -0.53125 
Q 36.96875 -1.421875 32.421875 -1.421875 
Q 20.0625 -1.421875 12.78125 6.34375 
Q 5.515625 14.109375 5.515625 27.296875 
Q 5.515625 40.671875 12.859375 48.328125 
Q 20.21875 56 33.015625 56 
Q 37.15625 56 41.109375 55.140625 
Q 45.0625 54.296875 48.78125 52.59375 
z
" id="DejaVuSans-63"/>
       <path d="M 54.890625 33.015625 
L 54.890625 0 
L 45.90625 0 
L 45.90625 32.71875 
Q 45.90625 40.484375 42.875 44.328125 
Q 39.84375 48.1875 33.796875 48.1875 
Q 26.515625 48.1875 22.3125 43.546875 
Q 18.109375 38.921875 18.109375 30.90625 
L 18.109375 0 
L 9.078125 0 
L 9.078125 75.984375 
L 18.109375 75.984375 
L 18.109375 46.1875 
Q 21.34375 51.125 25.703125 53.5625 
Q 30.078125 56 35.796875 56 
Q 45.21875 56 50.046875 50.171875 
Q 54.890625 44.34375 54.890625 33.015625 
z
" id="DejaVuSans-68"/>
       <path d="M 41.109375 46.296875 
Q 39.59375 47.171875 37.8125 47.578125 
Q 36.03125 48 33.890625 48 
Q 26.265625 48 22.1875 43.046875 
Q 18.109375 38.09375 18.109375 28.8125 
L 18.109375 0 
L 9.078125 0 
L 9.078125 54.6875 
L 18.109375 54.6875 
L 18.109375 46.1875 
Q 20.953125 51.171875 25.484375 53.578125 
Q 30.03125 56 36.53125 56 
Q 37.453125 56 38.578125 55.875 
Q 39.703125 55.765625 41.0625 55.515625 
z
" id="DejaVuSans-72"/>
       <path d="M 56.203125 29.59375 
L 56.203125 25.203125 
L 14.890625 25.203125 
Q 15.484375 15.921875 20.484375 11.0625 
Q 25.484375 6.203125 34.421875 6.203125 
Q 39.59375 6.203125 44.453125 7.46875 
Q 49.3125 8.734375 54.109375 11.28125 
L 54.109375 2.78125 
Q 49.265625 0.734375 44.1875 -0.34375 
Q 39.109375 -1.421875 33.890625 -1.421875 
Q 20.796875 -1.421875 13.15625 6.1875 
Q 5.515625 13.8125 5.515625 26.8125 
Q 5.515625 40.234375 12.765625 48.109375 
Q 20.015625 56 32.328125 56 
Q 43.359375 56 49.78125 48.890625 
Q 56.203125 41.796875 56.203125 29.59375 
z
M 47.21875 32.234375 
Q 47.125 39.59375 43.09375 43.984375 
Q 39.0625 48.390625 32.421875 48.390625 
Q 24.90625 48.390625 20.390625 44.140625 
Q 15.875 39.890625 15.1875 32.171875 
z
" id="DejaVuSans-65"/>
       <path d="M 9.421875 54.6875 
L 18.40625 54.6875 
L 18.40625 0 
L 9.421875 0 
z
M 9.421875 75.984375 
L 18.40625 75.984375 
L 18.40625 64.59375 
L 9.421875 64.59375 
z
" id="DejaVuSans-69"/>
       <path d="M 48.6875 27.296875 
Q 48.6875 37.203125 44.609375 42.84375 
Q 40.53125 48.484375 33.40625 48.484375 
Q 26.265625 48.484375 22.1875 42.84375 
Q 18.109375 37.203125 18.109375 27.296875 
Q 18.109375 17.390625 22.1875 11.75 
Q 26.265625 6.109375 33.40625 6.109375 
Q 40.53125 6.109375 44.609375 11.75 
Q 48.6875 17.390625 48.6875 27.296875 
z
M 18.109375 46.390625 
Q 20.953125 51.265625 25.265625 53.625 
Q 29.59375 56 35.59375 56 
Q 45.5625 56 51.78125 48.09375 
Q 58.015625 40.1875 58.015625 27.296875 
Q 58.015625 14.40625 51.78125 6.484375 
Q 45.5625 -1.421875 35.59375 -1.421875 
Q 29.59375 -1.421875 25.265625 0.953125 
Q 20.953125 3.328125 18.109375 8.203125 
L 18.109375 0 
L 9.078125 0 
L 9.078125 75.984375 
L 18.109375 75.984375 
z
" id="DejaVuSans-62"/>
       <path d="M 8.203125 72.90625 
L 55.078125 72.90625 
L 55.078125 68.703125 
L 28.609375 0 
L 18.3125 0 
L 43.21875 64.59375 
L 8.203125 64.59375 
z
" id="DejaVuSans-37"/>
       <path d="M 25.390625 72.90625 
L 33.6875 72.90625 
L 8.296875 -9.28125 
L 0 -9.28125 
z
" id="DejaVuSans-2f"/>
       <path d="M 52 44.1875 
Q 55.375 50.25 60.0625 53.125 
Q 64.75 56 71.09375 56 
Q 79.640625 56 84.28125 50.015625 
Q 88.921875 44.046875 88.921875 33.015625 
L 88.921875 0 
L 79.890625 0 
L 79.890625 32.71875 
Q 79.890625 40.578125 77.09375 44.375 
Q 74.3125 48.1875 68.609375 48.1875 
Q 61.625 48.1875 57.5625 43.546875 
Q 53.515625 38.921875 53.515625 30.90625 
L 53.515625 0 
L 44.484375 0 
L 44.484375 32.71875 
Q 44.484375 40.625 41.703125 44.40625 
Q 38.921875 48.1875 33.109375 48.1875 
Q 26.21875 48.1875 22.15625 43.53125 
Q 18.109375 38.875 18.109375 30.90625 
L 18.109375 0 
L 9.078125 0 
L 9.078125 54.6875 
L 18.109375 54.6875 
L 18.109375 46.1875 
Q 21.1875 51.21875 25.484375 53.609375 
Q 29.78125 56 35.6875 56 
Q 41.65625 56 45.828125 52.96875 
Q 50 49.953125 52 44.1875 
z
" id="DejaVuSans-6d"/>
       <path d="M 54.890625 54.6875 
L 35.109375 28.078125 
L 55.90625 0 
L 45.3125 0 
L 29.390625 21.484375 
L 13.484375 0 
L 2.875 0 
L 24.125 28.609375 
L 4.6875 54.6875 
L 15.28125 54.6875 
L 29.78125 35.203125 
L 44.28125 54.6875 
z
" id="DejaVuSans-78"/>
      </defs>
      <g transform="translate(90.084375 309.640253)scale(0.1 -0.1)">
       <use xlink:href="#DejaVuSans-73"/>
       <use x="52.099609" xlink:href="#DejaVuSans-63"/>
       <use x="107.080078" xlink:href="#DejaVuSans-68"/>
       <use x="170.458984" xlink:href="#DejaVuSans-72"/>
       <use x="211.541016" xlink:href="#DejaVuSans-65"/>
       <use x="273.064453" xlink:href="#DejaVuSans-69"/>
       <use x="300.847656" xlink:href="#DejaVuSans-62"/>
       <use x="364.324219" xlink:href="#DejaVuSans-65"/>
       <use x="425.847656" xlink:href="#DejaVuSans-72"/>
       <use x="466.960938" xlink:href="#DejaVuSans-32"/>
       <use x="530.583984" xlink:href="#DejaVuSans-30"/>
       <use x="594.207031" xlink:href="#DejaVuSans-31"/>
       <use x="657.830078" xlink:href="#DejaVuSans-37"/>
       <use x="721.453125" xlink:href="#DejaVuSans-2f"/>
       <use x="755.144531" xlink:href="#DejaVuSans-6d"/>
       <use x="852.556641" xlink:href="#DejaVuSans-69"/>
       <use x="880.339844" xlink:href="#DejaVuSans-72"/>
       <use x="921.421875" xlink:href="#DejaVuSans-65"/>
       <use x="982.929688" xlink:href="#DejaVuSans-78"/>
       <use x="1042.109375" xlink:href="#DejaVuSans-32"/>
       <use x="1105.732422" xlink:href="#DejaVuSans-30"/>
       <use x="1169.355469" xlink:href="#DejaVuSans-31"/>
       <use x="1232.978516" xlink:href="#DejaVuSans-37"/>
      </g>
     </g>
    </g>
    <g id="ytick_2">
     <g id="line2d_15">
      <path clip-path="url(#p977cb29a97)" d="M 226.746875 254.52467 
L 617.346875 254.52467 
" style="fill:none;stroke:#b0b0b0;stroke-linecap:square;stroke-width:0.8;"/>
     </g>
     <g id="line2d_16">
      <g>
       <use style="stroke:#000000;stroke-width:0.8;" x="226.746875" xlink:href="#mdd26b493e0" y="254.52467"/>
      </g>
     </g>
     <g id="text_9">
      <!-- schreiber2017/ismir2017 -->
      <g transform="translate(94.164062 258.323889)scale(0.1 -0.1)">
       <use xlink:href="#DejaVuSans-73"/>
       <use x="52.099609" xlink:href="#DejaVuSans-63"/>
       <use x="107.080078" xlink:href="#DejaVuSans-68"/>
       <use x="170.458984" xlink:href="#DejaVuSans-72"/>
       <use x="211.541016" xlink:href="#DejaVuSans-65"/>
       <use x="273.064453" xlink:href="#DejaVuSans-69"/>
       <use x="300.847656" xlink:href="#DejaVuSans-62"/>
       <use x="364.324219" xlink:href="#DejaVuSans-65"/>
       <use x="425.847656" xlink:href="#DejaVuSans-72"/>
       <use x="466.960938" xlink:href="#DejaVuSans-32"/>
       <use x="530.583984" xlink:href="#DejaVuSans-30"/>
       <use x="594.207031" xlink:href="#DejaVuSans-31"/>
       <use x="657.830078" xlink:href="#DejaVuSans-37"/>
       <use x="721.453125" xlink:href="#DejaVuSans-2f"/>
       <use x="755.144531" xlink:href="#DejaVuSans-69"/>
       <use x="782.927734" xlink:href="#DejaVuSans-73"/>
       <use x="835.027344" xlink:href="#DejaVuSans-6d"/>
       <use x="932.439453" xlink:href="#DejaVuSans-69"/>
       <use x="960.222656" xlink:href="#DejaVuSans-72"/>
       <use x="1001.335938" xlink:href="#DejaVuSans-32"/>
       <use x="1064.958984" xlink:href="#DejaVuSans-30"/>
       <use x="1128.582031" xlink:href="#DejaVuSans-31"/>
       <use x="1192.205078" xlink:href="#DejaVuSans-37"/>
      </g>
     </g>
    </g>
    <g id="ytick_3">
     <g id="line2d_17">
      <path clip-path="url(#p977cb29a97)" d="M 226.746875 203.208307 
L 617.346875 203.208307 
" style="fill:none;stroke:#b0b0b0;stroke-linecap:square;stroke-width:0.8;"/>
     </g>
     <g id="line2d_18">
      <g>
       <use style="stroke:#000000;stroke-width:0.8;" x="226.746875" xlink:href="#mdd26b493e0" y="203.208307"/>
      </g>
     </g>
     <g id="text_10">
      <!-- schreiber2014/default -->
      <defs>
       <path d="M 37.796875 64.3125 
L 12.890625 25.390625 
L 37.796875 25.390625 
z
M 35.203125 72.90625 
L 47.609375 72.90625 
L 47.609375 25.390625 
L 58.015625 25.390625 
L 58.015625 17.1875 
L 47.609375 17.1875 
L 47.609375 0 
L 37.796875 0 
L 37.796875 17.1875 
L 4.890625 17.1875 
L 4.890625 26.703125 
z
" id="DejaVuSans-34"/>
       <path d="M 45.40625 46.390625 
L 45.40625 75.984375 
L 54.390625 75.984375 
L 54.390625 0 
L 45.40625 0 
L 45.40625 8.203125 
Q 42.578125 3.328125 38.25 0.953125 
Q 33.9375 -1.421875 27.875 -1.421875 
Q 17.96875 -1.421875 11.734375 6.484375 
Q 5.515625 14.40625 5.515625 27.296875 
Q 5.515625 40.1875 11.734375 48.09375 
Q 17.96875 56 27.875 56 
Q 33.9375 56 38.25 53.625 
Q 42.578125 51.265625 45.40625 46.390625 
z
M 14.796875 27.296875 
Q 14.796875 17.390625 18.875 11.75 
Q 22.953125 6.109375 30.078125 6.109375 
Q 37.203125 6.109375 41.296875 11.75 
Q 45.40625 17.390625 45.40625 27.296875 
Q 45.40625 37.203125 41.296875 42.84375 
Q 37.203125 48.484375 30.078125 48.484375 
Q 22.953125 48.484375 18.875 42.84375 
Q 14.796875 37.203125 14.796875 27.296875 
z
" id="DejaVuSans-64"/>
       <path d="M 37.109375 75.984375 
L 37.109375 68.5 
L 28.515625 68.5 
Q 23.6875 68.5 21.796875 66.546875 
Q 19.921875 64.59375 19.921875 59.515625 
L 19.921875 54.6875 
L 34.71875 54.6875 
L 34.71875 47.703125 
L 19.921875 47.703125 
L 19.921875 0 
L 10.890625 0 
L 10.890625 47.703125 
L 2.296875 47.703125 
L 2.296875 54.6875 
L 10.890625 54.6875 
L 10.890625 58.5 
Q 10.890625 67.625 15.140625 71.796875 
Q 19.390625 75.984375 28.609375 75.984375 
z
" id="DejaVuSans-66"/>
       <path d="M 34.28125 27.484375 
Q 23.390625 27.484375 19.1875 25 
Q 14.984375 22.515625 14.984375 16.5 
Q 14.984375 11.71875 18.140625 8.90625 
Q 21.296875 6.109375 26.703125 6.109375 
Q 34.1875 6.109375 38.703125 11.40625 
Q 43.21875 16.703125 43.21875 25.484375 
L 43.21875 27.484375 
z
M 52.203125 31.203125 
L 52.203125 0 
L 43.21875 0 
L 43.21875 8.296875 
Q 40.140625 3.328125 35.546875 0.953125 
Q 30.953125 -1.421875 24.3125 -1.421875 
Q 15.921875 -1.421875 10.953125 3.296875 
Q 6 8.015625 6 15.921875 
Q 6 25.140625 12.171875 29.828125 
Q 18.359375 34.515625 30.609375 34.515625 
L 43.21875 34.515625 
L 43.21875 35.40625 
Q 43.21875 41.609375 39.140625 45 
Q 35.0625 48.390625 27.6875 48.390625 
Q 23 48.390625 18.546875 47.265625 
Q 14.109375 46.140625 10.015625 43.890625 
L 10.015625 52.203125 
Q 14.9375 54.109375 19.578125 55.046875 
Q 24.21875 56 28.609375 56 
Q 40.484375 56 46.34375 49.84375 
Q 52.203125 43.703125 52.203125 31.203125 
z
" id="DejaVuSans-61"/>
       <path d="M 8.5 21.578125 
L 8.5 54.6875 
L 17.484375 54.6875 
L 17.484375 21.921875 
Q 17.484375 14.15625 20.5 10.265625 
Q 23.53125 6.390625 29.59375 6.390625 
Q 36.859375 6.390625 41.078125 11.03125 
Q 45.3125 15.671875 45.3125 23.6875 
L 45.3125 54.6875 
L 54.296875 54.6875 
L 54.296875 0 
L 45.3125 0 
L 45.3125 8.40625 
Q 42.046875 3.421875 37.71875 1 
Q 33.40625 -1.421875 27.6875 -1.421875 
Q 18.265625 -1.421875 13.375 4.4375 
Q 8.5 10.296875 8.5 21.578125 
z
M 31.109375 56 
z
" id="DejaVuSans-75"/>
       <path d="M 9.421875 75.984375 
L 18.40625 75.984375 
L 18.40625 0 
L 9.421875 0 
z
" id="DejaVuSans-6c"/>
       <path d="M 18.3125 70.21875 
L 18.3125 54.6875 
L 36.8125 54.6875 
L 36.8125 47.703125 
L 18.3125 47.703125 
L 18.3125 18.015625 
Q 18.3125 11.328125 20.140625 9.421875 
Q 21.96875 7.515625 27.59375 7.515625 
L 36.8125 7.515625 
L 36.8125 0 
L 27.59375 0 
Q 17.1875 0 13.234375 3.875 
Q 9.28125 7.765625 9.28125 18.015625 
L 9.28125 47.703125 
L 2.6875 47.703125 
L 2.6875 54.6875 
L 9.28125 54.6875 
L 9.28125 70.21875 
z
" id="DejaVuSans-74"/>
      </defs>
      <g transform="translate(109.045312 207.007526)scale(0.1 -0.1)">
       <use xlink:href="#DejaVuSans-73"/>
       <use x="52.099609" xlink:href="#DejaVuSans-63"/>
       <use x="107.080078" xlink:href="#DejaVuSans-68"/>
       <use x="170.458984" xlink:href="#DejaVuSans-72"/>
       <use x="211.541016" xlink:href="#DejaVuSans-65"/>
       <use x="273.064453" xlink:href="#DejaVuSans-69"/>
       <use x="300.847656" xlink:href="#DejaVuSans-62"/>
       <use x="364.324219" xlink:href="#DejaVuSans-65"/>
       <use x="425.847656" xlink:href="#DejaVuSans-72"/>
       <use x="466.960938" xlink:href="#DejaVuSans-32"/>
       <use x="530.583984" xlink:href="#DejaVuSans-30"/>
       <use x="594.207031" xlink:href="#DejaVuSans-31"/>
       <use x="657.830078" xlink:href="#DejaVuSans-34"/>
       <use x="721.453125" xlink:href="#DejaVuSans-2f"/>
       <use x="755.144531" xlink:href="#DejaVuSans-64"/>
       <use x="818.621094" xlink:href="#DejaVuSans-65"/>
       <use x="880.144531" xlink:href="#DejaVuSans-66"/>
       <use x="915.349609" xlink:href="#DejaVuSans-61"/>
       <use x="976.628906" xlink:href="#DejaVuSans-75"/>
       <use x="1040.007812" xlink:href="#DejaVuSans-6c"/>
       <use x="1067.791016" xlink:href="#DejaVuSans-74"/>
      </g>
     </g>
    </g>
    <g id="ytick_4">
     <g id="line2d_19">
      <path clip-path="url(#p977cb29a97)" d="M 226.746875 151.891943 
L 617.346875 151.891943 
" style="fill:none;stroke:#b0b0b0;stroke-linecap:square;stroke-width:0.8;"/>
     </g>
     <g id="line2d_20">
      <g>
       <use style="stroke:#000000;stroke-width:0.8;" x="226.746875" xlink:href="#mdd26b493e0" y="151.891943"/>
      </g>
     </g>
     <g id="text_11">
      <!-- percival2014/stem -->
      <defs>
       <path d="M 18.109375 8.203125 
L 18.109375 -20.796875 
L 9.078125 -20.796875 
L 9.078125 54.6875 
L 18.109375 54.6875 
L 18.109375 46.390625 
Q 20.953125 51.265625 25.265625 53.625 
Q 29.59375 56 35.59375 56 
Q 45.5625 56 51.78125 48.09375 
Q 58.015625 40.1875 58.015625 27.296875 
Q 58.015625 14.40625 51.78125 6.484375 
Q 45.5625 -1.421875 35.59375 -1.421875 
Q 29.59375 -1.421875 25.265625 0.953125 
Q 20.953125 3.328125 18.109375 8.203125 
z
M 48.6875 27.296875 
Q 48.6875 37.203125 44.609375 42.84375 
Q 40.53125 48.484375 33.40625 48.484375 
Q 26.265625 48.484375 22.1875 42.84375 
Q 18.109375 37.203125 18.109375 27.296875 
Q 18.109375 17.390625 22.1875 11.75 
Q 26.265625 6.109375 33.40625 6.109375 
Q 40.53125 6.109375 44.609375 11.75 
Q 48.6875 17.390625 48.6875 27.296875 
z
" id="DejaVuSans-70"/>
       <path d="M 2.984375 54.6875 
L 12.5 54.6875 
L 29.59375 8.796875 
L 46.6875 54.6875 
L 56.203125 54.6875 
L 35.6875 0 
L 23.484375 0 
z
" id="DejaVuSans-76"/>
      </defs>
      <g transform="translate(126.19375 155.691162)scale(0.1 -0.1)">
       <use xlink:href="#DejaVuSans-70"/>
       <use x="63.476562" xlink:href="#DejaVuSans-65"/>
       <use x="125" xlink:href="#DejaVuSans-72"/>
       <use x="166.082031" xlink:href="#DejaVuSans-63"/>
       <use x="221.0625" xlink:href="#DejaVuSans-69"/>
       <use x="248.845703" xlink:href="#DejaVuSans-76"/>
       <use x="308.025391" xlink:href="#DejaVuSans-61"/>
       <use x="369.304688" xlink:href="#DejaVuSans-6c"/>
       <use x="397.087891" xlink:href="#DejaVuSans-32"/>
       <use x="460.710938" xlink:href="#DejaVuSans-30"/>
       <use x="524.333984" xlink:href="#DejaVuSans-31"/>
       <use x="587.957031" xlink:href="#DejaVuSans-34"/>
       <use x="651.580078" xlink:href="#DejaVuSans-2f"/>
       <use x="685.271484" xlink:href="#DejaVuSans-73"/>
       <use x="737.371094" xlink:href="#DejaVuSans-74"/>
       <use x="776.580078" xlink:href="#DejaVuSans-65"/>
       <use x="838.103516" xlink:href="#DejaVuSans-6d"/>
      </g>
     </g>
    </g>
    <g id="ytick_5">
     <g id="line2d_21">
      <path clip-path="url(#p977cb29a97)" d="M 226.746875 100.57558 
L 617.346875 100.57558 
" style="fill:none;stroke:#b0b0b0;stroke-linecap:square;stroke-width:0.8;"/>
     </g>
     <g id="line2d_22">
      <g>
       <use style="stroke:#000000;stroke-width:0.8;" x="226.746875" xlink:href="#mdd26b493e0" y="100.57558"/>
      </g>
     </g>
     <g id="text_12">
      <!-- davies2009/mirex_qm_tempotracker -->
      <defs>
       <path d="M 10.984375 1.515625 
L 10.984375 10.5 
Q 14.703125 8.734375 18.5 7.8125 
Q 22.3125 6.890625 25.984375 6.890625 
Q 35.75 6.890625 40.890625 13.453125 
Q 46.046875 20.015625 46.78125 33.40625 
Q 43.953125 29.203125 39.59375 26.953125 
Q 35.25 24.703125 29.984375 24.703125 
Q 19.046875 24.703125 12.671875 31.3125 
Q 6.296875 37.9375 6.296875 49.421875 
Q 6.296875 60.640625 12.9375 67.421875 
Q 19.578125 74.21875 30.609375 74.21875 
Q 43.265625 74.21875 49.921875 64.515625 
Q 56.59375 54.828125 56.59375 36.375 
Q 56.59375 19.140625 48.40625 8.859375 
Q 40.234375 -1.421875 26.421875 -1.421875 
Q 22.703125 -1.421875 18.890625 -0.6875 
Q 15.09375 0.046875 10.984375 1.515625 
z
M 30.609375 32.421875 
Q 37.25 32.421875 41.125 36.953125 
Q 45.015625 41.5 45.015625 49.421875 
Q 45.015625 57.28125 41.125 61.84375 
Q 37.25 66.40625 30.609375 66.40625 
Q 23.96875 66.40625 20.09375 61.84375 
Q 16.21875 57.28125 16.21875 49.421875 
Q 16.21875 41.5 20.09375 36.953125 
Q 23.96875 32.421875 30.609375 32.421875 
z
" id="DejaVuSans-39"/>
       <path d="M 50.984375 -16.609375 
L 50.984375 -23.578125 
L -0.984375 -23.578125 
L -0.984375 -16.609375 
z
" id="DejaVuSans-5f"/>
       <path d="M 14.796875 27.296875 
Q 14.796875 17.390625 18.875 11.75 
Q 22.953125 6.109375 30.078125 6.109375 
Q 37.203125 6.109375 41.296875 11.75 
Q 45.40625 17.390625 45.40625 27.296875 
Q 45.40625 37.203125 41.296875 42.84375 
Q 37.203125 48.484375 30.078125 48.484375 
Q 22.953125 48.484375 18.875 42.84375 
Q 14.796875 37.203125 14.796875 27.296875 
z
M 45.40625 8.203125 
Q 42.578125 3.328125 38.25 0.953125 
Q 33.9375 -1.421875 27.875 -1.421875 
Q 17.96875 -1.421875 11.734375 6.484375 
Q 5.515625 14.40625 5.515625 27.296875 
Q 5.515625 40.1875 11.734375 48.09375 
Q 17.96875 56 27.875 56 
Q 33.9375 56 38.25 53.625 
Q 42.578125 51.265625 45.40625 46.390625 
L 45.40625 54.6875 
L 54.390625 54.6875 
L 54.390625 -20.796875 
L 45.40625 -20.796875 
z
" id="DejaVuSans-71"/>
       <path d="M 30.609375 48.390625 
Q 23.390625 48.390625 19.1875 42.75 
Q 14.984375 37.109375 14.984375 27.296875 
Q 14.984375 17.484375 19.15625 11.84375 
Q 23.34375 6.203125 30.609375 6.203125 
Q 37.796875 6.203125 41.984375 11.859375 
Q 46.1875 17.53125 46.1875 27.296875 
Q 46.1875 37.015625 41.984375 42.703125 
Q 37.796875 48.390625 30.609375 48.390625 
z
M 30.609375 56 
Q 42.328125 56 49.015625 48.375 
Q 55.71875 40.765625 55.71875 27.296875 
Q 55.71875 13.875 49.015625 6.21875 
Q 42.328125 -1.421875 30.609375 -1.421875 
Q 18.84375 -1.421875 12.171875 6.21875 
Q 5.515625 13.875 5.515625 27.296875 
Q 5.515625 40.765625 12.171875 48.375 
Q 18.84375 56 30.609375 56 
z
" id="DejaVuSans-6f"/>
       <path d="M 9.078125 75.984375 
L 18.109375 75.984375 
L 18.109375 31.109375 
L 44.921875 54.6875 
L 56.390625 54.6875 
L 27.390625 29.109375 
L 57.625 0 
L 45.90625 0 
L 18.109375 26.703125 
L 18.109375 0 
L 9.078125 0 
z
" id="DejaVuSans-6b"/>
      </defs>
      <g transform="translate(35.617187 104.374798)scale(0.1 -0.1)">
       <use xlink:href="#DejaVuSans-64"/>
       <use x="63.476562" xlink:href="#DejaVuSans-61"/>
       <use x="124.755859" xlink:href="#DejaVuSans-76"/>
       <use x="183.935547" xlink:href="#DejaVuSans-69"/>
       <use x="211.71875" xlink:href="#DejaVuSans-65"/>
       <use x="273.242188" xlink:href="#DejaVuSans-73"/>
       <use x="325.341797" xlink:href="#DejaVuSans-32"/>
       <use x="388.964844" xlink:href="#DejaVuSans-30"/>
       <use x="452.587891" xlink:href="#DejaVuSans-30"/>
       <use x="516.210938" xlink:href="#DejaVuSans-39"/>
       <use x="579.833984" xlink:href="#DejaVuSans-2f"/>
       <use x="613.525391" xlink:href="#DejaVuSans-6d"/>
       <use x="710.9375" xlink:href="#DejaVuSans-69"/>
       <use x="738.720703" xlink:href="#DejaVuSans-72"/>
       <use x="779.802734" xlink:href="#DejaVuSans-65"/>
       <use x="841.310547" xlink:href="#DejaVuSans-78"/>
       <use x="900.490234" xlink:href="#DejaVuSans-5f"/>
       <use x="950.490234" xlink:href="#DejaVuSans-71"/>
       <use x="1013.966797" xlink:href="#DejaVuSans-6d"/>
       <use x="1111.378906" xlink:href="#DejaVuSans-5f"/>
       <use x="1161.378906" xlink:href="#DejaVuSans-74"/>
       <use x="1200.587891" xlink:href="#DejaVuSans-65"/>
       <use x="1262.111328" xlink:href="#DejaVuSans-6d"/>
       <use x="1359.523438" xlink:href="#DejaVuSans-70"/>
       <use x="1423" xlink:href="#DejaVuSans-6f"/>
       <use x="1484.181641" xlink:href="#DejaVuSans-74"/>
       <use x="1523.390625" xlink:href="#DejaVuSans-72"/>
       <use x="1564.503906" xlink:href="#DejaVuSans-61"/>
       <use x="1625.783203" xlink:href="#DejaVuSans-63"/>
       <use x="1680.763672" xlink:href="#DejaVuSans-6b"/>
       <use x="1738.626953" xlink:href="#DejaVuSans-65"/>
       <use x="1800.150391" xlink:href="#DejaVuSans-72"/>
      </g>
     </g>
    </g>
    <g id="ytick_6">
     <g id="line2d_23">
      <path clip-path="url(#p977cb29a97)" d="M 226.746875 49.259216 
L 617.346875 49.259216 
" style="fill:none;stroke:#b0b0b0;stroke-linecap:square;stroke-width:0.8;"/>
     </g>
     <g id="line2d_24">
      <g>
       <use style="stroke:#000000;stroke-width:0.8;" x="226.746875" xlink:href="#mdd26b493e0" y="49.259216"/>
      </g>
     </g>
     <g id="text_13">
      <!-- boeck2015/tempodetector2016_default -->
      <defs>
       <path d="M 10.796875 72.90625 
L 49.515625 72.90625 
L 49.515625 64.59375 
L 19.828125 64.59375 
L 19.828125 46.734375 
Q 21.96875 47.46875 24.109375 47.828125 
Q 26.265625 48.1875 28.421875 48.1875 
Q 40.625 48.1875 47.75 41.5 
Q 54.890625 34.8125 54.890625 23.390625 
Q 54.890625 11.625 47.5625 5.09375 
Q 40.234375 -1.421875 26.90625 -1.421875 
Q 22.3125 -1.421875 17.546875 -0.640625 
Q 12.796875 0.140625 7.71875 1.703125 
L 7.71875 11.625 
Q 12.109375 9.234375 16.796875 8.0625 
Q 21.484375 6.890625 26.703125 6.890625 
Q 35.15625 6.890625 40.078125 11.328125 
Q 45.015625 15.765625 45.015625 23.390625 
Q 45.015625 31 40.078125 35.4375 
Q 35.15625 39.890625 26.703125 39.890625 
Q 22.75 39.890625 18.8125 39.015625 
Q 14.890625 38.140625 10.796875 36.28125 
z
" id="DejaVuSans-35"/>
       <path d="M 33.015625 40.375 
Q 26.375 40.375 22.484375 35.828125 
Q 18.609375 31.296875 18.609375 23.390625 
Q 18.609375 15.53125 22.484375 10.953125 
Q 26.375 6.390625 33.015625 6.390625 
Q 39.65625 6.390625 43.53125 10.953125 
Q 47.40625 15.53125 47.40625 23.390625 
Q 47.40625 31.296875 43.53125 35.828125 
Q 39.65625 40.375 33.015625 40.375 
z
M 52.59375 71.296875 
L 52.59375 62.3125 
Q 48.875 64.0625 45.09375 64.984375 
Q 41.3125 65.921875 37.59375 65.921875 
Q 27.828125 65.921875 22.671875 59.328125 
Q 17.53125 52.734375 16.796875 39.40625 
Q 19.671875 43.65625 24.015625 45.921875 
Q 28.375 48.1875 33.59375 48.1875 
Q 44.578125 48.1875 50.953125 41.515625 
Q 57.328125 34.859375 57.328125 23.390625 
Q 57.328125 12.15625 50.6875 5.359375 
Q 44.046875 -1.421875 33.015625 -1.421875 
Q 20.359375 -1.421875 13.671875 8.265625 
Q 6.984375 17.96875 6.984375 36.375 
Q 6.984375 53.65625 15.1875 63.9375 
Q 23.390625 74.21875 37.203125 74.21875 
Q 40.921875 74.21875 44.703125 73.484375 
Q 48.484375 72.75 52.59375 71.296875 
z
" id="DejaVuSans-36"/>
      </defs>
      <g transform="translate(20.878125 53.058435)scale(0.1 -0.1)">
       <use xlink:href="#DejaVuSans-62"/>
       <use x="63.476562" xlink:href="#DejaVuSans-6f"/>
       <use x="124.658203" xlink:href="#DejaVuSans-65"/>
       <use x="186.181641" xlink:href="#DejaVuSans-63"/>
       <use x="241.162109" xlink:href="#DejaVuSans-6b"/>
       <use x="299.072266" xlink:href="#DejaVuSans-32"/>
       <use x="362.695312" xlink:href="#DejaVuSans-30"/>
       <use x="426.318359" xlink:href="#DejaVuSans-31"/>
       <use x="489.941406" xlink:href="#DejaVuSans-35"/>
       <use x="553.564453" xlink:href="#DejaVuSans-2f"/>
       <use x="587.255859" xlink:href="#DejaVuSans-74"/>
       <use x="626.464844" xlink:href="#DejaVuSans-65"/>
       <use x="687.988281" xlink:href="#DejaVuSans-6d"/>
       <use x="785.400391" xlink:href="#DejaVuSans-70"/>
       <use x="848.876953" xlink:href="#DejaVuSans-6f"/>
       <use x="910.058594" xlink:href="#DejaVuSans-64"/>
       <use x="973.535156" xlink:href="#DejaVuSans-65"/>
       <use x="1035.058594" xlink:href="#DejaVuSans-74"/>
       <use x="1074.267578" xlink:href="#DejaVuSans-65"/>
       <use x="1135.791016" xlink:href="#DejaVuSans-63"/>
       <use x="1190.771484" xlink:href="#DejaVuSans-74"/>
       <use x="1229.980469" xlink:href="#DejaVuSans-6f"/>
       <use x="1291.162109" xlink:href="#DejaVuSans-72"/>
       <use x="1332.275391" xlink:href="#DejaVuSans-32"/>
       <use x="1395.898438" xlink:href="#DejaVuSans-30"/>
       <use x="1459.521484" xlink:href="#DejaVuSans-31"/>
       <use x="1523.144531" xlink:href="#DejaVuSans-36"/>
       <use x="1586.767578" xlink:href="#DejaVuSans-5f"/>
       <use x="1636.767578" xlink:href="#DejaVuSans-64"/>
       <use x="1700.244141" xlink:href="#DejaVuSans-65"/>
       <use x="1761.767578" xlink:href="#DejaVuSans-66"/>
       <use x="1796.972656" xlink:href="#DejaVuSans-61"/>
       <use x="1858.251953" xlink:href="#DejaVuSans-75"/>
       <use x="1921.630859" xlink:href="#DejaVuSans-6c"/>
       <use x="1949.414062" xlink:href="#DejaVuSans-74"/>
      </g>
     </g>
    </g>
    <g id="text_14">
     <!-- Estimator -->
     <g transform="translate(14.798437 201.672781)rotate(-90)scale(0.1 -0.1)">
      <use xlink:href="#DejaVuSans-45"/>
      <use x="63.183594" xlink:href="#DejaVuSans-73"/>
      <use x="115.283203" xlink:href="#DejaVuSans-74"/>
      <use x="154.492188" xlink:href="#DejaVuSans-69"/>
      <use x="182.275391" xlink:href="#DejaVuSans-6d"/>
      <use x="279.6875" xlink:href="#DejaVuSans-61"/>
      <use x="340.966797" xlink:href="#DejaVuSans-74"/>
      <use x="380.175781" xlink:href="#DejaVuSans-6f"/>
      <use x="441.357422" xlink:href="#DejaVuSans-72"/>
     </g>
    </g>
   </g>
   <g id="PolyCollection_1">
    <path clip-path="url(#p977cb29a97)" d="M 258.105293 304.664589 
L 258.105293 307.017479 
L 261.00481 307.060361 
L 263.904326 307.094343 
L 266.803842 307.120493 
L 269.703359 307.140372 
L 272.602875 307.155877 
L 275.502392 307.169044 
L 278.401908 307.181837 
L 281.301424 307.195956 
L 284.200941 307.212679 
L 287.100457 307.232762 
L 289.999974 307.25641 
L 292.89949 307.283328 
L 295.799006 307.31284 
L 298.698523 307.344083 
L 301.598039 307.376241 
L 304.497556 307.408816 
L 307.397072 307.441914 
L 310.296588 307.47651 
L 313.196105 307.5147 
L 316.095621 307.559895 
L 318.995138 307.616957 
L 321.894654 307.692254 
L 324.79417 307.793602 
L 327.693687 307.930093 
L 330.593203 308.111772 
L 333.49272 308.349154 
L 336.392236 308.652574 
L 339.291752 309.031372 
L 342.191269 309.492958 
L 345.090785 310.041789 
L 347.990302 310.678359 
L 350.889818 311.398284 
L 353.789335 312.191617 
L 356.688851 313.042483 
L 359.588367 313.929167 
L 362.487884 314.824694 
L 365.3874 315.697941 
L 368.286917 316.515237 
L 371.186433 317.242362 
L 374.085949 317.846781 
L 376.985466 318.299918 
L 379.884982 318.579271 
L 382.784499 318.670125 
L 385.684015 318.566719 
L 388.583531 318.272722 
L 391.483048 317.800974 
L 394.382564 317.172535 
L 397.282081 316.415125 
L 400.181597 315.561138 
L 403.081113 314.645417 
L 405.98063 313.703015 
L 408.880146 312.767126 
L 411.779663 311.867351 
L 414.679179 311.028408 
L 417.578695 310.269327 
L 420.478212 309.603132 
L 423.377728 309.036957 
L 426.277245 308.572499 
L 429.176761 308.206734 
L 432.076277 307.932771 
L 434.975794 307.740769 
L 437.87531 307.618848 
L 440.774827 307.553933 
L 443.674343 307.53252 
L 446.573859 307.541328 
L 449.473376 307.567864 
L 452.372892 307.600864 
L 455.272409 307.630653 
L 458.171925 307.649391 
L 461.071441 307.651231 
L 463.970958 307.632366 
L 466.870474 307.59098 
L 469.769991 307.527106 
L 472.669507 307.442386 
L 475.569023 307.339777 
L 478.46854 307.223198 
L 481.368056 307.097162 
L 484.267573 306.966415 
L 487.167089 306.835601 
L 490.066605 306.708983 
L 492.966122 306.590235 
L 495.865638 306.482295 
L 498.765155 306.387301 
L 501.664671 306.30658 
L 504.564187 306.240692 
L 507.463704 306.189516 
L 510.36322 306.152345 
L 513.262737 306.128003 
L 516.162253 306.114959 
L 519.061769 306.111425 
L 521.961286 306.115462 
L 524.860802 306.12506 
L 527.760319 306.138222 
L 530.659835 306.153029 
L 533.559351 306.167714 
L 536.458868 306.180709 
L 539.358384 306.190705 
L 542.257901 306.196687 
L 545.157417 306.197964 
L 545.157417 305.484104 
L 545.157417 305.484104 
L 542.257901 305.485381 
L 539.358384 305.491363 
L 536.458868 305.50136 
L 533.559351 305.514355 
L 530.659835 305.529039 
L 527.760319 305.543847 
L 524.860802 305.557008 
L 521.961286 305.566606 
L 519.061769 305.570643 
L 516.162253 305.567109 
L 513.262737 305.554065 
L 510.36322 305.529724 
L 507.463704 305.492552 
L 504.564187 305.441376 
L 501.664671 305.375488 
L 498.765155 305.294767 
L 495.865638 305.199773 
L 492.966122 305.091834 
L 490.066605 304.973085 
L 487.167089 304.846468 
L 484.267573 304.715653 
L 481.368056 304.584906 
L 478.46854 304.458871 
L 475.569023 304.342292 
L 472.669507 304.239682 
L 469.769991 304.154962 
L 466.870474 304.091088 
L 463.970958 304.049703 
L 461.071441 304.030837 
L 458.171925 304.032677 
L 455.272409 304.051416 
L 452.372892 304.081204 
L 449.473376 304.114204 
L 446.573859 304.14074 
L 443.674343 304.149549 
L 440.774827 304.128135 
L 437.87531 304.06322 
L 434.975794 303.941299 
L 432.076277 303.749297 
L 429.176761 303.475334 
L 426.277245 303.109569 
L 423.377728 302.645111 
L 420.478212 302.078936 
L 417.578695 301.412741 
L 414.679179 300.65366 
L 411.779663 299.814717 
L 408.880146 298.914942 
L 405.98063 297.979053 
L 403.081113 297.036651 
L 400.181597 296.12093 
L 397.282081 295.266943 
L 394.382564 294.509533 
L 391.483048 293.881094 
L 388.583531 293.409347 
L 385.684015 293.115349 
L 382.784499 293.011943 
L 379.884982 293.102797 
L 376.985466 293.38215 
L 374.085949 293.835287 
L 371.186433 294.439706 
L 368.286917 295.166831 
L 365.3874 295.984127 
L 362.487884 296.857374 
L 359.588367 297.752901 
L 356.688851 298.639585 
L 353.789335 299.490452 
L 350.889818 300.283784 
L 347.990302 301.003709 
L 345.090785 301.640279 
L 342.191269 302.18911 
L 339.291752 302.650696 
L 336.392236 303.029494 
L 333.49272 303.332914 
L 330.593203 303.570296 
L 327.693687 303.751976 
L 324.79417 303.888466 
L 321.894654 303.989814 
L 318.995138 304.065111 
L 316.095621 304.122173 
L 313.196105 304.167368 
L 310.296588 304.205558 
L 307.397072 304.240154 
L 304.497556 304.273252 
L 301.598039 304.305827 
L 298.698523 304.337985 
L 295.799006 304.369228 
L 292.89949 304.39874 
L 289.999974 304.425658 
L 287.100457 304.449306 
L 284.200941 304.469389 
L 281.301424 304.486112 
L 278.401908 304.500231 
L 275.502392 304.513025 
L 272.602875 304.526191 
L 269.703359 304.541697 
L 266.803842 304.561575 
L 263.904326 304.587725 
L 261.00481 304.621707 
L 258.105293 304.664589 
z
" style="fill:#ff0000;fill-opacity:0.75;"/>
   </g>
   <g id="PolyCollection_2">
    <path clip-path="url(#p977cb29a97)" d="M 258.105293 253.469998 
L 258.105293 255.579343 
L 261.00481 255.596267 
L 263.904326 255.599123 
L 266.803842 255.588837 
L 269.703359 255.567091 
L 272.602875 255.536199 
L 275.502392 255.498929 
L 278.401908 255.458298 
L 281.301424 255.417349 
L 284.200941 255.378952 
L 287.100457 255.345626 
L 289.999974 255.319422 
L 292.89949 255.301862 
L 295.799006 255.293941 
L 298.698523 255.296201 
L 301.598039 255.308861 
L 304.497556 255.332 
L 307.397072 255.365784 
L 310.296588 255.410722 
L 313.196105 255.467939 
L 316.095621 255.539444 
L 318.995138 255.628381 
L 321.894654 255.739218 
L 324.79417 255.877869 
L 327.693687 256.05168 
L 330.593203 256.26927 
L 333.49272 256.540171 
L 336.392236 256.874263 
L 339.291752 257.280985 
L 342.191269 257.768351 
L 345.090785 258.341824 
L 347.990302 259.003143 
L 350.889818 259.749205 
L 353.789335 260.571154 
L 356.688851 261.453822 
L 359.588367 262.375635 
L 362.487884 263.309109 
L 365.3874 264.221945 
L 368.286917 265.078715 
L 371.186433 265.843038 
L 374.085949 266.480052 
L 376.985466 266.958978 
L 379.884982 267.255505 
L 382.784499 267.353761 
L 385.684015 267.24764 
L 388.583531 266.941346 
L 391.483048 266.44911 
L 394.382564 265.794089 
L 397.282081 265.006597 
L 400.181597 264.121855 
L 403.081113 263.177493 
L 405.98063 262.211063 
L 408.880146 261.25778 
L 411.779663 260.348665 
L 414.679179 259.509212 
L 417.578695 258.75861 
L 420.478212 258.109506 
L 423.377728 257.568226 
L 426.277245 257.135359 
L 429.176761 256.806577 
L 432.076277 256.573586 
L 434.975794 256.425105 
L 437.87531 256.347817 
L 440.774827 256.327237 
L 443.674343 256.348493 
L 446.573859 256.397002 
L 449.473376 256.45905 
L 452.372892 256.522283 
L 455.272409 256.576114 
L 458.171925 256.612026 
L 461.071441 256.623776 
L 463.970958 256.607484 
L 466.870474 256.561599 
L 469.769991 256.486744 
L 472.669507 256.385442 
L 475.569023 256.261749 
L 478.46854 256.120826 
L 481.368056 255.968476 
L 484.267573 255.810691 
L 487.167089 255.653239 
L 490.066605 255.501329 
L 492.966122 255.359354 
L 495.865638 255.230742 
L 498.765155 255.117893 
L 501.664671 255.022197 
L 504.564187 254.944119 
L 507.463704 254.88332 
L 510.36322 254.838804 
L 513.262737 254.809066 
L 516.162253 254.792241 
L 519.061769 254.786222 
L 521.961286 254.788779 
L 524.860802 254.797647 
L 527.760319 254.810607 
L 530.659835 254.825559 
L 533.559351 254.840582 
L 536.458868 254.853988 
L 539.358384 254.864376 
L 542.257901 254.870665 
L 545.157417 254.872125 
L 545.157417 254.177216 
L 545.157417 254.177216 
L 542.257901 254.178676 
L 539.358384 254.184965 
L 536.458868 254.195353 
L 533.559351 254.208759 
L 530.659835 254.223781 
L 527.760319 254.238734 
L 524.860802 254.251694 
L 521.961286 254.260562 
L 519.061769 254.263119 
L 516.162253 254.2571 
L 513.262737 254.240274 
L 510.36322 254.210537 
L 507.463704 254.166021 
L 504.564187 254.105222 
L 501.664671 254.027144 
L 498.765155 253.931448 
L 495.865638 253.818599 
L 492.966122 253.689987 
L 490.066605 253.548012 
L 487.167089 253.396102 
L 484.267573 253.23865 
L 481.368056 253.080865 
L 478.46854 252.928515 
L 475.569023 252.787592 
L 472.669507 252.663899 
L 469.769991 252.562597 
L 466.870474 252.487742 
L 463.970958 252.441857 
L 461.071441 252.425565 
L 458.171925 252.437315 
L 455.272409 252.473227 
L 452.372892 252.527058 
L 449.473376 252.590291 
L 446.573859 252.652339 
L 443.674343 252.700847 
L 440.774827 252.722104 
L 437.87531 252.701524 
L 434.975794 252.624235 
L 432.076277 252.475755 
L 429.176761 252.242764 
L 426.277245 251.913982 
L 423.377728 251.481115 
L 420.478212 250.939835 
L 417.578695 250.290731 
L 414.679179 249.540129 
L 411.779663 248.700676 
L 408.880146 247.791561 
L 405.98063 246.838278 
L 403.081113 245.871848 
L 400.181597 244.927486 
L 397.282081 244.042743 
L 394.382564 243.255252 
L 391.483048 242.600231 
L 388.583531 242.107995 
L 385.684015 241.801701 
L 382.784499 241.69558 
L 379.884982 241.793836 
L 376.985466 242.090363 
L 374.085949 242.569288 
L 371.186433 243.206302 
L 368.286917 243.970626 
L 365.3874 244.827396 
L 362.487884 245.740232 
L 359.588367 246.673706 
L 356.688851 247.595519 
L 353.789335 248.478187 
L 350.889818 249.300136 
L 347.990302 250.046198 
L 345.090785 250.707517 
L 342.191269 251.28099 
L 339.291752 251.768356 
L 336.392236 252.175078 
L 333.49272 252.50917 
L 330.593203 252.780071 
L 327.693687 252.997661 
L 324.79417 253.171472 
L 321.894654 253.310123 
L 318.995138 253.42096 
L 316.095621 253.509897 
L 313.196105 253.581402 
L 310.296588 253.638619 
L 307.397072 253.683557 
L 304.497556 253.717341 
L 301.598039 253.74048 
L 298.698523 253.75314 
L 295.799006 253.7554 
L 292.89949 253.747479 
L 289.999974 253.729919 
L 287.100457 253.703715 
L 284.200941 253.670389 
L 281.301424 253.631992 
L 278.401908 253.591043 
L 275.502392 253.550412 
L 272.602875 253.513142 
L 269.703359 253.48225 
L 266.803842 253.460504 
L 263.904326 253.450218 
L 261.00481 253.453074 
L 258.105293 253.469998 
z
" style="fill:#ff0000;fill-opacity:0.75;"/>
   </g>
   <g id="PolyCollection_3">
    <path clip-path="url(#p977cb29a97)" d="M 304.934781 201.579364 
L 304.934781 204.83725 
L 307.001806 204.917466 
L 309.06883 204.990554 
L 311.135855 205.05621 
L 313.20288 205.11434 
L 315.269905 205.165052 
L 317.33693 205.208678 
L 319.403954 205.245812 
L 321.470979 205.27738 
L 323.538004 205.304734 
L 325.605029 205.329774 
L 327.672053 205.355079 
L 329.739078 205.384037 
L 331.806103 205.42095 
L 333.873128 205.471101 
L 335.940153 205.540747 
L 338.007177 205.637034 
L 340.074202 205.7678 
L 342.141227 205.94128 
L 344.208252 206.165683 
L 346.275276 206.44869 
L 348.342301 206.796855 
L 350.409326 207.214973 
L 352.476351 207.705447 
L 354.543376 208.267705 
L 356.6104 208.89772 
L 358.677425 209.587701 
L 360.74445 210.325983 
L 362.811475 211.09717 
L 364.878499 211.882539 
L 366.945524 212.660719 
L 369.012549 213.408591 
L 371.079574 214.102398 
L 373.146599 214.71896 
L 375.213623 215.236933 
L 377.280648 215.638006 
L 379.347673 215.907945 
L 381.414698 216.037398 
L 383.481722 216.022403 
L 385.548747 215.86455 
L 387.615772 215.570791 
L 389.682797 215.15292 
L 391.749822 214.626772 
L 393.816846 214.011212 
L 395.883871 213.327003 
L 397.950896 212.595648 
L 400.017921 211.838283 
L 402.084945 211.074721 
L 404.15197 210.32268 
L 406.218995 209.597246 
L 408.28602 208.91057 
L 410.353045 208.271804 
L 412.420069 207.687221 
L 414.487094 207.160498 
L 416.554119 206.693097 
L 418.621144 206.284699 
L 420.688168 205.933641 
L 422.755193 205.637313 
L 424.822218 205.392496 
L 426.889243 205.195618 
L 428.956268 205.042922 
L 431.023292 204.930555 
L 433.090317 204.854599 
L 435.157342 204.811044 
L 437.224367 204.79575 
L 439.291391 204.804395 
L 441.358416 204.832448 
L 443.425441 204.87517 
L 445.492466 204.92766 
L 447.559491 204.984941 
L 449.626515 205.042089 
L 451.69354 205.094395 
L 453.760565 205.137544 
L 455.82759 205.167801 
L 457.894614 205.182171 
L 459.961639 205.178542 
L 462.028664 205.155771 
L 464.095689 205.11372 
L 466.162714 205.053233 
L 468.229738 204.976049 
L 470.296763 204.884667 
L 472.363788 204.782167 
L 474.430813 204.672004 
L 476.497837 204.557785 
L 478.564862 204.44306 
L 480.631887 204.331117 
L 482.698912 204.224826 
L 484.765937 204.126506 
L 486.832961 204.03785 
L 488.899986 203.959892 
L 490.967011 203.893017 
L 493.034036 203.837014 
L 495.10106 203.791155 
L 497.168085 203.754306 
L 499.23511 203.725038 
L 501.302135 203.701757 
L 503.36916 203.682816 
L 505.436184 203.666628 
L 507.503209 203.651749 
L 509.570234 203.636952 
L 509.570234 202.779662 
L 509.570234 202.779662 
L 507.503209 202.764865 
L 505.436184 202.749986 
L 503.36916 202.733797 
L 501.302135 202.714857 
L 499.23511 202.691575 
L 497.168085 202.662308 
L 495.10106 202.625458 
L 493.034036 202.5796 
L 490.967011 202.523597 
L 488.899986 202.456722 
L 486.832961 202.378764 
L 484.765937 202.290108 
L 482.698912 202.191788 
L 480.631887 202.085496 
L 478.564862 201.973554 
L 476.497837 201.858828 
L 474.430813 201.74461 
L 472.363788 201.634447 
L 470.296763 201.531947 
L 468.229738 201.440565 
L 466.162714 201.36338 
L 464.095689 201.302893 
L 462.028664 201.260843 
L 459.961639 201.238072 
L 457.894614 201.234443 
L 455.82759 201.248813 
L 453.760565 201.279069 
L 451.69354 201.322219 
L 449.626515 201.374525 
L 447.559491 201.431672 
L 445.492466 201.488953 
L 443.425441 201.541444 
L 441.358416 201.584166 
L 439.291391 201.612219 
L 437.224367 201.620864 
L 435.157342 201.60557 
L 433.090317 201.562015 
L 431.023292 201.486059 
L 428.956268 201.373692 
L 426.889243 201.220995 
L 424.822218 201.024117 
L 422.755193 200.779301 
L 420.688168 200.482973 
L 418.621144 200.131914 
L 416.554119 199.723517 
L 414.487094 199.256116 
L 412.420069 198.729392 
L 410.353045 198.144809 
L 408.28602 197.506043 
L 406.218995 196.819368 
L 404.15197 196.093933 
L 402.084945 195.341892 
L 400.017921 194.578331 
L 397.950896 193.820966 
L 395.883871 193.08961 
L 393.816846 192.405402 
L 391.749822 191.789842 
L 389.682797 191.263694 
L 387.615772 190.845822 
L 385.548747 190.552063 
L 383.481722 190.39421 
L 381.414698 190.379216 
L 379.347673 190.508669 
L 377.280648 190.778607 
L 375.213623 191.179681 
L 373.146599 191.697654 
L 371.079574 192.314216 
L 369.012549 193.008022 
L 366.945524 193.755895 
L 364.878499 194.534074 
L 362.811475 195.319444 
L 360.74445 196.09063 
L 358.677425 196.828912 
L 356.6104 197.518893 
L 354.543376 198.148909 
L 352.476351 198.711167 
L 350.409326 199.201641 
L 348.342301 199.619759 
L 346.275276 199.967923 
L 344.208252 200.25093 
L 342.141227 200.475334 
L 340.074202 200.648813 
L 338.007177 200.77958 
L 335.940153 200.875866 
L 333.873128 200.945513 
L 331.806103 200.995663 
L 329.739078 201.032577 
L 327.672053 201.061534 
L 325.605029 201.08684 
L 323.538004 201.11188 
L 321.470979 201.139234 
L 319.403954 201.170802 
L 317.33693 201.207936 
L 315.269905 201.251561 
L 313.20288 201.302273 
L 311.135855 201.360403 
L 309.06883 201.42606 
L 307.001806 201.499148 
L 304.934781 201.579364 
z
" style="fill:#ff0000;fill-opacity:0.75;"/>
   </g>
   <g id="PolyCollection_4">
    <path clip-path="url(#p977cb29a97)" d="M 304.799661 150.903847 
L 304.799661 152.880039 
L 306.562308 152.876731 
L 308.324955 152.862866 
L 310.087602 152.838952 
L 311.850249 152.805841 
L 313.612896 152.764693 
L 315.375543 152.716942 
L 317.13819 152.664238 
L 318.900837 152.608405 
L 320.663484 152.551396 
L 322.426131 152.495256 
L 324.188778 152.442106 
L 325.951425 152.394138 
L 327.714072 152.353629 
L 329.476719 152.322976 
L 331.239366 152.304744 
L 333.002013 152.301719 
L 334.76466 152.316973 
L 336.527307 152.353919 
L 338.289954 152.416345 
L 340.052601 152.508436 
L 341.815248 152.634745 
L 343.577895 152.800125 
L 345.340542 153.009601 
L 347.103189 153.268186 
L 348.865836 153.580635 
L 350.628483 153.951134 
L 352.39113 154.382949 
L 354.153777 154.878043 
L 355.916424 155.436677 
L 357.679071 156.057036 
L 359.441718 156.734902 
L 361.204365 157.46341 
L 362.967012 158.232924 
L 364.729659 159.031047 
L 366.492306 159.842807 
L 368.254953 160.65101 
L 370.0176 161.436762 
L 371.780247 162.180156 
L 373.542894 162.861071 
L 375.305541 163.46006 
L 377.068188 163.959261 
L 378.830835 164.343276 
L 380.593482 164.599954 
L 382.356129 164.721034 
L 384.118776 164.702582 
L 385.881422 164.545204 
L 387.644069 164.254014 
L 389.406716 163.838362 
L 391.169363 163.311334 
L 392.93201 162.689078 
L 394.694657 161.989985 
L 396.457304 161.233798 
L 398.219951 160.440707 
L 399.982598 159.630483 
L 401.745245 158.821703 
L 403.507892 158.03112 
L 405.270539 157.273178 
L 407.033186 156.559715 
L 408.795833 155.89983 
L 410.55848 155.299915 
L 412.321127 154.76382 
L 414.083774 154.293125 
L 415.846421 153.887483 
L 417.609068 153.545006 
L 419.371715 153.262652 
L 421.134362 153.036597 
L 422.897009 152.862565 
L 424.659656 152.736093 
L 426.422303 152.652745 
L 428.18495 152.608249 
L 429.947597 152.598571 
L 431.710244 152.619937 
L 433.472891 152.668806 
L 435.235538 152.74181 
L 436.998185 152.835679 
L 438.760832 152.947156 
L 440.523479 153.072919 
L 442.286126 153.209529 
L 444.048773 153.353389 
L 445.81142 153.500752 
L 447.574067 153.647747 
L 449.336714 153.790446 
L 451.099361 153.924959 
L 452.862008 154.047543 
L 454.624655 154.154735 
L 456.387302 154.243476 
L 458.149949 154.311236 
L 459.912596 154.356112 
L 461.675243 154.37691 
L 463.43789 154.373184 
L 465.200537 154.345244 
L 466.963184 154.294129 
L 468.725831 154.221536 
L 470.488478 154.129728 
L 472.251125 154.021416 
L 474.013772 153.899622 
L 475.776419 153.767545 
L 477.539066 153.628417 
L 479.301713 153.485384 
L 479.301713 150.298502 
L 479.301713 150.298502 
L 477.539066 150.155469 
L 475.776419 150.016342 
L 474.013772 149.884264 
L 472.251125 149.762471 
L 470.488478 149.654158 
L 468.725831 149.56235 
L 466.963184 149.489757 
L 465.200537 149.438642 
L 463.43789 149.410703 
L 461.675243 149.406976 
L 459.912596 149.427774 
L 458.149949 149.472651 
L 456.387302 149.54041 
L 454.624655 149.629152 
L 452.862008 149.736343 
L 451.099361 149.858928 
L 449.336714 149.99344 
L 447.574067 150.136139 
L 445.81142 150.283134 
L 444.048773 150.430497 
L 442.286126 150.574358 
L 440.523479 150.710967 
L 438.760832 150.83673 
L 436.998185 150.948207 
L 435.235538 151.042076 
L 433.472891 151.11508 
L 431.710244 151.163949 
L 429.947597 151.185315 
L 428.18495 151.175637 
L 426.422303 151.131141 
L 424.659656 151.047794 
L 422.897009 150.921322 
L 421.134362 150.747289 
L 419.371715 150.521235 
L 417.609068 150.238881 
L 415.846421 149.896404 
L 414.083774 149.490762 
L 412.321127 149.020066 
L 410.55848 148.483972 
L 408.795833 147.884057 
L 407.033186 147.224172 
L 405.270539 146.510708 
L 403.507892 145.752766 
L 401.745245 144.962183 
L 399.982598 144.153404 
L 398.219951 143.343179 
L 396.457304 142.550088 
L 394.694657 141.793901 
L 392.93201 141.094808 
L 391.169363 140.472552 
L 389.406716 139.945525 
L 387.644069 139.529872 
L 385.881422 139.238683 
L 384.118776 139.081304 
L 382.356129 139.062852 
L 380.593482 139.183933 
L 378.830835 139.440611 
L 377.068188 139.824625 
L 375.305541 140.323826 
L 373.542894 140.922815 
L 371.780247 141.60373 
L 370.0176 142.347124 
L 368.254953 143.132877 
L 366.492306 143.941079 
L 364.729659 144.752839 
L 362.967012 145.550963 
L 361.204365 146.320476 
L 359.441718 147.048984 
L 357.679071 147.72685 
L 355.916424 148.347209 
L 354.153777 148.905843 
L 352.39113 149.400937 
L 350.628483 149.832752 
L 348.865836 150.203251 
L 347.103189 150.5157 
L 345.340542 150.774286 
L 343.577895 150.983762 
L 341.815248 151.149141 
L 340.052601 151.27545 
L 338.289954 151.367541 
L 336.527307 151.429968 
L 334.76466 151.466913 
L 333.002013 151.482167 
L 331.239366 151.479143 
L 329.476719 151.46091 
L 327.714072 151.430258 
L 325.951425 151.389749 
L 324.188778 151.34178 
L 322.426131 151.28863 
L 320.663484 151.232491 
L 318.900837 151.175481 
L 317.13819 151.119649 
L 315.375543 151.066945 
L 313.612896 151.019193 
L 311.850249 150.978046 
L 310.087602 150.944934 
L 308.324955 150.92102 
L 306.562308 150.907155 
L 304.799661 150.903847 
z
" style="fill:#ff0000;fill-opacity:0.75;"/>
   </g>
   <g id="PolyCollection_5">
    <path clip-path="url(#p977cb29a97)" d="M 382.685103 87.859738 
L 382.685103 113.291421 
L 384.283434 113.387159 
L 385.881764 113.40467 
L 387.480095 113.344501 
L 389.078426 113.208761 
L 390.676757 113.001071 
L 392.275088 112.726449 
L 393.873419 112.391161 
L 395.47175 112.002543 
L 397.070081 111.56879 
L 398.668411 111.09873 
L 400.266742 110.601599 
L 401.865073 110.086806 
L 403.463404 109.563724 
L 405.061735 109.041488 
L 406.660066 108.528825 
L 408.258397 108.033909 
L 409.856728 107.56425 
L 411.455059 107.12661 
L 413.053389 106.726953 
L 414.65172 106.37042 
L 416.250051 106.061324 
L 417.848382 105.803165 
L 419.446713 105.598653 
L 421.045044 105.449741 
L 422.643375 105.357652 
L 424.241706 105.322914 
L 425.840037 105.345373 
L 427.438367 105.42421 
L 429.036698 105.557945 
L 430.635029 105.74443 
L 432.23336 105.980839 
L 433.831691 106.263658 
L 435.430022 106.588673 
L 437.028353 106.950968 
L 438.626684 107.344931 
L 440.225015 107.764284 
L 441.823345 108.202128 
L 443.421676 108.651011 
L 445.020007 109.103028 
L 446.618338 109.54994 
L 448.216669 109.983322 
L 449.815 110.39473 
L 451.413331 110.775886 
L 453.011662 111.118875 
L 454.609993 111.416337 
L 456.208323 111.66167 
L 457.806654 111.849203 
L 459.404985 111.974361 
L 461.003316 112.033796 
L 462.601647 112.025484 
L 464.199978 111.948784 
L 465.798309 111.804455 
L 467.39664 111.594626 
L 468.994971 111.322731 
L 470.593301 110.99339 
L 472.191632 110.612273 
L 473.789963 110.185919 
L 475.388294 109.721541 
L 476.986625 109.226816 
L 478.584956 108.709666 
L 480.183287 108.178047 
L 481.781618 107.639745 
L 483.379948 107.102191 
L 484.978279 106.572294 
L 486.57661 106.056312 
L 488.174941 105.559743 
L 489.773272 105.087251 
L 491.371603 104.642627 
L 492.969934 104.228775 
L 494.568265 103.847727 
L 496.166596 103.500687 
L 497.764926 103.188084 
L 499.363257 102.909654 
L 500.961588 102.66452 
L 502.559919 102.451292 
L 504.15825 102.268159 
L 505.756581 102.112984 
L 507.354912 101.983397 
L 508.953243 101.876878 
L 510.551574 101.790833 
L 512.149904 101.722664 
L 513.748235 101.669824 
L 515.346566 101.62986 
L 516.944897 101.60046 
L 518.543228 101.579468 
L 520.141559 101.564915 
L 521.73989 101.555023 
L 523.338221 101.548213 
L 524.936552 101.543108 
L 526.534882 101.538525 
L 528.133213 101.533469 
L 529.731544 101.527125 
L 531.329875 101.518847 
L 532.928206 101.508143 
L 534.526537 101.494664 
L 536.124868 101.478191 
L 537.723199 101.458623 
L 539.32153 101.435958 
L 540.91986 101.41029 
L 540.91986 99.740869 
L 540.91986 99.740869 
L 539.32153 99.715201 
L 537.723199 99.692537 
L 536.124868 99.672968 
L 534.526537 99.656495 
L 532.928206 99.643016 
L 531.329875 99.632312 
L 529.731544 99.624034 
L 528.133213 99.61769 
L 526.534882 99.612634 
L 524.936552 99.608051 
L 523.338221 99.602946 
L 521.73989 99.596136 
L 520.141559 99.586244 
L 518.543228 99.571691 
L 516.944897 99.550699 
L 515.346566 99.521299 
L 513.748235 99.481335 
L 512.149904 99.428495 
L 510.551574 99.360326 
L 508.953243 99.274281 
L 507.354912 99.167762 
L 505.756581 99.038175 
L 504.15825 98.883 
L 502.559919 98.699867 
L 500.961588 98.486639 
L 499.363257 98.241505 
L 497.764926 97.963075 
L 496.166596 97.650472 
L 494.568265 97.303432 
L 492.969934 96.922385 
L 491.371603 96.508532 
L 489.773272 96.063908 
L 488.174941 95.591417 
L 486.57661 95.094847 
L 484.978279 94.578865 
L 483.379948 94.048968 
L 481.781618 93.511414 
L 480.183287 92.973112 
L 478.584956 92.441493 
L 476.986625 91.924343 
L 475.388294 91.429618 
L 473.789963 90.96524 
L 472.191632 90.538886 
L 470.593301 90.157769 
L 468.994971 89.828429 
L 467.39664 89.556533 
L 465.798309 89.346704 
L 464.199978 89.202375 
L 462.601647 89.125675 
L 461.003316 89.117363 
L 459.404985 89.176798 
L 457.806654 89.301956 
L 456.208323 89.489489 
L 454.609993 89.734822 
L 453.011662 90.032284 
L 451.413331 90.375273 
L 449.815 90.756429 
L 448.216669 91.167837 
L 446.618338 91.601219 
L 445.020007 92.048131 
L 443.421676 92.500148 
L 441.823345 92.949031 
L 440.225015 93.386875 
L 438.626684 93.806228 
L 437.028353 94.200191 
L 435.430022 94.562486 
L 433.831691 94.887501 
L 432.23336 95.17032 
L 430.635029 95.406729 
L 429.036698 95.593214 
L 427.438367 95.726949 
L 425.840037 95.805787 
L 424.241706 95.828245 
L 422.643375 95.793507 
L 421.045044 95.701419 
L 419.446713 95.552506 
L 417.848382 95.347994 
L 416.250051 95.089835 
L 414.65172 94.780739 
L 413.053389 94.424206 
L 411.455059 94.02455 
L 409.856728 93.586909 
L 408.258397 93.11725 
L 406.660066 92.622334 
L 405.061735 92.109671 
L 403.463404 91.587435 
L 401.865073 91.064353 
L 400.266742 90.549561 
L 398.668411 90.052429 
L 397.070081 89.582369 
L 395.47175 89.148616 
L 393.873419 88.759998 
L 392.275088 88.42471 
L 390.676757 88.150088 
L 389.078426 87.942398 
L 387.480095 87.806658 
L 385.881764 87.746489 
L 384.283434 87.764 
L 382.685103 87.859738 
z
" style="fill:#ff0000;fill-opacity:0.75;"/>
   </g>
   <g id="PolyCollection_6">
    <path clip-path="url(#p977cb29a97)" d="M 304.858422 48.217418 
L 304.858422 50.301014 
L 306.46113 50.296949 
L 308.063839 50.284339 
L 309.666547 50.263568 
L 311.269256 50.235246 
L 312.871964 50.200194 
L 314.474673 50.15942 
L 316.077381 50.114104 
L 317.68009 50.065564 
L 319.282798 50.01524 
L 320.885507 49.964672 
L 322.488215 49.915485 
L 324.090924 49.869381 
L 325.693632 49.828141 
L 327.296341 49.793632 
L 328.899049 49.767819 
L 330.501758 49.752789 
L 332.104466 49.750773 
L 333.707175 49.764173 
L 335.309883 49.795578 
L 336.912592 49.847779 
L 338.5153 49.923773 
L 340.118009 50.026743 
L 341.720717 50.160023 
L 343.323426 50.327034 
L 344.926134 50.5312 
L 346.528843 50.775826 
L 348.131551 51.063957 
L 349.73426 51.398208 
L 351.336968 51.780575 
L 352.939677 52.212233 
L 354.542385 52.693332 
L 356.145094 53.222802 
L 357.747802 53.798178 
L 359.350511 54.41546 
L 360.953219 55.069024 
L 362.555928 55.751589 
L 364.158636 56.454259 
L 365.761345 57.166638 
L 367.364053 57.877034 
L 368.966762 58.572729 
L 370.56947 59.240334 
L 372.172179 59.866196 
L 373.774887 60.436852 
L 375.377596 60.939504 
L 376.980304 61.362493 
L 378.583013 61.695754 
L 380.185721 61.931215 
L 381.78843 62.063127 
L 383.391138 62.088307 
L 384.993847 62.006269 
L 386.596555 61.819251 
L 388.199264 61.532125 
L 389.801972 61.152194 
L 391.404681 60.688902 
L 393.00739 60.153452 
L 394.610098 59.558374 
L 396.212807 58.917057 
L 397.815515 58.24326 
L 399.418224 57.550654 
L 401.020932 56.852383 
L 402.623641 56.16069 
L 404.226349 55.48661 
L 405.829058 54.839735 
L 407.431766 54.228069 
L 409.034475 53.657959 
L 410.637183 53.134105 
L 412.239892 52.659632 
L 413.8426 52.236221 
L 415.445309 51.864281 
L 417.048017 51.543146 
L 418.650726 51.271285 
L 420.253434 51.046512 
L 421.856143 50.866184 
L 423.458851 50.72738 
L 425.06156 50.627046 
L 426.664268 50.562113 
L 428.266977 50.52958 
L 429.869685 50.526559 
L 431.472394 50.550296 
L 433.075102 50.598159 
L 434.677811 50.667606 
L 436.280519 50.75614 
L 437.883228 50.861259 
L 439.485936 50.980397 
L 441.088645 51.11088 
L 442.691353 51.24989 
L 444.294062 51.394445 
L 445.89677 51.541402 
L 447.499479 51.687483 
L 449.102187 51.829311 
L 450.704896 51.963488 
L 452.307604 52.086666 
L 453.910313 52.195647 
L 455.513021 52.287484 
L 457.11573 52.35958 
L 458.718438 52.409783 
L 460.321147 52.436468 
L 461.923855 52.438603 
L 463.526564 52.415788 
L 463.526564 46.102644 
L 463.526564 46.102644 
L 461.923855 46.079829 
L 460.321147 46.081964 
L 458.718438 46.108649 
L 457.11573 46.158852 
L 455.513021 46.230947 
L 453.910313 46.322785 
L 452.307604 46.431766 
L 450.704896 46.554944 
L 449.102187 46.68912 
L 447.499479 46.830949 
L 445.89677 46.977029 
L 444.294062 47.123987 
L 442.691353 47.268542 
L 441.088645 47.407552 
L 439.485936 47.538035 
L 437.883228 47.657172 
L 436.280519 47.762291 
L 434.677811 47.850826 
L 433.075102 47.920273 
L 431.472394 47.968136 
L 429.869685 47.991873 
L 428.266977 47.988852 
L 426.664268 47.956319 
L 425.06156 47.891386 
L 423.458851 47.791051 
L 421.856143 47.652247 
L 420.253434 47.47192 
L 418.650726 47.247147 
L 417.048017 46.975286 
L 415.445309 46.654151 
L 413.8426 46.282211 
L 412.239892 45.8588 
L 410.637183 45.384327 
L 409.034475 44.860473 
L 407.431766 44.290363 
L 405.829058 43.678697 
L 404.226349 43.031822 
L 402.623641 42.357742 
L 401.020932 41.666049 
L 399.418224 40.967778 
L 397.815515 40.275171 
L 396.212807 39.601375 
L 394.610098 38.960057 
L 393.00739 38.36498 
L 391.404681 37.82953 
L 389.801972 37.366237 
L 388.199264 36.986307 
L 386.596555 36.69918 
L 384.993847 36.512163 
L 383.391138 36.430125 
L 381.78843 36.455305 
L 380.185721 36.587217 
L 378.583013 36.822678 
L 376.980304 37.155939 
L 375.377596 37.578928 
L 373.774887 38.08158 
L 372.172179 38.652236 
L 370.56947 39.278098 
L 368.966762 39.945703 
L 367.364053 40.641398 
L 365.761345 41.351793 
L 364.158636 42.064173 
L 362.555928 42.766842 
L 360.953219 43.449407 
L 359.350511 44.102972 
L 357.747802 44.720254 
L 356.145094 45.29563 
L 354.542385 45.8251 
L 352.939677 46.306199 
L 351.336968 46.737857 
L 349.73426 47.120224 
L 348.131551 47.454475 
L 346.528843 47.742606 
L 344.926134 47.987232 
L 343.323426 48.191398 
L 341.720717 48.358409 
L 340.118009 48.491688 
L 338.5153 48.594658 
L 336.912592 48.670653 
L 335.309883 48.722854 
L 333.707175 48.754259 
L 332.104466 48.767658 
L 330.501758 48.765643 
L 328.899049 48.750613 
L 327.296341 48.7248 
L 325.693632 48.69029 
L 324.090924 48.649051 
L 322.488215 48.602947 
L 320.885507 48.55376 
L 319.282798 48.503192 
L 317.68009 48.452868 
L 316.077381 48.404328 
L 314.474673 48.359011 
L 312.871964 48.318238 
L 311.269256 48.283185 
L 309.666547 48.254864 
L 308.063839 48.234093 
L 306.46113 48.221483 
L 304.858422 48.217418 
z
" style="fill:#ff0000;fill-opacity:0.75;"/>
   </g>
   <g id="LineCollection_1">
    <path clip-path="url(#p977cb29a97)" d="M 380.290764 312.25558 
L 380.290764 299.426489 
" style="fill:none;stroke:#000000;stroke-width:1.5;"/>
    <path clip-path="url(#p977cb29a97)" d="M 384.977964 260.939216 
L 384.977964 248.110125 
" style="fill:none;stroke:#000000;stroke-width:1.5;"/>
    <path clip-path="url(#p977cb29a97)" d="M 385.797609 209.622852 
L 385.797609 196.793761 
" style="fill:none;stroke:#000000;stroke-width:1.5;"/>
    <path clip-path="url(#p977cb29a97)" d="M 391.149662 158.306489 
L 391.149662 145.477398 
" style="fill:none;stroke:#000000;stroke-width:1.5;"/>
    <path clip-path="url(#p977cb29a97)" d="M 425.850693 106.990125 
L 425.850693 94.161034 
" style="fill:none;stroke:#000000;stroke-width:1.5;"/>
    <path clip-path="url(#p977cb29a97)" d="M 393.384258 55.673761 
L 393.384258 42.84467 
" style="fill:none;stroke:#000000;stroke-width:1.5;"/>
   </g>
   <g id="patch_3">
    <path d="M 226.746875 332.782125 
L 226.746875 22.318125 
" style="fill:none;stroke:#000000;stroke-linecap:square;stroke-linejoin:miter;stroke-width:0.8;"/>
   </g>
   <g id="patch_4">
    <path d="M 617.346875 332.782125 
L 617.346875 22.318125 
" style="fill:none;stroke:#000000;stroke-linecap:square;stroke-linejoin:miter;stroke-width:0.8;"/>
   </g>
   <g id="patch_5">
    <path d="M 226.746875 332.782125 
L 617.346875 332.782125 
" style="fill:none;stroke:#000000;stroke-linecap:square;stroke-linejoin:miter;stroke-width:0.8;"/>
   </g>
   <g id="patch_6">
    <path d="M 226.746875 22.318125 
L 617.346875 22.318125 
" style="fill:none;stroke:#000000;stroke-linecap:square;stroke-linejoin:miter;stroke-width:0.8;"/>
   </g>
   <g id="text_15">
    <!-- OE1 for 1.0 -->
    <defs>
     <path d="M 10.6875 12.40625 
L 21 12.40625 
L 21 0 
L 10.6875 0 
z
" id="DejaVuSans-2e"/>
    </defs>
    <g transform="translate(388.109375 16.318125)scale(0.12 -0.12)">
     <use xlink:href="#DejaVuSans-4f"/>
     <use x="78.710938" xlink:href="#DejaVuSans-45"/>
     <use x="141.894531" xlink:href="#DejaVuSans-31"/>
     <use x="205.517578" xlink:href="#DejaVuSans-20"/>
     <use x="237.304688" xlink:href="#DejaVuSans-66"/>
     <use x="272.509766" xlink:href="#DejaVuSans-6f"/>
     <use x="333.691406" xlink:href="#DejaVuSans-72"/>
     <use x="374.804688" xlink:href="#DejaVuSans-20"/>
     <use x="406.591797" xlink:href="#DejaVuSans-31"/>
     <use x="470.214844" xlink:href="#DejaVuSans-2e"/>
     <use x="502.001953" xlink:href="#DejaVuSans-30"/>
    </g>
   </g>
  </g>
 </g>
 <defs>
  <clipPath id="p977cb29a97">
   <rect height="310.464" width="390.6" x="226.746875" y="22.318125"/>
  </clipPath>
 </defs>
</svg>
