<?xml version='1.0' encoding='utf-8'?>
<svg xmlns:xlink="http://www.w3.org/1999/xlink" xmlns="http://www.w3.org/2000/svg" id="chart-b6bedc6d-4c53-4b01-bcbd-b427817b895b" class="pygal-chart" viewBox="0 0 800 600"><!--Generated with pygal 2.4.0 (lxml) ©Kozea 2012-2016 on 2019-10-13--><!--http://pygal.org--><!--http://github.com/Kozea/pygal--><defs><style type="text/css">#chart-b6bedc6d-4c53-4b01-bcbd-b427817b895b{-webkit-user-select:none;-webkit-font-smoothing:antialiased;font-family:Helvetica,Arial,sans-serif}#chart-b6bedc6d-4c53-4b01-bcbd-b427817b895b .title{font-family:Helvetica,Arial,sans-serif;font-size:18px}#chart-b6bedc6d-4c53-4b01-bcbd-b427817b895b .legends .legend text{font-family:Helvetica,Arial,sans-serif;font-size:15px}#chart-b6bedc6d-4c53-4b01-bcbd-b427817b895b .axis text{font-family:Helvetica,Arial,sans-serif;font-size:15px}#chart-b6bedc6d-4c53-4b01-bcbd-b427817b895b .axis text.major{font-family:Helvetica,Arial,sans-serif;font-size:15px}#chart-b6bedc6d-4c53-4b01-bcbd-b427817b895b .text-overlay text.value{font-family:Helvetica,Arial,sans-serif;font-size:15px}#chart-b6bedc6d-4c53-4b01-bcbd-b427817b895b .text-overlay text.label{font-family:Helvetica,Arial,sans-serif;font-size:15px}#chart-b6bedc6d-4c53-4b01-bcbd-b427817b895b .tooltip{font-family:Helvetica,Arial,sans-serif;font-size:14px}#chart-b6bedc6d-4c53-4b01-bcbd-b427817b895b text.no_data{font-family:Helvetica,Arial,sans-serif;font-size:64px}
#chart-b6bedc6d-4c53-4b01-bcbd-b427817b895b{background-color:transparent}#chart-b6bedc6d-4c53-4b01-bcbd-b427817b895b path,#chart-b6bedc6d-4c53-4b01-bcbd-b427817b895b line,#chart-b6bedc6d-4c53-4b01-bcbd-b427817b895b rect,#chart-b6bedc6d-4c53-4b01-bcbd-b427817b895b circle{-webkit-transition:150ms;-moz-transition:150ms;transition:150ms}#chart-b6bedc6d-4c53-4b01-bcbd-b427817b895b .graph &gt; .background{fill:transparent}#chart-b6bedc6d-4c53-4b01-bcbd-b427817b895b .plot &gt; .background{fill:white}#chart-b6bedc6d-4c53-4b01-bcbd-b427817b895b .graph{fill:rgba(0,0,0,.87)}#chart-b6bedc6d-4c53-4b01-bcbd-b427817b895b text.no_data{fill:rgba(0,0,0,1)}#chart-b6bedc6d-4c53-4b01-bcbd-b427817b895b .title{fill:rgba(0,0,0,1)}#chart-b6bedc6d-4c53-4b01-bcbd-b427817b895b .legends .legend text{fill:rgba(0,0,0,.87)}#chart-b6bedc6d-4c53-4b01-bcbd-b427817b895b .legends .legend:hover text{fill:rgba(0,0,0,1)}#chart-b6bedc6d-4c53-4b01-bcbd-b427817b895b .axis .line{stroke:rgba(0,0,0,1)}#chart-b6bedc6d-4c53-4b01-bcbd-b427817b895b .axis .guide.line{stroke:rgba(0,0,0,.54)}#chart-b6bedc6d-4c53-4b01-bcbd-b427817b895b .axis .major.line{stroke:rgba(0,0,0,.87)}#chart-b6bedc6d-4c53-4b01-bcbd-b427817b895b .axis text.major{fill:rgba(0,0,0,1)}#chart-b6bedc6d-4c53-4b01-bcbd-b427817b895b .axis.y .guides:hover .guide.line,#chart-b6bedc6d-4c53-4b01-bcbd-b427817b895b .line-graph .axis.x .guides:hover .guide.line,#chart-b6bedc6d-4c53-4b01-bcbd-b427817b895b .stackedline-graph .axis.x .guides:hover .guide.line,#chart-b6bedc6d-4c53-4b01-bcbd-b427817b895b .xy-graph .axis.x .guides:hover .guide.line{stroke:rgba(0,0,0,1)}#chart-b6bedc6d-4c53-4b01-bcbd-b427817b895b .axis .guides:hover text{fill:rgba(0,0,0,1)}#chart-b6bedc6d-4c53-4b01-bcbd-b427817b895b .reactive{fill-opacity:.7;stroke-opacity:.8}#chart-b6bedc6d-4c53-4b01-bcbd-b427817b895b .ci{stroke:rgba(0,0,0,.87)}#chart-b6bedc6d-4c53-4b01-bcbd-b427817b895b .reactive.active,#chart-b6bedc6d-4c53-4b01-bcbd-b427817b895b .active .reactive{fill-opacity:.8;stroke-opacity:.9;stroke-width:4}#chart-b6bedc6d-4c53-4b01-bcbd-b427817b895b .ci .reactive.active{stroke-width:1.5}#chart-b6bedc6d-4c53-4b01-bcbd-b427817b895b .series text{fill:rgba(0,0,0,1)}#chart-b6bedc6d-4c53-4b01-bcbd-b427817b895b .tooltip rect{fill:white;stroke:rgba(0,0,0,1);-webkit-transition:opacity 150ms;-moz-transition:opacity 150ms;transition:opacity 150ms}#chart-b6bedc6d-4c53-4b01-bcbd-b427817b895b .tooltip .label{fill:rgba(0,0,0,.87)}#chart-b6bedc6d-4c53-4b01-bcbd-b427817b895b .tooltip .label{fill:rgba(0,0,0,.87)}#chart-b6bedc6d-4c53-4b01-bcbd-b427817b895b .tooltip .legend{font-size:.8em;fill:rgba(0,0,0,.54)}#chart-b6bedc6d-4c53-4b01-bcbd-b427817b895b .tooltip .x_label{font-size:.6em;fill:rgba(0,0,0,1)}#chart-b6bedc6d-4c53-4b01-bcbd-b427817b895b .tooltip .xlink{font-size:.5em;text-decoration:underline}#chart-b6bedc6d-4c53-4b01-bcbd-b427817b895b .tooltip .value{font-size:1.5em}#chart-b6bedc6d-4c53-4b01-bcbd-b427817b895b .bound{font-size:.5em}#chart-b6bedc6d-4c53-4b01-bcbd-b427817b895b .max-value{font-size:.75em;fill:rgba(0,0,0,.54)}#chart-b6bedc6d-4c53-4b01-bcbd-b427817b895b .map-element{fill:white;stroke:rgba(0,0,0,.54) !important}#chart-b6bedc6d-4c53-4b01-bcbd-b427817b895b .map-element .reactive{fill-opacity:inherit;stroke-opacity:inherit}#chart-b6bedc6d-4c53-4b01-bcbd-b427817b895b .color-0,#chart-b6bedc6d-4c53-4b01-bcbd-b427817b895b .color-0 a:visited{stroke:#F44336;fill:#F44336}#chart-b6bedc6d-4c53-4b01-bcbd-b427817b895b .color-1,#chart-b6bedc6d-4c53-4b01-bcbd-b427817b895b .color-1 a:visited{stroke:#3F51B5;fill:#3F51B5}#chart-b6bedc6d-4c53-4b01-bcbd-b427817b895b .color-2,#chart-b6bedc6d-4c53-4b01-bcbd-b427817b895b .color-2 a:visited{stroke:#009688;fill:#009688}#chart-b6bedc6d-4c53-4b01-bcbd-b427817b895b .color-3,#chart-b6bedc6d-4c53-4b01-bcbd-b427817b895b .color-3 a:visited{stroke:#FFC107;fill:#FFC107}#chart-b6bedc6d-4c53-4b01-bcbd-b427817b895b .color-4,#chart-b6bedc6d-4c53-4b01-bcbd-b427817b895b .color-4 a:visited{stroke:#FF5722;fill:#FF5722}#chart-b6bedc6d-4c53-4b01-bcbd-b427817b895b .color-5,#chart-b6bedc6d-4c53-4b01-bcbd-b427817b895b .color-5 a:visited{stroke:#9C27B0;fill:#9C27B0}#chart-b6bedc6d-4c53-4b01-bcbd-b427817b895b .text-overlay .color-0 text{fill:black}#chart-b6bedc6d-4c53-4b01-bcbd-b427817b895b .text-overlay .color-1 text{fill:black}#chart-b6bedc6d-4c53-4b01-bcbd-b427817b895b .text-overlay .color-2 text{fill:black}#chart-b6bedc6d-4c53-4b01-bcbd-b427817b895b .text-overlay .color-3 text{fill:black}#chart-b6bedc6d-4c53-4b01-bcbd-b427817b895b .text-overlay .color-4 text{fill:black}#chart-b6bedc6d-4c53-4b01-bcbd-b427817b895b .text-overlay .color-5 text{fill:black}
#chart-b6bedc6d-4c53-4b01-bcbd-b427817b895b text.no_data{text-anchor:middle}#chart-b6bedc6d-4c53-4b01-bcbd-b427817b895b .guide.line{fill:none}#chart-b6bedc6d-4c53-4b01-bcbd-b427817b895b .centered{text-anchor:middle}#chart-b6bedc6d-4c53-4b01-bcbd-b427817b895b .title{text-anchor:middle}#chart-b6bedc6d-4c53-4b01-bcbd-b427817b895b .legends .legend text{fill-opacity:1}#chart-b6bedc6d-4c53-4b01-bcbd-b427817b895b .axis.x text{text-anchor:middle}#chart-b6bedc6d-4c53-4b01-bcbd-b427817b895b .axis.x:not(.web) text[transform]{text-anchor:start}#chart-b6bedc6d-4c53-4b01-bcbd-b427817b895b .axis.x:not(.web) text[transform].backwards{text-anchor:end}#chart-b6bedc6d-4c53-4b01-bcbd-b427817b895b .axis.y text{text-anchor:end}#chart-b6bedc6d-4c53-4b01-bcbd-b427817b895b .axis.y text[transform].backwards{text-anchor:start}#chart-b6bedc6d-4c53-4b01-bcbd-b427817b895b .axis.y2 text{text-anchor:start}#chart-b6bedc6d-4c53-4b01-bcbd-b427817b895b .axis.y2 text[transform].backwards{text-anchor:end}#chart-b6bedc6d-4c53-4b01-bcbd-b427817b895b .axis .guide.line{stroke-dasharray:1}#chart-b6bedc6d-4c53-4b01-bcbd-b427817b895b .axis .major.guide.line{stroke-dasharray:1}#chart-b6bedc6d-4c53-4b01-bcbd-b427817b895b .horizontal .axis.y .guide.line,#chart-b6bedc6d-4c53-4b01-bcbd-b427817b895b .horizontal .axis.y2 .guide.line,#chart-b6bedc6d-4c53-4b01-bcbd-b427817b895b .vertical .axis.x .guide.line{opacity:0}#chart-b6bedc6d-4c53-4b01-bcbd-b427817b895b .horizontal .axis.always_show .guide.line,#chart-b6bedc6d-4c53-4b01-bcbd-b427817b895b .vertical .axis.always_show .guide.line{opacity:1 !important}#chart-b6bedc6d-4c53-4b01-bcbd-b427817b895b .axis.y .guides:hover .guide.line,#chart-b6bedc6d-4c53-4b01-bcbd-b427817b895b .axis.y2 .guides:hover .guide.line,#chart-b6bedc6d-4c53-4b01-bcbd-b427817b895b .axis.x .guides:hover .guide.line{opacity:1}#chart-b6bedc6d-4c53-4b01-bcbd-b427817b895b .axis .guides:hover text{opacity:1}#chart-b6bedc6d-4c53-4b01-bcbd-b427817b895b .nofill{fill:none}#chart-b6bedc6d-4c53-4b01-bcbd-b427817b895b .subtle-fill{fill-opacity:.2}#chart-b6bedc6d-4c53-4b01-bcbd-b427817b895b .dot{stroke-width:1px;fill-opacity:1}#chart-b6bedc6d-4c53-4b01-bcbd-b427817b895b .dot.active{stroke-width:5px}#chart-b6bedc6d-4c53-4b01-bcbd-b427817b895b .dot.negative{fill:transparent}#chart-b6bedc6d-4c53-4b01-bcbd-b427817b895b text,#chart-b6bedc6d-4c53-4b01-bcbd-b427817b895b tspan{stroke:none !important}#chart-b6bedc6d-4c53-4b01-bcbd-b427817b895b .series text.active{opacity:1}#chart-b6bedc6d-4c53-4b01-bcbd-b427817b895b .tooltip rect{fill-opacity:.95;stroke-width:.5}#chart-b6bedc6d-4c53-4b01-bcbd-b427817b895b .tooltip text{fill-opacity:1}#chart-b6bedc6d-4c53-4b01-bcbd-b427817b895b .showable{visibility:hidden}#chart-b6bedc6d-4c53-4b01-bcbd-b427817b895b .showable.shown{visibility:visible}#chart-b6bedc6d-4c53-4b01-bcbd-b427817b895b .gauge-background{fill:rgba(229,229,229,1);stroke:none}#chart-b6bedc6d-4c53-4b01-bcbd-b427817b895b .bg-lines{stroke:transparent;stroke-width:2px}</style><script type="text/javascript">window.pygal = window.pygal || {};window.pygal.config = window.pygal.config || {};window.pygal.config['b6bedc6d-4c53-4b01-bcbd-b427817b895b'] = {"allow_interruptions": false, "box_mode": "extremes", "classes": ["pygal-chart"], "css": ["file://style.css", "file://graph.css"], "defs": [], "disable_xml_declaration": false, "dots_size": 2.5, "dynamic_print_values": false, "explicit_size": false, "fill": false, "force_uri_protocol": "https", "formatter": null, "half_pie": false, "height": 600, "include_x_axis": false, "inner_radius": 0, "interpolate": null, "interpolation_parameters": {}, "interpolation_precision": 250, "inverse_y_axis": false, "js": ["//kozea.github.io/pygal.js/2.0.x/pygal-tooltips.min.js"], "legend_at_bottom": true, "legend_at_bottom_columns": 2, "legend_box_size": 12, "logarithmic": false, "margin": 20, "margin_bottom": 65, "margin_left": null, "margin_right": null, "margin_top": null, "max_scale": 16, "min_scale": 4, "missing_value_fill_truncation": "x", "no_data_text": "No data", "no_prefix": false, "order_min": null, "pretty_print": false, "print_labels": false, "print_values": false, "print_values_position": "center", "print_zeroes": true, "range": [-0.01, 0.3], "rounded_bars": null, "secondary_range": null, "show_dots": true, "show_legend": true, "show_minor_x_labels": false, "show_minor_y_labels": true, "show_only_major_dots": true, "show_x_guides": true, "show_x_labels": true, "show_y_guides": true, "show_y_labels": true, "spacing": 10, "stack_from_top": false, "strict": false, "stroke": true, "stroke_style": null, "style": {"background": "transparent", "ci_colors": [], "colors": ["#F44336", "#3F51B5", "#009688", "#FFC107", "#FF5722", "#9C27B0", "#03A9F4", "#8BC34A", "#FF9800", "#E91E63", "#2196F3", "#4CAF50", "#FFEB3B", "#673AB7", "#00BCD4", "#CDDC39", "#9E9E9E", "#607D8B"], "font_family": "Helvetica, Arial, sans-serif", "foreground": "rgba(0, 0, 0, .87)", "foreground_strong": "rgba(0, 0, 0, 1)", "foreground_subtle": "rgba(0, 0, 0, .54)", "guide_stroke_dasharray": 1, "label_font_family": "Helvetica, Arial, sans-serif", "label_font_size": 15, "legend_font_family": "Helvetica, Arial, sans-serif", "legend_font_size": 15, "major_guide_stroke_dasharray": 1, "major_label_font_family": "Helvetica, Arial, sans-serif", "major_label_font_size": 15, "no_data_font_family": "Helvetica, Arial, sans-serif", "no_data_font_size": 64, "opacity": ".7", "opacity_hover": ".8", "plot_background": "white", "stroke_opacity": ".8", "stroke_opacity_hover": ".9", "title_font_family": "Helvetica, Arial, sans-serif", "title_font_size": 18, "tooltip_font_family": "Helvetica, Arial, sans-serif", "tooltip_font_size": 14, "transition": "150ms", "value_background": "rgba(229, 229, 229, 1)", "value_colors": [], "value_font_family": "Helvetica, Arial, sans-serif", "value_font_size": 15, "value_label_font_family": "Helvetica, Arial, sans-serif", "value_label_font_size": 15}, "title": "Mean OE2 for Tempo T \u00b110.0 BPM", "tooltip_border_radius": 0, "tooltip_fancy_mode": true, "truncate_label": null, "truncate_legend": -1, "width": 800, "x_label_rotation": 90, "x_labels": ["0.0", "1.0", "2.0", "3.0", "4.0", "5.0", "6.0", "7.0", "8.0", "9.0", "10.0", "11.0", "12.0", "13.0", "14.0", "15.0", "16.0", "17.0", "18.0", "19.0", "20.0", "21.0", "22.0", "23.0", "24.0", "25.0", "26.0", "27.0", "28.0", "29.0", "30.0", "31.0", "32.0", "33.0", "34.0", "35.0", "36.0", "37.0", "38.0", "39.0", "40.0", "41.0", "42.0", "43.0", "44.0", "45.0", "46.0", "47.0", "48.0", "49.0", "50.0", "51.0", "52.0", "53.0", "54.0", "55.0", "56.0", "57.0", "58.0", "59.0", "60.0", "61.0", "62.0", "63.0", "64.0", "65.0", "66.0", "67.0", "68.0", "69.0", "70.0", "71.0", "72.0", "73.0", "74.0", "75.0", "76.0", "77.0", "78.0", "79.0", "80.0", "81.0", "82.0", "83.0", "84.0", "85.0", "86.0", "87.0", "88.0", "89.0", "90.0", "91.0", "92.0", "93.0", "94.0", "95.0", "96.0", "97.0", "98.0", "99.0", "100.0", "101.0", "102.0", "103.0", "104.0", "105.0", "106.0", "107.0", "108.0", "109.0", "110.0", "111.0", "112.0", "113.0", "114.0", "115.0", "116.0", "117.0", "118.0", "119.0", "120.0", "121.0", "122.0", "123.0", "124.0", "125.0", "126.0", "127.0", "128.0", "129.0", "130.0", "131.0", "132.0", "133.0", "134.0", "135.0", "136.0", "137.0", "138.0", "139.0", "140.0", "141.0", "142.0", "143.0", "144.0", "145.0", "146.0", "147.0", "148.0", "149.0", "150.0", "151.0", "152.0", "153.0", "154.0", "155.0", "156.0", "157.0", "158.0", "159.0", "160.0", "161.0", "162.0", "163.0", "164.0", "165.0", "166.0", "167.0", "168.0", "169.0", "170.0", "171.0", "172.0", "173.0", "174.0", "175.0", "176.0", "177.0", "178.0", "179.0", "180.0", "181.0", "182.0", "183.0", "184.0", "185.0", "186.0", "187.0", "188.0", "189.0", "190.0", "191.0", "192.0", "193.0", "194.0", "195.0", "196.0", "197.0", "198.0", "199.0", "200.0", "201.0", "202.0", "203.0", "204.0", "205.0", "206.0", "207.0", "208.0", "209.0", "210.0", "211.0", "212.0", "213.0", "214.0", "215.0", "216.0", "217.0", "218.0", "219.0", "220.0", "221.0", "222.0", "223.0", "224.0", "225.0", "226.0", "227.0", "228.0", "229.0", "230.0", "231.0", "232.0", "233.0", "234.0", "235.0", "236.0", "237.0", "238.0", "239.0", "240.0", "241.0", "242.0", "243.0", "244.0", "245.0", "246.0", "247.0", "248.0", "249.0", "250.0", "251.0", "252.0", "253.0", "254.0", "255.0", "256.0", "257.0", "258.0", "259.0", "260.0", "261.0", "262.0", "263.0", "264.0", "265.0", "266.0", "267.0", "268.0", "269.0", "270.0", "271.0", "272.0", "273.0", "274.0", "275.0", "276.0", "277.0", "278.0", "279.0", "280.0", "281.0", "282.0", "283.0", "284.0", "285.0", "286.0", "287.0", "288.0", "289.0", "290.0", "291.0", "292.0", "293.0", "294.0", "295.0", "296.0", "297.0", "298.0", "299.0", "300.0"], "x_labels_major": null, "x_labels_major_count": 11, "x_labels_major_every": null, "x_title": "T (BPM)", "xrange": null, "y_label_rotation": 0, "y_labels": null, "y_labels_major": null, "y_labels_major_count": null, "y_labels_major_every": null, "y_title": "Mean OE2 (TO)", "zero": 0, "legends": ["boeck2015/tempodetector2016_default", "davies2009/mirex_qm_tempotracker", "percival2014/stem", "schreiber2014/default", "schreiber2017/ismir2017", "schreiber2017/mirex2017"]}</script><script type="text/javascript" xlink:href="https://kozea.github.io/pygal.js/2.0.x/pygal-tooltips.min.js"/></defs><title>Mean OE2 for Tempo T ±10.0 BPM</title><g class="graph line-graph vertical"><rect class="background" height="600" width="800" x="0" y="0"/><g class="plot" transform="translate(112, 48)"><rect class="background" height="334.0" width="668.0" x="0" y="0"/><g class="axis y always_show"><g class="guides"><path class="major line" d="M0.000000 317.217122 h668.000000"/><text class="major" x="-5" y="322.4671215880893">0.0000</text><title>0.0000</title></g><g class="guides"><path class="guide line" d="M0.000000 296.497519 h668.000000"/><text class="" x="-5" y="301.7475186104218">0.0200</text><title>0.0200</title></g><g class="guides"><path class="guide line" d="M0.000000 275.777916 h668.000000"/><text class="" x="-5" y="281.02791563275434">0.0400</text><title>0.0400</title></g><g class="guides"><path class="guide line" d="M0.000000 255.058313 h668.000000"/><text class="" x="-5" y="260.30831265508687">0.0600</text><title>0.0600</title></g><g class="guides"><path class="guide line" d="M0.000000 234.338710 h668.000000"/><text class="" x="-5" y="239.58870967741933">0.0800</text><title>0.0800</title></g><g class="guides"><path class="guide line" d="M0.000000 213.619107 h668.000000"/><text class="" x="-5" y="218.86910669975185">0.1000</text><title>0.1000</title></g><g class="guides"><path class="guide line" d="M0.000000 192.899504 h668.000000"/><text class="" x="-5" y="198.14950372208438">0.1200</text><title>0.1200</title></g><g class="guides"><path class="guide line" d="M0.000000 172.179901 h668.000000"/><text class="" x="-5" y="177.42990074441687">0.1400</text><title>0.1400</title></g><g class="guides"><path class="guide line" d="M0.000000 151.460298 h668.000000"/><text class="" x="-5" y="156.71029776674936">0.1600</text><title>0.1600</title></g><g class="guides"><path class="guide line" d="M0.000000 130.740695 h668.000000"/><text class="" x="-5" y="135.99069478908186">0.1800</text><title>0.1800</title></g><g class="guides"><path class="guide line" d="M0.000000 110.021092 h668.000000"/><text class="" x="-5" y="115.27109181141435">0.2000</text><title>0.2000</title></g><g class="guides"><path class="guide line" d="M0.000000 89.301489 h668.000000"/><text class="" x="-5" y="94.55148883374687">0.2200</text><title>0.2200</title></g><g class="guides"><path class="guide line" d="M0.000000 68.581886 h668.000000"/><text class="" x="-5" y="73.8318858560794">0.2400</text><title>0.2400</title></g><g class="guides"><path class="guide line" d="M0.000000 47.862283 h668.000000"/><text class="" x="-5" y="53.11228287841186">0.2600</text><title>0.2600</title></g><g class="guides"><path class="guide line" d="M0.000000 27.142680 h668.000000"/><text class="" x="-5" y="32.39267990074438">0.2800</text><title>0.2800</title></g><g class="guides"><path class="guide line" d="M0.000000 6.423077 h668.000000"/><text class="" x="-5" y="11.673076923076906">0.3000</text><title>0.3000</title></g></g><g class="axis x always_show"><g class="guides"><path class="major line" d="M12.846154 0.000000 v334.000000"/><text class="major" x="12.846153846153845" y="351.5" transform="rotate(90 12.846154 351.500000)">0.0</text></g><g class="guides"><path class="major guide line" d="M77.076923 0.000000 v334.000000"/><text class="major" x="77.07692307692308" y="351.5" transform="rotate(90 77.076923 351.500000)">30.0</text></g><g class="guides"><path class="major guide line" d="M141.307692 0.000000 v334.000000"/><text class="major" x="141.30769230769232" y="351.5" transform="rotate(90 141.307692 351.500000)">60.0</text></g><g class="guides"><path class="major guide line" d="M205.538462 0.000000 v334.000000"/><text class="major" x="205.53846153846152" y="351.5" transform="rotate(90 205.538462 351.500000)">90.0</text></g><g class="guides"><path class="major guide line" d="M269.769231 0.000000 v334.000000"/><text class="major" x="269.7692307692308" y="351.5" transform="rotate(90 269.769231 351.500000)">120.0</text></g><g class="guides"><path class="major guide line" d="M334.000000 0.000000 v334.000000"/><text class="major" x="334.0" y="351.5" transform="rotate(90 334.000000 351.500000)">150.0</text></g><g class="guides"><path class="major guide line" d="M398.230769 0.000000 v334.000000"/><text class="major" x="398.2307692307692" y="351.5" transform="rotate(90 398.230769 351.500000)">180.0</text></g><g class="guides"><path class="major guide line" d="M462.461538 0.000000 v334.000000"/><text class="major" x="462.46153846153845" y="351.5" transform="rotate(90 462.461538 351.500000)">210.0</text></g><g class="guides"><path class="major guide line" d="M526.692308 0.000000 v334.000000"/><text class="major" x="526.6923076923076" y="351.5" transform="rotate(90 526.692308 351.500000)">240.0</text></g><g class="guides"><path class="major guide line" d="M590.923077 0.000000 v334.000000"/><text class="major" x="590.9230769230769" y="351.5" transform="rotate(90 590.923077 351.500000)">270.0</text></g><g class="guides"><path class="major guide line" d="M655.153846 0.000000 v334.000000"/><text class="major" x="655.1538461538462" y="351.5" transform="rotate(90 655.153846 351.500000)">300.0</text></g></g><g class="series serie-0 color-0"><path class="line reactive nofill" d="M12.846154 317.217122 L14.987179 317.217122 17.128205 317.217122 19.269231 317.217122 21.410256 317.217122 23.551282 317.217122 25.692308 317.217122 27.833333 317.217122 29.974359 317.217122 32.115385 317.217122 34.256410 317.217122 36.397436 317.217122 38.538462 317.217122 40.679487 317.217122 42.820513 317.217122 44.961538 317.217122 47.102564 317.217122 49.243590 317.217122 51.384615 317.217122 53.525641 317.217122 55.666667 317.217122 57.807692 317.217122 59.948718 317.217122 62.089744 317.217122 64.230769 317.217122 66.371795 317.217122 68.512821 317.217122 70.653846 317.217122 72.794872 317.217122 74.935897 317.217122 77.076923 317.217122 79.217949 317.217122 81.358974 317.217122 83.500000 317.217122 85.641026 317.217122 87.782051 317.217122 89.923077 317.217122 92.064103 317.217122 94.205128 317.217122 96.346154 317.217122 98.487179 317.217122 100.628205 317.217122 102.769231 317.217122 104.910256 317.217122 107.051282 317.217122 109.192308 317.217122 111.333333 317.217122 113.474359 317.217122 115.615385 317.217122 117.756410 317.217122 119.897436 317.217122 122.038462 317.217122 124.179487 317.217122 126.320513 317.217122 128.461538 317.217122 130.602564 317.217122 132.743590 317.217122 134.884615 317.217122 137.025641 317.217122 139.166667 317.217122 141.307692 322.136047 143.448718 322.136047 145.589744 322.136047 147.730769 322.136047 149.871795 322.136047 152.012821 320.496405 154.153846 320.496405 156.294872 320.496405 158.435897 320.496405 160.576923 320.496405 162.717949 319.676584 164.858974 319.676584 167.000000 319.676584 169.141026 319.676584 171.282051 319.676584 173.423077 319.676584 175.564103 319.676584 177.705128 319.676584 179.846154 319.676584 181.987179 319.676584 184.128205 319.676584 186.269231 317.217122 188.410256 317.217122 190.551282 317.217122 192.692308 317.217122 194.833333 317.217122 196.974359 317.217122 199.115385 317.217122 201.256410 317.217122 203.397436 317.217122 205.538462 317.217122 207.679487 317.217122 209.820513 317.217122 211.961538 317.217122 214.102564 319.858831 216.243590 319.858831 218.384615 319.858831 220.525641 319.858831 222.666667 319.858831 224.807692 319.858831 226.948718 319.858831 229.089744 319.858831 231.230769 319.858831 233.371795 319.858831 235.512821 319.858831 237.653846 317.965766 239.794872 319.418002 241.935897 319.418002 244.076923 319.418002 246.217949 319.418002 248.358974 318.789179 250.500000 319.418002 252.641026 319.418002 254.782051 319.418002 256.923077 319.418002 259.064103 317.986940 261.205128 317.986940 263.346154 317.986940 265.487179 317.986940 267.628205 317.986940 269.769231 316.085157 271.910256 316.085157 274.051282 316.085157 276.192308 316.085157 278.333333 316.085157 280.474359 316.085157 282.615385 316.844874 284.756410 314.749357 286.897436 314.749357 289.038462 314.749357 291.179487 314.749357 293.320513 312.281591 295.461538 312.281591 297.602564 312.281591 299.743590 312.281591 301.884615 312.281591 304.025641 312.281591 306.166667 312.281591 308.307692 312.281591 310.448718 312.281591 312.589744 312.281591 314.730769 317.217122 316.871795 317.217122 319.012821 317.217122 321.153846 317.217122 323.294872 317.217122 325.435897 317.217122 327.576923 317.217122 329.717949 317.217122 331.858974 317.217122 334.000000 317.217122 336.141026 317.217122 338.282051 317.217122 340.423077 317.217122 342.564103 317.217122 344.705128 317.217122 346.846154 317.217122 348.987179 317.217122 351.128205 317.217122 353.269231 317.217122 355.410256 317.217122 357.551282 317.217122 359.692308 317.217122 361.833333 317.217122 363.974359 317.217122 366.115385 317.217122 368.256410 317.217122 370.397436 317.217122 372.538462 317.217122 374.679487 317.217122 376.820513 324.708884 378.961538 324.708884 381.102564 324.708884 383.243590 324.708884 385.384615 324.708884 387.525641 324.708884 389.666667 324.708884 391.807692 324.708884 393.948718 324.708884 396.089744 324.708884 398.230769 324.708884 400.371795 324.708884 402.512821 324.708884 404.653846 324.708884 406.794872 324.708884 408.935897 324.708884 411.076923 324.708884 413.217949 324.708884 415.358974 324.708884 417.500000 324.708884 419.641026 320.963003 421.782051 317.217122 423.923077 317.217122 426.064103 317.217122 428.205128 317.217122 430.346154 317.217122 432.487179 317.217122 434.628205 317.217122 436.769231 317.217122 438.910256 317.217122 441.051282 317.217122 443.192308 317.217122 445.333333 317.217122 447.474359 317.217122 449.615385 317.217122 451.756410 317.217122 453.897436 317.217122 456.038462 317.217122 458.179487 317.217122 460.320513 317.217122 462.461538 317.217122 464.602564 317.217122 466.743590 317.217122 468.884615 317.217122 471.025641 317.217122 473.166667 317.217122 475.307692 317.217122 477.448718 317.217122 479.589744 317.217122 481.730769 317.217122 483.871795 317.217122 486.012821 317.217122 488.153846 317.217122 490.294872 317.217122 492.435897 317.217122 494.576923 317.217122 496.717949 317.217122 498.858974 317.217122 501.000000 317.217122 503.141026 317.217122 505.282051 317.217122 507.423077 317.217122 509.564103 317.217122 511.705128 317.217122 513.846154 317.217122 515.987179 317.217122 518.128205 317.217122 520.269231 317.217122 522.410256 317.217122 524.551282 317.217122 526.692308 317.217122 528.833333 317.217122 530.974359 317.217122 533.115385 317.217122 535.256410 317.217122 537.397436 317.217122 539.538462 317.217122 541.679487 317.217122 543.820513 317.217122 545.961538 317.217122 548.102564 317.217122 550.243590 317.217122 552.384615 317.217122 554.525641 317.217122 556.666667 317.217122 558.807692 317.217122 560.948718 317.217122 563.089744 317.217122 565.230769 317.217122 567.371795 317.217122 569.512821 317.217122 571.653846 317.217122 573.794872 317.217122 575.935897 317.217122 578.076923 317.217122 580.217949 317.217122 582.358974 317.217122 584.500000 317.217122 586.641026 317.217122 588.782051 317.217122 590.923077 317.217122 593.064103 317.217122 595.205128 317.217122 597.346154 317.217122 599.487179 317.217122 601.628205 317.217122 603.769231 317.217122 605.910256 317.217122 608.051282 317.217122 610.192308 317.217122 612.333333 317.217122 614.474359 317.217122 616.615385 317.217122 618.756410 317.217122 620.897436 317.217122 623.038462 317.217122 625.179487 317.217122 627.320513 317.217122 629.461538 317.217122 631.602564 317.217122 633.743590 317.217122 635.884615 317.217122 638.025641 317.217122 640.166667 317.217122 642.307692 317.217122 644.448718 317.217122 646.589744 317.217122 648.730769 317.217122 650.871795 317.217122 653.012821 317.217122 655.153846 317.217122"/></g><g class="series serie-1 color-1"><path class="line reactive nofill" d="M12.846154 317.217122 L14.987179 317.217122 17.128205 317.217122 19.269231 317.217122 21.410256 317.217122 23.551282 317.217122 25.692308 317.217122 27.833333 317.217122 29.974359 317.217122 32.115385 317.217122 34.256410 317.217122 36.397436 317.217122 38.538462 317.217122 40.679487 317.217122 42.820513 317.217122 44.961538 317.217122 47.102564 317.217122 49.243590 317.217122 51.384615 317.217122 53.525641 317.217122 55.666667 317.217122 57.807692 317.217122 59.948718 317.217122 62.089744 317.217122 64.230769 317.217122 66.371795 317.217122 68.512821 317.217122 70.653846 317.217122 72.794872 317.217122 74.935897 317.217122 77.076923 317.217122 79.217949 317.217122 81.358974 317.217122 83.500000 317.217122 85.641026 317.217122 87.782051 317.217122 89.923077 317.217122 92.064103 317.217122 94.205128 317.217122 96.346154 317.217122 98.487179 317.217122 100.628205 317.217122 102.769231 317.217122 104.910256 317.217122 107.051282 317.217122 109.192308 317.217122 111.333333 317.217122 113.474359 317.217122 115.615385 317.217122 117.756410 317.217122 119.897436 317.217122 122.038462 317.217122 124.179487 317.217122 126.320513 317.217122 128.461538 317.217122 130.602564 317.217122 132.743590 317.217122 134.884615 317.217122 137.025641 317.217122 139.166667 317.217122 141.307692 290.048044 143.448718 290.048044 145.589744 290.048044 147.730769 290.048044 149.871795 290.048044 152.012821 292.508894 154.153846 292.508894 156.294872 292.508894 158.435897 292.508894 160.576923 292.508894 162.717949 295.201606 164.858974 295.201606 167.000000 295.201606 169.141026 295.201606 171.282051 295.201606 173.423077 295.201606 175.564103 295.201606 177.705128 295.201606 179.846154 295.201606 181.987179 295.201606 184.128205 295.201606 186.269231 300.355168 188.410256 300.355168 190.551282 300.355168 192.692308 300.355168 194.833333 300.355168 196.974359 303.279742 199.115385 303.279742 201.256410 303.279742 203.397436 303.279742 205.538462 299.377032 207.679487 297.425677 209.820513 297.425677 211.961538 297.425677 214.102564 297.034970 216.243590 297.034970 218.384615 297.034970 220.525641 297.034970 222.666667 297.034970 224.807692 297.034970 226.948718 297.034970 229.089744 297.034970 231.230769 297.034970 233.371795 297.034970 235.512821 297.034970 237.653846 294.191005 239.794872 295.072700 241.935897 295.072700 244.076923 295.072700 246.217949 295.072700 248.358974 300.741847 250.500000 302.068316 252.641026 302.068316 254.782051 302.068316 256.923077 302.068316 259.064103 303.522005 261.205128 303.522005 263.346154 303.522005 265.487179 303.522005 267.628205 303.522005 269.769231 298.552093 271.910256 298.552093 274.051282 298.552093 276.192308 298.552093 278.333333 298.552093 280.474359 298.552093 282.615385 301.130690 284.756410 301.763493 286.897436 301.763493 289.038462 301.763493 291.179487 301.763493 293.320513 288.612270 295.461538 288.612270 297.602564 288.612270 299.743590 288.612270 301.884615 288.612270 304.025641 288.612270 306.166667 288.612270 308.307692 288.612270 310.448718 288.612270 312.589744 288.612270 314.730769 317.217122 316.871795 317.217122 319.012821 317.217122 321.153846 317.217122 323.294872 317.217122 325.435897 317.217122 327.576923 317.217122 329.717949 317.217122 331.858974 317.217122 334.000000 317.217122 336.141026 317.217122 338.282051 317.217122 340.423077 317.217122 342.564103 317.217122 344.705128 317.217122 346.846154 317.217122 348.987179 317.217122 351.128205 317.217122 353.269231 317.217122 355.410256 317.217122 357.551282 317.217122 359.692308 317.217122 361.833333 317.217122 363.974359 317.217122 366.115385 317.217122 368.256410 317.217122 370.397436 317.217122 372.538462 317.217122 374.679487 317.217122 376.820513 306.196129 378.961538 306.196129 381.102564 306.196129 383.243590 306.196129 385.384615 306.196129 387.525641 306.196129 389.666667 306.196129 391.807692 306.196129 393.948718 306.196129 396.089744 306.196129 398.230769 306.196129 400.371795 306.196129 402.512821 306.196129 404.653846 306.196129 406.794872 306.196129 408.935897 306.196129 411.076923 306.196129 413.217949 306.196129 415.358974 306.196129 417.500000 306.196129 419.641026 301.810903 421.782051 297.425677 423.923077 297.425677 426.064103 297.425677 428.205128 297.425677 430.346154 297.425677 432.487179 297.425677 434.628205 297.425677 436.769231 297.425677 438.910256 297.425677 441.051282 297.425677 443.192308 297.425677 445.333333 297.425677 447.474359 297.425677 449.615385 297.425677 451.756410 297.425677 453.897436 297.425677 456.038462 297.425677 458.179487 297.425677 460.320513 297.425677 462.461538 297.425677 464.602564 317.217122 466.743590 317.217122 468.884615 317.217122 471.025641 317.217122 473.166667 317.217122 475.307692 317.217122 477.448718 317.217122 479.589744 317.217122 481.730769 317.217122 483.871795 317.217122 486.012821 317.217122 488.153846 317.217122 490.294872 317.217122 492.435897 317.217122 494.576923 317.217122 496.717949 317.217122 498.858974 317.217122 501.000000 317.217122 503.141026 317.217122 505.282051 317.217122 507.423077 317.217122 509.564103 317.217122 511.705128 317.217122 513.846154 317.217122 515.987179 317.217122 518.128205 317.217122 520.269231 317.217122 522.410256 317.217122 524.551282 317.217122 526.692308 317.217122 528.833333 317.217122 530.974359 317.217122 533.115385 317.217122 535.256410 317.217122 537.397436 317.217122 539.538462 317.217122 541.679487 317.217122 543.820513 317.217122 545.961538 317.217122 548.102564 317.217122 550.243590 317.217122 552.384615 317.217122 554.525641 317.217122 556.666667 317.217122 558.807692 317.217122 560.948718 317.217122 563.089744 317.217122 565.230769 317.217122 567.371795 317.217122 569.512821 317.217122 571.653846 317.217122 573.794872 317.217122 575.935897 317.217122 578.076923 317.217122 580.217949 317.217122 582.358974 317.217122 584.500000 317.217122 586.641026 317.217122 588.782051 317.217122 590.923077 317.217122 593.064103 317.217122 595.205128 317.217122 597.346154 317.217122 599.487179 317.217122 601.628205 317.217122 603.769231 317.217122 605.910256 317.217122 608.051282 317.217122 610.192308 317.217122 612.333333 317.217122 614.474359 317.217122 616.615385 317.217122 618.756410 317.217122 620.897436 317.217122 623.038462 317.217122 625.179487 317.217122 627.320513 317.217122 629.461538 317.217122 631.602564 317.217122 633.743590 317.217122 635.884615 317.217122 638.025641 317.217122 640.166667 317.217122 642.307692 317.217122 644.448718 317.217122 646.589744 317.217122 648.730769 317.217122 650.871795 317.217122 653.012821 317.217122 655.153846 317.217122"/></g><g class="series serie-2 color-2"><path class="line reactive nofill" d="M12.846154 317.217122 L14.987179 317.217122 17.128205 317.217122 19.269231 317.217122 21.410256 317.217122 23.551282 317.217122 25.692308 317.217122 27.833333 317.217122 29.974359 317.217122 32.115385 317.217122 34.256410 317.217122 36.397436 317.217122 38.538462 317.217122 40.679487 317.217122 42.820513 317.217122 44.961538 317.217122 47.102564 317.217122 49.243590 317.217122 51.384615 317.217122 53.525641 317.217122 55.666667 317.217122 57.807692 317.217122 59.948718 317.217122 62.089744 317.217122 64.230769 317.217122 66.371795 317.217122 68.512821 317.217122 70.653846 317.217122 72.794872 317.217122 74.935897 317.217122 77.076923 317.217122 79.217949 317.217122 81.358974 317.217122 83.500000 317.217122 85.641026 317.217122 87.782051 317.217122 89.923077 317.217122 92.064103 317.217122 94.205128 317.217122 96.346154 317.217122 98.487179 317.217122 100.628205 317.217122 102.769231 317.217122 104.910256 317.217122 107.051282 317.217122 109.192308 317.217122 111.333333 317.217122 113.474359 317.217122 115.615385 317.217122 117.756410 317.217122 119.897436 317.217122 122.038462 317.217122 124.179487 317.217122 126.320513 317.217122 128.461538 317.217122 130.602564 317.217122 132.743590 317.217122 134.884615 317.217122 137.025641 317.217122 139.166667 317.217122 141.307692 315.633681 143.448718 315.633681 145.589744 315.633681 147.730769 315.633681 149.871795 315.633681 152.012821 316.838844 154.153846 316.838844 156.294872 316.838844 158.435897 316.838844 160.576923 316.838844 162.717949 316.357035 164.858974 316.357035 167.000000 316.357035 169.141026 316.357035 171.282051 316.357035 173.423077 316.357035 175.564103 316.357035 177.705128 316.357035 179.846154 316.357035 181.987179 316.357035 184.128205 316.357035 186.269231 317.080388 188.410256 317.080388 190.551282 317.080388 192.692308 317.080388 194.833333 317.080388 196.974359 314.911607 199.115385 314.911607 201.256410 314.911607 203.397436 314.911607 205.538462 317.803648 207.679487 319.249669 209.820513 319.249669 211.961538 319.249669 214.102564 319.152129 216.243590 319.152129 218.384615 319.152129 220.525641 319.152129 222.666667 319.152129 224.807692 319.152129 226.948718 319.152129 229.089744 319.152129 231.230769 319.152129 233.371795 319.152129 235.512821 319.152129 237.653846 319.175586 239.794872 318.438788 241.935897 318.438788 244.076923 318.438788 246.217949 318.438788 248.358974 318.670183 250.500000 318.438389 252.641026 318.438389 254.782051 318.438389 256.923077 318.438389 259.064103 318.308724 261.205128 318.308724 263.346154 318.308724 265.487179 318.308724 267.628205 318.308724 269.769231 317.898871 271.910256 317.898871 274.051282 317.898871 276.192308 317.898871 278.333333 317.898871 280.474359 317.898871 282.615385 317.629453 284.756410 318.163918 286.897436 318.163918 289.038462 318.163918 291.179487 318.163918 293.320513 317.079165 295.461538 317.079165 297.602564 317.079165 299.743590 317.079165 301.884615 317.079165 304.025641 317.079165 306.166667 317.079165 308.307692 317.079165 310.448718 317.079165 312.589744 317.079165 314.730769 317.217122 316.871795 317.217122 319.012821 317.217122 321.153846 317.217122 323.294872 317.217122 325.435897 317.217122 327.576923 317.217122 329.717949 317.217122 331.858974 317.217122 334.000000 317.217122 336.141026 317.217122 338.282051 317.217122 340.423077 317.217122 342.564103 317.217122 344.705128 317.217122 346.846154 317.217122 348.987179 317.217122 351.128205 317.217122 353.269231 317.217122 355.410256 317.217122 357.551282 317.217122 359.692308 317.217122 361.833333 317.217122 363.974359 317.217122 366.115385 317.217122 368.256410 317.217122 370.397436 317.217122 372.538462 317.217122 374.679487 317.217122 376.820513 319.249503 378.961538 319.249503 381.102564 319.249503 383.243590 319.249503 385.384615 319.249503 387.525641 319.249503 389.666667 319.249503 391.807692 319.249503 393.948718 319.249503 396.089744 319.249503 398.230769 319.249503 400.371795 319.249503 402.512821 319.249503 404.653846 319.249503 406.794872 319.249503 408.935897 319.249503 411.076923 319.249503 413.217949 319.249503 415.358974 319.249503 417.500000 319.249503 419.641026 319.249586 421.782051 319.249669 423.923077 319.249669 426.064103 319.249669 428.205128 319.249669 430.346154 319.249669 432.487179 319.249669 434.628205 319.249669 436.769231 319.249669 438.910256 319.249669 441.051282 319.249669 443.192308 319.249669 445.333333 319.249669 447.474359 319.249669 449.615385 319.249669 451.756410 319.249669 453.897436 319.249669 456.038462 319.249669 458.179487 319.249669 460.320513 319.249669 462.461538 319.249669 464.602564 317.217122 466.743590 317.217122 468.884615 317.217122 471.025641 317.217122 473.166667 317.217122 475.307692 317.217122 477.448718 317.217122 479.589744 317.217122 481.730769 317.217122 483.871795 317.217122 486.012821 317.217122 488.153846 317.217122 490.294872 317.217122 492.435897 317.217122 494.576923 317.217122 496.717949 317.217122 498.858974 317.217122 501.000000 317.217122 503.141026 317.217122 505.282051 317.217122 507.423077 317.217122 509.564103 317.217122 511.705128 317.217122 513.846154 317.217122 515.987179 317.217122 518.128205 317.217122 520.269231 317.217122 522.410256 317.217122 524.551282 317.217122 526.692308 317.217122 528.833333 317.217122 530.974359 317.217122 533.115385 317.217122 535.256410 317.217122 537.397436 317.217122 539.538462 317.217122 541.679487 317.217122 543.820513 317.217122 545.961538 317.217122 548.102564 317.217122 550.243590 317.217122 552.384615 317.217122 554.525641 317.217122 556.666667 317.217122 558.807692 317.217122 560.948718 317.217122 563.089744 317.217122 565.230769 317.217122 567.371795 317.217122 569.512821 317.217122 571.653846 317.217122 573.794872 317.217122 575.935897 317.217122 578.076923 317.217122 580.217949 317.217122 582.358974 317.217122 584.500000 317.217122 586.641026 317.217122 588.782051 317.217122 590.923077 317.217122 593.064103 317.217122 595.205128 317.217122 597.346154 317.217122 599.487179 317.217122 601.628205 317.217122 603.769231 317.217122 605.910256 317.217122 608.051282 317.217122 610.192308 317.217122 612.333333 317.217122 614.474359 317.217122 616.615385 317.217122 618.756410 317.217122 620.897436 317.217122 623.038462 317.217122 625.179487 317.217122 627.320513 317.217122 629.461538 317.217122 631.602564 317.217122 633.743590 317.217122 635.884615 317.217122 638.025641 317.217122 640.166667 317.217122 642.307692 317.217122 644.448718 317.217122 646.589744 317.217122 648.730769 317.217122 650.871795 317.217122 653.012821 317.217122 655.153846 317.217122"/></g><g class="series serie-3 color-3"><path class="line reactive nofill" d="M12.846154 317.217122 L14.987179 317.217122 17.128205 317.217122 19.269231 317.217122 21.410256 317.217122 23.551282 317.217122 25.692308 317.217122 27.833333 317.217122 29.974359 317.217122 32.115385 317.217122 34.256410 317.217122 36.397436 317.217122 38.538462 317.217122 40.679487 317.217122 42.820513 317.217122 44.961538 317.217122 47.102564 317.217122 49.243590 317.217122 51.384615 317.217122 53.525641 317.217122 55.666667 317.217122 57.807692 317.217122 59.948718 317.217122 62.089744 317.217122 64.230769 317.217122 66.371795 317.217122 68.512821 317.217122 70.653846 317.217122 72.794872 317.217122 74.935897 317.217122 77.076923 317.217122 79.217949 317.217122 81.358974 317.217122 83.500000 317.217122 85.641026 317.217122 87.782051 317.217122 89.923077 317.217122 92.064103 317.217122 94.205128 317.217122 96.346154 317.217122 98.487179 317.217122 100.628205 317.217122 102.769231 317.217122 104.910256 317.217122 107.051282 317.217122 109.192308 317.217122 111.333333 317.217122 113.474359 317.217122 115.615385 317.217122 117.756410 317.217122 119.897436 317.217122 122.038462 317.217122 124.179487 317.217122 126.320513 317.217122 128.461538 317.217122 130.602564 317.217122 132.743590 317.217122 134.884615 317.217122 137.025641 317.217122 139.166667 317.217122 141.307692 102.119731 143.448718 102.119731 145.589744 102.119731 147.730769 102.119731 149.871795 102.119731 152.012821 174.914514 154.153846 174.914514 156.294872 174.914514 158.435897 174.914514 160.576923 174.914514 162.717949 210.488437 164.858974 210.488437 167.000000 210.488437 169.141026 210.488437 171.282051 210.488437 173.423077 210.488437 175.564103 210.488437 177.705128 210.488437 179.846154 210.488437 181.987179 210.488437 184.128205 210.488437 186.269231 318.857144 188.410256 318.857144 190.551282 318.857144 192.692308 318.857144 194.833333 318.857144 196.974359 317.210209 199.115385 317.210209 201.256410 317.210209 203.397436 317.210209 205.538462 317.702097 207.679487 317.948042 209.820513 317.948042 211.961538 317.948042 214.102564 317.079216 216.243590 317.079216 218.384615 317.079216 220.525641 317.079216 222.666667 317.079216 224.807692 317.079216 226.948718 317.079216 229.089744 317.079216 231.230769 317.079216 233.371795 317.079216 235.512821 317.079216 237.653846 317.328197 239.794872 317.106545 241.935897 317.106545 244.076923 317.106545 246.217949 317.106545 248.358974 317.136169 250.500000 316.811420 252.641026 316.811420 254.782051 316.811420 256.923077 316.811420 259.064103 317.178884 261.205128 317.178884 263.346154 317.178884 265.487179 317.178884 267.628205 317.178884 269.769231 317.132679 271.910256 317.132679 274.051282 317.132679 276.192308 317.132679 278.333333 317.132679 280.474359 317.132679 282.615385 316.944186 284.756410 317.125249 286.897436 317.125249 289.038462 317.125249 291.179487 317.125249 293.320513 317.040269 295.461538 317.040269 297.602564 317.040269 299.743590 317.040269 301.884615 317.040269 304.025641 317.040269 306.166667 317.040269 308.307692 317.040269 310.448718 317.040269 312.589744 317.040269 314.730769 317.217122 316.871795 317.217122 319.012821 317.217122 321.153846 317.217122 323.294872 317.217122 325.435897 317.217122 327.576923 317.217122 329.717949 317.217122 331.858974 317.217122 334.000000 317.217122 336.141026 317.217122 338.282051 317.217122 340.423077 317.217122 342.564103 317.217122 344.705128 317.217122 346.846154 317.217122 348.987179 317.217122 351.128205 317.217122 353.269231 317.217122 355.410256 317.217122 357.551282 317.217122 359.692308 317.217122 361.833333 317.217122 363.974359 317.217122 366.115385 317.217122 368.256410 317.217122 370.397436 317.217122 372.538462 317.217122 374.679487 317.217122 376.820513 316.310106 378.961538 316.310106 381.102564 316.310106 383.243590 316.310106 385.384615 316.310106 387.525641 316.310106 389.666667 316.310106 391.807692 316.310106 393.948718 316.310106 396.089744 316.310106 398.230769 316.310106 400.371795 316.310106 402.512821 316.310106 404.653846 316.310106 406.794872 316.310106 408.935897 316.310106 411.076923 316.310106 413.217949 316.310106 415.358974 316.310106 417.500000 316.310106 419.641026 316.833789 421.782051 317.357471 423.923077 317.357471 426.064103 317.357471 428.205128 317.357471 430.346154 317.357471 432.487179 317.357471 434.628205 317.357471 436.769231 317.357471 438.910256 317.357471 441.051282 317.357471 443.192308 317.357471 445.333333 317.357471 447.474359 317.357471 449.615385 317.357471 451.756410 317.357471 453.897436 317.357471 456.038462 317.357471 458.179487 317.357471 460.320513 317.357471 462.461538 317.357471 464.602564 317.217122 466.743590 317.217122 468.884615 317.217122 471.025641 317.217122 473.166667 317.217122 475.307692 317.217122 477.448718 317.217122 479.589744 317.217122 481.730769 317.217122 483.871795 317.217122 486.012821 317.217122 488.153846 317.217122 490.294872 317.217122 492.435897 317.217122 494.576923 317.217122 496.717949 317.217122 498.858974 317.217122 501.000000 317.217122 503.141026 317.217122 505.282051 317.217122 507.423077 317.217122 509.564103 317.217122 511.705128 317.217122 513.846154 317.217122 515.987179 317.217122 518.128205 317.217122 520.269231 317.217122 522.410256 317.217122 524.551282 317.217122 526.692308 317.217122 528.833333 317.217122 530.974359 317.217122 533.115385 317.217122 535.256410 317.217122 537.397436 317.217122 539.538462 317.217122 541.679487 317.217122 543.820513 317.217122 545.961538 317.217122 548.102564 317.217122 550.243590 317.217122 552.384615 317.217122 554.525641 317.217122 556.666667 317.217122 558.807692 317.217122 560.948718 317.217122 563.089744 317.217122 565.230769 317.217122 567.371795 317.217122 569.512821 317.217122 571.653846 317.217122 573.794872 317.217122 575.935897 317.217122 578.076923 317.217122 580.217949 317.217122 582.358974 317.217122 584.500000 317.217122 586.641026 317.217122 588.782051 317.217122 590.923077 317.217122 593.064103 317.217122 595.205128 317.217122 597.346154 317.217122 599.487179 317.217122 601.628205 317.217122 603.769231 317.217122 605.910256 317.217122 608.051282 317.217122 610.192308 317.217122 612.333333 317.217122 614.474359 317.217122 616.615385 317.217122 618.756410 317.217122 620.897436 317.217122 623.038462 317.217122 625.179487 317.217122 627.320513 317.217122 629.461538 317.217122 631.602564 317.217122 633.743590 317.217122 635.884615 317.217122 638.025641 317.217122 640.166667 317.217122 642.307692 317.217122 644.448718 317.217122 646.589744 317.217122 648.730769 317.217122 650.871795 317.217122 653.012821 317.217122 655.153846 317.217122"/></g><g class="series serie-4 color-4"><path class="line reactive nofill" d="M12.846154 317.217122 L14.987179 317.217122 17.128205 317.217122 19.269231 317.217122 21.410256 317.217122 23.551282 317.217122 25.692308 317.217122 27.833333 317.217122 29.974359 317.217122 32.115385 317.217122 34.256410 317.217122 36.397436 317.217122 38.538462 317.217122 40.679487 317.217122 42.820513 317.217122 44.961538 317.217122 47.102564 317.217122 49.243590 317.217122 51.384615 317.217122 53.525641 317.217122 55.666667 317.217122 57.807692 317.217122 59.948718 317.217122 62.089744 317.217122 64.230769 317.217122 66.371795 317.217122 68.512821 317.217122 70.653846 317.217122 72.794872 317.217122 74.935897 317.217122 77.076923 317.217122 79.217949 317.217122 81.358974 317.217122 83.500000 317.217122 85.641026 317.217122 87.782051 317.217122 89.923077 317.217122 92.064103 317.217122 94.205128 317.217122 96.346154 317.217122 98.487179 317.217122 100.628205 317.217122 102.769231 317.217122 104.910256 317.217122 107.051282 317.217122 109.192308 317.217122 111.333333 317.217122 113.474359 317.217122 115.615385 317.217122 117.756410 317.217122 119.897436 317.217122 122.038462 317.217122 124.179487 317.217122 126.320513 317.217122 128.461538 317.217122 130.602564 317.217122 132.743590 317.217122 134.884615 317.217122 137.025641 317.217122 139.166667 317.217122 141.307692 101.698925 143.448718 101.698925 145.589744 101.698925 147.730769 101.698925 149.871795 101.698925 152.012821 173.585091 154.153846 173.585091 156.294872 173.585091 158.435897 173.585091 160.576923 173.585091 162.717949 209.491370 164.858974 209.491370 167.000000 209.491370 169.141026 209.491370 171.282051 209.491370 173.423077 209.491370 175.564103 209.491370 177.705128 209.491370 179.846154 209.491370 181.987179 209.491370 184.128205 209.491370 186.269231 317.283815 188.410256 317.283815 190.551282 317.283815 192.692308 317.283815 194.833333 317.283815 196.974359 317.210209 199.115385 317.210209 201.256410 317.210209 203.397436 317.210209 205.538462 317.308384 207.679487 317.357471 209.820513 317.357471 211.961538 317.357471 214.102564 317.251703 216.243590 317.251703 218.384615 317.251703 220.525641 317.251703 222.666667 317.251703 224.807692 317.251703 226.948718 317.251703 229.089744 317.251703 231.230769 317.251703 233.371795 317.251703 235.512821 317.251703 237.653846 317.201308 239.794872 317.208166 241.935897 317.208166 244.076923 317.208166 246.217949 317.208166 248.358974 317.278913 250.500000 317.247489 252.641026 317.247489 254.782051 317.247489 256.923077 317.247489 259.064103 317.299320 261.205128 317.299320 263.346154 317.299320 265.487179 317.299320 267.628205 317.299320 269.769231 317.288515 271.910256 317.288515 274.051282 317.288515 276.192308 317.288515 278.333333 317.288515 280.474359 317.288515 282.615385 317.336193 284.756410 317.361342 286.897436 317.361342 289.038462 317.361342 291.179487 317.361342 293.320513 317.266904 295.461538 317.266904 297.602564 317.266904 299.743590 317.266904 301.884615 317.266904 304.025641 317.266904 306.166667 317.266904 308.307692 317.266904 310.448718 317.266904 312.589744 317.266904 314.730769 317.217122 316.871795 317.217122 319.012821 317.217122 321.153846 317.217122 323.294872 317.217122 325.435897 317.217122 327.576923 317.217122 329.717949 317.217122 331.858974 317.217122 334.000000 317.217122 336.141026 317.217122 338.282051 317.217122 340.423077 317.217122 342.564103 317.217122 344.705128 317.217122 346.846154 317.217122 348.987179 317.217122 351.128205 317.217122 353.269231 317.217122 355.410256 317.217122 357.551282 317.217122 359.692308 317.217122 361.833333 317.217122 363.974359 317.217122 366.115385 317.217122 368.256410 317.217122 370.397436 317.217122 372.538462 317.217122 374.679487 317.217122 376.820513 317.619390 378.961538 317.619390 381.102564 317.619390 383.243590 317.619390 385.384615 317.619390 387.525641 317.619390 389.666667 317.619390 391.807692 317.619390 393.948718 317.619390 396.089744 317.619390 398.230769 317.619390 400.371795 317.619390 402.512821 317.619390 404.653846 317.619390 406.794872 317.619390 408.935897 317.619390 411.076923 317.619390 413.217949 317.619390 415.358974 317.619390 417.500000 317.619390 419.641026 317.488431 421.782051 317.357471 423.923077 317.357471 426.064103 317.357471 428.205128 317.357471 430.346154 317.357471 432.487179 317.357471 434.628205 317.357471 436.769231 317.357471 438.910256 317.357471 441.051282 317.357471 443.192308 317.357471 445.333333 317.357471 447.474359 317.357471 449.615385 317.357471 451.756410 317.357471 453.897436 317.357471 456.038462 317.357471 458.179487 317.357471 460.320513 317.357471 462.461538 317.357471 464.602564 317.217122 466.743590 317.217122 468.884615 317.217122 471.025641 317.217122 473.166667 317.217122 475.307692 317.217122 477.448718 317.217122 479.589744 317.217122 481.730769 317.217122 483.871795 317.217122 486.012821 317.217122 488.153846 317.217122 490.294872 317.217122 492.435897 317.217122 494.576923 317.217122 496.717949 317.217122 498.858974 317.217122 501.000000 317.217122 503.141026 317.217122 505.282051 317.217122 507.423077 317.217122 509.564103 317.217122 511.705128 317.217122 513.846154 317.217122 515.987179 317.217122 518.128205 317.217122 520.269231 317.217122 522.410256 317.217122 524.551282 317.217122 526.692308 317.217122 528.833333 317.217122 530.974359 317.217122 533.115385 317.217122 535.256410 317.217122 537.397436 317.217122 539.538462 317.217122 541.679487 317.217122 543.820513 317.217122 545.961538 317.217122 548.102564 317.217122 550.243590 317.217122 552.384615 317.217122 554.525641 317.217122 556.666667 317.217122 558.807692 317.217122 560.948718 317.217122 563.089744 317.217122 565.230769 317.217122 567.371795 317.217122 569.512821 317.217122 571.653846 317.217122 573.794872 317.217122 575.935897 317.217122 578.076923 317.217122 580.217949 317.217122 582.358974 317.217122 584.500000 317.217122 586.641026 317.217122 588.782051 317.217122 590.923077 317.217122 593.064103 317.217122 595.205128 317.217122 597.346154 317.217122 599.487179 317.217122 601.628205 317.217122 603.769231 317.217122 605.910256 317.217122 608.051282 317.217122 610.192308 317.217122 612.333333 317.217122 614.474359 317.217122 616.615385 317.217122 618.756410 317.217122 620.897436 317.217122 623.038462 317.217122 625.179487 317.217122 627.320513 317.217122 629.461538 317.217122 631.602564 317.217122 633.743590 317.217122 635.884615 317.217122 638.025641 317.217122 640.166667 317.217122 642.307692 317.217122 644.448718 317.217122 646.589744 317.217122 648.730769 317.217122 650.871795 317.217122 653.012821 317.217122 655.153846 317.217122"/></g><g class="series serie-5 color-5"><path class="line reactive nofill" d="M12.846154 317.217122 L14.987179 317.217122 17.128205 317.217122 19.269231 317.217122 21.410256 317.217122 23.551282 317.217122 25.692308 317.217122 27.833333 317.217122 29.974359 317.217122 32.115385 317.217122 34.256410 317.217122 36.397436 317.217122 38.538462 317.217122 40.679487 317.217122 42.820513 317.217122 44.961538 317.217122 47.102564 317.217122 49.243590 317.217122 51.384615 317.217122 53.525641 317.217122 55.666667 317.217122 57.807692 317.217122 59.948718 317.217122 62.089744 317.217122 64.230769 317.217122 66.371795 317.217122 68.512821 317.217122 70.653846 317.217122 72.794872 317.217122 74.935897 317.217122 77.076923 317.217122 79.217949 317.217122 81.358974 317.217122 83.500000 317.217122 85.641026 317.217122 87.782051 317.217122 89.923077 317.217122 92.064103 317.217122 94.205128 317.217122 96.346154 317.217122 98.487179 317.217122 100.628205 317.217122 102.769231 317.217122 104.910256 317.217122 107.051282 317.217122 109.192308 317.217122 111.333333 317.217122 113.474359 317.217122 115.615385 317.217122 117.756410 317.217122 119.897436 317.217122 122.038462 317.217122 124.179487 317.217122 126.320513 317.217122 128.461538 317.217122 130.602564 317.217122 132.743590 317.217122 134.884615 317.217122 137.025641 317.217122 139.166667 317.217122 141.307692 101.698925 143.448718 101.698925 145.589744 101.698925 147.730769 101.698925 149.871795 101.698925 152.012821 173.585091 154.153846 173.585091 156.294872 173.585091 158.435897 173.585091 160.576923 173.585091 162.717949 209.491370 164.858974 209.491370 167.000000 209.491370 169.141026 209.491370 171.282051 209.491370 173.423077 209.491370 175.564103 209.491370 177.705128 209.491370 179.846154 209.491370 181.987179 209.491370 184.128205 209.491370 186.269231 317.283815 188.410256 317.283815 190.551282 317.283815 192.692308 317.283815 194.833333 317.283815 196.974359 317.210209 199.115385 317.210209 201.256410 317.210209 203.397436 317.210209 205.538462 317.308384 207.679487 317.357471 209.820513 317.357471 211.961538 317.357471 214.102564 317.251703 216.243590 317.251703 218.384615 317.251703 220.525641 317.251703 222.666667 317.251703 224.807692 317.251703 226.948718 317.251703 229.089744 317.251703 231.230769 317.251703 233.371795 317.251703 235.512821 317.251703 237.653846 317.201308 239.794872 317.208166 241.935897 317.208166 244.076923 317.208166 246.217949 317.208166 248.358974 317.278913 250.500000 317.247489 252.641026 317.247489 254.782051 317.247489 256.923077 317.247489 259.064103 317.299320 261.205128 317.299320 263.346154 317.299320 265.487179 317.299320 267.628205 317.299320 269.769231 317.288515 271.910256 317.288515 274.051282 317.288515 276.192308 317.288515 278.333333 317.288515 280.474359 317.288515 282.615385 317.336193 284.756410 317.361342 286.897436 317.361342 289.038462 317.361342 291.179487 317.361342 293.320513 317.266904 295.461538 317.266904 297.602564 317.266904 299.743590 317.266904 301.884615 317.266904 304.025641 317.266904 306.166667 317.266904 308.307692 317.266904 310.448718 317.266904 312.589744 317.266904 314.730769 317.217122 316.871795 317.217122 319.012821 317.217122 321.153846 317.217122 323.294872 317.217122 325.435897 317.217122 327.576923 317.217122 329.717949 317.217122 331.858974 317.217122 334.000000 317.217122 336.141026 317.217122 338.282051 317.217122 340.423077 317.217122 342.564103 317.217122 344.705128 317.217122 346.846154 317.217122 348.987179 317.217122 351.128205 317.217122 353.269231 317.217122 355.410256 317.217122 357.551282 317.217122 359.692308 317.217122 361.833333 317.217122 363.974359 317.217122 366.115385 317.217122 368.256410 317.217122 370.397436 317.217122 372.538462 317.217122 374.679487 317.217122 376.820513 317.619390 378.961538 317.619390 381.102564 317.619390 383.243590 317.619390 385.384615 317.619390 387.525641 317.619390 389.666667 317.619390 391.807692 317.619390 393.948718 317.619390 396.089744 317.619390 398.230769 317.619390 400.371795 317.619390 402.512821 317.619390 404.653846 317.619390 406.794872 317.619390 408.935897 317.619390 411.076923 317.619390 413.217949 317.619390 415.358974 317.619390 417.500000 317.619390 419.641026 317.488431 421.782051 317.357471 423.923077 317.357471 426.064103 317.357471 428.205128 317.357471 430.346154 317.357471 432.487179 317.357471 434.628205 317.357471 436.769231 317.357471 438.910256 317.357471 441.051282 317.357471 443.192308 317.357471 445.333333 317.357471 447.474359 317.357471 449.615385 317.357471 451.756410 317.357471 453.897436 317.357471 456.038462 317.357471 458.179487 317.357471 460.320513 317.357471 462.461538 317.357471 464.602564 317.217122 466.743590 317.217122 468.884615 317.217122 471.025641 317.217122 473.166667 317.217122 475.307692 317.217122 477.448718 317.217122 479.589744 317.217122 481.730769 317.217122 483.871795 317.217122 486.012821 317.217122 488.153846 317.217122 490.294872 317.217122 492.435897 317.217122 494.576923 317.217122 496.717949 317.217122 498.858974 317.217122 501.000000 317.217122 503.141026 317.217122 505.282051 317.217122 507.423077 317.217122 509.564103 317.217122 511.705128 317.217122 513.846154 317.217122 515.987179 317.217122 518.128205 317.217122 520.269231 317.217122 522.410256 317.217122 524.551282 317.217122 526.692308 317.217122 528.833333 317.217122 530.974359 317.217122 533.115385 317.217122 535.256410 317.217122 537.397436 317.217122 539.538462 317.217122 541.679487 317.217122 543.820513 317.217122 545.961538 317.217122 548.102564 317.217122 550.243590 317.217122 552.384615 317.217122 554.525641 317.217122 556.666667 317.217122 558.807692 317.217122 560.948718 317.217122 563.089744 317.217122 565.230769 317.217122 567.371795 317.217122 569.512821 317.217122 571.653846 317.217122 573.794872 317.217122 575.935897 317.217122 578.076923 317.217122 580.217949 317.217122 582.358974 317.217122 584.500000 317.217122 586.641026 317.217122 588.782051 317.217122 590.923077 317.217122 593.064103 317.217122 595.205128 317.217122 597.346154 317.217122 599.487179 317.217122 601.628205 317.217122 603.769231 317.217122 605.910256 317.217122 608.051282 317.217122 610.192308 317.217122 612.333333 317.217122 614.474359 317.217122 616.615385 317.217122 618.756410 317.217122 620.897436 317.217122 623.038462 317.217122 625.179487 317.217122 627.320513 317.217122 629.461538 317.217122 631.602564 317.217122 633.743590 317.217122 635.884615 317.217122 638.025641 317.217122 640.166667 317.217122 642.307692 317.217122 644.448718 317.217122 646.589744 317.217122 648.730769 317.217122 650.871795 317.217122 653.012821 317.217122 655.153846 317.217122"/></g></g><g class="titles"><text class="title plot_title" x="400.0" y="28">Mean OE2 for Tempo T ±10.0 BPM</text><text class="title" x="446.0" y="465.0">T (BPM)</text><text class="title" x="0" y="243.0" transform="rotate(-90 0.000000 215.000000)">Mean OE2 (TO)</text></g><g class="plot overlay" transform="translate(112, 48)"><g class="series serie-0 color-0"><g class="dots"><circle class="dot reactive tooltip-trigger" cx="12.846153846153845" cy="317.2171215880893" r="2.5"/><desc class="value">0.0000</desc><desc class="x top">12.846153846153845</desc><desc class="y top">317.2171215880893</desc><desc class="x_label">0.0</desc></g><g class="dots"><circle class="dot reactive tooltip-trigger" cx="77.07692307692308" cy="317.2171215880893" r="2.5"/><desc class="value">0.0000</desc><desc class="x top">77.07692307692308</desc><desc class="y top">317.2171215880893</desc><desc class="x_label">30.0</desc></g><g class="dots"><circle class="dot reactive tooltip-trigger" cx="141.30769230769232" cy="322.13604693163165" r="2.5"/><desc class="value">-0.0047</desc><desc class="x top">141.30769230769232</desc><desc class="y top">322.13604693163165</desc><desc class="x_label">60.0</desc></g><g class="dots"><circle class="dot reactive tooltip-trigger" cx="205.53846153846152" cy="317.2171215880893" r="2.5"/><desc class="value">0.0000</desc><desc class="x top">205.53846153846152</desc><desc class="y top">317.2171215880893</desc><desc class="x_label">90.0</desc></g><g class="dots"><circle class="dot reactive tooltip-trigger" cx="269.7692307692308" cy="316.08515727059205" r="2.5"/><desc class="value">0.0011</desc><desc class="x top">269.7692307692308</desc><desc class="y top">316.08515727059205</desc><desc class="x_label">120.0</desc></g><g class="dots"><circle class="dot reactive tooltip-trigger" cx="334.0" cy="317.2171215880893" r="2.5"/><desc class="value">0.0000</desc><desc class="x top">334.0</desc><desc class="y top">317.2171215880893</desc><desc class="x_label">150.0</desc></g><g class="dots"><circle class="dot reactive tooltip-trigger" cx="398.2307692307692" cy="324.70888375675975" r="2.5"/><desc class="value">-0.0072</desc><desc class="x left top">398.2307692307692</desc><desc class="y left top">324.70888375675975</desc><desc class="x_label">180.0</desc></g><g class="dots"><circle class="dot reactive tooltip-trigger" cx="462.46153846153845" cy="317.2171215880893" r="2.5"/><desc class="value">0.0000</desc><desc class="x left top">462.46153846153845</desc><desc class="y left top">317.2171215880893</desc><desc class="x_label">210.0</desc></g><g class="dots"><circle class="dot reactive tooltip-trigger" cx="526.6923076923076" cy="317.2171215880893" r="2.5"/><desc class="value">0.0000</desc><desc class="x left top">526.6923076923076</desc><desc class="y left top">317.2171215880893</desc><desc class="x_label">240.0</desc></g><g class="dots"><circle class="dot reactive tooltip-trigger" cx="590.9230769230769" cy="317.2171215880893" r="2.5"/><desc class="value">0.0000</desc><desc class="x left top">590.9230769230769</desc><desc class="y left top">317.2171215880893</desc><desc class="x_label">270.0</desc></g><g class="dots"><circle class="dot reactive tooltip-trigger" cx="655.1538461538462" cy="317.2171215880893" r="2.5"/><desc class="value">0.0000</desc><desc class="x left top">655.1538461538462</desc><desc class="y left top">317.2171215880893</desc><desc class="x_label">300.0</desc></g></g><g class="series serie-1 color-1"><g class="dots"><circle class="dot reactive tooltip-trigger" cx="12.846153846153845" cy="317.2171215880893" r="2.5"/><desc class="value">0.0000</desc><desc class="x top">12.846153846153845</desc><desc class="y top">317.2171215880893</desc><desc class="x_label">0.0</desc></g><g class="dots"><circle class="dot reactive tooltip-trigger" cx="77.07692307692308" cy="317.2171215880893" r="2.5"/><desc class="value">0.0000</desc><desc class="x top">77.07692307692308</desc><desc class="y top">317.2171215880893</desc><desc class="x_label">30.0</desc></g><g class="dots"><circle class="dot reactive tooltip-trigger" cx="141.30769230769232" cy="290.04804399890304" r="2.5"/><desc class="value">0.0262</desc><desc class="x top">141.30769230769232</desc><desc class="y top">290.04804399890304</desc><desc class="x_label">60.0</desc></g><g class="dots"><circle class="dot reactive tooltip-trigger" cx="205.53846153846152" cy="299.37703194443463" r="2.5"/><desc class="value">0.0172</desc><desc class="x top">205.53846153846152</desc><desc class="y top">299.37703194443463</desc><desc class="x_label">90.0</desc></g><g class="dots"><circle class="dot reactive tooltip-trigger" cx="269.7692307692308" cy="298.5520934262627" r="2.5"/><desc class="value">0.0180</desc><desc class="x top">269.7692307692308</desc><desc class="y top">298.5520934262627</desc><desc class="x_label">120.0</desc></g><g class="dots"><circle class="dot reactive tooltip-trigger" cx="334.0" cy="317.2171215880893" r="2.5"/><desc class="value">0.0000</desc><desc class="x top">334.0</desc><desc class="y top">317.2171215880893</desc><desc class="x_label">150.0</desc></g><g class="dots"><circle class="dot reactive tooltip-trigger" cx="398.2307692307692" cy="306.19612925767166" r="2.5"/><desc class="value">0.0106</desc><desc class="x left top">398.2307692307692</desc><desc class="y left top">306.19612925767166</desc><desc class="x_label">180.0</desc></g><g class="dots"><circle class="dot reactive tooltip-trigger" cx="462.46153846153845" cy="297.42567681245555" r="2.5"/><desc class="value">0.0191</desc><desc class="x left top">462.46153846153845</desc><desc class="y left top">297.42567681245555</desc><desc class="x_label">210.0</desc></g><g class="dots"><circle class="dot reactive tooltip-trigger" cx="526.6923076923076" cy="317.2171215880893" r="2.5"/><desc class="value">0.0000</desc><desc class="x left top">526.6923076923076</desc><desc class="y left top">317.2171215880893</desc><desc class="x_label">240.0</desc></g><g class="dots"><circle class="dot reactive tooltip-trigger" cx="590.9230769230769" cy="317.2171215880893" r="2.5"/><desc class="value">0.0000</desc><desc class="x left top">590.9230769230769</desc><desc class="y left top">317.2171215880893</desc><desc class="x_label">270.0</desc></g><g class="dots"><circle class="dot reactive tooltip-trigger" cx="655.1538461538462" cy="317.2171215880893" r="2.5"/><desc class="value">0.0000</desc><desc class="x left top">655.1538461538462</desc><desc class="y left top">317.2171215880893</desc><desc class="x_label">300.0</desc></g></g><g class="series serie-2 color-2"><g class="dots"><circle class="dot reactive tooltip-trigger" cx="12.846153846153845" cy="317.2171215880893" r="2.5"/><desc class="value">0.0000</desc><desc class="x top">12.846153846153845</desc><desc class="y top">317.2171215880893</desc><desc class="x_label">0.0</desc></g><g class="dots"><circle class="dot reactive tooltip-trigger" cx="77.07692307692308" cy="317.2171215880893" r="2.5"/><desc class="value">0.0000</desc><desc class="x top">77.07692307692308</desc><desc class="y top">317.2171215880893</desc><desc class="x_label">30.0</desc></g><g class="dots"><circle class="dot reactive tooltip-trigger" cx="141.30769230769232" cy="315.63368103474954" r="2.5"/><desc class="value">0.0015</desc><desc class="x top">141.30769230769232</desc><desc class="y top">315.63368103474954</desc><desc class="x_label">60.0</desc></g><g class="dots"><circle class="dot reactive tooltip-trigger" cx="205.53846153846152" cy="317.8036482679791" r="2.5"/><desc class="value">-0.0006</desc><desc class="x top">205.53846153846152</desc><desc class="y top">317.8036482679791</desc><desc class="x_label">90.0</desc></g><g class="dots"><circle class="dot reactive tooltip-trigger" cx="269.7692307692308" cy="317.898870859529" r="2.5"/><desc class="value">-0.0007</desc><desc class="x top">269.7692307692308</desc><desc class="y top">317.898870859529</desc><desc class="x_label">120.0</desc></g><g class="dots"><circle class="dot reactive tooltip-trigger" cx="334.0" cy="317.2171215880893" r="2.5"/><desc class="value">0.0000</desc><desc class="x top">334.0</desc><desc class="y top">317.2171215880893</desc><desc class="x_label">150.0</desc></g><g class="dots"><circle class="dot reactive tooltip-trigger" cx="398.2307692307692" cy="319.24950277630967" r="2.5"/><desc class="value">-0.0020</desc><desc class="x left top">398.2307692307692</desc><desc class="y left top">319.24950277630967</desc><desc class="x_label">180.0</desc></g><g class="dots"><circle class="dot reactive tooltip-trigger" cx="462.46153846153845" cy="319.24966906934" r="2.5"/><desc class="value">-0.0020</desc><desc class="x left top">462.46153846153845</desc><desc class="y left top">319.24966906934</desc><desc class="x_label">210.0</desc></g><g class="dots"><circle class="dot reactive tooltip-trigger" cx="526.6923076923076" cy="317.2171215880893" r="2.5"/><desc class="value">0.0000</desc><desc class="x left top">526.6923076923076</desc><desc class="y left top">317.2171215880893</desc><desc class="x_label">240.0</desc></g><g class="dots"><circle class="dot reactive tooltip-trigger" cx="590.9230769230769" cy="317.2171215880893" r="2.5"/><desc class="value">0.0000</desc><desc class="x left top">590.9230769230769</desc><desc class="y left top">317.2171215880893</desc><desc class="x_label">270.0</desc></g><g class="dots"><circle class="dot reactive tooltip-trigger" cx="655.1538461538462" cy="317.2171215880893" r="2.5"/><desc class="value">0.0000</desc><desc class="x left top">655.1538461538462</desc><desc class="y left top">317.2171215880893</desc><desc class="x_label">300.0</desc></g></g><g class="series serie-3 color-3"><g class="dots"><circle class="dot reactive tooltip-trigger" cx="12.846153846153845" cy="317.2171215880893" r="2.5"/><desc class="value">0.0000</desc><desc class="x top">12.846153846153845</desc><desc class="y top">317.2171215880893</desc><desc class="x_label">0.0</desc></g><g class="dots"><circle class="dot reactive tooltip-trigger" cx="77.07692307692308" cy="317.2171215880893" r="2.5"/><desc class="value">0.0000</desc><desc class="x top">77.07692307692308</desc><desc class="y top">317.2171215880893</desc><desc class="x_label">30.0</desc></g><g class="dots"><circle class="dot reactive tooltip-trigger" cx="141.30769230769232" cy="102.1197312665432" r="2.5"/><desc class="value">0.2076</desc><desc class="x ">141.30769230769232</desc><desc class="y ">102.1197312665432</desc><desc class="x_label">60.0</desc></g><g class="dots"><circle class="dot reactive tooltip-trigger" cx="205.53846153846152" cy="317.7020974918405" r="2.5"/><desc class="value">-0.0005</desc><desc class="x top">205.53846153846152</desc><desc class="y top">317.7020974918405</desc><desc class="x_label">90.0</desc></g><g class="dots"><circle class="dot reactive tooltip-trigger" cx="269.7692307692308" cy="317.1326785687854" r="2.5"/><desc class="value">0.0001</desc><desc class="x top">269.7692307692308</desc><desc class="y top">317.1326785687854</desc><desc class="x_label">120.0</desc></g><g class="dots"><circle class="dot reactive tooltip-trigger" cx="334.0" cy="317.2171215880893" r="2.5"/><desc class="value">0.0000</desc><desc class="x top">334.0</desc><desc class="y top">317.2171215880893</desc><desc class="x_label">150.0</desc></g><g class="dots"><circle class="dot reactive tooltip-trigger" cx="398.2307692307692" cy="316.310106154851" r="2.5"/><desc class="value">0.0009</desc><desc class="x left top">398.2307692307692</desc><desc class="y left top">316.310106154851</desc><desc class="x_label">180.0</desc></g><g class="dots"><circle class="dot reactive tooltip-trigger" cx="462.46153846153845" cy="317.35747143906144" r="2.5"/><desc class="value">-0.0001</desc><desc class="x left top">462.46153846153845</desc><desc class="y left top">317.35747143906144</desc><desc class="x_label">210.0</desc></g><g class="dots"><circle class="dot reactive tooltip-trigger" cx="526.6923076923076" cy="317.2171215880893" r="2.5"/><desc class="value">0.0000</desc><desc class="x left top">526.6923076923076</desc><desc class="y left top">317.2171215880893</desc><desc class="x_label">240.0</desc></g><g class="dots"><circle class="dot reactive tooltip-trigger" cx="590.9230769230769" cy="317.2171215880893" r="2.5"/><desc class="value">0.0000</desc><desc class="x left top">590.9230769230769</desc><desc class="y left top">317.2171215880893</desc><desc class="x_label">270.0</desc></g><g class="dots"><circle class="dot reactive tooltip-trigger" cx="655.1538461538462" cy="317.2171215880893" r="2.5"/><desc class="value">0.0000</desc><desc class="x left top">655.1538461538462</desc><desc class="y left top">317.2171215880893</desc><desc class="x_label">300.0</desc></g></g><g class="series serie-4 color-4"><g class="dots"><circle class="dot reactive tooltip-trigger" cx="12.846153846153845" cy="317.2171215880893" r="2.5"/><desc class="value">0.0000</desc><desc class="x top">12.846153846153845</desc><desc class="y top">317.2171215880893</desc><desc class="x_label">0.0</desc></g><g class="dots"><circle class="dot reactive tooltip-trigger" cx="77.07692307692308" cy="317.2171215880893" r="2.5"/><desc class="value">0.0000</desc><desc class="x top">77.07692307692308</desc><desc class="y top">317.2171215880893</desc><desc class="x_label">30.0</desc></g><g class="dots"><circle class="dot reactive tooltip-trigger" cx="141.30769230769232" cy="101.6989251948454" r="2.5"/><desc class="value">0.2080</desc><desc class="x ">141.30769230769232</desc><desc class="y ">101.6989251948454</desc><desc class="x_label">60.0</desc></g><g class="dots"><circle class="dot reactive tooltip-trigger" cx="205.53846153846152" cy="317.3083839804549" r="2.5"/><desc class="value">-0.0001</desc><desc class="x top">205.53846153846152</desc><desc class="y top">317.3083839804549</desc><desc class="x_label">90.0</desc></g><g class="dots"><circle class="dot reactive tooltip-trigger" cx="269.7692307692308" cy="317.28851495269356" r="2.5"/><desc class="value">-0.0001</desc><desc class="x top">269.7692307692308</desc><desc class="y top">317.28851495269356</desc><desc class="x_label">120.0</desc></g><g class="dots"><circle class="dot reactive tooltip-trigger" cx="334.0" cy="317.2171215880893" r="2.5"/><desc class="value">0.0000</desc><desc class="x top">334.0</desc><desc class="y top">317.2171215880893</desc><desc class="x_label">150.0</desc></g><g class="dots"><circle class="dot reactive tooltip-trigger" cx="398.2307692307692" cy="317.6193901058834" r="2.5"/><desc class="value">-0.0004</desc><desc class="x left top">398.2307692307692</desc><desc class="y left top">317.6193901058834</desc><desc class="x_label">180.0</desc></g><g class="dots"><circle class="dot reactive tooltip-trigger" cx="462.46153846153845" cy="317.35747143906144" r="2.5"/><desc class="value">-0.0001</desc><desc class="x left top">462.46153846153845</desc><desc class="y left top">317.35747143906144</desc><desc class="x_label">210.0</desc></g><g class="dots"><circle class="dot reactive tooltip-trigger" cx="526.6923076923076" cy="317.2171215880893" r="2.5"/><desc class="value">0.0000</desc><desc class="x left top">526.6923076923076</desc><desc class="y left top">317.2171215880893</desc><desc class="x_label">240.0</desc></g><g class="dots"><circle class="dot reactive tooltip-trigger" cx="590.9230769230769" cy="317.2171215880893" r="2.5"/><desc class="value">0.0000</desc><desc class="x left top">590.9230769230769</desc><desc class="y left top">317.2171215880893</desc><desc class="x_label">270.0</desc></g><g class="dots"><circle class="dot reactive tooltip-trigger" cx="655.1538461538462" cy="317.2171215880893" r="2.5"/><desc class="value">0.0000</desc><desc class="x left top">655.1538461538462</desc><desc class="y left top">317.2171215880893</desc><desc class="x_label">300.0</desc></g></g><g class="series serie-5 color-5"><g class="dots"><circle class="dot reactive tooltip-trigger" cx="12.846153846153845" cy="317.2171215880893" r="2.5"/><desc class="value">0.0000</desc><desc class="x top">12.846153846153845</desc><desc class="y top">317.2171215880893</desc><desc class="x_label">0.0</desc></g><g class="dots"><circle class="dot reactive tooltip-trigger" cx="77.07692307692308" cy="317.2171215880893" r="2.5"/><desc class="value">0.0000</desc><desc class="x top">77.07692307692308</desc><desc class="y top">317.2171215880893</desc><desc class="x_label">30.0</desc></g><g class="dots"><circle class="dot reactive tooltip-trigger" cx="141.30769230769232" cy="101.6989251948454" r="2.5"/><desc class="value">0.2080</desc><desc class="x ">141.30769230769232</desc><desc class="y ">101.6989251948454</desc><desc class="x_label">60.0</desc></g><g class="dots"><circle class="dot reactive tooltip-trigger" cx="205.53846153846152" cy="317.3083839804549" r="2.5"/><desc class="value">-0.0001</desc><desc class="x top">205.53846153846152</desc><desc class="y top">317.3083839804549</desc><desc class="x_label">90.0</desc></g><g class="dots"><circle class="dot reactive tooltip-trigger" cx="269.7692307692308" cy="317.28851495269356" r="2.5"/><desc class="value">-0.0001</desc><desc class="x top">269.7692307692308</desc><desc class="y top">317.28851495269356</desc><desc class="x_label">120.0</desc></g><g class="dots"><circle class="dot reactive tooltip-trigger" cx="334.0" cy="317.2171215880893" r="2.5"/><desc class="value">0.0000</desc><desc class="x top">334.0</desc><desc class="y top">317.2171215880893</desc><desc class="x_label">150.0</desc></g><g class="dots"><circle class="dot reactive tooltip-trigger" cx="398.2307692307692" cy="317.6193901058834" r="2.5"/><desc class="value">-0.0004</desc><desc class="x left top">398.2307692307692</desc><desc class="y left top">317.6193901058834</desc><desc class="x_label">180.0</desc></g><g class="dots"><circle class="dot reactive tooltip-trigger" cx="462.46153846153845" cy="317.35747143906144" r="2.5"/><desc class="value">-0.0001</desc><desc class="x left top">462.46153846153845</desc><desc class="y left top">317.35747143906144</desc><desc class="x_label">210.0</desc></g><g class="dots"><circle class="dot reactive tooltip-trigger" cx="526.6923076923076" cy="317.2171215880893" r="2.5"/><desc class="value">0.0000</desc><desc class="x left top">526.6923076923076</desc><desc class="y left top">317.2171215880893</desc><desc class="x_label">240.0</desc></g><g class="dots"><circle class="dot reactive tooltip-trigger" cx="590.9230769230769" cy="317.2171215880893" r="2.5"/><desc class="value">0.0000</desc><desc class="x left top">590.9230769230769</desc><desc class="y left top">317.2171215880893</desc><desc class="x_label">270.0</desc></g><g class="dots"><circle class="dot reactive tooltip-trigger" cx="655.1538461538462" cy="317.2171215880893" r="2.5"/><desc class="value">0.0000</desc><desc class="x left top">655.1538461538462</desc><desc class="y left top">317.2171215880893</desc><desc class="x_label">300.0</desc></g></g></g><g class="plot text-overlay" transform="translate(112, 48)"><g class="series serie-0 color-0"/><g class="series serie-1 color-1"/><g class="series serie-2 color-2"/><g class="series serie-3 color-3"/><g class="series serie-4 color-4"/><g class="series serie-5 color-5"/></g><g class="plot tooltip-overlay" transform="translate(112, 48)"><g class="tooltip" style="opacity: 0" transform="translate(0 0)"><rect class="tooltip-box" height="0" rx="0" ry="0" width="0"/><g class="text"/></g></g><g class="legends" transform="translate(122, 485)"><g class="legend reactive activate-serie" id="activate-serie-0"><rect class="color-0 reactive" height="12" width="12" x="0.0" y="1.5"/><text x="17.0" y="12.0">boeck2015/tempodetector2016_default</text></g><g class="legend reactive activate-serie" id="activate-serie-1"><rect class="color-1 reactive" height="12" width="12" x="334.0" y="1.5"/><text x="351.0" y="12.0">davies2009/mirex_qm_tempotracker</text></g><g class="legend reactive activate-serie" id="activate-serie-2"><rect class="color-2 reactive" height="12" width="12" x="0.0" y="24.0"/><text x="17.0" y="34.5">percival2014/stem</text></g><g class="legend reactive activate-serie" id="activate-serie-3"><rect class="color-3 reactive" height="12" width="12" x="334.0" y="24.0"/><text x="351.0" y="34.5">schreiber2014/default</text></g><g class="legend reactive activate-serie" id="activate-serie-4"><rect class="color-4 reactive" height="12" width="12" x="0.0" y="46.5"/><text x="17.0" y="57.0">schreiber2017/ismir2017</text></g><g class="legend reactive activate-serie" id="activate-serie-5"><rect class="color-5 reactive" height="12" width="12" x="334.0" y="46.5"/><text x="351.0" y="57.0">schreiber2017/mirex2017</text></g></g></g></svg>