<?xml version="1.0" encoding="utf-8" standalone="no"?>
<!DOCTYPE svg PUBLIC "-//W3C//DTD SVG 1.1//EN"
  "http://www.w3.org/Graphics/SVG/1.1/DTD/svg11.dtd">
<!-- Created with matplotlib (http://matplotlib.org/) -->
<svg height="370.338375pt" version="1.1" viewBox="0 0 632.498437 370.338375" width="632.498437pt" xmlns="http://www.w3.org/2000/svg" xmlns:xlink="http://www.w3.org/1999/xlink">
 <defs>
  <style type="text/css">
*{stroke-linecap:butt;stroke-linejoin:round;}
  </style>
 </defs>
 <g id="figure_1">
  <g id="patch_1">
   <path d="M -0 370.338375 
L 632.498438 370.338375 
L 632.498438 0 
L -0 0 
z
" style="fill:#ffffff;"/>
  </g>
  <g id="axes_1">
   <g id="patch_2">
    <path d="M 226.746875 332.782125 
L 617.346875 332.782125 
L 617.346875 22.318125 
L 226.746875 22.318125 
z
" style="fill:#ffffff;"/>
   </g>
   <g id="matplotlib.axis_1">
    <g id="xtick_1">
     <g id="line2d_1">
      <path clip-path="url(#p075cb3bef1)" d="M 226.746875 332.782125 
L 226.746875 22.318125 
" style="fill:none;stroke:#b0b0b0;stroke-linecap:square;stroke-width:0.8;"/>
     </g>
     <g id="line2d_2">
      <defs>
       <path d="M 0 0 
L 0 3.5 
" id="m233d3b541c" style="stroke:#000000;stroke-width:0.8;"/>
      </defs>
      <g>
       <use style="stroke:#000000;stroke-width:0.8;" x="226.746875" xlink:href="#m233d3b541c" y="332.782125"/>
      </g>
     </g>
     <g id="text_1">
      <!-- 0.0 -->
      <defs>
       <path d="M 31.78125 66.40625 
Q 24.171875 66.40625 20.328125 58.90625 
Q 16.5 51.421875 16.5 36.375 
Q 16.5 21.390625 20.328125 13.890625 
Q 24.171875 6.390625 31.78125 6.390625 
Q 39.453125 6.390625 43.28125 13.890625 
Q 47.125 21.390625 47.125 36.375 
Q 47.125 51.421875 43.28125 58.90625 
Q 39.453125 66.40625 31.78125 66.40625 
z
M 31.78125 74.21875 
Q 44.046875 74.21875 50.515625 64.515625 
Q 56.984375 54.828125 56.984375 36.375 
Q 56.984375 17.96875 50.515625 8.265625 
Q 44.046875 -1.421875 31.78125 -1.421875 
Q 19.53125 -1.421875 13.0625 8.265625 
Q 6.59375 17.96875 6.59375 36.375 
Q 6.59375 54.828125 13.0625 64.515625 
Q 19.53125 74.21875 31.78125 74.21875 
z
" id="DejaVuSans-30"/>
       <path d="M 10.6875 12.40625 
L 21 12.40625 
L 21 0 
L 10.6875 0 
z
" id="DejaVuSans-2e"/>
      </defs>
      <g transform="translate(218.795312 347.380562)scale(0.1 -0.1)">
       <use xlink:href="#DejaVuSans-30"/>
       <use x="63.623047" xlink:href="#DejaVuSans-2e"/>
       <use x="95.410156" xlink:href="#DejaVuSans-30"/>
      </g>
     </g>
    </g>
    <g id="xtick_2">
     <g id="line2d_3">
      <path clip-path="url(#p075cb3bef1)" d="M 291.846875 332.782125 
L 291.846875 22.318125 
" style="fill:none;stroke:#b0b0b0;stroke-linecap:square;stroke-width:0.8;"/>
     </g>
     <g id="line2d_4">
      <g>
       <use style="stroke:#000000;stroke-width:0.8;" x="291.846875" xlink:href="#m233d3b541c" y="332.782125"/>
      </g>
     </g>
     <g id="text_2">
      <!-- 0.5 -->
      <defs>
       <path d="M 10.796875 72.90625 
L 49.515625 72.90625 
L 49.515625 64.59375 
L 19.828125 64.59375 
L 19.828125 46.734375 
Q 21.96875 47.46875 24.109375 47.828125 
Q 26.265625 48.1875 28.421875 48.1875 
Q 40.625 48.1875 47.75 41.5 
Q 54.890625 34.8125 54.890625 23.390625 
Q 54.890625 11.625 47.5625 5.09375 
Q 40.234375 -1.421875 26.90625 -1.421875 
Q 22.3125 -1.421875 17.546875 -0.640625 
Q 12.796875 0.140625 7.71875 1.703125 
L 7.71875 11.625 
Q 12.109375 9.234375 16.796875 8.0625 
Q 21.484375 6.890625 26.703125 6.890625 
Q 35.15625 6.890625 40.078125 11.328125 
Q 45.015625 15.765625 45.015625 23.390625 
Q 45.015625 31 40.078125 35.4375 
Q 35.15625 39.890625 26.703125 39.890625 
Q 22.75 39.890625 18.8125 39.015625 
Q 14.890625 38.140625 10.796875 36.28125 
z
" id="DejaVuSans-35"/>
      </defs>
      <g transform="translate(283.895312 347.380562)scale(0.1 -0.1)">
       <use xlink:href="#DejaVuSans-30"/>
       <use x="63.623047" xlink:href="#DejaVuSans-2e"/>
       <use x="95.410156" xlink:href="#DejaVuSans-35"/>
      </g>
     </g>
    </g>
    <g id="xtick_3">
     <g id="line2d_5">
      <path clip-path="url(#p075cb3bef1)" d="M 356.946875 332.782125 
L 356.946875 22.318125 
" style="fill:none;stroke:#b0b0b0;stroke-linecap:square;stroke-width:0.8;"/>
     </g>
     <g id="line2d_6">
      <g>
       <use style="stroke:#000000;stroke-width:0.8;" x="356.946875" xlink:href="#m233d3b541c" y="332.782125"/>
      </g>
     </g>
     <g id="text_3">
      <!-- 1.0 -->
      <defs>
       <path d="M 12.40625 8.296875 
L 28.515625 8.296875 
L 28.515625 63.921875 
L 10.984375 60.40625 
L 10.984375 69.390625 
L 28.421875 72.90625 
L 38.28125 72.90625 
L 38.28125 8.296875 
L 54.390625 8.296875 
L 54.390625 0 
L 12.40625 0 
z
" id="DejaVuSans-31"/>
      </defs>
      <g transform="translate(348.995312 347.380562)scale(0.1 -0.1)">
       <use xlink:href="#DejaVuSans-31"/>
       <use x="63.623047" xlink:href="#DejaVuSans-2e"/>
       <use x="95.410156" xlink:href="#DejaVuSans-30"/>
      </g>
     </g>
    </g>
    <g id="xtick_4">
     <g id="line2d_7">
      <path clip-path="url(#p075cb3bef1)" d="M 422.046875 332.782125 
L 422.046875 22.318125 
" style="fill:none;stroke:#b0b0b0;stroke-linecap:square;stroke-width:0.8;"/>
     </g>
     <g id="line2d_8">
      <g>
       <use style="stroke:#000000;stroke-width:0.8;" x="422.046875" xlink:href="#m233d3b541c" y="332.782125"/>
      </g>
     </g>
     <g id="text_4">
      <!-- 1.5 -->
      <g transform="translate(414.095312 347.380562)scale(0.1 -0.1)">
       <use xlink:href="#DejaVuSans-31"/>
       <use x="63.623047" xlink:href="#DejaVuSans-2e"/>
       <use x="95.410156" xlink:href="#DejaVuSans-35"/>
      </g>
     </g>
    </g>
    <g id="xtick_5">
     <g id="line2d_9">
      <path clip-path="url(#p075cb3bef1)" d="M 487.146875 332.782125 
L 487.146875 22.318125 
" style="fill:none;stroke:#b0b0b0;stroke-linecap:square;stroke-width:0.8;"/>
     </g>
     <g id="line2d_10">
      <g>
       <use style="stroke:#000000;stroke-width:0.8;" x="487.146875" xlink:href="#m233d3b541c" y="332.782125"/>
      </g>
     </g>
     <g id="text_5">
      <!-- 2.0 -->
      <defs>
       <path d="M 19.1875 8.296875 
L 53.609375 8.296875 
L 53.609375 0 
L 7.328125 0 
L 7.328125 8.296875 
Q 12.9375 14.109375 22.625 23.890625 
Q 32.328125 33.6875 34.8125 36.53125 
Q 39.546875 41.84375 41.421875 45.53125 
Q 43.3125 49.21875 43.3125 52.78125 
Q 43.3125 58.59375 39.234375 62.25 
Q 35.15625 65.921875 28.609375 65.921875 
Q 23.96875 65.921875 18.8125 64.3125 
Q 13.671875 62.703125 7.8125 59.421875 
L 7.8125 69.390625 
Q 13.765625 71.78125 18.9375 73 
Q 24.125 74.21875 28.421875 74.21875 
Q 39.75 74.21875 46.484375 68.546875 
Q 53.21875 62.890625 53.21875 53.421875 
Q 53.21875 48.921875 51.53125 44.890625 
Q 49.859375 40.875 45.40625 35.40625 
Q 44.1875 33.984375 37.640625 27.21875 
Q 31.109375 20.453125 19.1875 8.296875 
z
" id="DejaVuSans-32"/>
      </defs>
      <g transform="translate(479.195312 347.380562)scale(0.1 -0.1)">
       <use xlink:href="#DejaVuSans-32"/>
       <use x="63.623047" xlink:href="#DejaVuSans-2e"/>
       <use x="95.410156" xlink:href="#DejaVuSans-30"/>
      </g>
     </g>
    </g>
    <g id="xtick_6">
     <g id="line2d_11">
      <path clip-path="url(#p075cb3bef1)" d="M 552.246875 332.782125 
L 552.246875 22.318125 
" style="fill:none;stroke:#b0b0b0;stroke-linecap:square;stroke-width:0.8;"/>
     </g>
     <g id="line2d_12">
      <g>
       <use style="stroke:#000000;stroke-width:0.8;" x="552.246875" xlink:href="#m233d3b541c" y="332.782125"/>
      </g>
     </g>
     <g id="text_6">
      <!-- 2.5 -->
      <g transform="translate(544.295313 347.380562)scale(0.1 -0.1)">
       <use xlink:href="#DejaVuSans-32"/>
       <use x="63.623047" xlink:href="#DejaVuSans-2e"/>
       <use x="95.410156" xlink:href="#DejaVuSans-35"/>
      </g>
     </g>
    </g>
    <g id="xtick_7">
     <g id="line2d_13">
      <path clip-path="url(#p075cb3bef1)" d="M 617.346875 332.782125 
L 617.346875 22.318125 
" style="fill:none;stroke:#b0b0b0;stroke-linecap:square;stroke-width:0.8;"/>
     </g>
     <g id="line2d_14">
      <g>
       <use style="stroke:#000000;stroke-width:0.8;" x="617.346875" xlink:href="#m233d3b541c" y="332.782125"/>
      </g>
     </g>
     <g id="text_7">
      <!-- 3.0 -->
      <defs>
       <path d="M 40.578125 39.3125 
Q 47.65625 37.796875 51.625 33 
Q 55.609375 28.21875 55.609375 21.1875 
Q 55.609375 10.40625 48.1875 4.484375 
Q 40.765625 -1.421875 27.09375 -1.421875 
Q 22.515625 -1.421875 17.65625 -0.515625 
Q 12.796875 0.390625 7.625 2.203125 
L 7.625 11.71875 
Q 11.71875 9.328125 16.59375 8.109375 
Q 21.484375 6.890625 26.8125 6.890625 
Q 36.078125 6.890625 40.9375 10.546875 
Q 45.796875 14.203125 45.796875 21.1875 
Q 45.796875 27.640625 41.28125 31.265625 
Q 36.765625 34.90625 28.71875 34.90625 
L 20.21875 34.90625 
L 20.21875 43.015625 
L 29.109375 43.015625 
Q 36.375 43.015625 40.234375 45.921875 
Q 44.09375 48.828125 44.09375 54.296875 
Q 44.09375 59.90625 40.109375 62.90625 
Q 36.140625 65.921875 28.71875 65.921875 
Q 24.65625 65.921875 20.015625 65.03125 
Q 15.375 64.15625 9.8125 62.3125 
L 9.8125 71.09375 
Q 15.4375 72.65625 20.34375 73.4375 
Q 25.25 74.21875 29.59375 74.21875 
Q 40.828125 74.21875 47.359375 69.109375 
Q 53.90625 64.015625 53.90625 55.328125 
Q 53.90625 49.265625 50.4375 45.09375 
Q 46.96875 40.921875 40.578125 39.3125 
z
" id="DejaVuSans-33"/>
      </defs>
      <g transform="translate(609.395312 347.380562)scale(0.1 -0.1)">
       <use xlink:href="#DejaVuSans-33"/>
       <use x="63.623047" xlink:href="#DejaVuSans-2e"/>
       <use x="95.410156" xlink:href="#DejaVuSans-30"/>
      </g>
     </g>
    </g>
    <g id="text_8">
     <!-- AOE1 (TO) -->
     <defs>
      <path d="M 34.1875 63.1875 
L 20.796875 26.90625 
L 47.609375 26.90625 
z
M 28.609375 72.90625 
L 39.796875 72.90625 
L 67.578125 0 
L 57.328125 0 
L 50.6875 18.703125 
L 17.828125 18.703125 
L 11.1875 0 
L 0.78125 0 
z
" id="DejaVuSans-41"/>
      <path d="M 39.40625 66.21875 
Q 28.65625 66.21875 22.328125 58.203125 
Q 16.015625 50.203125 16.015625 36.375 
Q 16.015625 22.609375 22.328125 14.59375 
Q 28.65625 6.59375 39.40625 6.59375 
Q 50.140625 6.59375 56.421875 14.59375 
Q 62.703125 22.609375 62.703125 36.375 
Q 62.703125 50.203125 56.421875 58.203125 
Q 50.140625 66.21875 39.40625 66.21875 
z
M 39.40625 74.21875 
Q 54.734375 74.21875 63.90625 63.9375 
Q 73.09375 53.65625 73.09375 36.375 
Q 73.09375 19.140625 63.90625 8.859375 
Q 54.734375 -1.421875 39.40625 -1.421875 
Q 24.03125 -1.421875 14.8125 8.828125 
Q 5.609375 19.09375 5.609375 36.375 
Q 5.609375 53.65625 14.8125 63.9375 
Q 24.03125 74.21875 39.40625 74.21875 
z
" id="DejaVuSans-4f"/>
      <path d="M 9.8125 72.90625 
L 55.90625 72.90625 
L 55.90625 64.59375 
L 19.671875 64.59375 
L 19.671875 43.015625 
L 54.390625 43.015625 
L 54.390625 34.71875 
L 19.671875 34.71875 
L 19.671875 8.296875 
L 56.78125 8.296875 
L 56.78125 0 
L 9.8125 0 
z
" id="DejaVuSans-45"/>
      <path id="DejaVuSans-20"/>
      <path d="M 31 75.875 
Q 24.46875 64.65625 21.28125 53.65625 
Q 18.109375 42.671875 18.109375 31.390625 
Q 18.109375 20.125 21.3125 9.0625 
Q 24.515625 -2 31 -13.1875 
L 23.1875 -13.1875 
Q 15.875 -1.703125 12.234375 9.375 
Q 8.59375 20.453125 8.59375 31.390625 
Q 8.59375 42.28125 12.203125 53.3125 
Q 15.828125 64.359375 23.1875 75.875 
z
" id="DejaVuSans-28"/>
      <path d="M -0.296875 72.90625 
L 61.375 72.90625 
L 61.375 64.59375 
L 35.5 64.59375 
L 35.5 0 
L 25.59375 0 
L 25.59375 64.59375 
L -0.296875 64.59375 
z
" id="DejaVuSans-54"/>
      <path d="M 8.015625 75.875 
L 15.828125 75.875 
Q 23.140625 64.359375 26.78125 53.3125 
Q 30.421875 42.28125 30.421875 31.390625 
Q 30.421875 20.453125 26.78125 9.375 
Q 23.140625 -1.703125 15.828125 -13.1875 
L 8.015625 -13.1875 
Q 14.5 -2 17.703125 9.0625 
Q 20.90625 20.125 20.90625 31.390625 
Q 20.90625 42.671875 17.703125 53.65625 
Q 14.5 64.65625 8.015625 75.875 
z
" id="DejaVuSans-29"/>
     </defs>
     <g transform="translate(395.870313 361.058687)scale(0.1 -0.1)">
      <use xlink:href="#DejaVuSans-41"/>
      <use x="68.392578" xlink:href="#DejaVuSans-4f"/>
      <use x="147.103516" xlink:href="#DejaVuSans-45"/>
      <use x="210.287109" xlink:href="#DejaVuSans-31"/>
      <use x="273.910156" xlink:href="#DejaVuSans-20"/>
      <use x="305.697266" xlink:href="#DejaVuSans-28"/>
      <use x="344.710938" xlink:href="#DejaVuSans-54"/>
      <use x="405.794922" xlink:href="#DejaVuSans-4f"/>
      <use x="484.505859" xlink:href="#DejaVuSans-29"/>
     </g>
    </g>
   </g>
   <g id="matplotlib.axis_2">
    <g id="ytick_1">
     <g id="line2d_15">
      <path clip-path="url(#p075cb3bef1)" d="M 226.746875 305.841034 
L 617.346875 305.841034 
" style="fill:none;stroke:#b0b0b0;stroke-linecap:square;stroke-width:0.8;"/>
     </g>
     <g id="line2d_16">
      <defs>
       <path d="M 0 0 
L -3.5 0 
" id="mef9f68a2a9" style="stroke:#000000;stroke-width:0.8;"/>
      </defs>
      <g>
       <use style="stroke:#000000;stroke-width:0.8;" x="226.746875" xlink:href="#mef9f68a2a9" y="305.841034"/>
      </g>
     </g>
     <g id="text_9">
      <!-- schreiber2017/mirex2017 -->
      <defs>
       <path d="M 44.28125 53.078125 
L 44.28125 44.578125 
Q 40.484375 46.53125 36.375 47.5 
Q 32.28125 48.484375 27.875 48.484375 
Q 21.1875 48.484375 17.84375 46.4375 
Q 14.5 44.390625 14.5 40.28125 
Q 14.5 37.15625 16.890625 35.375 
Q 19.28125 33.59375 26.515625 31.984375 
L 29.59375 31.296875 
Q 39.15625 29.25 43.1875 25.515625 
Q 47.21875 21.78125 47.21875 15.09375 
Q 47.21875 7.46875 41.1875 3.015625 
Q 35.15625 -1.421875 24.609375 -1.421875 
Q 20.21875 -1.421875 15.453125 -0.5625 
Q 10.6875 0.296875 5.421875 2 
L 5.421875 11.28125 
Q 10.40625 8.6875 15.234375 7.390625 
Q 20.0625 6.109375 24.8125 6.109375 
Q 31.15625 6.109375 34.5625 8.28125 
Q 37.984375 10.453125 37.984375 14.40625 
Q 37.984375 18.0625 35.515625 20.015625 
Q 33.0625 21.96875 24.703125 23.78125 
L 21.578125 24.515625 
Q 13.234375 26.265625 9.515625 29.90625 
Q 5.8125 33.546875 5.8125 39.890625 
Q 5.8125 47.609375 11.28125 51.796875 
Q 16.75 56 26.8125 56 
Q 31.78125 56 36.171875 55.265625 
Q 40.578125 54.546875 44.28125 53.078125 
z
" id="DejaVuSans-73"/>
       <path d="M 48.78125 52.59375 
L 48.78125 44.1875 
Q 44.96875 46.296875 41.140625 47.34375 
Q 37.3125 48.390625 33.40625 48.390625 
Q 24.65625 48.390625 19.8125 42.84375 
Q 14.984375 37.3125 14.984375 27.296875 
Q 14.984375 17.28125 19.8125 11.734375 
Q 24.65625 6.203125 33.40625 6.203125 
Q 37.3125 6.203125 41.140625 7.25 
Q 44.96875 8.296875 48.78125 10.40625 
L 48.78125 2.09375 
Q 45.015625 0.34375 40.984375 -0.53125 
Q 36.96875 -1.421875 32.421875 -1.421875 
Q 20.0625 -1.421875 12.78125 6.34375 
Q 5.515625 14.109375 5.515625 27.296875 
Q 5.515625 40.671875 12.859375 48.328125 
Q 20.21875 56 33.015625 56 
Q 37.15625 56 41.109375 55.140625 
Q 45.0625 54.296875 48.78125 52.59375 
z
" id="DejaVuSans-63"/>
       <path d="M 54.890625 33.015625 
L 54.890625 0 
L 45.90625 0 
L 45.90625 32.71875 
Q 45.90625 40.484375 42.875 44.328125 
Q 39.84375 48.1875 33.796875 48.1875 
Q 26.515625 48.1875 22.3125 43.546875 
Q 18.109375 38.921875 18.109375 30.90625 
L 18.109375 0 
L 9.078125 0 
L 9.078125 75.984375 
L 18.109375 75.984375 
L 18.109375 46.1875 
Q 21.34375 51.125 25.703125 53.5625 
Q 30.078125 56 35.796875 56 
Q 45.21875 56 50.046875 50.171875 
Q 54.890625 44.34375 54.890625 33.015625 
z
" id="DejaVuSans-68"/>
       <path d="M 41.109375 46.296875 
Q 39.59375 47.171875 37.8125 47.578125 
Q 36.03125 48 33.890625 48 
Q 26.265625 48 22.1875 43.046875 
Q 18.109375 38.09375 18.109375 28.8125 
L 18.109375 0 
L 9.078125 0 
L 9.078125 54.6875 
L 18.109375 54.6875 
L 18.109375 46.1875 
Q 20.953125 51.171875 25.484375 53.578125 
Q 30.03125 56 36.53125 56 
Q 37.453125 56 38.578125 55.875 
Q 39.703125 55.765625 41.0625 55.515625 
z
" id="DejaVuSans-72"/>
       <path d="M 56.203125 29.59375 
L 56.203125 25.203125 
L 14.890625 25.203125 
Q 15.484375 15.921875 20.484375 11.0625 
Q 25.484375 6.203125 34.421875 6.203125 
Q 39.59375 6.203125 44.453125 7.46875 
Q 49.3125 8.734375 54.109375 11.28125 
L 54.109375 2.78125 
Q 49.265625 0.734375 44.1875 -0.34375 
Q 39.109375 -1.421875 33.890625 -1.421875 
Q 20.796875 -1.421875 13.15625 6.1875 
Q 5.515625 13.8125 5.515625 26.8125 
Q 5.515625 40.234375 12.765625 48.109375 
Q 20.015625 56 32.328125 56 
Q 43.359375 56 49.78125 48.890625 
Q 56.203125 41.796875 56.203125 29.59375 
z
M 47.21875 32.234375 
Q 47.125 39.59375 43.09375 43.984375 
Q 39.0625 48.390625 32.421875 48.390625 
Q 24.90625 48.390625 20.390625 44.140625 
Q 15.875 39.890625 15.1875 32.171875 
z
" id="DejaVuSans-65"/>
       <path d="M 9.421875 54.6875 
L 18.40625 54.6875 
L 18.40625 0 
L 9.421875 0 
z
M 9.421875 75.984375 
L 18.40625 75.984375 
L 18.40625 64.59375 
L 9.421875 64.59375 
z
" id="DejaVuSans-69"/>
       <path d="M 48.6875 27.296875 
Q 48.6875 37.203125 44.609375 42.84375 
Q 40.53125 48.484375 33.40625 48.484375 
Q 26.265625 48.484375 22.1875 42.84375 
Q 18.109375 37.203125 18.109375 27.296875 
Q 18.109375 17.390625 22.1875 11.75 
Q 26.265625 6.109375 33.40625 6.109375 
Q 40.53125 6.109375 44.609375 11.75 
Q 48.6875 17.390625 48.6875 27.296875 
z
M 18.109375 46.390625 
Q 20.953125 51.265625 25.265625 53.625 
Q 29.59375 56 35.59375 56 
Q 45.5625 56 51.78125 48.09375 
Q 58.015625 40.1875 58.015625 27.296875 
Q 58.015625 14.40625 51.78125 6.484375 
Q 45.5625 -1.421875 35.59375 -1.421875 
Q 29.59375 -1.421875 25.265625 0.953125 
Q 20.953125 3.328125 18.109375 8.203125 
L 18.109375 0 
L 9.078125 0 
L 9.078125 75.984375 
L 18.109375 75.984375 
z
" id="DejaVuSans-62"/>
       <path d="M 8.203125 72.90625 
L 55.078125 72.90625 
L 55.078125 68.703125 
L 28.609375 0 
L 18.3125 0 
L 43.21875 64.59375 
L 8.203125 64.59375 
z
" id="DejaVuSans-37"/>
       <path d="M 25.390625 72.90625 
L 33.6875 72.90625 
L 8.296875 -9.28125 
L 0 -9.28125 
z
" id="DejaVuSans-2f"/>
       <path d="M 52 44.1875 
Q 55.375 50.25 60.0625 53.125 
Q 64.75 56 71.09375 56 
Q 79.640625 56 84.28125 50.015625 
Q 88.921875 44.046875 88.921875 33.015625 
L 88.921875 0 
L 79.890625 0 
L 79.890625 32.71875 
Q 79.890625 40.578125 77.09375 44.375 
Q 74.3125 48.1875 68.609375 48.1875 
Q 61.625 48.1875 57.5625 43.546875 
Q 53.515625 38.921875 53.515625 30.90625 
L 53.515625 0 
L 44.484375 0 
L 44.484375 32.71875 
Q 44.484375 40.625 41.703125 44.40625 
Q 38.921875 48.1875 33.109375 48.1875 
Q 26.21875 48.1875 22.15625 43.53125 
Q 18.109375 38.875 18.109375 30.90625 
L 18.109375 0 
L 9.078125 0 
L 9.078125 54.6875 
L 18.109375 54.6875 
L 18.109375 46.1875 
Q 21.1875 51.21875 25.484375 53.609375 
Q 29.78125 56 35.6875 56 
Q 41.65625 56 45.828125 52.96875 
Q 50 49.953125 52 44.1875 
z
" id="DejaVuSans-6d"/>
       <path d="M 54.890625 54.6875 
L 35.109375 28.078125 
L 55.90625 0 
L 45.3125 0 
L 29.390625 21.484375 
L 13.484375 0 
L 2.875 0 
L 24.125 28.609375 
L 4.6875 54.6875 
L 15.28125 54.6875 
L 29.78125 35.203125 
L 44.28125 54.6875 
z
" id="DejaVuSans-78"/>
      </defs>
      <g transform="translate(90.084375 309.640253)scale(0.1 -0.1)">
       <use xlink:href="#DejaVuSans-73"/>
       <use x="52.099609" xlink:href="#DejaVuSans-63"/>
       <use x="107.080078" xlink:href="#DejaVuSans-68"/>
       <use x="170.458984" xlink:href="#DejaVuSans-72"/>
       <use x="211.541016" xlink:href="#DejaVuSans-65"/>
       <use x="273.064453" xlink:href="#DejaVuSans-69"/>
       <use x="300.847656" xlink:href="#DejaVuSans-62"/>
       <use x="364.324219" xlink:href="#DejaVuSans-65"/>
       <use x="425.847656" xlink:href="#DejaVuSans-72"/>
       <use x="466.960938" xlink:href="#DejaVuSans-32"/>
       <use x="530.583984" xlink:href="#DejaVuSans-30"/>
       <use x="594.207031" xlink:href="#DejaVuSans-31"/>
       <use x="657.830078" xlink:href="#DejaVuSans-37"/>
       <use x="721.453125" xlink:href="#DejaVuSans-2f"/>
       <use x="755.144531" xlink:href="#DejaVuSans-6d"/>
       <use x="852.556641" xlink:href="#DejaVuSans-69"/>
       <use x="880.339844" xlink:href="#DejaVuSans-72"/>
       <use x="921.421875" xlink:href="#DejaVuSans-65"/>
       <use x="982.929688" xlink:href="#DejaVuSans-78"/>
       <use x="1042.109375" xlink:href="#DejaVuSans-32"/>
       <use x="1105.732422" xlink:href="#DejaVuSans-30"/>
       <use x="1169.355469" xlink:href="#DejaVuSans-31"/>
       <use x="1232.978516" xlink:href="#DejaVuSans-37"/>
      </g>
     </g>
    </g>
    <g id="ytick_2">
     <g id="line2d_17">
      <path clip-path="url(#p075cb3bef1)" d="M 226.746875 254.52467 
L 617.346875 254.52467 
" style="fill:none;stroke:#b0b0b0;stroke-linecap:square;stroke-width:0.8;"/>
     </g>
     <g id="line2d_18">
      <g>
       <use style="stroke:#000000;stroke-width:0.8;" x="226.746875" xlink:href="#mef9f68a2a9" y="254.52467"/>
      </g>
     </g>
     <g id="text_10">
      <!-- schreiber2017/ismir2017 -->
      <g transform="translate(94.164062 258.323889)scale(0.1 -0.1)">
       <use xlink:href="#DejaVuSans-73"/>
       <use x="52.099609" xlink:href="#DejaVuSans-63"/>
       <use x="107.080078" xlink:href="#DejaVuSans-68"/>
       <use x="170.458984" xlink:href="#DejaVuSans-72"/>
       <use x="211.541016" xlink:href="#DejaVuSans-65"/>
       <use x="273.064453" xlink:href="#DejaVuSans-69"/>
       <use x="300.847656" xlink:href="#DejaVuSans-62"/>
       <use x="364.324219" xlink:href="#DejaVuSans-65"/>
       <use x="425.847656" xlink:href="#DejaVuSans-72"/>
       <use x="466.960938" xlink:href="#DejaVuSans-32"/>
       <use x="530.583984" xlink:href="#DejaVuSans-30"/>
       <use x="594.207031" xlink:href="#DejaVuSans-31"/>
       <use x="657.830078" xlink:href="#DejaVuSans-37"/>
       <use x="721.453125" xlink:href="#DejaVuSans-2f"/>
       <use x="755.144531" xlink:href="#DejaVuSans-69"/>
       <use x="782.927734" xlink:href="#DejaVuSans-73"/>
       <use x="835.027344" xlink:href="#DejaVuSans-6d"/>
       <use x="932.439453" xlink:href="#DejaVuSans-69"/>
       <use x="960.222656" xlink:href="#DejaVuSans-72"/>
       <use x="1001.335938" xlink:href="#DejaVuSans-32"/>
       <use x="1064.958984" xlink:href="#DejaVuSans-30"/>
       <use x="1128.582031" xlink:href="#DejaVuSans-31"/>
       <use x="1192.205078" xlink:href="#DejaVuSans-37"/>
      </g>
     </g>
    </g>
    <g id="ytick_3">
     <g id="line2d_19">
      <path clip-path="url(#p075cb3bef1)" d="M 226.746875 203.208307 
L 617.346875 203.208307 
" style="fill:none;stroke:#b0b0b0;stroke-linecap:square;stroke-width:0.8;"/>
     </g>
     <g id="line2d_20">
      <g>
       <use style="stroke:#000000;stroke-width:0.8;" x="226.746875" xlink:href="#mef9f68a2a9" y="203.208307"/>
      </g>
     </g>
     <g id="text_11">
      <!-- schreiber2014/default -->
      <defs>
       <path d="M 37.796875 64.3125 
L 12.890625 25.390625 
L 37.796875 25.390625 
z
M 35.203125 72.90625 
L 47.609375 72.90625 
L 47.609375 25.390625 
L 58.015625 25.390625 
L 58.015625 17.1875 
L 47.609375 17.1875 
L 47.609375 0 
L 37.796875 0 
L 37.796875 17.1875 
L 4.890625 17.1875 
L 4.890625 26.703125 
z
" id="DejaVuSans-34"/>
       <path d="M 45.40625 46.390625 
L 45.40625 75.984375 
L 54.390625 75.984375 
L 54.390625 0 
L 45.40625 0 
L 45.40625 8.203125 
Q 42.578125 3.328125 38.25 0.953125 
Q 33.9375 -1.421875 27.875 -1.421875 
Q 17.96875 -1.421875 11.734375 6.484375 
Q 5.515625 14.40625 5.515625 27.296875 
Q 5.515625 40.1875 11.734375 48.09375 
Q 17.96875 56 27.875 56 
Q 33.9375 56 38.25 53.625 
Q 42.578125 51.265625 45.40625 46.390625 
z
M 14.796875 27.296875 
Q 14.796875 17.390625 18.875 11.75 
Q 22.953125 6.109375 30.078125 6.109375 
Q 37.203125 6.109375 41.296875 11.75 
Q 45.40625 17.390625 45.40625 27.296875 
Q 45.40625 37.203125 41.296875 42.84375 
Q 37.203125 48.484375 30.078125 48.484375 
Q 22.953125 48.484375 18.875 42.84375 
Q 14.796875 37.203125 14.796875 27.296875 
z
" id="DejaVuSans-64"/>
       <path d="M 37.109375 75.984375 
L 37.109375 68.5 
L 28.515625 68.5 
Q 23.6875 68.5 21.796875 66.546875 
Q 19.921875 64.59375 19.921875 59.515625 
L 19.921875 54.6875 
L 34.71875 54.6875 
L 34.71875 47.703125 
L 19.921875 47.703125 
L 19.921875 0 
L 10.890625 0 
L 10.890625 47.703125 
L 2.296875 47.703125 
L 2.296875 54.6875 
L 10.890625 54.6875 
L 10.890625 58.5 
Q 10.890625 67.625 15.140625 71.796875 
Q 19.390625 75.984375 28.609375 75.984375 
z
" id="DejaVuSans-66"/>
       <path d="M 34.28125 27.484375 
Q 23.390625 27.484375 19.1875 25 
Q 14.984375 22.515625 14.984375 16.5 
Q 14.984375 11.71875 18.140625 8.90625 
Q 21.296875 6.109375 26.703125 6.109375 
Q 34.1875 6.109375 38.703125 11.40625 
Q 43.21875 16.703125 43.21875 25.484375 
L 43.21875 27.484375 
z
M 52.203125 31.203125 
L 52.203125 0 
L 43.21875 0 
L 43.21875 8.296875 
Q 40.140625 3.328125 35.546875 0.953125 
Q 30.953125 -1.421875 24.3125 -1.421875 
Q 15.921875 -1.421875 10.953125 3.296875 
Q 6 8.015625 6 15.921875 
Q 6 25.140625 12.171875 29.828125 
Q 18.359375 34.515625 30.609375 34.515625 
L 43.21875 34.515625 
L 43.21875 35.40625 
Q 43.21875 41.609375 39.140625 45 
Q 35.0625 48.390625 27.6875 48.390625 
Q 23 48.390625 18.546875 47.265625 
Q 14.109375 46.140625 10.015625 43.890625 
L 10.015625 52.203125 
Q 14.9375 54.109375 19.578125 55.046875 
Q 24.21875 56 28.609375 56 
Q 40.484375 56 46.34375 49.84375 
Q 52.203125 43.703125 52.203125 31.203125 
z
" id="DejaVuSans-61"/>
       <path d="M 8.5 21.578125 
L 8.5 54.6875 
L 17.484375 54.6875 
L 17.484375 21.921875 
Q 17.484375 14.15625 20.5 10.265625 
Q 23.53125 6.390625 29.59375 6.390625 
Q 36.859375 6.390625 41.078125 11.03125 
Q 45.3125 15.671875 45.3125 23.6875 
L 45.3125 54.6875 
L 54.296875 54.6875 
L 54.296875 0 
L 45.3125 0 
L 45.3125 8.40625 
Q 42.046875 3.421875 37.71875 1 
Q 33.40625 -1.421875 27.6875 -1.421875 
Q 18.265625 -1.421875 13.375 4.4375 
Q 8.5 10.296875 8.5 21.578125 
z
M 31.109375 56 
z
" id="DejaVuSans-75"/>
       <path d="M 9.421875 75.984375 
L 18.40625 75.984375 
L 18.40625 0 
L 9.421875 0 
z
" id="DejaVuSans-6c"/>
       <path d="M 18.3125 70.21875 
L 18.3125 54.6875 
L 36.8125 54.6875 
L 36.8125 47.703125 
L 18.3125 47.703125 
L 18.3125 18.015625 
Q 18.3125 11.328125 20.140625 9.421875 
Q 21.96875 7.515625 27.59375 7.515625 
L 36.8125 7.515625 
L 36.8125 0 
L 27.59375 0 
Q 17.1875 0 13.234375 3.875 
Q 9.28125 7.765625 9.28125 18.015625 
L 9.28125 47.703125 
L 2.6875 47.703125 
L 2.6875 54.6875 
L 9.28125 54.6875 
L 9.28125 70.21875 
z
" id="DejaVuSans-74"/>
      </defs>
      <g transform="translate(109.045312 207.007526)scale(0.1 -0.1)">
       <use xlink:href="#DejaVuSans-73"/>
       <use x="52.099609" xlink:href="#DejaVuSans-63"/>
       <use x="107.080078" xlink:href="#DejaVuSans-68"/>
       <use x="170.458984" xlink:href="#DejaVuSans-72"/>
       <use x="211.541016" xlink:href="#DejaVuSans-65"/>
       <use x="273.064453" xlink:href="#DejaVuSans-69"/>
       <use x="300.847656" xlink:href="#DejaVuSans-62"/>
       <use x="364.324219" xlink:href="#DejaVuSans-65"/>
       <use x="425.847656" xlink:href="#DejaVuSans-72"/>
       <use x="466.960938" xlink:href="#DejaVuSans-32"/>
       <use x="530.583984" xlink:href="#DejaVuSans-30"/>
       <use x="594.207031" xlink:href="#DejaVuSans-31"/>
       <use x="657.830078" xlink:href="#DejaVuSans-34"/>
       <use x="721.453125" xlink:href="#DejaVuSans-2f"/>
       <use x="755.144531" xlink:href="#DejaVuSans-64"/>
       <use x="818.621094" xlink:href="#DejaVuSans-65"/>
       <use x="880.144531" xlink:href="#DejaVuSans-66"/>
       <use x="915.349609" xlink:href="#DejaVuSans-61"/>
       <use x="976.628906" xlink:href="#DejaVuSans-75"/>
       <use x="1040.007812" xlink:href="#DejaVuSans-6c"/>
       <use x="1067.791016" xlink:href="#DejaVuSans-74"/>
      </g>
     </g>
    </g>
    <g id="ytick_4">
     <g id="line2d_21">
      <path clip-path="url(#p075cb3bef1)" d="M 226.746875 151.891943 
L 617.346875 151.891943 
" style="fill:none;stroke:#b0b0b0;stroke-linecap:square;stroke-width:0.8;"/>
     </g>
     <g id="line2d_22">
      <g>
       <use style="stroke:#000000;stroke-width:0.8;" x="226.746875" xlink:href="#mef9f68a2a9" y="151.891943"/>
      </g>
     </g>
     <g id="text_12">
      <!-- percival2014/stem -->
      <defs>
       <path d="M 18.109375 8.203125 
L 18.109375 -20.796875 
L 9.078125 -20.796875 
L 9.078125 54.6875 
L 18.109375 54.6875 
L 18.109375 46.390625 
Q 20.953125 51.265625 25.265625 53.625 
Q 29.59375 56 35.59375 56 
Q 45.5625 56 51.78125 48.09375 
Q 58.015625 40.1875 58.015625 27.296875 
Q 58.015625 14.40625 51.78125 6.484375 
Q 45.5625 -1.421875 35.59375 -1.421875 
Q 29.59375 -1.421875 25.265625 0.953125 
Q 20.953125 3.328125 18.109375 8.203125 
z
M 48.6875 27.296875 
Q 48.6875 37.203125 44.609375 42.84375 
Q 40.53125 48.484375 33.40625 48.484375 
Q 26.265625 48.484375 22.1875 42.84375 
Q 18.109375 37.203125 18.109375 27.296875 
Q 18.109375 17.390625 22.1875 11.75 
Q 26.265625 6.109375 33.40625 6.109375 
Q 40.53125 6.109375 44.609375 11.75 
Q 48.6875 17.390625 48.6875 27.296875 
z
" id="DejaVuSans-70"/>
       <path d="M 2.984375 54.6875 
L 12.5 54.6875 
L 29.59375 8.796875 
L 46.6875 54.6875 
L 56.203125 54.6875 
L 35.6875 0 
L 23.484375 0 
z
" id="DejaVuSans-76"/>
      </defs>
      <g transform="translate(126.19375 155.691162)scale(0.1 -0.1)">
       <use xlink:href="#DejaVuSans-70"/>
       <use x="63.476562" xlink:href="#DejaVuSans-65"/>
       <use x="125" xlink:href="#DejaVuSans-72"/>
       <use x="166.082031" xlink:href="#DejaVuSans-63"/>
       <use x="221.0625" xlink:href="#DejaVuSans-69"/>
       <use x="248.845703" xlink:href="#DejaVuSans-76"/>
       <use x="308.025391" xlink:href="#DejaVuSans-61"/>
       <use x="369.304688" xlink:href="#DejaVuSans-6c"/>
       <use x="397.087891" xlink:href="#DejaVuSans-32"/>
       <use x="460.710938" xlink:href="#DejaVuSans-30"/>
       <use x="524.333984" xlink:href="#DejaVuSans-31"/>
       <use x="587.957031" xlink:href="#DejaVuSans-34"/>
       <use x="651.580078" xlink:href="#DejaVuSans-2f"/>
       <use x="685.271484" xlink:href="#DejaVuSans-73"/>
       <use x="737.371094" xlink:href="#DejaVuSans-74"/>
       <use x="776.580078" xlink:href="#DejaVuSans-65"/>
       <use x="838.103516" xlink:href="#DejaVuSans-6d"/>
      </g>
     </g>
    </g>
    <g id="ytick_5">
     <g id="line2d_23">
      <path clip-path="url(#p075cb3bef1)" d="M 226.746875 100.57558 
L 617.346875 100.57558 
" style="fill:none;stroke:#b0b0b0;stroke-linecap:square;stroke-width:0.8;"/>
     </g>
     <g id="line2d_24">
      <g>
       <use style="stroke:#000000;stroke-width:0.8;" x="226.746875" xlink:href="#mef9f68a2a9" y="100.57558"/>
      </g>
     </g>
     <g id="text_13">
      <!-- davies2009/mirex_qm_tempotracker -->
      <defs>
       <path d="M 10.984375 1.515625 
L 10.984375 10.5 
Q 14.703125 8.734375 18.5 7.8125 
Q 22.3125 6.890625 25.984375 6.890625 
Q 35.75 6.890625 40.890625 13.453125 
Q 46.046875 20.015625 46.78125 33.40625 
Q 43.953125 29.203125 39.59375 26.953125 
Q 35.25 24.703125 29.984375 24.703125 
Q 19.046875 24.703125 12.671875 31.3125 
Q 6.296875 37.9375 6.296875 49.421875 
Q 6.296875 60.640625 12.9375 67.421875 
Q 19.578125 74.21875 30.609375 74.21875 
Q 43.265625 74.21875 49.921875 64.515625 
Q 56.59375 54.828125 56.59375 36.375 
Q 56.59375 19.140625 48.40625 8.859375 
Q 40.234375 -1.421875 26.421875 -1.421875 
Q 22.703125 -1.421875 18.890625 -0.6875 
Q 15.09375 0.046875 10.984375 1.515625 
z
M 30.609375 32.421875 
Q 37.25 32.421875 41.125 36.953125 
Q 45.015625 41.5 45.015625 49.421875 
Q 45.015625 57.28125 41.125 61.84375 
Q 37.25 66.40625 30.609375 66.40625 
Q 23.96875 66.40625 20.09375 61.84375 
Q 16.21875 57.28125 16.21875 49.421875 
Q 16.21875 41.5 20.09375 36.953125 
Q 23.96875 32.421875 30.609375 32.421875 
z
" id="DejaVuSans-39"/>
       <path d="M 50.984375 -16.609375 
L 50.984375 -23.578125 
L -0.984375 -23.578125 
L -0.984375 -16.609375 
z
" id="DejaVuSans-5f"/>
       <path d="M 14.796875 27.296875 
Q 14.796875 17.390625 18.875 11.75 
Q 22.953125 6.109375 30.078125 6.109375 
Q 37.203125 6.109375 41.296875 11.75 
Q 45.40625 17.390625 45.40625 27.296875 
Q 45.40625 37.203125 41.296875 42.84375 
Q 37.203125 48.484375 30.078125 48.484375 
Q 22.953125 48.484375 18.875 42.84375 
Q 14.796875 37.203125 14.796875 27.296875 
z
M 45.40625 8.203125 
Q 42.578125 3.328125 38.25 0.953125 
Q 33.9375 -1.421875 27.875 -1.421875 
Q 17.96875 -1.421875 11.734375 6.484375 
Q 5.515625 14.40625 5.515625 27.296875 
Q 5.515625 40.1875 11.734375 48.09375 
Q 17.96875 56 27.875 56 
Q 33.9375 56 38.25 53.625 
Q 42.578125 51.265625 45.40625 46.390625 
L 45.40625 54.6875 
L 54.390625 54.6875 
L 54.390625 -20.796875 
L 45.40625 -20.796875 
z
" id="DejaVuSans-71"/>
       <path d="M 30.609375 48.390625 
Q 23.390625 48.390625 19.1875 42.75 
Q 14.984375 37.109375 14.984375 27.296875 
Q 14.984375 17.484375 19.15625 11.84375 
Q 23.34375 6.203125 30.609375 6.203125 
Q 37.796875 6.203125 41.984375 11.859375 
Q 46.1875 17.53125 46.1875 27.296875 
Q 46.1875 37.015625 41.984375 42.703125 
Q 37.796875 48.390625 30.609375 48.390625 
z
M 30.609375 56 
Q 42.328125 56 49.015625 48.375 
Q 55.71875 40.765625 55.71875 27.296875 
Q 55.71875 13.875 49.015625 6.21875 
Q 42.328125 -1.421875 30.609375 -1.421875 
Q 18.84375 -1.421875 12.171875 6.21875 
Q 5.515625 13.875 5.515625 27.296875 
Q 5.515625 40.765625 12.171875 48.375 
Q 18.84375 56 30.609375 56 
z
" id="DejaVuSans-6f"/>
       <path d="M 9.078125 75.984375 
L 18.109375 75.984375 
L 18.109375 31.109375 
L 44.921875 54.6875 
L 56.390625 54.6875 
L 27.390625 29.109375 
L 57.625 0 
L 45.90625 0 
L 18.109375 26.703125 
L 18.109375 0 
L 9.078125 0 
z
" id="DejaVuSans-6b"/>
      </defs>
      <g transform="translate(35.617187 104.374798)scale(0.1 -0.1)">
       <use xlink:href="#DejaVuSans-64"/>
       <use x="63.476562" xlink:href="#DejaVuSans-61"/>
       <use x="124.755859" xlink:href="#DejaVuSans-76"/>
       <use x="183.935547" xlink:href="#DejaVuSans-69"/>
       <use x="211.71875" xlink:href="#DejaVuSans-65"/>
       <use x="273.242188" xlink:href="#DejaVuSans-73"/>
       <use x="325.341797" xlink:href="#DejaVuSans-32"/>
       <use x="388.964844" xlink:href="#DejaVuSans-30"/>
       <use x="452.587891" xlink:href="#DejaVuSans-30"/>
       <use x="516.210938" xlink:href="#DejaVuSans-39"/>
       <use x="579.833984" xlink:href="#DejaVuSans-2f"/>
       <use x="613.525391" xlink:href="#DejaVuSans-6d"/>
       <use x="710.9375" xlink:href="#DejaVuSans-69"/>
       <use x="738.720703" xlink:href="#DejaVuSans-72"/>
       <use x="779.802734" xlink:href="#DejaVuSans-65"/>
       <use x="841.310547" xlink:href="#DejaVuSans-78"/>
       <use x="900.490234" xlink:href="#DejaVuSans-5f"/>
       <use x="950.490234" xlink:href="#DejaVuSans-71"/>
       <use x="1013.966797" xlink:href="#DejaVuSans-6d"/>
       <use x="1111.378906" xlink:href="#DejaVuSans-5f"/>
       <use x="1161.378906" xlink:href="#DejaVuSans-74"/>
       <use x="1200.587891" xlink:href="#DejaVuSans-65"/>
       <use x="1262.111328" xlink:href="#DejaVuSans-6d"/>
       <use x="1359.523438" xlink:href="#DejaVuSans-70"/>
       <use x="1423" xlink:href="#DejaVuSans-6f"/>
       <use x="1484.181641" xlink:href="#DejaVuSans-74"/>
       <use x="1523.390625" xlink:href="#DejaVuSans-72"/>
       <use x="1564.503906" xlink:href="#DejaVuSans-61"/>
       <use x="1625.783203" xlink:href="#DejaVuSans-63"/>
       <use x="1680.763672" xlink:href="#DejaVuSans-6b"/>
       <use x="1738.626953" xlink:href="#DejaVuSans-65"/>
       <use x="1800.150391" xlink:href="#DejaVuSans-72"/>
      </g>
     </g>
    </g>
    <g id="ytick_6">
     <g id="line2d_25">
      <path clip-path="url(#p075cb3bef1)" d="M 226.746875 49.259216 
L 617.346875 49.259216 
" style="fill:none;stroke:#b0b0b0;stroke-linecap:square;stroke-width:0.8;"/>
     </g>
     <g id="line2d_26">
      <g>
       <use style="stroke:#000000;stroke-width:0.8;" x="226.746875" xlink:href="#mef9f68a2a9" y="49.259216"/>
      </g>
     </g>
     <g id="text_14">
      <!-- boeck2015/tempodetector2016_default -->
      <defs>
       <path d="M 33.015625 40.375 
Q 26.375 40.375 22.484375 35.828125 
Q 18.609375 31.296875 18.609375 23.390625 
Q 18.609375 15.53125 22.484375 10.953125 
Q 26.375 6.390625 33.015625 6.390625 
Q 39.65625 6.390625 43.53125 10.953125 
Q 47.40625 15.53125 47.40625 23.390625 
Q 47.40625 31.296875 43.53125 35.828125 
Q 39.65625 40.375 33.015625 40.375 
z
M 52.59375 71.296875 
L 52.59375 62.3125 
Q 48.875 64.0625 45.09375 64.984375 
Q 41.3125 65.921875 37.59375 65.921875 
Q 27.828125 65.921875 22.671875 59.328125 
Q 17.53125 52.734375 16.796875 39.40625 
Q 19.671875 43.65625 24.015625 45.921875 
Q 28.375 48.1875 33.59375 48.1875 
Q 44.578125 48.1875 50.953125 41.515625 
Q 57.328125 34.859375 57.328125 23.390625 
Q 57.328125 12.15625 50.6875 5.359375 
Q 44.046875 -1.421875 33.015625 -1.421875 
Q 20.359375 -1.421875 13.671875 8.265625 
Q 6.984375 17.96875 6.984375 36.375 
Q 6.984375 53.65625 15.1875 63.9375 
Q 23.390625 74.21875 37.203125 74.21875 
Q 40.921875 74.21875 44.703125 73.484375 
Q 48.484375 72.75 52.59375 71.296875 
z
" id="DejaVuSans-36"/>
      </defs>
      <g transform="translate(20.878125 53.058435)scale(0.1 -0.1)">
       <use xlink:href="#DejaVuSans-62"/>
       <use x="63.476562" xlink:href="#DejaVuSans-6f"/>
       <use x="124.658203" xlink:href="#DejaVuSans-65"/>
       <use x="186.181641" xlink:href="#DejaVuSans-63"/>
       <use x="241.162109" xlink:href="#DejaVuSans-6b"/>
       <use x="299.072266" xlink:href="#DejaVuSans-32"/>
       <use x="362.695312" xlink:href="#DejaVuSans-30"/>
       <use x="426.318359" xlink:href="#DejaVuSans-31"/>
       <use x="489.941406" xlink:href="#DejaVuSans-35"/>
       <use x="553.564453" xlink:href="#DejaVuSans-2f"/>
       <use x="587.255859" xlink:href="#DejaVuSans-74"/>
       <use x="626.464844" xlink:href="#DejaVuSans-65"/>
       <use x="687.988281" xlink:href="#DejaVuSans-6d"/>
       <use x="785.400391" xlink:href="#DejaVuSans-70"/>
       <use x="848.876953" xlink:href="#DejaVuSans-6f"/>
       <use x="910.058594" xlink:href="#DejaVuSans-64"/>
       <use x="973.535156" xlink:href="#DejaVuSans-65"/>
       <use x="1035.058594" xlink:href="#DejaVuSans-74"/>
       <use x="1074.267578" xlink:href="#DejaVuSans-65"/>
       <use x="1135.791016" xlink:href="#DejaVuSans-63"/>
       <use x="1190.771484" xlink:href="#DejaVuSans-74"/>
       <use x="1229.980469" xlink:href="#DejaVuSans-6f"/>
       <use x="1291.162109" xlink:href="#DejaVuSans-72"/>
       <use x="1332.275391" xlink:href="#DejaVuSans-32"/>
       <use x="1395.898438" xlink:href="#DejaVuSans-30"/>
       <use x="1459.521484" xlink:href="#DejaVuSans-31"/>
       <use x="1523.144531" xlink:href="#DejaVuSans-36"/>
       <use x="1586.767578" xlink:href="#DejaVuSans-5f"/>
       <use x="1636.767578" xlink:href="#DejaVuSans-64"/>
       <use x="1700.244141" xlink:href="#DejaVuSans-65"/>
       <use x="1761.767578" xlink:href="#DejaVuSans-66"/>
       <use x="1796.972656" xlink:href="#DejaVuSans-61"/>
       <use x="1858.251953" xlink:href="#DejaVuSans-75"/>
       <use x="1921.630859" xlink:href="#DejaVuSans-6c"/>
       <use x="1949.414062" xlink:href="#DejaVuSans-74"/>
      </g>
     </g>
    </g>
    <g id="text_15">
     <!-- Estimator -->
     <g transform="translate(14.798437 201.672781)rotate(-90)scale(0.1 -0.1)">
      <use xlink:href="#DejaVuSans-45"/>
      <use x="63.183594" xlink:href="#DejaVuSans-73"/>
      <use x="115.283203" xlink:href="#DejaVuSans-74"/>
      <use x="154.492188" xlink:href="#DejaVuSans-69"/>
      <use x="182.275391" xlink:href="#DejaVuSans-6d"/>
      <use x="279.6875" xlink:href="#DejaVuSans-61"/>
      <use x="340.966797" xlink:href="#DejaVuSans-74"/>
      <use x="380.175781" xlink:href="#DejaVuSans-6f"/>
      <use x="441.357422" xlink:href="#DejaVuSans-72"/>
     </g>
    </g>
   </g>
   <g id="PolyCollection_1">
    <path clip-path="url(#p075cb3bef1)" d="M 227.005405 293.415955 
L 227.005405 318.266113 
L 230.417612 318.478218 
L 233.829819 318.612952 
L 237.242026 318.670125 
L 240.654233 318.651438 
L 244.06644 318.560434 
L 247.478647 318.402381 
L 250.890854 318.184097 
L 254.303061 317.913727 
L 257.715268 317.600472 
L 261.127475 317.25429 
L 264.539682 316.885588 
L 267.951889 316.504899 
L 271.364096 316.122571 
L 274.776303 315.74848 
L 278.18851 315.391758 
L 281.600717 315.06057 
L 285.012924 314.761916 
L 288.425131 314.501484 
L 291.837338 314.283545 
L 295.249545 314.110893 
L 298.661752 313.984819 
L 302.073959 313.905137 
L 305.486166 313.870234 
L 308.898373 313.877169 
L 312.31058 313.921786 
L 315.722787 313.998866 
L 319.134994 314.102297 
L 322.547201 314.225264 
L 325.959408 314.360458 
L 329.371615 314.500285 
L 332.783822 314.637096 
L 336.196029 314.763404 
L 339.608236 314.8721 
L 343.020443 314.956659 
L 346.43265 315.011321 
L 349.844857 315.031257 
L 353.257064 315.012689 
L 356.669271 314.952996 
L 360.081478 314.850758 
L 363.493685 314.705778 
L 366.905892 314.519051 
L 370.318099 314.292701 
L 373.730306 314.029874 
L 377.142513 313.734603 
L 380.55472 313.411649 
L 383.966927 313.06632 
L 387.379134 312.704281 
L 390.791341 312.331366 
L 394.203548 311.953383 
L 397.615756 311.575949 
L 401.027963 311.20433 
L 404.44017 310.84331 
L 407.852377 310.497089 
L 411.264584 310.169206 
L 414.676791 309.862491 
L 418.088998 309.579049 
L 421.501205 309.320267 
L 424.913412 309.086845 
L 428.325619 308.878843 
L 431.737826 308.695745 
L 435.150033 308.536536 
L 438.56224 308.399782 
L 441.974447 308.283715 
L 445.386654 308.186318 
L 448.798861 308.105407 
L 452.211068 308.038706 
L 455.623275 307.983924 
L 459.035482 307.938814 
L 462.447689 307.901229 
L 465.859896 307.869175 
L 469.272103 307.840843 
L 472.68431 307.814646 
L 476.096517 307.789233 
L 479.508724 307.763508 
L 482.920931 307.73663 
L 486.333138 307.708009 
L 489.745345 307.677293 
L 493.157552 307.644353 
L 496.569759 307.609248 
L 499.981966 307.572201 
L 503.394173 307.533556 
L 506.80638 307.493747 
L 510.218587 307.453252 
L 513.630794 307.412556 
L 517.043001 307.372116 
L 520.455208 307.332329 
L 523.867415 307.293507 
L 527.279622 307.255854 
L 530.691829 307.219459 
L 534.104036 307.184293 
L 537.516243 307.150211 
L 540.92845 307.116965 
L 544.340657 307.084225 
L 547.752864 307.051599 
L 551.165071 307.018663 
L 554.577278 306.984987 
L 557.989485 306.950164 
L 561.401692 306.913835 
L 564.813899 306.875714 
L 564.813899 304.806354 
L 564.813899 304.806354 
L 561.401692 304.768233 
L 557.989485 304.731904 
L 554.577278 304.697081 
L 551.165071 304.663405 
L 547.752864 304.630469 
L 544.340657 304.597843 
L 540.92845 304.565103 
L 537.516243 304.531857 
L 534.104036 304.497775 
L 530.691829 304.462609 
L 527.279622 304.426214 
L 523.867415 304.388561 
L 520.455208 304.349739 
L 517.043001 304.309952 
L 513.630794 304.269512 
L 510.218587 304.228816 
L 506.80638 304.188321 
L 503.394173 304.148512 
L 499.981966 304.109868 
L 496.569759 304.07282 
L 493.157552 304.037715 
L 489.745345 304.004775 
L 486.333138 303.97406 
L 482.920931 303.945438 
L 479.508724 303.91856 
L 476.096517 303.892835 
L 472.68431 303.867422 
L 469.272103 303.841225 
L 465.859896 303.812893 
L 462.447689 303.780839 
L 459.035482 303.743255 
L 455.623275 303.698144 
L 452.211068 303.643362 
L 448.798861 303.576661 
L 445.386654 303.49575 
L 441.974447 303.398353 
L 438.56224 303.282286 
L 435.150033 303.145533 
L 431.737826 302.986324 
L 428.325619 302.803225 
L 424.913412 302.595223 
L 421.501205 302.361801 
L 418.088998 302.103019 
L 414.676791 301.819578 
L 411.264584 301.512862 
L 407.852377 301.184979 
L 404.44017 300.838758 
L 401.027963 300.477739 
L 397.615756 300.106119 
L 394.203548 299.728685 
L 390.791341 299.350703 
L 387.379134 298.977787 
L 383.966927 298.615749 
L 380.55472 298.270419 
L 377.142513 297.947465 
L 373.730306 297.652194 
L 370.318099 297.389367 
L 366.905892 297.163017 
L 363.493685 296.976291 
L 360.081478 296.83131 
L 356.669271 296.729072 
L 353.257064 296.669379 
L 349.844857 296.650812 
L 346.43265 296.670747 
L 343.020443 296.72541 
L 339.608236 296.809968 
L 336.196029 296.918664 
L 332.783822 297.044972 
L 329.371615 297.181783 
L 325.959408 297.32161 
L 322.547201 297.456804 
L 319.134994 297.579771 
L 315.722787 297.683202 
L 312.31058 297.760282 
L 308.898373 297.804899 
L 305.486166 297.811834 
L 302.073959 297.776932 
L 298.661752 297.697249 
L 295.249545 297.571175 
L 291.837338 297.398523 
L 288.425131 297.180585 
L 285.012924 296.920153 
L 281.600717 296.621498 
L 278.18851 296.29031 
L 274.776303 295.933589 
L 271.364096 295.559497 
L 267.951889 295.177169 
L 264.539682 294.79648 
L 261.127475 294.427778 
L 257.715268 294.081596 
L 254.303061 293.768341 
L 250.890854 293.497971 
L 247.478647 293.279687 
L 244.06644 293.121634 
L 240.654233 293.03063 
L 237.242026 293.011943 
L 233.829819 293.069116 
L 230.417612 293.20385 
L 227.005405 293.415955 
z
" style="fill:#ff0000;fill-opacity:0.75;"/>
   </g>
   <g id="PolyCollection_2">
    <path clip-path="url(#p075cb3bef1)" d="M 227.005405 242.081941 
L 227.005405 266.9674 
L 230.417612 267.173483 
L 233.829819 267.302318 
L 237.242026 267.353761 
L 240.654233 267.329555 
L 244.06644 267.233283 
L 247.478647 267.070268 
L 250.890854 266.84741 
L 254.303061 266.57297 
L 257.715268 266.256315 
L 261.127475 265.907632 
L 264.539682 265.537622 
L 267.951889 265.157187 
L 271.364096 264.77712 
L 274.776303 264.407806 
L 278.18851 264.058952 
L 281.600717 263.739334 
L 285.012924 263.45659 
L 288.425131 263.217046 
L 291.837338 263.025581 
L 295.249545 262.885533 
L 298.661752 262.798651 
L 302.073959 262.765083 
L 305.486166 262.783408 
L 308.898373 262.850697 
L 312.31058 262.962624 
L 315.722787 263.113595 
L 319.134994 263.296919 
L 322.547201 263.505004 
L 325.959408 263.729571 
L 329.371615 263.961893 
L 332.783822 264.193041 
L 336.196029 264.414141 
L 339.608236 264.61663 
L 343.020443 264.792496 
L 346.43265 264.934505 
L 349.844857 265.03641 
L 353.257064 265.093114 
L 356.669271 265.100802 
L 360.081478 265.057034 
L 363.493685 264.960774 
L 366.905892 264.812391 
L 370.318099 264.613601 
L 373.730306 264.367362 
L 377.142513 264.077743 
L 380.55472 263.749743 
L 383.966927 263.389104 
L 387.379134 263.002096 
L 390.791341 262.595297 
L 394.203548 262.175383 
L 397.615756 261.748927 
L 401.027963 261.322207 
L 404.44017 260.901057 
L 407.852377 260.490728 
L 411.264584 260.095795 
L 414.676791 259.720084 
L 418.088998 259.366642 
L 421.501205 259.037725 
L 424.913412 258.734822 
L 428.325619 258.458693 
L 431.737826 258.20943 
L 435.150033 257.986529 
L 438.56224 257.788973 
L 441.974447 257.61532 
L 445.386654 257.463787 
L 448.798861 257.332346 
L 452.211068 257.218799 
L 455.623275 257.120865 
L 459.035482 257.036249 
L 462.447689 256.962706 
L 465.859896 256.898098 
L 469.272103 256.840442 
L 472.68431 256.787949 
L 476.096517 256.739051 
L 479.508724 256.692424 
L 482.920931 256.646997 
L 486.333138 256.601949 
L 489.745345 256.556709 
L 493.157552 256.510934 
L 496.569759 256.464488 
L 499.981966 256.417409 
L 503.394173 256.36988 
L 506.80638 256.322182 
L 510.218587 256.274662 
L 513.630794 256.227687 
L 517.043001 256.181612 
L 520.455208 256.136741 
L 523.867415 256.093305 
L 527.279622 256.051437 
L 530.691829 256.011163 
L 534.104036 255.972393 
L 537.516243 255.93493 
L 540.92845 255.898477 
L 544.340657 255.862657 
L 547.752864 255.827039 
L 551.165071 255.791159 
L 554.577278 255.754554 
L 557.989485 255.716786 
L 561.401692 255.677471 
L 564.813899 255.636304 
L 564.813899 253.413037 
L 564.813899 253.413037 
L 561.401692 253.37187 
L 557.989485 253.332555 
L 554.577278 253.294787 
L 551.165071 253.258181 
L 547.752864 253.222302 
L 544.340657 253.186684 
L 540.92845 253.150864 
L 537.516243 253.114411 
L 534.104036 253.076948 
L 530.691829 253.038178 
L 527.279622 252.997904 
L 523.867415 252.956036 
L 520.455208 252.9126 
L 517.043001 252.867729 
L 513.630794 252.821654 
L 510.218587 252.774679 
L 506.80638 252.727159 
L 503.394173 252.679461 
L 499.981966 252.631932 
L 496.569759 252.584853 
L 493.157552 252.538407 
L 489.745345 252.492632 
L 486.333138 252.447392 
L 482.920931 252.402344 
L 479.508724 252.356916 
L 476.096517 252.31029 
L 472.68431 252.261392 
L 469.272103 252.208899 
L 465.859896 252.151243 
L 462.447689 252.086635 
L 459.035482 252.013092 
L 455.623275 251.928476 
L 452.211068 251.830542 
L 448.798861 251.716995 
L 445.386654 251.585554 
L 441.974447 251.434021 
L 438.56224 251.260367 
L 435.150033 251.062812 
L 431.737826 250.839911 
L 428.325619 250.590648 
L 424.913412 250.314519 
L 421.501205 250.011616 
L 418.088998 249.682699 
L 414.676791 249.329257 
L 411.264584 248.953546 
L 407.852377 248.558612 
L 404.44017 248.148284 
L 401.027963 247.727134 
L 397.615756 247.300414 
L 394.203548 246.873958 
L 390.791341 246.454044 
L 387.379134 246.047245 
L 383.966927 245.660237 
L 380.55472 245.299598 
L 377.142513 244.971598 
L 373.730306 244.681979 
L 370.318099 244.43574 
L 366.905892 244.23695 
L 363.493685 244.088567 
L 360.081478 243.992307 
L 356.669271 243.948538 
L 353.257064 243.956227 
L 349.844857 244.012931 
L 346.43265 244.114836 
L 343.020443 244.256845 
L 339.608236 244.43271 
L 336.196029 244.6352 
L 332.783822 244.8563 
L 329.371615 245.087448 
L 325.959408 245.31977 
L 322.547201 245.544337 
L 319.134994 245.752422 
L 315.722787 245.935746 
L 312.31058 246.086717 
L 308.898373 246.198643 
L 305.486166 246.265933 
L 302.073959 246.284257 
L 298.661752 246.25069 
L 295.249545 246.163808 
L 291.837338 246.02376 
L 288.425131 245.832294 
L 285.012924 245.592751 
L 281.600717 245.310007 
L 278.18851 244.990389 
L 274.776303 244.641534 
L 271.364096 244.272221 
L 267.951889 243.892154 
L 264.539682 243.511719 
L 261.127475 243.141709 
L 257.715268 242.793026 
L 254.303061 242.476371 
L 250.890854 242.201931 
L 247.478647 241.979073 
L 244.06644 241.816058 
L 240.654233 241.719786 
L 237.242026 241.69558 
L 233.829819 241.747023 
L 230.417612 241.875858 
L 227.005405 242.081941 
z
" style="fill:#ff0000;fill-opacity:0.75;"/>
   </g>
   <g id="PolyCollection_3">
    <path clip-path="url(#p075cb3bef1)" d="M 227.16864 191.091211 
L 227.16864 215.325402 
L 230.015385 215.620491 
L 232.862131 215.838961 
L 235.708876 215.978194 
L 238.555621 216.037398 
L 241.402367 216.017626 
L 244.249112 215.921741 
L 247.095857 215.754304 
L 249.942603 215.52142 
L 252.789348 215.230521 
L 255.636093 214.890127 
L 258.482839 214.509569 
L 261.329584 214.098714 
L 264.176329 213.667672 
L 267.023075 213.226535 
L 269.86982 212.785124 
L 272.716566 212.352764 
L 275.563311 211.938102 
L 278.410056 211.548949 
L 281.256802 211.192169 
L 284.103547 210.873595 
L 286.950292 210.597979 
L 289.797038 210.368968 
L 292.643783 210.189104 
L 295.490528 210.059836 
L 298.337274 209.981553 
L 301.184019 209.953621 
L 304.030764 209.974424 
L 306.87751 210.041417 
L 309.724255 210.151181 
L 312.571001 210.299482 
L 315.417746 210.481347 
L 318.264491 210.691134 
L 321.111237 210.922631 
L 323.957982 211.169157 
L 326.804727 211.423683 
L 329.651473 211.678963 
L 332.498218 211.927685 
L 335.344963 212.16263 
L 338.191709 212.376831 
L 341.038454 212.56375 
L 343.885199 212.717434 
L 346.731945 212.832673 
L 349.57869 212.905135 
L 352.425436 212.931482 
L 355.272181 212.909452 
L 358.118926 212.837917 
L 360.965672 212.716892 
L 363.812417 212.547519 
L 366.659162 212.332011 
L 369.505908 212.073556 
L 372.352653 211.776199 
L 375.199398 211.444695 
L 378.046144 211.084347 
L 380.892889 210.700831 
L 383.739635 210.30002 
L 386.58638 209.887814 
L 389.433125 209.46998 
L 392.279871 209.052005 
L 395.126616 208.638981 
L 397.973361 208.235505 
L 400.820107 207.845608 
L 403.666852 207.472717 
L 406.513597 207.119627 
L 409.360343 206.788515 
L 412.207088 206.480955 
L 415.053833 206.197964 
L 417.900579 205.940046 
L 420.747324 205.707253 
L 423.59407 205.499246 
L 426.440815 205.315353 
L 429.28756 205.15463 
L 432.134306 205.015915 
L 434.981051 204.897872 
L 437.827796 204.799036 
L 440.674542 204.717845 
L 443.521287 204.652669 
L 446.368032 204.601834 
L 449.214778 204.563642 
L 452.061523 204.536387 
L 454.908268 204.51837 
L 457.755014 204.507918 
L 460.601759 204.503391 
L 463.448505 204.503206 
L 466.29525 204.505848 
L 469.141995 204.509889 
L 471.988741 204.514004 
L 474.835486 204.516988 
L 477.682231 204.517768 
L 480.528977 204.515422 
L 483.375722 204.509184 
L 486.222467 204.498455 
L 489.069213 204.482802 
L 491.915958 204.461963 
L 494.762703 204.435837 
L 497.609449 204.40448 
L 500.456194 204.36809 
L 503.30294 204.326992 
L 506.149685 204.281622 
L 508.99643 204.232506 
L 508.99643 202.184107 
L 508.99643 202.184107 
L 506.149685 202.134992 
L 503.30294 202.089622 
L 500.456194 202.048524 
L 497.609449 202.012133 
L 494.762703 201.980776 
L 491.915958 201.954651 
L 489.069213 201.933812 
L 486.222467 201.918159 
L 483.375722 201.90743 
L 480.528977 201.901192 
L 477.682231 201.898846 
L 474.835486 201.899626 
L 471.988741 201.902609 
L 469.141995 201.906724 
L 466.29525 201.910765 
L 463.448505 201.913408 
L 460.601759 201.913223 
L 457.755014 201.908696 
L 454.908268 201.898243 
L 452.061523 201.880227 
L 449.214778 201.852972 
L 446.368032 201.81478 
L 443.521287 201.763945 
L 440.674542 201.698769 
L 437.827796 201.617578 
L 434.981051 201.518742 
L 432.134306 201.400699 
L 429.28756 201.261984 
L 426.440815 201.101261 
L 423.59407 200.917368 
L 420.747324 200.70936 
L 417.900579 200.476567 
L 415.053833 200.218649 
L 412.207088 199.935658 
L 409.360343 199.628099 
L 406.513597 199.296987 
L 403.666852 198.943897 
L 400.820107 198.571005 
L 397.973361 198.181109 
L 395.126616 197.777633 
L 392.279871 197.364609 
L 389.433125 196.946634 
L 386.58638 196.528799 
L 383.739635 196.116594 
L 380.892889 195.715783 
L 378.046144 195.332267 
L 375.199398 194.971918 
L 372.352653 194.640414 
L 369.505908 194.343057 
L 366.659162 194.084602 
L 363.812417 193.869094 
L 360.965672 193.699722 
L 358.118926 193.578697 
L 355.272181 193.507161 
L 352.425436 193.485132 
L 349.57869 193.511479 
L 346.731945 193.583941 
L 343.885199 193.69918 
L 341.038454 193.852864 
L 338.191709 194.039782 
L 335.344963 194.253984 
L 332.498218 194.488928 
L 329.651473 194.737651 
L 326.804727 194.992931 
L 323.957982 195.247456 
L 321.111237 195.493982 
L 318.264491 195.72548 
L 315.417746 195.935267 
L 312.571001 196.117131 
L 309.724255 196.265433 
L 306.87751 196.375196 
L 304.030764 196.442189 
L 301.184019 196.462992 
L 298.337274 196.43506 
L 295.490528 196.356778 
L 292.643783 196.22751 
L 289.797038 196.047645 
L 286.950292 195.818634 
L 284.103547 195.543018 
L 281.256802 195.224445 
L 278.410056 194.867665 
L 275.563311 194.478512 
L 272.716566 194.063849 
L 269.86982 193.63149 
L 267.023075 193.190078 
L 264.176329 192.748942 
L 261.329584 192.3179 
L 258.482839 191.907044 
L 255.636093 191.526487 
L 252.789348 191.186093 
L 249.942603 190.895194 
L 247.095857 190.662309 
L 244.249112 190.494873 
L 241.402367 190.398987 
L 238.555621 190.379216 
L 235.708876 190.43842 
L 232.862131 190.577653 
L 230.015385 190.796123 
L 227.16864 191.091211 
z
" style="fill:#ff0000;fill-opacity:0.75;"/>
   </g>
   <g id="PolyCollection_4">
    <path clip-path="url(#p075cb3bef1)" d="M 226.935267 143.735866 
L 226.935267 160.048021 
L 229.567557 160.186271 
L 232.199846 160.275733 
L 234.832136 160.316319 
L 237.464425 160.309078 
L 240.096715 160.256156 
L 242.729004 160.160728 
L 245.361294 160.026877 
L 247.993583 159.859467 
L 250.625873 159.663978 
L 253.258162 159.446338 
L 255.890452 159.212749 
L 258.522741 158.969517 
L 261.155031 158.722893 
L 263.78732 158.478936 
L 266.41961 158.243389 
L 269.051899 158.021596 
L 271.684189 157.818429 
L 274.316478 157.638255 
L 276.948768 157.48492 
L 279.581057 157.361753 
L 282.213346 157.271584 
L 284.845636 157.216779 
L 287.477925 157.199267 
L 290.110215 157.220572 
L 292.742504 157.281833 
L 295.374794 157.383813 
L 298.007083 157.526897 
L 300.639373 157.711063 
L 303.271662 157.935845 
L 305.903952 158.200283 
L 308.536241 158.502855 
L 311.168531 158.841408 
L 313.80082 159.213092 
L 316.43311 159.6143 
L 319.065399 160.040623 
L 321.697689 160.486832 
L 324.329978 160.946885 
L 326.962268 161.413972 
L 329.594557 161.880596 
L 332.226847 162.338697 
L 334.859136 162.779811 
L 337.491426 163.195263 
L 340.123715 163.576392 
L 342.756005 163.914794 
L 345.388294 164.202574 
L 348.020583 164.432597 
L 350.652873 164.598729 
L 353.285162 164.696051 
L 355.917452 164.721034 
L 358.549741 164.671677 
L 361.182031 164.547584 
L 363.81432 164.349988 
L 366.44661 164.081723 
L 369.078899 163.747125 
L 371.711189 163.351895 
L 374.343478 162.902909 
L 376.975768 162.407989 
L 379.608057 161.875656 
L 382.240347 161.314865 
L 384.872636 160.73473 
L 387.504926 160.144272 
L 390.137215 159.552174 
L 392.769505 158.966569 
L 395.401794 158.394859 
L 398.034084 157.843578 
L 400.666373 157.318289 
L 403.298663 156.823525 
L 405.930952 156.362775 
L 408.563241 155.938495 
L 411.195531 155.552157 
L 413.82782 155.204324 
L 416.46011 154.894741 
L 419.092399 154.622441 
L 421.724689 154.385861 
L 424.356978 154.18295 
L 426.989268 154.01129 
L 429.621557 153.868198 
L 432.253847 153.750822 
L 434.886136 153.656231 
L 437.518426 153.581486 
L 440.150715 153.523702 
L 442.783005 153.480097 
L 445.415294 153.448031 
L 448.047584 153.425036 
L 450.679873 153.408833 
L 453.312163 153.397343 
L 455.944452 153.388698 
L 458.576742 153.38124 
L 461.209031 153.373523 
L 463.841321 153.364306 
L 466.47361 153.35255 
L 469.1059 153.337414 
L 471.738189 153.318245 
L 474.370478 153.29457 
L 477.002768 153.266092 
L 479.635057 153.232675 
L 482.267347 153.194338 
L 484.899636 153.151238 
L 487.531926 153.10366 
L 487.531926 150.680226 
L 487.531926 150.680226 
L 484.899636 150.632649 
L 482.267347 150.589548 
L 479.635057 150.551211 
L 477.002768 150.517794 
L 474.370478 150.489316 
L 471.738189 150.465641 
L 469.1059 150.446472 
L 466.47361 150.431336 
L 463.841321 150.41958 
L 461.209031 150.410363 
L 458.576742 150.402646 
L 455.944452 150.395189 
L 453.312163 150.386544 
L 450.679873 150.375054 
L 448.047584 150.35885 
L 445.415294 150.335855 
L 442.783005 150.30379 
L 440.150715 150.260184 
L 437.518426 150.2024 
L 434.886136 150.127655 
L 432.253847 150.033064 
L 429.621557 149.915689 
L 426.989268 149.772596 
L 424.356978 149.600937 
L 421.724689 149.398026 
L 419.092399 149.161445 
L 416.46011 148.889146 
L 413.82782 148.579563 
L 411.195531 148.23173 
L 408.563241 147.845391 
L 405.930952 147.421111 
L 403.298663 146.960361 
L 400.666373 146.465598 
L 398.034084 145.940308 
L 395.401794 145.389027 
L 392.769505 144.817318 
L 390.137215 144.231712 
L 387.504926 143.639614 
L 384.872636 143.049157 
L 382.240347 142.469022 
L 379.608057 141.90823 
L 376.975768 141.375898 
L 374.343478 140.880978 
L 371.711189 140.431991 
L 369.078899 140.036761 
L 366.44661 139.702164 
L 363.81432 139.433898 
L 361.182031 139.236303 
L 358.549741 139.112209 
L 355.917452 139.062852 
L 353.285162 139.087836 
L 350.652873 139.185158 
L 348.020583 139.35129 
L 345.388294 139.581312 
L 342.756005 139.869092 
L 340.123715 140.207494 
L 337.491426 140.588624 
L 334.859136 141.004076 
L 332.226847 141.44519 
L 329.594557 141.903291 
L 326.962268 142.369915 
L 324.329978 142.837001 
L 321.697689 143.297054 
L 319.065399 143.743263 
L 316.43311 144.169587 
L 313.80082 144.570795 
L 311.168531 144.942479 
L 308.536241 145.281031 
L 305.903952 145.583603 
L 303.271662 145.848041 
L 300.639373 146.072824 
L 298.007083 146.256989 
L 295.374794 146.400073 
L 292.742504 146.502054 
L 290.110215 146.563314 
L 287.477925 146.584619 
L 284.845636 146.567107 
L 282.213346 146.512302 
L 279.581057 146.422134 
L 276.948768 146.298966 
L 274.316478 146.145631 
L 271.684189 145.965458 
L 269.051899 145.762291 
L 266.41961 145.540497 
L 263.78732 145.304951 
L 261.155031 145.060993 
L 258.522741 144.814369 
L 255.890452 144.571137 
L 253.258162 144.337548 
L 250.625873 144.119908 
L 247.993583 143.924419 
L 245.361294 143.757009 
L 242.729004 143.623159 
L 240.096715 143.52773 
L 237.464425 143.474809 
L 234.832136 143.467567 
L 232.199846 143.508153 
L 229.567557 143.597616 
L 226.935267 143.735866 
z
" style="fill:#ff0000;fill-opacity:0.75;"/>
   </g>
   <g id="PolyCollection_5">
    <path clip-path="url(#p075cb3bef1)" d="M 228.195642 91.398125 
L 228.195642 109.753034 
L 230.531111 109.846856 
L 232.86658 109.894891 
L 235.202049 109.897107 
L 237.537518 109.85426 
L 239.872987 109.767879 
L 242.208457 109.640222 
L 244.543926 109.474219 
L 246.879395 109.273398 
L 249.214864 109.041793 
L 251.550333 108.783846 
L 253.885802 108.504304 
L 256.221271 108.20811 
L 258.556741 107.900299 
L 260.89221 107.585896 
L 263.227679 107.269828 
L 265.563148 106.956838 
L 267.898617 106.651423 
L 270.234086 106.357779 
L 272.569556 106.079761 
L 274.905025 105.820862 
L 277.240494 105.584203 
L 279.575963 105.372534 
L 281.911432 105.188244 
L 284.246901 105.033385 
L 286.58237 104.909693 
L 288.91784 104.818614 
L 291.253309 104.761328 
L 293.588778 104.738777 
L 295.924247 104.751672 
L 298.259716 104.800511 
L 300.595185 104.885573 
L 302.930654 105.006918 
L 305.266124 105.164365 
L 307.601593 105.357472 
L 309.937062 105.585508 
L 312.272531 105.847417 
L 314.608 106.141785 
L 316.943469 106.466805 
L 319.278939 106.820248 
L 321.614408 107.199442 
L 323.949877 107.601256 
L 326.285346 108.022099 
L 328.620815 108.457935 
L 330.956284 108.904307 
L 333.291753 109.356386 
L 335.627223 109.809025 
L 337.962692 110.25684 
L 340.298161 110.694292 
L 342.63363 111.115794 
L 344.969099 111.515812 
L 347.304568 111.888982 
L 349.640037 112.230224 
L 351.975507 112.534852 
L 354.310976 112.798677 
L 356.646445 113.018105 
L 358.981914 113.190214 
L 361.317383 113.312816 
L 363.652852 113.384503 
L 365.988322 113.40467 
L 368.323791 113.373518 
L 370.65926 113.29203 
L 372.994729 113.161938 
L 375.330198 112.98566 
L 377.665667 112.766229 
L 380.001136 112.507203 
L 382.336606 112.212568 
L 384.672075 111.886637 
L 387.007544 111.533938 
L 389.343013 111.159108 
L 391.678482 110.766795 
L 394.013951 110.361556 
L 396.34942 109.947775 
L 398.68489 109.529583 
L 401.020359 109.110799 
L 403.355828 108.694877 
L 405.691297 108.284875 
L 408.026766 107.883429 
L 410.362235 107.492747 
L 412.697705 107.114612 
L 415.033174 106.750395 
L 417.368643 106.401079 
L 419.704112 106.067287 
L 422.039581 105.749324 
L 424.37505 105.447209 
L 426.710519 105.160724 
L 429.045989 104.889453 
L 431.381458 104.632826 
L 433.716927 104.390157 
L 436.052396 104.160684 
L 438.387865 103.943601 
L 440.723334 103.738088 
L 443.058804 103.543338 
L 445.394273 103.358576 
L 447.729742 103.183074 
L 450.065211 103.016167 
L 452.40068 102.857257 
L 454.736149 102.705817 
L 457.071618 102.561397 
L 459.407088 102.423614 
L 459.407088 98.727545 
L 459.407088 98.727545 
L 457.071618 98.589762 
L 454.736149 98.445342 
L 452.40068 98.293903 
L 450.065211 98.134992 
L 447.729742 97.968085 
L 445.394273 97.792583 
L 443.058804 97.607821 
L 440.723334 97.413071 
L 438.387865 97.207558 
L 436.052396 96.990475 
L 433.716927 96.761002 
L 431.381458 96.518333 
L 429.045989 96.261706 
L 426.710519 95.990435 
L 424.37505 95.70395 
L 422.039581 95.401835 
L 419.704112 95.083872 
L 417.368643 94.75008 
L 415.033174 94.400764 
L 412.697705 94.036547 
L 410.362235 93.658412 
L 408.026766 93.26773 
L 405.691297 92.866284 
L 403.355828 92.456282 
L 401.020359 92.04036 
L 398.68489 91.621576 
L 396.34942 91.203384 
L 394.013951 90.789603 
L 391.678482 90.384364 
L 389.343013 89.992051 
L 387.007544 89.617222 
L 384.672075 89.264522 
L 382.336606 88.938591 
L 380.001136 88.643956 
L 377.665667 88.38493 
L 375.330198 88.165499 
L 372.994729 87.989221 
L 370.65926 87.859129 
L 368.323791 87.777641 
L 365.988322 87.746489 
L 363.652852 87.766656 
L 361.317383 87.838343 
L 358.981914 87.960945 
L 356.646445 88.133054 
L 354.310976 88.352482 
L 351.975507 88.616308 
L 349.640037 88.920935 
L 347.304568 89.262177 
L 344.969099 89.635347 
L 342.63363 90.035365 
L 340.298161 90.456867 
L 337.962692 90.894319 
L 335.627223 91.342134 
L 333.291753 91.794773 
L 330.956284 92.246852 
L 328.620815 92.693224 
L 326.285346 93.12906 
L 323.949877 93.549903 
L 321.614408 93.951717 
L 319.278939 94.330911 
L 316.943469 94.684355 
L 314.608 95.009374 
L 312.272531 95.303742 
L 309.937062 95.565651 
L 307.601593 95.793687 
L 305.266124 95.986794 
L 302.930654 96.144241 
L 300.595185 96.265586 
L 298.259716 96.350649 
L 295.924247 96.399487 
L 293.588778 96.412382 
L 291.253309 96.389831 
L 288.91784 96.332546 
L 286.58237 96.241466 
L 284.246901 96.117774 
L 281.911432 95.962915 
L 279.575963 95.778625 
L 277.240494 95.566956 
L 274.905025 95.330297 
L 272.569556 95.071398 
L 270.234086 94.79338 
L 267.898617 94.499736 
L 265.563148 94.194321 
L 263.227679 93.881331 
L 260.89221 93.565263 
L 258.556741 93.25086 
L 256.221271 92.943049 
L 253.885802 92.646856 
L 251.550333 92.367314 
L 249.214864 92.109366 
L 246.879395 91.877761 
L 244.543926 91.67694 
L 242.208457 91.510937 
L 239.872987 91.38328 
L 237.537518 91.296899 
L 235.202049 91.254052 
L 232.86658 91.256268 
L 230.531111 91.304303 
L 228.195642 91.398125 
z
" style="fill:#ff0000;fill-opacity:0.75;"/>
   </g>
   <g id="PolyCollection_6">
    <path clip-path="url(#p075cb3bef1)" d="M 226.748753 36.605823 
L 226.748753 61.912608 
L 229.379 62.040375 
L 232.009246 62.088307 
L 234.639492 62.05624 
L 237.269738 61.945623 
L 239.899984 61.759461 
L 242.53023 61.502223 
L 245.160476 61.179692 
L 247.790722 60.79878 
L 250.420968 60.367321 
L 253.051214 59.893833 
L 255.681461 59.387276 
L 258.311707 58.856813 
L 260.941953 58.311576 
L 263.572199 57.76045 
L 266.202445 57.211887 
L 268.832691 56.673747 
L 271.462937 56.15317 
L 274.093183 55.656491 
L 276.723429 55.189177 
L 279.353676 54.755809 
L 281.983922 54.360086 
L 284.614168 54.004847 
L 287.244414 53.692126 
L 289.87466 53.423204 
L 292.504906 53.19868 
L 295.135152 53.018536 
L 297.765398 52.882207 
L 300.395644 52.788637 
L 303.025891 52.736335 
L 305.656137 52.723418 
L 308.286383 52.747641 
L 310.916629 52.806426 
L 313.546875 52.89688 
L 316.177121 53.015806 
L 318.807367 53.159723 
L 321.437613 53.324874 
L 324.067859 53.507252 
L 326.698106 53.702624 
L 329.328352 53.90657 
L 331.958598 54.114534 
L 334.588844 54.321883 
L 337.21909 54.523978 
L 339.849336 54.71626 
L 342.479582 54.894336 
L 345.109828 55.054079 
L 347.740074 55.191716 
L 350.370321 55.303929 
L 353.000567 55.387932 
L 355.630813 55.441553 
L 358.261059 55.463285 
L 360.891305 55.452327 
L 363.521551 55.408607 
L 366.151797 55.332772 
L 368.782043 55.226165 
L 371.412289 55.090777 
L 374.042536 54.929174 
L 376.672782 54.744412 
L 379.303028 54.539938 
L 381.933274 54.319475 
L 384.56352 54.086908 
L 387.193766 53.846165 
L 389.824012 53.601103 
L 392.454258 53.355407 
L 395.084504 53.112488 
L 397.714751 52.87541 
L 400.344997 52.646827 
L 402.975243 52.428937 
L 405.605489 52.223462 
L 408.235735 52.031636 
L 410.865981 51.854224 
L 413.496227 51.691543 
L 416.126473 51.543505 
L 418.756719 51.409668 
L 421.386966 51.289294 
L 424.017212 51.181408 
L 426.647458 51.08487 
L 429.277704 50.998428 
L 431.90795 50.920782 
L 434.538196 50.850634 
L 437.168442 50.786734 
L 439.798688 50.727917 
L 442.428934 50.673129 
L 445.059181 50.621446 
L 447.689427 50.572083 
L 450.319673 50.524402 
L 452.949919 50.477897 
L 455.580165 50.432195 
L 458.210411 50.387036 
L 460.840657 50.342256 
L 463.470903 50.297774 
L 466.101149 50.253568 
L 468.731395 50.209665 
L 471.361642 50.166118 
L 473.991888 50.123 
L 476.622134 50.08039 
L 479.25238 50.038367 
L 481.882626 49.997003 
L 484.512872 49.956365 
L 487.143118 49.916508 
L 487.143118 48.601924 
L 487.143118 48.601924 
L 484.512872 48.562067 
L 481.882626 48.521428 
L 479.25238 48.480065 
L 476.622134 48.438042 
L 473.991888 48.395432 
L 471.361642 48.352314 
L 468.731395 48.308767 
L 466.101149 48.264863 
L 463.470903 48.220658 
L 460.840657 48.176175 
L 458.210411 48.131396 
L 455.580165 48.086236 
L 452.949919 48.040535 
L 450.319673 47.99403 
L 447.689427 47.946348 
L 445.059181 47.896986 
L 442.428934 47.845303 
L 439.798688 47.790514 
L 437.168442 47.731697 
L 434.538196 47.667798 
L 431.90795 47.59765 
L 429.277704 47.520004 
L 426.647458 47.433562 
L 424.017212 47.337023 
L 421.386966 47.229138 
L 418.756719 47.108763 
L 416.126473 46.974926 
L 413.496227 46.826889 
L 410.865981 46.664207 
L 408.235735 46.486796 
L 405.605489 46.29497 
L 402.975243 46.089495 
L 400.344997 45.871605 
L 397.714751 45.643022 
L 395.084504 45.405944 
L 392.454258 45.163025 
L 389.824012 44.917328 
L 387.193766 44.672267 
L 384.56352 44.431524 
L 381.933274 44.198956 
L 379.303028 43.978493 
L 376.672782 43.774019 
L 374.042536 43.589258 
L 371.412289 43.427655 
L 368.782043 43.292267 
L 366.151797 43.18566 
L 363.521551 43.109825 
L 360.891305 43.066105 
L 358.261059 43.055147 
L 355.630813 43.076878 
L 353.000567 43.130499 
L 350.370321 43.214503 
L 347.740074 43.326716 
L 345.109828 43.464353 
L 342.479582 43.624095 
L 339.849336 43.802172 
L 337.21909 43.994454 
L 334.588844 44.196549 
L 331.958598 44.403897 
L 329.328352 44.611862 
L 326.698106 44.815808 
L 324.067859 45.01118 
L 321.437613 45.193557 
L 318.807367 45.358709 
L 316.177121 45.502625 
L 313.546875 45.621552 
L 310.916629 45.712005 
L 308.286383 45.770791 
L 305.656137 45.795014 
L 303.025891 45.782096 
L 300.395644 45.729795 
L 297.765398 45.636225 
L 295.135152 45.499896 
L 292.504906 45.319752 
L 289.87466 45.095228 
L 287.244414 44.826306 
L 284.614168 44.513584 
L 281.983922 44.158346 
L 279.353676 43.762622 
L 276.723429 43.329255 
L 274.093183 42.861941 
L 271.462937 42.365262 
L 268.832691 41.844685 
L 266.202445 41.306545 
L 263.572199 40.757982 
L 260.941953 40.206856 
L 258.311707 39.661619 
L 255.681461 39.131156 
L 253.051214 38.624599 
L 250.420968 38.15111 
L 247.790722 37.719651 
L 245.160476 37.33874 
L 242.53023 37.016208 
L 239.899984 36.758971 
L 237.269738 36.572809 
L 234.639492 36.462191 
L 232.009246 36.430125 
L 229.379 36.478057 
L 226.748753 36.605823 
z
" style="fill:#ff0000;fill-opacity:0.75;"/>
   </g>
   <g id="LineCollection_1">
    <path clip-path="url(#p075cb3bef1)" d="M 309.651056 312.25558 
L 309.651056 299.426489 
" style="fill:none;stroke:#000000;stroke-width:1.5;"/>
    <path clip-path="url(#p075cb3bef1)" d="M 315.348266 260.939216 
L 315.348266 248.110125 
" style="fill:none;stroke:#000000;stroke-width:1.5;"/>
    <path clip-path="url(#p075cb3bef1)" d="M 302.517243 209.622852 
L 302.517243 196.793761 
" style="fill:none;stroke:#000000;stroke-width:1.5;"/>
    <path clip-path="url(#p075cb3bef1)" d="M 318.523244 158.306489 
L 318.523244 145.477398 
" style="fill:none;stroke:#000000;stroke-width:1.5;"/>
    <path clip-path="url(#p075cb3bef1)" d="M 321.449938 106.990125 
L 321.449938 94.161034 
" style="fill:none;stroke:#000000;stroke-width:1.5;"/>
    <path clip-path="url(#p075cb3bef1)" d="M 285.801467 55.673761 
L 285.801467 42.84467 
" style="fill:none;stroke:#000000;stroke-width:1.5;"/>
   </g>
   <g id="patch_3">
    <path d="M 226.746875 332.782125 
L 226.746875 22.318125 
" style="fill:none;stroke:#000000;stroke-linecap:square;stroke-linejoin:miter;stroke-width:0.8;"/>
   </g>
   <g id="patch_4">
    <path d="M 617.346875 332.782125 
L 617.346875 22.318125 
" style="fill:none;stroke:#000000;stroke-linecap:square;stroke-linejoin:miter;stroke-width:0.8;"/>
   </g>
   <g id="patch_5">
    <path d="M 226.746875 332.782125 
L 617.346875 332.782125 
" style="fill:none;stroke:#000000;stroke-linecap:square;stroke-linejoin:miter;stroke-width:0.8;"/>
   </g>
   <g id="patch_6">
    <path d="M 226.746875 22.318125 
L 617.346875 22.318125 
" style="fill:none;stroke:#000000;stroke-linecap:square;stroke-linejoin:miter;stroke-width:0.8;"/>
   </g>
   <g id="text_16">
    <!-- AOE1 for 1.0 -->
    <g transform="translate(384.005938 16.318125)scale(0.12 -0.12)">
     <use xlink:href="#DejaVuSans-41"/>
     <use x="68.392578" xlink:href="#DejaVuSans-4f"/>
     <use x="147.103516" xlink:href="#DejaVuSans-45"/>
     <use x="210.287109" xlink:href="#DejaVuSans-31"/>
     <use x="273.910156" xlink:href="#DejaVuSans-20"/>
     <use x="305.697266" xlink:href="#DejaVuSans-66"/>
     <use x="340.902344" xlink:href="#DejaVuSans-6f"/>
     <use x="402.083984" xlink:href="#DejaVuSans-72"/>
     <use x="443.197266" xlink:href="#DejaVuSans-20"/>
     <use x="474.984375" xlink:href="#DejaVuSans-31"/>
     <use x="538.607422" xlink:href="#DejaVuSans-2e"/>
     <use x="570.394531" xlink:href="#DejaVuSans-30"/>
    </g>
   </g>
  </g>
 </g>
 <defs>
  <clipPath id="p075cb3bef1">
   <rect height="310.464" width="390.6" x="226.746875" y="22.318125"/>
  </clipPath>
 </defs>
</svg>
