<?xml version='1.0' encoding='utf-8'?>
<svg xmlns:xlink="http://www.w3.org/1999/xlink" xmlns="http://www.w3.org/2000/svg" id="chart-48203b8b-2a86-4cb4-8c8d-225ea5d0d82e" class="pygal-chart" viewBox="0 0 800 600"><!--Generated with pygal 2.4.0 (lxml) ©Kozea 2012-2016 on 2019-10-13--><!--http://pygal.org--><!--http://github.com/Kozea/pygal--><defs><style type="text/css">#chart-48203b8b-2a86-4cb4-8c8d-225ea5d0d82e{-webkit-user-select:none;-webkit-font-smoothing:antialiased;font-family:Helvetica,Arial,sans-serif}#chart-48203b8b-2a86-4cb4-8c8d-225ea5d0d82e .title{font-family:Helvetica,Arial,sans-serif;font-size:18px}#chart-48203b8b-2a86-4cb4-8c8d-225ea5d0d82e .legends .legend text{font-family:Helvetica,Arial,sans-serif;font-size:15px}#chart-48203b8b-2a86-4cb4-8c8d-225ea5d0d82e .axis text{font-family:Helvetica,Arial,sans-serif;font-size:15px}#chart-48203b8b-2a86-4cb4-8c8d-225ea5d0d82e .axis text.major{font-family:Helvetica,Arial,sans-serif;font-size:15px}#chart-48203b8b-2a86-4cb4-8c8d-225ea5d0d82e .text-overlay text.value{font-family:Helvetica,Arial,sans-serif;font-size:15px}#chart-48203b8b-2a86-4cb4-8c8d-225ea5d0d82e .text-overlay text.label{font-family:Helvetica,Arial,sans-serif;font-size:15px}#chart-48203b8b-2a86-4cb4-8c8d-225ea5d0d82e .tooltip{font-family:Helvetica,Arial,sans-serif;font-size:14px}#chart-48203b8b-2a86-4cb4-8c8d-225ea5d0d82e text.no_data{font-family:Helvetica,Arial,sans-serif;font-size:64px}
#chart-48203b8b-2a86-4cb4-8c8d-225ea5d0d82e{background-color:transparent}#chart-48203b8b-2a86-4cb4-8c8d-225ea5d0d82e path,#chart-48203b8b-2a86-4cb4-8c8d-225ea5d0d82e line,#chart-48203b8b-2a86-4cb4-8c8d-225ea5d0d82e rect,#chart-48203b8b-2a86-4cb4-8c8d-225ea5d0d82e circle{-webkit-transition:150ms;-moz-transition:150ms;transition:150ms}#chart-48203b8b-2a86-4cb4-8c8d-225ea5d0d82e .graph &gt; .background{fill:transparent}#chart-48203b8b-2a86-4cb4-8c8d-225ea5d0d82e .plot &gt; .background{fill:white}#chart-48203b8b-2a86-4cb4-8c8d-225ea5d0d82e .graph{fill:rgba(0,0,0,.87)}#chart-48203b8b-2a86-4cb4-8c8d-225ea5d0d82e text.no_data{fill:rgba(0,0,0,1)}#chart-48203b8b-2a86-4cb4-8c8d-225ea5d0d82e .title{fill:rgba(0,0,0,1)}#chart-48203b8b-2a86-4cb4-8c8d-225ea5d0d82e .legends .legend text{fill:rgba(0,0,0,.87)}#chart-48203b8b-2a86-4cb4-8c8d-225ea5d0d82e .legends .legend:hover text{fill:rgba(0,0,0,1)}#chart-48203b8b-2a86-4cb4-8c8d-225ea5d0d82e .axis .line{stroke:rgba(0,0,0,1)}#chart-48203b8b-2a86-4cb4-8c8d-225ea5d0d82e .axis .guide.line{stroke:rgba(0,0,0,.54)}#chart-48203b8b-2a86-4cb4-8c8d-225ea5d0d82e .axis .major.line{stroke:rgba(0,0,0,.87)}#chart-48203b8b-2a86-4cb4-8c8d-225ea5d0d82e .axis text.major{fill:rgba(0,0,0,1)}#chart-48203b8b-2a86-4cb4-8c8d-225ea5d0d82e .axis.y .guides:hover .guide.line,#chart-48203b8b-2a86-4cb4-8c8d-225ea5d0d82e .line-graph .axis.x .guides:hover .guide.line,#chart-48203b8b-2a86-4cb4-8c8d-225ea5d0d82e .stackedline-graph .axis.x .guides:hover .guide.line,#chart-48203b8b-2a86-4cb4-8c8d-225ea5d0d82e .xy-graph .axis.x .guides:hover .guide.line{stroke:rgba(0,0,0,1)}#chart-48203b8b-2a86-4cb4-8c8d-225ea5d0d82e .axis .guides:hover text{fill:rgba(0,0,0,1)}#chart-48203b8b-2a86-4cb4-8c8d-225ea5d0d82e .reactive{fill-opacity:.7;stroke-opacity:.8}#chart-48203b8b-2a86-4cb4-8c8d-225ea5d0d82e .ci{stroke:rgba(0,0,0,.87)}#chart-48203b8b-2a86-4cb4-8c8d-225ea5d0d82e .reactive.active,#chart-48203b8b-2a86-4cb4-8c8d-225ea5d0d82e .active .reactive{fill-opacity:.8;stroke-opacity:.9;stroke-width:4}#chart-48203b8b-2a86-4cb4-8c8d-225ea5d0d82e .ci .reactive.active{stroke-width:1.5}#chart-48203b8b-2a86-4cb4-8c8d-225ea5d0d82e .series text{fill:rgba(0,0,0,1)}#chart-48203b8b-2a86-4cb4-8c8d-225ea5d0d82e .tooltip rect{fill:white;stroke:rgba(0,0,0,1);-webkit-transition:opacity 150ms;-moz-transition:opacity 150ms;transition:opacity 150ms}#chart-48203b8b-2a86-4cb4-8c8d-225ea5d0d82e .tooltip .label{fill:rgba(0,0,0,.87)}#chart-48203b8b-2a86-4cb4-8c8d-225ea5d0d82e .tooltip .label{fill:rgba(0,0,0,.87)}#chart-48203b8b-2a86-4cb4-8c8d-225ea5d0d82e .tooltip .legend{font-size:.8em;fill:rgba(0,0,0,.54)}#chart-48203b8b-2a86-4cb4-8c8d-225ea5d0d82e .tooltip .x_label{font-size:.6em;fill:rgba(0,0,0,1)}#chart-48203b8b-2a86-4cb4-8c8d-225ea5d0d82e .tooltip .xlink{font-size:.5em;text-decoration:underline}#chart-48203b8b-2a86-4cb4-8c8d-225ea5d0d82e .tooltip .value{font-size:1.5em}#chart-48203b8b-2a86-4cb4-8c8d-225ea5d0d82e .bound{font-size:.5em}#chart-48203b8b-2a86-4cb4-8c8d-225ea5d0d82e .max-value{font-size:.75em;fill:rgba(0,0,0,.54)}#chart-48203b8b-2a86-4cb4-8c8d-225ea5d0d82e .map-element{fill:white;stroke:rgba(0,0,0,.54) !important}#chart-48203b8b-2a86-4cb4-8c8d-225ea5d0d82e .map-element .reactive{fill-opacity:inherit;stroke-opacity:inherit}#chart-48203b8b-2a86-4cb4-8c8d-225ea5d0d82e .color-0,#chart-48203b8b-2a86-4cb4-8c8d-225ea5d0d82e .color-0 a:visited{stroke:#F44336;fill:#F44336}#chart-48203b8b-2a86-4cb4-8c8d-225ea5d0d82e .color-1,#chart-48203b8b-2a86-4cb4-8c8d-225ea5d0d82e .color-1 a:visited{stroke:#3F51B5;fill:#3F51B5}#chart-48203b8b-2a86-4cb4-8c8d-225ea5d0d82e .color-2,#chart-48203b8b-2a86-4cb4-8c8d-225ea5d0d82e .color-2 a:visited{stroke:#009688;fill:#009688}#chart-48203b8b-2a86-4cb4-8c8d-225ea5d0d82e .color-3,#chart-48203b8b-2a86-4cb4-8c8d-225ea5d0d82e .color-3 a:visited{stroke:#FFC107;fill:#FFC107}#chart-48203b8b-2a86-4cb4-8c8d-225ea5d0d82e .color-4,#chart-48203b8b-2a86-4cb4-8c8d-225ea5d0d82e .color-4 a:visited{stroke:#FF5722;fill:#FF5722}#chart-48203b8b-2a86-4cb4-8c8d-225ea5d0d82e .color-5,#chart-48203b8b-2a86-4cb4-8c8d-225ea5d0d82e .color-5 a:visited{stroke:#9C27B0;fill:#9C27B0}#chart-48203b8b-2a86-4cb4-8c8d-225ea5d0d82e .text-overlay .color-0 text{fill:black}#chart-48203b8b-2a86-4cb4-8c8d-225ea5d0d82e .text-overlay .color-1 text{fill:black}#chart-48203b8b-2a86-4cb4-8c8d-225ea5d0d82e .text-overlay .color-2 text{fill:black}#chart-48203b8b-2a86-4cb4-8c8d-225ea5d0d82e .text-overlay .color-3 text{fill:black}#chart-48203b8b-2a86-4cb4-8c8d-225ea5d0d82e .text-overlay .color-4 text{fill:black}#chart-48203b8b-2a86-4cb4-8c8d-225ea5d0d82e .text-overlay .color-5 text{fill:black}
#chart-48203b8b-2a86-4cb4-8c8d-225ea5d0d82e text.no_data{text-anchor:middle}#chart-48203b8b-2a86-4cb4-8c8d-225ea5d0d82e .guide.line{fill:none}#chart-48203b8b-2a86-4cb4-8c8d-225ea5d0d82e .centered{text-anchor:middle}#chart-48203b8b-2a86-4cb4-8c8d-225ea5d0d82e .title{text-anchor:middle}#chart-48203b8b-2a86-4cb4-8c8d-225ea5d0d82e .legends .legend text{fill-opacity:1}#chart-48203b8b-2a86-4cb4-8c8d-225ea5d0d82e .axis.x text{text-anchor:middle}#chart-48203b8b-2a86-4cb4-8c8d-225ea5d0d82e .axis.x:not(.web) text[transform]{text-anchor:start}#chart-48203b8b-2a86-4cb4-8c8d-225ea5d0d82e .axis.x:not(.web) text[transform].backwards{text-anchor:end}#chart-48203b8b-2a86-4cb4-8c8d-225ea5d0d82e .axis.y text{text-anchor:end}#chart-48203b8b-2a86-4cb4-8c8d-225ea5d0d82e .axis.y text[transform].backwards{text-anchor:start}#chart-48203b8b-2a86-4cb4-8c8d-225ea5d0d82e .axis.y2 text{text-anchor:start}#chart-48203b8b-2a86-4cb4-8c8d-225ea5d0d82e .axis.y2 text[transform].backwards{text-anchor:end}#chart-48203b8b-2a86-4cb4-8c8d-225ea5d0d82e .axis .guide.line{stroke-dasharray:1}#chart-48203b8b-2a86-4cb4-8c8d-225ea5d0d82e .axis .major.guide.line{stroke-dasharray:1}#chart-48203b8b-2a86-4cb4-8c8d-225ea5d0d82e .horizontal .axis.y .guide.line,#chart-48203b8b-2a86-4cb4-8c8d-225ea5d0d82e .horizontal .axis.y2 .guide.line,#chart-48203b8b-2a86-4cb4-8c8d-225ea5d0d82e .vertical .axis.x .guide.line{opacity:0}#chart-48203b8b-2a86-4cb4-8c8d-225ea5d0d82e .horizontal .axis.always_show .guide.line,#chart-48203b8b-2a86-4cb4-8c8d-225ea5d0d82e .vertical .axis.always_show .guide.line{opacity:1 !important}#chart-48203b8b-2a86-4cb4-8c8d-225ea5d0d82e .axis.y .guides:hover .guide.line,#chart-48203b8b-2a86-4cb4-8c8d-225ea5d0d82e .axis.y2 .guides:hover .guide.line,#chart-48203b8b-2a86-4cb4-8c8d-225ea5d0d82e .axis.x .guides:hover .guide.line{opacity:1}#chart-48203b8b-2a86-4cb4-8c8d-225ea5d0d82e .axis .guides:hover text{opacity:1}#chart-48203b8b-2a86-4cb4-8c8d-225ea5d0d82e .nofill{fill:none}#chart-48203b8b-2a86-4cb4-8c8d-225ea5d0d82e .subtle-fill{fill-opacity:.2}#chart-48203b8b-2a86-4cb4-8c8d-225ea5d0d82e .dot{stroke-width:1px;fill-opacity:1}#chart-48203b8b-2a86-4cb4-8c8d-225ea5d0d82e .dot.active{stroke-width:5px}#chart-48203b8b-2a86-4cb4-8c8d-225ea5d0d82e .dot.negative{fill:transparent}#chart-48203b8b-2a86-4cb4-8c8d-225ea5d0d82e text,#chart-48203b8b-2a86-4cb4-8c8d-225ea5d0d82e tspan{stroke:none !important}#chart-48203b8b-2a86-4cb4-8c8d-225ea5d0d82e .series text.active{opacity:1}#chart-48203b8b-2a86-4cb4-8c8d-225ea5d0d82e .tooltip rect{fill-opacity:.95;stroke-width:.5}#chart-48203b8b-2a86-4cb4-8c8d-225ea5d0d82e .tooltip text{fill-opacity:1}#chart-48203b8b-2a86-4cb4-8c8d-225ea5d0d82e .showable{visibility:hidden}#chart-48203b8b-2a86-4cb4-8c8d-225ea5d0d82e .showable.shown{visibility:visible}#chart-48203b8b-2a86-4cb4-8c8d-225ea5d0d82e .gauge-background{fill:rgba(229,229,229,1);stroke:none}#chart-48203b8b-2a86-4cb4-8c8d-225ea5d0d82e .bg-lines{stroke:transparent;stroke-width:2px}</style><script type="text/javascript">window.pygal = window.pygal || {};window.pygal.config = window.pygal.config || {};window.pygal.config['48203b8b-2a86-4cb4-8c8d-225ea5d0d82e'] = {"allow_interruptions": false, "box_mode": "extremes", "classes": ["pygal-chart"], "css": ["file://style.css", "file://graph.css"], "defs": [], "disable_xml_declaration": false, "dots_size": 2.5, "dynamic_print_values": false, "explicit_size": false, "fill": false, "force_uri_protocol": "https", "formatter": null, "half_pie": false, "height": 600, "include_x_axis": false, "inner_radius": 0, "interpolate": null, "interpolation_parameters": {}, "interpolation_precision": 250, "inverse_y_axis": false, "js": ["//kozea.github.io/pygal.js/2.0.x/pygal-tooltips.min.js"], "legend_at_bottom": true, "legend_at_bottom_columns": 2, "legend_box_size": 12, "logarithmic": false, "margin": 20, "margin_bottom": 65, "margin_left": null, "margin_right": null, "margin_top": null, "max_scale": 16, "min_scale": 4, "missing_value_fill_truncation": "x", "no_data_text": "No data", "no_prefix": false, "order_min": null, "pretty_print": false, "print_labels": false, "print_values": false, "print_values_position": "center", "print_zeroes": true, "range": [0.0, 2.0], "rounded_bars": null, "secondary_range": null, "show_dots": true, "show_legend": true, "show_minor_x_labels": false, "show_minor_y_labels": true, "show_only_major_dots": true, "show_x_guides": true, "show_x_labels": true, "show_y_guides": true, "show_y_labels": true, "spacing": 10, "stack_from_top": false, "strict": false, "stroke": true, "stroke_style": null, "style": {"background": "transparent", "ci_colors": [], "colors": ["#F44336", "#3F51B5", "#009688", "#FFC107", "#FF5722", "#9C27B0", "#03A9F4", "#8BC34A", "#FF9800", "#E91E63", "#2196F3", "#4CAF50", "#FFEB3B", "#673AB7", "#00BCD4", "#CDDC39", "#9E9E9E", "#607D8B"], "font_family": "Helvetica, Arial, sans-serif", "foreground": "rgba(0, 0, 0, .87)", "foreground_strong": "rgba(0, 0, 0, 1)", "foreground_subtle": "rgba(0, 0, 0, .54)", "guide_stroke_dasharray": 1, "label_font_family": "Helvetica, Arial, sans-serif", "label_font_size": 15, "legend_font_family": "Helvetica, Arial, sans-serif", "legend_font_size": 15, "major_guide_stroke_dasharray": 1, "major_label_font_family": "Helvetica, Arial, sans-serif", "major_label_font_size": 15, "no_data_font_family": "Helvetica, Arial, sans-serif", "no_data_font_size": 64, "opacity": ".7", "opacity_hover": ".8", "plot_background": "white", "stroke_opacity": ".8", "stroke_opacity_hover": ".9", "title_font_family": "Helvetica, Arial, sans-serif", "title_font_size": 18, "tooltip_font_family": "Helvetica, Arial, sans-serif", "tooltip_font_size": 14, "transition": "150ms", "value_background": "rgba(229, 229, 229, 1)", "value_colors": [], "value_font_family": "Helvetica, Arial, sans-serif", "value_font_size": 15, "value_label_font_family": "Helvetica, Arial, sans-serif", "value_label_font_size": 15}, "title": "Mean AOE1 for Tempo T \u00b110.0 BPM", "tooltip_border_radius": 0, "tooltip_fancy_mode": true, "truncate_label": null, "truncate_legend": -1, "width": 800, "x_label_rotation": 90, "x_labels": ["0.0", "1.0", "2.0", "3.0", "4.0", "5.0", "6.0", "7.0", "8.0", "9.0", "10.0", "11.0", "12.0", "13.0", "14.0", "15.0", "16.0", "17.0", "18.0", "19.0", "20.0", "21.0", "22.0", "23.0", "24.0", "25.0", "26.0", "27.0", "28.0", "29.0", "30.0", "31.0", "32.0", "33.0", "34.0", "35.0", "36.0", "37.0", "38.0", "39.0", "40.0", "41.0", "42.0", "43.0", "44.0", "45.0", "46.0", "47.0", "48.0", "49.0", "50.0", "51.0", "52.0", "53.0", "54.0", "55.0", "56.0", "57.0", "58.0", "59.0", "60.0", "61.0", "62.0", "63.0", "64.0", "65.0", "66.0", "67.0", "68.0", "69.0", "70.0", "71.0", "72.0", "73.0", "74.0", "75.0", "76.0", "77.0", "78.0", "79.0", "80.0", "81.0", "82.0", "83.0", "84.0", "85.0", "86.0", "87.0", "88.0", "89.0", "90.0", "91.0", "92.0", "93.0", "94.0", "95.0", "96.0", "97.0", "98.0", "99.0", "100.0", "101.0", "102.0", "103.0", "104.0", "105.0", "106.0", "107.0", "108.0", "109.0", "110.0", "111.0", "112.0", "113.0", "114.0", "115.0", "116.0", "117.0", "118.0", "119.0", "120.0", "121.0", "122.0", "123.0", "124.0", "125.0", "126.0", "127.0", "128.0", "129.0", "130.0", "131.0", "132.0", "133.0", "134.0", "135.0", "136.0", "137.0", "138.0", "139.0", "140.0", "141.0", "142.0", "143.0", "144.0", "145.0", "146.0", "147.0", "148.0", "149.0", "150.0", "151.0", "152.0", "153.0", "154.0", "155.0", "156.0", "157.0", "158.0", "159.0", "160.0", "161.0", "162.0", "163.0", "164.0", "165.0", "166.0", "167.0", "168.0", "169.0", "170.0", "171.0", "172.0", "173.0", "174.0", "175.0", "176.0", "177.0", "178.0", "179.0", "180.0", "181.0", "182.0", "183.0", "184.0", "185.0", "186.0", "187.0", "188.0", "189.0", "190.0", "191.0", "192.0", "193.0", "194.0", "195.0", "196.0", "197.0", "198.0", "199.0", "200.0", "201.0", "202.0", "203.0", "204.0", "205.0", "206.0", "207.0", "208.0", "209.0", "210.0", "211.0", "212.0", "213.0", "214.0", "215.0", "216.0", "217.0", "218.0", "219.0", "220.0", "221.0", "222.0", "223.0", "224.0", "225.0", "226.0", "227.0", "228.0", "229.0", "230.0", "231.0", "232.0", "233.0", "234.0", "235.0", "236.0", "237.0", "238.0", "239.0", "240.0", "241.0", "242.0", "243.0", "244.0", "245.0", "246.0", "247.0", "248.0", "249.0", "250.0", "251.0", "252.0", "253.0", "254.0", "255.0", "256.0", "257.0", "258.0", "259.0", "260.0", "261.0", "262.0", "263.0", "264.0", "265.0", "266.0", "267.0", "268.0", "269.0", "270.0", "271.0", "272.0", "273.0", "274.0", "275.0", "276.0", "277.0", "278.0", "279.0", "280.0", "281.0", "282.0", "283.0", "284.0", "285.0", "286.0", "287.0", "288.0", "289.0", "290.0", "291.0", "292.0", "293.0", "294.0", "295.0", "296.0", "297.0", "298.0", "299.0", "300.0"], "x_labels_major": null, "x_labels_major_count": 11, "x_labels_major_every": null, "x_title": "T (BPM)", "xrange": null, "y_label_rotation": 0, "y_labels": null, "y_labels_major": null, "y_labels_major_count": null, "y_labels_major_every": null, "y_title": "Mean AOE1 (TO)", "zero": 0, "legends": ["boeck2015/tempodetector2016_default", "davies2009/mirex_qm_tempotracker", "percival2014/stem", "schreiber2014/default", "schreiber2017/ismir2017", "schreiber2017/mirex2017"]}</script><script type="text/javascript" xlink:href="https://kozea.github.io/pygal.js/2.0.x/pygal-tooltips.min.js"/></defs><title>Mean AOE1 for Tempo T ±10.0 BPM</title><g class="graph line-graph vertical"><rect class="background" height="600" width="800" x="0" y="0"/><g class="plot" transform="translate(112, 48)"><rect class="background" height="334.0" width="668.0" x="0" y="0"/><g class="axis y always_show"><g class="guides"><path class="major line" d="M0.000000 327.576923 h668.000000"/><text class="major" x="-5" y="332.8269230769231">0.0000</text><title>0.0000</title></g><g class="guides"><path class="guide line" d="M0.000000 295.461538 h668.000000"/><text class="" x="-5" y="300.71153846153845">0.2000</text><title>0.2000</title></g><g class="guides"><path class="guide line" d="M0.000000 263.346154 h668.000000"/><text class="" x="-5" y="268.5961538461538">0.4000</text><title>0.4000</title></g><g class="guides"><path class="guide line" d="M0.000000 231.230769 h668.000000"/><text class="" x="-5" y="236.48076923076923">0.6000</text><title>0.6000</title></g><g class="guides"><path class="guide line" d="M0.000000 199.115385 h668.000000"/><text class="" x="-5" y="204.3653846153846">0.8000</text><title>0.8000</title></g><g class="guides"><path class="major guide line" d="M0.000000 167.000000 h668.000000"/><text class="major" x="-5" y="172.25">1.0000</text><title>1.0000</title></g><g class="guides"><path class="guide line" d="M0.000000 134.884615 h668.000000"/><text class="" x="-5" y="140.1346153846154">1.2000</text><title>1.2000</title></g><g class="guides"><path class="guide line" d="M0.000000 102.769231 h668.000000"/><text class="" x="-5" y="108.01923076923077">1.4000</text><title>1.4000</title></g><g class="guides"><path class="guide line" d="M0.000000 70.653846 h668.000000"/><text class="" x="-5" y="75.90384615384619">1.6000</text><title>1.6000</title></g><g class="guides"><path class="guide line" d="M0.000000 38.538462 h668.000000"/><text class="" x="-5" y="43.78846153846155">1.8000</text><title>1.8000</title></g><g class="guides"><path class="major guide line" d="M0.000000 6.423077 h668.000000"/><text class="major" x="-5" y="11.673076923076906">2.0000</text><title>2.0000</title></g></g><g class="axis x always_show"><g class="guides"><path class="major line" d="M12.846154 0.000000 v334.000000"/><text class="major" x="12.846153846153845" y="351.5" transform="rotate(90 12.846154 351.500000)">0.0</text></g><g class="guides"><path class="major guide line" d="M77.076923 0.000000 v334.000000"/><text class="major" x="77.07692307692308" y="351.5" transform="rotate(90 77.076923 351.500000)">30.0</text></g><g class="guides"><path class="major guide line" d="M141.307692 0.000000 v334.000000"/><text class="major" x="141.30769230769232" y="351.5" transform="rotate(90 141.307692 351.500000)">60.0</text></g><g class="guides"><path class="major guide line" d="M205.538462 0.000000 v334.000000"/><text class="major" x="205.53846153846152" y="351.5" transform="rotate(90 205.538462 351.500000)">90.0</text></g><g class="guides"><path class="major guide line" d="M269.769231 0.000000 v334.000000"/><text class="major" x="269.7692307692308" y="351.5" transform="rotate(90 269.769231 351.500000)">120.0</text></g><g class="guides"><path class="major guide line" d="M334.000000 0.000000 v334.000000"/><text class="major" x="334.0" y="351.5" transform="rotate(90 334.000000 351.500000)">150.0</text></g><g class="guides"><path class="major guide line" d="M398.230769 0.000000 v334.000000"/><text class="major" x="398.2307692307692" y="351.5" transform="rotate(90 398.230769 351.500000)">180.0</text></g><g class="guides"><path class="major guide line" d="M462.461538 0.000000 v334.000000"/><text class="major" x="462.46153846153845" y="351.5" transform="rotate(90 462.461538 351.500000)">210.0</text></g><g class="guides"><path class="major guide line" d="M526.692308 0.000000 v334.000000"/><text class="major" x="526.6923076923076" y="351.5" transform="rotate(90 526.692308 351.500000)">240.0</text></g><g class="guides"><path class="major guide line" d="M590.923077 0.000000 v334.000000"/><text class="major" x="590.9230769230769" y="351.5" transform="rotate(90 590.923077 351.500000)">270.0</text></g><g class="guides"><path class="major guide line" d="M655.153846 0.000000 v334.000000"/><text class="major" x="655.1538461538462" y="351.5" transform="rotate(90 655.153846 351.500000)">300.0</text></g></g><g class="series serie-0 color-0"><path class="line reactive nofill" d="M12.846154 327.576923 L14.987179 327.576923 17.128205 327.576923 19.269231 327.576923 21.410256 327.576923 23.551282 327.576923 25.692308 327.576923 27.833333 327.576923 29.974359 327.576923 32.115385 327.576923 34.256410 327.576923 36.397436 327.576923 38.538462 327.576923 40.679487 327.576923 42.820513 327.576923 44.961538 327.576923 47.102564 327.576923 49.243590 327.576923 51.384615 327.576923 53.525641 327.576923 55.666667 327.576923 57.807692 327.576923 59.948718 327.576923 62.089744 327.576923 64.230769 327.576923 66.371795 327.576923 68.512821 327.576923 70.653846 327.576923 72.794872 327.576923 74.935897 327.576923 77.076923 327.576923 79.217949 327.576923 81.358974 327.576923 83.500000 327.576923 85.641026 327.576923 87.782051 327.576923 89.923077 327.576923 92.064103 327.576923 94.205128 327.576923 96.346154 327.576923 98.487179 327.576923 100.628205 327.576923 102.769231 327.576923 104.910256 327.576923 107.051282 327.576923 109.192308 327.576923 111.333333 327.576923 113.474359 327.576923 115.615385 327.576923 117.756410 327.576923 119.897436 327.576923 122.038462 327.576923 124.179487 327.576923 126.320513 326.995297 128.461538 326.995297 130.602564 326.995297 132.743590 326.995297 134.884615 326.995297 137.025641 326.995297 139.166667 326.995297 141.307692 326.907945 143.448718 326.907945 145.589744 326.907945 147.730769 326.901160 149.871795 327.013401 152.012821 327.118842 154.153846 327.201778 156.294872 327.232268 158.435897 327.258305 160.576923 327.258305 162.717949 327.318046 164.858974 327.318046 167.000000 327.333092 169.141026 327.273544 171.282051 327.273544 173.423077 327.273544 175.564103 327.273544 177.705128 327.217012 179.846154 327.169146 181.987179 327.187120 184.128205 313.892285 186.269231 313.330450 188.410256 314.398560 190.551282 313.878749 192.692308 307.172826 194.833333 295.137220 196.974359 290.713800 199.115385 288.958854 201.256410 293.628707 203.397436 293.628707 205.538462 296.240108 207.679487 286.938001 209.820513 285.171226 211.961538 283.316147 214.102564 285.416673 216.243590 285.416673 218.384615 285.416673 220.525641 282.111087 222.666667 280.288295 224.807692 267.622052 226.948718 266.820605 229.089744 266.820605 231.230769 261.378676 233.371795 257.274399 235.512821 264.224580 237.653846 270.823521 239.794872 270.823521 241.935897 270.823521 244.076923 256.871666 246.217949 260.964174 248.358974 251.073209 250.500000 255.743943 252.641026 258.247529 254.782051 258.247529 256.923077 235.445805 259.064103 250.186784 261.205128 250.186784 263.346154 249.272565 265.487179 246.372633 267.628205 253.287834 269.769231 261.715543 271.910256 261.715543 274.051282 249.084899 276.192308 251.916092 278.333333 249.252860 280.474359 248.754428 282.615385 248.754428 284.756410 248.754428 286.897436 246.419017 289.038462 244.065332 291.179487 244.065332 293.320513 246.277610 295.461538 243.578466 297.602564 243.578466 299.743590 252.515810 301.884615 238.218455 304.025641 238.218455 306.166667 237.645851 308.307692 237.645851 310.448718 230.724521 312.589744 216.780448 314.730769 216.780448 316.871795 233.378693 319.012821 233.378693 321.153846 233.378693 323.294872 220.328975 325.435897 220.328975 327.576923 220.328975 329.717949 247.088127 331.858974 247.088127 334.000000 247.088127 336.141026 221.478359 338.282051 221.478359 340.423077 221.478359 342.564103 247.609576 344.705128 231.486657 346.846154 231.486657 348.987179 231.486657 351.128205 247.233409 353.269231 286.633838 355.410256 286.633838 357.551282 294.492297 359.692308 294.492297 361.833333 294.492297 363.974359 294.492297 366.115385 294.492297 368.256410 294.492297 370.397436 294.492297 372.538462 286.222878 374.679487 286.222878 376.820513 286.222878 378.961538 286.222878 381.102564 286.222878 383.243590 286.222878 385.384615 272.962762 387.525641 272.966365 389.666667 272.966365 391.807692 272.966365 393.948718 246.465963 396.089744 246.465963 398.230769 246.465963 400.371795 167.005792 402.512821 167.005792 404.653846 167.005792 406.794872 167.005792 408.935897 167.005792 411.076923 167.005792 413.217949 167.005792 415.358974 167.005792 417.500000 167.005792 419.641026 167.002896 421.782051 167.002896 423.923077 167.002896 426.064103 167.002896 428.205128 167.002896 430.346154 167.000000 432.487179 167.000000 434.628205 167.000000 436.769231 167.000000 438.910256 167.000000 441.051282 167.000000 443.192308 167.000000 445.333333 167.000000 447.474359 167.000000 449.615385 167.000000 451.756410 167.000000 453.897436 167.000000 456.038462 167.000000 458.179487 167.000000 460.320513 167.000000 462.461538 327.576923 464.602564 327.576923 466.743590 327.576923 468.884615 327.576923 471.025641 327.576923 473.166667 327.576923 475.307692 327.576923 477.448718 327.576923 479.589744 327.576923 481.730769 327.576923 483.871795 327.576923 486.012821 327.576923 488.153846 327.576923 490.294872 327.576923 492.435897 327.576923 494.576923 327.576923 496.717949 327.576923 498.858974 327.576923 501.000000 327.576923 503.141026 327.576923 505.282051 327.576923 507.423077 327.576923 509.564103 327.576923 511.705128 327.576923 513.846154 327.576923 515.987179 327.576923 518.128205 327.576923 520.269231 327.576923 522.410256 327.576923 524.551282 327.576923 526.692308 327.576923 528.833333 327.576923 530.974359 327.576923 533.115385 327.576923 535.256410 327.576923 537.397436 327.576923 539.538462 327.576923 541.679487 327.576923 543.820513 327.576923 545.961538 327.576923 548.102564 327.576923 550.243590 327.576923 552.384615 327.576923 554.525641 327.576923 556.666667 327.576923 558.807692 327.576923 560.948718 327.576923 563.089744 327.576923 565.230769 327.576923 567.371795 327.576923 569.512821 327.576923 571.653846 327.576923 573.794872 327.576923 575.935897 327.576923 578.076923 327.576923 580.217949 327.576923 582.358974 327.576923 584.500000 327.576923 586.641026 327.576923 588.782051 327.576923 590.923077 327.576923 593.064103 327.576923 595.205128 327.576923 597.346154 327.576923 599.487179 327.576923 601.628205 327.576923 603.769231 327.576923 605.910256 327.576923 608.051282 327.576923 610.192308 327.576923 612.333333 327.576923 614.474359 327.576923 616.615385 327.576923 618.756410 327.576923 620.897436 327.576923 623.038462 327.576923 625.179487 327.576923 627.320513 327.576923 629.461538 327.576923 631.602564 327.576923 633.743590 327.576923 635.884615 327.576923 638.025641 327.576923 640.166667 327.576923 642.307692 327.576923 644.448718 327.576923 646.589744 327.576923 648.730769 327.576923 650.871795 327.576923 653.012821 327.576923 655.153846 327.576923"/></g><g class="series serie-1 color-1"><path class="line reactive nofill" d="M12.846154 327.576923 L14.987179 327.576923 17.128205 327.576923 19.269231 327.576923 21.410256 327.576923 23.551282 327.576923 25.692308 327.576923 27.833333 327.576923 29.974359 327.576923 32.115385 327.576923 34.256410 327.576923 36.397436 327.576923 38.538462 327.576923 40.679487 327.576923 42.820513 327.576923 44.961538 327.576923 47.102564 327.576923 49.243590 327.576923 51.384615 327.576923 53.525641 327.576923 55.666667 327.576923 57.807692 327.576923 59.948718 327.576923 62.089744 327.576923 64.230769 327.576923 66.371795 327.576923 68.512821 327.576923 70.653846 327.576923 72.794872 327.576923 74.935897 327.576923 77.076923 327.576923 79.217949 327.576923 81.358974 327.576923 83.500000 327.576923 85.641026 327.576923 87.782051 327.576923 89.923077 327.576923 92.064103 327.576923 94.205128 327.576923 96.346154 327.576923 98.487179 327.576923 100.628205 327.576923 102.769231 327.576923 104.910256 327.576923 107.051282 327.576923 109.192308 327.576923 111.333333 327.576923 113.474359 327.576923 115.615385 327.576923 117.756410 327.576923 119.897436 327.576923 122.038462 327.576923 124.179487 327.576923 126.320513 163.262992 128.461538 163.262992 130.602564 163.262992 132.743590 163.262992 134.884615 163.262992 137.025641 163.262992 139.166667 163.262992 141.307692 161.660631 143.448718 161.660631 145.589744 161.660631 147.730769 162.173128 149.871795 162.632329 152.012821 162.505963 154.153846 162.037849 156.294872 162.108237 158.435897 162.397738 160.576923 162.397738 162.717949 182.927722 164.858974 182.927722 167.000000 181.613963 169.141026 191.181754 171.282051 191.181754 173.423077 191.181754 175.564103 191.181754 177.705128 196.851236 179.846154 209.004451 181.987179 206.992110 184.128205 230.581450 186.269231 233.598433 188.410256 241.050084 190.551282 244.251208 192.692308 250.946175 194.833333 266.840098 196.974359 281.236668 199.115385 286.872581 201.256410 298.246184 203.397436 298.246184 205.538462 300.266420 207.679487 304.823467 209.820513 311.094321 211.961538 310.420634 214.102564 313.114903 216.243590 313.114903 218.384615 313.114903 220.525641 318.560749 222.666667 318.397803 224.807692 324.866968 226.948718 324.784834 229.089744 324.784834 231.230769 324.606722 233.371795 324.718142 235.512821 324.706834 237.653846 324.856816 239.794872 324.856816 241.935897 324.856816 244.076923 324.855021 246.217949 324.791249 248.358974 324.471416 250.500000 324.469314 252.641026 324.527745 254.782051 324.527745 256.923077 324.059691 259.064103 324.312981 261.205128 324.312981 263.346154 324.189828 265.487179 324.106172 267.628205 324.185775 269.769231 324.068797 271.910256 324.068797 274.051282 324.386096 276.192308 324.290121 278.333333 324.252359 280.474359 324.410221 282.615385 324.410221 284.756410 324.410221 286.897436 324.417535 289.038462 324.436553 291.179487 324.436553 293.320513 324.404897 295.461538 324.357554 297.602564 324.357554 299.743590 324.628294 301.884615 324.435063 304.025641 324.435063 306.166667 324.646982 308.307692 324.646982 310.448718 320.018483 312.589744 319.069299 314.730769 319.069299 316.871795 316.609553 319.012821 316.609553 321.153846 316.609553 323.294872 308.072192 325.435897 308.072192 327.576923 308.072192 329.717949 307.685859 331.858974 307.685859 334.000000 307.685859 336.141026 293.024063 338.282051 293.024063 340.423077 293.024063 342.564103 300.453385 344.705128 305.227244 346.846154 305.227244 348.987179 305.227244 351.128205 282.557863 353.269231 284.655796 355.410256 284.655796 357.551282 292.684466 359.692308 292.684466 361.833333 292.684466 363.974359 292.684466 366.115385 292.684466 368.256410 292.684466 370.397436 292.684466 372.538462 285.268534 374.679487 285.268534 376.820513 285.268534 378.961538 285.268534 381.102564 285.268534 383.243590 285.268534 385.384615 272.777594 387.525641 220.317883 389.666667 220.317883 391.807692 220.317883 393.948718 245.871344 396.089744 245.871344 398.230769 245.871344 400.371795 166.943544 402.512821 166.943544 404.653846 166.943544 406.794872 166.943544 408.935897 166.943544 411.076923 166.943544 413.217949 166.943544 415.358974 166.943544 417.500000 166.943544 419.641026 168.505609 421.782051 168.505609 423.923077 168.505609 426.064103 168.505609 428.205128 168.505609 430.346154 170.067674 432.487179 170.067674 434.628205 170.067674 436.769231 170.067674 438.910256 170.067674 441.051282 170.067674 443.192308 170.067674 445.333333 170.067674 447.474359 170.067674 449.615385 170.067674 451.756410 170.067674 453.897436 170.067674 456.038462 170.067674 458.179487 170.067674 460.320513 170.067674 462.461538 327.576923 464.602564 327.576923 466.743590 327.576923 468.884615 327.576923 471.025641 327.576923 473.166667 327.576923 475.307692 327.576923 477.448718 327.576923 479.589744 327.576923 481.730769 327.576923 483.871795 327.576923 486.012821 327.576923 488.153846 327.576923 490.294872 327.576923 492.435897 327.576923 494.576923 327.576923 496.717949 327.576923 498.858974 327.576923 501.000000 327.576923 503.141026 327.576923 505.282051 327.576923 507.423077 327.576923 509.564103 327.576923 511.705128 327.576923 513.846154 327.576923 515.987179 327.576923 518.128205 327.576923 520.269231 327.576923 522.410256 327.576923 524.551282 327.576923 526.692308 327.576923 528.833333 327.576923 530.974359 327.576923 533.115385 327.576923 535.256410 327.576923 537.397436 327.576923 539.538462 327.576923 541.679487 327.576923 543.820513 327.576923 545.961538 327.576923 548.102564 327.576923 550.243590 327.576923 552.384615 327.576923 554.525641 327.576923 556.666667 327.576923 558.807692 327.576923 560.948718 327.576923 563.089744 327.576923 565.230769 327.576923 567.371795 327.576923 569.512821 327.576923 571.653846 327.576923 573.794872 327.576923 575.935897 327.576923 578.076923 327.576923 580.217949 327.576923 582.358974 327.576923 584.500000 327.576923 586.641026 327.576923 588.782051 327.576923 590.923077 327.576923 593.064103 327.576923 595.205128 327.576923 597.346154 327.576923 599.487179 327.576923 601.628205 327.576923 603.769231 327.576923 605.910256 327.576923 608.051282 327.576923 610.192308 327.576923 612.333333 327.576923 614.474359 327.576923 616.615385 327.576923 618.756410 327.576923 620.897436 327.576923 623.038462 327.576923 625.179487 327.576923 627.320513 327.576923 629.461538 327.576923 631.602564 327.576923 633.743590 327.576923 635.884615 327.576923 638.025641 327.576923 640.166667 327.576923 642.307692 327.576923 644.448718 327.576923 646.589744 327.576923 648.730769 327.576923 650.871795 327.576923 653.012821 327.576923 655.153846 327.576923"/></g><g class="series serie-2 color-2"><path class="line reactive nofill" d="M12.846154 327.576923 L14.987179 327.576923 17.128205 327.576923 19.269231 327.576923 21.410256 327.576923 23.551282 327.576923 25.692308 327.576923 27.833333 327.576923 29.974359 327.576923 32.115385 327.576923 34.256410 327.576923 36.397436 327.576923 38.538462 327.576923 40.679487 327.576923 42.820513 327.576923 44.961538 327.576923 47.102564 327.576923 49.243590 327.576923 51.384615 327.576923 53.525641 327.576923 55.666667 327.576923 57.807692 327.576923 59.948718 327.576923 62.089744 327.576923 64.230769 327.576923 66.371795 327.576923 68.512821 327.576923 70.653846 327.576923 72.794872 327.576923 74.935897 327.576923 77.076923 327.576923 79.217949 327.576923 81.358974 327.576923 83.500000 327.576923 85.641026 327.576923 87.782051 327.576923 89.923077 327.576923 92.064103 327.576923 94.205128 327.576923 96.346154 327.576923 98.487179 327.576923 100.628205 327.576923 102.769231 327.576923 104.910256 327.576923 107.051282 327.576923 109.192308 327.576923 111.333333 327.576923 113.474359 327.576923 115.615385 327.576923 117.756410 327.576923 119.897436 327.576923 122.038462 327.576923 124.179487 327.576923 126.320513 166.768525 128.461538 166.768525 130.602564 166.768525 132.743590 166.768525 134.884615 166.768525 137.025641 166.768525 139.166667 166.768525 141.307692 246.998430 143.448718 246.998430 145.589744 246.998430 147.730769 263.052451 149.871795 273.740391 152.012821 291.625078 154.153846 298.133983 156.294872 300.534724 158.435897 302.595460 160.576923 302.595460 162.717949 307.212480 164.858974 307.212480 167.000000 308.407887 169.141026 317.769470 171.282051 317.769470 173.423077 317.769470 175.564103 317.769470 177.705128 318.770304 179.846154 319.595654 181.987179 319.926180 184.128205 327.278644 186.269231 327.276346 188.410256 327.284459 190.551282 327.285122 192.692308 327.296361 194.833333 327.271195 196.974359 327.257719 199.115385 327.272711 201.256410 327.306351 203.397436 327.306351 205.538462 327.302930 207.679487 327.291138 209.820513 327.280561 211.961538 327.342612 214.102564 327.349212 216.243590 327.349212 218.384615 327.349212 220.525641 327.354958 222.666667 327.354272 224.807692 327.357239 226.948718 327.308185 229.089744 327.308185 231.230769 327.301861 233.371795 327.276972 235.512821 327.241412 237.653846 327.248193 239.794872 327.248193 241.935897 327.248193 244.076923 327.188380 246.217949 327.199520 248.358974 318.787886 250.500000 318.344445 252.641026 319.610196 254.782051 319.610196 256.923077 319.562879 259.064103 320.803183 261.205128 320.803183 263.346154 321.485913 265.487179 321.263112 267.628205 320.221472 269.769231 321.019694 271.910256 321.019694 274.051282 316.515558 276.192308 316.163356 278.333333 315.789478 280.474359 313.062091 282.615385 313.062091 284.756410 313.062091 286.897436 313.460411 289.038462 313.051077 291.179487 313.051077 293.320513 307.733569 295.461538 305.786456 297.602564 305.786456 299.743590 301.507843 301.884615 296.592236 304.025641 296.592236 306.166667 291.495054 308.307692 291.495054 310.448718 287.032760 312.589744 277.017551 314.730769 277.017551 316.871795 273.610511 319.012821 273.610511 321.153846 273.610511 323.294872 246.886736 325.435897 246.886736 327.576923 246.886736 329.717949 220.196496 331.858974 220.196496 334.000000 220.196496 336.141026 220.202022 338.282051 220.202022 340.423077 220.202022 342.564103 206.725761 344.705128 198.689998 346.846154 198.689998 348.987179 198.689998 351.128205 193.461629 353.269231 166.756387 355.410256 166.756387 357.551282 166.784972 359.692308 166.784972 361.833333 166.784972 363.974359 166.784972 366.115385 166.784972 368.256410 166.784972 370.397436 166.784972 372.538462 166.765754 374.679487 166.765754 376.820513 166.765754 378.961538 166.765754 381.102564 166.765754 383.243590 166.765754 385.384615 166.922014 387.525641 166.710206 389.666667 166.710206 391.807692 166.710206 393.948718 166.405416 396.089744 166.405416 398.230769 166.405416 400.371795 165.911524 402.512821 165.911524 404.653846 165.911524 406.794872 165.911524 408.935897 165.911524 411.076923 165.911524 413.217949 165.911524 415.358974 165.911524 417.500000 165.911524 419.641026 166.298240 421.782051 166.298240 423.923077 166.298240 426.064103 166.298240 428.205128 166.298240 430.346154 166.684955 432.487179 166.684955 434.628205 166.684955 436.769231 166.684955 438.910256 166.684955 441.051282 166.684955 443.192308 166.684955 445.333333 166.684955 447.474359 166.684955 449.615385 166.684955 451.756410 166.684955 453.897436 166.684955 456.038462 166.684955 458.179487 166.684955 460.320513 166.684955 462.461538 327.576923 464.602564 327.576923 466.743590 327.576923 468.884615 327.576923 471.025641 327.576923 473.166667 327.576923 475.307692 327.576923 477.448718 327.576923 479.589744 327.576923 481.730769 327.576923 483.871795 327.576923 486.012821 327.576923 488.153846 327.576923 490.294872 327.576923 492.435897 327.576923 494.576923 327.576923 496.717949 327.576923 498.858974 327.576923 501.000000 327.576923 503.141026 327.576923 505.282051 327.576923 507.423077 327.576923 509.564103 327.576923 511.705128 327.576923 513.846154 327.576923 515.987179 327.576923 518.128205 327.576923 520.269231 327.576923 522.410256 327.576923 524.551282 327.576923 526.692308 327.576923 528.833333 327.576923 530.974359 327.576923 533.115385 327.576923 535.256410 327.576923 537.397436 327.576923 539.538462 327.576923 541.679487 327.576923 543.820513 327.576923 545.961538 327.576923 548.102564 327.576923 550.243590 327.576923 552.384615 327.576923 554.525641 327.576923 556.666667 327.576923 558.807692 327.576923 560.948718 327.576923 563.089744 327.576923 565.230769 327.576923 567.371795 327.576923 569.512821 327.576923 571.653846 327.576923 573.794872 327.576923 575.935897 327.576923 578.076923 327.576923 580.217949 327.576923 582.358974 327.576923 584.500000 327.576923 586.641026 327.576923 588.782051 327.576923 590.923077 327.576923 593.064103 327.576923 595.205128 327.576923 597.346154 327.576923 599.487179 327.576923 601.628205 327.576923 603.769231 327.576923 605.910256 327.576923 608.051282 327.576923 610.192308 327.576923 612.333333 327.576923 614.474359 327.576923 616.615385 327.576923 618.756410 327.576923 620.897436 327.576923 623.038462 327.576923 625.179487 327.576923 627.320513 327.576923 629.461538 327.576923 631.602564 327.576923 633.743590 327.576923 635.884615 327.576923 638.025641 327.576923 640.166667 327.576923 642.307692 327.576923 644.448718 327.576923 646.589744 327.576923 648.730769 327.576923 650.871795 327.576923 653.012821 327.576923 655.153846 327.576923"/></g><g class="series serie-3 color-3"><path class="line reactive nofill" d="M12.846154 327.576923 L14.987179 327.576923 17.128205 327.576923 19.269231 327.576923 21.410256 327.576923 23.551282 327.576923 25.692308 327.576923 27.833333 327.576923 29.974359 327.576923 32.115385 327.576923 34.256410 327.576923 36.397436 327.576923 38.538462 327.576923 40.679487 327.576923 42.820513 327.576923 44.961538 327.576923 47.102564 327.576923 49.243590 327.576923 51.384615 327.576923 53.525641 327.576923 55.666667 327.576923 57.807692 327.576923 59.948718 327.576923 62.089744 327.576923 64.230769 327.576923 66.371795 327.576923 68.512821 327.576923 70.653846 327.576923 72.794872 327.576923 74.935897 327.576923 77.076923 327.576923 79.217949 327.576923 81.358974 327.576923 83.500000 327.576923 85.641026 327.576923 87.782051 327.576923 89.923077 327.576923 92.064103 327.576923 94.205128 327.576923 96.346154 327.576923 98.487179 327.576923 100.628205 327.576923 102.769231 327.576923 104.910256 327.576923 107.051282 327.576923 109.192308 327.576923 111.333333 327.576923 113.474359 327.576923 115.615385 327.576923 117.756410 327.576923 119.897436 327.576923 122.038462 327.576923 124.179487 327.576923 126.320513 327.556449 128.461538 327.556449 130.602564 327.556449 132.743590 327.556449 134.884615 327.556449 137.025641 327.556449 139.166667 327.556449 141.307692 272.224689 143.448718 272.224689 145.589744 272.224689 147.730769 283.223654 149.871795 290.557898 152.012821 302.817592 154.153846 307.286652 156.294872 308.967145 158.435897 310.374242 160.576923 310.374242 162.717949 313.578271 164.858974 313.578271 167.000000 314.385745 169.141026 314.110316 171.282051 314.110316 173.423077 314.110316 175.564103 314.110316 177.705128 315.513444 179.846154 316.629324 181.987179 317.099345 184.128205 327.155952 186.269231 327.145407 188.410256 327.165417 190.551282 327.163163 192.692308 327.161486 194.833333 327.157859 196.974359 327.123561 199.115385 327.107894 201.256410 327.137159 203.397436 327.137159 205.538462 327.165799 207.679487 327.131548 209.820513 327.123992 211.961538 327.317167 214.102564 327.340943 216.243590 327.340943 218.384615 327.340943 220.525641 327.333016 222.666667 327.339670 224.807692 327.371248 226.948718 327.376338 229.089744 327.376338 231.230769 327.374593 233.371795 327.367870 235.512821 327.363190 237.653846 327.385245 239.794872 327.385245 241.935897 327.385245 244.076923 327.401216 246.217949 327.386495 248.358974 318.942184 250.500000 318.481551 252.641026 319.728785 254.782051 319.728785 256.923077 319.525984 259.064103 318.746811 261.205128 318.746811 263.346154 313.933035 265.487179 313.438443 267.628205 310.999850 269.769231 306.674740 271.910256 306.674740 274.051282 307.223982 276.192308 306.534466 278.333333 305.800653 280.474359 304.887194 282.615385 304.887194 284.756410 304.887194 286.897436 300.948962 289.038462 300.178315 291.179487 300.178315 293.320513 294.438531 295.461538 291.161165 297.602564 291.161165 299.743590 284.074639 301.884615 278.249589 304.025641 278.249589 306.166667 278.988147 308.307692 278.988147 310.448718 275.784919 312.589744 272.977638 314.730769 272.977638 316.871795 260.372164 319.012821 260.372164 321.153846 260.372164 323.294872 220.119940 325.435897 220.119940 327.576923 220.119940 329.717949 246.851323 331.858974 246.851323 334.000000 246.851323 336.141026 273.783027 338.282051 273.783027 340.423077 273.783027 342.564103 247.020134 344.705128 230.780366 346.846154 230.780366 348.987179 230.780366 351.128205 220.162786 353.269231 206.766244 355.410256 206.766244 357.551282 198.802251 359.692308 198.802251 361.833333 198.802251 363.974359 198.802251 366.115385 198.802251 368.256410 198.802251 370.397436 198.802251 372.538462 166.643479 374.679487 166.643479 376.820513 166.643479 378.961538 166.643479 381.102564 166.643479 383.243590 166.643479 385.384615 166.614152 387.525641 166.771087 389.666667 166.771087 391.807692 166.771087 393.948718 166.619187 396.089744 166.619187 398.230769 166.619187 400.371795 166.292095 402.512821 166.292095 404.653846 166.292095 406.794872 166.292095 408.935897 166.292095 411.076923 166.292095 413.217949 166.292095 415.358974 166.292095 417.500000 166.292095 419.641026 166.635170 421.782051 166.635170 423.923077 166.635170 426.064103 166.635170 428.205128 166.635170 430.346154 166.978246 432.487179 166.978246 434.628205 166.978246 436.769231 166.978246 438.910256 166.978246 441.051282 166.978246 443.192308 166.978246 445.333333 166.978246 447.474359 166.978246 449.615385 166.978246 451.756410 166.978246 453.897436 166.978246 456.038462 166.978246 458.179487 166.978246 460.320513 166.978246 462.461538 327.576923 464.602564 327.576923 466.743590 327.576923 468.884615 327.576923 471.025641 327.576923 473.166667 327.576923 475.307692 327.576923 477.448718 327.576923 479.589744 327.576923 481.730769 327.576923 483.871795 327.576923 486.012821 327.576923 488.153846 327.576923 490.294872 327.576923 492.435897 327.576923 494.576923 327.576923 496.717949 327.576923 498.858974 327.576923 501.000000 327.576923 503.141026 327.576923 505.282051 327.576923 507.423077 327.576923 509.564103 327.576923 511.705128 327.576923 513.846154 327.576923 515.987179 327.576923 518.128205 327.576923 520.269231 327.576923 522.410256 327.576923 524.551282 327.576923 526.692308 327.576923 528.833333 327.576923 530.974359 327.576923 533.115385 327.576923 535.256410 327.576923 537.397436 327.576923 539.538462 327.576923 541.679487 327.576923 543.820513 327.576923 545.961538 327.576923 548.102564 327.576923 550.243590 327.576923 552.384615 327.576923 554.525641 327.576923 556.666667 327.576923 558.807692 327.576923 560.948718 327.576923 563.089744 327.576923 565.230769 327.576923 567.371795 327.576923 569.512821 327.576923 571.653846 327.576923 573.794872 327.576923 575.935897 327.576923 578.076923 327.576923 580.217949 327.576923 582.358974 327.576923 584.500000 327.576923 586.641026 327.576923 588.782051 327.576923 590.923077 327.576923 593.064103 327.576923 595.205128 327.576923 597.346154 327.576923 599.487179 327.576923 601.628205 327.576923 603.769231 327.576923 605.910256 327.576923 608.051282 327.576923 610.192308 327.576923 612.333333 327.576923 614.474359 327.576923 616.615385 327.576923 618.756410 327.576923 620.897436 327.576923 623.038462 327.576923 625.179487 327.576923 627.320513 327.576923 629.461538 327.576923 631.602564 327.576923 633.743590 327.576923 635.884615 327.576923 638.025641 327.576923 640.166667 327.576923 642.307692 327.576923 644.448718 327.576923 646.589744 327.576923 648.730769 327.576923 650.871795 327.576923 653.012821 327.576923 655.153846 327.576923"/></g><g class="series serie-4 color-4"><path class="line reactive nofill" d="M12.846154 327.576923 L14.987179 327.576923 17.128205 327.576923 19.269231 327.576923 21.410256 327.576923 23.551282 327.576923 25.692308 327.576923 27.833333 327.576923 29.974359 327.576923 32.115385 327.576923 34.256410 327.576923 36.397436 327.576923 38.538462 327.576923 40.679487 327.576923 42.820513 327.576923 44.961538 327.576923 47.102564 327.576923 49.243590 327.576923 51.384615 327.576923 53.525641 327.576923 55.666667 327.576923 57.807692 327.576923 59.948718 327.576923 62.089744 327.576923 64.230769 327.576923 66.371795 327.576923 68.512821 327.576923 70.653846 327.576923 72.794872 327.576923 74.935897 327.576923 77.076923 327.576923 79.217949 327.576923 81.358974 327.576923 83.500000 327.576923 85.641026 327.576923 87.782051 327.576923 89.923077 327.576923 92.064103 327.576923 94.205128 327.576923 96.346154 327.576923 98.487179 327.576923 100.628205 327.576923 102.769231 327.576923 104.910256 327.576923 107.051282 327.576923 109.192308 327.576923 111.333333 327.576923 113.474359 327.576923 115.615385 327.576923 117.756410 327.576923 119.897436 327.576923 122.038462 327.576923 124.179487 327.576923 126.320513 167.053178 128.461538 167.053178 130.602564 167.053178 132.743590 167.053178 134.884615 167.053178 137.025641 167.053178 139.166667 167.053178 141.307692 247.216543 143.448718 247.216543 145.589744 247.216543 147.730769 263.242148 149.871795 273.864951 152.012821 273.858636 154.153846 254.402617 156.294872 260.480228 158.435897 265.626095 160.576923 265.626095 162.717949 247.133504 164.858974 247.133504 167.000000 251.849494 169.141026 251.840159 171.282051 251.840159 173.423077 251.840159 175.564103 251.840159 177.705128 259.795688 179.846154 266.227901 181.987179 268.988896 184.128205 280.523618 186.269231 278.479903 188.410256 282.401094 190.551282 280.528449 192.692308 280.541286 194.833333 282.412698 196.974359 298.163392 199.115385 296.774318 201.256410 300.602051 203.397436 300.602051 205.538462 302.675368 207.679487 320.661980 209.820513 320.373139 211.961538 327.349442 214.102564 327.363988 216.243590 327.363988 218.384615 327.363988 220.525641 327.359691 222.666667 327.358811 224.807692 327.375738 226.948718 327.391325 229.089744 327.391325 231.230769 327.381918 233.371795 327.374877 235.512821 327.365929 237.653846 327.378675 239.794872 327.378675 241.935897 327.378675 244.076923 327.375528 246.217949 327.362319 248.358974 318.932000 250.500000 318.465734 252.641026 319.718822 254.782051 319.718822 256.923077 319.645149 259.064103 320.906646 261.205128 320.906646 263.346154 321.599536 265.487179 321.388888 267.628205 320.347684 269.769231 321.131863 271.910256 321.131863 274.051282 321.958803 276.192308 321.777384 278.333333 321.587961 280.474359 322.595995 282.615385 322.595995 284.756410 322.595995 286.897436 322.735015 289.038462 322.605134 291.179487 322.605134 293.320513 317.533616 295.461538 316.563243 297.602564 316.563243 299.743590 314.452178 301.884615 311.961260 304.025641 311.961260 306.166667 309.392533 308.307692 309.392533 310.448718 303.192029 312.589744 297.191685 314.730769 297.191685 316.871795 287.144276 319.012821 287.144276 321.153846 287.144276 323.294872 246.988398 325.435897 246.988398 327.576923 246.988398 329.717949 246.984337 331.858974 246.984337 334.000000 246.984337 336.141026 274.070777 338.282051 274.070777 340.423077 274.070777 342.564103 247.207940 344.705128 231.064456 346.846154 231.064456 348.987179 231.064456 351.128205 220.417657 353.269231 206.932739 355.410256 206.932739 357.551282 198.913966 359.692308 198.913966 361.833333 198.913966 363.974359 198.913966 366.115385 198.913966 368.256410 198.913966 370.397436 198.913966 372.538462 166.783121 374.679487 166.783121 376.820513 166.783121 378.961538 166.783121 381.102564 166.783121 383.243590 166.783121 385.384615 166.837685 387.525641 166.804629 389.666667 166.804629 391.807692 166.804629 393.948718 166.615111 396.089744 166.615111 398.230769 166.615111 400.371795 166.391349 402.512821 166.391349 404.653846 166.391349 406.794872 166.391349 408.935897 166.391349 411.076923 166.391349 413.217949 166.391349 415.358974 166.391349 417.500000 166.391349 419.641026 166.684797 421.782051 166.684797 423.923077 166.684797 426.064103 166.684797 428.205128 166.684797 430.346154 166.978246 432.487179 166.978246 434.628205 166.978246 436.769231 166.978246 438.910256 166.978246 441.051282 166.978246 443.192308 166.978246 445.333333 166.978246 447.474359 166.978246 449.615385 166.978246 451.756410 166.978246 453.897436 166.978246 456.038462 166.978246 458.179487 166.978246 460.320513 166.978246 462.461538 327.576923 464.602564 327.576923 466.743590 327.576923 468.884615 327.576923 471.025641 327.576923 473.166667 327.576923 475.307692 327.576923 477.448718 327.576923 479.589744 327.576923 481.730769 327.576923 483.871795 327.576923 486.012821 327.576923 488.153846 327.576923 490.294872 327.576923 492.435897 327.576923 494.576923 327.576923 496.717949 327.576923 498.858974 327.576923 501.000000 327.576923 503.141026 327.576923 505.282051 327.576923 507.423077 327.576923 509.564103 327.576923 511.705128 327.576923 513.846154 327.576923 515.987179 327.576923 518.128205 327.576923 520.269231 327.576923 522.410256 327.576923 524.551282 327.576923 526.692308 327.576923 528.833333 327.576923 530.974359 327.576923 533.115385 327.576923 535.256410 327.576923 537.397436 327.576923 539.538462 327.576923 541.679487 327.576923 543.820513 327.576923 545.961538 327.576923 548.102564 327.576923 550.243590 327.576923 552.384615 327.576923 554.525641 327.576923 556.666667 327.576923 558.807692 327.576923 560.948718 327.576923 563.089744 327.576923 565.230769 327.576923 567.371795 327.576923 569.512821 327.576923 571.653846 327.576923 573.794872 327.576923 575.935897 327.576923 578.076923 327.576923 580.217949 327.576923 582.358974 327.576923 584.500000 327.576923 586.641026 327.576923 588.782051 327.576923 590.923077 327.576923 593.064103 327.576923 595.205128 327.576923 597.346154 327.576923 599.487179 327.576923 601.628205 327.576923 603.769231 327.576923 605.910256 327.576923 608.051282 327.576923 610.192308 327.576923 612.333333 327.576923 614.474359 327.576923 616.615385 327.576923 618.756410 327.576923 620.897436 327.576923 623.038462 327.576923 625.179487 327.576923 627.320513 327.576923 629.461538 327.576923 631.602564 327.576923 633.743590 327.576923 635.884615 327.576923 638.025641 327.576923 640.166667 327.576923 642.307692 327.576923 644.448718 327.576923 646.589744 327.576923 648.730769 327.576923 650.871795 327.576923 653.012821 327.576923 655.153846 327.576923"/></g><g class="series serie-5 color-5"><path class="line reactive nofill" d="M12.846154 327.576923 L14.987179 327.576923 17.128205 327.576923 19.269231 327.576923 21.410256 327.576923 23.551282 327.576923 25.692308 327.576923 27.833333 327.576923 29.974359 327.576923 32.115385 327.576923 34.256410 327.576923 36.397436 327.576923 38.538462 327.576923 40.679487 327.576923 42.820513 327.576923 44.961538 327.576923 47.102564 327.576923 49.243590 327.576923 51.384615 327.576923 53.525641 327.576923 55.666667 327.576923 57.807692 327.576923 59.948718 327.576923 62.089744 327.576923 64.230769 327.576923 66.371795 327.576923 68.512821 327.576923 70.653846 327.576923 72.794872 327.576923 74.935897 327.576923 77.076923 327.576923 79.217949 327.576923 81.358974 327.576923 83.500000 327.576923 85.641026 327.576923 87.782051 327.576923 89.923077 327.576923 92.064103 327.576923 94.205128 327.576923 96.346154 327.576923 98.487179 327.576923 100.628205 327.576923 102.769231 327.576923 104.910256 327.576923 107.051282 327.576923 109.192308 327.576923 111.333333 327.576923 113.474359 327.576923 115.615385 327.576923 117.756410 327.576923 119.897436 327.576923 122.038462 327.576923 124.179487 327.576923 126.320513 167.053178 128.461538 167.053178 130.602564 167.053178 132.743590 167.053178 134.884615 167.053178 137.025641 167.053178 139.166667 167.053178 141.307692 247.216543 143.448718 247.216543 145.589744 247.216543 147.730769 263.242148 149.871795 273.864951 152.012821 273.858636 154.153846 254.402617 156.294872 260.480228 158.435897 265.626095 160.576923 265.626095 162.717949 247.133504 164.858974 247.133504 167.000000 251.849494 169.141026 251.840159 171.282051 251.840159 173.423077 251.840159 175.564103 251.840159 177.705128 259.795688 179.846154 266.227901 181.987179 268.988896 184.128205 280.523618 186.269231 278.479903 188.410256 282.401094 190.551282 280.528449 192.692308 280.541286 194.833333 282.412698 196.974359 298.163392 199.115385 296.774318 201.256410 300.602051 203.397436 300.602051 205.538462 302.675368 207.679487 320.661980 209.820513 320.373139 211.961538 327.349442 214.102564 327.363988 216.243590 327.363988 218.384615 327.363988 220.525641 327.359691 222.666667 327.358811 224.807692 327.375738 226.948718 327.391325 229.089744 327.391325 231.230769 327.381918 233.371795 327.374877 235.512821 327.365929 237.653846 327.378675 239.794872 327.378675 241.935897 327.378675 244.076923 327.375528 246.217949 327.362319 248.358974 318.932000 250.500000 318.465734 252.641026 319.718822 254.782051 319.718822 256.923077 319.645149 259.064103 320.906646 261.205128 320.906646 263.346154 321.599536 265.487179 321.388888 267.628205 320.347684 269.769231 321.131863 271.910256 321.131863 274.051282 321.958803 276.192308 321.777384 278.333333 321.587961 280.474359 322.595995 282.615385 322.595995 284.756410 322.595995 286.897436 322.735015 289.038462 322.605134 291.179487 322.605134 293.320513 317.533616 295.461538 316.563243 297.602564 316.563243 299.743590 314.452178 301.884615 311.961260 304.025641 311.961260 306.166667 309.392533 308.307692 309.392533 310.448718 303.192029 312.589744 297.191685 314.730769 297.191685 316.871795 287.144276 319.012821 287.144276 321.153846 287.144276 323.294872 246.988398 325.435897 246.988398 327.576923 246.988398 329.717949 246.984337 331.858974 246.984337 334.000000 246.984337 336.141026 274.070777 338.282051 274.070777 340.423077 274.070777 342.564103 247.207940 344.705128 231.064456 346.846154 231.064456 348.987179 231.064456 351.128205 220.417657 353.269231 206.932739 355.410256 206.932739 357.551282 198.913966 359.692308 198.913966 361.833333 198.913966 363.974359 198.913966 366.115385 198.913966 368.256410 198.913966 370.397436 198.913966 372.538462 166.783121 374.679487 166.783121 376.820513 166.783121 378.961538 166.783121 381.102564 166.783121 383.243590 166.783121 385.384615 166.837685 387.525641 166.804629 389.666667 166.804629 391.807692 166.804629 393.948718 166.615111 396.089744 166.615111 398.230769 166.615111 400.371795 166.391349 402.512821 166.391349 404.653846 166.391349 406.794872 166.391349 408.935897 166.391349 411.076923 166.391349 413.217949 166.391349 415.358974 166.391349 417.500000 166.391349 419.641026 166.684797 421.782051 166.684797 423.923077 166.684797 426.064103 166.684797 428.205128 166.684797 430.346154 166.978246 432.487179 166.978246 434.628205 166.978246 436.769231 166.978246 438.910256 166.978246 441.051282 166.978246 443.192308 166.978246 445.333333 166.978246 447.474359 166.978246 449.615385 166.978246 451.756410 166.978246 453.897436 166.978246 456.038462 166.978246 458.179487 166.978246 460.320513 166.978246 462.461538 327.576923 464.602564 327.576923 466.743590 327.576923 468.884615 327.576923 471.025641 327.576923 473.166667 327.576923 475.307692 327.576923 477.448718 327.576923 479.589744 327.576923 481.730769 327.576923 483.871795 327.576923 486.012821 327.576923 488.153846 327.576923 490.294872 327.576923 492.435897 327.576923 494.576923 327.576923 496.717949 327.576923 498.858974 327.576923 501.000000 327.576923 503.141026 327.576923 505.282051 327.576923 507.423077 327.576923 509.564103 327.576923 511.705128 327.576923 513.846154 327.576923 515.987179 327.576923 518.128205 327.576923 520.269231 327.576923 522.410256 327.576923 524.551282 327.576923 526.692308 327.576923 528.833333 327.576923 530.974359 327.576923 533.115385 327.576923 535.256410 327.576923 537.397436 327.576923 539.538462 327.576923 541.679487 327.576923 543.820513 327.576923 545.961538 327.576923 548.102564 327.576923 550.243590 327.576923 552.384615 327.576923 554.525641 327.576923 556.666667 327.576923 558.807692 327.576923 560.948718 327.576923 563.089744 327.576923 565.230769 327.576923 567.371795 327.576923 569.512821 327.576923 571.653846 327.576923 573.794872 327.576923 575.935897 327.576923 578.076923 327.576923 580.217949 327.576923 582.358974 327.576923 584.500000 327.576923 586.641026 327.576923 588.782051 327.576923 590.923077 327.576923 593.064103 327.576923 595.205128 327.576923 597.346154 327.576923 599.487179 327.576923 601.628205 327.576923 603.769231 327.576923 605.910256 327.576923 608.051282 327.576923 610.192308 327.576923 612.333333 327.576923 614.474359 327.576923 616.615385 327.576923 618.756410 327.576923 620.897436 327.576923 623.038462 327.576923 625.179487 327.576923 627.320513 327.576923 629.461538 327.576923 631.602564 327.576923 633.743590 327.576923 635.884615 327.576923 638.025641 327.576923 640.166667 327.576923 642.307692 327.576923 644.448718 327.576923 646.589744 327.576923 648.730769 327.576923 650.871795 327.576923 653.012821 327.576923 655.153846 327.576923"/></g></g><g class="titles"><text class="title plot_title" x="400.0" y="28">Mean AOE1 for Tempo T ±10.0 BPM</text><text class="title" x="446.0" y="465.0">T (BPM)</text><text class="title" x="0" y="243.0" transform="rotate(-90 0.000000 215.000000)">Mean AOE1 (TO)</text></g><g class="plot overlay" transform="translate(112, 48)"><g class="series serie-0 color-0"><g class="dots"><circle class="dot reactive tooltip-trigger" cx="12.846153846153845" cy="327.5769230769231" r="2.5"/><desc class="value">0.0000</desc><desc class="x top">12.846153846153845</desc><desc class="y top">327.5769230769231</desc><desc class="x_label">0.0</desc></g><g class="dots"><circle class="dot reactive tooltip-trigger" cx="77.07692307692308" cy="327.5769230769231" r="2.5"/><desc class="value">0.0000</desc><desc class="x top">77.07692307692308</desc><desc class="y top">327.5769230769231</desc><desc class="x_label">30.0</desc></g><g class="dots"><circle class="dot reactive tooltip-trigger" cx="141.30769230769232" cy="326.907944733856" r="2.5"/><desc class="value">0.0042</desc><desc class="x top">141.30769230769232</desc><desc class="y top">326.907944733856</desc><desc class="x_label">60.0</desc></g><g class="dots"><circle class="dot reactive tooltip-trigger" cx="205.53846153846152" cy="296.2401078918187" r="2.5"/><desc class="value">0.1952</desc><desc class="x top">205.53846153846152</desc><desc class="y top">296.2401078918187</desc><desc class="x_label">90.0</desc></g><g class="dots"><circle class="dot reactive tooltip-trigger" cx="269.7692307692308" cy="261.7155432850828" r="2.5"/><desc class="value">0.4102</desc><desc class="x top">269.7692307692308</desc><desc class="y top">261.7155432850828</desc><desc class="x_label">120.0</desc></g><g class="dots"><circle class="dot reactive tooltip-trigger" cx="334.0" cy="247.08812748384435" r="2.5"/><desc class="value">0.5012</desc><desc class="x top">334.0</desc><desc class="y top">247.08812748384435</desc><desc class="x_label">150.0</desc></g><g class="dots"><circle class="dot reactive tooltip-trigger" cx="398.2307692307692" cy="246.46596317956102" r="2.5"/><desc class="value">0.5051</desc><desc class="x left top">398.2307692307692</desc><desc class="y left top">246.46596317956102</desc><desc class="x_label">180.0</desc></g><g class="dots"><circle class="dot reactive tooltip-trigger" cx="462.46153846153845" cy="327.5769230769231" r="2.5"/><desc class="value">0.0000</desc><desc class="x left top">462.46153846153845</desc><desc class="y left top">327.5769230769231</desc><desc class="x_label">210.0</desc></g><g class="dots"><circle class="dot reactive tooltip-trigger" cx="526.6923076923076" cy="327.5769230769231" r="2.5"/><desc class="value">0.0000</desc><desc class="x left top">526.6923076923076</desc><desc class="y left top">327.5769230769231</desc><desc class="x_label">240.0</desc></g><g class="dots"><circle class="dot reactive tooltip-trigger" cx="590.9230769230769" cy="327.5769230769231" r="2.5"/><desc class="value">0.0000</desc><desc class="x left top">590.9230769230769</desc><desc class="y left top">327.5769230769231</desc><desc class="x_label">270.0</desc></g><g class="dots"><circle class="dot reactive tooltip-trigger" cx="655.1538461538462" cy="327.5769230769231" r="2.5"/><desc class="value">0.0000</desc><desc class="x left top">655.1538461538462</desc><desc class="y left top">327.5769230769231</desc><desc class="x_label">300.0</desc></g></g><g class="series serie-1 color-1"><g class="dots"><circle class="dot reactive tooltip-trigger" cx="12.846153846153845" cy="327.5769230769231" r="2.5"/><desc class="value">0.0000</desc><desc class="x top">12.846153846153845</desc><desc class="y top">327.5769230769231</desc><desc class="x_label">0.0</desc></g><g class="dots"><circle class="dot reactive tooltip-trigger" cx="77.07692307692308" cy="327.5769230769231" r="2.5"/><desc class="value">0.0000</desc><desc class="x top">77.07692307692308</desc><desc class="y top">327.5769230769231</desc><desc class="x_label">30.0</desc></g><g class="dots"><circle class="dot reactive tooltip-trigger" cx="141.30769230769232" cy="161.6606309375271" r="2.5"/><desc class="value">1.0333</desc><desc class="x ">141.30769230769232</desc><desc class="y ">161.6606309375271</desc><desc class="x_label">60.0</desc></g><g class="dots"><circle class="dot reactive tooltip-trigger" cx="205.53846153846152" cy="300.2664202297347" r="2.5"/><desc class="value">0.1701</desc><desc class="x top">205.53846153846152</desc><desc class="y top">300.2664202297347</desc><desc class="x_label">90.0</desc></g><g class="dots"><circle class="dot reactive tooltip-trigger" cx="269.7692307692308" cy="324.0687969182942" r="2.5"/><desc class="value">0.0218</desc><desc class="x top">269.7692307692308</desc><desc class="y top">324.0687969182942</desc><desc class="x_label">120.0</desc></g><g class="dots"><circle class="dot reactive tooltip-trigger" cx="334.0" cy="307.68585905962124" r="2.5"/><desc class="value">0.1239</desc><desc class="x top">334.0</desc><desc class="y top">307.68585905962124</desc><desc class="x_label">150.0</desc></g><g class="dots"><circle class="dot reactive tooltip-trigger" cx="398.2307692307692" cy="245.87134430470076" r="2.5"/><desc class="value">0.5088</desc><desc class="x left top">398.2307692307692</desc><desc class="y left top">245.87134430470076</desc><desc class="x_label">180.0</desc></g><g class="dots"><circle class="dot reactive tooltip-trigger" cx="462.46153846153845" cy="327.5769230769231" r="2.5"/><desc class="value">0.0000</desc><desc class="x left top">462.46153846153845</desc><desc class="y left top">327.5769230769231</desc><desc class="x_label">210.0</desc></g><g class="dots"><circle class="dot reactive tooltip-trigger" cx="526.6923076923076" cy="327.5769230769231" r="2.5"/><desc class="value">0.0000</desc><desc class="x left top">526.6923076923076</desc><desc class="y left top">327.5769230769231</desc><desc class="x_label">240.0</desc></g><g class="dots"><circle class="dot reactive tooltip-trigger" cx="590.9230769230769" cy="327.5769230769231" r="2.5"/><desc class="value">0.0000</desc><desc class="x left top">590.9230769230769</desc><desc class="y left top">327.5769230769231</desc><desc class="x_label">270.0</desc></g><g class="dots"><circle class="dot reactive tooltip-trigger" cx="655.1538461538462" cy="327.5769230769231" r="2.5"/><desc class="value">0.0000</desc><desc class="x left top">655.1538461538462</desc><desc class="y left top">327.5769230769231</desc><desc class="x_label">300.0</desc></g></g><g class="series serie-2 color-2"><g class="dots"><circle class="dot reactive tooltip-trigger" cx="12.846153846153845" cy="327.5769230769231" r="2.5"/><desc class="value">0.0000</desc><desc class="x top">12.846153846153845</desc><desc class="y top">327.5769230769231</desc><desc class="x_label">0.0</desc></g><g class="dots"><circle class="dot reactive tooltip-trigger" cx="77.07692307692308" cy="327.5769230769231" r="2.5"/><desc class="value">0.0000</desc><desc class="x top">77.07692307692308</desc><desc class="y top">327.5769230769231</desc><desc class="x_label">30.0</desc></g><g class="dots"><circle class="dot reactive tooltip-trigger" cx="141.30769230769232" cy="246.9984298262464" r="2.5"/><desc class="value">0.5018</desc><desc class="x top">141.30769230769232</desc><desc class="y top">246.9984298262464</desc><desc class="x_label">60.0</desc></g><g class="dots"><circle class="dot reactive tooltip-trigger" cx="205.53846153846152" cy="327.30293005600686" r="2.5"/><desc class="value">0.0017</desc><desc class="x top">205.53846153846152</desc><desc class="y top">327.30293005600686</desc><desc class="x_label">90.0</desc></g><g class="dots"><circle class="dot reactive tooltip-trigger" cx="269.7692307692308" cy="321.01969407717473" r="2.5"/><desc class="value">0.0408</desc><desc class="x top">269.7692307692308</desc><desc class="y top">321.01969407717473</desc><desc class="x_label">120.0</desc></g><g class="dots"><circle class="dot reactive tooltip-trigger" cx="334.0" cy="220.19649604356962" r="2.5"/><desc class="value">0.6687</desc><desc class="x top">334.0</desc><desc class="y top">220.19649604356962</desc><desc class="x_label">150.0</desc></g><g class="dots"><circle class="dot reactive tooltip-trigger" cx="398.2307692307692" cy="166.40541641031257" r="2.5"/><desc class="value">1.0037</desc><desc class="x left">398.2307692307692</desc><desc class="y left">166.40541641031257</desc><desc class="x_label">180.0</desc></g><g class="dots"><circle class="dot reactive tooltip-trigger" cx="462.46153846153845" cy="327.5769230769231" r="2.5"/><desc class="value">0.0000</desc><desc class="x left top">462.46153846153845</desc><desc class="y left top">327.5769230769231</desc><desc class="x_label">210.0</desc></g><g class="dots"><circle class="dot reactive tooltip-trigger" cx="526.6923076923076" cy="327.5769230769231" r="2.5"/><desc class="value">0.0000</desc><desc class="x left top">526.6923076923076</desc><desc class="y left top">327.5769230769231</desc><desc class="x_label">240.0</desc></g><g class="dots"><circle class="dot reactive tooltip-trigger" cx="590.9230769230769" cy="327.5769230769231" r="2.5"/><desc class="value">0.0000</desc><desc class="x left top">590.9230769230769</desc><desc class="y left top">327.5769230769231</desc><desc class="x_label">270.0</desc></g><g class="dots"><circle class="dot reactive tooltip-trigger" cx="655.1538461538462" cy="327.5769230769231" r="2.5"/><desc class="value">0.0000</desc><desc class="x left top">655.1538461538462</desc><desc class="y left top">327.5769230769231</desc><desc class="x_label">300.0</desc></g></g><g class="series serie-3 color-3"><g class="dots"><circle class="dot reactive tooltip-trigger" cx="12.846153846153845" cy="327.5769230769231" r="2.5"/><desc class="value">0.0000</desc><desc class="x top">12.846153846153845</desc><desc class="y top">327.5769230769231</desc><desc class="x_label">0.0</desc></g><g class="dots"><circle class="dot reactive tooltip-trigger" cx="77.07692307692308" cy="327.5769230769231" r="2.5"/><desc class="value">0.0000</desc><desc class="x top">77.07692307692308</desc><desc class="y top">327.5769230769231</desc><desc class="x_label">30.0</desc></g><g class="dots"><circle class="dot reactive tooltip-trigger" cx="141.30769230769232" cy="272.22468908772316" r="2.5"/><desc class="value">0.3447</desc><desc class="x top">141.30769230769232</desc><desc class="y top">272.22468908772316</desc><desc class="x_label">60.0</desc></g><g class="dots"><circle class="dot reactive tooltip-trigger" cx="205.53846153846152" cy="327.1657988762922" r="2.5"/><desc class="value">0.0026</desc><desc class="x top">205.53846153846152</desc><desc class="y top">327.1657988762922</desc><desc class="x_label">90.0</desc></g><g class="dots"><circle class="dot reactive tooltip-trigger" cx="269.7692307692308" cy="306.67473962451925" r="2.5"/><desc class="value">0.1302</desc><desc class="x top">269.7692307692308</desc><desc class="y top">306.67473962451925</desc><desc class="x_label">120.0</desc></g><g class="dots"><circle class="dot reactive tooltip-trigger" cx="334.0" cy="246.85132257960237" r="2.5"/><desc class="value">0.5027</desc><desc class="x top">334.0</desc><desc class="y top">246.85132257960237</desc><desc class="x_label">150.0</desc></g><g class="dots"><circle class="dot reactive tooltip-trigger" cx="398.2307692307692" cy="166.6191874238654" r="2.5"/><desc class="value">1.0024</desc><desc class="x left">398.2307692307692</desc><desc class="y left">166.6191874238654</desc><desc class="x_label">180.0</desc></g><g class="dots"><circle class="dot reactive tooltip-trigger" cx="462.46153846153845" cy="327.5769230769231" r="2.5"/><desc class="value">0.0000</desc><desc class="x left top">462.46153846153845</desc><desc class="y left top">327.5769230769231</desc><desc class="x_label">210.0</desc></g><g class="dots"><circle class="dot reactive tooltip-trigger" cx="526.6923076923076" cy="327.5769230769231" r="2.5"/><desc class="value">0.0000</desc><desc class="x left top">526.6923076923076</desc><desc class="y left top">327.5769230769231</desc><desc class="x_label">240.0</desc></g><g class="dots"><circle class="dot reactive tooltip-trigger" cx="590.9230769230769" cy="327.5769230769231" r="2.5"/><desc class="value">0.0000</desc><desc class="x left top">590.9230769230769</desc><desc class="y left top">327.5769230769231</desc><desc class="x_label">270.0</desc></g><g class="dots"><circle class="dot reactive tooltip-trigger" cx="655.1538461538462" cy="327.5769230769231" r="2.5"/><desc class="value">0.0000</desc><desc class="x left top">655.1538461538462</desc><desc class="y left top">327.5769230769231</desc><desc class="x_label">300.0</desc></g></g><g class="series serie-4 color-4"><g class="dots"><circle class="dot reactive tooltip-trigger" cx="12.846153846153845" cy="327.5769230769231" r="2.5"/><desc class="value">0.0000</desc><desc class="x top">12.846153846153845</desc><desc class="y top">327.5769230769231</desc><desc class="x_label">0.0</desc></g><g class="dots"><circle class="dot reactive tooltip-trigger" cx="77.07692307692308" cy="327.5769230769231" r="2.5"/><desc class="value">0.0000</desc><desc class="x top">77.07692307692308</desc><desc class="y top">327.5769230769231</desc><desc class="x_label">30.0</desc></g><g class="dots"><circle class="dot reactive tooltip-trigger" cx="141.30769230769232" cy="247.2165426710729" r="2.5"/><desc class="value">0.5004</desc><desc class="x top">141.30769230769232</desc><desc class="y top">247.2165426710729</desc><desc class="x_label">60.0</desc></g><g class="dots"><circle class="dot reactive tooltip-trigger" cx="205.53846153846152" cy="302.67536793966354" r="2.5"/><desc class="value">0.1551</desc><desc class="x top">205.53846153846152</desc><desc class="y top">302.67536793966354</desc><desc class="x_label">90.0</desc></g><g class="dots"><circle class="dot reactive tooltip-trigger" cx="269.7692307692308" cy="321.13186262300474" r="2.5"/><desc class="value">0.0401</desc><desc class="x top">269.7692307692308</desc><desc class="y top">321.13186262300474</desc><desc class="x_label">120.0</desc></g><g class="dots"><circle class="dot reactive tooltip-trigger" cx="334.0" cy="246.98433688953844" r="2.5"/><desc class="value">0.5019</desc><desc class="x top">334.0</desc><desc class="y top">246.98433688953844</desc><desc class="x_label">150.0</desc></g><g class="dots"><circle class="dot reactive tooltip-trigger" cx="398.2307692307692" cy="166.61511061901933" r="2.5"/><desc class="value">1.0024</desc><desc class="x left">398.2307692307692</desc><desc class="y left">166.61511061901933</desc><desc class="x_label">180.0</desc></g><g class="dots"><circle class="dot reactive tooltip-trigger" cx="462.46153846153845" cy="327.5769230769231" r="2.5"/><desc class="value">0.0000</desc><desc class="x left top">462.46153846153845</desc><desc class="y left top">327.5769230769231</desc><desc class="x_label">210.0</desc></g><g class="dots"><circle class="dot reactive tooltip-trigger" cx="526.6923076923076" cy="327.5769230769231" r="2.5"/><desc class="value">0.0000</desc><desc class="x left top">526.6923076923076</desc><desc class="y left top">327.5769230769231</desc><desc class="x_label">240.0</desc></g><g class="dots"><circle class="dot reactive tooltip-trigger" cx="590.9230769230769" cy="327.5769230769231" r="2.5"/><desc class="value">0.0000</desc><desc class="x left top">590.9230769230769</desc><desc class="y left top">327.5769230769231</desc><desc class="x_label">270.0</desc></g><g class="dots"><circle class="dot reactive tooltip-trigger" cx="655.1538461538462" cy="327.5769230769231" r="2.5"/><desc class="value">0.0000</desc><desc class="x left top">655.1538461538462</desc><desc class="y left top">327.5769230769231</desc><desc class="x_label">300.0</desc></g></g><g class="series serie-5 color-5"><g class="dots"><circle class="dot reactive tooltip-trigger" cx="12.846153846153845" cy="327.5769230769231" r="2.5"/><desc class="value">0.0000</desc><desc class="x top">12.846153846153845</desc><desc class="y top">327.5769230769231</desc><desc class="x_label">0.0</desc></g><g class="dots"><circle class="dot reactive tooltip-trigger" cx="77.07692307692308" cy="327.5769230769231" r="2.5"/><desc class="value">0.0000</desc><desc class="x top">77.07692307692308</desc><desc class="y top">327.5769230769231</desc><desc class="x_label">30.0</desc></g><g class="dots"><circle class="dot reactive tooltip-trigger" cx="141.30769230769232" cy="247.2165426710729" r="2.5"/><desc class="value">0.5004</desc><desc class="x top">141.30769230769232</desc><desc class="y top">247.2165426710729</desc><desc class="x_label">60.0</desc></g><g class="dots"><circle class="dot reactive tooltip-trigger" cx="205.53846153846152" cy="302.67536793966354" r="2.5"/><desc class="value">0.1551</desc><desc class="x top">205.53846153846152</desc><desc class="y top">302.67536793966354</desc><desc class="x_label">90.0</desc></g><g class="dots"><circle class="dot reactive tooltip-trigger" cx="269.7692307692308" cy="321.13186262300474" r="2.5"/><desc class="value">0.0401</desc><desc class="x top">269.7692307692308</desc><desc class="y top">321.13186262300474</desc><desc class="x_label">120.0</desc></g><g class="dots"><circle class="dot reactive tooltip-trigger" cx="334.0" cy="246.98433688953844" r="2.5"/><desc class="value">0.5019</desc><desc class="x top">334.0</desc><desc class="y top">246.98433688953844</desc><desc class="x_label">150.0</desc></g><g class="dots"><circle class="dot reactive tooltip-trigger" cx="398.2307692307692" cy="166.61511061901933" r="2.5"/><desc class="value">1.0024</desc><desc class="x left">398.2307692307692</desc><desc class="y left">166.61511061901933</desc><desc class="x_label">180.0</desc></g><g class="dots"><circle class="dot reactive tooltip-trigger" cx="462.46153846153845" cy="327.5769230769231" r="2.5"/><desc class="value">0.0000</desc><desc class="x left top">462.46153846153845</desc><desc class="y left top">327.5769230769231</desc><desc class="x_label">210.0</desc></g><g class="dots"><circle class="dot reactive tooltip-trigger" cx="526.6923076923076" cy="327.5769230769231" r="2.5"/><desc class="value">0.0000</desc><desc class="x left top">526.6923076923076</desc><desc class="y left top">327.5769230769231</desc><desc class="x_label">240.0</desc></g><g class="dots"><circle class="dot reactive tooltip-trigger" cx="590.9230769230769" cy="327.5769230769231" r="2.5"/><desc class="value">0.0000</desc><desc class="x left top">590.9230769230769</desc><desc class="y left top">327.5769230769231</desc><desc class="x_label">270.0</desc></g><g class="dots"><circle class="dot reactive tooltip-trigger" cx="655.1538461538462" cy="327.5769230769231" r="2.5"/><desc class="value">0.0000</desc><desc class="x left top">655.1538461538462</desc><desc class="y left top">327.5769230769231</desc><desc class="x_label">300.0</desc></g></g></g><g class="plot text-overlay" transform="translate(112, 48)"><g class="series serie-0 color-0"/><g class="series serie-1 color-1"/><g class="series serie-2 color-2"/><g class="series serie-3 color-3"/><g class="series serie-4 color-4"/><g class="series serie-5 color-5"/></g><g class="plot tooltip-overlay" transform="translate(112, 48)"><g class="tooltip" style="opacity: 0" transform="translate(0 0)"><rect class="tooltip-box" height="0" rx="0" ry="0" width="0"/><g class="text"/></g></g><g class="legends" transform="translate(122, 485)"><g class="legend reactive activate-serie" id="activate-serie-0"><rect class="color-0 reactive" height="12" width="12" x="0.0" y="1.5"/><text x="17.0" y="12.0">boeck2015/tempodetector2016_default</text></g><g class="legend reactive activate-serie" id="activate-serie-1"><rect class="color-1 reactive" height="12" width="12" x="334.0" y="1.5"/><text x="351.0" y="12.0">davies2009/mirex_qm_tempotracker</text></g><g class="legend reactive activate-serie" id="activate-serie-2"><rect class="color-2 reactive" height="12" width="12" x="0.0" y="24.0"/><text x="17.0" y="34.5">percival2014/stem</text></g><g class="legend reactive activate-serie" id="activate-serie-3"><rect class="color-3 reactive" height="12" width="12" x="334.0" y="24.0"/><text x="351.0" y="34.5">schreiber2014/default</text></g><g class="legend reactive activate-serie" id="activate-serie-4"><rect class="color-4 reactive" height="12" width="12" x="0.0" y="46.5"/><text x="17.0" y="57.0">schreiber2017/ismir2017</text></g><g class="legend reactive activate-serie" id="activate-serie-5"><rect class="color-5 reactive" height="12" width="12" x="334.0" y="46.5"/><text x="351.0" y="57.0">schreiber2017/mirex2017</text></g></g></g></svg>