<?xml version="1.0" encoding="utf-8" standalone="no"?>
<!DOCTYPE svg PUBLIC "-//W3C//DTD SVG 1.1//EN"
  "http://www.w3.org/Graphics/SVG/1.1/DTD/svg11.dtd">
<!-- Created with matplotlib (http://matplotlib.org/) -->
<svg height="370.338375pt" version="1.1" viewBox="0 0 632.498437 370.338375" width="632.498437pt" xmlns="http://www.w3.org/2000/svg" xmlns:xlink="http://www.w3.org/1999/xlink">
 <defs>
  <style type="text/css">
*{stroke-linecap:butt;stroke-linejoin:round;}
  </style>
 </defs>
 <g id="figure_1">
  <g id="patch_1">
   <path d="M -0 370.338375 
L 632.498438 370.338375 
L 632.498438 0 
L -0 0 
z
" style="fill:#ffffff;"/>
  </g>
  <g id="axes_1">
   <g id="patch_2">
    <path d="M 226.746875 332.782125 
L 617.346875 332.782125 
L 617.346875 22.318125 
L 226.746875 22.318125 
z
" style="fill:#ffffff;"/>
   </g>
   <g id="matplotlib.axis_1">
    <g id="xtick_1">
     <g id="line2d_1">
      <path clip-path="url(#pe0fc34cf57)" d="M 226.746875 332.782125 
L 226.746875 22.318125 
" style="fill:none;stroke:#b0b0b0;stroke-linecap:square;stroke-width:0.8;"/>
     </g>
     <g id="line2d_2">
      <defs>
       <path d="M 0 0 
L 0 3.5 
" id="mad18f27651" style="stroke:#000000;stroke-width:0.8;"/>
      </defs>
      <g>
       <use style="stroke:#000000;stroke-width:0.8;" x="226.746875" xlink:href="#mad18f27651" y="332.782125"/>
      </g>
     </g>
     <g id="text_1">
      <!-- 0.0 -->
      <defs>
       <path d="M 31.78125 66.40625 
Q 24.171875 66.40625 20.328125 58.90625 
Q 16.5 51.421875 16.5 36.375 
Q 16.5 21.390625 20.328125 13.890625 
Q 24.171875 6.390625 31.78125 6.390625 
Q 39.453125 6.390625 43.28125 13.890625 
Q 47.125 21.390625 47.125 36.375 
Q 47.125 51.421875 43.28125 58.90625 
Q 39.453125 66.40625 31.78125 66.40625 
z
M 31.78125 74.21875 
Q 44.046875 74.21875 50.515625 64.515625 
Q 56.984375 54.828125 56.984375 36.375 
Q 56.984375 17.96875 50.515625 8.265625 
Q 44.046875 -1.421875 31.78125 -1.421875 
Q 19.53125 -1.421875 13.0625 8.265625 
Q 6.59375 17.96875 6.59375 36.375 
Q 6.59375 54.828125 13.0625 64.515625 
Q 19.53125 74.21875 31.78125 74.21875 
z
" id="DejaVuSans-30"/>
       <path d="M 10.6875 12.40625 
L 21 12.40625 
L 21 0 
L 10.6875 0 
z
" id="DejaVuSans-2e"/>
      </defs>
      <g transform="translate(218.795312 347.380562)scale(0.1 -0.1)">
       <use xlink:href="#DejaVuSans-30"/>
       <use x="63.623047" xlink:href="#DejaVuSans-2e"/>
       <use x="95.410156" xlink:href="#DejaVuSans-30"/>
      </g>
     </g>
    </g>
    <g id="xtick_2">
     <g id="line2d_3">
      <path clip-path="url(#pe0fc34cf57)" d="M 304.866875 332.782125 
L 304.866875 22.318125 
" style="fill:none;stroke:#b0b0b0;stroke-linecap:square;stroke-width:0.8;"/>
     </g>
     <g id="line2d_4">
      <g>
       <use style="stroke:#000000;stroke-width:0.8;" x="304.866875" xlink:href="#mad18f27651" y="332.782125"/>
      </g>
     </g>
     <g id="text_2">
      <!-- 0.1 -->
      <defs>
       <path d="M 12.40625 8.296875 
L 28.515625 8.296875 
L 28.515625 63.921875 
L 10.984375 60.40625 
L 10.984375 69.390625 
L 28.421875 72.90625 
L 38.28125 72.90625 
L 38.28125 8.296875 
L 54.390625 8.296875 
L 54.390625 0 
L 12.40625 0 
z
" id="DejaVuSans-31"/>
      </defs>
      <g transform="translate(296.915312 347.380562)scale(0.1 -0.1)">
       <use xlink:href="#DejaVuSans-30"/>
       <use x="63.623047" xlink:href="#DejaVuSans-2e"/>
       <use x="95.410156" xlink:href="#DejaVuSans-31"/>
      </g>
     </g>
    </g>
    <g id="xtick_3">
     <g id="line2d_5">
      <path clip-path="url(#pe0fc34cf57)" d="M 382.986875 332.782125 
L 382.986875 22.318125 
" style="fill:none;stroke:#b0b0b0;stroke-linecap:square;stroke-width:0.8;"/>
     </g>
     <g id="line2d_6">
      <g>
       <use style="stroke:#000000;stroke-width:0.8;" x="382.986875" xlink:href="#mad18f27651" y="332.782125"/>
      </g>
     </g>
     <g id="text_3">
      <!-- 0.2 -->
      <defs>
       <path d="M 19.1875 8.296875 
L 53.609375 8.296875 
L 53.609375 0 
L 7.328125 0 
L 7.328125 8.296875 
Q 12.9375 14.109375 22.625 23.890625 
Q 32.328125 33.6875 34.8125 36.53125 
Q 39.546875 41.84375 41.421875 45.53125 
Q 43.3125 49.21875 43.3125 52.78125 
Q 43.3125 58.59375 39.234375 62.25 
Q 35.15625 65.921875 28.609375 65.921875 
Q 23.96875 65.921875 18.8125 64.3125 
Q 13.671875 62.703125 7.8125 59.421875 
L 7.8125 69.390625 
Q 13.765625 71.78125 18.9375 73 
Q 24.125 74.21875 28.421875 74.21875 
Q 39.75 74.21875 46.484375 68.546875 
Q 53.21875 62.890625 53.21875 53.421875 
Q 53.21875 48.921875 51.53125 44.890625 
Q 49.859375 40.875 45.40625 35.40625 
Q 44.1875 33.984375 37.640625 27.21875 
Q 31.109375 20.453125 19.1875 8.296875 
z
" id="DejaVuSans-32"/>
      </defs>
      <g transform="translate(375.035313 347.380562)scale(0.1 -0.1)">
       <use xlink:href="#DejaVuSans-30"/>
       <use x="63.623047" xlink:href="#DejaVuSans-2e"/>
       <use x="95.410156" xlink:href="#DejaVuSans-32"/>
      </g>
     </g>
    </g>
    <g id="xtick_4">
     <g id="line2d_7">
      <path clip-path="url(#pe0fc34cf57)" d="M 461.106875 332.782125 
L 461.106875 22.318125 
" style="fill:none;stroke:#b0b0b0;stroke-linecap:square;stroke-width:0.8;"/>
     </g>
     <g id="line2d_8">
      <g>
       <use style="stroke:#000000;stroke-width:0.8;" x="461.106875" xlink:href="#mad18f27651" y="332.782125"/>
      </g>
     </g>
     <g id="text_4">
      <!-- 0.3 -->
      <defs>
       <path d="M 40.578125 39.3125 
Q 47.65625 37.796875 51.625 33 
Q 55.609375 28.21875 55.609375 21.1875 
Q 55.609375 10.40625 48.1875 4.484375 
Q 40.765625 -1.421875 27.09375 -1.421875 
Q 22.515625 -1.421875 17.65625 -0.515625 
Q 12.796875 0.390625 7.625 2.203125 
L 7.625 11.71875 
Q 11.71875 9.328125 16.59375 8.109375 
Q 21.484375 6.890625 26.8125 6.890625 
Q 36.078125 6.890625 40.9375 10.546875 
Q 45.796875 14.203125 45.796875 21.1875 
Q 45.796875 27.640625 41.28125 31.265625 
Q 36.765625 34.90625 28.71875 34.90625 
L 20.21875 34.90625 
L 20.21875 43.015625 
L 29.109375 43.015625 
Q 36.375 43.015625 40.234375 45.921875 
Q 44.09375 48.828125 44.09375 54.296875 
Q 44.09375 59.90625 40.109375 62.90625 
Q 36.140625 65.921875 28.71875 65.921875 
Q 24.65625 65.921875 20.015625 65.03125 
Q 15.375 64.15625 9.8125 62.3125 
L 9.8125 71.09375 
Q 15.4375 72.65625 20.34375 73.4375 
Q 25.25 74.21875 29.59375 74.21875 
Q 40.828125 74.21875 47.359375 69.109375 
Q 53.90625 64.015625 53.90625 55.328125 
Q 53.90625 49.265625 50.4375 45.09375 
Q 46.96875 40.921875 40.578125 39.3125 
z
" id="DejaVuSans-33"/>
      </defs>
      <g transform="translate(453.155313 347.380562)scale(0.1 -0.1)">
       <use xlink:href="#DejaVuSans-30"/>
       <use x="63.623047" xlink:href="#DejaVuSans-2e"/>
       <use x="95.410156" xlink:href="#DejaVuSans-33"/>
      </g>
     </g>
    </g>
    <g id="xtick_5">
     <g id="line2d_9">
      <path clip-path="url(#pe0fc34cf57)" d="M 539.226875 332.782125 
L 539.226875 22.318125 
" style="fill:none;stroke:#b0b0b0;stroke-linecap:square;stroke-width:0.8;"/>
     </g>
     <g id="line2d_10">
      <g>
       <use style="stroke:#000000;stroke-width:0.8;" x="539.226875" xlink:href="#mad18f27651" y="332.782125"/>
      </g>
     </g>
     <g id="text_5">
      <!-- 0.4 -->
      <defs>
       <path d="M 37.796875 64.3125 
L 12.890625 25.390625 
L 37.796875 25.390625 
z
M 35.203125 72.90625 
L 47.609375 72.90625 
L 47.609375 25.390625 
L 58.015625 25.390625 
L 58.015625 17.1875 
L 47.609375 17.1875 
L 47.609375 0 
L 37.796875 0 
L 37.796875 17.1875 
L 4.890625 17.1875 
L 4.890625 26.703125 
z
" id="DejaVuSans-34"/>
      </defs>
      <g transform="translate(531.275313 347.380562)scale(0.1 -0.1)">
       <use xlink:href="#DejaVuSans-30"/>
       <use x="63.623047" xlink:href="#DejaVuSans-2e"/>
       <use x="95.410156" xlink:href="#DejaVuSans-34"/>
      </g>
     </g>
    </g>
    <g id="xtick_6">
     <g id="line2d_11">
      <path clip-path="url(#pe0fc34cf57)" d="M 617.346875 332.782125 
L 617.346875 22.318125 
" style="fill:none;stroke:#b0b0b0;stroke-linecap:square;stroke-width:0.8;"/>
     </g>
     <g id="line2d_12">
      <g>
       <use style="stroke:#000000;stroke-width:0.8;" x="617.346875" xlink:href="#mad18f27651" y="332.782125"/>
      </g>
     </g>
     <g id="text_6">
      <!-- 0.5 -->
      <defs>
       <path d="M 10.796875 72.90625 
L 49.515625 72.90625 
L 49.515625 64.59375 
L 19.828125 64.59375 
L 19.828125 46.734375 
Q 21.96875 47.46875 24.109375 47.828125 
Q 26.265625 48.1875 28.421875 48.1875 
Q 40.625 48.1875 47.75 41.5 
Q 54.890625 34.8125 54.890625 23.390625 
Q 54.890625 11.625 47.5625 5.09375 
Q 40.234375 -1.421875 26.90625 -1.421875 
Q 22.3125 -1.421875 17.546875 -0.640625 
Q 12.796875 0.140625 7.71875 1.703125 
L 7.71875 11.625 
Q 12.109375 9.234375 16.796875 8.0625 
Q 21.484375 6.890625 26.703125 6.890625 
Q 35.15625 6.890625 40.078125 11.328125 
Q 45.015625 15.765625 45.015625 23.390625 
Q 45.015625 31 40.078125 35.4375 
Q 35.15625 39.890625 26.703125 39.890625 
Q 22.75 39.890625 18.8125 39.015625 
Q 14.890625 38.140625 10.796875 36.28125 
z
" id="DejaVuSans-35"/>
      </defs>
      <g transform="translate(609.395313 347.380562)scale(0.1 -0.1)">
       <use xlink:href="#DejaVuSans-30"/>
       <use x="63.623047" xlink:href="#DejaVuSans-2e"/>
       <use x="95.410156" xlink:href="#DejaVuSans-35"/>
      </g>
     </g>
    </g>
    <g id="text_7">
     <!-- AOE2 (TO) -->
     <defs>
      <path d="M 34.1875 63.1875 
L 20.796875 26.90625 
L 47.609375 26.90625 
z
M 28.609375 72.90625 
L 39.796875 72.90625 
L 67.578125 0 
L 57.328125 0 
L 50.6875 18.703125 
L 17.828125 18.703125 
L 11.1875 0 
L 0.78125 0 
z
" id="DejaVuSans-41"/>
      <path d="M 39.40625 66.21875 
Q 28.65625 66.21875 22.328125 58.203125 
Q 16.015625 50.203125 16.015625 36.375 
Q 16.015625 22.609375 22.328125 14.59375 
Q 28.65625 6.59375 39.40625 6.59375 
Q 50.140625 6.59375 56.421875 14.59375 
Q 62.703125 22.609375 62.703125 36.375 
Q 62.703125 50.203125 56.421875 58.203125 
Q 50.140625 66.21875 39.40625 66.21875 
z
M 39.40625 74.21875 
Q 54.734375 74.21875 63.90625 63.9375 
Q 73.09375 53.65625 73.09375 36.375 
Q 73.09375 19.140625 63.90625 8.859375 
Q 54.734375 -1.421875 39.40625 -1.421875 
Q 24.03125 -1.421875 14.8125 8.828125 
Q 5.609375 19.09375 5.609375 36.375 
Q 5.609375 53.65625 14.8125 63.9375 
Q 24.03125 74.21875 39.40625 74.21875 
z
" id="DejaVuSans-4f"/>
      <path d="M 9.8125 72.90625 
L 55.90625 72.90625 
L 55.90625 64.59375 
L 19.671875 64.59375 
L 19.671875 43.015625 
L 54.390625 43.015625 
L 54.390625 34.71875 
L 19.671875 34.71875 
L 19.671875 8.296875 
L 56.78125 8.296875 
L 56.78125 0 
L 9.8125 0 
z
" id="DejaVuSans-45"/>
      <path id="DejaVuSans-20"/>
      <path d="M 31 75.875 
Q 24.46875 64.65625 21.28125 53.65625 
Q 18.109375 42.671875 18.109375 31.390625 
Q 18.109375 20.125 21.3125 9.0625 
Q 24.515625 -2 31 -13.1875 
L 23.1875 -13.1875 
Q 15.875 -1.703125 12.234375 9.375 
Q 8.59375 20.453125 8.59375 31.390625 
Q 8.59375 42.28125 12.203125 53.3125 
Q 15.828125 64.359375 23.1875 75.875 
z
" id="DejaVuSans-28"/>
      <path d="M -0.296875 72.90625 
L 61.375 72.90625 
L 61.375 64.59375 
L 35.5 64.59375 
L 35.5 0 
L 25.59375 0 
L 25.59375 64.59375 
L -0.296875 64.59375 
z
" id="DejaVuSans-54"/>
      <path d="M 8.015625 75.875 
L 15.828125 75.875 
Q 23.140625 64.359375 26.78125 53.3125 
Q 30.421875 42.28125 30.421875 31.390625 
Q 30.421875 20.453125 26.78125 9.375 
Q 23.140625 -1.703125 15.828125 -13.1875 
L 8.015625 -13.1875 
Q 14.5 -2 17.703125 9.0625 
Q 20.90625 20.125 20.90625 31.390625 
Q 20.90625 42.671875 17.703125 53.65625 
Q 14.5 64.65625 8.015625 75.875 
z
" id="DejaVuSans-29"/>
     </defs>
     <g transform="translate(395.870313 361.058687)scale(0.1 -0.1)">
      <use xlink:href="#DejaVuSans-41"/>
      <use x="68.392578" xlink:href="#DejaVuSans-4f"/>
      <use x="147.103516" xlink:href="#DejaVuSans-45"/>
      <use x="210.287109" xlink:href="#DejaVuSans-32"/>
      <use x="273.910156" xlink:href="#DejaVuSans-20"/>
      <use x="305.697266" xlink:href="#DejaVuSans-28"/>
      <use x="344.710938" xlink:href="#DejaVuSans-54"/>
      <use x="405.794922" xlink:href="#DejaVuSans-4f"/>
      <use x="484.505859" xlink:href="#DejaVuSans-29"/>
     </g>
    </g>
   </g>
   <g id="matplotlib.axis_2">
    <g id="ytick_1">
     <g id="line2d_13">
      <path clip-path="url(#pe0fc34cf57)" d="M 226.746875 305.841034 
L 617.346875 305.841034 
" style="fill:none;stroke:#b0b0b0;stroke-linecap:square;stroke-width:0.8;"/>
     </g>
     <g id="line2d_14">
      <defs>
       <path d="M 0 0 
L -3.5 0 
" id="m2dc23b558f" style="stroke:#000000;stroke-width:0.8;"/>
      </defs>
      <g>
       <use style="stroke:#000000;stroke-width:0.8;" x="226.746875" xlink:href="#m2dc23b558f" y="305.841034"/>
      </g>
     </g>
     <g id="text_8">
      <!-- schreiber2017/mirex2017 -->
      <defs>
       <path d="M 44.28125 53.078125 
L 44.28125 44.578125 
Q 40.484375 46.53125 36.375 47.5 
Q 32.28125 48.484375 27.875 48.484375 
Q 21.1875 48.484375 17.84375 46.4375 
Q 14.5 44.390625 14.5 40.28125 
Q 14.5 37.15625 16.890625 35.375 
Q 19.28125 33.59375 26.515625 31.984375 
L 29.59375 31.296875 
Q 39.15625 29.25 43.1875 25.515625 
Q 47.21875 21.78125 47.21875 15.09375 
Q 47.21875 7.46875 41.1875 3.015625 
Q 35.15625 -1.421875 24.609375 -1.421875 
Q 20.21875 -1.421875 15.453125 -0.5625 
Q 10.6875 0.296875 5.421875 2 
L 5.421875 11.28125 
Q 10.40625 8.6875 15.234375 7.390625 
Q 20.0625 6.109375 24.8125 6.109375 
Q 31.15625 6.109375 34.5625 8.28125 
Q 37.984375 10.453125 37.984375 14.40625 
Q 37.984375 18.0625 35.515625 20.015625 
Q 33.0625 21.96875 24.703125 23.78125 
L 21.578125 24.515625 
Q 13.234375 26.265625 9.515625 29.90625 
Q 5.8125 33.546875 5.8125 39.890625 
Q 5.8125 47.609375 11.28125 51.796875 
Q 16.75 56 26.8125 56 
Q 31.78125 56 36.171875 55.265625 
Q 40.578125 54.546875 44.28125 53.078125 
z
" id="DejaVuSans-73"/>
       <path d="M 48.78125 52.59375 
L 48.78125 44.1875 
Q 44.96875 46.296875 41.140625 47.34375 
Q 37.3125 48.390625 33.40625 48.390625 
Q 24.65625 48.390625 19.8125 42.84375 
Q 14.984375 37.3125 14.984375 27.296875 
Q 14.984375 17.28125 19.8125 11.734375 
Q 24.65625 6.203125 33.40625 6.203125 
Q 37.3125 6.203125 41.140625 7.25 
Q 44.96875 8.296875 48.78125 10.40625 
L 48.78125 2.09375 
Q 45.015625 0.34375 40.984375 -0.53125 
Q 36.96875 -1.421875 32.421875 -1.421875 
Q 20.0625 -1.421875 12.78125 6.34375 
Q 5.515625 14.109375 5.515625 27.296875 
Q 5.515625 40.671875 12.859375 48.328125 
Q 20.21875 56 33.015625 56 
Q 37.15625 56 41.109375 55.140625 
Q 45.0625 54.296875 48.78125 52.59375 
z
" id="DejaVuSans-63"/>
       <path d="M 54.890625 33.015625 
L 54.890625 0 
L 45.90625 0 
L 45.90625 32.71875 
Q 45.90625 40.484375 42.875 44.328125 
Q 39.84375 48.1875 33.796875 48.1875 
Q 26.515625 48.1875 22.3125 43.546875 
Q 18.109375 38.921875 18.109375 30.90625 
L 18.109375 0 
L 9.078125 0 
L 9.078125 75.984375 
L 18.109375 75.984375 
L 18.109375 46.1875 
Q 21.34375 51.125 25.703125 53.5625 
Q 30.078125 56 35.796875 56 
Q 45.21875 56 50.046875 50.171875 
Q 54.890625 44.34375 54.890625 33.015625 
z
" id="DejaVuSans-68"/>
       <path d="M 41.109375 46.296875 
Q 39.59375 47.171875 37.8125 47.578125 
Q 36.03125 48 33.890625 48 
Q 26.265625 48 22.1875 43.046875 
Q 18.109375 38.09375 18.109375 28.8125 
L 18.109375 0 
L 9.078125 0 
L 9.078125 54.6875 
L 18.109375 54.6875 
L 18.109375 46.1875 
Q 20.953125 51.171875 25.484375 53.578125 
Q 30.03125 56 36.53125 56 
Q 37.453125 56 38.578125 55.875 
Q 39.703125 55.765625 41.0625 55.515625 
z
" id="DejaVuSans-72"/>
       <path d="M 56.203125 29.59375 
L 56.203125 25.203125 
L 14.890625 25.203125 
Q 15.484375 15.921875 20.484375 11.0625 
Q 25.484375 6.203125 34.421875 6.203125 
Q 39.59375 6.203125 44.453125 7.46875 
Q 49.3125 8.734375 54.109375 11.28125 
L 54.109375 2.78125 
Q 49.265625 0.734375 44.1875 -0.34375 
Q 39.109375 -1.421875 33.890625 -1.421875 
Q 20.796875 -1.421875 13.15625 6.1875 
Q 5.515625 13.8125 5.515625 26.8125 
Q 5.515625 40.234375 12.765625 48.109375 
Q 20.015625 56 32.328125 56 
Q 43.359375 56 49.78125 48.890625 
Q 56.203125 41.796875 56.203125 29.59375 
z
M 47.21875 32.234375 
Q 47.125 39.59375 43.09375 43.984375 
Q 39.0625 48.390625 32.421875 48.390625 
Q 24.90625 48.390625 20.390625 44.140625 
Q 15.875 39.890625 15.1875 32.171875 
z
" id="DejaVuSans-65"/>
       <path d="M 9.421875 54.6875 
L 18.40625 54.6875 
L 18.40625 0 
L 9.421875 0 
z
M 9.421875 75.984375 
L 18.40625 75.984375 
L 18.40625 64.59375 
L 9.421875 64.59375 
z
" id="DejaVuSans-69"/>
       <path d="M 48.6875 27.296875 
Q 48.6875 37.203125 44.609375 42.84375 
Q 40.53125 48.484375 33.40625 48.484375 
Q 26.265625 48.484375 22.1875 42.84375 
Q 18.109375 37.203125 18.109375 27.296875 
Q 18.109375 17.390625 22.1875 11.75 
Q 26.265625 6.109375 33.40625 6.109375 
Q 40.53125 6.109375 44.609375 11.75 
Q 48.6875 17.390625 48.6875 27.296875 
z
M 18.109375 46.390625 
Q 20.953125 51.265625 25.265625 53.625 
Q 29.59375 56 35.59375 56 
Q 45.5625 56 51.78125 48.09375 
Q 58.015625 40.1875 58.015625 27.296875 
Q 58.015625 14.40625 51.78125 6.484375 
Q 45.5625 -1.421875 35.59375 -1.421875 
Q 29.59375 -1.421875 25.265625 0.953125 
Q 20.953125 3.328125 18.109375 8.203125 
L 18.109375 0 
L 9.078125 0 
L 9.078125 75.984375 
L 18.109375 75.984375 
z
" id="DejaVuSans-62"/>
       <path d="M 8.203125 72.90625 
L 55.078125 72.90625 
L 55.078125 68.703125 
L 28.609375 0 
L 18.3125 0 
L 43.21875 64.59375 
L 8.203125 64.59375 
z
" id="DejaVuSans-37"/>
       <path d="M 25.390625 72.90625 
L 33.6875 72.90625 
L 8.296875 -9.28125 
L 0 -9.28125 
z
" id="DejaVuSans-2f"/>
       <path d="M 52 44.1875 
Q 55.375 50.25 60.0625 53.125 
Q 64.75 56 71.09375 56 
Q 79.640625 56 84.28125 50.015625 
Q 88.921875 44.046875 88.921875 33.015625 
L 88.921875 0 
L 79.890625 0 
L 79.890625 32.71875 
Q 79.890625 40.578125 77.09375 44.375 
Q 74.3125 48.1875 68.609375 48.1875 
Q 61.625 48.1875 57.5625 43.546875 
Q 53.515625 38.921875 53.515625 30.90625 
L 53.515625 0 
L 44.484375 0 
L 44.484375 32.71875 
Q 44.484375 40.625 41.703125 44.40625 
Q 38.921875 48.1875 33.109375 48.1875 
Q 26.21875 48.1875 22.15625 43.53125 
Q 18.109375 38.875 18.109375 30.90625 
L 18.109375 0 
L 9.078125 0 
L 9.078125 54.6875 
L 18.109375 54.6875 
L 18.109375 46.1875 
Q 21.1875 51.21875 25.484375 53.609375 
Q 29.78125 56 35.6875 56 
Q 41.65625 56 45.828125 52.96875 
Q 50 49.953125 52 44.1875 
z
" id="DejaVuSans-6d"/>
       <path d="M 54.890625 54.6875 
L 35.109375 28.078125 
L 55.90625 0 
L 45.3125 0 
L 29.390625 21.484375 
L 13.484375 0 
L 2.875 0 
L 24.125 28.609375 
L 4.6875 54.6875 
L 15.28125 54.6875 
L 29.78125 35.203125 
L 44.28125 54.6875 
z
" id="DejaVuSans-78"/>
      </defs>
      <g transform="translate(90.084375 309.640253)scale(0.1 -0.1)">
       <use xlink:href="#DejaVuSans-73"/>
       <use x="52.099609" xlink:href="#DejaVuSans-63"/>
       <use x="107.080078" xlink:href="#DejaVuSans-68"/>
       <use x="170.458984" xlink:href="#DejaVuSans-72"/>
       <use x="211.541016" xlink:href="#DejaVuSans-65"/>
       <use x="273.064453" xlink:href="#DejaVuSans-69"/>
       <use x="300.847656" xlink:href="#DejaVuSans-62"/>
       <use x="364.324219" xlink:href="#DejaVuSans-65"/>
       <use x="425.847656" xlink:href="#DejaVuSans-72"/>
       <use x="466.960938" xlink:href="#DejaVuSans-32"/>
       <use x="530.583984" xlink:href="#DejaVuSans-30"/>
       <use x="594.207031" xlink:href="#DejaVuSans-31"/>
       <use x="657.830078" xlink:href="#DejaVuSans-37"/>
       <use x="721.453125" xlink:href="#DejaVuSans-2f"/>
       <use x="755.144531" xlink:href="#DejaVuSans-6d"/>
       <use x="852.556641" xlink:href="#DejaVuSans-69"/>
       <use x="880.339844" xlink:href="#DejaVuSans-72"/>
       <use x="921.421875" xlink:href="#DejaVuSans-65"/>
       <use x="982.929688" xlink:href="#DejaVuSans-78"/>
       <use x="1042.109375" xlink:href="#DejaVuSans-32"/>
       <use x="1105.732422" xlink:href="#DejaVuSans-30"/>
       <use x="1169.355469" xlink:href="#DejaVuSans-31"/>
       <use x="1232.978516" xlink:href="#DejaVuSans-37"/>
      </g>
     </g>
    </g>
    <g id="ytick_2">
     <g id="line2d_15">
      <path clip-path="url(#pe0fc34cf57)" d="M 226.746875 254.52467 
L 617.346875 254.52467 
" style="fill:none;stroke:#b0b0b0;stroke-linecap:square;stroke-width:0.8;"/>
     </g>
     <g id="line2d_16">
      <g>
       <use style="stroke:#000000;stroke-width:0.8;" x="226.746875" xlink:href="#m2dc23b558f" y="254.52467"/>
      </g>
     </g>
     <g id="text_9">
      <!-- schreiber2017/ismir2017 -->
      <g transform="translate(94.164062 258.323889)scale(0.1 -0.1)">
       <use xlink:href="#DejaVuSans-73"/>
       <use x="52.099609" xlink:href="#DejaVuSans-63"/>
       <use x="107.080078" xlink:href="#DejaVuSans-68"/>
       <use x="170.458984" xlink:href="#DejaVuSans-72"/>
       <use x="211.541016" xlink:href="#DejaVuSans-65"/>
       <use x="273.064453" xlink:href="#DejaVuSans-69"/>
       <use x="300.847656" xlink:href="#DejaVuSans-62"/>
       <use x="364.324219" xlink:href="#DejaVuSans-65"/>
       <use x="425.847656" xlink:href="#DejaVuSans-72"/>
       <use x="466.960938" xlink:href="#DejaVuSans-32"/>
       <use x="530.583984" xlink:href="#DejaVuSans-30"/>
       <use x="594.207031" xlink:href="#DejaVuSans-31"/>
       <use x="657.830078" xlink:href="#DejaVuSans-37"/>
       <use x="721.453125" xlink:href="#DejaVuSans-2f"/>
       <use x="755.144531" xlink:href="#DejaVuSans-69"/>
       <use x="782.927734" xlink:href="#DejaVuSans-73"/>
       <use x="835.027344" xlink:href="#DejaVuSans-6d"/>
       <use x="932.439453" xlink:href="#DejaVuSans-69"/>
       <use x="960.222656" xlink:href="#DejaVuSans-72"/>
       <use x="1001.335938" xlink:href="#DejaVuSans-32"/>
       <use x="1064.958984" xlink:href="#DejaVuSans-30"/>
       <use x="1128.582031" xlink:href="#DejaVuSans-31"/>
       <use x="1192.205078" xlink:href="#DejaVuSans-37"/>
      </g>
     </g>
    </g>
    <g id="ytick_3">
     <g id="line2d_17">
      <path clip-path="url(#pe0fc34cf57)" d="M 226.746875 203.208307 
L 617.346875 203.208307 
" style="fill:none;stroke:#b0b0b0;stroke-linecap:square;stroke-width:0.8;"/>
     </g>
     <g id="line2d_18">
      <g>
       <use style="stroke:#000000;stroke-width:0.8;" x="226.746875" xlink:href="#m2dc23b558f" y="203.208307"/>
      </g>
     </g>
     <g id="text_10">
      <!-- schreiber2014/default -->
      <defs>
       <path d="M 45.40625 46.390625 
L 45.40625 75.984375 
L 54.390625 75.984375 
L 54.390625 0 
L 45.40625 0 
L 45.40625 8.203125 
Q 42.578125 3.328125 38.25 0.953125 
Q 33.9375 -1.421875 27.875 -1.421875 
Q 17.96875 -1.421875 11.734375 6.484375 
Q 5.515625 14.40625 5.515625 27.296875 
Q 5.515625 40.1875 11.734375 48.09375 
Q 17.96875 56 27.875 56 
Q 33.9375 56 38.25 53.625 
Q 42.578125 51.265625 45.40625 46.390625 
z
M 14.796875 27.296875 
Q 14.796875 17.390625 18.875 11.75 
Q 22.953125 6.109375 30.078125 6.109375 
Q 37.203125 6.109375 41.296875 11.75 
Q 45.40625 17.390625 45.40625 27.296875 
Q 45.40625 37.203125 41.296875 42.84375 
Q 37.203125 48.484375 30.078125 48.484375 
Q 22.953125 48.484375 18.875 42.84375 
Q 14.796875 37.203125 14.796875 27.296875 
z
" id="DejaVuSans-64"/>
       <path d="M 37.109375 75.984375 
L 37.109375 68.5 
L 28.515625 68.5 
Q 23.6875 68.5 21.796875 66.546875 
Q 19.921875 64.59375 19.921875 59.515625 
L 19.921875 54.6875 
L 34.71875 54.6875 
L 34.71875 47.703125 
L 19.921875 47.703125 
L 19.921875 0 
L 10.890625 0 
L 10.890625 47.703125 
L 2.296875 47.703125 
L 2.296875 54.6875 
L 10.890625 54.6875 
L 10.890625 58.5 
Q 10.890625 67.625 15.140625 71.796875 
Q 19.390625 75.984375 28.609375 75.984375 
z
" id="DejaVuSans-66"/>
       <path d="M 34.28125 27.484375 
Q 23.390625 27.484375 19.1875 25 
Q 14.984375 22.515625 14.984375 16.5 
Q 14.984375 11.71875 18.140625 8.90625 
Q 21.296875 6.109375 26.703125 6.109375 
Q 34.1875 6.109375 38.703125 11.40625 
Q 43.21875 16.703125 43.21875 25.484375 
L 43.21875 27.484375 
z
M 52.203125 31.203125 
L 52.203125 0 
L 43.21875 0 
L 43.21875 8.296875 
Q 40.140625 3.328125 35.546875 0.953125 
Q 30.953125 -1.421875 24.3125 -1.421875 
Q 15.921875 -1.421875 10.953125 3.296875 
Q 6 8.015625 6 15.921875 
Q 6 25.140625 12.171875 29.828125 
Q 18.359375 34.515625 30.609375 34.515625 
L 43.21875 34.515625 
L 43.21875 35.40625 
Q 43.21875 41.609375 39.140625 45 
Q 35.0625 48.390625 27.6875 48.390625 
Q 23 48.390625 18.546875 47.265625 
Q 14.109375 46.140625 10.015625 43.890625 
L 10.015625 52.203125 
Q 14.9375 54.109375 19.578125 55.046875 
Q 24.21875 56 28.609375 56 
Q 40.484375 56 46.34375 49.84375 
Q 52.203125 43.703125 52.203125 31.203125 
z
" id="DejaVuSans-61"/>
       <path d="M 8.5 21.578125 
L 8.5 54.6875 
L 17.484375 54.6875 
L 17.484375 21.921875 
Q 17.484375 14.15625 20.5 10.265625 
Q 23.53125 6.390625 29.59375 6.390625 
Q 36.859375 6.390625 41.078125 11.03125 
Q 45.3125 15.671875 45.3125 23.6875 
L 45.3125 54.6875 
L 54.296875 54.6875 
L 54.296875 0 
L 45.3125 0 
L 45.3125 8.40625 
Q 42.046875 3.421875 37.71875 1 
Q 33.40625 -1.421875 27.6875 -1.421875 
Q 18.265625 -1.421875 13.375 4.4375 
Q 8.5 10.296875 8.5 21.578125 
z
M 31.109375 56 
z
" id="DejaVuSans-75"/>
       <path d="M 9.421875 75.984375 
L 18.40625 75.984375 
L 18.40625 0 
L 9.421875 0 
z
" id="DejaVuSans-6c"/>
       <path d="M 18.3125 70.21875 
L 18.3125 54.6875 
L 36.8125 54.6875 
L 36.8125 47.703125 
L 18.3125 47.703125 
L 18.3125 18.015625 
Q 18.3125 11.328125 20.140625 9.421875 
Q 21.96875 7.515625 27.59375 7.515625 
L 36.8125 7.515625 
L 36.8125 0 
L 27.59375 0 
Q 17.1875 0 13.234375 3.875 
Q 9.28125 7.765625 9.28125 18.015625 
L 9.28125 47.703125 
L 2.6875 47.703125 
L 2.6875 54.6875 
L 9.28125 54.6875 
L 9.28125 70.21875 
z
" id="DejaVuSans-74"/>
      </defs>
      <g transform="translate(109.045312 207.007526)scale(0.1 -0.1)">
       <use xlink:href="#DejaVuSans-73"/>
       <use x="52.099609" xlink:href="#DejaVuSans-63"/>
       <use x="107.080078" xlink:href="#DejaVuSans-68"/>
       <use x="170.458984" xlink:href="#DejaVuSans-72"/>
       <use x="211.541016" xlink:href="#DejaVuSans-65"/>
       <use x="273.064453" xlink:href="#DejaVuSans-69"/>
       <use x="300.847656" xlink:href="#DejaVuSans-62"/>
       <use x="364.324219" xlink:href="#DejaVuSans-65"/>
       <use x="425.847656" xlink:href="#DejaVuSans-72"/>
       <use x="466.960938" xlink:href="#DejaVuSans-32"/>
       <use x="530.583984" xlink:href="#DejaVuSans-30"/>
       <use x="594.207031" xlink:href="#DejaVuSans-31"/>
       <use x="657.830078" xlink:href="#DejaVuSans-34"/>
       <use x="721.453125" xlink:href="#DejaVuSans-2f"/>
       <use x="755.144531" xlink:href="#DejaVuSans-64"/>
       <use x="818.621094" xlink:href="#DejaVuSans-65"/>
       <use x="880.144531" xlink:href="#DejaVuSans-66"/>
       <use x="915.349609" xlink:href="#DejaVuSans-61"/>
       <use x="976.628906" xlink:href="#DejaVuSans-75"/>
       <use x="1040.007812" xlink:href="#DejaVuSans-6c"/>
       <use x="1067.791016" xlink:href="#DejaVuSans-74"/>
      </g>
     </g>
    </g>
    <g id="ytick_4">
     <g id="line2d_19">
      <path clip-path="url(#pe0fc34cf57)" d="M 226.746875 151.891943 
L 617.346875 151.891943 
" style="fill:none;stroke:#b0b0b0;stroke-linecap:square;stroke-width:0.8;"/>
     </g>
     <g id="line2d_20">
      <g>
       <use style="stroke:#000000;stroke-width:0.8;" x="226.746875" xlink:href="#m2dc23b558f" y="151.891943"/>
      </g>
     </g>
     <g id="text_11">
      <!-- percival2014/stem -->
      <defs>
       <path d="M 18.109375 8.203125 
L 18.109375 -20.796875 
L 9.078125 -20.796875 
L 9.078125 54.6875 
L 18.109375 54.6875 
L 18.109375 46.390625 
Q 20.953125 51.265625 25.265625 53.625 
Q 29.59375 56 35.59375 56 
Q 45.5625 56 51.78125 48.09375 
Q 58.015625 40.1875 58.015625 27.296875 
Q 58.015625 14.40625 51.78125 6.484375 
Q 45.5625 -1.421875 35.59375 -1.421875 
Q 29.59375 -1.421875 25.265625 0.953125 
Q 20.953125 3.328125 18.109375 8.203125 
z
M 48.6875 27.296875 
Q 48.6875 37.203125 44.609375 42.84375 
Q 40.53125 48.484375 33.40625 48.484375 
Q 26.265625 48.484375 22.1875 42.84375 
Q 18.109375 37.203125 18.109375 27.296875 
Q 18.109375 17.390625 22.1875 11.75 
Q 26.265625 6.109375 33.40625 6.109375 
Q 40.53125 6.109375 44.609375 11.75 
Q 48.6875 17.390625 48.6875 27.296875 
z
" id="DejaVuSans-70"/>
       <path d="M 2.984375 54.6875 
L 12.5 54.6875 
L 29.59375 8.796875 
L 46.6875 54.6875 
L 56.203125 54.6875 
L 35.6875 0 
L 23.484375 0 
z
" id="DejaVuSans-76"/>
      </defs>
      <g transform="translate(126.19375 155.691162)scale(0.1 -0.1)">
       <use xlink:href="#DejaVuSans-70"/>
       <use x="63.476562" xlink:href="#DejaVuSans-65"/>
       <use x="125" xlink:href="#DejaVuSans-72"/>
       <use x="166.082031" xlink:href="#DejaVuSans-63"/>
       <use x="221.0625" xlink:href="#DejaVuSans-69"/>
       <use x="248.845703" xlink:href="#DejaVuSans-76"/>
       <use x="308.025391" xlink:href="#DejaVuSans-61"/>
       <use x="369.304688" xlink:href="#DejaVuSans-6c"/>
       <use x="397.087891" xlink:href="#DejaVuSans-32"/>
       <use x="460.710938" xlink:href="#DejaVuSans-30"/>
       <use x="524.333984" xlink:href="#DejaVuSans-31"/>
       <use x="587.957031" xlink:href="#DejaVuSans-34"/>
       <use x="651.580078" xlink:href="#DejaVuSans-2f"/>
       <use x="685.271484" xlink:href="#DejaVuSans-73"/>
       <use x="737.371094" xlink:href="#DejaVuSans-74"/>
       <use x="776.580078" xlink:href="#DejaVuSans-65"/>
       <use x="838.103516" xlink:href="#DejaVuSans-6d"/>
      </g>
     </g>
    </g>
    <g id="ytick_5">
     <g id="line2d_21">
      <path clip-path="url(#pe0fc34cf57)" d="M 226.746875 100.57558 
L 617.346875 100.57558 
" style="fill:none;stroke:#b0b0b0;stroke-linecap:square;stroke-width:0.8;"/>
     </g>
     <g id="line2d_22">
      <g>
       <use style="stroke:#000000;stroke-width:0.8;" x="226.746875" xlink:href="#m2dc23b558f" y="100.57558"/>
      </g>
     </g>
     <g id="text_12">
      <!-- davies2009/mirex_qm_tempotracker -->
      <defs>
       <path d="M 10.984375 1.515625 
L 10.984375 10.5 
Q 14.703125 8.734375 18.5 7.8125 
Q 22.3125 6.890625 25.984375 6.890625 
Q 35.75 6.890625 40.890625 13.453125 
Q 46.046875 20.015625 46.78125 33.40625 
Q 43.953125 29.203125 39.59375 26.953125 
Q 35.25 24.703125 29.984375 24.703125 
Q 19.046875 24.703125 12.671875 31.3125 
Q 6.296875 37.9375 6.296875 49.421875 
Q 6.296875 60.640625 12.9375 67.421875 
Q 19.578125 74.21875 30.609375 74.21875 
Q 43.265625 74.21875 49.921875 64.515625 
Q 56.59375 54.828125 56.59375 36.375 
Q 56.59375 19.140625 48.40625 8.859375 
Q 40.234375 -1.421875 26.421875 -1.421875 
Q 22.703125 -1.421875 18.890625 -0.6875 
Q 15.09375 0.046875 10.984375 1.515625 
z
M 30.609375 32.421875 
Q 37.25 32.421875 41.125 36.953125 
Q 45.015625 41.5 45.015625 49.421875 
Q 45.015625 57.28125 41.125 61.84375 
Q 37.25 66.40625 30.609375 66.40625 
Q 23.96875 66.40625 20.09375 61.84375 
Q 16.21875 57.28125 16.21875 49.421875 
Q 16.21875 41.5 20.09375 36.953125 
Q 23.96875 32.421875 30.609375 32.421875 
z
" id="DejaVuSans-39"/>
       <path d="M 50.984375 -16.609375 
L 50.984375 -23.578125 
L -0.984375 -23.578125 
L -0.984375 -16.609375 
z
" id="DejaVuSans-5f"/>
       <path d="M 14.796875 27.296875 
Q 14.796875 17.390625 18.875 11.75 
Q 22.953125 6.109375 30.078125 6.109375 
Q 37.203125 6.109375 41.296875 11.75 
Q 45.40625 17.390625 45.40625 27.296875 
Q 45.40625 37.203125 41.296875 42.84375 
Q 37.203125 48.484375 30.078125 48.484375 
Q 22.953125 48.484375 18.875 42.84375 
Q 14.796875 37.203125 14.796875 27.296875 
z
M 45.40625 8.203125 
Q 42.578125 3.328125 38.25 0.953125 
Q 33.9375 -1.421875 27.875 -1.421875 
Q 17.96875 -1.421875 11.734375 6.484375 
Q 5.515625 14.40625 5.515625 27.296875 
Q 5.515625 40.1875 11.734375 48.09375 
Q 17.96875 56 27.875 56 
Q 33.9375 56 38.25 53.625 
Q 42.578125 51.265625 45.40625 46.390625 
L 45.40625 54.6875 
L 54.390625 54.6875 
L 54.390625 -20.796875 
L 45.40625 -20.796875 
z
" id="DejaVuSans-71"/>
       <path d="M 30.609375 48.390625 
Q 23.390625 48.390625 19.1875 42.75 
Q 14.984375 37.109375 14.984375 27.296875 
Q 14.984375 17.484375 19.15625 11.84375 
Q 23.34375 6.203125 30.609375 6.203125 
Q 37.796875 6.203125 41.984375 11.859375 
Q 46.1875 17.53125 46.1875 27.296875 
Q 46.1875 37.015625 41.984375 42.703125 
Q 37.796875 48.390625 30.609375 48.390625 
z
M 30.609375 56 
Q 42.328125 56 49.015625 48.375 
Q 55.71875 40.765625 55.71875 27.296875 
Q 55.71875 13.875 49.015625 6.21875 
Q 42.328125 -1.421875 30.609375 -1.421875 
Q 18.84375 -1.421875 12.171875 6.21875 
Q 5.515625 13.875 5.515625 27.296875 
Q 5.515625 40.765625 12.171875 48.375 
Q 18.84375 56 30.609375 56 
z
" id="DejaVuSans-6f"/>
       <path d="M 9.078125 75.984375 
L 18.109375 75.984375 
L 18.109375 31.109375 
L 44.921875 54.6875 
L 56.390625 54.6875 
L 27.390625 29.109375 
L 57.625 0 
L 45.90625 0 
L 18.109375 26.703125 
L 18.109375 0 
L 9.078125 0 
z
" id="DejaVuSans-6b"/>
      </defs>
      <g transform="translate(35.617187 104.374798)scale(0.1 -0.1)">
       <use xlink:href="#DejaVuSans-64"/>
       <use x="63.476562" xlink:href="#DejaVuSans-61"/>
       <use x="124.755859" xlink:href="#DejaVuSans-76"/>
       <use x="183.935547" xlink:href="#DejaVuSans-69"/>
       <use x="211.71875" xlink:href="#DejaVuSans-65"/>
       <use x="273.242188" xlink:href="#DejaVuSans-73"/>
       <use x="325.341797" xlink:href="#DejaVuSans-32"/>
       <use x="388.964844" xlink:href="#DejaVuSans-30"/>
       <use x="452.587891" xlink:href="#DejaVuSans-30"/>
       <use x="516.210938" xlink:href="#DejaVuSans-39"/>
       <use x="579.833984" xlink:href="#DejaVuSans-2f"/>
       <use x="613.525391" xlink:href="#DejaVuSans-6d"/>
       <use x="710.9375" xlink:href="#DejaVuSans-69"/>
       <use x="738.720703" xlink:href="#DejaVuSans-72"/>
       <use x="779.802734" xlink:href="#DejaVuSans-65"/>
       <use x="841.310547" xlink:href="#DejaVuSans-78"/>
       <use x="900.490234" xlink:href="#DejaVuSans-5f"/>
       <use x="950.490234" xlink:href="#DejaVuSans-71"/>
       <use x="1013.966797" xlink:href="#DejaVuSans-6d"/>
       <use x="1111.378906" xlink:href="#DejaVuSans-5f"/>
       <use x="1161.378906" xlink:href="#DejaVuSans-74"/>
       <use x="1200.587891" xlink:href="#DejaVuSans-65"/>
       <use x="1262.111328" xlink:href="#DejaVuSans-6d"/>
       <use x="1359.523438" xlink:href="#DejaVuSans-70"/>
       <use x="1423" xlink:href="#DejaVuSans-6f"/>
       <use x="1484.181641" xlink:href="#DejaVuSans-74"/>
       <use x="1523.390625" xlink:href="#DejaVuSans-72"/>
       <use x="1564.503906" xlink:href="#DejaVuSans-61"/>
       <use x="1625.783203" xlink:href="#DejaVuSans-63"/>
       <use x="1680.763672" xlink:href="#DejaVuSans-6b"/>
       <use x="1738.626953" xlink:href="#DejaVuSans-65"/>
       <use x="1800.150391" xlink:href="#DejaVuSans-72"/>
      </g>
     </g>
    </g>
    <g id="ytick_6">
     <g id="line2d_23">
      <path clip-path="url(#pe0fc34cf57)" d="M 226.746875 49.259216 
L 617.346875 49.259216 
" style="fill:none;stroke:#b0b0b0;stroke-linecap:square;stroke-width:0.8;"/>
     </g>
     <g id="line2d_24">
      <g>
       <use style="stroke:#000000;stroke-width:0.8;" x="226.746875" xlink:href="#m2dc23b558f" y="49.259216"/>
      </g>
     </g>
     <g id="text_13">
      <!-- boeck2015/tempodetector2016_default -->
      <defs>
       <path d="M 33.015625 40.375 
Q 26.375 40.375 22.484375 35.828125 
Q 18.609375 31.296875 18.609375 23.390625 
Q 18.609375 15.53125 22.484375 10.953125 
Q 26.375 6.390625 33.015625 6.390625 
Q 39.65625 6.390625 43.53125 10.953125 
Q 47.40625 15.53125 47.40625 23.390625 
Q 47.40625 31.296875 43.53125 35.828125 
Q 39.65625 40.375 33.015625 40.375 
z
M 52.59375 71.296875 
L 52.59375 62.3125 
Q 48.875 64.0625 45.09375 64.984375 
Q 41.3125 65.921875 37.59375 65.921875 
Q 27.828125 65.921875 22.671875 59.328125 
Q 17.53125 52.734375 16.796875 39.40625 
Q 19.671875 43.65625 24.015625 45.921875 
Q 28.375 48.1875 33.59375 48.1875 
Q 44.578125 48.1875 50.953125 41.515625 
Q 57.328125 34.859375 57.328125 23.390625 
Q 57.328125 12.15625 50.6875 5.359375 
Q 44.046875 -1.421875 33.015625 -1.421875 
Q 20.359375 -1.421875 13.671875 8.265625 
Q 6.984375 17.96875 6.984375 36.375 
Q 6.984375 53.65625 15.1875 63.9375 
Q 23.390625 74.21875 37.203125 74.21875 
Q 40.921875 74.21875 44.703125 73.484375 
Q 48.484375 72.75 52.59375 71.296875 
z
" id="DejaVuSans-36"/>
      </defs>
      <g transform="translate(20.878125 53.058435)scale(0.1 -0.1)">
       <use xlink:href="#DejaVuSans-62"/>
       <use x="63.476562" xlink:href="#DejaVuSans-6f"/>
       <use x="124.658203" xlink:href="#DejaVuSans-65"/>
       <use x="186.181641" xlink:href="#DejaVuSans-63"/>
       <use x="241.162109" xlink:href="#DejaVuSans-6b"/>
       <use x="299.072266" xlink:href="#DejaVuSans-32"/>
       <use x="362.695312" xlink:href="#DejaVuSans-30"/>
       <use x="426.318359" xlink:href="#DejaVuSans-31"/>
       <use x="489.941406" xlink:href="#DejaVuSans-35"/>
       <use x="553.564453" xlink:href="#DejaVuSans-2f"/>
       <use x="587.255859" xlink:href="#DejaVuSans-74"/>
       <use x="626.464844" xlink:href="#DejaVuSans-65"/>
       <use x="687.988281" xlink:href="#DejaVuSans-6d"/>
       <use x="785.400391" xlink:href="#DejaVuSans-70"/>
       <use x="848.876953" xlink:href="#DejaVuSans-6f"/>
       <use x="910.058594" xlink:href="#DejaVuSans-64"/>
       <use x="973.535156" xlink:href="#DejaVuSans-65"/>
       <use x="1035.058594" xlink:href="#DejaVuSans-74"/>
       <use x="1074.267578" xlink:href="#DejaVuSans-65"/>
       <use x="1135.791016" xlink:href="#DejaVuSans-63"/>
       <use x="1190.771484" xlink:href="#DejaVuSans-74"/>
       <use x="1229.980469" xlink:href="#DejaVuSans-6f"/>
       <use x="1291.162109" xlink:href="#DejaVuSans-72"/>
       <use x="1332.275391" xlink:href="#DejaVuSans-32"/>
       <use x="1395.898438" xlink:href="#DejaVuSans-30"/>
       <use x="1459.521484" xlink:href="#DejaVuSans-31"/>
       <use x="1523.144531" xlink:href="#DejaVuSans-36"/>
       <use x="1586.767578" xlink:href="#DejaVuSans-5f"/>
       <use x="1636.767578" xlink:href="#DejaVuSans-64"/>
       <use x="1700.244141" xlink:href="#DejaVuSans-65"/>
       <use x="1761.767578" xlink:href="#DejaVuSans-66"/>
       <use x="1796.972656" xlink:href="#DejaVuSans-61"/>
       <use x="1858.251953" xlink:href="#DejaVuSans-75"/>
       <use x="1921.630859" xlink:href="#DejaVuSans-6c"/>
       <use x="1949.414062" xlink:href="#DejaVuSans-74"/>
      </g>
     </g>
    </g>
    <g id="text_14">
     <!-- Estimator -->
     <g transform="translate(14.798437 201.672781)rotate(-90)scale(0.1 -0.1)">
      <use xlink:href="#DejaVuSans-45"/>
      <use x="63.183594" xlink:href="#DejaVuSans-73"/>
      <use x="115.283203" xlink:href="#DejaVuSans-74"/>
      <use x="154.492188" xlink:href="#DejaVuSans-69"/>
      <use x="182.275391" xlink:href="#DejaVuSans-6d"/>
      <use x="279.6875" xlink:href="#DejaVuSans-61"/>
      <use x="340.966797" xlink:href="#DejaVuSans-74"/>
      <use x="380.175781" xlink:href="#DejaVuSans-6f"/>
      <use x="441.357422" xlink:href="#DejaVuSans-72"/>
     </g>
    </g>
   </g>
   <g id="PolyCollection_1">
    <path clip-path="url(#pe0fc34cf57)" d="M 226.749733 293.011943 
L 226.749733 318.670125 
L 227.714392 318.562959 
L 228.679051 317.952969 
L 229.643709 316.919871 
L 230.608368 315.587496 
L 231.573026 314.099879 
L 232.537685 312.596178 
L 233.502344 311.190386 
L 234.467002 309.959622 
L 235.431661 308.941885 
L 236.396319 308.141507 
L 237.360978 307.539053 
L 238.325637 307.102184 
L 239.290295 306.794865 
L 240.254954 306.583579 
L 241.219613 306.440446 
L 242.184271 306.343971 
L 243.14893 306.27839 
L 244.113588 306.232522 
L 245.078247 306.198682 
L 246.042906 306.171903 
L 247.007564 306.149438 
L 247.972223 306.130409 
L 248.936881 306.115452 
L 249.90154 306.106251 
L 250.866199 306.104936 
L 251.830857 306.11341 
L 252.795516 306.132687 
L 253.760174 306.162387 
L 254.724833 306.200495 
L 255.689492 306.243435 
L 256.65415 306.28648 
L 257.618809 306.324412 
L 258.583467 306.352308 
L 259.548126 306.366284 
L 260.512785 306.364071 
L 261.477443 306.345286 
L 262.442102 306.311395 
L 263.406761 306.265379 
L 264.371419 306.211202 
L 265.336078 306.153186 
L 266.300736 306.095427 
L 267.265395 306.041333 
L 268.230054 305.993343 
L 269.194712 305.952839 
L 270.159371 305.920225 
L 271.124029 305.89513 
L 272.088688 305.876654 
L 273.053347 305.863631 
L 274.018005 305.854838 
L 274.982664 305.849151 
L 275.947322 305.845625 
L 276.911981 305.843532 
L 277.87664 305.84234 
L 278.841298 305.84169 
L 279.805957 305.841351 
L 280.770615 305.841181 
L 281.735274 305.841099 
L 282.699933 305.841062 
L 283.664591 305.841046 
L 284.62925 305.841039 
L 285.593908 305.841036 
L 286.558567 305.841035 
L 287.523226 305.841034 
L 288.487884 305.841034 
L 289.452543 305.841034 
L 290.417202 305.841034 
L 291.38186 305.841034 
L 292.346519 305.841034 
L 293.311177 305.841034 
L 294.275836 305.841034 
L 295.240495 305.841034 
L 296.205153 305.841034 
L 297.169812 305.841034 
L 298.13447 305.841034 
L 299.099129 305.841035 
L 300.063788 305.841036 
L 301.028446 305.841039 
L 301.993105 305.841046 
L 302.957763 305.841063 
L 303.922422 305.841099 
L 304.887081 305.841178 
L 305.851739 305.841337 
L 306.816398 305.841647 
L 307.781056 305.842221 
L 308.745715 305.843236 
L 309.710374 305.84495 
L 310.675032 305.847707 
L 311.639691 305.851931 
L 312.60435 305.858085 
L 313.569008 305.866601 
L 314.533667 305.877771 
L 315.498325 305.891617 
L 316.462984 305.907773 
L 317.427643 305.925414 
L 318.392301 305.943263 
L 319.35696 305.959719 
L 320.321618 305.973071 
L 321.286277 305.981792 
L 322.250936 305.984826 
L 322.250936 305.697243 
L 322.250936 305.697243 
L 321.286277 305.700276 
L 320.321618 305.708998 
L 319.35696 305.722349 
L 318.392301 305.738805 
L 317.427643 305.756655 
L 316.462984 305.774295 
L 315.498325 305.790452 
L 314.533667 305.804297 
L 313.569008 305.815467 
L 312.60435 305.823983 
L 311.639691 305.830138 
L 310.675032 305.834361 
L 309.710374 305.837118 
L 308.745715 305.838832 
L 307.781056 305.839848 
L 306.816398 305.840421 
L 305.851739 305.840731 
L 304.887081 305.84089 
L 303.922422 305.840969 
L 302.957763 305.841006 
L 301.993105 305.841022 
L 301.028446 305.841029 
L 300.063788 305.841032 
L 299.099129 305.841033 
L 298.13447 305.841034 
L 297.169812 305.841034 
L 296.205153 305.841034 
L 295.240495 305.841034 
L 294.275836 305.841034 
L 293.311177 305.841034 
L 292.346519 305.841034 
L 291.38186 305.841034 
L 290.417202 305.841034 
L 289.452543 305.841034 
L 288.487884 305.841034 
L 287.523226 305.841034 
L 286.558567 305.841033 
L 285.593908 305.841032 
L 284.62925 305.84103 
L 283.664591 305.841023 
L 282.699933 305.841006 
L 281.735274 305.840969 
L 280.770615 305.840887 
L 279.805957 305.840717 
L 278.841298 305.840378 
L 277.87664 305.839728 
L 276.911981 305.838537 
L 275.947322 305.836443 
L 274.982664 305.832918 
L 274.018005 305.82723 
L 273.053347 305.818437 
L 272.088688 305.805414 
L 271.124029 305.786938 
L 270.159371 305.761843 
L 269.194712 305.72923 
L 268.230054 305.688725 
L 267.265395 305.640735 
L 266.300736 305.586641 
L 265.336078 305.528882 
L 264.371419 305.470866 
L 263.406761 305.416689 
L 262.442102 305.370674 
L 261.477443 305.336783 
L 260.512785 305.317997 
L 259.548126 305.315784 
L 258.583467 305.329761 
L 257.618809 305.357656 
L 256.65415 305.395588 
L 255.689492 305.438633 
L 254.724833 305.481573 
L 253.760174 305.519681 
L 252.795516 305.549382 
L 251.830857 305.568658 
L 250.866199 305.577132 
L 249.90154 305.575817 
L 248.936881 305.566616 
L 247.972223 305.551659 
L 247.007564 305.53263 
L 246.042906 305.510165 
L 245.078247 305.483386 
L 244.113588 305.449546 
L 243.14893 305.403678 
L 242.184271 305.338097 
L 241.219613 305.241622 
L 240.254954 305.09849 
L 239.290295 304.887203 
L 238.325637 304.579885 
L 237.360978 304.143016 
L 236.396319 303.540561 
L 235.431661 302.740183 
L 234.467002 301.722446 
L 233.502344 300.491683 
L 232.537685 299.08589 
L 231.573026 297.582189 
L 230.608368 296.094572 
L 229.643709 294.762198 
L 228.679051 293.729099 
L 227.714392 293.119109 
L 226.749733 293.011943 
z
" style="fill:#ff0000;fill-opacity:0.75;"/>
   </g>
   <g id="PolyCollection_2">
    <path clip-path="url(#pe0fc34cf57)" d="M 226.749733 241.69558 
L 226.749733 267.353761 
L 227.714392 267.246595 
L 228.679051 266.636606 
L 229.643709 265.603507 
L 230.608368 264.271133 
L 231.573026 262.783516 
L 232.537685 261.279815 
L 233.502344 259.874022 
L 234.467002 258.643258 
L 235.431661 257.625521 
L 236.396319 256.825143 
L 237.360978 256.222689 
L 238.325637 255.78582 
L 239.290295 255.478502 
L 240.254954 255.267215 
L 241.219613 255.124082 
L 242.184271 255.027607 
L 243.14893 254.962027 
L 244.113588 254.916158 
L 245.078247 254.882318 
L 246.042906 254.85554 
L 247.007564 254.833074 
L 247.972223 254.814045 
L 248.936881 254.799089 
L 249.90154 254.789887 
L 250.866199 254.788573 
L 251.830857 254.797047 
L 252.795516 254.816323 
L 253.760174 254.846024 
L 254.724833 254.884132 
L 255.689492 254.927072 
L 256.65415 254.970116 
L 257.618809 255.008049 
L 258.583467 255.035944 
L 259.548126 255.049921 
L 260.512785 255.047707 
L 261.477443 255.028922 
L 262.442102 254.995031 
L 263.406761 254.949016 
L 264.371419 254.894838 
L 265.336078 254.836822 
L 266.300736 254.779063 
L 267.265395 254.72497 
L 268.230054 254.676979 
L 269.194712 254.636475 
L 270.159371 254.603862 
L 271.124029 254.578766 
L 272.088688 254.56029 
L 273.053347 254.547267 
L 274.018005 254.538475 
L 274.982664 254.532787 
L 275.947322 254.529262 
L 276.911981 254.527168 
L 277.87664 254.525976 
L 278.841298 254.525327 
L 279.805957 254.524987 
L 280.770615 254.524817 
L 281.735274 254.524736 
L 282.699933 254.524698 
L 283.664591 254.524682 
L 284.62925 254.524675 
L 285.593908 254.524672 
L 286.558567 254.524671 
L 287.523226 254.524671 
L 288.487884 254.524671 
L 289.452543 254.52467 
L 290.417202 254.52467 
L 291.38186 254.52467 
L 292.346519 254.52467 
L 293.311177 254.52467 
L 294.275836 254.52467 
L 295.240495 254.52467 
L 296.205153 254.52467 
L 297.169812 254.524671 
L 298.13447 254.524671 
L 299.099129 254.524671 
L 300.063788 254.524672 
L 301.028446 254.524675 
L 301.993105 254.524682 
L 302.957763 254.524699 
L 303.922422 254.524736 
L 304.887081 254.524814 
L 305.851739 254.524974 
L 306.816398 254.525283 
L 307.781056 254.525857 
L 308.745715 254.526872 
L 309.710374 254.528586 
L 310.675032 254.531343 
L 311.639691 254.535567 
L 312.60435 254.541721 
L 313.569008 254.550238 
L 314.533667 254.561407 
L 315.498325 254.575253 
L 316.462984 254.591409 
L 317.427643 254.60905 
L 318.392301 254.6269 
L 319.35696 254.643355 
L 320.321618 254.656707 
L 321.286277 254.665429 
L 322.250936 254.668462 
L 322.250936 254.380879 
L 322.250936 254.380879 
L 321.286277 254.383912 
L 320.321618 254.392634 
L 319.35696 254.405986 
L 318.392301 254.422441 
L 317.427643 254.440291 
L 316.462984 254.457932 
L 315.498325 254.474088 
L 314.533667 254.487934 
L 313.569008 254.499103 
L 312.60435 254.50762 
L 311.639691 254.513774 
L 310.675032 254.517998 
L 309.710374 254.520755 
L 308.745715 254.522469 
L 307.781056 254.523484 
L 306.816398 254.524058 
L 305.851739 254.524367 
L 304.887081 254.524527 
L 303.922422 254.524605 
L 302.957763 254.524642 
L 301.993105 254.524659 
L 301.028446 254.524666 
L 300.063788 254.524669 
L 299.099129 254.52467 
L 298.13447 254.52467 
L 297.169812 254.52467 
L 296.205153 254.52467 
L 295.240495 254.52467 
L 294.275836 254.52467 
L 293.311177 254.52467 
L 292.346519 254.52467 
L 291.38186 254.52467 
L 290.417202 254.52467 
L 289.452543 254.52467 
L 288.487884 254.52467 
L 287.523226 254.52467 
L 286.558567 254.52467 
L 285.593908 254.524669 
L 284.62925 254.524666 
L 283.664591 254.524659 
L 282.699933 254.524643 
L 281.735274 254.524605 
L 280.770615 254.524524 
L 279.805957 254.524354 
L 278.841298 254.524014 
L 277.87664 254.523364 
L 276.911981 254.522173 
L 275.947322 254.520079 
L 274.982664 254.516554 
L 274.018005 254.510866 
L 273.053347 254.502074 
L 272.088688 254.489051 
L 271.124029 254.470575 
L 270.159371 254.445479 
L 269.194712 254.412866 
L 268.230054 254.372361 
L 267.265395 254.324371 
L 266.300736 254.270278 
L 265.336078 254.212519 
L 264.371419 254.154503 
L 263.406761 254.100325 
L 262.442102 254.05431 
L 261.477443 254.020419 
L 260.512785 254.001634 
L 259.548126 253.99942 
L 258.583467 254.013397 
L 257.618809 254.041292 
L 256.65415 254.079225 
L 255.689492 254.122269 
L 254.724833 254.165209 
L 253.760174 254.203317 
L 252.795516 254.233018 
L 251.830857 254.252294 
L 250.866199 254.260768 
L 249.90154 254.259454 
L 248.936881 254.250252 
L 247.972223 254.235295 
L 247.007564 254.216266 
L 246.042906 254.193801 
L 245.078247 254.167023 
L 244.113588 254.133183 
L 243.14893 254.087314 
L 242.184271 254.021733 
L 241.219613 253.925259 
L 240.254954 253.782126 
L 239.290295 253.570839 
L 238.325637 253.263521 
L 237.360978 252.826652 
L 236.396319 252.224197 
L 235.431661 251.42382 
L 234.467002 250.406083 
L 233.502344 249.175319 
L 232.537685 247.769526 
L 231.573026 246.265825 
L 230.608368 244.778208 
L 229.643709 243.445834 
L 228.679051 242.412735 
L 227.714392 241.802746 
L 226.749733 241.69558 
z
" style="fill:#ff0000;fill-opacity:0.75;"/>
   </g>
   <g id="PolyCollection_3">
    <path clip-path="url(#pe0fc34cf57)" d="M 226.752088 190.380333 
L 226.752088 216.03628 
L 230.031548 216.037398 
L 233.311009 215.770163 
L 236.590469 215.25413 
L 239.86993 214.523634 
L 243.14939 213.624049 
L 246.428851 212.607149 
L 249.708312 211.526217 
L 252.987772 210.43156 
L 256.267233 209.366914 
L 259.546693 208.367059 
L 262.826154 207.45673 
L 266.105614 206.650724 
L 269.385075 205.954938 
L 272.664535 205.368025 
L 275.943996 204.883311 
L 279.223457 204.490704 
L 282.502917 204.178372 
L 285.782378 203.934075 
L 289.061838 203.746112 
L 292.341299 203.60391 
L 295.620759 203.498311 
L 298.90022 203.421643 
L 302.179681 203.367639 
L 305.459141 203.331272 
L 308.738602 203.308554 
L 312.018062 203.296333 
L 315.297523 203.292102 
L 318.576983 203.293839 
L 321.856444 203.299875 
L 325.135905 203.3088 
L 328.415365 203.319404 
L 331.694826 203.33065 
L 334.974286 203.341665 
L 338.253747 203.351755 
L 341.533207 203.360425 
L 344.812668 203.367388 
L 348.092129 203.372571 
L 351.371589 203.376091 
L 354.65105 203.378217 
L 357.93051 203.379309 
L 361.209971 203.379749 
L 364.489431 203.379867 
L 367.768892 203.379879 
L 371.048353 203.379852 
L 374.327813 203.379684 
L 377.607274 203.37913 
L 380.886734 203.377837 
L 384.166195 203.375416 
L 387.445655 203.371503 
L 390.725116 203.36583 
L 394.004577 203.358276 
L 397.284037 203.348891 
L 400.563498 203.337902 
L 403.842958 203.325693 
L 407.122419 203.312765 
L 410.401879 203.299684 
L 413.68134 203.287036 
L 416.960801 203.275376 
L 420.240261 203.265198 
L 423.519722 203.256909 
L 426.799182 203.250822 
L 430.078643 203.247152 
L 433.358103 203.246021 
L 436.637564 203.247459 
L 439.917025 203.251406 
L 443.196485 203.257706 
L 446.475946 203.266101 
L 449.755406 203.276229 
L 453.034867 203.287616 
L 456.314327 203.299691 
L 459.593788 203.3118 
L 462.873249 203.32325 
L 466.152709 203.333349 
L 469.43217 203.341468 
L 472.71163 203.347101 
L 475.991091 203.349916 
L 479.270551 203.349797 
L 482.550012 203.346872 
L 485.829473 203.341509 
L 489.108933 203.334298 
L 492.388394 203.326011 
L 495.667854 203.317545 
L 498.947315 203.309856 
L 502.226775 203.303895 
L 505.506236 203.300537 
L 508.785697 203.300514 
L 512.065157 203.304366 
L 515.344618 203.312384 
L 518.624078 203.324576 
L 521.903539 203.340642 
L 525.182999 203.359966 
L 528.46246 203.381634 
L 531.74192 203.404475 
L 535.021381 203.427135 
L 538.300842 203.448168 
L 541.580302 203.466158 
L 544.859763 203.479834 
L 548.139223 203.488191 
L 551.418684 203.490582 
L 551.418684 202.926032 
L 551.418684 202.926032 
L 548.139223 202.928423 
L 544.859763 202.93678 
L 541.580302 202.950456 
L 538.300842 202.968445 
L 535.021381 202.989479 
L 531.74192 203.012139 
L 528.46246 203.03498 
L 525.182999 203.056648 
L 521.903539 203.075972 
L 518.624078 203.092038 
L 515.344618 203.10423 
L 512.065157 203.112248 
L 508.785697 203.1161 
L 505.506236 203.116077 
L 502.226775 203.112718 
L 498.947315 203.106758 
L 495.667854 203.099069 
L 492.388394 203.090602 
L 489.108933 203.082316 
L 485.829473 203.075105 
L 482.550012 203.069742 
L 479.270551 203.066817 
L 475.991091 203.066698 
L 472.71163 203.069512 
L 469.43217 203.075145 
L 466.152709 203.083265 
L 462.873249 203.093364 
L 459.593788 203.104814 
L 456.314327 203.116923 
L 453.034867 203.128997 
L 449.755406 203.140384 
L 446.475946 203.150512 
L 443.196485 203.158908 
L 439.917025 203.165208 
L 436.637564 203.169154 
L 433.358103 203.170593 
L 430.078643 203.169462 
L 426.799182 203.165792 
L 423.519722 203.159705 
L 420.240261 203.151416 
L 416.960801 203.141238 
L 413.68134 203.129578 
L 410.401879 203.11693 
L 407.122419 203.103849 
L 403.842958 203.09092 
L 400.563498 203.078712 
L 397.284037 203.067723 
L 394.004577 203.058338 
L 390.725116 203.050783 
L 387.445655 203.045111 
L 384.166195 203.041198 
L 380.886734 203.038776 
L 377.607274 203.037484 
L 374.327813 203.03693 
L 371.048353 203.036762 
L 367.768892 203.036734 
L 364.489431 203.036747 
L 361.209971 203.036864 
L 357.93051 203.037304 
L 354.65105 203.038397 
L 351.371589 203.040523 
L 348.092129 203.044043 
L 344.812668 203.049225 
L 341.533207 203.056189 
L 338.253747 203.064858 
L 334.974286 203.074949 
L 331.694826 203.085964 
L 328.415365 203.097209 
L 325.135905 203.107814 
L 321.856444 203.116739 
L 318.576983 203.122774 
L 315.297523 203.124512 
L 312.018062 203.120281 
L 308.738602 203.10806 
L 305.459141 203.085342 
L 302.179681 203.048974 
L 298.90022 202.994971 
L 295.620759 202.918303 
L 292.341299 202.812704 
L 289.061838 202.670501 
L 285.782378 202.482538 
L 282.502917 202.238241 
L 279.223457 201.92591 
L 275.943996 201.533303 
L 272.664535 201.048589 
L 269.385075 200.461675 
L 266.105614 199.76589 
L 262.826154 198.959883 
L 259.546693 198.049555 
L 256.267233 197.049699 
L 252.987772 195.985054 
L 249.708312 194.890397 
L 246.428851 193.809465 
L 243.14939 192.792564 
L 239.86993 191.89298 
L 236.590469 191.162484 
L 233.311009 190.64645 
L 230.031548 190.379216 
L 226.752088 190.380333 
z
" style="fill:#ff0000;fill-opacity:0.75;"/>
   </g>
   <g id="PolyCollection_4">
    <path clip-path="url(#pe0fc34cf57)" d="M 226.75429 139.489844 
L 226.75429 164.294042 
L 227.805735 164.721034 
L 228.857181 164.592215 
L 229.908627 163.930428 
L 230.960072 162.826347 
L 232.011518 161.418776 
L 233.062963 159.866513 
L 234.114409 158.319592 
L 235.165855 156.896954 
L 236.2173 155.674712 
L 237.268746 154.685449 
L 238.320191 153.925942 
L 239.371637 153.369176 
L 240.423083 152.976614 
L 241.474528 152.707992 
L 242.525974 152.527496 
L 243.577419 152.40656 
L 244.628865 152.324232 
L 245.680311 152.266247 
L 246.731756 152.223652 
L 247.783202 152.191504 
L 248.834648 152.167773 
L 249.886093 152.152424 
L 250.937539 152.146576 
L 251.988984 152.151674 
L 253.04043 152.168691 
L 254.091876 152.197452 
L 255.143321 152.236187 
L 256.194767 152.281416 
L 257.246212 152.328219 
L 258.297658 152.370841 
L 259.349104 152.403538 
L 260.400549 152.421481 
L 261.451995 152.421545 
L 262.50344 152.402811 
L 263.554886 152.366671 
L 264.606332 152.316529 
L 265.657777 152.257161 
L 266.709223 152.193885 
L 267.760668 152.131727 
L 268.812114 152.074752 
L 269.86356 152.025671 
L 270.915005 151.985759 
L 271.966451 151.955032 
L 273.017897 151.932594 
L 274.069342 151.91703 
L 275.120788 151.906766 
L 276.172233 151.900326 
L 277.223679 151.896479 
L 278.275125 151.894291 
L 279.32657 151.893105 
L 280.378016 151.892493 
L 281.429461 151.892192 
L 282.480907 151.892051 
L 283.532353 151.891988 
L 284.583798 151.891961 
L 285.635244 151.89195 
L 286.686689 151.891946 
L 287.738135 151.891944 
L 288.789581 151.891943 
L 289.841026 151.891943 
L 290.892472 151.891943 
L 291.943917 151.891943 
L 292.995363 151.891943 
L 294.046809 151.891943 
L 295.098254 151.891943 
L 296.1497 151.891943 
L 297.201146 151.891943 
L 298.252591 151.891943 
L 299.304037 151.891943 
L 300.355482 151.891943 
L 301.406928 151.891943 
L 302.458374 151.891943 
L 303.509819 151.891943 
L 304.561265 151.891943 
L 305.61271 151.891943 
L 306.664156 151.891944 
L 307.715602 151.891945 
L 308.767047 151.891949 
L 309.818493 151.891957 
L 310.869938 151.891978 
L 311.921384 151.892025 
L 312.97283 151.892127 
L 314.024275 151.892337 
L 315.075721 151.892747 
L 316.127167 151.893512 
L 317.178612 151.894867 
L 318.230058 151.897146 
L 319.281503 151.900784 
L 320.332949 151.906289 
L 321.384395 151.914174 
L 322.43584 151.92484 
L 323.487286 151.93843 
L 324.538731 151.954674 
L 325.590177 151.972779 
L 326.641623 151.991417 
L 327.693068 152.008837 
L 328.744514 152.023118 
L 329.795959 152.03251 
L 330.847405 152.035789 
L 330.847405 151.748098 
L 330.847405 151.748098 
L 329.795959 151.751376 
L 328.744514 151.760769 
L 327.693068 151.775049 
L 326.641623 151.792469 
L 325.590177 151.811107 
L 324.538731 151.829213 
L 323.487286 151.845457 
L 322.43584 151.859046 
L 321.384395 151.869712 
L 320.332949 151.877597 
L 319.281503 151.883102 
L 318.230058 151.886741 
L 317.178612 151.889019 
L 316.127167 151.890374 
L 315.075721 151.891139 
L 314.024275 151.89155 
L 312.97283 151.891759 
L 311.921384 151.891861 
L 310.869938 151.891908 
L 309.818493 151.891929 
L 308.767047 151.891938 
L 307.715602 151.891941 
L 306.664156 151.891942 
L 305.61271 151.891943 
L 304.561265 151.891943 
L 303.509819 151.891943 
L 302.458374 151.891943 
L 301.406928 151.891943 
L 300.355482 151.891943 
L 299.304037 151.891943 
L 298.252591 151.891943 
L 297.201146 151.891943 
L 296.1497 151.891943 
L 295.098254 151.891943 
L 294.046809 151.891943 
L 292.995363 151.891943 
L 291.943917 151.891943 
L 290.892472 151.891943 
L 289.841026 151.891943 
L 288.789581 151.891943 
L 287.738135 151.891942 
L 286.686689 151.891941 
L 285.635244 151.891937 
L 284.583798 151.891926 
L 283.532353 151.891899 
L 282.480907 151.891835 
L 281.429461 151.891694 
L 280.378016 151.891393 
L 279.32657 151.890781 
L 278.275125 151.889595 
L 277.223679 151.887407 
L 276.172233 151.883561 
L 275.120788 151.877121 
L 274.069342 151.866856 
L 273.017897 151.851293 
L 271.966451 151.828854 
L 270.915005 151.798128 
L 269.86356 151.758216 
L 268.812114 151.709135 
L 267.760668 151.652159 
L 266.709223 151.590001 
L 265.657777 151.526725 
L 264.606332 151.467357 
L 263.554886 151.417216 
L 262.50344 151.381076 
L 261.451995 151.362341 
L 260.400549 151.362405 
L 259.349104 151.380348 
L 258.297658 151.413045 
L 257.246212 151.455668 
L 256.194767 151.502471 
L 255.143321 151.5477 
L 254.091876 151.586434 
L 253.04043 151.615196 
L 251.988984 151.632213 
L 250.937539 151.63731 
L 249.886093 151.631462 
L 248.834648 151.616114 
L 247.783202 151.592383 
L 246.731756 151.560235 
L 245.680311 151.51764 
L 244.628865 151.459654 
L 243.577419 151.377327 
L 242.525974 151.25639 
L 241.474528 151.075895 
L 240.423083 150.807272 
L 239.371637 150.41471 
L 238.320191 149.857944 
L 237.268746 149.098438 
L 236.2173 148.109174 
L 235.165855 146.886932 
L 234.114409 145.464294 
L 233.062963 143.917373 
L 232.011518 142.365111 
L 230.960072 140.95754 
L 229.908627 139.853459 
L 228.857181 139.191671 
L 227.805735 139.062852 
L 226.75429 139.489844 
z
" style="fill:#ff0000;fill-opacity:0.75;"/>
   </g>
   <g id="PolyCollection_5">
    <path clip-path="url(#pe0fc34cf57)" d="M 228.483047 91.436223 
L 228.483047 109.714936 
L 231.823 111.188171 
L 235.162952 112.367338 
L 238.502905 113.130616 
L 241.842858 113.40467 
L 245.18281 113.175695 
L 248.522763 112.487963 
L 251.862716 111.431665 
L 255.202668 110.124458 
L 258.542621 108.691776 
L 261.882574 107.249914 
L 265.222527 105.893997 
L 268.562479 104.691323 
L 271.902432 103.679566 
L 275.242385 102.869023 
L 278.582337 102.247898 
L 281.92229 101.789541 
L 285.262243 101.460256 
L 288.602195 101.226304 
L 291.942148 101.058922 
L 295.282101 100.936828 
L 298.622054 100.846351 
L 301.962006 100.779897 
L 305.301959 100.73369 
L 308.641912 100.705592 
L 311.981864 100.693479 
L 315.321817 100.694354 
L 318.66177 100.704136 
L 322.001723 100.717979 
L 325.341675 100.730943 
L 328.681628 100.738816 
L 332.021581 100.738846 
L 335.361533 100.730177 
L 338.701486 100.713815 
L 342.041439 100.692164 
L 345.381391 100.668271 
L 348.721344 100.645035 
L 352.061297 100.624624 
L 355.40125 100.608214 
L 358.741202 100.596042 
L 362.081155 100.587669 
L 365.421108 100.58231 
L 368.76106 100.579111 
L 372.101013 100.577325 
L 375.440966 100.576393 
L 378.780918 100.575936 
L 382.120871 100.575727 
L 385.460824 100.575637 
L 388.800777 100.575601 
L 392.140729 100.575587 
L 395.480682 100.575582 
L 398.820635 100.57558 
L 402.160587 100.57558 
L 405.50054 100.57558 
L 408.840493 100.57558 
L 412.180446 100.57558 
L 415.520398 100.57558 
L 418.860351 100.57558 
L 422.200304 100.57558 
L 425.540256 100.57558 
L 428.880209 100.57558 
L 432.220162 100.57558 
L 435.560114 100.57558 
L 438.900067 100.57558 
L 442.24002 100.57558 
L 445.579973 100.57558 
L 448.919925 100.57558 
L 452.259878 100.57558 
L 455.599831 100.57558 
L 458.939783 100.57558 
L 462.279736 100.57558 
L 465.619689 100.57558 
L 468.959641 100.57558 
L 472.299594 100.57558 
L 475.639547 100.57558 
L 478.9795 100.57558 
L 482.319452 100.57558 
L 485.659405 100.57558 
L 488.999358 100.57558 
L 492.33931 100.575581 
L 495.679263 100.575583 
L 499.019216 100.57559 
L 502.359169 100.57561 
L 505.699121 100.57566 
L 509.039074 100.575782 
L 512.379027 100.576059 
L 515.718979 100.57665 
L 519.058932 100.577831 
L 522.398885 100.58004 
L 525.738837 100.583905 
L 529.07879 100.590225 
L 532.418743 100.599855 
L 535.758696 100.613494 
L 539.098648 100.631378 
L 542.438601 100.652958 
L 545.778554 100.676692 
L 549.118506 100.70008 
L 552.458459 100.720029 
L 555.798412 100.733502 
L 559.138364 100.738266 
L 559.138364 100.412893 
L 559.138364 100.412893 
L 555.798412 100.417657 
L 552.458459 100.43113 
L 549.118506 100.45108 
L 545.778554 100.474467 
L 542.438601 100.498201 
L 539.098648 100.519781 
L 535.758696 100.537665 
L 532.418743 100.551304 
L 529.07879 100.560934 
L 525.738837 100.567254 
L 522.398885 100.57112 
L 519.058932 100.573328 
L 515.718979 100.574509 
L 512.379027 100.5751 
L 509.039074 100.575377 
L 505.699121 100.575499 
L 502.359169 100.575549 
L 499.019216 100.575569 
L 495.679263 100.575576 
L 492.33931 100.575578 
L 488.999358 100.575579 
L 485.659405 100.575579 
L 482.319452 100.57558 
L 478.9795 100.57558 
L 475.639547 100.57558 
L 472.299594 100.57558 
L 468.959641 100.57558 
L 465.619689 100.57558 
L 462.279736 100.57558 
L 458.939783 100.57558 
L 455.599831 100.57558 
L 452.259878 100.57558 
L 448.919925 100.57558 
L 445.579973 100.57558 
L 442.24002 100.57558 
L 438.900067 100.57558 
L 435.560114 100.57558 
L 432.220162 100.57558 
L 428.880209 100.57558 
L 425.540256 100.57558 
L 422.200304 100.57558 
L 418.860351 100.57558 
L 415.520398 100.57558 
L 412.180446 100.57558 
L 408.840493 100.57558 
L 405.50054 100.575579 
L 402.160587 100.575579 
L 398.820635 100.575579 
L 395.480682 100.575577 
L 392.140729 100.575572 
L 388.800777 100.575558 
L 385.460824 100.575522 
L 382.120871 100.575432 
L 378.780918 100.575223 
L 375.440966 100.574767 
L 372.101013 100.573834 
L 368.76106 100.572049 
L 365.421108 100.568849 
L 362.081155 100.56349 
L 358.741202 100.555117 
L 355.40125 100.542945 
L 352.061297 100.526535 
L 348.721344 100.506124 
L 345.381391 100.482888 
L 342.041439 100.458995 
L 338.701486 100.437344 
L 335.361533 100.420983 
L 332.021581 100.412313 
L 328.681628 100.412344 
L 325.341675 100.420216 
L 322.001723 100.43318 
L 318.66177 100.447023 
L 315.321817 100.456806 
L 311.981864 100.45768 
L 308.641912 100.445567 
L 305.301959 100.417469 
L 301.962006 100.371263 
L 298.622054 100.304808 
L 295.282101 100.214331 
L 291.942148 100.092238 
L 288.602195 99.924855 
L 285.262243 99.690903 
L 281.92229 99.361618 
L 278.582337 98.903261 
L 275.242385 98.282136 
L 271.902432 97.471593 
L 268.562479 96.459837 
L 265.222527 95.257162 
L 261.882574 93.901246 
L 258.542621 92.459383 
L 255.202668 91.026701 
L 251.862716 89.719494 
L 248.522763 88.663196 
L 245.18281 87.975464 
L 241.842858 87.746489 
L 238.502905 88.020543 
L 235.162952 88.783821 
L 231.823 89.962989 
L 228.483047 91.436223 
z
" style="fill:#ff0000;fill-opacity:0.75;"/>
   </g>
   <g id="PolyCollection_6">
    <path clip-path="url(#pe0fc34cf57)" d="M 226.746875 37.745298 
L 226.746875 60.773133 
L 227.795076 61.646419 
L 228.843277 62.088307 
L 229.891479 62.056667 
L 230.93968 61.562487 
L 231.987881 60.666882 
L 233.036082 59.469185 
L 234.084284 58.089277 
L 235.132485 56.648435 
L 236.180686 55.252828 
L 237.228887 53.982527 
L 238.277089 52.887091 
L 239.32529 51.987066 
L 240.373491 51.279567 
L 241.421692 50.745737 
L 242.469893 50.358136 
L 243.518095 50.086804 
L 244.566296 49.903457 
L 245.614497 49.783875 
L 246.662698 49.708862 
L 247.7109 49.664213 
L 248.759101 49.64012 
L 249.807302 49.630274 
L 250.855503 49.630849 
L 251.903705 49.639486 
L 252.951906 49.654372 
L 254.000107 49.673514 
L 255.048308 49.694311 
L 256.096509 49.713489 
L 257.144711 49.727405 
L 258.192912 49.732629 
L 259.241113 49.726653 
L 260.289314 49.708501 
L 261.337516 49.679065 
L 262.385717 49.641034 
L 263.433918 49.598413 
L 264.482119 49.555739 
L 265.530321 49.517195 
L 266.578522 49.485819 
L 267.626723 49.463005 
L 268.674924 49.448392 
L 269.723125 49.440132 
L 270.771327 49.435459 
L 271.819528 49.43138 
L 272.867729 49.425346 
L 273.91593 49.415724 
L 274.964132 49.402001 
L 276.012333 49.384712 
L 277.060534 49.365137 
L 278.108735 49.3449 
L 279.156937 49.325575 
L 280.205138 49.308384 
L 281.253339 49.294056 
L 282.30154 49.282821 
L 283.349741 49.274505 
L 284.397943 49.268682 
L 285.446144 49.264819 
L 286.494345 49.262386 
L 287.542546 49.26093 
L 288.590748 49.260102 
L 289.638949 49.259654 
L 290.68715 49.259423 
L 291.735351 49.259309 
L 292.783553 49.259256 
L 293.831754 49.259233 
L 294.879955 49.259222 
L 295.928156 49.259218 
L 296.976357 49.259217 
L 298.024559 49.259216 
L 299.07276 49.259216 
L 300.120961 49.259216 
L 301.169162 49.259216 
L 302.217364 49.259216 
L 303.265565 49.259216 
L 304.313766 49.259216 
L 305.361967 49.259216 
L 306.410169 49.259217 
L 307.45837 49.259219 
L 308.506571 49.259223 
L 309.554772 49.259234 
L 310.602973 49.25926 
L 311.651175 49.259318 
L 312.699376 49.259441 
L 313.747577 49.259689 
L 314.795778 49.260169 
L 315.84398 49.261051 
L 316.892181 49.262594 
L 317.940382 49.265157 
L 318.988583 49.269204 
L 320.036785 49.275267 
L 321.084986 49.283871 
L 322.133187 49.295413 
L 323.181388 49.310011 
L 324.229589 49.327349 
L 325.277791 49.346567 
L 326.325992 49.366259 
L 327.374193 49.384596 
L 328.422394 49.399588 
L 329.470596 49.40943 
L 330.518797 49.412861 
L 330.518797 49.10557 
L 330.518797 49.10557 
L 329.470596 49.109002 
L 328.422394 49.118844 
L 327.374193 49.133836 
L 326.325992 49.152173 
L 325.277791 49.171865 
L 324.229589 49.191083 
L 323.181388 49.208421 
L 322.133187 49.223019 
L 321.084986 49.234561 
L 320.036785 49.243165 
L 318.988583 49.249228 
L 317.940382 49.253275 
L 316.892181 49.255838 
L 315.84398 49.25738 
L 314.795778 49.258263 
L 313.747577 49.258743 
L 312.699376 49.258991 
L 311.651175 49.259114 
L 310.602973 49.259172 
L 309.554772 49.259198 
L 308.506571 49.259209 
L 307.45837 49.259213 
L 306.410169 49.259215 
L 305.361967 49.259216 
L 304.313766 49.259216 
L 303.265565 49.259216 
L 302.217364 49.259216 
L 301.169162 49.259216 
L 300.120961 49.259216 
L 299.07276 49.259216 
L 298.024559 49.259216 
L 296.976357 49.259215 
L 295.928156 49.259213 
L 294.879955 49.259209 
L 293.831754 49.259199 
L 292.783553 49.259176 
L 291.735351 49.259123 
L 290.68715 49.259009 
L 289.638949 49.258778 
L 288.590748 49.25833 
L 287.542546 49.257502 
L 286.494345 49.256046 
L 285.446144 49.253613 
L 284.397943 49.24975 
L 283.349741 49.243927 
L 282.30154 49.235611 
L 281.253339 49.224375 
L 280.205138 49.210048 
L 279.156937 49.192857 
L 278.108735 49.173531 
L 277.060534 49.153295 
L 276.012333 49.13372 
L 274.964132 49.11643 
L 273.91593 49.102708 
L 272.867729 49.093086 
L 271.819528 49.087052 
L 270.771327 49.082973 
L 269.723125 49.078299 
L 268.674924 49.07004 
L 267.626723 49.055427 
L 266.578522 49.032613 
L 265.530321 49.001236 
L 264.482119 48.962693 
L 263.433918 48.920019 
L 262.385717 48.877398 
L 261.337516 48.839367 
L 260.289314 48.809931 
L 259.241113 48.791779 
L 258.192912 48.785803 
L 257.144711 48.791027 
L 256.096509 48.804943 
L 255.048308 48.824121 
L 254.000107 48.844918 
L 252.951906 48.86406 
L 251.903705 48.878946 
L 250.855503 48.887583 
L 249.807302 48.888158 
L 248.759101 48.878312 
L 247.7109 48.854219 
L 246.662698 48.80957 
L 245.614497 48.734556 
L 244.566296 48.614975 
L 243.518095 48.431627 
L 242.469893 48.160295 
L 241.421692 47.772695 
L 240.373491 47.238865 
L 239.32529 46.531366 
L 238.277089 45.631341 
L 237.228887 44.535905 
L 236.180686 43.265604 
L 235.132485 41.869997 
L 234.084284 40.429155 
L 233.036082 39.049246 
L 231.987881 37.851549 
L 230.93968 36.955945 
L 229.891479 36.461765 
L 228.843277 36.430125 
L 227.795076 36.872013 
L 226.746875 37.745298 
z
" style="fill:#ff0000;fill-opacity:0.75;"/>
   </g>
   <g id="LineCollection_1">
    <path clip-path="url(#pe0fc34cf57)" d="M 229.975477 312.25558 
L 229.975477 299.426489 
" style="fill:none;stroke:#000000;stroke-width:1.5;"/>
    <path clip-path="url(#pe0fc34cf57)" d="M 229.975477 260.939216 
L 229.975477 248.110125 
" style="fill:none;stroke:#000000;stroke-width:1.5;"/>
    <path clip-path="url(#pe0fc34cf57)" d="M 241.093601 209.622852 
L 241.093601 196.793761 
" style="fill:none;stroke:#000000;stroke-width:1.5;"/>
    <path clip-path="url(#pe0fc34cf57)" d="M 231.008096 158.306489 
L 231.008096 145.477398 
" style="fill:none;stroke:#000000;stroke-width:1.5;"/>
    <path clip-path="url(#pe0fc34cf57)" d="M 247.915081 106.990125 
L 247.915081 94.161034 
" style="fill:none;stroke:#000000;stroke-width:1.5;"/>
    <path clip-path="url(#pe0fc34cf57)" d="M 232.249371 55.673761 
L 232.249371 42.84467 
" style="fill:none;stroke:#000000;stroke-width:1.5;"/>
   </g>
   <g id="patch_3">
    <path d="M 226.746875 332.782125 
L 226.746875 22.318125 
" style="fill:none;stroke:#000000;stroke-linecap:square;stroke-linejoin:miter;stroke-width:0.8;"/>
   </g>
   <g id="patch_4">
    <path d="M 617.346875 332.782125 
L 617.346875 22.318125 
" style="fill:none;stroke:#000000;stroke-linecap:square;stroke-linejoin:miter;stroke-width:0.8;"/>
   </g>
   <g id="patch_5">
    <path d="M 226.746875 332.782125 
L 617.346875 332.782125 
" style="fill:none;stroke:#000000;stroke-linecap:square;stroke-linejoin:miter;stroke-width:0.8;"/>
   </g>
   <g id="patch_6">
    <path d="M 226.746875 22.318125 
L 617.346875 22.318125 
" style="fill:none;stroke:#000000;stroke-linecap:square;stroke-linejoin:miter;stroke-width:0.8;"/>
   </g>
   <g id="text_15">
    <!-- AOE2 for 0.1 -->
    <g transform="translate(384.005938 16.318125)scale(0.12 -0.12)">
     <use xlink:href="#DejaVuSans-41"/>
     <use x="68.392578" xlink:href="#DejaVuSans-4f"/>
     <use x="147.103516" xlink:href="#DejaVuSans-45"/>
     <use x="210.287109" xlink:href="#DejaVuSans-32"/>
     <use x="273.910156" xlink:href="#DejaVuSans-20"/>
     <use x="305.697266" xlink:href="#DejaVuSans-66"/>
     <use x="340.902344" xlink:href="#DejaVuSans-6f"/>
     <use x="402.083984" xlink:href="#DejaVuSans-72"/>
     <use x="443.197266" xlink:href="#DejaVuSans-20"/>
     <use x="474.984375" xlink:href="#DejaVuSans-30"/>
     <use x="538.607422" xlink:href="#DejaVuSans-2e"/>
     <use x="570.394531" xlink:href="#DejaVuSans-31"/>
    </g>
   </g>
  </g>
 </g>
 <defs>
  <clipPath id="pe0fc34cf57">
   <rect height="310.464" width="390.6" x="226.746875" y="22.318125"/>
  </clipPath>
 </defs>
</svg>
