<?xml version="1.0" encoding="utf-8" standalone="no"?>
<!DOCTYPE svg PUBLIC "-//W3C//DTD SVG 1.1//EN"
  "http://www.w3.org/Graphics/SVG/1.1/DTD/svg11.dtd">
<!-- Created with matplotlib (http://matplotlib.org/) -->
<svg height="381.426375pt" version="1.1" viewBox="0 0 632.498437 381.426375" width="632.498437pt" xmlns="http://www.w3.org/2000/svg" xmlns:xlink="http://www.w3.org/1999/xlink">
 <defs>
  <style type="text/css">
*{stroke-linecap:butt;stroke-linejoin:round;}
  </style>
 </defs>
 <g id="figure_1">
  <g id="patch_1">
   <path d="M -0 381.426375 
L 632.498438 381.426375 
L 632.498438 0 
L -0 0 
z
" style="fill:#ffffff;"/>
  </g>
  <g id="axes_1">
   <g id="patch_2">
    <path d="M 226.746875 343.870125 
L 617.346875 343.870125 
L 617.346875 22.318125 
L 226.746875 22.318125 
z
" style="fill:#ffffff;"/>
   </g>
   <g id="matplotlib.axis_1">
    <g id="xtick_1">
     <g id="line2d_1">
      <path clip-path="url(#pe041ccdc95)" d="M 226.746875 343.870125 
L 226.746875 22.318125 
" style="fill:none;stroke:#b0b0b0;stroke-linecap:square;stroke-width:0.8;"/>
     </g>
     <g id="line2d_2">
      <defs>
       <path d="M 0 0 
L 0 3.5 
" id="m0e3ad297d5" style="stroke:#000000;stroke-width:0.8;"/>
      </defs>
      <g>
       <use style="stroke:#000000;stroke-width:0.8;" x="226.746875" xlink:href="#m0e3ad297d5" y="343.870125"/>
      </g>
     </g>
     <g id="text_1">
      <!-- 0.0 -->
      <defs>
       <path d="M 31.78125 66.40625 
Q 24.171875 66.40625 20.328125 58.90625 
Q 16.5 51.421875 16.5 36.375 
Q 16.5 21.390625 20.328125 13.890625 
Q 24.171875 6.390625 31.78125 6.390625 
Q 39.453125 6.390625 43.28125 13.890625 
Q 47.125 21.390625 47.125 36.375 
Q 47.125 51.421875 43.28125 58.90625 
Q 39.453125 66.40625 31.78125 66.40625 
z
M 31.78125 74.21875 
Q 44.046875 74.21875 50.515625 64.515625 
Q 56.984375 54.828125 56.984375 36.375 
Q 56.984375 17.96875 50.515625 8.265625 
Q 44.046875 -1.421875 31.78125 -1.421875 
Q 19.53125 -1.421875 13.0625 8.265625 
Q 6.59375 17.96875 6.59375 36.375 
Q 6.59375 54.828125 13.0625 64.515625 
Q 19.53125 74.21875 31.78125 74.21875 
z
" id="DejaVuSans-30"/>
       <path d="M 10.6875 12.40625 
L 21 12.40625 
L 21 0 
L 10.6875 0 
z
" id="DejaVuSans-2e"/>
      </defs>
      <g transform="translate(218.795312 358.468563)scale(0.1 -0.1)">
       <use xlink:href="#DejaVuSans-30"/>
       <use x="63.623047" xlink:href="#DejaVuSans-2e"/>
       <use x="95.410156" xlink:href="#DejaVuSans-30"/>
      </g>
     </g>
    </g>
    <g id="xtick_2">
     <g id="line2d_3">
      <path clip-path="url(#pe041ccdc95)" d="M 291.846875 343.870125 
L 291.846875 22.318125 
" style="fill:none;stroke:#b0b0b0;stroke-linecap:square;stroke-width:0.8;"/>
     </g>
     <g id="line2d_4">
      <g>
       <use style="stroke:#000000;stroke-width:0.8;" x="291.846875" xlink:href="#m0e3ad297d5" y="343.870125"/>
      </g>
     </g>
     <g id="text_2">
      <!-- 0.5 -->
      <defs>
       <path d="M 10.796875 72.90625 
L 49.515625 72.90625 
L 49.515625 64.59375 
L 19.828125 64.59375 
L 19.828125 46.734375 
Q 21.96875 47.46875 24.109375 47.828125 
Q 26.265625 48.1875 28.421875 48.1875 
Q 40.625 48.1875 47.75 41.5 
Q 54.890625 34.8125 54.890625 23.390625 
Q 54.890625 11.625 47.5625 5.09375 
Q 40.234375 -1.421875 26.90625 -1.421875 
Q 22.3125 -1.421875 17.546875 -0.640625 
Q 12.796875 0.140625 7.71875 1.703125 
L 7.71875 11.625 
Q 12.109375 9.234375 16.796875 8.0625 
Q 21.484375 6.890625 26.703125 6.890625 
Q 35.15625 6.890625 40.078125 11.328125 
Q 45.015625 15.765625 45.015625 23.390625 
Q 45.015625 31 40.078125 35.4375 
Q 35.15625 39.890625 26.703125 39.890625 
Q 22.75 39.890625 18.8125 39.015625 
Q 14.890625 38.140625 10.796875 36.28125 
z
" id="DejaVuSans-35"/>
      </defs>
      <g transform="translate(283.895312 358.468563)scale(0.1 -0.1)">
       <use xlink:href="#DejaVuSans-30"/>
       <use x="63.623047" xlink:href="#DejaVuSans-2e"/>
       <use x="95.410156" xlink:href="#DejaVuSans-35"/>
      </g>
     </g>
    </g>
    <g id="xtick_3">
     <g id="line2d_5">
      <path clip-path="url(#pe041ccdc95)" d="M 356.946875 343.870125 
L 356.946875 22.318125 
" style="fill:none;stroke:#b0b0b0;stroke-linecap:square;stroke-width:0.8;"/>
     </g>
     <g id="line2d_6">
      <g>
       <use style="stroke:#000000;stroke-width:0.8;" x="356.946875" xlink:href="#m0e3ad297d5" y="343.870125"/>
      </g>
     </g>
     <g id="text_3">
      <!-- 1.0 -->
      <defs>
       <path d="M 12.40625 8.296875 
L 28.515625 8.296875 
L 28.515625 63.921875 
L 10.984375 60.40625 
L 10.984375 69.390625 
L 28.421875 72.90625 
L 38.28125 72.90625 
L 38.28125 8.296875 
L 54.390625 8.296875 
L 54.390625 0 
L 12.40625 0 
z
" id="DejaVuSans-31"/>
      </defs>
      <g transform="translate(348.995312 358.468563)scale(0.1 -0.1)">
       <use xlink:href="#DejaVuSans-31"/>
       <use x="63.623047" xlink:href="#DejaVuSans-2e"/>
       <use x="95.410156" xlink:href="#DejaVuSans-30"/>
      </g>
     </g>
    </g>
    <g id="xtick_4">
     <g id="line2d_7">
      <path clip-path="url(#pe041ccdc95)" d="M 422.046875 343.870125 
L 422.046875 22.318125 
" style="fill:none;stroke:#b0b0b0;stroke-linecap:square;stroke-width:0.8;"/>
     </g>
     <g id="line2d_8">
      <g>
       <use style="stroke:#000000;stroke-width:0.8;" x="422.046875" xlink:href="#m0e3ad297d5" y="343.870125"/>
      </g>
     </g>
     <g id="text_4">
      <!-- 1.5 -->
      <g transform="translate(414.095312 358.468563)scale(0.1 -0.1)">
       <use xlink:href="#DejaVuSans-31"/>
       <use x="63.623047" xlink:href="#DejaVuSans-2e"/>
       <use x="95.410156" xlink:href="#DejaVuSans-35"/>
      </g>
     </g>
    </g>
    <g id="xtick_5">
     <g id="line2d_9">
      <path clip-path="url(#pe041ccdc95)" d="M 487.146875 343.870125 
L 487.146875 22.318125 
" style="fill:none;stroke:#b0b0b0;stroke-linecap:square;stroke-width:0.8;"/>
     </g>
     <g id="line2d_10">
      <g>
       <use style="stroke:#000000;stroke-width:0.8;" x="487.146875" xlink:href="#m0e3ad297d5" y="343.870125"/>
      </g>
     </g>
     <g id="text_5">
      <!-- 2.0 -->
      <defs>
       <path d="M 19.1875 8.296875 
L 53.609375 8.296875 
L 53.609375 0 
L 7.328125 0 
L 7.328125 8.296875 
Q 12.9375 14.109375 22.625 23.890625 
Q 32.328125 33.6875 34.8125 36.53125 
Q 39.546875 41.84375 41.421875 45.53125 
Q 43.3125 49.21875 43.3125 52.78125 
Q 43.3125 58.59375 39.234375 62.25 
Q 35.15625 65.921875 28.609375 65.921875 
Q 23.96875 65.921875 18.8125 64.3125 
Q 13.671875 62.703125 7.8125 59.421875 
L 7.8125 69.390625 
Q 13.765625 71.78125 18.9375 73 
Q 24.125 74.21875 28.421875 74.21875 
Q 39.75 74.21875 46.484375 68.546875 
Q 53.21875 62.890625 53.21875 53.421875 
Q 53.21875 48.921875 51.53125 44.890625 
Q 49.859375 40.875 45.40625 35.40625 
Q 44.1875 33.984375 37.640625 27.21875 
Q 31.109375 20.453125 19.1875 8.296875 
z
" id="DejaVuSans-32"/>
      </defs>
      <g transform="translate(479.195312 358.468563)scale(0.1 -0.1)">
       <use xlink:href="#DejaVuSans-32"/>
       <use x="63.623047" xlink:href="#DejaVuSans-2e"/>
       <use x="95.410156" xlink:href="#DejaVuSans-30"/>
      </g>
     </g>
    </g>
    <g id="xtick_6">
     <g id="line2d_11">
      <path clip-path="url(#pe041ccdc95)" d="M 552.246875 343.870125 
L 552.246875 22.318125 
" style="fill:none;stroke:#b0b0b0;stroke-linecap:square;stroke-width:0.8;"/>
     </g>
     <g id="line2d_12">
      <g>
       <use style="stroke:#000000;stroke-width:0.8;" x="552.246875" xlink:href="#m0e3ad297d5" y="343.870125"/>
      </g>
     </g>
     <g id="text_6">
      <!-- 2.5 -->
      <g transform="translate(544.295313 358.468563)scale(0.1 -0.1)">
       <use xlink:href="#DejaVuSans-32"/>
       <use x="63.623047" xlink:href="#DejaVuSans-2e"/>
       <use x="95.410156" xlink:href="#DejaVuSans-35"/>
      </g>
     </g>
    </g>
    <g id="xtick_7">
     <g id="line2d_13">
      <path clip-path="url(#pe041ccdc95)" d="M 617.346875 343.870125 
L 617.346875 22.318125 
" style="fill:none;stroke:#b0b0b0;stroke-linecap:square;stroke-width:0.8;"/>
     </g>
     <g id="line2d_14">
      <g>
       <use style="stroke:#000000;stroke-width:0.8;" x="617.346875" xlink:href="#m0e3ad297d5" y="343.870125"/>
      </g>
     </g>
     <g id="text_7">
      <!-- 3.0 -->
      <defs>
       <path d="M 40.578125 39.3125 
Q 47.65625 37.796875 51.625 33 
Q 55.609375 28.21875 55.609375 21.1875 
Q 55.609375 10.40625 48.1875 4.484375 
Q 40.765625 -1.421875 27.09375 -1.421875 
Q 22.515625 -1.421875 17.65625 -0.515625 
Q 12.796875 0.390625 7.625 2.203125 
L 7.625 11.71875 
Q 11.71875 9.328125 16.59375 8.109375 
Q 21.484375 6.890625 26.8125 6.890625 
Q 36.078125 6.890625 40.9375 10.546875 
Q 45.796875 14.203125 45.796875 21.1875 
Q 45.796875 27.640625 41.28125 31.265625 
Q 36.765625 34.90625 28.71875 34.90625 
L 20.21875 34.90625 
L 20.21875 43.015625 
L 29.109375 43.015625 
Q 36.375 43.015625 40.234375 45.921875 
Q 44.09375 48.828125 44.09375 54.296875 
Q 44.09375 59.90625 40.109375 62.90625 
Q 36.140625 65.921875 28.71875 65.921875 
Q 24.65625 65.921875 20.015625 65.03125 
Q 15.375 64.15625 9.8125 62.3125 
L 9.8125 71.09375 
Q 15.4375 72.65625 20.34375 73.4375 
Q 25.25 74.21875 29.59375 74.21875 
Q 40.828125 74.21875 47.359375 69.109375 
Q 53.90625 64.015625 53.90625 55.328125 
Q 53.90625 49.265625 50.4375 45.09375 
Q 46.96875 40.921875 40.578125 39.3125 
z
" id="DejaVuSans-33"/>
      </defs>
      <g transform="translate(609.395312 358.468563)scale(0.1 -0.1)">
       <use xlink:href="#DejaVuSans-33"/>
       <use x="63.623047" xlink:href="#DejaVuSans-2e"/>
       <use x="95.410156" xlink:href="#DejaVuSans-30"/>
      </g>
     </g>
    </g>
    <g id="text_8">
     <!-- AOE1 (TO) -->
     <defs>
      <path d="M 34.1875 63.1875 
L 20.796875 26.90625 
L 47.609375 26.90625 
z
M 28.609375 72.90625 
L 39.796875 72.90625 
L 67.578125 0 
L 57.328125 0 
L 50.6875 18.703125 
L 17.828125 18.703125 
L 11.1875 0 
L 0.78125 0 
z
" id="DejaVuSans-41"/>
      <path d="M 39.40625 66.21875 
Q 28.65625 66.21875 22.328125 58.203125 
Q 16.015625 50.203125 16.015625 36.375 
Q 16.015625 22.609375 22.328125 14.59375 
Q 28.65625 6.59375 39.40625 6.59375 
Q 50.140625 6.59375 56.421875 14.59375 
Q 62.703125 22.609375 62.703125 36.375 
Q 62.703125 50.203125 56.421875 58.203125 
Q 50.140625 66.21875 39.40625 66.21875 
z
M 39.40625 74.21875 
Q 54.734375 74.21875 63.90625 63.9375 
Q 73.09375 53.65625 73.09375 36.375 
Q 73.09375 19.140625 63.90625 8.859375 
Q 54.734375 -1.421875 39.40625 -1.421875 
Q 24.03125 -1.421875 14.8125 8.828125 
Q 5.609375 19.09375 5.609375 36.375 
Q 5.609375 53.65625 14.8125 63.9375 
Q 24.03125 74.21875 39.40625 74.21875 
z
" id="DejaVuSans-4f"/>
      <path d="M 9.8125 72.90625 
L 55.90625 72.90625 
L 55.90625 64.59375 
L 19.671875 64.59375 
L 19.671875 43.015625 
L 54.390625 43.015625 
L 54.390625 34.71875 
L 19.671875 34.71875 
L 19.671875 8.296875 
L 56.78125 8.296875 
L 56.78125 0 
L 9.8125 0 
z
" id="DejaVuSans-45"/>
      <path id="DejaVuSans-20"/>
      <path d="M 31 75.875 
Q 24.46875 64.65625 21.28125 53.65625 
Q 18.109375 42.671875 18.109375 31.390625 
Q 18.109375 20.125 21.3125 9.0625 
Q 24.515625 -2 31 -13.1875 
L 23.1875 -13.1875 
Q 15.875 -1.703125 12.234375 9.375 
Q 8.59375 20.453125 8.59375 31.390625 
Q 8.59375 42.28125 12.203125 53.3125 
Q 15.828125 64.359375 23.1875 75.875 
z
" id="DejaVuSans-28"/>
      <path d="M -0.296875 72.90625 
L 61.375 72.90625 
L 61.375 64.59375 
L 35.5 64.59375 
L 35.5 0 
L 25.59375 0 
L 25.59375 64.59375 
L -0.296875 64.59375 
z
" id="DejaVuSans-54"/>
      <path d="M 8.015625 75.875 
L 15.828125 75.875 
Q 23.140625 64.359375 26.78125 53.3125 
Q 30.421875 42.28125 30.421875 31.390625 
Q 30.421875 20.453125 26.78125 9.375 
Q 23.140625 -1.703125 15.828125 -13.1875 
L 8.015625 -13.1875 
Q 14.5 -2 17.703125 9.0625 
Q 20.90625 20.125 20.90625 31.390625 
Q 20.90625 42.671875 17.703125 53.65625 
Q 14.5 64.65625 8.015625 75.875 
z
" id="DejaVuSans-29"/>
     </defs>
     <g transform="translate(395.870313 372.146687)scale(0.1 -0.1)">
      <use xlink:href="#DejaVuSans-41"/>
      <use x="68.392578" xlink:href="#DejaVuSans-4f"/>
      <use x="147.103516" xlink:href="#DejaVuSans-45"/>
      <use x="210.287109" xlink:href="#DejaVuSans-31"/>
      <use x="273.910156" xlink:href="#DejaVuSans-20"/>
      <use x="305.697266" xlink:href="#DejaVuSans-28"/>
      <use x="344.710938" xlink:href="#DejaVuSans-54"/>
      <use x="405.794922" xlink:href="#DejaVuSans-4f"/>
      <use x="484.505859" xlink:href="#DejaVuSans-29"/>
     </g>
    </g>
   </g>
   <g id="matplotlib.axis_2">
    <g id="ytick_1">
     <g id="line2d_15">
      <path clip-path="url(#pe041ccdc95)" d="M 226.746875 320.656478 
L 617.346875 320.656478 
" style="fill:none;stroke:#b0b0b0;stroke-linecap:square;stroke-width:0.8;"/>
     </g>
     <g id="line2d_16">
      <defs>
       <path d="M 0 0 
L -3.5 0 
" id="mb4428c1198" style="stroke:#000000;stroke-width:0.8;"/>
      </defs>
      <g>
       <use style="stroke:#000000;stroke-width:0.8;" x="226.746875" xlink:href="#mb4428c1198" y="320.656478"/>
      </g>
     </g>
     <g id="text_9">
      <!-- schreiber2018/ismir2018 -->
      <defs>
       <path d="M 44.28125 53.078125 
L 44.28125 44.578125 
Q 40.484375 46.53125 36.375 47.5 
Q 32.28125 48.484375 27.875 48.484375 
Q 21.1875 48.484375 17.84375 46.4375 
Q 14.5 44.390625 14.5 40.28125 
Q 14.5 37.15625 16.890625 35.375 
Q 19.28125 33.59375 26.515625 31.984375 
L 29.59375 31.296875 
Q 39.15625 29.25 43.1875 25.515625 
Q 47.21875 21.78125 47.21875 15.09375 
Q 47.21875 7.46875 41.1875 3.015625 
Q 35.15625 -1.421875 24.609375 -1.421875 
Q 20.21875 -1.421875 15.453125 -0.5625 
Q 10.6875 0.296875 5.421875 2 
L 5.421875 11.28125 
Q 10.40625 8.6875 15.234375 7.390625 
Q 20.0625 6.109375 24.8125 6.109375 
Q 31.15625 6.109375 34.5625 8.28125 
Q 37.984375 10.453125 37.984375 14.40625 
Q 37.984375 18.0625 35.515625 20.015625 
Q 33.0625 21.96875 24.703125 23.78125 
L 21.578125 24.515625 
Q 13.234375 26.265625 9.515625 29.90625 
Q 5.8125 33.546875 5.8125 39.890625 
Q 5.8125 47.609375 11.28125 51.796875 
Q 16.75 56 26.8125 56 
Q 31.78125 56 36.171875 55.265625 
Q 40.578125 54.546875 44.28125 53.078125 
z
" id="DejaVuSans-73"/>
       <path d="M 48.78125 52.59375 
L 48.78125 44.1875 
Q 44.96875 46.296875 41.140625 47.34375 
Q 37.3125 48.390625 33.40625 48.390625 
Q 24.65625 48.390625 19.8125 42.84375 
Q 14.984375 37.3125 14.984375 27.296875 
Q 14.984375 17.28125 19.8125 11.734375 
Q 24.65625 6.203125 33.40625 6.203125 
Q 37.3125 6.203125 41.140625 7.25 
Q 44.96875 8.296875 48.78125 10.40625 
L 48.78125 2.09375 
Q 45.015625 0.34375 40.984375 -0.53125 
Q 36.96875 -1.421875 32.421875 -1.421875 
Q 20.0625 -1.421875 12.78125 6.34375 
Q 5.515625 14.109375 5.515625 27.296875 
Q 5.515625 40.671875 12.859375 48.328125 
Q 20.21875 56 33.015625 56 
Q 37.15625 56 41.109375 55.140625 
Q 45.0625 54.296875 48.78125 52.59375 
z
" id="DejaVuSans-63"/>
       <path d="M 54.890625 33.015625 
L 54.890625 0 
L 45.90625 0 
L 45.90625 32.71875 
Q 45.90625 40.484375 42.875 44.328125 
Q 39.84375 48.1875 33.796875 48.1875 
Q 26.515625 48.1875 22.3125 43.546875 
Q 18.109375 38.921875 18.109375 30.90625 
L 18.109375 0 
L 9.078125 0 
L 9.078125 75.984375 
L 18.109375 75.984375 
L 18.109375 46.1875 
Q 21.34375 51.125 25.703125 53.5625 
Q 30.078125 56 35.796875 56 
Q 45.21875 56 50.046875 50.171875 
Q 54.890625 44.34375 54.890625 33.015625 
z
" id="DejaVuSans-68"/>
       <path d="M 41.109375 46.296875 
Q 39.59375 47.171875 37.8125 47.578125 
Q 36.03125 48 33.890625 48 
Q 26.265625 48 22.1875 43.046875 
Q 18.109375 38.09375 18.109375 28.8125 
L 18.109375 0 
L 9.078125 0 
L 9.078125 54.6875 
L 18.109375 54.6875 
L 18.109375 46.1875 
Q 20.953125 51.171875 25.484375 53.578125 
Q 30.03125 56 36.53125 56 
Q 37.453125 56 38.578125 55.875 
Q 39.703125 55.765625 41.0625 55.515625 
z
" id="DejaVuSans-72"/>
       <path d="M 56.203125 29.59375 
L 56.203125 25.203125 
L 14.890625 25.203125 
Q 15.484375 15.921875 20.484375 11.0625 
Q 25.484375 6.203125 34.421875 6.203125 
Q 39.59375 6.203125 44.453125 7.46875 
Q 49.3125 8.734375 54.109375 11.28125 
L 54.109375 2.78125 
Q 49.265625 0.734375 44.1875 -0.34375 
Q 39.109375 -1.421875 33.890625 -1.421875 
Q 20.796875 -1.421875 13.15625 6.1875 
Q 5.515625 13.8125 5.515625 26.8125 
Q 5.515625 40.234375 12.765625 48.109375 
Q 20.015625 56 32.328125 56 
Q 43.359375 56 49.78125 48.890625 
Q 56.203125 41.796875 56.203125 29.59375 
z
M 47.21875 32.234375 
Q 47.125 39.59375 43.09375 43.984375 
Q 39.0625 48.390625 32.421875 48.390625 
Q 24.90625 48.390625 20.390625 44.140625 
Q 15.875 39.890625 15.1875 32.171875 
z
" id="DejaVuSans-65"/>
       <path d="M 9.421875 54.6875 
L 18.40625 54.6875 
L 18.40625 0 
L 9.421875 0 
z
M 9.421875 75.984375 
L 18.40625 75.984375 
L 18.40625 64.59375 
L 9.421875 64.59375 
z
" id="DejaVuSans-69"/>
       <path d="M 48.6875 27.296875 
Q 48.6875 37.203125 44.609375 42.84375 
Q 40.53125 48.484375 33.40625 48.484375 
Q 26.265625 48.484375 22.1875 42.84375 
Q 18.109375 37.203125 18.109375 27.296875 
Q 18.109375 17.390625 22.1875 11.75 
Q 26.265625 6.109375 33.40625 6.109375 
Q 40.53125 6.109375 44.609375 11.75 
Q 48.6875 17.390625 48.6875 27.296875 
z
M 18.109375 46.390625 
Q 20.953125 51.265625 25.265625 53.625 
Q 29.59375 56 35.59375 56 
Q 45.5625 56 51.78125 48.09375 
Q 58.015625 40.1875 58.015625 27.296875 
Q 58.015625 14.40625 51.78125 6.484375 
Q 45.5625 -1.421875 35.59375 -1.421875 
Q 29.59375 -1.421875 25.265625 0.953125 
Q 20.953125 3.328125 18.109375 8.203125 
L 18.109375 0 
L 9.078125 0 
L 9.078125 75.984375 
L 18.109375 75.984375 
z
" id="DejaVuSans-62"/>
       <path d="M 31.78125 34.625 
Q 24.75 34.625 20.71875 30.859375 
Q 16.703125 27.09375 16.703125 20.515625 
Q 16.703125 13.921875 20.71875 10.15625 
Q 24.75 6.390625 31.78125 6.390625 
Q 38.8125 6.390625 42.859375 10.171875 
Q 46.921875 13.96875 46.921875 20.515625 
Q 46.921875 27.09375 42.890625 30.859375 
Q 38.875 34.625 31.78125 34.625 
z
M 21.921875 38.8125 
Q 15.578125 40.375 12.03125 44.71875 
Q 8.5 49.078125 8.5 55.328125 
Q 8.5 64.0625 14.71875 69.140625 
Q 20.953125 74.21875 31.78125 74.21875 
Q 42.671875 74.21875 48.875 69.140625 
Q 55.078125 64.0625 55.078125 55.328125 
Q 55.078125 49.078125 51.53125 44.71875 
Q 48 40.375 41.703125 38.8125 
Q 48.828125 37.15625 52.796875 32.3125 
Q 56.78125 27.484375 56.78125 20.515625 
Q 56.78125 9.90625 50.3125 4.234375 
Q 43.84375 -1.421875 31.78125 -1.421875 
Q 19.734375 -1.421875 13.25 4.234375 
Q 6.78125 9.90625 6.78125 20.515625 
Q 6.78125 27.484375 10.78125 32.3125 
Q 14.796875 37.15625 21.921875 38.8125 
z
M 18.3125 54.390625 
Q 18.3125 48.734375 21.84375 45.5625 
Q 25.390625 42.390625 31.78125 42.390625 
Q 38.140625 42.390625 41.71875 45.5625 
Q 45.3125 48.734375 45.3125 54.390625 
Q 45.3125 60.0625 41.71875 63.234375 
Q 38.140625 66.40625 31.78125 66.40625 
Q 25.390625 66.40625 21.84375 63.234375 
Q 18.3125 60.0625 18.3125 54.390625 
z
" id="DejaVuSans-38"/>
       <path d="M 25.390625 72.90625 
L 33.6875 72.90625 
L 8.296875 -9.28125 
L 0 -9.28125 
z
" id="DejaVuSans-2f"/>
       <path d="M 52 44.1875 
Q 55.375 50.25 60.0625 53.125 
Q 64.75 56 71.09375 56 
Q 79.640625 56 84.28125 50.015625 
Q 88.921875 44.046875 88.921875 33.015625 
L 88.921875 0 
L 79.890625 0 
L 79.890625 32.71875 
Q 79.890625 40.578125 77.09375 44.375 
Q 74.3125 48.1875 68.609375 48.1875 
Q 61.625 48.1875 57.5625 43.546875 
Q 53.515625 38.921875 53.515625 30.90625 
L 53.515625 0 
L 44.484375 0 
L 44.484375 32.71875 
Q 44.484375 40.625 41.703125 44.40625 
Q 38.921875 48.1875 33.109375 48.1875 
Q 26.21875 48.1875 22.15625 43.53125 
Q 18.109375 38.875 18.109375 30.90625 
L 18.109375 0 
L 9.078125 0 
L 9.078125 54.6875 
L 18.109375 54.6875 
L 18.109375 46.1875 
Q 21.1875 51.21875 25.484375 53.609375 
Q 29.78125 56 35.6875 56 
Q 41.65625 56 45.828125 52.96875 
Q 50 49.953125 52 44.1875 
z
" id="DejaVuSans-6d"/>
      </defs>
      <g transform="translate(94.164062 324.455697)scale(0.1 -0.1)">
       <use xlink:href="#DejaVuSans-73"/>
       <use x="52.099609" xlink:href="#DejaVuSans-63"/>
       <use x="107.080078" xlink:href="#DejaVuSans-68"/>
       <use x="170.458984" xlink:href="#DejaVuSans-72"/>
       <use x="211.541016" xlink:href="#DejaVuSans-65"/>
       <use x="273.064453" xlink:href="#DejaVuSans-69"/>
       <use x="300.847656" xlink:href="#DejaVuSans-62"/>
       <use x="364.324219" xlink:href="#DejaVuSans-65"/>
       <use x="425.847656" xlink:href="#DejaVuSans-72"/>
       <use x="466.960938" xlink:href="#DejaVuSans-32"/>
       <use x="530.583984" xlink:href="#DejaVuSans-30"/>
       <use x="594.207031" xlink:href="#DejaVuSans-31"/>
       <use x="657.830078" xlink:href="#DejaVuSans-38"/>
       <use x="721.453125" xlink:href="#DejaVuSans-2f"/>
       <use x="755.144531" xlink:href="#DejaVuSans-69"/>
       <use x="782.927734" xlink:href="#DejaVuSans-73"/>
       <use x="835.027344" xlink:href="#DejaVuSans-6d"/>
       <use x="932.439453" xlink:href="#DejaVuSans-69"/>
       <use x="960.222656" xlink:href="#DejaVuSans-72"/>
       <use x="1001.335938" xlink:href="#DejaVuSans-32"/>
       <use x="1064.958984" xlink:href="#DejaVuSans-30"/>
       <use x="1128.582031" xlink:href="#DejaVuSans-31"/>
       <use x="1192.205078" xlink:href="#DejaVuSans-38"/>
      </g>
     </g>
    </g>
    <g id="ytick_2">
     <g id="line2d_17">
      <path clip-path="url(#pe041ccdc95)" d="M 226.746875 286.26589 
L 617.346875 286.26589 
" style="fill:none;stroke:#b0b0b0;stroke-linecap:square;stroke-width:0.8;"/>
     </g>
     <g id="line2d_18">
      <g>
       <use style="stroke:#000000;stroke-width:0.8;" x="226.746875" xlink:href="#mb4428c1198" y="286.26589"/>
      </g>
     </g>
     <g id="text_10">
      <!-- schreiber2018/fcn -->
      <defs>
       <path d="M 37.109375 75.984375 
L 37.109375 68.5 
L 28.515625 68.5 
Q 23.6875 68.5 21.796875 66.546875 
Q 19.921875 64.59375 19.921875 59.515625 
L 19.921875 54.6875 
L 34.71875 54.6875 
L 34.71875 47.703125 
L 19.921875 47.703125 
L 19.921875 0 
L 10.890625 0 
L 10.890625 47.703125 
L 2.296875 47.703125 
L 2.296875 54.6875 
L 10.890625 54.6875 
L 10.890625 58.5 
Q 10.890625 67.625 15.140625 71.796875 
Q 19.390625 75.984375 28.609375 75.984375 
z
" id="DejaVuSans-66"/>
       <path d="M 54.890625 33.015625 
L 54.890625 0 
L 45.90625 0 
L 45.90625 32.71875 
Q 45.90625 40.484375 42.875 44.328125 
Q 39.84375 48.1875 33.796875 48.1875 
Q 26.515625 48.1875 22.3125 43.546875 
Q 18.109375 38.921875 18.109375 30.90625 
L 18.109375 0 
L 9.078125 0 
L 9.078125 54.6875 
L 18.109375 54.6875 
L 18.109375 46.1875 
Q 21.34375 51.125 25.703125 53.5625 
Q 30.078125 56 35.796875 56 
Q 45.21875 56 50.046875 50.171875 
Q 54.890625 44.34375 54.890625 33.015625 
z
" id="DejaVuSans-6e"/>
      </defs>
      <g transform="translate(128.875 290.065108)scale(0.1 -0.1)">
       <use xlink:href="#DejaVuSans-73"/>
       <use x="52.099609" xlink:href="#DejaVuSans-63"/>
       <use x="107.080078" xlink:href="#DejaVuSans-68"/>
       <use x="170.458984" xlink:href="#DejaVuSans-72"/>
       <use x="211.541016" xlink:href="#DejaVuSans-65"/>
       <use x="273.064453" xlink:href="#DejaVuSans-69"/>
       <use x="300.847656" xlink:href="#DejaVuSans-62"/>
       <use x="364.324219" xlink:href="#DejaVuSans-65"/>
       <use x="425.847656" xlink:href="#DejaVuSans-72"/>
       <use x="466.960938" xlink:href="#DejaVuSans-32"/>
       <use x="530.583984" xlink:href="#DejaVuSans-30"/>
       <use x="594.207031" xlink:href="#DejaVuSans-31"/>
       <use x="657.830078" xlink:href="#DejaVuSans-38"/>
       <use x="721.453125" xlink:href="#DejaVuSans-2f"/>
       <use x="755.144531" xlink:href="#DejaVuSans-66"/>
       <use x="790.349609" xlink:href="#DejaVuSans-63"/>
       <use x="845.330078" xlink:href="#DejaVuSans-6e"/>
      </g>
     </g>
    </g>
    <g id="ytick_3">
     <g id="line2d_19">
      <path clip-path="url(#pe041ccdc95)" d="M 226.746875 251.875301 
L 617.346875 251.875301 
" style="fill:none;stroke:#b0b0b0;stroke-linecap:square;stroke-width:0.8;"/>
     </g>
     <g id="line2d_20">
      <g>
       <use style="stroke:#000000;stroke-width:0.8;" x="226.746875" xlink:href="#mb4428c1198" y="251.875301"/>
      </g>
     </g>
     <g id="text_11">
      <!-- schreiber2018/cnn -->
      <g transform="translate(126.057812 255.67452)scale(0.1 -0.1)">
       <use xlink:href="#DejaVuSans-73"/>
       <use x="52.099609" xlink:href="#DejaVuSans-63"/>
       <use x="107.080078" xlink:href="#DejaVuSans-68"/>
       <use x="170.458984" xlink:href="#DejaVuSans-72"/>
       <use x="211.541016" xlink:href="#DejaVuSans-65"/>
       <use x="273.064453" xlink:href="#DejaVuSans-69"/>
       <use x="300.847656" xlink:href="#DejaVuSans-62"/>
       <use x="364.324219" xlink:href="#DejaVuSans-65"/>
       <use x="425.847656" xlink:href="#DejaVuSans-72"/>
       <use x="466.960938" xlink:href="#DejaVuSans-32"/>
       <use x="530.583984" xlink:href="#DejaVuSans-30"/>
       <use x="594.207031" xlink:href="#DejaVuSans-31"/>
       <use x="657.830078" xlink:href="#DejaVuSans-38"/>
       <use x="721.453125" xlink:href="#DejaVuSans-2f"/>
       <use x="755.144531" xlink:href="#DejaVuSans-63"/>
       <use x="810.125" xlink:href="#DejaVuSans-6e"/>
       <use x="873.503906" xlink:href="#DejaVuSans-6e"/>
      </g>
     </g>
    </g>
    <g id="ytick_4">
     <g id="line2d_21">
      <path clip-path="url(#pe041ccdc95)" d="M 226.746875 217.484713 
L 617.346875 217.484713 
" style="fill:none;stroke:#b0b0b0;stroke-linecap:square;stroke-width:0.8;"/>
     </g>
     <g id="line2d_22">
      <g>
       <use style="stroke:#000000;stroke-width:0.8;" x="226.746875" xlink:href="#mb4428c1198" y="217.484713"/>
      </g>
     </g>
     <g id="text_12">
      <!-- schreiber2017/mirex2017 -->
      <defs>
       <path d="M 8.203125 72.90625 
L 55.078125 72.90625 
L 55.078125 68.703125 
L 28.609375 0 
L 18.3125 0 
L 43.21875 64.59375 
L 8.203125 64.59375 
z
" id="DejaVuSans-37"/>
       <path d="M 54.890625 54.6875 
L 35.109375 28.078125 
L 55.90625 0 
L 45.3125 0 
L 29.390625 21.484375 
L 13.484375 0 
L 2.875 0 
L 24.125 28.609375 
L 4.6875 54.6875 
L 15.28125 54.6875 
L 29.78125 35.203125 
L 44.28125 54.6875 
z
" id="DejaVuSans-78"/>
      </defs>
      <g transform="translate(90.084375 221.283932)scale(0.1 -0.1)">
       <use xlink:href="#DejaVuSans-73"/>
       <use x="52.099609" xlink:href="#DejaVuSans-63"/>
       <use x="107.080078" xlink:href="#DejaVuSans-68"/>
       <use x="170.458984" xlink:href="#DejaVuSans-72"/>
       <use x="211.541016" xlink:href="#DejaVuSans-65"/>
       <use x="273.064453" xlink:href="#DejaVuSans-69"/>
       <use x="300.847656" xlink:href="#DejaVuSans-62"/>
       <use x="364.324219" xlink:href="#DejaVuSans-65"/>
       <use x="425.847656" xlink:href="#DejaVuSans-72"/>
       <use x="466.960938" xlink:href="#DejaVuSans-32"/>
       <use x="530.583984" xlink:href="#DejaVuSans-30"/>
       <use x="594.207031" xlink:href="#DejaVuSans-31"/>
       <use x="657.830078" xlink:href="#DejaVuSans-37"/>
       <use x="721.453125" xlink:href="#DejaVuSans-2f"/>
       <use x="755.144531" xlink:href="#DejaVuSans-6d"/>
       <use x="852.556641" xlink:href="#DejaVuSans-69"/>
       <use x="880.339844" xlink:href="#DejaVuSans-72"/>
       <use x="921.421875" xlink:href="#DejaVuSans-65"/>
       <use x="982.929688" xlink:href="#DejaVuSans-78"/>
       <use x="1042.109375" xlink:href="#DejaVuSans-32"/>
       <use x="1105.732422" xlink:href="#DejaVuSans-30"/>
       <use x="1169.355469" xlink:href="#DejaVuSans-31"/>
       <use x="1232.978516" xlink:href="#DejaVuSans-37"/>
      </g>
     </g>
    </g>
    <g id="ytick_5">
     <g id="line2d_23">
      <path clip-path="url(#pe041ccdc95)" d="M 226.746875 183.094125 
L 617.346875 183.094125 
" style="fill:none;stroke:#b0b0b0;stroke-linecap:square;stroke-width:0.8;"/>
     </g>
     <g id="line2d_24">
      <g>
       <use style="stroke:#000000;stroke-width:0.8;" x="226.746875" xlink:href="#mb4428c1198" y="183.094125"/>
      </g>
     </g>
     <g id="text_13">
      <!-- schreiber2017/ismir2017 -->
      <g transform="translate(94.164062 186.893344)scale(0.1 -0.1)">
       <use xlink:href="#DejaVuSans-73"/>
       <use x="52.099609" xlink:href="#DejaVuSans-63"/>
       <use x="107.080078" xlink:href="#DejaVuSans-68"/>
       <use x="170.458984" xlink:href="#DejaVuSans-72"/>
       <use x="211.541016" xlink:href="#DejaVuSans-65"/>
       <use x="273.064453" xlink:href="#DejaVuSans-69"/>
       <use x="300.847656" xlink:href="#DejaVuSans-62"/>
       <use x="364.324219" xlink:href="#DejaVuSans-65"/>
       <use x="425.847656" xlink:href="#DejaVuSans-72"/>
       <use x="466.960938" xlink:href="#DejaVuSans-32"/>
       <use x="530.583984" xlink:href="#DejaVuSans-30"/>
       <use x="594.207031" xlink:href="#DejaVuSans-31"/>
       <use x="657.830078" xlink:href="#DejaVuSans-37"/>
       <use x="721.453125" xlink:href="#DejaVuSans-2f"/>
       <use x="755.144531" xlink:href="#DejaVuSans-69"/>
       <use x="782.927734" xlink:href="#DejaVuSans-73"/>
       <use x="835.027344" xlink:href="#DejaVuSans-6d"/>
       <use x="932.439453" xlink:href="#DejaVuSans-69"/>
       <use x="960.222656" xlink:href="#DejaVuSans-72"/>
       <use x="1001.335938" xlink:href="#DejaVuSans-32"/>
       <use x="1064.958984" xlink:href="#DejaVuSans-30"/>
       <use x="1128.582031" xlink:href="#DejaVuSans-31"/>
       <use x="1192.205078" xlink:href="#DejaVuSans-37"/>
      </g>
     </g>
    </g>
    <g id="ytick_6">
     <g id="line2d_25">
      <path clip-path="url(#pe041ccdc95)" d="M 226.746875 148.703537 
L 617.346875 148.703537 
" style="fill:none;stroke:#b0b0b0;stroke-linecap:square;stroke-width:0.8;"/>
     </g>
     <g id="line2d_26">
      <g>
       <use style="stroke:#000000;stroke-width:0.8;" x="226.746875" xlink:href="#mb4428c1198" y="148.703537"/>
      </g>
     </g>
     <g id="text_14">
      <!-- schreiber2014/default -->
      <defs>
       <path d="M 37.796875 64.3125 
L 12.890625 25.390625 
L 37.796875 25.390625 
z
M 35.203125 72.90625 
L 47.609375 72.90625 
L 47.609375 25.390625 
L 58.015625 25.390625 
L 58.015625 17.1875 
L 47.609375 17.1875 
L 47.609375 0 
L 37.796875 0 
L 37.796875 17.1875 
L 4.890625 17.1875 
L 4.890625 26.703125 
z
" id="DejaVuSans-34"/>
       <path d="M 45.40625 46.390625 
L 45.40625 75.984375 
L 54.390625 75.984375 
L 54.390625 0 
L 45.40625 0 
L 45.40625 8.203125 
Q 42.578125 3.328125 38.25 0.953125 
Q 33.9375 -1.421875 27.875 -1.421875 
Q 17.96875 -1.421875 11.734375 6.484375 
Q 5.515625 14.40625 5.515625 27.296875 
Q 5.515625 40.1875 11.734375 48.09375 
Q 17.96875 56 27.875 56 
Q 33.9375 56 38.25 53.625 
Q 42.578125 51.265625 45.40625 46.390625 
z
M 14.796875 27.296875 
Q 14.796875 17.390625 18.875 11.75 
Q 22.953125 6.109375 30.078125 6.109375 
Q 37.203125 6.109375 41.296875 11.75 
Q 45.40625 17.390625 45.40625 27.296875 
Q 45.40625 37.203125 41.296875 42.84375 
Q 37.203125 48.484375 30.078125 48.484375 
Q 22.953125 48.484375 18.875 42.84375 
Q 14.796875 37.203125 14.796875 27.296875 
z
" id="DejaVuSans-64"/>
       <path d="M 34.28125 27.484375 
Q 23.390625 27.484375 19.1875 25 
Q 14.984375 22.515625 14.984375 16.5 
Q 14.984375 11.71875 18.140625 8.90625 
Q 21.296875 6.109375 26.703125 6.109375 
Q 34.1875 6.109375 38.703125 11.40625 
Q 43.21875 16.703125 43.21875 25.484375 
L 43.21875 27.484375 
z
M 52.203125 31.203125 
L 52.203125 0 
L 43.21875 0 
L 43.21875 8.296875 
Q 40.140625 3.328125 35.546875 0.953125 
Q 30.953125 -1.421875 24.3125 -1.421875 
Q 15.921875 -1.421875 10.953125 3.296875 
Q 6 8.015625 6 15.921875 
Q 6 25.140625 12.171875 29.828125 
Q 18.359375 34.515625 30.609375 34.515625 
L 43.21875 34.515625 
L 43.21875 35.40625 
Q 43.21875 41.609375 39.140625 45 
Q 35.0625 48.390625 27.6875 48.390625 
Q 23 48.390625 18.546875 47.265625 
Q 14.109375 46.140625 10.015625 43.890625 
L 10.015625 52.203125 
Q 14.9375 54.109375 19.578125 55.046875 
Q 24.21875 56 28.609375 56 
Q 40.484375 56 46.34375 49.84375 
Q 52.203125 43.703125 52.203125 31.203125 
z
" id="DejaVuSans-61"/>
       <path d="M 8.5 21.578125 
L 8.5 54.6875 
L 17.484375 54.6875 
L 17.484375 21.921875 
Q 17.484375 14.15625 20.5 10.265625 
Q 23.53125 6.390625 29.59375 6.390625 
Q 36.859375 6.390625 41.078125 11.03125 
Q 45.3125 15.671875 45.3125 23.6875 
L 45.3125 54.6875 
L 54.296875 54.6875 
L 54.296875 0 
L 45.3125 0 
L 45.3125 8.40625 
Q 42.046875 3.421875 37.71875 1 
Q 33.40625 -1.421875 27.6875 -1.421875 
Q 18.265625 -1.421875 13.375 4.4375 
Q 8.5 10.296875 8.5 21.578125 
z
M 31.109375 56 
z
" id="DejaVuSans-75"/>
       <path d="M 9.421875 75.984375 
L 18.40625 75.984375 
L 18.40625 0 
L 9.421875 0 
z
" id="DejaVuSans-6c"/>
       <path d="M 18.3125 70.21875 
L 18.3125 54.6875 
L 36.8125 54.6875 
L 36.8125 47.703125 
L 18.3125 47.703125 
L 18.3125 18.015625 
Q 18.3125 11.328125 20.140625 9.421875 
Q 21.96875 7.515625 27.59375 7.515625 
L 36.8125 7.515625 
L 36.8125 0 
L 27.59375 0 
Q 17.1875 0 13.234375 3.875 
Q 9.28125 7.765625 9.28125 18.015625 
L 9.28125 47.703125 
L 2.6875 47.703125 
L 2.6875 54.6875 
L 9.28125 54.6875 
L 9.28125 70.21875 
z
" id="DejaVuSans-74"/>
      </defs>
      <g transform="translate(109.045312 152.502756)scale(0.1 -0.1)">
       <use xlink:href="#DejaVuSans-73"/>
       <use x="52.099609" xlink:href="#DejaVuSans-63"/>
       <use x="107.080078" xlink:href="#DejaVuSans-68"/>
       <use x="170.458984" xlink:href="#DejaVuSans-72"/>
       <use x="211.541016" xlink:href="#DejaVuSans-65"/>
       <use x="273.064453" xlink:href="#DejaVuSans-69"/>
       <use x="300.847656" xlink:href="#DejaVuSans-62"/>
       <use x="364.324219" xlink:href="#DejaVuSans-65"/>
       <use x="425.847656" xlink:href="#DejaVuSans-72"/>
       <use x="466.960938" xlink:href="#DejaVuSans-32"/>
       <use x="530.583984" xlink:href="#DejaVuSans-30"/>
       <use x="594.207031" xlink:href="#DejaVuSans-31"/>
       <use x="657.830078" xlink:href="#DejaVuSans-34"/>
       <use x="721.453125" xlink:href="#DejaVuSans-2f"/>
       <use x="755.144531" xlink:href="#DejaVuSans-64"/>
       <use x="818.621094" xlink:href="#DejaVuSans-65"/>
       <use x="880.144531" xlink:href="#DejaVuSans-66"/>
       <use x="915.349609" xlink:href="#DejaVuSans-61"/>
       <use x="976.628906" xlink:href="#DejaVuSans-75"/>
       <use x="1040.007812" xlink:href="#DejaVuSans-6c"/>
       <use x="1067.791016" xlink:href="#DejaVuSans-74"/>
      </g>
     </g>
    </g>
    <g id="ytick_7">
     <g id="line2d_27">
      <path clip-path="url(#pe041ccdc95)" d="M 226.746875 114.312949 
L 617.346875 114.312949 
" style="fill:none;stroke:#b0b0b0;stroke-linecap:square;stroke-width:0.8;"/>
     </g>
     <g id="line2d_28">
      <g>
       <use style="stroke:#000000;stroke-width:0.8;" x="226.746875" xlink:href="#mb4428c1198" y="114.312949"/>
      </g>
     </g>
     <g id="text_15">
      <!-- percival2014/stem -->
      <defs>
       <path d="M 18.109375 8.203125 
L 18.109375 -20.796875 
L 9.078125 -20.796875 
L 9.078125 54.6875 
L 18.109375 54.6875 
L 18.109375 46.390625 
Q 20.953125 51.265625 25.265625 53.625 
Q 29.59375 56 35.59375 56 
Q 45.5625 56 51.78125 48.09375 
Q 58.015625 40.1875 58.015625 27.296875 
Q 58.015625 14.40625 51.78125 6.484375 
Q 45.5625 -1.421875 35.59375 -1.421875 
Q 29.59375 -1.421875 25.265625 0.953125 
Q 20.953125 3.328125 18.109375 8.203125 
z
M 48.6875 27.296875 
Q 48.6875 37.203125 44.609375 42.84375 
Q 40.53125 48.484375 33.40625 48.484375 
Q 26.265625 48.484375 22.1875 42.84375 
Q 18.109375 37.203125 18.109375 27.296875 
Q 18.109375 17.390625 22.1875 11.75 
Q 26.265625 6.109375 33.40625 6.109375 
Q 40.53125 6.109375 44.609375 11.75 
Q 48.6875 17.390625 48.6875 27.296875 
z
" id="DejaVuSans-70"/>
       <path d="M 2.984375 54.6875 
L 12.5 54.6875 
L 29.59375 8.796875 
L 46.6875 54.6875 
L 56.203125 54.6875 
L 35.6875 0 
L 23.484375 0 
z
" id="DejaVuSans-76"/>
      </defs>
      <g transform="translate(126.19375 118.112167)scale(0.1 -0.1)">
       <use xlink:href="#DejaVuSans-70"/>
       <use x="63.476562" xlink:href="#DejaVuSans-65"/>
       <use x="125" xlink:href="#DejaVuSans-72"/>
       <use x="166.082031" xlink:href="#DejaVuSans-63"/>
       <use x="221.0625" xlink:href="#DejaVuSans-69"/>
       <use x="248.845703" xlink:href="#DejaVuSans-76"/>
       <use x="308.025391" xlink:href="#DejaVuSans-61"/>
       <use x="369.304688" xlink:href="#DejaVuSans-6c"/>
       <use x="397.087891" xlink:href="#DejaVuSans-32"/>
       <use x="460.710938" xlink:href="#DejaVuSans-30"/>
       <use x="524.333984" xlink:href="#DejaVuSans-31"/>
       <use x="587.957031" xlink:href="#DejaVuSans-34"/>
       <use x="651.580078" xlink:href="#DejaVuSans-2f"/>
       <use x="685.271484" xlink:href="#DejaVuSans-73"/>
       <use x="737.371094" xlink:href="#DejaVuSans-74"/>
       <use x="776.580078" xlink:href="#DejaVuSans-65"/>
       <use x="838.103516" xlink:href="#DejaVuSans-6d"/>
      </g>
     </g>
    </g>
    <g id="ytick_8">
     <g id="line2d_29">
      <path clip-path="url(#pe041ccdc95)" d="M 226.746875 79.92236 
L 617.346875 79.92236 
" style="fill:none;stroke:#b0b0b0;stroke-linecap:square;stroke-width:0.8;"/>
     </g>
     <g id="line2d_30">
      <g>
       <use style="stroke:#000000;stroke-width:0.8;" x="226.746875" xlink:href="#mb4428c1198" y="79.92236"/>
      </g>
     </g>
     <g id="text_16">
      <!-- davies2009/mirex_qm_tempotracker -->
      <defs>
       <path d="M 10.984375 1.515625 
L 10.984375 10.5 
Q 14.703125 8.734375 18.5 7.8125 
Q 22.3125 6.890625 25.984375 6.890625 
Q 35.75 6.890625 40.890625 13.453125 
Q 46.046875 20.015625 46.78125 33.40625 
Q 43.953125 29.203125 39.59375 26.953125 
Q 35.25 24.703125 29.984375 24.703125 
Q 19.046875 24.703125 12.671875 31.3125 
Q 6.296875 37.9375 6.296875 49.421875 
Q 6.296875 60.640625 12.9375 67.421875 
Q 19.578125 74.21875 30.609375 74.21875 
Q 43.265625 74.21875 49.921875 64.515625 
Q 56.59375 54.828125 56.59375 36.375 
Q 56.59375 19.140625 48.40625 8.859375 
Q 40.234375 -1.421875 26.421875 -1.421875 
Q 22.703125 -1.421875 18.890625 -0.6875 
Q 15.09375 0.046875 10.984375 1.515625 
z
M 30.609375 32.421875 
Q 37.25 32.421875 41.125 36.953125 
Q 45.015625 41.5 45.015625 49.421875 
Q 45.015625 57.28125 41.125 61.84375 
Q 37.25 66.40625 30.609375 66.40625 
Q 23.96875 66.40625 20.09375 61.84375 
Q 16.21875 57.28125 16.21875 49.421875 
Q 16.21875 41.5 20.09375 36.953125 
Q 23.96875 32.421875 30.609375 32.421875 
z
" id="DejaVuSans-39"/>
       <path d="M 50.984375 -16.609375 
L 50.984375 -23.578125 
L -0.984375 -23.578125 
L -0.984375 -16.609375 
z
" id="DejaVuSans-5f"/>
       <path d="M 14.796875 27.296875 
Q 14.796875 17.390625 18.875 11.75 
Q 22.953125 6.109375 30.078125 6.109375 
Q 37.203125 6.109375 41.296875 11.75 
Q 45.40625 17.390625 45.40625 27.296875 
Q 45.40625 37.203125 41.296875 42.84375 
Q 37.203125 48.484375 30.078125 48.484375 
Q 22.953125 48.484375 18.875 42.84375 
Q 14.796875 37.203125 14.796875 27.296875 
z
M 45.40625 8.203125 
Q 42.578125 3.328125 38.25 0.953125 
Q 33.9375 -1.421875 27.875 -1.421875 
Q 17.96875 -1.421875 11.734375 6.484375 
Q 5.515625 14.40625 5.515625 27.296875 
Q 5.515625 40.1875 11.734375 48.09375 
Q 17.96875 56 27.875 56 
Q 33.9375 56 38.25 53.625 
Q 42.578125 51.265625 45.40625 46.390625 
L 45.40625 54.6875 
L 54.390625 54.6875 
L 54.390625 -20.796875 
L 45.40625 -20.796875 
z
" id="DejaVuSans-71"/>
       <path d="M 30.609375 48.390625 
Q 23.390625 48.390625 19.1875 42.75 
Q 14.984375 37.109375 14.984375 27.296875 
Q 14.984375 17.484375 19.15625 11.84375 
Q 23.34375 6.203125 30.609375 6.203125 
Q 37.796875 6.203125 41.984375 11.859375 
Q 46.1875 17.53125 46.1875 27.296875 
Q 46.1875 37.015625 41.984375 42.703125 
Q 37.796875 48.390625 30.609375 48.390625 
z
M 30.609375 56 
Q 42.328125 56 49.015625 48.375 
Q 55.71875 40.765625 55.71875 27.296875 
Q 55.71875 13.875 49.015625 6.21875 
Q 42.328125 -1.421875 30.609375 -1.421875 
Q 18.84375 -1.421875 12.171875 6.21875 
Q 5.515625 13.875 5.515625 27.296875 
Q 5.515625 40.765625 12.171875 48.375 
Q 18.84375 56 30.609375 56 
z
" id="DejaVuSans-6f"/>
       <path d="M 9.078125 75.984375 
L 18.109375 75.984375 
L 18.109375 31.109375 
L 44.921875 54.6875 
L 56.390625 54.6875 
L 27.390625 29.109375 
L 57.625 0 
L 45.90625 0 
L 18.109375 26.703125 
L 18.109375 0 
L 9.078125 0 
z
" id="DejaVuSans-6b"/>
      </defs>
      <g transform="translate(35.617187 83.721579)scale(0.1 -0.1)">
       <use xlink:href="#DejaVuSans-64"/>
       <use x="63.476562" xlink:href="#DejaVuSans-61"/>
       <use x="124.755859" xlink:href="#DejaVuSans-76"/>
       <use x="183.935547" xlink:href="#DejaVuSans-69"/>
       <use x="211.71875" xlink:href="#DejaVuSans-65"/>
       <use x="273.242188" xlink:href="#DejaVuSans-73"/>
       <use x="325.341797" xlink:href="#DejaVuSans-32"/>
       <use x="388.964844" xlink:href="#DejaVuSans-30"/>
       <use x="452.587891" xlink:href="#DejaVuSans-30"/>
       <use x="516.210938" xlink:href="#DejaVuSans-39"/>
       <use x="579.833984" xlink:href="#DejaVuSans-2f"/>
       <use x="613.525391" xlink:href="#DejaVuSans-6d"/>
       <use x="710.9375" xlink:href="#DejaVuSans-69"/>
       <use x="738.720703" xlink:href="#DejaVuSans-72"/>
       <use x="779.802734" xlink:href="#DejaVuSans-65"/>
       <use x="841.310547" xlink:href="#DejaVuSans-78"/>
       <use x="900.490234" xlink:href="#DejaVuSans-5f"/>
       <use x="950.490234" xlink:href="#DejaVuSans-71"/>
       <use x="1013.966797" xlink:href="#DejaVuSans-6d"/>
       <use x="1111.378906" xlink:href="#DejaVuSans-5f"/>
       <use x="1161.378906" xlink:href="#DejaVuSans-74"/>
       <use x="1200.587891" xlink:href="#DejaVuSans-65"/>
       <use x="1262.111328" xlink:href="#DejaVuSans-6d"/>
       <use x="1359.523438" xlink:href="#DejaVuSans-70"/>
       <use x="1423" xlink:href="#DejaVuSans-6f"/>
       <use x="1484.181641" xlink:href="#DejaVuSans-74"/>
       <use x="1523.390625" xlink:href="#DejaVuSans-72"/>
       <use x="1564.503906" xlink:href="#DejaVuSans-61"/>
       <use x="1625.783203" xlink:href="#DejaVuSans-63"/>
       <use x="1680.763672" xlink:href="#DejaVuSans-6b"/>
       <use x="1738.626953" xlink:href="#DejaVuSans-65"/>
       <use x="1800.150391" xlink:href="#DejaVuSans-72"/>
      </g>
     </g>
    </g>
    <g id="ytick_9">
     <g id="line2d_31">
      <path clip-path="url(#pe041ccdc95)" d="M 226.746875 45.531772 
L 617.346875 45.531772 
" style="fill:none;stroke:#b0b0b0;stroke-linecap:square;stroke-width:0.8;"/>
     </g>
     <g id="line2d_32">
      <g>
       <use style="stroke:#000000;stroke-width:0.8;" x="226.746875" xlink:href="#mb4428c1198" y="45.531772"/>
      </g>
     </g>
     <g id="text_17">
      <!-- boeck2015/tempodetector2016_default -->
      <defs>
       <path d="M 33.015625 40.375 
Q 26.375 40.375 22.484375 35.828125 
Q 18.609375 31.296875 18.609375 23.390625 
Q 18.609375 15.53125 22.484375 10.953125 
Q 26.375 6.390625 33.015625 6.390625 
Q 39.65625 6.390625 43.53125 10.953125 
Q 47.40625 15.53125 47.40625 23.390625 
Q 47.40625 31.296875 43.53125 35.828125 
Q 39.65625 40.375 33.015625 40.375 
z
M 52.59375 71.296875 
L 52.59375 62.3125 
Q 48.875 64.0625 45.09375 64.984375 
Q 41.3125 65.921875 37.59375 65.921875 
Q 27.828125 65.921875 22.671875 59.328125 
Q 17.53125 52.734375 16.796875 39.40625 
Q 19.671875 43.65625 24.015625 45.921875 
Q 28.375 48.1875 33.59375 48.1875 
Q 44.578125 48.1875 50.953125 41.515625 
Q 57.328125 34.859375 57.328125 23.390625 
Q 57.328125 12.15625 50.6875 5.359375 
Q 44.046875 -1.421875 33.015625 -1.421875 
Q 20.359375 -1.421875 13.671875 8.265625 
Q 6.984375 17.96875 6.984375 36.375 
Q 6.984375 53.65625 15.1875 63.9375 
Q 23.390625 74.21875 37.203125 74.21875 
Q 40.921875 74.21875 44.703125 73.484375 
Q 48.484375 72.75 52.59375 71.296875 
z
" id="DejaVuSans-36"/>
      </defs>
      <g transform="translate(20.878125 49.330991)scale(0.1 -0.1)">
       <use xlink:href="#DejaVuSans-62"/>
       <use x="63.476562" xlink:href="#DejaVuSans-6f"/>
       <use x="124.658203" xlink:href="#DejaVuSans-65"/>
       <use x="186.181641" xlink:href="#DejaVuSans-63"/>
       <use x="241.162109" xlink:href="#DejaVuSans-6b"/>
       <use x="299.072266" xlink:href="#DejaVuSans-32"/>
       <use x="362.695312" xlink:href="#DejaVuSans-30"/>
       <use x="426.318359" xlink:href="#DejaVuSans-31"/>
       <use x="489.941406" xlink:href="#DejaVuSans-35"/>
       <use x="553.564453" xlink:href="#DejaVuSans-2f"/>
       <use x="587.255859" xlink:href="#DejaVuSans-74"/>
       <use x="626.464844" xlink:href="#DejaVuSans-65"/>
       <use x="687.988281" xlink:href="#DejaVuSans-6d"/>
       <use x="785.400391" xlink:href="#DejaVuSans-70"/>
       <use x="848.876953" xlink:href="#DejaVuSans-6f"/>
       <use x="910.058594" xlink:href="#DejaVuSans-64"/>
       <use x="973.535156" xlink:href="#DejaVuSans-65"/>
       <use x="1035.058594" xlink:href="#DejaVuSans-74"/>
       <use x="1074.267578" xlink:href="#DejaVuSans-65"/>
       <use x="1135.791016" xlink:href="#DejaVuSans-63"/>
       <use x="1190.771484" xlink:href="#DejaVuSans-74"/>
       <use x="1229.980469" xlink:href="#DejaVuSans-6f"/>
       <use x="1291.162109" xlink:href="#DejaVuSans-72"/>
       <use x="1332.275391" xlink:href="#DejaVuSans-32"/>
       <use x="1395.898438" xlink:href="#DejaVuSans-30"/>
       <use x="1459.521484" xlink:href="#DejaVuSans-31"/>
       <use x="1523.144531" xlink:href="#DejaVuSans-36"/>
       <use x="1586.767578" xlink:href="#DejaVuSans-5f"/>
       <use x="1636.767578" xlink:href="#DejaVuSans-64"/>
       <use x="1700.244141" xlink:href="#DejaVuSans-65"/>
       <use x="1761.767578" xlink:href="#DejaVuSans-66"/>
       <use x="1796.972656" xlink:href="#DejaVuSans-61"/>
       <use x="1858.251953" xlink:href="#DejaVuSans-75"/>
       <use x="1921.630859" xlink:href="#DejaVuSans-6c"/>
       <use x="1949.414062" xlink:href="#DejaVuSans-74"/>
      </g>
     </g>
    </g>
    <g id="text_18">
     <!-- Estimator -->
     <g transform="translate(14.798437 207.216781)rotate(-90)scale(0.1 -0.1)">
      <use xlink:href="#DejaVuSans-45"/>
      <use x="63.183594" xlink:href="#DejaVuSans-73"/>
      <use x="115.283203" xlink:href="#DejaVuSans-74"/>
      <use x="154.492188" xlink:href="#DejaVuSans-69"/>
      <use x="182.275391" xlink:href="#DejaVuSans-6d"/>
      <use x="279.6875" xlink:href="#DejaVuSans-61"/>
      <use x="340.966797" xlink:href="#DejaVuSans-74"/>
      <use x="380.175781" xlink:href="#DejaVuSans-6f"/>
      <use x="441.357422" xlink:href="#DejaVuSans-72"/>
     </g>
    </g>
   </g>
   <g id="PolyCollection_1">
    <path clip-path="url(#pe041ccdc95)" d="M 226.746875 312.425902 
L 226.746875 328.887054 
L 229.418467 329.118224 
L 232.09006 329.240603 
L 234.761652 329.254125 
L 237.433245 329.164121 
L 240.104837 328.980895 
L 242.77643 328.718919 
L 245.448022 328.395743 
L 248.119615 328.03073 
L 250.791207 327.643731 
L 253.4628 327.253833 
L 256.134392 326.878272 
L 258.805985 326.53158 
L 261.477577 326.225024 
L 264.14917 325.96632 
L 266.820762 325.759628 
L 269.492355 325.605753 
L 272.163947 325.502538 
L 274.835539 325.445356 
L 277.507132 325.427673 
L 280.178724 325.441627 
L 282.850317 325.478606 
L 285.521909 325.529782 
L 288.193502 325.586611 
L 290.865094 325.641272 
L 293.536687 325.68705 
L 296.208279 325.71865 
L 298.879872 325.732422 
L 301.551464 325.726507 
L 304.223057 325.700867 
L 306.894649 325.657213 
L 309.566242 325.598813 
L 312.237834 325.530189 
L 314.909427 325.456725 
L 317.581019 325.384199 
L 320.252611 325.318276 
L 322.924204 325.263999 
L 325.595796 325.225318 
L 328.267389 325.204692 
L 330.938981 325.202812 
L 333.610574 325.218454 
L 336.282166 325.248493 
L 338.953759 325.288081 
L 341.625351 325.330964 
L 344.296944 325.369946 
L 346.968536 325.397426 
L 349.640129 325.405995 
L 352.311721 325.389021 
L 354.983314 325.341181 
L 357.654906 325.258885 
L 360.326499 325.140558 
L 362.998091 324.986756 
L 365.669683 324.800103 
L 368.341276 324.585068 
L 371.012868 324.347602 
L 373.684461 324.094674 
L 376.356053 323.833767 
L 379.027646 323.572356 
L 381.699238 323.317442 
L 384.370831 323.075166 
L 387.042423 322.850523 
L 389.714016 322.647196 
L 392.385608 322.467506 
L 395.057201 322.31246 
L 397.728793 322.181875 
L 400.400386 322.074568 
L 403.071978 321.988563 
L 405.743571 321.921307 
L 408.415163 321.869882 
L 411.086755 321.831182 
L 413.758348 321.802075 
L 416.42994 321.779521 
L 419.101533 321.76068 
L 421.773125 321.742985 
L 424.444718 321.724201 
L 427.11631 321.70248 
L 429.787903 321.676388 
L 432.459495 321.644936 
L 435.131088 321.607584 
L 437.80268 321.564243 
L 440.474273 321.515245 
L 443.145865 321.461302 
L 445.817458 321.403443 
L 448.48905 321.342936 
L 451.160643 321.281196 
L 453.832235 321.219687 
L 456.503827 321.159826 
L 459.17542 321.102898 
L 461.847012 321.049978 
L 464.518605 321.00188 
L 467.190197 320.959127 
L 469.86179 320.921943 
L 472.533382 320.89027 
L 475.204975 320.863801 
L 477.876567 320.842028 
L 480.54816 320.824305 
L 483.219752 320.809904 
L 485.891345 320.798079 
L 488.562937 320.788116 
L 491.23453 320.779378 
L 491.23453 320.533578 
L 491.23453 320.533578 
L 488.562937 320.52484 
L 485.891345 320.514877 
L 483.219752 320.503052 
L 480.54816 320.488651 
L 477.876567 320.470928 
L 475.204975 320.449155 
L 472.533382 320.422686 
L 469.86179 320.391013 
L 467.190197 320.353829 
L 464.518605 320.311076 
L 461.847012 320.262978 
L 459.17542 320.210057 
L 456.503827 320.153129 
L 453.832235 320.093269 
L 451.160643 320.03176 
L 448.48905 319.97002 
L 445.817458 319.909513 
L 443.145865 319.851654 
L 440.474273 319.797711 
L 437.80268 319.748712 
L 435.131088 319.705372 
L 432.459495 319.66802 
L 429.787903 319.636568 
L 427.11631 319.610476 
L 424.444718 319.588754 
L 421.773125 319.569971 
L 419.101533 319.552275 
L 416.42994 319.533435 
L 413.758348 319.510881 
L 411.086755 319.481774 
L 408.415163 319.443074 
L 405.743571 319.391649 
L 403.071978 319.324393 
L 400.400386 319.238388 
L 397.728793 319.131081 
L 395.057201 319.000496 
L 392.385608 318.84545 
L 389.714016 318.66576 
L 387.042423 318.462433 
L 384.370831 318.23779 
L 381.699238 317.995514 
L 379.027646 317.7406 
L 376.356053 317.479189 
L 373.684461 317.218281 
L 371.012868 316.965354 
L 368.341276 316.727888 
L 365.669683 316.512853 
L 362.998091 316.3262 
L 360.326499 316.172398 
L 357.654906 316.054071 
L 354.983314 315.971775 
L 352.311721 315.923935 
L 349.640129 315.906961 
L 346.968536 315.91553 
L 344.296944 315.94301 
L 341.625351 315.981992 
L 338.953759 316.024875 
L 336.282166 316.064462 
L 333.610574 316.094502 
L 330.938981 316.110144 
L 328.267389 316.108264 
L 325.595796 316.087638 
L 322.924204 316.048957 
L 320.252611 315.99468 
L 317.581019 315.928757 
L 314.909427 315.856231 
L 312.237834 315.782767 
L 309.566242 315.714143 
L 306.894649 315.655743 
L 304.223057 315.612089 
L 301.551464 315.586449 
L 298.879872 315.580534 
L 296.208279 315.594306 
L 293.536687 315.625905 
L 290.865094 315.671684 
L 288.193502 315.726345 
L 285.521909 315.783173 
L 282.850317 315.83435 
L 280.178724 315.871329 
L 277.507132 315.885283 
L 274.835539 315.867599 
L 272.163947 315.810418 
L 269.492355 315.707203 
L 266.820762 315.553328 
L 264.14917 315.346635 
L 261.477577 315.087932 
L 258.805985 314.781376 
L 256.134392 314.434684 
L 253.4628 314.059123 
L 250.791207 313.669225 
L 248.119615 313.282226 
L 245.448022 312.917213 
L 242.77643 312.594037 
L 240.104837 312.332061 
L 237.433245 312.148835 
L 234.761652 312.058831 
L 232.09006 312.072353 
L 229.418467 312.194732 
L 226.746875 312.425902 
z
" style="fill:#ff0000;fill-opacity:0.75;"/>
   </g>
   <g id="PolyCollection_2">
    <path clip-path="url(#pe041ccdc95)" d="M 226.746875 277.922194 
L 226.746875 294.609586 
L 229.535779 294.793742 
L 232.324683 294.863537 
L 235.113587 294.819033 
L 237.902491 294.665615 
L 240.691395 294.413617 
L 243.480299 294.077589 
L 246.269203 293.6753 
L 249.058107 293.226552 
L 251.847011 292.751918 
L 254.635915 292.271521 
L 257.42482 291.803932 
L 260.213724 291.36527 
L 263.002628 290.968547 
L 265.791532 290.623279 
L 268.580436 290.335354 
L 271.36934 290.107134 
L 274.158244 289.937762 
L 276.947148 289.823603 
L 279.736052 289.758802 
L 282.524956 289.735888 
L 285.31386 289.746404 
L 288.102764 289.781516 
L 290.891668 289.832577 
L 293.680572 289.891622 
L 296.469476 289.951779 
L 299.25838 290.007575 
L 302.047284 290.055124 
L 304.836188 290.092198 
L 307.625092 290.118172 
L 310.413996 290.133858 
L 313.202901 290.141231 
L 315.991805 290.143078 
L 318.780709 290.142591 
L 321.569613 290.142952 
L 324.358517 290.146919 
L 327.147421 290.15648 
L 329.936325 290.172577 
L 332.725229 290.19495 
L 335.514133 290.222089 
L 338.303037 290.251313 
L 341.091941 290.278966 
L 343.880845 290.300705 
L 346.669749 290.311855 
L 349.458653 290.307799 
L 352.247557 290.284364 
L 355.036461 290.238174 
L 357.825365 290.166926 
L 360.614269 290.069592 
L 363.403173 289.9465 
L 366.192077 289.799314 
L 368.980982 289.630917 
L 371.769886 289.445202 
L 374.55879 289.246798 
L 377.347694 289.04076 
L 380.136598 288.832251 
L 382.925502 288.626239 
L 385.714406 288.427227 
L 388.50331 288.239049 
L 391.292214 288.064723 
L 394.081118 287.906374 
L 396.870022 287.765232 
L 399.658926 287.641677 
L 402.44783 287.535333 
L 405.236734 287.445202 
L 408.025638 287.369806 
L 410.814542 287.307338 
L 413.603446 287.255806 
L 416.39235 287.213162 
L 419.181254 287.177407 
L 421.970158 287.14668 
L 424.759062 287.119309 
L 427.547967 287.09386 
L 430.336871 287.069146 
L 433.125775 287.044239 
L 435.914679 287.01846 
L 438.703583 286.991368 
L 441.492487 286.962736 
L 444.281391 286.932535 
L 447.070295 286.900904 
L 449.859199 286.868122 
L 452.648103 286.834586 
L 455.437007 286.800769 
L 458.225911 286.767194 
L 461.014815 286.734395 
L 463.803719 286.702882 
L 466.592623 286.673111 
L 469.381527 286.645446 
L 472.170431 286.620144 
L 474.959335 286.597334 
L 477.748239 286.57701 
L 480.537143 286.55904 
L 483.326048 286.543173 
L 486.114952 286.529067 
L 488.903856 286.516318 
L 491.69276 286.504492 
L 494.481664 286.493165 
L 497.270568 286.48195 
L 500.059472 286.470529 
L 502.848376 286.458674 
L 502.848376 286.073105 
L 502.848376 286.073105 
L 500.059472 286.06125 
L 497.270568 286.049829 
L 494.481664 286.038614 
L 491.69276 286.027287 
L 488.903856 286.015462 
L 486.114952 286.002712 
L 483.326048 285.988607 
L 480.537143 285.97274 
L 477.748239 285.954769 
L 474.959335 285.934446 
L 472.170431 285.911636 
L 469.381527 285.886334 
L 466.592623 285.858669 
L 463.803719 285.828897 
L 461.014815 285.797385 
L 458.225911 285.764586 
L 455.437007 285.731011 
L 452.648103 285.697194 
L 449.859199 285.663657 
L 447.070295 285.630876 
L 444.281391 285.599244 
L 441.492487 285.569043 
L 438.703583 285.540412 
L 435.914679 285.513319 
L 433.125775 285.487541 
L 430.336871 285.462634 
L 427.547967 285.43792 
L 424.759062 285.41247 
L 421.970158 285.3851 
L 419.181254 285.354372 
L 416.39235 285.318618 
L 413.603446 285.275973 
L 410.814542 285.224441 
L 408.025638 285.161973 
L 405.236734 285.086577 
L 402.44783 284.996446 
L 399.658926 284.890103 
L 396.870022 284.766547 
L 394.081118 284.625405 
L 391.292214 284.467057 
L 388.50331 284.29273 
L 385.714406 284.104552 
L 382.925502 283.905541 
L 380.136598 283.699528 
L 377.347694 283.49102 
L 374.55879 283.284982 
L 371.769886 283.086577 
L 368.980982 282.900862 
L 366.192077 282.732466 
L 363.403173 282.58528 
L 360.614269 282.462187 
L 357.825365 282.364853 
L 355.036461 282.293606 
L 352.247557 282.247415 
L 349.458653 282.22398 
L 346.669749 282.219925 
L 343.880845 282.231075 
L 341.091941 282.252814 
L 338.303037 282.280467 
L 335.514133 282.309691 
L 332.725229 282.336829 
L 329.936325 282.359202 
L 327.147421 282.3753 
L 324.358517 282.38486 
L 321.569613 282.388827 
L 318.780709 282.389188 
L 315.991805 282.388702 
L 313.202901 282.390548 
L 310.413996 282.397921 
L 307.625092 282.413607 
L 304.836188 282.439582 
L 302.047284 282.476655 
L 299.25838 282.524204 
L 296.469476 282.58 
L 293.680572 282.640158 
L 290.891668 282.699203 
L 288.102764 282.750263 
L 285.31386 282.785375 
L 282.524956 282.795892 
L 279.736052 282.772977 
L 276.947148 282.708176 
L 274.158244 282.594017 
L 271.36934 282.424645 
L 268.580436 282.196426 
L 265.791532 281.9085 
L 263.002628 281.563232 
L 260.213724 281.166509 
L 257.42482 280.727848 
L 254.635915 280.260259 
L 251.847011 279.779862 
L 249.058107 279.305228 
L 246.269203 278.856479 
L 243.480299 278.454191 
L 240.691395 278.118163 
L 237.902491 277.866164 
L 235.113587 277.712747 
L 232.324683 277.668243 
L 229.535779 277.738038 
L 226.746875 277.922194 
z
" style="fill:#ff0000;fill-opacity:0.75;"/>
   </g>
   <g id="PolyCollection_3">
    <path clip-path="url(#pe041ccdc95)" d="M 226.746875 243.600596 
L 226.746875 260.150007 
L 228.998461 260.334815 
L 231.250046 260.442956 
L 233.501632 260.472949 
L 235.753218 260.425796 
L 238.004803 260.304938 
L 240.256389 260.116071 
L 242.507975 259.866871 
L 244.75956 259.566618 
L 247.011146 259.22576 
L 249.262732 258.855437 
L 251.514317 258.467005 
L 253.765903 258.071571 
L 256.017488 257.679583 
L 258.269074 257.300472 
L 260.52066 256.942383 
L 262.772245 256.611982 
L 265.023831 256.314356 
L 267.275417 256.052984 
L 269.527002 255.829791 
L 271.778588 255.645257 
L 274.030174 255.498569 
L 276.281759 255.387818 
L 278.533345 255.310199 
L 280.784931 255.262237 
L 283.036516 255.239991 
L 285.288102 255.239268 
L 287.539688 255.255801 
L 289.791273 255.285424 
L 292.042859 255.324211 
L 294.294445 255.368601 
L 296.54603 255.415494 
L 298.797616 255.462321 
L 301.049202 255.50709 
L 303.300787 255.54841 
L 305.552373 255.585479 
L 307.803958 255.618061 
L 310.055544 255.646423 
L 312.30713 255.671262 
L 314.558715 255.6936 
L 316.810301 255.714669 
L 319.061887 255.735781 
L 321.313472 255.758195 
L 323.565058 255.782983 
L 325.816644 255.810909 
L 328.068229 255.842323 
L 330.319815 255.877085 
L 332.571401 255.914514 
L 334.822986 255.953384 
L 337.074572 255.991947 
L 339.326158 256.028007 
L 341.577743 256.059018 
L 343.829329 256.08222 
L 346.080915 256.094792 
L 348.3325 256.094018 
L 350.584086 256.077455 
L 352.835672 256.043083 
L 355.087257 255.989444 
L 357.338843 255.915738 
L 359.590429 255.82189 
L 361.842014 255.708571 
L 364.0936 255.577178 
L 366.345185 255.429769 
L 368.596771 255.268968 
L 370.848357 255.097838 
L 373.099942 254.919736 
L 375.351528 254.738162 
L 377.603114 254.5566 
L 379.854699 254.378382 
L 382.106285 254.206556 
L 384.357871 254.043788 
L 386.609456 253.892287 
L 388.861042 253.753757 
L 391.112628 253.629375 
L 393.364213 253.519798 
L 395.615799 253.42519 
L 397.867385 253.34526 
L 400.11897 253.279319 
L 402.370556 253.226337 
L 404.622142 253.185011 
L 406.873727 253.153827 
L 409.125313 253.131122 
L 411.376899 253.115146 
L 413.628484 253.104112 
L 415.88007 253.096253 
L 418.131655 253.089867 
L 420.383241 253.083356 
L 422.634827 253.075271 
L 424.886412 253.064342 
L 427.137998 253.049507 
L 429.389584 253.029934 
L 431.641169 253.005039 
L 433.892755 252.974489 
L 436.144341 252.938206 
L 438.395926 252.896349 
L 440.647512 252.849302 
L 442.899098 252.797643 
L 445.150683 252.742109 
L 447.402269 252.683561 
L 449.653855 252.622937 
L 449.653855 251.127666 
L 449.653855 251.127666 
L 447.402269 251.067042 
L 445.150683 251.008493 
L 442.899098 250.95296 
L 440.647512 250.901301 
L 438.395926 250.854254 
L 436.144341 250.812397 
L 433.892755 250.776113 
L 431.641169 250.745564 
L 429.389584 250.720669 
L 427.137998 250.701096 
L 424.886412 250.686261 
L 422.634827 250.675332 
L 420.383241 250.667247 
L 418.131655 250.660736 
L 415.88007 250.65435 
L 413.628484 250.646491 
L 411.376899 250.635457 
L 409.125313 250.619481 
L 406.873727 250.596776 
L 404.622142 250.565592 
L 402.370556 250.524266 
L 400.11897 250.471284 
L 397.867385 250.405343 
L 395.615799 250.325413 
L 393.364213 250.230805 
L 391.112628 250.121228 
L 388.861042 249.996846 
L 386.609456 249.858316 
L 384.357871 249.706815 
L 382.106285 249.544047 
L 379.854699 249.372221 
L 377.603114 249.194002 
L 375.351528 249.012441 
L 373.099942 248.830867 
L 370.848357 248.652765 
L 368.596771 248.481635 
L 366.345185 248.320834 
L 364.0936 248.173425 
L 361.842014 248.042032 
L 359.590429 247.928713 
L 357.338843 247.834865 
L 355.087257 247.761159 
L 352.835672 247.70752 
L 350.584086 247.673148 
L 348.3325 247.656585 
L 346.080915 247.655811 
L 343.829329 247.668383 
L 341.577743 247.691585 
L 339.326158 247.722596 
L 337.074572 247.758656 
L 334.822986 247.797219 
L 332.571401 247.836089 
L 330.319815 247.873518 
L 328.068229 247.90828 
L 325.816644 247.939694 
L 323.565058 247.96762 
L 321.313472 247.992408 
L 319.061887 248.014822 
L 316.810301 248.035934 
L 314.558715 248.057003 
L 312.30713 248.07934 
L 310.055544 248.10418 
L 307.803958 248.132542 
L 305.552373 248.165124 
L 303.300787 248.202193 
L 301.049202 248.243512 
L 298.797616 248.288282 
L 296.54603 248.335109 
L 294.294445 248.382002 
L 292.042859 248.426392 
L 289.791273 248.465179 
L 287.539688 248.494802 
L 285.288102 248.511335 
L 283.036516 248.510612 
L 280.784931 248.488366 
L 278.533345 248.440404 
L 276.281759 248.362785 
L 274.030174 248.252033 
L 271.778588 248.105346 
L 269.527002 247.920811 
L 267.275417 247.697619 
L 265.023831 247.436247 
L 262.772245 247.13862 
L 260.52066 246.80822 
L 258.269074 246.450131 
L 256.017488 246.07102 
L 253.765903 245.679032 
L 251.514317 245.283598 
L 249.262732 244.895166 
L 247.011146 244.524843 
L 244.75956 244.183985 
L 242.507975 243.883732 
L 240.256389 243.634532 
L 238.004803 243.445665 
L 235.753218 243.324807 
L 233.501632 243.277654 
L 231.250046 243.307647 
L 228.998461 243.415788 
L 226.746875 243.600596 
z
" style="fill:#ff0000;fill-opacity:0.75;"/>
   </g>
   <g id="PolyCollection_4">
    <path clip-path="url(#pe041ccdc95)" d="M 226.756547 209.100403 
L 226.756547 225.869024 
L 229.947354 226.036048 
L 233.138162 226.08236 
L 236.32897 226.009503 
L 239.519777 225.824834 
L 242.710585 225.540942 
L 245.901392 225.174662 
L 249.0922 224.745817 
L 252.283008 224.275783 
L 255.473815 223.786056 
L 258.664623 223.296914 
L 261.855431 222.82631 
L 265.046238 222.389053 
L 268.237046 221.996333 
L 271.427853 221.655561 
L 274.618661 221.370526 
L 277.809469 221.141791 
L 281.000276 220.967263 
L 284.191084 220.842867 
L 287.381891 220.76325 
L 290.572699 220.722454 
L 293.763507 220.714496 
L 296.954314 220.733841 
L 300.145122 220.775721 
L 303.335929 220.836299 
L 306.526737 220.912687 
L 309.717545 221.002818 
L 312.908352 221.105212 
L 316.09916 221.218648 
L 319.289967 221.341807 
L 322.480775 221.472917 
L 325.671583 221.609452 
L 328.86239 221.747917 
L 332.053198 221.883775 
L 335.244005 222.011512 
L 338.434813 222.124858 
L 341.625621 222.217144 
L 344.816428 222.281756 
L 348.007236 222.312655 
L 351.198044 222.304884 
L 354.388851 222.255025 
L 357.579659 222.161541 
L 360.770466 222.02497 
L 363.961274 221.847945 
L 367.152082 221.635041 
L 370.342889 221.392469 
L 373.533697 221.127643 
L 376.724504 220.848681 
L 379.915312 220.563867 
L 383.10612 220.281155 
L 386.296927 220.007723 
L 389.487735 219.749634 
L 392.678542 219.511607 
L 395.86935 219.296906 
L 399.060158 219.107338 
L 402.250965 218.943345 
L 405.441773 218.804175 
L 408.63258 218.688091 
L 411.823388 218.592622 
L 415.014196 218.51481 
L 418.205003 218.451458 
L 421.395811 218.399352 
L 424.586618 218.355455 
L 427.777426 218.317067 
L 430.968234 218.281942 
L 434.159041 218.248363 
L 437.349849 218.215175 
L 440.540656 218.181777 
L 443.731464 218.148074 
L 446.922272 218.114405 
L 450.113079 218.081435 
L 453.303887 218.050039 
L 456.494695 218.021181 
L 459.685502 217.99579 
L 462.87631 217.974653 
L 466.067117 217.958327 
L 469.257925 217.947079 
L 472.448733 217.940851 
L 475.63954 217.939261 
L 478.830348 217.94163 
L 482.021155 217.947036 
L 485.211963 217.954384 
L 488.402771 217.962489 
L 491.593578 217.970166 
L 494.784386 217.97631 
L 497.975193 217.979967 
L 501.166001 217.980392 
L 504.356809 217.977077 
L 507.547616 217.969766 
L 510.738424 217.958446 
L 513.929231 217.943318 
L 517.120039 217.92476 
L 520.310847 217.903277 
L 523.501654 217.879452 
L 526.692462 217.8539 
L 529.883269 217.827225 
L 533.074077 217.799991 
L 536.264885 217.772702 
L 539.455692 217.745789 
L 542.6465 217.719608 
L 542.6465 217.249819 
L 542.6465 217.249819 
L 539.455692 217.223637 
L 536.264885 217.196724 
L 533.074077 217.169435 
L 529.883269 217.142202 
L 526.692462 217.115526 
L 523.501654 217.089974 
L 520.310847 217.066149 
L 517.120039 217.044666 
L 513.929231 217.026109 
L 510.738424 217.010981 
L 507.547616 216.999661 
L 504.356809 216.99235 
L 501.166001 216.989034 
L 497.975193 216.989459 
L 494.784386 216.993117 
L 491.593578 216.999261 
L 488.402771 217.006937 
L 485.211963 217.015043 
L 482.021155 217.02239 
L 478.830348 217.027796 
L 475.63954 217.030166 
L 472.448733 217.028576 
L 469.257925 217.022348 
L 466.067117 217.011099 
L 462.87631 216.994774 
L 459.685502 216.973637 
L 456.494695 216.948246 
L 453.303887 216.919388 
L 450.113079 216.887992 
L 446.922272 216.855021 
L 443.731464 216.821352 
L 440.540656 216.78765 
L 437.349849 216.754251 
L 434.159041 216.721063 
L 430.968234 216.687485 
L 427.777426 216.65236 
L 424.586618 216.613972 
L 421.395811 216.570075 
L 418.205003 216.517968 
L 415.014196 216.454616 
L 411.823388 216.376804 
L 408.63258 216.281335 
L 405.441773 216.165252 
L 402.250965 216.026081 
L 399.060158 215.862089 
L 395.86935 215.67252 
L 392.678542 215.457819 
L 389.487735 215.219793 
L 386.296927 214.961704 
L 383.10612 214.688272 
L 379.915312 214.405559 
L 376.724504 214.120746 
L 373.533697 213.841783 
L 370.342889 213.576958 
L 367.152082 213.334386 
L 363.961274 213.121482 
L 360.770466 212.944457 
L 357.579659 212.807886 
L 354.388851 212.714402 
L 351.198044 212.664543 
L 348.007236 212.656772 
L 344.816428 212.68767 
L 341.625621 212.752283 
L 338.434813 212.844568 
L 335.244005 212.957915 
L 332.053198 213.085652 
L 328.86239 213.22151 
L 325.671583 213.359975 
L 322.480775 213.496509 
L 319.289967 213.62762 
L 316.09916 213.750779 
L 312.908352 213.864214 
L 309.717545 213.966608 
L 306.526737 214.05674 
L 303.335929 214.133128 
L 300.145122 214.193705 
L 296.954314 214.235585 
L 293.763507 214.254931 
L 290.572699 214.246973 
L 287.381891 214.206176 
L 284.191084 214.12656 
L 281.000276 214.002164 
L 277.809469 213.827635 
L 274.618661 213.5989 
L 271.427853 213.313866 
L 268.237046 212.973093 
L 265.046238 212.580373 
L 261.855431 212.143117 
L 258.664623 211.672512 
L 255.473815 211.18337 
L 252.283008 210.693643 
L 249.0922 210.22361 
L 245.901392 209.794764 
L 242.710585 209.428485 
L 239.519777 209.144592 
L 236.32897 208.959923 
L 233.138162 208.887066 
L 229.947354 208.933379 
L 226.756547 209.100403 
z
" style="fill:#ff0000;fill-opacity:0.75;"/>
   </g>
   <g id="PolyCollection_5">
    <path clip-path="url(#pe041ccdc95)" d="M 226.748555 174.734372 
L 226.748555 191.453878 
L 229.939443 191.630493 
L 233.130332 191.691772 
L 236.32122 191.639063 
L 239.512108 191.479256 
L 242.702997 191.224275 
L 245.893885 190.890192 
L 249.084773 190.496069 
L 252.275662 190.062621 
L 255.46655 189.610856 
L 258.657438 189.16078 
L 261.848327 188.730303 
L 265.039215 188.334392 
L 268.230103 187.984541 
L 271.420992 187.688554 
L 274.61188 187.450625 
L 277.802768 187.271671 
L 280.993657 187.149864 
L 284.184545 187.081283 
L 287.375433 187.060625 
L 290.566322 187.0819 
L 293.75721 187.139058 
L 296.948098 187.226498 
L 300.138987 187.33942 
L 303.329875 187.474009 
L 306.520763 187.627432 
L 309.711652 187.797674 
L 312.90254 187.983223 
L 316.093428 188.18266 
L 319.284317 188.394198 
L 322.475205 188.615233 
L 325.666093 188.841964 
L 328.856982 189.069158 
L 332.04787 189.290071 
L 335.238758 189.496593 
L 338.429647 189.679585 
L 341.620535 189.8294 
L 344.811423 189.936541 
L 348.002312 189.992394 
L 351.1932 189.98994 
L 354.384088 189.92439 
L 357.574977 189.793657 
L 360.765865 189.598617 
L 363.956753 189.34313 
L 367.147642 189.033815 
L 370.33853 188.679611 
L 373.529418 188.291172 
L 376.720307 187.88015 
L 379.911195 187.458454 
L 383.102083 187.037535 
L 386.292972 186.627775 
L 389.48386 186.238008 
L 392.674748 185.875202 
L 395.865637 185.544317 
L 399.056525 185.248309 
L 402.247413 184.988273 
L 405.438302 184.763691 
L 408.62919 184.572735 
L 411.820078 184.412611 
L 415.010967 184.279901 
L 418.201855 184.170886 
L 421.392743 184.081829 
L 424.583632 184.009204 
L 427.77452 183.94987 
L 430.965408 183.901191 
L 434.156297 183.861087 
L 437.347185 183.828048 
L 440.538073 183.801091 
L 443.728962 183.779682 
L 446.91985 183.763629 
L 450.110738 183.752965 
L 453.301627 183.747809 
L 456.492515 183.748249 
L 459.683403 183.754228 
L 462.874292 183.765459 
L 466.06518 183.781374 
L 469.256068 183.8011 
L 472.446957 183.823481 
L 475.637845 183.847126 
L 478.828733 183.870489 
L 482.019622 183.891964 
L 485.21051 183.909993 
L 488.401398 183.923172 
L 491.592287 183.93034 
L 494.783175 183.930657 
L 497.974063 183.923644 
L 501.164952 183.909202 
L 504.35584 183.887593 
L 507.546728 183.859404 
L 510.737617 183.825478 
L 513.928505 183.786843 
L 517.119393 183.744629 
L 520.310282 183.699989 
L 523.50117 183.654029 
L 526.692058 183.607757 
L 529.882947 183.56204 
L 533.073835 183.517588 
L 536.264723 183.474948 
L 539.455612 183.434511 
L 542.6465 183.396534 
L 542.6465 182.791716 
L 542.6465 182.791716 
L 539.455612 182.753739 
L 536.264723 182.713302 
L 533.073835 182.670662 
L 529.882947 182.62621 
L 526.692058 182.580493 
L 523.50117 182.534221 
L 520.310282 182.488261 
L 517.119393 182.443621 
L 513.928505 182.401407 
L 510.737617 182.362772 
L 507.546728 182.328846 
L 504.35584 182.300657 
L 501.164952 182.279048 
L 497.974063 182.264606 
L 494.783175 182.257593 
L 491.592287 182.25791 
L 488.401398 182.265078 
L 485.21051 182.278257 
L 482.019622 182.296286 
L 478.828733 182.317761 
L 475.637845 182.341124 
L 472.446957 182.364769 
L 469.256068 182.38715 
L 466.06518 182.406876 
L 462.874292 182.422791 
L 459.683403 182.434022 
L 456.492515 182.440001 
L 453.301627 182.440441 
L 450.110738 182.435285 
L 446.91985 182.424621 
L 443.728962 182.408568 
L 440.538073 182.387159 
L 437.347185 182.360202 
L 434.156297 182.327163 
L 430.965408 182.287059 
L 427.77452 182.23838 
L 424.583632 182.179046 
L 421.392743 182.106421 
L 418.201855 182.017364 
L 415.010967 181.908349 
L 411.820078 181.775639 
L 408.62919 181.615515 
L 405.438302 181.424559 
L 402.247413 181.199977 
L 399.056525 180.939941 
L 395.865637 180.643933 
L 392.674748 180.313048 
L 389.48386 179.950242 
L 386.292972 179.560475 
L 383.102083 179.150715 
L 379.911195 178.729796 
L 376.720307 178.3081 
L 373.529418 177.897078 
L 370.33853 177.508639 
L 367.147642 177.154435 
L 363.956753 176.84512 
L 360.765865 176.589633 
L 357.574977 176.394593 
L 354.384088 176.26386 
L 351.1932 176.19831 
L 348.002312 176.195856 
L 344.811423 176.251709 
L 341.620535 176.35885 
L 338.429647 176.508665 
L 335.238758 176.691657 
L 332.04787 176.898179 
L 328.856982 177.119092 
L 325.666093 177.346286 
L 322.475205 177.573017 
L 319.284317 177.794052 
L 316.093428 178.00559 
L 312.90254 178.205027 
L 309.711652 178.390576 
L 306.520763 178.560818 
L 303.329875 178.714241 
L 300.138987 178.84883 
L 296.948098 178.961752 
L 293.75721 179.049192 
L 290.566322 179.10635 
L 287.375433 179.127625 
L 284.184545 179.106967 
L 280.993657 179.038386 
L 277.802768 178.916579 
L 274.61188 178.737625 
L 271.420992 178.499696 
L 268.230103 178.203709 
L 265.039215 177.853858 
L 261.848327 177.457947 
L 258.657438 177.02747 
L 255.46655 176.577394 
L 252.275662 176.125629 
L 249.084773 175.692181 
L 245.893885 175.298058 
L 242.702997 174.963975 
L 239.512108 174.708994 
L 236.32122 174.549187 
L 233.130332 174.496478 
L 229.939443 174.557757 
L 226.748555 174.734372 
z
" style="fill:#ff0000;fill-opacity:0.75;"/>
   </g>
   <g id="PolyCollection_6">
    <path clip-path="url(#pe041ccdc95)" d="M 226.758851 140.446536 
L 226.758851 156.960538 
L 229.128397 157.173757 
L 231.497942 157.287891 
L 233.867487 157.301184 
L 236.237033 157.215929 
L 238.606578 157.038278 
L 240.976123 156.777814 
L 243.345669 156.446918 
L 245.715214 156.060003 
L 248.08476 155.632669 
L 250.454305 155.180857 
L 252.82385 154.720065 
L 255.193396 154.264666 
L 257.562941 153.827384 
L 259.932487 153.418916 
L 262.302032 153.047725 
L 264.671577 152.71998 
L 267.041123 152.439612 
L 269.410668 152.208475 
L 271.780213 152.026553 
L 274.149759 151.892218 
L 276.519304 151.802488 
L 278.88885 151.753289 
L 281.258395 151.739703 
L 283.62794 151.756207 
L 285.997486 151.796898 
L 288.367031 151.855718 
L 290.736576 151.926669 
L 293.106122 152.004035 
L 295.475667 152.082594 
L 297.845213 152.157825 
L 300.214758 152.226092 
L 302.584303 152.284793 
L 304.953849 152.332471 
L 307.323394 152.368853 
L 309.692939 152.394836 
L 312.062485 152.412385 
L 314.43203 152.424363 
L 316.801576 152.434297 
L 319.171121 152.446082 
L 321.540666 152.463647 
L 323.910212 152.490612 
L 326.279757 152.529941 
L 328.649302 152.583638 
L 331.018848 152.652492 
L 333.388393 152.735905 
L 335.757939 152.831816 
L 338.127484 152.936726 
L 340.497029 153.045837 
L 342.866575 153.153299 
L 345.23612 153.252534 
L 347.605665 153.336648 
L 349.975211 153.398866 
L 352.344756 153.432987 
L 354.714302 153.433802 
L 357.083847 153.397455 
L 359.453392 153.321711 
L 361.822938 153.20611 
L 364.192483 153.051995 
L 366.562028 152.862419 
L 368.931574 152.641932 
L 371.301119 152.396276 
L 373.670665 152.132013 
L 376.04021 151.85612 
L 378.409755 151.575586 
L 380.779301 151.297042 
L 383.148846 151.026446 
L 385.518392 150.768853 
L 387.887937 150.528259 
L 390.257482 150.307543 
L 392.627028 150.108485 
L 394.996573 149.931848 
L 397.366118 149.777509 
L 399.735664 149.644624 
L 402.105209 149.531803 
L 404.474755 149.437276 
L 406.8443 149.35905 
L 409.213845 149.295043 
L 411.583391 149.243183 
L 413.952936 149.201488 
L 416.322481 149.168115 
L 418.692027 149.141392 
L 421.061572 149.119835 
L 423.431118 149.102147 
L 425.800663 149.087219 
L 428.170208 149.07412 
L 430.539754 149.062092 
L 432.909299 149.050531 
L 435.278844 149.038981 
L 437.64839 149.027117 
L 440.017935 149.014731 
L 442.387481 149.001716 
L 444.757026 148.988047 
L 447.126571 148.973761 
L 449.496117 148.958944 
L 451.865662 148.943712 
L 454.235207 148.928199 
L 456.604753 148.912542 
L 458.974298 148.896881 
L 461.343844 148.881344 
L 461.343844 148.52573 
L 461.343844 148.52573 
L 458.974298 148.510193 
L 456.604753 148.494531 
L 454.235207 148.478875 
L 451.865662 148.463361 
L 449.496117 148.44813 
L 447.126571 148.433313 
L 444.757026 148.419027 
L 442.387481 148.405357 
L 440.017935 148.392342 
L 437.64839 148.379957 
L 435.278844 148.368093 
L 432.909299 148.356543 
L 430.539754 148.344982 
L 428.170208 148.332953 
L 425.800663 148.319855 
L 423.431118 148.304927 
L 421.061572 148.287239 
L 418.692027 148.265681 
L 416.322481 148.238959 
L 413.952936 148.205586 
L 411.583391 148.163891 
L 409.213845 148.112031 
L 406.8443 148.048024 
L 404.474755 147.969798 
L 402.105209 147.87527 
L 399.735664 147.762449 
L 397.366118 147.629565 
L 394.996573 147.475226 
L 392.627028 147.298589 
L 390.257482 147.099531 
L 387.887937 146.878815 
L 385.518392 146.638221 
L 383.148846 146.380627 
L 380.779301 146.110032 
L 378.409755 145.831488 
L 376.04021 145.550954 
L 373.670665 145.27506 
L 371.301119 145.010797 
L 368.931574 144.765141 
L 366.562028 144.544655 
L 364.192483 144.355079 
L 361.822938 144.200964 
L 359.453392 144.085362 
L 357.083847 144.009618 
L 354.714302 143.973272 
L 352.344756 143.974087 
L 349.975211 144.008208 
L 347.605665 144.070426 
L 345.23612 144.15454 
L 342.866575 144.253775 
L 340.497029 144.361236 
L 338.127484 144.470348 
L 335.757939 144.575258 
L 333.388393 144.671169 
L 331.018848 144.754582 
L 328.649302 144.823436 
L 326.279757 144.877133 
L 323.910212 144.916462 
L 321.540666 144.943427 
L 319.171121 144.960992 
L 316.801576 144.972776 
L 314.43203 144.982711 
L 312.062485 144.994689 
L 309.692939 145.012237 
L 307.323394 145.03822 
L 304.953849 145.074603 
L 302.584303 145.12228 
L 300.214758 145.180981 
L 297.845213 145.249248 
L 295.475667 145.32448 
L 293.106122 145.403039 
L 290.736576 145.480405 
L 288.367031 145.551356 
L 285.997486 145.610176 
L 283.62794 145.650867 
L 281.258395 145.66737 
L 278.88885 145.653784 
L 276.519304 145.604585 
L 274.149759 145.514855 
L 271.780213 145.380521 
L 269.410668 145.198599 
L 267.041123 144.967461 
L 264.671577 144.687094 
L 262.302032 144.359348 
L 259.932487 143.988157 
L 257.562941 143.579689 
L 255.193396 143.142407 
L 252.82385 142.687009 
L 250.454305 142.226216 
L 248.08476 141.774404 
L 245.715214 141.34707 
L 243.345669 140.960155 
L 240.976123 140.62926 
L 238.606578 140.368795 
L 236.237033 140.191145 
L 233.867487 140.10589 
L 231.497942 140.119183 
L 229.128397 140.233317 
L 226.758851 140.446536 
z
" style="fill:#ff0000;fill-opacity:0.75;"/>
   </g>
   <g id="PolyCollection_7">
    <path clip-path="url(#pe041ccdc95)" d="M 226.758542 106.421121 
L 226.758542 122.204776 
L 229.471487 122.523756 
L 232.184431 122.749845 
L 234.897376 122.87881 
L 237.610321 122.910596 
L 240.323265 122.849187 
L 243.03621 122.702203 
L 245.749155 122.480262 
L 248.462099 122.196207 
L 251.175044 121.864257 
L 253.887988 121.499157 
L 256.600933 121.115404 
L 259.313878 120.726586 
L 262.026822 120.344868 
L 264.739767 119.980635 
L 267.452712 119.64228 
L 270.165656 119.336128 
L 272.878601 119.066468 
L 275.591545 118.835671 
L 278.30449 118.64436 
L 281.017435 118.491631 
L 283.730379 118.375295 
L 286.443324 118.292146 
L 289.156269 118.238234 
L 291.869213 118.209152 
L 294.582158 118.200321 
L 297.295103 118.207268 
L 300.008047 118.225881 
L 302.720992 118.252639 
L 305.433936 118.28478 
L 308.146881 118.320409 
L 310.859826 118.358528 
L 313.57277 118.398966 
L 316.285715 118.442238 
L 318.99866 118.48931 
L 321.711604 118.541305 
L 324.424549 118.599177 
L 327.137494 118.66338 
L 329.850438 118.733574 
L 332.563383 118.808404 
L 335.276327 118.885385 
L 337.989272 118.960915 
L 340.702217 119.030418 
L 343.415161 119.088625 
L 346.128106 119.129952 
L 348.841051 119.14895 
L 351.553995 119.140774 
L 354.26694 119.101625 
L 356.979885 119.029109 
L 359.692829 118.922478 
L 362.405774 118.782723 
L 365.118718 118.612519 
L 367.831663 118.416018 
L 370.544608 118.198529 
L 373.257552 117.966112 
L 375.970497 117.725142 
L 378.683442 117.481879 
L 381.396386 117.242094 
L 384.109331 117.010768 
L 386.822276 116.791895 
L 389.53522 116.588384 
L 392.248165 116.402062 
L 394.961109 116.233748 
L 397.674054 116.08339 
L 400.386999 115.95023 
L 403.099943 115.832985 
L 405.812888 115.730016 
L 408.525833 115.639484 
L 411.238777 115.559474 
L 413.951722 115.4881 
L 416.664667 115.423576 
L 419.377611 115.364274 
L 422.090556 115.308762 
L 424.8035 115.255834 
L 427.516445 115.204521 
L 430.22939 115.154108 
L 432.942334 115.104129 
L 435.655279 115.054363 
L 438.368224 115.00481 
L 441.081168 114.955665 
L 443.794113 114.907278 
L 446.507057 114.860106 
L 449.220002 114.814661 
L 451.932947 114.77146 
L 454.645891 114.730976 
L 457.358836 114.693597 
L 460.071781 114.659598 
L 462.784725 114.629124 
L 465.49767 114.602179 
L 468.210615 114.57864 
L 470.923559 114.55827 
L 473.636504 114.540735 
L 476.349448 114.52564 
L 479.062393 114.51255 
L 481.775338 114.501018 
L 484.488282 114.490614 
L 487.201227 114.480944 
L 489.914172 114.471665 
L 492.627116 114.462502 
L 495.340061 114.453253 
L 495.340061 114.172644 
L 495.340061 114.172644 
L 492.627116 114.163395 
L 489.914172 114.154232 
L 487.201227 114.144953 
L 484.488282 114.135283 
L 481.775338 114.124879 
L 479.062393 114.113347 
L 476.349448 114.100257 
L 473.636504 114.085162 
L 470.923559 114.067627 
L 468.210615 114.047257 
L 465.49767 114.023718 
L 462.784725 113.996774 
L 460.071781 113.966299 
L 457.358836 113.9323 
L 454.645891 113.894921 
L 451.932947 113.854437 
L 449.220002 113.811236 
L 446.507057 113.765791 
L 443.794113 113.718619 
L 441.081168 113.670232 
L 438.368224 113.621087 
L 435.655279 113.571534 
L 432.942334 113.521768 
L 430.22939 113.471789 
L 427.516445 113.421376 
L 424.8035 113.370064 
L 422.090556 113.317135 
L 419.377611 113.261624 
L 416.664667 113.202321 
L 413.951722 113.137797 
L 411.238777 113.066423 
L 408.525833 112.986413 
L 405.812888 112.895881 
L 403.099943 112.792912 
L 400.386999 112.675667 
L 397.674054 112.542507 
L 394.961109 112.392149 
L 392.248165 112.223835 
L 389.53522 112.037513 
L 386.822276 111.834002 
L 384.109331 111.615129 
L 381.396386 111.383803 
L 378.683442 111.144018 
L 375.970497 110.900755 
L 373.257552 110.659785 
L 370.544608 110.427368 
L 367.831663 110.209879 
L 365.118718 110.013378 
L 362.405774 109.843174 
L 359.692829 109.703419 
L 356.979885 109.596788 
L 354.26694 109.524272 
L 351.553995 109.485123 
L 348.841051 109.476947 
L 346.128106 109.495945 
L 343.415161 109.537272 
L 340.702217 109.595479 
L 337.989272 109.664982 
L 335.276327 109.740512 
L 332.563383 109.817493 
L 329.850438 109.892323 
L 327.137494 109.962517 
L 324.424549 110.02672 
L 321.711604 110.084592 
L 318.99866 110.136587 
L 316.285715 110.183659 
L 313.57277 110.226931 
L 310.859826 110.26737 
L 308.146881 110.305488 
L 305.433936 110.341117 
L 302.720992 110.373258 
L 300.008047 110.400016 
L 297.295103 110.418629 
L 294.582158 110.425576 
L 291.869213 110.416745 
L 289.156269 110.387663 
L 286.443324 110.333751 
L 283.730379 110.250602 
L 281.017435 110.134266 
L 278.30449 109.981537 
L 275.591545 109.790226 
L 272.878601 109.559429 
L 270.165656 109.289769 
L 267.452712 108.983617 
L 264.739767 108.645262 
L 262.026822 108.281029 
L 259.313878 107.899311 
L 256.600933 107.510494 
L 253.887988 107.12674 
L 251.175044 106.76164 
L 248.462099 106.42969 
L 245.749155 106.145635 
L 243.03621 105.923694 
L 240.323265 105.77671 
L 237.610321 105.715301 
L 234.897376 105.747087 
L 232.184431 105.876052 
L 229.471487 106.102141 
L 226.758542 106.421121 
z
" style="fill:#ff0000;fill-opacity:0.75;"/>
   </g>
   <g id="PolyCollection_8">
    <path clip-path="url(#pe041ccdc95)" d="M 227.036237 75.211824 
L 227.036237 84.632897 
L 230.163559 84.817789 
L 233.290881 84.957033 
L 236.418204 85.048584 
L 239.545526 85.092317 
L 242.672848 85.090019 
L 245.80017 85.045249 
L 248.927492 84.963108 
L 252.054815 84.849914 
L 255.182137 84.712832 
L 258.309459 84.55947 
L 261.436781 84.397496 
L 264.564103 84.234281 
L 267.691426 84.076608 
L 270.818748 83.930455 
L 273.94607 83.800865 
L 277.073392 83.691891 
L 280.200715 83.606633 
L 283.328037 83.54732 
L 286.455359 83.51545 
L 289.582681 83.511946 
L 292.710003 83.537321 
L 295.837326 83.591822 
L 298.964648 83.675542 
L 302.09197 83.788491 
L 305.219292 83.930606 
L 308.346614 84.101711 
L 311.473937 84.301426 
L 314.601259 84.529033 
L 317.728581 84.783313 
L 320.855903 85.062371 
L 323.983225 85.363481 
L 327.110548 85.682949 
L 330.23787 86.016033 
L 333.365192 86.35693 
L 336.492514 86.698845 
L 339.619836 87.034135 
L 342.747159 87.354551 
L 345.874481 87.651538 
L 349.001803 87.916606 
L 352.129125 88.141725 
L 355.256448 88.319732 
L 358.38377 88.444708 
L 361.511092 88.512308 
L 364.638414 88.520007 
L 367.765736 88.467245 
L 370.893059 88.355462 
L 374.020381 88.188015 
L 377.147703 87.969991 
L 380.275025 87.707918 
L 383.402347 87.409415 
L 386.52967 87.082789 
L 389.656992 86.736631 
L 392.784314 86.379413 
L 395.911636 86.019143 
L 399.038958 85.663067 
L 402.166281 85.317458 
L 405.293603 84.987478 
L 408.420925 84.677123 
L 411.548247 84.389235 
L 414.67557 84.125579 
L 417.802892 83.886956 
L 420.930214 83.673347 
L 424.057536 83.484062 
L 427.184858 83.317897 
L 430.312181 83.173267 
L 433.439503 83.048326 
L 436.566825 82.941065 
L 439.694147 82.849383 
L 442.821469 82.771142 
L 445.948792 82.70421 
L 449.076114 82.646481 
L 452.203436 82.595898 
L 455.330758 82.550477 
L 458.45808 82.508315 
L 461.585403 82.467621 
L 464.712725 82.426729 
L 467.840047 82.384132 
L 470.967369 82.338502 
L 474.094691 82.288713 
L 477.222014 82.233869 
L 480.349336 82.173312 
L 483.476658 82.106637 
L 486.60398 82.033691 
L 489.731303 81.954567 
L 492.858625 81.869588 
L 495.985947 81.779287 
L 499.113269 81.684373 
L 502.240591 81.585701 
L 505.367914 81.484231 
L 508.495236 81.380989 
L 511.622558 81.277028 
L 514.74988 81.173392 
L 517.877202 81.071082 
L 521.004525 80.971027 
L 524.131847 80.874065 
L 527.259169 80.780924 
L 530.386491 80.692214 
L 533.513813 80.608422 
L 536.641136 80.529915 
L 536.641136 79.314806 
L 536.641136 79.314806 
L 533.513813 79.236298 
L 530.386491 79.152507 
L 527.259169 79.063797 
L 524.131847 78.970656 
L 521.004525 78.873694 
L 517.877202 78.773639 
L 514.74988 78.671328 
L 511.622558 78.567692 
L 508.495236 78.463731 
L 505.367914 78.360489 
L 502.240591 78.259019 
L 499.113269 78.160347 
L 495.985947 78.065434 
L 492.858625 77.975132 
L 489.731303 77.890154 
L 486.60398 77.81103 
L 483.476658 77.738084 
L 480.349336 77.671409 
L 477.222014 77.610852 
L 474.094691 77.556007 
L 470.967369 77.506219 
L 467.840047 77.460588 
L 464.712725 77.417991 
L 461.585403 77.3771 
L 458.45808 77.336405 
L 455.330758 77.294244 
L 452.203436 77.248822 
L 449.076114 77.19824 
L 445.948792 77.14051 
L 442.821469 77.073578 
L 439.694147 76.995338 
L 436.566825 76.903656 
L 433.439503 76.796394 
L 430.312181 76.671454 
L 427.184858 76.526824 
L 424.057536 76.360659 
L 420.930214 76.171374 
L 417.802892 75.957764 
L 414.67557 75.719142 
L 411.548247 75.455486 
L 408.420925 75.167598 
L 405.293603 74.857242 
L 402.166281 74.527262 
L 399.038958 74.181653 
L 395.911636 73.825577 
L 392.784314 73.465307 
L 389.656992 73.10809 
L 386.52967 72.761931 
L 383.402347 72.435306 
L 380.275025 72.136803 
L 377.147703 71.87473 
L 374.020381 71.656706 
L 370.893059 71.489259 
L 367.765736 71.377475 
L 364.638414 71.324713 
L 361.511092 71.332412 
L 358.38377 71.400013 
L 355.256448 71.524989 
L 352.129125 71.702996 
L 349.001803 71.928115 
L 345.874481 72.193183 
L 342.747159 72.49017 
L 339.619836 72.810585 
L 336.492514 73.145876 
L 333.365192 73.48779 
L 330.23787 73.828688 
L 327.110548 74.161772 
L 323.983225 74.481239 
L 320.855903 74.782349 
L 317.728581 75.061408 
L 314.601259 75.315687 
L 311.473937 75.543294 
L 308.346614 75.74301 
L 305.219292 75.914115 
L 302.09197 76.056229 
L 298.964648 76.169178 
L 295.837326 76.252899 
L 292.710003 76.307399 
L 289.582681 76.332774 
L 286.455359 76.329271 
L 283.328037 76.2974 
L 280.200715 76.238088 
L 277.073392 76.152829 
L 273.94607 76.043856 
L 270.818748 75.914265 
L 267.691426 75.768113 
L 264.564103 75.610439 
L 261.436781 75.447224 
L 258.309459 75.28525 
L 255.182137 75.131889 
L 252.054815 74.994806 
L 248.927492 74.881613 
L 245.80017 74.799472 
L 242.672848 74.754702 
L 239.545526 74.752404 
L 236.418204 74.796137 
L 233.290881 74.887687 
L 230.163559 75.026931 
L 227.036237 75.211824 
z
" style="fill:#ff0000;fill-opacity:0.75;"/>
   </g>
   <g id="PolyCollection_9">
    <path clip-path="url(#pe041ccdc95)" d="M 226.746875 37.043032 
L 226.746875 54.020512 
L 229.847562 54.128287 
L 232.948249 54.129419 
L 236.048935 54.02491 
L 239.149622 53.819846 
L 242.250309 53.523071 
L 245.350996 53.14662 
L 248.451683 52.704986 
L 251.552369 52.214257 
L 254.653056 51.691224 
L 257.753743 51.152509 
L 260.85443 50.613778 
L 263.955117 50.089101 
L 267.055803 49.590475 
L 270.15649 49.127545 
L 273.257177 48.707497 
L 276.357864 48.335133 
L 279.458551 48.01307 
L 282.559237 47.742054 
L 285.659924 47.521324 
L 288.760611 47.349009 
L 291.861298 47.222509 
L 294.961985 47.138829 
L 298.062671 47.094857 
L 301.163358 47.087557 
L 304.264045 47.114088 
L 307.364732 47.17183 
L 310.465419 47.258344 
L 313.566105 47.371271 
L 316.666792 47.508181 
L 319.767479 47.666416 
L 322.868166 47.842918 
L 325.968853 48.034093 
L 329.069539 48.235718 
L 332.170226 48.4429 
L 335.270913 48.650127 
L 338.3716 48.851375 
L 341.472287 49.040311 
L 344.572973 49.210549 
L 347.67366 49.355958 
L 350.774347 49.470987 
L 353.875034 49.550997 
L 356.975721 49.592549 
L 360.076407 49.593638 
L 363.177094 49.553839 
L 366.277781 49.474364 
L 369.378468 49.358004 
L 372.479155 49.208978 
L 375.579841 49.032689 
L 378.680528 48.835405 
L 381.781215 48.623907 
L 384.881902 48.405109 
L 387.982589 48.185692 
L 391.083275 47.971775 
L 394.183962 47.768645 
L 397.284649 47.580555 
L 400.385336 47.410604 
L 403.486023 47.260695 
L 406.586709 47.131571 
L 409.687396 47.022913 
L 412.788083 46.933487 
L 415.88877 46.861334 
L 418.989457 46.803971 
L 422.090143 46.758607 
L 425.19083 46.722335 
L 428.291517 46.692323 
L 431.392204 46.66596 
L 434.492891 46.64098 
L 437.593577 46.615542 
L 440.694264 46.588277 
L 443.794951 46.558297 
L 446.895638 46.525179 
L 449.996325 46.48891 
L 453.097011 46.449824 
L 456.197698 46.408523 
L 459.298385 46.365787 
L 462.399072 46.322489 
L 465.499759 46.279515 
L 468.600446 46.237694 
L 471.701132 46.197744 
L 474.801819 46.160233 
L 477.902506 46.125554 
L 481.003193 46.093923 
L 484.10388 46.065382 
L 487.204566 46.03982 
L 490.305253 46.016994 
L 493.40594 45.996563 
L 496.506627 45.978119 
L 499.607314 45.961217 
L 502.708 45.945404 
L 505.808687 45.930247 
L 508.909374 45.915346 
L 512.010061 45.900359 
L 515.110748 45.885008 
L 518.211434 45.869084 
L 521.312121 45.852458 
L 524.412808 45.835071 
L 527.513495 45.816939 
L 530.614182 45.798143 
L 533.714868 45.778817 
L 533.714868 45.284727 
L 533.714868 45.284727 
L 530.614182 45.265401 
L 527.513495 45.246605 
L 524.412808 45.228473 
L 521.312121 45.211087 
L 518.211434 45.19446 
L 515.110748 45.178537 
L 512.010061 45.163185 
L 508.909374 45.148198 
L 505.808687 45.133298 
L 502.708 45.11814 
L 499.607314 45.102327 
L 496.506627 45.085425 
L 493.40594 45.066981 
L 490.305253 45.04655 
L 487.204566 45.023724 
L 484.10388 44.998162 
L 481.003193 44.969621 
L 477.902506 44.93799 
L 474.801819 44.903312 
L 471.701132 44.8658 
L 468.600446 44.82585 
L 465.499759 44.784029 
L 462.399072 44.741055 
L 459.298385 44.697757 
L 456.197698 44.655021 
L 453.097011 44.61372 
L 449.996325 44.574635 
L 446.895638 44.538365 
L 443.794951 44.505247 
L 440.694264 44.475268 
L 437.593577 44.448002 
L 434.492891 44.422564 
L 431.392204 44.397584 
L 428.291517 44.371221 
L 425.19083 44.341209 
L 422.090143 44.304937 
L 418.989457 44.259573 
L 415.88877 44.202211 
L 412.788083 44.130057 
L 409.687396 44.040631 
L 406.586709 43.931973 
L 403.486023 43.802849 
L 400.385336 43.652941 
L 397.284649 43.482989 
L 394.183962 43.294899 
L 391.083275 43.091769 
L 387.982589 42.877852 
L 384.881902 42.658435 
L 381.781215 42.439637 
L 378.680528 42.228139 
L 375.579841 42.030856 
L 372.479155 41.854566 
L 369.378468 41.70554 
L 366.277781 41.58918 
L 363.177094 41.509705 
L 360.076407 41.469906 
L 356.975721 41.470995 
L 353.875034 41.512547 
L 350.774347 41.592557 
L 347.67366 41.707586 
L 344.572973 41.852995 
L 341.472287 42.023233 
L 338.3716 42.21217 
L 335.270913 42.413418 
L 332.170226 42.620644 
L 329.069539 42.827826 
L 325.968853 43.029451 
L 322.868166 43.220626 
L 319.767479 43.397128 
L 316.666792 43.555363 
L 313.566105 43.692273 
L 310.465419 43.8052 
L 307.364732 43.891714 
L 304.264045 43.949457 
L 301.163358 43.975987 
L 298.062671 43.968688 
L 294.961985 43.924715 
L 291.861298 43.841035 
L 288.760611 43.714535 
L 285.659924 43.54222 
L 282.559237 43.32149 
L 279.458551 43.050474 
L 276.357864 42.728411 
L 273.257177 42.356047 
L 270.15649 41.935999 
L 267.055803 41.473069 
L 263.955117 40.974443 
L 260.85443 40.449766 
L 257.753743 39.911035 
L 254.653056 39.37232 
L 251.552369 38.849287 
L 248.451683 38.358558 
L 245.350996 37.916924 
L 242.250309 37.540474 
L 239.149622 37.243698 
L 236.048935 37.038635 
L 232.948249 36.934125 
L 229.847562 36.935258 
L 226.746875 37.043032 
z
" style="fill:#ff0000;fill-opacity:0.75;"/>
   </g>
   <g id="LineCollection_1">
    <path clip-path="url(#pe041ccdc95)" d="M 292.031908 324.955301 
L 292.031908 316.357654 
" style="fill:none;stroke:#000000;stroke-width:1.5;"/>
    <path clip-path="url(#pe041ccdc95)" d="M 288.939388 290.564713 
L 288.939388 281.967066 
" style="fill:none;stroke:#000000;stroke-width:1.5;"/>
    <path clip-path="url(#pe041ccdc95)" d="M 289.505632 256.174125 
L 289.505632 247.576478 
" style="fill:none;stroke:#000000;stroke-width:1.5;"/>
    <path clip-path="url(#pe041ccdc95)" d="M 293.876031 221.783537 
L 293.876031 213.18589 
" style="fill:none;stroke:#000000;stroke-width:1.5;"/>
    <path clip-path="url(#pe041ccdc95)" d="M 303.631397 187.392949 
L 303.631397 178.795301 
" style="fill:none;stroke:#000000;stroke-width:1.5;"/>
    <path clip-path="url(#pe041ccdc95)" d="M 286.321536 153.00236 
L 286.321536 144.404713 
" style="fill:none;stroke:#000000;stroke-width:1.5;"/>
    <path clip-path="url(#pe041ccdc95)" d="M 292.561291 118.611772 
L 292.561291 110.014125 
" style="fill:none;stroke:#000000;stroke-width:1.5;"/>
    <path clip-path="url(#pe041ccdc95)" d="M 345.542168 84.221184 
L 345.542168 75.623537 
" style="fill:none;stroke:#000000;stroke-width:1.5;"/>
    <path clip-path="url(#pe041ccdc95)" d="M 291.999744 49.830596 
L 291.999744 41.232949 
" style="fill:none;stroke:#000000;stroke-width:1.5;"/>
   </g>
   <g id="patch_3">
    <path d="M 226.746875 343.870125 
L 226.746875 22.318125 
" style="fill:none;stroke:#000000;stroke-linecap:square;stroke-linejoin:miter;stroke-width:0.8;"/>
   </g>
   <g id="patch_4">
    <path d="M 617.346875 343.870125 
L 617.346875 22.318125 
" style="fill:none;stroke:#000000;stroke-linecap:square;stroke-linejoin:miter;stroke-width:0.8;"/>
   </g>
   <g id="patch_5">
    <path d="M 226.746875 343.870125 
L 617.346875 343.870125 
" style="fill:none;stroke:#000000;stroke-linecap:square;stroke-linejoin:miter;stroke-width:0.8;"/>
   </g>
   <g id="patch_6">
    <path d="M 226.746875 22.318125 
L 617.346875 22.318125 
" style="fill:none;stroke:#000000;stroke-linecap:square;stroke-linejoin:miter;stroke-width:0.8;"/>
   </g>
   <g id="text_19">
    <!-- AOE1 for 1.0 -->
    <g transform="translate(384.005938 16.318125)scale(0.12 -0.12)">
     <use xlink:href="#DejaVuSans-41"/>
     <use x="68.392578" xlink:href="#DejaVuSans-4f"/>
     <use x="147.103516" xlink:href="#DejaVuSans-45"/>
     <use x="210.287109" xlink:href="#DejaVuSans-31"/>
     <use x="273.910156" xlink:href="#DejaVuSans-20"/>
     <use x="305.697266" xlink:href="#DejaVuSans-66"/>
     <use x="340.902344" xlink:href="#DejaVuSans-6f"/>
     <use x="402.083984" xlink:href="#DejaVuSans-72"/>
     <use x="443.197266" xlink:href="#DejaVuSans-20"/>
     <use x="474.984375" xlink:href="#DejaVuSans-31"/>
     <use x="538.607422" xlink:href="#DejaVuSans-2e"/>
     <use x="570.394531" xlink:href="#DejaVuSans-30"/>
    </g>
   </g>
  </g>
 </g>
 <defs>
  <clipPath id="pe041ccdc95">
   <rect height="321.552" width="390.6" x="226.746875" y="22.318125"/>
  </clipPath>
 </defs>
</svg>
