<?xml version="1.0" encoding="utf-8" standalone="no"?>
<!DOCTYPE svg PUBLIC "-//W3C//DTD SVG 1.1//EN"
  "http://www.w3.org/Graphics/SVG/1.1/DTD/svg11.dtd">
<!-- Created with matplotlib (http://matplotlib.org/) -->
<svg height="381.426375pt" version="1.1" viewBox="0 0 630.909375 381.426375" width="630.909375pt" xmlns="http://www.w3.org/2000/svg" xmlns:xlink="http://www.w3.org/1999/xlink">
 <defs>
  <style type="text/css">
*{stroke-linecap:butt;stroke-linejoin:round;}
  </style>
 </defs>
 <g id="figure_1">
  <g id="patch_1">
   <path d="M -0 381.426375 
L 630.909375 381.426375 
L 630.909375 0 
L -0 0 
z
" style="fill:#ffffff;"/>
  </g>
  <g id="axes_1">
   <g id="patch_2">
    <path d="M 226.746875 343.870125 
L 617.346875 343.870125 
L 617.346875 22.318125 
L 226.746875 22.318125 
z
" style="fill:#ffffff;"/>
   </g>
   <g id="matplotlib.axis_1">
    <g id="xtick_1">
     <g id="line2d_1">
      <path clip-path="url(#p26a2d66ab6)" d="M 245.346875 343.870125 
L 245.346875 22.318125 
" style="fill:none;stroke:#b0b0b0;stroke-linecap:square;stroke-width:0.8;"/>
     </g>
     <g id="line2d_2">
      <defs>
       <path d="M 0 0 
L 0 3.5 
" id="m5c590b1a7e" style="stroke:#000000;stroke-width:0.8;"/>
      </defs>
      <g>
       <use style="stroke:#000000;stroke-width:0.8;" x="245.346875" xlink:href="#m5c590b1a7e" y="343.870125"/>
      </g>
     </g>
     <g id="text_1">
      <!-- 0 -->
      <defs>
       <path d="M 31.78125 66.40625 
Q 24.171875 66.40625 20.328125 58.90625 
Q 16.5 51.421875 16.5 36.375 
Q 16.5 21.390625 20.328125 13.890625 
Q 24.171875 6.390625 31.78125 6.390625 
Q 39.453125 6.390625 43.28125 13.890625 
Q 47.125 21.390625 47.125 36.375 
Q 47.125 51.421875 43.28125 58.90625 
Q 39.453125 66.40625 31.78125 66.40625 
z
M 31.78125 74.21875 
Q 44.046875 74.21875 50.515625 64.515625 
Q 56.984375 54.828125 56.984375 36.375 
Q 56.984375 17.96875 50.515625 8.265625 
Q 44.046875 -1.421875 31.78125 -1.421875 
Q 19.53125 -1.421875 13.0625 8.265625 
Q 6.59375 17.96875 6.59375 36.375 
Q 6.59375 54.828125 13.0625 64.515625 
Q 19.53125 74.21875 31.78125 74.21875 
z
" id="DejaVuSans-30"/>
      </defs>
      <g transform="translate(242.165625 358.468563)scale(0.1 -0.1)">
       <use xlink:href="#DejaVuSans-30"/>
      </g>
     </g>
    </g>
    <g id="xtick_2">
     <g id="line2d_3">
      <path clip-path="url(#p26a2d66ab6)" d="M 319.746875 343.870125 
L 319.746875 22.318125 
" style="fill:none;stroke:#b0b0b0;stroke-linecap:square;stroke-width:0.8;"/>
     </g>
     <g id="line2d_4">
      <g>
       <use style="stroke:#000000;stroke-width:0.8;" x="319.746875" xlink:href="#m5c590b1a7e" y="343.870125"/>
      </g>
     </g>
     <g id="text_2">
      <!-- 2 -->
      <defs>
       <path d="M 19.1875 8.296875 
L 53.609375 8.296875 
L 53.609375 0 
L 7.328125 0 
L 7.328125 8.296875 
Q 12.9375 14.109375 22.625 23.890625 
Q 32.328125 33.6875 34.8125 36.53125 
Q 39.546875 41.84375 41.421875 45.53125 
Q 43.3125 49.21875 43.3125 52.78125 
Q 43.3125 58.59375 39.234375 62.25 
Q 35.15625 65.921875 28.609375 65.921875 
Q 23.96875 65.921875 18.8125 64.3125 
Q 13.671875 62.703125 7.8125 59.421875 
L 7.8125 69.390625 
Q 13.765625 71.78125 18.9375 73 
Q 24.125 74.21875 28.421875 74.21875 
Q 39.75 74.21875 46.484375 68.546875 
Q 53.21875 62.890625 53.21875 53.421875 
Q 53.21875 48.921875 51.53125 44.890625 
Q 49.859375 40.875 45.40625 35.40625 
Q 44.1875 33.984375 37.640625 27.21875 
Q 31.109375 20.453125 19.1875 8.296875 
z
" id="DejaVuSans-32"/>
      </defs>
      <g transform="translate(316.565625 358.468563)scale(0.1 -0.1)">
       <use xlink:href="#DejaVuSans-32"/>
      </g>
     </g>
    </g>
    <g id="xtick_3">
     <g id="line2d_5">
      <path clip-path="url(#p26a2d66ab6)" d="M 394.146875 343.870125 
L 394.146875 22.318125 
" style="fill:none;stroke:#b0b0b0;stroke-linecap:square;stroke-width:0.8;"/>
     </g>
     <g id="line2d_6">
      <g>
       <use style="stroke:#000000;stroke-width:0.8;" x="394.146875" xlink:href="#m5c590b1a7e" y="343.870125"/>
      </g>
     </g>
     <g id="text_3">
      <!-- 4 -->
      <defs>
       <path d="M 37.796875 64.3125 
L 12.890625 25.390625 
L 37.796875 25.390625 
z
M 35.203125 72.90625 
L 47.609375 72.90625 
L 47.609375 25.390625 
L 58.015625 25.390625 
L 58.015625 17.1875 
L 47.609375 17.1875 
L 47.609375 0 
L 37.796875 0 
L 37.796875 17.1875 
L 4.890625 17.1875 
L 4.890625 26.703125 
z
" id="DejaVuSans-34"/>
      </defs>
      <g transform="translate(390.965625 358.468563)scale(0.1 -0.1)">
       <use xlink:href="#DejaVuSans-34"/>
      </g>
     </g>
    </g>
    <g id="xtick_4">
     <g id="line2d_7">
      <path clip-path="url(#p26a2d66ab6)" d="M 468.546875 343.870125 
L 468.546875 22.318125 
" style="fill:none;stroke:#b0b0b0;stroke-linecap:square;stroke-width:0.8;"/>
     </g>
     <g id="line2d_8">
      <g>
       <use style="stroke:#000000;stroke-width:0.8;" x="468.546875" xlink:href="#m5c590b1a7e" y="343.870125"/>
      </g>
     </g>
     <g id="text_4">
      <!-- 6 -->
      <defs>
       <path d="M 33.015625 40.375 
Q 26.375 40.375 22.484375 35.828125 
Q 18.609375 31.296875 18.609375 23.390625 
Q 18.609375 15.53125 22.484375 10.953125 
Q 26.375 6.390625 33.015625 6.390625 
Q 39.65625 6.390625 43.53125 10.953125 
Q 47.40625 15.53125 47.40625 23.390625 
Q 47.40625 31.296875 43.53125 35.828125 
Q 39.65625 40.375 33.015625 40.375 
z
M 52.59375 71.296875 
L 52.59375 62.3125 
Q 48.875 64.0625 45.09375 64.984375 
Q 41.3125 65.921875 37.59375 65.921875 
Q 27.828125 65.921875 22.671875 59.328125 
Q 17.53125 52.734375 16.796875 39.40625 
Q 19.671875 43.65625 24.015625 45.921875 
Q 28.375 48.1875 33.59375 48.1875 
Q 44.578125 48.1875 50.953125 41.515625 
Q 57.328125 34.859375 57.328125 23.390625 
Q 57.328125 12.15625 50.6875 5.359375 
Q 44.046875 -1.421875 33.015625 -1.421875 
Q 20.359375 -1.421875 13.671875 8.265625 
Q 6.984375 17.96875 6.984375 36.375 
Q 6.984375 53.65625 15.1875 63.9375 
Q 23.390625 74.21875 37.203125 74.21875 
Q 40.921875 74.21875 44.703125 73.484375 
Q 48.484375 72.75 52.59375 71.296875 
z
" id="DejaVuSans-36"/>
      </defs>
      <g transform="translate(465.365625 358.468563)scale(0.1 -0.1)">
       <use xlink:href="#DejaVuSans-36"/>
      </g>
     </g>
    </g>
    <g id="xtick_5">
     <g id="line2d_9">
      <path clip-path="url(#p26a2d66ab6)" d="M 542.946875 343.870125 
L 542.946875 22.318125 
" style="fill:none;stroke:#b0b0b0;stroke-linecap:square;stroke-width:0.8;"/>
     </g>
     <g id="line2d_10">
      <g>
       <use style="stroke:#000000;stroke-width:0.8;" x="542.946875" xlink:href="#m5c590b1a7e" y="343.870125"/>
      </g>
     </g>
     <g id="text_5">
      <!-- 8 -->
      <defs>
       <path d="M 31.78125 34.625 
Q 24.75 34.625 20.71875 30.859375 
Q 16.703125 27.09375 16.703125 20.515625 
Q 16.703125 13.921875 20.71875 10.15625 
Q 24.75 6.390625 31.78125 6.390625 
Q 38.8125 6.390625 42.859375 10.171875 
Q 46.921875 13.96875 46.921875 20.515625 
Q 46.921875 27.09375 42.890625 30.859375 
Q 38.875 34.625 31.78125 34.625 
z
M 21.921875 38.8125 
Q 15.578125 40.375 12.03125 44.71875 
Q 8.5 49.078125 8.5 55.328125 
Q 8.5 64.0625 14.71875 69.140625 
Q 20.953125 74.21875 31.78125 74.21875 
Q 42.671875 74.21875 48.875 69.140625 
Q 55.078125 64.0625 55.078125 55.328125 
Q 55.078125 49.078125 51.53125 44.71875 
Q 48 40.375 41.703125 38.8125 
Q 48.828125 37.15625 52.796875 32.3125 
Q 56.78125 27.484375 56.78125 20.515625 
Q 56.78125 9.90625 50.3125 4.234375 
Q 43.84375 -1.421875 31.78125 -1.421875 
Q 19.734375 -1.421875 13.25 4.234375 
Q 6.78125 9.90625 6.78125 20.515625 
Q 6.78125 27.484375 10.78125 32.3125 
Q 14.796875 37.15625 21.921875 38.8125 
z
M 18.3125 54.390625 
Q 18.3125 48.734375 21.84375 45.5625 
Q 25.390625 42.390625 31.78125 42.390625 
Q 38.140625 42.390625 41.71875 45.5625 
Q 45.3125 48.734375 45.3125 54.390625 
Q 45.3125 60.0625 41.71875 63.234375 
Q 38.140625 66.40625 31.78125 66.40625 
Q 25.390625 66.40625 21.84375 63.234375 
Q 18.3125 60.0625 18.3125 54.390625 
z
" id="DejaVuSans-38"/>
      </defs>
      <g transform="translate(539.765625 358.468563)scale(0.1 -0.1)">
       <use xlink:href="#DejaVuSans-38"/>
      </g>
     </g>
    </g>
    <g id="xtick_6">
     <g id="line2d_11">
      <path clip-path="url(#p26a2d66ab6)" d="M 617.346875 343.870125 
L 617.346875 22.318125 
" style="fill:none;stroke:#b0b0b0;stroke-linecap:square;stroke-width:0.8;"/>
     </g>
     <g id="line2d_12">
      <g>
       <use style="stroke:#000000;stroke-width:0.8;" x="617.346875" xlink:href="#m5c590b1a7e" y="343.870125"/>
      </g>
     </g>
     <g id="text_6">
      <!-- 10 -->
      <defs>
       <path d="M 12.40625 8.296875 
L 28.515625 8.296875 
L 28.515625 63.921875 
L 10.984375 60.40625 
L 10.984375 69.390625 
L 28.421875 72.90625 
L 38.28125 72.90625 
L 38.28125 8.296875 
L 54.390625 8.296875 
L 54.390625 0 
L 12.40625 0 
z
" id="DejaVuSans-31"/>
      </defs>
      <g transform="translate(610.984375 358.468563)scale(0.1 -0.1)">
       <use xlink:href="#DejaVuSans-31"/>
       <use x="63.623047" xlink:href="#DejaVuSans-30"/>
      </g>
     </g>
    </g>
    <g id="text_7">
     <!-- OE2 (TO) -->
     <defs>
      <path d="M 39.40625 66.21875 
Q 28.65625 66.21875 22.328125 58.203125 
Q 16.015625 50.203125 16.015625 36.375 
Q 16.015625 22.609375 22.328125 14.59375 
Q 28.65625 6.59375 39.40625 6.59375 
Q 50.140625 6.59375 56.421875 14.59375 
Q 62.703125 22.609375 62.703125 36.375 
Q 62.703125 50.203125 56.421875 58.203125 
Q 50.140625 66.21875 39.40625 66.21875 
z
M 39.40625 74.21875 
Q 54.734375 74.21875 63.90625 63.9375 
Q 73.09375 53.65625 73.09375 36.375 
Q 73.09375 19.140625 63.90625 8.859375 
Q 54.734375 -1.421875 39.40625 -1.421875 
Q 24.03125 -1.421875 14.8125 8.828125 
Q 5.609375 19.09375 5.609375 36.375 
Q 5.609375 53.65625 14.8125 63.9375 
Q 24.03125 74.21875 39.40625 74.21875 
z
" id="DejaVuSans-4f"/>
      <path d="M 9.8125 72.90625 
L 55.90625 72.90625 
L 55.90625 64.59375 
L 19.671875 64.59375 
L 19.671875 43.015625 
L 54.390625 43.015625 
L 54.390625 34.71875 
L 19.671875 34.71875 
L 19.671875 8.296875 
L 56.78125 8.296875 
L 56.78125 0 
L 9.8125 0 
z
" id="DejaVuSans-45"/>
      <path id="DejaVuSans-20"/>
      <path d="M 31 75.875 
Q 24.46875 64.65625 21.28125 53.65625 
Q 18.109375 42.671875 18.109375 31.390625 
Q 18.109375 20.125 21.3125 9.0625 
Q 24.515625 -2 31 -13.1875 
L 23.1875 -13.1875 
Q 15.875 -1.703125 12.234375 9.375 
Q 8.59375 20.453125 8.59375 31.390625 
Q 8.59375 42.28125 12.203125 53.3125 
Q 15.828125 64.359375 23.1875 75.875 
z
" id="DejaVuSans-28"/>
      <path d="M -0.296875 72.90625 
L 61.375 72.90625 
L 61.375 64.59375 
L 35.5 64.59375 
L 35.5 0 
L 25.59375 0 
L 25.59375 64.59375 
L -0.296875 64.59375 
z
" id="DejaVuSans-54"/>
      <path d="M 8.015625 75.875 
L 15.828125 75.875 
Q 23.140625 64.359375 26.78125 53.3125 
Q 30.421875 42.28125 30.421875 31.390625 
Q 30.421875 20.453125 26.78125 9.375 
Q 23.140625 -1.703125 15.828125 -13.1875 
L 8.015625 -13.1875 
Q 14.5 -2 17.703125 9.0625 
Q 20.90625 20.125 20.90625 31.390625 
Q 20.90625 42.671875 17.703125 53.65625 
Q 14.5 64.65625 8.015625 75.875 
z
" id="DejaVuSans-29"/>
     </defs>
     <g transform="translate(399.289844 372.146687)scale(0.1 -0.1)">
      <use xlink:href="#DejaVuSans-4f"/>
      <use x="78.710938" xlink:href="#DejaVuSans-45"/>
      <use x="141.894531" xlink:href="#DejaVuSans-32"/>
      <use x="205.517578" xlink:href="#DejaVuSans-20"/>
      <use x="237.304688" xlink:href="#DejaVuSans-28"/>
      <use x="276.318359" xlink:href="#DejaVuSans-54"/>
      <use x="337.402344" xlink:href="#DejaVuSans-4f"/>
      <use x="416.113281" xlink:href="#DejaVuSans-29"/>
     </g>
    </g>
   </g>
   <g id="matplotlib.axis_2">
    <g id="ytick_1">
     <g id="line2d_13">
      <path clip-path="url(#p26a2d66ab6)" d="M 226.746875 320.656478 
L 617.346875 320.656478 
" style="fill:none;stroke:#b0b0b0;stroke-linecap:square;stroke-width:0.8;"/>
     </g>
     <g id="line2d_14">
      <defs>
       <path d="M 0 0 
L -3.5 0 
" id="m3001ee5c2b" style="stroke:#000000;stroke-width:0.8;"/>
      </defs>
      <g>
       <use style="stroke:#000000;stroke-width:0.8;" x="226.746875" xlink:href="#m3001ee5c2b" y="320.656478"/>
      </g>
     </g>
     <g id="text_8">
      <!-- schreiber2018/ismir2018 -->
      <defs>
       <path d="M 44.28125 53.078125 
L 44.28125 44.578125 
Q 40.484375 46.53125 36.375 47.5 
Q 32.28125 48.484375 27.875 48.484375 
Q 21.1875 48.484375 17.84375 46.4375 
Q 14.5 44.390625 14.5 40.28125 
Q 14.5 37.15625 16.890625 35.375 
Q 19.28125 33.59375 26.515625 31.984375 
L 29.59375 31.296875 
Q 39.15625 29.25 43.1875 25.515625 
Q 47.21875 21.78125 47.21875 15.09375 
Q 47.21875 7.46875 41.1875 3.015625 
Q 35.15625 -1.421875 24.609375 -1.421875 
Q 20.21875 -1.421875 15.453125 -0.5625 
Q 10.6875 0.296875 5.421875 2 
L 5.421875 11.28125 
Q 10.40625 8.6875 15.234375 7.390625 
Q 20.0625 6.109375 24.8125 6.109375 
Q 31.15625 6.109375 34.5625 8.28125 
Q 37.984375 10.453125 37.984375 14.40625 
Q 37.984375 18.0625 35.515625 20.015625 
Q 33.0625 21.96875 24.703125 23.78125 
L 21.578125 24.515625 
Q 13.234375 26.265625 9.515625 29.90625 
Q 5.8125 33.546875 5.8125 39.890625 
Q 5.8125 47.609375 11.28125 51.796875 
Q 16.75 56 26.8125 56 
Q 31.78125 56 36.171875 55.265625 
Q 40.578125 54.546875 44.28125 53.078125 
z
" id="DejaVuSans-73"/>
       <path d="M 48.78125 52.59375 
L 48.78125 44.1875 
Q 44.96875 46.296875 41.140625 47.34375 
Q 37.3125 48.390625 33.40625 48.390625 
Q 24.65625 48.390625 19.8125 42.84375 
Q 14.984375 37.3125 14.984375 27.296875 
Q 14.984375 17.28125 19.8125 11.734375 
Q 24.65625 6.203125 33.40625 6.203125 
Q 37.3125 6.203125 41.140625 7.25 
Q 44.96875 8.296875 48.78125 10.40625 
L 48.78125 2.09375 
Q 45.015625 0.34375 40.984375 -0.53125 
Q 36.96875 -1.421875 32.421875 -1.421875 
Q 20.0625 -1.421875 12.78125 6.34375 
Q 5.515625 14.109375 5.515625 27.296875 
Q 5.515625 40.671875 12.859375 48.328125 
Q 20.21875 56 33.015625 56 
Q 37.15625 56 41.109375 55.140625 
Q 45.0625 54.296875 48.78125 52.59375 
z
" id="DejaVuSans-63"/>
       <path d="M 54.890625 33.015625 
L 54.890625 0 
L 45.90625 0 
L 45.90625 32.71875 
Q 45.90625 40.484375 42.875 44.328125 
Q 39.84375 48.1875 33.796875 48.1875 
Q 26.515625 48.1875 22.3125 43.546875 
Q 18.109375 38.921875 18.109375 30.90625 
L 18.109375 0 
L 9.078125 0 
L 9.078125 75.984375 
L 18.109375 75.984375 
L 18.109375 46.1875 
Q 21.34375 51.125 25.703125 53.5625 
Q 30.078125 56 35.796875 56 
Q 45.21875 56 50.046875 50.171875 
Q 54.890625 44.34375 54.890625 33.015625 
z
" id="DejaVuSans-68"/>
       <path d="M 41.109375 46.296875 
Q 39.59375 47.171875 37.8125 47.578125 
Q 36.03125 48 33.890625 48 
Q 26.265625 48 22.1875 43.046875 
Q 18.109375 38.09375 18.109375 28.8125 
L 18.109375 0 
L 9.078125 0 
L 9.078125 54.6875 
L 18.109375 54.6875 
L 18.109375 46.1875 
Q 20.953125 51.171875 25.484375 53.578125 
Q 30.03125 56 36.53125 56 
Q 37.453125 56 38.578125 55.875 
Q 39.703125 55.765625 41.0625 55.515625 
z
" id="DejaVuSans-72"/>
       <path d="M 56.203125 29.59375 
L 56.203125 25.203125 
L 14.890625 25.203125 
Q 15.484375 15.921875 20.484375 11.0625 
Q 25.484375 6.203125 34.421875 6.203125 
Q 39.59375 6.203125 44.453125 7.46875 
Q 49.3125 8.734375 54.109375 11.28125 
L 54.109375 2.78125 
Q 49.265625 0.734375 44.1875 -0.34375 
Q 39.109375 -1.421875 33.890625 -1.421875 
Q 20.796875 -1.421875 13.15625 6.1875 
Q 5.515625 13.8125 5.515625 26.8125 
Q 5.515625 40.234375 12.765625 48.109375 
Q 20.015625 56 32.328125 56 
Q 43.359375 56 49.78125 48.890625 
Q 56.203125 41.796875 56.203125 29.59375 
z
M 47.21875 32.234375 
Q 47.125 39.59375 43.09375 43.984375 
Q 39.0625 48.390625 32.421875 48.390625 
Q 24.90625 48.390625 20.390625 44.140625 
Q 15.875 39.890625 15.1875 32.171875 
z
" id="DejaVuSans-65"/>
       <path d="M 9.421875 54.6875 
L 18.40625 54.6875 
L 18.40625 0 
L 9.421875 0 
z
M 9.421875 75.984375 
L 18.40625 75.984375 
L 18.40625 64.59375 
L 9.421875 64.59375 
z
" id="DejaVuSans-69"/>
       <path d="M 48.6875 27.296875 
Q 48.6875 37.203125 44.609375 42.84375 
Q 40.53125 48.484375 33.40625 48.484375 
Q 26.265625 48.484375 22.1875 42.84375 
Q 18.109375 37.203125 18.109375 27.296875 
Q 18.109375 17.390625 22.1875 11.75 
Q 26.265625 6.109375 33.40625 6.109375 
Q 40.53125 6.109375 44.609375 11.75 
Q 48.6875 17.390625 48.6875 27.296875 
z
M 18.109375 46.390625 
Q 20.953125 51.265625 25.265625 53.625 
Q 29.59375 56 35.59375 56 
Q 45.5625 56 51.78125 48.09375 
Q 58.015625 40.1875 58.015625 27.296875 
Q 58.015625 14.40625 51.78125 6.484375 
Q 45.5625 -1.421875 35.59375 -1.421875 
Q 29.59375 -1.421875 25.265625 0.953125 
Q 20.953125 3.328125 18.109375 8.203125 
L 18.109375 0 
L 9.078125 0 
L 9.078125 75.984375 
L 18.109375 75.984375 
z
" id="DejaVuSans-62"/>
       <path d="M 25.390625 72.90625 
L 33.6875 72.90625 
L 8.296875 -9.28125 
L 0 -9.28125 
z
" id="DejaVuSans-2f"/>
       <path d="M 52 44.1875 
Q 55.375 50.25 60.0625 53.125 
Q 64.75 56 71.09375 56 
Q 79.640625 56 84.28125 50.015625 
Q 88.921875 44.046875 88.921875 33.015625 
L 88.921875 0 
L 79.890625 0 
L 79.890625 32.71875 
Q 79.890625 40.578125 77.09375 44.375 
Q 74.3125 48.1875 68.609375 48.1875 
Q 61.625 48.1875 57.5625 43.546875 
Q 53.515625 38.921875 53.515625 30.90625 
L 53.515625 0 
L 44.484375 0 
L 44.484375 32.71875 
Q 44.484375 40.625 41.703125 44.40625 
Q 38.921875 48.1875 33.109375 48.1875 
Q 26.21875 48.1875 22.15625 43.53125 
Q 18.109375 38.875 18.109375 30.90625 
L 18.109375 0 
L 9.078125 0 
L 9.078125 54.6875 
L 18.109375 54.6875 
L 18.109375 46.1875 
Q 21.1875 51.21875 25.484375 53.609375 
Q 29.78125 56 35.6875 56 
Q 41.65625 56 45.828125 52.96875 
Q 50 49.953125 52 44.1875 
z
" id="DejaVuSans-6d"/>
      </defs>
      <g transform="translate(94.164062 324.455697)scale(0.1 -0.1)">
       <use xlink:href="#DejaVuSans-73"/>
       <use x="52.099609" xlink:href="#DejaVuSans-63"/>
       <use x="107.080078" xlink:href="#DejaVuSans-68"/>
       <use x="170.458984" xlink:href="#DejaVuSans-72"/>
       <use x="211.541016" xlink:href="#DejaVuSans-65"/>
       <use x="273.064453" xlink:href="#DejaVuSans-69"/>
       <use x="300.847656" xlink:href="#DejaVuSans-62"/>
       <use x="364.324219" xlink:href="#DejaVuSans-65"/>
       <use x="425.847656" xlink:href="#DejaVuSans-72"/>
       <use x="466.960938" xlink:href="#DejaVuSans-32"/>
       <use x="530.583984" xlink:href="#DejaVuSans-30"/>
       <use x="594.207031" xlink:href="#DejaVuSans-31"/>
       <use x="657.830078" xlink:href="#DejaVuSans-38"/>
       <use x="721.453125" xlink:href="#DejaVuSans-2f"/>
       <use x="755.144531" xlink:href="#DejaVuSans-69"/>
       <use x="782.927734" xlink:href="#DejaVuSans-73"/>
       <use x="835.027344" xlink:href="#DejaVuSans-6d"/>
       <use x="932.439453" xlink:href="#DejaVuSans-69"/>
       <use x="960.222656" xlink:href="#DejaVuSans-72"/>
       <use x="1001.335938" xlink:href="#DejaVuSans-32"/>
       <use x="1064.958984" xlink:href="#DejaVuSans-30"/>
       <use x="1128.582031" xlink:href="#DejaVuSans-31"/>
       <use x="1192.205078" xlink:href="#DejaVuSans-38"/>
      </g>
     </g>
    </g>
    <g id="ytick_2">
     <g id="line2d_15">
      <path clip-path="url(#p26a2d66ab6)" d="M 226.746875 286.26589 
L 617.346875 286.26589 
" style="fill:none;stroke:#b0b0b0;stroke-linecap:square;stroke-width:0.8;"/>
     </g>
     <g id="line2d_16">
      <g>
       <use style="stroke:#000000;stroke-width:0.8;" x="226.746875" xlink:href="#m3001ee5c2b" y="286.26589"/>
      </g>
     </g>
     <g id="text_9">
      <!-- schreiber2018/fcn -->
      <defs>
       <path d="M 37.109375 75.984375 
L 37.109375 68.5 
L 28.515625 68.5 
Q 23.6875 68.5 21.796875 66.546875 
Q 19.921875 64.59375 19.921875 59.515625 
L 19.921875 54.6875 
L 34.71875 54.6875 
L 34.71875 47.703125 
L 19.921875 47.703125 
L 19.921875 0 
L 10.890625 0 
L 10.890625 47.703125 
L 2.296875 47.703125 
L 2.296875 54.6875 
L 10.890625 54.6875 
L 10.890625 58.5 
Q 10.890625 67.625 15.140625 71.796875 
Q 19.390625 75.984375 28.609375 75.984375 
z
" id="DejaVuSans-66"/>
       <path d="M 54.890625 33.015625 
L 54.890625 0 
L 45.90625 0 
L 45.90625 32.71875 
Q 45.90625 40.484375 42.875 44.328125 
Q 39.84375 48.1875 33.796875 48.1875 
Q 26.515625 48.1875 22.3125 43.546875 
Q 18.109375 38.921875 18.109375 30.90625 
L 18.109375 0 
L 9.078125 0 
L 9.078125 54.6875 
L 18.109375 54.6875 
L 18.109375 46.1875 
Q 21.34375 51.125 25.703125 53.5625 
Q 30.078125 56 35.796875 56 
Q 45.21875 56 50.046875 50.171875 
Q 54.890625 44.34375 54.890625 33.015625 
z
" id="DejaVuSans-6e"/>
      </defs>
      <g transform="translate(128.875 290.065108)scale(0.1 -0.1)">
       <use xlink:href="#DejaVuSans-73"/>
       <use x="52.099609" xlink:href="#DejaVuSans-63"/>
       <use x="107.080078" xlink:href="#DejaVuSans-68"/>
       <use x="170.458984" xlink:href="#DejaVuSans-72"/>
       <use x="211.541016" xlink:href="#DejaVuSans-65"/>
       <use x="273.064453" xlink:href="#DejaVuSans-69"/>
       <use x="300.847656" xlink:href="#DejaVuSans-62"/>
       <use x="364.324219" xlink:href="#DejaVuSans-65"/>
       <use x="425.847656" xlink:href="#DejaVuSans-72"/>
       <use x="466.960938" xlink:href="#DejaVuSans-32"/>
       <use x="530.583984" xlink:href="#DejaVuSans-30"/>
       <use x="594.207031" xlink:href="#DejaVuSans-31"/>
       <use x="657.830078" xlink:href="#DejaVuSans-38"/>
       <use x="721.453125" xlink:href="#DejaVuSans-2f"/>
       <use x="755.144531" xlink:href="#DejaVuSans-66"/>
       <use x="790.349609" xlink:href="#DejaVuSans-63"/>
       <use x="845.330078" xlink:href="#DejaVuSans-6e"/>
      </g>
     </g>
    </g>
    <g id="ytick_3">
     <g id="line2d_17">
      <path clip-path="url(#p26a2d66ab6)" d="M 226.746875 251.875301 
L 617.346875 251.875301 
" style="fill:none;stroke:#b0b0b0;stroke-linecap:square;stroke-width:0.8;"/>
     </g>
     <g id="line2d_18">
      <g>
       <use style="stroke:#000000;stroke-width:0.8;" x="226.746875" xlink:href="#m3001ee5c2b" y="251.875301"/>
      </g>
     </g>
     <g id="text_10">
      <!-- schreiber2018/cnn -->
      <g transform="translate(126.057812 255.67452)scale(0.1 -0.1)">
       <use xlink:href="#DejaVuSans-73"/>
       <use x="52.099609" xlink:href="#DejaVuSans-63"/>
       <use x="107.080078" xlink:href="#DejaVuSans-68"/>
       <use x="170.458984" xlink:href="#DejaVuSans-72"/>
       <use x="211.541016" xlink:href="#DejaVuSans-65"/>
       <use x="273.064453" xlink:href="#DejaVuSans-69"/>
       <use x="300.847656" xlink:href="#DejaVuSans-62"/>
       <use x="364.324219" xlink:href="#DejaVuSans-65"/>
       <use x="425.847656" xlink:href="#DejaVuSans-72"/>
       <use x="466.960938" xlink:href="#DejaVuSans-32"/>
       <use x="530.583984" xlink:href="#DejaVuSans-30"/>
       <use x="594.207031" xlink:href="#DejaVuSans-31"/>
       <use x="657.830078" xlink:href="#DejaVuSans-38"/>
       <use x="721.453125" xlink:href="#DejaVuSans-2f"/>
       <use x="755.144531" xlink:href="#DejaVuSans-63"/>
       <use x="810.125" xlink:href="#DejaVuSans-6e"/>
       <use x="873.503906" xlink:href="#DejaVuSans-6e"/>
      </g>
     </g>
    </g>
    <g id="ytick_4">
     <g id="line2d_19">
      <path clip-path="url(#p26a2d66ab6)" d="M 226.746875 217.484713 
L 617.346875 217.484713 
" style="fill:none;stroke:#b0b0b0;stroke-linecap:square;stroke-width:0.8;"/>
     </g>
     <g id="line2d_20">
      <g>
       <use style="stroke:#000000;stroke-width:0.8;" x="226.746875" xlink:href="#m3001ee5c2b" y="217.484713"/>
      </g>
     </g>
     <g id="text_11">
      <!-- schreiber2017/mirex2017 -->
      <defs>
       <path d="M 8.203125 72.90625 
L 55.078125 72.90625 
L 55.078125 68.703125 
L 28.609375 0 
L 18.3125 0 
L 43.21875 64.59375 
L 8.203125 64.59375 
z
" id="DejaVuSans-37"/>
       <path d="M 54.890625 54.6875 
L 35.109375 28.078125 
L 55.90625 0 
L 45.3125 0 
L 29.390625 21.484375 
L 13.484375 0 
L 2.875 0 
L 24.125 28.609375 
L 4.6875 54.6875 
L 15.28125 54.6875 
L 29.78125 35.203125 
L 44.28125 54.6875 
z
" id="DejaVuSans-78"/>
      </defs>
      <g transform="translate(90.084375 221.283932)scale(0.1 -0.1)">
       <use xlink:href="#DejaVuSans-73"/>
       <use x="52.099609" xlink:href="#DejaVuSans-63"/>
       <use x="107.080078" xlink:href="#DejaVuSans-68"/>
       <use x="170.458984" xlink:href="#DejaVuSans-72"/>
       <use x="211.541016" xlink:href="#DejaVuSans-65"/>
       <use x="273.064453" xlink:href="#DejaVuSans-69"/>
       <use x="300.847656" xlink:href="#DejaVuSans-62"/>
       <use x="364.324219" xlink:href="#DejaVuSans-65"/>
       <use x="425.847656" xlink:href="#DejaVuSans-72"/>
       <use x="466.960938" xlink:href="#DejaVuSans-32"/>
       <use x="530.583984" xlink:href="#DejaVuSans-30"/>
       <use x="594.207031" xlink:href="#DejaVuSans-31"/>
       <use x="657.830078" xlink:href="#DejaVuSans-37"/>
       <use x="721.453125" xlink:href="#DejaVuSans-2f"/>
       <use x="755.144531" xlink:href="#DejaVuSans-6d"/>
       <use x="852.556641" xlink:href="#DejaVuSans-69"/>
       <use x="880.339844" xlink:href="#DejaVuSans-72"/>
       <use x="921.421875" xlink:href="#DejaVuSans-65"/>
       <use x="982.929688" xlink:href="#DejaVuSans-78"/>
       <use x="1042.109375" xlink:href="#DejaVuSans-32"/>
       <use x="1105.732422" xlink:href="#DejaVuSans-30"/>
       <use x="1169.355469" xlink:href="#DejaVuSans-31"/>
       <use x="1232.978516" xlink:href="#DejaVuSans-37"/>
      </g>
     </g>
    </g>
    <g id="ytick_5">
     <g id="line2d_21">
      <path clip-path="url(#p26a2d66ab6)" d="M 226.746875 183.094125 
L 617.346875 183.094125 
" style="fill:none;stroke:#b0b0b0;stroke-linecap:square;stroke-width:0.8;"/>
     </g>
     <g id="line2d_22">
      <g>
       <use style="stroke:#000000;stroke-width:0.8;" x="226.746875" xlink:href="#m3001ee5c2b" y="183.094125"/>
      </g>
     </g>
     <g id="text_12">
      <!-- schreiber2017/ismir2017 -->
      <g transform="translate(94.164062 186.893344)scale(0.1 -0.1)">
       <use xlink:href="#DejaVuSans-73"/>
       <use x="52.099609" xlink:href="#DejaVuSans-63"/>
       <use x="107.080078" xlink:href="#DejaVuSans-68"/>
       <use x="170.458984" xlink:href="#DejaVuSans-72"/>
       <use x="211.541016" xlink:href="#DejaVuSans-65"/>
       <use x="273.064453" xlink:href="#DejaVuSans-69"/>
       <use x="300.847656" xlink:href="#DejaVuSans-62"/>
       <use x="364.324219" xlink:href="#DejaVuSans-65"/>
       <use x="425.847656" xlink:href="#DejaVuSans-72"/>
       <use x="466.960938" xlink:href="#DejaVuSans-32"/>
       <use x="530.583984" xlink:href="#DejaVuSans-30"/>
       <use x="594.207031" xlink:href="#DejaVuSans-31"/>
       <use x="657.830078" xlink:href="#DejaVuSans-37"/>
       <use x="721.453125" xlink:href="#DejaVuSans-2f"/>
       <use x="755.144531" xlink:href="#DejaVuSans-69"/>
       <use x="782.927734" xlink:href="#DejaVuSans-73"/>
       <use x="835.027344" xlink:href="#DejaVuSans-6d"/>
       <use x="932.439453" xlink:href="#DejaVuSans-69"/>
       <use x="960.222656" xlink:href="#DejaVuSans-72"/>
       <use x="1001.335938" xlink:href="#DejaVuSans-32"/>
       <use x="1064.958984" xlink:href="#DejaVuSans-30"/>
       <use x="1128.582031" xlink:href="#DejaVuSans-31"/>
       <use x="1192.205078" xlink:href="#DejaVuSans-37"/>
      </g>
     </g>
    </g>
    <g id="ytick_6">
     <g id="line2d_23">
      <path clip-path="url(#p26a2d66ab6)" d="M 226.746875 148.703537 
L 617.346875 148.703537 
" style="fill:none;stroke:#b0b0b0;stroke-linecap:square;stroke-width:0.8;"/>
     </g>
     <g id="line2d_24">
      <g>
       <use style="stroke:#000000;stroke-width:0.8;" x="226.746875" xlink:href="#m3001ee5c2b" y="148.703537"/>
      </g>
     </g>
     <g id="text_13">
      <!-- schreiber2014/default -->
      <defs>
       <path d="M 45.40625 46.390625 
L 45.40625 75.984375 
L 54.390625 75.984375 
L 54.390625 0 
L 45.40625 0 
L 45.40625 8.203125 
Q 42.578125 3.328125 38.25 0.953125 
Q 33.9375 -1.421875 27.875 -1.421875 
Q 17.96875 -1.421875 11.734375 6.484375 
Q 5.515625 14.40625 5.515625 27.296875 
Q 5.515625 40.1875 11.734375 48.09375 
Q 17.96875 56 27.875 56 
Q 33.9375 56 38.25 53.625 
Q 42.578125 51.265625 45.40625 46.390625 
z
M 14.796875 27.296875 
Q 14.796875 17.390625 18.875 11.75 
Q 22.953125 6.109375 30.078125 6.109375 
Q 37.203125 6.109375 41.296875 11.75 
Q 45.40625 17.390625 45.40625 27.296875 
Q 45.40625 37.203125 41.296875 42.84375 
Q 37.203125 48.484375 30.078125 48.484375 
Q 22.953125 48.484375 18.875 42.84375 
Q 14.796875 37.203125 14.796875 27.296875 
z
" id="DejaVuSans-64"/>
       <path d="M 34.28125 27.484375 
Q 23.390625 27.484375 19.1875 25 
Q 14.984375 22.515625 14.984375 16.5 
Q 14.984375 11.71875 18.140625 8.90625 
Q 21.296875 6.109375 26.703125 6.109375 
Q 34.1875 6.109375 38.703125 11.40625 
Q 43.21875 16.703125 43.21875 25.484375 
L 43.21875 27.484375 
z
M 52.203125 31.203125 
L 52.203125 0 
L 43.21875 0 
L 43.21875 8.296875 
Q 40.140625 3.328125 35.546875 0.953125 
Q 30.953125 -1.421875 24.3125 -1.421875 
Q 15.921875 -1.421875 10.953125 3.296875 
Q 6 8.015625 6 15.921875 
Q 6 25.140625 12.171875 29.828125 
Q 18.359375 34.515625 30.609375 34.515625 
L 43.21875 34.515625 
L 43.21875 35.40625 
Q 43.21875 41.609375 39.140625 45 
Q 35.0625 48.390625 27.6875 48.390625 
Q 23 48.390625 18.546875 47.265625 
Q 14.109375 46.140625 10.015625 43.890625 
L 10.015625 52.203125 
Q 14.9375 54.109375 19.578125 55.046875 
Q 24.21875 56 28.609375 56 
Q 40.484375 56 46.34375 49.84375 
Q 52.203125 43.703125 52.203125 31.203125 
z
" id="DejaVuSans-61"/>
       <path d="M 8.5 21.578125 
L 8.5 54.6875 
L 17.484375 54.6875 
L 17.484375 21.921875 
Q 17.484375 14.15625 20.5 10.265625 
Q 23.53125 6.390625 29.59375 6.390625 
Q 36.859375 6.390625 41.078125 11.03125 
Q 45.3125 15.671875 45.3125 23.6875 
L 45.3125 54.6875 
L 54.296875 54.6875 
L 54.296875 0 
L 45.3125 0 
L 45.3125 8.40625 
Q 42.046875 3.421875 37.71875 1 
Q 33.40625 -1.421875 27.6875 -1.421875 
Q 18.265625 -1.421875 13.375 4.4375 
Q 8.5 10.296875 8.5 21.578125 
z
M 31.109375 56 
z
" id="DejaVuSans-75"/>
       <path d="M 9.421875 75.984375 
L 18.40625 75.984375 
L 18.40625 0 
L 9.421875 0 
z
" id="DejaVuSans-6c"/>
       <path d="M 18.3125 70.21875 
L 18.3125 54.6875 
L 36.8125 54.6875 
L 36.8125 47.703125 
L 18.3125 47.703125 
L 18.3125 18.015625 
Q 18.3125 11.328125 20.140625 9.421875 
Q 21.96875 7.515625 27.59375 7.515625 
L 36.8125 7.515625 
L 36.8125 0 
L 27.59375 0 
Q 17.1875 0 13.234375 3.875 
Q 9.28125 7.765625 9.28125 18.015625 
L 9.28125 47.703125 
L 2.6875 47.703125 
L 2.6875 54.6875 
L 9.28125 54.6875 
L 9.28125 70.21875 
z
" id="DejaVuSans-74"/>
      </defs>
      <g transform="translate(109.045312 152.502756)scale(0.1 -0.1)">
       <use xlink:href="#DejaVuSans-73"/>
       <use x="52.099609" xlink:href="#DejaVuSans-63"/>
       <use x="107.080078" xlink:href="#DejaVuSans-68"/>
       <use x="170.458984" xlink:href="#DejaVuSans-72"/>
       <use x="211.541016" xlink:href="#DejaVuSans-65"/>
       <use x="273.064453" xlink:href="#DejaVuSans-69"/>
       <use x="300.847656" xlink:href="#DejaVuSans-62"/>
       <use x="364.324219" xlink:href="#DejaVuSans-65"/>
       <use x="425.847656" xlink:href="#DejaVuSans-72"/>
       <use x="466.960938" xlink:href="#DejaVuSans-32"/>
       <use x="530.583984" xlink:href="#DejaVuSans-30"/>
       <use x="594.207031" xlink:href="#DejaVuSans-31"/>
       <use x="657.830078" xlink:href="#DejaVuSans-34"/>
       <use x="721.453125" xlink:href="#DejaVuSans-2f"/>
       <use x="755.144531" xlink:href="#DejaVuSans-64"/>
       <use x="818.621094" xlink:href="#DejaVuSans-65"/>
       <use x="880.144531" xlink:href="#DejaVuSans-66"/>
       <use x="915.349609" xlink:href="#DejaVuSans-61"/>
       <use x="976.628906" xlink:href="#DejaVuSans-75"/>
       <use x="1040.007812" xlink:href="#DejaVuSans-6c"/>
       <use x="1067.791016" xlink:href="#DejaVuSans-74"/>
      </g>
     </g>
    </g>
    <g id="ytick_7">
     <g id="line2d_25">
      <path clip-path="url(#p26a2d66ab6)" d="M 226.746875 114.312949 
L 617.346875 114.312949 
" style="fill:none;stroke:#b0b0b0;stroke-linecap:square;stroke-width:0.8;"/>
     </g>
     <g id="line2d_26">
      <g>
       <use style="stroke:#000000;stroke-width:0.8;" x="226.746875" xlink:href="#m3001ee5c2b" y="114.312949"/>
      </g>
     </g>
     <g id="text_14">
      <!-- percival2014/stem -->
      <defs>
       <path d="M 18.109375 8.203125 
L 18.109375 -20.796875 
L 9.078125 -20.796875 
L 9.078125 54.6875 
L 18.109375 54.6875 
L 18.109375 46.390625 
Q 20.953125 51.265625 25.265625 53.625 
Q 29.59375 56 35.59375 56 
Q 45.5625 56 51.78125 48.09375 
Q 58.015625 40.1875 58.015625 27.296875 
Q 58.015625 14.40625 51.78125 6.484375 
Q 45.5625 -1.421875 35.59375 -1.421875 
Q 29.59375 -1.421875 25.265625 0.953125 
Q 20.953125 3.328125 18.109375 8.203125 
z
M 48.6875 27.296875 
Q 48.6875 37.203125 44.609375 42.84375 
Q 40.53125 48.484375 33.40625 48.484375 
Q 26.265625 48.484375 22.1875 42.84375 
Q 18.109375 37.203125 18.109375 27.296875 
Q 18.109375 17.390625 22.1875 11.75 
Q 26.265625 6.109375 33.40625 6.109375 
Q 40.53125 6.109375 44.609375 11.75 
Q 48.6875 17.390625 48.6875 27.296875 
z
" id="DejaVuSans-70"/>
       <path d="M 2.984375 54.6875 
L 12.5 54.6875 
L 29.59375 8.796875 
L 46.6875 54.6875 
L 56.203125 54.6875 
L 35.6875 0 
L 23.484375 0 
z
" id="DejaVuSans-76"/>
      </defs>
      <g transform="translate(126.19375 118.112167)scale(0.1 -0.1)">
       <use xlink:href="#DejaVuSans-70"/>
       <use x="63.476562" xlink:href="#DejaVuSans-65"/>
       <use x="125" xlink:href="#DejaVuSans-72"/>
       <use x="166.082031" xlink:href="#DejaVuSans-63"/>
       <use x="221.0625" xlink:href="#DejaVuSans-69"/>
       <use x="248.845703" xlink:href="#DejaVuSans-76"/>
       <use x="308.025391" xlink:href="#DejaVuSans-61"/>
       <use x="369.304688" xlink:href="#DejaVuSans-6c"/>
       <use x="397.087891" xlink:href="#DejaVuSans-32"/>
       <use x="460.710938" xlink:href="#DejaVuSans-30"/>
       <use x="524.333984" xlink:href="#DejaVuSans-31"/>
       <use x="587.957031" xlink:href="#DejaVuSans-34"/>
       <use x="651.580078" xlink:href="#DejaVuSans-2f"/>
       <use x="685.271484" xlink:href="#DejaVuSans-73"/>
       <use x="737.371094" xlink:href="#DejaVuSans-74"/>
       <use x="776.580078" xlink:href="#DejaVuSans-65"/>
       <use x="838.103516" xlink:href="#DejaVuSans-6d"/>
      </g>
     </g>
    </g>
    <g id="ytick_8">
     <g id="line2d_27">
      <path clip-path="url(#p26a2d66ab6)" d="M 226.746875 79.92236 
L 617.346875 79.92236 
" style="fill:none;stroke:#b0b0b0;stroke-linecap:square;stroke-width:0.8;"/>
     </g>
     <g id="line2d_28">
      <g>
       <use style="stroke:#000000;stroke-width:0.8;" x="226.746875" xlink:href="#m3001ee5c2b" y="79.92236"/>
      </g>
     </g>
     <g id="text_15">
      <!-- davies2009/mirex_qm_tempotracker -->
      <defs>
       <path d="M 10.984375 1.515625 
L 10.984375 10.5 
Q 14.703125 8.734375 18.5 7.8125 
Q 22.3125 6.890625 25.984375 6.890625 
Q 35.75 6.890625 40.890625 13.453125 
Q 46.046875 20.015625 46.78125 33.40625 
Q 43.953125 29.203125 39.59375 26.953125 
Q 35.25 24.703125 29.984375 24.703125 
Q 19.046875 24.703125 12.671875 31.3125 
Q 6.296875 37.9375 6.296875 49.421875 
Q 6.296875 60.640625 12.9375 67.421875 
Q 19.578125 74.21875 30.609375 74.21875 
Q 43.265625 74.21875 49.921875 64.515625 
Q 56.59375 54.828125 56.59375 36.375 
Q 56.59375 19.140625 48.40625 8.859375 
Q 40.234375 -1.421875 26.421875 -1.421875 
Q 22.703125 -1.421875 18.890625 -0.6875 
Q 15.09375 0.046875 10.984375 1.515625 
z
M 30.609375 32.421875 
Q 37.25 32.421875 41.125 36.953125 
Q 45.015625 41.5 45.015625 49.421875 
Q 45.015625 57.28125 41.125 61.84375 
Q 37.25 66.40625 30.609375 66.40625 
Q 23.96875 66.40625 20.09375 61.84375 
Q 16.21875 57.28125 16.21875 49.421875 
Q 16.21875 41.5 20.09375 36.953125 
Q 23.96875 32.421875 30.609375 32.421875 
z
" id="DejaVuSans-39"/>
       <path d="M 50.984375 -16.609375 
L 50.984375 -23.578125 
L -0.984375 -23.578125 
L -0.984375 -16.609375 
z
" id="DejaVuSans-5f"/>
       <path d="M 14.796875 27.296875 
Q 14.796875 17.390625 18.875 11.75 
Q 22.953125 6.109375 30.078125 6.109375 
Q 37.203125 6.109375 41.296875 11.75 
Q 45.40625 17.390625 45.40625 27.296875 
Q 45.40625 37.203125 41.296875 42.84375 
Q 37.203125 48.484375 30.078125 48.484375 
Q 22.953125 48.484375 18.875 42.84375 
Q 14.796875 37.203125 14.796875 27.296875 
z
M 45.40625 8.203125 
Q 42.578125 3.328125 38.25 0.953125 
Q 33.9375 -1.421875 27.875 -1.421875 
Q 17.96875 -1.421875 11.734375 6.484375 
Q 5.515625 14.40625 5.515625 27.296875 
Q 5.515625 40.1875 11.734375 48.09375 
Q 17.96875 56 27.875 56 
Q 33.9375 56 38.25 53.625 
Q 42.578125 51.265625 45.40625 46.390625 
L 45.40625 54.6875 
L 54.390625 54.6875 
L 54.390625 -20.796875 
L 45.40625 -20.796875 
z
" id="DejaVuSans-71"/>
       <path d="M 30.609375 48.390625 
Q 23.390625 48.390625 19.1875 42.75 
Q 14.984375 37.109375 14.984375 27.296875 
Q 14.984375 17.484375 19.15625 11.84375 
Q 23.34375 6.203125 30.609375 6.203125 
Q 37.796875 6.203125 41.984375 11.859375 
Q 46.1875 17.53125 46.1875 27.296875 
Q 46.1875 37.015625 41.984375 42.703125 
Q 37.796875 48.390625 30.609375 48.390625 
z
M 30.609375 56 
Q 42.328125 56 49.015625 48.375 
Q 55.71875 40.765625 55.71875 27.296875 
Q 55.71875 13.875 49.015625 6.21875 
Q 42.328125 -1.421875 30.609375 -1.421875 
Q 18.84375 -1.421875 12.171875 6.21875 
Q 5.515625 13.875 5.515625 27.296875 
Q 5.515625 40.765625 12.171875 48.375 
Q 18.84375 56 30.609375 56 
z
" id="DejaVuSans-6f"/>
       <path d="M 9.078125 75.984375 
L 18.109375 75.984375 
L 18.109375 31.109375 
L 44.921875 54.6875 
L 56.390625 54.6875 
L 27.390625 29.109375 
L 57.625 0 
L 45.90625 0 
L 18.109375 26.703125 
L 18.109375 0 
L 9.078125 0 
z
" id="DejaVuSans-6b"/>
      </defs>
      <g transform="translate(35.617187 83.721579)scale(0.1 -0.1)">
       <use xlink:href="#DejaVuSans-64"/>
       <use x="63.476562" xlink:href="#DejaVuSans-61"/>
       <use x="124.755859" xlink:href="#DejaVuSans-76"/>
       <use x="183.935547" xlink:href="#DejaVuSans-69"/>
       <use x="211.71875" xlink:href="#DejaVuSans-65"/>
       <use x="273.242188" xlink:href="#DejaVuSans-73"/>
       <use x="325.341797" xlink:href="#DejaVuSans-32"/>
       <use x="388.964844" xlink:href="#DejaVuSans-30"/>
       <use x="452.587891" xlink:href="#DejaVuSans-30"/>
       <use x="516.210938" xlink:href="#DejaVuSans-39"/>
       <use x="579.833984" xlink:href="#DejaVuSans-2f"/>
       <use x="613.525391" xlink:href="#DejaVuSans-6d"/>
       <use x="710.9375" xlink:href="#DejaVuSans-69"/>
       <use x="738.720703" xlink:href="#DejaVuSans-72"/>
       <use x="779.802734" xlink:href="#DejaVuSans-65"/>
       <use x="841.310547" xlink:href="#DejaVuSans-78"/>
       <use x="900.490234" xlink:href="#DejaVuSans-5f"/>
       <use x="950.490234" xlink:href="#DejaVuSans-71"/>
       <use x="1013.966797" xlink:href="#DejaVuSans-6d"/>
       <use x="1111.378906" xlink:href="#DejaVuSans-5f"/>
       <use x="1161.378906" xlink:href="#DejaVuSans-74"/>
       <use x="1200.587891" xlink:href="#DejaVuSans-65"/>
       <use x="1262.111328" xlink:href="#DejaVuSans-6d"/>
       <use x="1359.523438" xlink:href="#DejaVuSans-70"/>
       <use x="1423" xlink:href="#DejaVuSans-6f"/>
       <use x="1484.181641" xlink:href="#DejaVuSans-74"/>
       <use x="1523.390625" xlink:href="#DejaVuSans-72"/>
       <use x="1564.503906" xlink:href="#DejaVuSans-61"/>
       <use x="1625.783203" xlink:href="#DejaVuSans-63"/>
       <use x="1680.763672" xlink:href="#DejaVuSans-6b"/>
       <use x="1738.626953" xlink:href="#DejaVuSans-65"/>
       <use x="1800.150391" xlink:href="#DejaVuSans-72"/>
      </g>
     </g>
    </g>
    <g id="ytick_9">
     <g id="line2d_29">
      <path clip-path="url(#p26a2d66ab6)" d="M 226.746875 45.531772 
L 617.346875 45.531772 
" style="fill:none;stroke:#b0b0b0;stroke-linecap:square;stroke-width:0.8;"/>
     </g>
     <g id="line2d_30">
      <g>
       <use style="stroke:#000000;stroke-width:0.8;" x="226.746875" xlink:href="#m3001ee5c2b" y="45.531772"/>
      </g>
     </g>
     <g id="text_16">
      <!-- boeck2015/tempodetector2016_default -->
      <defs>
       <path d="M 10.796875 72.90625 
L 49.515625 72.90625 
L 49.515625 64.59375 
L 19.828125 64.59375 
L 19.828125 46.734375 
Q 21.96875 47.46875 24.109375 47.828125 
Q 26.265625 48.1875 28.421875 48.1875 
Q 40.625 48.1875 47.75 41.5 
Q 54.890625 34.8125 54.890625 23.390625 
Q 54.890625 11.625 47.5625 5.09375 
Q 40.234375 -1.421875 26.90625 -1.421875 
Q 22.3125 -1.421875 17.546875 -0.640625 
Q 12.796875 0.140625 7.71875 1.703125 
L 7.71875 11.625 
Q 12.109375 9.234375 16.796875 8.0625 
Q 21.484375 6.890625 26.703125 6.890625 
Q 35.15625 6.890625 40.078125 11.328125 
Q 45.015625 15.765625 45.015625 23.390625 
Q 45.015625 31 40.078125 35.4375 
Q 35.15625 39.890625 26.703125 39.890625 
Q 22.75 39.890625 18.8125 39.015625 
Q 14.890625 38.140625 10.796875 36.28125 
z
" id="DejaVuSans-35"/>
      </defs>
      <g transform="translate(20.878125 49.330991)scale(0.1 -0.1)">
       <use xlink:href="#DejaVuSans-62"/>
       <use x="63.476562" xlink:href="#DejaVuSans-6f"/>
       <use x="124.658203" xlink:href="#DejaVuSans-65"/>
       <use x="186.181641" xlink:href="#DejaVuSans-63"/>
       <use x="241.162109" xlink:href="#DejaVuSans-6b"/>
       <use x="299.072266" xlink:href="#DejaVuSans-32"/>
       <use x="362.695312" xlink:href="#DejaVuSans-30"/>
       <use x="426.318359" xlink:href="#DejaVuSans-31"/>
       <use x="489.941406" xlink:href="#DejaVuSans-35"/>
       <use x="553.564453" xlink:href="#DejaVuSans-2f"/>
       <use x="587.255859" xlink:href="#DejaVuSans-74"/>
       <use x="626.464844" xlink:href="#DejaVuSans-65"/>
       <use x="687.988281" xlink:href="#DejaVuSans-6d"/>
       <use x="785.400391" xlink:href="#DejaVuSans-70"/>
       <use x="848.876953" xlink:href="#DejaVuSans-6f"/>
       <use x="910.058594" xlink:href="#DejaVuSans-64"/>
       <use x="973.535156" xlink:href="#DejaVuSans-65"/>
       <use x="1035.058594" xlink:href="#DejaVuSans-74"/>
       <use x="1074.267578" xlink:href="#DejaVuSans-65"/>
       <use x="1135.791016" xlink:href="#DejaVuSans-63"/>
       <use x="1190.771484" xlink:href="#DejaVuSans-74"/>
       <use x="1229.980469" xlink:href="#DejaVuSans-6f"/>
       <use x="1291.162109" xlink:href="#DejaVuSans-72"/>
       <use x="1332.275391" xlink:href="#DejaVuSans-32"/>
       <use x="1395.898438" xlink:href="#DejaVuSans-30"/>
       <use x="1459.521484" xlink:href="#DejaVuSans-31"/>
       <use x="1523.144531" xlink:href="#DejaVuSans-36"/>
       <use x="1586.767578" xlink:href="#DejaVuSans-5f"/>
       <use x="1636.767578" xlink:href="#DejaVuSans-64"/>
       <use x="1700.244141" xlink:href="#DejaVuSans-65"/>
       <use x="1761.767578" xlink:href="#DejaVuSans-66"/>
       <use x="1796.972656" xlink:href="#DejaVuSans-61"/>
       <use x="1858.251953" xlink:href="#DejaVuSans-75"/>
       <use x="1921.630859" xlink:href="#DejaVuSans-6c"/>
       <use x="1949.414062" xlink:href="#DejaVuSans-74"/>
      </g>
     </g>
    </g>
    <g id="text_17">
     <!-- Estimator -->
     <g transform="translate(14.798437 207.216781)rotate(-90)scale(0.1 -0.1)">
      <use xlink:href="#DejaVuSans-45"/>
      <use x="63.183594" xlink:href="#DejaVuSans-73"/>
      <use x="115.283203" xlink:href="#DejaVuSans-74"/>
      <use x="154.492188" xlink:href="#DejaVuSans-69"/>
      <use x="182.275391" xlink:href="#DejaVuSans-6d"/>
      <use x="279.6875" xlink:href="#DejaVuSans-61"/>
      <use x="340.966797" xlink:href="#DejaVuSans-74"/>
      <use x="380.175781" xlink:href="#DejaVuSans-6f"/>
      <use x="441.357422" xlink:href="#DejaVuSans-72"/>
     </g>
    </g>
   </g>
   <g id="PolyCollection_1">
    <path clip-path="url(#p26a2d66ab6)" d="M 227.553268 320.631449 
L 227.553268 320.681507 
L 227.88387 320.683304 
L 228.214471 320.687373 
L 228.545072 320.699323 
L 228.875673 320.723329 
L 229.206274 320.758017 
L 229.536875 320.794678 
L 229.867477 320.820389 
L 230.198078 320.825038 
L 230.528679 320.807225 
L 230.85928 320.774392 
L 231.189881 320.737637 
L 231.520482 320.705862 
L 231.851084 320.683095 
L 232.181685 320.669166 
L 232.512286 320.661802 
L 232.842887 320.658432 
L 233.173488 320.6571 
L 233.504089 320.656649 
L 233.83469 320.656518 
L 234.165292 320.656486 
L 234.495893 320.656479 
L 234.826494 320.656478 
L 235.157095 320.656478 
L 235.487696 320.656478 
L 235.818297 320.656478 
L 236.148899 320.656478 
L 236.4795 320.656478 
L 236.810101 320.656478 
L 237.140702 320.656479 
L 237.471303 320.656483 
L 237.801904 320.656504 
L 238.132506 320.656587 
L 238.463107 320.656864 
L 238.793708 320.657635 
L 239.124309 320.6594 
L 239.45491 320.6627 
L 239.785511 320.667654 
L 240.116113 320.673416 
L 240.446714 320.678182 
L 240.777315 320.680174 
L 241.107916 320.679234 
L 241.438517 320.678078 
L 241.769118 320.683129 
L 242.09972 320.706348 
L 242.430321 320.770297 
L 242.760922 320.917405 
L 243.091523 321.220722 
L 243.422124 321.786313 
L 243.752725 322.729329 
L 244.083327 324.107572 
L 244.413928 325.824527 
L 244.744529 327.565201 
L 245.07513 328.853329 
L 245.405731 329.254125 
L 245.736332 328.61304 
L 246.066933 327.151829 
L 246.397535 325.341328 
L 246.728136 323.652386 
L 247.058737 322.365722 
L 247.389338 321.536291 
L 247.719939 321.074143 
L 248.05054 320.848133 
L 248.381142 320.750601 
L 248.711743 320.714807 
L 249.042344 320.705649 
L 249.372945 320.705276 
L 249.703546 320.704235 
L 250.034147 320.698537 
L 250.364749 320.688645 
L 250.69535 320.677562 
L 251.025951 320.668261 
L 251.356552 320.66208 
L 251.687153 320.658741 
L 252.017754 320.657254 
L 252.348356 320.656704 
L 252.678957 320.656534 
L 253.009558 320.65649 
L 253.340159 320.65648 
L 253.67076 320.656478 
L 254.001361 320.656478 
L 254.331963 320.656478 
L 254.662564 320.656478 
L 254.993165 320.656479 
L 255.323766 320.656481 
L 255.654367 320.656496 
L 255.984968 320.656559 
L 256.31557 320.65678 
L 256.646171 320.657442 
L 256.976772 320.659101 
L 257.307373 320.662618 
L 257.637974 320.668962 
L 257.968575 320.678824 
L 258.299176 320.69224 
L 258.629778 320.708396 
L 258.960379 320.72548 
L 259.29098 320.740486 
L 259.621581 320.749491 
L 259.952182 320.74906 
L 260.282783 320.738328 
L 260.282783 320.574628 
L 260.282783 320.574628 
L 259.952182 320.563895 
L 259.621581 320.563464 
L 259.29098 320.57247 
L 258.960379 320.587476 
L 258.629778 320.60456 
L 258.299176 320.620716 
L 257.968575 320.634132 
L 257.637974 320.643994 
L 257.307373 320.650338 
L 256.976772 320.653855 
L 256.646171 320.655514 
L 256.31557 320.656175 
L 255.984968 320.656397 
L 255.654367 320.65646 
L 255.323766 320.656474 
L 254.993165 320.656477 
L 254.662564 320.656478 
L 254.331963 320.656478 
L 254.001361 320.656478 
L 253.67076 320.656478 
L 253.340159 320.656476 
L 253.009558 320.656466 
L 252.678957 320.656422 
L 252.348356 320.656252 
L 252.017754 320.655702 
L 251.687153 320.654215 
L 251.356552 320.650876 
L 251.025951 320.644695 
L 250.69535 320.635394 
L 250.364749 320.624311 
L 250.034147 320.614419 
L 249.703546 320.60872 
L 249.372945 320.60768 
L 249.042344 320.607307 
L 248.711743 320.598149 
L 248.381142 320.562355 
L 248.05054 320.464823 
L 247.719939 320.238812 
L 247.389338 319.776664 
L 247.058737 318.947234 
L 246.728136 317.660569 
L 246.397535 315.971628 
L 246.066933 314.161126 
L 245.736332 312.699916 
L 245.405731 312.058831 
L 245.07513 312.459627 
L 244.744529 313.747755 
L 244.413928 315.488429 
L 244.083327 317.205384 
L 243.752725 318.583627 
L 243.422124 319.526643 
L 243.091523 320.092234 
L 242.760922 320.395551 
L 242.430321 320.542659 
L 242.09972 320.606608 
L 241.769118 320.629827 
L 241.438517 320.634878 
L 241.107916 320.633722 
L 240.777315 320.632782 
L 240.446714 320.634774 
L 240.116113 320.63954 
L 239.785511 320.645302 
L 239.45491 320.650256 
L 239.124309 320.653556 
L 238.793708 320.655321 
L 238.463107 320.656092 
L 238.132506 320.656369 
L 237.801904 320.656452 
L 237.471303 320.656473 
L 237.140702 320.656477 
L 236.810101 320.656478 
L 236.4795 320.656478 
L 236.148899 320.656478 
L 235.818297 320.656478 
L 235.487696 320.656478 
L 235.157095 320.656478 
L 234.826494 320.656478 
L 234.495893 320.656477 
L 234.165292 320.65647 
L 233.83469 320.656438 
L 233.504089 320.656307 
L 233.173488 320.655855 
L 232.842887 320.654524 
L 232.512286 320.651154 
L 232.181685 320.64379 
L 231.851084 320.629861 
L 231.520482 320.607094 
L 231.189881 320.575319 
L 230.85928 320.538563 
L 230.528679 320.505731 
L 230.198078 320.487918 
L 229.867477 320.492567 
L 229.536875 320.518277 
L 229.206274 320.554939 
L 228.875673 320.589627 
L 228.545072 320.613633 
L 228.214471 320.625583 
L 227.88387 320.629652 
L 227.553268 320.631449 
z
" style="fill:#ff0000;fill-opacity:0.75;"/>
   </g>
   <g id="PolyCollection_2">
    <path clip-path="url(#p26a2d66ab6)" d="M 227.553268 286.178823 
L 227.553268 286.352956 
L 227.903191 286.395438 
L 228.253113 286.452443 
L 228.603035 286.522476 
L 228.952957 286.598759 
L 229.302879 286.669185 
L 229.652801 286.719038 
L 230.002724 286.735904 
L 230.352646 286.714582 
L 230.702568 286.659396 
L 231.05249 286.582575 
L 231.402412 286.499597 
L 231.752334 286.423974 
L 232.102256 286.363868 
L 232.452179 286.321512 
L 232.802101 286.294802 
L 233.152023 286.279644 
L 233.501945 286.271874 
L 233.851867 286.26827 
L 234.201789 286.266754 
L 234.551712 286.266176 
L 234.901634 286.265976 
L 235.251556 286.265914 
L 235.601478 286.265896 
L 235.9514 286.265892 
L 236.301322 286.265895 
L 236.651245 286.265909 
L 237.001167 286.26595 
L 237.351089 286.266064 
L 237.701011 286.266345 
L 238.050933 286.266966 
L 238.400855 286.268197 
L 238.750778 286.270381 
L 239.1007 286.273855 
L 239.450622 286.278827 
L 239.800544 286.285301 
L 240.150466 286.293216 
L 240.500388 286.302993 
L 240.850311 286.316727 
L 241.200233 286.340254 
L 241.550155 286.38635 
L 241.900077 286.479021 
L 242.249999 286.657947 
L 242.599921 286.980354 
L 242.949843 287.515594 
L 243.299766 288.327257 
L 243.649688 289.441508 
L 243.99961 290.809449 
L 244.349532 292.282139 
L 244.699454 293.620825 
L 245.049376 294.553502 
L 245.399299 294.863537 
L 245.749221 294.471614 
L 246.099143 293.468501 
L 246.449065 292.080115 
L 246.798987 290.583558 
L 247.148909 289.217274 
L 247.498832 288.124877 
L 247.848754 287.346994 
L 248.198676 286.849069 
L 248.548598 286.561228 
L 248.89852 286.410783 
L 249.248442 286.339689 
L 249.598365 286.308975 
L 249.948287 286.295946 
L 250.298209 286.289182 
L 250.648131 286.283997 
L 250.998053 286.279158 
L 251.347975 286.274807 
L 251.697898 286.271329 
L 252.04782 286.268889 
L 252.397742 286.267383 
L 252.747664 286.26656 
L 253.097586 286.266161 
L 253.447508 286.265989 
L 253.79743 286.265922 
L 254.147353 286.265899 
L 254.497275 286.265892 
L 254.847197 286.26589 
L 255.197119 286.26589 
L 255.547041 286.26589 
L 255.896963 286.26589 
L 256.246886 286.26589 
L 256.596808 286.265891 
L 256.94673 286.265894 
L 257.296652 286.265905 
L 257.646574 286.26594 
L 257.996496 286.26604 
L 258.346419 286.266296 
L 258.696341 286.266885 
L 259.046263 286.268102 
L 259.396185 286.270352 
L 259.746107 286.274063 
L 260.096029 286.279496 
L 260.445952 286.286494 
L 260.795874 286.2943 
L 261.145796 286.301583 
L 261.495718 286.306772 
L 261.84564 286.308594 
L 262.195562 286.306576 
L 262.195562 286.225204 
L 262.195562 286.225204 
L 261.84564 286.223186 
L 261.495718 286.225007 
L 261.145796 286.230196 
L 260.795874 286.237479 
L 260.445952 286.245285 
L 260.096029 286.252284 
L 259.746107 286.257716 
L 259.396185 286.261427 
L 259.046263 286.263677 
L 258.696341 286.264894 
L 258.346419 286.265484 
L 257.996496 286.26574 
L 257.646574 286.26584 
L 257.296652 286.265875 
L 256.94673 286.265886 
L 256.596808 286.265889 
L 256.246886 286.265889 
L 255.896963 286.26589 
L 255.547041 286.26589 
L 255.197119 286.26589 
L 254.847197 286.265889 
L 254.497275 286.265887 
L 254.147353 286.26588 
L 253.79743 286.265857 
L 253.447508 286.26579 
L 253.097586 286.265618 
L 252.747664 286.265219 
L 252.397742 286.264397 
L 252.04782 286.26289 
L 251.697898 286.260451 
L 251.347975 286.256973 
L 250.998053 286.252622 
L 250.648131 286.247782 
L 250.298209 286.242597 
L 249.948287 286.235833 
L 249.598365 286.222804 
L 249.248442 286.19209 
L 248.89852 286.120997 
L 248.548598 285.970552 
L 248.198676 285.68271 
L 247.848754 285.184785 
L 247.498832 284.406903 
L 247.148909 283.314505 
L 246.798987 281.948221 
L 246.449065 280.451664 
L 246.099143 279.063278 
L 245.749221 278.060165 
L 245.399299 277.668243 
L 245.049376 277.978277 
L 244.699454 278.910955 
L 244.349532 280.24964 
L 243.99961 281.72233 
L 243.649688 283.090271 
L 243.299766 284.204523 
L 242.949843 285.016185 
L 242.599921 285.551425 
L 242.249999 285.873832 
L 241.900077 286.052758 
L 241.550155 286.14543 
L 241.200233 286.191526 
L 240.850311 286.215053 
L 240.500388 286.228786 
L 240.150466 286.238563 
L 239.800544 286.246478 
L 239.450622 286.252953 
L 239.1007 286.257925 
L 238.750778 286.261399 
L 238.400855 286.263583 
L 238.050933 286.264813 
L 237.701011 286.265435 
L 237.351089 286.265716 
L 237.001167 286.265829 
L 236.651245 286.265871 
L 236.301322 286.265884 
L 235.9514 286.265887 
L 235.601478 286.265883 
L 235.251556 286.265866 
L 234.901634 286.265803 
L 234.551712 286.265603 
L 234.201789 286.265025 
L 233.851867 286.26351 
L 233.501945 286.259905 
L 233.152023 286.252135 
L 232.802101 286.236977 
L 232.452179 286.210267 
L 232.102256 286.167912 
L 231.752334 286.107806 
L 231.402412 286.032182 
L 231.05249 285.949205 
L 230.702568 285.872384 
L 230.352646 285.817198 
L 230.002724 285.795875 
L 229.652801 285.812741 
L 229.302879 285.862595 
L 228.952957 285.933021 
L 228.603035 286.009304 
L 228.253113 286.079336 
L 227.903191 286.136341 
L 227.553268 286.178823 
z
" style="fill:#ff0000;fill-opacity:0.75;"/>
   </g>
   <g id="PolyCollection_3">
    <path clip-path="url(#p26a2d66ab6)" d="M 228.235377 251.84619 
L 228.235377 251.904413 
L 228.578409 251.90923 
L 228.921441 251.916665 
L 229.264473 251.929387 
L 229.607505 251.944778 
L 229.950538 251.955954 
L 230.29357 251.957099 
L 230.636602 251.947264 
L 230.979634 251.930015 
L 231.322666 251.910908 
L 231.665699 251.894845 
L 232.008731 251.884209 
L 232.351763 251.878628 
L 232.694795 251.876309 
L 233.037827 251.875547 
L 233.380859 251.87535 
L 233.723892 251.875309 
L 234.066924 251.875302 
L 234.409956 251.875302 
L 234.752988 251.875301 
L 235.09602 251.875301 
L 235.439052 251.875301 
L 235.782085 251.875301 
L 236.125117 251.875301 
L 236.468149 251.875301 
L 236.811181 251.875301 
L 237.154213 251.875301 
L 237.497246 251.875301 
L 237.840278 251.875302 
L 238.18331 251.875304 
L 238.526342 251.875317 
L 238.869374 251.875391 
L 239.212406 251.875705 
L 239.555439 251.876735 
L 239.898471 251.879337 
L 240.241503 251.88431 
L 240.584535 251.891284 
L 240.927567 251.898056 
L 241.2706 251.902309 
L 241.613632 251.905699 
L 241.956664 251.917555 
L 242.299696 251.956564 
L 242.642728 252.053946 
L 242.98576 252.264113 
L 243.328793 252.681723 
L 243.671825 253.445152 
L 244.014857 254.687678 
L 244.357889 256.411621 
L 244.700921 258.339191 
L 245.043953 259.898185 
L 245.386986 260.472949 
L 245.730018 259.798502 
L 246.07305 258.153343 
L 246.416082 256.162807 
L 246.759114 254.409169 
L 247.102147 253.178307 
L 247.445179 252.463001 
L 247.788211 252.110645 
L 248.131243 251.960942 
L 248.474275 251.906367 
L 248.817307 251.891693 
L 249.16034 251.892534 
L 249.503372 251.897473 
L 249.846404 251.900005 
L 250.189436 251.89742 
L 250.532468 251.891025 
L 250.8755 251.884158 
L 251.218533 251.879253 
L 251.561565 251.876698 
L 251.904597 251.875692 
L 252.247629 251.875388 
L 252.590661 251.875317 
L 252.933694 251.875304 
L 253.276726 251.875302 
L 253.619758 251.875301 
L 253.96279 251.875301 
L 254.305822 251.875301 
L 254.648854 251.875301 
L 254.991887 251.875301 
L 255.334919 251.875301 
L 255.677951 251.875301 
L 256.020983 251.875302 
L 256.364015 251.875302 
L 256.707048 251.875306 
L 257.05008 251.875329 
L 257.393112 251.875446 
L 257.736144 251.875906 
L 258.079176 251.877313 
L 258.422208 251.88062 
L 258.765241 251.886546 
L 259.108273 251.894545 
L 259.451305 251.902716 
L 259.794337 251.909678 
L 260.137369 251.916609 
L 260.480401 251.926205 
L 260.823434 251.938999 
L 261.166466 251.951245 
L 261.509498 251.956929 
L 261.85253 251.952027 
L 262.195562 251.937377 
L 262.195562 251.813226 
L 262.195562 251.813226 
L 261.85253 251.798576 
L 261.509498 251.793674 
L 261.166466 251.799358 
L 260.823434 251.811604 
L 260.480401 251.824398 
L 260.137369 251.833994 
L 259.794337 251.840925 
L 259.451305 251.847887 
L 259.108273 251.856057 
L 258.765241 251.864057 
L 258.422208 251.869983 
L 258.079176 251.87329 
L 257.736144 251.874697 
L 257.393112 251.875157 
L 257.05008 251.875274 
L 256.707048 251.875297 
L 256.364015 251.875301 
L 256.020983 251.875301 
L 255.677951 251.875301 
L 255.334919 251.875301 
L 254.991887 251.875301 
L 254.648854 251.875301 
L 254.305822 251.875301 
L 253.96279 251.875301 
L 253.619758 251.875301 
L 253.276726 251.875301 
L 252.933694 251.875299 
L 252.590661 251.875286 
L 252.247629 251.875215 
L 251.904597 251.874911 
L 251.561565 251.873905 
L 251.218533 251.87135 
L 250.8755 251.866445 
L 250.532468 251.859578 
L 250.189436 251.853183 
L 249.846404 251.850598 
L 249.503372 251.85313 
L 249.16034 251.858069 
L 248.817307 251.85891 
L 248.474275 251.844236 
L 248.131243 251.789661 
L 247.788211 251.639958 
L 247.445179 251.287602 
L 247.102147 250.572296 
L 246.759114 249.341434 
L 246.416082 247.587796 
L 246.07305 245.59726 
L 245.730018 243.952101 
L 245.386986 243.277654 
L 245.043953 243.852418 
L 244.700921 245.411412 
L 244.357889 247.338982 
L 244.014857 249.062925 
L 243.671825 250.305451 
L 243.328793 251.06888 
L 242.98576 251.48649 
L 242.642728 251.696657 
L 242.299696 251.794039 
L 241.956664 251.833048 
L 241.613632 251.844904 
L 241.2706 251.848294 
L 240.927567 251.852547 
L 240.584535 251.859319 
L 240.241503 251.866293 
L 239.898471 251.871266 
L 239.555439 251.873868 
L 239.212406 251.874898 
L 238.869374 251.875212 
L 238.526342 251.875286 
L 238.18331 251.875299 
L 237.840278 251.875301 
L 237.497246 251.875301 
L 237.154213 251.875301 
L 236.811181 251.875301 
L 236.468149 251.875301 
L 236.125117 251.875301 
L 235.782085 251.875301 
L 235.439052 251.875301 
L 235.09602 251.875301 
L 234.752988 251.875301 
L 234.409956 251.875301 
L 234.066924 251.875301 
L 233.723892 251.875294 
L 233.380859 251.875253 
L 233.037827 251.875056 
L 232.694795 251.874294 
L 232.351763 251.871975 
L 232.008731 251.866394 
L 231.665699 251.855758 
L 231.322666 251.839695 
L 230.979634 251.820588 
L 230.636602 251.803339 
L 230.29357 251.793504 
L 229.950538 251.794649 
L 229.607505 251.805825 
L 229.264473 251.821216 
L 228.921441 251.833938 
L 228.578409 251.841373 
L 228.235377 251.84619 
z
" style="fill:#ff0000;fill-opacity:0.75;"/>
   </g>
   <g id="PolyCollection_4">
    <path clip-path="url(#p26a2d66ab6)" d="M 229.349052 216.923212 
L 229.349052 218.046215 
L 229.57197 218.100025 
L 229.794888 218.139126 
L 230.017807 218.160303 
L 230.240725 218.161798 
L 230.463643 218.143545 
L 230.686561 218.107172 
L 230.909479 218.055757 
L 231.132398 217.993407 
L 231.355316 217.924723 
L 231.578234 217.854255 
L 231.801152 217.786029 
L 232.02407 217.723213 
L 232.246989 217.667943 
L 232.469907 217.621322 
L 232.692825 217.583533 
L 232.915743 217.554058 
L 233.138661 217.531907 
L 233.361579 217.515856 
L 233.584498 217.504636 
L 233.807416 217.497068 
L 234.030334 217.49214 
L 234.253252 217.489046 
L 234.47617 217.487177 
L 234.699089 217.4861 
L 234.922007 217.485525 
L 235.144925 217.485271 
L 235.367843 217.485238 
L 235.590761 217.485384 
L 235.813679 217.485705 
L 236.036598 217.486228 
L 236.259516 217.486993 
L 236.482434 217.488047 
L 236.705352 217.489433 
L 236.92827 217.491177 
L 237.151189 217.493275 
L 237.374107 217.495692 
L 237.597025 217.498358 
L 237.819943 217.501178 
L 238.042861 217.504049 
L 238.26578 217.506886 
L 238.488698 217.509648 
L 238.711616 217.512363 
L 238.934534 217.515132 
L 239.157452 217.518131 
L 239.38037 217.52158 
L 239.603289 217.525713 
L 239.826207 217.530746 
L 240.049125 217.536869 
L 240.272043 217.544281 
L 240.494961 217.553286 
L 240.71788 217.564485 
L 240.940798 217.579052 
L 241.163716 217.599122 
L 241.386634 217.628276 
L 241.609552 217.672081 
L 241.832471 217.738638 
L 242.055389 217.838999 
L 242.278307 217.987292 
L 242.501225 218.20033 
L 242.724143 218.496459 
L 242.947061 218.893476 
L 243.16998 219.405602 
L 243.392898 220.03972 
L 243.615816 220.791425 
L 243.838734 221.641691 
L 244.061652 222.555128 
L 244.284571 223.480703 
L 244.507489 224.355439 
L 244.730407 225.111003 
L 244.953325 225.682328 
L 245.176243 226.016824 
L 245.399162 226.08236 
L 245.62208 225.872342 
L 245.844998 225.406767 
L 246.067916 224.729015 
L 246.290834 223.89911 
L 246.513752 222.984889 
L 246.736671 222.052898 
L 246.959589 221.160693 
L 247.182507 220.351681 
L 247.405425 219.652987 
L 247.628343 219.076075 
L 247.851262 218.619401 
L 248.07418 218.272147 
L 248.297098 218.018121 
L 248.520016 217.839161 
L 248.742934 217.717658 
L 248.965852 217.638131 
L 249.188771 217.587945 
L 249.411689 217.557414 
L 249.634607 217.539503 
L 249.857525 217.529348 
L 250.080443 217.523735 
L 250.303362 217.520627 
L 250.52628 217.518773 
L 250.749198 217.517426 
L 250.972116 217.516147 
L 251.195034 217.514685 
L 251.417953 217.512905 
L 251.417953 217.456522 
L 251.417953 217.456522 
L 251.195034 217.454742 
L 250.972116 217.453279 
L 250.749198 217.452001 
L 250.52628 217.450654 
L 250.303362 217.4488 
L 250.080443 217.445691 
L 249.857525 217.440079 
L 249.634607 217.429924 
L 249.411689 217.412012 
L 249.188771 217.381481 
L 248.965852 217.331296 
L 248.742934 217.251768 
L 248.520016 217.130266 
L 248.297098 216.951305 
L 248.07418 216.69728 
L 247.851262 216.350025 
L 247.628343 215.893351 
L 247.405425 215.316439 
L 247.182507 214.617746 
L 246.959589 213.808734 
L 246.736671 212.916528 
L 246.513752 211.984538 
L 246.290834 211.070316 
L 246.067916 210.240411 
L 245.844998 209.56266 
L 245.62208 209.097084 
L 245.399162 208.887066 
L 245.176243 208.952602 
L 244.953325 209.287098 
L 244.730407 209.858423 
L 244.507489 210.613987 
L 244.284571 211.488724 
L 244.061652 212.414298 
L 243.838734 213.327735 
L 243.615816 214.178001 
L 243.392898 214.929706 
L 243.16998 215.563824 
L 242.947061 216.07595 
L 242.724143 216.472968 
L 242.501225 216.769096 
L 242.278307 216.982134 
L 242.055389 217.130428 
L 241.832471 217.230788 
L 241.609552 217.297345 
L 241.386634 217.34115 
L 241.163716 217.370304 
L 240.940798 217.390374 
L 240.71788 217.404941 
L 240.494961 217.41614 
L 240.272043 217.425146 
L 240.049125 217.432557 
L 239.826207 217.43868 
L 239.603289 217.443713 
L 239.38037 217.447846 
L 239.157452 217.451295 
L 238.934534 217.454294 
L 238.711616 217.457064 
L 238.488698 217.459778 
L 238.26578 217.462541 
L 238.042861 217.465377 
L 237.819943 217.468249 
L 237.597025 217.471069 
L 237.374107 217.473735 
L 237.151189 217.476152 
L 236.92827 217.47825 
L 236.705352 217.479993 
L 236.482434 217.481379 
L 236.259516 217.482434 
L 236.036598 217.483199 
L 235.813679 217.483721 
L 235.590761 217.484043 
L 235.367843 217.484188 
L 235.144925 217.484155 
L 234.922007 217.483901 
L 234.699089 217.483326 
L 234.47617 217.482249 
L 234.253252 217.48038 
L 234.030334 217.477286 
L 233.807416 217.472359 
L 233.584498 217.46479 
L 233.361579 217.45357 
L 233.138661 217.43752 
L 232.915743 217.415369 
L 232.692825 217.385893 
L 232.469907 217.348105 
L 232.246989 217.301483 
L 232.02407 217.246214 
L 231.801152 217.183398 
L 231.578234 217.115172 
L 231.355316 217.044704 
L 231.132398 216.976019 
L 230.909479 216.913669 
L 230.686561 216.862254 
L 230.463643 216.825881 
L 230.240725 216.807629 
L 230.017807 216.809123 
L 229.794888 216.8303 
L 229.57197 216.869401 
L 229.349052 216.923212 
z
" style="fill:#ff0000;fill-opacity:0.75;"/>
   </g>
   <g id="PolyCollection_5">
    <path clip-path="url(#p26a2d66ab6)" d="M 229.25677 182.376549 
L 229.25677 183.811701 
L 229.509002 183.883033 
L 229.761234 183.933568 
L 230.013466 183.9587 
L 230.265699 183.9561 
L 230.517931 183.92608 
L 230.770163 183.871524 
L 231.022395 183.797437 
L 231.274627 183.71019 
L 231.526859 183.616626 
L 231.779091 183.523198 
L 232.031324 183.43528 
L 232.283556 183.356748 
L 232.535788 183.289852 
L 232.78802 183.235339 
L 233.040252 183.192748 
L 233.292484 183.16079 
L 233.544716 183.137736 
L 233.796949 183.121732 
L 234.049181 183.111033 
L 234.301413 183.104143 
L 234.553645 183.099866 
L 234.805877 183.097307 
L 235.058109 183.095831 
L 235.310341 183.09501 
L 235.562574 183.094572 
L 235.814806 183.09435 
L 236.067038 183.094249 
L 236.31927 183.094221 
L 236.571502 183.094247 
L 236.823734 183.094333 
L 237.075966 183.094503 
L 237.328199 183.094805 
L 237.580431 183.095314 
L 237.832663 183.096132 
L 238.084895 183.097398 
L 238.337127 183.09928 
L 238.589359 183.101973 
L 238.841591 183.105682 
L 239.093824 183.110613 
L 239.346056 183.116959 
L 239.598288 183.124913 
L 239.85052 183.134725 
L 240.102752 183.146817 
L 240.354984 183.162013 
L 240.607216 183.18187 
L 240.859449 183.20917 
L 241.111681 183.248514 
L 241.363913 183.307004 
L 241.616145 183.394857 
L 241.868377 183.525797 
L 242.120609 183.71693 
L 242.372841 183.987831 
L 242.625074 184.358572 
L 242.877306 184.846584 
L 243.129538 185.462518 
L 243.38177 186.205647 
L 243.634002 187.059691 
L 243.886234 187.990242 
L 244.138466 188.944888 
L 244.390699 189.856802 
L 244.642931 190.65182 
L 244.895163 191.258137 
L 245.147395 191.616935 
L 245.399627 191.691772 
L 245.651859 191.474651 
L 245.904091 190.987374 
L 246.156324 190.27786 
L 246.408556 189.412297 
L 246.660788 188.464909 
L 246.91302 187.507542 
L 247.165252 186.601056 
L 247.417484 185.789845 
L 247.669716 185.09993 
L 247.921949 184.540199 
L 248.174181 184.105844 
L 248.426413 183.782818 
L 248.678645 183.552256 
L 248.930877 183.394146 
L 249.183109 183.289887 
L 249.435341 183.223731 
L 249.687574 183.183291 
L 249.939806 183.15942 
L 250.192038 183.145728 
L 250.44427 183.137973 
L 250.696502 183.133478 
L 250.948734 183.130635 
L 251.200966 183.128543 
L 251.453199 183.126748 
L 251.705431 183.125073 
L 251.957663 183.123503 
L 252.209895 183.122107 
L 252.462127 183.120974 
L 252.714359 183.120172 
L 252.966591 183.119709 
L 253.218824 183.119519 
L 253.471056 183.119469 
L 253.723288 183.11938 
L 253.97552 183.119062 
L 254.227752 183.118354 
L 254.227752 183.069896 
L 254.227752 183.069896 
L 253.97552 183.069188 
L 253.723288 183.06887 
L 253.471056 183.068781 
L 253.218824 183.068731 
L 252.966591 183.068541 
L 252.714359 183.068078 
L 252.462127 183.067276 
L 252.209895 183.066143 
L 251.957663 183.064747 
L 251.705431 183.063177 
L 251.453199 183.061502 
L 251.200966 183.059707 
L 250.948734 183.057615 
L 250.696502 183.054772 
L 250.44427 183.050277 
L 250.192038 183.042522 
L 249.939806 183.02883 
L 249.687574 183.004959 
L 249.435341 182.964519 
L 249.183109 182.898363 
L 248.930877 182.794104 
L 248.678645 182.635994 
L 248.426413 182.405432 
L 248.174181 182.082406 
L 247.921949 181.648051 
L 247.669716 181.08832 
L 247.417484 180.398405 
L 247.165252 179.587194 
L 246.91302 178.680708 
L 246.660788 177.723341 
L 246.408556 176.775953 
L 246.156324 175.91039 
L 245.904091 175.200876 
L 245.651859 174.713599 
L 245.399627 174.496478 
L 245.147395 174.571315 
L 244.895163 174.930113 
L 244.642931 175.53643 
L 244.390699 176.331448 
L 244.138466 177.243362 
L 243.886234 178.198008 
L 243.634002 179.128559 
L 243.38177 179.982603 
L 243.129538 180.725732 
L 242.877306 181.341666 
L 242.625074 181.829678 
L 242.372841 182.200419 
L 242.120609 182.47132 
L 241.868377 182.662453 
L 241.616145 182.793393 
L 241.363913 182.881246 
L 241.111681 182.939736 
L 240.859449 182.97908 
L 240.607216 183.00638 
L 240.354984 183.026237 
L 240.102752 183.041433 
L 239.85052 183.053525 
L 239.598288 183.063337 
L 239.346056 183.071291 
L 239.093824 183.077637 
L 238.841591 183.082568 
L 238.589359 183.086277 
L 238.337127 183.08897 
L 238.084895 183.090852 
L 237.832663 183.092118 
L 237.580431 183.092936 
L 237.328199 183.093445 
L 237.075966 183.093747 
L 236.823734 183.093917 
L 236.571502 183.094003 
L 236.31927 183.094029 
L 236.067038 183.094001 
L 235.814806 183.0939 
L 235.562574 183.093678 
L 235.310341 183.09324 
L 235.058109 183.092419 
L 234.805877 183.090943 
L 234.553645 183.088384 
L 234.301413 183.084107 
L 234.049181 183.077217 
L 233.796949 183.066518 
L 233.544716 183.050514 
L 233.292484 183.02746 
L 233.040252 182.995502 
L 232.78802 182.952911 
L 232.535788 182.898398 
L 232.283556 182.831502 
L 232.031324 182.75297 
L 231.779091 182.665052 
L 231.526859 182.571624 
L 231.274627 182.47806 
L 231.022395 182.390813 
L 230.770163 182.316726 
L 230.517931 182.26217 
L 230.265699 182.23215 
L 230.013466 182.22955 
L 229.761234 182.254682 
L 229.509002 182.305217 
L 229.25677 182.376549 
z
" style="fill:#ff0000;fill-opacity:0.75;"/>
   </g>
   <g id="PolyCollection_6">
    <path clip-path="url(#p26a2d66ab6)" d="M 227.934264 148.390048 
L 227.934264 149.017026 
L 228.239244 149.101067 
L 228.544224 149.185616 
L 228.849204 149.261964 
L 229.154184 149.320744 
L 229.459164 149.353772 
L 229.764144 149.355913 
L 230.069124 149.326392 
L 230.374104 149.269093 
L 230.679084 149.191716 
L 230.984064 149.104058 
L 231.289044 149.015968 
L 231.594024 148.935572 
L 231.899004 148.868201 
L 232.203984 148.816151 
L 232.508964 148.779126 
L 232.813944 148.755054 
L 233.118924 148.740963 
L 233.423904 148.733713 
L 233.728884 148.730493 
L 234.033864 148.729085 
L 234.338844 148.727973 
L 234.643824 148.726316 
L 234.948804 148.723841 
L 235.253784 148.720685 
L 235.558764 148.717205 
L 235.863744 148.713811 
L 236.168724 148.710842 
L 236.473704 148.708512 
L 236.778684 148.706913 
L 237.083664 148.706061 
L 237.388644 148.705952 
L 237.693624 148.706606 
L 237.998604 148.708086 
L 238.303583 148.710506 
L 238.608563 148.714014 
L 238.913543 148.718817 
L 239.218523 148.725244 
L 239.523503 148.733899 
L 239.828483 148.745904 
L 240.133463 148.763252 
L 240.438443 148.789282 
L 240.743423 148.829319 
L 241.048403 148.891538 
L 241.353383 148.988079 
L 241.658363 149.136246 
L 241.963343 149.359339 
L 242.268323 149.686251 
L 242.573303 150.148679 
L 242.878283 150.774946 
L 243.183263 151.580295 
L 243.488243 152.555092 
L 243.793223 153.654344 
L 244.098203 154.793247 
L 244.403183 155.853147 
L 244.708163 156.699587 
L 245.013143 157.209641 
L 245.318123 157.301184 
L 245.623103 156.954575 
L 245.928083 156.218889 
L 246.233063 155.200138 
L 246.538043 154.035474 
L 246.843023 152.862217 
L 247.148003 151.791448 
L 247.452983 150.892977 
L 247.757963 150.193398 
L 248.062943 149.684367 
L 248.367923 149.335868 
L 248.672903 149.109389 
L 248.977883 148.967769 
L 249.282863 148.880687 
L 249.587843 148.826365 
L 249.892823 148.790838 
L 250.197803 148.766078 
L 250.502783 148.747959 
L 250.807763 148.734562 
L 251.112743 148.725012 
L 251.417723 148.71881 
L 251.722703 148.715518 
L 252.027683 148.714651 
L 252.332663 148.715658 
L 252.637643 148.717923 
L 252.942623 148.720784 
L 253.247603 148.723573 
L 253.552583 148.725684 
L 253.857563 148.726669 
L 254.162542 148.726326 
L 254.467522 148.724742 
L 254.772502 148.722265 
L 255.077482 148.719426 
L 255.382462 148.716809 
L 255.687442 148.714936 
L 255.992422 148.714171 
L 256.297402 148.714658 
L 256.602382 148.716306 
L 256.907362 148.718796 
L 257.212342 148.721635 
L 257.517322 148.724241 
L 257.822302 148.726057 
L 258.127282 148.726678 
L 258.127282 148.680395 
L 258.127282 148.680395 
L 257.822302 148.681016 
L 257.517322 148.682833 
L 257.212342 148.685438 
L 256.907362 148.688278 
L 256.602382 148.690768 
L 256.297402 148.692416 
L 255.992422 148.692903 
L 255.687442 148.692137 
L 255.382462 148.690265 
L 255.077482 148.687648 
L 254.772502 148.684808 
L 254.467522 148.682332 
L 254.162542 148.680748 
L 253.857563 148.680405 
L 253.552583 148.68139 
L 253.247603 148.6835 
L 252.942623 148.686289 
L 252.637643 148.689151 
L 252.332663 148.691416 
L 252.027683 148.692422 
L 251.722703 148.691555 
L 251.417723 148.688263 
L 251.112743 148.682062 
L 250.807763 148.672512 
L 250.502783 148.659114 
L 250.197803 148.640995 
L 249.892823 148.616235 
L 249.587843 148.580708 
L 249.282863 148.526387 
L 248.977883 148.439304 
L 248.672903 148.297685 
L 248.367923 148.071205 
L 248.062943 147.722706 
L 247.757963 147.213675 
L 247.452983 146.514096 
L 247.148003 145.615626 
L 246.843023 144.544857 
L 246.538043 143.371599 
L 246.233063 142.206936 
L 245.928083 141.188184 
L 245.623103 140.452499 
L 245.318123 140.10589 
L 245.013143 140.197433 
L 244.708163 140.707486 
L 244.403183 141.553927 
L 244.098203 142.613827 
L 243.793223 143.75273 
L 243.488243 144.851982 
L 243.183263 145.826779 
L 242.878283 146.632127 
L 242.573303 147.258395 
L 242.268323 147.720822 
L 241.963343 148.047734 
L 241.658363 148.270828 
L 241.353383 148.418994 
L 241.048403 148.515535 
L 240.743423 148.577755 
L 240.438443 148.617792 
L 240.133463 148.643822 
L 239.828483 148.66117 
L 239.523503 148.673174 
L 239.218523 148.681829 
L 238.913543 148.688256 
L 238.608563 148.693059 
L 238.303583 148.696568 
L 237.998604 148.698987 
L 237.693624 148.700468 
L 237.388644 148.701121 
L 237.083664 148.701012 
L 236.778684 148.700161 
L 236.473704 148.698562 
L 236.168724 148.696232 
L 235.863744 148.693263 
L 235.558764 148.689868 
L 235.253784 148.686389 
L 234.948804 148.683233 
L 234.643824 148.680758 
L 234.338844 148.6791 
L 234.033864 148.677988 
L 233.728884 148.676581 
L 233.423904 148.67336 
L 233.118924 148.666111 
L 232.813944 148.65202 
L 232.508964 148.627947 
L 232.203984 148.590922 
L 231.899004 148.538872 
L 231.594024 148.471501 
L 231.289044 148.391105 
L 230.984064 148.303015 
L 230.679084 148.215357 
L 230.374104 148.13798 
L 230.069124 148.080681 
L 229.764144 148.051161 
L 229.459164 148.053302 
L 229.154184 148.08633 
L 228.849204 148.145109 
L 228.544224 148.221457 
L 228.239244 148.306007 
L 227.934264 148.390048 
z
" style="fill:#ff0000;fill-opacity:0.75;"/>
   </g>
   <g id="PolyCollection_7">
    <path clip-path="url(#p26a2d66ab6)" d="M 229.030602 113.599612 
L 229.030602 115.026285 
L 231.211199 114.993014 
L 233.391796 114.707084 
L 235.572393 114.5071 
L 237.752991 114.770038 
L 239.933588 116.230552 
L 242.114185 119.53472 
L 244.294782 122.910596 
L 246.475379 122.820555 
L 248.655976 119.380797 
L 250.836573 116.151002 
L 253.01717 114.738891 
L 255.197767 114.398389 
L 257.378364 114.354562 
L 259.558961 114.351047 
L 261.739558 114.341439 
L 263.920155 114.327531 
L 266.100753 114.317762 
L 268.28135 114.313936 
L 270.461947 114.313072 
L 272.642544 114.312958 
L 274.823141 114.312949 
L 277.003738 114.312949 
L 279.184335 114.312949 
L 281.364932 114.312949 
L 283.545529 114.312949 
L 285.726126 114.312949 
L 287.906723 114.312949 
L 290.08732 114.312949 
L 292.267917 114.312949 
L 294.448515 114.312949 
L 296.629112 114.312949 
L 298.809709 114.312949 
L 300.990306 114.312949 
L 303.170903 114.312949 
L 305.3515 114.312949 
L 307.532097 114.312949 
L 309.712694 114.312949 
L 311.893291 114.312949 
L 314.073888 114.312949 
L 316.254485 114.312949 
L 318.435082 114.312949 
L 320.615679 114.312949 
L 322.796277 114.312949 
L 324.976874 114.312949 
L 327.157471 114.312949 
L 329.338068 114.312949 
L 331.518665 114.312949 
L 333.699262 114.312949 
L 335.879859 114.312949 
L 338.060456 114.312949 
L 340.241053 114.312949 
L 342.42165 114.312949 
L 344.602247 114.312949 
L 346.782844 114.312949 
L 348.963441 114.312949 
L 351.144039 114.312949 
L 353.324636 114.312949 
L 355.505233 114.312949 
L 357.68583 114.312949 
L 359.866427 114.312949 
L 362.047024 114.312949 
L 364.227621 114.312949 
L 366.408218 114.312949 
L 368.588815 114.312949 
L 370.769412 114.312949 
L 372.950009 114.312949 
L 375.130606 114.312949 
L 377.311203 114.312949 
L 379.491801 114.312949 
L 381.672398 114.312949 
L 383.852995 114.312949 
L 386.033592 114.312949 
L 388.214189 114.312949 
L 390.394786 114.312949 
L 392.575383 114.312949 
L 394.75598 114.312949 
L 396.936577 114.312949 
L 399.117174 114.312949 
L 401.297771 114.312949 
L 403.478368 114.312949 
L 405.658965 114.312949 
L 407.839563 114.312949 
L 410.02016 114.312949 
L 412.200757 114.312949 
L 414.381354 114.312949 
L 416.561951 114.312949 
L 418.742548 114.312949 
L 420.923145 114.312949 
L 423.103742 114.312949 
L 425.284339 114.312949 
L 427.464936 114.312949 
L 429.645533 114.312949 
L 431.82613 114.31295 
L 434.006727 114.312982 
L 436.187325 114.313295 
L 438.367922 114.315081 
L 440.548519 114.320754 
L 442.729116 114.329951 
L 444.909713 114.334988 
L 444.909713 114.290909 
L 444.909713 114.290909 
L 442.729116 114.295946 
L 440.548519 114.305143 
L 438.367922 114.310816 
L 436.187325 114.312602 
L 434.006727 114.312915 
L 431.82613 114.312947 
L 429.645533 114.312948 
L 427.464936 114.312949 
L 425.284339 114.312949 
L 423.103742 114.312949 
L 420.923145 114.312949 
L 418.742548 114.312949 
L 416.561951 114.312949 
L 414.381354 114.312949 
L 412.200757 114.312949 
L 410.02016 114.312949 
L 407.839563 114.312949 
L 405.658965 114.312949 
L 403.478368 114.312949 
L 401.297771 114.312949 
L 399.117174 114.312949 
L 396.936577 114.312949 
L 394.75598 114.312949 
L 392.575383 114.312949 
L 390.394786 114.312949 
L 388.214189 114.312949 
L 386.033592 114.312949 
L 383.852995 114.312949 
L 381.672398 114.312949 
L 379.491801 114.312949 
L 377.311203 114.312949 
L 375.130606 114.312949 
L 372.950009 114.312949 
L 370.769412 114.312949 
L 368.588815 114.312949 
L 366.408218 114.312949 
L 364.227621 114.312949 
L 362.047024 114.312949 
L 359.866427 114.312949 
L 357.68583 114.312949 
L 355.505233 114.312949 
L 353.324636 114.312949 
L 351.144039 114.312949 
L 348.963441 114.312949 
L 346.782844 114.312949 
L 344.602247 114.312949 
L 342.42165 114.312949 
L 340.241053 114.312949 
L 338.060456 114.312949 
L 335.879859 114.312949 
L 333.699262 114.312949 
L 331.518665 114.312949 
L 329.338068 114.312949 
L 327.157471 114.312949 
L 324.976874 114.312949 
L 322.796277 114.312949 
L 320.615679 114.312949 
L 318.435082 114.312949 
L 316.254485 114.312949 
L 314.073888 114.312949 
L 311.893291 114.312949 
L 309.712694 114.312949 
L 307.532097 114.312949 
L 305.3515 114.312949 
L 303.170903 114.312949 
L 300.990306 114.312949 
L 298.809709 114.312949 
L 296.629112 114.312949 
L 294.448515 114.312949 
L 292.267917 114.312949 
L 290.08732 114.312949 
L 287.906723 114.312949 
L 285.726126 114.312949 
L 283.545529 114.312949 
L 281.364932 114.312949 
L 279.184335 114.312949 
L 277.003738 114.312949 
L 274.823141 114.312948 
L 272.642544 114.312939 
L 270.461947 114.312826 
L 268.28135 114.311962 
L 266.100753 114.308135 
L 263.920155 114.298366 
L 261.739558 114.284458 
L 259.558961 114.27485 
L 257.378364 114.271335 
L 255.197767 114.227508 
L 253.01717 113.887006 
L 250.836573 112.474895 
L 248.655976 109.2451 
L 246.475379 105.805342 
L 244.294782 105.715301 
L 242.114185 109.091177 
L 239.933588 112.395345 
L 237.752991 113.855859 
L 235.572393 114.118797 
L 233.391796 113.918813 
L 231.211199 113.632883 
L 229.030602 113.599612 
z
" style="fill:#ff0000;fill-opacity:0.75;"/>
   </g>
   <g id="PolyCollection_8">
    <path clip-path="url(#p26a2d66ab6)" d="M 228.717378 79.881143 
L 228.717378 79.963577 
L 229.059538 79.974164 
L 229.401698 79.980862 
L 229.743859 79.980453 
L 230.086019 79.971469 
L 230.428179 79.956734 
L 230.770339 79.941924 
L 231.1125 79.93132 
L 231.45466 79.925645 
L 231.79682 79.923321 
L 232.13898 79.922584 
L 232.481141 79.922403 
L 232.823301 79.922372 
L 233.165461 79.922397 
L 233.507622 79.922542 
L 233.849782 79.923092 
L 234.191942 79.924702 
L 234.534102 79.928299 
L 234.876263 79.93431 
L 235.218423 79.941435 
L 235.560583 79.946526 
L 235.902744 79.946733 
L 236.244904 79.942226 
L 236.587064 79.936432 
L 236.929224 79.933462 
L 237.271385 79.935324 
L 237.613545 79.940767 
L 237.955705 79.945985 
L 238.297865 79.947104 
L 238.640026 79.943105 
L 238.982186 79.936524 
L 239.324346 79.931299 
L 239.666507 79.930434 
L 240.008667 79.935395 
L 240.350827 79.946299 
L 240.692987 79.961515 
L 241.035148 79.977252 
L 241.377308 79.988546 
L 241.719468 79.992337 
L 242.061629 79.991131 
L 242.403789 79.993343 
L 242.745949 80.008862 
L 243.088109 80.046443 
L 243.43027 80.123848 
L 243.77243 80.294976 
L 244.11459 80.682143 
L 244.45675 81.475652 
L 244.798911 82.843849 
L 245.141071 84.745076 
L 245.483231 86.770277 
L 245.825392 88.228041 
L 246.167552 88.520007 
L 246.509712 87.537494 
L 246.851872 85.724951 
L 247.194033 83.762917 
L 247.536193 82.170989 
L 247.878353 81.129963 
L 248.220514 80.556354 
L 248.562674 80.27305 
L 248.904834 80.13314 
L 249.246994 80.056701 
L 249.589155 80.012855 
L 249.931315 79.991009 
L 250.273475 79.983172 
L 250.615635 79.979566 
L 250.957796 79.972576 
L 251.299956 79.96141 
L 251.642116 79.951113 
L 251.984277 79.946631 
L 252.326437 79.948235 
L 252.668597 79.952286 
L 253.010757 79.955303 
L 253.352918 79.956343 
L 253.695078 79.95563 
L 254.037238 79.952666 
L 254.379399 79.947166 
L 254.721559 79.941022 
L 255.063719 79.93766 
L 255.405879 79.939056 
L 255.74804 79.943641 
L 256.0902 79.947215 
L 256.43236 79.946289 
L 256.77452 79.940897 
L 257.116681 79.934196 
L 257.458841 79.92976 
L 257.801001 79.929583 
L 258.143162 79.933737 
L 258.485322 79.940381 
L 258.827482 79.946039 
L 259.169642 79.947505 
L 259.511803 79.944772 
L 259.853963 79.941967 
L 260.196123 79.944881 
L 260.538284 79.956831 
L 260.880444 79.975562 
L 261.222604 79.993529 
L 261.564764 80.002539 
L 261.906925 79.999445 
L 262.249085 79.987265 
L 262.591245 79.971277 
L 262.591245 79.873443 
L 262.591245 79.873443 
L 262.249085 79.857456 
L 261.906925 79.845276 
L 261.564764 79.842182 
L 261.222604 79.851192 
L 260.880444 79.869159 
L 260.538284 79.887889 
L 260.196123 79.89984 
L 259.853963 79.902754 
L 259.511803 79.899949 
L 259.169642 79.897215 
L 258.827482 79.898682 
L 258.485322 79.90434 
L 258.143162 79.910984 
L 257.801001 79.915138 
L 257.458841 79.91496 
L 257.116681 79.910524 
L 256.77452 79.903824 
L 256.43236 79.898431 
L 256.0902 79.897506 
L 255.74804 79.901079 
L 255.405879 79.905664 
L 255.063719 79.907061 
L 254.721559 79.903698 
L 254.379399 79.897554 
L 254.037238 79.892054 
L 253.695078 79.88909 
L 253.352918 79.888378 
L 253.010757 79.889417 
L 252.668597 79.892435 
L 252.326437 79.896486 
L 251.984277 79.898089 
L 251.642116 79.893607 
L 251.299956 79.88331 
L 250.957796 79.872145 
L 250.615635 79.865154 
L 250.273475 79.861549 
L 249.931315 79.853711 
L 249.589155 79.831866 
L 249.246994 79.78802 
L 248.904834 79.71158 
L 248.562674 79.57167 
L 248.220514 79.288367 
L 247.878353 78.714758 
L 247.536193 77.673732 
L 247.194033 76.081804 
L 246.851872 74.11977 
L 246.509712 72.307226 
L 246.167552 71.324713 
L 245.825392 71.61668 
L 245.483231 73.074443 
L 245.141071 75.099645 
L 244.798911 77.000872 
L 244.45675 78.369069 
L 244.11459 79.162578 
L 243.77243 79.549745 
L 243.43027 79.720873 
L 243.088109 79.798277 
L 242.745949 79.835859 
L 242.403789 79.851378 
L 242.061629 79.85359 
L 241.719468 79.852383 
L 241.377308 79.856175 
L 241.035148 79.867468 
L 240.692987 79.883206 
L 240.350827 79.898422 
L 240.008667 79.909325 
L 239.666507 79.914287 
L 239.324346 79.913421 
L 238.982186 79.908197 
L 238.640026 79.901615 
L 238.297865 79.897617 
L 237.955705 79.898735 
L 237.613545 79.903953 
L 237.271385 79.909396 
L 236.929224 79.911258 
L 236.587064 79.908288 
L 236.244904 79.902495 
L 235.902744 79.897988 
L 235.560583 79.898194 
L 235.218423 79.903286 
L 234.876263 79.91041 
L 234.534102 79.916421 
L 234.191942 79.920019 
L 233.849782 79.921628 
L 233.507622 79.922179 
L 233.165461 79.922324 
L 232.823301 79.922349 
L 232.481141 79.922318 
L 232.13898 79.922136 
L 231.79682 79.9214 
L 231.45466 79.919076 
L 231.1125 79.9134 
L 230.770339 79.902797 
L 230.428179 79.887986 
L 230.086019 79.873252 
L 229.743859 79.864267 
L 229.401698 79.863858 
L 229.059538 79.870556 
L 228.717378 79.881143 
z
" style="fill:#ff0000;fill-opacity:0.75;"/>
   </g>
   <g id="PolyCollection_9">
    <path clip-path="url(#p26a2d66ab6)" d="M 241.294069 45.473809 
L 241.294069 45.589736 
L 241.378979 45.580463 
L 241.463888 45.560635 
L 241.548798 45.543845 
L 241.633707 45.535336 
L 241.718617 45.532514 
L 241.803526 45.531881 
L 241.888435 45.531783 
L 241.973345 45.531773 
L 242.058254 45.531772 
L 242.143164 45.531772 
L 242.228073 45.531772 
L 242.312983 45.531772 
L 242.397892 45.531772 
L 242.482802 45.531772 
L 242.567711 45.531772 
L 242.652621 45.531772 
L 242.73753 45.531772 
L 242.82244 45.531772 
L 242.907349 45.531772 
L 242.992259 45.531772 
L 243.077168 45.531772 
L 243.162078 45.531772 
L 243.246987 45.531772 
L 243.331897 45.531772 
L 243.416806 45.531772 
L 243.501716 45.531773 
L 243.586625 45.531782 
L 243.671535 45.531887 
L 243.756444 45.532697 
L 243.841353 45.537075 
L 243.926263 45.553624 
L 244.011172 45.597121 
L 244.096082 45.67677 
L 244.180991 45.783164 
L 244.265901 45.909446 
L 244.35081 46.091227 
L 244.43572 46.391115 
L 244.520629 46.850043 
L 244.605539 47.504743 
L 244.690448 48.423935 
L 244.775358 49.629675 
L 244.860267 50.953738 
L 244.945177 52.064038 
L 245.030086 52.738106 
L 245.114996 53.051879 
L 245.199905 53.229594 
L 245.284815 53.450008 
L 245.369724 53.793574 
L 245.454634 54.129419 
L 245.539543 54.09918 
L 245.624453 53.422591 
L 245.709362 52.162347 
L 245.794272 50.650454 
L 245.879181 49.250646 
L 245.96409 48.165902 
L 246.049 47.391828 
L 246.133909 46.819948 
L 246.218819 46.368593 
L 246.303728 46.025437 
L 246.388638 45.801969 
L 246.473547 45.684433 
L 246.558457 45.633931 
L 246.643366 45.609757 
L 246.728276 45.587088 
L 246.813185 45.562918 
L 246.898095 45.545134 
L 246.983004 45.538136 
L 247.067914 45.541918 
L 247.152823 45.556135 
L 247.237733 45.576192 
L 247.322642 45.589175 
L 247.407552 45.584131 
L 247.492461 45.565473 
L 247.577371 45.547079 
L 247.66228 45.536678 
L 247.74719 45.532882 
L 247.832099 45.531949 
L 247.917008 45.531792 
L 248.001918 45.531774 
L 248.086827 45.531772 
L 248.171737 45.531772 
L 248.256646 45.531772 
L 248.341556 45.531772 
L 248.426465 45.531772 
L 248.511375 45.531772 
L 248.596284 45.531772 
L 248.681194 45.531772 
L 248.766103 45.531772 
L 248.851013 45.531772 
L 248.935922 45.531772 
L 249.020832 45.531773 
L 249.105741 45.531783 
L 249.190651 45.531881 
L 249.27556 45.532514 
L 249.36047 45.535336 
L 249.445379 45.543845 
L 249.530289 45.560635 
L 249.615198 45.580463 
L 249.700108 45.589736 
L 249.700108 45.473809 
L 249.700108 45.473809 
L 249.615198 45.483081 
L 249.530289 45.502909 
L 249.445379 45.519699 
L 249.36047 45.528209 
L 249.27556 45.53103 
L 249.190651 45.531663 
L 249.105741 45.531761 
L 249.020832 45.531771 
L 248.935922 45.531772 
L 248.851013 45.531772 
L 248.766103 45.531772 
L 248.681194 45.531772 
L 248.596284 45.531772 
L 248.511375 45.531772 
L 248.426465 45.531772 
L 248.341556 45.531772 
L 248.256646 45.531772 
L 248.171737 45.531772 
L 248.086827 45.531772 
L 248.001918 45.53177 
L 247.917008 45.531752 
L 247.832099 45.531595 
L 247.74719 45.530662 
L 247.66228 45.526866 
L 247.577371 45.516465 
L 247.492461 45.498071 
L 247.407552 45.479413 
L 247.322642 45.474369 
L 247.237733 45.487352 
L 247.152823 45.507409 
L 247.067914 45.521627 
L 246.983004 45.525408 
L 246.898095 45.51841 
L 246.813185 45.500626 
L 246.728276 45.476457 
L 246.643366 45.453787 
L 246.558457 45.429613 
L 246.473547 45.379111 
L 246.388638 45.261575 
L 246.303728 45.038107 
L 246.218819 44.694951 
L 246.133909 44.243596 
L 246.049 43.671716 
L 245.96409 42.897642 
L 245.879181 41.812898 
L 245.794272 40.41309 
L 245.709362 38.901197 
L 245.624453 37.640953 
L 245.539543 36.964365 
L 245.454634 36.934125 
L 245.369724 37.26997 
L 245.284815 37.613536 
L 245.199905 37.83395 
L 245.114996 38.011665 
L 245.030086 38.325438 
L 244.945177 38.999506 
L 244.860267 40.109806 
L 244.775358 41.433869 
L 244.690448 42.639609 
L 244.605539 43.558801 
L 244.520629 44.213501 
L 244.43572 44.67243 
L 244.35081 44.972317 
L 244.265901 45.154098 
L 244.180991 45.28038 
L 244.096082 45.386775 
L 244.011172 45.466423 
L 243.926263 45.50992 
L 243.841353 45.526469 
L 243.756444 45.530847 
L 243.671535 45.531657 
L 243.586625 45.531762 
L 243.501716 45.531771 
L 243.416806 45.531772 
L 243.331897 45.531772 
L 243.246987 45.531772 
L 243.162078 45.531772 
L 243.077168 45.531772 
L 242.992259 45.531772 
L 242.907349 45.531772 
L 242.82244 45.531772 
L 242.73753 45.531772 
L 242.652621 45.531772 
L 242.567711 45.531772 
L 242.482802 45.531772 
L 242.397892 45.531772 
L 242.312983 45.531772 
L 242.228073 45.531772 
L 242.143164 45.531772 
L 242.058254 45.531772 
L 241.973345 45.531771 
L 241.888435 45.531761 
L 241.803526 45.531663 
L 241.718617 45.53103 
L 241.633707 45.528209 
L 241.548798 45.519699 
L 241.463888 45.502909 
L 241.378979 45.483081 
L 241.294069 45.473809 
z
" style="fill:#ff0000;fill-opacity:0.75;"/>
   </g>
   <g id="LineCollection_1">
    <path clip-path="url(#p26a2d66ab6)" d="M 245.214276 324.955301 
L 245.214276 316.357654 
" style="fill:none;stroke:#000000;stroke-width:1.5;"/>
    <path clip-path="url(#p26a2d66ab6)" d="M 244.611291 290.564713 
L 244.611291 281.967066 
" style="fill:none;stroke:#000000;stroke-width:1.5;"/>
    <path clip-path="url(#p26a2d66ab6)" d="M 245.346149 256.174125 
L 245.346149 247.576478 
" style="fill:none;stroke:#000000;stroke-width:1.5;"/>
    <path clip-path="url(#p26a2d66ab6)" d="M 244.182665 221.783537 
L 244.182665 213.18589 
" style="fill:none;stroke:#000000;stroke-width:1.5;"/>
    <path clip-path="url(#p26a2d66ab6)" d="M 243.945657 187.392949 
L 243.945657 178.795301 
" style="fill:none;stroke:#000000;stroke-width:1.5;"/>
    <path clip-path="url(#p26a2d66ab6)" d="M 244.117603 153.00236 
L 244.117603 144.404713 
" style="fill:none;stroke:#000000;stroke-width:1.5;"/>
    <path clip-path="url(#p26a2d66ab6)" d="M 244.698088 118.611772 
L 244.698088 110.014125 
" style="fill:none;stroke:#000000;stroke-width:1.5;"/>
    <path clip-path="url(#p26a2d66ab6)" d="M 246.164166 84.221184 
L 246.164166 75.623537 
" style="fill:none;stroke:#000000;stroke-width:1.5;"/>
    <path clip-path="url(#p26a2d66ab6)" d="M 245.330078 49.830596 
L 245.330078 41.232949 
" style="fill:none;stroke:#000000;stroke-width:1.5;"/>
   </g>
   <g id="patch_3">
    <path d="M 226.746875 343.870125 
L 226.746875 22.318125 
" style="fill:none;stroke:#000000;stroke-linecap:square;stroke-linejoin:miter;stroke-width:0.8;"/>
   </g>
   <g id="patch_4">
    <path d="M 617.346875 343.870125 
L 617.346875 22.318125 
" style="fill:none;stroke:#000000;stroke-linecap:square;stroke-linejoin:miter;stroke-width:0.8;"/>
   </g>
   <g id="patch_5">
    <path d="M 226.746875 343.870125 
L 617.346875 343.870125 
" style="fill:none;stroke:#000000;stroke-linecap:square;stroke-linejoin:miter;stroke-width:0.8;"/>
   </g>
   <g id="patch_6">
    <path d="M 226.746875 22.318125 
L 617.346875 22.318125 
" style="fill:none;stroke:#000000;stroke-linecap:square;stroke-linejoin:miter;stroke-width:0.8;"/>
   </g>
   <g id="text_18">
    <!-- OE2 for 2.0 -->
    <defs>
     <path d="M 10.6875 12.40625 
L 21 12.40625 
L 21 0 
L 10.6875 0 
z
" id="DejaVuSans-2e"/>
    </defs>
    <g transform="translate(388.109375 16.318125)scale(0.12 -0.12)">
     <use xlink:href="#DejaVuSans-4f"/>
     <use x="78.710938" xlink:href="#DejaVuSans-45"/>
     <use x="141.894531" xlink:href="#DejaVuSans-32"/>
     <use x="205.517578" xlink:href="#DejaVuSans-20"/>
     <use x="237.304688" xlink:href="#DejaVuSans-66"/>
     <use x="272.509766" xlink:href="#DejaVuSans-6f"/>
     <use x="333.691406" xlink:href="#DejaVuSans-72"/>
     <use x="374.804688" xlink:href="#DejaVuSans-20"/>
     <use x="406.591797" xlink:href="#DejaVuSans-32"/>
     <use x="470.214844" xlink:href="#DejaVuSans-2e"/>
     <use x="502.001953" xlink:href="#DejaVuSans-30"/>
    </g>
   </g>
  </g>
 </g>
 <defs>
  <clipPath id="p26a2d66ab6">
   <rect height="321.552" width="390.6" x="226.746875" y="22.318125"/>
  </clipPath>
 </defs>
</svg>
