<?xml version="1.0" encoding="utf-8" standalone="no"?>
<!DOCTYPE svg PUBLIC "-//W3C//DTD SVG 1.1//EN"
  "http://www.w3.org/Graphics/SVG/1.1/DTD/svg11.dtd">
<!-- Created with matplotlib (http://matplotlib.org/) -->
<svg height="381.426375pt" version="1.1" viewBox="0 0 630.909375 381.426375" width="630.909375pt" xmlns="http://www.w3.org/2000/svg" xmlns:xlink="http://www.w3.org/1999/xlink">
 <defs>
  <style type="text/css">
*{stroke-linecap:butt;stroke-linejoin:round;}
  </style>
 </defs>
 <g id="figure_1">
  <g id="patch_1">
   <path d="M -0 381.426375 
L 630.909375 381.426375 
L 630.909375 0 
L -0 0 
z
" style="fill:#ffffff;"/>
  </g>
  <g id="axes_1">
   <g id="patch_2">
    <path d="M 226.746875 343.870125 
L 617.346875 343.870125 
L 617.346875 22.318125 
L 226.746875 22.318125 
z
" style="fill:#ffffff;"/>
   </g>
   <g id="matplotlib.axis_1">
    <g id="xtick_1">
     <g id="line2d_1">
      <path clip-path="url(#p80b8922083)" d="M 226.746875 343.870125 
L 226.746875 22.318125 
" style="fill:none;stroke:#b0b0b0;stroke-linecap:square;stroke-width:0.8;"/>
     </g>
     <g id="line2d_2">
      <defs>
       <path d="M 0 0 
L 0 3.5 
" id="m2083c553b2" style="stroke:#000000;stroke-width:0.8;"/>
      </defs>
      <g>
       <use style="stroke:#000000;stroke-width:0.8;" x="226.746875" xlink:href="#m2083c553b2" y="343.870125"/>
      </g>
     </g>
     <g id="text_1">
      <!-- 0 -->
      <defs>
       <path d="M 31.78125 66.40625 
Q 24.171875 66.40625 20.328125 58.90625 
Q 16.5 51.421875 16.5 36.375 
Q 16.5 21.390625 20.328125 13.890625 
Q 24.171875 6.390625 31.78125 6.390625 
Q 39.453125 6.390625 43.28125 13.890625 
Q 47.125 21.390625 47.125 36.375 
Q 47.125 51.421875 43.28125 58.90625 
Q 39.453125 66.40625 31.78125 66.40625 
z
M 31.78125 74.21875 
Q 44.046875 74.21875 50.515625 64.515625 
Q 56.984375 54.828125 56.984375 36.375 
Q 56.984375 17.96875 50.515625 8.265625 
Q 44.046875 -1.421875 31.78125 -1.421875 
Q 19.53125 -1.421875 13.0625 8.265625 
Q 6.59375 17.96875 6.59375 36.375 
Q 6.59375 54.828125 13.0625 64.515625 
Q 19.53125 74.21875 31.78125 74.21875 
z
" id="DejaVuSans-30"/>
      </defs>
      <g transform="translate(223.565625 358.468563)scale(0.1 -0.1)">
       <use xlink:href="#DejaVuSans-30"/>
      </g>
     </g>
    </g>
    <g id="xtick_2">
     <g id="line2d_3">
      <path clip-path="url(#p80b8922083)" d="M 304.866875 343.870125 
L 304.866875 22.318125 
" style="fill:none;stroke:#b0b0b0;stroke-linecap:square;stroke-width:0.8;"/>
     </g>
     <g id="line2d_4">
      <g>
       <use style="stroke:#000000;stroke-width:0.8;" x="304.866875" xlink:href="#m2083c553b2" y="343.870125"/>
      </g>
     </g>
     <g id="text_2">
      <!-- 2 -->
      <defs>
       <path d="M 19.1875 8.296875 
L 53.609375 8.296875 
L 53.609375 0 
L 7.328125 0 
L 7.328125 8.296875 
Q 12.9375 14.109375 22.625 23.890625 
Q 32.328125 33.6875 34.8125 36.53125 
Q 39.546875 41.84375 41.421875 45.53125 
Q 43.3125 49.21875 43.3125 52.78125 
Q 43.3125 58.59375 39.234375 62.25 
Q 35.15625 65.921875 28.609375 65.921875 
Q 23.96875 65.921875 18.8125 64.3125 
Q 13.671875 62.703125 7.8125 59.421875 
L 7.8125 69.390625 
Q 13.765625 71.78125 18.9375 73 
Q 24.125 74.21875 28.421875 74.21875 
Q 39.75 74.21875 46.484375 68.546875 
Q 53.21875 62.890625 53.21875 53.421875 
Q 53.21875 48.921875 51.53125 44.890625 
Q 49.859375 40.875 45.40625 35.40625 
Q 44.1875 33.984375 37.640625 27.21875 
Q 31.109375 20.453125 19.1875 8.296875 
z
" id="DejaVuSans-32"/>
      </defs>
      <g transform="translate(301.685625 358.468563)scale(0.1 -0.1)">
       <use xlink:href="#DejaVuSans-32"/>
      </g>
     </g>
    </g>
    <g id="xtick_3">
     <g id="line2d_5">
      <path clip-path="url(#p80b8922083)" d="M 382.986875 343.870125 
L 382.986875 22.318125 
" style="fill:none;stroke:#b0b0b0;stroke-linecap:square;stroke-width:0.8;"/>
     </g>
     <g id="line2d_6">
      <g>
       <use style="stroke:#000000;stroke-width:0.8;" x="382.986875" xlink:href="#m2083c553b2" y="343.870125"/>
      </g>
     </g>
     <g id="text_3">
      <!-- 4 -->
      <defs>
       <path d="M 37.796875 64.3125 
L 12.890625 25.390625 
L 37.796875 25.390625 
z
M 35.203125 72.90625 
L 47.609375 72.90625 
L 47.609375 25.390625 
L 58.015625 25.390625 
L 58.015625 17.1875 
L 47.609375 17.1875 
L 47.609375 0 
L 37.796875 0 
L 37.796875 17.1875 
L 4.890625 17.1875 
L 4.890625 26.703125 
z
" id="DejaVuSans-34"/>
      </defs>
      <g transform="translate(379.805625 358.468563)scale(0.1 -0.1)">
       <use xlink:href="#DejaVuSans-34"/>
      </g>
     </g>
    </g>
    <g id="xtick_4">
     <g id="line2d_7">
      <path clip-path="url(#p80b8922083)" d="M 461.106875 343.870125 
L 461.106875 22.318125 
" style="fill:none;stroke:#b0b0b0;stroke-linecap:square;stroke-width:0.8;"/>
     </g>
     <g id="line2d_8">
      <g>
       <use style="stroke:#000000;stroke-width:0.8;" x="461.106875" xlink:href="#m2083c553b2" y="343.870125"/>
      </g>
     </g>
     <g id="text_4">
      <!-- 6 -->
      <defs>
       <path d="M 33.015625 40.375 
Q 26.375 40.375 22.484375 35.828125 
Q 18.609375 31.296875 18.609375 23.390625 
Q 18.609375 15.53125 22.484375 10.953125 
Q 26.375 6.390625 33.015625 6.390625 
Q 39.65625 6.390625 43.53125 10.953125 
Q 47.40625 15.53125 47.40625 23.390625 
Q 47.40625 31.296875 43.53125 35.828125 
Q 39.65625 40.375 33.015625 40.375 
z
M 52.59375 71.296875 
L 52.59375 62.3125 
Q 48.875 64.0625 45.09375 64.984375 
Q 41.3125 65.921875 37.59375 65.921875 
Q 27.828125 65.921875 22.671875 59.328125 
Q 17.53125 52.734375 16.796875 39.40625 
Q 19.671875 43.65625 24.015625 45.921875 
Q 28.375 48.1875 33.59375 48.1875 
Q 44.578125 48.1875 50.953125 41.515625 
Q 57.328125 34.859375 57.328125 23.390625 
Q 57.328125 12.15625 50.6875 5.359375 
Q 44.046875 -1.421875 33.015625 -1.421875 
Q 20.359375 -1.421875 13.671875 8.265625 
Q 6.984375 17.96875 6.984375 36.375 
Q 6.984375 53.65625 15.1875 63.9375 
Q 23.390625 74.21875 37.203125 74.21875 
Q 40.921875 74.21875 44.703125 73.484375 
Q 48.484375 72.75 52.59375 71.296875 
z
" id="DejaVuSans-36"/>
      </defs>
      <g transform="translate(457.925625 358.468563)scale(0.1 -0.1)">
       <use xlink:href="#DejaVuSans-36"/>
      </g>
     </g>
    </g>
    <g id="xtick_5">
     <g id="line2d_9">
      <path clip-path="url(#p80b8922083)" d="M 539.226875 343.870125 
L 539.226875 22.318125 
" style="fill:none;stroke:#b0b0b0;stroke-linecap:square;stroke-width:0.8;"/>
     </g>
     <g id="line2d_10">
      <g>
       <use style="stroke:#000000;stroke-width:0.8;" x="539.226875" xlink:href="#m2083c553b2" y="343.870125"/>
      </g>
     </g>
     <g id="text_5">
      <!-- 8 -->
      <defs>
       <path d="M 31.78125 34.625 
Q 24.75 34.625 20.71875 30.859375 
Q 16.703125 27.09375 16.703125 20.515625 
Q 16.703125 13.921875 20.71875 10.15625 
Q 24.75 6.390625 31.78125 6.390625 
Q 38.8125 6.390625 42.859375 10.171875 
Q 46.921875 13.96875 46.921875 20.515625 
Q 46.921875 27.09375 42.890625 30.859375 
Q 38.875 34.625 31.78125 34.625 
z
M 21.921875 38.8125 
Q 15.578125 40.375 12.03125 44.71875 
Q 8.5 49.078125 8.5 55.328125 
Q 8.5 64.0625 14.71875 69.140625 
Q 20.953125 74.21875 31.78125 74.21875 
Q 42.671875 74.21875 48.875 69.140625 
Q 55.078125 64.0625 55.078125 55.328125 
Q 55.078125 49.078125 51.53125 44.71875 
Q 48 40.375 41.703125 38.8125 
Q 48.828125 37.15625 52.796875 32.3125 
Q 56.78125 27.484375 56.78125 20.515625 
Q 56.78125 9.90625 50.3125 4.234375 
Q 43.84375 -1.421875 31.78125 -1.421875 
Q 19.734375 -1.421875 13.25 4.234375 
Q 6.78125 9.90625 6.78125 20.515625 
Q 6.78125 27.484375 10.78125 32.3125 
Q 14.796875 37.15625 21.921875 38.8125 
z
M 18.3125 54.390625 
Q 18.3125 48.734375 21.84375 45.5625 
Q 25.390625 42.390625 31.78125 42.390625 
Q 38.140625 42.390625 41.71875 45.5625 
Q 45.3125 48.734375 45.3125 54.390625 
Q 45.3125 60.0625 41.71875 63.234375 
Q 38.140625 66.40625 31.78125 66.40625 
Q 25.390625 66.40625 21.84375 63.234375 
Q 18.3125 60.0625 18.3125 54.390625 
z
" id="DejaVuSans-38"/>
      </defs>
      <g transform="translate(536.045625 358.468563)scale(0.1 -0.1)">
       <use xlink:href="#DejaVuSans-38"/>
      </g>
     </g>
    </g>
    <g id="xtick_6">
     <g id="line2d_11">
      <path clip-path="url(#p80b8922083)" d="M 617.346875 343.870125 
L 617.346875 22.318125 
" style="fill:none;stroke:#b0b0b0;stroke-linecap:square;stroke-width:0.8;"/>
     </g>
     <g id="line2d_12">
      <g>
       <use style="stroke:#000000;stroke-width:0.8;" x="617.346875" xlink:href="#m2083c553b2" y="343.870125"/>
      </g>
     </g>
     <g id="text_6">
      <!-- 10 -->
      <defs>
       <path d="M 12.40625 8.296875 
L 28.515625 8.296875 
L 28.515625 63.921875 
L 10.984375 60.40625 
L 10.984375 69.390625 
L 28.421875 72.90625 
L 38.28125 72.90625 
L 38.28125 8.296875 
L 54.390625 8.296875 
L 54.390625 0 
L 12.40625 0 
z
" id="DejaVuSans-31"/>
      </defs>
      <g transform="translate(610.984375 358.468563)scale(0.1 -0.1)">
       <use xlink:href="#DejaVuSans-31"/>
       <use x="63.623047" xlink:href="#DejaVuSans-30"/>
      </g>
     </g>
    </g>
    <g id="text_7">
     <!-- AOE2 (TO) -->
     <defs>
      <path d="M 34.1875 63.1875 
L 20.796875 26.90625 
L 47.609375 26.90625 
z
M 28.609375 72.90625 
L 39.796875 72.90625 
L 67.578125 0 
L 57.328125 0 
L 50.6875 18.703125 
L 17.828125 18.703125 
L 11.1875 0 
L 0.78125 0 
z
" id="DejaVuSans-41"/>
      <path d="M 39.40625 66.21875 
Q 28.65625 66.21875 22.328125 58.203125 
Q 16.015625 50.203125 16.015625 36.375 
Q 16.015625 22.609375 22.328125 14.59375 
Q 28.65625 6.59375 39.40625 6.59375 
Q 50.140625 6.59375 56.421875 14.59375 
Q 62.703125 22.609375 62.703125 36.375 
Q 62.703125 50.203125 56.421875 58.203125 
Q 50.140625 66.21875 39.40625 66.21875 
z
M 39.40625 74.21875 
Q 54.734375 74.21875 63.90625 63.9375 
Q 73.09375 53.65625 73.09375 36.375 
Q 73.09375 19.140625 63.90625 8.859375 
Q 54.734375 -1.421875 39.40625 -1.421875 
Q 24.03125 -1.421875 14.8125 8.828125 
Q 5.609375 19.09375 5.609375 36.375 
Q 5.609375 53.65625 14.8125 63.9375 
Q 24.03125 74.21875 39.40625 74.21875 
z
" id="DejaVuSans-4f"/>
      <path d="M 9.8125 72.90625 
L 55.90625 72.90625 
L 55.90625 64.59375 
L 19.671875 64.59375 
L 19.671875 43.015625 
L 54.390625 43.015625 
L 54.390625 34.71875 
L 19.671875 34.71875 
L 19.671875 8.296875 
L 56.78125 8.296875 
L 56.78125 0 
L 9.8125 0 
z
" id="DejaVuSans-45"/>
      <path id="DejaVuSans-20"/>
      <path d="M 31 75.875 
Q 24.46875 64.65625 21.28125 53.65625 
Q 18.109375 42.671875 18.109375 31.390625 
Q 18.109375 20.125 21.3125 9.0625 
Q 24.515625 -2 31 -13.1875 
L 23.1875 -13.1875 
Q 15.875 -1.703125 12.234375 9.375 
Q 8.59375 20.453125 8.59375 31.390625 
Q 8.59375 42.28125 12.203125 53.3125 
Q 15.828125 64.359375 23.1875 75.875 
z
" id="DejaVuSans-28"/>
      <path d="M -0.296875 72.90625 
L 61.375 72.90625 
L 61.375 64.59375 
L 35.5 64.59375 
L 35.5 0 
L 25.59375 0 
L 25.59375 64.59375 
L -0.296875 64.59375 
z
" id="DejaVuSans-54"/>
      <path d="M 8.015625 75.875 
L 15.828125 75.875 
Q 23.140625 64.359375 26.78125 53.3125 
Q 30.421875 42.28125 30.421875 31.390625 
Q 30.421875 20.453125 26.78125 9.375 
Q 23.140625 -1.703125 15.828125 -13.1875 
L 8.015625 -13.1875 
Q 14.5 -2 17.703125 9.0625 
Q 20.90625 20.125 20.90625 31.390625 
Q 20.90625 42.671875 17.703125 53.65625 
Q 14.5 64.65625 8.015625 75.875 
z
" id="DejaVuSans-29"/>
     </defs>
     <g transform="translate(395.870313 372.146687)scale(0.1 -0.1)">
      <use xlink:href="#DejaVuSans-41"/>
      <use x="68.392578" xlink:href="#DejaVuSans-4f"/>
      <use x="147.103516" xlink:href="#DejaVuSans-45"/>
      <use x="210.287109" xlink:href="#DejaVuSans-32"/>
      <use x="273.910156" xlink:href="#DejaVuSans-20"/>
      <use x="305.697266" xlink:href="#DejaVuSans-28"/>
      <use x="344.710938" xlink:href="#DejaVuSans-54"/>
      <use x="405.794922" xlink:href="#DejaVuSans-4f"/>
      <use x="484.505859" xlink:href="#DejaVuSans-29"/>
     </g>
    </g>
   </g>
   <g id="matplotlib.axis_2">
    <g id="ytick_1">
     <g id="line2d_13">
      <path clip-path="url(#p80b8922083)" d="M 226.746875 320.656478 
L 617.346875 320.656478 
" style="fill:none;stroke:#b0b0b0;stroke-linecap:square;stroke-width:0.8;"/>
     </g>
     <g id="line2d_14">
      <defs>
       <path d="M 0 0 
L -3.5 0 
" id="mb8074d1320" style="stroke:#000000;stroke-width:0.8;"/>
      </defs>
      <g>
       <use style="stroke:#000000;stroke-width:0.8;" x="226.746875" xlink:href="#mb8074d1320" y="320.656478"/>
      </g>
     </g>
     <g id="text_8">
      <!-- schreiber2018/ismir2018 -->
      <defs>
       <path d="M 44.28125 53.078125 
L 44.28125 44.578125 
Q 40.484375 46.53125 36.375 47.5 
Q 32.28125 48.484375 27.875 48.484375 
Q 21.1875 48.484375 17.84375 46.4375 
Q 14.5 44.390625 14.5 40.28125 
Q 14.5 37.15625 16.890625 35.375 
Q 19.28125 33.59375 26.515625 31.984375 
L 29.59375 31.296875 
Q 39.15625 29.25 43.1875 25.515625 
Q 47.21875 21.78125 47.21875 15.09375 
Q 47.21875 7.46875 41.1875 3.015625 
Q 35.15625 -1.421875 24.609375 -1.421875 
Q 20.21875 -1.421875 15.453125 -0.5625 
Q 10.6875 0.296875 5.421875 2 
L 5.421875 11.28125 
Q 10.40625 8.6875 15.234375 7.390625 
Q 20.0625 6.109375 24.8125 6.109375 
Q 31.15625 6.109375 34.5625 8.28125 
Q 37.984375 10.453125 37.984375 14.40625 
Q 37.984375 18.0625 35.515625 20.015625 
Q 33.0625 21.96875 24.703125 23.78125 
L 21.578125 24.515625 
Q 13.234375 26.265625 9.515625 29.90625 
Q 5.8125 33.546875 5.8125 39.890625 
Q 5.8125 47.609375 11.28125 51.796875 
Q 16.75 56 26.8125 56 
Q 31.78125 56 36.171875 55.265625 
Q 40.578125 54.546875 44.28125 53.078125 
z
" id="DejaVuSans-73"/>
       <path d="M 48.78125 52.59375 
L 48.78125 44.1875 
Q 44.96875 46.296875 41.140625 47.34375 
Q 37.3125 48.390625 33.40625 48.390625 
Q 24.65625 48.390625 19.8125 42.84375 
Q 14.984375 37.3125 14.984375 27.296875 
Q 14.984375 17.28125 19.8125 11.734375 
Q 24.65625 6.203125 33.40625 6.203125 
Q 37.3125 6.203125 41.140625 7.25 
Q 44.96875 8.296875 48.78125 10.40625 
L 48.78125 2.09375 
Q 45.015625 0.34375 40.984375 -0.53125 
Q 36.96875 -1.421875 32.421875 -1.421875 
Q 20.0625 -1.421875 12.78125 6.34375 
Q 5.515625 14.109375 5.515625 27.296875 
Q 5.515625 40.671875 12.859375 48.328125 
Q 20.21875 56 33.015625 56 
Q 37.15625 56 41.109375 55.140625 
Q 45.0625 54.296875 48.78125 52.59375 
z
" id="DejaVuSans-63"/>
       <path d="M 54.890625 33.015625 
L 54.890625 0 
L 45.90625 0 
L 45.90625 32.71875 
Q 45.90625 40.484375 42.875 44.328125 
Q 39.84375 48.1875 33.796875 48.1875 
Q 26.515625 48.1875 22.3125 43.546875 
Q 18.109375 38.921875 18.109375 30.90625 
L 18.109375 0 
L 9.078125 0 
L 9.078125 75.984375 
L 18.109375 75.984375 
L 18.109375 46.1875 
Q 21.34375 51.125 25.703125 53.5625 
Q 30.078125 56 35.796875 56 
Q 45.21875 56 50.046875 50.171875 
Q 54.890625 44.34375 54.890625 33.015625 
z
" id="DejaVuSans-68"/>
       <path d="M 41.109375 46.296875 
Q 39.59375 47.171875 37.8125 47.578125 
Q 36.03125 48 33.890625 48 
Q 26.265625 48 22.1875 43.046875 
Q 18.109375 38.09375 18.109375 28.8125 
L 18.109375 0 
L 9.078125 0 
L 9.078125 54.6875 
L 18.109375 54.6875 
L 18.109375 46.1875 
Q 20.953125 51.171875 25.484375 53.578125 
Q 30.03125 56 36.53125 56 
Q 37.453125 56 38.578125 55.875 
Q 39.703125 55.765625 41.0625 55.515625 
z
" id="DejaVuSans-72"/>
       <path d="M 56.203125 29.59375 
L 56.203125 25.203125 
L 14.890625 25.203125 
Q 15.484375 15.921875 20.484375 11.0625 
Q 25.484375 6.203125 34.421875 6.203125 
Q 39.59375 6.203125 44.453125 7.46875 
Q 49.3125 8.734375 54.109375 11.28125 
L 54.109375 2.78125 
Q 49.265625 0.734375 44.1875 -0.34375 
Q 39.109375 -1.421875 33.890625 -1.421875 
Q 20.796875 -1.421875 13.15625 6.1875 
Q 5.515625 13.8125 5.515625 26.8125 
Q 5.515625 40.234375 12.765625 48.109375 
Q 20.015625 56 32.328125 56 
Q 43.359375 56 49.78125 48.890625 
Q 56.203125 41.796875 56.203125 29.59375 
z
M 47.21875 32.234375 
Q 47.125 39.59375 43.09375 43.984375 
Q 39.0625 48.390625 32.421875 48.390625 
Q 24.90625 48.390625 20.390625 44.140625 
Q 15.875 39.890625 15.1875 32.171875 
z
" id="DejaVuSans-65"/>
       <path d="M 9.421875 54.6875 
L 18.40625 54.6875 
L 18.40625 0 
L 9.421875 0 
z
M 9.421875 75.984375 
L 18.40625 75.984375 
L 18.40625 64.59375 
L 9.421875 64.59375 
z
" id="DejaVuSans-69"/>
       <path d="M 48.6875 27.296875 
Q 48.6875 37.203125 44.609375 42.84375 
Q 40.53125 48.484375 33.40625 48.484375 
Q 26.265625 48.484375 22.1875 42.84375 
Q 18.109375 37.203125 18.109375 27.296875 
Q 18.109375 17.390625 22.1875 11.75 
Q 26.265625 6.109375 33.40625 6.109375 
Q 40.53125 6.109375 44.609375 11.75 
Q 48.6875 17.390625 48.6875 27.296875 
z
M 18.109375 46.390625 
Q 20.953125 51.265625 25.265625 53.625 
Q 29.59375 56 35.59375 56 
Q 45.5625 56 51.78125 48.09375 
Q 58.015625 40.1875 58.015625 27.296875 
Q 58.015625 14.40625 51.78125 6.484375 
Q 45.5625 -1.421875 35.59375 -1.421875 
Q 29.59375 -1.421875 25.265625 0.953125 
Q 20.953125 3.328125 18.109375 8.203125 
L 18.109375 0 
L 9.078125 0 
L 9.078125 75.984375 
L 18.109375 75.984375 
z
" id="DejaVuSans-62"/>
       <path d="M 25.390625 72.90625 
L 33.6875 72.90625 
L 8.296875 -9.28125 
L 0 -9.28125 
z
" id="DejaVuSans-2f"/>
       <path d="M 52 44.1875 
Q 55.375 50.25 60.0625 53.125 
Q 64.75 56 71.09375 56 
Q 79.640625 56 84.28125 50.015625 
Q 88.921875 44.046875 88.921875 33.015625 
L 88.921875 0 
L 79.890625 0 
L 79.890625 32.71875 
Q 79.890625 40.578125 77.09375 44.375 
Q 74.3125 48.1875 68.609375 48.1875 
Q 61.625 48.1875 57.5625 43.546875 
Q 53.515625 38.921875 53.515625 30.90625 
L 53.515625 0 
L 44.484375 0 
L 44.484375 32.71875 
Q 44.484375 40.625 41.703125 44.40625 
Q 38.921875 48.1875 33.109375 48.1875 
Q 26.21875 48.1875 22.15625 43.53125 
Q 18.109375 38.875 18.109375 30.90625 
L 18.109375 0 
L 9.078125 0 
L 9.078125 54.6875 
L 18.109375 54.6875 
L 18.109375 46.1875 
Q 21.1875 51.21875 25.484375 53.609375 
Q 29.78125 56 35.6875 56 
Q 41.65625 56 45.828125 52.96875 
Q 50 49.953125 52 44.1875 
z
" id="DejaVuSans-6d"/>
      </defs>
      <g transform="translate(94.164062 324.455697)scale(0.1 -0.1)">
       <use xlink:href="#DejaVuSans-73"/>
       <use x="52.099609" xlink:href="#DejaVuSans-63"/>
       <use x="107.080078" xlink:href="#DejaVuSans-68"/>
       <use x="170.458984" xlink:href="#DejaVuSans-72"/>
       <use x="211.541016" xlink:href="#DejaVuSans-65"/>
       <use x="273.064453" xlink:href="#DejaVuSans-69"/>
       <use x="300.847656" xlink:href="#DejaVuSans-62"/>
       <use x="364.324219" xlink:href="#DejaVuSans-65"/>
       <use x="425.847656" xlink:href="#DejaVuSans-72"/>
       <use x="466.960938" xlink:href="#DejaVuSans-32"/>
       <use x="530.583984" xlink:href="#DejaVuSans-30"/>
       <use x="594.207031" xlink:href="#DejaVuSans-31"/>
       <use x="657.830078" xlink:href="#DejaVuSans-38"/>
       <use x="721.453125" xlink:href="#DejaVuSans-2f"/>
       <use x="755.144531" xlink:href="#DejaVuSans-69"/>
       <use x="782.927734" xlink:href="#DejaVuSans-73"/>
       <use x="835.027344" xlink:href="#DejaVuSans-6d"/>
       <use x="932.439453" xlink:href="#DejaVuSans-69"/>
       <use x="960.222656" xlink:href="#DejaVuSans-72"/>
       <use x="1001.335938" xlink:href="#DejaVuSans-32"/>
       <use x="1064.958984" xlink:href="#DejaVuSans-30"/>
       <use x="1128.582031" xlink:href="#DejaVuSans-31"/>
       <use x="1192.205078" xlink:href="#DejaVuSans-38"/>
      </g>
     </g>
    </g>
    <g id="ytick_2">
     <g id="line2d_15">
      <path clip-path="url(#p80b8922083)" d="M 226.746875 286.26589 
L 617.346875 286.26589 
" style="fill:none;stroke:#b0b0b0;stroke-linecap:square;stroke-width:0.8;"/>
     </g>
     <g id="line2d_16">
      <g>
       <use style="stroke:#000000;stroke-width:0.8;" x="226.746875" xlink:href="#mb8074d1320" y="286.26589"/>
      </g>
     </g>
     <g id="text_9">
      <!-- schreiber2018/fcn -->
      <defs>
       <path d="M 37.109375 75.984375 
L 37.109375 68.5 
L 28.515625 68.5 
Q 23.6875 68.5 21.796875 66.546875 
Q 19.921875 64.59375 19.921875 59.515625 
L 19.921875 54.6875 
L 34.71875 54.6875 
L 34.71875 47.703125 
L 19.921875 47.703125 
L 19.921875 0 
L 10.890625 0 
L 10.890625 47.703125 
L 2.296875 47.703125 
L 2.296875 54.6875 
L 10.890625 54.6875 
L 10.890625 58.5 
Q 10.890625 67.625 15.140625 71.796875 
Q 19.390625 75.984375 28.609375 75.984375 
z
" id="DejaVuSans-66"/>
       <path d="M 54.890625 33.015625 
L 54.890625 0 
L 45.90625 0 
L 45.90625 32.71875 
Q 45.90625 40.484375 42.875 44.328125 
Q 39.84375 48.1875 33.796875 48.1875 
Q 26.515625 48.1875 22.3125 43.546875 
Q 18.109375 38.921875 18.109375 30.90625 
L 18.109375 0 
L 9.078125 0 
L 9.078125 54.6875 
L 18.109375 54.6875 
L 18.109375 46.1875 
Q 21.34375 51.125 25.703125 53.5625 
Q 30.078125 56 35.796875 56 
Q 45.21875 56 50.046875 50.171875 
Q 54.890625 44.34375 54.890625 33.015625 
z
" id="DejaVuSans-6e"/>
      </defs>
      <g transform="translate(128.875 290.065108)scale(0.1 -0.1)">
       <use xlink:href="#DejaVuSans-73"/>
       <use x="52.099609" xlink:href="#DejaVuSans-63"/>
       <use x="107.080078" xlink:href="#DejaVuSans-68"/>
       <use x="170.458984" xlink:href="#DejaVuSans-72"/>
       <use x="211.541016" xlink:href="#DejaVuSans-65"/>
       <use x="273.064453" xlink:href="#DejaVuSans-69"/>
       <use x="300.847656" xlink:href="#DejaVuSans-62"/>
       <use x="364.324219" xlink:href="#DejaVuSans-65"/>
       <use x="425.847656" xlink:href="#DejaVuSans-72"/>
       <use x="466.960938" xlink:href="#DejaVuSans-32"/>
       <use x="530.583984" xlink:href="#DejaVuSans-30"/>
       <use x="594.207031" xlink:href="#DejaVuSans-31"/>
       <use x="657.830078" xlink:href="#DejaVuSans-38"/>
       <use x="721.453125" xlink:href="#DejaVuSans-2f"/>
       <use x="755.144531" xlink:href="#DejaVuSans-66"/>
       <use x="790.349609" xlink:href="#DejaVuSans-63"/>
       <use x="845.330078" xlink:href="#DejaVuSans-6e"/>
      </g>
     </g>
    </g>
    <g id="ytick_3">
     <g id="line2d_17">
      <path clip-path="url(#p80b8922083)" d="M 226.746875 251.875301 
L 617.346875 251.875301 
" style="fill:none;stroke:#b0b0b0;stroke-linecap:square;stroke-width:0.8;"/>
     </g>
     <g id="line2d_18">
      <g>
       <use style="stroke:#000000;stroke-width:0.8;" x="226.746875" xlink:href="#mb8074d1320" y="251.875301"/>
      </g>
     </g>
     <g id="text_10">
      <!-- schreiber2018/cnn -->
      <g transform="translate(126.057812 255.67452)scale(0.1 -0.1)">
       <use xlink:href="#DejaVuSans-73"/>
       <use x="52.099609" xlink:href="#DejaVuSans-63"/>
       <use x="107.080078" xlink:href="#DejaVuSans-68"/>
       <use x="170.458984" xlink:href="#DejaVuSans-72"/>
       <use x="211.541016" xlink:href="#DejaVuSans-65"/>
       <use x="273.064453" xlink:href="#DejaVuSans-69"/>
       <use x="300.847656" xlink:href="#DejaVuSans-62"/>
       <use x="364.324219" xlink:href="#DejaVuSans-65"/>
       <use x="425.847656" xlink:href="#DejaVuSans-72"/>
       <use x="466.960938" xlink:href="#DejaVuSans-32"/>
       <use x="530.583984" xlink:href="#DejaVuSans-30"/>
       <use x="594.207031" xlink:href="#DejaVuSans-31"/>
       <use x="657.830078" xlink:href="#DejaVuSans-38"/>
       <use x="721.453125" xlink:href="#DejaVuSans-2f"/>
       <use x="755.144531" xlink:href="#DejaVuSans-63"/>
       <use x="810.125" xlink:href="#DejaVuSans-6e"/>
       <use x="873.503906" xlink:href="#DejaVuSans-6e"/>
      </g>
     </g>
    </g>
    <g id="ytick_4">
     <g id="line2d_19">
      <path clip-path="url(#p80b8922083)" d="M 226.746875 217.484713 
L 617.346875 217.484713 
" style="fill:none;stroke:#b0b0b0;stroke-linecap:square;stroke-width:0.8;"/>
     </g>
     <g id="line2d_20">
      <g>
       <use style="stroke:#000000;stroke-width:0.8;" x="226.746875" xlink:href="#mb8074d1320" y="217.484713"/>
      </g>
     </g>
     <g id="text_11">
      <!-- schreiber2017/mirex2017 -->
      <defs>
       <path d="M 8.203125 72.90625 
L 55.078125 72.90625 
L 55.078125 68.703125 
L 28.609375 0 
L 18.3125 0 
L 43.21875 64.59375 
L 8.203125 64.59375 
z
" id="DejaVuSans-37"/>
       <path d="M 54.890625 54.6875 
L 35.109375 28.078125 
L 55.90625 0 
L 45.3125 0 
L 29.390625 21.484375 
L 13.484375 0 
L 2.875 0 
L 24.125 28.609375 
L 4.6875 54.6875 
L 15.28125 54.6875 
L 29.78125 35.203125 
L 44.28125 54.6875 
z
" id="DejaVuSans-78"/>
      </defs>
      <g transform="translate(90.084375 221.283932)scale(0.1 -0.1)">
       <use xlink:href="#DejaVuSans-73"/>
       <use x="52.099609" xlink:href="#DejaVuSans-63"/>
       <use x="107.080078" xlink:href="#DejaVuSans-68"/>
       <use x="170.458984" xlink:href="#DejaVuSans-72"/>
       <use x="211.541016" xlink:href="#DejaVuSans-65"/>
       <use x="273.064453" xlink:href="#DejaVuSans-69"/>
       <use x="300.847656" xlink:href="#DejaVuSans-62"/>
       <use x="364.324219" xlink:href="#DejaVuSans-65"/>
       <use x="425.847656" xlink:href="#DejaVuSans-72"/>
       <use x="466.960938" xlink:href="#DejaVuSans-32"/>
       <use x="530.583984" xlink:href="#DejaVuSans-30"/>
       <use x="594.207031" xlink:href="#DejaVuSans-31"/>
       <use x="657.830078" xlink:href="#DejaVuSans-37"/>
       <use x="721.453125" xlink:href="#DejaVuSans-2f"/>
       <use x="755.144531" xlink:href="#DejaVuSans-6d"/>
       <use x="852.556641" xlink:href="#DejaVuSans-69"/>
       <use x="880.339844" xlink:href="#DejaVuSans-72"/>
       <use x="921.421875" xlink:href="#DejaVuSans-65"/>
       <use x="982.929688" xlink:href="#DejaVuSans-78"/>
       <use x="1042.109375" xlink:href="#DejaVuSans-32"/>
       <use x="1105.732422" xlink:href="#DejaVuSans-30"/>
       <use x="1169.355469" xlink:href="#DejaVuSans-31"/>
       <use x="1232.978516" xlink:href="#DejaVuSans-37"/>
      </g>
     </g>
    </g>
    <g id="ytick_5">
     <g id="line2d_21">
      <path clip-path="url(#p80b8922083)" d="M 226.746875 183.094125 
L 617.346875 183.094125 
" style="fill:none;stroke:#b0b0b0;stroke-linecap:square;stroke-width:0.8;"/>
     </g>
     <g id="line2d_22">
      <g>
       <use style="stroke:#000000;stroke-width:0.8;" x="226.746875" xlink:href="#mb8074d1320" y="183.094125"/>
      </g>
     </g>
     <g id="text_12">
      <!-- schreiber2017/ismir2017 -->
      <g transform="translate(94.164062 186.893344)scale(0.1 -0.1)">
       <use xlink:href="#DejaVuSans-73"/>
       <use x="52.099609" xlink:href="#DejaVuSans-63"/>
       <use x="107.080078" xlink:href="#DejaVuSans-68"/>
       <use x="170.458984" xlink:href="#DejaVuSans-72"/>
       <use x="211.541016" xlink:href="#DejaVuSans-65"/>
       <use x="273.064453" xlink:href="#DejaVuSans-69"/>
       <use x="300.847656" xlink:href="#DejaVuSans-62"/>
       <use x="364.324219" xlink:href="#DejaVuSans-65"/>
       <use x="425.847656" xlink:href="#DejaVuSans-72"/>
       <use x="466.960938" xlink:href="#DejaVuSans-32"/>
       <use x="530.583984" xlink:href="#DejaVuSans-30"/>
       <use x="594.207031" xlink:href="#DejaVuSans-31"/>
       <use x="657.830078" xlink:href="#DejaVuSans-37"/>
       <use x="721.453125" xlink:href="#DejaVuSans-2f"/>
       <use x="755.144531" xlink:href="#DejaVuSans-69"/>
       <use x="782.927734" xlink:href="#DejaVuSans-73"/>
       <use x="835.027344" xlink:href="#DejaVuSans-6d"/>
       <use x="932.439453" xlink:href="#DejaVuSans-69"/>
       <use x="960.222656" xlink:href="#DejaVuSans-72"/>
       <use x="1001.335938" xlink:href="#DejaVuSans-32"/>
       <use x="1064.958984" xlink:href="#DejaVuSans-30"/>
       <use x="1128.582031" xlink:href="#DejaVuSans-31"/>
       <use x="1192.205078" xlink:href="#DejaVuSans-37"/>
      </g>
     </g>
    </g>
    <g id="ytick_6">
     <g id="line2d_23">
      <path clip-path="url(#p80b8922083)" d="M 226.746875 148.703537 
L 617.346875 148.703537 
" style="fill:none;stroke:#b0b0b0;stroke-linecap:square;stroke-width:0.8;"/>
     </g>
     <g id="line2d_24">
      <g>
       <use style="stroke:#000000;stroke-width:0.8;" x="226.746875" xlink:href="#mb8074d1320" y="148.703537"/>
      </g>
     </g>
     <g id="text_13">
      <!-- schreiber2014/default -->
      <defs>
       <path d="M 45.40625 46.390625 
L 45.40625 75.984375 
L 54.390625 75.984375 
L 54.390625 0 
L 45.40625 0 
L 45.40625 8.203125 
Q 42.578125 3.328125 38.25 0.953125 
Q 33.9375 -1.421875 27.875 -1.421875 
Q 17.96875 -1.421875 11.734375 6.484375 
Q 5.515625 14.40625 5.515625 27.296875 
Q 5.515625 40.1875 11.734375 48.09375 
Q 17.96875 56 27.875 56 
Q 33.9375 56 38.25 53.625 
Q 42.578125 51.265625 45.40625 46.390625 
z
M 14.796875 27.296875 
Q 14.796875 17.390625 18.875 11.75 
Q 22.953125 6.109375 30.078125 6.109375 
Q 37.203125 6.109375 41.296875 11.75 
Q 45.40625 17.390625 45.40625 27.296875 
Q 45.40625 37.203125 41.296875 42.84375 
Q 37.203125 48.484375 30.078125 48.484375 
Q 22.953125 48.484375 18.875 42.84375 
Q 14.796875 37.203125 14.796875 27.296875 
z
" id="DejaVuSans-64"/>
       <path d="M 34.28125 27.484375 
Q 23.390625 27.484375 19.1875 25 
Q 14.984375 22.515625 14.984375 16.5 
Q 14.984375 11.71875 18.140625 8.90625 
Q 21.296875 6.109375 26.703125 6.109375 
Q 34.1875 6.109375 38.703125 11.40625 
Q 43.21875 16.703125 43.21875 25.484375 
L 43.21875 27.484375 
z
M 52.203125 31.203125 
L 52.203125 0 
L 43.21875 0 
L 43.21875 8.296875 
Q 40.140625 3.328125 35.546875 0.953125 
Q 30.953125 -1.421875 24.3125 -1.421875 
Q 15.921875 -1.421875 10.953125 3.296875 
Q 6 8.015625 6 15.921875 
Q 6 25.140625 12.171875 29.828125 
Q 18.359375 34.515625 30.609375 34.515625 
L 43.21875 34.515625 
L 43.21875 35.40625 
Q 43.21875 41.609375 39.140625 45 
Q 35.0625 48.390625 27.6875 48.390625 
Q 23 48.390625 18.546875 47.265625 
Q 14.109375 46.140625 10.015625 43.890625 
L 10.015625 52.203125 
Q 14.9375 54.109375 19.578125 55.046875 
Q 24.21875 56 28.609375 56 
Q 40.484375 56 46.34375 49.84375 
Q 52.203125 43.703125 52.203125 31.203125 
z
" id="DejaVuSans-61"/>
       <path d="M 8.5 21.578125 
L 8.5 54.6875 
L 17.484375 54.6875 
L 17.484375 21.921875 
Q 17.484375 14.15625 20.5 10.265625 
Q 23.53125 6.390625 29.59375 6.390625 
Q 36.859375 6.390625 41.078125 11.03125 
Q 45.3125 15.671875 45.3125 23.6875 
L 45.3125 54.6875 
L 54.296875 54.6875 
L 54.296875 0 
L 45.3125 0 
L 45.3125 8.40625 
Q 42.046875 3.421875 37.71875 1 
Q 33.40625 -1.421875 27.6875 -1.421875 
Q 18.265625 -1.421875 13.375 4.4375 
Q 8.5 10.296875 8.5 21.578125 
z
M 31.109375 56 
z
" id="DejaVuSans-75"/>
       <path d="M 9.421875 75.984375 
L 18.40625 75.984375 
L 18.40625 0 
L 9.421875 0 
z
" id="DejaVuSans-6c"/>
       <path d="M 18.3125 70.21875 
L 18.3125 54.6875 
L 36.8125 54.6875 
L 36.8125 47.703125 
L 18.3125 47.703125 
L 18.3125 18.015625 
Q 18.3125 11.328125 20.140625 9.421875 
Q 21.96875 7.515625 27.59375 7.515625 
L 36.8125 7.515625 
L 36.8125 0 
L 27.59375 0 
Q 17.1875 0 13.234375 3.875 
Q 9.28125 7.765625 9.28125 18.015625 
L 9.28125 47.703125 
L 2.6875 47.703125 
L 2.6875 54.6875 
L 9.28125 54.6875 
L 9.28125 70.21875 
z
" id="DejaVuSans-74"/>
      </defs>
      <g transform="translate(109.045312 152.502756)scale(0.1 -0.1)">
       <use xlink:href="#DejaVuSans-73"/>
       <use x="52.099609" xlink:href="#DejaVuSans-63"/>
       <use x="107.080078" xlink:href="#DejaVuSans-68"/>
       <use x="170.458984" xlink:href="#DejaVuSans-72"/>
       <use x="211.541016" xlink:href="#DejaVuSans-65"/>
       <use x="273.064453" xlink:href="#DejaVuSans-69"/>
       <use x="300.847656" xlink:href="#DejaVuSans-62"/>
       <use x="364.324219" xlink:href="#DejaVuSans-65"/>
       <use x="425.847656" xlink:href="#DejaVuSans-72"/>
       <use x="466.960938" xlink:href="#DejaVuSans-32"/>
       <use x="530.583984" xlink:href="#DejaVuSans-30"/>
       <use x="594.207031" xlink:href="#DejaVuSans-31"/>
       <use x="657.830078" xlink:href="#DejaVuSans-34"/>
       <use x="721.453125" xlink:href="#DejaVuSans-2f"/>
       <use x="755.144531" xlink:href="#DejaVuSans-64"/>
       <use x="818.621094" xlink:href="#DejaVuSans-65"/>
       <use x="880.144531" xlink:href="#DejaVuSans-66"/>
       <use x="915.349609" xlink:href="#DejaVuSans-61"/>
       <use x="976.628906" xlink:href="#DejaVuSans-75"/>
       <use x="1040.007812" xlink:href="#DejaVuSans-6c"/>
       <use x="1067.791016" xlink:href="#DejaVuSans-74"/>
      </g>
     </g>
    </g>
    <g id="ytick_7">
     <g id="line2d_25">
      <path clip-path="url(#p80b8922083)" d="M 226.746875 114.312949 
L 617.346875 114.312949 
" style="fill:none;stroke:#b0b0b0;stroke-linecap:square;stroke-width:0.8;"/>
     </g>
     <g id="line2d_26">
      <g>
       <use style="stroke:#000000;stroke-width:0.8;" x="226.746875" xlink:href="#mb8074d1320" y="114.312949"/>
      </g>
     </g>
     <g id="text_14">
      <!-- percival2014/stem -->
      <defs>
       <path d="M 18.109375 8.203125 
L 18.109375 -20.796875 
L 9.078125 -20.796875 
L 9.078125 54.6875 
L 18.109375 54.6875 
L 18.109375 46.390625 
Q 20.953125 51.265625 25.265625 53.625 
Q 29.59375 56 35.59375 56 
Q 45.5625 56 51.78125 48.09375 
Q 58.015625 40.1875 58.015625 27.296875 
Q 58.015625 14.40625 51.78125 6.484375 
Q 45.5625 -1.421875 35.59375 -1.421875 
Q 29.59375 -1.421875 25.265625 0.953125 
Q 20.953125 3.328125 18.109375 8.203125 
z
M 48.6875 27.296875 
Q 48.6875 37.203125 44.609375 42.84375 
Q 40.53125 48.484375 33.40625 48.484375 
Q 26.265625 48.484375 22.1875 42.84375 
Q 18.109375 37.203125 18.109375 27.296875 
Q 18.109375 17.390625 22.1875 11.75 
Q 26.265625 6.109375 33.40625 6.109375 
Q 40.53125 6.109375 44.609375 11.75 
Q 48.6875 17.390625 48.6875 27.296875 
z
" id="DejaVuSans-70"/>
       <path d="M 2.984375 54.6875 
L 12.5 54.6875 
L 29.59375 8.796875 
L 46.6875 54.6875 
L 56.203125 54.6875 
L 35.6875 0 
L 23.484375 0 
z
" id="DejaVuSans-76"/>
      </defs>
      <g transform="translate(126.19375 118.112167)scale(0.1 -0.1)">
       <use xlink:href="#DejaVuSans-70"/>
       <use x="63.476562" xlink:href="#DejaVuSans-65"/>
       <use x="125" xlink:href="#DejaVuSans-72"/>
       <use x="166.082031" xlink:href="#DejaVuSans-63"/>
       <use x="221.0625" xlink:href="#DejaVuSans-69"/>
       <use x="248.845703" xlink:href="#DejaVuSans-76"/>
       <use x="308.025391" xlink:href="#DejaVuSans-61"/>
       <use x="369.304688" xlink:href="#DejaVuSans-6c"/>
       <use x="397.087891" xlink:href="#DejaVuSans-32"/>
       <use x="460.710938" xlink:href="#DejaVuSans-30"/>
       <use x="524.333984" xlink:href="#DejaVuSans-31"/>
       <use x="587.957031" xlink:href="#DejaVuSans-34"/>
       <use x="651.580078" xlink:href="#DejaVuSans-2f"/>
       <use x="685.271484" xlink:href="#DejaVuSans-73"/>
       <use x="737.371094" xlink:href="#DejaVuSans-74"/>
       <use x="776.580078" xlink:href="#DejaVuSans-65"/>
       <use x="838.103516" xlink:href="#DejaVuSans-6d"/>
      </g>
     </g>
    </g>
    <g id="ytick_8">
     <g id="line2d_27">
      <path clip-path="url(#p80b8922083)" d="M 226.746875 79.92236 
L 617.346875 79.92236 
" style="fill:none;stroke:#b0b0b0;stroke-linecap:square;stroke-width:0.8;"/>
     </g>
     <g id="line2d_28">
      <g>
       <use style="stroke:#000000;stroke-width:0.8;" x="226.746875" xlink:href="#mb8074d1320" y="79.92236"/>
      </g>
     </g>
     <g id="text_15">
      <!-- davies2009/mirex_qm_tempotracker -->
      <defs>
       <path d="M 10.984375 1.515625 
L 10.984375 10.5 
Q 14.703125 8.734375 18.5 7.8125 
Q 22.3125 6.890625 25.984375 6.890625 
Q 35.75 6.890625 40.890625 13.453125 
Q 46.046875 20.015625 46.78125 33.40625 
Q 43.953125 29.203125 39.59375 26.953125 
Q 35.25 24.703125 29.984375 24.703125 
Q 19.046875 24.703125 12.671875 31.3125 
Q 6.296875 37.9375 6.296875 49.421875 
Q 6.296875 60.640625 12.9375 67.421875 
Q 19.578125 74.21875 30.609375 74.21875 
Q 43.265625 74.21875 49.921875 64.515625 
Q 56.59375 54.828125 56.59375 36.375 
Q 56.59375 19.140625 48.40625 8.859375 
Q 40.234375 -1.421875 26.421875 -1.421875 
Q 22.703125 -1.421875 18.890625 -0.6875 
Q 15.09375 0.046875 10.984375 1.515625 
z
M 30.609375 32.421875 
Q 37.25 32.421875 41.125 36.953125 
Q 45.015625 41.5 45.015625 49.421875 
Q 45.015625 57.28125 41.125 61.84375 
Q 37.25 66.40625 30.609375 66.40625 
Q 23.96875 66.40625 20.09375 61.84375 
Q 16.21875 57.28125 16.21875 49.421875 
Q 16.21875 41.5 20.09375 36.953125 
Q 23.96875 32.421875 30.609375 32.421875 
z
" id="DejaVuSans-39"/>
       <path d="M 50.984375 -16.609375 
L 50.984375 -23.578125 
L -0.984375 -23.578125 
L -0.984375 -16.609375 
z
" id="DejaVuSans-5f"/>
       <path d="M 14.796875 27.296875 
Q 14.796875 17.390625 18.875 11.75 
Q 22.953125 6.109375 30.078125 6.109375 
Q 37.203125 6.109375 41.296875 11.75 
Q 45.40625 17.390625 45.40625 27.296875 
Q 45.40625 37.203125 41.296875 42.84375 
Q 37.203125 48.484375 30.078125 48.484375 
Q 22.953125 48.484375 18.875 42.84375 
Q 14.796875 37.203125 14.796875 27.296875 
z
M 45.40625 8.203125 
Q 42.578125 3.328125 38.25 0.953125 
Q 33.9375 -1.421875 27.875 -1.421875 
Q 17.96875 -1.421875 11.734375 6.484375 
Q 5.515625 14.40625 5.515625 27.296875 
Q 5.515625 40.1875 11.734375 48.09375 
Q 17.96875 56 27.875 56 
Q 33.9375 56 38.25 53.625 
Q 42.578125 51.265625 45.40625 46.390625 
L 45.40625 54.6875 
L 54.390625 54.6875 
L 54.390625 -20.796875 
L 45.40625 -20.796875 
z
" id="DejaVuSans-71"/>
       <path d="M 30.609375 48.390625 
Q 23.390625 48.390625 19.1875 42.75 
Q 14.984375 37.109375 14.984375 27.296875 
Q 14.984375 17.484375 19.15625 11.84375 
Q 23.34375 6.203125 30.609375 6.203125 
Q 37.796875 6.203125 41.984375 11.859375 
Q 46.1875 17.53125 46.1875 27.296875 
Q 46.1875 37.015625 41.984375 42.703125 
Q 37.796875 48.390625 30.609375 48.390625 
z
M 30.609375 56 
Q 42.328125 56 49.015625 48.375 
Q 55.71875 40.765625 55.71875 27.296875 
Q 55.71875 13.875 49.015625 6.21875 
Q 42.328125 -1.421875 30.609375 -1.421875 
Q 18.84375 -1.421875 12.171875 6.21875 
Q 5.515625 13.875 5.515625 27.296875 
Q 5.515625 40.765625 12.171875 48.375 
Q 18.84375 56 30.609375 56 
z
" id="DejaVuSans-6f"/>
       <path d="M 9.078125 75.984375 
L 18.109375 75.984375 
L 18.109375 31.109375 
L 44.921875 54.6875 
L 56.390625 54.6875 
L 27.390625 29.109375 
L 57.625 0 
L 45.90625 0 
L 18.109375 26.703125 
L 18.109375 0 
L 9.078125 0 
z
" id="DejaVuSans-6b"/>
      </defs>
      <g transform="translate(35.617187 83.721579)scale(0.1 -0.1)">
       <use xlink:href="#DejaVuSans-64"/>
       <use x="63.476562" xlink:href="#DejaVuSans-61"/>
       <use x="124.755859" xlink:href="#DejaVuSans-76"/>
       <use x="183.935547" xlink:href="#DejaVuSans-69"/>
       <use x="211.71875" xlink:href="#DejaVuSans-65"/>
       <use x="273.242188" xlink:href="#DejaVuSans-73"/>
       <use x="325.341797" xlink:href="#DejaVuSans-32"/>
       <use x="388.964844" xlink:href="#DejaVuSans-30"/>
       <use x="452.587891" xlink:href="#DejaVuSans-30"/>
       <use x="516.210938" xlink:href="#DejaVuSans-39"/>
       <use x="579.833984" xlink:href="#DejaVuSans-2f"/>
       <use x="613.525391" xlink:href="#DejaVuSans-6d"/>
       <use x="710.9375" xlink:href="#DejaVuSans-69"/>
       <use x="738.720703" xlink:href="#DejaVuSans-72"/>
       <use x="779.802734" xlink:href="#DejaVuSans-65"/>
       <use x="841.310547" xlink:href="#DejaVuSans-78"/>
       <use x="900.490234" xlink:href="#DejaVuSans-5f"/>
       <use x="950.490234" xlink:href="#DejaVuSans-71"/>
       <use x="1013.966797" xlink:href="#DejaVuSans-6d"/>
       <use x="1111.378906" xlink:href="#DejaVuSans-5f"/>
       <use x="1161.378906" xlink:href="#DejaVuSans-74"/>
       <use x="1200.587891" xlink:href="#DejaVuSans-65"/>
       <use x="1262.111328" xlink:href="#DejaVuSans-6d"/>
       <use x="1359.523438" xlink:href="#DejaVuSans-70"/>
       <use x="1423" xlink:href="#DejaVuSans-6f"/>
       <use x="1484.181641" xlink:href="#DejaVuSans-74"/>
       <use x="1523.390625" xlink:href="#DejaVuSans-72"/>
       <use x="1564.503906" xlink:href="#DejaVuSans-61"/>
       <use x="1625.783203" xlink:href="#DejaVuSans-63"/>
       <use x="1680.763672" xlink:href="#DejaVuSans-6b"/>
       <use x="1738.626953" xlink:href="#DejaVuSans-65"/>
       <use x="1800.150391" xlink:href="#DejaVuSans-72"/>
      </g>
     </g>
    </g>
    <g id="ytick_9">
     <g id="line2d_29">
      <path clip-path="url(#p80b8922083)" d="M 226.746875 45.531772 
L 617.346875 45.531772 
" style="fill:none;stroke:#b0b0b0;stroke-linecap:square;stroke-width:0.8;"/>
     </g>
     <g id="line2d_30">
      <g>
       <use style="stroke:#000000;stroke-width:0.8;" x="226.746875" xlink:href="#mb8074d1320" y="45.531772"/>
      </g>
     </g>
     <g id="text_16">
      <!-- boeck2015/tempodetector2016_default -->
      <defs>
       <path d="M 10.796875 72.90625 
L 49.515625 72.90625 
L 49.515625 64.59375 
L 19.828125 64.59375 
L 19.828125 46.734375 
Q 21.96875 47.46875 24.109375 47.828125 
Q 26.265625 48.1875 28.421875 48.1875 
Q 40.625 48.1875 47.75 41.5 
Q 54.890625 34.8125 54.890625 23.390625 
Q 54.890625 11.625 47.5625 5.09375 
Q 40.234375 -1.421875 26.90625 -1.421875 
Q 22.3125 -1.421875 17.546875 -0.640625 
Q 12.796875 0.140625 7.71875 1.703125 
L 7.71875 11.625 
Q 12.109375 9.234375 16.796875 8.0625 
Q 21.484375 6.890625 26.703125 6.890625 
Q 35.15625 6.890625 40.078125 11.328125 
Q 45.015625 15.765625 45.015625 23.390625 
Q 45.015625 31 40.078125 35.4375 
Q 35.15625 39.890625 26.703125 39.890625 
Q 22.75 39.890625 18.8125 39.015625 
Q 14.890625 38.140625 10.796875 36.28125 
z
" id="DejaVuSans-35"/>
      </defs>
      <g transform="translate(20.878125 49.330991)scale(0.1 -0.1)">
       <use xlink:href="#DejaVuSans-62"/>
       <use x="63.476562" xlink:href="#DejaVuSans-6f"/>
       <use x="124.658203" xlink:href="#DejaVuSans-65"/>
       <use x="186.181641" xlink:href="#DejaVuSans-63"/>
       <use x="241.162109" xlink:href="#DejaVuSans-6b"/>
       <use x="299.072266" xlink:href="#DejaVuSans-32"/>
       <use x="362.695312" xlink:href="#DejaVuSans-30"/>
       <use x="426.318359" xlink:href="#DejaVuSans-31"/>
       <use x="489.941406" xlink:href="#DejaVuSans-35"/>
       <use x="553.564453" xlink:href="#DejaVuSans-2f"/>
       <use x="587.255859" xlink:href="#DejaVuSans-74"/>
       <use x="626.464844" xlink:href="#DejaVuSans-65"/>
       <use x="687.988281" xlink:href="#DejaVuSans-6d"/>
       <use x="785.400391" xlink:href="#DejaVuSans-70"/>
       <use x="848.876953" xlink:href="#DejaVuSans-6f"/>
       <use x="910.058594" xlink:href="#DejaVuSans-64"/>
       <use x="973.535156" xlink:href="#DejaVuSans-65"/>
       <use x="1035.058594" xlink:href="#DejaVuSans-74"/>
       <use x="1074.267578" xlink:href="#DejaVuSans-65"/>
       <use x="1135.791016" xlink:href="#DejaVuSans-63"/>
       <use x="1190.771484" xlink:href="#DejaVuSans-74"/>
       <use x="1229.980469" xlink:href="#DejaVuSans-6f"/>
       <use x="1291.162109" xlink:href="#DejaVuSans-72"/>
       <use x="1332.275391" xlink:href="#DejaVuSans-32"/>
       <use x="1395.898438" xlink:href="#DejaVuSans-30"/>
       <use x="1459.521484" xlink:href="#DejaVuSans-31"/>
       <use x="1523.144531" xlink:href="#DejaVuSans-36"/>
       <use x="1586.767578" xlink:href="#DejaVuSans-5f"/>
       <use x="1636.767578" xlink:href="#DejaVuSans-64"/>
       <use x="1700.244141" xlink:href="#DejaVuSans-65"/>
       <use x="1761.767578" xlink:href="#DejaVuSans-66"/>
       <use x="1796.972656" xlink:href="#DejaVuSans-61"/>
       <use x="1858.251953" xlink:href="#DejaVuSans-75"/>
       <use x="1921.630859" xlink:href="#DejaVuSans-6c"/>
       <use x="1949.414062" xlink:href="#DejaVuSans-74"/>
      </g>
     </g>
    </g>
    <g id="text_17">
     <!-- Estimator -->
     <g transform="translate(14.798437 207.216781)rotate(-90)scale(0.1 -0.1)">
      <use xlink:href="#DejaVuSans-45"/>
      <use x="63.183594" xlink:href="#DejaVuSans-73"/>
      <use x="115.283203" xlink:href="#DejaVuSans-74"/>
      <use x="154.492188" xlink:href="#DejaVuSans-69"/>
      <use x="182.275391" xlink:href="#DejaVuSans-6d"/>
      <use x="279.6875" xlink:href="#DejaVuSans-61"/>
      <use x="340.966797" xlink:href="#DejaVuSans-74"/>
      <use x="380.175781" xlink:href="#DejaVuSans-6f"/>
      <use x="441.357422" xlink:href="#DejaVuSans-72"/>
     </g>
    </g>
   </g>
   <g id="PolyCollection_1">
    <path clip-path="url(#p80b8922083)" d="M 226.747102 312.846924 
L 226.747102 328.466031 
L 226.935957 329.050654 
L 227.124812 329.254125 
L 227.313667 329.056072 
L 227.502522 328.492813 
L 227.691377 327.647282 
L 227.880232 326.629396 
L 228.069087 325.553205 
L 228.257942 324.517201 
L 228.446797 323.592032 
L 228.635652 322.816784 
L 228.824507 322.202307 
L 229.013362 321.738687 
L 229.202217 321.403845 
L 229.391072 321.171074 
L 229.579927 321.014404 
L 229.768782 320.911642 
L 229.957637 320.845488 
L 230.146492 320.803376 
L 230.335347 320.776647 
L 230.524202 320.759534 
L 230.713057 320.748232 
L 230.901912 320.7402 
L 231.090767 320.733706 
L 231.279622 320.727574 
L 231.468477 320.721076 
L 231.657332 320.71388 
L 231.846187 320.706005 
L 232.035042 320.697755 
L 232.223897 320.689608 
L 232.412752 320.682091 
L 232.601607 320.675674 
L 232.790462 320.670692 
L 232.979317 320.667318 
L 233.168172 320.665567 
L 233.357027 320.665326 
L 233.545882 320.666374 
L 233.734737 320.668395 
L 233.923592 320.670991 
L 234.112447 320.673704 
L 234.301302 320.676062 
L 234.490157 320.677648 
L 234.679012 320.678169 
L 234.867867 320.677519 
L 235.056722 320.675791 
L 235.245577 320.67325 
L 235.434432 320.670257 
L 235.623287 320.667186 
L 235.812142 320.66435 
L 236.000997 320.661952 
L 236.189852 320.660079 
L 236.378707 320.658719 
L 236.567562 320.657797 
L 236.756417 320.657213 
L 236.945272 320.656865 
L 237.134127 320.656672 
L 237.322982 320.656573 
L 237.511837 320.65653 
L 237.700692 320.656524 
L 237.889547 320.656552 
L 238.078402 320.656629 
L 238.267257 320.656793 
L 238.456112 320.657107 
L 238.644967 320.657678 
L 238.833822 320.658656 
L 239.022677 320.66025 
L 239.211532 320.662712 
L 239.400387 320.66633 
L 239.589242 320.671387 
L 239.778097 320.67812 
L 239.966952 320.68667 
L 240.155807 320.697035 
L 240.344662 320.709047 
L 240.533517 320.722378 
L 240.722372 320.736582 
L 240.911227 320.751167 
L 241.100082 320.765675 
L 241.288937 320.779757 
L 241.477792 320.79319 
L 241.666647 320.805834 
L 241.855502 320.817533 
L 242.044357 320.827975 
L 242.233212 320.836593 
L 242.422067 320.842544 
L 242.610922 320.844816 
L 242.799777 320.842453 
L 242.988632 320.834847 
L 243.177487 320.82199 
L 243.366342 320.804613 
L 243.555197 320.784129 
L 243.744052 320.762402 
L 243.932907 320.741389 
L 244.121762 320.722778 
L 244.310617 320.707699 
L 244.499472 320.696587 
L 244.688327 320.689221 
L 244.877182 320.684872 
L 245.066037 320.682548 
L 245.254892 320.681228 
L 245.443747 320.680064 
L 245.443747 320.632892 
L 245.443747 320.632892 
L 245.254892 320.631728 
L 245.066037 320.630408 
L 244.877182 320.628084 
L 244.688327 320.623735 
L 244.499472 320.616369 
L 244.310617 320.605257 
L 244.121762 320.590177 
L 243.932907 320.571567 
L 243.744052 320.550554 
L 243.555197 320.528827 
L 243.366342 320.508343 
L 243.177487 320.490966 
L 242.988632 320.478109 
L 242.799777 320.470503 
L 242.610922 320.46814 
L 242.422067 320.470412 
L 242.233212 320.476363 
L 242.044357 320.484981 
L 241.855502 320.495423 
L 241.666647 320.507122 
L 241.477792 320.519766 
L 241.288937 320.533198 
L 241.100082 320.54728 
L 240.911227 320.561789 
L 240.722372 320.576373 
L 240.533517 320.590578 
L 240.344662 320.603909 
L 240.155807 320.615921 
L 239.966952 320.626286 
L 239.778097 320.634836 
L 239.589242 320.641569 
L 239.400387 320.646626 
L 239.211532 320.650244 
L 239.022677 320.652706 
L 238.833822 320.6543 
L 238.644967 320.655278 
L 238.456112 320.655849 
L 238.267257 320.656163 
L 238.078402 320.656327 
L 237.889547 320.656404 
L 237.700692 320.656432 
L 237.511837 320.656426 
L 237.322982 320.656383 
L 237.134127 320.656284 
L 236.945272 320.656091 
L 236.756417 320.655743 
L 236.567562 320.655159 
L 236.378707 320.654237 
L 236.189852 320.652877 
L 236.000997 320.651004 
L 235.812142 320.648606 
L 235.623287 320.64577 
L 235.434432 320.642699 
L 235.245577 320.639706 
L 235.056722 320.637164 
L 234.867867 320.635437 
L 234.679012 320.634787 
L 234.490157 320.635308 
L 234.301302 320.636894 
L 234.112447 320.639252 
L 233.923592 320.641965 
L 233.734737 320.644561 
L 233.545882 320.646582 
L 233.357027 320.64763 
L 233.168172 320.647389 
L 232.979317 320.645638 
L 232.790462 320.642263 
L 232.601607 320.637282 
L 232.412752 320.630865 
L 232.223897 320.623348 
L 232.035042 320.6152 
L 231.846187 320.606951 
L 231.657332 320.599076 
L 231.468477 320.591879 
L 231.279622 320.585382 
L 231.090767 320.57925 
L 230.901912 320.572756 
L 230.713057 320.564724 
L 230.524202 320.553422 
L 230.335347 320.536309 
L 230.146492 320.50958 
L 229.957637 320.467468 
L 229.768782 320.401314 
L 229.579927 320.298552 
L 229.391072 320.141882 
L 229.202217 319.909111 
L 229.013362 319.574269 
L 228.824507 319.110649 
L 228.635652 318.496172 
L 228.446797 317.720924 
L 228.257942 316.795755 
L 228.069087 315.759751 
L 227.880232 314.68356 
L 227.691377 313.665674 
L 227.502522 312.820143 
L 227.313667 312.256884 
L 227.124812 312.058831 
L 226.935957 312.262302 
L 226.747102 312.846924 
z
" style="fill:#ff0000;fill-opacity:0.75;"/>
   </g>
   <g id="PolyCollection_2">
    <path clip-path="url(#p80b8922083)" d="M 226.748272 278.210337 
L 226.748272 294.321443 
L 226.937115 294.69929 
L 227.125958 294.863537 
L 227.314801 294.803495 
L 227.503644 294.526188 
L 227.692488 294.055186 
L 227.881331 293.427366 
L 228.070174 292.688204 
L 228.259017 291.886426 
L 228.44786 291.068879 
L 228.636703 290.27634 
L 228.825547 289.540719 
L 229.01439 288.883799 
L 229.203233 288.317394 
L 229.392076 287.844587 
L 229.580919 287.461622 
L 229.769763 287.160042 
L 229.958606 286.928726 
L 230.147449 286.755584 
L 230.336292 286.628831 
L 230.525135 286.537806 
L 230.713979 286.4734 
L 230.902822 286.428198 
L 231.091665 286.396411 
L 231.280508 286.3737 
L 231.469351 286.356947 
L 231.658194 286.344017 
L 231.847038 286.333534 
L 232.035881 286.324686 
L 232.224724 286.31705 
L 232.413567 286.310456 
L 232.60241 286.304869 
L 232.791254 286.300302 
L 232.980097 286.296754 
L 233.16894 286.294174 
L 233.357783 286.292444 
L 233.546626 286.291385 
L 233.735469 286.290773 
L 233.924313 286.290369 
L 234.113156 286.289947 
L 234.301999 286.289322 
L 234.490842 286.288369 
L 234.679685 286.287031 
L 234.868529 286.28532 
L 235.057372 286.283301 
L 235.246215 286.28108 
L 235.435058 286.27878 
L 235.623901 286.276522 
L 235.812745 286.274412 
L 236.001588 286.272526 
L 236.190431 286.270911 
L 236.379274 286.269584 
L 236.568117 286.268537 
L 236.75696 286.267748 
L 236.945804 286.267185 
L 237.134647 286.266818 
L 237.32349 286.266619 
L 237.512333 286.266574 
L 237.701176 286.26668 
L 237.89002 286.266952 
L 238.078863 286.267417 
L 238.267706 286.268119 
L 238.456549 286.269116 
L 238.645392 286.270478 
L 238.834236 286.27229 
L 239.023079 286.274652 
L 239.211922 286.277687 
L 239.400765 286.281548 
L 239.589608 286.286436 
L 239.778451 286.292614 
L 239.967295 286.300425 
L 240.156138 286.310299 
L 240.344981 286.322748 
L 240.533824 286.338338 
L 240.722667 286.357633 
L 240.911511 286.381116 
L 241.100354 286.409077 
L 241.289197 286.441502 
L 241.47804 286.477968 
L 241.666883 286.517571 
L 241.855726 286.558906 
L 242.04457 286.600125 
L 242.233413 286.639062 
L 242.422256 286.673428 
L 242.611099 286.701048 
L 242.799942 286.720101 
L 242.988786 286.729333 
L 243.177629 286.728206 
L 243.366472 286.716944 
L 243.555315 286.696497 
L 243.744158 286.668408 
L 243.933002 286.634612 
L 244.121845 286.597216 
L 244.310688 286.558274 
L 244.499531 286.519613 
L 244.688374 286.4827 
L 244.877217 286.448591 
L 245.066061 286.417929 
L 245.254904 286.390992 
L 245.443747 286.367772 
L 245.443747 286.164007 
L 245.443747 286.164007 
L 245.254904 286.140788 
L 245.066061 286.113851 
L 244.877217 286.083188 
L 244.688374 286.04908 
L 244.499531 286.012167 
L 244.310688 285.973505 
L 244.121845 285.934564 
L 243.933002 285.897167 
L 243.744158 285.863371 
L 243.555315 285.835282 
L 243.366472 285.814836 
L 243.177629 285.803574 
L 242.988786 285.802446 
L 242.799942 285.811679 
L 242.611099 285.830732 
L 242.422256 285.858351 
L 242.233413 285.892718 
L 242.04457 285.931655 
L 241.855726 285.972874 
L 241.666883 286.014209 
L 241.47804 286.053811 
L 241.289197 286.090278 
L 241.100354 286.122703 
L 240.911511 286.150663 
L 240.722667 286.174146 
L 240.533824 286.193442 
L 240.344981 286.209032 
L 240.156138 286.221481 
L 239.967295 286.231355 
L 239.778451 286.239165 
L 239.589608 286.245343 
L 239.400765 286.250231 
L 239.211922 286.254092 
L 239.023079 286.257127 
L 238.834236 286.259489 
L 238.645392 286.261301 
L 238.456549 286.262663 
L 238.267706 286.26366 
L 238.078863 286.264362 
L 237.89002 286.264827 
L 237.701176 286.265099 
L 237.512333 286.265206 
L 237.32349 286.265161 
L 237.134647 286.264962 
L 236.945804 286.264594 
L 236.75696 286.264031 
L 236.568117 286.263242 
L 236.379274 286.262196 
L 236.190431 286.260868 
L 236.001588 286.259253 
L 235.812745 286.257367 
L 235.623901 286.255257 
L 235.435058 286.253 
L 235.246215 286.2507 
L 235.057372 286.248479 
L 234.868529 286.24646 
L 234.679685 286.244748 
L 234.490842 286.24341 
L 234.301999 286.242457 
L 234.113156 286.241832 
L 233.924313 286.24141 
L 233.735469 286.241006 
L 233.546626 286.240394 
L 233.357783 286.239335 
L 233.16894 286.237605 
L 232.980097 286.235026 
L 232.791254 286.231478 
L 232.60241 286.22691 
L 232.413567 286.221323 
L 232.224724 286.214729 
L 232.035881 286.207093 
L 231.847038 286.198245 
L 231.658194 286.187763 
L 231.469351 286.174832 
L 231.280508 286.158079 
L 231.091665 286.135368 
L 230.902822 286.103581 
L 230.713979 286.058379 
L 230.525135 285.993973 
L 230.336292 285.902948 
L 230.147449 285.776196 
L 229.958606 285.603054 
L 229.769763 285.371737 
L 229.580919 285.070158 
L 229.392076 284.687192 
L 229.203233 284.214385 
L 229.01439 283.647981 
L 228.825547 282.991061 
L 228.636703 282.255439 
L 228.44786 281.462901 
L 228.259017 280.645353 
L 228.070174 279.843575 
L 227.881331 279.104413 
L 227.692488 278.476594 
L 227.503644 278.005591 
L 227.314801 277.728284 
L 227.125958 277.668243 
L 226.937115 277.832489 
L 226.748272 278.210337 
z
" style="fill:#ff0000;fill-opacity:0.75;"/>
   </g>
   <g id="PolyCollection_3">
    <path clip-path="url(#p80b8922083)" d="M 226.748302 244.324756 
L 226.748302 259.425847 
L 226.931374 260.156957 
L 227.114445 260.472949 
L 227.297517 260.337495 
L 227.480589 259.786919 
L 227.663661 258.917479 
L 227.846732 257.858815 
L 228.029804 256.743417 
L 228.212876 255.681582 
L 228.395948 254.747518 
L 228.57902 253.977229 
L 228.762091 253.375119 
L 228.945163 252.924713 
L 229.128235 252.599414 
L 229.311307 252.370794 
L 229.494379 252.213567 
L 229.67745 252.107624 
L 229.860522 252.038046 
L 230.043594 251.994105 
L 230.226666 251.968024 
L 230.409737 251.953937 
L 230.592809 251.947233 
L 230.775881 251.94425 
L 230.958953 251.942204 
L 231.142025 251.939229 
L 231.325096 251.934375 
L 231.508168 251.927532 
L 231.69124 251.919218 
L 231.874312 251.910307 
L 232.057384 251.901735 
L 232.240455 251.894278 
L 232.423527 251.888434 
L 232.606599 251.884413 
L 232.789671 251.882207 
L 232.972742 251.881675 
L 233.155814 251.882599 
L 233.338886 251.884704 
L 233.521958 251.88763 
L 233.70503 251.890914 
L 233.888101 251.89401 
L 234.071173 251.896361 
L 234.254245 251.897515 
L 234.437317 251.897239 
L 234.620388 251.895579 
L 234.80346 251.892844 
L 234.986532 251.889505 
L 235.169604 251.886064 
L 235.352676 251.882934 
L 235.535747 251.880367 
L 235.718819 251.878447 
L 235.901891 251.87713 
L 236.084963 251.876296 
L 236.268035 251.875808 
L 236.451106 251.875543 
L 236.634178 251.875409 
L 236.81725 251.875346 
L 237.000322 251.875319 
L 237.183393 251.875308 
L 237.366465 251.875304 
L 237.549537 251.875304 
L 237.732609 251.875307 
L 237.915681 251.875315 
L 238.098752 251.875337 
L 238.281824 251.875388 
L 238.464896 251.875499 
L 238.647968 251.875725 
L 238.83104 251.876153 
L 239.014111 251.876907 
L 239.197183 251.878139 
L 239.380255 251.880012 
L 239.563327 251.882654 
L 239.746398 251.886109 
L 239.92947 251.890291 
L 240.112542 251.894969 
L 240.295614 251.899787 
L 240.478686 251.904337 
L 240.661757 251.908244 
L 240.844829 251.911259 
L 241.027901 251.913329 
L 241.210973 251.91465 
L 241.394045 251.915688 
L 241.577116 251.917163 
L 241.760188 251.919965 
L 241.94326 251.924985 
L 242.126332 251.932848 
L 242.309403 251.943639 
L 242.492475 251.956707 
L 242.675547 251.970687 
L 242.858619 251.983758 
L 243.041691 251.994099 
L 243.224762 252.000373 
L 243.407834 252.002054 
L 243.590906 251.999475 
L 243.773978 251.993599 
L 243.95705 251.98561 
L 244.140121 251.976533 
L 244.323193 251.966999 
L 244.506265 251.957232 
L 244.689337 251.947218 
L 244.872408 251.936926 
L 244.872408 251.813677 
L 244.872408 251.813677 
L 244.689337 251.803385 
L 244.506265 251.793371 
L 244.323193 251.783604 
L 244.140121 251.77407 
L 243.95705 251.764993 
L 243.773978 251.757004 
L 243.590906 251.751127 
L 243.407834 251.748549 
L 243.224762 251.75023 
L 243.041691 251.756504 
L 242.858619 251.766845 
L 242.675547 251.779916 
L 242.492475 251.793896 
L 242.309403 251.806964 
L 242.126332 251.817755 
L 241.94326 251.825618 
L 241.760188 251.830638 
L 241.577116 251.83344 
L 241.394045 251.834915 
L 241.210973 251.835953 
L 241.027901 251.837274 
L 240.844829 251.839344 
L 240.661757 251.842359 
L 240.478686 251.846266 
L 240.295614 251.850816 
L 240.112542 251.855634 
L 239.92947 251.860312 
L 239.746398 251.864494 
L 239.563327 251.867949 
L 239.380255 251.870591 
L 239.197183 251.872464 
L 239.014111 251.873696 
L 238.83104 251.874449 
L 238.647968 251.874877 
L 238.464896 251.875104 
L 238.281824 251.875215 
L 238.098752 251.875266 
L 237.915681 251.875288 
L 237.732609 251.875296 
L 237.549537 251.875299 
L 237.366465 251.875299 
L 237.183393 251.875295 
L 237.000322 251.875284 
L 236.81725 251.875257 
L 236.634178 251.875194 
L 236.451106 251.87506 
L 236.268035 251.874795 
L 236.084963 251.874307 
L 235.901891 251.873473 
L 235.718819 251.872155 
L 235.535747 251.870236 
L 235.352676 251.867669 
L 235.169604 251.864539 
L 234.986532 251.861098 
L 234.80346 251.857759 
L 234.620388 251.855024 
L 234.437317 251.853364 
L 234.254245 251.853088 
L 234.071173 251.854242 
L 233.888101 251.856593 
L 233.70503 251.859689 
L 233.521958 251.862973 
L 233.338886 251.865899 
L 233.155814 251.868004 
L 232.972742 251.868928 
L 232.789671 251.868395 
L 232.606599 251.866189 
L 232.423527 251.862169 
L 232.240455 251.856325 
L 232.057384 251.848868 
L 231.874312 251.840296 
L 231.69124 251.831385 
L 231.508168 251.823071 
L 231.325096 251.816228 
L 231.142025 251.811374 
L 230.958953 251.808399 
L 230.775881 251.806353 
L 230.592809 251.803369 
L 230.409737 251.796666 
L 230.226666 251.782579 
L 230.043594 251.756498 
L 229.860522 251.712557 
L 229.67745 251.642979 
L 229.494379 251.537036 
L 229.311307 251.379809 
L 229.128235 251.151189 
L 228.945163 250.82589 
L 228.762091 250.375484 
L 228.57902 249.773374 
L 228.395948 249.003085 
L 228.212876 248.069021 
L 228.029804 247.007186 
L 227.846732 245.891788 
L 227.663661 244.833124 
L 227.480589 243.963684 
L 227.297517 243.413108 
L 227.114445 243.277654 
L 226.931374 243.593646 
L 226.748302 244.324756 
z
" style="fill:#ff0000;fill-opacity:0.75;"/>
   </g>
   <g id="PolyCollection_4">
    <path clip-path="url(#p80b8922083)" d="M 226.747283 209.064348 
L 226.747283 225.905079 
L 226.917799 226.070966 
L 227.088316 226.08236 
L 227.258832 225.939477 
L 227.429349 225.650895 
L 227.599865 225.232739 
L 227.770381 224.707215 
L 227.940898 224.100693 
L 228.111414 223.441547 
L 228.28193 222.758017 
L 228.452447 222.076296 
L 228.622963 221.419022 
L 228.793479 220.804258 
L 228.963996 220.245019 
L 229.134512 219.749271 
L 229.305029 219.320353 
L 229.475545 218.957676 
L 229.646061 218.657596 
L 229.816578 218.414325 
L 229.987094 218.220808 
L 230.15761 218.06947 
L 230.328127 217.952825 
L 230.498643 217.863908 
L 230.669159 217.796557 
L 230.839676 217.745552 
L 231.010192 217.706653 
L 231.180708 217.676549 
L 231.351225 217.652756 
L 231.521741 217.633494 
L 231.692258 217.617542 
L 231.862774 217.604102 
L 232.03329 217.592679 
L 232.203807 217.582973 
L 232.374323 217.574792 
L 232.544839 217.567999 
L 232.715356 217.562461 
L 232.885872 217.558034 
L 233.056388 217.55455 
L 233.226905 217.551821 
L 233.397421 217.549649 
L 233.567938 217.547836 
L 233.738454 217.546201 
L 233.90897 217.544583 
L 234.079487 217.542855 
L 234.250003 217.540925 
L 234.420519 217.538734 
L 234.591036 217.536255 
L 234.761552 217.53349 
L 234.932068 217.530463 
L 235.102585 217.527212 
L 235.273101 217.523792 
L 235.443617 217.520263 
L 235.614134 217.516689 
L 235.78465 217.513136 
L 235.955167 217.509668 
L 236.125683 217.506346 
L 236.296199 217.503222 
L 236.466716 217.500344 
L 236.637232 217.497747 
L 236.807748 217.495461 
L 236.978265 217.493505 
L 237.148781 217.491893 
L 237.319297 217.490638 
L 237.489814 217.489748 
L 237.66033 217.489242 
L 237.830847 217.489146 
L 238.001363 217.489501 
L 238.171879 217.490369 
L 238.342396 217.491838 
L 238.512912 217.494029 
L 238.683428 217.497095 
L 238.853945 217.501231 
L 239.024461 217.506673 
L 239.194977 217.513702 
L 239.365494 217.522638 
L 239.53601 217.533835 
L 239.706526 217.547675 
L 239.877043 217.564546 
L 240.047559 217.584821 
L 240.218076 217.608829 
L 240.388592 217.636817 
L 240.559108 217.668912 
L 240.729625 217.705076 
L 240.900141 217.745064 
L 241.070657 217.788394 
L 241.241174 217.834318 
L 241.41169 217.881821 
L 241.582206 217.929634 
L 241.752723 217.976274 
L 241.923239 218.020108 
L 242.093756 218.059439 
L 242.264272 218.092611 
L 242.434788 218.118119 
L 242.605305 218.134724 
L 242.775821 218.141546 
L 242.946337 218.138144 
L 243.116854 218.124558 
L 243.28737 218.101314 
L 243.457886 218.069393 
L 243.628403 218.030154 
L 243.628403 216.939272 
L 243.628403 216.939272 
L 243.457886 216.900034 
L 243.28737 216.868112 
L 243.116854 216.844869 
L 242.946337 216.831283 
L 242.775821 216.827881 
L 242.605305 216.834703 
L 242.434788 216.851307 
L 242.264272 216.876816 
L 242.093756 216.909988 
L 241.923239 216.949319 
L 241.752723 216.993153 
L 241.582206 217.039792 
L 241.41169 217.087605 
L 241.241174 217.135109 
L 241.070657 217.181033 
L 240.900141 217.224362 
L 240.729625 217.264351 
L 240.559108 217.300514 
L 240.388592 217.332609 
L 240.218076 217.360598 
L 240.047559 217.384605 
L 239.877043 217.40488 
L 239.706526 217.421751 
L 239.53601 217.435591 
L 239.365494 217.446789 
L 239.194977 217.455724 
L 239.024461 217.462753 
L 238.853945 217.468196 
L 238.683428 217.472332 
L 238.512912 217.475398 
L 238.342396 217.477588 
L 238.171879 217.479058 
L 238.001363 217.479926 
L 237.830847 217.48028 
L 237.66033 217.480184 
L 237.489814 217.479678 
L 237.319297 217.478789 
L 237.148781 217.477533 
L 236.978265 217.475922 
L 236.807748 217.473966 
L 236.637232 217.471679 
L 236.466716 217.469083 
L 236.296199 217.466204 
L 236.125683 217.463081 
L 235.955167 217.459758 
L 235.78465 217.45629 
L 235.614134 217.452738 
L 235.443617 217.449164 
L 235.273101 217.445634 
L 235.102585 217.442214 
L 234.932068 217.438964 
L 234.761552 217.435936 
L 234.591036 217.433171 
L 234.420519 217.430693 
L 234.250003 217.428501 
L 234.079487 217.426571 
L 233.90897 217.424844 
L 233.738454 217.423226 
L 233.567938 217.42159 
L 233.397421 217.419778 
L 233.226905 217.417606 
L 233.056388 217.414877 
L 232.885872 217.411392 
L 232.715356 217.406965 
L 232.544839 217.401428 
L 232.374323 217.394634 
L 232.203807 217.386454 
L 232.03329 217.376747 
L 231.862774 217.365324 
L 231.692258 217.351885 
L 231.521741 217.335932 
L 231.351225 217.31667 
L 231.180708 217.292878 
L 231.010192 217.262773 
L 230.839676 217.223874 
L 230.669159 217.17287 
L 230.498643 217.105518 
L 230.328127 217.016601 
L 230.15761 216.899956 
L 229.987094 216.748619 
L 229.816578 216.555101 
L 229.646061 216.311831 
L 229.475545 216.01175 
L 229.305029 215.649073 
L 229.134512 215.220155 
L 228.963996 214.724407 
L 228.793479 214.165168 
L 228.622963 213.550405 
L 228.452447 212.89313 
L 228.28193 212.21141 
L 228.111414 211.52788 
L 227.940898 210.868733 
L 227.770381 210.262211 
L 227.599865 209.736688 
L 227.429349 209.318531 
L 227.258832 209.029949 
L 227.088316 208.887066 
L 226.917799 208.898461 
L 226.747283 209.064348 
z
" style="fill:#ff0000;fill-opacity:0.75;"/>
   </g>
   <g id="PolyCollection_5">
    <path clip-path="url(#p80b8922083)" d="M 226.747283 174.650052 
L 226.747283 191.538198 
L 226.918637 191.679855 
L 227.089992 191.691772 
L 227.261346 191.574007 
L 227.4327 191.332538 
L 227.604054 190.978785 
L 227.775409 190.528732 
L 227.946763 190.001756 
L 228.118117 189.419257 
L 228.289472 188.803254 
L 228.460826 188.175045 
L 228.63218 187.554056 
L 228.803534 186.956954 
L 228.974889 186.397065 
L 229.146243 185.884113 
L 229.317597 185.42424 
L 229.488951 185.020279 
L 229.660306 184.672201 
L 229.83166 184.377673 
L 230.003014 184.132663 
L 230.174369 183.932024 
L 230.345723 183.770037 
L 230.517077 183.64085 
L 230.688431 183.53883 
L 230.859786 183.458811 
L 231.03114 183.396243 
L 231.202494 183.347263 
L 231.373849 183.308701 
L 231.545203 183.278039 
L 231.716557 183.253337 
L 231.887911 183.233148 
L 232.059266 183.216422 
L 232.23062 183.202417 
L 232.401974 183.190619 
L 232.573328 183.180677 
L 232.744683 183.172343 
L 232.916037 183.165436 
L 233.087391 183.15981 
L 233.258746 183.155338 
L 233.4301 183.151895 
L 233.601454 183.149354 
L 233.772808 183.147587 
L 233.944163 183.146459 
L 234.115517 183.145831 
L 234.286871 183.145564 
L 234.458225 183.14552 
L 234.62958 183.145566 
L 234.800934 183.145575 
L 234.972288 183.145434 
L 235.143643 183.145044 
L 235.314997 183.144327 
L 235.486351 183.143226 
L 235.657705 183.141712 
L 235.82906 183.13978 
L 236.000414 183.137453 
L 236.171768 183.13478 
L 236.343122 183.131828 
L 236.514477 183.128684 
L 236.685831 183.125447 
L 236.857185 183.122224 
L 237.02854 183.119127 
L 237.199894 183.116266 
L 237.371248 183.113754 
L 237.542602 183.111701 
L 237.713957 183.110219 
L 237.885311 183.109428 
L 238.056665 183.109457 
L 238.22802 183.110456 
L 238.399374 183.112598 
L 238.570728 183.116089 
L 238.742082 183.121174 
L 238.913437 183.128141 
L 239.084791 183.13732 
L 239.256145 183.149086 
L 239.427499 183.163842 
L 239.598854 183.182015 
L 239.770208 183.204027 
L 239.941562 183.230275 
L 240.112917 183.26109 
L 240.284271 183.296702 
L 240.455625 183.337194 
L 240.626979 183.382461 
L 240.798334 183.432173 
L 240.969688 183.485736 
L 241.141042 183.542283 
L 241.312396 183.600666 
L 241.483751 183.659479 
L 241.655105 183.717096 
L 241.826459 183.771743 
L 241.997814 183.821573 
L 242.169168 183.864773 
L 242.340522 183.899667 
L 242.511876 183.924824 
L 242.683231 183.939155 
L 242.854585 183.941991 
L 243.025939 183.933131 
L 243.197293 183.912865 
L 243.368648 183.881956 
L 243.540002 183.841591 
L 243.711356 183.793305 
L 243.711356 182.394945 
L 243.711356 182.394945 
L 243.540002 182.346659 
L 243.368648 182.306294 
L 243.197293 182.275385 
L 243.025939 182.255119 
L 242.854585 182.246259 
L 242.683231 182.249095 
L 242.511876 182.263426 
L 242.340522 182.288583 
L 242.169168 182.323477 
L 241.997814 182.366677 
L 241.826459 182.416507 
L 241.655105 182.471154 
L 241.483751 182.528771 
L 241.312396 182.587584 
L 241.141042 182.645967 
L 240.969688 182.702514 
L 240.798334 182.756077 
L 240.626979 182.805789 
L 240.455625 182.851056 
L 240.284271 182.891548 
L 240.112917 182.92716 
L 239.941562 182.957975 
L 239.770208 182.984223 
L 239.598854 183.006235 
L 239.427499 183.024408 
L 239.256145 183.039164 
L 239.084791 183.05093 
L 238.913437 183.060109 
L 238.742082 183.067076 
L 238.570728 183.072161 
L 238.399374 183.075652 
L 238.22802 183.077794 
L 238.056665 183.078793 
L 237.885311 183.078822 
L 237.713957 183.078031 
L 237.542602 183.076549 
L 237.371248 183.074496 
L 237.199894 183.071984 
L 237.02854 183.069123 
L 236.857185 183.066026 
L 236.685831 183.062803 
L 236.514477 183.059566 
L 236.343122 183.056422 
L 236.171768 183.05347 
L 236.000414 183.050797 
L 235.82906 183.04847 
L 235.657705 183.046538 
L 235.486351 183.045024 
L 235.314997 183.043923 
L 235.143643 183.043206 
L 234.972288 183.042816 
L 234.800934 183.042675 
L 234.62958 183.042684 
L 234.458225 183.04273 
L 234.286871 183.042686 
L 234.115517 183.042419 
L 233.944163 183.041791 
L 233.772808 183.040663 
L 233.601454 183.038896 
L 233.4301 183.036355 
L 233.258746 183.032912 
L 233.087391 183.02844 
L 232.916037 183.022814 
L 232.744683 183.015907 
L 232.573328 183.007573 
L 232.401974 182.997631 
L 232.23062 182.985833 
L 232.059266 182.971828 
L 231.887911 182.955102 
L 231.716557 182.934913 
L 231.545203 182.910211 
L 231.373849 182.879549 
L 231.202494 182.840987 
L 231.03114 182.792007 
L 230.859786 182.729439 
L 230.688431 182.64942 
L 230.517077 182.5474 
L 230.345723 182.418213 
L 230.174369 182.256226 
L 230.003014 182.055587 
L 229.83166 181.810577 
L 229.660306 181.516049 
L 229.488951 181.167971 
L 229.317597 180.76401 
L 229.146243 180.304137 
L 228.974889 179.791185 
L 228.803534 179.231296 
L 228.63218 178.634194 
L 228.460826 178.013205 
L 228.289472 177.384996 
L 228.118117 176.768993 
L 227.946763 176.186494 
L 227.775409 175.659518 
L 227.604054 175.209465 
L 227.4327 174.855712 
L 227.261346 174.614243 
L 227.089992 174.496478 
L 226.918637 174.508395 
L 226.747283 174.650052 
z
" style="fill:#ff0000;fill-opacity:0.75;"/>
   </g>
   <g id="PolyCollection_6">
    <path clip-path="url(#p80b8922083)" d="M 226.747847 140.537152 
L 226.747847 156.869922 
L 226.932173 157.165263 
L 227.116499 157.301184 
L 227.300825 157.27174 
L 227.48515 157.080781 
L 227.669476 156.741425 
L 227.853802 156.274649 
L 228.038128 155.707196 
L 228.222454 155.069088 
L 228.40678 154.391061 
L 228.591105 153.702227 
L 228.775431 153.028171 
L 228.959757 152.38966 
L 229.144083 151.801989 
L 229.328409 151.274926 
L 229.512735 150.813153 
L 229.697061 150.417053 
L 229.881386 150.083687 
L 230.065712 149.80781 
L 230.250038 149.582822 
L 230.434364 149.401576 
L 230.61869 149.256999 
L 230.803016 149.142514 
L 230.987341 149.052305 
L 231.171667 148.981421 
L 231.355993 148.925784 
L 231.540319 148.882121 
L 231.724645 148.847865 
L 231.908971 148.82103 
L 232.093297 148.800096 
L 232.277622 148.783903 
L 232.461948 148.77156 
L 232.646274 148.76237 
L 232.8306 148.755771 
L 233.014926 148.751295 
L 233.199252 148.748532 
L 233.383577 148.747112 
L 233.567903 148.746688 
L 233.752229 148.746931 
L 233.936555 148.747537 
L 234.120881 148.748224 
L 234.305207 148.748751 
L 234.489533 148.748921 
L 234.673858 148.748593 
L 234.858184 148.747689 
L 235.04251 148.746193 
L 235.226836 148.744152 
L 235.411162 148.741668 
L 235.595488 148.738883 
L 235.779813 148.735966 
L 235.964139 148.733101 
L 236.148465 148.730462 
L 236.332791 148.728208 
L 236.517117 148.726468 
L 236.701443 148.72533 
L 236.885769 148.724845 
L 237.070094 148.725019 
L 237.25442 148.725826 
L 237.438746 148.727208 
L 237.623072 148.729087 
L 237.807398 148.731377 
L 237.991724 148.733992 
L 238.176049 148.73686 
L 238.360375 148.739925 
L 238.544701 148.743163 
L 238.729027 148.746582 
L 238.913353 148.750232 
L 239.097679 148.75421 
L 239.282005 148.758667 
L 239.46633 148.763814 
L 239.650656 148.769932 
L 239.834982 148.777373 
L 240.019308 148.786564 
L 240.203634 148.797995 
L 240.38796 148.812199 
L 240.572285 148.82972 
L 240.756611 148.851065 
L 240.940937 148.876637 
L 241.125263 148.90667 
L 241.309589 148.941159 
L 241.493915 148.979792 
L 241.678241 149.021908 
L 241.862566 149.066484 
L 242.046892 149.112149 
L 242.231218 149.157247 
L 242.415544 149.199929 
L 242.59987 149.238282 
L 242.784196 149.270469 
L 242.968521 149.294877 
L 243.152847 149.310251 
L 243.337173 149.315792 
L 243.521499 149.311225 
L 243.705825 149.296809 
L 243.890151 149.273305 
L 244.074477 149.2419 
L 244.258802 149.204098 
L 244.443128 149.161598 
L 244.627454 149.116161 
L 244.81178 149.069493 
L 244.996106 149.023147 
L 244.996106 148.383926 
L 244.996106 148.383926 
L 244.81178 148.33758 
L 244.627454 148.290912 
L 244.443128 148.245475 
L 244.258802 148.202975 
L 244.074477 148.165173 
L 243.890151 148.133768 
L 243.705825 148.110264 
L 243.521499 148.095848 
L 243.337173 148.091282 
L 243.152847 148.096823 
L 242.968521 148.112196 
L 242.784196 148.136605 
L 242.59987 148.168792 
L 242.415544 148.207145 
L 242.231218 148.249827 
L 242.046892 148.294925 
L 241.862566 148.34059 
L 241.678241 148.385165 
L 241.493915 148.427282 
L 241.309589 148.465914 
L 241.125263 148.500403 
L 240.940937 148.530437 
L 240.756611 148.556009 
L 240.572285 148.577353 
L 240.38796 148.594875 
L 240.203634 148.609079 
L 240.019308 148.620509 
L 239.834982 148.6297 
L 239.650656 148.637142 
L 239.46633 148.643259 
L 239.282005 148.648407 
L 239.097679 148.652863 
L 238.913353 148.656841 
L 238.729027 148.660492 
L 238.544701 148.663911 
L 238.360375 148.667149 
L 238.176049 148.670214 
L 237.991724 148.673081 
L 237.807398 148.675697 
L 237.623072 148.677987 
L 237.438746 148.679866 
L 237.25442 148.681247 
L 237.070094 148.682054 
L 236.885769 148.682229 
L 236.701443 148.681743 
L 236.517117 148.680606 
L 236.332791 148.678865 
L 236.148465 148.676612 
L 235.964139 148.673973 
L 235.779813 148.671107 
L 235.595488 148.668191 
L 235.411162 148.665406 
L 235.226836 148.662921 
L 235.04251 148.660881 
L 234.858184 148.659385 
L 234.673858 148.65848 
L 234.489533 148.658152 
L 234.305207 148.658322 
L 234.120881 148.658849 
L 233.936555 148.659537 
L 233.752229 148.660142 
L 233.567903 148.660386 
L 233.383577 148.659961 
L 233.199252 148.658541 
L 233.014926 148.655779 
L 232.8306 148.651303 
L 232.646274 148.644704 
L 232.461948 148.635513 
L 232.277622 148.62317 
L 232.093297 148.606978 
L 231.908971 148.586044 
L 231.724645 148.559209 
L 231.540319 148.524952 
L 231.355993 148.48129 
L 231.171667 148.425652 
L 230.987341 148.354768 
L 230.803016 148.264559 
L 230.61869 148.150075 
L 230.434364 148.005497 
L 230.250038 147.824252 
L 230.065712 147.599264 
L 229.881386 147.323386 
L 229.697061 146.99002 
L 229.512735 146.593921 
L 229.328409 146.132148 
L 229.144083 145.605084 
L 228.959757 145.017413 
L 228.775431 144.378903 
L 228.591105 143.704847 
L 228.40678 143.016012 
L 228.222454 142.337986 
L 228.038128 141.699877 
L 227.853802 141.132424 
L 227.669476 140.665649 
L 227.48515 140.326293 
L 227.300825 140.135334 
L 227.116499 140.10589 
L 226.932173 140.241811 
L 226.747847 140.537152 
z
" style="fill:#ff0000;fill-opacity:0.75;"/>
   </g>
   <g id="PolyCollection_7">
    <path clip-path="url(#p80b8922083)" d="M 226.746976 105.715301 
L 226.746976 122.910596 
L 228.863351 121.562026 
L 230.979726 118.257828 
L 233.096101 115.740382 
L 235.212476 114.717258 
L 237.328851 114.549367 
L 239.445226 114.734791 
L 241.5616 114.988997 
L 243.677975 115.03404 
L 245.79435 114.808833 
L 247.910725 114.531584 
L 250.0271 114.374649 
L 252.143475 114.324088 
L 254.25985 114.314235 
L 256.376225 114.313044 
L 258.4926 114.312953 
L 260.608975 114.312949 
L 262.72535 114.312949 
L 264.841725 114.312949 
L 266.9581 114.312949 
L 269.074475 114.312949 
L 271.19085 114.312949 
L 273.307225 114.312949 
L 275.4236 114.312949 
L 277.539975 114.312949 
L 279.65635 114.312949 
L 281.772725 114.312949 
L 283.889099 114.312949 
L 286.005474 114.312949 
L 288.121849 114.312949 
L 290.238224 114.312949 
L 292.354599 114.312949 
L 294.470974 114.312949 
L 296.587349 114.312949 
L 298.703724 114.312949 
L 300.820099 114.312949 
L 302.936474 114.312949 
L 305.052849 114.312949 
L 307.169224 114.312949 
L 309.285599 114.312949 
L 311.401974 114.312949 
L 313.518349 114.312949 
L 315.634724 114.312949 
L 317.751099 114.312949 
L 319.867474 114.312949 
L 321.983849 114.312949 
L 324.100223 114.312949 
L 326.216598 114.312949 
L 328.332973 114.312949 
L 330.449348 114.312949 
L 332.565723 114.312949 
L 334.682098 114.312949 
L 336.798473 114.312949 
L 338.914848 114.312949 
L 341.031223 114.312949 
L 343.147598 114.312949 
L 345.263973 114.312949 
L 347.380348 114.312949 
L 349.496723 114.312949 
L 351.613098 114.312949 
L 353.729473 114.312949 
L 355.845848 114.312949 
L 357.962223 114.312949 
L 360.078598 114.312949 
L 362.194973 114.312949 
L 364.311347 114.312949 
L 366.427722 114.312949 
L 368.544097 114.312949 
L 370.660472 114.312949 
L 372.776847 114.312949 
L 374.893222 114.312949 
L 377.009597 114.312949 
L 379.125972 114.312949 
L 381.242347 114.312949 
L 383.358722 114.312949 
L 385.475097 114.312949 
L 387.591472 114.312949 
L 389.707847 114.312949 
L 391.824222 114.312949 
L 393.940597 114.312949 
L 396.056972 114.312949 
L 398.173347 114.312949 
L 400.289722 114.312949 
L 402.406097 114.312949 
L 404.522471 114.312949 
L 406.638846 114.312949 
L 408.755221 114.312949 
L 410.871596 114.312949 
L 412.987971 114.312949 
L 415.104346 114.312949 
L 417.220721 114.312949 
L 419.337096 114.312949 
L 421.453471 114.312949 
L 423.569846 114.312954 
L 425.686221 114.313018 
L 427.802596 114.313493 
L 429.918971 114.315635 
L 432.035346 114.321348 
L 434.151721 114.329596 
L 436.268096 114.33386 
L 436.268096 114.292037 
L 436.268096 114.292037 
L 434.151721 114.296301 
L 432.035346 114.304549 
L 429.918971 114.310262 
L 427.802596 114.312404 
L 425.686221 114.312879 
L 423.569846 114.312943 
L 421.453471 114.312948 
L 419.337096 114.312949 
L 417.220721 114.312949 
L 415.104346 114.312949 
L 412.987971 114.312949 
L 410.871596 114.312949 
L 408.755221 114.312949 
L 406.638846 114.312949 
L 404.522471 114.312949 
L 402.406097 114.312949 
L 400.289722 114.312949 
L 398.173347 114.312949 
L 396.056972 114.312949 
L 393.940597 114.312949 
L 391.824222 114.312949 
L 389.707847 114.312949 
L 387.591472 114.312949 
L 385.475097 114.312949 
L 383.358722 114.312949 
L 381.242347 114.312949 
L 379.125972 114.312949 
L 377.009597 114.312949 
L 374.893222 114.312949 
L 372.776847 114.312949 
L 370.660472 114.312949 
L 368.544097 114.312949 
L 366.427722 114.312949 
L 364.311347 114.312949 
L 362.194973 114.312949 
L 360.078598 114.312949 
L 357.962223 114.312949 
L 355.845848 114.312949 
L 353.729473 114.312949 
L 351.613098 114.312949 
L 349.496723 114.312949 
L 347.380348 114.312949 
L 345.263973 114.312949 
L 343.147598 114.312949 
L 341.031223 114.312949 
L 338.914848 114.312949 
L 336.798473 114.312949 
L 334.682098 114.312949 
L 332.565723 114.312949 
L 330.449348 114.312949 
L 328.332973 114.312949 
L 326.216598 114.312949 
L 324.100223 114.312949 
L 321.983849 114.312949 
L 319.867474 114.312949 
L 317.751099 114.312949 
L 315.634724 114.312949 
L 313.518349 114.312949 
L 311.401974 114.312949 
L 309.285599 114.312949 
L 307.169224 114.312949 
L 305.052849 114.312949 
L 302.936474 114.312949 
L 300.820099 114.312949 
L 298.703724 114.312949 
L 296.587349 114.312949 
L 294.470974 114.312949 
L 292.354599 114.312949 
L 290.238224 114.312949 
L 288.121849 114.312949 
L 286.005474 114.312949 
L 283.889099 114.312949 
L 281.772725 114.312949 
L 279.65635 114.312949 
L 277.539975 114.312949 
L 275.4236 114.312949 
L 273.307225 114.312949 
L 271.19085 114.312949 
L 269.074475 114.312949 
L 266.9581 114.312949 
L 264.841725 114.312949 
L 262.72535 114.312949 
L 260.608975 114.312948 
L 258.4926 114.312944 
L 256.376225 114.312853 
L 254.25985 114.311662 
L 252.143475 114.301809 
L 250.0271 114.251248 
L 247.910725 114.094313 
L 245.79435 113.817064 
L 243.677975 113.591858 
L 241.5616 113.6369 
L 239.445226 113.891106 
L 237.328851 114.07653 
L 235.212476 113.908639 
L 233.096101 112.885515 
L 230.979726 110.368069 
L 228.863351 107.063871 
L 226.746976 105.715301 
z
" style="fill:#ff0000;fill-opacity:0.75;"/>
   </g>
   <g id="PolyCollection_8">
    <path clip-path="url(#p80b8922083)" d="M 226.749385 73.920794 
L 226.749385 85.923927 
L 226.933219 87.004079 
L 227.117054 87.860498 
L 227.300888 88.386782 
L 227.484722 88.520007 
L 227.668556 88.253188 
L 227.852391 87.634483 
L 228.036225 86.754172 
L 228.220059 85.724061 
L 228.403893 84.655575 
L 228.587728 83.642117 
L 228.771562 82.748843 
L 228.955396 82.010303 
L 229.139231 81.434183 
L 229.323065 81.008492 
L 229.506899 80.709611 
L 229.690733 80.509377 
L 229.874568 80.380306 
L 230.058402 80.298742 
L 230.242236 80.246267 
L 230.42607 80.209841 
L 230.609905 80.181192 
L 230.793739 80.155846 
L 230.977573 80.132048 
L 231.161408 80.1097 
L 231.345242 80.089418 
L 231.529076 80.071779 
L 231.71291 80.056855 
L 231.896745 80.044083 
L 232.080579 80.032474 
L 232.264413 80.021028 
L 232.448248 80.009191 
L 232.632082 79.997128 
L 232.815916 79.985735 
L 232.99975 79.976346 
L 233.183585 79.970291 
L 233.367419 79.968423 
L 233.551253 79.9708 
L 233.735087 79.976581 
L 233.918922 79.98419 
L 234.102756 79.991694 
L 234.28659 79.997292 
L 234.470425 79.999775 
L 234.654259 79.998787 
L 234.838093 79.994817 
L 235.021927 79.988919 
L 235.205762 79.982317 
L 235.389596 79.97604 
L 235.57343 79.970737 
L 235.757264 79.966671 
L 235.941099 79.963839 
L 236.124933 79.9621 
L 236.308767 79.961254 
L 236.492602 79.961068 
L 236.676436 79.961281 
L 236.86027 79.961624 
L 237.044104 79.961839 
L 237.227939 79.961705 
L 237.411773 79.961035 
L 237.595607 79.959682 
L 237.779441 79.957575 
L 237.963276 79.954775 
L 238.14711 79.951536 
L 238.330944 79.948298 
L 238.514779 79.945603 
L 238.698613 79.943932 
L 238.882447 79.943525 
L 239.066281 79.944266 
L 239.250116 79.945688 
L 239.43395 79.947096 
L 239.617784 79.947784 
L 239.801619 79.947251 
L 239.985453 79.945345 
L 240.169287 79.942274 
L 240.353121 79.938513 
L 240.536956 79.93463 
L 240.72079 79.93114 
L 240.904624 79.928413 
L 241.088458 79.926687 
L 241.272293 79.926137 
L 241.456127 79.926984 
L 241.639961 79.92958 
L 241.823796 79.934421 
L 242.00763 79.942068 
L 242.191464 79.952968 
L 242.375298 79.967213 
L 242.559133 79.984308 
L 242.742967 80.003055 
L 242.926801 80.021631 
L 243.110635 80.037875 
L 243.29447 80.049751 
L 243.478304 80.055808 
L 243.662138 80.05553 
L 243.845973 80.049414 
L 244.029807 80.038783 
L 244.213641 80.025393 
L 244.397475 80.010974 
L 244.58131 79.996879 
L 244.765144 79.983912 
L 244.948978 79.972378 
L 244.948978 79.872343 
L 244.948978 79.872343 
L 244.765144 79.860808 
L 244.58131 79.847842 
L 244.397475 79.833747 
L 244.213641 79.819328 
L 244.029807 79.805937 
L 243.845973 79.795306 
L 243.662138 79.789191 
L 243.478304 79.788912 
L 243.29447 79.79497 
L 243.110635 79.806845 
L 242.926801 79.82309 
L 242.742967 79.841665 
L 242.559133 79.860413 
L 242.375298 79.877508 
L 242.191464 79.891753 
L 242.00763 79.902653 
L 241.823796 79.9103 
L 241.639961 79.915141 
L 241.456127 79.917737 
L 241.272293 79.918584 
L 241.088458 79.918033 
L 240.904624 79.916307 
L 240.72079 79.913581 
L 240.536956 79.910091 
L 240.353121 79.906208 
L 240.169287 79.902446 
L 239.985453 79.899376 
L 239.801619 79.897469 
L 239.617784 79.896937 
L 239.43395 79.897625 
L 239.250116 79.899032 
L 239.066281 79.900454 
L 238.882447 79.901196 
L 238.698613 79.900789 
L 238.514779 79.899118 
L 238.330944 79.896423 
L 238.14711 79.893185 
L 237.963276 79.889945 
L 237.779441 79.887146 
L 237.595607 79.885038 
L 237.411773 79.883686 
L 237.227939 79.883015 
L 237.044104 79.882881 
L 236.86027 79.883097 
L 236.676436 79.883439 
L 236.492602 79.883653 
L 236.308767 79.883467 
L 236.124933 79.882621 
L 235.941099 79.880882 
L 235.757264 79.87805 
L 235.57343 79.873984 
L 235.389596 79.868681 
L 235.205762 79.862404 
L 235.021927 79.855801 
L 234.838093 79.849904 
L 234.654259 79.845933 
L 234.470425 79.844946 
L 234.28659 79.847429 
L 234.102756 79.853027 
L 233.918922 79.86053 
L 233.735087 79.86814 
L 233.551253 79.873921 
L 233.367419 79.876298 
L 233.183585 79.87443 
L 232.99975 79.868374 
L 232.815916 79.858986 
L 232.632082 79.847592 
L 232.448248 79.83553 
L 232.264413 79.823692 
L 232.080579 79.812247 
L 231.896745 79.800637 
L 231.71291 79.787865 
L 231.529076 79.772941 
L 231.345242 79.755303 
L 231.161408 79.735021 
L 230.977573 79.712673 
L 230.793739 79.688875 
L 230.609905 79.663529 
L 230.42607 79.63488 
L 230.242236 79.598454 
L 230.058402 79.545979 
L 229.874568 79.464415 
L 229.690733 79.335343 
L 229.506899 79.13511 
L 229.323065 78.836228 
L 229.139231 78.410538 
L 228.955396 77.834418 
L 228.771562 77.095877 
L 228.587728 76.202604 
L 228.403893 75.189145 
L 228.220059 74.12066 
L 228.036225 73.090548 
L 227.852391 72.210238 
L 227.668556 71.591533 
L 227.484722 71.324713 
L 227.300888 71.457939 
L 227.117054 71.984222 
L 226.933219 72.840642 
L 226.749385 73.920794 
z
" style="fill:#ff0000;fill-opacity:0.75;"/>
   </g>
   <g id="PolyCollection_9">
    <path clip-path="url(#p80b8922083)" d="M 226.747287 40.516076 
L 226.747287 50.547468 
L 226.835233 52.500086 
L 226.923179 53.794907 
L 227.011125 54.129419 
L 227.099071 53.624362 
L 227.187017 52.644079 
L 227.274963 51.52307 
L 227.362909 50.418938 
L 227.450855 49.355999 
L 227.538801 48.349023 
L 227.626747 47.462528 
L 227.714693 46.775676 
L 227.80264 46.320283 
L 227.890586 46.055869 
L 227.978532 45.8997 
L 228.066478 45.785073 
L 228.154424 45.693463 
L 228.24237 45.634887 
L 228.330316 45.611705 
L 228.418262 45.609002 
L 228.506208 45.60975 
L 228.594154 45.607367 
L 228.6821 45.603297 
L 228.770046 45.598749 
L 228.857992 45.591757 
L 228.945938 45.580147 
L 229.033884 45.564982 
L 229.12183 45.550386 
L 229.209776 45.540054 
L 229.297722 45.534647 
L 229.385668 45.532543 
L 229.473614 45.531934 
L 229.56156 45.531828 
L 229.649506 45.531964 
L 229.737452 45.532656 
L 229.825398 45.534922 
L 229.913345 45.540323 
L 230.001291 45.549452 
L 230.089237 45.55962 
L 230.177183 45.565186 
L 230.265129 45.562313 
L 230.353075 45.553041 
L 230.441021 45.543088 
L 230.528967 45.536554 
L 230.616913 45.534234 
L 230.704859 45.535947 
L 230.792805 45.542662 
L 230.880751 45.555598 
L 230.968697 45.57297 
L 231.056643 45.588216 
L 231.144589 45.593334 
L 231.232535 45.585306 
L 231.320481 45.568798 
L 231.408427 45.552026 
L 231.496373 45.540471 
L 231.584319 45.534685 
L 231.672265 45.532527 
L 231.760211 45.531923 
L 231.848157 45.531795 
L 231.936104 45.531775 
L 232.02405 45.531772 
L 232.111996 45.531772 
L 232.199942 45.531772 
L 232.287888 45.531772 
L 232.375834 45.531772 
L 232.46378 45.531772 
L 232.551726 45.531772 
L 232.639672 45.531772 
L 232.727618 45.531772 
L 232.815564 45.531772 
L 232.90351 45.531772 
L 232.991456 45.531772 
L 233.079402 45.531772 
L 233.167348 45.531772 
L 233.255294 45.531772 
L 233.34324 45.531772 
L 233.431186 45.531772 
L 233.519132 45.531772 
L 233.607078 45.531772 
L 233.695024 45.531772 
L 233.78297 45.531772 
L 233.870916 45.531772 
L 233.958862 45.531772 
L 234.046809 45.531772 
L 234.134755 45.531772 
L 234.222701 45.531772 
L 234.310647 45.531772 
L 234.398593 45.531772 
L 234.486539 45.531772 
L 234.574485 45.531772 
L 234.662431 45.531773 
L 234.750377 45.531778 
L 234.838323 45.531815 
L 234.926269 45.532022 
L 235.014215 45.53289 
L 235.102161 45.535576 
L 235.190107 45.541631 
L 235.278053 45.551238 
L 235.365999 45.56105 
L 235.453945 45.565317 
L 235.453945 45.498227 
L 235.453945 45.498227 
L 235.365999 45.502495 
L 235.278053 45.512306 
L 235.190107 45.521913 
L 235.102161 45.527968 
L 235.014215 45.530654 
L 234.926269 45.531522 
L 234.838323 45.531729 
L 234.750377 45.531767 
L 234.662431 45.531772 
L 234.574485 45.531772 
L 234.486539 45.531772 
L 234.398593 45.531772 
L 234.310647 45.531772 
L 234.222701 45.531772 
L 234.134755 45.531772 
L 234.046809 45.531772 
L 233.958862 45.531772 
L 233.870916 45.531772 
L 233.78297 45.531772 
L 233.695024 45.531772 
L 233.607078 45.531772 
L 233.519132 45.531772 
L 233.431186 45.531772 
L 233.34324 45.531772 
L 233.255294 45.531772 
L 233.167348 45.531772 
L 233.079402 45.531772 
L 232.991456 45.531772 
L 232.90351 45.531772 
L 232.815564 45.531772 
L 232.727618 45.531772 
L 232.639672 45.531772 
L 232.551726 45.531772 
L 232.46378 45.531772 
L 232.375834 45.531772 
L 232.287888 45.531772 
L 232.199942 45.531772 
L 232.111996 45.531772 
L 232.02405 45.531772 
L 231.936104 45.531769 
L 231.848157 45.531749 
L 231.760211 45.531621 
L 231.672265 45.531017 
L 231.584319 45.528859 
L 231.496373 45.523073 
L 231.408427 45.511519 
L 231.320481 45.494746 
L 231.232535 45.478238 
L 231.144589 45.47021 
L 231.056643 45.475328 
L 230.968697 45.490574 
L 230.880751 45.507946 
L 230.792805 45.520882 
L 230.704859 45.527597 
L 230.616913 45.52931 
L 230.528967 45.52699 
L 230.441021 45.520456 
L 230.353075 45.510503 
L 230.265129 45.501231 
L 230.177183 45.498358 
L 230.089237 45.503924 
L 230.001291 45.514092 
L 229.913345 45.523221 
L 229.825398 45.528622 
L 229.737452 45.530888 
L 229.649506 45.53158 
L 229.56156 45.531716 
L 229.473614 45.53161 
L 229.385668 45.531001 
L 229.297722 45.528897 
L 229.209776 45.52349 
L 229.12183 45.513158 
L 229.033884 45.498562 
L 228.945938 45.483397 
L 228.857992 45.471787 
L 228.770046 45.464795 
L 228.6821 45.460247 
L 228.594154 45.456177 
L 228.506208 45.453794 
L 228.418262 45.454542 
L 228.330316 45.451839 
L 228.24237 45.428657 
L 228.154424 45.370081 
L 228.066478 45.278471 
L 227.978532 45.163844 
L 227.890586 45.007675 
L 227.80264 44.743261 
L 227.714693 44.287868 
L 227.626747 43.601017 
L 227.538801 42.714521 
L 227.450855 41.707545 
L 227.362909 40.644606 
L 227.274963 39.540474 
L 227.187017 38.419465 
L 227.099071 37.439182 
L 227.011125 36.934125 
L 226.923179 37.268637 
L 226.835233 38.563458 
L 226.747287 40.516076 
z
" style="fill:#ff0000;fill-opacity:0.75;"/>
   </g>
   <g id="LineCollection_1">
    <path clip-path="url(#p80b8922083)" d="M 227.709122 324.955301 
L 227.709122 316.357654 
" style="fill:none;stroke:#000000;stroke-width:1.5;"/>
    <path clip-path="url(#p80b8922083)" d="M 228.165745 290.564713 
L 228.165745 281.967066 
" style="fill:none;stroke:#000000;stroke-width:1.5;"/>
    <path clip-path="url(#p80b8922083)" d="M 227.622615 256.174125 
L 227.622615 247.576478 
" style="fill:none;stroke:#000000;stroke-width:1.5;"/>
    <path clip-path="url(#p80b8922083)" d="M 228.311282 221.783537 
L 228.311282 213.18589 
" style="fill:none;stroke:#000000;stroke-width:1.5;"/>
    <path clip-path="url(#p80b8922083)" d="M 228.59354 187.392949 
L 228.59354 178.795301 
" style="fill:none;stroke:#000000;stroke-width:1.5;"/>
    <path clip-path="url(#p80b8922083)" d="M 228.498614 153.00236 
L 228.498614 144.404713 
" style="fill:none;stroke:#000000;stroke-width:1.5;"/>
    <path clip-path="url(#p80b8922083)" d="M 228.768937 118.611772 
L 228.768937 110.014125 
" style="fill:none;stroke:#000000;stroke-width:1.5;"/>
    <path clip-path="url(#p80b8922083)" d="M 228.004667 84.221184 
L 228.004667 75.623537 
" style="fill:none;stroke:#000000;stroke-width:1.5;"/>
    <path clip-path="url(#p80b8922083)" d="M 227.164946 49.830596 
L 227.164946 41.232949 
" style="fill:none;stroke:#000000;stroke-width:1.5;"/>
   </g>
   <g id="patch_3">
    <path d="M 226.746875 343.870125 
L 226.746875 22.318125 
" style="fill:none;stroke:#000000;stroke-linecap:square;stroke-linejoin:miter;stroke-width:0.8;"/>
   </g>
   <g id="patch_4">
    <path d="M 617.346875 343.870125 
L 617.346875 22.318125 
" style="fill:none;stroke:#000000;stroke-linecap:square;stroke-linejoin:miter;stroke-width:0.8;"/>
   </g>
   <g id="patch_5">
    <path d="M 226.746875 343.870125 
L 617.346875 343.870125 
" style="fill:none;stroke:#000000;stroke-linecap:square;stroke-linejoin:miter;stroke-width:0.8;"/>
   </g>
   <g id="patch_6">
    <path d="M 226.746875 22.318125 
L 617.346875 22.318125 
" style="fill:none;stroke:#000000;stroke-linecap:square;stroke-linejoin:miter;stroke-width:0.8;"/>
   </g>
   <g id="text_18">
    <!-- AOE2 for 1.0 -->
    <defs>
     <path d="M 10.6875 12.40625 
L 21 12.40625 
L 21 0 
L 10.6875 0 
z
" id="DejaVuSans-2e"/>
    </defs>
    <g transform="translate(384.005938 16.318125)scale(0.12 -0.12)">
     <use xlink:href="#DejaVuSans-41"/>
     <use x="68.392578" xlink:href="#DejaVuSans-4f"/>
     <use x="147.103516" xlink:href="#DejaVuSans-45"/>
     <use x="210.287109" xlink:href="#DejaVuSans-32"/>
     <use x="273.910156" xlink:href="#DejaVuSans-20"/>
     <use x="305.697266" xlink:href="#DejaVuSans-66"/>
     <use x="340.902344" xlink:href="#DejaVuSans-6f"/>
     <use x="402.083984" xlink:href="#DejaVuSans-72"/>
     <use x="443.197266" xlink:href="#DejaVuSans-20"/>
     <use x="474.984375" xlink:href="#DejaVuSans-31"/>
     <use x="538.607422" xlink:href="#DejaVuSans-2e"/>
     <use x="570.394531" xlink:href="#DejaVuSans-30"/>
    </g>
   </g>
  </g>
 </g>
 <defs>
  <clipPath id="p80b8922083">
   <rect height="321.552" width="390.6" x="226.746875" y="22.318125"/>
  </clipPath>
 </defs>
</svg>
